<svg width="1024" height="768" viewBox="0 0 1024 768" xmlns="http://www.w3.org/2000/svg">
<rect x="0" y="0" width="1024" height="768" opacity="1" fill="#FFFFFF" stroke="none"/>
<polygon opacity="1" fill="#3CB44B" points="78,659 79,637 80,610 81,585 82,564 83,533 84,508 84,479 85,458 86,437 87,416 88,393 89,369 90,348 91,328 92,309 92,292 93,292 94,291 95,308 96,321 97,330 98,337 99,341 100,331 100,333 101,336 102,319 103,312 104,298 105,304 106,303 107,287 108,293 108,307 109,293 110,287 111,286 112,290 113,275 114,289 115,299 116,310 116,308 117,312 118,311 119,305 120,311 121,324 122,317 123,322 124,327 124,326 125,330 126,324 127,325 128,329 129,344 130,345 131,315 131,305 132,305 133,308 134,324 135,344 136,326 137,322 138,317 139,312 139,319 140,325 141,348 142,320 143,322 144,330 145,350 146,351 147,319 147,317 148,325 149,333 150,328 151,326 152,312 153,327 154,333 155,326 155,324 156,327 157,322 158,332 159,340 160,327 161,326 162,325 163,305 163,305 164,306 165,325 166,333 167,371 168,384 169,362 170,363 171,366 171,372 172,366 173,342 174,333 175,332 176,339 177,316 178,312 178,331 179,350 180,302 181,286 182,292 183,342 184,344 185,322 186,326 186,337 187,333 188,328 189,328 190,323 191,326 192,338 193,335 194,357 194,371 195,309 196,292 197,291 198,291 199,308 200,345 201,386 202,391 202,337 203,352 204,357 205,332 206,322 207,347 208,361 209,372 210,350 210,368 211,348 212,334 213,333 214,334 215,326 216,340 217,383 218,373 218,356 219,341 220,316 221,299 222,284 223,270 224,264 225,265 226,212 226,196 227,232 228,224 229,206 230,209 231,192 232,187 233,183 233,71 234,80 235,73 236,68 237,114 238,205 239,205 240,205 241,205 241,205 242,205 243,205 244,219 245,219 246,219 247,219 248,219 249,219 249,219 250,219 251,219 252,219 253,219 254,219 255,219 256,219 257,219 257,219 258,219 259,219 260,219 261,219 262,219 263,219 264,219 265,219 265,219 266,224 267,224 268,224 269,224 270,224 271,224 272,224 273,224 273,224 274,224 275,224 276,224 277,224 278,224 279,224 280,224 280,224 281,224 282,224 283,224 284,224 285,224 286,224 287,224 288,224 288,224 289,224 290,224 291,224 292,224 293,224 294,224 295,224 296,224 296,224 297,224 298,224 299,224 300,224 301,224 302,224 303,224 304,224 304,224 305,224 306,224 307,224 308,224 309,224 310,224 311,224 312,225 312,225 313,225 314,225 315,225 316,225 317,225 318,225 319,225 320,225 320,225 321,225 322,225 323,225 324,225 325,225 326,225 327,225 327,225 328,225 329,225 330,225 331,225 332,225 333,225 334,225 335,226 335,226 336,226 337,226 338,226 339,226 340,226 341,226 342,226 343,226 343,226 344,226 345,226 346,226 347,226 348,226 349,226 350,226 351,226 351,226 352,226 353,226 354,226 355,226 356,226 357,226 358,226 359,226 359,226 360,226 361,226 362,226 363,226 364,226 365,226 366,226 367,226 367,226 368,226 369,226 370,226 371,226 372,226 373,226 374,226 374,226 375,226 376,226 377,226 378,226 379,226 380,226 381,226 382,226 382,226 383,226 384,226 385,226 386,226 387,226 388,226 389,226 390,228 390,228 391,228 392,228 393,228 394,228 395,228 396,228 397,228 398,228 398,228 399,228 400,228 401,228 402,228 403,228 404,228 405,228 406,228 406,228 407,228 408,228 409,228 410,228 411,228 412,228 413,228 414,228 414,228 415,228 416,228 417,228 418,228 419,228 420,228 421,228 422,228 422,228 423,228 424,228 425,228 426,228 427,228 428,228 429,228 429,228 430,228 431,228 432,228 433,228 434,228 435,228 436,228 437,228 437,228 438,228 439,228 440,228 441,227 442,227 443,227 444,227 445,227 445,227 446,227 447,227 448,227 449,227 450,227 451,227 452,227 453,227 453,227 454,227 455,227 456,227 457,227 458,227 459,227 460,227 461,227 461,227 462,227 463,227 464,227 465,227 466,227 467,227 468,227 469,227 469,227 470,227 471,227 472,227 473,227 474,227 475,227 476,227 476,227 477,227 478,227 479,227 480,227 481,227 482,227 483,227 484,227 484,227 485,227 486,227 487,227 488,227 489,227 490,227 491,227 492,227 492,227 493,227 494,227 495,227 496,227 497,227 498,227 499,227 500,227 500,227 501,227 502,227 503,227 504,227 505,227 506,227 507,227 508,227 508,227 509,227 510,227 511,227 512,227 513,227 514,227 515,227 516,227 516,227 517,227 518,227 519,227 520,227 521,227 522,227 523,227 523,227 524,227 525,227 526,227 527,227 528,227 529,230 530,230 531,230 531,230 532,230 533,230 534,230 535,230 536,230 537,230 538,230 539,230 539,230 540,230 541,230 542,230 543,230 544,230 545,230 546,230 547,230 547,230 548,230 549,230 550,230 551,230 552,230 553,230 554,230 555,230 555,230 556,230 557,230 558,230 559,230 560,230 561,230 562,230 563,230 563,230 564,230 565,230 566,230 567,230 568,230 569,230 570,230 570,230 571,230 572,230 573,230 574,230 575,230 576,230 577,230 578,230 578,230 579,230 580,230 581,230 582,230 583,230 584,230 585,230 586,230 586,230 587,230 588,230 589,230 590,230 591,230 592,230 593,230 594,230 594,230 595,229 596,229 597,229 598,229 599,229 600,229 601,229 602,229 602,229 603,229 604,229 605,229 606,229 607,229 608,229 609,229 610,229 610,229 611,229 612,229 613,229 614,229 615,229 616,229 617,229 618,229 618,229 619,229 620,229 621,229 622,229 623,229 624,229 625,229 625,229 626,229 627,229 628,229 629,229 630,229 631,229 632,229 633,229 633,229 634,229 635,229 636,229 637,229 638,229 639,229 640,229 641,229 641,229 642,229 643,229 644,229 645,229 646,229 647,229 648,229 649,229 649,229 650,229 651,229 652,229 653,229 654,229 655,229 656,229 657,229 657,229 658,229 659,229 660,229 661,229 662,229 663,229 664,229 665,229 665,229 666,229 667,229 668,229 669,229 670,229 671,229 672,229 672,229 673,229 674,229 675,229 676,229 677,229 678,229 679,229 680,229 680,229 681,229 682,229 683,229 684,229 685,229 686,229 687,229 688,229 688,229 689,229 690,229 691,229 692,229 693,229 694,230 695,230 696,230 696,230 697,230 698,229 699,229 700,229 701,229 702,229 703,229 704,229 704,229 705,229 706,229 707,229 708,229 709,229 710,229 711,229 712,229 712,229 713,229 714,229 715,229 716,229 717,229 718,229 719,229 719,229 720,229 721,229 722,229 723,229 724,229 725,229 726,229 727,229 727,229 728,229 729,229 730,229 731,229 732,229 733,229 734,229 735,229 735,229 736,229 737,229 738,229 739,229 740,229 741,229 742,229 743,229 743,229 744,229 745,229 746,229 747,229 748,229 749,229 750,229 751,229 751,229 752,229 753,229 754,229 755,229 756,229 757,229 758,229 759,229 759,229 760,229 761,229 762,229 763,229 764,229 765,229 766,229 766,229 767,229 768,229 769,229 770,229 771,229 772,229 773,229 774,229 774,229 775,229 776,229 777,229 778,229 779,229 780,229 781,229 782,229 782,229 783,229 784,229 785,229 786,229 787,229 788,229 789,229 790,229 790,229 791,229 792,229 793,229 794,229 795,229 796,229 797,229 798,229 798,229 799,229 800,229 801,229 802,229 803,229 804,229 805,229 806,229 806,229 807,229 808,229 809,229 810,230 811,230 812,230 813,230 814,230 814,230 815,230 816,230 817,230 818,230 819,230 820,230 821,230 821,230 822,230 823,230 824,230 825,230 826,230 827,230 828,230 829,230 829,230 830,230 831,230 832,230 833,230 834,230 835,230 836,230 837,230 837,230 838,230 839,230 840,230 841,230 842,230 843,230 844,230 845,230 845,230 846,230 847,230 848,230 849,230 850,230 851,230 852,230 853,230 853,230 854,230 855,230 856,231 857,231 858,231 859,231 860,231 861,231 861,231 862,231 863,231 864,231 865,231 866,231 867,231 868,231 868,231 869,231 870,231 871,231 872,231 873,231 874,231 875,231 876,231 876,231 877,231 878,231 879,231 880,231 881,231 882,231 883,232 884,232 884,232 885,232 886,232 887,232 888,232 889,232 890,232 891,232 892,232 892,232 893,232 894,232 895,232 896,232 897,232 898,232 899,232 900,232 900,232 901,232 902,232 903,232 904,232 905,232 906,232 907,232 908,232 908,232 909,232 910,231 911,231 912,231 913,231 914,231 915,231 915,231 916,231 917,231 918,231 919,231 920,231 921,231 922,231 923,231 923,231 924,231 925,231 926,231 927,231 928,231 929,231 930,231 931,231 931,231 932,231 933,231 934,231 935,231 936,231 937,231 938,231 939,231 939,231 940,231 941,231 942,231 943,231 944,231 945,231 946,231 947,231 947,231 948,231 949,231 950,231 951,231 952,231 953,231 954,231 955,231 955,231 956,231 957,231 958,231 959,231 960,231 961,231 962,231 962,231 963,231 964,232 964,232 973,232 973,699 78,699 "/>
<polyline fill="none" opacity="1" stroke="#3CB44B" stroke-width="1" points="78,659 79,637 80,610 81,585 82,564 83,533 84,508 84,479 85,458 86,437 87,416 88,393 89,369 90,348 91,328 92,309 92,292 93,292 94,291 95,308 96,321 97,330 98,337 99,341 100,331 100,333 101,336 102,319 103,312 104,298 105,304 106,303 107,287 108,293 108,307 109,293 110,287 111,286 112,290 113,275 114,289 115,299 116,310 116,308 117,312 118,311 119,305 120,311 121,324 122,317 123,322 124,327 124,326 125,330 126,324 127,325 128,329 129,344 130,345 131,315 131,305 132,305 133,308 134,324 135,344 136,326 137,322 138,317 139,312 139,319 140,325 141,348 142,320 143,322 144,330 145,350 146,351 147,319 147,317 148,325 149,333 150,328 151,326 152,312 153,327 154,333 155,326 155,324 156,327 157,322 158,332 159,340 160,327 161,326 162,325 163,305 163,305 164,306 165,325 166,333 167,371 168,384 169,362 170,363 171,366 171,372 172,366 173,342 174,333 175,332 176,339 177,316 178,312 178,331 179,350 180,302 181,286 182,292 183,342 184,344 185,322 186,326 186,337 187,333 188,328 189,328 190,323 191,326 192,338 193,335 194,357 194,371 195,309 196,292 197,291 198,291 199,308 200,345 201,386 202,391 202,337 203,352 204,357 205,332 206,322 207,347 208,361 209,372 210,350 210,368 211,348 212,334 213,333 214,334 215,326 216,340 217,383 218,373 218,356 219,341 220,316 221,299 222,284 223,270 224,264 225,265 226,212 226,196 227,232 228,224 229,206 230,209 231,192 232,187 233,183 233,71 234,80 235,73 236,68 237,114 238,205 239,205 240,205 241,205 241,205 242,205 243,205 244,219 245,219 246,219 247,219 248,219 249,219 249,219 250,219 251,219 252,219 253,219 254,219 255,219 256,219 257,219 257,219 258,219 259,219 260,219 261,219 262,219 263,219 264,219 265,219 265,219 266,224 267,224 268,224 269,224 270,224 271,224 272,224 273,224 273,224 274,224 275,224 276,224 277,224 278,224 279,224 280,224 280,224 281,224 282,224 283,224 284,224 285,224 286,224 287,224 288,224 288,224 289,224 290,224 291,224 292,224 293,224 294,224 295,224 296,224 296,224 297,224 298,224 299,224 300,224 301,224 302,224 303,224 304,224 304,224 305,224 306,224 307,224 308,224 309,224 310,224 311,224 312,225 312,225 313,225 314,225 315,225 316,225 317,225 318,225 319,225 320,225 320,225 321,225 322,225 323,225 324,225 325,225 326,225 327,225 327,225 328,225 329,225 330,225 331,225 332,225 333,225 334,225 335,226 335,226 336,226 337,226 338,226 339,226 340,226 341,226 342,226 343,226 343,226 344,226 345,226 346,226 347,226 348,226 349,226 350,226 351,226 351,226 352,226 353,226 354,226 355,226 356,226 357,226 358,226 359,226 359,226 360,226 361,226 362,226 363,226 364,226 365,226 366,226 367,226 367,226 368,226 369,226 370,226 371,226 372,226 373,226 374,226 374,226 375,226 376,226 377,226 378,226 379,226 380,226 381,226 382,226 382,226 383,226 384,226 385,226 386,226 387,226 388,226 389,226 390,228 390,228 391,228 392,228 393,228 394,228 395,228 396,228 397,228 398,228 398,228 399,228 400,228 401,228 402,228 403,228 404,228 405,228 406,228 406,228 407,228 408,228 409,228 410,228 411,228 412,228 413,228 414,228 414,228 415,228 416,228 417,228 418,228 419,228 420,228 421,228 422,228 422,228 423,228 424,228 425,228 426,228 427,228 428,228 429,228 429,228 430,228 431,228 432,228 433,228 434,228 435,228 436,228 437,228 437,228 438,228 439,228 440,228 441,227 442,227 443,227 444,227 445,227 445,227 446,227 447,227 448,227 449,227 450,227 451,227 452,227 453,227 453,227 454,227 455,227 456,227 457,227 458,227 459,227 460,227 461,227 461,227 462,227 463,227 464,227 465,227 466,227 467,227 468,227 469,227 469,227 470,227 471,227 472,227 473,227 474,227 475,227 476,227 476,227 477,227 478,227 479,227 480,227 481,227 482,227 483,227 484,227 484,227 485,227 486,227 487,227 488,227 489,227 490,227 491,227 492,227 492,227 493,227 494,227 495,227 496,227 497,227 498,227 499,227 500,227 500,227 501,227 502,227 503,227 504,227 505,227 506,227 507,227 508,227 508,227 509,227 510,227 511,227 512,227 513,227 514,227 515,227 516,227 516,227 517,227 518,227 519,227 520,227 521,227 522,227 523,227 523,227 524,227 525,227 526,227 527,227 528,227 529,230 530,230 531,230 531,230 532,230 533,230 534,230 535,230 536,230 537,230 538,230 539,230 539,230 540,230 541,230 542,230 543,230 544,230 545,230 546,230 547,230 547,230 548,230 549,230 550,230 551,230 552,230 553,230 554,230 555,230 555,230 556,230 557,230 558,230 559,230 560,230 561,230 562,230 563,230 563,230 564,230 565,230 566,230 567,230 568,230 569,230 570,230 570,230 571,230 572,230 573,230 574,230 575,230 576,230 577,230 578,230 578,230 579,230 580,230 581,230 582,230 583,230 584,230 585,230 586,230 586,230 587,230 588,230 589,230 590,230 591,230 592,230 593,230 594,230 594,230 595,229 596,229 597,229 598,229 599,229 600,229 601,229 602,229 602,229 603,229 604,229 605,229 606,229 607,229 608,229 609,229 610,229 610,229 611,229 612,229 613,229 614,229 615,229 616,229 617,229 618,229 618,229 619,229 620,229 621,229 622,229 623,229 624,229 625,229 625,229 626,229 627,229 628,229 629,229 630,229 631,229 632,229 633,229 633,229 634,229 635,229 636,229 637,229 638,229 639,229 640,229 641,229 641,229 642,229 643,229 644,229 645,229 646,229 647,229 648,229 649,229 649,229 650,229 651,229 652,229 653,229 654,229 655,229 656,229 657,229 657,229 658,229 659,229 660,229 661,229 662,229 663,229 664,229 665,229 665,229 666,229 667,229 668,229 669,229 670,229 671,229 672,229 672,229 673,229 674,229 675,229 676,229 677,229 678,229 679,229 680,229 680,229 681,229 682,229 683,229 684,229 685,229 686,229 687,229 688,229 688,229 689,229 690,229 691,229 692,229 693,229 694,230 695,230 696,230 696,230 697,230 698,229 699,229 700,229 701,229 702,229 703,229 704,229 704,229 705,229 706,229 707,229 708,229 709,229 710,229 711,229 712,229 712,229 713,229 714,229 715,229 716,229 717,229 718,229 719,229 719,229 720,229 721,229 722,229 723,229 724,229 725,229 726,229 727,229 727,229 728,229 729,229 730,229 731,229 732,229 733,229 734,229 735,229 735,229 736,229 737,229 738,229 739,229 740,229 741,229 742,229 743,229 743,229 744,229 745,229 746,229 747,229 748,229 749,229 750,229 751,229 751,229 752,229 753,229 754,229 755,229 756,229 757,229 758,229 759,229 759,229 760,229 761,229 762,229 763,229 764,229 765,229 766,229 766,229 767,229 768,229 769,229 770,229 771,229 772,229 773,229 774,229 774,229 775,229 776,229 777,229 778,229 779,229 780,229 781,229 782,229 782,229 783,229 784,229 785,229 786,229 787,229 788,229 789,229 790,229 790,229 791,229 792,229 793,229 794,229 795,229 796,229 797,229 798,229 798,229 799,229 800,229 801,229 802,229 803,229 804,229 805,229 806,229 806,229 807,229 808,229 809,229 810,230 811,230 812,230 813,230 814,230 814,230 815,230 816,230 817,230 818,230 819,230 820,230 821,230 821,230 822,230 823,230 824,230 825,230 826,230 827,230 828,230 829,230 829,230 830,230 831,230 832,230 833,230 834,230 835,230 836,230 837,230 837,230 838,230 839,230 840,230 841,230 842,230 843,230 844,230 845,230 845,230 846,230 847,230 848,230 849,230 850,230 851,230 852,230 853,230 853,230 854,230 855,230 856,231 857,231 858,231 859,231 860,231 861,231 861,231 862,231 863,231 864,231 865,231 866,231 867,231 868,231 868,231 869,231 870,231 871,231 872,231 873,231 874,231 875,231 876,231 876,231 877,231 878,231 879,231 880,231 881,231 882,231 883,232 884,232 884,232 885,232 886,232 887,232 888,232 889,232 890,232 891,232 892,232 892,232 893,232 894,232 895,232 896,232 897,232 898,232 899,232 900,232 900,232 901,232 902,232 903,232 904,232 905,232 906,232 907,232 908,232 908,232 909,232 910,231 911,231 912,231 913,231 914,231 915,231 915,231 916,231 917,231 918,231 919,231 920,231 921,231 922,231 923,231 923,231 924,231 925,231 926,231 927,231 928,231 929,231 930,231 931,231 931,231 932,231 933,231 934,231 935,231 936,231 937,231 938,231 939,231 939,231 940,231 941,231 942,231 943,231 944,231 945,231 946,231 947,231 947,231 948,231 949,231 950,231 951,231 952,231 953,231 954,231 955,231 955,231 956,231 957,231 958,231 959,231 960,231 961,231 962,231 962,231 963,231 964,232 964,232 973,232 "/>
<polygon opacity="1" fill="#E6194B" points="78,699 79,699 80,699 81,699 82,699 83,699 84,699 84,699 85,699 86,699 87,699 88,699 89,699 90,699 91,699 92,699 92,699 93,699 94,699 95,699 96,699 97,699 98,699 99,699 100,699 100,699 101,699 102,699 103,699 104,699 105,699 106,699 107,699 108,699 108,699 109,699 110,699 111,699 112,699 113,699 114,699 115,699 116,699 116,699 117,699 118,699 119,699 120,699 121,699 122,699 123,699 124,699 124,699 125,699 126,699 127,699 128,699 129,699 130,699 131,699 131,699 132,699 133,699 134,699 135,699 136,699 137,699 138,699 139,699 139,699 140,699 141,699 142,699 143,699 144,699 145,699 146,699 147,699 147,699 148,699 149,699 150,699 151,699 152,699 153,699 154,699 155,699 155,699 156,699 157,699 158,699 159,699 160,699 161,699 162,699 163,699 163,699 164,699 165,699 166,699 167,699 168,699 169,699 170,699 171,699 171,699 172,699 173,699 174,699 175,699 176,699 177,699 178,699 178,699 179,699 180,699 181,699 182,699 183,699 184,699 185,699 186,699 186,699 187,699 188,699 189,699 190,699 191,699 192,699 193,699 194,699 194,699 195,699 196,699 197,699 198,699 199,699 200,699 201,699 202,699 202,699 203,699 204,699 205,699 206,699 207,699 208,699 209,699 210,698 210,698 211,698 212,698 213,698 214,698 215,698 216,698 217,698 218,698 218,698 219,698 220,698 221,698 222,698 223,698 224,698 225,698 226,658 226,642 227,630 228,606 229,579 230,557 231,534 232,510 233,483 233,351 234,325 235,305 236,273 237,243 238,238 239,238 240,238 241,238 241,238 242,238 243,238 244,238 245,238 246,238 247,238 248,238 249,238 249,238 250,238 251,238 252,238 253,238 254,238 255,238 256,238 257,238 257,238 258,238 259,238 260,238 261,238 262,238 263,238 264,238 265,238 265,238 266,238 267,238 268,238 269,238 270,238 271,238 272,238 273,238 273,238 274,238 275,238 276,238 277,238 278,238 279,238 280,238 280,238 281,238 282,238 283,238 284,238 285,238 286,238 287,238 288,238 288,238 289,238 290,238 291,238 292,238 293,238 294,238 295,238 296,238 296,238 297,238 298,238 299,238 300,238 301,238 302,238 303,238 304,238 304,238 305,238 306,238 307,238 308,238 309,238 310,238 311,238 312,238 312,238 313,238 314,238 315,238 316,238 317,238 318,238 319,238 320,238 320,238 321,238 322,238 323,238 324,238 325,238 326,238 327,238 327,238 328,238 329,238 330,238 331,238 332,238 333,238 334,238 335,238 335,238 336,238 337,238 338,238 339,237 340,237 341,237 342,237 343,237 343,237 344,237 345,237 346,237 347,237 348,237 349,237 350,237 351,237 351,237 352,237 353,237 354,237 355,237 356,237 357,237 358,237 359,237 359,237 360,237 361,237 362,237 363,237 364,237 365,237 366,237 367,237 367,237 368,237 369,237 370,237 371,237 372,237 373,237 374,237 374,237 375,237 376,237 377,237 378,237 379,237 380,237 381,237 382,237 382,237 383,237 384,237 385,237 386,237 387,237 388,237 389,237 390,237 390,237 391,237 392,237 393,237 394,237 395,237 396,237 397,237 398,237 398,237 399,237 400,237 401,237 402,237 403,237 404,237 405,237 406,237 406,237 407,237 408,237 409,237 410,237 411,237 412,237 413,237 414,237 414,237 415,237 416,237 417,237 418,237 419,237 420,237 421,237 422,237 422,237 423,237 424,237 425,237 426,237 427,237 428,237 429,237 429,237 430,237 431,237 432,237 433,237 434,237 435,237 436,237 437,237 437,237 438,237 439,237 440,237 441,236 442,236 443,236 444,236 445,236 445,236 446,236 447,236 448,236 449,236 450,236 451,236 452,236 453,236 453,236 454,236 455,236 456,236 457,236 458,236 459,236 460,236 461,236 461,236 462,236 463,236 464,236 465,236 466,236 467,236 468,236 469,236 469,236 470,236 471,236 472,236 473,236 474,236 475,236 476,236 476,236 477,236 478,236 479,236 480,236 481,236 482,236 483,236 484,236 484,236 485,236 486,236 487,236 488,236 489,236 490,236 491,236 492,236 492,236 493,236 494,236 495,236 496,236 497,236 498,236 499,236 500,236 500,236 501,236 502,236 503,236 504,236 505,236 506,236 507,236 508,236 508,236 509,236 510,236 511,236 512,236 513,236 514,236 515,236 516,236 516,236 517,236 518,236 519,236 520,236 521,236 522,236 523,236 523,236 524,236 525,236 526,236 527,236 528,236 529,236 530,236 531,236 531,236 532,236 533,236 534,236 535,236 536,236 537,236 538,236 539,236 539,236 540,236 541,236 542,236 543,236 544,236 545,236 546,236 547,236 547,236 548,236 549,236 550,236 551,236 552,236 553,236 554,236 555,236 555,236 556,236 557,236 558,236 559,236 560,236 561,236 562,236 563,236 563,236 564,236 565,236 566,236 567,236 568,236 569,236 570,236 570,236 571,236 572,236 573,236 574,236 575,236 576,236 577,236 578,236 578,236 579,236 580,236 581,236 582,236 583,236 584,236 585,236 586,236 586,236 587,236 588,236 589,236 590,236 591,236 592,236 593,236 594,236 594,236 595,235 596,235 597,235 598,235 599,235 600,235 601,235 602,235 602,235 603,235 604,235 605,235 606,235 607,235 608,235 609,235 610,235 610,235 611,235 612,235 613,235 614,235 615,235 616,235 617,235 618,235 618,235 619,235 620,235 621,235 622,235 623,235 624,235 625,235 625,235 626,235 627,235 628,235 629,235 630,235 631,235 632,235 633,235 633,234 634,234 635,234 636,234 637,234 638,234 639,234 640,234 641,234 641,234 642,234 643,234 644,234 645,234 646,234 647,234 648,234 649,234 649,234 650,234 651,234 652,234 653,234 654,234 655,234 656,234 657,234 657,234 658,234 659,234 660,234 661,234 662,234 663,234 664,234 665,234 665,234 666,234 667,234 668,234 669,234 670,234 671,234 672,234 672,234 673,234 674,234 675,234 676,234 677,234 678,234 679,234 680,234 680,234 681,234 682,234 683,234 684,234 685,234 686,234 687,234 688,234 688,234 689,234 690,234 691,234 692,234 693,234 694,234 695,234 696,234 696,234 697,234 698,234 699,234 700,234 701,234 702,234 703,234 704,234 704,234 705,234 706,234 707,234 708,234 709,234 710,234 711,234 712,234 712,234 713,234 714,234 715,234 716,234 717,234 718,234 719,234 719,234 720,234 721,234 722,234 723,234 724,234 725,234 726,234 727,234 727,234 728,234 729,234 730,234 731,234 732,234 733,234 734,234 735,234 735,234 736,234 737,234 738,234 739,234 740,234 741,234 742,234 743,234 743,234 744,234 745,234 746,234 747,234 748,234 749,234 750,234 751,234 751,234 752,234 753,234 754,234 755,234 756,234 757,234 758,234 759,234 759,234 760,234 761,234 762,234 763,234 764,234 765,234 766,234 766,234 767,234 768,234 769,234 770,234 771,234 772,234 773,234 774,234 774,234 775,234 776,234 777,234 778,234 779,234 780,234 781,234 782,234 782,234 783,234 784,234 785,234 786,234 787,234 788,233 789,233 790,233 790,233 791,233 792,233 793,233 794,233 795,233 796,233 797,233 798,233 798,233 799,233 800,233 801,233 802,233 803,233 804,233 805,233 806,233 806,233 807,233 808,233 809,233 810,233 811,233 812,233 813,233 814,233 814,233 815,233 816,233 817,233 818,233 819,233 820,233 821,233 821,233 822,233 823,233 824,233 825,233 826,233 827,233 828,233 829,233 829,233 830,233 831,233 832,233 833,233 834,233 835,233 836,233 837,233 837,233 838,233 839,233 840,233 841,233 842,233 843,233 844,233 845,233 845,233 846,233 847,233 848,233 849,233 850,233 851,233 852,233 853,233 853,233 854,233 855,233 856,233 857,233 858,233 859,233 860,233 861,233 861,233 862,233 863,233 864,233 865,233 866,233 867,233 868,233 868,233 869,233 870,233 871,233 872,233 873,233 874,233 875,233 876,233 876,233 877,233 878,233 879,233 880,233 881,233 882,233 883,233 884,233 884,233 885,233 886,233 887,233 888,233 889,233 890,233 891,233 892,233 892,233 893,233 894,233 895,233 896,233 897,233 898,233 899,233 900,233 900,233 901,233 902,233 903,233 904,233 905,233 906,233 907,233 908,233 908,233 909,233 910,232 911,232 912,232 913,232 914,232 915,232 915,232 916,232 917,232 918,232 919,232 920,232 921,232 922,232 923,232 923,232 924,232 925,232 926,232 927,232 928,232 929,232 930,232 931,232 931,232 932,232 933,232 934,232 935,232 936,232 937,232 938,232 939,232 939,232 940,232 941,232 942,232 943,232 944,232 945,232 946,232 947,232 947,232 948,232 949,232 950,232 951,232 952,232 953,232 954,232 955,232 955,232 956,232 957,232 958,232 959,232 960,232 961,232 962,232 962,232 963,232 964,232 964,232 973,232 973,699 78,699 "/>
<polyline fill="none" opacity="1" stroke="#E6194B" stroke-width="1" points="78,699 79,699 80,699 81,699 82,699 83,699 84,699 84,699 85,699 86,699 87,699 88,699 89,699 90,699 91,699 92,699 92,699 93,699 94,699 95,699 96,699 97,699 98,699 99,699 100,699 100,699 101,699 102,699 103,699 104,699 105,699 106,699 107,699 108,699 108,699 109,699 110,699 111,699 112,699 113,699 114,699 115,699 116,699 116,699 117,699 118,699 119,699 120,699 121,699 122,699 123,699 124,699 124,699 125,699 126,699 127,699 128,699 129,699 130,699 131,699 131,699 132,699 133,699 134,699 135,699 136,699 137,699 138,699 139,699 139,699 140,699 141,699 142,699 143,699 144,699 145,699 146,699 147,699 147,699 148,699 149,699 150,699 151,699 152,699 153,699 154,699 155,699 155,699 156,699 157,699 158,699 159,699 160,699 161,699 162,699 163,699 163,699 164,699 165,699 166,699 167,699 168,699 169,699 170,699 171,699 171,699 172,699 173,699 174,699 175,699 176,699 177,699 178,699 178,699 179,699 180,699 181,699 182,699 183,699 184,699 185,699 186,699 186,699 187,699 188,699 189,699 190,699 191,699 192,699 193,699 194,699 194,699 195,699 196,699 197,699 198,699 199,699 200,699 201,699 202,699 202,699 203,699 204,699 205,699 206,699 207,699 208,699 209,699 210,698 210,698 211,698 212,698 213,698 214,698 215,698 216,698 217,698 218,698 218,698 219,698 220,698 221,698 222,698 223,698 224,698 225,698 226,658 226,642 227,630 228,606 229,579 230,557 231,534 232,510 233,483 233,351 234,325 235,305 236,273 237,243 238,238 239,238 240,238 241,238 241,238 242,238 243,238 244,238 245,238 246,238 247,238 248,238 249,238 249,238 250,238 251,238 252,238 253,238 254,238 255,238 256,238 257,238 257,238 258,238 259,238 260,238 261,238 262,238 263,238 264,238 265,238 265,238 266,238 267,238 268,238 269,238 270,238 271,238 272,238 273,238 273,238 274,238 275,238 276,238 277,238 278,238 279,238 280,238 280,238 281,238 282,238 283,238 284,238 285,238 286,238 287,238 288,238 288,238 289,238 290,238 291,238 292,238 293,238 294,238 295,238 296,238 296,238 297,238 298,238 299,238 300,238 301,238 302,238 303,238 304,238 304,238 305,238 306,238 307,238 308,238 309,238 310,238 311,238 312,238 312,238 313,238 314,238 315,238 316,238 317,238 318,238 319,238 320,238 320,238 321,238 322,238 323,238 324,238 325,238 326,238 327,238 327,238 328,238 329,238 330,238 331,238 332,238 333,238 334,238 335,238 335,238 336,238 337,238 338,238 339,237 340,237 341,237 342,237 343,237 343,237 344,237 345,237 346,237 347,237 348,237 349,237 350,237 351,237 351,237 352,237 353,237 354,237 355,237 356,237 357,237 358,237 359,237 359,237 360,237 361,237 362,237 363,237 364,237 365,237 366,237 367,237 367,237 368,237 369,237 370,237 371,237 372,237 373,237 374,237 374,237 375,237 376,237 377,237 378,237 379,237 380,237 381,237 382,237 382,237 383,237 384,237 385,237 386,237 387,237 388,237 389,237 390,237 390,237 391,237 392,237 393,237 394,237 395,237 396,237 397,237 398,237 398,237 399,237 400,237 401,237 402,237 403,237 404,237 405,237 406,237 406,237 407,237 408,237 409,237 410,237 411,237 412,237 413,237 414,237 414,237 415,237 416,237 417,237 418,237 419,237 420,237 421,237 422,237 422,237 423,237 424,237 425,237 426,237 427,237 428,237 429,237 429,237 430,237 431,237 432,237 433,237 434,237 435,237 436,237 437,237 437,237 438,237 439,237 440,237 441,236 442,236 443,236 444,236 445,236 445,236 446,236 447,236 448,236 449,236 450,236 451,236 452,236 453,236 453,236 454,236 455,236 456,236 457,236 458,236 459,236 460,236 461,236 461,236 462,236 463,236 464,236 465,236 466,236 467,236 468,236 469,236 469,236 470,236 471,236 472,236 473,236 474,236 475,236 476,236 476,236 477,236 478,236 479,236 480,236 481,236 482,236 483,236 484,236 484,236 485,236 486,236 487,236 488,236 489,236 490,236 491,236 492,236 492,236 493,236 494,236 495,236 496,236 497,236 498,236 499,236 500,236 500,236 501,236 502,236 503,236 504,236 505,236 506,236 507,236 508,236 508,236 509,236 510,236 511,236 512,236 513,236 514,236 515,236 516,236 516,236 517,236 518,236 519,236 520,236 521,236 522,236 523,236 523,236 524,236 525,236 526,236 527,236 528,236 529,236 530,236 531,236 531,236 532,236 533,236 534,236 535,236 536,236 537,236 538,236 539,236 539,236 540,236 541,236 542,236 543,236 544,236 545,236 546,236 547,236 547,236 548,236 549,236 550,236 551,236 552,236 553,236 554,236 555,236 555,236 556,236 557,236 558,236 559,236 560,236 561,236 562,236 563,236 563,236 564,236 565,236 566,236 567,236 568,236 569,236 570,236 570,236 571,236 572,236 573,236 574,236 575,236 576,236 577,236 578,236 578,236 579,236 580,236 581,236 582,236 583,236 584,236 585,236 586,236 586,236 587,236 588,236 589,236 590,236 591,236 592,236 593,236 594,236 594,236 595,235 596,235 597,235 598,235 599,235 600,235 601,235 602,235 602,235 603,235 604,235 605,235 606,235 607,235 608,235 609,235 610,235 610,235 611,235 612,235 613,235 614,235 615,235 616,235 617,235 618,235 618,235 619,235 620,235 621,235 622,235 623,235 624,235 625,235 625,235 626,235 627,235 628,235 629,235 630,235 631,235 632,235 633,235 633,234 634,234 635,234 636,234 637,234 638,234 639,234 640,234 641,234 641,234 642,234 643,234 644,234 645,234 646,234 647,234 648,234 649,234 649,234 650,234 651,234 652,234 653,234 654,234 655,234 656,234 657,234 657,234 658,234 659,234 660,234 661,234 662,234 663,234 664,234 665,234 665,234 666,234 667,234 668,234 669,234 670,234 671,234 672,234 672,234 673,234 674,234 675,234 676,234 677,234 678,234 679,234 680,234 680,234 681,234 682,234 683,234 684,234 685,234 686,234 687,234 688,234 688,234 689,234 690,234 691,234 692,234 693,234 694,234 695,234 696,234 696,234 697,234 698,234 699,234 700,234 701,234 702,234 703,234 704,234 704,234 705,234 706,234 707,234 708,234 709,234 710,234 711,234 712,234 712,234 713,234 714,234 715,234 716,234 717,234 718,234 719,234 719,234 720,234 721,234 722,234 723,234 724,234 725,234 726,234 727,234 727,234 728,234 729,234 730,234 731,234 732,234 733,234 734,234 735,234 735,234 736,234 737,234 738,234 739,234 740,234 741,234 742,234 743,234 743,234 744,234 745,234 746,234 747,234 748,234 749,234 750,234 751,234 751,234 752,234 753,234 754,234 755,234 756,234 757,234 758,234 759,234 759,234 760,234 761,234 762,234 763,234 764,234 765,234 766,234 766,234 767,234 768,234 769,234 770,234 771,234 772,234 773,234 774,234 774,234 775,234 776,234 777,234 778,234 779,234 780,234 781,234 782,234 782,234 783,234 784,234 785,234 786,234 787,234 788,233 789,233 790,233 790,233 791,233 792,233 793,233 794,233 795,233 796,233 797,233 798,233 798,233 799,233 800,233 801,233 802,233 803,233 804,233 805,233 806,233 806,233 807,233 808,233 809,233 810,233 811,233 812,233 813,233 814,233 814,233 815,233 816,233 817,233 818,233 819,233 820,233 821,233 821,233 822,233 823,233 824,233 825,233 826,233 827,233 828,233 829,233 829,233 830,233 831,233 832,233 833,233 834,233 835,233 836,233 837,233 837,233 838,233 839,233 840,233 841,233 842,233 843,233 844,233 845,233 845,233 846,233 847,233 848,233 849,233 850,233 851,233 852,233 853,233 853,233 854,233 855,233 856,233 857,233 858,233 859,233 860,233 861,233 861,233 862,233 863,233 864,233 865,233 866,233 867,233 868,233 868,233 869,233 870,233 871,233 872,233 873,233 874,233 875,233 876,233 876,233 877,233 878,233 879,233 880,233 881,233 882,233 883,233 884,233 884,233 885,233 886,233 887,233 888,233 889,233 890,233 891,233 892,233 892,233 893,233 894,233 895,233 896,233 897,233 898,233 899,233 900,233 900,233 901,233 902,233 903,233 904,233 905,233 906,233 907,233 908,233 908,233 909,233 910,232 911,232 912,232 913,232 914,232 915,232 915,232 916,232 917,232 918,232 919,232 920,232 921,232 922,232 923,232 923,232 924,232 925,232 926,232 927,232 928,232 929,232 930,232 931,232 931,232 932,232 933,232 934,232 935,232 936,232 937,232 938,232 939,232 939,232 940,232 941,232 942,232 943,232 944,232 945,232 946,232 947,232 947,232 948,232 949,232 950,232 951,232 952,232 953,232 954,232 955,232 955,232 956,232 957,232 958,232 959,232 960,232 961,232 962,232 962,232 963,232 964,232 964,232 973,232 "/>
<line opacity="0.1" stroke="#000000" stroke-width="1" x1="89" y1="699" x2="89" y2="68"/>
<line opacity="0.1" stroke="#000000" stroke-width="1" x1="101" y1="699" x2="101" y2="68"/>
<line opacity="0.1" stroke="#000000" stroke-width="1" x1="112" y1="699" x2="112" y2="68"/>
<line opacity="0.1" stroke="#000000" stroke-width="1" x1="124" y1="699" x2="124" y2="68"/>
<line opacity="0.1" stroke="#000000" stroke-width="1" x1="136" y1="699" x2="136" y2="68"/>
<line opacity="0.1" stroke="#000000" stroke-width="1" x1="148" y1="699" x2="148" y2="68"/>
<line opacity="0.1" stroke="#000000" stroke-width="1" x1="160" y1="699" x2="160" y2="68"/>
<line opacity="0.1" stroke="#000000" stroke-width="1" x1="172" y1="699" x2="172" y2="68"/>
<line opacity="0.1" stroke="#000000" stroke-width="1" x1="184" y1="699" x2="184" y2="68"/>
<line opacity="0.1" stroke="#000000" stroke-width="1" x1="195" y1="699" x2="195" y2="68"/>
<line opacity="0.1" stroke="#000000" stroke-width="1" x1="207" y1="699" x2="207" y2="68"/>
<line opacity="0.1" stroke="#000000" stroke-width="1" x1="219" y1="699" x2="219" y2="68"/>
<line opacity="0.1" stroke="#000000" stroke-width="1" x1="231" y1="699" x2="231" y2="68"/>
<line opacity="0.1" stroke="#000000" stroke-width="1" x1="243" y1="699" x2="243" y2="68"/>
<line opacity="0.1" stroke="#000000" stroke-width="1" x1="255" y1="699" x2="255" y2="68"/>
<line opacity="0.1" stroke="#000000" stroke-width="1" x1="267" y1="699" x2="267" y2="68"/>
<line opacity="0.1" stroke="#000000" stroke-width="1" x1="278" y1="699" x2="278" y2="68"/>
<line opacity="0.1" stroke="#000000" stroke-width="1" x1="290" y1="699" x2="290" y2="68"/>
<line opacity="0.1" stroke="#000000" stroke-width="1" x1="302" y1="699" x2="302" y2="68"/>
<line opacity="0.1" stroke="#000000" stroke-width="1" x1="314" y1="699" x2="314" y2="68"/>
<line opacity="0.1" stroke="#000000" stroke-width="1" x1="326" y1="699" x2="326" y2="68"/>
<line opacity="0.1" stroke="#000000" stroke-width="1" x1="338" y1="699" x2="338" y2="68"/>
<line opacity="0.1" stroke="#000000" stroke-width="1" x1="350" y1="699" x2="350" y2="68"/>
<line opacity="0.1" stroke="#000000" stroke-width="1" x1="361" y1="699" x2="361" y2="68"/>
<line opacity="0.1" stroke="#000000" stroke-width="1" x1="373" y1="699" x2="373" y2="68"/>
<line opacity="0.1" stroke="#000000" stroke-width="1" x1="385" y1="699" x2="385" y2="68"/>
<line opacity="0.1" stroke="#000000" stroke-width="1" x1="397" y1="699" x2="397" y2="68"/>
<line opacity="0.1" stroke="#000000" stroke-width="1" x1="409" y1="699" x2="409" y2="68"/>
<line opacity="0.1" stroke="#000000" stroke-width="1" x1="421" y1="699" x2="421" y2="68"/>
<line opacity="0.1" stroke="#000000" stroke-width="1" x1="433" y1="699" x2="433" y2="68"/>
<line opacity="0.1" stroke="#000000" stroke-width="1" x1="444" y1="699" x2="444" y2="68"/>
<line opacity="0.1" stroke="#000000" stroke-width="1" x1="456" y1="699" x2="456" y2="68"/>
<line opacity="0.1" stroke="#000000" stroke-width="1" x1="468" y1="699" x2="468" y2="68"/>
<line opacity="0.1" stroke="#000000" stroke-width="1" x1="480" y1="699" x2="480" y2="68"/>
<line opacity="0.1" stroke="#000000" stroke-width="1" x1="492" y1="699" x2="492" y2="68"/>
<line opacity="0.1" stroke="#000000" stroke-width="1" x1="504" y1="699" x2="504" y2="68"/>
<line opacity="0.1" stroke="#000000" stroke-width="1" x1="516" y1="699" x2="516" y2="68"/>
<line opacity="0.1" stroke="#000000" stroke-width="1" x1="527" y1="699" x2="527" y2="68"/>
<line opacity="0.1" stroke="#000000" stroke-width="1" x1="539" y1="699" x2="539" y2="68"/>
<line opacity="0.1" stroke="#000000" stroke-width="1" x1="551" y1="699" x2="551" y2="68"/>
<line opacity="0.1" stroke="#000000" stroke-width="1" x1="563" y1="699" x2="563" y2="68"/>
<line opacity="0.1" stroke="#000000" stroke-width="1" x1="575" y1="699" x2="575" y2="68"/>
<line opacity="0.1" stroke="#000000" stroke-width="1" x1="587" y1="699" x2="587" y2="68"/>
<line opacity="0.1" stroke="#000000" stroke-width="1" x1="599" y1="699" x2="599" y2="68"/>
<line opacity="0.1" stroke="#000000" stroke-width="1" x1="610" y1="699" x2="610" y2="68"/>
<line opacity="0.1" stroke="#000000" stroke-width="1" x1="622" y1="699" x2="622" y2="68"/>
<line opacity="0.1" stroke="#000000" stroke-width="1" x1="634" y1="699" x2="634" y2="68"/>
<line opacity="0.1" stroke="#000000" stroke-width="1" x1="646" y1="699" x2="646" y2="68"/>
<line opacity="0.1" stroke="#000000" stroke-width="1" x1="658" y1="699" x2="658" y2="68"/>
<line opacity="0.1" stroke="#000000" stroke-width="1" x1="670" y1="699" x2="670" y2="68"/>
<line opacity="0.1" stroke="#000000" stroke-width="1" x1="682" y1="699" x2="682" y2="68"/>
<line opacity="0.1" stroke="#000000" stroke-width="1" x1="693" y1="699" x2="693" y2="68"/>
<line opacity="0.1" stroke="#000000" stroke-width="1" x1="705" y1="699" x2="705" y2="68"/>
<line opacity="0.1" stroke="#000000" stroke-width="1" x1="717" y1="699" x2="717" y2="68"/>
<line opacity="0.1" stroke="#000000" stroke-width="1" x1="729" y1="699" x2="729" y2="68"/>
<line opacity="0.1" stroke="#000000" stroke-width="1" x1="741" y1="699" x2="741" y2="68"/>
<line opacity="0.1" stroke="#000000" stroke-width="1" x1="753" y1="699" x2="753" y2="68"/>
<line opacity="0.1" stroke="#000000" stroke-width="1" x1="765" y1="699" x2="765" y2="68"/>
<line opacity="0.1" stroke="#000000" stroke-width="1" x1="776" y1="699" x2="776" y2="68"/>
<line opacity="0.1" stroke="#000000" stroke-width="1" x1="788" y1="699" x2="788" y2="68"/>
<line opacity="0.1" stroke="#000000" stroke-width="1" x1="800" y1="699" x2="800" y2="68"/>
<line opacity="0.1" stroke="#000000" stroke-width="1" x1="812" y1="699" x2="812" y2="68"/>
<line opacity="0.1" stroke="#000000" stroke-width="1" x1="824" y1="699" x2="824" y2="68"/>
<line opacity="0.1" stroke="#000000" stroke-width="1" x1="836" y1="699" x2="836" y2="68"/>
<line opacity="0.1" stroke="#000000" stroke-width="1" x1="848" y1="699" x2="848" y2="68"/>
<line opacity="0.1" stroke="#000000" stroke-width="1" x1="859" y1="699" x2="859" y2="68"/>
<line opacity="0.1" stroke="#000000" stroke-width="1" x1="871" y1="699" x2="871" y2="68"/>
<line opacity="0.1" stroke="#000000" stroke-width="1" x1="883" y1="699" x2="883" y2="68"/>
<line opacity="0.1" stroke="#000000" stroke-width="1" x1="895" y1="699" x2="895" y2="68"/>
<line opacity="0.1" stroke="#000000" stroke-width="1" x1="907" y1="699" x2="907" y2="68"/>
<line opacity="0.1" stroke="#000000" stroke-width="1" x1="919" y1="699" x2="919" y2="68"/>
<line opacity="0.1" stroke="#000000" stroke-width="1" x1="931" y1="699" x2="931" y2="68"/>
<line opacity="0.1" stroke="#000000" stroke-width="1" x1="942" y1="699" x2="942" y2="68"/>
<line opacity="0.1" stroke="#000000" stroke-width="1" x1="954" y1="699" x2="954" y2="68"/>
<line opacity="0.1" stroke="#000000" stroke-width="1" x1="966" y1="699" x2="966" y2="68"/>
<line opacity="0.1" stroke="#000000" stroke-width="1" x1="78" y1="699" x2="973" y2="699"/>
<line opacity="0.1" stroke="#000000" stroke-width="1" x1="78" y1="685" x2="973" y2="685"/>
<line opacity="0.1" stroke="#000000" stroke-width="1" x1="78" y1="672" x2="973" y2="672"/>
<line opacity="0.1" stroke="#000000" stroke-width="1" x1="78" y1="659" x2="973" y2="659"/>
<line opacity="0.1" stroke="#000000" stroke-width="1" x1="78" y1="646" x2="973" y2="646"/>
<line opacity="0.1" stroke="#000000" stroke-width="1" x1="78" y1="633" x2="973" y2="633"/>
<line opacity="0.1" stroke="#000000" stroke-width="1" x1="78" y1="620" x2="973" y2="620"/>
<line opacity="0.1" stroke="#000000" stroke-width="1" x1="78" y1="607" x2="973" y2="607"/>
<line opacity="0.1" stroke="#000000" stroke-width="1" x1="78" y1="594" x2="973" y2="594"/>
<line opacity="0.1" stroke="#000000" stroke-width="1" x1="78" y1="581" x2="973" y2="581"/>
<line opacity="0.1" stroke="#000000" stroke-width="1" x1="78" y1="568" x2="973" y2="568"/>
<line opacity="0.1" stroke="#000000" stroke-width="1" x1="78" y1="555" x2="973" y2="555"/>
<line opacity="0.1" stroke="#000000" stroke-width="1" x1="78" y1="542" x2="973" y2="542"/>
<line opacity="0.1" stroke="#000000" stroke-width="1" x1="78" y1="529" x2="973" y2="529"/>
<line opacity="0.1" stroke="#000000" stroke-width="1" x1="78" y1="516" x2="973" y2="516"/>
<line opacity="0.1" stroke="#000000" stroke-width="1" x1="78" y1="502" x2="973" y2="502"/>
<line opacity="0.1" stroke="#000000" stroke-width="1" x1="78" y1="489" x2="973" y2="489"/>
<line opacity="0.1" stroke="#000000" stroke-width="1" x1="78" y1="476" x2="973" y2="476"/>
<line opacity="0.1" stroke="#000000" stroke-width="1" x1="78" y1="463" x2="973" y2="463"/>
<line opacity="0.1" stroke="#000000" stroke-width="1" x1="78" y1="450" x2="973" y2="450"/>
<line opacity="0.1" stroke="#000000" stroke-width="1" x1="78" y1="437" x2="973" y2="437"/>
<line opacity="0.1" stroke="#000000" stroke-width="1" x1="78" y1="424" x2="973" y2="424"/>
<line opacity="0.1" stroke="#000000" stroke-width="1" x1="78" y1="411" x2="973" y2="411"/>
<line opacity="0.1" stroke="#000000" stroke-width="1" x1="78" y1="398" x2="973" y2="398"/>
<line opacity="0.1" stroke="#000000" stroke-width="1" x1="78" y1="385" x2="973" y2="385"/>
<line opacity="0.1" stroke="#000000" stroke-width="1" x1="78" y1="372" x2="973" y2="372"/>
<line opacity="0.1" stroke="#000000" stroke-width="1" x1="78" y1="359" x2="973" y2="359"/>
<line opacity="0.1" stroke="#000000" stroke-width="1" x1="78" y1="346" x2="973" y2="346"/>
<line opacity="0.1" stroke="#000000" stroke-width="1" x1="78" y1="333" x2="973" y2="333"/>
<line opacity="0.1" stroke="#000000" stroke-width="1" x1="78" y1="320" x2="973" y2="320"/>
<line opacity="0.1" stroke="#000000" stroke-width="1" x1="78" y1="306" x2="973" y2="306"/>
<line opacity="0.1" stroke="#000000" stroke-width="1" x1="78" y1="293" x2="973" y2="293"/>
<line opacity="0.1" stroke="#000000" stroke-width="1" x1="78" y1="280" x2="973" y2="280"/>
<line opacity="0.1" stroke="#000000" stroke-width="1" x1="78" y1="267" x2="973" y2="267"/>
<line opacity="0.1" stroke="#000000" stroke-width="1" x1="78" y1="254" x2="973" y2="254"/>
<line opacity="0.1" stroke="#000000" stroke-width="1" x1="78" y1="241" x2="973" y2="241"/>
<line opacity="0.1" stroke="#000000" stroke-width="1" x1="78" y1="228" x2="973" y2="228"/>
<line opacity="0.1" stroke="#000000" stroke-width="1" x1="78" y1="215" x2="973" y2="215"/>
<line opacity="0.1" stroke="#000000" stroke-width="1" x1="78" y1="202" x2="973" y2="202"/>
<line opacity="0.1" stroke="#000000" stroke-width="1" x1="78" y1="189" x2="973" y2="189"/>
<line opacity="0.1" stroke="#000000" stroke-width="1" x1="78" y1="176" x2="973" y2="176"/>
<line opacity="0.1" stroke="#000000" stroke-width="1" x1="78" y1="163" x2="973" y2="163"/>
<line opacity="0.1" stroke="#000000" stroke-width="1" x1="78" y1="150" x2="973" y2="150"/>
<line opacity="0.1" stroke="#000000" stroke-width="1" x1="78" y1="137" x2="973" y2="137"/>
<line opacity="0.1" stroke="#000000" stroke-width="1" x1="78" y1="124" x2="973" y2="124"/>
<line opacity="0.1" stroke="#000000" stroke-width="1" x1="78" y1="110" x2="973" y2="110"/>
<line opacity="0.1" stroke="#000000" stroke-width="1" x1="78" y1="97" x2="973" y2="97"/>
<line opacity="0.1" stroke="#000000" stroke-width="1" x1="78" y1="84" x2="973" y2="84"/>
<line opacity="0.1" stroke="#000000" stroke-width="1" x1="78" y1="71" x2="973" y2="71"/>
<text x="8" y="384" dy="0.76em" text-anchor="middle" font-family="sans-serif" font-size="9.67741935483871" opacity="1" fill="#000000" transform="rotate(270, 8, 384)">
Memory usage
</text>
<text x="526" y="760" dy="-0.5ex" text-anchor="middle" font-family="sans-serif" font-size="9.67741935483871" opacity="1" fill="#000000">
Time
</text>
<line opacity="0.2" stroke="#000000" stroke-width="1" x1="112" y1="699" x2="112" y2="68"/>
<line opacity="0.2" stroke="#000000" stroke-width="1" x1="231" y1="699" x2="231" y2="68"/>
<line opacity="0.2" stroke="#000000" stroke-width="1" x1="350" y1="699" x2="350" y2="68"/>
<line opacity="0.2" stroke="#000000" stroke-width="1" x1="468" y1="699" x2="468" y2="68"/>
<line opacity="0.2" stroke="#000000" stroke-width="1" x1="587" y1="699" x2="587" y2="68"/>
<line opacity="0.2" stroke="#000000" stroke-width="1" x1="705" y1="699" x2="705" y2="68"/>
<line opacity="0.2" stroke="#000000" stroke-width="1" x1="824" y1="699" x2="824" y2="68"/>
<line opacity="0.2" stroke="#000000" stroke-width="1" x1="942" y1="699" x2="942" y2="68"/>
<line opacity="0.2" stroke="#000000" stroke-width="1" x1="78" y1="699" x2="973" y2="699"/>
<line opacity="0.2" stroke="#000000" stroke-width="1" x1="78" y1="568" x2="973" y2="568"/>
<line opacity="0.2" stroke="#000000" stroke-width="1" x1="78" y1="437" x2="973" y2="437"/>
<line opacity="0.2" stroke="#000000" stroke-width="1" x1="78" y1="306" x2="973" y2="306"/>
<line opacity="0.2" stroke="#000000" stroke-width="1" x1="78" y1="176" x2="973" y2="176"/>
<polyline fill="none" opacity="1" stroke="#000000" stroke-width="1" points="77,68 77,699 "/>
<text x="68" y="699" dy="0.5ex" text-anchor="end" font-family="sans-serif" font-size="9.67741935483871" opacity="1" fill="#000000">
0.0 MB
</text>
<polyline fill="none" opacity="1" stroke="#000000" stroke-width="1" points="72,699 77,699 "/>
<text x="68" y="568" dy="0.5ex" text-anchor="end" font-family="sans-serif" font-size="9.67741935483871" opacity="1" fill="#000000">
4.8 MB
</text>
<polyline fill="none" opacity="1" stroke="#000000" stroke-width="1" points="72,568 77,568 "/>
<text x="68" y="437" dy="0.5ex" text-anchor="end" font-family="sans-serif" font-size="9.67741935483871" opacity="1" fill="#000000">
9.5 MB
</text>
<polyline fill="none" opacity="1" stroke="#000000" stroke-width="1" points="72,437 77,437 "/>
<text x="68" y="306" dy="0.5ex" text-anchor="end" font-family="sans-serif" font-size="9.67741935483871" opacity="1" fill="#000000">
14.3 MB
</text>
<polyline fill="none" opacity="1" stroke="#000000" stroke-width="1" points="72,306 77,306 "/>
<text x="68" y="176" dy="0.5ex" text-anchor="end" font-family="sans-serif" font-size="9.67741935483871" opacity="1" fill="#000000">
19.1 MB
</text>
<polyline fill="none" opacity="1" stroke="#000000" stroke-width="1" points="72,176 77,176 "/>
<polyline fill="none" opacity="1" stroke="#000000" stroke-width="1" points="78,700 973,700 "/>
<text x="112" y="710" dy="0.76em" text-anchor="middle" font-family="sans-serif" font-size="9.67741935483871" opacity="1" fill="#000000">
07 17:46:40
</text>
<polyline fill="none" opacity="1" stroke="#000000" stroke-width="1" points="112,700 112,705 "/>
<text x="231" y="710" dy="0.76em" text-anchor="middle" font-family="sans-serif" font-size="9.67741935483871" opacity="1" fill="#000000">
07 20:33:20
</text>
<polyline fill="none" opacity="1" stroke="#000000" stroke-width="1" points="231,700 231,705 "/>
<text x="350" y="710" dy="0.76em" text-anchor="middle" font-family="sans-serif" font-size="9.67741935483871" opacity="1" fill="#000000">
07 23:20:00
</text>
<polyline fill="none" opacity="1" stroke="#000000" stroke-width="1" points="350,700 350,705 "/>
<text x="468" y="710" dy="0.76em" text-anchor="middle" font-family="sans-serif" font-size="9.67741935483871" opacity="1" fill="#000000">
08 02:06:40
</text>
<polyline fill="none" opacity="1" stroke="#000000" stroke-width="1" points="468,700 468,705 "/>
<text x="587" y="710" dy="0.76em" text-anchor="middle" font-family="sans-serif" font-size="9.67741935483871" opacity="1" fill="#000000">
08 04:53:20
</text>
<polyline fill="none" opacity="1" stroke="#000000" stroke-width="1" points="587,700 587,705 "/>
<text x="705" y="710" dy="0.76em" text-anchor="middle" font-family="sans-serif" font-size="9.67741935483871" opacity="1" fill="#000000">
08 07:40:00
</text>
<polyline fill="none" opacity="1" stroke="#000000" stroke-width="1" points="705,700 705,705 "/>
<text x="824" y="710" dy="0.76em" text-anchor="middle" font-family="sans-serif" font-size="9.67741935483871" opacity="1" fill="#000000">
08 10:26:40
</text>
<polyline fill="none" opacity="1" stroke="#000000" stroke-width="1" points="824,700 824,705 "/>
<text x="942" y="710" dy="0.76em" text-anchor="middle" font-family="sans-serif" font-size="9.67741935483871" opacity="1" fill="#000000">
08 13:13:20
</text>
<polyline fill="none" opacity="1" stroke="#000000" stroke-width="1" points="942,700 942,705 "/>
<polyline fill="none" opacity="1" stroke="#000000" stroke-width="1" points="78,67 974,67 "/>
<text x="112" y="58" dy="-0.5ex" text-anchor="middle" font-family="sans-serif" font-size="9.67741935483871" opacity="1" fill="#000000">
+00:49:04
</text>
<polyline fill="none" opacity="1" stroke="#000000" stroke-width="1" points="112,62 112,67 "/>
<text x="231" y="58" dy="-0.5ex" text-anchor="middle" font-family="sans-serif" font-size="9.67741935483871" opacity="1" fill="#000000">
+03:35:44
</text>
<polyline fill="none" opacity="1" stroke="#000000" stroke-width="1" points="231,62 231,67 "/>
<text x="350" y="58" dy="-0.5ex" text-anchor="middle" font-family="sans-serif" font-size="9.67741935483871" opacity="1" fill="#000000">
+06:22:24
</text>
<polyline fill="none" opacity="1" stroke="#000000" stroke-width="1" points="350,62 350,67 "/>
<text x="469" y="58" dy="-0.5ex" text-anchor="middle" font-family="sans-serif" font-size="9.67741935483871" opacity="1" fill="#000000">
+09:09:04
</text>
<polyline fill="none" opacity="1" stroke="#000000" stroke-width="1" points="469,62 469,67 "/>
<text x="587" y="58" dy="-0.5ex" text-anchor="middle" font-family="sans-serif" font-size="9.67741935483871" opacity="1" fill="#000000">
+11:55:44
</text>
<polyline fill="none" opacity="1" stroke="#000000" stroke-width="1" points="587,62 587,67 "/>
<text x="706" y="58" dy="-0.5ex" text-anchor="middle" font-family="sans-serif" font-size="9.67741935483871" opacity="1" fill="#000000">
+14:42:24
</text>
<polyline fill="none" opacity="1" stroke="#000000" stroke-width="1" points="706,62 706,67 "/>
<text x="825" y="58" dy="-0.5ex" text-anchor="middle" font-family="sans-serif" font-size="9.67741935483871" opacity="1" fill="#000000">
+17:29:04
</text>
<polyline fill="none" opacity="1" stroke="#000000" stroke-width="1" points="825,62 825,67 "/>
<text x="943" y="58" dy="-0.5ex" text-anchor="middle" font-family="sans-serif" font-size="9.67741935483871" opacity="1" fill="#000000">
+20:15:44
</text>
<polyline fill="none" opacity="1" stroke="#000000" stroke-width="1" points="943,62 943,67 "/>
<rect x="83" y="73" width="99" height="45" opacity="0.75" fill="#FFFFFF" stroke="none"/>
<rect x="83" y="73" width="99" height="45" opacity="1" fill="none" stroke="#000000"/>
<text x="123" y="83" dy="0.76em" text-anchor="start" font-family="sans-serif" font-size="9.67741935483871" opacity="1" fill="#000000">
Temporary
</text>
<text x="123" y="98" dy="0.76em" text-anchor="start" font-family="sans-serif" font-size="9.67741935483871" opacity="1" fill="#000000">
Leaked
</text>
<rect x="93" y="83" width="10" height="10" opacity="1" fill="#3CB44B" stroke="none"/>
<rect x="93" y="98" width="10" height="10" opacity="1" fill="#E6194B" stroke="none"/>
</svg>
