<svg width="1024" height="768" viewBox="0 0 1024 768" xmlns="http://www.w3.org/2000/svg">
<rect x="0" y="0" width="1024" height="768" opacity="1" fill="#FFFFFF" stroke="none"/>
<polygon opacity="1" fill="#3CB44B" points="973,699 973,699 973,699 "/>
<polyline fill="none" opacity="1" stroke="#3CB44B" stroke-width="1" points="973,699 "/>
<polygon opacity="1" fill="#E6194B" points="78,697 79,697 80,696 81,695 82,695 82,694 83,693 84,693 85,692 86,692 87,691 88,690 89,690 90,689 90,689 91,688 92,688 93,687 94,686 95,686 96,685 97,684 98,684 99,683 99,683 100,682 101,681 102,680 103,680 104,679 105,679 106,678 107,677 107,677 108,676 109,675 110,675 111,674 112,674 113,673 114,672 115,672 116,671 116,670 117,670 118,669 119,669 120,668 121,667 122,667 123,666 124,665 124,665 125,664 126,663 127,663 128,662 129,662 130,661 131,660 132,660 133,659 133,659 134,658 135,657 136,657 137,656 138,655 139,655 140,654 141,654 141,653 142,652 143,652 144,651 145,650 146,650 147,649 148,648 149,648 150,647 150,646 151,646 152,645 153,645 154,644 155,643 156,643 157,642 158,641 158,641 159,640 160,640 161,639 162,638 163,638 164,637 165,637 166,636 166,635 167,635 168,634 169,634 170,633 171,632 172,631 173,631 174,630 175,630 175,629 176,629 177,628 178,627 179,627 180,626 181,626 182,625 183,624 183,624 184,623 185,622 186,622 187,621 188,621 189,620 190,619 191,619 192,618 192,618 193,617 194,617 195,616 196,615 197,614 198,614 199,613 200,612 200,612 201,611 202,610 203,610 204,609 205,609 206,608 207,607 208,607 209,606 209,605 210,605 211,604 212,603 213,602 214,602 215,601 216,601 217,600 217,600 218,599 219,599 220,598 221,597 222,596 223,596 224,595 225,594 226,594 226,593 227,592 228,591 229,591 230,590 231,590 232,589 233,589 234,588 234,587 235,587 236,586 237,585 238,584 239,584 240,583 241,582 242,582 242,581 243,581 244,580 245,580 246,579 247,578 248,578 249,577 250,576 251,576 251,575 252,574 253,574 254,573 255,572 256,572 257,571 258,570 259,570 259,569 260,569 261,568 262,567 263,567 264,566 265,565 266,565 267,564 268,563 268,563 269,562 270,561 271,561 272,560 273,559 274,559 275,558 276,558 276,557 277,556 278,556 279,555 280,554 281,554 282,553 283,552 284,552 285,551 285,550 286,550 287,549 288,549 289,548 290,548 291,547 292,546 293,546 293,545 294,544 295,544 296,543 297,542 298,542 299,541 300,540 301,539 302,539 302,539 303,538 304,537 305,537 306,536 307,535 308,535 309,534 310,533 310,533 311,532 312,531 313,531 314,530 315,529 316,529 317,528 318,528 318,527 319,527 320,526 321,525 322,525 323,524 324,523 325,523 326,522 327,521 327,520 328,520 329,519 330,519 331,518 332,518 333,517 334,517 335,516 335,515 336,515 337,514 338,513 339,513 340,512 341,511 342,511 343,510 344,509 344,509 345,508 346,507 347,507 348,506 349,506 350,505 351,505 352,504 352,503 353,503 354,502 355,501 356,501 357,500 358,499 359,499 360,498 361,498 361,497 362,496 363,496 364,495 365,494 366,494 367,493 368,492 369,492 369,491 370,490 371,489 372,489 373,488 374,488 375,487 376,487 377,486 378,485 378,484 379,484 380,483 381,483 382,482 383,482 384,481 385,480 386,479 386,479 387,478 388,478 389,477 390,476 391,476 392,475 393,474 394,474 394,473 395,472 396,472 397,471 398,471 399,470 400,469 401,469 402,468 403,468 403,467 404,466 405,466 406,465 407,464 408,464 409,463 410,462 411,462 411,461 412,461 413,460 414,459 415,459 416,458 417,458 418,457 419,456 420,456 420,455 421,454 422,453 423,453 424,452 425,452 426,451 427,451 428,450 428,449 429,449 430,448 431,448 432,447 433,446 434,446 435,445 436,444 437,444 437,443 438,442 439,442 440,441 441,440 442,440 443,439 444,438 445,438 445,437 446,437 447,436 448,435 449,434 450,434 451,433 452,432 453,432 453,431 454,431 455,430 456,429 457,429 458,428 459,428 460,427 461,426 462,426 462,425 463,424 464,424 465,423 466,422 467,422 468,421 469,421 470,420 470,419 471,419 472,418 473,417 474,417 475,416 476,415 477,415 478,414 479,414 479,413 480,412 481,412 482,411 483,410 484,409 485,409 486,408 487,407 487,407 488,406 489,406 490,405 491,405 492,404 493,403 494,403 495,402 496,401 496,401 497,400 498,399 499,399 500,398 501,397 502,397 503,396 504,395 504,394 505,394 506,393 507,393 508,392 509,391 510,391 511,390 512,389 513,389 513,388 514,387 515,387 516,386 517,386 518,385 519,384 520,384 521,383 521,382 522,382 523,381 524,381 525,380 526,379 527,378 528,378 529,377 529,376 530,376 531,375 532,375 533,374 534,373 535,373 536,372 537,371 538,371 538,370 539,369 540,369 541,368 542,367 543,367 544,366 545,366 546,365 546,364 547,363 548,363 549,362 550,361 551,361 552,360 553,359 554,359 555,358 555,357 556,357 557,356 558,356 559,355 560,354 561,354 562,353 563,352 563,352 564,351 565,350 566,350 567,349 568,348 569,348 570,347 571,346 572,346 572,345 573,345 574,344 575,343 576,343 577,342 578,341 579,340 580,340 580,339 581,338 582,337 583,337 584,336 585,336 586,335 587,334 588,334 589,333 589,333 590,332 591,331 592,331 593,330 594,330 595,329 596,328 597,328 597,327 598,327 599,326 600,325 601,325 602,324 603,324 604,323 605,322 605,322 606,321 607,321 608,320 609,319 610,319 611,318 612,317 613,317 614,316 614,315 615,315 616,314 617,314 618,313 619,312 620,312 621,311 622,310 622,309 623,309 624,308 625,308 626,307 627,306 628,306 629,305 630,304 631,304 631,303 632,302 633,302 634,301 635,300 636,299 637,299 638,298 639,297 639,297 640,296 641,296 642,295 643,294 644,294 645,293 646,293 647,292 648,291 648,290 649,290 650,289 651,288 652,288 653,287 654,286 655,286 656,285 656,285 657,284 658,284 659,283 660,282 661,281 662,281 663,280 664,279 665,279 665,278 666,277 667,277 668,276 669,276 670,275 671,275 672,274 673,273 673,273 674,272 675,272 676,271 677,270 678,270 679,269 680,268 681,268 681,267 682,266 683,266 684,265 685,264 686,264 687,263 688,263 689,262 690,262 690,261 691,260 692,260 693,259 694,258 695,257 696,257 697,256 698,256 698,255 699,254 700,254 701,253 702,253 703,252 704,252 705,251 706,250 707,250 707,249 708,248 709,247 710,247 711,246 712,246 713,245 714,244 715,244 715,243 716,243 717,242 718,241 719,241 720,240 721,240 722,239 723,238 724,238 724,237 725,236 726,236 727,235 728,234 729,234 730,233 731,233 732,232 732,231 733,231 734,230 735,230 736,229 737,228 738,228 739,227 740,226 741,226 741,225 742,225 743,224 744,223 745,223 746,222 747,222 748,221 749,220 749,220 750,219 751,218 752,217 753,217 754,216 755,215 756,215 757,214 757,214 758,213 759,213 760,212 761,211 762,211 763,210 764,210 765,209 766,208 766,208 767,207 768,206 769,206 770,205 771,204 772,204 773,203 774,203 774,203 775,202 776,201 777,200 778,200 779,199 780,198 781,198 782,197 783,196 783,196 784,195 785,194 786,194 787,193 788,193 789,192 790,191 791,191 791,190 792,189 793,189 794,188 795,187 796,187 797,186 798,185 799,185 800,184 800,183 801,183 802,182 803,182 804,181 805,180 806,180 807,179 808,179 808,178 809,177 810,177 811,176 812,175 813,175 814,175 815,174 816,174 817,173 817,172 818,172 819,171 820,171 821,170 822,169 823,168 824,168 825,167 825,166 826,166 827,165 828,165 829,164 830,164 831,163 832,163 833,162 833,161 834,161 835,160 836,159 837,159 838,158 839,158 840,157 841,156 842,156 842,155 843,155 844,155 845,154 846,154 847,153 848,152 849,151 850,151 850,150 851,150 852,149 853,148 854,148 855,147 856,147 857,146 858,146 859,145 859,144 860,144 861,143 862,142 863,142 864,141 865,140 866,140 867,140 867,139 868,138 869,137 870,137 871,136 872,136 873,135 874,135 875,134 876,133 876,133 877,132 878,131 879,131 880,130 881,129 882,129 883,128 884,128 884,127 885,127 886,126 887,126 888,125 889,124 890,124 891,123 892,122 893,121 893,121 894,121 895,120 896,119 897,119 898,118 899,117 900,117 901,116 901,116 902,115 903,114 904,114 905,113 906,112 907,112 908,111 909,111 909,110 910,109 911,109 912,108 913,107 914,107 915,106 916,105 917,105 918,104 918,103 919,103 920,102 921,101 922,101 923,101 924,100 925,99 926,99 926,98 927,97 928,97 929,96 930,96 931,95 932,94 933,94 934,93 935,92 935,92 936,91 937,91 938,90 939,90 940,89 941,88 942,88 943,87 943,87 944,86 945,85 946,85 947,84 948,83 949,83 950,82 951,81 952,81 952,80 953,80 954,79 955,78 956,78 957,77 958,77 959,76 960,75 960,74 961,74 962,73 963,72 964,72 965,71 966,71 967,70 968,70 969,69 969,68 970,68 971,68 971,68 973,68 973,699 78,699 "/>
<polyline fill="none" opacity="1" stroke="#E6194B" stroke-width="1" points="78,697 79,697 80,696 81,695 82,695 82,694 83,693 84,693 85,692 86,692 87,691 88,690 89,690 90,689 90,689 91,688 92,688 93,687 94,686 95,686 96,685 97,684 98,684 99,683 99,683 100,682 101,681 102,680 103,680 104,679 105,679 106,678 107,677 107,677 108,676 109,675 110,675 111,674 112,674 113,673 114,672 115,672 116,671 116,670 117,670 118,669 119,669 120,668 121,667 122,667 123,666 124,665 124,665 125,664 126,663 127,663 128,662 129,662 130,661 131,660 132,660 133,659 133,659 134,658 135,657 136,657 137,656 138,655 139,655 140,654 141,654 141,653 142,652 143,652 144,651 145,650 146,650 147,649 148,648 149,648 150,647 150,646 151,646 152,645 153,645 154,644 155,643 156,643 157,642 158,641 158,641 159,640 160,640 161,639 162,638 163,638 164,637 165,637 166,636 166,635 167,635 168,634 169,634 170,633 171,632 172,631 173,631 174,630 175,630 175,629 176,629 177,628 178,627 179,627 180,626 181,626 182,625 183,624 183,624 184,623 185,622 186,622 187,621 188,621 189,620 190,619 191,619 192,618 192,618 193,617 194,617 195,616 196,615 197,614 198,614 199,613 200,612 200,612 201,611 202,610 203,610 204,609 205,609 206,608 207,607 208,607 209,606 209,605 210,605 211,604 212,603 213,602 214,602 215,601 216,601 217,600 217,600 218,599 219,599 220,598 221,597 222,596 223,596 224,595 225,594 226,594 226,593 227,592 228,591 229,591 230,590 231,590 232,589 233,589 234,588 234,587 235,587 236,586 237,585 238,584 239,584 240,583 241,582 242,582 242,581 243,581 244,580 245,580 246,579 247,578 248,578 249,577 250,576 251,576 251,575 252,574 253,574 254,573 255,572 256,572 257,571 258,570 259,570 259,569 260,569 261,568 262,567 263,567 264,566 265,565 266,565 267,564 268,563 268,563 269,562 270,561 271,561 272,560 273,559 274,559 275,558 276,558 276,557 277,556 278,556 279,555 280,554 281,554 282,553 283,552 284,552 285,551 285,550 286,550 287,549 288,549 289,548 290,548 291,547 292,546 293,546 293,545 294,544 295,544 296,543 297,542 298,542 299,541 300,540 301,539 302,539 302,539 303,538 304,537 305,537 306,536 307,535 308,535 309,534 310,533 310,533 311,532 312,531 313,531 314,530 315,529 316,529 317,528 318,528 318,527 319,527 320,526 321,525 322,525 323,524 324,523 325,523 326,522 327,521 327,520 328,520 329,519 330,519 331,518 332,518 333,517 334,517 335,516 335,515 336,515 337,514 338,513 339,513 340,512 341,511 342,511 343,510 344,509 344,509 345,508 346,507 347,507 348,506 349,506 350,505 351,505 352,504 352,503 353,503 354,502 355,501 356,501 357,500 358,499 359,499 360,498 361,498 361,497 362,496 363,496 364,495 365,494 366,494 367,493 368,492 369,492 369,491 370,490 371,489 372,489 373,488 374,488 375,487 376,487 377,486 378,485 378,484 379,484 380,483 381,483 382,482 383,482 384,481 385,480 386,479 386,479 387,478 388,478 389,477 390,476 391,476 392,475 393,474 394,474 394,473 395,472 396,472 397,471 398,471 399,470 400,469 401,469 402,468 403,468 403,467 404,466 405,466 406,465 407,464 408,464 409,463 410,462 411,462 411,461 412,461 413,460 414,459 415,459 416,458 417,458 418,457 419,456 420,456 420,455 421,454 422,453 423,453 424,452 425,452 426,451 427,451 428,450 428,449 429,449 430,448 431,448 432,447 433,446 434,446 435,445 436,444 437,444 437,443 438,442 439,442 440,441 441,440 442,440 443,439 444,438 445,438 445,437 446,437 447,436 448,435 449,434 450,434 451,433 452,432 453,432 453,431 454,431 455,430 456,429 457,429 458,428 459,428 460,427 461,426 462,426 462,425 463,424 464,424 465,423 466,422 467,422 468,421 469,421 470,420 470,419 471,419 472,418 473,417 474,417 475,416 476,415 477,415 478,414 479,414 479,413 480,412 481,412 482,411 483,410 484,409 485,409 486,408 487,407 487,407 488,406 489,406 490,405 491,405 492,404 493,403 494,403 495,402 496,401 496,401 497,400 498,399 499,399 500,398 501,397 502,397 503,396 504,395 504,394 505,394 506,393 507,393 508,392 509,391 510,391 511,390 512,389 513,389 513,388 514,387 515,387 516,386 517,386 518,385 519,384 520,384 521,383 521,382 522,382 523,381 524,381 525,380 526,379 527,378 528,378 529,377 529,376 530,376 531,375 532,375 533,374 534,373 535,373 536,372 537,371 538,371 538,370 539,369 540,369 541,368 542,367 543,367 544,366 545,366 546,365 546,364 547,363 548,363 549,362 550,361 551,361 552,360 553,359 554,359 555,358 555,357 556,357 557,356 558,356 559,355 560,354 561,354 562,353 563,352 563,352 564,351 565,350 566,350 567,349 568,348 569,348 570,347 571,346 572,346 572,345 573,345 574,344 575,343 576,343 577,342 578,341 579,340 580,340 580,339 581,338 582,337 583,337 584,336 585,336 586,335 587,334 588,334 589,333 589,333 590,332 591,331 592,331 593,330 594,330 595,329 596,328 597,328 597,327 598,327 599,326 600,325 601,325 602,324 603,324 604,323 605,322 605,322 606,321 607,321 608,320 609,319 610,319 611,318 612,317 613,317 614,316 614,315 615,315 616,314 617,314 618,313 619,312 620,312 621,311 622,310 622,309 623,309 624,308 625,308 626,307 627,306 628,306 629,305 630,304 631,304 631,303 632,302 633,302 634,301 635,300 636,299 637,299 638,298 639,297 639,297 640,296 641,296 642,295 643,294 644,294 645,293 646,293 647,292 648,291 648,290 649,290 650,289 651,288 652,288 653,287 654,286 655,286 656,285 656,285 657,284 658,284 659,283 660,282 661,281 662,281 663,280 664,279 665,279 665,278 666,277 667,277 668,276 669,276 670,275 671,275 672,274 673,273 673,273 674,272 675,272 676,271 677,270 678,270 679,269 680,268 681,268 681,267 682,266 683,266 684,265 685,264 686,264 687,263 688,263 689,262 690,262 690,261 691,260 692,260 693,259 694,258 695,257 696,257 697,256 698,256 698,255 699,254 700,254 701,253 702,253 703,252 704,252 705,251 706,250 707,250 707,249 708,248 709,247 710,247 711,246 712,246 713,245 714,244 715,244 715,243 716,243 717,242 718,241 719,241 720,240 721,240 722,239 723,238 724,238 724,237 725,236 726,236 727,235 728,234 729,234 730,233 731,233 732,232 732,231 733,231 734,230 735,230 736,229 737,228 738,228 739,227 740,226 741,226 741,225 742,225 743,224 744,223 745,223 746,222 747,222 748,221 749,220 749,220 750,219 751,218 752,217 753,217 754,216 755,215 756,215 757,214 757,214 758,213 759,213 760,212 761,211 762,211 763,210 764,210 765,209 766,208 766,208 767,207 768,206 769,206 770,205 771,204 772,204 773,203 774,203 774,203 775,202 776,201 777,200 778,200 779,199 780,198 781,198 782,197 783,196 783,196 784,195 785,194 786,194 787,193 788,193 789,192 790,191 791,191 791,190 792,189 793,189 794,188 795,187 796,187 797,186 798,185 799,185 800,184 800,183 801,183 802,182 803,182 804,181 805,180 806,180 807,179 808,179 808,178 809,177 810,177 811,176 812,175 813,175 814,175 815,174 816,174 817,173 817,172 818,172 819,171 820,171 821,170 822,169 823,168 824,168 825,167 825,166 826,166 827,165 828,165 829,164 830,164 831,163 832,163 833,162 833,161 834,161 835,160 836,159 837,159 838,158 839,158 840,157 841,156 842,156 842,155 843,155 844,155 845,154 846,154 847,153 848,152 849,151 850,151 850,150 851,150 852,149 853,148 854,148 855,147 856,147 857,146 858,146 859,145 859,144 860,144 861,143 862,142 863,142 864,141 865,140 866,140 867,140 867,139 868,138 869,137 870,137 871,136 872,136 873,135 874,135 875,134 876,133 876,133 877,132 878,131 879,131 880,130 881,129 882,129 883,128 884,128 884,127 885,127 886,126 887,126 888,125 889,124 890,124 891,123 892,122 893,121 893,121 894,121 895,120 896,119 897,119 898,118 899,117 900,117 901,116 901,116 902,115 903,114 904,114 905,113 906,112 907,112 908,111 909,111 909,110 910,109 911,109 912,108 913,107 914,107 915,106 916,105 917,105 918,104 918,103 919,103 920,102 921,101 922,101 923,101 924,100 925,99 926,99 926,98 927,97 928,97 929,96 930,96 931,95 932,94 933,94 934,93 935,92 935,92 936,91 937,91 938,90 939,90 940,89 941,88 942,88 943,87 943,87 944,86 945,85 946,85 947,84 948,83 949,83 950,82 951,81 952,81 952,80 953,80 954,79 955,78 956,78 957,77 958,77 959,76 960,75 960,74 961,74 962,73 963,72 964,72 965,71 966,71 967,70 968,70 969,69 969,68 970,68 971,68 971,68 973,68 "/>
<line opacity="0.1" stroke="#000000" stroke-width="1" x1="89" y1="699" x2="89" y2="68"/>
<line opacity="0.1" stroke="#000000" stroke-width="1" x1="101" y1="699" x2="101" y2="68"/>
<line opacity="0.1" stroke="#000000" stroke-width="1" x1="112" y1="699" x2="112" y2="68"/>
<line opacity="0.1" stroke="#000000" stroke-width="1" x1="124" y1="699" x2="124" y2="68"/>
<line opacity="0.1" stroke="#000000" stroke-width="1" x1="136" y1="699" x2="136" y2="68"/>
<line opacity="0.1" stroke="#000000" stroke-width="1" x1="148" y1="699" x2="148" y2="68"/>
<line opacity="0.1" stroke="#000000" stroke-width="1" x1="160" y1="699" x2="160" y2="68"/>
<line opacity="0.1" stroke="#000000" stroke-width="1" x1="172" y1="699" x2="172" y2="68"/>
<line opacity="0.1" stroke="#000000" stroke-width="1" x1="184" y1="699" x2="184" y2="68"/>
<line opacity="0.1" stroke="#000000" stroke-width="1" x1="195" y1="699" x2="195" y2="68"/>
<line opacity="0.1" stroke="#000000" stroke-width="1" x1="207" y1="699" x2="207" y2="68"/>
<line opacity="0.1" stroke="#000000" stroke-width="1" x1="219" y1="699" x2="219" y2="68"/>
<line opacity="0.1" stroke="#000000" stroke-width="1" x1="231" y1="699" x2="231" y2="68"/>
<line opacity="0.1" stroke="#000000" stroke-width="1" x1="243" y1="699" x2="243" y2="68"/>
<line opacity="0.1" stroke="#000000" stroke-width="1" x1="255" y1="699" x2="255" y2="68"/>
<line opacity="0.1" stroke="#000000" stroke-width="1" x1="267" y1="699" x2="267" y2="68"/>
<line opacity="0.1" stroke="#000000" stroke-width="1" x1="278" y1="699" x2="278" y2="68"/>
<line opacity="0.1" stroke="#000000" stroke-width="1" x1="290" y1="699" x2="290" y2="68"/>
<line opacity="0.1" stroke="#000000" stroke-width="1" x1="302" y1="699" x2="302" y2="68"/>
<line opacity="0.1" stroke="#000000" stroke-width="1" x1="314" y1="699" x2="314" y2="68"/>
<line opacity="0.1" stroke="#000000" stroke-width="1" x1="326" y1="699" x2="326" y2="68"/>
<line opacity="0.1" stroke="#000000" stroke-width="1" x1="338" y1="699" x2="338" y2="68"/>
<line opacity="0.1" stroke="#000000" stroke-width="1" x1="350" y1="699" x2="350" y2="68"/>
<line opacity="0.1" stroke="#000000" stroke-width="1" x1="361" y1="699" x2="361" y2="68"/>
<line opacity="0.1" stroke="#000000" stroke-width="1" x1="373" y1="699" x2="373" y2="68"/>
<line opacity="0.1" stroke="#000000" stroke-width="1" x1="385" y1="699" x2="385" y2="68"/>
<line opacity="0.1" stroke="#000000" stroke-width="1" x1="397" y1="699" x2="397" y2="68"/>
<line opacity="0.1" stroke="#000000" stroke-width="1" x1="409" y1="699" x2="409" y2="68"/>
<line opacity="0.1" stroke="#000000" stroke-width="1" x1="421" y1="699" x2="421" y2="68"/>
<line opacity="0.1" stroke="#000000" stroke-width="1" x1="433" y1="699" x2="433" y2="68"/>
<line opacity="0.1" stroke="#000000" stroke-width="1" x1="444" y1="699" x2="444" y2="68"/>
<line opacity="0.1" stroke="#000000" stroke-width="1" x1="456" y1="699" x2="456" y2="68"/>
<line opacity="0.1" stroke="#000000" stroke-width="1" x1="468" y1="699" x2="468" y2="68"/>
<line opacity="0.1" stroke="#000000" stroke-width="1" x1="480" y1="699" x2="480" y2="68"/>
<line opacity="0.1" stroke="#000000" stroke-width="1" x1="492" y1="699" x2="492" y2="68"/>
<line opacity="0.1" stroke="#000000" stroke-width="1" x1="504" y1="699" x2="504" y2="68"/>
<line opacity="0.1" stroke="#000000" stroke-width="1" x1="516" y1="699" x2="516" y2="68"/>
<line opacity="0.1" stroke="#000000" stroke-width="1" x1="527" y1="699" x2="527" y2="68"/>
<line opacity="0.1" stroke="#000000" stroke-width="1" x1="539" y1="699" x2="539" y2="68"/>
<line opacity="0.1" stroke="#000000" stroke-width="1" x1="551" y1="699" x2="551" y2="68"/>
<line opacity="0.1" stroke="#000000" stroke-width="1" x1="563" y1="699" x2="563" y2="68"/>
<line opacity="0.1" stroke="#000000" stroke-width="1" x1="575" y1="699" x2="575" y2="68"/>
<line opacity="0.1" stroke="#000000" stroke-width="1" x1="587" y1="699" x2="587" y2="68"/>
<line opacity="0.1" stroke="#000000" stroke-width="1" x1="599" y1="699" x2="599" y2="68"/>
<line opacity="0.1" stroke="#000000" stroke-width="1" x1="610" y1="699" x2="610" y2="68"/>
<line opacity="0.1" stroke="#000000" stroke-width="1" x1="622" y1="699" x2="622" y2="68"/>
<line opacity="0.1" stroke="#000000" stroke-width="1" x1="634" y1="699" x2="634" y2="68"/>
<line opacity="0.1" stroke="#000000" stroke-width="1" x1="646" y1="699" x2="646" y2="68"/>
<line opacity="0.1" stroke="#000000" stroke-width="1" x1="658" y1="699" x2="658" y2="68"/>
<line opacity="0.1" stroke="#000000" stroke-width="1" x1="670" y1="699" x2="670" y2="68"/>
<line opacity="0.1" stroke="#000000" stroke-width="1" x1="682" y1="699" x2="682" y2="68"/>
<line opacity="0.1" stroke="#000000" stroke-width="1" x1="693" y1="699" x2="693" y2="68"/>
<line opacity="0.1" stroke="#000000" stroke-width="1" x1="705" y1="699" x2="705" y2="68"/>
<line opacity="0.1" stroke="#000000" stroke-width="1" x1="717" y1="699" x2="717" y2="68"/>
<line opacity="0.1" stroke="#000000" stroke-width="1" x1="729" y1="699" x2="729" y2="68"/>
<line opacity="0.1" stroke="#000000" stroke-width="1" x1="741" y1="699" x2="741" y2="68"/>
<line opacity="0.1" stroke="#000000" stroke-width="1" x1="753" y1="699" x2="753" y2="68"/>
<line opacity="0.1" stroke="#000000" stroke-width="1" x1="765" y1="699" x2="765" y2="68"/>
<line opacity="0.1" stroke="#000000" stroke-width="1" x1="776" y1="699" x2="776" y2="68"/>
<line opacity="0.1" stroke="#000000" stroke-width="1" x1="788" y1="699" x2="788" y2="68"/>
<line opacity="0.1" stroke="#000000" stroke-width="1" x1="800" y1="699" x2="800" y2="68"/>
<line opacity="0.1" stroke="#000000" stroke-width="1" x1="812" y1="699" x2="812" y2="68"/>
<line opacity="0.1" stroke="#000000" stroke-width="1" x1="824" y1="699" x2="824" y2="68"/>
<line opacity="0.1" stroke="#000000" stroke-width="1" x1="836" y1="699" x2="836" y2="68"/>
<line opacity="0.1" stroke="#000000" stroke-width="1" x1="848" y1="699" x2="848" y2="68"/>
<line opacity="0.1" stroke="#000000" stroke-width="1" x1="859" y1="699" x2="859" y2="68"/>
<line opacity="0.1" stroke="#000000" stroke-width="1" x1="871" y1="699" x2="871" y2="68"/>
<line opacity="0.1" stroke="#000000" stroke-width="1" x1="883" y1="699" x2="883" y2="68"/>
<line opacity="0.1" stroke="#000000" stroke-width="1" x1="895" y1="699" x2="895" y2="68"/>
<line opacity="0.1" stroke="#000000" stroke-width="1" x1="907" y1="699" x2="907" y2="68"/>
<line opacity="0.1" stroke="#000000" stroke-width="1" x1="919" y1="699" x2="919" y2="68"/>
<line opacity="0.1" stroke="#000000" stroke-width="1" x1="931" y1="699" x2="931" y2="68"/>
<line opacity="0.1" stroke="#000000" stroke-width="1" x1="942" y1="699" x2="942" y2="68"/>
<line opacity="0.1" stroke="#000000" stroke-width="1" x1="954" y1="699" x2="954" y2="68"/>
<line opacity="0.1" stroke="#000000" stroke-width="1" x1="966" y1="699" x2="966" y2="68"/>
<line opacity="0.1" stroke="#000000" stroke-width="1" x1="78" y1="699" x2="973" y2="699"/>
<line opacity="0.1" stroke="#000000" stroke-width="1" x1="78" y1="689" x2="973" y2="689"/>
<line opacity="0.1" stroke="#000000" stroke-width="1" x1="78" y1="679" x2="973" y2="679"/>
<line opacity="0.1" stroke="#000000" stroke-width="1" x1="78" y1="669" x2="973" y2="669"/>
<line opacity="0.1" stroke="#000000" stroke-width="1" x1="78" y1="659" x2="973" y2="659"/>
<line opacity="0.1" stroke="#000000" stroke-width="1" x1="78" y1="649" x2="973" y2="649"/>
<line opacity="0.1" stroke="#000000" stroke-width="1" x1="78" y1="639" x2="973" y2="639"/>
<line opacity="0.1" stroke="#000000" stroke-width="1" x1="78" y1="629" x2="973" y2="629"/>
<line opacity="0.1" stroke="#000000" stroke-width="1" x1="78" y1="619" x2="973" y2="619"/>
<line opacity="0.1" stroke="#000000" stroke-width="1" x1="78" y1="609" x2="973" y2="609"/>
<line opacity="0.1" stroke="#000000" stroke-width="1" x1="78" y1="599" x2="973" y2="599"/>
<line opacity="0.1" stroke="#000000" stroke-width="1" x1="78" y1="589" x2="973" y2="589"/>
<line opacity="0.1" stroke="#000000" stroke-width="1" x1="78" y1="579" x2="973" y2="579"/>
<line opacity="0.1" stroke="#000000" stroke-width="1" x1="78" y1="570" x2="973" y2="570"/>
<line opacity="0.1" stroke="#000000" stroke-width="1" x1="78" y1="560" x2="973" y2="560"/>
<line opacity="0.1" stroke="#000000" stroke-width="1" x1="78" y1="550" x2="973" y2="550"/>
<line opacity="0.1" stroke="#000000" stroke-width="1" x1="78" y1="540" x2="973" y2="540"/>
<line opacity="0.1" stroke="#000000" stroke-width="1" x1="78" y1="530" x2="973" y2="530"/>
<line opacity="0.1" stroke="#000000" stroke-width="1" x1="78" y1="520" x2="973" y2="520"/>
<line opacity="0.1" stroke="#000000" stroke-width="1" x1="78" y1="510" x2="973" y2="510"/>
<line opacity="0.1" stroke="#000000" stroke-width="1" x1="78" y1="500" x2="973" y2="500"/>
<line opacity="0.1" stroke="#000000" stroke-width="1" x1="78" y1="490" x2="973" y2="490"/>
<line opacity="0.1" stroke="#000000" stroke-width="1" x1="78" y1="480" x2="973" y2="480"/>
<line opacity="0.1" stroke="#000000" stroke-width="1" x1="78" y1="470" x2="973" y2="470"/>
<line opacity="0.1" stroke="#000000" stroke-width="1" x1="78" y1="460" x2="973" y2="460"/>
<line opacity="0.1" stroke="#000000" stroke-width="1" x1="78" y1="451" x2="973" y2="451"/>
<line opacity="0.1" stroke="#000000" stroke-width="1" x1="78" y1="441" x2="973" y2="441"/>
<line opacity="0.1" stroke="#000000" stroke-width="1" x1="78" y1="431" x2="973" y2="431"/>
<line opacity="0.1" stroke="#000000" stroke-width="1" x1="78" y1="421" x2="973" y2="421"/>
<line opacity="0.1" stroke="#000000" stroke-width="1" x1="78" y1="411" x2="973" y2="411"/>
<line opacity="0.1" stroke="#000000" stroke-width="1" x1="78" y1="401" x2="973" y2="401"/>
<line opacity="0.1" stroke="#000000" stroke-width="1" x1="78" y1="391" x2="973" y2="391"/>
<line opacity="0.1" stroke="#000000" stroke-width="1" x1="78" y1="381" x2="973" y2="381"/>
<line opacity="0.1" stroke="#000000" stroke-width="1" x1="78" y1="371" x2="973" y2="371"/>
<line opacity="0.1" stroke="#000000" stroke-width="1" x1="78" y1="361" x2="973" y2="361"/>
<line opacity="0.1" stroke="#000000" stroke-width="1" x1="78" y1="351" x2="973" y2="351"/>
<line opacity="0.1" stroke="#000000" stroke-width="1" x1="78" y1="341" x2="973" y2="341"/>
<line opacity="0.1" stroke="#000000" stroke-width="1" x1="78" y1="332" x2="973" y2="332"/>
<line opacity="0.1" stroke="#000000" stroke-width="1" x1="78" y1="322" x2="973" y2="322"/>
<line opacity="0.1" stroke="#000000" stroke-width="1" x1="78" y1="312" x2="973" y2="312"/>
<line opacity="0.1" stroke="#000000" stroke-width="1" x1="78" y1="302" x2="973" y2="302"/>
<line opacity="0.1" stroke="#000000" stroke-width="1" x1="78" y1="292" x2="973" y2="292"/>
<line opacity="0.1" stroke="#000000" stroke-width="1" x1="78" y1="282" x2="973" y2="282"/>
<line opacity="0.1" stroke="#000000" stroke-width="1" x1="78" y1="272" x2="973" y2="272"/>
<line opacity="0.1" stroke="#000000" stroke-width="1" x1="78" y1="262" x2="973" y2="262"/>
<line opacity="0.1" stroke="#000000" stroke-width="1" x1="78" y1="252" x2="973" y2="252"/>
<line opacity="0.1" stroke="#000000" stroke-width="1" x1="78" y1="242" x2="973" y2="242"/>
<line opacity="0.1" stroke="#000000" stroke-width="1" x1="78" y1="232" x2="973" y2="232"/>
<line opacity="0.1" stroke="#000000" stroke-width="1" x1="78" y1="222" x2="973" y2="222"/>
<line opacity="0.1" stroke="#000000" stroke-width="1" x1="78" y1="213" x2="973" y2="213"/>
<line opacity="0.1" stroke="#000000" stroke-width="1" x1="78" y1="203" x2="973" y2="203"/>
<line opacity="0.1" stroke="#000000" stroke-width="1" x1="78" y1="193" x2="973" y2="193"/>
<line opacity="0.1" stroke="#000000" stroke-width="1" x1="78" y1="183" x2="973" y2="183"/>
<line opacity="0.1" stroke="#000000" stroke-width="1" x1="78" y1="173" x2="973" y2="173"/>
<line opacity="0.1" stroke="#000000" stroke-width="1" x1="78" y1="163" x2="973" y2="163"/>
<line opacity="0.1" stroke="#000000" stroke-width="1" x1="78" y1="153" x2="973" y2="153"/>
<line opacity="0.1" stroke="#000000" stroke-width="1" x1="78" y1="143" x2="973" y2="143"/>
<line opacity="0.1" stroke="#000000" stroke-width="1" x1="78" y1="133" x2="973" y2="133"/>
<line opacity="0.1" stroke="#000000" stroke-width="1" x1="78" y1="123" x2="973" y2="123"/>
<line opacity="0.1" stroke="#000000" stroke-width="1" x1="78" y1="113" x2="973" y2="113"/>
<line opacity="0.1" stroke="#000000" stroke-width="1" x1="78" y1="103" x2="973" y2="103"/>
<line opacity="0.1" stroke="#000000" stroke-width="1" x1="78" y1="94" x2="973" y2="94"/>
<line opacity="0.1" stroke="#000000" stroke-width="1" x1="78" y1="84" x2="973" y2="84"/>
<line opacity="0.1" stroke="#000000" stroke-width="1" x1="78" y1="74" x2="973" y2="74"/>
<text x="8" y="384" dy="0.76em" text-anchor="middle" font-family="sans-serif" font-size="9.67741935483871" opacity="1" fill="#000000" transform="rotate(270, 8, 384)">
Memory usage
</text>
<text x="526" y="760" dy="-0.5ex" text-anchor="middle" font-family="sans-serif" font-size="9.67741935483871" opacity="1" fill="#000000">
Time
</text>
<line opacity="0.2" stroke="#000000" stroke-width="1" x1="112" y1="699" x2="112" y2="68"/>
<line opacity="0.2" stroke="#000000" stroke-width="1" x1="231" y1="699" x2="231" y2="68"/>
<line opacity="0.2" stroke="#000000" stroke-width="1" x1="350" y1="699" x2="350" y2="68"/>
<line opacity="0.2" stroke="#000000" stroke-width="1" x1="468" y1="699" x2="468" y2="68"/>
<line opacity="0.2" stroke="#000000" stroke-width="1" x1="587" y1="699" x2="587" y2="68"/>
<line opacity="0.2" stroke="#000000" stroke-width="1" x1="705" y1="699" x2="705" y2="68"/>
<line opacity="0.2" stroke="#000000" stroke-width="1" x1="824" y1="699" x2="824" y2="68"/>
<line opacity="0.2" stroke="#000000" stroke-width="1" x1="942" y1="699" x2="942" y2="68"/>
<line opacity="0.2" stroke="#000000" stroke-width="1" x1="78" y1="699" x2="973" y2="699"/>
<line opacity="0.2" stroke="#000000" stroke-width="1" x1="78" y1="599" x2="973" y2="599"/>
<line opacity="0.2" stroke="#000000" stroke-width="1" x1="78" y1="500" x2="973" y2="500"/>
<line opacity="0.2" stroke="#000000" stroke-width="1" x1="78" y1="401" x2="973" y2="401"/>
<line opacity="0.2" stroke="#000000" stroke-width="1" x1="78" y1="302" x2="973" y2="302"/>
<line opacity="0.2" stroke="#000000" stroke-width="1" x1="78" y1="203" x2="973" y2="203"/>
<line opacity="0.2" stroke="#000000" stroke-width="1" x1="78" y1="103" x2="973" y2="103"/>
<polyline fill="none" opacity="1" stroke="#000000" stroke-width="1" points="77,68 77,699 "/>
<text x="68" y="699" dy="0.5ex" text-anchor="end" font-family="sans-serif" font-size="9.67741935483871" opacity="1" fill="#000000">
0.0 MB
</text>
<polyline fill="none" opacity="1" stroke="#000000" stroke-width="1" points="72,699 77,699 "/>
<text x="68" y="599" dy="0.5ex" text-anchor="end" font-family="sans-serif" font-size="9.67741935483871" opacity="1" fill="#000000">
1.9 MB
</text>
<polyline fill="none" opacity="1" stroke="#000000" stroke-width="1" points="72,599 77,599 "/>
<text x="68" y="500" dy="0.5ex" text-anchor="end" font-family="sans-serif" font-size="9.67741935483871" opacity="1" fill="#000000">
3.8 MB
</text>
<polyline fill="none" opacity="1" stroke="#000000" stroke-width="1" points="72,500 77,500 "/>
<text x="68" y="401" dy="0.5ex" text-anchor="end" font-family="sans-serif" font-size="9.67741935483871" opacity="1" fill="#000000">
5.7 MB
</text>
<polyline fill="none" opacity="1" stroke="#000000" stroke-width="1" points="72,401 77,401 "/>
<text x="68" y="302" dy="0.5ex" text-anchor="end" font-family="sans-serif" font-size="9.67741935483871" opacity="1" fill="#000000">
7.6 MB
</text>
<polyline fill="none" opacity="1" stroke="#000000" stroke-width="1" points="72,302 77,302 "/>
<text x="68" y="203" dy="0.5ex" text-anchor="end" font-family="sans-serif" font-size="9.67741935483871" opacity="1" fill="#000000">
9.5 MB
</text>
<polyline fill="none" opacity="1" stroke="#000000" stroke-width="1" points="72,203 77,203 "/>
<text x="68" y="103" dy="0.5ex" text-anchor="end" font-family="sans-serif" font-size="9.67741935483871" opacity="1" fill="#000000">
11.4 MB
</text>
<polyline fill="none" opacity="1" stroke="#000000" stroke-width="1" points="72,103 77,103 "/>
<polyline fill="none" opacity="1" stroke="#000000" stroke-width="1" points="78,700 973,700 "/>
<text x="112" y="710" dy="0.76em" text-anchor="middle" font-family="sans-serif" font-size="9.67741935483871" opacity="1" fill="#000000">
07 17:46:40
</text>
<polyline fill="none" opacity="1" stroke="#000000" stroke-width="1" points="112,700 112,705 "/>
<text x="231" y="710" dy="0.76em" text-anchor="middle" font-family="sans-serif" font-size="9.67741935483871" opacity="1" fill="#000000">
07 20:33:20
</text>
<polyline fill="none" opacity="1" stroke="#000000" stroke-width="1" points="231,700 231,705 "/>
<text x="350" y="710" dy="0.76em" text-anchor="middle" font-family="sans-serif" font-size="9.67741935483871" opacity="1" fill="#000000">
07 23:20:00
</text>
<polyline fill="none" opacity="1" stroke="#000000" stroke-width="1" points="350,700 350,705 "/>
<text x="468" y="710" dy="0.76em" text-anchor="middle" font-family="sans-serif" font-size="9.67741935483871" opacity="1" fill="#000000">
08 02:06:40
</text>
<polyline fill="none" opacity="1" stroke="#000000" stroke-width="1" points="468,700 468,705 "/>
<text x="587" y="710" dy="0.76em" text-anchor="middle" font-family="sans-serif" font-size="9.67741935483871" opacity="1" fill="#000000">
08 04:53:20
</text>
<polyline fill="none" opacity="1" stroke="#000000" stroke-width="1" points="587,700 587,705 "/>
<text x="705" y="710" dy="0.76em" text-anchor="middle" font-family="sans-serif" font-size="9.67741935483871" opacity="1" fill="#000000">
08 07:40:00
</text>
<polyline fill="none" opacity="1" stroke="#000000" stroke-width="1" points="705,700 705,705 "/>
<text x="824" y="710" dy="0.76em" text-anchor="middle" font-family="sans-serif" font-size="9.67741935483871" opacity="1" fill="#000000">
08 10:26:40
</text>
<polyline fill="none" opacity="1" stroke="#000000" stroke-width="1" points="824,700 824,705 "/>
<text x="942" y="710" dy="0.76em" text-anchor="middle" font-family="sans-serif" font-size="9.67741935483871" opacity="1" fill="#000000">
08 13:13:20
</text>
<polyline fill="none" opacity="1" stroke="#000000" stroke-width="1" points="942,700 942,705 "/>
<polyline fill="none" opacity="1" stroke="#000000" stroke-width="1" points="78,67 974,67 "/>
<text x="112" y="58" dy="-0.5ex" text-anchor="middle" font-family="sans-serif" font-size="9.67741935483871" opacity="1" fill="#000000">
+00:49:04
</text>
<polyline fill="none" opacity="1" stroke="#000000" stroke-width="1" points="112,62 112,67 "/>
<text x="231" y="58" dy="-0.5ex" text-anchor="middle" font-family="sans-serif" font-size="9.67741935483871" opacity="1" fill="#000000">
+03:35:44
</text>
<polyline fill="none" opacity="1" stroke="#000000" stroke-width="1" points="231,62 231,67 "/>
<text x="350" y="58" dy="-0.5ex" text-anchor="middle" font-family="sans-serif" font-size="9.67741935483871" opacity="1" fill="#000000">
+06:22:24
</text>
<polyline fill="none" opacity="1" stroke="#000000" stroke-width="1" points="350,62 350,67 "/>
<text x="469" y="58" dy="-0.5ex" text-anchor="middle" font-family="sans-serif" font-size="9.67741935483871" opacity="1" fill="#000000">
+09:09:04
</text>
<polyline fill="none" opacity="1" stroke="#000000" stroke-width="1" points="469,62 469,67 "/>
<text x="587" y="58" dy="-0.5ex" text-anchor="middle" font-family="sans-serif" font-size="9.67741935483871" opacity="1" fill="#000000">
+11:55:44
</text>
<polyline fill="none" opacity="1" stroke="#000000" stroke-width="1" points="587,62 587,67 "/>
<text x="706" y="58" dy="-0.5ex" text-anchor="middle" font-family="sans-serif" font-size="9.67741935483871" opacity="1" fill="#000000">
+14:42:24
</text>
<polyline fill="none" opacity="1" stroke="#000000" stroke-width="1" points="706,62 706,67 "/>
<text x="825" y="58" dy="-0.5ex" text-anchor="middle" font-family="sans-serif" font-size="9.67741935483871" opacity="1" fill="#000000">
+17:29:04
</text>
<polyline fill="none" opacity="1" stroke="#000000" stroke-width="1" points="825,62 825,67 "/>
<text x="943" y="58" dy="-0.5ex" text-anchor="middle" font-family="sans-serif" font-size="9.67741935483871" opacity="1" fill="#000000">
+20:15:44
</text>
<polyline fill="none" opacity="1" stroke="#000000" stroke-width="1" points="943,62 943,67 "/>
<rect x="83" y="73" width="99" height="45" opacity="0.75" fill="#FFFFFF" stroke="none"/>
<rect x="83" y="73" width="99" height="45" opacity="1" fill="none" stroke="#000000"/>
<text x="123" y="83" dy="0.76em" text-anchor="start" font-family="sans-serif" font-size="9.67741935483871" opacity="1" fill="#000000">
Temporary
</text>
<text x="123" y="98" dy="0.76em" text-anchor="start" font-family="sans-serif" font-size="9.67741935483871" opacity="1" fill="#000000">
Leaked
</text>
<rect x="93" y="83" width="10" height="10" opacity="1" fill="#3CB44B" stroke="none"/>
<rect x="93" y="98" width="10" height="10" opacity="1" fill="#E6194B" stroke="none"/>
</svg>
