<svg width="1024" height="768" viewBox="0 0 1024 768" xmlns="http://www.w3.org/2000/svg">
<rect x="0" y="0" width="1024" height="768" opacity="1" fill="#FFFFFF" stroke="none"/>
<polygon opacity="1" fill="#3CB44B" points="973,699 973,699 973,699 "/>
<polyline fill="none" opacity="1" stroke="#3CB44B" stroke-width="1" points="973,699 "/>
<polygon opacity="1" fill="#E6194B" points="78,698 79,697 80,696 81,696 82,695 82,694 83,694 84,693 85,692 86,692 87,691 88,691 89,690 90,689 90,689 91,688 92,688 93,687 94,686 95,686 96,685 97,685 98,684 99,683 99,683 100,682 101,681 102,681 103,680 104,680 105,679 106,678 107,678 107,677 108,676 109,676 110,675 111,675 112,674 113,673 114,673 115,672 116,671 116,671 117,670 118,670 119,669 120,668 121,668 122,667 123,666 124,666 124,665 125,664 126,664 127,663 128,662 129,662 130,661 131,661 132,660 133,659 133,659 134,658 135,657 136,657 137,656 138,655 139,655 140,654 141,653 141,653 142,652 143,651 144,651 145,650 146,650 147,649 148,648 149,648 150,647 150,646 151,646 152,645 153,645 154,644 155,643 156,642 157,642 158,641 158,641 159,640 160,639 161,639 162,638 163,637 164,637 165,636 166,635 166,635 167,634 168,634 169,633 170,632 171,632 172,631 173,631 174,630 175,630 175,629 176,628 177,628 178,627 179,626 180,626 181,625 182,625 183,624 183,624 184,623 185,622 186,621 187,621 188,620 189,620 190,619 191,618 192,618 192,617 193,617 194,616 195,615 196,615 197,614 198,613 199,613 200,612 200,611 201,611 202,610 203,609 204,609 205,608 206,607 207,607 208,606 209,606 209,605 210,605 211,604 212,603 213,603 214,602 215,601 216,601 217,600 217,599 218,599 219,598 220,598 221,597 222,596 223,596 224,595 225,595 226,594 226,593 227,593 228,592 229,592 230,591 231,590 232,590 233,589 234,588 234,588 235,587 236,586 237,586 238,585 239,585 240,584 241,583 242,583 242,582 243,581 244,581 245,580 246,579 247,579 248,578 249,577 250,577 251,576 251,575 252,575 253,574 254,574 255,573 256,572 257,572 258,571 259,570 259,570 260,569 261,568 262,568 263,567 264,567 265,566 266,565 267,565 268,564 268,563 269,563 270,562 271,561 272,561 273,560 274,559 275,559 276,558 276,558 277,557 278,556 279,556 280,555 281,554 282,554 283,553 284,552 285,552 285,551 286,550 287,550 288,549 289,549 290,548 291,547 292,546 293,546 293,545 294,544 295,544 296,543 297,543 298,542 299,541 300,541 301,540 302,539 302,539 303,538 304,537 305,537 306,536 307,535 308,535 309,534 310,534 310,533 311,532 312,532 313,531 314,530 315,530 316,529 317,528 318,528 318,527 319,526 320,526 321,525 322,525 323,524 324,523 325,522 326,522 327,521 327,521 328,520 329,519 330,519 331,518 332,517 333,517 334,516 335,516 335,515 336,514 337,514 338,513 339,512 340,512 341,511 342,510 343,510 344,509 344,509 345,508 346,507 347,507 348,506 349,505 350,505 351,504 352,503 352,503 353,502 354,501 355,501 356,500 357,500 358,499 359,498 360,498 361,497 361,496 362,496 363,495 364,494 365,494 366,493 367,492 368,492 369,491 369,490 370,490 371,489 372,488 373,488 374,487 375,487 376,486 377,485 378,485 378,484 379,483 380,483 381,482 382,481 383,481 384,480 385,479 386,479 386,478 387,478 388,477 389,476 390,476 391,475 392,475 393,474 394,473 394,473 395,472 396,471 397,471 398,470 399,469 400,469 401,468 402,468 403,467 403,466 404,466 405,465 406,464 407,464 408,463 409,462 410,462 411,461 411,460 412,460 413,459 414,459 415,458 416,457 417,457 418,456 419,456 420,455 420,454 421,454 422,453 423,452 424,452 425,451 426,450 427,450 428,449 428,448 429,448 430,447 431,447 432,446 433,445 434,445 435,444 436,443 437,443 437,442 438,441 439,441 440,440 441,439 442,439 443,438 444,437 445,437 445,436 446,436 447,435 448,434 449,434 450,433 451,433 452,432 453,431 453,430 454,430 455,429 456,429 457,428 458,427 459,427 460,426 461,425 462,425 462,424 463,423 464,423 465,422 466,421 467,421 468,420 469,420 470,419 470,418 471,418 472,417 473,417 474,416 475,415 476,415 477,414 478,413 479,413 479,412 480,412 481,411 482,410 483,409 484,409 485,408 486,407 487,407 487,406 488,406 489,405 490,404 491,404 492,403 493,402 494,402 495,401 496,401 496,400 497,399 498,399 499,398 500,397 501,397 502,396 503,396 504,395 504,394 505,394 506,393 507,392 508,392 509,391 510,391 511,390 512,389 513,389 513,388 514,387 515,387 516,386 517,386 518,385 519,384 520,384 521,383 521,382 522,382 523,381 524,380 525,380 526,379 527,378 528,378 529,377 529,377 530,376 531,375 532,375 533,374 534,373 535,373 536,372 537,371 538,371 538,370 539,370 540,369 541,368 542,367 543,367 544,366 545,366 546,365 546,364 547,364 548,363 549,362 550,362 551,361 552,361 553,360 554,359 555,359 555,358 556,357 557,357 558,356 559,356 560,355 561,354 562,354 563,353 563,352 564,352 565,351 566,351 567,350 568,349 569,349 570,348 571,347 572,346 572,346 573,345 574,344 575,344 576,343 577,342 578,342 579,341 580,340 580,340 581,339 582,338 583,338 584,337 585,336 586,336 587,335 588,334 589,334 589,333 590,333 591,332 592,331 593,331 594,330 595,330 596,329 597,328 597,328 598,327 599,326 600,326 601,325 602,325 603,324 604,323 605,323 605,322 606,321 607,321 608,320 609,319 610,319 611,318 612,317 613,317 614,316 614,316 615,315 616,314 617,314 618,313 619,313 620,312 621,311 622,310 622,310 623,309 624,308 625,308 626,307 627,306 628,306 629,305 630,305 631,304 631,303 632,302 633,302 634,301 635,300 636,300 637,299 638,299 639,298 639,297 640,297 641,296 642,296 643,295 644,294 645,294 646,293 647,292 648,292 648,291 649,291 650,290 651,289 652,289 653,288 654,287 655,287 656,286 656,285 657,285 658,284 659,284 660,283 661,282 662,282 663,281 664,280 665,280 665,279 666,279 667,278 668,277 669,277 670,276 671,275 672,275 673,274 673,273 674,273 675,272 676,271 677,271 678,270 679,270 680,269 681,268 681,268 682,267 683,266 684,266 685,265 686,264 687,264 688,263 689,263 690,262 690,261 691,261 692,260 693,259 694,259 695,258 696,258 697,257 698,256 698,256 699,255 700,255 701,254 702,253 703,253 704,252 705,252 706,251 707,251 707,250 708,249 709,249 710,248 711,247 712,247 713,246 714,245 715,245 715,244 716,244 717,243 718,242 719,242 720,241 721,241 722,240 723,239 724,239 724,238 725,237 726,237 727,236 728,235 729,235 730,234 731,233 732,233 732,232 733,231 734,231 735,230 736,229 737,229 738,228 739,228 740,227 741,226 741,226 742,225 743,224 744,224 745,223 746,222 747,222 748,221 749,221 749,220 750,219 751,219 752,218 753,217 754,217 755,216 756,215 757,215 757,214 758,214 759,213 760,212 761,212 762,211 763,211 764,210 765,209 766,209 766,208 767,208 768,207 769,206 770,206 771,205 772,204 773,204 774,203 774,203 775,202 776,201 777,201 778,200 779,199 780,199 781,198 782,197 783,197 783,196 784,196 785,195 786,194 787,194 788,193 789,192 790,191 791,191 791,190 792,190 793,189 794,188 795,188 796,187 797,186 798,186 799,185 800,185 800,184 801,183 802,183 803,182 804,182 805,181 806,180 807,180 808,179 808,178 809,178 810,177 811,176 812,176 813,175 814,175 815,174 816,174 817,173 817,172 818,172 819,171 820,170 821,170 822,169 823,168 824,168 825,167 825,167 826,166 827,165 828,165 829,164 830,163 831,163 832,162 833,162 833,161 834,160 835,160 836,159 837,159 838,158 839,158 840,157 841,156 842,156 842,155 843,155 844,154 845,153 846,153 847,152 848,151 849,151 850,150 850,150 851,149 852,148 853,148 854,147 855,147 856,146 857,146 858,145 859,144 859,144 860,143 861,142 862,142 863,141 864,140 865,140 866,139 867,139 867,138 868,138 869,137 870,136 871,136 872,135 873,135 874,134 875,133 876,133 876,132 877,132 878,131 879,130 880,130 881,129 882,129 883,128 884,127 884,127 885,126 886,126 887,125 888,124 889,124 890,123 891,123 892,122 893,121 893,121 894,120 895,119 896,119 897,118 898,118 899,117 900,116 901,116 901,115 902,115 903,114 904,113 905,113 906,112 907,111 908,111 909,110 909,109 910,109 911,108 912,107 913,107 914,106 915,106 916,105 917,104 918,104 918,103 919,103 920,102 921,101 922,101 923,100 924,100 925,99 926,98 926,98 927,97 928,96 929,96 930,95 931,95 932,94 933,94 934,93 935,92 935,92 936,91 937,91 938,90 939,89 940,89 941,88 942,87 943,87 943,86 944,86 945,85 946,84 947,84 948,83 949,83 950,82 951,81 952,81 952,80 953,79 954,79 955,78 956,78 957,77 958,76 959,76 960,75 960,75 961,74 962,74 963,73 964,72 965,72 966,71 967,70 968,70 969,69 969,68 970,68 971,68 971,68 973,68 973,699 78,699 "/>
<polyline fill="none" opacity="1" stroke="#E6194B" stroke-width="1" points="78,698 79,697 80,696 81,696 82,695 82,694 83,694 84,693 85,692 86,692 87,691 88,691 89,690 90,689 90,689 91,688 92,688 93,687 94,686 95,686 96,685 97,685 98,684 99,683 99,683 100,682 101,681 102,681 103,680 104,680 105,679 106,678 107,678 107,677 108,676 109,676 110,675 111,675 112,674 113,673 114,673 115,672 116,671 116,671 117,670 118,670 119,669 120,668 121,668 122,667 123,666 124,666 124,665 125,664 126,664 127,663 128,662 129,662 130,661 131,661 132,660 133,659 133,659 134,658 135,657 136,657 137,656 138,655 139,655 140,654 141,653 141,653 142,652 143,651 144,651 145,650 146,650 147,649 148,648 149,648 150,647 150,646 151,646 152,645 153,645 154,644 155,643 156,642 157,642 158,641 158,641 159,640 160,639 161,639 162,638 163,637 164,637 165,636 166,635 166,635 167,634 168,634 169,633 170,632 171,632 172,631 173,631 174,630 175,630 175,629 176,628 177,628 178,627 179,626 180,626 181,625 182,625 183,624 183,624 184,623 185,622 186,621 187,621 188,620 189,620 190,619 191,618 192,618 192,617 193,617 194,616 195,615 196,615 197,614 198,613 199,613 200,612 200,611 201,611 202,610 203,609 204,609 205,608 206,607 207,607 208,606 209,606 209,605 210,605 211,604 212,603 213,603 214,602 215,601 216,601 217,600 217,599 218,599 219,598 220,598 221,597 222,596 223,596 224,595 225,595 226,594 226,593 227,593 228,592 229,592 230,591 231,590 232,590 233,589 234,588 234,588 235,587 236,586 237,586 238,585 239,585 240,584 241,583 242,583 242,582 243,581 244,581 245,580 246,579 247,579 248,578 249,577 250,577 251,576 251,575 252,575 253,574 254,574 255,573 256,572 257,572 258,571 259,570 259,570 260,569 261,568 262,568 263,567 264,567 265,566 266,565 267,565 268,564 268,563 269,563 270,562 271,561 272,561 273,560 274,559 275,559 276,558 276,558 277,557 278,556 279,556 280,555 281,554 282,554 283,553 284,552 285,552 285,551 286,550 287,550 288,549 289,549 290,548 291,547 292,546 293,546 293,545 294,544 295,544 296,543 297,543 298,542 299,541 300,541 301,540 302,539 302,539 303,538 304,537 305,537 306,536 307,535 308,535 309,534 310,534 310,533 311,532 312,532 313,531 314,530 315,530 316,529 317,528 318,528 318,527 319,526 320,526 321,525 322,525 323,524 324,523 325,522 326,522 327,521 327,521 328,520 329,519 330,519 331,518 332,517 333,517 334,516 335,516 335,515 336,514 337,514 338,513 339,512 340,512 341,511 342,510 343,510 344,509 344,509 345,508 346,507 347,507 348,506 349,505 350,505 351,504 352,503 352,503 353,502 354,501 355,501 356,500 357,500 358,499 359,498 360,498 361,497 361,496 362,496 363,495 364,494 365,494 366,493 367,492 368,492 369,491 369,490 370,490 371,489 372,488 373,488 374,487 375,487 376,486 377,485 378,485 378,484 379,483 380,483 381,482 382,481 383,481 384,480 385,479 386,479 386,478 387,478 388,477 389,476 390,476 391,475 392,475 393,474 394,473 394,473 395,472 396,471 397,471 398,470 399,469 400,469 401,468 402,468 403,467 403,466 404,466 405,465 406,464 407,464 408,463 409,462 410,462 411,461 411,460 412,460 413,459 414,459 415,458 416,457 417,457 418,456 419,456 420,455 420,454 421,454 422,453 423,452 424,452 425,451 426,450 427,450 428,449 428,448 429,448 430,447 431,447 432,446 433,445 434,445 435,444 436,443 437,443 437,442 438,441 439,441 440,440 441,439 442,439 443,438 444,437 445,437 445,436 446,436 447,435 448,434 449,434 450,433 451,433 452,432 453,431 453,430 454,430 455,429 456,429 457,428 458,427 459,427 460,426 461,425 462,425 462,424 463,423 464,423 465,422 466,421 467,421 468,420 469,420 470,419 470,418 471,418 472,417 473,417 474,416 475,415 476,415 477,414 478,413 479,413 479,412 480,412 481,411 482,410 483,409 484,409 485,408 486,407 487,407 487,406 488,406 489,405 490,404 491,404 492,403 493,402 494,402 495,401 496,401 496,400 497,399 498,399 499,398 500,397 501,397 502,396 503,396 504,395 504,394 505,394 506,393 507,392 508,392 509,391 510,391 511,390 512,389 513,389 513,388 514,387 515,387 516,386 517,386 518,385 519,384 520,384 521,383 521,382 522,382 523,381 524,380 525,380 526,379 527,378 528,378 529,377 529,377 530,376 531,375 532,375 533,374 534,373 535,373 536,372 537,371 538,371 538,370 539,370 540,369 541,368 542,367 543,367 544,366 545,366 546,365 546,364 547,364 548,363 549,362 550,362 551,361 552,361 553,360 554,359 555,359 555,358 556,357 557,357 558,356 559,356 560,355 561,354 562,354 563,353 563,352 564,352 565,351 566,351 567,350 568,349 569,349 570,348 571,347 572,346 572,346 573,345 574,344 575,344 576,343 577,342 578,342 579,341 580,340 580,340 581,339 582,338 583,338 584,337 585,336 586,336 587,335 588,334 589,334 589,333 590,333 591,332 592,331 593,331 594,330 595,330 596,329 597,328 597,328 598,327 599,326 600,326 601,325 602,325 603,324 604,323 605,323 605,322 606,321 607,321 608,320 609,319 610,319 611,318 612,317 613,317 614,316 614,316 615,315 616,314 617,314 618,313 619,313 620,312 621,311 622,310 622,310 623,309 624,308 625,308 626,307 627,306 628,306 629,305 630,305 631,304 631,303 632,302 633,302 634,301 635,300 636,300 637,299 638,299 639,298 639,297 640,297 641,296 642,296 643,295 644,294 645,294 646,293 647,292 648,292 648,291 649,291 650,290 651,289 652,289 653,288 654,287 655,287 656,286 656,285 657,285 658,284 659,284 660,283 661,282 662,282 663,281 664,280 665,280 665,279 666,279 667,278 668,277 669,277 670,276 671,275 672,275 673,274 673,273 674,273 675,272 676,271 677,271 678,270 679,270 680,269 681,268 681,268 682,267 683,266 684,266 685,265 686,264 687,264 688,263 689,263 690,262 690,261 691,261 692,260 693,259 694,259 695,258 696,258 697,257 698,256 698,256 699,255 700,255 701,254 702,253 703,253 704,252 705,252 706,251 707,251 707,250 708,249 709,249 710,248 711,247 712,247 713,246 714,245 715,245 715,244 716,244 717,243 718,242 719,242 720,241 721,241 722,240 723,239 724,239 724,238 725,237 726,237 727,236 728,235 729,235 730,234 731,233 732,233 732,232 733,231 734,231 735,230 736,229 737,229 738,228 739,228 740,227 741,226 741,226 742,225 743,224 744,224 745,223 746,222 747,222 748,221 749,221 749,220 750,219 751,219 752,218 753,217 754,217 755,216 756,215 757,215 757,214 758,214 759,213 760,212 761,212 762,211 763,211 764,210 765,209 766,209 766,208 767,208 768,207 769,206 770,206 771,205 772,204 773,204 774,203 774,203 775,202 776,201 777,201 778,200 779,199 780,199 781,198 782,197 783,197 783,196 784,196 785,195 786,194 787,194 788,193 789,192 790,191 791,191 791,190 792,190 793,189 794,188 795,188 796,187 797,186 798,186 799,185 800,185 800,184 801,183 802,183 803,182 804,182 805,181 806,180 807,180 808,179 808,178 809,178 810,177 811,176 812,176 813,175 814,175 815,174 816,174 817,173 817,172 818,172 819,171 820,170 821,170 822,169 823,168 824,168 825,167 825,167 826,166 827,165 828,165 829,164 830,163 831,163 832,162 833,162 833,161 834,160 835,160 836,159 837,159 838,158 839,158 840,157 841,156 842,156 842,155 843,155 844,154 845,153 846,153 847,152 848,151 849,151 850,150 850,150 851,149 852,148 853,148 854,147 855,147 856,146 857,146 858,145 859,144 859,144 860,143 861,142 862,142 863,141 864,140 865,140 866,139 867,139 867,138 868,138 869,137 870,136 871,136 872,135 873,135 874,134 875,133 876,133 876,132 877,132 878,131 879,130 880,130 881,129 882,129 883,128 884,127 884,127 885,126 886,126 887,125 888,124 889,124 890,123 891,123 892,122 893,121 893,121 894,120 895,119 896,119 897,118 898,118 899,117 900,116 901,116 901,115 902,115 903,114 904,113 905,113 906,112 907,111 908,111 909,110 909,109 910,109 911,108 912,107 913,107 914,106 915,106 916,105 917,104 918,104 918,103 919,103 920,102 921,101 922,101 923,100 924,100 925,99 926,98 926,98 927,97 928,96 929,96 930,95 931,95 932,94 933,94 934,93 935,92 935,92 936,91 937,91 938,90 939,89 940,89 941,88 942,87 943,87 943,86 944,86 945,85 946,84 947,84 948,83 949,83 950,82 951,81 952,81 952,80 953,79 954,79 955,78 956,78 957,77 958,76 959,76 960,75 960,75 961,74 962,74 963,73 964,72 965,72 966,71 967,70 968,70 969,69 969,68 970,68 971,68 971,68 973,68 "/>
<line opacity="0.1" stroke="#000000" stroke-width="1" x1="89" y1="699" x2="89" y2="68"/>
<line opacity="0.1" stroke="#000000" stroke-width="1" x1="101" y1="699" x2="101" y2="68"/>
<line opacity="0.1" stroke="#000000" stroke-width="1" x1="112" y1="699" x2="112" y2="68"/>
<line opacity="0.1" stroke="#000000" stroke-width="1" x1="124" y1="699" x2="124" y2="68"/>
<line opacity="0.1" stroke="#000000" stroke-width="1" x1="136" y1="699" x2="136" y2="68"/>
<line opacity="0.1" stroke="#000000" stroke-width="1" x1="148" y1="699" x2="148" y2="68"/>
<line opacity="0.1" stroke="#000000" stroke-width="1" x1="160" y1="699" x2="160" y2="68"/>
<line opacity="0.1" stroke="#000000" stroke-width="1" x1="172" y1="699" x2="172" y2="68"/>
<line opacity="0.1" stroke="#000000" stroke-width="1" x1="184" y1="699" x2="184" y2="68"/>
<line opacity="0.1" stroke="#000000" stroke-width="1" x1="195" y1="699" x2="195" y2="68"/>
<line opacity="0.1" stroke="#000000" stroke-width="1" x1="207" y1="699" x2="207" y2="68"/>
<line opacity="0.1" stroke="#000000" stroke-width="1" x1="219" y1="699" x2="219" y2="68"/>
<line opacity="0.1" stroke="#000000" stroke-width="1" x1="231" y1="699" x2="231" y2="68"/>
<line opacity="0.1" stroke="#000000" stroke-width="1" x1="243" y1="699" x2="243" y2="68"/>
<line opacity="0.1" stroke="#000000" stroke-width="1" x1="255" y1="699" x2="255" y2="68"/>
<line opacity="0.1" stroke="#000000" stroke-width="1" x1="267" y1="699" x2="267" y2="68"/>
<line opacity="0.1" stroke="#000000" stroke-width="1" x1="278" y1="699" x2="278" y2="68"/>
<line opacity="0.1" stroke="#000000" stroke-width="1" x1="290" y1="699" x2="290" y2="68"/>
<line opacity="0.1" stroke="#000000" stroke-width="1" x1="302" y1="699" x2="302" y2="68"/>
<line opacity="0.1" stroke="#000000" stroke-width="1" x1="314" y1="699" x2="314" y2="68"/>
<line opacity="0.1" stroke="#000000" stroke-width="1" x1="326" y1="699" x2="326" y2="68"/>
<line opacity="0.1" stroke="#000000" stroke-width="1" x1="338" y1="699" x2="338" y2="68"/>
<line opacity="0.1" stroke="#000000" stroke-width="1" x1="350" y1="699" x2="350" y2="68"/>
<line opacity="0.1" stroke="#000000" stroke-width="1" x1="361" y1="699" x2="361" y2="68"/>
<line opacity="0.1" stroke="#000000" stroke-width="1" x1="373" y1="699" x2="373" y2="68"/>
<line opacity="0.1" stroke="#000000" stroke-width="1" x1="385" y1="699" x2="385" y2="68"/>
<line opacity="0.1" stroke="#000000" stroke-width="1" x1="397" y1="699" x2="397" y2="68"/>
<line opacity="0.1" stroke="#000000" stroke-width="1" x1="409" y1="699" x2="409" y2="68"/>
<line opacity="0.1" stroke="#000000" stroke-width="1" x1="421" y1="699" x2="421" y2="68"/>
<line opacity="0.1" stroke="#000000" stroke-width="1" x1="433" y1="699" x2="433" y2="68"/>
<line opacity="0.1" stroke="#000000" stroke-width="1" x1="444" y1="699" x2="444" y2="68"/>
<line opacity="0.1" stroke="#000000" stroke-width="1" x1="456" y1="699" x2="456" y2="68"/>
<line opacity="0.1" stroke="#000000" stroke-width="1" x1="468" y1="699" x2="468" y2="68"/>
<line opacity="0.1" stroke="#000000" stroke-width="1" x1="480" y1="699" x2="480" y2="68"/>
<line opacity="0.1" stroke="#000000" stroke-width="1" x1="492" y1="699" x2="492" y2="68"/>
<line opacity="0.1" stroke="#000000" stroke-width="1" x1="504" y1="699" x2="504" y2="68"/>
<line opacity="0.1" stroke="#000000" stroke-width="1" x1="516" y1="699" x2="516" y2="68"/>
<line opacity="0.1" stroke="#000000" stroke-width="1" x1="527" y1="699" x2="527" y2="68"/>
<line opacity="0.1" stroke="#000000" stroke-width="1" x1="539" y1="699" x2="539" y2="68"/>
<line opacity="0.1" stroke="#000000" stroke-width="1" x1="551" y1="699" x2="551" y2="68"/>
<line opacity="0.1" stroke="#000000" stroke-width="1" x1="563" y1="699" x2="563" y2="68"/>
<line opacity="0.1" stroke="#000000" stroke-width="1" x1="575" y1="699" x2="575" y2="68"/>
<line opacity="0.1" stroke="#000000" stroke-width="1" x1="587" y1="699" x2="587" y2="68"/>
<line opacity="0.1" stroke="#000000" stroke-width="1" x1="599" y1="699" x2="599" y2="68"/>
<line opacity="0.1" stroke="#000000" stroke-width="1" x1="610" y1="699" x2="610" y2="68"/>
<line opacity="0.1" stroke="#000000" stroke-width="1" x1="622" y1="699" x2="622" y2="68"/>
<line opacity="0.1" stroke="#000000" stroke-width="1" x1="634" y1="699" x2="634" y2="68"/>
<line opacity="0.1" stroke="#000000" stroke-width="1" x1="646" y1="699" x2="646" y2="68"/>
<line opacity="0.1" stroke="#000000" stroke-width="1" x1="658" y1="699" x2="658" y2="68"/>
<line opacity="0.1" stroke="#000000" stroke-width="1" x1="670" y1="699" x2="670" y2="68"/>
<line opacity="0.1" stroke="#000000" stroke-width="1" x1="682" y1="699" x2="682" y2="68"/>
<line opacity="0.1" stroke="#000000" stroke-width="1" x1="693" y1="699" x2="693" y2="68"/>
<line opacity="0.1" stroke="#000000" stroke-width="1" x1="705" y1="699" x2="705" y2="68"/>
<line opacity="0.1" stroke="#000000" stroke-width="1" x1="717" y1="699" x2="717" y2="68"/>
<line opacity="0.1" stroke="#000000" stroke-width="1" x1="729" y1="699" x2="729" y2="68"/>
<line opacity="0.1" stroke="#000000" stroke-width="1" x1="741" y1="699" x2="741" y2="68"/>
<line opacity="0.1" stroke="#000000" stroke-width="1" x1="753" y1="699" x2="753" y2="68"/>
<line opacity="0.1" stroke="#000000" stroke-width="1" x1="765" y1="699" x2="765" y2="68"/>
<line opacity="0.1" stroke="#000000" stroke-width="1" x1="776" y1="699" x2="776" y2="68"/>
<line opacity="0.1" stroke="#000000" stroke-width="1" x1="788" y1="699" x2="788" y2="68"/>
<line opacity="0.1" stroke="#000000" stroke-width="1" x1="800" y1="699" x2="800" y2="68"/>
<line opacity="0.1" stroke="#000000" stroke-width="1" x1="812" y1="699" x2="812" y2="68"/>
<line opacity="0.1" stroke="#000000" stroke-width="1" x1="824" y1="699" x2="824" y2="68"/>
<line opacity="0.1" stroke="#000000" stroke-width="1" x1="836" y1="699" x2="836" y2="68"/>
<line opacity="0.1" stroke="#000000" stroke-width="1" x1="848" y1="699" x2="848" y2="68"/>
<line opacity="0.1" stroke="#000000" stroke-width="1" x1="859" y1="699" x2="859" y2="68"/>
<line opacity="0.1" stroke="#000000" stroke-width="1" x1="871" y1="699" x2="871" y2="68"/>
<line opacity="0.1" stroke="#000000" stroke-width="1" x1="883" y1="699" x2="883" y2="68"/>
<line opacity="0.1" stroke="#000000" stroke-width="1" x1="895" y1="699" x2="895" y2="68"/>
<line opacity="0.1" stroke="#000000" stroke-width="1" x1="907" y1="699" x2="907" y2="68"/>
<line opacity="0.1" stroke="#000000" stroke-width="1" x1="919" y1="699" x2="919" y2="68"/>
<line opacity="0.1" stroke="#000000" stroke-width="1" x1="931" y1="699" x2="931" y2="68"/>
<line opacity="0.1" stroke="#000000" stroke-width="1" x1="942" y1="699" x2="942" y2="68"/>
<line opacity="0.1" stroke="#000000" stroke-width="1" x1="954" y1="699" x2="954" y2="68"/>
<line opacity="0.1" stroke="#000000" stroke-width="1" x1="966" y1="699" x2="966" y2="68"/>
<line opacity="0.1" stroke="#000000" stroke-width="1" x1="78" y1="699" x2="973" y2="699"/>
<line opacity="0.1" stroke="#000000" stroke-width="1" x1="78" y1="690" x2="973" y2="690"/>
<line opacity="0.1" stroke="#000000" stroke-width="1" x1="78" y1="682" x2="973" y2="682"/>
<line opacity="0.1" stroke="#000000" stroke-width="1" x1="78" y1="673" x2="973" y2="673"/>
<line opacity="0.1" stroke="#000000" stroke-width="1" x1="78" y1="665" x2="973" y2="665"/>
<line opacity="0.1" stroke="#000000" stroke-width="1" x1="78" y1="656" x2="973" y2="656"/>
<line opacity="0.1" stroke="#000000" stroke-width="1" x1="78" y1="648" x2="973" y2="648"/>
<line opacity="0.1" stroke="#000000" stroke-width="1" x1="78" y1="639" x2="973" y2="639"/>
<line opacity="0.1" stroke="#000000" stroke-width="1" x1="78" y1="631" x2="973" y2="631"/>
<line opacity="0.1" stroke="#000000" stroke-width="1" x1="78" y1="622" x2="973" y2="622"/>
<line opacity="0.1" stroke="#000000" stroke-width="1" x1="78" y1="614" x2="973" y2="614"/>
<line opacity="0.1" stroke="#000000" stroke-width="1" x1="78" y1="606" x2="973" y2="606"/>
<line opacity="0.1" stroke="#000000" stroke-width="1" x1="78" y1="597" x2="973" y2="597"/>
<line opacity="0.1" stroke="#000000" stroke-width="1" x1="78" y1="589" x2="973" y2="589"/>
<line opacity="0.1" stroke="#000000" stroke-width="1" x1="78" y1="580" x2="973" y2="580"/>
<line opacity="0.1" stroke="#000000" stroke-width="1" x1="78" y1="572" x2="973" y2="572"/>
<line opacity="0.1" stroke="#000000" stroke-width="1" x1="78" y1="563" x2="973" y2="563"/>
<line opacity="0.1" stroke="#000000" stroke-width="1" x1="78" y1="555" x2="973" y2="555"/>
<line opacity="0.1" stroke="#000000" stroke-width="1" x1="78" y1="546" x2="973" y2="546"/>
<line opacity="0.1" stroke="#000000" stroke-width="1" x1="78" y1="538" x2="973" y2="538"/>
<line opacity="0.1" stroke="#000000" stroke-width="1" x1="78" y1="529" x2="973" y2="529"/>
<line opacity="0.1" stroke="#000000" stroke-width="1" x1="78" y1="521" x2="973" y2="521"/>
<line opacity="0.1" stroke="#000000" stroke-width="1" x1="78" y1="513" x2="973" y2="513"/>
<line opacity="0.1" stroke="#000000" stroke-width="1" x1="78" y1="504" x2="973" y2="504"/>
<line opacity="0.1" stroke="#000000" stroke-width="1" x1="78" y1="496" x2="973" y2="496"/>
<line opacity="0.1" stroke="#000000" stroke-width="1" x1="78" y1="487" x2="973" y2="487"/>
<line opacity="0.1" stroke="#000000" stroke-width="1" x1="78" y1="479" x2="973" y2="479"/>
<line opacity="0.1" stroke="#000000" stroke-width="1" x1="78" y1="470" x2="973" y2="470"/>
<line opacity="0.1" stroke="#000000" stroke-width="1" x1="78" y1="462" x2="973" y2="462"/>
<line opacity="0.1" stroke="#000000" stroke-width="1" x1="78" y1="453" x2="973" y2="453"/>
<line opacity="0.1" stroke="#000000" stroke-width="1" x1="78" y1="445" x2="973" y2="445"/>
<line opacity="0.1" stroke="#000000" stroke-width="1" x1="78" y1="437" x2="973" y2="437"/>
<line opacity="0.1" stroke="#000000" stroke-width="1" x1="78" y1="428" x2="973" y2="428"/>
<line opacity="0.1" stroke="#000000" stroke-width="1" x1="78" y1="420" x2="973" y2="420"/>
<line opacity="0.1" stroke="#000000" stroke-width="1" x1="78" y1="411" x2="973" y2="411"/>
<line opacity="0.1" stroke="#000000" stroke-width="1" x1="78" y1="403" x2="973" y2="403"/>
<line opacity="0.1" stroke="#000000" stroke-width="1" x1="78" y1="394" x2="973" y2="394"/>
<line opacity="0.1" stroke="#000000" stroke-width="1" x1="78" y1="386" x2="973" y2="386"/>
<line opacity="0.1" stroke="#000000" stroke-width="1" x1="78" y1="377" x2="973" y2="377"/>
<line opacity="0.1" stroke="#000000" stroke-width="1" x1="78" y1="369" x2="973" y2="369"/>
<line opacity="0.1" stroke="#000000" stroke-width="1" x1="78" y1="360" x2="973" y2="360"/>
<line opacity="0.1" stroke="#000000" stroke-width="1" x1="78" y1="352" x2="973" y2="352"/>
<line opacity="0.1" stroke="#000000" stroke-width="1" x1="78" y1="344" x2="973" y2="344"/>
<line opacity="0.1" stroke="#000000" stroke-width="1" x1="78" y1="335" x2="973" y2="335"/>
<line opacity="0.1" stroke="#000000" stroke-width="1" x1="78" y1="327" x2="973" y2="327"/>
<line opacity="0.1" stroke="#000000" stroke-width="1" x1="78" y1="318" x2="973" y2="318"/>
<line opacity="0.1" stroke="#000000" stroke-width="1" x1="78" y1="310" x2="973" y2="310"/>
<line opacity="0.1" stroke="#000000" stroke-width="1" x1="78" y1="301" x2="973" y2="301"/>
<line opacity="0.1" stroke="#000000" stroke-width="1" x1="78" y1="293" x2="973" y2="293"/>
<line opacity="0.1" stroke="#000000" stroke-width="1" x1="78" y1="284" x2="973" y2="284"/>
<line opacity="0.1" stroke="#000000" stroke-width="1" x1="78" y1="276" x2="973" y2="276"/>
<line opacity="0.1" stroke="#000000" stroke-width="1" x1="78" y1="268" x2="973" y2="268"/>
<line opacity="0.1" stroke="#000000" stroke-width="1" x1="78" y1="259" x2="973" y2="259"/>
<line opacity="0.1" stroke="#000000" stroke-width="1" x1="78" y1="251" x2="973" y2="251"/>
<line opacity="0.1" stroke="#000000" stroke-width="1" x1="78" y1="242" x2="973" y2="242"/>
<line opacity="0.1" stroke="#000000" stroke-width="1" x1="78" y1="234" x2="973" y2="234"/>
<line opacity="0.1" stroke="#000000" stroke-width="1" x1="78" y1="225" x2="973" y2="225"/>
<line opacity="0.1" stroke="#000000" stroke-width="1" x1="78" y1="217" x2="973" y2="217"/>
<line opacity="0.1" stroke="#000000" stroke-width="1" x1="78" y1="208" x2="973" y2="208"/>
<line opacity="0.1" stroke="#000000" stroke-width="1" x1="78" y1="200" x2="973" y2="200"/>
<line opacity="0.1" stroke="#000000" stroke-width="1" x1="78" y1="191" x2="973" y2="191"/>
<line opacity="0.1" stroke="#000000" stroke-width="1" x1="78" y1="183" x2="973" y2="183"/>
<line opacity="0.1" stroke="#000000" stroke-width="1" x1="78" y1="175" x2="973" y2="175"/>
<line opacity="0.1" stroke="#000000" stroke-width="1" x1="78" y1="166" x2="973" y2="166"/>
<line opacity="0.1" stroke="#000000" stroke-width="1" x1="78" y1="158" x2="973" y2="158"/>
<line opacity="0.1" stroke="#000000" stroke-width="1" x1="78" y1="149" x2="973" y2="149"/>
<line opacity="0.1" stroke="#000000" stroke-width="1" x1="78" y1="141" x2="973" y2="141"/>
<line opacity="0.1" stroke="#000000" stroke-width="1" x1="78" y1="132" x2="973" y2="132"/>
<line opacity="0.1" stroke="#000000" stroke-width="1" x1="78" y1="124" x2="973" y2="124"/>
<line opacity="0.1" stroke="#000000" stroke-width="1" x1="78" y1="115" x2="973" y2="115"/>
<line opacity="0.1" stroke="#000000" stroke-width="1" x1="78" y1="107" x2="973" y2="107"/>
<line opacity="0.1" stroke="#000000" stroke-width="1" x1="78" y1="99" x2="973" y2="99"/>
<line opacity="0.1" stroke="#000000" stroke-width="1" x1="78" y1="90" x2="973" y2="90"/>
<line opacity="0.1" stroke="#000000" stroke-width="1" x1="78" y1="82" x2="973" y2="82"/>
<line opacity="0.1" stroke="#000000" stroke-width="1" x1="78" y1="73" x2="973" y2="73"/>
<text x="8" y="384" dy="0.76em" text-anchor="middle" font-family="sans-serif" font-size="9.67741935483871" opacity="1" fill="#000000" transform="rotate(270, 8, 384)">
Memory usage
</text>
<text x="526" y="760" dy="-0.5ex" text-anchor="middle" font-family="sans-serif" font-size="9.67741935483871" opacity="1" fill="#000000">
Time
</text>
<line opacity="0.2" stroke="#000000" stroke-width="1" x1="112" y1="699" x2="112" y2="68"/>
<line opacity="0.2" stroke="#000000" stroke-width="1" x1="231" y1="699" x2="231" y2="68"/>
<line opacity="0.2" stroke="#000000" stroke-width="1" x1="350" y1="699" x2="350" y2="68"/>
<line opacity="0.2" stroke="#000000" stroke-width="1" x1="468" y1="699" x2="468" y2="68"/>
<line opacity="0.2" stroke="#000000" stroke-width="1" x1="587" y1="699" x2="587" y2="68"/>
<line opacity="0.2" stroke="#000000" stroke-width="1" x1="705" y1="699" x2="705" y2="68"/>
<line opacity="0.2" stroke="#000000" stroke-width="1" x1="824" y1="699" x2="824" y2="68"/>
<line opacity="0.2" stroke="#000000" stroke-width="1" x1="942" y1="699" x2="942" y2="68"/>
<line opacity="0.2" stroke="#000000" stroke-width="1" x1="78" y1="699" x2="973" y2="699"/>
<line opacity="0.2" stroke="#000000" stroke-width="1" x1="78" y1="614" x2="973" y2="614"/>
<line opacity="0.2" stroke="#000000" stroke-width="1" x1="78" y1="529" x2="973" y2="529"/>
<line opacity="0.2" stroke="#000000" stroke-width="1" x1="78" y1="445" x2="973" y2="445"/>
<line opacity="0.2" stroke="#000000" stroke-width="1" x1="78" y1="360" x2="973" y2="360"/>
<line opacity="0.2" stroke="#000000" stroke-width="1" x1="78" y1="276" x2="973" y2="276"/>
<line opacity="0.2" stroke="#000000" stroke-width="1" x1="78" y1="191" x2="973" y2="191"/>
<line opacity="0.2" stroke="#000000" stroke-width="1" x1="78" y1="107" x2="973" y2="107"/>
<polyline fill="none" opacity="1" stroke="#000000" stroke-width="1" points="77,68 77,699 "/>
<text x="68" y="699" dy="0.5ex" text-anchor="end" font-family="sans-serif" font-size="9.67741935483871" opacity="1" fill="#000000">
0.0 MB
</text>
<polyline fill="none" opacity="1" stroke="#000000" stroke-width="1" points="72,699 77,699 "/>
<text x="68" y="614" dy="0.5ex" text-anchor="end" font-family="sans-serif" font-size="9.67741935483871" opacity="1" fill="#000000">
4.8 MB
</text>
<polyline fill="none" opacity="1" stroke="#000000" stroke-width="1" points="72,614 77,614 "/>
<text x="68" y="529" dy="0.5ex" text-anchor="end" font-family="sans-serif" font-size="9.67741935483871" opacity="1" fill="#000000">
9.5 MB
</text>
<polyline fill="none" opacity="1" stroke="#000000" stroke-width="1" points="72,529 77,529 "/>
<text x="68" y="445" dy="0.5ex" text-anchor="end" font-family="sans-serif" font-size="9.67741935483871" opacity="1" fill="#000000">
14.3 MB
</text>
<polyline fill="none" opacity="1" stroke="#000000" stroke-width="1" points="72,445 77,445 "/>
<text x="68" y="360" dy="0.5ex" text-anchor="end" font-family="sans-serif" font-size="9.67741935483871" opacity="1" fill="#000000">
19.1 MB
</text>
<polyline fill="none" opacity="1" stroke="#000000" stroke-width="1" points="72,360 77,360 "/>
<text x="68" y="276" dy="0.5ex" text-anchor="end" font-family="sans-serif" font-size="9.67741935483871" opacity="1" fill="#000000">
23.8 MB
</text>
<polyline fill="none" opacity="1" stroke="#000000" stroke-width="1" points="72,276 77,276 "/>
<text x="68" y="191" dy="0.5ex" text-anchor="end" font-family="sans-serif" font-size="9.67741935483871" opacity="1" fill="#000000">
28.6 MB
</text>
<polyline fill="none" opacity="1" stroke="#000000" stroke-width="1" points="72,191 77,191 "/>
<text x="68" y="107" dy="0.5ex" text-anchor="end" font-family="sans-serif" font-size="9.67741935483871" opacity="1" fill="#000000">
33.4 MB
</text>
<polyline fill="none" opacity="1" stroke="#000000" stroke-width="1" points="72,107 77,107 "/>
<polyline fill="none" opacity="1" stroke="#000000" stroke-width="1" points="78,700 973,700 "/>
<text x="112" y="710" dy="0.76em" text-anchor="middle" font-family="sans-serif" font-size="9.67741935483871" opacity="1" fill="#000000">
07 17:46:40
</text>
<polyline fill="none" opacity="1" stroke="#000000" stroke-width="1" points="112,700 112,705 "/>
<text x="231" y="710" dy="0.76em" text-anchor="middle" font-family="sans-serif" font-size="9.67741935483871" opacity="1" fill="#000000">
07 20:33:20
</text>
<polyline fill="none" opacity="1" stroke="#000000" stroke-width="1" points="231,700 231,705 "/>
<text x="350" y="710" dy="0.76em" text-anchor="middle" font-family="sans-serif" font-size="9.67741935483871" opacity="1" fill="#000000">
07 23:20:00
</text>
<polyline fill="none" opacity="1" stroke="#000000" stroke-width="1" points="350,700 350,705 "/>
<text x="468" y="710" dy="0.76em" text-anchor="middle" font-family="sans-serif" font-size="9.67741935483871" opacity="1" fill="#000000">
08 02:06:40
</text>
<polyline fill="none" opacity="1" stroke="#000000" stroke-width="1" points="468,700 468,705 "/>
<text x="587" y="710" dy="0.76em" text-anchor="middle" font-family="sans-serif" font-size="9.67741935483871" opacity="1" fill="#000000">
08 04:53:20
</text>
<polyline fill="none" opacity="1" stroke="#000000" stroke-width="1" points="587,700 587,705 "/>
<text x="705" y="710" dy="0.76em" text-anchor="middle" font-family="sans-serif" font-size="9.67741935483871" opacity="1" fill="#000000">
08 07:40:00
</text>
<polyline fill="none" opacity="1" stroke="#000000" stroke-width="1" points="705,700 705,705 "/>
<text x="824" y="710" dy="0.76em" text-anchor="middle" font-family="sans-serif" font-size="9.67741935483871" opacity="1" fill="#000000">
08 10:26:40
</text>
<polyline fill="none" opacity="1" stroke="#000000" stroke-width="1" points="824,700 824,705 "/>
<text x="942" y="710" dy="0.76em" text-anchor="middle" font-family="sans-serif" font-size="9.67741935483871" opacity="1" fill="#000000">
08 13:13:20
</text>
<polyline fill="none" opacity="1" stroke="#000000" stroke-width="1" points="942,700 942,705 "/>
<polyline fill="none" opacity="1" stroke="#000000" stroke-width="1" points="78,67 974,67 "/>
<text x="112" y="58" dy="-0.5ex" text-anchor="middle" font-family="sans-serif" font-size="9.67741935483871" opacity="1" fill="#000000">
+00:49:04
</text>
<polyline fill="none" opacity="1" stroke="#000000" stroke-width="1" points="112,62 112,67 "/>
<text x="231" y="58" dy="-0.5ex" text-anchor="middle" font-family="sans-serif" font-size="9.67741935483871" opacity="1" fill="#000000">
+03:35:44
</text>
<polyline fill="none" opacity="1" stroke="#000000" stroke-width="1" points="231,62 231,67 "/>
<text x="350" y="58" dy="-0.5ex" text-anchor="middle" font-family="sans-serif" font-size="9.67741935483871" opacity="1" fill="#000000">
+06:22:24
</text>
<polyline fill="none" opacity="1" stroke="#000000" stroke-width="1" points="350,62 350,67 "/>
<text x="469" y="58" dy="-0.5ex" text-anchor="middle" font-family="sans-serif" font-size="9.67741935483871" opacity="1" fill="#000000">
+09:09:04
</text>
<polyline fill="none" opacity="1" stroke="#000000" stroke-width="1" points="469,62 469,67 "/>
<text x="587" y="58" dy="-0.5ex" text-anchor="middle" font-family="sans-serif" font-size="9.67741935483871" opacity="1" fill="#000000">
+11:55:44
</text>
<polyline fill="none" opacity="1" stroke="#000000" stroke-width="1" points="587,62 587,67 "/>
<text x="706" y="58" dy="-0.5ex" text-anchor="middle" font-family="sans-serif" font-size="9.67741935483871" opacity="1" fill="#000000">
+14:42:24
</text>
<polyline fill="none" opacity="1" stroke="#000000" stroke-width="1" points="706,62 706,67 "/>
<text x="825" y="58" dy="-0.5ex" text-anchor="middle" font-family="sans-serif" font-size="9.67741935483871" opacity="1" fill="#000000">
+17:29:04
</text>
<polyline fill="none" opacity="1" stroke="#000000" stroke-width="1" points="825,62 825,67 "/>
<text x="943" y="58" dy="-0.5ex" text-anchor="middle" font-family="sans-serif" font-size="9.67741935483871" opacity="1" fill="#000000">
+20:15:44
</text>
<polyline fill="none" opacity="1" stroke="#000000" stroke-width="1" points="943,62 943,67 "/>
<rect x="83" y="73" width="99" height="45" opacity="0.75" fill="#FFFFFF" stroke="none"/>
<rect x="83" y="73" width="99" height="45" opacity="1" fill="none" stroke="#000000"/>
<text x="123" y="83" dy="0.76em" text-anchor="start" font-family="sans-serif" font-size="9.67741935483871" opacity="1" fill="#000000">
Temporary
</text>
<text x="123" y="98" dy="0.76em" text-anchor="start" font-family="sans-serif" font-size="9.67741935483871" opacity="1" fill="#000000">
Leaked
</text>
<rect x="93" y="83" width="10" height="10" opacity="1" fill="#3CB44B" stroke="none"/>
<rect x="93" y="98" width="10" height="10" opacity="1" fill="#E6194B" stroke="none"/>
</svg>
