<svg width="1024" height="768" viewBox="0 0 1024 768" xmlns="http://www.w3.org/2000/svg">
<rect x="0" y="0" width="1024" height="768" opacity="1" fill="#FFFFFF" stroke="none"/>
<polygon opacity="1" fill="#3CB44B" points="79,693 80,673 81,673 82,673 83,678 83,678 84,678 85,678 86,658 87,658 88,658 89,658 90,658 91,658 91,658 92,658 93,638 94,638 95,638 96,638 97,633 98,633 99,633 99,633 100,608 101,608 102,608 103,608 104,608 105,608 106,608 107,613 107,613 108,638 109,678 110,678 111,678 112,678 113,678 114,678 114,658 115,658 116,658 117,653 118,658 119,653 120,633 121,628 122,628 122,628 123,628 124,628 125,628 126,623 127,623 128,623 129,623 130,623 130,628 131,618 132,618 133,618 134,618 135,618 136,618 137,638 138,638 138,638 139,638 140,638 141,638 142,693 143,693 144,693 145,693 146,693 146,688 147,668 148,673 149,673 150,673 151,673 152,673 153,658 154,658 154,658 155,658 156,658 157,658 158,658 159,638 160,633 161,633 162,633 162,633 163,628 164,648 165,663 166,663 167,663 168,663 169,663 169,663 170,663 171,668 172,668 173,668 174,668 175,668 176,668 177,668 177,673 178,668 179,668 180,668 181,668 182,663 183,663 184,663 185,663 185,663 186,653 187,653 188,653 189,653 190,653 191,653 192,653 193,653 193,658 194,658 195,678 196,678 197,678 198,678 199,673 200,673 201,673 201,673 202,673 203,673 204,673 205,673 206,673 207,673 208,673 209,673 209,678 210,678 211,678 212,678 213,678 214,658 215,653 216,653 217,653 217,653 218,653 219,653 220,653 221,653 222,653 223,653 224,673 224,673 225,673 226,673 227,688 228,688 229,688 230,688 231,688 232,688 232,693 233,693 234,693 235,693 236,693 237,693 238,693 239,693 240,693 240,693 241,693 242,693 243,693 244,699 245,699 246,699 247,699 248,699 248,699 249,678 250,678 251,678 252,673 253,673 254,673 255,673 256,673 256,673 257,668 258,668 259,668 260,668 261,668 262,668 263,668 264,668 264,668 265,668 266,673 267,673 268,673 269,673 270,658 271,658 272,658 272,658 273,653 274,653 275,648 276,648 277,648 278,648 279,653 279,653 280,653 281,653 282,653 283,653 284,653 285,653 286,653 287,653 287,653 288,653 289,648 290,648 291,648 292,648 293,648 294,648 295,648 295,648 296,648 297,648 298,648 299,648 300,653 301,653 302,653 303,653 303,638 304,638 305,633 306,633 307,633 308,633 309,633 310,633 311,633 311,628 312,628 313,628 314,628 315,628 316,628 317,628 318,628 319,628 319,613 320,613 321,613 322,613 323,618 324,618 325,598 326,598 327,598 327,593 328,593 329,593 330,593 331,593 332,593 333,593 334,593 334,598 335,598 336,598 337,598 338,598 339,598 340,598 341,598 342,598 342,598 343,598 344,598 345,598 346,598 347,578 348,578 349,578 350,578 350,578 351,578 352,578 353,578 354,578 355,578 356,578 357,578 358,578 358,578 359,578 360,578 361,578 362,578 363,578 364,558 365,558 366,558 366,558 367,558 368,558 369,538 370,533 371,533 372,528 373,528 374,508 374,508 375,508 376,508 377,508 378,508 379,513 380,513 381,513 382,513 382,513 383,513 384,513 385,513 386,513 387,513 388,513 389,513 389,513 390,498 391,498 392,498 393,498 394,498 395,498 396,498 397,498 397,498 398,498 399,498 400,478 401,478 402,478 403,478 404,478 405,478 405,458 406,453 407,453 408,453 409,453 410,453 411,453 412,453 413,458 413,458 414,458 415,458 416,458 417,458 418,458 419,458 420,458 421,438 421,438 422,438 423,438 424,433 425,433 426,433 427,433 428,433 429,433 429,433 430,433 431,433 432,433 433,433 434,433 435,428 436,428 437,408 437,408 438,408 439,408 440,408 441,403 442,403 443,403 444,403 444,398 445,398 446,398 447,393 448,393 449,393 450,393 451,393 452,393 452,393 453,393 454,393 455,393 456,398 457,398 458,378 459,378 460,378 460,378 461,373 462,373 463,373 464,373 465,373 466,373 467,368 468,353 468,353 469,353 470,353 471,353 472,353 473,348 474,348 475,328 476,328 476,328 477,328 478,333 479,333 480,318 481,318 482,318 483,318 484,318 484,318 485,318 486,318 487,318 488,318 489,318 490,318 491,318 492,318 492,318 493,318 494,318 495,318 496,293 497,293 498,293 499,293 500,293 500,273 501,278 502,278 503,278 504,278 505,278 506,278 507,278 507,278 508,278 509,273 510,273 511,253 512,253 513,258 514,253 515,253 515,253 516,253 517,253 518,253 519,253 520,253 521,253 522,253 523,253 523,253 524,258 525,258 526,258 527,258 528,258 529,258 530,258 531,258 531,258 532,258 533,238 534,238 535,238 536,238 537,238 538,238 539,238 539,238 540,238 541,238 542,238 543,238 544,238 545,238 546,238 547,238 547,238 548,238 549,238 550,238 551,238 552,238 553,213 554,213 555,213 555,213 556,213 557,213 558,218 559,198 560,198 561,198 562,198 562,198 563,198 564,198 565,198 566,198 567,198 568,198 569,198 570,198 570,198 571,198 572,193 573,193 574,193 575,173 576,173 577,173 578,173 578,173 579,178 580,178 581,178 582,178 583,178 584,178 585,178 586,178 586,178 587,178 588,178 589,158 590,158 591,158 592,158 593,158 594,158 594,158 595,138 596,138 597,133 598,133 599,133 600,133 601,113 602,113 602,108 603,108 604,108 605,108 606,108 607,108 608,88 609,88 610,88 610,88 611,88 612,88 613,68 614,73 615,73 616,73 617,73 617,73 618,73 619,73 620,73 621,73 622,73 623,73 624,73 625,78 625,78 626,78 627,78 628,78 629,78 630,78 631,78 632,78 633,78 633,98 634,98 635,98 636,98 637,98 638,78 639,78 640,78 641,78 641,78 642,78 643,78 644,78 645,78 646,78 647,78 648,78 649,78 649,78 650,78 651,78 652,78 653,78 654,78 655,78 656,78 657,78 657,78 658,78 659,78 660,78 661,78 662,78 663,78 664,78 665,78 665,78 666,673 667,673 668,673 669,673 670,673 671,678 672,678 672,678 673,678 674,678 675,678 676,678 677,678 678,678 679,678 680,678 680,678 681,653 682,653 683,653 684,653 685,653 686,653 687,653 688,653 688,653 689,653 690,653 691,653 692,653 693,653 694,658 695,658 696,658 696,658 697,658 698,633 699,633 700,633 701,633 702,633 703,633 704,633 704,633 705,633 706,628 707,628 708,628 709,608 710,608 711,608 712,608 712,608 713,608 714,608 715,608 716,608 717,608 718,608 719,608 720,608 720,608 721,608 722,608 723,608 724,608 725,608 726,608 727,608 727,608 728,608 729,613 730,613 731,613 732,593 733,593 734,593 735,593 735,593 736,593 737,573 738,573 739,573 740,573 741,573 742,573 743,573 743,573 744,573 745,573 746,573 747,573 748,573 749,553 750,553 751,548 751,548 752,553 753,553 754,553 755,553 756,553 757,553 758,553 759,553 759,553 760,553 761,548 762,548 763,548 764,553 765,553 766,533 767,533 767,533 768,533 769,533 770,533 771,513 772,513 773,513 774,513 775,513 775,513 776,513 777,513 778,513 779,513 780,513 781,513 782,513 782,513 783,513 784,508 785,508 786,508 787,508 788,513 789,513 790,513 790,513 791,513 792,513 793,508 794,508 795,508 796,508 797,508 798,508 798,493 799,493 800,493 801,493 802,493 803,493 804,493 805,493 806,493 806,493 807,493 808,493 809,493 810,488 811,488 812,488 813,488 814,488 814,488 815,488 816,488 817,468 818,468 819,468 820,468 821,468 822,478 822,478 823,478 824,478 825,478 826,478 827,478 828,458 829,458 830,458 830,458 831,458 832,458 833,458 834,458 835,458 836,458 837,458 837,458 838,458 839,458 840,458 841,458 842,458 843,458 844,458 845,458 845,458 846,458 847,458 848,458 849,458 850,458 851,458 852,453 853,448 853,448 854,448 855,448 856,448 857,448 858,453 859,453 860,453 861,453 861,453 862,453 863,453 864,453 865,453 866,448 867,448 868,448 869,448 869,448 870,443 871,443 872,443 873,443 874,443 875,443 876,423 877,423 877,428 878,428 879,428 880,428 881,428 882,428 883,433 884,433 885,433 885,433 886,433 887,433 888,413 889,413 890,413 891,413 892,413 892,413 893,413 894,413 895,413 896,413 897,413 898,413 899,413 900,413 900,413 901,413 902,413 903,413 904,393 905,393 906,398 907,398 908,398 908,398 909,398 910,398 911,398 912,398 913,398 914,398 915,398 916,378 916,373 917,378 918,378 919,378 920,378 921,378 922,378 923,378 924,378 924,378 925,378 926,378 927,373 928,373 929,368 930,368 931,368 932,348 932,348 933,348 934,348 935,348 936,348 937,348 938,348 939,348 940,348 940,348 941,348 942,348 943,348 944,348 945,343 946,343 947,343 947,343 948,343 949,343 950,343 951,343 952,343 953,343 954,348 955,328 955,328 956,328 957,328 958,328 959,328 960,328 961,328 962,328 963,328 963,328 964,308 964,308 965,308 966,313 966,313 973,313 973,699 79,699 "/>
<polyline fill="none" opacity="1" stroke="#3CB44B" stroke-width="1" points="79,693 80,673 81,673 82,673 83,678 83,678 84,678 85,678 86,658 87,658 88,658 89,658 90,658 91,658 91,658 92,658 93,638 94,638 95,638 96,638 97,633 98,633 99,633 99,633 100,608 101,608 102,608 103,608 104,608 105,608 106,608 107,613 107,613 108,638 109,678 110,678 111,678 112,678 113,678 114,678 114,658 115,658 116,658 117,653 118,658 119,653 120,633 121,628 122,628 122,628 123,628 124,628 125,628 126,623 127,623 128,623 129,623 130,623 130,628 131,618 132,618 133,618 134,618 135,618 136,618 137,638 138,638 138,638 139,638 140,638 141,638 142,693 143,693 144,693 145,693 146,693 146,688 147,668 148,673 149,673 150,673 151,673 152,673 153,658 154,658 154,658 155,658 156,658 157,658 158,658 159,638 160,633 161,633 162,633 162,633 163,628 164,648 165,663 166,663 167,663 168,663 169,663 169,663 170,663 171,668 172,668 173,668 174,668 175,668 176,668 177,668 177,673 178,668 179,668 180,668 181,668 182,663 183,663 184,663 185,663 185,663 186,653 187,653 188,653 189,653 190,653 191,653 192,653 193,653 193,658 194,658 195,678 196,678 197,678 198,678 199,673 200,673 201,673 201,673 202,673 203,673 204,673 205,673 206,673 207,673 208,673 209,673 209,678 210,678 211,678 212,678 213,678 214,658 215,653 216,653 217,653 217,653 218,653 219,653 220,653 221,653 222,653 223,653 224,673 224,673 225,673 226,673 227,688 228,688 229,688 230,688 231,688 232,688 232,693 233,693 234,693 235,693 236,693 237,693 238,693 239,693 240,693 240,693 241,693 242,693 243,693 244,699 245,699 246,699 247,699 248,699 248,699 249,678 250,678 251,678 252,673 253,673 254,673 255,673 256,673 256,673 257,668 258,668 259,668 260,668 261,668 262,668 263,668 264,668 264,668 265,668 266,673 267,673 268,673 269,673 270,658 271,658 272,658 272,658 273,653 274,653 275,648 276,648 277,648 278,648 279,653 279,653 280,653 281,653 282,653 283,653 284,653 285,653 286,653 287,653 287,653 288,653 289,648 290,648 291,648 292,648 293,648 294,648 295,648 295,648 296,648 297,648 298,648 299,648 300,653 301,653 302,653 303,653 303,638 304,638 305,633 306,633 307,633 308,633 309,633 310,633 311,633 311,628 312,628 313,628 314,628 315,628 316,628 317,628 318,628 319,628 319,613 320,613 321,613 322,613 323,618 324,618 325,598 326,598 327,598 327,593 328,593 329,593 330,593 331,593 332,593 333,593 334,593 334,598 335,598 336,598 337,598 338,598 339,598 340,598 341,598 342,598 342,598 343,598 344,598 345,598 346,598 347,578 348,578 349,578 350,578 350,578 351,578 352,578 353,578 354,578 355,578 356,578 357,578 358,578 358,578 359,578 360,578 361,578 362,578 363,578 364,558 365,558 366,558 366,558 367,558 368,558 369,538 370,533 371,533 372,528 373,528 374,508 374,508 375,508 376,508 377,508 378,508 379,513 380,513 381,513 382,513 382,513 383,513 384,513 385,513 386,513 387,513 388,513 389,513 389,513 390,498 391,498 392,498 393,498 394,498 395,498 396,498 397,498 397,498 398,498 399,498 400,478 401,478 402,478 403,478 404,478 405,478 405,458 406,453 407,453 408,453 409,453 410,453 411,453 412,453 413,458 413,458 414,458 415,458 416,458 417,458 418,458 419,458 420,458 421,438 421,438 422,438 423,438 424,433 425,433 426,433 427,433 428,433 429,433 429,433 430,433 431,433 432,433 433,433 434,433 435,428 436,428 437,408 437,408 438,408 439,408 440,408 441,403 442,403 443,403 444,403 444,398 445,398 446,398 447,393 448,393 449,393 450,393 451,393 452,393 452,393 453,393 454,393 455,393 456,398 457,398 458,378 459,378 460,378 460,378 461,373 462,373 463,373 464,373 465,373 466,373 467,368 468,353 468,353 469,353 470,353 471,353 472,353 473,348 474,348 475,328 476,328 476,328 477,328 478,333 479,333 480,318 481,318 482,318 483,318 484,318 484,318 485,318 486,318 487,318 488,318 489,318 490,318 491,318 492,318 492,318 493,318 494,318 495,318 496,293 497,293 498,293 499,293 500,293 500,273 501,278 502,278 503,278 504,278 505,278 506,278 507,278 507,278 508,278 509,273 510,273 511,253 512,253 513,258 514,253 515,253 515,253 516,253 517,253 518,253 519,253 520,253 521,253 522,253 523,253 523,253 524,258 525,258 526,258 527,258 528,258 529,258 530,258 531,258 531,258 532,258 533,238 534,238 535,238 536,238 537,238 538,238 539,238 539,238 540,238 541,238 542,238 543,238 544,238 545,238 546,238 547,238 547,238 548,238 549,238 550,238 551,238 552,238 553,213 554,213 555,213 555,213 556,213 557,213 558,218 559,198 560,198 561,198 562,198 562,198 563,198 564,198 565,198 566,198 567,198 568,198 569,198 570,198 570,198 571,198 572,193 573,193 574,193 575,173 576,173 577,173 578,173 578,173 579,178 580,178 581,178 582,178 583,178 584,178 585,178 586,178 586,178 587,178 588,178 589,158 590,158 591,158 592,158 593,158 594,158 594,158 595,138 596,138 597,133 598,133 599,133 600,133 601,113 602,113 602,108 603,108 604,108 605,108 606,108 607,108 608,88 609,88 610,88 610,88 611,88 612,88 613,68 614,73 615,73 616,73 617,73 617,73 618,73 619,73 620,73 621,73 622,73 623,73 624,73 625,78 625,78 626,78 627,78 628,78 629,78 630,78 631,78 632,78 633,78 633,98 634,98 635,98 636,98 637,98 638,78 639,78 640,78 641,78 641,78 642,78 643,78 644,78 645,78 646,78 647,78 648,78 649,78 649,78 650,78 651,78 652,78 653,78 654,78 655,78 656,78 657,78 657,78 658,78 659,78 660,78 661,78 662,78 663,78 664,78 665,78 665,78 666,673 667,673 668,673 669,673 670,673 671,678 672,678 672,678 673,678 674,678 675,678 676,678 677,678 678,678 679,678 680,678 680,678 681,653 682,653 683,653 684,653 685,653 686,653 687,653 688,653 688,653 689,653 690,653 691,653 692,653 693,653 694,658 695,658 696,658 696,658 697,658 698,633 699,633 700,633 701,633 702,633 703,633 704,633 704,633 705,633 706,628 707,628 708,628 709,608 710,608 711,608 712,608 712,608 713,608 714,608 715,608 716,608 717,608 718,608 719,608 720,608 720,608 721,608 722,608 723,608 724,608 725,608 726,608 727,608 727,608 728,608 729,613 730,613 731,613 732,593 733,593 734,593 735,593 735,593 736,593 737,573 738,573 739,573 740,573 741,573 742,573 743,573 743,573 744,573 745,573 746,573 747,573 748,573 749,553 750,553 751,548 751,548 752,553 753,553 754,553 755,553 756,553 757,553 758,553 759,553 759,553 760,553 761,548 762,548 763,548 764,553 765,553 766,533 767,533 767,533 768,533 769,533 770,533 771,513 772,513 773,513 774,513 775,513 775,513 776,513 777,513 778,513 779,513 780,513 781,513 782,513 782,513 783,513 784,508 785,508 786,508 787,508 788,513 789,513 790,513 790,513 791,513 792,513 793,508 794,508 795,508 796,508 797,508 798,508 798,493 799,493 800,493 801,493 802,493 803,493 804,493 805,493 806,493 806,493 807,493 808,493 809,493 810,488 811,488 812,488 813,488 814,488 814,488 815,488 816,488 817,468 818,468 819,468 820,468 821,468 822,478 822,478 823,478 824,478 825,478 826,478 827,478 828,458 829,458 830,458 830,458 831,458 832,458 833,458 834,458 835,458 836,458 837,458 837,458 838,458 839,458 840,458 841,458 842,458 843,458 844,458 845,458 845,458 846,458 847,458 848,458 849,458 850,458 851,458 852,453 853,448 853,448 854,448 855,448 856,448 857,448 858,453 859,453 860,453 861,453 861,453 862,453 863,453 864,453 865,453 866,448 867,448 868,448 869,448 869,448 870,443 871,443 872,443 873,443 874,443 875,443 876,423 877,423 877,428 878,428 879,428 880,428 881,428 882,428 883,433 884,433 885,433 885,433 886,433 887,433 888,413 889,413 890,413 891,413 892,413 892,413 893,413 894,413 895,413 896,413 897,413 898,413 899,413 900,413 900,413 901,413 902,413 903,413 904,393 905,393 906,398 907,398 908,398 908,398 909,398 910,398 911,398 912,398 913,398 914,398 915,398 916,378 916,373 917,378 918,378 919,378 920,378 921,378 922,378 923,378 924,378 924,378 925,378 926,378 927,373 928,373 929,368 930,368 931,368 932,348 932,348 933,348 934,348 935,348 936,348 937,348 938,348 939,348 940,348 940,348 941,348 942,348 943,348 944,348 945,343 946,343 947,343 947,343 948,343 949,343 950,343 951,343 952,343 953,343 954,348 955,328 955,328 956,328 957,328 958,328 959,328 960,328 961,328 962,328 963,328 963,328 964,308 964,308 965,308 966,313 966,313 973,313 "/>
<polygon opacity="1" fill="#E6194B" points="79,699 80,699 81,699 82,699 83,699 83,699 84,699 85,699 86,699 87,699 88,699 89,699 90,699 91,699 91,699 92,699 93,699 94,699 95,699 96,699 97,699 98,699 99,699 99,699 100,699 101,699 102,699 103,699 104,699 105,699 106,699 107,699 107,699 108,699 109,699 110,699 111,699 112,699 113,699 114,699 114,699 115,699 116,699 117,699 118,699 119,699 120,699 121,699 122,699 122,699 123,699 124,699 125,699 126,699 127,699 128,699 129,699 130,699 130,699 131,699 132,699 133,699 134,699 135,699 136,699 137,699 138,699 138,699 139,699 140,699 141,699 142,699 143,699 144,699 145,699 146,699 146,699 147,699 148,699 149,699 150,699 151,699 152,699 153,699 154,699 154,699 155,699 156,699 157,699 158,699 159,699 160,699 161,699 162,699 162,699 163,699 164,699 165,699 166,699 167,699 168,699 169,699 169,699 170,699 171,699 172,699 173,699 174,699 175,699 176,699 177,699 177,699 178,699 179,699 180,699 181,699 182,699 183,699 184,699 185,699 185,699 186,699 187,699 188,699 189,699 190,699 191,699 192,699 193,699 193,699 194,699 195,699 196,699 197,699 198,699 199,699 200,699 201,699 201,699 202,699 203,699 204,699 205,699 206,699 207,699 208,699 209,699 209,699 210,699 211,699 212,699 213,699 214,699 215,699 216,699 217,699 217,699 218,699 219,699 220,699 221,699 222,699 223,699 224,699 224,699 225,699 226,699 227,699 228,699 229,699 230,699 231,699 232,699 232,699 233,699 234,699 235,699 236,699 237,699 238,699 239,699 240,699 240,699 241,699 242,699 243,699 244,699 245,699 246,699 247,699 248,699 248,699 249,699 250,699 251,699 252,699 253,699 254,699 255,699 256,699 256,699 257,699 258,699 259,699 260,699 261,699 262,699 263,699 264,699 264,699 265,699 266,699 267,699 268,699 269,699 270,699 271,699 272,699 272,699 273,699 274,699 275,699 276,699 277,699 278,699 279,699 279,699 280,699 281,699 282,699 283,699 284,699 285,699 286,699 287,699 287,699 288,699 289,699 290,699 291,699 292,699 293,699 294,699 295,699 295,699 296,699 297,699 298,699 299,699 300,699 301,699 302,699 303,699 303,699 304,699 305,699 306,699 307,699 308,699 309,699 310,699 311,699 311,699 312,699 313,699 314,699 315,699 316,699 317,699 318,699 319,699 319,699 320,699 321,699 322,699 323,699 324,699 325,699 326,699 327,699 327,699 328,699 329,699 330,699 331,699 332,699 333,699 334,699 334,699 335,699 336,699 337,699 338,699 339,699 340,699 341,699 342,699 342,699 343,699 344,699 345,699 346,699 347,699 348,699 349,699 350,699 350,699 351,699 352,699 353,699 354,699 355,699 356,699 357,699 358,699 358,699 359,699 360,699 361,699 362,699 363,699 364,699 365,699 366,699 366,699 367,699 368,699 369,699 370,699 371,699 372,699 373,699 374,699 374,699 375,699 376,699 377,699 378,699 379,699 380,699 381,699 382,699 382,699 383,699 384,699 385,699 386,699 387,699 388,699 389,699 389,699 390,699 391,699 392,699 393,699 394,699 395,699 396,699 397,699 397,699 398,699 399,699 400,699 401,699 402,699 403,699 404,699 405,699 405,699 406,699 407,699 408,699 409,699 410,699 411,699 412,699 413,699 413,699 414,699 415,699 416,699 417,699 418,699 419,699 420,699 421,699 421,699 422,699 423,699 424,699 425,699 426,699 427,699 428,699 429,699 429,699 430,699 431,699 432,699 433,699 434,699 435,699 436,699 437,699 437,699 438,699 439,699 440,699 441,699 442,699 443,699 444,699 444,699 445,699 446,699 447,699 448,699 449,699 450,699 451,699 452,699 452,699 453,699 454,699 455,699 456,699 457,699 458,699 459,699 460,699 460,699 461,699 462,699 463,699 464,699 465,699 466,699 467,699 468,699 468,699 469,699 470,699 471,699 472,699 473,699 474,699 475,699 476,699 476,699 477,699 478,699 479,699 480,699 481,699 482,699 483,699 484,699 484,699 485,699 486,699 487,699 488,699 489,699 490,699 491,699 492,699 492,699 493,699 494,699 495,699 496,699 497,699 498,699 499,699 500,699 500,699 501,699 502,699 503,699 504,699 505,699 506,699 507,699 507,699 508,699 509,699 510,699 511,699 512,699 513,699 514,699 515,699 515,699 516,699 517,699 518,699 519,699 520,699 521,699 522,699 523,699 523,699 524,699 525,699 526,699 527,699 528,699 529,699 530,699 531,699 531,699 532,699 533,699 534,699 535,699 536,699 537,699 538,699 539,699 539,699 540,699 541,699 542,699 543,699 544,699 545,699 546,699 547,699 547,699 548,699 549,699 550,699 551,699 552,699 553,699 554,699 555,699 555,699 556,699 557,699 558,699 559,699 560,699 561,699 562,699 562,699 563,699 564,699 565,699 566,699 567,699 568,699 569,699 570,699 570,699 571,699 572,699 573,699 574,699 575,699 576,699 577,699 578,699 578,699 579,699 580,699 581,699 582,699 583,699 584,699 585,699 586,699 586,699 587,699 588,699 589,699 590,699 591,699 592,699 593,699 594,699 594,699 595,699 596,699 597,699 598,699 599,699 600,699 601,699 602,699 602,699 603,699 604,699 605,699 606,699 607,699 608,699 609,699 610,699 610,699 611,699 612,699 613,699 614,699 615,699 616,699 617,699 617,699 618,699 619,699 620,699 621,699 622,699 623,699 624,699 625,699 625,699 626,699 627,699 628,699 629,699 630,699 631,699 632,699 633,699 633,699 634,699 635,699 636,699 637,699 638,678 639,678 640,678 641,678 641,678 642,678 643,678 644,678 645,678 646,678 647,678 648,678 649,678 649,678 650,678 651,678 652,678 653,678 654,678 655,678 656,678 657,678 657,678 658,678 659,678 660,678 661,678 662,678 663,678 664,678 665,678 665,678 666,678 667,678 668,678 669,678 670,678 671,678 672,678 672,678 673,678 674,678 675,678 676,678 677,678 678,678 679,678 680,678 680,678 681,658 682,658 683,658 684,658 685,658 686,658 687,658 688,658 688,658 689,658 690,658 691,658 692,658 693,658 694,658 695,658 696,658 696,658 697,658 698,638 699,638 700,638 701,638 702,638 703,638 704,638 704,638 705,638 706,638 707,638 708,638 709,618 710,618 711,618 712,618 712,618 713,618 714,618 715,618 716,618 717,618 718,618 719,618 720,618 720,618 721,618 722,618 723,618 724,618 725,618 726,618 727,618 727,618 728,618 729,618 730,618 731,618 732,598 733,598 734,598 735,598 735,598 736,598 737,578 738,578 739,578 740,578 741,578 742,578 743,578 743,578 744,578 745,578 746,578 747,578 748,578 749,558 750,558 751,558 751,558 752,558 753,558 754,558 755,558 756,558 757,558 758,558 759,558 759,558 760,558 761,558 762,558 763,558 764,558 765,558 766,538 767,538 767,538 768,538 769,538 770,538 771,518 772,518 773,518 774,518 775,518 775,518 776,518 777,518 778,518 779,518 780,518 781,518 782,518 782,518 783,518 784,518 785,518 786,518 787,518 788,518 789,518 790,518 790,518 791,518 792,518 793,518 794,518 795,518 796,518 797,518 798,518 798,498 799,498 800,498 801,498 802,498 803,498 804,498 805,498 806,498 806,498 807,498 808,498 809,498 810,498 811,498 812,498 813,498 814,498 814,498 815,498 816,498 817,478 818,478 819,478 820,478 821,478 822,478 822,478 823,478 824,478 825,478 826,478 827,478 828,458 829,458 830,458 830,458 831,458 832,458 833,458 834,458 835,458 836,458 837,458 837,458 838,458 839,458 840,458 841,458 842,458 843,458 844,458 845,458 845,458 846,458 847,458 848,458 849,458 850,458 851,458 852,458 853,458 853,458 854,458 855,458 856,458 857,458 858,458 859,458 860,458 861,458 861,458 862,458 863,458 864,458 865,458 866,458 867,458 868,458 869,458 869,458 870,458 871,458 872,458 873,458 874,458 875,458 876,438 877,438 877,438 878,438 879,438 880,438 881,438 882,438 883,438 884,438 885,438 885,438 886,438 887,438 888,418 889,418 890,418 891,418 892,418 892,418 893,418 894,418 895,418 896,418 897,418 898,418 899,418 900,418 900,418 901,418 902,418 903,418 904,398 905,398 906,398 907,398 908,398 908,398 909,398 910,398 911,398 912,398 913,398 914,398 915,398 916,378 916,378 917,378 918,378 919,378 920,378 921,378 922,378 923,378 924,378 924,378 925,378 926,378 927,378 928,378 929,378 930,378 931,378 932,358 932,358 933,358 934,358 935,358 936,358 937,358 938,358 939,358 940,358 940,358 941,358 942,358 943,358 944,358 945,353 946,353 947,353 947,353 948,353 949,353 950,353 951,353 952,353 953,353 954,353 955,333 955,333 956,333 957,333 958,333 959,333 960,333 961,333 962,333 963,333 963,333 964,313 964,313 965,313 966,313 966,313 973,313 973,699 79,699 "/>
<polyline fill="none" opacity="1" stroke="#E6194B" stroke-width="1" points="79,699 80,699 81,699 82,699 83,699 83,699 84,699 85,699 86,699 87,699 88,699 89,699 90,699 91,699 91,699 92,699 93,699 94,699 95,699 96,699 97,699 98,699 99,699 99,699 100,699 101,699 102,699 103,699 104,699 105,699 106,699 107,699 107,699 108,699 109,699 110,699 111,699 112,699 113,699 114,699 114,699 115,699 116,699 117,699 118,699 119,699 120,699 121,699 122,699 122,699 123,699 124,699 125,699 126,699 127,699 128,699 129,699 130,699 130,699 131,699 132,699 133,699 134,699 135,699 136,699 137,699 138,699 138,699 139,699 140,699 141,699 142,699 143,699 144,699 145,699 146,699 146,699 147,699 148,699 149,699 150,699 151,699 152,699 153,699 154,699 154,699 155,699 156,699 157,699 158,699 159,699 160,699 161,699 162,699 162,699 163,699 164,699 165,699 166,699 167,699 168,699 169,699 169,699 170,699 171,699 172,699 173,699 174,699 175,699 176,699 177,699 177,699 178,699 179,699 180,699 181,699 182,699 183,699 184,699 185,699 185,699 186,699 187,699 188,699 189,699 190,699 191,699 192,699 193,699 193,699 194,699 195,699 196,699 197,699 198,699 199,699 200,699 201,699 201,699 202,699 203,699 204,699 205,699 206,699 207,699 208,699 209,699 209,699 210,699 211,699 212,699 213,699 214,699 215,699 216,699 217,699 217,699 218,699 219,699 220,699 221,699 222,699 223,699 224,699 224,699 225,699 226,699 227,699 228,699 229,699 230,699 231,699 232,699 232,699 233,699 234,699 235,699 236,699 237,699 238,699 239,699 240,699 240,699 241,699 242,699 243,699 244,699 245,699 246,699 247,699 248,699 248,699 249,699 250,699 251,699 252,699 253,699 254,699 255,699 256,699 256,699 257,699 258,699 259,699 260,699 261,699 262,699 263,699 264,699 264,699 265,699 266,699 267,699 268,699 269,699 270,699 271,699 272,699 272,699 273,699 274,699 275,699 276,699 277,699 278,699 279,699 279,699 280,699 281,699 282,699 283,699 284,699 285,699 286,699 287,699 287,699 288,699 289,699 290,699 291,699 292,699 293,699 294,699 295,699 295,699 296,699 297,699 298,699 299,699 300,699 301,699 302,699 303,699 303,699 304,699 305,699 306,699 307,699 308,699 309,699 310,699 311,699 311,699 312,699 313,699 314,699 315,699 316,699 317,699 318,699 319,699 319,699 320,699 321,699 322,699 323,699 324,699 325,699 326,699 327,699 327,699 328,699 329,699 330,699 331,699 332,699 333,699 334,699 334,699 335,699 336,699 337,699 338,699 339,699 340,699 341,699 342,699 342,699 343,699 344,699 345,699 346,699 347,699 348,699 349,699 350,699 350,699 351,699 352,699 353,699 354,699 355,699 356,699 357,699 358,699 358,699 359,699 360,699 361,699 362,699 363,699 364,699 365,699 366,699 366,699 367,699 368,699 369,699 370,699 371,699 372,699 373,699 374,699 374,699 375,699 376,699 377,699 378,699 379,699 380,699 381,699 382,699 382,699 383,699 384,699 385,699 386,699 387,699 388,699 389,699 389,699 390,699 391,699 392,699 393,699 394,699 395,699 396,699 397,699 397,699 398,699 399,699 400,699 401,699 402,699 403,699 404,699 405,699 405,699 406,699 407,699 408,699 409,699 410,699 411,699 412,699 413,699 413,699 414,699 415,699 416,699 417,699 418,699 419,699 420,699 421,699 421,699 422,699 423,699 424,699 425,699 426,699 427,699 428,699 429,699 429,699 430,699 431,699 432,699 433,699 434,699 435,699 436,699 437,699 437,699 438,699 439,699 440,699 441,699 442,699 443,699 444,699 444,699 445,699 446,699 447,699 448,699 449,699 450,699 451,699 452,699 452,699 453,699 454,699 455,699 456,699 457,699 458,699 459,699 460,699 460,699 461,699 462,699 463,699 464,699 465,699 466,699 467,699 468,699 468,699 469,699 470,699 471,699 472,699 473,699 474,699 475,699 476,699 476,699 477,699 478,699 479,699 480,699 481,699 482,699 483,699 484,699 484,699 485,699 486,699 487,699 488,699 489,699 490,699 491,699 492,699 492,699 493,699 494,699 495,699 496,699 497,699 498,699 499,699 500,699 500,699 501,699 502,699 503,699 504,699 505,699 506,699 507,699 507,699 508,699 509,699 510,699 511,699 512,699 513,699 514,699 515,699 515,699 516,699 517,699 518,699 519,699 520,699 521,699 522,699 523,699 523,699 524,699 525,699 526,699 527,699 528,699 529,699 530,699 531,699 531,699 532,699 533,699 534,699 535,699 536,699 537,699 538,699 539,699 539,699 540,699 541,699 542,699 543,699 544,699 545,699 546,699 547,699 547,699 548,699 549,699 550,699 551,699 552,699 553,699 554,699 555,699 555,699 556,699 557,699 558,699 559,699 560,699 561,699 562,699 562,699 563,699 564,699 565,699 566,699 567,699 568,699 569,699 570,699 570,699 571,699 572,699 573,699 574,699 575,699 576,699 577,699 578,699 578,699 579,699 580,699 581,699 582,699 583,699 584,699 585,699 586,699 586,699 587,699 588,699 589,699 590,699 591,699 592,699 593,699 594,699 594,699 595,699 596,699 597,699 598,699 599,699 600,699 601,699 602,699 602,699 603,699 604,699 605,699 606,699 607,699 608,699 609,699 610,699 610,699 611,699 612,699 613,699 614,699 615,699 616,699 617,699 617,699 618,699 619,699 620,699 621,699 622,699 623,699 624,699 625,699 625,699 626,699 627,699 628,699 629,699 630,699 631,699 632,699 633,699 633,699 634,699 635,699 636,699 637,699 638,678 639,678 640,678 641,678 641,678 642,678 643,678 644,678 645,678 646,678 647,678 648,678 649,678 649,678 650,678 651,678 652,678 653,678 654,678 655,678 656,678 657,678 657,678 658,678 659,678 660,678 661,678 662,678 663,678 664,678 665,678 665,678 666,678 667,678 668,678 669,678 670,678 671,678 672,678 672,678 673,678 674,678 675,678 676,678 677,678 678,678 679,678 680,678 680,678 681,658 682,658 683,658 684,658 685,658 686,658 687,658 688,658 688,658 689,658 690,658 691,658 692,658 693,658 694,658 695,658 696,658 696,658 697,658 698,638 699,638 700,638 701,638 702,638 703,638 704,638 704,638 705,638 706,638 707,638 708,638 709,618 710,618 711,618 712,618 712,618 713,618 714,618 715,618 716,618 717,618 718,618 719,618 720,618 720,618 721,618 722,618 723,618 724,618 725,618 726,618 727,618 727,618 728,618 729,618 730,618 731,618 732,598 733,598 734,598 735,598 735,598 736,598 737,578 738,578 739,578 740,578 741,578 742,578 743,578 743,578 744,578 745,578 746,578 747,578 748,578 749,558 750,558 751,558 751,558 752,558 753,558 754,558 755,558 756,558 757,558 758,558 759,558 759,558 760,558 761,558 762,558 763,558 764,558 765,558 766,538 767,538 767,538 768,538 769,538 770,538 771,518 772,518 773,518 774,518 775,518 775,518 776,518 777,518 778,518 779,518 780,518 781,518 782,518 782,518 783,518 784,518 785,518 786,518 787,518 788,518 789,518 790,518 790,518 791,518 792,518 793,518 794,518 795,518 796,518 797,518 798,518 798,498 799,498 800,498 801,498 802,498 803,498 804,498 805,498 806,498 806,498 807,498 808,498 809,498 810,498 811,498 812,498 813,498 814,498 814,498 815,498 816,498 817,478 818,478 819,478 820,478 821,478 822,478 822,478 823,478 824,478 825,478 826,478 827,478 828,458 829,458 830,458 830,458 831,458 832,458 833,458 834,458 835,458 836,458 837,458 837,458 838,458 839,458 840,458 841,458 842,458 843,458 844,458 845,458 845,458 846,458 847,458 848,458 849,458 850,458 851,458 852,458 853,458 853,458 854,458 855,458 856,458 857,458 858,458 859,458 860,458 861,458 861,458 862,458 863,458 864,458 865,458 866,458 867,458 868,458 869,458 869,458 870,458 871,458 872,458 873,458 874,458 875,458 876,438 877,438 877,438 878,438 879,438 880,438 881,438 882,438 883,438 884,438 885,438 885,438 886,438 887,438 888,418 889,418 890,418 891,418 892,418 892,418 893,418 894,418 895,418 896,418 897,418 898,418 899,418 900,418 900,418 901,418 902,418 903,418 904,398 905,398 906,398 907,398 908,398 908,398 909,398 910,398 911,398 912,398 913,398 914,398 915,398 916,378 916,378 917,378 918,378 919,378 920,378 921,378 922,378 923,378 924,378 924,378 925,378 926,378 927,378 928,378 929,378 930,378 931,378 932,358 932,358 933,358 934,358 935,358 936,358 937,358 938,358 939,358 940,358 940,358 941,358 942,358 943,358 944,358 945,353 946,353 947,353 947,353 948,353 949,353 950,353 951,353 952,353 953,353 954,353 955,333 955,333 956,333 957,333 958,333 959,333 960,333 961,333 962,333 963,333 963,333 964,313 964,313 965,313 966,313 966,313 973,313 "/>
<line opacity="0.1" stroke="#000000" stroke-width="1" x1="89" y1="699" x2="89" y2="68"/>
<line opacity="0.1" stroke="#000000" stroke-width="1" x1="101" y1="699" x2="101" y2="68"/>
<line opacity="0.1" stroke="#000000" stroke-width="1" x1="112" y1="699" x2="112" y2="68"/>
<line opacity="0.1" stroke="#000000" stroke-width="1" x1="124" y1="699" x2="124" y2="68"/>
<line opacity="0.1" stroke="#000000" stroke-width="1" x1="136" y1="699" x2="136" y2="68"/>
<line opacity="0.1" stroke="#000000" stroke-width="1" x1="148" y1="699" x2="148" y2="68"/>
<line opacity="0.1" stroke="#000000" stroke-width="1" x1="160" y1="699" x2="160" y2="68"/>
<line opacity="0.1" stroke="#000000" stroke-width="1" x1="172" y1="699" x2="172" y2="68"/>
<line opacity="0.1" stroke="#000000" stroke-width="1" x1="184" y1="699" x2="184" y2="68"/>
<line opacity="0.1" stroke="#000000" stroke-width="1" x1="195" y1="699" x2="195" y2="68"/>
<line opacity="0.1" stroke="#000000" stroke-width="1" x1="207" y1="699" x2="207" y2="68"/>
<line opacity="0.1" stroke="#000000" stroke-width="1" x1="219" y1="699" x2="219" y2="68"/>
<line opacity="0.1" stroke="#000000" stroke-width="1" x1="231" y1="699" x2="231" y2="68"/>
<line opacity="0.1" stroke="#000000" stroke-width="1" x1="243" y1="699" x2="243" y2="68"/>
<line opacity="0.1" stroke="#000000" stroke-width="1" x1="255" y1="699" x2="255" y2="68"/>
<line opacity="0.1" stroke="#000000" stroke-width="1" x1="267" y1="699" x2="267" y2="68"/>
<line opacity="0.1" stroke="#000000" stroke-width="1" x1="278" y1="699" x2="278" y2="68"/>
<line opacity="0.1" stroke="#000000" stroke-width="1" x1="290" y1="699" x2="290" y2="68"/>
<line opacity="0.1" stroke="#000000" stroke-width="1" x1="302" y1="699" x2="302" y2="68"/>
<line opacity="0.1" stroke="#000000" stroke-width="1" x1="314" y1="699" x2="314" y2="68"/>
<line opacity="0.1" stroke="#000000" stroke-width="1" x1="326" y1="699" x2="326" y2="68"/>
<line opacity="0.1" stroke="#000000" stroke-width="1" x1="338" y1="699" x2="338" y2="68"/>
<line opacity="0.1" stroke="#000000" stroke-width="1" x1="350" y1="699" x2="350" y2="68"/>
<line opacity="0.1" stroke="#000000" stroke-width="1" x1="361" y1="699" x2="361" y2="68"/>
<line opacity="0.1" stroke="#000000" stroke-width="1" x1="373" y1="699" x2="373" y2="68"/>
<line opacity="0.1" stroke="#000000" stroke-width="1" x1="385" y1="699" x2="385" y2="68"/>
<line opacity="0.1" stroke="#000000" stroke-width="1" x1="397" y1="699" x2="397" y2="68"/>
<line opacity="0.1" stroke="#000000" stroke-width="1" x1="409" y1="699" x2="409" y2="68"/>
<line opacity="0.1" stroke="#000000" stroke-width="1" x1="421" y1="699" x2="421" y2="68"/>
<line opacity="0.1" stroke="#000000" stroke-width="1" x1="433" y1="699" x2="433" y2="68"/>
<line opacity="0.1" stroke="#000000" stroke-width="1" x1="444" y1="699" x2="444" y2="68"/>
<line opacity="0.1" stroke="#000000" stroke-width="1" x1="456" y1="699" x2="456" y2="68"/>
<line opacity="0.1" stroke="#000000" stroke-width="1" x1="468" y1="699" x2="468" y2="68"/>
<line opacity="0.1" stroke="#000000" stroke-width="1" x1="480" y1="699" x2="480" y2="68"/>
<line opacity="0.1" stroke="#000000" stroke-width="1" x1="492" y1="699" x2="492" y2="68"/>
<line opacity="0.1" stroke="#000000" stroke-width="1" x1="504" y1="699" x2="504" y2="68"/>
<line opacity="0.1" stroke="#000000" stroke-width="1" x1="516" y1="699" x2="516" y2="68"/>
<line opacity="0.1" stroke="#000000" stroke-width="1" x1="527" y1="699" x2="527" y2="68"/>
<line opacity="0.1" stroke="#000000" stroke-width="1" x1="539" y1="699" x2="539" y2="68"/>
<line opacity="0.1" stroke="#000000" stroke-width="1" x1="551" y1="699" x2="551" y2="68"/>
<line opacity="0.1" stroke="#000000" stroke-width="1" x1="563" y1="699" x2="563" y2="68"/>
<line opacity="0.1" stroke="#000000" stroke-width="1" x1="575" y1="699" x2="575" y2="68"/>
<line opacity="0.1" stroke="#000000" stroke-width="1" x1="587" y1="699" x2="587" y2="68"/>
<line opacity="0.1" stroke="#000000" stroke-width="1" x1="599" y1="699" x2="599" y2="68"/>
<line opacity="0.1" stroke="#000000" stroke-width="1" x1="610" y1="699" x2="610" y2="68"/>
<line opacity="0.1" stroke="#000000" stroke-width="1" x1="622" y1="699" x2="622" y2="68"/>
<line opacity="0.1" stroke="#000000" stroke-width="1" x1="634" y1="699" x2="634" y2="68"/>
<line opacity="0.1" stroke="#000000" stroke-width="1" x1="646" y1="699" x2="646" y2="68"/>
<line opacity="0.1" stroke="#000000" stroke-width="1" x1="658" y1="699" x2="658" y2="68"/>
<line opacity="0.1" stroke="#000000" stroke-width="1" x1="670" y1="699" x2="670" y2="68"/>
<line opacity="0.1" stroke="#000000" stroke-width="1" x1="682" y1="699" x2="682" y2="68"/>
<line opacity="0.1" stroke="#000000" stroke-width="1" x1="693" y1="699" x2="693" y2="68"/>
<line opacity="0.1" stroke="#000000" stroke-width="1" x1="705" y1="699" x2="705" y2="68"/>
<line opacity="0.1" stroke="#000000" stroke-width="1" x1="717" y1="699" x2="717" y2="68"/>
<line opacity="0.1" stroke="#000000" stroke-width="1" x1="729" y1="699" x2="729" y2="68"/>
<line opacity="0.1" stroke="#000000" stroke-width="1" x1="741" y1="699" x2="741" y2="68"/>
<line opacity="0.1" stroke="#000000" stroke-width="1" x1="753" y1="699" x2="753" y2="68"/>
<line opacity="0.1" stroke="#000000" stroke-width="1" x1="765" y1="699" x2="765" y2="68"/>
<line opacity="0.1" stroke="#000000" stroke-width="1" x1="776" y1="699" x2="776" y2="68"/>
<line opacity="0.1" stroke="#000000" stroke-width="1" x1="788" y1="699" x2="788" y2="68"/>
<line opacity="0.1" stroke="#000000" stroke-width="1" x1="800" y1="699" x2="800" y2="68"/>
<line opacity="0.1" stroke="#000000" stroke-width="1" x1="812" y1="699" x2="812" y2="68"/>
<line opacity="0.1" stroke="#000000" stroke-width="1" x1="824" y1="699" x2="824" y2="68"/>
<line opacity="0.1" stroke="#000000" stroke-width="1" x1="836" y1="699" x2="836" y2="68"/>
<line opacity="0.1" stroke="#000000" stroke-width="1" x1="848" y1="699" x2="848" y2="68"/>
<line opacity="0.1" stroke="#000000" stroke-width="1" x1="859" y1="699" x2="859" y2="68"/>
<line opacity="0.1" stroke="#000000" stroke-width="1" x1="871" y1="699" x2="871" y2="68"/>
<line opacity="0.1" stroke="#000000" stroke-width="1" x1="883" y1="699" x2="883" y2="68"/>
<line opacity="0.1" stroke="#000000" stroke-width="1" x1="895" y1="699" x2="895" y2="68"/>
<line opacity="0.1" stroke="#000000" stroke-width="1" x1="907" y1="699" x2="907" y2="68"/>
<line opacity="0.1" stroke="#000000" stroke-width="1" x1="919" y1="699" x2="919" y2="68"/>
<line opacity="0.1" stroke="#000000" stroke-width="1" x1="931" y1="699" x2="931" y2="68"/>
<line opacity="0.1" stroke="#000000" stroke-width="1" x1="942" y1="699" x2="942" y2="68"/>
<line opacity="0.1" stroke="#000000" stroke-width="1" x1="954" y1="699" x2="954" y2="68"/>
<line opacity="0.1" stroke="#000000" stroke-width="1" x1="966" y1="699" x2="966" y2="68"/>
<line opacity="0.1" stroke="#000000" stroke-width="1" x1="78" y1="699" x2="973" y2="699"/>
<line opacity="0.1" stroke="#000000" stroke-width="1" x1="78" y1="689" x2="973" y2="689"/>
<line opacity="0.1" stroke="#000000" stroke-width="1" x1="78" y1="679" x2="973" y2="679"/>
<line opacity="0.1" stroke="#000000" stroke-width="1" x1="78" y1="670" x2="973" y2="670"/>
<line opacity="0.1" stroke="#000000" stroke-width="1" x1="78" y1="660" x2="973" y2="660"/>
<line opacity="0.1" stroke="#000000" stroke-width="1" x1="78" y1="651" x2="973" y2="651"/>
<line opacity="0.1" stroke="#000000" stroke-width="1" x1="78" y1="641" x2="973" y2="641"/>
<line opacity="0.1" stroke="#000000" stroke-width="1" x1="78" y1="632" x2="973" y2="632"/>
<line opacity="0.1" stroke="#000000" stroke-width="1" x1="78" y1="622" x2="973" y2="622"/>
<line opacity="0.1" stroke="#000000" stroke-width="1" x1="78" y1="613" x2="973" y2="613"/>
<line opacity="0.1" stroke="#000000" stroke-width="1" x1="78" y1="603" x2="973" y2="603"/>
<line opacity="0.1" stroke="#000000" stroke-width="1" x1="78" y1="593" x2="973" y2="593"/>
<line opacity="0.1" stroke="#000000" stroke-width="1" x1="78" y1="584" x2="973" y2="584"/>
<line opacity="0.1" stroke="#000000" stroke-width="1" x1="78" y1="574" x2="973" y2="574"/>
<line opacity="0.1" stroke="#000000" stroke-width="1" x1="78" y1="565" x2="973" y2="565"/>
<line opacity="0.1" stroke="#000000" stroke-width="1" x1="78" y1="555" x2="973" y2="555"/>
<line opacity="0.1" stroke="#000000" stroke-width="1" x1="78" y1="546" x2="973" y2="546"/>
<line opacity="0.1" stroke="#000000" stroke-width="1" x1="78" y1="536" x2="973" y2="536"/>
<line opacity="0.1" stroke="#000000" stroke-width="1" x1="78" y1="527" x2="973" y2="527"/>
<line opacity="0.1" stroke="#000000" stroke-width="1" x1="78" y1="517" x2="973" y2="517"/>
<line opacity="0.1" stroke="#000000" stroke-width="1" x1="78" y1="507" x2="973" y2="507"/>
<line opacity="0.1" stroke="#000000" stroke-width="1" x1="78" y1="498" x2="973" y2="498"/>
<line opacity="0.1" stroke="#000000" stroke-width="1" x1="78" y1="488" x2="973" y2="488"/>
<line opacity="0.1" stroke="#000000" stroke-width="1" x1="78" y1="479" x2="973" y2="479"/>
<line opacity="0.1" stroke="#000000" stroke-width="1" x1="78" y1="469" x2="973" y2="469"/>
<line opacity="0.1" stroke="#000000" stroke-width="1" x1="78" y1="460" x2="973" y2="460"/>
<line opacity="0.1" stroke="#000000" stroke-width="1" x1="78" y1="450" x2="973" y2="450"/>
<line opacity="0.1" stroke="#000000" stroke-width="1" x1="78" y1="441" x2="973" y2="441"/>
<line opacity="0.1" stroke="#000000" stroke-width="1" x1="78" y1="431" x2="973" y2="431"/>
<line opacity="0.1" stroke="#000000" stroke-width="1" x1="78" y1="421" x2="973" y2="421"/>
<line opacity="0.1" stroke="#000000" stroke-width="1" x1="78" y1="412" x2="973" y2="412"/>
<line opacity="0.1" stroke="#000000" stroke-width="1" x1="78" y1="402" x2="973" y2="402"/>
<line opacity="0.1" stroke="#000000" stroke-width="1" x1="78" y1="393" x2="973" y2="393"/>
<line opacity="0.1" stroke="#000000" stroke-width="1" x1="78" y1="383" x2="973" y2="383"/>
<line opacity="0.1" stroke="#000000" stroke-width="1" x1="78" y1="374" x2="973" y2="374"/>
<line opacity="0.1" stroke="#000000" stroke-width="1" x1="78" y1="364" x2="973" y2="364"/>
<line opacity="0.1" stroke="#000000" stroke-width="1" x1="78" y1="355" x2="973" y2="355"/>
<line opacity="0.1" stroke="#000000" stroke-width="1" x1="78" y1="345" x2="973" y2="345"/>
<line opacity="0.1" stroke="#000000" stroke-width="1" x1="78" y1="336" x2="973" y2="336"/>
<line opacity="0.1" stroke="#000000" stroke-width="1" x1="78" y1="326" x2="973" y2="326"/>
<line opacity="0.1" stroke="#000000" stroke-width="1" x1="78" y1="316" x2="973" y2="316"/>
<line opacity="0.1" stroke="#000000" stroke-width="1" x1="78" y1="307" x2="973" y2="307"/>
<line opacity="0.1" stroke="#000000" stroke-width="1" x1="78" y1="297" x2="973" y2="297"/>
<line opacity="0.1" stroke="#000000" stroke-width="1" x1="78" y1="288" x2="973" y2="288"/>
<line opacity="0.1" stroke="#000000" stroke-width="1" x1="78" y1="278" x2="973" y2="278"/>
<line opacity="0.1" stroke="#000000" stroke-width="1" x1="78" y1="269" x2="973" y2="269"/>
<line opacity="0.1" stroke="#000000" stroke-width="1" x1="78" y1="259" x2="973" y2="259"/>
<line opacity="0.1" stroke="#000000" stroke-width="1" x1="78" y1="250" x2="973" y2="250"/>
<line opacity="0.1" stroke="#000000" stroke-width="1" x1="78" y1="240" x2="973" y2="240"/>
<line opacity="0.1" stroke="#000000" stroke-width="1" x1="78" y1="230" x2="973" y2="230"/>
<line opacity="0.1" stroke="#000000" stroke-width="1" x1="78" y1="221" x2="973" y2="221"/>
<line opacity="0.1" stroke="#000000" stroke-width="1" x1="78" y1="211" x2="973" y2="211"/>
<line opacity="0.1" stroke="#000000" stroke-width="1" x1="78" y1="202" x2="973" y2="202"/>
<line opacity="0.1" stroke="#000000" stroke-width="1" x1="78" y1="192" x2="973" y2="192"/>
<line opacity="0.1" stroke="#000000" stroke-width="1" x1="78" y1="183" x2="973" y2="183"/>
<line opacity="0.1" stroke="#000000" stroke-width="1" x1="78" y1="173" x2="973" y2="173"/>
<line opacity="0.1" stroke="#000000" stroke-width="1" x1="78" y1="164" x2="973" y2="164"/>
<line opacity="0.1" stroke="#000000" stroke-width="1" x1="78" y1="154" x2="973" y2="154"/>
<line opacity="0.1" stroke="#000000" stroke-width="1" x1="78" y1="144" x2="973" y2="144"/>
<line opacity="0.1" stroke="#000000" stroke-width="1" x1="78" y1="135" x2="973" y2="135"/>
<line opacity="0.1" stroke="#000000" stroke-width="1" x1="78" y1="125" x2="973" y2="125"/>
<line opacity="0.1" stroke="#000000" stroke-width="1" x1="78" y1="116" x2="973" y2="116"/>
<line opacity="0.1" stroke="#000000" stroke-width="1" x1="78" y1="106" x2="973" y2="106"/>
<line opacity="0.1" stroke="#000000" stroke-width="1" x1="78" y1="97" x2="973" y2="97"/>
<line opacity="0.1" stroke="#000000" stroke-width="1" x1="78" y1="87" x2="973" y2="87"/>
<line opacity="0.1" stroke="#000000" stroke-width="1" x1="78" y1="78" x2="973" y2="78"/>
<line opacity="0.1" stroke="#000000" stroke-width="1" x1="78" y1="68" x2="973" y2="68"/>
<text x="8" y="384" dy="0.76em" text-anchor="middle" font-family="sans-serif" font-size="9.67741935483871" opacity="1" fill="#000000" transform="rotate(270, 8, 384)">
Memory usage
</text>
<text x="526" y="760" dy="-0.5ex" text-anchor="middle" font-family="sans-serif" font-size="9.67741935483871" opacity="1" fill="#000000">
Time
</text>
<line opacity="0.2" stroke="#000000" stroke-width="1" x1="112" y1="699" x2="112" y2="68"/>
<line opacity="0.2" stroke="#000000" stroke-width="1" x1="231" y1="699" x2="231" y2="68"/>
<line opacity="0.2" stroke="#000000" stroke-width="1" x1="350" y1="699" x2="350" y2="68"/>
<line opacity="0.2" stroke="#000000" stroke-width="1" x1="468" y1="699" x2="468" y2="68"/>
<line opacity="0.2" stroke="#000000" stroke-width="1" x1="587" y1="699" x2="587" y2="68"/>
<line opacity="0.2" stroke="#000000" stroke-width="1" x1="705" y1="699" x2="705" y2="68"/>
<line opacity="0.2" stroke="#000000" stroke-width="1" x1="824" y1="699" x2="824" y2="68"/>
<line opacity="0.2" stroke="#000000" stroke-width="1" x1="942" y1="699" x2="942" y2="68"/>
<line opacity="0.2" stroke="#000000" stroke-width="1" x1="78" y1="699" x2="973" y2="699"/>
<line opacity="0.2" stroke="#000000" stroke-width="1" x1="78" y1="603" x2="973" y2="603"/>
<line opacity="0.2" stroke="#000000" stroke-width="1" x1="78" y1="507" x2="973" y2="507"/>
<line opacity="0.2" stroke="#000000" stroke-width="1" x1="78" y1="412" x2="973" y2="412"/>
<line opacity="0.2" stroke="#000000" stroke-width="1" x1="78" y1="316" x2="973" y2="316"/>
<line opacity="0.2" stroke="#000000" stroke-width="1" x1="78" y1="221" x2="973" y2="221"/>
<line opacity="0.2" stroke="#000000" stroke-width="1" x1="78" y1="125" x2="973" y2="125"/>
<polyline fill="none" opacity="1" stroke="#000000" stroke-width="1" points="77,68 77,699 "/>
<text x="68" y="699" dy="0.5ex" text-anchor="end" font-family="sans-serif" font-size="9.67741935483871" opacity="1" fill="#000000">
0.0 MB
</text>
<polyline fill="none" opacity="1" stroke="#000000" stroke-width="1" points="72,699 77,699 "/>
<text x="68" y="603" dy="0.5ex" text-anchor="end" font-family="sans-serif" font-size="9.67741935483871" opacity="1" fill="#000000">
4.8 MB
</text>
<polyline fill="none" opacity="1" stroke="#000000" stroke-width="1" points="72,603 77,603 "/>
<text x="68" y="507" dy="0.5ex" text-anchor="end" font-family="sans-serif" font-size="9.67741935483871" opacity="1" fill="#000000">
9.5 MB
</text>
<polyline fill="none" opacity="1" stroke="#000000" stroke-width="1" points="72,507 77,507 "/>
<text x="68" y="412" dy="0.5ex" text-anchor="end" font-family="sans-serif" font-size="9.67741935483871" opacity="1" fill="#000000">
14.3 MB
</text>
<polyline fill="none" opacity="1" stroke="#000000" stroke-width="1" points="72,412 77,412 "/>
<text x="68" y="316" dy="0.5ex" text-anchor="end" font-family="sans-serif" font-size="9.67741935483871" opacity="1" fill="#000000">
19.1 MB
</text>
<polyline fill="none" opacity="1" stroke="#000000" stroke-width="1" points="72,316 77,316 "/>
<text x="68" y="221" dy="0.5ex" text-anchor="end" font-family="sans-serif" font-size="9.67741935483871" opacity="1" fill="#000000">
23.8 MB
</text>
<polyline fill="none" opacity="1" stroke="#000000" stroke-width="1" points="72,221 77,221 "/>
<text x="68" y="125" dy="0.5ex" text-anchor="end" font-family="sans-serif" font-size="9.67741935483871" opacity="1" fill="#000000">
28.6 MB
</text>
<polyline fill="none" opacity="1" stroke="#000000" stroke-width="1" points="72,125 77,125 "/>
<polyline fill="none" opacity="1" stroke="#000000" stroke-width="1" points="78,700 973,700 "/>
<text x="112" y="710" dy="0.76em" text-anchor="middle" font-family="sans-serif" font-size="9.67741935483871" opacity="1" fill="#000000">
07 17:46:40
</text>
<polyline fill="none" opacity="1" stroke="#000000" stroke-width="1" points="112,700 112,705 "/>
<text x="231" y="710" dy="0.76em" text-anchor="middle" font-family="sans-serif" font-size="9.67741935483871" opacity="1" fill="#000000">
07 20:33:20
</text>
<polyline fill="none" opacity="1" stroke="#000000" stroke-width="1" points="231,700 231,705 "/>
<text x="350" y="710" dy="0.76em" text-anchor="middle" font-family="sans-serif" font-size="9.67741935483871" opacity="1" fill="#000000">
07 23:20:00
</text>
<polyline fill="none" opacity="1" stroke="#000000" stroke-width="1" points="350,700 350,705 "/>
<text x="468" y="710" dy="0.76em" text-anchor="middle" font-family="sans-serif" font-size="9.67741935483871" opacity="1" fill="#000000">
08 02:06:40
</text>
<polyline fill="none" opacity="1" stroke="#000000" stroke-width="1" points="468,700 468,705 "/>
<text x="587" y="710" dy="0.76em" text-anchor="middle" font-family="sans-serif" font-size="9.67741935483871" opacity="1" fill="#000000">
08 04:53:20
</text>
<polyline fill="none" opacity="1" stroke="#000000" stroke-width="1" points="587,700 587,705 "/>
<text x="705" y="710" dy="0.76em" text-anchor="middle" font-family="sans-serif" font-size="9.67741935483871" opacity="1" fill="#000000">
08 07:40:00
</text>
<polyline fill="none" opacity="1" stroke="#000000" stroke-width="1" points="705,700 705,705 "/>
<text x="824" y="710" dy="0.76em" text-anchor="middle" font-family="sans-serif" font-size="9.67741935483871" opacity="1" fill="#000000">
08 10:26:40
</text>
<polyline fill="none" opacity="1" stroke="#000000" stroke-width="1" points="824,700 824,705 "/>
<text x="942" y="710" dy="0.76em" text-anchor="middle" font-family="sans-serif" font-size="9.67741935483871" opacity="1" fill="#000000">
08 13:13:20
</text>
<polyline fill="none" opacity="1" stroke="#000000" stroke-width="1" points="942,700 942,705 "/>
<polyline fill="none" opacity="1" stroke="#000000" stroke-width="1" points="78,67 974,67 "/>
<text x="112" y="58" dy="-0.5ex" text-anchor="middle" font-family="sans-serif" font-size="9.67741935483871" opacity="1" fill="#000000">
+00:49:04
</text>
<polyline fill="none" opacity="1" stroke="#000000" stroke-width="1" points="112,62 112,67 "/>
<text x="231" y="58" dy="-0.5ex" text-anchor="middle" font-family="sans-serif" font-size="9.67741935483871" opacity="1" fill="#000000">
+03:35:44
</text>
<polyline fill="none" opacity="1" stroke="#000000" stroke-width="1" points="231,62 231,67 "/>
<text x="350" y="58" dy="-0.5ex" text-anchor="middle" font-family="sans-serif" font-size="9.67741935483871" opacity="1" fill="#000000">
+06:22:24
</text>
<polyline fill="none" opacity="1" stroke="#000000" stroke-width="1" points="350,62 350,67 "/>
<text x="469" y="58" dy="-0.5ex" text-anchor="middle" font-family="sans-serif" font-size="9.67741935483871" opacity="1" fill="#000000">
+09:09:04
</text>
<polyline fill="none" opacity="1" stroke="#000000" stroke-width="1" points="469,62 469,67 "/>
<text x="587" y="58" dy="-0.5ex" text-anchor="middle" font-family="sans-serif" font-size="9.67741935483871" opacity="1" fill="#000000">
+11:55:44
</text>
<polyline fill="none" opacity="1" stroke="#000000" stroke-width="1" points="587,62 587,67 "/>
<text x="706" y="58" dy="-0.5ex" text-anchor="middle" font-family="sans-serif" font-size="9.67741935483871" opacity="1" fill="#000000">
+14:42:24
</text>
<polyline fill="none" opacity="1" stroke="#000000" stroke-width="1" points="706,62 706,67 "/>
<text x="825" y="58" dy="-0.5ex" text-anchor="middle" font-family="sans-serif" font-size="9.67741935483871" opacity="1" fill="#000000">
+17:29:04
</text>
<polyline fill="none" opacity="1" stroke="#000000" stroke-width="1" points="825,62 825,67 "/>
<text x="943" y="58" dy="-0.5ex" text-anchor="middle" font-family="sans-serif" font-size="9.67741935483871" opacity="1" fill="#000000">
+20:15:44
</text>
<polyline fill="none" opacity="1" stroke="#000000" stroke-width="1" points="943,62 943,67 "/>
<rect x="83" y="73" width="99" height="45" opacity="0.75" fill="#FFFFFF" stroke="none"/>
<rect x="83" y="73" width="99" height="45" opacity="1" fill="none" stroke="#000000"/>
<text x="123" y="83" dy="0.76em" text-anchor="start" font-family="sans-serif" font-size="9.67741935483871" opacity="1" fill="#000000">
Temporary
</text>
<text x="123" y="98" dy="0.76em" text-anchor="start" font-family="sans-serif" font-size="9.67741935483871" opacity="1" fill="#000000">
Leaked
</text>
<rect x="93" y="83" width="10" height="10" opacity="1" fill="#3CB44B" stroke="none"/>
<rect x="93" y="98" width="10" height="10" opacity="1" fill="#E6194B" stroke="none"/>
</svg>
