<svg width="1024" height="768" viewBox="0 0 1024 768" xmlns="http://www.w3.org/2000/svg">
<rect x="0" y="0" width="1024" height="768" opacity="1" fill="#FFFFFF" stroke="none"/>
<polygon opacity="1" fill="#3CB44B" points="78,694 79,694 79,694 80,694 81,694 81,694 82,694 82,694 83,684 83,684 84,684 84,684 85,684 85,684 86,684 87,684 87,684 88,684 88,684 89,684 89,684 90,684 90,684 91,684 92,669 92,669 93,669 93,669 94,669 94,669 95,669 95,669 96,669 96,669 97,669 98,669 98,669 99,669 99,669 100,669 100,669 101,669 101,669 102,669 103,669 103,669 104,669 104,669 105,669 105,669 106,669 106,669 107,669 107,669 108,669 109,669 109,669 110,639 110,639 111,639 111,639 112,639 112,639 113,639 114,639 114,639 115,639 115,639 116,639 116,639 117,639 117,639 118,639 118,639 119,639 120,639 120,639 121,639 121,639 122,639 122,639 123,639 123,639 124,639 125,639 125,639 126,639 126,639 127,639 127,639 128,639 128,639 129,639 129,639 130,639 131,639 131,639 132,639 132,639 133,639 133,639 134,639 134,639 135,639 136,639 136,639 137,639 137,639 138,639 138,639 139,639 139,639 140,639 140,639 141,639 142,639 142,639 143,639 143,639 144,639 144,580 145,580 145,580 146,580 147,580 147,580 148,580 148,580 149,580 149,580 150,580 150,580 151,580 151,580 152,580 153,580 153,580 154,580 154,580 155,580 155,580 156,580 156,580 157,580 158,580 158,580 159,580 159,580 160,580 160,580 161,580 161,580 162,580 162,580 163,580 164,580 164,580 165,580 165,580 166,580 166,580 167,580 167,580 168,580 169,580 169,580 170,580 170,580 171,580 171,580 172,580 172,580 173,580 173,580 174,580 175,580 175,580 176,580 176,580 177,580 177,580 178,580 178,580 179,580 179,580 180,580 181,580 181,580 182,580 182,580 183,580 183,580 184,580 184,580 185,580 186,580 186,580 187,580 187,580 188,580 188,580 189,580 189,580 190,580 190,580 191,580 192,580 192,580 193,580 193,580 194,580 194,580 195,580 195,580 196,580 197,580 197,580 198,580 198,580 199,580 199,580 200,580 200,580 201,580 201,580 202,580 203,580 203,580 204,580 204,580 205,580 205,580 206,580 206,580 207,580 208,580 208,580 209,580 209,580 210,580 210,580 211,580 211,580 212,580 212,580 213,580 214,580 214,580 215,580 215,580 216,462 216,462 217,462 217,462 218,462 219,462 219,462 220,462 220,462 221,462 221,462 222,462 222,462 223,462 223,462 224,462 225,462 225,462 226,462 226,462 227,462 227,462 228,462 228,462 229,462 230,462 230,462 231,462 231,462 232,462 232,462 233,462 233,462 234,462 234,462 235,462 236,462 236,462 237,462 237,462 238,462 238,462 239,462 239,462 240,462 241,462 241,462 242,462 242,462 243,462 243,462 244,462 244,462 245,462 245,462 246,462 247,462 247,462 248,462 248,462 249,462 249,462 250,462 250,462 251,462 252,462 252,462 253,462 253,462 254,462 254,462 255,462 255,462 256,462 256,462 257,462 258,462 258,462 259,462 259,462 260,462 260,462 261,462 261,462 262,462 263,462 263,462 264,462 264,462 265,462 265,462 266,462 266,462 267,462 267,462 268,462 269,462 269,462 270,462 270,462 271,462 271,462 272,462 272,462 273,462 274,462 274,462 275,462 275,462 276,462 276,462 277,462 277,462 278,462 278,462 279,462 280,462 280,462 281,462 281,462 282,462 282,462 283,462 283,462 284,462 285,462 285,462 286,462 286,462 287,462 287,462 288,462 288,462 289,462 289,462 290,462 291,462 291,462 292,462 292,462 293,462 293,462 294,462 294,462 295,462 295,462 296,462 297,462 297,462 298,462 298,462 299,462 299,462 300,462 300,462 301,462 302,462 302,462 303,462 303,462 304,462 304,462 305,462 305,462 306,462 306,462 307,462 308,462 308,462 309,462 309,462 310,462 310,462 311,462 311,462 312,462 313,462 313,462 314,462 314,462 315,462 315,462 316,462 316,462 317,462 317,462 318,462 319,462 319,462 320,462 320,462 321,462 321,462 322,462 322,462 323,462 324,462 324,462 325,462 325,462 326,462 326,462 327,462 327,462 328,462 328,462 329,462 330,462 330,462 331,462 331,462 332,462 332,462 333,462 333,462 334,462 335,462 335,462 336,462 336,462 337,462 337,462 338,462 338,462 339,462 339,462 340,462 341,462 341,462 342,462 342,462 343,462 343,462 344,462 344,462 345,462 346,462 346,462 347,462 347,462 348,462 348,462 349,462 349,462 350,462 350,462 351,462 352,462 352,225 353,225 353,225 354,225 354,225 355,225 355,225 356,225 357,225 357,225 358,225 358,225 359,225 359,225 360,225 360,225 361,225 361,225 362,225 363,225 363,225 364,225 364,225 365,225 365,225 366,225 366,225 367,225 368,225 368,225 369,225 369,225 370,225 370,225 371,225 371,225 372,225 372,225 373,225 374,225 374,225 375,225 375,225 376,225 376,225 377,225 377,225 378,225 379,225 379,225 380,225 380,225 381,225 381,225 382,225 382,225 383,225 383,225 384,225 385,225 385,225 386,225 386,225 387,225 387,225 388,225 388,225 389,225 390,225 390,225 391,225 391,225 392,225 392,225 393,225 393,225 394,225 394,225 395,225 396,225 396,225 397,225 397,225 398,225 398,225 399,225 399,225 400,225 400,225 401,225 402,225 402,225 403,225 403,225 404,225 404,225 405,225 405,225 406,225 407,225 407,225 408,225 408,225 409,225 409,225 410,225 410,225 411,225 411,225 412,225 413,225 413,225 414,225 414,225 415,225 415,225 416,225 416,225 417,225 418,225 418,225 419,225 419,225 420,225 420,225 421,225 421,225 422,225 422,225 423,225 424,225 424,225 425,225 425,225 426,225 426,225 427,225 427,225 428,225 429,225 429,225 430,225 430,225 431,225 431,225 432,225 432,225 433,225 433,225 434,225 435,225 435,225 436,225 436,225 437,225 437,225 438,225 438,225 439,225 440,225 440,225 441,225 441,225 442,225 442,225 443,225 443,225 444,225 444,225 445,225 446,225 446,225 447,225 447,225 448,225 448,225 449,225 449,225 450,225 451,225 451,225 452,225 452,225 453,225 453,225 454,225 454,225 455,225 455,225 456,225 457,225 457,225 458,225 458,225 459,225 459,225 460,225 460,225 461,225 462,225 462,225 463,225 463,225 464,225 464,225 465,225 465,225 466,225 466,225 467,225 468,225 468,225 469,225 469,225 470,225 470,225 471,225 471,225 472,225 473,225 473,225 474,225 474,225 475,225 475,225 476,225 476,225 477,225 477,225 478,225 479,225 479,225 480,225 480,225 481,225 481,225 482,225 482,225 483,225 484,225 484,225 485,225 485,225 486,225 486,225 487,225 487,225 488,225 488,225 489,225 490,225 490,225 491,225 491,225 492,225 492,225 493,225 493,225 494,225 495,225 495,225 496,225 496,225 497,225 497,225 498,225 498,225 499,225 499,225 500,225 501,225 501,225 502,225 502,225 503,225 503,225 504,225 504,225 505,225 506,225 506,225 507,225 507,225 508,225 508,225 509,225 509,225 510,225 510,225 511,225 512,225 512,225 513,225 513,225 514,225 514,225 515,225 515,225 516,225 516,225 517,225 518,225 518,225 519,225 519,225 520,225 520,225 521,225 521,225 522,225 523,225 523,225 524,225 524,225 525,225 525,225 526,225 526,225 527,225 527,225 528,225 529,225 529,225 530,225 530,225 531,225 531,225 532,225 532,225 533,225 534,225 534,225 535,225 535,225 536,225 536,225 537,225 537,225 538,225 538,225 539,225 540,225 540,225 541,225 541,225 542,225 542,225 543,225 543,225 544,225 545,225 545,225 546,225 546,225 547,225 547,225 548,225 548,225 549,225 549,225 550,225 551,225 551,225 552,225 552,225 553,225 553,225 554,225 554,225 555,225 556,225 556,225 557,225 557,225 558,225 558,225 559,225 559,225 560,225 560,225 561,225 562,225 562,225 563,225 563,225 564,225 564,225 565,225 565,225 566,225 567,225 567,225 568,225 568,225 569,225 569,225 570,225 570,225 571,225 571,225 572,225 573,225 573,225 574,225 574,225 575,225 575,225 576,225 576,225 577,225 578,225 578,225 579,225 579,225 580,225 580,225 581,225 581,225 582,225 582,225 583,225 584,225 584,225 585,225 585,225 586,225 586,225 587,225 587,225 588,225 589,225 589,225 590,225 590,225 591,225 591,225 592,225 592,225 593,225 593,225 594,225 595,225 595,225 596,225 596,225 597,225 597,225 598,225 598,225 599,225 600,225 600,225 601,225 601,225 602,225 602,225 603,225 603,225 604,225 604,225 605,225 606,225 606,225 607,225 607,225 608,225 608,225 609,225 609,225 610,225 611,225 611,225 612,225 612,225 613,225 613,225 614,225 614,225 615,225 615,225 616,225 617,225 617,225 618,225 618,225 619,225 619,225 620,225 620,225 621,225 622,225 622,225 623,225 623,225 624,225 624,225 625,225 625,225 626,225 626,225 627,225 628,225 628,225 628,68 628,68 973,68 973,699 78,699 "/>
<polyline fill="none" opacity="1" stroke="#3CB44B" stroke-width="1" points="78,694 79,694 79,694 80,694 81,694 81,694 82,694 82,694 83,684 83,684 84,684 84,684 85,684 85,684 86,684 87,684 87,684 88,684 88,684 89,684 89,684 90,684 90,684 91,684 92,669 92,669 93,669 93,669 94,669 94,669 95,669 95,669 96,669 96,669 97,669 98,669 98,669 99,669 99,669 100,669 100,669 101,669 101,669 102,669 103,669 103,669 104,669 104,669 105,669 105,669 106,669 106,669 107,669 107,669 108,669 109,669 109,669 110,639 110,639 111,639 111,639 112,639 112,639 113,639 114,639 114,639 115,639 115,639 116,639 116,639 117,639 117,639 118,639 118,639 119,639 120,639 120,639 121,639 121,639 122,639 122,639 123,639 123,639 124,639 125,639 125,639 126,639 126,639 127,639 127,639 128,639 128,639 129,639 129,639 130,639 131,639 131,639 132,639 132,639 133,639 133,639 134,639 134,639 135,639 136,639 136,639 137,639 137,639 138,639 138,639 139,639 139,639 140,639 140,639 141,639 142,639 142,639 143,639 143,639 144,639 144,580 145,580 145,580 146,580 147,580 147,580 148,580 148,580 149,580 149,580 150,580 150,580 151,580 151,580 152,580 153,580 153,580 154,580 154,580 155,580 155,580 156,580 156,580 157,580 158,580 158,580 159,580 159,580 160,580 160,580 161,580 161,580 162,580 162,580 163,580 164,580 164,580 165,580 165,580 166,580 166,580 167,580 167,580 168,580 169,580 169,580 170,580 170,580 171,580 171,580 172,580 172,580 173,580 173,580 174,580 175,580 175,580 176,580 176,580 177,580 177,580 178,580 178,580 179,580 179,580 180,580 181,580 181,580 182,580 182,580 183,580 183,580 184,580 184,580 185,580 186,580 186,580 187,580 187,580 188,580 188,580 189,580 189,580 190,580 190,580 191,580 192,580 192,580 193,580 193,580 194,580 194,580 195,580 195,580 196,580 197,580 197,580 198,580 198,580 199,580 199,580 200,580 200,580 201,580 201,580 202,580 203,580 203,580 204,580 204,580 205,580 205,580 206,580 206,580 207,580 208,580 208,580 209,580 209,580 210,580 210,580 211,580 211,580 212,580 212,580 213,580 214,580 214,580 215,580 215,580 216,462 216,462 217,462 217,462 218,462 219,462 219,462 220,462 220,462 221,462 221,462 222,462 222,462 223,462 223,462 224,462 225,462 225,462 226,462 226,462 227,462 227,462 228,462 228,462 229,462 230,462 230,462 231,462 231,462 232,462 232,462 233,462 233,462 234,462 234,462 235,462 236,462 236,462 237,462 237,462 238,462 238,462 239,462 239,462 240,462 241,462 241,462 242,462 242,462 243,462 243,462 244,462 244,462 245,462 245,462 246,462 247,462 247,462 248,462 248,462 249,462 249,462 250,462 250,462 251,462 252,462 252,462 253,462 253,462 254,462 254,462 255,462 255,462 256,462 256,462 257,462 258,462 258,462 259,462 259,462 260,462 260,462 261,462 261,462 262,462 263,462 263,462 264,462 264,462 265,462 265,462 266,462 266,462 267,462 267,462 268,462 269,462 269,462 270,462 270,462 271,462 271,462 272,462 272,462 273,462 274,462 274,462 275,462 275,462 276,462 276,462 277,462 277,462 278,462 278,462 279,462 280,462 280,462 281,462 281,462 282,462 282,462 283,462 283,462 284,462 285,462 285,462 286,462 286,462 287,462 287,462 288,462 288,462 289,462 289,462 290,462 291,462 291,462 292,462 292,462 293,462 293,462 294,462 294,462 295,462 295,462 296,462 297,462 297,462 298,462 298,462 299,462 299,462 300,462 300,462 301,462 302,462 302,462 303,462 303,462 304,462 304,462 305,462 305,462 306,462 306,462 307,462 308,462 308,462 309,462 309,462 310,462 310,462 311,462 311,462 312,462 313,462 313,462 314,462 314,462 315,462 315,462 316,462 316,462 317,462 317,462 318,462 319,462 319,462 320,462 320,462 321,462 321,462 322,462 322,462 323,462 324,462 324,462 325,462 325,462 326,462 326,462 327,462 327,462 328,462 328,462 329,462 330,462 330,462 331,462 331,462 332,462 332,462 333,462 333,462 334,462 335,462 335,462 336,462 336,462 337,462 337,462 338,462 338,462 339,462 339,462 340,462 341,462 341,462 342,462 342,462 343,462 343,462 344,462 344,462 345,462 346,462 346,462 347,462 347,462 348,462 348,462 349,462 349,462 350,462 350,462 351,462 352,462 352,225 353,225 353,225 354,225 354,225 355,225 355,225 356,225 357,225 357,225 358,225 358,225 359,225 359,225 360,225 360,225 361,225 361,225 362,225 363,225 363,225 364,225 364,225 365,225 365,225 366,225 366,225 367,225 368,225 368,225 369,225 369,225 370,225 370,225 371,225 371,225 372,225 372,225 373,225 374,225 374,225 375,225 375,225 376,225 376,225 377,225 377,225 378,225 379,225 379,225 380,225 380,225 381,225 381,225 382,225 382,225 383,225 383,225 384,225 385,225 385,225 386,225 386,225 387,225 387,225 388,225 388,225 389,225 390,225 390,225 391,225 391,225 392,225 392,225 393,225 393,225 394,225 394,225 395,225 396,225 396,225 397,225 397,225 398,225 398,225 399,225 399,225 400,225 400,225 401,225 402,225 402,225 403,225 403,225 404,225 404,225 405,225 405,225 406,225 407,225 407,225 408,225 408,225 409,225 409,225 410,225 410,225 411,225 411,225 412,225 413,225 413,225 414,225 414,225 415,225 415,225 416,225 416,225 417,225 418,225 418,225 419,225 419,225 420,225 420,225 421,225 421,225 422,225 422,225 423,225 424,225 424,225 425,225 425,225 426,225 426,225 427,225 427,225 428,225 429,225 429,225 430,225 430,225 431,225 431,225 432,225 432,225 433,225 433,225 434,225 435,225 435,225 436,225 436,225 437,225 437,225 438,225 438,225 439,225 440,225 440,225 441,225 441,225 442,225 442,225 443,225 443,225 444,225 444,225 445,225 446,225 446,225 447,225 447,225 448,225 448,225 449,225 449,225 450,225 451,225 451,225 452,225 452,225 453,225 453,225 454,225 454,225 455,225 455,225 456,225 457,225 457,225 458,225 458,225 459,225 459,225 460,225 460,225 461,225 462,225 462,225 463,225 463,225 464,225 464,225 465,225 465,225 466,225 466,225 467,225 468,225 468,225 469,225 469,225 470,225 470,225 471,225 471,225 472,225 473,225 473,225 474,225 474,225 475,225 475,225 476,225 476,225 477,225 477,225 478,225 479,225 479,225 480,225 480,225 481,225 481,225 482,225 482,225 483,225 484,225 484,225 485,225 485,225 486,225 486,225 487,225 487,225 488,225 488,225 489,225 490,225 490,225 491,225 491,225 492,225 492,225 493,225 493,225 494,225 495,225 495,225 496,225 496,225 497,225 497,225 498,225 498,225 499,225 499,225 500,225 501,225 501,225 502,225 502,225 503,225 503,225 504,225 504,225 505,225 506,225 506,225 507,225 507,225 508,225 508,225 509,225 509,225 510,225 510,225 511,225 512,225 512,225 513,225 513,225 514,225 514,225 515,225 515,225 516,225 516,225 517,225 518,225 518,225 519,225 519,225 520,225 520,225 521,225 521,225 522,225 523,225 523,225 524,225 524,225 525,225 525,225 526,225 526,225 527,225 527,225 528,225 529,225 529,225 530,225 530,225 531,225 531,225 532,225 532,225 533,225 534,225 534,225 535,225 535,225 536,225 536,225 537,225 537,225 538,225 538,225 539,225 540,225 540,225 541,225 541,225 542,225 542,225 543,225 543,225 544,225 545,225 545,225 546,225 546,225 547,225 547,225 548,225 548,225 549,225 549,225 550,225 551,225 551,225 552,225 552,225 553,225 553,225 554,225 554,225 555,225 556,225 556,225 557,225 557,225 558,225 558,225 559,225 559,225 560,225 560,225 561,225 562,225 562,225 563,225 563,225 564,225 564,225 565,225 565,225 566,225 567,225 567,225 568,225 568,225 569,225 569,225 570,225 570,225 571,225 571,225 572,225 573,225 573,225 574,225 574,225 575,225 575,225 576,225 576,225 577,225 578,225 578,225 579,225 579,225 580,225 580,225 581,225 581,225 582,225 582,225 583,225 584,225 584,225 585,225 585,225 586,225 586,225 587,225 587,225 588,225 589,225 589,225 590,225 590,225 591,225 591,225 592,225 592,225 593,225 593,225 594,225 595,225 595,225 596,225 596,225 597,225 597,225 598,225 598,225 599,225 600,225 600,225 601,225 601,225 602,225 602,225 603,225 603,225 604,225 604,225 605,225 606,225 606,225 607,225 607,225 608,225 608,225 609,225 609,225 610,225 611,225 611,225 612,225 612,225 613,225 613,225 614,225 614,225 615,225 615,225 616,225 617,225 617,225 618,225 618,225 619,225 619,225 620,225 620,225 621,225 622,225 622,225 623,225 623,225 624,225 624,225 625,225 625,225 626,225 626,225 627,225 628,225 628,225 628,68 628,68 973,68 "/>
<polygon opacity="1" fill="#E6194B" points="78,699 79,699 79,699 80,699 81,699 81,699 82,699 82,699 83,699 83,699 84,699 84,699 85,699 85,699 86,699 87,699 87,699 88,699 88,699 89,699 89,699 90,699 90,699 91,699 92,699 92,699 93,699 93,699 94,699 94,699 95,699 95,699 96,699 96,699 97,699 98,699 98,699 99,699 99,699 100,699 100,699 101,699 101,699 102,699 103,699 103,699 104,699 104,699 105,699 105,699 106,699 106,699 107,699 107,699 108,699 109,699 109,699 110,699 110,699 111,699 111,699 112,699 112,699 113,699 114,699 114,699 115,699 115,699 116,699 116,699 117,699 117,699 118,699 118,699 119,699 120,699 120,699 121,699 121,699 122,699 122,699 123,699 123,699 124,699 125,699 125,699 126,699 126,699 127,699 127,699 128,699 128,699 129,699 129,699 130,699 131,699 131,699 132,699 132,699 133,699 133,699 134,699 134,699 135,699 136,699 136,699 137,699 137,699 138,699 138,699 139,699 139,699 140,699 140,699 141,699 142,699 142,699 143,699 143,699 144,699 144,699 145,699 145,699 146,699 147,699 147,699 148,699 148,699 149,699 149,699 150,699 150,699 151,699 151,699 152,699 153,699 153,699 154,699 154,699 155,699 155,699 156,699 156,699 157,699 158,699 158,699 159,699 159,699 160,699 160,699 161,699 161,699 162,699 162,699 163,699 164,699 164,699 165,699 165,699 166,699 166,699 167,699 167,699 168,699 169,699 169,699 170,699 170,699 171,699 171,699 172,699 172,699 173,699 173,699 174,699 175,699 175,699 176,699 176,699 177,699 177,699 178,699 178,699 179,699 179,699 180,699 181,699 181,699 182,699 182,699 183,699 183,699 184,699 184,699 185,699 186,699 186,699 187,699 187,699 188,699 188,699 189,699 189,699 190,699 190,699 191,699 192,699 192,699 193,699 193,699 194,699 194,699 195,699 195,699 196,699 197,699 197,699 198,699 198,699 199,699 199,699 200,699 200,699 201,699 201,699 202,699 203,699 203,699 204,699 204,699 205,699 205,699 206,699 206,699 207,699 208,699 208,699 209,699 209,699 210,699 210,699 211,699 211,699 212,699 212,699 213,699 214,699 214,699 215,699 215,699 216,699 216,699 217,699 217,699 218,699 219,699 219,699 220,699 220,699 221,699 221,699 222,699 222,699 223,699 223,699 224,699 225,699 225,699 226,699 226,699 227,699 227,699 228,699 228,699 229,699 230,699 230,699 231,699 231,699 232,699 232,699 233,699 233,699 234,699 234,699 235,699 236,699 236,699 237,699 237,699 238,699 238,699 239,699 239,699 240,699 241,699 241,699 242,699 242,699 243,699 243,699 244,699 244,699 245,699 245,699 246,699 247,699 247,699 248,699 248,699 249,699 249,699 250,699 250,699 251,699 252,699 252,699 253,699 253,699 254,699 254,699 255,699 255,699 256,699 256,699 257,699 258,699 258,699 259,699 259,699 260,699 260,699 261,699 261,699 262,699 263,699 263,699 264,699 264,699 265,699 265,699 266,699 266,699 267,699 267,699 268,699 269,699 269,699 270,699 270,699 271,699 271,699 272,699 272,699 273,699 274,699 274,699 275,699 275,699 276,699 276,699 277,699 277,699 278,699 278,699 279,699 280,699 280,699 281,699 281,699 282,699 282,699 283,699 283,699 284,699 285,699 285,699 286,699 286,699 287,699 287,699 288,699 288,699 289,699 289,699 290,699 291,699 291,699 292,699 292,699 293,699 293,699 294,699 294,699 295,699 295,699 296,699 297,699 297,699 298,699 298,699 299,699 299,699 300,699 300,699 301,699 302,699 302,699 303,699 303,699 304,699 304,699 305,699 305,699 306,699 306,699 307,699 308,699 308,699 309,699 309,699 310,699 310,699 311,699 311,699 312,699 313,699 313,699 314,699 314,699 315,699 315,699 316,699 316,699 317,699 317,699 318,699 319,699 319,699 320,699 320,699 321,699 321,699 322,699 322,699 323,699 324,699 324,699 325,699 325,699 326,699 326,699 327,699 327,699 328,699 328,699 329,699 330,699 330,699 331,699 331,699 332,699 332,699 333,699 333,699 334,699 335,699 335,699 336,699 336,699 337,699 337,699 338,699 338,699 339,699 339,699 340,699 341,699 341,699 342,699 342,699 343,699 343,699 344,699 344,699 345,699 346,699 346,699 347,699 347,699 348,699 348,699 349,699 349,699 350,699 350,699 351,699 352,699 352,699 353,699 353,699 354,699 354,699 355,699 355,699 356,699 357,699 357,699 358,699 358,699 359,699 359,699 360,699 360,699 361,699 361,699 362,699 363,699 363,699 364,699 364,699 365,699 365,699 366,699 366,699 367,699 368,699 368,699 369,699 369,699 370,699 370,699 371,699 371,699 372,699 372,699 373,699 374,699 374,699 375,699 375,699 376,699 376,699 377,699 377,699 378,699 379,699 379,699 380,699 380,699 381,699 381,699 382,699 382,699 383,699 383,699 384,699 385,699 385,699 386,699 386,699 387,699 387,699 388,699 388,699 389,699 390,699 390,699 391,699 391,699 392,699 392,699 393,699 393,699 394,699 394,699 395,699 396,699 396,699 397,699 397,699 398,699 398,699 399,699 399,699 400,699 400,699 401,699 402,699 402,699 403,699 403,699 404,699 404,699 405,699 405,699 406,699 407,699 407,699 408,699 408,699 409,699 409,699 410,699 410,699 411,699 411,699 412,699 413,699 413,699 414,699 414,699 415,699 415,699 416,699 416,699 417,699 418,699 418,699 419,699 419,699 420,699 420,699 421,699 421,699 422,699 422,699 423,699 424,699 424,699 425,699 425,699 426,699 426,699 427,699 427,699 428,699 429,699 429,699 430,699 430,699 431,699 431,699 432,699 432,699 433,699 433,699 434,699 435,699 435,699 436,699 436,699 437,699 437,699 438,699 438,699 439,699 440,699 440,699 441,699 441,699 442,699 442,699 443,699 443,699 444,699 444,699 445,699 446,699 446,699 447,699 447,699 448,699 448,699 449,699 449,699 450,699 451,699 451,699 452,699 452,699 453,699 453,699 454,699 454,699 455,699 455,699 456,699 457,699 457,699 458,699 458,699 459,699 459,699 460,699 460,699 461,699 462,699 462,699 463,699 463,699 464,699 464,699 465,699 465,699 466,699 466,699 467,699 468,699 468,699 469,699 469,699 470,699 470,699 471,699 471,699 472,699 473,699 473,699 474,699 474,699 475,699 475,699 476,699 476,699 477,699 477,699 478,699 479,699 479,699 480,699 480,699 481,699 481,699 482,699 482,699 483,699 484,699 484,699 485,699 485,699 486,699 486,699 487,699 487,699 488,699 488,699 489,699 490,699 490,699 491,699 491,699 492,699 492,699 493,699 493,699 494,699 495,699 495,699 496,699 496,699 497,699 497,699 498,699 498,699 499,699 499,699 500,699 501,699 501,699 502,699 502,699 503,699 503,699 504,699 504,699 505,699 506,699 506,699 507,699 507,699 508,699 508,699 509,699 509,699 510,699 510,699 511,699 512,699 512,699 513,699 513,699 514,699 514,699 515,699 515,699 516,699 516,699 517,699 518,699 518,699 519,699 519,699 520,699 520,699 521,699 521,699 522,699 523,699 523,699 524,699 524,699 525,699 525,699 526,699 526,699 527,699 527,699 528,699 529,699 529,699 530,699 530,699 531,699 531,699 532,699 532,699 533,699 534,699 534,699 535,699 535,699 536,699 536,699 537,699 537,699 538,699 538,699 539,699 540,699 540,699 541,699 541,699 542,699 542,699 543,699 543,699 544,699 545,699 545,699 546,699 546,699 547,699 547,699 548,699 548,699 549,699 549,699 550,699 551,699 551,699 552,699 552,699 553,699 553,699 554,699 554,699 555,699 556,699 556,699 557,699 557,699 558,699 558,699 559,699 559,699 560,699 560,699 561,699 562,699 562,699 563,699 563,699 564,699 564,699 565,699 565,699 566,699 567,699 567,699 568,699 568,699 569,699 569,699 570,699 570,699 571,699 571,699 572,699 573,699 573,699 574,699 574,699 575,699 575,699 576,699 576,699 577,699 578,699 578,699 579,699 579,699 580,699 580,699 581,699 581,699 582,699 582,699 583,699 584,699 584,699 585,699 585,699 586,699 586,699 587,699 587,699 588,699 589,699 589,699 590,699 590,699 591,699 591,699 592,699 592,699 593,699 593,699 594,699 595,699 595,699 596,699 596,699 597,699 597,699 598,699 598,699 599,699 600,699 600,699 601,699 601,699 602,699 602,699 603,699 603,699 604,699 604,699 605,699 606,699 606,699 607,699 607,699 608,699 608,699 609,699 609,699 610,699 611,699 611,699 612,699 612,699 613,699 613,699 614,699 614,699 615,699 615,699 616,699 617,699 617,699 618,699 618,699 619,699 619,699 620,699 620,699 621,699 622,699 622,699 623,699 623,699 624,699 624,699 625,699 625,699 626,699 626,699 627,699 628,699 628,699 628,68 628,68 973,68 973,699 78,699 "/>
<polyline fill="none" opacity="1" stroke="#E6194B" stroke-width="1" points="78,699 79,699 79,699 80,699 81,699 81,699 82,699 82,699 83,699 83,699 84,699 84,699 85,699 85,699 86,699 87,699 87,699 88,699 88,699 89,699 89,699 90,699 90,699 91,699 92,699 92,699 93,699 93,699 94,699 94,699 95,699 95,699 96,699 96,699 97,699 98,699 98,699 99,699 99,699 100,699 100,699 101,699 101,699 102,699 103,699 103,699 104,699 104,699 105,699 105,699 106,699 106,699 107,699 107,699 108,699 109,699 109,699 110,699 110,699 111,699 111,699 112,699 112,699 113,699 114,699 114,699 115,699 115,699 116,699 116,699 117,699 117,699 118,699 118,699 119,699 120,699 120,699 121,699 121,699 122,699 122,699 123,699 123,699 124,699 125,699 125,699 126,699 126,699 127,699 127,699 128,699 128,699 129,699 129,699 130,699 131,699 131,699 132,699 132,699 133,699 133,699 134,699 134,699 135,699 136,699 136,699 137,699 137,699 138,699 138,699 139,699 139,699 140,699 140,699 141,699 142,699 142,699 143,699 143,699 144,699 144,699 145,699 145,699 146,699 147,699 147,699 148,699 148,699 149,699 149,699 150,699 150,699 151,699 151,699 152,699 153,699 153,699 154,699 154,699 155,699 155,699 156,699 156,699 157,699 158,699 158,699 159,699 159,699 160,699 160,699 161,699 161,699 162,699 162,699 163,699 164,699 164,699 165,699 165,699 166,699 166,699 167,699 167,699 168,699 169,699 169,699 170,699 170,699 171,699 171,699 172,699 172,699 173,699 173,699 174,699 175,699 175,699 176,699 176,699 177,699 177,699 178,699 178,699 179,699 179,699 180,699 181,699 181,699 182,699 182,699 183,699 183,699 184,699 184,699 185,699 186,699 186,699 187,699 187,699 188,699 188,699 189,699 189,699 190,699 190,699 191,699 192,699 192,699 193,699 193,699 194,699 194,699 195,699 195,699 196,699 197,699 197,699 198,699 198,699 199,699 199,699 200,699 200,699 201,699 201,699 202,699 203,699 203,699 204,699 204,699 205,699 205,699 206,699 206,699 207,699 208,699 208,699 209,699 209,699 210,699 210,699 211,699 211,699 212,699 212,699 213,699 214,699 214,699 215,699 215,699 216,699 216,699 217,699 217,699 218,699 219,699 219,699 220,699 220,699 221,699 221,699 222,699 222,699 223,699 223,699 224,699 225,699 225,699 226,699 226,699 227,699 227,699 228,699 228,699 229,699 230,699 230,699 231,699 231,699 232,699 232,699 233,699 233,699 234,699 234,699 235,699 236,699 236,699 237,699 237,699 238,699 238,699 239,699 239,699 240,699 241,699 241,699 242,699 242,699 243,699 243,699 244,699 244,699 245,699 245,699 246,699 247,699 247,699 248,699 248,699 249,699 249,699 250,699 250,699 251,699 252,699 252,699 253,699 253,699 254,699 254,699 255,699 255,699 256,699 256,699 257,699 258,699 258,699 259,699 259,699 260,699 260,699 261,699 261,699 262,699 263,699 263,699 264,699 264,699 265,699 265,699 266,699 266,699 267,699 267,699 268,699 269,699 269,699 270,699 270,699 271,699 271,699 272,699 272,699 273,699 274,699 274,699 275,699 275,699 276,699 276,699 277,699 277,699 278,699 278,699 279,699 280,699 280,699 281,699 281,699 282,699 282,699 283,699 283,699 284,699 285,699 285,699 286,699 286,699 287,699 287,699 288,699 288,699 289,699 289,699 290,699 291,699 291,699 292,699 292,699 293,699 293,699 294,699 294,699 295,699 295,699 296,699 297,699 297,699 298,699 298,699 299,699 299,699 300,699 300,699 301,699 302,699 302,699 303,699 303,699 304,699 304,699 305,699 305,699 306,699 306,699 307,699 308,699 308,699 309,699 309,699 310,699 310,699 311,699 311,699 312,699 313,699 313,699 314,699 314,699 315,699 315,699 316,699 316,699 317,699 317,699 318,699 319,699 319,699 320,699 320,699 321,699 321,699 322,699 322,699 323,699 324,699 324,699 325,699 325,699 326,699 326,699 327,699 327,699 328,699 328,699 329,699 330,699 330,699 331,699 331,699 332,699 332,699 333,699 333,699 334,699 335,699 335,699 336,699 336,699 337,699 337,699 338,699 338,699 339,699 339,699 340,699 341,699 341,699 342,699 342,699 343,699 343,699 344,699 344,699 345,699 346,699 346,699 347,699 347,699 348,699 348,699 349,699 349,699 350,699 350,699 351,699 352,699 352,699 353,699 353,699 354,699 354,699 355,699 355,699 356,699 357,699 357,699 358,699 358,699 359,699 359,699 360,699 360,699 361,699 361,699 362,699 363,699 363,699 364,699 364,699 365,699 365,699 366,699 366,699 367,699 368,699 368,699 369,699 369,699 370,699 370,699 371,699 371,699 372,699 372,699 373,699 374,699 374,699 375,699 375,699 376,699 376,699 377,699 377,699 378,699 379,699 379,699 380,699 380,699 381,699 381,699 382,699 382,699 383,699 383,699 384,699 385,699 385,699 386,699 386,699 387,699 387,699 388,699 388,699 389,699 390,699 390,699 391,699 391,699 392,699 392,699 393,699 393,699 394,699 394,699 395,699 396,699 396,699 397,699 397,699 398,699 398,699 399,699 399,699 400,699 400,699 401,699 402,699 402,699 403,699 403,699 404,699 404,699 405,699 405,699 406,699 407,699 407,699 408,699 408,699 409,699 409,699 410,699 410,699 411,699 411,699 412,699 413,699 413,699 414,699 414,699 415,699 415,699 416,699 416,699 417,699 418,699 418,699 419,699 419,699 420,699 420,699 421,699 421,699 422,699 422,699 423,699 424,699 424,699 425,699 425,699 426,699 426,699 427,699 427,699 428,699 429,699 429,699 430,699 430,699 431,699 431,699 432,699 432,699 433,699 433,699 434,699 435,699 435,699 436,699 436,699 437,699 437,699 438,699 438,699 439,699 440,699 440,699 441,699 441,699 442,699 442,699 443,699 443,699 444,699 444,699 445,699 446,699 446,699 447,699 447,699 448,699 448,699 449,699 449,699 450,699 451,699 451,699 452,699 452,699 453,699 453,699 454,699 454,699 455,699 455,699 456,699 457,699 457,699 458,699 458,699 459,699 459,699 460,699 460,699 461,699 462,699 462,699 463,699 463,699 464,699 464,699 465,699 465,699 466,699 466,699 467,699 468,699 468,699 469,699 469,699 470,699 470,699 471,699 471,699 472,699 473,699 473,699 474,699 474,699 475,699 475,699 476,699 476,699 477,699 477,699 478,699 479,699 479,699 480,699 480,699 481,699 481,699 482,699 482,699 483,699 484,699 484,699 485,699 485,699 486,699 486,699 487,699 487,699 488,699 488,699 489,699 490,699 490,699 491,699 491,699 492,699 492,699 493,699 493,699 494,699 495,699 495,699 496,699 496,699 497,699 497,699 498,699 498,699 499,699 499,699 500,699 501,699 501,699 502,699 502,699 503,699 503,699 504,699 504,699 505,699 506,699 506,699 507,699 507,699 508,699 508,699 509,699 509,699 510,699 510,699 511,699 512,699 512,699 513,699 513,699 514,699 514,699 515,699 515,699 516,699 516,699 517,699 518,699 518,699 519,699 519,699 520,699 520,699 521,699 521,699 522,699 523,699 523,699 524,699 524,699 525,699 525,699 526,699 526,699 527,699 527,699 528,699 529,699 529,699 530,699 530,699 531,699 531,699 532,699 532,699 533,699 534,699 534,699 535,699 535,699 536,699 536,699 537,699 537,699 538,699 538,699 539,699 540,699 540,699 541,699 541,699 542,699 542,699 543,699 543,699 544,699 545,699 545,699 546,699 546,699 547,699 547,699 548,699 548,699 549,699 549,699 550,699 551,699 551,699 552,699 552,699 553,699 553,699 554,699 554,699 555,699 556,699 556,699 557,699 557,699 558,699 558,699 559,699 559,699 560,699 560,699 561,699 562,699 562,699 563,699 563,699 564,699 564,699 565,699 565,699 566,699 567,699 567,699 568,699 568,699 569,699 569,699 570,699 570,699 571,699 571,699 572,699 573,699 573,699 574,699 574,699 575,699 575,699 576,699 576,699 577,699 578,699 578,699 579,699 579,699 580,699 580,699 581,699 581,699 582,699 582,699 583,699 584,699 584,699 585,699 585,699 586,699 586,699 587,699 587,699 588,699 589,699 589,699 590,699 590,699 591,699 591,699 592,699 592,699 593,699 593,699 594,699 595,699 595,699 596,699 596,699 597,699 597,699 598,699 598,699 599,699 600,699 600,699 601,699 601,699 602,699 602,699 603,699 603,699 604,699 604,699 605,699 606,699 606,699 607,699 607,699 608,699 608,699 609,699 609,699 610,699 611,699 611,699 612,699 612,699 613,699 613,699 614,699 614,699 615,699 615,699 616,699 617,699 617,699 618,699 618,699 619,699 619,699 620,699 620,699 621,699 622,699 622,699 623,699 623,699 624,699 624,699 625,699 625,699 626,699 626,699 627,699 628,699 628,699 628,68 628,68 973,68 "/>
<line opacity="0.1" stroke="#000000" stroke-width="1" x1="89" y1="699" x2="89" y2="68"/>
<line opacity="0.1" stroke="#000000" stroke-width="1" x1="101" y1="699" x2="101" y2="68"/>
<line opacity="0.1" stroke="#000000" stroke-width="1" x1="112" y1="699" x2="112" y2="68"/>
<line opacity="0.1" stroke="#000000" stroke-width="1" x1="124" y1="699" x2="124" y2="68"/>
<line opacity="0.1" stroke="#000000" stroke-width="1" x1="136" y1="699" x2="136" y2="68"/>
<line opacity="0.1" stroke="#000000" stroke-width="1" x1="148" y1="699" x2="148" y2="68"/>
<line opacity="0.1" stroke="#000000" stroke-width="1" x1="160" y1="699" x2="160" y2="68"/>
<line opacity="0.1" stroke="#000000" stroke-width="1" x1="172" y1="699" x2="172" y2="68"/>
<line opacity="0.1" stroke="#000000" stroke-width="1" x1="184" y1="699" x2="184" y2="68"/>
<line opacity="0.1" stroke="#000000" stroke-width="1" x1="195" y1="699" x2="195" y2="68"/>
<line opacity="0.1" stroke="#000000" stroke-width="1" x1="207" y1="699" x2="207" y2="68"/>
<line opacity="0.1" stroke="#000000" stroke-width="1" x1="219" y1="699" x2="219" y2="68"/>
<line opacity="0.1" stroke="#000000" stroke-width="1" x1="231" y1="699" x2="231" y2="68"/>
<line opacity="0.1" stroke="#000000" stroke-width="1" x1="243" y1="699" x2="243" y2="68"/>
<line opacity="0.1" stroke="#000000" stroke-width="1" x1="255" y1="699" x2="255" y2="68"/>
<line opacity="0.1" stroke="#000000" stroke-width="1" x1="267" y1="699" x2="267" y2="68"/>
<line opacity="0.1" stroke="#000000" stroke-width="1" x1="278" y1="699" x2="278" y2="68"/>
<line opacity="0.1" stroke="#000000" stroke-width="1" x1="290" y1="699" x2="290" y2="68"/>
<line opacity="0.1" stroke="#000000" stroke-width="1" x1="302" y1="699" x2="302" y2="68"/>
<line opacity="0.1" stroke="#000000" stroke-width="1" x1="314" y1="699" x2="314" y2="68"/>
<line opacity="0.1" stroke="#000000" stroke-width="1" x1="326" y1="699" x2="326" y2="68"/>
<line opacity="0.1" stroke="#000000" stroke-width="1" x1="338" y1="699" x2="338" y2="68"/>
<line opacity="0.1" stroke="#000000" stroke-width="1" x1="350" y1="699" x2="350" y2="68"/>
<line opacity="0.1" stroke="#000000" stroke-width="1" x1="361" y1="699" x2="361" y2="68"/>
<line opacity="0.1" stroke="#000000" stroke-width="1" x1="373" y1="699" x2="373" y2="68"/>
<line opacity="0.1" stroke="#000000" stroke-width="1" x1="385" y1="699" x2="385" y2="68"/>
<line opacity="0.1" stroke="#000000" stroke-width="1" x1="397" y1="699" x2="397" y2="68"/>
<line opacity="0.1" stroke="#000000" stroke-width="1" x1="409" y1="699" x2="409" y2="68"/>
<line opacity="0.1" stroke="#000000" stroke-width="1" x1="421" y1="699" x2="421" y2="68"/>
<line opacity="0.1" stroke="#000000" stroke-width="1" x1="433" y1="699" x2="433" y2="68"/>
<line opacity="0.1" stroke="#000000" stroke-width="1" x1="444" y1="699" x2="444" y2="68"/>
<line opacity="0.1" stroke="#000000" stroke-width="1" x1="456" y1="699" x2="456" y2="68"/>
<line opacity="0.1" stroke="#000000" stroke-width="1" x1="468" y1="699" x2="468" y2="68"/>
<line opacity="0.1" stroke="#000000" stroke-width="1" x1="480" y1="699" x2="480" y2="68"/>
<line opacity="0.1" stroke="#000000" stroke-width="1" x1="492" y1="699" x2="492" y2="68"/>
<line opacity="0.1" stroke="#000000" stroke-width="1" x1="504" y1="699" x2="504" y2="68"/>
<line opacity="0.1" stroke="#000000" stroke-width="1" x1="516" y1="699" x2="516" y2="68"/>
<line opacity="0.1" stroke="#000000" stroke-width="1" x1="527" y1="699" x2="527" y2="68"/>
<line opacity="0.1" stroke="#000000" stroke-width="1" x1="539" y1="699" x2="539" y2="68"/>
<line opacity="0.1" stroke="#000000" stroke-width="1" x1="551" y1="699" x2="551" y2="68"/>
<line opacity="0.1" stroke="#000000" stroke-width="1" x1="563" y1="699" x2="563" y2="68"/>
<line opacity="0.1" stroke="#000000" stroke-width="1" x1="575" y1="699" x2="575" y2="68"/>
<line opacity="0.1" stroke="#000000" stroke-width="1" x1="587" y1="699" x2="587" y2="68"/>
<line opacity="0.1" stroke="#000000" stroke-width="1" x1="599" y1="699" x2="599" y2="68"/>
<line opacity="0.1" stroke="#000000" stroke-width="1" x1="610" y1="699" x2="610" y2="68"/>
<line opacity="0.1" stroke="#000000" stroke-width="1" x1="622" y1="699" x2="622" y2="68"/>
<line opacity="0.1" stroke="#000000" stroke-width="1" x1="634" y1="699" x2="634" y2="68"/>
<line opacity="0.1" stroke="#000000" stroke-width="1" x1="646" y1="699" x2="646" y2="68"/>
<line opacity="0.1" stroke="#000000" stroke-width="1" x1="658" y1="699" x2="658" y2="68"/>
<line opacity="0.1" stroke="#000000" stroke-width="1" x1="670" y1="699" x2="670" y2="68"/>
<line opacity="0.1" stroke="#000000" stroke-width="1" x1="682" y1="699" x2="682" y2="68"/>
<line opacity="0.1" stroke="#000000" stroke-width="1" x1="693" y1="699" x2="693" y2="68"/>
<line opacity="0.1" stroke="#000000" stroke-width="1" x1="705" y1="699" x2="705" y2="68"/>
<line opacity="0.1" stroke="#000000" stroke-width="1" x1="717" y1="699" x2="717" y2="68"/>
<line opacity="0.1" stroke="#000000" stroke-width="1" x1="729" y1="699" x2="729" y2="68"/>
<line opacity="0.1" stroke="#000000" stroke-width="1" x1="741" y1="699" x2="741" y2="68"/>
<line opacity="0.1" stroke="#000000" stroke-width="1" x1="753" y1="699" x2="753" y2="68"/>
<line opacity="0.1" stroke="#000000" stroke-width="1" x1="765" y1="699" x2="765" y2="68"/>
<line opacity="0.1" stroke="#000000" stroke-width="1" x1="776" y1="699" x2="776" y2="68"/>
<line opacity="0.1" stroke="#000000" stroke-width="1" x1="788" y1="699" x2="788" y2="68"/>
<line opacity="0.1" stroke="#000000" stroke-width="1" x1="800" y1="699" x2="800" y2="68"/>
<line opacity="0.1" stroke="#000000" stroke-width="1" x1="812" y1="699" x2="812" y2="68"/>
<line opacity="0.1" stroke="#000000" stroke-width="1" x1="824" y1="699" x2="824" y2="68"/>
<line opacity="0.1" stroke="#000000" stroke-width="1" x1="836" y1="699" x2="836" y2="68"/>
<line opacity="0.1" stroke="#000000" stroke-width="1" x1="848" y1="699" x2="848" y2="68"/>
<line opacity="0.1" stroke="#000000" stroke-width="1" x1="859" y1="699" x2="859" y2="68"/>
<line opacity="0.1" stroke="#000000" stroke-width="1" x1="871" y1="699" x2="871" y2="68"/>
<line opacity="0.1" stroke="#000000" stroke-width="1" x1="883" y1="699" x2="883" y2="68"/>
<line opacity="0.1" stroke="#000000" stroke-width="1" x1="895" y1="699" x2="895" y2="68"/>
<line opacity="0.1" stroke="#000000" stroke-width="1" x1="907" y1="699" x2="907" y2="68"/>
<line opacity="0.1" stroke="#000000" stroke-width="1" x1="919" y1="699" x2="919" y2="68"/>
<line opacity="0.1" stroke="#000000" stroke-width="1" x1="931" y1="699" x2="931" y2="68"/>
<line opacity="0.1" stroke="#000000" stroke-width="1" x1="942" y1="699" x2="942" y2="68"/>
<line opacity="0.1" stroke="#000000" stroke-width="1" x1="954" y1="699" x2="954" y2="68"/>
<line opacity="0.1" stroke="#000000" stroke-width="1" x1="966" y1="699" x2="966" y2="68"/>
<line opacity="0.1" stroke="#000000" stroke-width="1" x1="78" y1="699" x2="973" y2="699"/>
<line opacity="0.1" stroke="#000000" stroke-width="1" x1="78" y1="689" x2="973" y2="689"/>
<line opacity="0.1" stroke="#000000" stroke-width="1" x1="78" y1="679" x2="973" y2="679"/>
<line opacity="0.1" stroke="#000000" stroke-width="1" x1="78" y1="669" x2="973" y2="669"/>
<line opacity="0.1" stroke="#000000" stroke-width="1" x1="78" y1="659" x2="973" y2="659"/>
<line opacity="0.1" stroke="#000000" stroke-width="1" x1="78" y1="649" x2="973" y2="649"/>
<line opacity="0.1" stroke="#000000" stroke-width="1" x1="78" y1="639" x2="973" y2="639"/>
<line opacity="0.1" stroke="#000000" stroke-width="1" x1="78" y1="629" x2="973" y2="629"/>
<line opacity="0.1" stroke="#000000" stroke-width="1" x1="78" y1="619" x2="973" y2="619"/>
<line opacity="0.1" stroke="#000000" stroke-width="1" x1="78" y1="609" x2="973" y2="609"/>
<line opacity="0.1" stroke="#000000" stroke-width="1" x1="78" y1="599" x2="973" y2="599"/>
<line opacity="0.1" stroke="#000000" stroke-width="1" x1="78" y1="589" x2="973" y2="589"/>
<line opacity="0.1" stroke="#000000" stroke-width="1" x1="78" y1="579" x2="973" y2="579"/>
<line opacity="0.1" stroke="#000000" stroke-width="1" x1="78" y1="569" x2="973" y2="569"/>
<line opacity="0.1" stroke="#000000" stroke-width="1" x1="78" y1="559" x2="973" y2="559"/>
<line opacity="0.1" stroke="#000000" stroke-width="1" x1="78" y1="549" x2="973" y2="549"/>
<line opacity="0.1" stroke="#000000" stroke-width="1" x1="78" y1="539" x2="973" y2="539"/>
<line opacity="0.1" stroke="#000000" stroke-width="1" x1="78" y1="529" x2="973" y2="529"/>
<line opacity="0.1" stroke="#000000" stroke-width="1" x1="78" y1="519" x2="973" y2="519"/>
<line opacity="0.1" stroke="#000000" stroke-width="1" x1="78" y1="510" x2="973" y2="510"/>
<line opacity="0.1" stroke="#000000" stroke-width="1" x1="78" y1="500" x2="973" y2="500"/>
<line opacity="0.1" stroke="#000000" stroke-width="1" x1="78" y1="490" x2="973" y2="490"/>
<line opacity="0.1" stroke="#000000" stroke-width="1" x1="78" y1="480" x2="973" y2="480"/>
<line opacity="0.1" stroke="#000000" stroke-width="1" x1="78" y1="470" x2="973" y2="470"/>
<line opacity="0.1" stroke="#000000" stroke-width="1" x1="78" y1="460" x2="973" y2="460"/>
<line opacity="0.1" stroke="#000000" stroke-width="1" x1="78" y1="450" x2="973" y2="450"/>
<line opacity="0.1" stroke="#000000" stroke-width="1" x1="78" y1="440" x2="973" y2="440"/>
<line opacity="0.1" stroke="#000000" stroke-width="1" x1="78" y1="430" x2="973" y2="430"/>
<line opacity="0.1" stroke="#000000" stroke-width="1" x1="78" y1="420" x2="973" y2="420"/>
<line opacity="0.1" stroke="#000000" stroke-width="1" x1="78" y1="410" x2="973" y2="410"/>
<line opacity="0.1" stroke="#000000" stroke-width="1" x1="78" y1="400" x2="973" y2="400"/>
<line opacity="0.1" stroke="#000000" stroke-width="1" x1="78" y1="390" x2="973" y2="390"/>
<line opacity="0.1" stroke="#000000" stroke-width="1" x1="78" y1="380" x2="973" y2="380"/>
<line opacity="0.1" stroke="#000000" stroke-width="1" x1="78" y1="370" x2="973" y2="370"/>
<line opacity="0.1" stroke="#000000" stroke-width="1" x1="78" y1="360" x2="973" y2="360"/>
<line opacity="0.1" stroke="#000000" stroke-width="1" x1="78" y1="350" x2="973" y2="350"/>
<line opacity="0.1" stroke="#000000" stroke-width="1" x1="78" y1="340" x2="973" y2="340"/>
<line opacity="0.1" stroke="#000000" stroke-width="1" x1="78" y1="330" x2="973" y2="330"/>
<line opacity="0.1" stroke="#000000" stroke-width="1" x1="78" y1="321" x2="973" y2="321"/>
<line opacity="0.1" stroke="#000000" stroke-width="1" x1="78" y1="311" x2="973" y2="311"/>
<line opacity="0.1" stroke="#000000" stroke-width="1" x1="78" y1="301" x2="973" y2="301"/>
<line opacity="0.1" stroke="#000000" stroke-width="1" x1="78" y1="291" x2="973" y2="291"/>
<line opacity="0.1" stroke="#000000" stroke-width="1" x1="78" y1="281" x2="973" y2="281"/>
<line opacity="0.1" stroke="#000000" stroke-width="1" x1="78" y1="271" x2="973" y2="271"/>
<line opacity="0.1" stroke="#000000" stroke-width="1" x1="78" y1="261" x2="973" y2="261"/>
<line opacity="0.1" stroke="#000000" stroke-width="1" x1="78" y1="251" x2="973" y2="251"/>
<line opacity="0.1" stroke="#000000" stroke-width="1" x1="78" y1="241" x2="973" y2="241"/>
<line opacity="0.1" stroke="#000000" stroke-width="1" x1="78" y1="231" x2="973" y2="231"/>
<line opacity="0.1" stroke="#000000" stroke-width="1" x1="78" y1="221" x2="973" y2="221"/>
<line opacity="0.1" stroke="#000000" stroke-width="1" x1="78" y1="211" x2="973" y2="211"/>
<line opacity="0.1" stroke="#000000" stroke-width="1" x1="78" y1="201" x2="973" y2="201"/>
<line opacity="0.1" stroke="#000000" stroke-width="1" x1="78" y1="191" x2="973" y2="191"/>
<line opacity="0.1" stroke="#000000" stroke-width="1" x1="78" y1="181" x2="973" y2="181"/>
<line opacity="0.1" stroke="#000000" stroke-width="1" x1="78" y1="171" x2="973" y2="171"/>
<line opacity="0.1" stroke="#000000" stroke-width="1" x1="78" y1="161" x2="973" y2="161"/>
<line opacity="0.1" stroke="#000000" stroke-width="1" x1="78" y1="151" x2="973" y2="151"/>
<line opacity="0.1" stroke="#000000" stroke-width="1" x1="78" y1="141" x2="973" y2="141"/>
<line opacity="0.1" stroke="#000000" stroke-width="1" x1="78" y1="132" x2="973" y2="132"/>
<line opacity="0.1" stroke="#000000" stroke-width="1" x1="78" y1="122" x2="973" y2="122"/>
<line opacity="0.1" stroke="#000000" stroke-width="1" x1="78" y1="112" x2="973" y2="112"/>
<line opacity="0.1" stroke="#000000" stroke-width="1" x1="78" y1="102" x2="973" y2="102"/>
<line opacity="0.1" stroke="#000000" stroke-width="1" x1="78" y1="92" x2="973" y2="92"/>
<line opacity="0.1" stroke="#000000" stroke-width="1" x1="78" y1="82" x2="973" y2="82"/>
<line opacity="0.1" stroke="#000000" stroke-width="1" x1="78" y1="72" x2="973" y2="72"/>
<text x="8" y="384" dy="0.76em" text-anchor="middle" font-family="sans-serif" font-size="9.67741935483871" opacity="1" fill="#000000" transform="rotate(270, 8, 384)">
Memory usage
</text>
<text x="526" y="760" dy="-0.5ex" text-anchor="middle" font-family="sans-serif" font-size="9.67741935483871" opacity="1" fill="#000000">
Time
</text>
<line opacity="0.2" stroke="#000000" stroke-width="1" x1="112" y1="699" x2="112" y2="68"/>
<line opacity="0.2" stroke="#000000" stroke-width="1" x1="231" y1="699" x2="231" y2="68"/>
<line opacity="0.2" stroke="#000000" stroke-width="1" x1="350" y1="699" x2="350" y2="68"/>
<line opacity="0.2" stroke="#000000" stroke-width="1" x1="468" y1="699" x2="468" y2="68"/>
<line opacity="0.2" stroke="#000000" stroke-width="1" x1="587" y1="699" x2="587" y2="68"/>
<line opacity="0.2" stroke="#000000" stroke-width="1" x1="705" y1="699" x2="705" y2="68"/>
<line opacity="0.2" stroke="#000000" stroke-width="1" x1="824" y1="699" x2="824" y2="68"/>
<line opacity="0.2" stroke="#000000" stroke-width="1" x1="942" y1="699" x2="942" y2="68"/>
<line opacity="0.2" stroke="#000000" stroke-width="1" x1="78" y1="699" x2="973" y2="699"/>
<line opacity="0.2" stroke="#000000" stroke-width="1" x1="78" y1="599" x2="973" y2="599"/>
<line opacity="0.2" stroke="#000000" stroke-width="1" x1="78" y1="500" x2="973" y2="500"/>
<line opacity="0.2" stroke="#000000" stroke-width="1" x1="78" y1="400" x2="973" y2="400"/>
<line opacity="0.2" stroke="#000000" stroke-width="1" x1="78" y1="301" x2="973" y2="301"/>
<line opacity="0.2" stroke="#000000" stroke-width="1" x1="78" y1="201" x2="973" y2="201"/>
<line opacity="0.2" stroke="#000000" stroke-width="1" x1="78" y1="102" x2="973" y2="102"/>
<polyline fill="none" opacity="1" stroke="#000000" stroke-width="1" points="77,68 77,699 "/>
<text x="68" y="699" dy="0.5ex" text-anchor="end" font-family="sans-serif" font-size="9.67741935483871" opacity="1" fill="#000000">
0 MB
</text>
<polyline fill="none" opacity="1" stroke="#000000" stroke-width="1" points="72,699 77,699 "/>
<text x="68" y="599" dy="0.5ex" text-anchor="end" font-family="sans-serif" font-size="9.67741935483871" opacity="1" fill="#000000">
19 MB
</text>
<polyline fill="none" opacity="1" stroke="#000000" stroke-width="1" points="72,599 77,599 "/>
<text x="68" y="500" dy="0.5ex" text-anchor="end" font-family="sans-serif" font-size="9.67741935483871" opacity="1" fill="#000000">
38 MB
</text>
<polyline fill="none" opacity="1" stroke="#000000" stroke-width="1" points="72,500 77,500 "/>
<text x="68" y="400" dy="0.5ex" text-anchor="end" font-family="sans-serif" font-size="9.67741935483871" opacity="1" fill="#000000">
57 MB
</text>
<polyline fill="none" opacity="1" stroke="#000000" stroke-width="1" points="72,400 77,400 "/>
<text x="68" y="301" dy="0.5ex" text-anchor="end" font-family="sans-serif" font-size="9.67741935483871" opacity="1" fill="#000000">
76 MB
</text>
<polyline fill="none" opacity="1" stroke="#000000" stroke-width="1" points="72,301 77,301 "/>
<text x="68" y="201" dy="0.5ex" text-anchor="end" font-family="sans-serif" font-size="9.67741935483871" opacity="1" fill="#000000">
95 MB
</text>
<polyline fill="none" opacity="1" stroke="#000000" stroke-width="1" points="72,201 77,201 "/>
<text x="68" y="102" dy="0.5ex" text-anchor="end" font-family="sans-serif" font-size="9.67741935483871" opacity="1" fill="#000000">
114 MB
</text>
<polyline fill="none" opacity="1" stroke="#000000" stroke-width="1" points="72,102 77,102 "/>
<polyline fill="none" opacity="1" stroke="#000000" stroke-width="1" points="78,700 973,700 "/>
<text x="112" y="710" dy="0.76em" text-anchor="middle" font-family="sans-serif" font-size="9.67741935483871" opacity="1" fill="#000000">
07 17:46:40
</text>
<polyline fill="none" opacity="1" stroke="#000000" stroke-width="1" points="112,700 112,705 "/>
<text x="231" y="710" dy="0.76em" text-anchor="middle" font-family="sans-serif" font-size="9.67741935483871" opacity="1" fill="#000000">
07 20:33:20
</text>
<polyline fill="none" opacity="1" stroke="#000000" stroke-width="1" points="231,700 231,705 "/>
<text x="350" y="710" dy="0.76em" text-anchor="middle" font-family="sans-serif" font-size="9.67741935483871" opacity="1" fill="#000000">
07 23:20:00
</text>
<polyline fill="none" opacity="1" stroke="#000000" stroke-width="1" points="350,700 350,705 "/>
<text x="468" y="710" dy="0.76em" text-anchor="middle" font-family="sans-serif" font-size="9.67741935483871" opacity="1" fill="#000000">
08 02:06:40
</text>
<polyline fill="none" opacity="1" stroke="#000000" stroke-width="1" points="468,700 468,705 "/>
<text x="587" y="710" dy="0.76em" text-anchor="middle" font-family="sans-serif" font-size="9.67741935483871" opacity="1" fill="#000000">
08 04:53:20
</text>
<polyline fill="none" opacity="1" stroke="#000000" stroke-width="1" points="587,700 587,705 "/>
<text x="705" y="710" dy="0.76em" text-anchor="middle" font-family="sans-serif" font-size="9.67741935483871" opacity="1" fill="#000000">
08 07:40:00
</text>
<polyline fill="none" opacity="1" stroke="#000000" stroke-width="1" points="705,700 705,705 "/>
<text x="824" y="710" dy="0.76em" text-anchor="middle" font-family="sans-serif" font-size="9.67741935483871" opacity="1" fill="#000000">
08 10:26:40
</text>
<polyline fill="none" opacity="1" stroke="#000000" stroke-width="1" points="824,700 824,705 "/>
<text x="942" y="710" dy="0.76em" text-anchor="middle" font-family="sans-serif" font-size="9.67741935483871" opacity="1" fill="#000000">
08 13:13:20
</text>
<polyline fill="none" opacity="1" stroke="#000000" stroke-width="1" points="942,700 942,705 "/>
<polyline fill="none" opacity="1" stroke="#000000" stroke-width="1" points="78,67 974,67 "/>
<text x="112" y="58" dy="-0.5ex" text-anchor="middle" font-family="sans-serif" font-size="9.67741935483871" opacity="1" fill="#000000">
+00:49:04
</text>
<polyline fill="none" opacity="1" stroke="#000000" stroke-width="1" points="112,62 112,67 "/>
<text x="231" y="58" dy="-0.5ex" text-anchor="middle" font-family="sans-serif" font-size="9.67741935483871" opacity="1" fill="#000000">
+03:35:44
</text>
<polyline fill="none" opacity="1" stroke="#000000" stroke-width="1" points="231,62 231,67 "/>
<text x="350" y="58" dy="-0.5ex" text-anchor="middle" font-family="sans-serif" font-size="9.67741935483871" opacity="1" fill="#000000">
+06:22:24
</text>
<polyline fill="none" opacity="1" stroke="#000000" stroke-width="1" points="350,62 350,67 "/>
<text x="469" y="58" dy="-0.5ex" text-anchor="middle" font-family="sans-serif" font-size="9.67741935483871" opacity="1" fill="#000000">
+09:09:04
</text>
<polyline fill="none" opacity="1" stroke="#000000" stroke-width="1" points="469,62 469,67 "/>
<text x="587" y="58" dy="-0.5ex" text-anchor="middle" font-family="sans-serif" font-size="9.67741935483871" opacity="1" fill="#000000">
+11:55:44
</text>
<polyline fill="none" opacity="1" stroke="#000000" stroke-width="1" points="587,62 587,67 "/>
<text x="706" y="58" dy="-0.5ex" text-anchor="middle" font-family="sans-serif" font-size="9.67741935483871" opacity="1" fill="#000000">
+14:42:24
</text>
<polyline fill="none" opacity="1" stroke="#000000" stroke-width="1" points="706,62 706,67 "/>
<text x="825" y="58" dy="-0.5ex" text-anchor="middle" font-family="sans-serif" font-size="9.67741935483871" opacity="1" fill="#000000">
+17:29:04
</text>
<polyline fill="none" opacity="1" stroke="#000000" stroke-width="1" points="825,62 825,67 "/>
<text x="943" y="58" dy="-0.5ex" text-anchor="middle" font-family="sans-serif" font-size="9.67741935483871" opacity="1" fill="#000000">
+20:15:44
</text>
<polyline fill="none" opacity="1" stroke="#000000" stroke-width="1" points="943,62 943,67 "/>
<rect x="83" y="73" width="99" height="45" opacity="0.75" fill="#FFFFFF" stroke="none"/>
<rect x="83" y="73" width="99" height="45" opacity="1" fill="none" stroke="#000000"/>
<text x="123" y="83" dy="0.76em" text-anchor="start" font-family="sans-serif" font-size="9.67741935483871" opacity="1" fill="#000000">
Temporary
</text>
<text x="123" y="98" dy="0.76em" text-anchor="start" font-family="sans-serif" font-size="9.67741935483871" opacity="1" fill="#000000">
Leaked
</text>
<rect x="93" y="83" width="10" height="10" opacity="1" fill="#3CB44B" stroke="none"/>
<rect x="93" y="98" width="10" height="10" opacity="1" fill="#E6194B" stroke="none"/>
</svg>
