<svg width="1024" height="768" viewBox="0 0 1024 768" xmlns="http://www.w3.org/2000/svg">
<rect x="0" y="0" width="1024" height="768" opacity="1" fill="#FFFFFF" stroke="none"/>
<polygon opacity="1" fill="#3CB44B" points="78,684 79,664 80,631 81,603 82,573 83,544 83,512 84,466 85,436 86,404 87,367 88,334 89,298 90,260 91,224 91,191 92,155 93,126 94,116 95,107 96,103 97,105 98,106 99,103 100,99 100,105 101,106 102,106 103,110 104,108 105,101 106,102 107,102 108,111 108,114 109,116 110,111 111,114 112,118 113,130 114,138 115,142 116,144 116,154 117,162 118,158 119,148 120,136 121,128 122,123 123,114 124,113 124,126 125,129 126,122 127,103 128,101 129,99 130,105 131,126 132,138 133,132 133,119 134,100 135,81 136,78 137,72 138,72 139,95 140,128 141,139 141,129 142,105 143,87 144,94 145,98 146,112 147,128 148,149 149,147 149,130 150,115 151,97 152,93 153,103 154,105 155,116 156,132 157,146 158,148 158,151 159,139 160,124 161,113 162,107 163,109 164,118 165,141 166,144 166,133 167,130 168,128 169,124 170,119 171,119 172,119 173,130 174,129 174,135 175,145 176,131 177,126 178,123 179,120 180,126 181,133 182,169 182,137 183,119 184,120 185,127 186,125 187,129 188,131 189,131 190,150 191,133 191,132 192,136 193,144 194,138 195,141 196,145 197,179 198,171 199,136 199,121 200,126 201,141 202,147 203,139 204,136 205,145 206,168 207,154 207,149 208,149 209,164 210,163 211,164 212,171 213,185 214,151 215,143 215,156 216,154 217,147 218,167 219,170 220,175 221,178 222,177 223,180 224,180 224,168 225,162 226,203 227,203 228,181 229,166 230,148 231,123 232,111 232,101 233,76 234,77 235,71 236,68 237,70 238,133 239,133 240,155 240,155 241,154 242,155 243,155 244,155 245,155 246,155 247,155 248,155 249,156 249,156 250,156 251,156 252,156 253,156 254,156 255,156 256,156 257,156 257,156 258,156 259,156 260,156 261,156 262,156 263,156 264,156 265,156 265,156 266,156 267,156 268,156 269,156 270,156 271,156 272,156 273,156 273,156 274,156 275,156 276,156 277,156 278,155 279,155 280,155 281,155 282,155 282,155 283,155 284,155 285,155 286,155 287,157 288,157 289,158 290,158 290,158 291,157 292,157 293,157 294,157 295,157 296,157 297,157 298,157 298,157 299,157 300,157 301,157 302,158 303,158 304,158 305,158 306,158 306,158 307,157 308,157 309,157 310,157 311,157 312,157 313,157 314,157 315,157 315,157 316,157 317,157 318,157 319,157 320,157 321,157 322,157 323,157 323,157 324,157 325,157 326,157 327,157 328,157 329,157 330,157 331,157 331,157 332,157 333,157 334,157 335,157 336,157 337,157 338,157 339,158 340,158 340,158 341,158 342,158 343,158 344,158 345,158 346,158 347,157 348,158 348,158 349,158 350,158 351,157 352,157 353,157 354,157 355,157 356,157 356,157 357,157 358,158 359,158 360,158 361,158 362,158 363,158 364,158 364,158 365,158 366,158 367,158 368,158 369,158 370,158 371,158 372,158 373,158 373,158 374,158 375,158 376,158 377,158 378,158 379,158 380,158 381,158 381,158 382,158 383,158 384,158 385,158 386,158 387,158 388,158 389,158 389,158 390,158 391,158 392,158 393,159 394,159 395,159 396,159 397,159 397,159 398,159 399,159 400,159 401,159 402,159 403,159 404,159 405,159 406,159 406,158 407,158 408,158 409,158 410,158 411,158 412,158 413,158 414,158 414,158 415,159 416,159 417,159 418,159 419,159 420,159 421,159 422,159 422,159 423,159 424,159 425,159 426,159 427,159 428,159 429,159 430,159 431,159 431,159 432,159 433,159 434,159 435,159 436,159 437,159 438,159 439,159 439,159 440,159 441,159 442,159 443,159 444,160 445,160 446,160 447,160 447,160 448,160 449,160 450,160 451,160 452,160 453,160 454,160 455,160 455,160 456,160 457,160 458,160 459,160 460,160 461,160 462,160 463,160 464,160 464,160 465,159 466,159 467,159 468,159 469,159 470,160 471,160 472,160 472,160 473,160 474,160 475,160 476,160 477,159 478,159 479,159 480,159 480,159 481,159 482,159 483,159 484,159 485,159 486,159 487,159 488,159 488,159 489,159 490,159 491,159 492,160 493,160 494,160 495,160 496,160 497,160 497,160 498,160 499,160 500,160 501,160 502,160 503,160 504,160 505,160 505,160 506,160 507,160 508,160 509,160 510,160 511,160 512,160 513,160 513,160 514,160 515,160 516,160 517,160 518,159 519,159 520,159 521,159 522,159 522,159 523,159 524,159 525,159 526,159 527,159 528,159 529,159 530,159 530,159 531,159 532,159 533,159 534,159 535,159 536,159 537,159 538,159 538,159 539,159 540,159 541,159 542,159 543,159 544,159 545,159 546,159 546,159 547,159 548,159 549,159 550,159 551,159 552,159 553,159 554,159 555,159 555,159 556,159 557,159 558,160 559,160 560,160 561,160 562,160 563,160 563,160 564,160 565,159 566,159 567,159 568,159 569,159 570,159 571,160 571,159 572,159 573,159 574,159 575,159 576,159 577,159 578,159 579,159 579,159 580,159 581,159 582,159 583,159 584,159 585,159 586,159 587,159 588,159 588,159 589,160 590,160 591,160 592,160 593,160 594,160 595,160 596,160 596,160 597,160 598,160 599,160 600,160 601,160 602,160 603,160 604,160 604,160 605,160 606,160 607,160 608,160 609,160 610,160 611,160 612,160 613,160 613,160 614,160 615,160 616,160 617,160 618,160 619,160 620,160 621,160 621,160 622,160 623,160 624,160 625,160 626,160 627,160 628,160 629,160 629,160 630,160 631,160 632,160 633,160 634,160 635,160 636,160 637,160 637,160 638,164 639,164 640,164 641,164 642,164 643,164 644,164 645,164 646,164 646,164 647,164 648,164 649,164 650,164 651,164 652,164 653,164 654,164 654,164 655,164 656,164 657,164 658,164 659,164 660,164 661,164 662,164 662,164 663,164 664,164 665,164 666,164 667,164 668,164 669,164 670,164 670,164 671,164 672,164 673,164 674,164 675,164 676,164 677,164 678,164 679,164 679,164 680,164 681,164 682,164 683,164 684,164 685,164 686,164 687,164 687,164 688,164 689,164 690,164 691,164 692,164 693,164 694,164 695,164 695,164 696,164 697,164 698,164 699,164 700,164 701,164 702,164 703,164 704,164 704,164 705,164 706,164 707,164 708,164 709,164 710,164 711,164 712,164 712,164 713,164 714,164 715,164 716,164 717,164 718,164 719,164 720,164 720,164 721,164 722,164 723,164 724,164 725,164 726,164 727,164 728,164 728,164 729,164 730,164 731,164 732,164 733,164 734,164 735,164 736,164 737,164 737,164 738,164 739,164 740,164 741,164 742,164 743,164 744,164 745,164 745,164 746,164 747,164 748,164 749,164 750,164 751,165 752,165 753,165 753,165 754,165 755,165 756,165 757,165 758,165 759,165 760,165 761,165 761,165 762,165 763,165 764,165 765,165 766,165 767,165 768,165 769,165 770,165 770,165 771,165 772,165 773,165 774,165 775,165 776,165 777,165 778,165 778,165 779,165 780,165 781,165 782,165 783,165 784,165 785,165 786,165 786,165 787,165 788,166 789,166 790,166 791,166 792,166 793,166 794,166 795,166 795,165 796,165 797,165 798,165 799,165 800,165 801,165 802,165 803,165 803,165 804,165 805,165 806,165 807,165 808,165 809,165 810,165 811,165 811,165 812,165 813,165 814,165 815,165 816,165 817,165 818,165 819,165 819,165 820,165 821,165 822,165 823,165 824,165 825,165 826,165 827,165 828,165 828,165 829,165 830,165 831,165 832,165 833,165 834,165 835,165 836,165 836,165 837,165 838,165 839,166 840,166 841,166 842,166 843,166 844,166 844,166 845,166 846,166 847,166 848,166 849,166 850,166 851,166 852,166 852,166 853,166 854,166 855,166 856,166 857,166 858,166 859,166 860,166 861,166 861,166 862,166 863,166 864,166 865,166 866,166 867,166 868,166 869,166 869,166 870,166 871,166 872,166 873,166 874,166 875,166 876,166 877,166 877,166 878,166 879,166 880,166 881,166 882,166 883,166 884,166 885,166 886,166 886,166 887,166 888,166 889,166 890,166 891,166 892,166 893,166 894,166 894,166 895,166 896,166 897,166 898,166 899,166 900,166 901,166 902,166 902,166 903,166 904,166 905,165 906,166 907,166 908,166 909,166 910,166 910,166 911,166 912,166 913,166 914,166 915,166 916,166 917,166 918,166 919,166 919,166 920,166 921,166 922,166 923,166 924,166 925,166 926,166 927,166 927,166 928,166 929,166 930,166 931,166 932,166 933,166 934,166 935,166 935,166 936,166 937,166 938,166 939,166 940,166 941,166 942,166 943,166 943,166 944,166 945,166 946,167 947,167 948,167 949,166 950,166 951,166 952,166 952,166 953,166 954,166 955,166 956,166 957,166 958,166 959,167 960,167 960,167 961,167 962,167 963,167 964,167 964,167 965,167 966,167 967,167 968,167 968,167 969,167 970,166 970,166 973,166 973,699 78,699 "/>
<polyline fill="none" opacity="1" stroke="#3CB44B" stroke-width="1" points="78,684 79,664 80,631 81,603 82,573 83,544 83,512 84,466 85,436 86,404 87,367 88,334 89,298 90,260 91,224 91,191 92,155 93,126 94,116 95,107 96,103 97,105 98,106 99,103 100,99 100,105 101,106 102,106 103,110 104,108 105,101 106,102 107,102 108,111 108,114 109,116 110,111 111,114 112,118 113,130 114,138 115,142 116,144 116,154 117,162 118,158 119,148 120,136 121,128 122,123 123,114 124,113 124,126 125,129 126,122 127,103 128,101 129,99 130,105 131,126 132,138 133,132 133,119 134,100 135,81 136,78 137,72 138,72 139,95 140,128 141,139 141,129 142,105 143,87 144,94 145,98 146,112 147,128 148,149 149,147 149,130 150,115 151,97 152,93 153,103 154,105 155,116 156,132 157,146 158,148 158,151 159,139 160,124 161,113 162,107 163,109 164,118 165,141 166,144 166,133 167,130 168,128 169,124 170,119 171,119 172,119 173,130 174,129 174,135 175,145 176,131 177,126 178,123 179,120 180,126 181,133 182,169 182,137 183,119 184,120 185,127 186,125 187,129 188,131 189,131 190,150 191,133 191,132 192,136 193,144 194,138 195,141 196,145 197,179 198,171 199,136 199,121 200,126 201,141 202,147 203,139 204,136 205,145 206,168 207,154 207,149 208,149 209,164 210,163 211,164 212,171 213,185 214,151 215,143 215,156 216,154 217,147 218,167 219,170 220,175 221,178 222,177 223,180 224,180 224,168 225,162 226,203 227,203 228,181 229,166 230,148 231,123 232,111 232,101 233,76 234,77 235,71 236,68 237,70 238,133 239,133 240,155 240,155 241,154 242,155 243,155 244,155 245,155 246,155 247,155 248,155 249,156 249,156 250,156 251,156 252,156 253,156 254,156 255,156 256,156 257,156 257,156 258,156 259,156 260,156 261,156 262,156 263,156 264,156 265,156 265,156 266,156 267,156 268,156 269,156 270,156 271,156 272,156 273,156 273,156 274,156 275,156 276,156 277,156 278,155 279,155 280,155 281,155 282,155 282,155 283,155 284,155 285,155 286,155 287,157 288,157 289,158 290,158 290,158 291,157 292,157 293,157 294,157 295,157 296,157 297,157 298,157 298,157 299,157 300,157 301,157 302,158 303,158 304,158 305,158 306,158 306,158 307,157 308,157 309,157 310,157 311,157 312,157 313,157 314,157 315,157 315,157 316,157 317,157 318,157 319,157 320,157 321,157 322,157 323,157 323,157 324,157 325,157 326,157 327,157 328,157 329,157 330,157 331,157 331,157 332,157 333,157 334,157 335,157 336,157 337,157 338,157 339,158 340,158 340,158 341,158 342,158 343,158 344,158 345,158 346,158 347,157 348,158 348,158 349,158 350,158 351,157 352,157 353,157 354,157 355,157 356,157 356,157 357,157 358,158 359,158 360,158 361,158 362,158 363,158 364,158 364,158 365,158 366,158 367,158 368,158 369,158 370,158 371,158 372,158 373,158 373,158 374,158 375,158 376,158 377,158 378,158 379,158 380,158 381,158 381,158 382,158 383,158 384,158 385,158 386,158 387,158 388,158 389,158 389,158 390,158 391,158 392,158 393,159 394,159 395,159 396,159 397,159 397,159 398,159 399,159 400,159 401,159 402,159 403,159 404,159 405,159 406,159 406,158 407,158 408,158 409,158 410,158 411,158 412,158 413,158 414,158 414,158 415,159 416,159 417,159 418,159 419,159 420,159 421,159 422,159 422,159 423,159 424,159 425,159 426,159 427,159 428,159 429,159 430,159 431,159 431,159 432,159 433,159 434,159 435,159 436,159 437,159 438,159 439,159 439,159 440,159 441,159 442,159 443,159 444,160 445,160 446,160 447,160 447,160 448,160 449,160 450,160 451,160 452,160 453,160 454,160 455,160 455,160 456,160 457,160 458,160 459,160 460,160 461,160 462,160 463,160 464,160 464,160 465,159 466,159 467,159 468,159 469,159 470,160 471,160 472,160 472,160 473,160 474,160 475,160 476,160 477,159 478,159 479,159 480,159 480,159 481,159 482,159 483,159 484,159 485,159 486,159 487,159 488,159 488,159 489,159 490,159 491,159 492,160 493,160 494,160 495,160 496,160 497,160 497,160 498,160 499,160 500,160 501,160 502,160 503,160 504,160 505,160 505,160 506,160 507,160 508,160 509,160 510,160 511,160 512,160 513,160 513,160 514,160 515,160 516,160 517,160 518,159 519,159 520,159 521,159 522,159 522,159 523,159 524,159 525,159 526,159 527,159 528,159 529,159 530,159 530,159 531,159 532,159 533,159 534,159 535,159 536,159 537,159 538,159 538,159 539,159 540,159 541,159 542,159 543,159 544,159 545,159 546,159 546,159 547,159 548,159 549,159 550,159 551,159 552,159 553,159 554,159 555,159 555,159 556,159 557,159 558,160 559,160 560,160 561,160 562,160 563,160 563,160 564,160 565,159 566,159 567,159 568,159 569,159 570,159 571,160 571,159 572,159 573,159 574,159 575,159 576,159 577,159 578,159 579,159 579,159 580,159 581,159 582,159 583,159 584,159 585,159 586,159 587,159 588,159 588,159 589,160 590,160 591,160 592,160 593,160 594,160 595,160 596,160 596,160 597,160 598,160 599,160 600,160 601,160 602,160 603,160 604,160 604,160 605,160 606,160 607,160 608,160 609,160 610,160 611,160 612,160 613,160 613,160 614,160 615,160 616,160 617,160 618,160 619,160 620,160 621,160 621,160 622,160 623,160 624,160 625,160 626,160 627,160 628,160 629,160 629,160 630,160 631,160 632,160 633,160 634,160 635,160 636,160 637,160 637,160 638,164 639,164 640,164 641,164 642,164 643,164 644,164 645,164 646,164 646,164 647,164 648,164 649,164 650,164 651,164 652,164 653,164 654,164 654,164 655,164 656,164 657,164 658,164 659,164 660,164 661,164 662,164 662,164 663,164 664,164 665,164 666,164 667,164 668,164 669,164 670,164 670,164 671,164 672,164 673,164 674,164 675,164 676,164 677,164 678,164 679,164 679,164 680,164 681,164 682,164 683,164 684,164 685,164 686,164 687,164 687,164 688,164 689,164 690,164 691,164 692,164 693,164 694,164 695,164 695,164 696,164 697,164 698,164 699,164 700,164 701,164 702,164 703,164 704,164 704,164 705,164 706,164 707,164 708,164 709,164 710,164 711,164 712,164 712,164 713,164 714,164 715,164 716,164 717,164 718,164 719,164 720,164 720,164 721,164 722,164 723,164 724,164 725,164 726,164 727,164 728,164 728,164 729,164 730,164 731,164 732,164 733,164 734,164 735,164 736,164 737,164 737,164 738,164 739,164 740,164 741,164 742,164 743,164 744,164 745,164 745,164 746,164 747,164 748,164 749,164 750,164 751,165 752,165 753,165 753,165 754,165 755,165 756,165 757,165 758,165 759,165 760,165 761,165 761,165 762,165 763,165 764,165 765,165 766,165 767,165 768,165 769,165 770,165 770,165 771,165 772,165 773,165 774,165 775,165 776,165 777,165 778,165 778,165 779,165 780,165 781,165 782,165 783,165 784,165 785,165 786,165 786,165 787,165 788,166 789,166 790,166 791,166 792,166 793,166 794,166 795,166 795,165 796,165 797,165 798,165 799,165 800,165 801,165 802,165 803,165 803,165 804,165 805,165 806,165 807,165 808,165 809,165 810,165 811,165 811,165 812,165 813,165 814,165 815,165 816,165 817,165 818,165 819,165 819,165 820,165 821,165 822,165 823,165 824,165 825,165 826,165 827,165 828,165 828,165 829,165 830,165 831,165 832,165 833,165 834,165 835,165 836,165 836,165 837,165 838,165 839,166 840,166 841,166 842,166 843,166 844,166 844,166 845,166 846,166 847,166 848,166 849,166 850,166 851,166 852,166 852,166 853,166 854,166 855,166 856,166 857,166 858,166 859,166 860,166 861,166 861,166 862,166 863,166 864,166 865,166 866,166 867,166 868,166 869,166 869,166 870,166 871,166 872,166 873,166 874,166 875,166 876,166 877,166 877,166 878,166 879,166 880,166 881,166 882,166 883,166 884,166 885,166 886,166 886,166 887,166 888,166 889,166 890,166 891,166 892,166 893,166 894,166 894,166 895,166 896,166 897,166 898,166 899,166 900,166 901,166 902,166 902,166 903,166 904,166 905,165 906,166 907,166 908,166 909,166 910,166 910,166 911,166 912,166 913,166 914,166 915,166 916,166 917,166 918,166 919,166 919,166 920,166 921,166 922,166 923,166 924,166 925,166 926,166 927,166 927,166 928,166 929,166 930,166 931,166 932,166 933,166 934,166 935,166 935,166 936,166 937,166 938,166 939,166 940,166 941,166 942,166 943,166 943,166 944,166 945,166 946,167 947,167 948,167 949,166 950,166 951,166 952,166 952,166 953,166 954,166 955,166 956,166 957,166 958,166 959,167 960,167 960,167 961,167 962,167 963,167 964,167 964,167 965,167 966,167 967,167 968,167 968,167 969,167 970,166 970,166 973,166 "/>
<polygon opacity="1" fill="#E6194B" points="78,699 79,699 80,699 81,699 82,699 83,699 83,699 84,699 85,699 86,699 87,699 88,699 89,699 90,699 91,699 91,699 92,699 93,699 94,699 95,699 96,699 97,699 98,699 99,699 100,699 100,699 101,699 102,699 103,699 104,699 105,699 106,699 107,699 108,699 108,699 109,699 110,699 111,699 112,699 113,699 114,699 115,699 116,699 116,699 117,699 118,699 119,699 120,699 121,699 122,699 123,699 124,699 124,699 125,699 126,699 127,699 128,699 129,699 130,699 131,699 132,699 133,699 133,699 134,699 135,699 136,699 137,699 138,699 139,699 140,699 141,699 141,699 142,699 143,699 144,699 145,699 146,699 147,699 148,699 149,699 149,699 150,699 151,699 152,699 153,699 154,699 155,699 156,699 157,699 158,699 158,699 159,699 160,699 161,699 162,699 163,699 164,699 165,699 166,699 166,699 167,699 168,699 169,699 170,699 171,699 172,699 173,699 174,699 174,699 175,699 176,699 177,699 178,699 179,699 180,699 181,699 182,699 182,699 183,699 184,699 185,699 186,699 187,699 188,699 189,699 190,699 191,699 191,699 192,699 193,699 194,699 195,699 196,699 197,699 198,699 199,699 199,699 200,699 201,699 202,699 203,699 204,699 205,699 206,699 207,699 207,699 208,699 209,699 210,699 211,699 212,699 213,699 214,699 215,699 215,699 216,699 217,699 218,699 219,699 220,699 221,699 222,699 223,699 224,699 224,699 225,698 226,693 227,686 228,660 229,636 230,612 231,574 232,533 232,499 233,451 234,408 235,358 236,287 237,203 238,182 239,182 240,182 240,182 241,182 242,182 243,182 244,182 245,182 246,182 247,182 248,182 249,182 249,182 250,182 251,182 252,182 253,182 254,182 255,182 256,182 257,182 257,182 258,182 259,182 260,182 261,181 262,181 263,181 264,181 265,181 265,181 266,181 267,181 268,181 269,181 270,181 271,181 272,181 273,181 273,181 274,181 275,181 276,181 277,181 278,181 279,181 280,181 281,181 282,181 282,181 283,181 284,181 285,181 286,181 287,181 288,181 289,181 290,181 290,181 291,181 292,181 293,181 294,181 295,181 296,181 297,181 298,181 298,181 299,181 300,181 301,181 302,181 303,181 304,181 305,181 306,181 306,181 307,180 308,180 309,180 310,180 311,180 312,180 313,180 314,180 315,180 315,180 316,180 317,180 318,180 319,180 320,180 321,180 322,180 323,180 323,180 324,180 325,180 326,180 327,180 328,180 329,180 330,180 331,180 331,180 332,180 333,180 334,180 335,180 336,180 337,180 338,180 339,180 340,180 340,180 341,180 342,180 343,180 344,180 345,180 346,180 347,180 348,180 348,180 349,180 350,180 351,179 352,179 353,179 354,179 355,179 356,179 356,179 357,179 358,179 359,179 360,179 361,179 362,179 363,179 364,179 364,179 365,179 366,179 367,179 368,179 369,179 370,179 371,179 372,179 373,179 373,179 374,179 375,179 376,179 377,179 378,179 379,179 380,179 381,179 381,179 382,179 383,179 384,179 385,179 386,179 387,179 388,179 389,179 389,179 390,179 391,179 392,179 393,179 394,179 395,179 396,179 397,179 397,179 398,179 399,179 400,179 401,179 402,179 403,179 404,179 405,179 406,178 406,178 407,178 408,178 409,178 410,178 411,178 412,178 413,178 414,178 414,178 415,178 416,178 417,178 418,178 419,178 420,178 421,178 422,178 422,178 423,178 424,178 425,178 426,178 427,178 428,178 429,178 430,178 431,178 431,178 432,178 433,178 434,178 435,178 436,178 437,178 438,178 439,178 439,178 440,178 441,178 442,178 443,178 444,178 445,178 446,178 447,178 447,178 448,178 449,178 450,178 451,178 452,178 453,178 454,178 455,178 455,178 456,178 457,177 458,177 459,177 460,177 461,177 462,177 463,177 464,177 464,177 465,177 466,177 467,177 468,177 469,177 470,177 471,177 472,177 472,177 473,177 474,177 475,177 476,177 477,177 478,177 479,177 480,177 480,177 481,177 482,177 483,177 484,177 485,177 486,177 487,177 488,177 488,177 489,176 490,176 491,176 492,176 493,176 494,176 495,176 496,176 497,176 497,176 498,176 499,176 500,176 501,176 502,176 503,176 504,176 505,176 505,176 506,176 507,176 508,176 509,176 510,176 511,176 512,176 513,176 513,176 514,176 515,176 516,176 517,176 518,176 519,176 520,176 521,176 522,176 522,176 523,175 524,175 525,175 526,175 527,175 528,175 529,175 530,175 530,175 531,175 532,175 533,175 534,175 535,175 536,175 537,175 538,175 538,175 539,175 540,175 541,175 542,175 543,175 544,175 545,175 546,175 546,175 547,175 548,175 549,175 550,175 551,175 552,175 553,175 554,175 555,175 555,175 556,175 557,175 558,175 559,175 560,175 561,175 562,175 563,175 563,175 564,175 565,174 566,174 567,174 568,174 569,174 570,174 571,174 571,174 572,174 573,174 574,174 575,174 576,174 577,174 578,174 579,174 579,174 580,174 581,174 582,174 583,174 584,174 585,174 586,174 587,174 588,174 588,174 589,174 590,174 591,174 592,174 593,174 594,174 595,174 596,174 596,174 597,174 598,174 599,174 600,174 601,174 602,174 603,174 604,174 604,174 605,174 606,174 607,173 608,173 609,173 610,173 611,173 612,173 613,173 613,173 614,173 615,173 616,173 617,173 618,173 619,173 620,173 621,173 621,173 622,173 623,173 624,173 625,173 626,173 627,173 628,173 629,173 629,173 630,173 631,173 632,173 633,173 634,173 635,172 636,172 637,172 637,172 638,172 639,172 640,172 641,172 642,172 643,172 644,172 645,172 646,172 646,172 647,172 648,172 649,172 650,172 651,172 652,172 653,172 654,172 654,172 655,172 656,172 657,172 658,172 659,172 660,172 661,172 662,172 662,172 663,172 664,172 665,172 666,172 667,172 668,172 669,172 670,172 670,172 671,172 672,172 673,172 674,172 675,172 676,172 677,172 678,172 679,172 679,172 680,172 681,172 682,172 683,172 684,172 685,172 686,172 687,172 687,172 688,172 689,172 690,172 691,172 692,172 693,172 694,172 695,172 695,172 696,172 697,172 698,172 699,172 700,172 701,171 702,171 703,171 704,171 704,171 705,171 706,171 707,171 708,171 709,171 710,171 711,171 712,171 712,171 713,171 714,171 715,171 716,171 717,171 718,171 719,171 720,171 720,171 721,171 722,171 723,171 724,171 725,171 726,171 727,171 728,171 728,171 729,171 730,171 731,171 732,171 733,171 734,171 735,171 736,171 737,171 737,171 738,171 739,171 740,171 741,171 742,171 743,170 744,170 745,170 745,170 746,170 747,170 748,170 749,170 750,170 751,170 752,170 753,170 753,170 754,170 755,170 756,170 757,170 758,170 759,170 760,170 761,170 761,170 762,170 763,170 764,170 765,170 766,170 767,170 768,170 769,170 770,170 770,170 771,170 772,170 773,170 774,170 775,170 776,170 777,170 778,170 778,170 779,170 780,170 781,170 782,170 783,170 784,170 785,170 786,170 786,170 787,170 788,170 789,170 790,170 791,170 792,170 793,170 794,170 795,170 795,170 796,170 797,170 798,170 799,170 800,170 801,170 802,170 803,170 803,170 804,170 805,170 806,170 807,170 808,170 809,170 810,170 811,170 811,170 812,170 813,170 814,170 815,170 816,169 817,169 818,169 819,169 819,169 820,169 821,169 822,169 823,169 824,169 825,169 826,169 827,169 828,169 828,169 829,169 830,169 831,169 832,169 833,169 834,169 835,169 836,169 836,169 837,169 838,169 839,169 840,169 841,169 842,169 843,169 844,169 844,169 845,169 846,169 847,169 848,169 849,169 850,169 851,169 852,169 852,169 853,169 854,169 855,169 856,169 857,169 858,169 859,169 860,169 861,169 861,169 862,169 863,168 864,168 865,168 866,168 867,168 868,168 869,168 869,168 870,168 871,168 872,168 873,168 874,168 875,168 876,168 877,168 877,168 878,168 879,168 880,168 881,168 882,168 883,168 884,168 885,168 886,168 886,168 887,168 888,168 889,168 890,168 891,168 892,168 893,168 894,168 894,168 895,168 896,168 897,168 898,168 899,168 900,168 901,168 902,168 902,168 903,168 904,168 905,168 906,168 907,168 908,168 909,168 910,168 910,168 911,168 912,168 913,168 914,168 915,168 916,168 917,168 918,168 919,168 919,168 920,168 921,168 922,168 923,168 924,168 925,168 926,168 927,168 927,168 928,168 929,167 930,167 931,167 932,167 933,167 934,167 935,167 935,167 936,167 937,167 938,167 939,167 940,167 941,167 942,167 943,167 943,167 944,167 945,167 946,167 947,167 948,167 949,167 950,167 951,167 952,167 952,167 953,167 954,167 955,167 956,167 957,167 958,167 959,167 960,167 960,167 961,167 962,167 963,167 964,167 964,167 965,167 966,167 967,167 968,167 968,167 969,167 970,166 970,166 973,166 973,699 78,699 "/>
<polyline fill="none" opacity="1" stroke="#E6194B" stroke-width="1" points="78,699 79,699 80,699 81,699 82,699 83,699 83,699 84,699 85,699 86,699 87,699 88,699 89,699 90,699 91,699 91,699 92,699 93,699 94,699 95,699 96,699 97,699 98,699 99,699 100,699 100,699 101,699 102,699 103,699 104,699 105,699 106,699 107,699 108,699 108,699 109,699 110,699 111,699 112,699 113,699 114,699 115,699 116,699 116,699 117,699 118,699 119,699 120,699 121,699 122,699 123,699 124,699 124,699 125,699 126,699 127,699 128,699 129,699 130,699 131,699 132,699 133,699 133,699 134,699 135,699 136,699 137,699 138,699 139,699 140,699 141,699 141,699 142,699 143,699 144,699 145,699 146,699 147,699 148,699 149,699 149,699 150,699 151,699 152,699 153,699 154,699 155,699 156,699 157,699 158,699 158,699 159,699 160,699 161,699 162,699 163,699 164,699 165,699 166,699 166,699 167,699 168,699 169,699 170,699 171,699 172,699 173,699 174,699 174,699 175,699 176,699 177,699 178,699 179,699 180,699 181,699 182,699 182,699 183,699 184,699 185,699 186,699 187,699 188,699 189,699 190,699 191,699 191,699 192,699 193,699 194,699 195,699 196,699 197,699 198,699 199,699 199,699 200,699 201,699 202,699 203,699 204,699 205,699 206,699 207,699 207,699 208,699 209,699 210,699 211,699 212,699 213,699 214,699 215,699 215,699 216,699 217,699 218,699 219,699 220,699 221,699 222,699 223,699 224,699 224,699 225,698 226,693 227,686 228,660 229,636 230,612 231,574 232,533 232,499 233,451 234,408 235,358 236,287 237,203 238,182 239,182 240,182 240,182 241,182 242,182 243,182 244,182 245,182 246,182 247,182 248,182 249,182 249,182 250,182 251,182 252,182 253,182 254,182 255,182 256,182 257,182 257,182 258,182 259,182 260,182 261,181 262,181 263,181 264,181 265,181 265,181 266,181 267,181 268,181 269,181 270,181 271,181 272,181 273,181 273,181 274,181 275,181 276,181 277,181 278,181 279,181 280,181 281,181 282,181 282,181 283,181 284,181 285,181 286,181 287,181 288,181 289,181 290,181 290,181 291,181 292,181 293,181 294,181 295,181 296,181 297,181 298,181 298,181 299,181 300,181 301,181 302,181 303,181 304,181 305,181 306,181 306,181 307,180 308,180 309,180 310,180 311,180 312,180 313,180 314,180 315,180 315,180 316,180 317,180 318,180 319,180 320,180 321,180 322,180 323,180 323,180 324,180 325,180 326,180 327,180 328,180 329,180 330,180 331,180 331,180 332,180 333,180 334,180 335,180 336,180 337,180 338,180 339,180 340,180 340,180 341,180 342,180 343,180 344,180 345,180 346,180 347,180 348,180 348,180 349,180 350,180 351,179 352,179 353,179 354,179 355,179 356,179 356,179 357,179 358,179 359,179 360,179 361,179 362,179 363,179 364,179 364,179 365,179 366,179 367,179 368,179 369,179 370,179 371,179 372,179 373,179 373,179 374,179 375,179 376,179 377,179 378,179 379,179 380,179 381,179 381,179 382,179 383,179 384,179 385,179 386,179 387,179 388,179 389,179 389,179 390,179 391,179 392,179 393,179 394,179 395,179 396,179 397,179 397,179 398,179 399,179 400,179 401,179 402,179 403,179 404,179 405,179 406,178 406,178 407,178 408,178 409,178 410,178 411,178 412,178 413,178 414,178 414,178 415,178 416,178 417,178 418,178 419,178 420,178 421,178 422,178 422,178 423,178 424,178 425,178 426,178 427,178 428,178 429,178 430,178 431,178 431,178 432,178 433,178 434,178 435,178 436,178 437,178 438,178 439,178 439,178 440,178 441,178 442,178 443,178 444,178 445,178 446,178 447,178 447,178 448,178 449,178 450,178 451,178 452,178 453,178 454,178 455,178 455,178 456,178 457,177 458,177 459,177 460,177 461,177 462,177 463,177 464,177 464,177 465,177 466,177 467,177 468,177 469,177 470,177 471,177 472,177 472,177 473,177 474,177 475,177 476,177 477,177 478,177 479,177 480,177 480,177 481,177 482,177 483,177 484,177 485,177 486,177 487,177 488,177 488,177 489,176 490,176 491,176 492,176 493,176 494,176 495,176 496,176 497,176 497,176 498,176 499,176 500,176 501,176 502,176 503,176 504,176 505,176 505,176 506,176 507,176 508,176 509,176 510,176 511,176 512,176 513,176 513,176 514,176 515,176 516,176 517,176 518,176 519,176 520,176 521,176 522,176 522,176 523,175 524,175 525,175 526,175 527,175 528,175 529,175 530,175 530,175 531,175 532,175 533,175 534,175 535,175 536,175 537,175 538,175 538,175 539,175 540,175 541,175 542,175 543,175 544,175 545,175 546,175 546,175 547,175 548,175 549,175 550,175 551,175 552,175 553,175 554,175 555,175 555,175 556,175 557,175 558,175 559,175 560,175 561,175 562,175 563,175 563,175 564,175 565,174 566,174 567,174 568,174 569,174 570,174 571,174 571,174 572,174 573,174 574,174 575,174 576,174 577,174 578,174 579,174 579,174 580,174 581,174 582,174 583,174 584,174 585,174 586,174 587,174 588,174 588,174 589,174 590,174 591,174 592,174 593,174 594,174 595,174 596,174 596,174 597,174 598,174 599,174 600,174 601,174 602,174 603,174 604,174 604,174 605,174 606,174 607,173 608,173 609,173 610,173 611,173 612,173 613,173 613,173 614,173 615,173 616,173 617,173 618,173 619,173 620,173 621,173 621,173 622,173 623,173 624,173 625,173 626,173 627,173 628,173 629,173 629,173 630,173 631,173 632,173 633,173 634,173 635,172 636,172 637,172 637,172 638,172 639,172 640,172 641,172 642,172 643,172 644,172 645,172 646,172 646,172 647,172 648,172 649,172 650,172 651,172 652,172 653,172 654,172 654,172 655,172 656,172 657,172 658,172 659,172 660,172 661,172 662,172 662,172 663,172 664,172 665,172 666,172 667,172 668,172 669,172 670,172 670,172 671,172 672,172 673,172 674,172 675,172 676,172 677,172 678,172 679,172 679,172 680,172 681,172 682,172 683,172 684,172 685,172 686,172 687,172 687,172 688,172 689,172 690,172 691,172 692,172 693,172 694,172 695,172 695,172 696,172 697,172 698,172 699,172 700,172 701,171 702,171 703,171 704,171 704,171 705,171 706,171 707,171 708,171 709,171 710,171 711,171 712,171 712,171 713,171 714,171 715,171 716,171 717,171 718,171 719,171 720,171 720,171 721,171 722,171 723,171 724,171 725,171 726,171 727,171 728,171 728,171 729,171 730,171 731,171 732,171 733,171 734,171 735,171 736,171 737,171 737,171 738,171 739,171 740,171 741,171 742,171 743,170 744,170 745,170 745,170 746,170 747,170 748,170 749,170 750,170 751,170 752,170 753,170 753,170 754,170 755,170 756,170 757,170 758,170 759,170 760,170 761,170 761,170 762,170 763,170 764,170 765,170 766,170 767,170 768,170 769,170 770,170 770,170 771,170 772,170 773,170 774,170 775,170 776,170 777,170 778,170 778,170 779,170 780,170 781,170 782,170 783,170 784,170 785,170 786,170 786,170 787,170 788,170 789,170 790,170 791,170 792,170 793,170 794,170 795,170 795,170 796,170 797,170 798,170 799,170 800,170 801,170 802,170 803,170 803,170 804,170 805,170 806,170 807,170 808,170 809,170 810,170 811,170 811,170 812,170 813,170 814,170 815,170 816,169 817,169 818,169 819,169 819,169 820,169 821,169 822,169 823,169 824,169 825,169 826,169 827,169 828,169 828,169 829,169 830,169 831,169 832,169 833,169 834,169 835,169 836,169 836,169 837,169 838,169 839,169 840,169 841,169 842,169 843,169 844,169 844,169 845,169 846,169 847,169 848,169 849,169 850,169 851,169 852,169 852,169 853,169 854,169 855,169 856,169 857,169 858,169 859,169 860,169 861,169 861,169 862,169 863,168 864,168 865,168 866,168 867,168 868,168 869,168 869,168 870,168 871,168 872,168 873,168 874,168 875,168 876,168 877,168 877,168 878,168 879,168 880,168 881,168 882,168 883,168 884,168 885,168 886,168 886,168 887,168 888,168 889,168 890,168 891,168 892,168 893,168 894,168 894,168 895,168 896,168 897,168 898,168 899,168 900,168 901,168 902,168 902,168 903,168 904,168 905,168 906,168 907,168 908,168 909,168 910,168 910,168 911,168 912,168 913,168 914,168 915,168 916,168 917,168 918,168 919,168 919,168 920,168 921,168 922,168 923,168 924,168 925,168 926,168 927,168 927,168 928,168 929,167 930,167 931,167 932,167 933,167 934,167 935,167 935,167 936,167 937,167 938,167 939,167 940,167 941,167 942,167 943,167 943,167 944,167 945,167 946,167 947,167 948,167 949,167 950,167 951,167 952,167 952,167 953,167 954,167 955,167 956,167 957,167 958,167 959,167 960,167 960,167 961,167 962,167 963,167 964,167 964,167 965,167 966,167 967,167 968,167 968,167 969,167 970,166 970,166 973,166 "/>
<line opacity="0.1" stroke="#000000" stroke-width="1" x1="89" y1="699" x2="89" y2="68"/>
<line opacity="0.1" stroke="#000000" stroke-width="1" x1="101" y1="699" x2="101" y2="68"/>
<line opacity="0.1" stroke="#000000" stroke-width="1" x1="112" y1="699" x2="112" y2="68"/>
<line opacity="0.1" stroke="#000000" stroke-width="1" x1="124" y1="699" x2="124" y2="68"/>
<line opacity="0.1" stroke="#000000" stroke-width="1" x1="136" y1="699" x2="136" y2="68"/>
<line opacity="0.1" stroke="#000000" stroke-width="1" x1="148" y1="699" x2="148" y2="68"/>
<line opacity="0.1" stroke="#000000" stroke-width="1" x1="160" y1="699" x2="160" y2="68"/>
<line opacity="0.1" stroke="#000000" stroke-width="1" x1="172" y1="699" x2="172" y2="68"/>
<line opacity="0.1" stroke="#000000" stroke-width="1" x1="184" y1="699" x2="184" y2="68"/>
<line opacity="0.1" stroke="#000000" stroke-width="1" x1="195" y1="699" x2="195" y2="68"/>
<line opacity="0.1" stroke="#000000" stroke-width="1" x1="207" y1="699" x2="207" y2="68"/>
<line opacity="0.1" stroke="#000000" stroke-width="1" x1="219" y1="699" x2="219" y2="68"/>
<line opacity="0.1" stroke="#000000" stroke-width="1" x1="231" y1="699" x2="231" y2="68"/>
<line opacity="0.1" stroke="#000000" stroke-width="1" x1="243" y1="699" x2="243" y2="68"/>
<line opacity="0.1" stroke="#000000" stroke-width="1" x1="255" y1="699" x2="255" y2="68"/>
<line opacity="0.1" stroke="#000000" stroke-width="1" x1="267" y1="699" x2="267" y2="68"/>
<line opacity="0.1" stroke="#000000" stroke-width="1" x1="278" y1="699" x2="278" y2="68"/>
<line opacity="0.1" stroke="#000000" stroke-width="1" x1="290" y1="699" x2="290" y2="68"/>
<line opacity="0.1" stroke="#000000" stroke-width="1" x1="302" y1="699" x2="302" y2="68"/>
<line opacity="0.1" stroke="#000000" stroke-width="1" x1="314" y1="699" x2="314" y2="68"/>
<line opacity="0.1" stroke="#000000" stroke-width="1" x1="326" y1="699" x2="326" y2="68"/>
<line opacity="0.1" stroke="#000000" stroke-width="1" x1="338" y1="699" x2="338" y2="68"/>
<line opacity="0.1" stroke="#000000" stroke-width="1" x1="350" y1="699" x2="350" y2="68"/>
<line opacity="0.1" stroke="#000000" stroke-width="1" x1="361" y1="699" x2="361" y2="68"/>
<line opacity="0.1" stroke="#000000" stroke-width="1" x1="373" y1="699" x2="373" y2="68"/>
<line opacity="0.1" stroke="#000000" stroke-width="1" x1="385" y1="699" x2="385" y2="68"/>
<line opacity="0.1" stroke="#000000" stroke-width="1" x1="397" y1="699" x2="397" y2="68"/>
<line opacity="0.1" stroke="#000000" stroke-width="1" x1="409" y1="699" x2="409" y2="68"/>
<line opacity="0.1" stroke="#000000" stroke-width="1" x1="421" y1="699" x2="421" y2="68"/>
<line opacity="0.1" stroke="#000000" stroke-width="1" x1="433" y1="699" x2="433" y2="68"/>
<line opacity="0.1" stroke="#000000" stroke-width="1" x1="444" y1="699" x2="444" y2="68"/>
<line opacity="0.1" stroke="#000000" stroke-width="1" x1="456" y1="699" x2="456" y2="68"/>
<line opacity="0.1" stroke="#000000" stroke-width="1" x1="468" y1="699" x2="468" y2="68"/>
<line opacity="0.1" stroke="#000000" stroke-width="1" x1="480" y1="699" x2="480" y2="68"/>
<line opacity="0.1" stroke="#000000" stroke-width="1" x1="492" y1="699" x2="492" y2="68"/>
<line opacity="0.1" stroke="#000000" stroke-width="1" x1="504" y1="699" x2="504" y2="68"/>
<line opacity="0.1" stroke="#000000" stroke-width="1" x1="516" y1="699" x2="516" y2="68"/>
<line opacity="0.1" stroke="#000000" stroke-width="1" x1="527" y1="699" x2="527" y2="68"/>
<line opacity="0.1" stroke="#000000" stroke-width="1" x1="539" y1="699" x2="539" y2="68"/>
<line opacity="0.1" stroke="#000000" stroke-width="1" x1="551" y1="699" x2="551" y2="68"/>
<line opacity="0.1" stroke="#000000" stroke-width="1" x1="563" y1="699" x2="563" y2="68"/>
<line opacity="0.1" stroke="#000000" stroke-width="1" x1="575" y1="699" x2="575" y2="68"/>
<line opacity="0.1" stroke="#000000" stroke-width="1" x1="587" y1="699" x2="587" y2="68"/>
<line opacity="0.1" stroke="#000000" stroke-width="1" x1="599" y1="699" x2="599" y2="68"/>
<line opacity="0.1" stroke="#000000" stroke-width="1" x1="610" y1="699" x2="610" y2="68"/>
<line opacity="0.1" stroke="#000000" stroke-width="1" x1="622" y1="699" x2="622" y2="68"/>
<line opacity="0.1" stroke="#000000" stroke-width="1" x1="634" y1="699" x2="634" y2="68"/>
<line opacity="0.1" stroke="#000000" stroke-width="1" x1="646" y1="699" x2="646" y2="68"/>
<line opacity="0.1" stroke="#000000" stroke-width="1" x1="658" y1="699" x2="658" y2="68"/>
<line opacity="0.1" stroke="#000000" stroke-width="1" x1="670" y1="699" x2="670" y2="68"/>
<line opacity="0.1" stroke="#000000" stroke-width="1" x1="682" y1="699" x2="682" y2="68"/>
<line opacity="0.1" stroke="#000000" stroke-width="1" x1="693" y1="699" x2="693" y2="68"/>
<line opacity="0.1" stroke="#000000" stroke-width="1" x1="705" y1="699" x2="705" y2="68"/>
<line opacity="0.1" stroke="#000000" stroke-width="1" x1="717" y1="699" x2="717" y2="68"/>
<line opacity="0.1" stroke="#000000" stroke-width="1" x1="729" y1="699" x2="729" y2="68"/>
<line opacity="0.1" stroke="#000000" stroke-width="1" x1="741" y1="699" x2="741" y2="68"/>
<line opacity="0.1" stroke="#000000" stroke-width="1" x1="753" y1="699" x2="753" y2="68"/>
<line opacity="0.1" stroke="#000000" stroke-width="1" x1="765" y1="699" x2="765" y2="68"/>
<line opacity="0.1" stroke="#000000" stroke-width="1" x1="776" y1="699" x2="776" y2="68"/>
<line opacity="0.1" stroke="#000000" stroke-width="1" x1="788" y1="699" x2="788" y2="68"/>
<line opacity="0.1" stroke="#000000" stroke-width="1" x1="800" y1="699" x2="800" y2="68"/>
<line opacity="0.1" stroke="#000000" stroke-width="1" x1="812" y1="699" x2="812" y2="68"/>
<line opacity="0.1" stroke="#000000" stroke-width="1" x1="824" y1="699" x2="824" y2="68"/>
<line opacity="0.1" stroke="#000000" stroke-width="1" x1="836" y1="699" x2="836" y2="68"/>
<line opacity="0.1" stroke="#000000" stroke-width="1" x1="848" y1="699" x2="848" y2="68"/>
<line opacity="0.1" stroke="#000000" stroke-width="1" x1="859" y1="699" x2="859" y2="68"/>
<line opacity="0.1" stroke="#000000" stroke-width="1" x1="871" y1="699" x2="871" y2="68"/>
<line opacity="0.1" stroke="#000000" stroke-width="1" x1="883" y1="699" x2="883" y2="68"/>
<line opacity="0.1" stroke="#000000" stroke-width="1" x1="895" y1="699" x2="895" y2="68"/>
<line opacity="0.1" stroke="#000000" stroke-width="1" x1="907" y1="699" x2="907" y2="68"/>
<line opacity="0.1" stroke="#000000" stroke-width="1" x1="919" y1="699" x2="919" y2="68"/>
<line opacity="0.1" stroke="#000000" stroke-width="1" x1="931" y1="699" x2="931" y2="68"/>
<line opacity="0.1" stroke="#000000" stroke-width="1" x1="942" y1="699" x2="942" y2="68"/>
<line opacity="0.1" stroke="#000000" stroke-width="1" x1="954" y1="699" x2="954" y2="68"/>
<line opacity="0.1" stroke="#000000" stroke-width="1" x1="966" y1="699" x2="966" y2="68"/>
<line opacity="0.1" stroke="#000000" stroke-width="1" x1="78" y1="699" x2="973" y2="699"/>
<line opacity="0.1" stroke="#000000" stroke-width="1" x1="78" y1="691" x2="973" y2="691"/>
<line opacity="0.1" stroke="#000000" stroke-width="1" x1="78" y1="683" x2="973" y2="683"/>
<line opacity="0.1" stroke="#000000" stroke-width="1" x1="78" y1="675" x2="973" y2="675"/>
<line opacity="0.1" stroke="#000000" stroke-width="1" x1="78" y1="667" x2="973" y2="667"/>
<line opacity="0.1" stroke="#000000" stroke-width="1" x1="78" y1="659" x2="973" y2="659"/>
<line opacity="0.1" stroke="#000000" stroke-width="1" x1="78" y1="652" x2="973" y2="652"/>
<line opacity="0.1" stroke="#000000" stroke-width="1" x1="78" y1="644" x2="973" y2="644"/>
<line opacity="0.1" stroke="#000000" stroke-width="1" x1="78" y1="636" x2="973" y2="636"/>
<line opacity="0.1" stroke="#000000" stroke-width="1" x1="78" y1="628" x2="973" y2="628"/>
<line opacity="0.1" stroke="#000000" stroke-width="1" x1="78" y1="620" x2="973" y2="620"/>
<line opacity="0.1" stroke="#000000" stroke-width="1" x1="78" y1="612" x2="973" y2="612"/>
<line opacity="0.1" stroke="#000000" stroke-width="1" x1="78" y1="605" x2="973" y2="605"/>
<line opacity="0.1" stroke="#000000" stroke-width="1" x1="78" y1="597" x2="973" y2="597"/>
<line opacity="0.1" stroke="#000000" stroke-width="1" x1="78" y1="589" x2="973" y2="589"/>
<line opacity="0.1" stroke="#000000" stroke-width="1" x1="78" y1="581" x2="973" y2="581"/>
<line opacity="0.1" stroke="#000000" stroke-width="1" x1="78" y1="573" x2="973" y2="573"/>
<line opacity="0.1" stroke="#000000" stroke-width="1" x1="78" y1="565" x2="973" y2="565"/>
<line opacity="0.1" stroke="#000000" stroke-width="1" x1="78" y1="558" x2="973" y2="558"/>
<line opacity="0.1" stroke="#000000" stroke-width="1" x1="78" y1="550" x2="973" y2="550"/>
<line opacity="0.1" stroke="#000000" stroke-width="1" x1="78" y1="542" x2="973" y2="542"/>
<line opacity="0.1" stroke="#000000" stroke-width="1" x1="78" y1="534" x2="973" y2="534"/>
<line opacity="0.1" stroke="#000000" stroke-width="1" x1="78" y1="526" x2="973" y2="526"/>
<line opacity="0.1" stroke="#000000" stroke-width="1" x1="78" y1="519" x2="973" y2="519"/>
<line opacity="0.1" stroke="#000000" stroke-width="1" x1="78" y1="511" x2="973" y2="511"/>
<line opacity="0.1" stroke="#000000" stroke-width="1" x1="78" y1="503" x2="973" y2="503"/>
<line opacity="0.1" stroke="#000000" stroke-width="1" x1="78" y1="495" x2="973" y2="495"/>
<line opacity="0.1" stroke="#000000" stroke-width="1" x1="78" y1="487" x2="973" y2="487"/>
<line opacity="0.1" stroke="#000000" stroke-width="1" x1="78" y1="479" x2="973" y2="479"/>
<line opacity="0.1" stroke="#000000" stroke-width="1" x1="78" y1="472" x2="973" y2="472"/>
<line opacity="0.1" stroke="#000000" stroke-width="1" x1="78" y1="464" x2="973" y2="464"/>
<line opacity="0.1" stroke="#000000" stroke-width="1" x1="78" y1="456" x2="973" y2="456"/>
<line opacity="0.1" stroke="#000000" stroke-width="1" x1="78" y1="448" x2="973" y2="448"/>
<line opacity="0.1" stroke="#000000" stroke-width="1" x1="78" y1="440" x2="973" y2="440"/>
<line opacity="0.1" stroke="#000000" stroke-width="1" x1="78" y1="432" x2="973" y2="432"/>
<line opacity="0.1" stroke="#000000" stroke-width="1" x1="78" y1="425" x2="973" y2="425"/>
<line opacity="0.1" stroke="#000000" stroke-width="1" x1="78" y1="417" x2="973" y2="417"/>
<line opacity="0.1" stroke="#000000" stroke-width="1" x1="78" y1="409" x2="973" y2="409"/>
<line opacity="0.1" stroke="#000000" stroke-width="1" x1="78" y1="401" x2="973" y2="401"/>
<line opacity="0.1" stroke="#000000" stroke-width="1" x1="78" y1="393" x2="973" y2="393"/>
<line opacity="0.1" stroke="#000000" stroke-width="1" x1="78" y1="386" x2="973" y2="386"/>
<line opacity="0.1" stroke="#000000" stroke-width="1" x1="78" y1="378" x2="973" y2="378"/>
<line opacity="0.1" stroke="#000000" stroke-width="1" x1="78" y1="370" x2="973" y2="370"/>
<line opacity="0.1" stroke="#000000" stroke-width="1" x1="78" y1="362" x2="973" y2="362"/>
<line opacity="0.1" stroke="#000000" stroke-width="1" x1="78" y1="354" x2="973" y2="354"/>
<line opacity="0.1" stroke="#000000" stroke-width="1" x1="78" y1="346" x2="973" y2="346"/>
<line opacity="0.1" stroke="#000000" stroke-width="1" x1="78" y1="339" x2="973" y2="339"/>
<line opacity="0.1" stroke="#000000" stroke-width="1" x1="78" y1="331" x2="973" y2="331"/>
<line opacity="0.1" stroke="#000000" stroke-width="1" x1="78" y1="323" x2="973" y2="323"/>
<line opacity="0.1" stroke="#000000" stroke-width="1" x1="78" y1="315" x2="973" y2="315"/>
<line opacity="0.1" stroke="#000000" stroke-width="1" x1="78" y1="307" x2="973" y2="307"/>
<line opacity="0.1" stroke="#000000" stroke-width="1" x1="78" y1="299" x2="973" y2="299"/>
<line opacity="0.1" stroke="#000000" stroke-width="1" x1="78" y1="292" x2="973" y2="292"/>
<line opacity="0.1" stroke="#000000" stroke-width="1" x1="78" y1="284" x2="973" y2="284"/>
<line opacity="0.1" stroke="#000000" stroke-width="1" x1="78" y1="276" x2="973" y2="276"/>
<line opacity="0.1" stroke="#000000" stroke-width="1" x1="78" y1="268" x2="973" y2="268"/>
<line opacity="0.1" stroke="#000000" stroke-width="1" x1="78" y1="260" x2="973" y2="260"/>
<line opacity="0.1" stroke="#000000" stroke-width="1" x1="78" y1="252" x2="973" y2="252"/>
<line opacity="0.1" stroke="#000000" stroke-width="1" x1="78" y1="245" x2="973" y2="245"/>
<line opacity="0.1" stroke="#000000" stroke-width="1" x1="78" y1="237" x2="973" y2="237"/>
<line opacity="0.1" stroke="#000000" stroke-width="1" x1="78" y1="229" x2="973" y2="229"/>
<line opacity="0.1" stroke="#000000" stroke-width="1" x1="78" y1="221" x2="973" y2="221"/>
<line opacity="0.1" stroke="#000000" stroke-width="1" x1="78" y1="213" x2="973" y2="213"/>
<line opacity="0.1" stroke="#000000" stroke-width="1" x1="78" y1="206" x2="973" y2="206"/>
<line opacity="0.1" stroke="#000000" stroke-width="1" x1="78" y1="198" x2="973" y2="198"/>
<line opacity="0.1" stroke="#000000" stroke-width="1" x1="78" y1="190" x2="973" y2="190"/>
<line opacity="0.1" stroke="#000000" stroke-width="1" x1="78" y1="182" x2="973" y2="182"/>
<line opacity="0.1" stroke="#000000" stroke-width="1" x1="78" y1="174" x2="973" y2="174"/>
<line opacity="0.1" stroke="#000000" stroke-width="1" x1="78" y1="166" x2="973" y2="166"/>
<line opacity="0.1" stroke="#000000" stroke-width="1" x1="78" y1="159" x2="973" y2="159"/>
<line opacity="0.1" stroke="#000000" stroke-width="1" x1="78" y1="151" x2="973" y2="151"/>
<line opacity="0.1" stroke="#000000" stroke-width="1" x1="78" y1="143" x2="973" y2="143"/>
<line opacity="0.1" stroke="#000000" stroke-width="1" x1="78" y1="135" x2="973" y2="135"/>
<line opacity="0.1" stroke="#000000" stroke-width="1" x1="78" y1="127" x2="973" y2="127"/>
<line opacity="0.1" stroke="#000000" stroke-width="1" x1="78" y1="119" x2="973" y2="119"/>
<line opacity="0.1" stroke="#000000" stroke-width="1" x1="78" y1="112" x2="973" y2="112"/>
<line opacity="0.1" stroke="#000000" stroke-width="1" x1="78" y1="104" x2="973" y2="104"/>
<line opacity="0.1" stroke="#000000" stroke-width="1" x1="78" y1="96" x2="973" y2="96"/>
<line opacity="0.1" stroke="#000000" stroke-width="1" x1="78" y1="88" x2="973" y2="88"/>
<line opacity="0.1" stroke="#000000" stroke-width="1" x1="78" y1="80" x2="973" y2="80"/>
<line opacity="0.1" stroke="#000000" stroke-width="1" x1="78" y1="73" x2="973" y2="73"/>
<text x="8" y="384" dy="0.76em" text-anchor="middle" font-family="sans-serif" font-size="9.67741935483871" opacity="1" fill="#000000" transform="rotate(270, 8, 384)">
Memory usage
</text>
<text x="526" y="760" dy="-0.5ex" text-anchor="middle" font-family="sans-serif" font-size="9.67741935483871" opacity="1" fill="#000000">
Time
</text>
<line opacity="0.2" stroke="#000000" stroke-width="1" x1="112" y1="699" x2="112" y2="68"/>
<line opacity="0.2" stroke="#000000" stroke-width="1" x1="231" y1="699" x2="231" y2="68"/>
<line opacity="0.2" stroke="#000000" stroke-width="1" x1="350" y1="699" x2="350" y2="68"/>
<line opacity="0.2" stroke="#000000" stroke-width="1" x1="468" y1="699" x2="468" y2="68"/>
<line opacity="0.2" stroke="#000000" stroke-width="1" x1="587" y1="699" x2="587" y2="68"/>
<line opacity="0.2" stroke="#000000" stroke-width="1" x1="705" y1="699" x2="705" y2="68"/>
<line opacity="0.2" stroke="#000000" stroke-width="1" x1="824" y1="699" x2="824" y2="68"/>
<line opacity="0.2" stroke="#000000" stroke-width="1" x1="942" y1="699" x2="942" y2="68"/>
<line opacity="0.2" stroke="#000000" stroke-width="1" x1="78" y1="699" x2="973" y2="699"/>
<line opacity="0.2" stroke="#000000" stroke-width="1" x1="78" y1="620" x2="973" y2="620"/>
<line opacity="0.2" stroke="#000000" stroke-width="1" x1="78" y1="542" x2="973" y2="542"/>
<line opacity="0.2" stroke="#000000" stroke-width="1" x1="78" y1="464" x2="973" y2="464"/>
<line opacity="0.2" stroke="#000000" stroke-width="1" x1="78" y1="386" x2="973" y2="386"/>
<line opacity="0.2" stroke="#000000" stroke-width="1" x1="78" y1="307" x2="973" y2="307"/>
<line opacity="0.2" stroke="#000000" stroke-width="1" x1="78" y1="229" x2="973" y2="229"/>
<line opacity="0.2" stroke="#000000" stroke-width="1" x1="78" y1="151" x2="973" y2="151"/>
<line opacity="0.2" stroke="#000000" stroke-width="1" x1="78" y1="73" x2="973" y2="73"/>
<polyline fill="none" opacity="1" stroke="#000000" stroke-width="1" points="77,68 77,699 "/>
<text x="68" y="699" dy="0.5ex" text-anchor="end" font-family="sans-serif" font-size="9.67741935483871" opacity="1" fill="#000000">
0 MB
</text>
<polyline fill="none" opacity="1" stroke="#000000" stroke-width="1" points="72,699 77,699 "/>
<text x="68" y="620" dy="0.5ex" text-anchor="end" font-family="sans-serif" font-size="9.67741935483871" opacity="1" fill="#000000">
19 MB
</text>
<polyline fill="none" opacity="1" stroke="#000000" stroke-width="1" points="72,620 77,620 "/>
<text x="68" y="542" dy="0.5ex" text-anchor="end" font-family="sans-serif" font-size="9.67741935483871" opacity="1" fill="#000000">
38 MB
</text>
<polyline fill="none" opacity="1" stroke="#000000" stroke-width="1" points="72,542 77,542 "/>
<text x="68" y="464" dy="0.5ex" text-anchor="end" font-family="sans-serif" font-size="9.67741935483871" opacity="1" fill="#000000">
57 MB
</text>
<polyline fill="none" opacity="1" stroke="#000000" stroke-width="1" points="72,464 77,464 "/>
<text x="68" y="386" dy="0.5ex" text-anchor="end" font-family="sans-serif" font-size="9.67741935483871" opacity="1" fill="#000000">
76 MB
</text>
<polyline fill="none" opacity="1" stroke="#000000" stroke-width="1" points="72,386 77,386 "/>
<text x="68" y="307" dy="0.5ex" text-anchor="end" font-family="sans-serif" font-size="9.67741935483871" opacity="1" fill="#000000">
95 MB
</text>
<polyline fill="none" opacity="1" stroke="#000000" stroke-width="1" points="72,307 77,307 "/>
<text x="68" y="229" dy="0.5ex" text-anchor="end" font-family="sans-serif" font-size="9.67741935483871" opacity="1" fill="#000000">
114 MB
</text>
<polyline fill="none" opacity="1" stroke="#000000" stroke-width="1" points="72,229 77,229 "/>
<text x="68" y="151" dy="0.5ex" text-anchor="end" font-family="sans-serif" font-size="9.67741935483871" opacity="1" fill="#000000">
133 MB
</text>
<polyline fill="none" opacity="1" stroke="#000000" stroke-width="1" points="72,151 77,151 "/>
<text x="68" y="73" dy="0.5ex" text-anchor="end" font-family="sans-serif" font-size="9.67741935483871" opacity="1" fill="#000000">
152 MB
</text>
<polyline fill="none" opacity="1" stroke="#000000" stroke-width="1" points="72,73 77,73 "/>
<polyline fill="none" opacity="1" stroke="#000000" stroke-width="1" points="78,700 973,700 "/>
<text x="112" y="710" dy="0.76em" text-anchor="middle" font-family="sans-serif" font-size="9.67741935483871" opacity="1" fill="#000000">
07 17:46:40
</text>
<polyline fill="none" opacity="1" stroke="#000000" stroke-width="1" points="112,700 112,705 "/>
<text x="231" y="710" dy="0.76em" text-anchor="middle" font-family="sans-serif" font-size="9.67741935483871" opacity="1" fill="#000000">
07 20:33:20
</text>
<polyline fill="none" opacity="1" stroke="#000000" stroke-width="1" points="231,700 231,705 "/>
<text x="350" y="710" dy="0.76em" text-anchor="middle" font-family="sans-serif" font-size="9.67741935483871" opacity="1" fill="#000000">
07 23:20:00
</text>
<polyline fill="none" opacity="1" stroke="#000000" stroke-width="1" points="350,700 350,705 "/>
<text x="468" y="710" dy="0.76em" text-anchor="middle" font-family="sans-serif" font-size="9.67741935483871" opacity="1" fill="#000000">
08 02:06:40
</text>
<polyline fill="none" opacity="1" stroke="#000000" stroke-width="1" points="468,700 468,705 "/>
<text x="587" y="710" dy="0.76em" text-anchor="middle" font-family="sans-serif" font-size="9.67741935483871" opacity="1" fill="#000000">
08 04:53:20
</text>
<polyline fill="none" opacity="1" stroke="#000000" stroke-width="1" points="587,700 587,705 "/>
<text x="705" y="710" dy="0.76em" text-anchor="middle" font-family="sans-serif" font-size="9.67741935483871" opacity="1" fill="#000000">
08 07:40:00
</text>
<polyline fill="none" opacity="1" stroke="#000000" stroke-width="1" points="705,700 705,705 "/>
<text x="824" y="710" dy="0.76em" text-anchor="middle" font-family="sans-serif" font-size="9.67741935483871" opacity="1" fill="#000000">
08 10:26:40
</text>
<polyline fill="none" opacity="1" stroke="#000000" stroke-width="1" points="824,700 824,705 "/>
<text x="942" y="710" dy="0.76em" text-anchor="middle" font-family="sans-serif" font-size="9.67741935483871" opacity="1" fill="#000000">
08 13:13:20
</text>
<polyline fill="none" opacity="1" stroke="#000000" stroke-width="1" points="942,700 942,705 "/>
<polyline fill="none" opacity="1" stroke="#000000" stroke-width="1" points="78,67 974,67 "/>
<text x="112" y="58" dy="-0.5ex" text-anchor="middle" font-family="sans-serif" font-size="9.67741935483871" opacity="1" fill="#000000">
+00:49:04
</text>
<polyline fill="none" opacity="1" stroke="#000000" stroke-width="1" points="112,62 112,67 "/>
<text x="231" y="58" dy="-0.5ex" text-anchor="middle" font-family="sans-serif" font-size="9.67741935483871" opacity="1" fill="#000000">
+03:35:44
</text>
<polyline fill="none" opacity="1" stroke="#000000" stroke-width="1" points="231,62 231,67 "/>
<text x="350" y="58" dy="-0.5ex" text-anchor="middle" font-family="sans-serif" font-size="9.67741935483871" opacity="1" fill="#000000">
+06:22:24
</text>
<polyline fill="none" opacity="1" stroke="#000000" stroke-width="1" points="350,62 350,67 "/>
<text x="469" y="58" dy="-0.5ex" text-anchor="middle" font-family="sans-serif" font-size="9.67741935483871" opacity="1" fill="#000000">
+09:09:04
</text>
<polyline fill="none" opacity="1" stroke="#000000" stroke-width="1" points="469,62 469,67 "/>
<text x="587" y="58" dy="-0.5ex" text-anchor="middle" font-family="sans-serif" font-size="9.67741935483871" opacity="1" fill="#000000">
+11:55:44
</text>
<polyline fill="none" opacity="1" stroke="#000000" stroke-width="1" points="587,62 587,67 "/>
<text x="706" y="58" dy="-0.5ex" text-anchor="middle" font-family="sans-serif" font-size="9.67741935483871" opacity="1" fill="#000000">
+14:42:24
</text>
<polyline fill="none" opacity="1" stroke="#000000" stroke-width="1" points="706,62 706,67 "/>
<text x="825" y="58" dy="-0.5ex" text-anchor="middle" font-family="sans-serif" font-size="9.67741935483871" opacity="1" fill="#000000">
+17:29:04
</text>
<polyline fill="none" opacity="1" stroke="#000000" stroke-width="1" points="825,62 825,67 "/>
<text x="943" y="58" dy="-0.5ex" text-anchor="middle" font-family="sans-serif" font-size="9.67741935483871" opacity="1" fill="#000000">
+20:15:44
</text>
<polyline fill="none" opacity="1" stroke="#000000" stroke-width="1" points="943,62 943,67 "/>
<rect x="83" y="73" width="99" height="45" opacity="0.75" fill="#FFFFFF" stroke="none"/>
<rect x="83" y="73" width="99" height="45" opacity="1" fill="none" stroke="#000000"/>
<text x="123" y="83" dy="0.76em" text-anchor="start" font-family="sans-serif" font-size="9.67741935483871" opacity="1" fill="#000000">
Temporary
</text>
<text x="123" y="98" dy="0.76em" text-anchor="start" font-family="sans-serif" font-size="9.67741935483871" opacity="1" fill="#000000">
Leaked
</text>
<rect x="93" y="83" width="10" height="10" opacity="1" fill="#3CB44B" stroke="none"/>
<rect x="93" y="98" width="10" height="10" opacity="1" fill="#E6194B" stroke="none"/>
</svg>
