<svg width="1024" height="768" viewBox="0 0 1024 768" xmlns="http://www.w3.org/2000/svg">
<rect x="0" y="0" width="1024" height="768" opacity="1" fill="#FFFFFF" stroke="none"/>
<polygon opacity="1" fill="#3CB44B" points="973,699 973,699 973,699 "/>
<polyline fill="none" opacity="1" stroke="#3CB44B" stroke-width="1" points="973,699 "/>
<polygon opacity="1" fill="#E6194B" points="78,697 79,697 80,696 81,696 82,695 82,694 83,694 84,693 85,692 86,692 87,691 88,690 89,690 90,689 90,689 91,688 92,688 93,687 94,686 95,686 96,685 97,684 98,684 99,683 99,683 100,682 101,681 102,681 103,680 104,680 105,679 106,678 107,678 107,677 108,676 109,676 110,675 111,675 112,674 113,673 114,673 115,672 116,671 116,671 117,670 118,670 119,669 120,668 121,667 122,667 123,666 124,666 124,665 125,665 126,664 127,663 128,663 129,662 130,662 131,661 132,660 133,660 133,659 134,658 135,658 136,657 137,656 138,656 139,655 140,654 141,654 141,653 142,652 143,652 144,651 145,651 146,650 147,649 148,649 149,648 150,648 150,647 151,646 152,646 153,645 154,644 155,644 156,643 157,643 158,642 158,641 159,641 160,640 161,639 162,639 163,638 164,637 165,637 166,636 166,636 167,635 168,634 169,634 170,633 171,633 172,632 173,632 174,631 175,631 175,630 176,629 177,629 178,628 179,628 180,627 181,627 182,626 183,625 183,625 184,624 185,623 186,623 187,622 188,622 189,621 190,620 191,620 192,619 192,619 193,618 194,618 195,617 196,616 197,615 198,615 199,614 200,613 200,613 201,612 202,611 203,611 204,610 205,609 206,608 207,608 208,607 209,607 209,606 210,606 211,605 212,604 213,604 214,603 215,603 216,602 217,601 217,601 218,600 219,599 220,599 221,598 222,598 223,597 224,596 225,596 226,595 226,594 227,594 228,593 229,593 230,592 231,591 232,591 233,590 234,589 234,589 235,588 236,587 237,587 238,586 239,585 240,585 241,584 242,583 242,583 243,582 244,582 245,581 246,580 247,580 248,579 249,578 250,578 251,577 251,576 252,576 253,575 254,574 255,574 256,573 257,572 258,572 259,571 259,571 260,570 261,569 262,569 263,568 264,568 265,567 266,566 267,565 268,565 268,564 269,564 270,563 271,562 272,562 273,561 274,560 275,560 276,559 276,558 277,558 278,557 279,556 280,556 281,555 282,554 283,554 284,553 285,552 285,552 286,551 287,550 288,550 289,549 290,548 291,548 292,547 293,546 293,546 294,545 295,544 296,544 297,543 298,542 299,542 300,541 301,540 302,540 302,539 303,538 304,538 305,537 306,536 307,536 308,535 309,535 310,534 310,533 311,532 312,532 313,531 314,530 315,530 316,529 317,529 318,528 318,527 319,527 320,526 321,525 322,525 323,524 324,523 325,523 326,522 327,521 327,521 328,520 329,520 330,519 331,518 332,518 333,517 334,517 335,516 335,515 336,515 337,514 338,513 339,512 340,512 341,511 342,511 343,510 344,509 344,509 345,508 346,507 347,507 348,506 349,506 350,505 351,504 352,504 352,503 353,502 354,502 355,501 356,501 357,500 358,499 359,498 360,498 361,497 361,497 362,496 363,495 364,495 365,494 366,493 367,493 368,492 369,492 369,491 370,490 371,489 372,489 373,488 374,488 375,487 376,486 377,486 378,485 378,484 379,483 380,483 381,482 382,482 383,481 384,480 385,480 386,479 386,478 387,478 388,477 389,477 390,476 391,475 392,475 393,474 394,473 394,472 395,472 396,471 397,471 398,470 399,469 400,469 401,468 402,468 403,467 403,466 404,466 405,465 406,464 407,464 408,463 409,463 410,462 411,461 411,461 412,460 413,460 414,459 415,458 416,458 417,457 418,456 419,456 420,455 420,454 421,454 422,453 423,453 424,452 425,451 426,451 427,450 428,450 428,449 429,448 430,448 431,447 432,446 433,446 434,445 435,444 436,444 437,443 437,442 438,442 439,441 440,440 441,439 442,438 443,438 444,437 445,437 445,436 446,436 447,435 448,434 449,434 450,433 451,432 452,432 453,431 453,430 454,430 455,429 456,429 457,428 458,427 459,427 460,426 461,425 462,425 462,424 463,423 464,423 465,422 466,421 467,420 468,420 469,419 470,419 470,418 471,417 472,417 473,416 474,416 475,415 476,414 477,414 478,413 479,413 479,412 480,411 481,411 482,410 483,409 484,408 485,408 486,407 487,407 487,406 488,405 489,405 490,404 491,404 492,403 493,402 494,401 495,401 496,400 496,400 497,399 498,398 499,398 500,397 501,396 502,396 503,395 504,395 504,394 505,393 506,393 507,392 508,392 509,391 510,390 511,390 512,389 513,388 513,388 514,387 515,386 516,386 517,385 518,385 519,384 520,383 521,382 521,382 522,381 523,381 524,380 525,379 526,379 527,378 528,377 529,377 529,376 530,375 531,375 532,374 533,373 534,373 535,372 536,372 537,371 538,370 538,370 539,369 540,368 541,368 542,367 543,366 544,366 545,365 546,364 546,364 547,363 548,363 549,362 550,361 551,361 552,360 553,359 554,359 555,358 555,357 556,357 557,356 558,355 559,355 560,354 561,353 562,353 563,352 563,351 564,351 565,350 566,349 567,349 568,348 569,347 570,347 571,346 572,345 572,345 573,344 574,343 575,343 576,342 577,341 578,340 579,340 580,339 580,338 581,337 582,337 583,336 584,336 585,335 586,334 587,334 588,333 589,332 589,332 590,331 591,330 592,330 593,329 594,329 595,328 596,328 597,327 597,326 598,326 599,325 600,325 601,324 602,323 603,323 604,322 605,321 605,321 606,320 607,320 608,319 609,318 610,318 611,317 612,316 613,315 614,315 614,314 615,314 616,313 617,312 618,312 619,311 620,310 621,309 622,309 622,308 623,307 624,307 625,306 626,306 627,305 628,304 629,304 630,303 631,302 631,302 632,301 633,300 634,300 635,299 636,298 637,298 638,297 639,297 639,296 640,295 641,295 642,294 643,293 644,293 645,292 646,291 647,291 648,290 648,290 649,289 650,288 651,288 652,287 653,286 654,286 655,285 656,284 656,284 657,283 658,283 659,282 660,281 661,281 662,280 663,279 664,279 665,278 665,277 666,277 667,276 668,275 669,275 670,274 671,273 672,273 673,272 673,271 674,271 675,270 676,270 677,269 678,268 679,268 680,267 681,266 681,266 682,265 683,265 684,264 685,263 686,263 687,262 688,261 689,261 690,260 690,259 691,259 692,258 693,258 694,257 695,256 696,256 697,255 698,254 698,254 699,253 700,253 701,252 702,252 703,251 704,250 705,250 706,249 707,249 707,248 708,247 709,247 710,246 711,245 712,245 713,244 714,244 715,243 715,243 716,242 717,241 718,241 719,240 720,239 721,239 722,238 723,237 724,237 724,236 725,236 726,235 727,234 728,234 729,233 730,232 731,232 732,231 732,230 733,230 734,229 735,229 736,228 737,227 738,227 739,226 740,226 741,225 741,224 742,224 743,223 744,222 745,222 746,221 747,220 748,220 749,219 749,218 750,218 751,217 752,216 753,216 754,215 755,214 756,214 757,213 757,213 758,212 759,211 760,211 761,210 762,210 763,209 764,209 765,208 766,207 766,207 767,206 768,206 769,205 770,205 771,204 772,203 773,203 774,202 774,202 775,201 776,200 777,200 778,199 779,198 780,198 781,197 782,196 783,196 783,195 784,195 785,194 786,193 787,193 788,192 789,191 790,190 791,190 791,189 792,188 793,188 794,187 795,186 796,186 797,185 798,184 799,184 800,183 800,183 801,182 802,181 803,181 804,180 805,180 806,179 807,178 808,178 808,177 809,177 810,176 811,175 812,175 813,174 814,174 815,173 816,173 817,172 817,171 818,171 819,170 820,169 821,169 822,168 823,167 824,167 825,166 825,165 826,165 827,164 828,164 829,163 830,162 831,162 832,161 833,160 833,160 834,159 835,159 836,158 837,157 838,157 839,157 840,156 841,155 842,155 842,154 843,154 844,153 845,153 846,152 847,151 848,151 849,150 850,149 850,149 851,148 852,148 853,147 854,146 855,146 856,145 857,145 858,144 859,143 859,143 860,142 861,142 862,141 863,140 864,139 865,139 866,138 867,138 867,137 868,137 869,136 870,136 871,135 872,135 873,134 874,133 875,133 876,132 876,131 877,131 878,130 879,130 880,129 881,129 882,128 883,128 884,127 884,126 885,126 886,125 887,125 888,124 889,123 890,123 891,122 892,122 893,121 893,120 894,120 895,119 896,119 897,118 898,117 899,117 900,116 901,116 901,115 902,114 903,113 904,113 905,112 906,111 907,111 908,110 909,110 909,109 910,108 911,108 912,107 913,106 914,106 915,105 916,105 917,104 918,103 918,103 919,102 920,102 921,101 922,100 923,100 924,99 925,98 926,98 926,97 927,96 928,96 929,95 930,95 931,94 932,93 933,93 934,92 935,92 935,91 936,90 937,90 938,89 939,89 940,88 941,87 942,87 943,86 943,86 944,85 945,85 946,84 947,83 948,83 949,82 950,81 951,81 952,80 952,80 953,79 954,78 955,78 956,77 957,77 958,76 959,76 960,75 960,74 961,74 962,73 963,73 964,72 965,71 966,71 967,70 968,70 969,69 969,68 970,68 971,68 971,68 973,68 973,699 78,699 "/>
<polyline fill="none" opacity="1" stroke="#E6194B" stroke-width="1" points="78,697 79,697 80,696 81,696 82,695 82,694 83,694 84,693 85,692 86,692 87,691 88,690 89,690 90,689 90,689 91,688 92,688 93,687 94,686 95,686 96,685 97,684 98,684 99,683 99,683 100,682 101,681 102,681 103,680 104,680 105,679 106,678 107,678 107,677 108,676 109,676 110,675 111,675 112,674 113,673 114,673 115,672 116,671 116,671 117,670 118,670 119,669 120,668 121,667 122,667 123,666 124,666 124,665 125,665 126,664 127,663 128,663 129,662 130,662 131,661 132,660 133,660 133,659 134,658 135,658 136,657 137,656 138,656 139,655 140,654 141,654 141,653 142,652 143,652 144,651 145,651 146,650 147,649 148,649 149,648 150,648 150,647 151,646 152,646 153,645 154,644 155,644 156,643 157,643 158,642 158,641 159,641 160,640 161,639 162,639 163,638 164,637 165,637 166,636 166,636 167,635 168,634 169,634 170,633 171,633 172,632 173,632 174,631 175,631 175,630 176,629 177,629 178,628 179,628 180,627 181,627 182,626 183,625 183,625 184,624 185,623 186,623 187,622 188,622 189,621 190,620 191,620 192,619 192,619 193,618 194,618 195,617 196,616 197,615 198,615 199,614 200,613 200,613 201,612 202,611 203,611 204,610 205,609 206,608 207,608 208,607 209,607 209,606 210,606 211,605 212,604 213,604 214,603 215,603 216,602 217,601 217,601 218,600 219,599 220,599 221,598 222,598 223,597 224,596 225,596 226,595 226,594 227,594 228,593 229,593 230,592 231,591 232,591 233,590 234,589 234,589 235,588 236,587 237,587 238,586 239,585 240,585 241,584 242,583 242,583 243,582 244,582 245,581 246,580 247,580 248,579 249,578 250,578 251,577 251,576 252,576 253,575 254,574 255,574 256,573 257,572 258,572 259,571 259,571 260,570 261,569 262,569 263,568 264,568 265,567 266,566 267,565 268,565 268,564 269,564 270,563 271,562 272,562 273,561 274,560 275,560 276,559 276,558 277,558 278,557 279,556 280,556 281,555 282,554 283,554 284,553 285,552 285,552 286,551 287,550 288,550 289,549 290,548 291,548 292,547 293,546 293,546 294,545 295,544 296,544 297,543 298,542 299,542 300,541 301,540 302,540 302,539 303,538 304,538 305,537 306,536 307,536 308,535 309,535 310,534 310,533 311,532 312,532 313,531 314,530 315,530 316,529 317,529 318,528 318,527 319,527 320,526 321,525 322,525 323,524 324,523 325,523 326,522 327,521 327,521 328,520 329,520 330,519 331,518 332,518 333,517 334,517 335,516 335,515 336,515 337,514 338,513 339,512 340,512 341,511 342,511 343,510 344,509 344,509 345,508 346,507 347,507 348,506 349,506 350,505 351,504 352,504 352,503 353,502 354,502 355,501 356,501 357,500 358,499 359,498 360,498 361,497 361,497 362,496 363,495 364,495 365,494 366,493 367,493 368,492 369,492 369,491 370,490 371,489 372,489 373,488 374,488 375,487 376,486 377,486 378,485 378,484 379,483 380,483 381,482 382,482 383,481 384,480 385,480 386,479 386,478 387,478 388,477 389,477 390,476 391,475 392,475 393,474 394,473 394,472 395,472 396,471 397,471 398,470 399,469 400,469 401,468 402,468 403,467 403,466 404,466 405,465 406,464 407,464 408,463 409,463 410,462 411,461 411,461 412,460 413,460 414,459 415,458 416,458 417,457 418,456 419,456 420,455 420,454 421,454 422,453 423,453 424,452 425,451 426,451 427,450 428,450 428,449 429,448 430,448 431,447 432,446 433,446 434,445 435,444 436,444 437,443 437,442 438,442 439,441 440,440 441,439 442,438 443,438 444,437 445,437 445,436 446,436 447,435 448,434 449,434 450,433 451,432 452,432 453,431 453,430 454,430 455,429 456,429 457,428 458,427 459,427 460,426 461,425 462,425 462,424 463,423 464,423 465,422 466,421 467,420 468,420 469,419 470,419 470,418 471,417 472,417 473,416 474,416 475,415 476,414 477,414 478,413 479,413 479,412 480,411 481,411 482,410 483,409 484,408 485,408 486,407 487,407 487,406 488,405 489,405 490,404 491,404 492,403 493,402 494,401 495,401 496,400 496,400 497,399 498,398 499,398 500,397 501,396 502,396 503,395 504,395 504,394 505,393 506,393 507,392 508,392 509,391 510,390 511,390 512,389 513,388 513,388 514,387 515,386 516,386 517,385 518,385 519,384 520,383 521,382 521,382 522,381 523,381 524,380 525,379 526,379 527,378 528,377 529,377 529,376 530,375 531,375 532,374 533,373 534,373 535,372 536,372 537,371 538,370 538,370 539,369 540,368 541,368 542,367 543,366 544,366 545,365 546,364 546,364 547,363 548,363 549,362 550,361 551,361 552,360 553,359 554,359 555,358 555,357 556,357 557,356 558,355 559,355 560,354 561,353 562,353 563,352 563,351 564,351 565,350 566,349 567,349 568,348 569,347 570,347 571,346 572,345 572,345 573,344 574,343 575,343 576,342 577,341 578,340 579,340 580,339 580,338 581,337 582,337 583,336 584,336 585,335 586,334 587,334 588,333 589,332 589,332 590,331 591,330 592,330 593,329 594,329 595,328 596,328 597,327 597,326 598,326 599,325 600,325 601,324 602,323 603,323 604,322 605,321 605,321 606,320 607,320 608,319 609,318 610,318 611,317 612,316 613,315 614,315 614,314 615,314 616,313 617,312 618,312 619,311 620,310 621,309 622,309 622,308 623,307 624,307 625,306 626,306 627,305 628,304 629,304 630,303 631,302 631,302 632,301 633,300 634,300 635,299 636,298 637,298 638,297 639,297 639,296 640,295 641,295 642,294 643,293 644,293 645,292 646,291 647,291 648,290 648,290 649,289 650,288 651,288 652,287 653,286 654,286 655,285 656,284 656,284 657,283 658,283 659,282 660,281 661,281 662,280 663,279 664,279 665,278 665,277 666,277 667,276 668,275 669,275 670,274 671,273 672,273 673,272 673,271 674,271 675,270 676,270 677,269 678,268 679,268 680,267 681,266 681,266 682,265 683,265 684,264 685,263 686,263 687,262 688,261 689,261 690,260 690,259 691,259 692,258 693,258 694,257 695,256 696,256 697,255 698,254 698,254 699,253 700,253 701,252 702,252 703,251 704,250 705,250 706,249 707,249 707,248 708,247 709,247 710,246 711,245 712,245 713,244 714,244 715,243 715,243 716,242 717,241 718,241 719,240 720,239 721,239 722,238 723,237 724,237 724,236 725,236 726,235 727,234 728,234 729,233 730,232 731,232 732,231 732,230 733,230 734,229 735,229 736,228 737,227 738,227 739,226 740,226 741,225 741,224 742,224 743,223 744,222 745,222 746,221 747,220 748,220 749,219 749,218 750,218 751,217 752,216 753,216 754,215 755,214 756,214 757,213 757,213 758,212 759,211 760,211 761,210 762,210 763,209 764,209 765,208 766,207 766,207 767,206 768,206 769,205 770,205 771,204 772,203 773,203 774,202 774,202 775,201 776,200 777,200 778,199 779,198 780,198 781,197 782,196 783,196 783,195 784,195 785,194 786,193 787,193 788,192 789,191 790,190 791,190 791,189 792,188 793,188 794,187 795,186 796,186 797,185 798,184 799,184 800,183 800,183 801,182 802,181 803,181 804,180 805,180 806,179 807,178 808,178 808,177 809,177 810,176 811,175 812,175 813,174 814,174 815,173 816,173 817,172 817,171 818,171 819,170 820,169 821,169 822,168 823,167 824,167 825,166 825,165 826,165 827,164 828,164 829,163 830,162 831,162 832,161 833,160 833,160 834,159 835,159 836,158 837,157 838,157 839,157 840,156 841,155 842,155 842,154 843,154 844,153 845,153 846,152 847,151 848,151 849,150 850,149 850,149 851,148 852,148 853,147 854,146 855,146 856,145 857,145 858,144 859,143 859,143 860,142 861,142 862,141 863,140 864,139 865,139 866,138 867,138 867,137 868,137 869,136 870,136 871,135 872,135 873,134 874,133 875,133 876,132 876,131 877,131 878,130 879,130 880,129 881,129 882,128 883,128 884,127 884,126 885,126 886,125 887,125 888,124 889,123 890,123 891,122 892,122 893,121 893,120 894,120 895,119 896,119 897,118 898,117 899,117 900,116 901,116 901,115 902,114 903,113 904,113 905,112 906,111 907,111 908,110 909,110 909,109 910,108 911,108 912,107 913,106 914,106 915,105 916,105 917,104 918,103 918,103 919,102 920,102 921,101 922,100 923,100 924,99 925,98 926,98 926,97 927,96 928,96 929,95 930,95 931,94 932,93 933,93 934,92 935,92 935,91 936,90 937,90 938,89 939,89 940,88 941,87 942,87 943,86 943,86 944,85 945,85 946,84 947,83 948,83 949,82 950,81 951,81 952,80 952,80 953,79 954,78 955,78 956,77 957,77 958,76 959,76 960,75 960,74 961,74 962,73 963,73 964,72 965,71 966,71 967,70 968,70 969,69 969,68 970,68 971,68 971,68 973,68 "/>
<line opacity="0.1" stroke="#000000" stroke-width="1" x1="89" y1="699" x2="89" y2="68"/>
<line opacity="0.1" stroke="#000000" stroke-width="1" x1="101" y1="699" x2="101" y2="68"/>
<line opacity="0.1" stroke="#000000" stroke-width="1" x1="112" y1="699" x2="112" y2="68"/>
<line opacity="0.1" stroke="#000000" stroke-width="1" x1="124" y1="699" x2="124" y2="68"/>
<line opacity="0.1" stroke="#000000" stroke-width="1" x1="136" y1="699" x2="136" y2="68"/>
<line opacity="0.1" stroke="#000000" stroke-width="1" x1="148" y1="699" x2="148" y2="68"/>
<line opacity="0.1" stroke="#000000" stroke-width="1" x1="160" y1="699" x2="160" y2="68"/>
<line opacity="0.1" stroke="#000000" stroke-width="1" x1="172" y1="699" x2="172" y2="68"/>
<line opacity="0.1" stroke="#000000" stroke-width="1" x1="184" y1="699" x2="184" y2="68"/>
<line opacity="0.1" stroke="#000000" stroke-width="1" x1="195" y1="699" x2="195" y2="68"/>
<line opacity="0.1" stroke="#000000" stroke-width="1" x1="207" y1="699" x2="207" y2="68"/>
<line opacity="0.1" stroke="#000000" stroke-width="1" x1="219" y1="699" x2="219" y2="68"/>
<line opacity="0.1" stroke="#000000" stroke-width="1" x1="231" y1="699" x2="231" y2="68"/>
<line opacity="0.1" stroke="#000000" stroke-width="1" x1="243" y1="699" x2="243" y2="68"/>
<line opacity="0.1" stroke="#000000" stroke-width="1" x1="255" y1="699" x2="255" y2="68"/>
<line opacity="0.1" stroke="#000000" stroke-width="1" x1="267" y1="699" x2="267" y2="68"/>
<line opacity="0.1" stroke="#000000" stroke-width="1" x1="278" y1="699" x2="278" y2="68"/>
<line opacity="0.1" stroke="#000000" stroke-width="1" x1="290" y1="699" x2="290" y2="68"/>
<line opacity="0.1" stroke="#000000" stroke-width="1" x1="302" y1="699" x2="302" y2="68"/>
<line opacity="0.1" stroke="#000000" stroke-width="1" x1="314" y1="699" x2="314" y2="68"/>
<line opacity="0.1" stroke="#000000" stroke-width="1" x1="326" y1="699" x2="326" y2="68"/>
<line opacity="0.1" stroke="#000000" stroke-width="1" x1="338" y1="699" x2="338" y2="68"/>
<line opacity="0.1" stroke="#000000" stroke-width="1" x1="350" y1="699" x2="350" y2="68"/>
<line opacity="0.1" stroke="#000000" stroke-width="1" x1="361" y1="699" x2="361" y2="68"/>
<line opacity="0.1" stroke="#000000" stroke-width="1" x1="373" y1="699" x2="373" y2="68"/>
<line opacity="0.1" stroke="#000000" stroke-width="1" x1="385" y1="699" x2="385" y2="68"/>
<line opacity="0.1" stroke="#000000" stroke-width="1" x1="397" y1="699" x2="397" y2="68"/>
<line opacity="0.1" stroke="#000000" stroke-width="1" x1="409" y1="699" x2="409" y2="68"/>
<line opacity="0.1" stroke="#000000" stroke-width="1" x1="421" y1="699" x2="421" y2="68"/>
<line opacity="0.1" stroke="#000000" stroke-width="1" x1="433" y1="699" x2="433" y2="68"/>
<line opacity="0.1" stroke="#000000" stroke-width="1" x1="444" y1="699" x2="444" y2="68"/>
<line opacity="0.1" stroke="#000000" stroke-width="1" x1="456" y1="699" x2="456" y2="68"/>
<line opacity="0.1" stroke="#000000" stroke-width="1" x1="468" y1="699" x2="468" y2="68"/>
<line opacity="0.1" stroke="#000000" stroke-width="1" x1="480" y1="699" x2="480" y2="68"/>
<line opacity="0.1" stroke="#000000" stroke-width="1" x1="492" y1="699" x2="492" y2="68"/>
<line opacity="0.1" stroke="#000000" stroke-width="1" x1="504" y1="699" x2="504" y2="68"/>
<line opacity="0.1" stroke="#000000" stroke-width="1" x1="516" y1="699" x2="516" y2="68"/>
<line opacity="0.1" stroke="#000000" stroke-width="1" x1="527" y1="699" x2="527" y2="68"/>
<line opacity="0.1" stroke="#000000" stroke-width="1" x1="539" y1="699" x2="539" y2="68"/>
<line opacity="0.1" stroke="#000000" stroke-width="1" x1="551" y1="699" x2="551" y2="68"/>
<line opacity="0.1" stroke="#000000" stroke-width="1" x1="563" y1="699" x2="563" y2="68"/>
<line opacity="0.1" stroke="#000000" stroke-width="1" x1="575" y1="699" x2="575" y2="68"/>
<line opacity="0.1" stroke="#000000" stroke-width="1" x1="587" y1="699" x2="587" y2="68"/>
<line opacity="0.1" stroke="#000000" stroke-width="1" x1="599" y1="699" x2="599" y2="68"/>
<line opacity="0.1" stroke="#000000" stroke-width="1" x1="610" y1="699" x2="610" y2="68"/>
<line opacity="0.1" stroke="#000000" stroke-width="1" x1="622" y1="699" x2="622" y2="68"/>
<line opacity="0.1" stroke="#000000" stroke-width="1" x1="634" y1="699" x2="634" y2="68"/>
<line opacity="0.1" stroke="#000000" stroke-width="1" x1="646" y1="699" x2="646" y2="68"/>
<line opacity="0.1" stroke="#000000" stroke-width="1" x1="658" y1="699" x2="658" y2="68"/>
<line opacity="0.1" stroke="#000000" stroke-width="1" x1="670" y1="699" x2="670" y2="68"/>
<line opacity="0.1" stroke="#000000" stroke-width="1" x1="682" y1="699" x2="682" y2="68"/>
<line opacity="0.1" stroke="#000000" stroke-width="1" x1="693" y1="699" x2="693" y2="68"/>
<line opacity="0.1" stroke="#000000" stroke-width="1" x1="705" y1="699" x2="705" y2="68"/>
<line opacity="0.1" stroke="#000000" stroke-width="1" x1="717" y1="699" x2="717" y2="68"/>
<line opacity="0.1" stroke="#000000" stroke-width="1" x1="729" y1="699" x2="729" y2="68"/>
<line opacity="0.1" stroke="#000000" stroke-width="1" x1="741" y1="699" x2="741" y2="68"/>
<line opacity="0.1" stroke="#000000" stroke-width="1" x1="753" y1="699" x2="753" y2="68"/>
<line opacity="0.1" stroke="#000000" stroke-width="1" x1="765" y1="699" x2="765" y2="68"/>
<line opacity="0.1" stroke="#000000" stroke-width="1" x1="776" y1="699" x2="776" y2="68"/>
<line opacity="0.1" stroke="#000000" stroke-width="1" x1="788" y1="699" x2="788" y2="68"/>
<line opacity="0.1" stroke="#000000" stroke-width="1" x1="800" y1="699" x2="800" y2="68"/>
<line opacity="0.1" stroke="#000000" stroke-width="1" x1="812" y1="699" x2="812" y2="68"/>
<line opacity="0.1" stroke="#000000" stroke-width="1" x1="824" y1="699" x2="824" y2="68"/>
<line opacity="0.1" stroke="#000000" stroke-width="1" x1="836" y1="699" x2="836" y2="68"/>
<line opacity="0.1" stroke="#000000" stroke-width="1" x1="848" y1="699" x2="848" y2="68"/>
<line opacity="0.1" stroke="#000000" stroke-width="1" x1="859" y1="699" x2="859" y2="68"/>
<line opacity="0.1" stroke="#000000" stroke-width="1" x1="871" y1="699" x2="871" y2="68"/>
<line opacity="0.1" stroke="#000000" stroke-width="1" x1="883" y1="699" x2="883" y2="68"/>
<line opacity="0.1" stroke="#000000" stroke-width="1" x1="895" y1="699" x2="895" y2="68"/>
<line opacity="0.1" stroke="#000000" stroke-width="1" x1="907" y1="699" x2="907" y2="68"/>
<line opacity="0.1" stroke="#000000" stroke-width="1" x1="919" y1="699" x2="919" y2="68"/>
<line opacity="0.1" stroke="#000000" stroke-width="1" x1="931" y1="699" x2="931" y2="68"/>
<line opacity="0.1" stroke="#000000" stroke-width="1" x1="942" y1="699" x2="942" y2="68"/>
<line opacity="0.1" stroke="#000000" stroke-width="1" x1="954" y1="699" x2="954" y2="68"/>
<line opacity="0.1" stroke="#000000" stroke-width="1" x1="966" y1="699" x2="966" y2="68"/>
<line opacity="0.1" stroke="#000000" stroke-width="1" x1="78" y1="699" x2="973" y2="699"/>
<line opacity="0.1" stroke="#000000" stroke-width="1" x1="78" y1="688" x2="973" y2="688"/>
<line opacity="0.1" stroke="#000000" stroke-width="1" x1="78" y1="677" x2="973" y2="677"/>
<line opacity="0.1" stroke="#000000" stroke-width="1" x1="78" y1="666" x2="973" y2="666"/>
<line opacity="0.1" stroke="#000000" stroke-width="1" x1="78" y1="655" x2="973" y2="655"/>
<line opacity="0.1" stroke="#000000" stroke-width="1" x1="78" y1="645" x2="973" y2="645"/>
<line opacity="0.1" stroke="#000000" stroke-width="1" x1="78" y1="634" x2="973" y2="634"/>
<line opacity="0.1" stroke="#000000" stroke-width="1" x1="78" y1="623" x2="973" y2="623"/>
<line opacity="0.1" stroke="#000000" stroke-width="1" x1="78" y1="612" x2="973" y2="612"/>
<line opacity="0.1" stroke="#000000" stroke-width="1" x1="78" y1="602" x2="973" y2="602"/>
<line opacity="0.1" stroke="#000000" stroke-width="1" x1="78" y1="591" x2="973" y2="591"/>
<line opacity="0.1" stroke="#000000" stroke-width="1" x1="78" y1="580" x2="973" y2="580"/>
<line opacity="0.1" stroke="#000000" stroke-width="1" x1="78" y1="569" x2="973" y2="569"/>
<line opacity="0.1" stroke="#000000" stroke-width="1" x1="78" y1="558" x2="973" y2="558"/>
<line opacity="0.1" stroke="#000000" stroke-width="1" x1="78" y1="548" x2="973" y2="548"/>
<line opacity="0.1" stroke="#000000" stroke-width="1" x1="78" y1="537" x2="973" y2="537"/>
<line opacity="0.1" stroke="#000000" stroke-width="1" x1="78" y1="526" x2="973" y2="526"/>
<line opacity="0.1" stroke="#000000" stroke-width="1" x1="78" y1="515" x2="973" y2="515"/>
<line opacity="0.1" stroke="#000000" stroke-width="1" x1="78" y1="505" x2="973" y2="505"/>
<line opacity="0.1" stroke="#000000" stroke-width="1" x1="78" y1="494" x2="973" y2="494"/>
<line opacity="0.1" stroke="#000000" stroke-width="1" x1="78" y1="483" x2="973" y2="483"/>
<line opacity="0.1" stroke="#000000" stroke-width="1" x1="78" y1="472" x2="973" y2="472"/>
<line opacity="0.1" stroke="#000000" stroke-width="1" x1="78" y1="462" x2="973" y2="462"/>
<line opacity="0.1" stroke="#000000" stroke-width="1" x1="78" y1="451" x2="973" y2="451"/>
<line opacity="0.1" stroke="#000000" stroke-width="1" x1="78" y1="440" x2="973" y2="440"/>
<line opacity="0.1" stroke="#000000" stroke-width="1" x1="78" y1="429" x2="973" y2="429"/>
<line opacity="0.1" stroke="#000000" stroke-width="1" x1="78" y1="418" x2="973" y2="418"/>
<line opacity="0.1" stroke="#000000" stroke-width="1" x1="78" y1="408" x2="973" y2="408"/>
<line opacity="0.1" stroke="#000000" stroke-width="1" x1="78" y1="397" x2="973" y2="397"/>
<line opacity="0.1" stroke="#000000" stroke-width="1" x1="78" y1="386" x2="973" y2="386"/>
<line opacity="0.1" stroke="#000000" stroke-width="1" x1="78" y1="375" x2="973" y2="375"/>
<line opacity="0.1" stroke="#000000" stroke-width="1" x1="78" y1="365" x2="973" y2="365"/>
<line opacity="0.1" stroke="#000000" stroke-width="1" x1="78" y1="354" x2="973" y2="354"/>
<line opacity="0.1" stroke="#000000" stroke-width="1" x1="78" y1="343" x2="973" y2="343"/>
<line opacity="0.1" stroke="#000000" stroke-width="1" x1="78" y1="332" x2="973" y2="332"/>
<line opacity="0.1" stroke="#000000" stroke-width="1" x1="78" y1="321" x2="973" y2="321"/>
<line opacity="0.1" stroke="#000000" stroke-width="1" x1="78" y1="311" x2="973" y2="311"/>
<line opacity="0.1" stroke="#000000" stroke-width="1" x1="78" y1="300" x2="973" y2="300"/>
<line opacity="0.1" stroke="#000000" stroke-width="1" x1="78" y1="289" x2="973" y2="289"/>
<line opacity="0.1" stroke="#000000" stroke-width="1" x1="78" y1="278" x2="973" y2="278"/>
<line opacity="0.1" stroke="#000000" stroke-width="1" x1="78" y1="268" x2="973" y2="268"/>
<line opacity="0.1" stroke="#000000" stroke-width="1" x1="78" y1="257" x2="973" y2="257"/>
<line opacity="0.1" stroke="#000000" stroke-width="1" x1="78" y1="246" x2="973" y2="246"/>
<line opacity="0.1" stroke="#000000" stroke-width="1" x1="78" y1="235" x2="973" y2="235"/>
<line opacity="0.1" stroke="#000000" stroke-width="1" x1="78" y1="225" x2="973" y2="225"/>
<line opacity="0.1" stroke="#000000" stroke-width="1" x1="78" y1="214" x2="973" y2="214"/>
<line opacity="0.1" stroke="#000000" stroke-width="1" x1="78" y1="203" x2="973" y2="203"/>
<line opacity="0.1" stroke="#000000" stroke-width="1" x1="78" y1="192" x2="973" y2="192"/>
<line opacity="0.1" stroke="#000000" stroke-width="1" x1="78" y1="181" x2="973" y2="181"/>
<line opacity="0.1" stroke="#000000" stroke-width="1" x1="78" y1="171" x2="973" y2="171"/>
<line opacity="0.1" stroke="#000000" stroke-width="1" x1="78" y1="160" x2="973" y2="160"/>
<line opacity="0.1" stroke="#000000" stroke-width="1" x1="78" y1="149" x2="973" y2="149"/>
<line opacity="0.1" stroke="#000000" stroke-width="1" x1="78" y1="138" x2="973" y2="138"/>
<line opacity="0.1" stroke="#000000" stroke-width="1" x1="78" y1="128" x2="973" y2="128"/>
<line opacity="0.1" stroke="#000000" stroke-width="1" x1="78" y1="117" x2="973" y2="117"/>
<line opacity="0.1" stroke="#000000" stroke-width="1" x1="78" y1="106" x2="973" y2="106"/>
<line opacity="0.1" stroke="#000000" stroke-width="1" x1="78" y1="95" x2="973" y2="95"/>
<line opacity="0.1" stroke="#000000" stroke-width="1" x1="78" y1="85" x2="973" y2="85"/>
<line opacity="0.1" stroke="#000000" stroke-width="1" x1="78" y1="74" x2="973" y2="74"/>
<text x="8" y="384" dy="0.76em" text-anchor="middle" font-family="sans-serif" font-size="9.67741935483871" opacity="1" fill="#000000" transform="rotate(270, 8, 384)">
Memory usage
</text>
<text x="526" y="760" dy="-0.5ex" text-anchor="middle" font-family="sans-serif" font-size="9.67741935483871" opacity="1" fill="#000000">
Time
</text>
<line opacity="0.2" stroke="#000000" stroke-width="1" x1="112" y1="699" x2="112" y2="68"/>
<line opacity="0.2" stroke="#000000" stroke-width="1" x1="231" y1="699" x2="231" y2="68"/>
<line opacity="0.2" stroke="#000000" stroke-width="1" x1="350" y1="699" x2="350" y2="68"/>
<line opacity="0.2" stroke="#000000" stroke-width="1" x1="468" y1="699" x2="468" y2="68"/>
<line opacity="0.2" stroke="#000000" stroke-width="1" x1="587" y1="699" x2="587" y2="68"/>
<line opacity="0.2" stroke="#000000" stroke-width="1" x1="705" y1="699" x2="705" y2="68"/>
<line opacity="0.2" stroke="#000000" stroke-width="1" x1="824" y1="699" x2="824" y2="68"/>
<line opacity="0.2" stroke="#000000" stroke-width="1" x1="942" y1="699" x2="942" y2="68"/>
<line opacity="0.2" stroke="#000000" stroke-width="1" x1="78" y1="699" x2="973" y2="699"/>
<line opacity="0.2" stroke="#000000" stroke-width="1" x1="78" y1="591" x2="973" y2="591"/>
<line opacity="0.2" stroke="#000000" stroke-width="1" x1="78" y1="483" x2="973" y2="483"/>
<line opacity="0.2" stroke="#000000" stroke-width="1" x1="78" y1="375" x2="973" y2="375"/>
<line opacity="0.2" stroke="#000000" stroke-width="1" x1="78" y1="268" x2="973" y2="268"/>
<line opacity="0.2" stroke="#000000" stroke-width="1" x1="78" y1="160" x2="973" y2="160"/>
<polyline fill="none" opacity="1" stroke="#000000" stroke-width="1" points="77,68 77,699 "/>
<text x="68" y="699" dy="0.5ex" text-anchor="end" font-family="sans-serif" font-size="9.67741935483871" opacity="1" fill="#000000">
0 MB
</text>
<polyline fill="none" opacity="1" stroke="#000000" stroke-width="1" points="72,699 77,699 "/>
<text x="68" y="591" dy="0.5ex" text-anchor="end" font-family="sans-serif" font-size="9.67741935483871" opacity="1" fill="#000000">
19 MB
</text>
<polyline fill="none" opacity="1" stroke="#000000" stroke-width="1" points="72,591 77,591 "/>
<text x="68" y="483" dy="0.5ex" text-anchor="end" font-family="sans-serif" font-size="9.67741935483871" opacity="1" fill="#000000">
38 MB
</text>
<polyline fill="none" opacity="1" stroke="#000000" stroke-width="1" points="72,483 77,483 "/>
<text x="68" y="375" dy="0.5ex" text-anchor="end" font-family="sans-serif" font-size="9.67741935483871" opacity="1" fill="#000000">
57 MB
</text>
<polyline fill="none" opacity="1" stroke="#000000" stroke-width="1" points="72,375 77,375 "/>
<text x="68" y="268" dy="0.5ex" text-anchor="end" font-family="sans-serif" font-size="9.67741935483871" opacity="1" fill="#000000">
76 MB
</text>
<polyline fill="none" opacity="1" stroke="#000000" stroke-width="1" points="72,268 77,268 "/>
<text x="68" y="160" dy="0.5ex" text-anchor="end" font-family="sans-serif" font-size="9.67741935483871" opacity="1" fill="#000000">
95 MB
</text>
<polyline fill="none" opacity="1" stroke="#000000" stroke-width="1" points="72,160 77,160 "/>
<polyline fill="none" opacity="1" stroke="#000000" stroke-width="1" points="78,700 973,700 "/>
<text x="112" y="710" dy="0.76em" text-anchor="middle" font-family="sans-serif" font-size="9.67741935483871" opacity="1" fill="#000000">
07 17:46:40
</text>
<polyline fill="none" opacity="1" stroke="#000000" stroke-width="1" points="112,700 112,705 "/>
<text x="231" y="710" dy="0.76em" text-anchor="middle" font-family="sans-serif" font-size="9.67741935483871" opacity="1" fill="#000000">
07 20:33:20
</text>
<polyline fill="none" opacity="1" stroke="#000000" stroke-width="1" points="231,700 231,705 "/>
<text x="350" y="710" dy="0.76em" text-anchor="middle" font-family="sans-serif" font-size="9.67741935483871" opacity="1" fill="#000000">
07 23:20:00
</text>
<polyline fill="none" opacity="1" stroke="#000000" stroke-width="1" points="350,700 350,705 "/>
<text x="468" y="710" dy="0.76em" text-anchor="middle" font-family="sans-serif" font-size="9.67741935483871" opacity="1" fill="#000000">
08 02:06:40
</text>
<polyline fill="none" opacity="1" stroke="#000000" stroke-width="1" points="468,700 468,705 "/>
<text x="587" y="710" dy="0.76em" text-anchor="middle" font-family="sans-serif" font-size="9.67741935483871" opacity="1" fill="#000000">
08 04:53:20
</text>
<polyline fill="none" opacity="1" stroke="#000000" stroke-width="1" points="587,700 587,705 "/>
<text x="705" y="710" dy="0.76em" text-anchor="middle" font-family="sans-serif" font-size="9.67741935483871" opacity="1" fill="#000000">
08 07:40:00
</text>
<polyline fill="none" opacity="1" stroke="#000000" stroke-width="1" points="705,700 705,705 "/>
<text x="824" y="710" dy="0.76em" text-anchor="middle" font-family="sans-serif" font-size="9.67741935483871" opacity="1" fill="#000000">
08 10:26:40
</text>
<polyline fill="none" opacity="1" stroke="#000000" stroke-width="1" points="824,700 824,705 "/>
<text x="942" y="710" dy="0.76em" text-anchor="middle" font-family="sans-serif" font-size="9.67741935483871" opacity="1" fill="#000000">
08 13:13:20
</text>
<polyline fill="none" opacity="1" stroke="#000000" stroke-width="1" points="942,700 942,705 "/>
<polyline fill="none" opacity="1" stroke="#000000" stroke-width="1" points="78,67 974,67 "/>
<text x="112" y="58" dy="-0.5ex" text-anchor="middle" font-family="sans-serif" font-size="9.67741935483871" opacity="1" fill="#000000">
+00:49:04
</text>
<polyline fill="none" opacity="1" stroke="#000000" stroke-width="1" points="112,62 112,67 "/>
<text x="231" y="58" dy="-0.5ex" text-anchor="middle" font-family="sans-serif" font-size="9.67741935483871" opacity="1" fill="#000000">
+03:35:44
</text>
<polyline fill="none" opacity="1" stroke="#000000" stroke-width="1" points="231,62 231,67 "/>
<text x="350" y="58" dy="-0.5ex" text-anchor="middle" font-family="sans-serif" font-size="9.67741935483871" opacity="1" fill="#000000">
+06:22:24
</text>
<polyline fill="none" opacity="1" stroke="#000000" stroke-width="1" points="350,62 350,67 "/>
<text x="469" y="58" dy="-0.5ex" text-anchor="middle" font-family="sans-serif" font-size="9.67741935483871" opacity="1" fill="#000000">
+09:09:04
</text>
<polyline fill="none" opacity="1" stroke="#000000" stroke-width="1" points="469,62 469,67 "/>
<text x="587" y="58" dy="-0.5ex" text-anchor="middle" font-family="sans-serif" font-size="9.67741935483871" opacity="1" fill="#000000">
+11:55:44
</text>
<polyline fill="none" opacity="1" stroke="#000000" stroke-width="1" points="587,62 587,67 "/>
<text x="706" y="58" dy="-0.5ex" text-anchor="middle" font-family="sans-serif" font-size="9.67741935483871" opacity="1" fill="#000000">
+14:42:24
</text>
<polyline fill="none" opacity="1" stroke="#000000" stroke-width="1" points="706,62 706,67 "/>
<text x="825" y="58" dy="-0.5ex" text-anchor="middle" font-family="sans-serif" font-size="9.67741935483871" opacity="1" fill="#000000">
+17:29:04
</text>
<polyline fill="none" opacity="1" stroke="#000000" stroke-width="1" points="825,62 825,67 "/>
<text x="943" y="58" dy="-0.5ex" text-anchor="middle" font-family="sans-serif" font-size="9.67741935483871" opacity="1" fill="#000000">
+20:15:44
</text>
<polyline fill="none" opacity="1" stroke="#000000" stroke-width="1" points="943,62 943,67 "/>
<rect x="83" y="73" width="99" height="45" opacity="0.75" fill="#FFFFFF" stroke="none"/>
<rect x="83" y="73" width="99" height="45" opacity="1" fill="none" stroke="#000000"/>
<text x="123" y="83" dy="0.76em" text-anchor="start" font-family="sans-serif" font-size="9.67741935483871" opacity="1" fill="#000000">
Temporary
</text>
<text x="123" y="98" dy="0.76em" text-anchor="start" font-family="sans-serif" font-size="9.67741935483871" opacity="1" fill="#000000">
Leaked
</text>
<rect x="93" y="83" width="10" height="10" opacity="1" fill="#3CB44B" stroke="none"/>
<rect x="93" y="98" width="10" height="10" opacity="1" fill="#E6194B" stroke="none"/>
</svg>
