<svg width="1024" height="768" viewBox="0 0 1024 768" xmlns="http://www.w3.org/2000/svg">
<rect x="0" y="0" width="1024" height="768" opacity="1" fill="#FFFFFF" stroke="none"/>
<polygon opacity="1" fill="#3CB44B" points="78,694 79,694 80,694 81,694 82,694 83,699 83,699 84,699 85,699 86,699 87,699 88,699 89,699 90,699 91,699 92,699 92,699 93,699 94,699 95,699 96,699 97,699 98,699 99,699 100,699 100,699 101,699 102,699 103,699 104,699 105,699 106,681 107,681 108,681 108,699 109,699 110,699 111,699 112,699 113,699 114,699 115,699 116,699 117,699 117,699 118,699 119,699 120,699 121,699 122,699 123,699 124,694 125,694 125,677 126,677 127,677 128,677 129,677 130,681 131,681 132,681 133,681 134,681 134,681 135,681 136,677 137,677 138,677 139,677 140,677 141,677 142,677 142,673 143,673 144,673 145,673 146,673 147,673 148,677 149,677 150,677 150,673 151,673 152,673 153,673 154,673 155,673 156,673 157,673 158,673 159,673 159,677 160,677 161,677 162,677 163,677 164,699 165,699 166,699 167,699 167,699 168,699 169,694 170,677 171,681 172,677 173,677 174,677 175,677 175,677 176,656 177,656 178,656 179,656 180,656 181,656 182,673 183,673 184,673 184,673 185,673 186,694 187,690 188,690 189,690 190,690 191,690 192,690 192,690 193,673 194,673 195,673 196,694 197,694 198,694 199,694 200,694 200,677 201,677 202,677 203,677 204,681 205,681 206,664 207,660 208,660 209,660 209,664 210,664 211,664 212,664 213,694 214,694 215,694 216,694 217,694 217,694 218,690 219,690 220,690 221,673 222,673 223,673 224,681 225,677 226,677 226,673 227,656 228,656 229,656 230,656 231,656 232,656 233,660 234,660 234,660 235,660 236,660 237,660 238,660 239,660 240,660 241,656 242,656 242,639 243,639 244,643 245,643 246,643 247,643 248,643 249,643 250,643 251,643 251,643 252,643 253,643 254,626 255,630 256,630 257,630 258,630 259,630 259,613 260,609 261,609 262,609 263,605 264,605 265,588 266,588 267,592 267,592 268,592 269,592 270,592 271,592 272,592 273,592 274,592 275,592 276,579 276,579 277,579 278,575 279,575 280,558 281,558 282,558 283,558 284,558 284,554 285,554 286,554 287,554 288,554 289,558 290,558 291,558 292,558 292,545 293,545 294,545 295,545 296,545 297,524 298,524 299,524 300,519 301,519 301,519 302,519 303,519 304,519 305,519 306,519 307,519 308,519 309,515 309,515 310,515 311,519 312,519 313,507 314,507 315,507 316,507 317,507 317,507 318,507 319,507 320,507 321,507 322,507 323,502 324,502 325,502 326,502 326,498 327,498 328,494 329,494 330,477 331,477 332,473 333,473 334,473 334,477 335,477 336,477 337,477 338,477 339,477 340,477 341,473 342,473 343,473 343,473 344,473 345,473 346,473 347,473 348,473 349,473 350,473 351,473 351,473 352,473 353,455 354,455 355,455 356,455 357,455 358,438 359,438 359,438 360,438 361,438 362,438 363,438 364,438 365,438 366,438 367,438 368,438 368,434 369,434 370,434 371,434 372,434 373,434 374,430 375,430 376,430 376,421 377,421 378,421 379,421 380,417 381,417 382,417 383,417 384,417 384,417 385,396 386,396 387,396 388,396 389,396 390,400 391,400 392,400 393,400 393,400 394,387 395,387 396,387 397,387 398,387 399,387 400,387 401,387 401,383 402,383 403,383 404,383 405,383 406,383 407,383 408,383 409,379 409,379 410,379 411,379 412,379 413,383 414,383 415,383 416,370 417,370 418,366 418,366 419,366 420,362 421,362 422,357 423,353 424,353 425,353 426,353 426,340 427,340 428,340 429,336 430,336 431,336 432,336 433,319 434,319 435,323 435,323 436,323 437,323 438,323 439,323 440,323 441,323 442,315 443,315 443,315 444,315 445,315 446,315 447,315 448,315 449,315 450,315 451,315 451,298 452,293 453,293 454,293 455,293 456,298 457,298 458,298 459,298 460,298 460,298 461,298 462,281 463,281 464,281 465,281 466,281 467,281 468,281 468,281 469,281 470,281 471,281 472,281 473,281 474,276 475,276 476,276 476,276 477,272 478,276 479,276 480,276 481,276 482,276 483,276 484,272 485,255 485,255 486,255 487,255 488,251 489,251 490,247 491,242 492,242 493,238 493,234 494,225 495,221 496,221 497,221 498,221 499,221 500,221 501,221 501,225 502,242 503,238 504,238 505,234 506,234 507,230 508,230 509,230 510,230 510,230 511,230 512,230 513,234 514,234 515,234 516,234 517,234 518,230 518,230 519,230 520,230 521,230 522,230 523,230 524,230 525,230 526,230 527,230 527,230 528,230 529,225 530,225 531,225 532,225 533,221 534,221 535,221 535,225 536,225 537,225 538,212 539,212 540,212 541,208 542,208 543,208 543,191 544,191 545,191 546,191 547,187 548,187 549,187 550,187 551,187 552,187 552,187 553,187 554,187 555,187 556,187 557,187 558,191 559,191 560,191 560,191 561,191 562,191 563,191 564,191 565,191 566,191 567,187 568,187 568,187 569,191 570,191 571,191 572,191 573,191 574,191 575,191 576,191 577,191 577,191 578,191 579,170 580,170 581,170 582,170 583,153 584,153 585,153 585,149 586,149 587,149 588,144 589,144 590,144 591,149 592,153 593,153 593,153 594,153 595,153 596,153 597,153 598,153 599,149 600,149 601,149 602,149 602,153 603,153 604,153 605,153 606,153 607,153 608,153 609,153 610,153 610,153 611,153 612,153 613,153 614,157 615,157 616,157 617,157 618,157 619,140 619,140 620,140 621,140 622,136 623,136 624,136 625,140 626,140 627,140 627,140 628,123 629,123 630,123 631,123 632,123 633,123 634,123 635,664 635,664 636,669 637,669 638,669 639,669 640,669 641,669 642,669 643,669 644,669 644,652 645,652 646,652 647,652 648,647 649,630 650,630 651,630 652,630 652,630 653,609 654,609 655,609 656,609 657,609 658,609 659,605 660,605 660,605 661,605 662,605 663,605 664,588 665,588 666,588 667,588 668,588 669,588 669,588 670,583 671,583 672,583 673,583 674,583 675,583 676,583 677,583 677,566 678,566 679,562 680,562 681,562 682,566 683,566 684,566 685,566 685,566 686,566 687,566 688,545 689,545 690,545 691,545 692,545 693,545 694,524 694,524 695,524 696,524 697,524 698,524 699,524 700,524 701,524 702,524 702,524 703,507 704,507 705,507 706,515 707,515 708,515 709,515 710,515 710,511 711,511 712,511 713,511 714,494 715,490 716,490 717,490 718,494 719,494 719,477 720,477 721,477 722,477 723,477 724,477 725,460 726,460 727,455 727,455 728,455 729,460 730,460 731,460 732,460 733,460 734,455 735,455 736,455 736,455 737,455 738,455 739,455 740,455 741,460 742,460 743,443 744,443 744,443 745,443 746,438 747,438 748,438 749,438 750,438 751,438 752,434 752,434 753,417 754,417 755,417 756,417 757,417 758,417 759,417 760,400 761,400 761,400 762,400 763,400 764,404 765,404 766,404 767,404 768,400 769,400 769,400 770,400 771,400 772,400 773,400 774,400 775,400 776,404 777,404 777,387 778,387 779,387 780,387 781,387 782,383 783,383 784,383 785,383 786,383 786,383 787,387 788,379 789,379 790,379 791,379 792,379 793,379 794,379 794,379 795,379 796,379 797,379 798,379 799,379 800,379 801,379 802,379 802,379 803,379 804,362 805,362 806,362 807,362 808,362 809,362 810,345 811,345 811,345 812,345 813,345 814,345 815,345 816,345 817,345 818,353 819,353 819,353 820,353 821,353 822,332 823,332 824,332 825,332 826,332 827,332 828,332 828,332 829,332 830,328 831,328 832,328 833,328 834,323 835,306 836,315 836,315 837,311 838,311 839,311 840,293 841,293 842,293 843,293 844,293 844,293 845,293 846,298 847,298 848,281 849,281 850,285 851,285 852,285 853,285 853,268 854,268 855,268 856,268 857,268 858,264 859,264 860,247 861,247 861,247 862,247 863,247 864,230 865,230 866,230 867,230 868,230 869,230 869,230 870,238 871,238 872,238 873,238 874,238 875,234 876,234 877,234 878,234 878,234 879,234 880,234 881,217 882,217 883,221 884,221 885,221 886,221 886,221 887,221 888,221 889,221 890,221 891,221 892,221 893,204 894,204 894,204 895,204 896,204 897,204 898,204 899,187 900,187 901,187 902,187 903,187 903,187 904,187 905,187 906,187 907,187 908,187 909,187 910,170 911,170 911,170 912,166 913,166 914,166 915,166 916,166 917,166 918,170 919,170 920,170 920,153 921,153 922,153 923,153 924,153 925,153 926,149 927,131 928,131 928,131 929,136 930,136 931,136 932,136 933,136 934,136 935,136 936,131 936,127 937,127 938,127 939,127 940,127 941,127 942,131 943,114 944,114 945,114 945,114 946,114 947,114 948,97 949,97 950,97 951,97 952,97 953,97 953,102 954,102 955,102 956,102 957,97 958,97 959,97 960,80 961,80 961,80 962,80 963,80 964,80 965,80 966,85 966,85 967,85 968,85 969,85 970,85 970,85 971,68 971,68 973,68 973,699 78,699 "/>
<polyline fill="none" opacity="1" stroke="#3CB44B" stroke-width="1" points="78,694 79,694 80,694 81,694 82,694 83,699 83,699 84,699 85,699 86,699 87,699 88,699 89,699 90,699 91,699 92,699 92,699 93,699 94,699 95,699 96,699 97,699 98,699 99,699 100,699 100,699 101,699 102,699 103,699 104,699 105,699 106,681 107,681 108,681 108,699 109,699 110,699 111,699 112,699 113,699 114,699 115,699 116,699 117,699 117,699 118,699 119,699 120,699 121,699 122,699 123,699 124,694 125,694 125,677 126,677 127,677 128,677 129,677 130,681 131,681 132,681 133,681 134,681 134,681 135,681 136,677 137,677 138,677 139,677 140,677 141,677 142,677 142,673 143,673 144,673 145,673 146,673 147,673 148,677 149,677 150,677 150,673 151,673 152,673 153,673 154,673 155,673 156,673 157,673 158,673 159,673 159,677 160,677 161,677 162,677 163,677 164,699 165,699 166,699 167,699 167,699 168,699 169,694 170,677 171,681 172,677 173,677 174,677 175,677 175,677 176,656 177,656 178,656 179,656 180,656 181,656 182,673 183,673 184,673 184,673 185,673 186,694 187,690 188,690 189,690 190,690 191,690 192,690 192,690 193,673 194,673 195,673 196,694 197,694 198,694 199,694 200,694 200,677 201,677 202,677 203,677 204,681 205,681 206,664 207,660 208,660 209,660 209,664 210,664 211,664 212,664 213,694 214,694 215,694 216,694 217,694 217,694 218,690 219,690 220,690 221,673 222,673 223,673 224,681 225,677 226,677 226,673 227,656 228,656 229,656 230,656 231,656 232,656 233,660 234,660 234,660 235,660 236,660 237,660 238,660 239,660 240,660 241,656 242,656 242,639 243,639 244,643 245,643 246,643 247,643 248,643 249,643 250,643 251,643 251,643 252,643 253,643 254,626 255,630 256,630 257,630 258,630 259,630 259,613 260,609 261,609 262,609 263,605 264,605 265,588 266,588 267,592 267,592 268,592 269,592 270,592 271,592 272,592 273,592 274,592 275,592 276,579 276,579 277,579 278,575 279,575 280,558 281,558 282,558 283,558 284,558 284,554 285,554 286,554 287,554 288,554 289,558 290,558 291,558 292,558 292,545 293,545 294,545 295,545 296,545 297,524 298,524 299,524 300,519 301,519 301,519 302,519 303,519 304,519 305,519 306,519 307,519 308,519 309,515 309,515 310,515 311,519 312,519 313,507 314,507 315,507 316,507 317,507 317,507 318,507 319,507 320,507 321,507 322,507 323,502 324,502 325,502 326,502 326,498 327,498 328,494 329,494 330,477 331,477 332,473 333,473 334,473 334,477 335,477 336,477 337,477 338,477 339,477 340,477 341,473 342,473 343,473 343,473 344,473 345,473 346,473 347,473 348,473 349,473 350,473 351,473 351,473 352,473 353,455 354,455 355,455 356,455 357,455 358,438 359,438 359,438 360,438 361,438 362,438 363,438 364,438 365,438 366,438 367,438 368,438 368,434 369,434 370,434 371,434 372,434 373,434 374,430 375,430 376,430 376,421 377,421 378,421 379,421 380,417 381,417 382,417 383,417 384,417 384,417 385,396 386,396 387,396 388,396 389,396 390,400 391,400 392,400 393,400 393,400 394,387 395,387 396,387 397,387 398,387 399,387 400,387 401,387 401,383 402,383 403,383 404,383 405,383 406,383 407,383 408,383 409,379 409,379 410,379 411,379 412,379 413,383 414,383 415,383 416,370 417,370 418,366 418,366 419,366 420,362 421,362 422,357 423,353 424,353 425,353 426,353 426,340 427,340 428,340 429,336 430,336 431,336 432,336 433,319 434,319 435,323 435,323 436,323 437,323 438,323 439,323 440,323 441,323 442,315 443,315 443,315 444,315 445,315 446,315 447,315 448,315 449,315 450,315 451,315 451,298 452,293 453,293 454,293 455,293 456,298 457,298 458,298 459,298 460,298 460,298 461,298 462,281 463,281 464,281 465,281 466,281 467,281 468,281 468,281 469,281 470,281 471,281 472,281 473,281 474,276 475,276 476,276 476,276 477,272 478,276 479,276 480,276 481,276 482,276 483,276 484,272 485,255 485,255 486,255 487,255 488,251 489,251 490,247 491,242 492,242 493,238 493,234 494,225 495,221 496,221 497,221 498,221 499,221 500,221 501,221 501,225 502,242 503,238 504,238 505,234 506,234 507,230 508,230 509,230 510,230 510,230 511,230 512,230 513,234 514,234 515,234 516,234 517,234 518,230 518,230 519,230 520,230 521,230 522,230 523,230 524,230 525,230 526,230 527,230 527,230 528,230 529,225 530,225 531,225 532,225 533,221 534,221 535,221 535,225 536,225 537,225 538,212 539,212 540,212 541,208 542,208 543,208 543,191 544,191 545,191 546,191 547,187 548,187 549,187 550,187 551,187 552,187 552,187 553,187 554,187 555,187 556,187 557,187 558,191 559,191 560,191 560,191 561,191 562,191 563,191 564,191 565,191 566,191 567,187 568,187 568,187 569,191 570,191 571,191 572,191 573,191 574,191 575,191 576,191 577,191 577,191 578,191 579,170 580,170 581,170 582,170 583,153 584,153 585,153 585,149 586,149 587,149 588,144 589,144 590,144 591,149 592,153 593,153 593,153 594,153 595,153 596,153 597,153 598,153 599,149 600,149 601,149 602,149 602,153 603,153 604,153 605,153 606,153 607,153 608,153 609,153 610,153 610,153 611,153 612,153 613,153 614,157 615,157 616,157 617,157 618,157 619,140 619,140 620,140 621,140 622,136 623,136 624,136 625,140 626,140 627,140 627,140 628,123 629,123 630,123 631,123 632,123 633,123 634,123 635,664 635,664 636,669 637,669 638,669 639,669 640,669 641,669 642,669 643,669 644,669 644,652 645,652 646,652 647,652 648,647 649,630 650,630 651,630 652,630 652,630 653,609 654,609 655,609 656,609 657,609 658,609 659,605 660,605 660,605 661,605 662,605 663,605 664,588 665,588 666,588 667,588 668,588 669,588 669,588 670,583 671,583 672,583 673,583 674,583 675,583 676,583 677,583 677,566 678,566 679,562 680,562 681,562 682,566 683,566 684,566 685,566 685,566 686,566 687,566 688,545 689,545 690,545 691,545 692,545 693,545 694,524 694,524 695,524 696,524 697,524 698,524 699,524 700,524 701,524 702,524 702,524 703,507 704,507 705,507 706,515 707,515 708,515 709,515 710,515 710,511 711,511 712,511 713,511 714,494 715,490 716,490 717,490 718,494 719,494 719,477 720,477 721,477 722,477 723,477 724,477 725,460 726,460 727,455 727,455 728,455 729,460 730,460 731,460 732,460 733,460 734,455 735,455 736,455 736,455 737,455 738,455 739,455 740,455 741,460 742,460 743,443 744,443 744,443 745,443 746,438 747,438 748,438 749,438 750,438 751,438 752,434 752,434 753,417 754,417 755,417 756,417 757,417 758,417 759,417 760,400 761,400 761,400 762,400 763,400 764,404 765,404 766,404 767,404 768,400 769,400 769,400 770,400 771,400 772,400 773,400 774,400 775,400 776,404 777,404 777,387 778,387 779,387 780,387 781,387 782,383 783,383 784,383 785,383 786,383 786,383 787,387 788,379 789,379 790,379 791,379 792,379 793,379 794,379 794,379 795,379 796,379 797,379 798,379 799,379 800,379 801,379 802,379 802,379 803,379 804,362 805,362 806,362 807,362 808,362 809,362 810,345 811,345 811,345 812,345 813,345 814,345 815,345 816,345 817,345 818,353 819,353 819,353 820,353 821,353 822,332 823,332 824,332 825,332 826,332 827,332 828,332 828,332 829,332 830,328 831,328 832,328 833,328 834,323 835,306 836,315 836,315 837,311 838,311 839,311 840,293 841,293 842,293 843,293 844,293 844,293 845,293 846,298 847,298 848,281 849,281 850,285 851,285 852,285 853,285 853,268 854,268 855,268 856,268 857,268 858,264 859,264 860,247 861,247 861,247 862,247 863,247 864,230 865,230 866,230 867,230 868,230 869,230 869,230 870,238 871,238 872,238 873,238 874,238 875,234 876,234 877,234 878,234 878,234 879,234 880,234 881,217 882,217 883,221 884,221 885,221 886,221 886,221 887,221 888,221 889,221 890,221 891,221 892,221 893,204 894,204 894,204 895,204 896,204 897,204 898,204 899,187 900,187 901,187 902,187 903,187 903,187 904,187 905,187 906,187 907,187 908,187 909,187 910,170 911,170 911,170 912,166 913,166 914,166 915,166 916,166 917,166 918,170 919,170 920,170 920,153 921,153 922,153 923,153 924,153 925,153 926,149 927,131 928,131 928,131 929,136 930,136 931,136 932,136 933,136 934,136 935,136 936,131 936,127 937,127 938,127 939,127 940,127 941,127 942,131 943,114 944,114 945,114 945,114 946,114 947,114 948,97 949,97 950,97 951,97 952,97 953,97 953,102 954,102 955,102 956,102 957,97 958,97 959,97 960,80 961,80 961,80 962,80 963,80 964,80 965,80 966,85 966,85 967,85 968,85 969,85 970,85 970,85 971,68 971,68 973,68 "/>
<polygon opacity="1" fill="#E6194B" points="78,699 79,699 80,699 81,699 82,699 83,699 83,699 84,699 85,699 86,699 87,699 88,699 89,699 90,699 91,699 92,699 92,699 93,699 94,699 95,699 96,699 97,699 98,699 99,699 100,699 100,699 101,699 102,699 103,699 104,699 105,699 106,699 107,699 108,699 108,699 109,699 110,699 111,699 112,699 113,699 114,699 115,699 116,699 117,699 117,699 118,699 119,699 120,699 121,699 122,699 123,699 124,699 125,699 125,699 126,699 127,699 128,699 129,699 130,699 131,699 132,699 133,699 134,699 134,699 135,699 136,699 137,699 138,699 139,699 140,699 141,699 142,699 142,699 143,699 144,699 145,699 146,699 147,699 148,699 149,699 150,699 150,699 151,699 152,699 153,699 154,699 155,699 156,699 157,699 158,699 159,699 159,699 160,699 161,699 162,699 163,699 164,699 165,699 166,699 167,699 167,699 168,699 169,699 170,699 171,699 172,699 173,699 174,699 175,699 175,699 176,699 177,699 178,699 179,699 180,699 181,699 182,699 183,699 184,699 184,699 185,699 186,699 187,699 188,699 189,699 190,699 191,699 192,699 192,699 193,699 194,699 195,699 196,699 197,699 198,699 199,699 200,699 200,699 201,699 202,699 203,699 204,699 205,699 206,699 207,699 208,699 209,699 209,699 210,699 211,699 212,699 213,699 214,699 215,699 216,699 217,699 217,699 218,699 219,699 220,699 221,699 222,699 223,699 224,699 225,699 226,699 226,699 227,699 228,699 229,699 230,699 231,699 232,699 233,699 234,699 234,699 235,699 236,699 237,699 238,699 239,699 240,699 241,699 242,699 242,699 243,699 244,699 245,699 246,699 247,699 248,699 249,699 250,699 251,699 251,699 252,699 253,699 254,699 255,699 256,699 257,699 258,699 259,699 259,699 260,699 261,699 262,699 263,699 264,699 265,699 266,699 267,699 267,699 268,699 269,699 270,699 271,699 272,699 273,699 274,699 275,699 276,699 276,699 277,699 278,699 279,699 280,699 281,699 282,699 283,699 284,699 284,699 285,699 286,699 287,699 288,699 289,699 290,699 291,699 292,699 292,699 293,699 294,699 295,699 296,699 297,699 298,699 299,699 300,699 301,699 301,699 302,699 303,699 304,699 305,699 306,699 307,699 308,699 309,699 309,699 310,699 311,699 312,699 313,699 314,699 315,699 316,699 317,699 317,699 318,699 319,699 320,699 321,699 322,699 323,699 324,699 325,699 326,699 326,699 327,699 328,699 329,699 330,699 331,699 332,699 333,699 334,699 334,699 335,699 336,699 337,699 338,699 339,699 340,699 341,699 342,699 343,699 343,699 344,699 345,699 346,699 347,699 348,699 349,699 350,699 351,699 351,699 352,699 353,699 354,699 355,699 356,699 357,699 358,699 359,699 359,699 360,699 361,699 362,699 363,699 364,699 365,699 366,699 367,699 368,699 368,699 369,699 370,699 371,699 372,699 373,699 374,699 375,699 376,699 376,699 377,699 378,699 379,699 380,699 381,699 382,699 383,699 384,699 384,699 385,699 386,699 387,699 388,699 389,699 390,699 391,699 392,699 393,699 393,699 394,699 395,699 396,699 397,699 398,699 399,699 400,699 401,699 401,699 402,699 403,699 404,699 405,699 406,699 407,699 408,699 409,699 409,699 410,699 411,699 412,699 413,699 414,699 415,699 416,699 417,699 418,699 418,699 419,699 420,699 421,699 422,699 423,699 424,699 425,699 426,699 426,699 427,699 428,699 429,699 430,699 431,699 432,699 433,699 434,699 435,699 435,699 436,699 437,699 438,699 439,699 440,699 441,699 442,699 443,699 443,699 444,699 445,699 446,699 447,699 448,699 449,699 450,699 451,699 451,699 452,699 453,699 454,699 455,699 456,699 457,699 458,699 459,699 460,699 460,699 461,699 462,699 463,699 464,699 465,699 466,699 467,699 468,699 468,699 469,699 470,699 471,699 472,699 473,699 474,699 475,699 476,699 476,699 477,699 478,699 479,699 480,699 481,699 482,699 483,699 484,699 485,699 485,699 486,699 487,699 488,699 489,699 490,699 491,699 492,699 493,699 493,699 494,699 495,699 496,699 497,699 498,699 499,699 500,699 501,699 501,699 502,699 503,699 504,699 505,699 506,699 507,699 508,699 509,699 510,699 510,699 511,699 512,699 513,699 514,699 515,699 516,699 517,699 518,699 518,699 519,699 520,699 521,699 522,699 523,699 524,699 525,699 526,699 527,699 527,699 528,699 529,699 530,699 531,699 532,699 533,699 534,699 535,699 535,699 536,699 537,699 538,699 539,699 540,699 541,699 542,699 543,699 543,699 544,699 545,699 546,699 547,699 548,699 549,699 550,699 551,699 552,699 552,699 553,699 554,699 555,699 556,699 557,699 558,699 559,699 560,699 560,699 561,699 562,699 563,699 564,699 565,699 566,699 567,699 568,699 568,699 569,699 570,699 571,699 572,699 573,699 574,699 575,699 576,699 577,699 577,699 578,699 579,699 580,699 581,699 582,699 583,699 584,699 585,699 585,699 586,699 587,699 588,699 589,699 590,699 591,699 592,699 593,699 593,699 594,699 595,699 596,699 597,699 598,699 599,699 600,699 601,699 602,699 602,699 603,699 604,699 605,699 606,699 607,699 608,699 609,699 610,699 610,699 611,699 612,699 613,699 614,699 615,699 616,699 617,699 618,699 619,699 619,699 620,699 621,699 622,699 623,699 624,699 625,699 626,699 627,699 627,699 628,699 629,699 630,699 631,699 632,699 633,699 634,681 635,681 635,681 636,681 637,681 638,681 639,681 640,681 641,681 642,681 643,681 644,681 644,664 645,664 646,664 647,664 648,664 649,647 650,647 651,647 652,647 652,647 653,630 654,630 655,630 656,630 657,630 658,630 659,630 660,630 660,630 661,630 662,630 663,630 664,613 665,613 666,613 667,613 668,613 669,613 669,613 670,596 671,596 672,596 673,596 674,596 675,596 676,596 677,596 677,579 678,579 679,579 680,579 681,579 682,579 683,579 684,579 685,579 685,579 686,579 687,579 688,562 689,562 690,562 691,562 692,562 693,562 694,545 694,545 695,545 696,545 697,545 698,545 699,545 700,545 701,545 702,545 702,545 703,528 704,528 705,528 706,528 707,528 708,528 709,528 710,528 710,528 711,528 712,528 713,528 714,511 715,511 716,511 717,511 718,511 719,511 719,494 720,494 721,494 722,494 723,494 724,494 725,477 726,477 727,477 727,477 728,477 729,477 730,477 731,477 732,477 733,477 734,477 735,477 736,477 736,477 737,477 738,477 739,477 740,477 741,477 742,477 743,460 744,460 744,460 745,460 746,460 747,460 748,460 749,460 750,460 751,460 752,460 752,460 753,443 754,443 755,443 756,443 757,443 758,443 759,443 760,426 761,426 761,426 762,426 763,426 764,426 765,426 766,426 767,426 768,426 769,426 769,426 770,426 771,426 772,426 773,426 774,426 775,426 776,426 777,426 777,409 778,409 779,409 780,409 781,409 782,409 783,409 784,409 785,409 786,409 786,409 787,409 788,392 789,392 790,392 791,392 792,392 793,392 794,392 794,392 795,392 796,392 797,392 798,392 799,392 800,392 801,392 802,392 802,392 803,392 804,374 805,374 806,374 807,374 808,374 809,374 810,357 811,357 811,357 812,357 813,357 814,357 815,357 816,357 817,357 818,357 819,357 819,357 820,357 821,357 822,340 823,340 824,340 825,340 826,340 827,340 828,340 828,340 829,340 830,340 831,340 832,340 833,340 834,340 835,323 836,323 836,323 837,323 838,323 839,323 840,306 841,306 842,306 843,306 844,306 844,306 845,306 846,306 847,306 848,289 849,289 850,289 851,289 852,289 853,289 853,272 854,272 855,272 856,272 857,272 858,272 859,272 860,255 861,255 861,255 862,255 863,255 864,238 865,238 866,238 867,238 868,238 869,238 869,238 870,238 871,238 872,238 873,238 874,238 875,238 876,238 877,238 878,238 878,238 879,238 880,238 881,221 882,221 883,221 884,221 885,221 886,221 886,221 887,221 888,221 889,221 890,221 891,221 892,221 893,204 894,204 894,204 895,204 896,204 897,204 898,204 899,187 900,187 901,187 902,187 903,187 903,187 904,187 905,187 906,187 907,187 908,187 909,187 910,170 911,170 911,170 912,170 913,170 914,170 915,170 916,170 917,170 918,170 919,170 920,170 920,153 921,153 922,153 923,153 924,153 925,153 926,153 927,136 928,136 928,136 929,136 930,136 931,136 932,136 933,136 934,136 935,136 936,136 936,136 937,136 938,136 939,136 940,136 941,136 942,136 943,119 944,119 945,119 945,119 946,119 947,119 948,102 949,102 950,102 951,102 952,102 953,102 953,102 954,102 955,102 956,102 957,102 958,102 959,102 960,85 961,85 961,85 962,85 963,85 964,85 965,85 966,85 966,85 967,85 968,85 969,85 970,85 970,85 971,68 971,68 973,68 973,699 78,699 "/>
<polyline fill="none" opacity="1" stroke="#E6194B" stroke-width="1" points="78,699 79,699 80,699 81,699 82,699 83,699 83,699 84,699 85,699 86,699 87,699 88,699 89,699 90,699 91,699 92,699 92,699 93,699 94,699 95,699 96,699 97,699 98,699 99,699 100,699 100,699 101,699 102,699 103,699 104,699 105,699 106,699 107,699 108,699 108,699 109,699 110,699 111,699 112,699 113,699 114,699 115,699 116,699 117,699 117,699 118,699 119,699 120,699 121,699 122,699 123,699 124,699 125,699 125,699 126,699 127,699 128,699 129,699 130,699 131,699 132,699 133,699 134,699 134,699 135,699 136,699 137,699 138,699 139,699 140,699 141,699 142,699 142,699 143,699 144,699 145,699 146,699 147,699 148,699 149,699 150,699 150,699 151,699 152,699 153,699 154,699 155,699 156,699 157,699 158,699 159,699 159,699 160,699 161,699 162,699 163,699 164,699 165,699 166,699 167,699 167,699 168,699 169,699 170,699 171,699 172,699 173,699 174,699 175,699 175,699 176,699 177,699 178,699 179,699 180,699 181,699 182,699 183,699 184,699 184,699 185,699 186,699 187,699 188,699 189,699 190,699 191,699 192,699 192,699 193,699 194,699 195,699 196,699 197,699 198,699 199,699 200,699 200,699 201,699 202,699 203,699 204,699 205,699 206,699 207,699 208,699 209,699 209,699 210,699 211,699 212,699 213,699 214,699 215,699 216,699 217,699 217,699 218,699 219,699 220,699 221,699 222,699 223,699 224,699 225,699 226,699 226,699 227,699 228,699 229,699 230,699 231,699 232,699 233,699 234,699 234,699 235,699 236,699 237,699 238,699 239,699 240,699 241,699 242,699 242,699 243,699 244,699 245,699 246,699 247,699 248,699 249,699 250,699 251,699 251,699 252,699 253,699 254,699 255,699 256,699 257,699 258,699 259,699 259,699 260,699 261,699 262,699 263,699 264,699 265,699 266,699 267,699 267,699 268,699 269,699 270,699 271,699 272,699 273,699 274,699 275,699 276,699 276,699 277,699 278,699 279,699 280,699 281,699 282,699 283,699 284,699 284,699 285,699 286,699 287,699 288,699 289,699 290,699 291,699 292,699 292,699 293,699 294,699 295,699 296,699 297,699 298,699 299,699 300,699 301,699 301,699 302,699 303,699 304,699 305,699 306,699 307,699 308,699 309,699 309,699 310,699 311,699 312,699 313,699 314,699 315,699 316,699 317,699 317,699 318,699 319,699 320,699 321,699 322,699 323,699 324,699 325,699 326,699 326,699 327,699 328,699 329,699 330,699 331,699 332,699 333,699 334,699 334,699 335,699 336,699 337,699 338,699 339,699 340,699 341,699 342,699 343,699 343,699 344,699 345,699 346,699 347,699 348,699 349,699 350,699 351,699 351,699 352,699 353,699 354,699 355,699 356,699 357,699 358,699 359,699 359,699 360,699 361,699 362,699 363,699 364,699 365,699 366,699 367,699 368,699 368,699 369,699 370,699 371,699 372,699 373,699 374,699 375,699 376,699 376,699 377,699 378,699 379,699 380,699 381,699 382,699 383,699 384,699 384,699 385,699 386,699 387,699 388,699 389,699 390,699 391,699 392,699 393,699 393,699 394,699 395,699 396,699 397,699 398,699 399,699 400,699 401,699 401,699 402,699 403,699 404,699 405,699 406,699 407,699 408,699 409,699 409,699 410,699 411,699 412,699 413,699 414,699 415,699 416,699 417,699 418,699 418,699 419,699 420,699 421,699 422,699 423,699 424,699 425,699 426,699 426,699 427,699 428,699 429,699 430,699 431,699 432,699 433,699 434,699 435,699 435,699 436,699 437,699 438,699 439,699 440,699 441,699 442,699 443,699 443,699 444,699 445,699 446,699 447,699 448,699 449,699 450,699 451,699 451,699 452,699 453,699 454,699 455,699 456,699 457,699 458,699 459,699 460,699 460,699 461,699 462,699 463,699 464,699 465,699 466,699 467,699 468,699 468,699 469,699 470,699 471,699 472,699 473,699 474,699 475,699 476,699 476,699 477,699 478,699 479,699 480,699 481,699 482,699 483,699 484,699 485,699 485,699 486,699 487,699 488,699 489,699 490,699 491,699 492,699 493,699 493,699 494,699 495,699 496,699 497,699 498,699 499,699 500,699 501,699 501,699 502,699 503,699 504,699 505,699 506,699 507,699 508,699 509,699 510,699 510,699 511,699 512,699 513,699 514,699 515,699 516,699 517,699 518,699 518,699 519,699 520,699 521,699 522,699 523,699 524,699 525,699 526,699 527,699 527,699 528,699 529,699 530,699 531,699 532,699 533,699 534,699 535,699 535,699 536,699 537,699 538,699 539,699 540,699 541,699 542,699 543,699 543,699 544,699 545,699 546,699 547,699 548,699 549,699 550,699 551,699 552,699 552,699 553,699 554,699 555,699 556,699 557,699 558,699 559,699 560,699 560,699 561,699 562,699 563,699 564,699 565,699 566,699 567,699 568,699 568,699 569,699 570,699 571,699 572,699 573,699 574,699 575,699 576,699 577,699 577,699 578,699 579,699 580,699 581,699 582,699 583,699 584,699 585,699 585,699 586,699 587,699 588,699 589,699 590,699 591,699 592,699 593,699 593,699 594,699 595,699 596,699 597,699 598,699 599,699 600,699 601,699 602,699 602,699 603,699 604,699 605,699 606,699 607,699 608,699 609,699 610,699 610,699 611,699 612,699 613,699 614,699 615,699 616,699 617,699 618,699 619,699 619,699 620,699 621,699 622,699 623,699 624,699 625,699 626,699 627,699 627,699 628,699 629,699 630,699 631,699 632,699 633,699 634,681 635,681 635,681 636,681 637,681 638,681 639,681 640,681 641,681 642,681 643,681 644,681 644,664 645,664 646,664 647,664 648,664 649,647 650,647 651,647 652,647 652,647 653,630 654,630 655,630 656,630 657,630 658,630 659,630 660,630 660,630 661,630 662,630 663,630 664,613 665,613 666,613 667,613 668,613 669,613 669,613 670,596 671,596 672,596 673,596 674,596 675,596 676,596 677,596 677,579 678,579 679,579 680,579 681,579 682,579 683,579 684,579 685,579 685,579 686,579 687,579 688,562 689,562 690,562 691,562 692,562 693,562 694,545 694,545 695,545 696,545 697,545 698,545 699,545 700,545 701,545 702,545 702,545 703,528 704,528 705,528 706,528 707,528 708,528 709,528 710,528 710,528 711,528 712,528 713,528 714,511 715,511 716,511 717,511 718,511 719,511 719,494 720,494 721,494 722,494 723,494 724,494 725,477 726,477 727,477 727,477 728,477 729,477 730,477 731,477 732,477 733,477 734,477 735,477 736,477 736,477 737,477 738,477 739,477 740,477 741,477 742,477 743,460 744,460 744,460 745,460 746,460 747,460 748,460 749,460 750,460 751,460 752,460 752,460 753,443 754,443 755,443 756,443 757,443 758,443 759,443 760,426 761,426 761,426 762,426 763,426 764,426 765,426 766,426 767,426 768,426 769,426 769,426 770,426 771,426 772,426 773,426 774,426 775,426 776,426 777,426 777,409 778,409 779,409 780,409 781,409 782,409 783,409 784,409 785,409 786,409 786,409 787,409 788,392 789,392 790,392 791,392 792,392 793,392 794,392 794,392 795,392 796,392 797,392 798,392 799,392 800,392 801,392 802,392 802,392 803,392 804,374 805,374 806,374 807,374 808,374 809,374 810,357 811,357 811,357 812,357 813,357 814,357 815,357 816,357 817,357 818,357 819,357 819,357 820,357 821,357 822,340 823,340 824,340 825,340 826,340 827,340 828,340 828,340 829,340 830,340 831,340 832,340 833,340 834,340 835,323 836,323 836,323 837,323 838,323 839,323 840,306 841,306 842,306 843,306 844,306 844,306 845,306 846,306 847,306 848,289 849,289 850,289 851,289 852,289 853,289 853,272 854,272 855,272 856,272 857,272 858,272 859,272 860,255 861,255 861,255 862,255 863,255 864,238 865,238 866,238 867,238 868,238 869,238 869,238 870,238 871,238 872,238 873,238 874,238 875,238 876,238 877,238 878,238 878,238 879,238 880,238 881,221 882,221 883,221 884,221 885,221 886,221 886,221 887,221 888,221 889,221 890,221 891,221 892,221 893,204 894,204 894,204 895,204 896,204 897,204 898,204 899,187 900,187 901,187 902,187 903,187 903,187 904,187 905,187 906,187 907,187 908,187 909,187 910,170 911,170 911,170 912,170 913,170 914,170 915,170 916,170 917,170 918,170 919,170 920,170 920,153 921,153 922,153 923,153 924,153 925,153 926,153 927,136 928,136 928,136 929,136 930,136 931,136 932,136 933,136 934,136 935,136 936,136 936,136 937,136 938,136 939,136 940,136 941,136 942,136 943,119 944,119 945,119 945,119 946,119 947,119 948,102 949,102 950,102 951,102 952,102 953,102 953,102 954,102 955,102 956,102 957,102 958,102 959,102 960,85 961,85 961,85 962,85 963,85 964,85 965,85 966,85 966,85 967,85 968,85 969,85 970,85 970,85 971,68 971,68 973,68 "/>
<line opacity="0.1" stroke="#000000" stroke-width="1" x1="89" y1="699" x2="89" y2="68"/>
<line opacity="0.1" stroke="#000000" stroke-width="1" x1="101" y1="699" x2="101" y2="68"/>
<line opacity="0.1" stroke="#000000" stroke-width="1" x1="112" y1="699" x2="112" y2="68"/>
<line opacity="0.1" stroke="#000000" stroke-width="1" x1="124" y1="699" x2="124" y2="68"/>
<line opacity="0.1" stroke="#000000" stroke-width="1" x1="136" y1="699" x2="136" y2="68"/>
<line opacity="0.1" stroke="#000000" stroke-width="1" x1="148" y1="699" x2="148" y2="68"/>
<line opacity="0.1" stroke="#000000" stroke-width="1" x1="160" y1="699" x2="160" y2="68"/>
<line opacity="0.1" stroke="#000000" stroke-width="1" x1="172" y1="699" x2="172" y2="68"/>
<line opacity="0.1" stroke="#000000" stroke-width="1" x1="184" y1="699" x2="184" y2="68"/>
<line opacity="0.1" stroke="#000000" stroke-width="1" x1="195" y1="699" x2="195" y2="68"/>
<line opacity="0.1" stroke="#000000" stroke-width="1" x1="207" y1="699" x2="207" y2="68"/>
<line opacity="0.1" stroke="#000000" stroke-width="1" x1="219" y1="699" x2="219" y2="68"/>
<line opacity="0.1" stroke="#000000" stroke-width="1" x1="231" y1="699" x2="231" y2="68"/>
<line opacity="0.1" stroke="#000000" stroke-width="1" x1="243" y1="699" x2="243" y2="68"/>
<line opacity="0.1" stroke="#000000" stroke-width="1" x1="255" y1="699" x2="255" y2="68"/>
<line opacity="0.1" stroke="#000000" stroke-width="1" x1="267" y1="699" x2="267" y2="68"/>
<line opacity="0.1" stroke="#000000" stroke-width="1" x1="278" y1="699" x2="278" y2="68"/>
<line opacity="0.1" stroke="#000000" stroke-width="1" x1="290" y1="699" x2="290" y2="68"/>
<line opacity="0.1" stroke="#000000" stroke-width="1" x1="302" y1="699" x2="302" y2="68"/>
<line opacity="0.1" stroke="#000000" stroke-width="1" x1="314" y1="699" x2="314" y2="68"/>
<line opacity="0.1" stroke="#000000" stroke-width="1" x1="326" y1="699" x2="326" y2="68"/>
<line opacity="0.1" stroke="#000000" stroke-width="1" x1="338" y1="699" x2="338" y2="68"/>
<line opacity="0.1" stroke="#000000" stroke-width="1" x1="350" y1="699" x2="350" y2="68"/>
<line opacity="0.1" stroke="#000000" stroke-width="1" x1="361" y1="699" x2="361" y2="68"/>
<line opacity="0.1" stroke="#000000" stroke-width="1" x1="373" y1="699" x2="373" y2="68"/>
<line opacity="0.1" stroke="#000000" stroke-width="1" x1="385" y1="699" x2="385" y2="68"/>
<line opacity="0.1" stroke="#000000" stroke-width="1" x1="397" y1="699" x2="397" y2="68"/>
<line opacity="0.1" stroke="#000000" stroke-width="1" x1="409" y1="699" x2="409" y2="68"/>
<line opacity="0.1" stroke="#000000" stroke-width="1" x1="421" y1="699" x2="421" y2="68"/>
<line opacity="0.1" stroke="#000000" stroke-width="1" x1="433" y1="699" x2="433" y2="68"/>
<line opacity="0.1" stroke="#000000" stroke-width="1" x1="444" y1="699" x2="444" y2="68"/>
<line opacity="0.1" stroke="#000000" stroke-width="1" x1="456" y1="699" x2="456" y2="68"/>
<line opacity="0.1" stroke="#000000" stroke-width="1" x1="468" y1="699" x2="468" y2="68"/>
<line opacity="0.1" stroke="#000000" stroke-width="1" x1="480" y1="699" x2="480" y2="68"/>
<line opacity="0.1" stroke="#000000" stroke-width="1" x1="492" y1="699" x2="492" y2="68"/>
<line opacity="0.1" stroke="#000000" stroke-width="1" x1="504" y1="699" x2="504" y2="68"/>
<line opacity="0.1" stroke="#000000" stroke-width="1" x1="516" y1="699" x2="516" y2="68"/>
<line opacity="0.1" stroke="#000000" stroke-width="1" x1="527" y1="699" x2="527" y2="68"/>
<line opacity="0.1" stroke="#000000" stroke-width="1" x1="539" y1="699" x2="539" y2="68"/>
<line opacity="0.1" stroke="#000000" stroke-width="1" x1="551" y1="699" x2="551" y2="68"/>
<line opacity="0.1" stroke="#000000" stroke-width="1" x1="563" y1="699" x2="563" y2="68"/>
<line opacity="0.1" stroke="#000000" stroke-width="1" x1="575" y1="699" x2="575" y2="68"/>
<line opacity="0.1" stroke="#000000" stroke-width="1" x1="587" y1="699" x2="587" y2="68"/>
<line opacity="0.1" stroke="#000000" stroke-width="1" x1="599" y1="699" x2="599" y2="68"/>
<line opacity="0.1" stroke="#000000" stroke-width="1" x1="610" y1="699" x2="610" y2="68"/>
<line opacity="0.1" stroke="#000000" stroke-width="1" x1="622" y1="699" x2="622" y2="68"/>
<line opacity="0.1" stroke="#000000" stroke-width="1" x1="634" y1="699" x2="634" y2="68"/>
<line opacity="0.1" stroke="#000000" stroke-width="1" x1="646" y1="699" x2="646" y2="68"/>
<line opacity="0.1" stroke="#000000" stroke-width="1" x1="658" y1="699" x2="658" y2="68"/>
<line opacity="0.1" stroke="#000000" stroke-width="1" x1="670" y1="699" x2="670" y2="68"/>
<line opacity="0.1" stroke="#000000" stroke-width="1" x1="682" y1="699" x2="682" y2="68"/>
<line opacity="0.1" stroke="#000000" stroke-width="1" x1="693" y1="699" x2="693" y2="68"/>
<line opacity="0.1" stroke="#000000" stroke-width="1" x1="705" y1="699" x2="705" y2="68"/>
<line opacity="0.1" stroke="#000000" stroke-width="1" x1="717" y1="699" x2="717" y2="68"/>
<line opacity="0.1" stroke="#000000" stroke-width="1" x1="729" y1="699" x2="729" y2="68"/>
<line opacity="0.1" stroke="#000000" stroke-width="1" x1="741" y1="699" x2="741" y2="68"/>
<line opacity="0.1" stroke="#000000" stroke-width="1" x1="753" y1="699" x2="753" y2="68"/>
<line opacity="0.1" stroke="#000000" stroke-width="1" x1="765" y1="699" x2="765" y2="68"/>
<line opacity="0.1" stroke="#000000" stroke-width="1" x1="776" y1="699" x2="776" y2="68"/>
<line opacity="0.1" stroke="#000000" stroke-width="1" x1="788" y1="699" x2="788" y2="68"/>
<line opacity="0.1" stroke="#000000" stroke-width="1" x1="800" y1="699" x2="800" y2="68"/>
<line opacity="0.1" stroke="#000000" stroke-width="1" x1="812" y1="699" x2="812" y2="68"/>
<line opacity="0.1" stroke="#000000" stroke-width="1" x1="824" y1="699" x2="824" y2="68"/>
<line opacity="0.1" stroke="#000000" stroke-width="1" x1="836" y1="699" x2="836" y2="68"/>
<line opacity="0.1" stroke="#000000" stroke-width="1" x1="848" y1="699" x2="848" y2="68"/>
<line opacity="0.1" stroke="#000000" stroke-width="1" x1="859" y1="699" x2="859" y2="68"/>
<line opacity="0.1" stroke="#000000" stroke-width="1" x1="871" y1="699" x2="871" y2="68"/>
<line opacity="0.1" stroke="#000000" stroke-width="1" x1="883" y1="699" x2="883" y2="68"/>
<line opacity="0.1" stroke="#000000" stroke-width="1" x1="895" y1="699" x2="895" y2="68"/>
<line opacity="0.1" stroke="#000000" stroke-width="1" x1="907" y1="699" x2="907" y2="68"/>
<line opacity="0.1" stroke="#000000" stroke-width="1" x1="919" y1="699" x2="919" y2="68"/>
<line opacity="0.1" stroke="#000000" stroke-width="1" x1="931" y1="699" x2="931" y2="68"/>
<line opacity="0.1" stroke="#000000" stroke-width="1" x1="942" y1="699" x2="942" y2="68"/>
<line opacity="0.1" stroke="#000000" stroke-width="1" x1="954" y1="699" x2="954" y2="68"/>
<line opacity="0.1" stroke="#000000" stroke-width="1" x1="966" y1="699" x2="966" y2="68"/>
<line opacity="0.1" stroke="#000000" stroke-width="1" x1="78" y1="699" x2="973" y2="699"/>
<line opacity="0.1" stroke="#000000" stroke-width="1" x1="78" y1="690" x2="973" y2="690"/>
<line opacity="0.1" stroke="#000000" stroke-width="1" x1="78" y1="682" x2="973" y2="682"/>
<line opacity="0.1" stroke="#000000" stroke-width="1" x1="78" y1="674" x2="973" y2="674"/>
<line opacity="0.1" stroke="#000000" stroke-width="1" x1="78" y1="666" x2="973" y2="666"/>
<line opacity="0.1" stroke="#000000" stroke-width="1" x1="78" y1="658" x2="973" y2="658"/>
<line opacity="0.1" stroke="#000000" stroke-width="1" x1="78" y1="650" x2="973" y2="650"/>
<line opacity="0.1" stroke="#000000" stroke-width="1" x1="78" y1="642" x2="973" y2="642"/>
<line opacity="0.1" stroke="#000000" stroke-width="1" x1="78" y1="633" x2="973" y2="633"/>
<line opacity="0.1" stroke="#000000" stroke-width="1" x1="78" y1="625" x2="973" y2="625"/>
<line opacity="0.1" stroke="#000000" stroke-width="1" x1="78" y1="617" x2="973" y2="617"/>
<line opacity="0.1" stroke="#000000" stroke-width="1" x1="78" y1="609" x2="973" y2="609"/>
<line opacity="0.1" stroke="#000000" stroke-width="1" x1="78" y1="601" x2="973" y2="601"/>
<line opacity="0.1" stroke="#000000" stroke-width="1" x1="78" y1="593" x2="973" y2="593"/>
<line opacity="0.1" stroke="#000000" stroke-width="1" x1="78" y1="585" x2="973" y2="585"/>
<line opacity="0.1" stroke="#000000" stroke-width="1" x1="78" y1="577" x2="973" y2="577"/>
<line opacity="0.1" stroke="#000000" stroke-width="1" x1="78" y1="568" x2="973" y2="568"/>
<line opacity="0.1" stroke="#000000" stroke-width="1" x1="78" y1="560" x2="973" y2="560"/>
<line opacity="0.1" stroke="#000000" stroke-width="1" x1="78" y1="552" x2="973" y2="552"/>
<line opacity="0.1" stroke="#000000" stroke-width="1" x1="78" y1="544" x2="973" y2="544"/>
<line opacity="0.1" stroke="#000000" stroke-width="1" x1="78" y1="536" x2="973" y2="536"/>
<line opacity="0.1" stroke="#000000" stroke-width="1" x1="78" y1="528" x2="973" y2="528"/>
<line opacity="0.1" stroke="#000000" stroke-width="1" x1="78" y1="520" x2="973" y2="520"/>
<line opacity="0.1" stroke="#000000" stroke-width="1" x1="78" y1="511" x2="973" y2="511"/>
<line opacity="0.1" stroke="#000000" stroke-width="1" x1="78" y1="503" x2="973" y2="503"/>
<line opacity="0.1" stroke="#000000" stroke-width="1" x1="78" y1="495" x2="973" y2="495"/>
<line opacity="0.1" stroke="#000000" stroke-width="1" x1="78" y1="487" x2="973" y2="487"/>
<line opacity="0.1" stroke="#000000" stroke-width="1" x1="78" y1="479" x2="973" y2="479"/>
<line opacity="0.1" stroke="#000000" stroke-width="1" x1="78" y1="471" x2="973" y2="471"/>
<line opacity="0.1" stroke="#000000" stroke-width="1" x1="78" y1="463" x2="973" y2="463"/>
<line opacity="0.1" stroke="#000000" stroke-width="1" x1="78" y1="455" x2="973" y2="455"/>
<line opacity="0.1" stroke="#000000" stroke-width="1" x1="78" y1="446" x2="973" y2="446"/>
<line opacity="0.1" stroke="#000000" stroke-width="1" x1="78" y1="438" x2="973" y2="438"/>
<line opacity="0.1" stroke="#000000" stroke-width="1" x1="78" y1="430" x2="973" y2="430"/>
<line opacity="0.1" stroke="#000000" stroke-width="1" x1="78" y1="422" x2="973" y2="422"/>
<line opacity="0.1" stroke="#000000" stroke-width="1" x1="78" y1="414" x2="973" y2="414"/>
<line opacity="0.1" stroke="#000000" stroke-width="1" x1="78" y1="406" x2="973" y2="406"/>
<line opacity="0.1" stroke="#000000" stroke-width="1" x1="78" y1="398" x2="973" y2="398"/>
<line opacity="0.1" stroke="#000000" stroke-width="1" x1="78" y1="389" x2="973" y2="389"/>
<line opacity="0.1" stroke="#000000" stroke-width="1" x1="78" y1="381" x2="973" y2="381"/>
<line opacity="0.1" stroke="#000000" stroke-width="1" x1="78" y1="373" x2="973" y2="373"/>
<line opacity="0.1" stroke="#000000" stroke-width="1" x1="78" y1="365" x2="973" y2="365"/>
<line opacity="0.1" stroke="#000000" stroke-width="1" x1="78" y1="357" x2="973" y2="357"/>
<line opacity="0.1" stroke="#000000" stroke-width="1" x1="78" y1="349" x2="973" y2="349"/>
<line opacity="0.1" stroke="#000000" stroke-width="1" x1="78" y1="341" x2="973" y2="341"/>
<line opacity="0.1" stroke="#000000" stroke-width="1" x1="78" y1="333" x2="973" y2="333"/>
<line opacity="0.1" stroke="#000000" stroke-width="1" x1="78" y1="324" x2="973" y2="324"/>
<line opacity="0.1" stroke="#000000" stroke-width="1" x1="78" y1="316" x2="973" y2="316"/>
<line opacity="0.1" stroke="#000000" stroke-width="1" x1="78" y1="308" x2="973" y2="308"/>
<line opacity="0.1" stroke="#000000" stroke-width="1" x1="78" y1="300" x2="973" y2="300"/>
<line opacity="0.1" stroke="#000000" stroke-width="1" x1="78" y1="292" x2="973" y2="292"/>
<line opacity="0.1" stroke="#000000" stroke-width="1" x1="78" y1="284" x2="973" y2="284"/>
<line opacity="0.1" stroke="#000000" stroke-width="1" x1="78" y1="276" x2="973" y2="276"/>
<line opacity="0.1" stroke="#000000" stroke-width="1" x1="78" y1="268" x2="973" y2="268"/>
<line opacity="0.1" stroke="#000000" stroke-width="1" x1="78" y1="259" x2="973" y2="259"/>
<line opacity="0.1" stroke="#000000" stroke-width="1" x1="78" y1="251" x2="973" y2="251"/>
<line opacity="0.1" stroke="#000000" stroke-width="1" x1="78" y1="243" x2="973" y2="243"/>
<line opacity="0.1" stroke="#000000" stroke-width="1" x1="78" y1="235" x2="973" y2="235"/>
<line opacity="0.1" stroke="#000000" stroke-width="1" x1="78" y1="227" x2="973" y2="227"/>
<line opacity="0.1" stroke="#000000" stroke-width="1" x1="78" y1="219" x2="973" y2="219"/>
<line opacity="0.1" stroke="#000000" stroke-width="1" x1="78" y1="211" x2="973" y2="211"/>
<line opacity="0.1" stroke="#000000" stroke-width="1" x1="78" y1="202" x2="973" y2="202"/>
<line opacity="0.1" stroke="#000000" stroke-width="1" x1="78" y1="194" x2="973" y2="194"/>
<line opacity="0.1" stroke="#000000" stroke-width="1" x1="78" y1="186" x2="973" y2="186"/>
<line opacity="0.1" stroke="#000000" stroke-width="1" x1="78" y1="178" x2="973" y2="178"/>
<line opacity="0.1" stroke="#000000" stroke-width="1" x1="78" y1="170" x2="973" y2="170"/>
<line opacity="0.1" stroke="#000000" stroke-width="1" x1="78" y1="162" x2="973" y2="162"/>
<line opacity="0.1" stroke="#000000" stroke-width="1" x1="78" y1="154" x2="973" y2="154"/>
<line opacity="0.1" stroke="#000000" stroke-width="1" x1="78" y1="146" x2="973" y2="146"/>
<line opacity="0.1" stroke="#000000" stroke-width="1" x1="78" y1="137" x2="973" y2="137"/>
<line opacity="0.1" stroke="#000000" stroke-width="1" x1="78" y1="129" x2="973" y2="129"/>
<line opacity="0.1" stroke="#000000" stroke-width="1" x1="78" y1="121" x2="973" y2="121"/>
<line opacity="0.1" stroke="#000000" stroke-width="1" x1="78" y1="113" x2="973" y2="113"/>
<line opacity="0.1" stroke="#000000" stroke-width="1" x1="78" y1="105" x2="973" y2="105"/>
<line opacity="0.1" stroke="#000000" stroke-width="1" x1="78" y1="97" x2="973" y2="97"/>
<line opacity="0.1" stroke="#000000" stroke-width="1" x1="78" y1="89" x2="973" y2="89"/>
<line opacity="0.1" stroke="#000000" stroke-width="1" x1="78" y1="80" x2="973" y2="80"/>
<line opacity="0.1" stroke="#000000" stroke-width="1" x1="78" y1="72" x2="973" y2="72"/>
<text x="8" y="384" dy="0.76em" text-anchor="middle" font-family="sans-serif" font-size="9.67741935483871" opacity="1" fill="#000000" transform="rotate(270, 8, 384)">
Memory usage
</text>
<text x="526" y="760" dy="-0.5ex" text-anchor="middle" font-family="sans-serif" font-size="9.67741935483871" opacity="1" fill="#000000">
Time
</text>
<line opacity="0.2" stroke="#000000" stroke-width="1" x1="112" y1="699" x2="112" y2="68"/>
<line opacity="0.2" stroke="#000000" stroke-width="1" x1="231" y1="699" x2="231" y2="68"/>
<line opacity="0.2" stroke="#000000" stroke-width="1" x1="350" y1="699" x2="350" y2="68"/>
<line opacity="0.2" stroke="#000000" stroke-width="1" x1="468" y1="699" x2="468" y2="68"/>
<line opacity="0.2" stroke="#000000" stroke-width="1" x1="587" y1="699" x2="587" y2="68"/>
<line opacity="0.2" stroke="#000000" stroke-width="1" x1="705" y1="699" x2="705" y2="68"/>
<line opacity="0.2" stroke="#000000" stroke-width="1" x1="824" y1="699" x2="824" y2="68"/>
<line opacity="0.2" stroke="#000000" stroke-width="1" x1="942" y1="699" x2="942" y2="68"/>
<line opacity="0.2" stroke="#000000" stroke-width="1" x1="78" y1="699" x2="973" y2="699"/>
<line opacity="0.2" stroke="#000000" stroke-width="1" x1="78" y1="617" x2="973" y2="617"/>
<line opacity="0.2" stroke="#000000" stroke-width="1" x1="78" y1="536" x2="973" y2="536"/>
<line opacity="0.2" stroke="#000000" stroke-width="1" x1="78" y1="455" x2="973" y2="455"/>
<line opacity="0.2" stroke="#000000" stroke-width="1" x1="78" y1="373" x2="973" y2="373"/>
<line opacity="0.2" stroke="#000000" stroke-width="1" x1="78" y1="292" x2="973" y2="292"/>
<line opacity="0.2" stroke="#000000" stroke-width="1" x1="78" y1="211" x2="973" y2="211"/>
<line opacity="0.2" stroke="#000000" stroke-width="1" x1="78" y1="129" x2="973" y2="129"/>
<polyline fill="none" opacity="1" stroke="#000000" stroke-width="1" points="77,68 77,699 "/>
<text x="68" y="699" dy="0.5ex" text-anchor="end" font-family="sans-serif" font-size="9.67741935483871" opacity="1" fill="#000000">
0.0 MB
</text>
<polyline fill="none" opacity="1" stroke="#000000" stroke-width="1" points="72,699 77,699 "/>
<text x="68" y="617" dy="0.5ex" text-anchor="end" font-family="sans-serif" font-size="9.67741935483871" opacity="1" fill="#000000">
4.8 MB
</text>
<polyline fill="none" opacity="1" stroke="#000000" stroke-width="1" points="72,617 77,617 "/>
<text x="68" y="536" dy="0.5ex" text-anchor="end" font-family="sans-serif" font-size="9.67741935483871" opacity="1" fill="#000000">
9.5 MB
</text>
<polyline fill="none" opacity="1" stroke="#000000" stroke-width="1" points="72,536 77,536 "/>
<text x="68" y="455" dy="0.5ex" text-anchor="end" font-family="sans-serif" font-size="9.67741935483871" opacity="1" fill="#000000">
14.3 MB
</text>
<polyline fill="none" opacity="1" stroke="#000000" stroke-width="1" points="72,455 77,455 "/>
<text x="68" y="373" dy="0.5ex" text-anchor="end" font-family="sans-serif" font-size="9.67741935483871" opacity="1" fill="#000000">
19.1 MB
</text>
<polyline fill="none" opacity="1" stroke="#000000" stroke-width="1" points="72,373 77,373 "/>
<text x="68" y="292" dy="0.5ex" text-anchor="end" font-family="sans-serif" font-size="9.67741935483871" opacity="1" fill="#000000">
23.8 MB
</text>
<polyline fill="none" opacity="1" stroke="#000000" stroke-width="1" points="72,292 77,292 "/>
<text x="68" y="211" dy="0.5ex" text-anchor="end" font-family="sans-serif" font-size="9.67741935483871" opacity="1" fill="#000000">
28.6 MB
</text>
<polyline fill="none" opacity="1" stroke="#000000" stroke-width="1" points="72,211 77,211 "/>
<text x="68" y="129" dy="0.5ex" text-anchor="end" font-family="sans-serif" font-size="9.67741935483871" opacity="1" fill="#000000">
33.4 MB
</text>
<polyline fill="none" opacity="1" stroke="#000000" stroke-width="1" points="72,129 77,129 "/>
<polyline fill="none" opacity="1" stroke="#000000" stroke-width="1" points="78,700 973,700 "/>
<text x="112" y="710" dy="0.76em" text-anchor="middle" font-family="sans-serif" font-size="9.67741935483871" opacity="1" fill="#000000">
07 17:46:40
</text>
<polyline fill="none" opacity="1" stroke="#000000" stroke-width="1" points="112,700 112,705 "/>
<text x="231" y="710" dy="0.76em" text-anchor="middle" font-family="sans-serif" font-size="9.67741935483871" opacity="1" fill="#000000">
07 20:33:20
</text>
<polyline fill="none" opacity="1" stroke="#000000" stroke-width="1" points="231,700 231,705 "/>
<text x="350" y="710" dy="0.76em" text-anchor="middle" font-family="sans-serif" font-size="9.67741935483871" opacity="1" fill="#000000">
07 23:20:00
</text>
<polyline fill="none" opacity="1" stroke="#000000" stroke-width="1" points="350,700 350,705 "/>
<text x="468" y="710" dy="0.76em" text-anchor="middle" font-family="sans-serif" font-size="9.67741935483871" opacity="1" fill="#000000">
08 02:06:40
</text>
<polyline fill="none" opacity="1" stroke="#000000" stroke-width="1" points="468,700 468,705 "/>
<text x="587" y="710" dy="0.76em" text-anchor="middle" font-family="sans-serif" font-size="9.67741935483871" opacity="1" fill="#000000">
08 04:53:20
</text>
<polyline fill="none" opacity="1" stroke="#000000" stroke-width="1" points="587,700 587,705 "/>
<text x="705" y="710" dy="0.76em" text-anchor="middle" font-family="sans-serif" font-size="9.67741935483871" opacity="1" fill="#000000">
08 07:40:00
</text>
<polyline fill="none" opacity="1" stroke="#000000" stroke-width="1" points="705,700 705,705 "/>
<text x="824" y="710" dy="0.76em" text-anchor="middle" font-family="sans-serif" font-size="9.67741935483871" opacity="1" fill="#000000">
08 10:26:40
</text>
<polyline fill="none" opacity="1" stroke="#000000" stroke-width="1" points="824,700 824,705 "/>
<text x="942" y="710" dy="0.76em" text-anchor="middle" font-family="sans-serif" font-size="9.67741935483871" opacity="1" fill="#000000">
08 13:13:20
</text>
<polyline fill="none" opacity="1" stroke="#000000" stroke-width="1" points="942,700 942,705 "/>
<polyline fill="none" opacity="1" stroke="#000000" stroke-width="1" points="78,67 974,67 "/>
<text x="112" y="58" dy="-0.5ex" text-anchor="middle" font-family="sans-serif" font-size="9.67741935483871" opacity="1" fill="#000000">
+00:49:04
</text>
<polyline fill="none" opacity="1" stroke="#000000" stroke-width="1" points="112,62 112,67 "/>
<text x="231" y="58" dy="-0.5ex" text-anchor="middle" font-family="sans-serif" font-size="9.67741935483871" opacity="1" fill="#000000">
+03:35:44
</text>
<polyline fill="none" opacity="1" stroke="#000000" stroke-width="1" points="231,62 231,67 "/>
<text x="350" y="58" dy="-0.5ex" text-anchor="middle" font-family="sans-serif" font-size="9.67741935483871" opacity="1" fill="#000000">
+06:22:24
</text>
<polyline fill="none" opacity="1" stroke="#000000" stroke-width="1" points="350,62 350,67 "/>
<text x="469" y="58" dy="-0.5ex" text-anchor="middle" font-family="sans-serif" font-size="9.67741935483871" opacity="1" fill="#000000">
+09:09:04
</text>
<polyline fill="none" opacity="1" stroke="#000000" stroke-width="1" points="469,62 469,67 "/>
<text x="587" y="58" dy="-0.5ex" text-anchor="middle" font-family="sans-serif" font-size="9.67741935483871" opacity="1" fill="#000000">
+11:55:44
</text>
<polyline fill="none" opacity="1" stroke="#000000" stroke-width="1" points="587,62 587,67 "/>
<text x="706" y="58" dy="-0.5ex" text-anchor="middle" font-family="sans-serif" font-size="9.67741935483871" opacity="1" fill="#000000">
+14:42:24
</text>
<polyline fill="none" opacity="1" stroke="#000000" stroke-width="1" points="706,62 706,67 "/>
<text x="825" y="58" dy="-0.5ex" text-anchor="middle" font-family="sans-serif" font-size="9.67741935483871" opacity="1" fill="#000000">
+17:29:04
</text>
<polyline fill="none" opacity="1" stroke="#000000" stroke-width="1" points="825,62 825,67 "/>
<text x="943" y="58" dy="-0.5ex" text-anchor="middle" font-family="sans-serif" font-size="9.67741935483871" opacity="1" fill="#000000">
+20:15:44
</text>
<polyline fill="none" opacity="1" stroke="#000000" stroke-width="1" points="943,62 943,67 "/>
<rect x="83" y="73" width="99" height="45" opacity="0.75" fill="#FFFFFF" stroke="none"/>
<rect x="83" y="73" width="99" height="45" opacity="1" fill="none" stroke="#000000"/>
<text x="123" y="83" dy="0.76em" text-anchor="start" font-family="sans-serif" font-size="9.67741935483871" opacity="1" fill="#000000">
Temporary
</text>
<text x="123" y="98" dy="0.76em" text-anchor="start" font-family="sans-serif" font-size="9.67741935483871" opacity="1" fill="#000000">
Leaked
</text>
<rect x="93" y="83" width="10" height="10" opacity="1" fill="#3CB44B" stroke="none"/>
<rect x="93" y="98" width="10" height="10" opacity="1" fill="#E6194B" stroke="none"/>
</svg>
