<svg width="1024" height="768" viewBox="0 0 1024 768" xmlns="http://www.w3.org/2000/svg">
<rect x="0" y="0" width="1024" height="768" opacity="1" fill="#FFFFFF" stroke="none"/>
<polygon opacity="1" fill="#3CB44B" points="973,699 973,699 973,699 "/>
<polyline fill="none" opacity="1" stroke="#3CB44B" stroke-width="1" points="973,699 "/>
<polygon opacity="1" fill="#E6194B" points="78,697 79,697 80,696 81,695 82,695 82,694 83,693 84,693 85,692 86,692 87,691 88,690 89,690 90,689 90,689 91,688 92,688 93,687 94,686 95,686 96,685 97,684 98,684 99,683 99,682 100,682 101,681 102,680 103,680 104,679 105,679 106,678 107,677 107,677 108,676 109,675 110,675 111,674 112,673 113,673 114,672 115,671 116,671 116,670 117,670 118,669 119,668 120,668 121,667 122,666 123,666 124,665 124,664 125,664 126,663 127,663 128,662 129,661 130,661 131,660 132,660 133,659 133,658 134,658 135,657 136,656 137,656 138,655 139,654 140,654 141,653 141,652 142,652 143,651 144,650 145,650 146,649 147,649 148,648 149,647 150,647 150,646 151,645 152,645 153,644 154,643 155,643 156,642 157,642 158,641 158,640 159,640 160,639 161,638 162,638 163,637 164,637 165,636 166,636 166,635 167,634 168,634 169,633 170,632 171,632 172,631 173,631 174,630 175,630 175,629 176,628 177,628 178,627 179,627 180,626 181,625 182,625 183,624 183,624 184,623 185,622 186,621 187,621 188,620 189,620 190,619 191,619 192,618 192,617 193,617 194,616 195,616 196,615 197,614 198,614 199,613 200,612 200,612 201,611 202,610 203,610 204,609 205,609 206,608 207,607 208,607 209,606 209,605 210,605 211,604 212,603 213,603 214,602 215,601 216,601 217,600 217,600 218,599 219,598 220,598 221,597 222,596 223,596 224,595 225,594 226,593 226,593 227,592 228,591 229,591 230,590 231,590 232,589 233,589 234,588 234,587 235,586 236,586 237,585 238,584 239,584 240,583 241,582 242,582 242,581 243,581 244,580 245,580 246,579 247,578 248,578 249,577 250,576 251,576 251,575 252,574 253,573 254,573 255,572 256,572 257,571 258,570 259,570 259,569 260,568 261,568 262,567 263,566 264,566 265,565 266,564 267,564 268,563 268,562 269,562 270,561 271,561 272,560 273,559 274,559 275,558 276,558 276,557 277,556 278,556 279,555 280,554 281,554 282,553 283,552 284,551 285,551 285,550 286,549 287,549 288,548 289,548 290,547 291,547 292,546 293,545 293,545 294,544 295,543 296,543 297,542 298,541 299,541 300,540 301,539 302,539 302,539 303,538 304,537 305,537 306,536 307,535 308,535 309,534 310,533 310,533 311,532 312,531 313,531 314,530 315,529 316,529 317,529 318,528 318,527 319,527 320,526 321,525 322,525 323,524 324,523 325,523 326,522 327,521 327,521 328,520 329,519 330,519 331,518 332,518 333,517 334,517 335,516 335,515 336,515 337,514 338,513 339,512 340,512 341,511 342,510 343,510 344,509 344,508 345,508 346,507 347,507 348,506 349,506 350,505 351,504 352,504 352,503 353,503 354,502 355,501 356,500 357,500 358,499 359,498 360,498 361,497 361,497 362,496 363,495 364,495 365,494 366,493 367,493 368,492 369,491 369,491 370,490 371,489 372,489 373,488 374,488 375,487 376,486 377,486 378,485 378,484 379,484 380,483 381,482 382,482 383,481 384,481 385,480 386,479 386,479 387,478 388,477 389,477 390,476 391,475 392,475 393,474 394,473 394,473 395,472 396,472 397,471 398,470 399,470 400,469 401,468 402,468 403,467 403,466 404,466 405,465 406,465 407,464 408,463 409,463 410,462 411,462 411,461 412,460 413,460 414,459 415,458 416,458 417,457 418,456 419,456 420,455 420,454 421,454 422,453 423,452 424,452 425,451 426,451 427,450 428,450 428,449 429,448 430,448 431,447 432,447 433,446 434,445 435,444 436,444 437,443 437,442 438,442 439,441 440,441 441,440 442,439 443,439 444,438 445,438 445,437 446,436 447,436 448,435 449,434 450,434 451,433 452,432 453,432 453,431 454,431 455,430 456,429 457,429 458,428 459,428 460,427 461,426 462,426 462,425 463,424 464,424 465,423 466,422 467,422 468,421 469,420 470,420 470,419 471,419 472,418 473,417 474,417 475,416 476,415 477,415 478,414 479,414 479,413 480,412 481,412 482,411 483,410 484,409 485,409 486,408 487,407 487,407 488,406 489,406 490,405 491,405 492,404 493,403 494,403 495,402 496,401 496,401 497,400 498,399 499,399 500,398 501,397 502,397 503,396 504,395 504,395 505,394 506,393 507,393 508,392 509,392 510,391 511,390 512,390 513,389 513,388 514,388 515,387 516,387 517,386 518,385 519,385 520,384 521,383 521,383 522,382 523,381 524,381 525,380 526,379 527,379 528,378 529,377 529,377 530,376 531,376 532,375 533,374 534,373 535,373 536,372 537,372 538,371 538,370 539,370 540,369 541,368 542,368 543,367 544,366 545,366 546,365 546,365 547,364 548,363 549,362 550,362 551,361 552,360 553,360 554,359 555,359 555,358 556,357 557,357 558,356 559,356 560,355 561,354 562,353 563,353 563,352 564,351 565,351 566,350 567,350 568,349 569,348 570,348 571,347 572,346 572,346 573,345 574,344 575,344 576,343 577,342 578,342 579,341 580,340 580,339 581,339 582,338 583,337 584,337 585,336 586,335 587,335 588,334 589,334 589,333 590,332 591,332 592,331 593,331 594,330 595,329 596,329 597,328 597,328 598,327 599,326 600,326 601,325 602,325 603,324 604,323 605,323 605,322 606,321 607,321 608,320 609,320 610,319 611,318 612,318 613,317 614,316 614,316 615,315 616,315 617,314 618,313 619,312 620,312 621,311 622,311 622,310 623,309 624,308 625,308 626,307 627,307 628,306 629,305 630,305 631,304 631,303 632,303 633,302 634,301 635,301 636,300 637,299 638,299 639,298 639,297 640,297 641,296 642,296 643,295 644,294 645,294 646,293 647,292 648,292 648,291 649,290 650,290 651,289 652,288 653,288 654,287 655,286 656,286 656,285 657,284 658,284 659,283 660,283 661,282 662,281 663,281 664,280 665,279 665,279 666,278 667,277 668,277 669,276 670,276 671,275 672,274 673,274 673,273 674,273 675,272 676,271 677,271 678,270 679,269 680,269 681,268 681,267 682,267 683,266 684,266 685,265 686,264 687,264 688,263 689,262 690,262 690,261 691,261 692,260 693,259 694,259 695,258 696,257 697,257 698,256 698,255 699,255 700,254 701,254 702,253 703,252 704,252 705,251 706,251 707,250 707,249 708,249 709,248 710,247 711,247 712,246 713,245 714,245 715,244 715,244 716,243 717,242 718,242 719,241 720,241 721,240 722,239 723,239 724,238 724,237 725,237 726,236 727,235 728,235 729,234 730,234 731,233 732,232 732,232 733,231 734,231 735,230 736,229 737,229 738,228 739,227 740,227 741,226 741,226 742,225 743,224 744,224 745,223 746,223 747,222 748,221 749,221 749,220 750,219 751,219 752,218 753,217 754,217 755,216 756,215 757,214 757,214 758,213 759,213 760,212 761,212 762,211 763,211 764,210 765,209 766,209 766,208 767,207 768,207 769,206 770,206 771,205 772,204 773,204 774,203 774,203 775,202 776,202 777,201 778,200 779,200 780,199 781,198 782,198 783,197 783,196 784,196 785,195 786,194 787,194 788,193 789,193 790,192 791,191 791,191 792,190 793,189 794,189 795,188 796,187 797,187 798,186 799,185 800,185 800,184 801,184 802,183 803,182 804,182 805,181 806,180 807,180 808,179 808,178 809,178 810,177 811,176 812,176 813,176 814,175 815,175 816,174 817,173 817,173 818,172 819,172 820,171 821,170 822,169 823,169 824,168 825,168 825,167 826,166 827,166 828,165 829,165 830,164 831,163 832,163 833,162 833,162 834,161 835,160 836,159 837,159 838,158 839,158 840,157 841,157 842,156 842,156 843,155 844,155 845,154 846,154 847,153 848,152 849,152 850,151 850,150 851,150 852,149 853,149 854,148 855,147 856,147 857,146 858,146 859,145 859,145 860,144 861,143 862,143 863,142 864,141 865,141 866,140 867,140 867,139 868,138 869,138 870,137 871,136 872,136 873,135 874,135 875,134 876,133 876,133 877,132 878,132 879,131 880,130 881,130 882,129 883,129 884,128 884,127 885,127 886,126 887,126 888,125 889,124 890,124 891,123 892,123 893,122 893,121 894,121 895,120 896,120 897,119 898,118 899,118 900,117 901,117 901,116 902,115 903,114 904,114 905,113 906,112 907,112 908,111 909,111 909,110 910,110 911,109 912,108 913,107 914,107 915,106 916,106 917,105 918,104 918,104 919,103 920,102 921,102 922,101 923,101 924,100 925,99 926,99 926,98 927,97 928,97 929,96 930,96 931,95 932,94 933,94 934,93 935,92 935,92 936,91 937,91 938,90 939,90 940,89 941,88 942,88 943,87 943,87 944,86 945,85 946,85 947,84 948,83 949,83 950,82 951,81 952,81 952,80 953,80 954,79 955,78 956,78 957,77 958,77 959,76 960,75 960,74 961,74 962,73 963,73 964,72 965,71 966,71 967,70 968,70 969,69 969,69 970,68 971,68 971,68 973,68 973,699 78,699 "/>
<polyline fill="none" opacity="1" stroke="#E6194B" stroke-width="1" points="78,697 79,697 80,696 81,695 82,695 82,694 83,693 84,693 85,692 86,692 87,691 88,690 89,690 90,689 90,689 91,688 92,688 93,687 94,686 95,686 96,685 97,684 98,684 99,683 99,682 100,682 101,681 102,680 103,680 104,679 105,679 106,678 107,677 107,677 108,676 109,675 110,675 111,674 112,673 113,673 114,672 115,671 116,671 116,670 117,670 118,669 119,668 120,668 121,667 122,666 123,666 124,665 124,664 125,664 126,663 127,663 128,662 129,661 130,661 131,660 132,660 133,659 133,658 134,658 135,657 136,656 137,656 138,655 139,654 140,654 141,653 141,652 142,652 143,651 144,650 145,650 146,649 147,649 148,648 149,647 150,647 150,646 151,645 152,645 153,644 154,643 155,643 156,642 157,642 158,641 158,640 159,640 160,639 161,638 162,638 163,637 164,637 165,636 166,636 166,635 167,634 168,634 169,633 170,632 171,632 172,631 173,631 174,630 175,630 175,629 176,628 177,628 178,627 179,627 180,626 181,625 182,625 183,624 183,624 184,623 185,622 186,621 187,621 188,620 189,620 190,619 191,619 192,618 192,617 193,617 194,616 195,616 196,615 197,614 198,614 199,613 200,612 200,612 201,611 202,610 203,610 204,609 205,609 206,608 207,607 208,607 209,606 209,605 210,605 211,604 212,603 213,603 214,602 215,601 216,601 217,600 217,600 218,599 219,598 220,598 221,597 222,596 223,596 224,595 225,594 226,593 226,593 227,592 228,591 229,591 230,590 231,590 232,589 233,589 234,588 234,587 235,586 236,586 237,585 238,584 239,584 240,583 241,582 242,582 242,581 243,581 244,580 245,580 246,579 247,578 248,578 249,577 250,576 251,576 251,575 252,574 253,573 254,573 255,572 256,572 257,571 258,570 259,570 259,569 260,568 261,568 262,567 263,566 264,566 265,565 266,564 267,564 268,563 268,562 269,562 270,561 271,561 272,560 273,559 274,559 275,558 276,558 276,557 277,556 278,556 279,555 280,554 281,554 282,553 283,552 284,551 285,551 285,550 286,549 287,549 288,548 289,548 290,547 291,547 292,546 293,545 293,545 294,544 295,543 296,543 297,542 298,541 299,541 300,540 301,539 302,539 302,539 303,538 304,537 305,537 306,536 307,535 308,535 309,534 310,533 310,533 311,532 312,531 313,531 314,530 315,529 316,529 317,529 318,528 318,527 319,527 320,526 321,525 322,525 323,524 324,523 325,523 326,522 327,521 327,521 328,520 329,519 330,519 331,518 332,518 333,517 334,517 335,516 335,515 336,515 337,514 338,513 339,512 340,512 341,511 342,510 343,510 344,509 344,508 345,508 346,507 347,507 348,506 349,506 350,505 351,504 352,504 352,503 353,503 354,502 355,501 356,500 357,500 358,499 359,498 360,498 361,497 361,497 362,496 363,495 364,495 365,494 366,493 367,493 368,492 369,491 369,491 370,490 371,489 372,489 373,488 374,488 375,487 376,486 377,486 378,485 378,484 379,484 380,483 381,482 382,482 383,481 384,481 385,480 386,479 386,479 387,478 388,477 389,477 390,476 391,475 392,475 393,474 394,473 394,473 395,472 396,472 397,471 398,470 399,470 400,469 401,468 402,468 403,467 403,466 404,466 405,465 406,465 407,464 408,463 409,463 410,462 411,462 411,461 412,460 413,460 414,459 415,458 416,458 417,457 418,456 419,456 420,455 420,454 421,454 422,453 423,452 424,452 425,451 426,451 427,450 428,450 428,449 429,448 430,448 431,447 432,447 433,446 434,445 435,444 436,444 437,443 437,442 438,442 439,441 440,441 441,440 442,439 443,439 444,438 445,438 445,437 446,436 447,436 448,435 449,434 450,434 451,433 452,432 453,432 453,431 454,431 455,430 456,429 457,429 458,428 459,428 460,427 461,426 462,426 462,425 463,424 464,424 465,423 466,422 467,422 468,421 469,420 470,420 470,419 471,419 472,418 473,417 474,417 475,416 476,415 477,415 478,414 479,414 479,413 480,412 481,412 482,411 483,410 484,409 485,409 486,408 487,407 487,407 488,406 489,406 490,405 491,405 492,404 493,403 494,403 495,402 496,401 496,401 497,400 498,399 499,399 500,398 501,397 502,397 503,396 504,395 504,395 505,394 506,393 507,393 508,392 509,392 510,391 511,390 512,390 513,389 513,388 514,388 515,387 516,387 517,386 518,385 519,385 520,384 521,383 521,383 522,382 523,381 524,381 525,380 526,379 527,379 528,378 529,377 529,377 530,376 531,376 532,375 533,374 534,373 535,373 536,372 537,372 538,371 538,370 539,370 540,369 541,368 542,368 543,367 544,366 545,366 546,365 546,365 547,364 548,363 549,362 550,362 551,361 552,360 553,360 554,359 555,359 555,358 556,357 557,357 558,356 559,356 560,355 561,354 562,353 563,353 563,352 564,351 565,351 566,350 567,350 568,349 569,348 570,348 571,347 572,346 572,346 573,345 574,344 575,344 576,343 577,342 578,342 579,341 580,340 580,339 581,339 582,338 583,337 584,337 585,336 586,335 587,335 588,334 589,334 589,333 590,332 591,332 592,331 593,331 594,330 595,329 596,329 597,328 597,328 598,327 599,326 600,326 601,325 602,325 603,324 604,323 605,323 605,322 606,321 607,321 608,320 609,320 610,319 611,318 612,318 613,317 614,316 614,316 615,315 616,315 617,314 618,313 619,312 620,312 621,311 622,311 622,310 623,309 624,308 625,308 626,307 627,307 628,306 629,305 630,305 631,304 631,303 632,303 633,302 634,301 635,301 636,300 637,299 638,299 639,298 639,297 640,297 641,296 642,296 643,295 644,294 645,294 646,293 647,292 648,292 648,291 649,290 650,290 651,289 652,288 653,288 654,287 655,286 656,286 656,285 657,284 658,284 659,283 660,283 661,282 662,281 663,281 664,280 665,279 665,279 666,278 667,277 668,277 669,276 670,276 671,275 672,274 673,274 673,273 674,273 675,272 676,271 677,271 678,270 679,269 680,269 681,268 681,267 682,267 683,266 684,266 685,265 686,264 687,264 688,263 689,262 690,262 690,261 691,261 692,260 693,259 694,259 695,258 696,257 697,257 698,256 698,255 699,255 700,254 701,254 702,253 703,252 704,252 705,251 706,251 707,250 707,249 708,249 709,248 710,247 711,247 712,246 713,245 714,245 715,244 715,244 716,243 717,242 718,242 719,241 720,241 721,240 722,239 723,239 724,238 724,237 725,237 726,236 727,235 728,235 729,234 730,234 731,233 732,232 732,232 733,231 734,231 735,230 736,229 737,229 738,228 739,227 740,227 741,226 741,226 742,225 743,224 744,224 745,223 746,223 747,222 748,221 749,221 749,220 750,219 751,219 752,218 753,217 754,217 755,216 756,215 757,214 757,214 758,213 759,213 760,212 761,212 762,211 763,211 764,210 765,209 766,209 766,208 767,207 768,207 769,206 770,206 771,205 772,204 773,204 774,203 774,203 775,202 776,202 777,201 778,200 779,200 780,199 781,198 782,198 783,197 783,196 784,196 785,195 786,194 787,194 788,193 789,193 790,192 791,191 791,191 792,190 793,189 794,189 795,188 796,187 797,187 798,186 799,185 800,185 800,184 801,184 802,183 803,182 804,182 805,181 806,180 807,180 808,179 808,178 809,178 810,177 811,176 812,176 813,176 814,175 815,175 816,174 817,173 817,173 818,172 819,172 820,171 821,170 822,169 823,169 824,168 825,168 825,167 826,166 827,166 828,165 829,165 830,164 831,163 832,163 833,162 833,162 834,161 835,160 836,159 837,159 838,158 839,158 840,157 841,157 842,156 842,156 843,155 844,155 845,154 846,154 847,153 848,152 849,152 850,151 850,150 851,150 852,149 853,149 854,148 855,147 856,147 857,146 858,146 859,145 859,145 860,144 861,143 862,143 863,142 864,141 865,141 866,140 867,140 867,139 868,138 869,138 870,137 871,136 872,136 873,135 874,135 875,134 876,133 876,133 877,132 878,132 879,131 880,130 881,130 882,129 883,129 884,128 884,127 885,127 886,126 887,126 888,125 889,124 890,124 891,123 892,123 893,122 893,121 894,121 895,120 896,120 897,119 898,118 899,118 900,117 901,117 901,116 902,115 903,114 904,114 905,113 906,112 907,112 908,111 909,111 909,110 910,110 911,109 912,108 913,107 914,107 915,106 916,106 917,105 918,104 918,104 919,103 920,102 921,102 922,101 923,101 924,100 925,99 926,99 926,98 927,97 928,97 929,96 930,96 931,95 932,94 933,94 934,93 935,92 935,92 936,91 937,91 938,90 939,90 940,89 941,88 942,88 943,87 943,87 944,86 945,85 946,85 947,84 948,83 949,83 950,82 951,81 952,81 952,80 953,80 954,79 955,78 956,78 957,77 958,77 959,76 960,75 960,74 961,74 962,73 963,73 964,72 965,71 966,71 967,70 968,70 969,69 969,69 970,68 971,68 971,68 973,68 "/>
<line opacity="0.1" stroke="#000000" stroke-width="1" x1="89" y1="699" x2="89" y2="68"/>
<line opacity="0.1" stroke="#000000" stroke-width="1" x1="101" y1="699" x2="101" y2="68"/>
<line opacity="0.1" stroke="#000000" stroke-width="1" x1="112" y1="699" x2="112" y2="68"/>
<line opacity="0.1" stroke="#000000" stroke-width="1" x1="124" y1="699" x2="124" y2="68"/>
<line opacity="0.1" stroke="#000000" stroke-width="1" x1="136" y1="699" x2="136" y2="68"/>
<line opacity="0.1" stroke="#000000" stroke-width="1" x1="148" y1="699" x2="148" y2="68"/>
<line opacity="0.1" stroke="#000000" stroke-width="1" x1="160" y1="699" x2="160" y2="68"/>
<line opacity="0.1" stroke="#000000" stroke-width="1" x1="172" y1="699" x2="172" y2="68"/>
<line opacity="0.1" stroke="#000000" stroke-width="1" x1="184" y1="699" x2="184" y2="68"/>
<line opacity="0.1" stroke="#000000" stroke-width="1" x1="195" y1="699" x2="195" y2="68"/>
<line opacity="0.1" stroke="#000000" stroke-width="1" x1="207" y1="699" x2="207" y2="68"/>
<line opacity="0.1" stroke="#000000" stroke-width="1" x1="219" y1="699" x2="219" y2="68"/>
<line opacity="0.1" stroke="#000000" stroke-width="1" x1="231" y1="699" x2="231" y2="68"/>
<line opacity="0.1" stroke="#000000" stroke-width="1" x1="243" y1="699" x2="243" y2="68"/>
<line opacity="0.1" stroke="#000000" stroke-width="1" x1="255" y1="699" x2="255" y2="68"/>
<line opacity="0.1" stroke="#000000" stroke-width="1" x1="267" y1="699" x2="267" y2="68"/>
<line opacity="0.1" stroke="#000000" stroke-width="1" x1="278" y1="699" x2="278" y2="68"/>
<line opacity="0.1" stroke="#000000" stroke-width="1" x1="290" y1="699" x2="290" y2="68"/>
<line opacity="0.1" stroke="#000000" stroke-width="1" x1="302" y1="699" x2="302" y2="68"/>
<line opacity="0.1" stroke="#000000" stroke-width="1" x1="314" y1="699" x2="314" y2="68"/>
<line opacity="0.1" stroke="#000000" stroke-width="1" x1="326" y1="699" x2="326" y2="68"/>
<line opacity="0.1" stroke="#000000" stroke-width="1" x1="338" y1="699" x2="338" y2="68"/>
<line opacity="0.1" stroke="#000000" stroke-width="1" x1="350" y1="699" x2="350" y2="68"/>
<line opacity="0.1" stroke="#000000" stroke-width="1" x1="361" y1="699" x2="361" y2="68"/>
<line opacity="0.1" stroke="#000000" stroke-width="1" x1="373" y1="699" x2="373" y2="68"/>
<line opacity="0.1" stroke="#000000" stroke-width="1" x1="385" y1="699" x2="385" y2="68"/>
<line opacity="0.1" stroke="#000000" stroke-width="1" x1="397" y1="699" x2="397" y2="68"/>
<line opacity="0.1" stroke="#000000" stroke-width="1" x1="409" y1="699" x2="409" y2="68"/>
<line opacity="0.1" stroke="#000000" stroke-width="1" x1="421" y1="699" x2="421" y2="68"/>
<line opacity="0.1" stroke="#000000" stroke-width="1" x1="433" y1="699" x2="433" y2="68"/>
<line opacity="0.1" stroke="#000000" stroke-width="1" x1="444" y1="699" x2="444" y2="68"/>
<line opacity="0.1" stroke="#000000" stroke-width="1" x1="456" y1="699" x2="456" y2="68"/>
<line opacity="0.1" stroke="#000000" stroke-width="1" x1="468" y1="699" x2="468" y2="68"/>
<line opacity="0.1" stroke="#000000" stroke-width="1" x1="480" y1="699" x2="480" y2="68"/>
<line opacity="0.1" stroke="#000000" stroke-width="1" x1="492" y1="699" x2="492" y2="68"/>
<line opacity="0.1" stroke="#000000" stroke-width="1" x1="504" y1="699" x2="504" y2="68"/>
<line opacity="0.1" stroke="#000000" stroke-width="1" x1="516" y1="699" x2="516" y2="68"/>
<line opacity="0.1" stroke="#000000" stroke-width="1" x1="527" y1="699" x2="527" y2="68"/>
<line opacity="0.1" stroke="#000000" stroke-width="1" x1="539" y1="699" x2="539" y2="68"/>
<line opacity="0.1" stroke="#000000" stroke-width="1" x1="551" y1="699" x2="551" y2="68"/>
<line opacity="0.1" stroke="#000000" stroke-width="1" x1="563" y1="699" x2="563" y2="68"/>
<line opacity="0.1" stroke="#000000" stroke-width="1" x1="575" y1="699" x2="575" y2="68"/>
<line opacity="0.1" stroke="#000000" stroke-width="1" x1="587" y1="699" x2="587" y2="68"/>
<line opacity="0.1" stroke="#000000" stroke-width="1" x1="599" y1="699" x2="599" y2="68"/>
<line opacity="0.1" stroke="#000000" stroke-width="1" x1="610" y1="699" x2="610" y2="68"/>
<line opacity="0.1" stroke="#000000" stroke-width="1" x1="622" y1="699" x2="622" y2="68"/>
<line opacity="0.1" stroke="#000000" stroke-width="1" x1="634" y1="699" x2="634" y2="68"/>
<line opacity="0.1" stroke="#000000" stroke-width="1" x1="646" y1="699" x2="646" y2="68"/>
<line opacity="0.1" stroke="#000000" stroke-width="1" x1="658" y1="699" x2="658" y2="68"/>
<line opacity="0.1" stroke="#000000" stroke-width="1" x1="670" y1="699" x2="670" y2="68"/>
<line opacity="0.1" stroke="#000000" stroke-width="1" x1="682" y1="699" x2="682" y2="68"/>
<line opacity="0.1" stroke="#000000" stroke-width="1" x1="693" y1="699" x2="693" y2="68"/>
<line opacity="0.1" stroke="#000000" stroke-width="1" x1="705" y1="699" x2="705" y2="68"/>
<line opacity="0.1" stroke="#000000" stroke-width="1" x1="717" y1="699" x2="717" y2="68"/>
<line opacity="0.1" stroke="#000000" stroke-width="1" x1="729" y1="699" x2="729" y2="68"/>
<line opacity="0.1" stroke="#000000" stroke-width="1" x1="741" y1="699" x2="741" y2="68"/>
<line opacity="0.1" stroke="#000000" stroke-width="1" x1="753" y1="699" x2="753" y2="68"/>
<line opacity="0.1" stroke="#000000" stroke-width="1" x1="765" y1="699" x2="765" y2="68"/>
<line opacity="0.1" stroke="#000000" stroke-width="1" x1="776" y1="699" x2="776" y2="68"/>
<line opacity="0.1" stroke="#000000" stroke-width="1" x1="788" y1="699" x2="788" y2="68"/>
<line opacity="0.1" stroke="#000000" stroke-width="1" x1="800" y1="699" x2="800" y2="68"/>
<line opacity="0.1" stroke="#000000" stroke-width="1" x1="812" y1="699" x2="812" y2="68"/>
<line opacity="0.1" stroke="#000000" stroke-width="1" x1="824" y1="699" x2="824" y2="68"/>
<line opacity="0.1" stroke="#000000" stroke-width="1" x1="836" y1="699" x2="836" y2="68"/>
<line opacity="0.1" stroke="#000000" stroke-width="1" x1="848" y1="699" x2="848" y2="68"/>
<line opacity="0.1" stroke="#000000" stroke-width="1" x1="859" y1="699" x2="859" y2="68"/>
<line opacity="0.1" stroke="#000000" stroke-width="1" x1="871" y1="699" x2="871" y2="68"/>
<line opacity="0.1" stroke="#000000" stroke-width="1" x1="883" y1="699" x2="883" y2="68"/>
<line opacity="0.1" stroke="#000000" stroke-width="1" x1="895" y1="699" x2="895" y2="68"/>
<line opacity="0.1" stroke="#000000" stroke-width="1" x1="907" y1="699" x2="907" y2="68"/>
<line opacity="0.1" stroke="#000000" stroke-width="1" x1="919" y1="699" x2="919" y2="68"/>
<line opacity="0.1" stroke="#000000" stroke-width="1" x1="931" y1="699" x2="931" y2="68"/>
<line opacity="0.1" stroke="#000000" stroke-width="1" x1="942" y1="699" x2="942" y2="68"/>
<line opacity="0.1" stroke="#000000" stroke-width="1" x1="954" y1="699" x2="954" y2="68"/>
<line opacity="0.1" stroke="#000000" stroke-width="1" x1="966" y1="699" x2="966" y2="68"/>
<line opacity="0.1" stroke="#000000" stroke-width="1" x1="78" y1="699" x2="973" y2="699"/>
<line opacity="0.1" stroke="#000000" stroke-width="1" x1="78" y1="689" x2="973" y2="689"/>
<line opacity="0.1" stroke="#000000" stroke-width="1" x1="78" y1="679" x2="973" y2="679"/>
<line opacity="0.1" stroke="#000000" stroke-width="1" x1="78" y1="670" x2="973" y2="670"/>
<line opacity="0.1" stroke="#000000" stroke-width="1" x1="78" y1="660" x2="973" y2="660"/>
<line opacity="0.1" stroke="#000000" stroke-width="1" x1="78" y1="650" x2="973" y2="650"/>
<line opacity="0.1" stroke="#000000" stroke-width="1" x1="78" y1="641" x2="973" y2="641"/>
<line opacity="0.1" stroke="#000000" stroke-width="1" x1="78" y1="631" x2="973" y2="631"/>
<line opacity="0.1" stroke="#000000" stroke-width="1" x1="78" y1="621" x2="973" y2="621"/>
<line opacity="0.1" stroke="#000000" stroke-width="1" x1="78" y1="612" x2="973" y2="612"/>
<line opacity="0.1" stroke="#000000" stroke-width="1" x1="78" y1="602" x2="973" y2="602"/>
<line opacity="0.1" stroke="#000000" stroke-width="1" x1="78" y1="593" x2="973" y2="593"/>
<line opacity="0.1" stroke="#000000" stroke-width="1" x1="78" y1="583" x2="973" y2="583"/>
<line opacity="0.1" stroke="#000000" stroke-width="1" x1="78" y1="573" x2="973" y2="573"/>
<line opacity="0.1" stroke="#000000" stroke-width="1" x1="78" y1="564" x2="973" y2="564"/>
<line opacity="0.1" stroke="#000000" stroke-width="1" x1="78" y1="554" x2="973" y2="554"/>
<line opacity="0.1" stroke="#000000" stroke-width="1" x1="78" y1="544" x2="973" y2="544"/>
<line opacity="0.1" stroke="#000000" stroke-width="1" x1="78" y1="535" x2="973" y2="535"/>
<line opacity="0.1" stroke="#000000" stroke-width="1" x1="78" y1="525" x2="973" y2="525"/>
<line opacity="0.1" stroke="#000000" stroke-width="1" x1="78" y1="515" x2="973" y2="515"/>
<line opacity="0.1" stroke="#000000" stroke-width="1" x1="78" y1="506" x2="973" y2="506"/>
<line opacity="0.1" stroke="#000000" stroke-width="1" x1="78" y1="496" x2="973" y2="496"/>
<line opacity="0.1" stroke="#000000" stroke-width="1" x1="78" y1="487" x2="973" y2="487"/>
<line opacity="0.1" stroke="#000000" stroke-width="1" x1="78" y1="477" x2="973" y2="477"/>
<line opacity="0.1" stroke="#000000" stroke-width="1" x1="78" y1="467" x2="973" y2="467"/>
<line opacity="0.1" stroke="#000000" stroke-width="1" x1="78" y1="458" x2="973" y2="458"/>
<line opacity="0.1" stroke="#000000" stroke-width="1" x1="78" y1="448" x2="973" y2="448"/>
<line opacity="0.1" stroke="#000000" stroke-width="1" x1="78" y1="438" x2="973" y2="438"/>
<line opacity="0.1" stroke="#000000" stroke-width="1" x1="78" y1="429" x2="973" y2="429"/>
<line opacity="0.1" stroke="#000000" stroke-width="1" x1="78" y1="419" x2="973" y2="419"/>
<line opacity="0.1" stroke="#000000" stroke-width="1" x1="78" y1="410" x2="973" y2="410"/>
<line opacity="0.1" stroke="#000000" stroke-width="1" x1="78" y1="400" x2="973" y2="400"/>
<line opacity="0.1" stroke="#000000" stroke-width="1" x1="78" y1="390" x2="973" y2="390"/>
<line opacity="0.1" stroke="#000000" stroke-width="1" x1="78" y1="381" x2="973" y2="381"/>
<line opacity="0.1" stroke="#000000" stroke-width="1" x1="78" y1="371" x2="973" y2="371"/>
<line opacity="0.1" stroke="#000000" stroke-width="1" x1="78" y1="361" x2="973" y2="361"/>
<line opacity="0.1" stroke="#000000" stroke-width="1" x1="78" y1="352" x2="973" y2="352"/>
<line opacity="0.1" stroke="#000000" stroke-width="1" x1="78" y1="342" x2="973" y2="342"/>
<line opacity="0.1" stroke="#000000" stroke-width="1" x1="78" y1="332" x2="973" y2="332"/>
<line opacity="0.1" stroke="#000000" stroke-width="1" x1="78" y1="323" x2="973" y2="323"/>
<line opacity="0.1" stroke="#000000" stroke-width="1" x1="78" y1="313" x2="973" y2="313"/>
<line opacity="0.1" stroke="#000000" stroke-width="1" x1="78" y1="304" x2="973" y2="304"/>
<line opacity="0.1" stroke="#000000" stroke-width="1" x1="78" y1="294" x2="973" y2="294"/>
<line opacity="0.1" stroke="#000000" stroke-width="1" x1="78" y1="284" x2="973" y2="284"/>
<line opacity="0.1" stroke="#000000" stroke-width="1" x1="78" y1="275" x2="973" y2="275"/>
<line opacity="0.1" stroke="#000000" stroke-width="1" x1="78" y1="265" x2="973" y2="265"/>
<line opacity="0.1" stroke="#000000" stroke-width="1" x1="78" y1="255" x2="973" y2="255"/>
<line opacity="0.1" stroke="#000000" stroke-width="1" x1="78" y1="246" x2="973" y2="246"/>
<line opacity="0.1" stroke="#000000" stroke-width="1" x1="78" y1="236" x2="973" y2="236"/>
<line opacity="0.1" stroke="#000000" stroke-width="1" x1="78" y1="227" x2="973" y2="227"/>
<line opacity="0.1" stroke="#000000" stroke-width="1" x1="78" y1="217" x2="973" y2="217"/>
<line opacity="0.1" stroke="#000000" stroke-width="1" x1="78" y1="207" x2="973" y2="207"/>
<line opacity="0.1" stroke="#000000" stroke-width="1" x1="78" y1="198" x2="973" y2="198"/>
<line opacity="0.1" stroke="#000000" stroke-width="1" x1="78" y1="188" x2="973" y2="188"/>
<line opacity="0.1" stroke="#000000" stroke-width="1" x1="78" y1="178" x2="973" y2="178"/>
<line opacity="0.1" stroke="#000000" stroke-width="1" x1="78" y1="169" x2="973" y2="169"/>
<line opacity="0.1" stroke="#000000" stroke-width="1" x1="78" y1="159" x2="973" y2="159"/>
<line opacity="0.1" stroke="#000000" stroke-width="1" x1="78" y1="149" x2="973" y2="149"/>
<line opacity="0.1" stroke="#000000" stroke-width="1" x1="78" y1="140" x2="973" y2="140"/>
<line opacity="0.1" stroke="#000000" stroke-width="1" x1="78" y1="130" x2="973" y2="130"/>
<line opacity="0.1" stroke="#000000" stroke-width="1" x1="78" y1="121" x2="973" y2="121"/>
<line opacity="0.1" stroke="#000000" stroke-width="1" x1="78" y1="111" x2="973" y2="111"/>
<line opacity="0.1" stroke="#000000" stroke-width="1" x1="78" y1="101" x2="973" y2="101"/>
<line opacity="0.1" stroke="#000000" stroke-width="1" x1="78" y1="92" x2="973" y2="92"/>
<line opacity="0.1" stroke="#000000" stroke-width="1" x1="78" y1="82" x2="973" y2="82"/>
<line opacity="0.1" stroke="#000000" stroke-width="1" x1="78" y1="72" x2="973" y2="72"/>
<text x="8" y="384" dy="0.76em" text-anchor="middle" font-family="sans-serif" font-size="9.67741935483871" opacity="1" fill="#000000" transform="rotate(270, 8, 384)">
Memory usage
</text>
<text x="526" y="760" dy="-0.5ex" text-anchor="middle" font-family="sans-serif" font-size="9.67741935483871" opacity="1" fill="#000000">
Time
</text>
<line opacity="0.2" stroke="#000000" stroke-width="1" x1="112" y1="699" x2="112" y2="68"/>
<line opacity="0.2" stroke="#000000" stroke-width="1" x1="231" y1="699" x2="231" y2="68"/>
<line opacity="0.2" stroke="#000000" stroke-width="1" x1="350" y1="699" x2="350" y2="68"/>
<line opacity="0.2" stroke="#000000" stroke-width="1" x1="468" y1="699" x2="468" y2="68"/>
<line opacity="0.2" stroke="#000000" stroke-width="1" x1="587" y1="699" x2="587" y2="68"/>
<line opacity="0.2" stroke="#000000" stroke-width="1" x1="705" y1="699" x2="705" y2="68"/>
<line opacity="0.2" stroke="#000000" stroke-width="1" x1="824" y1="699" x2="824" y2="68"/>
<line opacity="0.2" stroke="#000000" stroke-width="1" x1="942" y1="699" x2="942" y2="68"/>
<line opacity="0.2" stroke="#000000" stroke-width="1" x1="78" y1="699" x2="973" y2="699"/>
<line opacity="0.2" stroke="#000000" stroke-width="1" x1="78" y1="602" x2="973" y2="602"/>
<line opacity="0.2" stroke="#000000" stroke-width="1" x1="78" y1="506" x2="973" y2="506"/>
<line opacity="0.2" stroke="#000000" stroke-width="1" x1="78" y1="410" x2="973" y2="410"/>
<line opacity="0.2" stroke="#000000" stroke-width="1" x1="78" y1="313" x2="973" y2="313"/>
<line opacity="0.2" stroke="#000000" stroke-width="1" x1="78" y1="217" x2="973" y2="217"/>
<line opacity="0.2" stroke="#000000" stroke-width="1" x1="78" y1="121" x2="973" y2="121"/>
<polyline fill="none" opacity="1" stroke="#000000" stroke-width="1" points="77,68 77,699 "/>
<text x="68" y="699" dy="0.5ex" text-anchor="end" font-family="sans-serif" font-size="9.67741935483871" opacity="1" fill="#000000">
0.0 MB
</text>
<polyline fill="none" opacity="1" stroke="#000000" stroke-width="1" points="72,699 77,699 "/>
<text x="68" y="602" dy="0.5ex" text-anchor="end" font-family="sans-serif" font-size="9.67741935483871" opacity="1" fill="#000000">
1.9 MB
</text>
<polyline fill="none" opacity="1" stroke="#000000" stroke-width="1" points="72,602 77,602 "/>
<text x="68" y="506" dy="0.5ex" text-anchor="end" font-family="sans-serif" font-size="9.67741935483871" opacity="1" fill="#000000">
3.8 MB
</text>
<polyline fill="none" opacity="1" stroke="#000000" stroke-width="1" points="72,506 77,506 "/>
<text x="68" y="410" dy="0.5ex" text-anchor="end" font-family="sans-serif" font-size="9.67741935483871" opacity="1" fill="#000000">
5.7 MB
</text>
<polyline fill="none" opacity="1" stroke="#000000" stroke-width="1" points="72,410 77,410 "/>
<text x="68" y="313" dy="0.5ex" text-anchor="end" font-family="sans-serif" font-size="9.67741935483871" opacity="1" fill="#000000">
7.6 MB
</text>
<polyline fill="none" opacity="1" stroke="#000000" stroke-width="1" points="72,313 77,313 "/>
<text x="68" y="217" dy="0.5ex" text-anchor="end" font-family="sans-serif" font-size="9.67741935483871" opacity="1" fill="#000000">
9.5 MB
</text>
<polyline fill="none" opacity="1" stroke="#000000" stroke-width="1" points="72,217 77,217 "/>
<text x="68" y="121" dy="0.5ex" text-anchor="end" font-family="sans-serif" font-size="9.67741935483871" opacity="1" fill="#000000">
11.4 MB
</text>
<polyline fill="none" opacity="1" stroke="#000000" stroke-width="1" points="72,121 77,121 "/>
<polyline fill="none" opacity="1" stroke="#000000" stroke-width="1" points="78,700 973,700 "/>
<text x="112" y="710" dy="0.76em" text-anchor="middle" font-family="sans-serif" font-size="9.67741935483871" opacity="1" fill="#000000">
07 17:46:40
</text>
<polyline fill="none" opacity="1" stroke="#000000" stroke-width="1" points="112,700 112,705 "/>
<text x="231" y="710" dy="0.76em" text-anchor="middle" font-family="sans-serif" font-size="9.67741935483871" opacity="1" fill="#000000">
07 20:33:20
</text>
<polyline fill="none" opacity="1" stroke="#000000" stroke-width="1" points="231,700 231,705 "/>
<text x="350" y="710" dy="0.76em" text-anchor="middle" font-family="sans-serif" font-size="9.67741935483871" opacity="1" fill="#000000">
07 23:20:00
</text>
<polyline fill="none" opacity="1" stroke="#000000" stroke-width="1" points="350,700 350,705 "/>
<text x="468" y="710" dy="0.76em" text-anchor="middle" font-family="sans-serif" font-size="9.67741935483871" opacity="1" fill="#000000">
08 02:06:40
</text>
<polyline fill="none" opacity="1" stroke="#000000" stroke-width="1" points="468,700 468,705 "/>
<text x="587" y="710" dy="0.76em" text-anchor="middle" font-family="sans-serif" font-size="9.67741935483871" opacity="1" fill="#000000">
08 04:53:20
</text>
<polyline fill="none" opacity="1" stroke="#000000" stroke-width="1" points="587,700 587,705 "/>
<text x="705" y="710" dy="0.76em" text-anchor="middle" font-family="sans-serif" font-size="9.67741935483871" opacity="1" fill="#000000">
08 07:40:00
</text>
<polyline fill="none" opacity="1" stroke="#000000" stroke-width="1" points="705,700 705,705 "/>
<text x="824" y="710" dy="0.76em" text-anchor="middle" font-family="sans-serif" font-size="9.67741935483871" opacity="1" fill="#000000">
08 10:26:40
</text>
<polyline fill="none" opacity="1" stroke="#000000" stroke-width="1" points="824,700 824,705 "/>
<text x="942" y="710" dy="0.76em" text-anchor="middle" font-family="sans-serif" font-size="9.67741935483871" opacity="1" fill="#000000">
08 13:13:20
</text>
<polyline fill="none" opacity="1" stroke="#000000" stroke-width="1" points="942,700 942,705 "/>
<polyline fill="none" opacity="1" stroke="#000000" stroke-width="1" points="78,67 974,67 "/>
<text x="112" y="58" dy="-0.5ex" text-anchor="middle" font-family="sans-serif" font-size="9.67741935483871" opacity="1" fill="#000000">
+00:49:04
</text>
<polyline fill="none" opacity="1" stroke="#000000" stroke-width="1" points="112,62 112,67 "/>
<text x="231" y="58" dy="-0.5ex" text-anchor="middle" font-family="sans-serif" font-size="9.67741935483871" opacity="1" fill="#000000">
+03:35:44
</text>
<polyline fill="none" opacity="1" stroke="#000000" stroke-width="1" points="231,62 231,67 "/>
<text x="350" y="58" dy="-0.5ex" text-anchor="middle" font-family="sans-serif" font-size="9.67741935483871" opacity="1" fill="#000000">
+06:22:24
</text>
<polyline fill="none" opacity="1" stroke="#000000" stroke-width="1" points="350,62 350,67 "/>
<text x="469" y="58" dy="-0.5ex" text-anchor="middle" font-family="sans-serif" font-size="9.67741935483871" opacity="1" fill="#000000">
+09:09:04
</text>
<polyline fill="none" opacity="1" stroke="#000000" stroke-width="1" points="469,62 469,67 "/>
<text x="587" y="58" dy="-0.5ex" text-anchor="middle" font-family="sans-serif" font-size="9.67741935483871" opacity="1" fill="#000000">
+11:55:44
</text>
<polyline fill="none" opacity="1" stroke="#000000" stroke-width="1" points="587,62 587,67 "/>
<text x="706" y="58" dy="-0.5ex" text-anchor="middle" font-family="sans-serif" font-size="9.67741935483871" opacity="1" fill="#000000">
+14:42:24
</text>
<polyline fill="none" opacity="1" stroke="#000000" stroke-width="1" points="706,62 706,67 "/>
<text x="825" y="58" dy="-0.5ex" text-anchor="middle" font-family="sans-serif" font-size="9.67741935483871" opacity="1" fill="#000000">
+17:29:04
</text>
<polyline fill="none" opacity="1" stroke="#000000" stroke-width="1" points="825,62 825,67 "/>
<text x="943" y="58" dy="-0.5ex" text-anchor="middle" font-family="sans-serif" font-size="9.67741935483871" opacity="1" fill="#000000">
+20:15:44
</text>
<polyline fill="none" opacity="1" stroke="#000000" stroke-width="1" points="943,62 943,67 "/>
<rect x="83" y="73" width="99" height="45" opacity="0.75" fill="#FFFFFF" stroke="none"/>
<rect x="83" y="73" width="99" height="45" opacity="1" fill="none" stroke="#000000"/>
<text x="123" y="83" dy="0.76em" text-anchor="start" font-family="sans-serif" font-size="9.67741935483871" opacity="1" fill="#000000">
Temporary
</text>
<text x="123" y="98" dy="0.76em" text-anchor="start" font-family="sans-serif" font-size="9.67741935483871" opacity="1" fill="#000000">
Leaked
</text>
<rect x="93" y="83" width="10" height="10" opacity="1" fill="#3CB44B" stroke="none"/>
<rect x="93" y="98" width="10" height="10" opacity="1" fill="#E6194B" stroke="none"/>
</svg>
