<svg width="1024" height="768" viewBox="0 0 1024 768" xmlns="http://www.w3.org/2000/svg">
<rect x="0" y="0" width="1024" height="768" opacity="1" fill="#FFFFFF" stroke="none"/>
<polygon opacity="1" fill="#3CB44B" points="78,692 79,683 80,677 81,665 82,657 83,635 84,631 84,610 85,599 86,583 87,576 88,562 89,540 90,535 91,504 92,499 92,476 93,468 94,453 95,457 96,466 97,445 98,446 99,426 100,425 100,427 101,438 102,457 103,458 104,439 105,442 106,451 107,459 108,475 108,440 109,452 110,436 111,437 112,447 113,402 114,405 115,416 116,430 116,431 117,441 118,409 119,429 120,464 121,471 122,476 123,429 124,431 124,399 125,402 126,430 127,464 128,421 129,424 130,425 131,426 131,425 132,426 133,420 134,436 135,450 136,411 137,426 138,432 139,398 139,398 140,402 141,422 142,442 143,445 144,404 145,411 146,431 147,393 147,395 148,404 149,400 150,406 151,420 152,383 153,391 154,391 155,392 155,394 156,395 157,399 158,404 159,417 160,416 161,426 162,423 163,425 163,427 164,347 165,347 166,358 167,367 168,366 169,366 170,359 171,365 171,361 172,337 173,347 174,316 175,332 176,347 177,344 178,336 178,376 179,364 180,373 181,289 182,301 183,325 184,323 185,326 186,340 186,315 187,364 188,388 189,282 190,281 191,293 192,293 193,317 194,328 194,363 195,366 196,318 197,338 198,221 199,246 200,247 201,263 202,275 202,276 203,326 204,376 205,319 206,175 207,172 208,174 209,203 210,249 210,286 211,298 212,341 213,373 214,373 215,126 216,135 217,146 218,173 218,190 219,219 220,219 221,231 222,316 223,335 224,319 225,321 226,68 226,82 227,92 228,137 229,213 230,264 231,271 232,289 233,279 233,279 234,297 235,318 236,309 237,280 238,292 239,292 240,292 241,292 241,292 242,292 243,292 244,292 245,292 246,292 247,292 248,292 249,292 249,295 250,295 251,295 252,295 253,295 254,295 255,295 256,295 257,295 257,295 258,295 259,295 260,295 261,295 262,295 263,295 264,295 265,295 265,295 266,295 267,295 268,295 269,295 270,295 271,295 272,295 273,295 273,295 274,295 275,295 276,295 277,295 278,295 279,295 280,295 280,295 281,295 282,295 283,295 284,295 285,295 286,295 287,295 288,295 288,295 289,295 290,295 291,295 292,295 293,295 294,295 295,295 296,295 296,295 297,295 298,295 299,295 300,295 301,295 302,295 303,295 304,295 304,295 305,295 306,295 307,295 308,295 309,295 310,295 311,295 312,295 312,295 313,295 314,295 315,295 316,295 317,295 318,295 319,295 320,295 320,295 321,295 322,295 323,295 324,295 325,295 326,295 327,295 327,295 328,295 329,295 330,295 331,295 332,295 333,295 334,295 335,295 335,295 336,295 337,295 338,295 339,295 340,295 341,295 342,295 343,295 343,295 344,295 345,295 346,295 347,295 348,295 349,295 350,295 351,295 351,295 352,295 353,295 354,295 355,295 356,295 357,295 358,295 359,295 359,295 360,295 361,295 362,295 363,295 364,295 365,295 366,295 367,295 367,295 368,295 369,295 370,295 371,295 372,295 373,295 374,295 374,295 375,295 376,295 377,295 378,295 379,295 380,295 381,295 382,295 382,295 383,295 384,295 385,295 386,295 387,295 388,295 389,295 390,295 390,295 391,295 392,295 393,295 394,295 395,295 396,295 397,295 398,295 398,295 399,295 400,295 401,295 402,295 403,295 404,295 405,295 406,295 406,295 407,295 408,295 409,295 410,295 411,295 412,295 413,295 414,295 414,295 415,295 416,295 417,295 418,295 419,295 420,295 421,295 422,295 422,295 423,295 424,295 425,295 426,295 427,295 428,295 429,295 429,295 430,295 431,295 432,295 433,295 434,295 435,295 436,295 437,295 437,295 438,295 439,295 440,295 441,295 442,295 443,295 444,295 445,295 445,295 446,295 447,295 448,295 449,295 450,295 451,295 452,295 453,295 453,295 454,295 455,295 456,295 457,295 458,295 459,295 460,295 461,295 461,295 462,295 463,295 464,295 465,295 466,295 467,295 468,295 469,295 469,295 470,295 471,295 472,295 473,295 474,295 475,295 476,295 476,295 477,295 478,295 479,295 480,295 481,295 482,295 483,295 484,295 484,295 485,295 486,295 487,295 488,295 489,295 490,295 491,295 492,295 492,295 493,295 494,295 495,295 496,295 497,295 498,295 499,295 500,295 500,295 501,295 502,295 503,295 504,295 505,295 506,295 507,295 508,295 508,295 509,295 510,295 511,295 512,295 513,295 514,295 515,295 516,295 516,295 517,295 518,295 519,295 520,295 521,295 522,295 523,295 523,295 524,295 525,295 526,295 527,295 528,295 529,295 530,295 531,295 531,295 532,295 533,295 534,295 535,295 536,295 537,295 538,295 539,295 539,295 540,295 541,295 542,295 543,295 544,295 545,295 546,295 547,295 547,295 548,295 549,295 550,295 551,295 552,295 553,295 554,295 555,295 555,295 556,295 557,295 558,295 559,295 560,295 561,295 562,295 563,295 563,295 564,295 565,295 566,295 567,295 568,295 569,295 570,295 570,295 571,295 572,295 573,295 574,295 575,295 576,295 577,295 578,295 578,295 579,295 580,295 581,295 582,295 583,295 584,295 585,295 586,295 586,295 587,295 588,295 589,295 590,295 591,295 592,295 593,295 594,295 594,295 595,295 596,295 597,295 598,295 599,295 600,295 601,295 602,295 602,295 603,295 604,295 605,295 606,295 607,295 608,295 609,295 610,295 610,295 611,295 612,295 613,295 614,295 615,295 616,295 617,295 618,295 618,295 619,295 620,295 621,295 622,295 623,295 624,295 625,295 625,295 626,295 627,295 628,295 629,295 630,295 631,295 632,295 633,295 633,295 634,295 635,295 636,295 637,295 638,295 639,295 640,295 641,295 641,295 642,295 643,295 644,295 645,295 646,295 647,295 648,295 649,295 649,295 650,295 651,295 652,295 653,295 654,295 655,295 656,295 657,295 657,295 658,295 659,295 660,295 661,295 662,295 663,295 664,295 665,295 665,295 666,295 667,295 668,295 669,295 670,295 671,295 672,295 672,295 673,295 674,295 675,295 676,295 677,295 678,295 679,295 680,295 680,295 681,295 682,295 683,295 684,295 685,295 686,295 687,295 688,295 688,295 689,295 690,295 691,295 692,295 693,295 694,296 695,296 696,296 696,296 697,296 698,296 699,296 700,296 701,296 702,296 703,296 704,296 704,296 705,296 706,296 707,296 708,296 709,296 710,296 711,296 712,296 712,296 713,296 714,296 715,296 716,296 717,296 718,296 719,296 719,296 720,296 721,296 722,296 723,296 724,296 725,296 726,296 727,296 727,296 728,296 729,296 730,296 731,296 732,296 733,296 734,296 735,296 735,296 736,296 737,296 738,296 739,296 740,296 741,296 742,296 743,296 743,296 744,296 745,296 746,296 747,296 748,296 749,296 750,296 751,296 751,296 752,296 753,296 754,296 755,296 756,296 757,296 758,296 759,296 759,296 760,296 761,296 762,296 763,296 764,296 765,296 766,296 766,296 767,296 768,296 769,296 770,296 771,296 772,296 773,296 774,296 774,296 775,296 776,296 777,296 778,296 779,296 780,296 781,296 782,296 782,296 783,296 784,296 785,296 786,296 787,296 788,296 789,296 790,296 790,296 791,296 792,296 793,296 794,296 795,296 796,296 797,296 798,296 798,296 799,296 800,296 801,296 802,296 803,296 804,296 805,296 806,296 806,296 807,296 808,296 809,296 810,296 811,296 812,296 813,296 814,296 814,296 815,296 816,296 817,296 818,296 819,296 820,296 821,296 821,296 822,296 823,296 824,296 825,296 826,296 827,296 828,296 829,296 829,296 830,296 831,296 832,296 833,296 834,296 835,296 836,296 837,296 837,296 838,296 839,296 840,296 841,296 842,296 843,296 844,296 845,296 845,296 846,296 847,296 848,296 849,296 850,296 851,296 852,296 853,296 853,296 854,296 855,296 856,296 857,296 858,296 859,296 860,296 861,296 861,296 862,296 863,296 864,296 865,296 866,296 867,296 868,296 868,296 869,296 870,296 871,296 872,296 873,296 874,296 875,296 876,296 876,296 877,296 878,296 879,296 880,296 881,296 882,296 883,296 884,296 884,296 885,296 886,296 887,296 888,296 889,296 890,296 891,296 892,296 892,296 893,296 894,296 895,296 896,296 897,296 898,296 899,296 900,296 900,296 901,296 902,296 903,296 904,296 905,296 906,296 907,296 908,296 908,296 909,296 910,296 911,296 912,296 913,296 914,296 915,296 915,296 916,296 917,296 918,296 919,296 920,296 921,296 922,296 923,296 923,296 924,296 925,296 926,296 927,296 928,296 929,296 930,296 931,296 931,296 932,296 933,296 934,296 935,296 936,296 937,296 938,296 939,296 939,296 940,296 941,296 942,296 943,296 944,296 945,296 946,296 947,296 947,296 948,296 949,296 950,296 951,296 952,296 953,296 954,296 954,296 955,296 955,296 956,296 957,296 958,296 959,296 960,296 961,296 962,296 962,296 963,296 964,296 964,296 973,296 973,699 78,699 "/>
<polyline fill="none" opacity="1" stroke="#3CB44B" stroke-width="1" points="78,692 79,683 80,677 81,665 82,657 83,635 84,631 84,610 85,599 86,583 87,576 88,562 89,540 90,535 91,504 92,499 92,476 93,468 94,453 95,457 96,466 97,445 98,446 99,426 100,425 100,427 101,438 102,457 103,458 104,439 105,442 106,451 107,459 108,475 108,440 109,452 110,436 111,437 112,447 113,402 114,405 115,416 116,430 116,431 117,441 118,409 119,429 120,464 121,471 122,476 123,429 124,431 124,399 125,402 126,430 127,464 128,421 129,424 130,425 131,426 131,425 132,426 133,420 134,436 135,450 136,411 137,426 138,432 139,398 139,398 140,402 141,422 142,442 143,445 144,404 145,411 146,431 147,393 147,395 148,404 149,400 150,406 151,420 152,383 153,391 154,391 155,392 155,394 156,395 157,399 158,404 159,417 160,416 161,426 162,423 163,425 163,427 164,347 165,347 166,358 167,367 168,366 169,366 170,359 171,365 171,361 172,337 173,347 174,316 175,332 176,347 177,344 178,336 178,376 179,364 180,373 181,289 182,301 183,325 184,323 185,326 186,340 186,315 187,364 188,388 189,282 190,281 191,293 192,293 193,317 194,328 194,363 195,366 196,318 197,338 198,221 199,246 200,247 201,263 202,275 202,276 203,326 204,376 205,319 206,175 207,172 208,174 209,203 210,249 210,286 211,298 212,341 213,373 214,373 215,126 216,135 217,146 218,173 218,190 219,219 220,219 221,231 222,316 223,335 224,319 225,321 226,68 226,82 227,92 228,137 229,213 230,264 231,271 232,289 233,279 233,279 234,297 235,318 236,309 237,280 238,292 239,292 240,292 241,292 241,292 242,292 243,292 244,292 245,292 246,292 247,292 248,292 249,292 249,295 250,295 251,295 252,295 253,295 254,295 255,295 256,295 257,295 257,295 258,295 259,295 260,295 261,295 262,295 263,295 264,295 265,295 265,295 266,295 267,295 268,295 269,295 270,295 271,295 272,295 273,295 273,295 274,295 275,295 276,295 277,295 278,295 279,295 280,295 280,295 281,295 282,295 283,295 284,295 285,295 286,295 287,295 288,295 288,295 289,295 290,295 291,295 292,295 293,295 294,295 295,295 296,295 296,295 297,295 298,295 299,295 300,295 301,295 302,295 303,295 304,295 304,295 305,295 306,295 307,295 308,295 309,295 310,295 311,295 312,295 312,295 313,295 314,295 315,295 316,295 317,295 318,295 319,295 320,295 320,295 321,295 322,295 323,295 324,295 325,295 326,295 327,295 327,295 328,295 329,295 330,295 331,295 332,295 333,295 334,295 335,295 335,295 336,295 337,295 338,295 339,295 340,295 341,295 342,295 343,295 343,295 344,295 345,295 346,295 347,295 348,295 349,295 350,295 351,295 351,295 352,295 353,295 354,295 355,295 356,295 357,295 358,295 359,295 359,295 360,295 361,295 362,295 363,295 364,295 365,295 366,295 367,295 367,295 368,295 369,295 370,295 371,295 372,295 373,295 374,295 374,295 375,295 376,295 377,295 378,295 379,295 380,295 381,295 382,295 382,295 383,295 384,295 385,295 386,295 387,295 388,295 389,295 390,295 390,295 391,295 392,295 393,295 394,295 395,295 396,295 397,295 398,295 398,295 399,295 400,295 401,295 402,295 403,295 404,295 405,295 406,295 406,295 407,295 408,295 409,295 410,295 411,295 412,295 413,295 414,295 414,295 415,295 416,295 417,295 418,295 419,295 420,295 421,295 422,295 422,295 423,295 424,295 425,295 426,295 427,295 428,295 429,295 429,295 430,295 431,295 432,295 433,295 434,295 435,295 436,295 437,295 437,295 438,295 439,295 440,295 441,295 442,295 443,295 444,295 445,295 445,295 446,295 447,295 448,295 449,295 450,295 451,295 452,295 453,295 453,295 454,295 455,295 456,295 457,295 458,295 459,295 460,295 461,295 461,295 462,295 463,295 464,295 465,295 466,295 467,295 468,295 469,295 469,295 470,295 471,295 472,295 473,295 474,295 475,295 476,295 476,295 477,295 478,295 479,295 480,295 481,295 482,295 483,295 484,295 484,295 485,295 486,295 487,295 488,295 489,295 490,295 491,295 492,295 492,295 493,295 494,295 495,295 496,295 497,295 498,295 499,295 500,295 500,295 501,295 502,295 503,295 504,295 505,295 506,295 507,295 508,295 508,295 509,295 510,295 511,295 512,295 513,295 514,295 515,295 516,295 516,295 517,295 518,295 519,295 520,295 521,295 522,295 523,295 523,295 524,295 525,295 526,295 527,295 528,295 529,295 530,295 531,295 531,295 532,295 533,295 534,295 535,295 536,295 537,295 538,295 539,295 539,295 540,295 541,295 542,295 543,295 544,295 545,295 546,295 547,295 547,295 548,295 549,295 550,295 551,295 552,295 553,295 554,295 555,295 555,295 556,295 557,295 558,295 559,295 560,295 561,295 562,295 563,295 563,295 564,295 565,295 566,295 567,295 568,295 569,295 570,295 570,295 571,295 572,295 573,295 574,295 575,295 576,295 577,295 578,295 578,295 579,295 580,295 581,295 582,295 583,295 584,295 585,295 586,295 586,295 587,295 588,295 589,295 590,295 591,295 592,295 593,295 594,295 594,295 595,295 596,295 597,295 598,295 599,295 600,295 601,295 602,295 602,295 603,295 604,295 605,295 606,295 607,295 608,295 609,295 610,295 610,295 611,295 612,295 613,295 614,295 615,295 616,295 617,295 618,295 618,295 619,295 620,295 621,295 622,295 623,295 624,295 625,295 625,295 626,295 627,295 628,295 629,295 630,295 631,295 632,295 633,295 633,295 634,295 635,295 636,295 637,295 638,295 639,295 640,295 641,295 641,295 642,295 643,295 644,295 645,295 646,295 647,295 648,295 649,295 649,295 650,295 651,295 652,295 653,295 654,295 655,295 656,295 657,295 657,295 658,295 659,295 660,295 661,295 662,295 663,295 664,295 665,295 665,295 666,295 667,295 668,295 669,295 670,295 671,295 672,295 672,295 673,295 674,295 675,295 676,295 677,295 678,295 679,295 680,295 680,295 681,295 682,295 683,295 684,295 685,295 686,295 687,295 688,295 688,295 689,295 690,295 691,295 692,295 693,295 694,296 695,296 696,296 696,296 697,296 698,296 699,296 700,296 701,296 702,296 703,296 704,296 704,296 705,296 706,296 707,296 708,296 709,296 710,296 711,296 712,296 712,296 713,296 714,296 715,296 716,296 717,296 718,296 719,296 719,296 720,296 721,296 722,296 723,296 724,296 725,296 726,296 727,296 727,296 728,296 729,296 730,296 731,296 732,296 733,296 734,296 735,296 735,296 736,296 737,296 738,296 739,296 740,296 741,296 742,296 743,296 743,296 744,296 745,296 746,296 747,296 748,296 749,296 750,296 751,296 751,296 752,296 753,296 754,296 755,296 756,296 757,296 758,296 759,296 759,296 760,296 761,296 762,296 763,296 764,296 765,296 766,296 766,296 767,296 768,296 769,296 770,296 771,296 772,296 773,296 774,296 774,296 775,296 776,296 777,296 778,296 779,296 780,296 781,296 782,296 782,296 783,296 784,296 785,296 786,296 787,296 788,296 789,296 790,296 790,296 791,296 792,296 793,296 794,296 795,296 796,296 797,296 798,296 798,296 799,296 800,296 801,296 802,296 803,296 804,296 805,296 806,296 806,296 807,296 808,296 809,296 810,296 811,296 812,296 813,296 814,296 814,296 815,296 816,296 817,296 818,296 819,296 820,296 821,296 821,296 822,296 823,296 824,296 825,296 826,296 827,296 828,296 829,296 829,296 830,296 831,296 832,296 833,296 834,296 835,296 836,296 837,296 837,296 838,296 839,296 840,296 841,296 842,296 843,296 844,296 845,296 845,296 846,296 847,296 848,296 849,296 850,296 851,296 852,296 853,296 853,296 854,296 855,296 856,296 857,296 858,296 859,296 860,296 861,296 861,296 862,296 863,296 864,296 865,296 866,296 867,296 868,296 868,296 869,296 870,296 871,296 872,296 873,296 874,296 875,296 876,296 876,296 877,296 878,296 879,296 880,296 881,296 882,296 883,296 884,296 884,296 885,296 886,296 887,296 888,296 889,296 890,296 891,296 892,296 892,296 893,296 894,296 895,296 896,296 897,296 898,296 899,296 900,296 900,296 901,296 902,296 903,296 904,296 905,296 906,296 907,296 908,296 908,296 909,296 910,296 911,296 912,296 913,296 914,296 915,296 915,296 916,296 917,296 918,296 919,296 920,296 921,296 922,296 923,296 923,296 924,296 925,296 926,296 927,296 928,296 929,296 930,296 931,296 931,296 932,296 933,296 934,296 935,296 936,296 937,296 938,296 939,296 939,296 940,296 941,296 942,296 943,296 944,296 945,296 946,296 947,296 947,296 948,296 949,296 950,296 951,296 952,296 953,296 954,296 954,296 955,296 955,296 956,296 957,296 958,296 959,296 960,296 961,296 962,296 962,296 963,296 964,296 964,296 973,296 "/>
<polygon opacity="1" fill="#E6194B" points="78,699 79,699 80,699 81,699 82,699 83,699 84,699 84,699 85,699 86,699 87,699 88,699 89,699 90,699 91,699 92,699 92,699 93,699 94,699 95,699 96,699 97,699 98,699 99,699 100,699 100,699 101,699 102,699 103,699 104,699 105,699 106,699 107,699 108,699 108,699 109,699 110,699 111,699 112,699 113,699 114,699 115,699 116,699 116,699 117,699 118,699 119,699 120,699 121,699 122,699 123,699 124,699 124,699 125,699 126,699 127,699 128,699 129,699 130,699 131,699 131,699 132,699 133,699 134,699 135,699 136,699 137,699 138,699 139,699 139,699 140,699 141,699 142,699 143,699 144,699 145,699 146,699 147,699 147,699 148,699 149,699 150,699 151,699 152,699 153,699 154,699 155,699 155,699 156,699 157,699 158,699 159,699 160,699 161,699 162,699 163,699 163,699 164,699 165,699 166,699 167,699 168,699 169,699 170,699 171,699 171,699 172,699 173,699 174,699 175,699 176,699 177,699 178,699 178,699 179,699 180,699 181,699 182,699 183,699 184,699 185,699 186,699 186,699 187,699 188,699 189,699 190,699 191,699 192,699 193,699 194,699 194,699 195,699 196,699 197,699 198,699 199,699 200,699 201,699 202,699 202,699 203,699 204,699 205,699 206,699 207,699 208,699 209,699 210,698 210,698 211,698 212,698 213,698 214,698 215,698 216,698 217,698 218,698 218,698 219,698 220,698 221,698 222,698 223,698 224,698 225,693 226,453 226,451 227,448 228,440 229,436 230,428 231,421 232,402 233,384 233,374 234,345 235,343 236,333 237,297 238,297 239,297 240,297 241,297 241,297 242,297 243,297 244,297 245,297 246,297 247,297 248,297 249,297 249,297 250,297 251,297 252,297 253,297 254,297 255,297 256,297 257,297 257,297 258,297 259,297 260,297 261,297 262,297 263,297 264,297 265,297 265,297 266,297 267,297 268,297 269,297 270,297 271,297 272,297 273,297 273,297 274,297 275,297 276,297 277,297 278,297 279,297 280,297 280,297 281,297 282,297 283,297 284,297 285,297 286,297 287,297 288,297 288,297 289,297 290,297 291,297 292,297 293,297 294,297 295,297 296,297 296,297 297,297 298,297 299,297 300,297 301,297 302,297 303,297 304,297 304,297 305,297 306,297 307,297 308,297 309,297 310,297 311,297 312,297 312,297 313,297 314,297 315,297 316,297 317,297 318,297 319,297 320,297 320,297 321,297 322,297 323,297 324,297 325,297 326,297 327,297 327,297 328,297 329,297 330,297 331,297 332,297 333,297 334,297 335,297 335,297 336,297 337,297 338,297 339,297 340,297 341,297 342,297 343,297 343,297 344,297 345,297 346,297 347,297 348,297 349,297 350,297 351,297 351,297 352,297 353,297 354,297 355,297 356,297 357,297 358,297 359,297 359,297 360,297 361,297 362,297 363,297 364,297 365,297 366,297 367,297 367,297 368,297 369,297 370,297 371,297 372,297 373,297 374,297 374,297 375,297 376,297 377,297 378,297 379,297 380,297 381,297 382,297 382,297 383,297 384,297 385,297 386,297 387,297 388,297 389,297 390,297 390,297 391,297 392,297 393,297 394,297 395,297 396,297 397,297 398,297 398,297 399,297 400,297 401,297 402,297 403,297 404,297 405,297 406,297 406,297 407,297 408,297 409,297 410,297 411,297 412,297 413,297 414,297 414,297 415,297 416,297 417,297 418,297 419,297 420,297 421,297 422,297 422,297 423,297 424,297 425,297 426,297 427,297 428,297 429,297 429,297 430,297 431,297 432,297 433,297 434,297 435,297 436,297 437,297 437,297 438,297 439,297 440,297 441,297 442,297 443,297 444,297 445,297 445,297 446,297 447,297 448,297 449,297 450,297 451,297 452,297 453,297 453,297 454,297 455,297 456,297 457,297 458,297 459,297 460,297 461,297 461,297 462,297 463,297 464,297 465,297 466,297 467,297 468,297 469,297 469,297 470,297 471,297 472,297 473,297 474,297 475,297 476,297 476,297 477,297 478,297 479,297 480,297 481,297 482,297 483,297 484,297 484,297 485,297 486,297 487,297 488,297 489,297 490,297 491,297 492,297 492,297 493,297 494,297 495,297 496,297 497,297 498,297 499,297 500,297 500,297 501,297 502,297 503,297 504,297 505,297 506,297 507,297 508,297 508,297 509,297 510,297 511,297 512,297 513,297 514,297 515,297 516,297 516,297 517,297 518,297 519,297 520,297 521,297 522,297 523,297 523,297 524,297 525,297 526,297 527,297 528,297 529,297 530,297 531,297 531,297 532,297 533,297 534,297 535,297 536,297 537,297 538,297 539,297 539,297 540,297 541,297 542,297 543,297 544,297 545,297 546,297 547,297 547,297 548,297 549,297 550,297 551,297 552,297 553,297 554,297 555,297 555,297 556,297 557,297 558,297 559,297 560,297 561,297 562,297 563,297 563,297 564,297 565,297 566,297 567,297 568,297 569,297 570,297 570,297 571,297 572,297 573,297 574,297 575,297 576,297 577,297 578,297 578,297 579,297 580,297 581,297 582,297 583,297 584,297 585,297 586,297 586,297 587,297 588,297 589,297 590,297 591,297 592,297 593,297 594,297 594,297 595,297 596,297 597,297 598,297 599,297 600,297 601,297 602,297 602,297 603,297 604,297 605,297 606,297 607,297 608,297 609,297 610,297 610,297 611,297 612,297 613,297 614,297 615,297 616,297 617,297 618,297 618,297 619,297 620,297 621,297 622,297 623,297 624,297 625,297 625,297 626,297 627,297 628,297 629,297 630,297 631,297 632,297 633,297 633,296 634,296 635,296 636,296 637,296 638,296 639,296 640,296 641,296 641,296 642,296 643,296 644,296 645,296 646,296 647,296 648,296 649,296 649,296 650,296 651,296 652,296 653,296 654,296 655,296 656,296 657,296 657,296 658,296 659,296 660,296 661,296 662,296 663,296 664,296 665,296 665,296 666,296 667,296 668,296 669,296 670,296 671,296 672,296 672,296 673,296 674,296 675,296 676,296 677,296 678,296 679,296 680,296 680,296 681,296 682,296 683,296 684,296 685,296 686,296 687,296 688,296 688,296 689,296 690,296 691,296 692,296 693,296 694,296 695,296 696,296 696,296 697,296 698,296 699,296 700,296 701,296 702,296 703,296 704,296 704,296 705,296 706,296 707,296 708,296 709,296 710,296 711,296 712,296 712,296 713,296 714,296 715,296 716,296 717,296 718,296 719,296 719,296 720,296 721,296 722,296 723,296 724,296 725,296 726,296 727,296 727,296 728,296 729,296 730,296 731,296 732,296 733,296 734,296 735,296 735,296 736,296 737,296 738,296 739,296 740,296 741,296 742,296 743,296 743,296 744,296 745,296 746,296 747,296 748,296 749,296 750,296 751,296 751,296 752,296 753,296 754,296 755,296 756,296 757,296 758,296 759,296 759,296 760,296 761,296 762,296 763,296 764,296 765,296 766,296 766,296 767,296 768,296 769,296 770,296 771,296 772,296 773,296 774,296 774,296 775,296 776,296 777,296 778,296 779,296 780,296 781,296 782,296 782,296 783,296 784,296 785,296 786,296 787,296 788,296 789,296 790,296 790,296 791,296 792,296 793,296 794,296 795,296 796,296 797,296 798,296 798,296 799,296 800,296 801,296 802,296 803,296 804,296 805,296 806,296 806,296 807,296 808,296 809,296 810,296 811,296 812,296 813,296 814,296 814,296 815,296 816,296 817,296 818,296 819,296 820,296 821,296 821,296 822,296 823,296 824,296 825,296 826,296 827,296 828,296 829,296 829,296 830,296 831,296 832,296 833,296 834,296 835,296 836,296 837,296 837,296 838,296 839,296 840,296 841,296 842,296 843,296 844,296 845,296 845,296 846,296 847,296 848,296 849,296 850,296 851,296 852,296 853,296 853,296 854,296 855,296 856,296 857,296 858,296 859,296 860,296 861,296 861,296 862,296 863,296 864,296 865,296 866,296 867,296 868,296 868,296 869,296 870,296 871,296 872,296 873,296 874,296 875,296 876,296 876,296 877,296 878,296 879,296 880,296 881,296 882,296 883,296 884,296 884,296 885,296 886,296 887,296 888,296 889,296 890,296 891,296 892,296 892,296 893,296 894,296 895,296 896,296 897,296 898,296 899,296 900,296 900,296 901,296 902,296 903,296 904,296 905,296 906,296 907,296 908,296 908,296 909,296 910,296 911,296 912,296 913,296 914,296 915,296 915,296 916,296 917,296 918,296 919,296 920,296 921,296 922,296 923,296 923,296 924,296 925,296 926,296 927,296 928,296 929,296 930,296 931,296 931,296 932,296 933,296 934,296 935,296 936,296 937,296 938,296 939,296 939,296 940,296 941,296 942,296 943,296 944,296 945,296 946,296 947,296 947,296 948,296 949,296 950,296 951,296 952,296 953,296 954,296 954,296 955,296 955,296 956,296 957,296 958,296 959,296 960,296 961,296 962,296 962,296 963,296 964,296 964,296 973,296 973,699 78,699 "/>
<polyline fill="none" opacity="1" stroke="#E6194B" stroke-width="1" points="78,699 79,699 80,699 81,699 82,699 83,699 84,699 84,699 85,699 86,699 87,699 88,699 89,699 90,699 91,699 92,699 92,699 93,699 94,699 95,699 96,699 97,699 98,699 99,699 100,699 100,699 101,699 102,699 103,699 104,699 105,699 106,699 107,699 108,699 108,699 109,699 110,699 111,699 112,699 113,699 114,699 115,699 116,699 116,699 117,699 118,699 119,699 120,699 121,699 122,699 123,699 124,699 124,699 125,699 126,699 127,699 128,699 129,699 130,699 131,699 131,699 132,699 133,699 134,699 135,699 136,699 137,699 138,699 139,699 139,699 140,699 141,699 142,699 143,699 144,699 145,699 146,699 147,699 147,699 148,699 149,699 150,699 151,699 152,699 153,699 154,699 155,699 155,699 156,699 157,699 158,699 159,699 160,699 161,699 162,699 163,699 163,699 164,699 165,699 166,699 167,699 168,699 169,699 170,699 171,699 171,699 172,699 173,699 174,699 175,699 176,699 177,699 178,699 178,699 179,699 180,699 181,699 182,699 183,699 184,699 185,699 186,699 186,699 187,699 188,699 189,699 190,699 191,699 192,699 193,699 194,699 194,699 195,699 196,699 197,699 198,699 199,699 200,699 201,699 202,699 202,699 203,699 204,699 205,699 206,699 207,699 208,699 209,699 210,698 210,698 211,698 212,698 213,698 214,698 215,698 216,698 217,698 218,698 218,698 219,698 220,698 221,698 222,698 223,698 224,698 225,693 226,453 226,451 227,448 228,440 229,436 230,428 231,421 232,402 233,384 233,374 234,345 235,343 236,333 237,297 238,297 239,297 240,297 241,297 241,297 242,297 243,297 244,297 245,297 246,297 247,297 248,297 249,297 249,297 250,297 251,297 252,297 253,297 254,297 255,297 256,297 257,297 257,297 258,297 259,297 260,297 261,297 262,297 263,297 264,297 265,297 265,297 266,297 267,297 268,297 269,297 270,297 271,297 272,297 273,297 273,297 274,297 275,297 276,297 277,297 278,297 279,297 280,297 280,297 281,297 282,297 283,297 284,297 285,297 286,297 287,297 288,297 288,297 289,297 290,297 291,297 292,297 293,297 294,297 295,297 296,297 296,297 297,297 298,297 299,297 300,297 301,297 302,297 303,297 304,297 304,297 305,297 306,297 307,297 308,297 309,297 310,297 311,297 312,297 312,297 313,297 314,297 315,297 316,297 317,297 318,297 319,297 320,297 320,297 321,297 322,297 323,297 324,297 325,297 326,297 327,297 327,297 328,297 329,297 330,297 331,297 332,297 333,297 334,297 335,297 335,297 336,297 337,297 338,297 339,297 340,297 341,297 342,297 343,297 343,297 344,297 345,297 346,297 347,297 348,297 349,297 350,297 351,297 351,297 352,297 353,297 354,297 355,297 356,297 357,297 358,297 359,297 359,297 360,297 361,297 362,297 363,297 364,297 365,297 366,297 367,297 367,297 368,297 369,297 370,297 371,297 372,297 373,297 374,297 374,297 375,297 376,297 377,297 378,297 379,297 380,297 381,297 382,297 382,297 383,297 384,297 385,297 386,297 387,297 388,297 389,297 390,297 390,297 391,297 392,297 393,297 394,297 395,297 396,297 397,297 398,297 398,297 399,297 400,297 401,297 402,297 403,297 404,297 405,297 406,297 406,297 407,297 408,297 409,297 410,297 411,297 412,297 413,297 414,297 414,297 415,297 416,297 417,297 418,297 419,297 420,297 421,297 422,297 422,297 423,297 424,297 425,297 426,297 427,297 428,297 429,297 429,297 430,297 431,297 432,297 433,297 434,297 435,297 436,297 437,297 437,297 438,297 439,297 440,297 441,297 442,297 443,297 444,297 445,297 445,297 446,297 447,297 448,297 449,297 450,297 451,297 452,297 453,297 453,297 454,297 455,297 456,297 457,297 458,297 459,297 460,297 461,297 461,297 462,297 463,297 464,297 465,297 466,297 467,297 468,297 469,297 469,297 470,297 471,297 472,297 473,297 474,297 475,297 476,297 476,297 477,297 478,297 479,297 480,297 481,297 482,297 483,297 484,297 484,297 485,297 486,297 487,297 488,297 489,297 490,297 491,297 492,297 492,297 493,297 494,297 495,297 496,297 497,297 498,297 499,297 500,297 500,297 501,297 502,297 503,297 504,297 505,297 506,297 507,297 508,297 508,297 509,297 510,297 511,297 512,297 513,297 514,297 515,297 516,297 516,297 517,297 518,297 519,297 520,297 521,297 522,297 523,297 523,297 524,297 525,297 526,297 527,297 528,297 529,297 530,297 531,297 531,297 532,297 533,297 534,297 535,297 536,297 537,297 538,297 539,297 539,297 540,297 541,297 542,297 543,297 544,297 545,297 546,297 547,297 547,297 548,297 549,297 550,297 551,297 552,297 553,297 554,297 555,297 555,297 556,297 557,297 558,297 559,297 560,297 561,297 562,297 563,297 563,297 564,297 565,297 566,297 567,297 568,297 569,297 570,297 570,297 571,297 572,297 573,297 574,297 575,297 576,297 577,297 578,297 578,297 579,297 580,297 581,297 582,297 583,297 584,297 585,297 586,297 586,297 587,297 588,297 589,297 590,297 591,297 592,297 593,297 594,297 594,297 595,297 596,297 597,297 598,297 599,297 600,297 601,297 602,297 602,297 603,297 604,297 605,297 606,297 607,297 608,297 609,297 610,297 610,297 611,297 612,297 613,297 614,297 615,297 616,297 617,297 618,297 618,297 619,297 620,297 621,297 622,297 623,297 624,297 625,297 625,297 626,297 627,297 628,297 629,297 630,297 631,297 632,297 633,297 633,296 634,296 635,296 636,296 637,296 638,296 639,296 640,296 641,296 641,296 642,296 643,296 644,296 645,296 646,296 647,296 648,296 649,296 649,296 650,296 651,296 652,296 653,296 654,296 655,296 656,296 657,296 657,296 658,296 659,296 660,296 661,296 662,296 663,296 664,296 665,296 665,296 666,296 667,296 668,296 669,296 670,296 671,296 672,296 672,296 673,296 674,296 675,296 676,296 677,296 678,296 679,296 680,296 680,296 681,296 682,296 683,296 684,296 685,296 686,296 687,296 688,296 688,296 689,296 690,296 691,296 692,296 693,296 694,296 695,296 696,296 696,296 697,296 698,296 699,296 700,296 701,296 702,296 703,296 704,296 704,296 705,296 706,296 707,296 708,296 709,296 710,296 711,296 712,296 712,296 713,296 714,296 715,296 716,296 717,296 718,296 719,296 719,296 720,296 721,296 722,296 723,296 724,296 725,296 726,296 727,296 727,296 728,296 729,296 730,296 731,296 732,296 733,296 734,296 735,296 735,296 736,296 737,296 738,296 739,296 740,296 741,296 742,296 743,296 743,296 744,296 745,296 746,296 747,296 748,296 749,296 750,296 751,296 751,296 752,296 753,296 754,296 755,296 756,296 757,296 758,296 759,296 759,296 760,296 761,296 762,296 763,296 764,296 765,296 766,296 766,296 767,296 768,296 769,296 770,296 771,296 772,296 773,296 774,296 774,296 775,296 776,296 777,296 778,296 779,296 780,296 781,296 782,296 782,296 783,296 784,296 785,296 786,296 787,296 788,296 789,296 790,296 790,296 791,296 792,296 793,296 794,296 795,296 796,296 797,296 798,296 798,296 799,296 800,296 801,296 802,296 803,296 804,296 805,296 806,296 806,296 807,296 808,296 809,296 810,296 811,296 812,296 813,296 814,296 814,296 815,296 816,296 817,296 818,296 819,296 820,296 821,296 821,296 822,296 823,296 824,296 825,296 826,296 827,296 828,296 829,296 829,296 830,296 831,296 832,296 833,296 834,296 835,296 836,296 837,296 837,296 838,296 839,296 840,296 841,296 842,296 843,296 844,296 845,296 845,296 846,296 847,296 848,296 849,296 850,296 851,296 852,296 853,296 853,296 854,296 855,296 856,296 857,296 858,296 859,296 860,296 861,296 861,296 862,296 863,296 864,296 865,296 866,296 867,296 868,296 868,296 869,296 870,296 871,296 872,296 873,296 874,296 875,296 876,296 876,296 877,296 878,296 879,296 880,296 881,296 882,296 883,296 884,296 884,296 885,296 886,296 887,296 888,296 889,296 890,296 891,296 892,296 892,296 893,296 894,296 895,296 896,296 897,296 898,296 899,296 900,296 900,296 901,296 902,296 903,296 904,296 905,296 906,296 907,296 908,296 908,296 909,296 910,296 911,296 912,296 913,296 914,296 915,296 915,296 916,296 917,296 918,296 919,296 920,296 921,296 922,296 923,296 923,296 924,296 925,296 926,296 927,296 928,296 929,296 930,296 931,296 931,296 932,296 933,296 934,296 935,296 936,296 937,296 938,296 939,296 939,296 940,296 941,296 942,296 943,296 944,296 945,296 946,296 947,296 947,296 948,296 949,296 950,296 951,296 952,296 953,296 954,296 954,296 955,296 955,296 956,296 957,296 958,296 959,296 960,296 961,296 962,296 962,296 963,296 964,296 964,296 973,296 "/>
<line opacity="0.1" stroke="#000000" stroke-width="1" x1="89" y1="699" x2="89" y2="68"/>
<line opacity="0.1" stroke="#000000" stroke-width="1" x1="101" y1="699" x2="101" y2="68"/>
<line opacity="0.1" stroke="#000000" stroke-width="1" x1="112" y1="699" x2="112" y2="68"/>
<line opacity="0.1" stroke="#000000" stroke-width="1" x1="124" y1="699" x2="124" y2="68"/>
<line opacity="0.1" stroke="#000000" stroke-width="1" x1="136" y1="699" x2="136" y2="68"/>
<line opacity="0.1" stroke="#000000" stroke-width="1" x1="148" y1="699" x2="148" y2="68"/>
<line opacity="0.1" stroke="#000000" stroke-width="1" x1="160" y1="699" x2="160" y2="68"/>
<line opacity="0.1" stroke="#000000" stroke-width="1" x1="172" y1="699" x2="172" y2="68"/>
<line opacity="0.1" stroke="#000000" stroke-width="1" x1="184" y1="699" x2="184" y2="68"/>
<line opacity="0.1" stroke="#000000" stroke-width="1" x1="195" y1="699" x2="195" y2="68"/>
<line opacity="0.1" stroke="#000000" stroke-width="1" x1="207" y1="699" x2="207" y2="68"/>
<line opacity="0.1" stroke="#000000" stroke-width="1" x1="219" y1="699" x2="219" y2="68"/>
<line opacity="0.1" stroke="#000000" stroke-width="1" x1="231" y1="699" x2="231" y2="68"/>
<line opacity="0.1" stroke="#000000" stroke-width="1" x1="243" y1="699" x2="243" y2="68"/>
<line opacity="0.1" stroke="#000000" stroke-width="1" x1="255" y1="699" x2="255" y2="68"/>
<line opacity="0.1" stroke="#000000" stroke-width="1" x1="267" y1="699" x2="267" y2="68"/>
<line opacity="0.1" stroke="#000000" stroke-width="1" x1="278" y1="699" x2="278" y2="68"/>
<line opacity="0.1" stroke="#000000" stroke-width="1" x1="290" y1="699" x2="290" y2="68"/>
<line opacity="0.1" stroke="#000000" stroke-width="1" x1="302" y1="699" x2="302" y2="68"/>
<line opacity="0.1" stroke="#000000" stroke-width="1" x1="314" y1="699" x2="314" y2="68"/>
<line opacity="0.1" stroke="#000000" stroke-width="1" x1="326" y1="699" x2="326" y2="68"/>
<line opacity="0.1" stroke="#000000" stroke-width="1" x1="338" y1="699" x2="338" y2="68"/>
<line opacity="0.1" stroke="#000000" stroke-width="1" x1="350" y1="699" x2="350" y2="68"/>
<line opacity="0.1" stroke="#000000" stroke-width="1" x1="361" y1="699" x2="361" y2="68"/>
<line opacity="0.1" stroke="#000000" stroke-width="1" x1="373" y1="699" x2="373" y2="68"/>
<line opacity="0.1" stroke="#000000" stroke-width="1" x1="385" y1="699" x2="385" y2="68"/>
<line opacity="0.1" stroke="#000000" stroke-width="1" x1="397" y1="699" x2="397" y2="68"/>
<line opacity="0.1" stroke="#000000" stroke-width="1" x1="409" y1="699" x2="409" y2="68"/>
<line opacity="0.1" stroke="#000000" stroke-width="1" x1="421" y1="699" x2="421" y2="68"/>
<line opacity="0.1" stroke="#000000" stroke-width="1" x1="433" y1="699" x2="433" y2="68"/>
<line opacity="0.1" stroke="#000000" stroke-width="1" x1="444" y1="699" x2="444" y2="68"/>
<line opacity="0.1" stroke="#000000" stroke-width="1" x1="456" y1="699" x2="456" y2="68"/>
<line opacity="0.1" stroke="#000000" stroke-width="1" x1="468" y1="699" x2="468" y2="68"/>
<line opacity="0.1" stroke="#000000" stroke-width="1" x1="480" y1="699" x2="480" y2="68"/>
<line opacity="0.1" stroke="#000000" stroke-width="1" x1="492" y1="699" x2="492" y2="68"/>
<line opacity="0.1" stroke="#000000" stroke-width="1" x1="504" y1="699" x2="504" y2="68"/>
<line opacity="0.1" stroke="#000000" stroke-width="1" x1="516" y1="699" x2="516" y2="68"/>
<line opacity="0.1" stroke="#000000" stroke-width="1" x1="527" y1="699" x2="527" y2="68"/>
<line opacity="0.1" stroke="#000000" stroke-width="1" x1="539" y1="699" x2="539" y2="68"/>
<line opacity="0.1" stroke="#000000" stroke-width="1" x1="551" y1="699" x2="551" y2="68"/>
<line opacity="0.1" stroke="#000000" stroke-width="1" x1="563" y1="699" x2="563" y2="68"/>
<line opacity="0.1" stroke="#000000" stroke-width="1" x1="575" y1="699" x2="575" y2="68"/>
<line opacity="0.1" stroke="#000000" stroke-width="1" x1="587" y1="699" x2="587" y2="68"/>
<line opacity="0.1" stroke="#000000" stroke-width="1" x1="599" y1="699" x2="599" y2="68"/>
<line opacity="0.1" stroke="#000000" stroke-width="1" x1="610" y1="699" x2="610" y2="68"/>
<line opacity="0.1" stroke="#000000" stroke-width="1" x1="622" y1="699" x2="622" y2="68"/>
<line opacity="0.1" stroke="#000000" stroke-width="1" x1="634" y1="699" x2="634" y2="68"/>
<line opacity="0.1" stroke="#000000" stroke-width="1" x1="646" y1="699" x2="646" y2="68"/>
<line opacity="0.1" stroke="#000000" stroke-width="1" x1="658" y1="699" x2="658" y2="68"/>
<line opacity="0.1" stroke="#000000" stroke-width="1" x1="670" y1="699" x2="670" y2="68"/>
<line opacity="0.1" stroke="#000000" stroke-width="1" x1="682" y1="699" x2="682" y2="68"/>
<line opacity="0.1" stroke="#000000" stroke-width="1" x1="693" y1="699" x2="693" y2="68"/>
<line opacity="0.1" stroke="#000000" stroke-width="1" x1="705" y1="699" x2="705" y2="68"/>
<line opacity="0.1" stroke="#000000" stroke-width="1" x1="717" y1="699" x2="717" y2="68"/>
<line opacity="0.1" stroke="#000000" stroke-width="1" x1="729" y1="699" x2="729" y2="68"/>
<line opacity="0.1" stroke="#000000" stroke-width="1" x1="741" y1="699" x2="741" y2="68"/>
<line opacity="0.1" stroke="#000000" stroke-width="1" x1="753" y1="699" x2="753" y2="68"/>
<line opacity="0.1" stroke="#000000" stroke-width="1" x1="765" y1="699" x2="765" y2="68"/>
<line opacity="0.1" stroke="#000000" stroke-width="1" x1="776" y1="699" x2="776" y2="68"/>
<line opacity="0.1" stroke="#000000" stroke-width="1" x1="788" y1="699" x2="788" y2="68"/>
<line opacity="0.1" stroke="#000000" stroke-width="1" x1="800" y1="699" x2="800" y2="68"/>
<line opacity="0.1" stroke="#000000" stroke-width="1" x1="812" y1="699" x2="812" y2="68"/>
<line opacity="0.1" stroke="#000000" stroke-width="1" x1="824" y1="699" x2="824" y2="68"/>
<line opacity="0.1" stroke="#000000" stroke-width="1" x1="836" y1="699" x2="836" y2="68"/>
<line opacity="0.1" stroke="#000000" stroke-width="1" x1="848" y1="699" x2="848" y2="68"/>
<line opacity="0.1" stroke="#000000" stroke-width="1" x1="859" y1="699" x2="859" y2="68"/>
<line opacity="0.1" stroke="#000000" stroke-width="1" x1="871" y1="699" x2="871" y2="68"/>
<line opacity="0.1" stroke="#000000" stroke-width="1" x1="883" y1="699" x2="883" y2="68"/>
<line opacity="0.1" stroke="#000000" stroke-width="1" x1="895" y1="699" x2="895" y2="68"/>
<line opacity="0.1" stroke="#000000" stroke-width="1" x1="907" y1="699" x2="907" y2="68"/>
<line opacity="0.1" stroke="#000000" stroke-width="1" x1="919" y1="699" x2="919" y2="68"/>
<line opacity="0.1" stroke="#000000" stroke-width="1" x1="931" y1="699" x2="931" y2="68"/>
<line opacity="0.1" stroke="#000000" stroke-width="1" x1="942" y1="699" x2="942" y2="68"/>
<line opacity="0.1" stroke="#000000" stroke-width="1" x1="954" y1="699" x2="954" y2="68"/>
<line opacity="0.1" stroke="#000000" stroke-width="1" x1="966" y1="699" x2="966" y2="68"/>
<line opacity="0.1" stroke="#000000" stroke-width="1" x1="78" y1="699" x2="973" y2="699"/>
<line opacity="0.1" stroke="#000000" stroke-width="1" x1="78" y1="689" x2="973" y2="689"/>
<line opacity="0.1" stroke="#000000" stroke-width="1" x1="78" y1="680" x2="973" y2="680"/>
<line opacity="0.1" stroke="#000000" stroke-width="1" x1="78" y1="671" x2="973" y2="671"/>
<line opacity="0.1" stroke="#000000" stroke-width="1" x1="78" y1="662" x2="973" y2="662"/>
<line opacity="0.1" stroke="#000000" stroke-width="1" x1="78" y1="653" x2="973" y2="653"/>
<line opacity="0.1" stroke="#000000" stroke-width="1" x1="78" y1="644" x2="973" y2="644"/>
<line opacity="0.1" stroke="#000000" stroke-width="1" x1="78" y1="635" x2="973" y2="635"/>
<line opacity="0.1" stroke="#000000" stroke-width="1" x1="78" y1="626" x2="973" y2="626"/>
<line opacity="0.1" stroke="#000000" stroke-width="1" x1="78" y1="617" x2="973" y2="617"/>
<line opacity="0.1" stroke="#000000" stroke-width="1" x1="78" y1="608" x2="973" y2="608"/>
<line opacity="0.1" stroke="#000000" stroke-width="1" x1="78" y1="599" x2="973" y2="599"/>
<line opacity="0.1" stroke="#000000" stroke-width="1" x1="78" y1="590" x2="973" y2="590"/>
<line opacity="0.1" stroke="#000000" stroke-width="1" x1="78" y1="581" x2="973" y2="581"/>
<line opacity="0.1" stroke="#000000" stroke-width="1" x1="78" y1="571" x2="973" y2="571"/>
<line opacity="0.1" stroke="#000000" stroke-width="1" x1="78" y1="562" x2="973" y2="562"/>
<line opacity="0.1" stroke="#000000" stroke-width="1" x1="78" y1="553" x2="973" y2="553"/>
<line opacity="0.1" stroke="#000000" stroke-width="1" x1="78" y1="544" x2="973" y2="544"/>
<line opacity="0.1" stroke="#000000" stroke-width="1" x1="78" y1="535" x2="973" y2="535"/>
<line opacity="0.1" stroke="#000000" stroke-width="1" x1="78" y1="526" x2="973" y2="526"/>
<line opacity="0.1" stroke="#000000" stroke-width="1" x1="78" y1="517" x2="973" y2="517"/>
<line opacity="0.1" stroke="#000000" stroke-width="1" x1="78" y1="508" x2="973" y2="508"/>
<line opacity="0.1" stroke="#000000" stroke-width="1" x1="78" y1="499" x2="973" y2="499"/>
<line opacity="0.1" stroke="#000000" stroke-width="1" x1="78" y1="490" x2="973" y2="490"/>
<line opacity="0.1" stroke="#000000" stroke-width="1" x1="78" y1="481" x2="973" y2="481"/>
<line opacity="0.1" stroke="#000000" stroke-width="1" x1="78" y1="472" x2="973" y2="472"/>
<line opacity="0.1" stroke="#000000" stroke-width="1" x1="78" y1="463" x2="973" y2="463"/>
<line opacity="0.1" stroke="#000000" stroke-width="1" x1="78" y1="454" x2="973" y2="454"/>
<line opacity="0.1" stroke="#000000" stroke-width="1" x1="78" y1="444" x2="973" y2="444"/>
<line opacity="0.1" stroke="#000000" stroke-width="1" x1="78" y1="435" x2="973" y2="435"/>
<line opacity="0.1" stroke="#000000" stroke-width="1" x1="78" y1="426" x2="973" y2="426"/>
<line opacity="0.1" stroke="#000000" stroke-width="1" x1="78" y1="417" x2="973" y2="417"/>
<line opacity="0.1" stroke="#000000" stroke-width="1" x1="78" y1="408" x2="973" y2="408"/>
<line opacity="0.1" stroke="#000000" stroke-width="1" x1="78" y1="399" x2="973" y2="399"/>
<line opacity="0.1" stroke="#000000" stroke-width="1" x1="78" y1="390" x2="973" y2="390"/>
<line opacity="0.1" stroke="#000000" stroke-width="1" x1="78" y1="381" x2="973" y2="381"/>
<line opacity="0.1" stroke="#000000" stroke-width="1" x1="78" y1="372" x2="973" y2="372"/>
<line opacity="0.1" stroke="#000000" stroke-width="1" x1="78" y1="363" x2="973" y2="363"/>
<line opacity="0.1" stroke="#000000" stroke-width="1" x1="78" y1="354" x2="973" y2="354"/>
<line opacity="0.1" stroke="#000000" stroke-width="1" x1="78" y1="345" x2="973" y2="345"/>
<line opacity="0.1" stroke="#000000" stroke-width="1" x1="78" y1="336" x2="973" y2="336"/>
<line opacity="0.1" stroke="#000000" stroke-width="1" x1="78" y1="327" x2="973" y2="327"/>
<line opacity="0.1" stroke="#000000" stroke-width="1" x1="78" y1="317" x2="973" y2="317"/>
<line opacity="0.1" stroke="#000000" stroke-width="1" x1="78" y1="308" x2="973" y2="308"/>
<line opacity="0.1" stroke="#000000" stroke-width="1" x1="78" y1="299" x2="973" y2="299"/>
<line opacity="0.1" stroke="#000000" stroke-width="1" x1="78" y1="290" x2="973" y2="290"/>
<line opacity="0.1" stroke="#000000" stroke-width="1" x1="78" y1="281" x2="973" y2="281"/>
<line opacity="0.1" stroke="#000000" stroke-width="1" x1="78" y1="272" x2="973" y2="272"/>
<line opacity="0.1" stroke="#000000" stroke-width="1" x1="78" y1="263" x2="973" y2="263"/>
<line opacity="0.1" stroke="#000000" stroke-width="1" x1="78" y1="254" x2="973" y2="254"/>
<line opacity="0.1" stroke="#000000" stroke-width="1" x1="78" y1="245" x2="973" y2="245"/>
<line opacity="0.1" stroke="#000000" stroke-width="1" x1="78" y1="236" x2="973" y2="236"/>
<line opacity="0.1" stroke="#000000" stroke-width="1" x1="78" y1="227" x2="973" y2="227"/>
<line opacity="0.1" stroke="#000000" stroke-width="1" x1="78" y1="218" x2="973" y2="218"/>
<line opacity="0.1" stroke="#000000" stroke-width="1" x1="78" y1="209" x2="973" y2="209"/>
<line opacity="0.1" stroke="#000000" stroke-width="1" x1="78" y1="199" x2="973" y2="199"/>
<line opacity="0.1" stroke="#000000" stroke-width="1" x1="78" y1="190" x2="973" y2="190"/>
<line opacity="0.1" stroke="#000000" stroke-width="1" x1="78" y1="181" x2="973" y2="181"/>
<line opacity="0.1" stroke="#000000" stroke-width="1" x1="78" y1="172" x2="973" y2="172"/>
<line opacity="0.1" stroke="#000000" stroke-width="1" x1="78" y1="163" x2="973" y2="163"/>
<line opacity="0.1" stroke="#000000" stroke-width="1" x1="78" y1="154" x2="973" y2="154"/>
<line opacity="0.1" stroke="#000000" stroke-width="1" x1="78" y1="145" x2="973" y2="145"/>
<line opacity="0.1" stroke="#000000" stroke-width="1" x1="78" y1="136" x2="973" y2="136"/>
<line opacity="0.1" stroke="#000000" stroke-width="1" x1="78" y1="127" x2="973" y2="127"/>
<line opacity="0.1" stroke="#000000" stroke-width="1" x1="78" y1="118" x2="973" y2="118"/>
<line opacity="0.1" stroke="#000000" stroke-width="1" x1="78" y1="109" x2="973" y2="109"/>
<line opacity="0.1" stroke="#000000" stroke-width="1" x1="78" y1="100" x2="973" y2="100"/>
<line opacity="0.1" stroke="#000000" stroke-width="1" x1="78" y1="91" x2="973" y2="91"/>
<line opacity="0.1" stroke="#000000" stroke-width="1" x1="78" y1="82" x2="973" y2="82"/>
<line opacity="0.1" stroke="#000000" stroke-width="1" x1="78" y1="72" x2="973" y2="72"/>
<text x="8" y="384" dy="0.76em" text-anchor="middle" font-family="sans-serif" font-size="9.67741935483871" opacity="1" fill="#000000" transform="rotate(270, 8, 384)">
Memory usage
</text>
<text x="526" y="760" dy="-0.5ex" text-anchor="middle" font-family="sans-serif" font-size="9.67741935483871" opacity="1" fill="#000000">
Time
</text>
<line opacity="0.2" stroke="#000000" stroke-width="1" x1="112" y1="699" x2="112" y2="68"/>
<line opacity="0.2" stroke="#000000" stroke-width="1" x1="231" y1="699" x2="231" y2="68"/>
<line opacity="0.2" stroke="#000000" stroke-width="1" x1="350" y1="699" x2="350" y2="68"/>
<line opacity="0.2" stroke="#000000" stroke-width="1" x1="468" y1="699" x2="468" y2="68"/>
<line opacity="0.2" stroke="#000000" stroke-width="1" x1="587" y1="699" x2="587" y2="68"/>
<line opacity="0.2" stroke="#000000" stroke-width="1" x1="705" y1="699" x2="705" y2="68"/>
<line opacity="0.2" stroke="#000000" stroke-width="1" x1="824" y1="699" x2="824" y2="68"/>
<line opacity="0.2" stroke="#000000" stroke-width="1" x1="942" y1="699" x2="942" y2="68"/>
<line opacity="0.2" stroke="#000000" stroke-width="1" x1="78" y1="699" x2="973" y2="699"/>
<line opacity="0.2" stroke="#000000" stroke-width="1" x1="78" y1="608" x2="973" y2="608"/>
<line opacity="0.2" stroke="#000000" stroke-width="1" x1="78" y1="517" x2="973" y2="517"/>
<line opacity="0.2" stroke="#000000" stroke-width="1" x1="78" y1="426" x2="973" y2="426"/>
<line opacity="0.2" stroke="#000000" stroke-width="1" x1="78" y1="336" x2="973" y2="336"/>
<line opacity="0.2" stroke="#000000" stroke-width="1" x1="78" y1="245" x2="973" y2="245"/>
<line opacity="0.2" stroke="#000000" stroke-width="1" x1="78" y1="154" x2="973" y2="154"/>
<polyline fill="none" opacity="1" stroke="#000000" stroke-width="1" points="77,68 77,699 "/>
<text x="68" y="699" dy="0.5ex" text-anchor="end" font-family="sans-serif" font-size="9.67741935483871" opacity="1" fill="#000000">
0.0 MB
</text>
<polyline fill="none" opacity="1" stroke="#000000" stroke-width="1" points="72,699 77,699 "/>
<text x="68" y="608" dy="0.5ex" text-anchor="end" font-family="sans-serif" font-size="9.67741935483871" opacity="1" fill="#000000">
9.5 MB
</text>
<polyline fill="none" opacity="1" stroke="#000000" stroke-width="1" points="72,608 77,608 "/>
<text x="68" y="517" dy="0.5ex" text-anchor="end" font-family="sans-serif" font-size="9.67741935483871" opacity="1" fill="#000000">
19.1 MB
</text>
<polyline fill="none" opacity="1" stroke="#000000" stroke-width="1" points="72,517 77,517 "/>
<text x="68" y="426" dy="0.5ex" text-anchor="end" font-family="sans-serif" font-size="9.67741935483871" opacity="1" fill="#000000">
28.6 MB
</text>
<polyline fill="none" opacity="1" stroke="#000000" stroke-width="1" points="72,426 77,426 "/>
<text x="68" y="336" dy="0.5ex" text-anchor="end" font-family="sans-serif" font-size="9.67741935483871" opacity="1" fill="#000000">
38.1 MB
</text>
<polyline fill="none" opacity="1" stroke="#000000" stroke-width="1" points="72,336 77,336 "/>
<text x="68" y="245" dy="0.5ex" text-anchor="end" font-family="sans-serif" font-size="9.67741935483871" opacity="1" fill="#000000">
47.7 MB
</text>
<polyline fill="none" opacity="1" stroke="#000000" stroke-width="1" points="72,245 77,245 "/>
<text x="68" y="154" dy="0.5ex" text-anchor="end" font-family="sans-serif" font-size="9.67741935483871" opacity="1" fill="#000000">
57.2 MB
</text>
<polyline fill="none" opacity="1" stroke="#000000" stroke-width="1" points="72,154 77,154 "/>
<polyline fill="none" opacity="1" stroke="#000000" stroke-width="1" points="78,700 973,700 "/>
<text x="112" y="710" dy="0.76em" text-anchor="middle" font-family="sans-serif" font-size="9.67741935483871" opacity="1" fill="#000000">
07 17:46:40
</text>
<polyline fill="none" opacity="1" stroke="#000000" stroke-width="1" points="112,700 112,705 "/>
<text x="231" y="710" dy="0.76em" text-anchor="middle" font-family="sans-serif" font-size="9.67741935483871" opacity="1" fill="#000000">
07 20:33:20
</text>
<polyline fill="none" opacity="1" stroke="#000000" stroke-width="1" points="231,700 231,705 "/>
<text x="350" y="710" dy="0.76em" text-anchor="middle" font-family="sans-serif" font-size="9.67741935483871" opacity="1" fill="#000000">
07 23:20:00
</text>
<polyline fill="none" opacity="1" stroke="#000000" stroke-width="1" points="350,700 350,705 "/>
<text x="468" y="710" dy="0.76em" text-anchor="middle" font-family="sans-serif" font-size="9.67741935483871" opacity="1" fill="#000000">
08 02:06:40
</text>
<polyline fill="none" opacity="1" stroke="#000000" stroke-width="1" points="468,700 468,705 "/>
<text x="587" y="710" dy="0.76em" text-anchor="middle" font-family="sans-serif" font-size="9.67741935483871" opacity="1" fill="#000000">
08 04:53:20
</text>
<polyline fill="none" opacity="1" stroke="#000000" stroke-width="1" points="587,700 587,705 "/>
<text x="705" y="710" dy="0.76em" text-anchor="middle" font-family="sans-serif" font-size="9.67741935483871" opacity="1" fill="#000000">
08 07:40:00
</text>
<polyline fill="none" opacity="1" stroke="#000000" stroke-width="1" points="705,700 705,705 "/>
<text x="824" y="710" dy="0.76em" text-anchor="middle" font-family="sans-serif" font-size="9.67741935483871" opacity="1" fill="#000000">
08 10:26:40
</text>
<polyline fill="none" opacity="1" stroke="#000000" stroke-width="1" points="824,700 824,705 "/>
<text x="942" y="710" dy="0.76em" text-anchor="middle" font-family="sans-serif" font-size="9.67741935483871" opacity="1" fill="#000000">
08 13:13:20
</text>
<polyline fill="none" opacity="1" stroke="#000000" stroke-width="1" points="942,700 942,705 "/>
<polyline fill="none" opacity="1" stroke="#000000" stroke-width="1" points="78,67 974,67 "/>
<text x="112" y="58" dy="-0.5ex" text-anchor="middle" font-family="sans-serif" font-size="9.67741935483871" opacity="1" fill="#000000">
+00:49:04
</text>
<polyline fill="none" opacity="1" stroke="#000000" stroke-width="1" points="112,62 112,67 "/>
<text x="231" y="58" dy="-0.5ex" text-anchor="middle" font-family="sans-serif" font-size="9.67741935483871" opacity="1" fill="#000000">
+03:35:44
</text>
<polyline fill="none" opacity="1" stroke="#000000" stroke-width="1" points="231,62 231,67 "/>
<text x="350" y="58" dy="-0.5ex" text-anchor="middle" font-family="sans-serif" font-size="9.67741935483871" opacity="1" fill="#000000">
+06:22:24
</text>
<polyline fill="none" opacity="1" stroke="#000000" stroke-width="1" points="350,62 350,67 "/>
<text x="469" y="58" dy="-0.5ex" text-anchor="middle" font-family="sans-serif" font-size="9.67741935483871" opacity="1" fill="#000000">
+09:09:04
</text>
<polyline fill="none" opacity="1" stroke="#000000" stroke-width="1" points="469,62 469,67 "/>
<text x="587" y="58" dy="-0.5ex" text-anchor="middle" font-family="sans-serif" font-size="9.67741935483871" opacity="1" fill="#000000">
+11:55:44
</text>
<polyline fill="none" opacity="1" stroke="#000000" stroke-width="1" points="587,62 587,67 "/>
<text x="706" y="58" dy="-0.5ex" text-anchor="middle" font-family="sans-serif" font-size="9.67741935483871" opacity="1" fill="#000000">
+14:42:24
</text>
<polyline fill="none" opacity="1" stroke="#000000" stroke-width="1" points="706,62 706,67 "/>
<text x="825" y="58" dy="-0.5ex" text-anchor="middle" font-family="sans-serif" font-size="9.67741935483871" opacity="1" fill="#000000">
+17:29:04
</text>
<polyline fill="none" opacity="1" stroke="#000000" stroke-width="1" points="825,62 825,67 "/>
<text x="943" y="58" dy="-0.5ex" text-anchor="middle" font-family="sans-serif" font-size="9.67741935483871" opacity="1" fill="#000000">
+20:15:44
</text>
<polyline fill="none" opacity="1" stroke="#000000" stroke-width="1" points="943,62 943,67 "/>
<rect x="83" y="73" width="99" height="45" opacity="0.75" fill="#FFFFFF" stroke="none"/>
<rect x="83" y="73" width="99" height="45" opacity="1" fill="none" stroke="#000000"/>
<text x="123" y="83" dy="0.76em" text-anchor="start" font-family="sans-serif" font-size="9.67741935483871" opacity="1" fill="#000000">
Temporary
</text>
<text x="123" y="98" dy="0.76em" text-anchor="start" font-family="sans-serif" font-size="9.67741935483871" opacity="1" fill="#000000">
Leaked
</text>
<rect x="93" y="83" width="10" height="10" opacity="1" fill="#3CB44B" stroke="none"/>
<rect x="93" y="98" width="10" height="10" opacity="1" fill="#E6194B" stroke="none"/>
</svg>
