<svg width="1024" height="768" viewBox="0 0 1024 768" xmlns="http://www.w3.org/2000/svg">
<rect x="0" y="0" width="1024" height="768" opacity="1" fill="#FFFFFF" stroke="none"/>
<polygon opacity="1" fill="#3CB44B" points="78,613 79,605 80,594 81,585 82,575 83,569 84,559 84,545 85,536 86,525 87,514 88,503 89,491 90,481 91,470 92,458 93,448 93,440 94,437 95,439 96,438 97,438 98,437 99,437 100,436 101,436 101,434 102,434 103,434 104,434 105,433 106,432 107,433 108,434 109,433 110,434 110,435 111,435 112,434 113,433 114,434 115,434 116,432 117,432 118,433 118,433 119,436 120,434 121,433 122,433 123,432 124,432 125,431 126,431 127,431 127,431 128,426 129,426 130,426 131,428 132,427 133,427 134,427 135,425 135,425 136,426 137,429 138,429 139,428 140,426 141,427 142,427 143,426 144,426 144,418 145,421 146,419 147,419 148,418 149,420 150,420 151,420 152,420 152,420 153,418 154,417 155,417 156,416 157,416 158,416 159,416 160,416 161,418 161,417 162,416 163,416 164,416 165,417 166,417 167,415 168,416 169,415 169,415 170,414 171,414 172,417 173,416 174,418 175,416 176,415 177,414 178,414 178,414 179,414 180,414 181,414 182,406 183,409 184,408 185,408 186,408 186,408 187,410 188,408 189,406 190,406 191,405 192,405 193,405 194,405 195,407 195,405 196,408 197,407 198,406 199,405 200,405 201,404 202,403 203,403 204,405 204,405 205,405 206,403 207,402 208,402 209,402 210,406 211,404 212,405 212,405 213,403 214,401 215,401 216,386 217,393 218,394 219,394 220,392 221,393 221,394 222,394 223,392 224,393 225,379 226,391 227,390 228,387 229,392 229,389 230,386 231,381 232,380 233,376 234,377 235,379 236,374 237,365 238,376 238,386 239,385 240,385 241,384 242,384 243,383 244,383 245,385 246,384 246,384 247,384 248,383 249,382 250,382 251,381 252,381 253,380 254,379 255,379 255,379 256,380 257,380 258,380 259,379 260,378 261,378 262,377 263,377 263,377 264,378 265,377 266,377 267,377 268,378 269,378 270,377 271,377 272,377 272,376 273,375 274,375 275,375 276,374 277,373 278,373 279,375 280,374 280,373 281,373 282,373 283,372 284,371 285,371 286,370 287,347 288,358 289,357 289,359 290,361 291,361 292,360 293,359 294,359 295,359 296,358 297,358 297,357 298,356 299,356 300,356 301,357 302,356 303,356 304,355 305,355 306,354 306,354 307,353 308,352 309,352 310,352 311,351 312,353 313,352 314,354 314,353 315,353 316,353 317,352 318,352 319,351 320,350 321,350 322,350 323,349 323,351 324,350 325,349 326,349 327,349 328,348 329,348 330,347 331,347 331,346 332,346 333,346 334,345 335,347 336,347 337,346 338,345 339,345 340,346 340,346 341,345 342,345 343,344 344,344 345,343 346,345 347,344 348,344 348,343 349,343 350,342 351,342 352,310 353,325 354,325 355,324 356,324 357,324 357,323 358,324 359,324 360,323 361,323 362,323 363,322 364,321 365,323 365,323 366,322 367,322 368,322 369,323 370,322 371,322 372,321 373,321 374,320 374,320 375,319 376,319 377,319 378,318 379,318 380,319 381,318 382,318 382,318 383,317 384,317 385,316 386,315 387,315 388,314 389,314 390,314 391,317 391,316 392,316 393,316 394,315 395,314 396,314 397,313 398,313 399,313 400,312 400,311 401,313 402,313 403,312 404,312 405,312 406,311 407,310 408,310 408,309 409,309 410,308 411,308 412,307 413,307 414,309 415,308 416,307 417,308 417,308 418,307 419,307 420,307 421,305 422,305 423,305 424,306 425,306 425,306 426,305 427,304 428,304 429,303 430,303 431,303 432,302 433,302 434,301 434,301 435,302 436,302 437,301 438,300 439,300 440,299 441,299 442,301 442,300 443,300 444,299 445,301 446,300 447,300 448,299 449,299 450,298 451,298 451,297 452,296 453,296 454,296 455,295 456,295 457,296 458,296 459,295 459,295 460,294 461,294 462,293 463,293 464,292 465,292 466,291 467,291 468,294 468,294 469,293 470,293 471,293 472,292 473,292 474,292 475,291 476,290 476,290 477,290 478,289 479,291 480,290 481,290 482,289 483,289 484,288 485,287 485,287 486,286 487,286 488,286 489,285 490,285 491,286 492,286 493,285 493,287 494,241 495,263 496,262 497,262 498,262 499,261 500,261 501,260 502,260 502,261 503,261 504,260 505,260 506,259 507,258 508,258 509,258 510,257 510,257 511,256 512,256 513,255 514,257 515,257 516,256 517,256 518,255 519,255 519,256 520,256 521,255 522,255 523,254 524,254 525,255 526,255 527,255 527,254 528,253 529,253 530,252 531,252 532,251 533,251 534,250 535,250 536,249 536,251 537,251 538,250 539,250 540,249 541,249 542,248 543,248 544,247 544,246 545,248 546,248 547,248 548,249 549,248 550,248 551,248 552,247 553,246 553,245 554,245 555,245 556,244 557,244 558,243 559,245 560,244 561,244 561,243 562,243 563,242 564,242 565,241 566,241 567,240 568,240 569,239 570,239 570,240 571,242 572,241 573,241 574,241 575,239 576,239 577,239 578,238 579,238 579,237 580,239 581,238 582,238 583,237 584,236 585,236 586,236 587,235 587,235 588,234 589,234 590,235 591,235 592,236 593,236 594,236 595,235 596,234 596,236 597,236 598,235 599,235 600,235 601,233 602,233 603,233 604,235 604,234 605,234 606,233 607,233 608,232 609,231 610,231 611,231 612,230 613,230 613,229 614,231 615,230 616,230 617,230 618,229 619,228 620,228 621,228 621,227 622,229 623,228 624,227 625,227 626,229 627,229 628,166 629,196 630,196 630,195 631,195 632,194 633,193 634,234 635,233 636,233 637,235 638,234 638,233 639,233 640,232 641,232 642,232 643,231 644,231 645,230 646,230 647,229 647,231 648,232 649,232 650,231 651,231 652,230 653,230 654,229 655,228 655,228 656,228 657,227 658,227 659,227 660,228 661,227 662,227 663,226 664,226 664,225 665,225 666,224 667,224 668,223 669,223 670,223 671,222 672,224 672,223 673,225 674,225 675,224 676,224 677,223 678,222 679,222 680,221 681,221 681,220 682,222 683,222 684,221 685,221 686,221 687,220 688,219 689,219 689,218 690,218 691,217 692,217 693,216 694,218 695,217 696,217 697,217 698,216 698,215 699,217 700,217 701,216 702,216 703,216 704,215 705,214 706,214 706,216 707,216 708,215 709,214 710,214 711,213 712,213 713,213 714,212 715,212 715,211 716,211 717,211 718,212 719,212 720,211 721,211 722,210 723,210 723,210 724,209 725,208 726,208 727,209 728,209 729,209 730,210 731,210 732,209 732,209 733,208 734,208 735,207 736,207 737,206 738,206 739,205 740,205 740,205 741,206 742,206 743,205 744,204 745,204 746,204 747,203 748,203 749,202 749,201 750,201 751,201 752,203 753,204 754,203 755,203 756,202 757,202 758,201 758,201 759,201 760,200 761,200 762,199 763,199 764,199 765,200 766,199 766,199 767,199 768,198 769,198 770,198 771,197 772,196 773,196 774,195 775,195 775,195 776,195 777,196 778,195 779,197 780,196 781,196 782,196 783,195 783,194 784,194 785,193 786,193 787,193 788,194 789,195 790,195 791,194 792,194 792,193 793,192 794,192 795,192 796,191 797,191 798,190 799,192 800,191 800,191 801,191 802,190 803,190 804,191 805,191 806,190 807,190 808,189 809,189 809,188 810,188 811,190 812,189 813,189 814,188 815,188 816,188 817,187 817,186 818,186 819,186 820,185 821,185 822,185 823,186 824,185 825,185 826,184 826,184 827,183 828,182 829,182 830,184 831,184 832,183 833,183 834,183 834,184 835,183 836,183 837,183 838,182 839,182 840,181 841,181 842,181 843,180 843,180 844,179 845,179 846,178 847,180 848,179 849,179 850,179 851,178 851,178 852,177 853,176 854,176 855,175 856,175 857,177 858,177 859,177 860,178 860,177 861,177 862,177 863,176 864,175 865,175 866,174 867,174 868,174 868,173 869,173 870,172 871,174 872,173 873,173 874,173 875,172 876,171 877,171 877,170 878,170 879,169 880,169 881,168 882,168 883,168 884,169 885,171 885,171 886,170 887,170 888,169 889,169 890,169 891,168 892,168 893,167 894,166 894,166 895,166 896,167 897,167 898,166 899,165 900,165 901,165 902,164 902,164 903,163 904,162 905,162 906,162 907,163 908,163 909,162 910,162 911,163 911,163 912,162 913,162 914,161 915,161 916,160 917,160 918,160 919,161 919,161 920,160 921,160 922,159 923,68 924,113 925,112 926,112 927,111 928,110 928,110 929,110 930,112 931,111 932,110 933,110 934,110 935,109 936,109 936,108 937,107 938,109 939,109 940,108 941,108 942,108 943,109 944,108 945,108 945,108 946,107 947,107 948,106 949,105 950,105 951,105 952,104 953,104 954,103 954,105 955,104 956,104 957,104 958,103 959,103 960,102 961,102 962,101 962,101 963,101 964,100 965,102 966,101 967,102 968,102 969,102 970,101 971,101 971,100 972,101 972,101 973,101 973,699 78,699 "/>
<polyline fill="none" opacity="1" stroke="#3CB44B" stroke-width="1" points="78,613 79,605 80,594 81,585 82,575 83,569 84,559 84,545 85,536 86,525 87,514 88,503 89,491 90,481 91,470 92,458 93,448 93,440 94,437 95,439 96,438 97,438 98,437 99,437 100,436 101,436 101,434 102,434 103,434 104,434 105,433 106,432 107,433 108,434 109,433 110,434 110,435 111,435 112,434 113,433 114,434 115,434 116,432 117,432 118,433 118,433 119,436 120,434 121,433 122,433 123,432 124,432 125,431 126,431 127,431 127,431 128,426 129,426 130,426 131,428 132,427 133,427 134,427 135,425 135,425 136,426 137,429 138,429 139,428 140,426 141,427 142,427 143,426 144,426 144,418 145,421 146,419 147,419 148,418 149,420 150,420 151,420 152,420 152,420 153,418 154,417 155,417 156,416 157,416 158,416 159,416 160,416 161,418 161,417 162,416 163,416 164,416 165,417 166,417 167,415 168,416 169,415 169,415 170,414 171,414 172,417 173,416 174,418 175,416 176,415 177,414 178,414 178,414 179,414 180,414 181,414 182,406 183,409 184,408 185,408 186,408 186,408 187,410 188,408 189,406 190,406 191,405 192,405 193,405 194,405 195,407 195,405 196,408 197,407 198,406 199,405 200,405 201,404 202,403 203,403 204,405 204,405 205,405 206,403 207,402 208,402 209,402 210,406 211,404 212,405 212,405 213,403 214,401 215,401 216,386 217,393 218,394 219,394 220,392 221,393 221,394 222,394 223,392 224,393 225,379 226,391 227,390 228,387 229,392 229,389 230,386 231,381 232,380 233,376 234,377 235,379 236,374 237,365 238,376 238,386 239,385 240,385 241,384 242,384 243,383 244,383 245,385 246,384 246,384 247,384 248,383 249,382 250,382 251,381 252,381 253,380 254,379 255,379 255,379 256,380 257,380 258,380 259,379 260,378 261,378 262,377 263,377 263,377 264,378 265,377 266,377 267,377 268,378 269,378 270,377 271,377 272,377 272,376 273,375 274,375 275,375 276,374 277,373 278,373 279,375 280,374 280,373 281,373 282,373 283,372 284,371 285,371 286,370 287,347 288,358 289,357 289,359 290,361 291,361 292,360 293,359 294,359 295,359 296,358 297,358 297,357 298,356 299,356 300,356 301,357 302,356 303,356 304,355 305,355 306,354 306,354 307,353 308,352 309,352 310,352 311,351 312,353 313,352 314,354 314,353 315,353 316,353 317,352 318,352 319,351 320,350 321,350 322,350 323,349 323,351 324,350 325,349 326,349 327,349 328,348 329,348 330,347 331,347 331,346 332,346 333,346 334,345 335,347 336,347 337,346 338,345 339,345 340,346 340,346 341,345 342,345 343,344 344,344 345,343 346,345 347,344 348,344 348,343 349,343 350,342 351,342 352,310 353,325 354,325 355,324 356,324 357,324 357,323 358,324 359,324 360,323 361,323 362,323 363,322 364,321 365,323 365,323 366,322 367,322 368,322 369,323 370,322 371,322 372,321 373,321 374,320 374,320 375,319 376,319 377,319 378,318 379,318 380,319 381,318 382,318 382,318 383,317 384,317 385,316 386,315 387,315 388,314 389,314 390,314 391,317 391,316 392,316 393,316 394,315 395,314 396,314 397,313 398,313 399,313 400,312 400,311 401,313 402,313 403,312 404,312 405,312 406,311 407,310 408,310 408,309 409,309 410,308 411,308 412,307 413,307 414,309 415,308 416,307 417,308 417,308 418,307 419,307 420,307 421,305 422,305 423,305 424,306 425,306 425,306 426,305 427,304 428,304 429,303 430,303 431,303 432,302 433,302 434,301 434,301 435,302 436,302 437,301 438,300 439,300 440,299 441,299 442,301 442,300 443,300 444,299 445,301 446,300 447,300 448,299 449,299 450,298 451,298 451,297 452,296 453,296 454,296 455,295 456,295 457,296 458,296 459,295 459,295 460,294 461,294 462,293 463,293 464,292 465,292 466,291 467,291 468,294 468,294 469,293 470,293 471,293 472,292 473,292 474,292 475,291 476,290 476,290 477,290 478,289 479,291 480,290 481,290 482,289 483,289 484,288 485,287 485,287 486,286 487,286 488,286 489,285 490,285 491,286 492,286 493,285 493,287 494,241 495,263 496,262 497,262 498,262 499,261 500,261 501,260 502,260 502,261 503,261 504,260 505,260 506,259 507,258 508,258 509,258 510,257 510,257 511,256 512,256 513,255 514,257 515,257 516,256 517,256 518,255 519,255 519,256 520,256 521,255 522,255 523,254 524,254 525,255 526,255 527,255 527,254 528,253 529,253 530,252 531,252 532,251 533,251 534,250 535,250 536,249 536,251 537,251 538,250 539,250 540,249 541,249 542,248 543,248 544,247 544,246 545,248 546,248 547,248 548,249 549,248 550,248 551,248 552,247 553,246 553,245 554,245 555,245 556,244 557,244 558,243 559,245 560,244 561,244 561,243 562,243 563,242 564,242 565,241 566,241 567,240 568,240 569,239 570,239 570,240 571,242 572,241 573,241 574,241 575,239 576,239 577,239 578,238 579,238 579,237 580,239 581,238 582,238 583,237 584,236 585,236 586,236 587,235 587,235 588,234 589,234 590,235 591,235 592,236 593,236 594,236 595,235 596,234 596,236 597,236 598,235 599,235 600,235 601,233 602,233 603,233 604,235 604,234 605,234 606,233 607,233 608,232 609,231 610,231 611,231 612,230 613,230 613,229 614,231 615,230 616,230 617,230 618,229 619,228 620,228 621,228 621,227 622,229 623,228 624,227 625,227 626,229 627,229 628,166 629,196 630,196 630,195 631,195 632,194 633,193 634,234 635,233 636,233 637,235 638,234 638,233 639,233 640,232 641,232 642,232 643,231 644,231 645,230 646,230 647,229 647,231 648,232 649,232 650,231 651,231 652,230 653,230 654,229 655,228 655,228 656,228 657,227 658,227 659,227 660,228 661,227 662,227 663,226 664,226 664,225 665,225 666,224 667,224 668,223 669,223 670,223 671,222 672,224 672,223 673,225 674,225 675,224 676,224 677,223 678,222 679,222 680,221 681,221 681,220 682,222 683,222 684,221 685,221 686,221 687,220 688,219 689,219 689,218 690,218 691,217 692,217 693,216 694,218 695,217 696,217 697,217 698,216 698,215 699,217 700,217 701,216 702,216 703,216 704,215 705,214 706,214 706,216 707,216 708,215 709,214 710,214 711,213 712,213 713,213 714,212 715,212 715,211 716,211 717,211 718,212 719,212 720,211 721,211 722,210 723,210 723,210 724,209 725,208 726,208 727,209 728,209 729,209 730,210 731,210 732,209 732,209 733,208 734,208 735,207 736,207 737,206 738,206 739,205 740,205 740,205 741,206 742,206 743,205 744,204 745,204 746,204 747,203 748,203 749,202 749,201 750,201 751,201 752,203 753,204 754,203 755,203 756,202 757,202 758,201 758,201 759,201 760,200 761,200 762,199 763,199 764,199 765,200 766,199 766,199 767,199 768,198 769,198 770,198 771,197 772,196 773,196 774,195 775,195 775,195 776,195 777,196 778,195 779,197 780,196 781,196 782,196 783,195 783,194 784,194 785,193 786,193 787,193 788,194 789,195 790,195 791,194 792,194 792,193 793,192 794,192 795,192 796,191 797,191 798,190 799,192 800,191 800,191 801,191 802,190 803,190 804,191 805,191 806,190 807,190 808,189 809,189 809,188 810,188 811,190 812,189 813,189 814,188 815,188 816,188 817,187 817,186 818,186 819,186 820,185 821,185 822,185 823,186 824,185 825,185 826,184 826,184 827,183 828,182 829,182 830,184 831,184 832,183 833,183 834,183 834,184 835,183 836,183 837,183 838,182 839,182 840,181 841,181 842,181 843,180 843,180 844,179 845,179 846,178 847,180 848,179 849,179 850,179 851,178 851,178 852,177 853,176 854,176 855,175 856,175 857,177 858,177 859,177 860,178 860,177 861,177 862,177 863,176 864,175 865,175 866,174 867,174 868,174 868,173 869,173 870,172 871,174 872,173 873,173 874,173 875,172 876,171 877,171 877,170 878,170 879,169 880,169 881,168 882,168 883,168 884,169 885,171 885,171 886,170 887,170 888,169 889,169 890,169 891,168 892,168 893,167 894,166 894,166 895,166 896,167 897,167 898,166 899,165 900,165 901,165 902,164 902,164 903,163 904,162 905,162 906,162 907,163 908,163 909,162 910,162 911,163 911,163 912,162 913,162 914,161 915,161 916,160 917,160 918,160 919,161 919,161 920,160 921,160 922,159 923,68 924,113 925,112 926,112 927,111 928,110 928,110 929,110 930,112 931,111 932,110 933,110 934,110 935,109 936,109 936,108 937,107 938,109 939,109 940,108 941,108 942,108 943,109 944,108 945,108 945,108 946,107 947,107 948,106 949,105 950,105 951,105 952,104 953,104 954,103 954,105 955,104 956,104 957,104 958,103 959,103 960,102 961,102 962,101 962,101 963,101 964,100 965,102 966,101 967,102 968,102 969,102 970,101 971,101 971,100 972,101 972,101 973,101 "/>
<polygon opacity="1" fill="#E6194B" points="78,629 79,629 80,629 81,628 82,628 83,628 84,627 84,627 85,627 86,627 87,627 88,627 89,626 90,626 91,626 92,626 93,626 93,625 94,625 95,625 96,625 97,625 98,625 99,625 100,624 101,624 101,624 102,624 103,624 104,624 105,623 106,623 107,623 108,623 109,622 110,622 110,622 111,622 112,622 113,621 114,621 115,621 116,621 117,621 118,621 118,620 119,620 120,620 121,620 122,620 123,620 124,619 125,619 126,619 127,619 127,619 128,619 129,619 130,618 131,618 132,618 133,618 134,618 135,618 135,617 136,617 137,617 138,617 139,617 140,617 141,616 142,616 143,616 144,616 144,616 145,616 146,615 147,615 148,615 149,614 150,614 151,614 152,614 152,614 153,614 154,613 155,613 156,613 157,613 158,613 159,613 160,612 161,612 161,612 162,612 163,612 164,612 165,612 166,611 167,611 168,611 169,611 169,611 170,611 171,610 172,610 173,610 174,610 175,610 176,610 177,610 178,609 178,609 179,609 180,609 181,609 182,609 183,609 184,608 185,608 186,608 186,607 187,607 188,607 189,607 190,607 191,607 192,606 193,606 194,606 195,606 195,606 196,606 197,605 198,605 199,605 200,605 201,605 202,605 203,604 204,604 204,604 205,604 206,604 207,604 208,604 209,603 210,603 211,603 212,603 212,603 213,603 214,602 215,602 216,602 217,602 218,602 219,602 220,601 221,601 221,601 222,601 223,601 224,601 225,586 226,585 227,582 228,576 229,569 229,560 230,551 231,538 232,528 233,514 234,499 235,486 236,469 237,444 238,430 238,430 239,430 240,430 241,430 242,429 243,429 244,429 245,429 246,429 246,429 247,428 248,428 249,428 250,428 251,428 252,427 253,427 254,427 255,427 255,427 256,426 257,426 258,426 259,426 260,426 261,426 262,426 263,425 263,425 264,425 265,425 266,425 267,424 268,424 269,424 270,424 271,424 272,424 272,424 273,423 274,423 275,423 276,423 277,423 278,422 279,422 280,422 280,422 281,422 282,422 283,421 284,421 285,421 286,421 287,421 288,421 289,420 289,420 290,420 291,420 292,420 293,420 294,419 295,419 296,419 297,419 297,419 298,419 299,418 300,418 301,418 302,418 303,418 304,418 305,417 306,417 306,417 307,417 308,417 309,417 310,416 311,416 312,416 313,416 314,416 314,415 315,415 316,415 317,415 318,415 319,415 320,414 321,414 322,414 323,414 323,414 324,414 325,413 326,413 327,413 328,413 329,413 330,413 331,412 331,412 332,412 333,412 334,412 335,412 336,412 337,411 338,411 339,411 340,411 340,410 341,410 342,410 343,410 344,410 345,410 346,409 347,409 348,409 348,409 349,409 350,409 351,408 352,408 353,408 354,408 355,408 356,408 357,408 357,407 358,407 359,407 360,407 361,407 362,407 363,406 364,406 365,406 365,406 366,406 367,405 368,405 369,405 370,405 371,405 372,405 373,404 374,404 374,404 375,404 376,404 377,404 378,403 379,403 380,403 381,403 382,403 382,403 383,402 384,402 385,402 386,402 387,402 388,402 389,401 390,401 391,401 391,401 392,401 393,401 394,400 395,400 396,400 397,400 398,400 399,400 400,399 400,399 401,399 402,399 403,399 404,399 405,398 406,398 407,398 408,398 408,398 409,398 410,397 411,397 412,397 413,397 414,397 415,396 416,396 417,396 417,395 418,395 419,395 420,395 421,395 422,395 423,394 424,394 425,394 425,394 426,394 427,394 428,394 429,393 430,393 431,393 432,393 433,393 434,393 434,392 435,392 436,392 437,392 438,392 439,391 440,391 441,391 442,391 442,391 443,391 444,390 445,390 446,390 447,390 448,390 449,390 450,389 451,389 451,389 452,389 453,389 454,389 455,388 456,388 457,388 458,388 459,388 459,388 460,387 461,387 462,387 463,387 464,387 465,387 466,386 467,386 468,386 468,386 469,386 470,386 471,386 472,385 473,385 474,385 475,385 476,385 476,384 477,384 478,384 479,384 480,384 481,384 482,384 483,383 484,383 485,383 485,383 486,383 487,383 488,382 489,382 490,382 491,382 492,382 493,382 493,381 494,381 495,381 496,381 497,381 498,381 499,380 500,380 501,380 502,380 502,380 503,379 504,379 505,379 506,379 507,379 508,379 509,379 510,378 510,378 511,378 512,378 513,378 514,377 515,377 516,377 517,377 518,377 519,377 519,377 520,376 521,376 522,376 523,376 524,376 525,375 526,375 527,375 527,375 528,375 529,374 530,374 531,374 532,374 533,374 534,374 535,374 536,373 536,373 537,373 538,373 539,373 540,373 541,372 542,372 543,372 544,372 544,372 545,372 546,371 547,371 548,371 549,371 550,371 551,371 552,370 553,370 553,370 554,370 555,370 556,369 557,369 558,369 559,369 560,369 561,368 561,368 562,368 563,368 564,368 565,368 566,367 567,367 568,367 569,367 570,367 570,366 571,366 572,366 573,366 574,366 575,366 576,365 577,365 578,365 579,365 579,365 580,364 581,364 582,364 583,364 584,364 585,364 586,363 587,363 587,363 588,363 589,363 590,362 591,362 592,362 593,362 594,362 595,362 596,361 596,361 597,361 598,361 599,361 600,361 601,360 602,360 603,360 604,360 604,360 605,359 606,359 607,359 608,359 609,359 610,359 611,358 612,358 613,358 613,358 614,358 615,358 616,357 617,357 618,357 619,357 620,357 621,357 621,356 622,356 623,356 624,356 625,356 626,356 627,355 628,293 629,293 630,292 630,292 631,292 632,292 633,291 634,291 635,291 636,290 637,290 638,290 638,289 639,289 640,289 641,289 642,289 643,289 644,288 645,288 646,288 647,287 647,287 648,287 649,286 650,286 651,286 652,286 653,286 654,285 655,285 655,285 656,285 657,284 658,284 659,284 660,283 661,283 662,283 663,283 664,283 664,282 665,282 666,282 667,282 668,281 669,281 670,280 671,280 672,280 672,280 673,280 674,280 675,280 676,279 677,279 678,278 679,278 680,278 681,278 681,277 682,277 683,277 684,277 685,277 686,276 687,276 688,275 689,275 689,275 690,275 691,275 692,274 693,274 694,274 695,273 696,273 697,273 698,273 698,272 699,272 700,272 701,272 702,272 703,271 704,271 705,271 706,271 706,270 707,270 708,270 709,269 710,269 711,269 712,269 713,269 714,268 715,268 715,268 716,267 717,267 718,267 719,267 720,266 721,266 722,266 723,266 723,265 724,265 725,264 726,264 727,264 728,264 729,264 730,264 731,263 732,263 732,263 733,262 734,262 735,262 736,262 737,262 738,261 739,261 740,261 740,261 741,260 742,260 743,259 744,259 745,259 746,259 747,259 748,259 749,258 749,258 750,258 751,257 752,257 753,257 754,256 755,256 756,256 757,256 758,256 758,256 759,256 760,255 761,255 762,255 763,254 764,254 765,254 766,254 766,253 767,253 768,253 769,253 770,253 771,252 772,252 773,252 774,252 775,251 775,251 776,251 777,251 778,250 779,250 780,250 781,250 782,250 783,249 783,249 784,248 785,248 786,248 787,248 788,247 789,247 790,247 791,246 792,246 792,246 793,245 794,245 795,245 796,245 797,245 798,244 799,244 800,244 800,243 801,243 802,243 803,243 804,242 805,242 806,242 807,242 808,242 809,241 809,241 810,241 811,240 812,240 813,240 814,240 815,240 816,240 817,240 817,239 818,239 819,239 820,238 821,238 822,238 823,237 824,237 825,237 826,237 826,236 827,236 828,236 829,236 830,235 831,235 832,235 833,235 834,235 834,234 835,234 836,234 837,233 838,233 839,233 840,232 841,232 842,232 843,232 843,231 844,231 845,231 846,231 847,231 848,230 849,230 850,230 851,229 851,229 852,229 853,228 854,228 855,228 856,228 857,228 858,228 859,227 860,227 860,227 861,226 862,226 863,226 864,225 865,225 866,225 867,225 868,225 868,224 869,224 870,224 871,224 872,223 873,223 874,223 875,223 876,222 877,222 877,222 878,222 879,222 880,221 881,221 882,221 883,220 884,220 885,220 885,220 886,220 887,220 888,219 889,219 890,219 891,218 892,218 893,218 894,217 894,217 895,217 896,217 897,217 898,216 899,216 900,216 901,215 902,215 902,215 903,215 904,214 905,214 906,214 907,213 908,213 909,213 910,212 911,212 911,212 912,212 913,212 914,211 915,211 916,211 917,210 918,210 919,210 919,210 920,209 921,209 922,209 923,117 924,117 925,117 926,117 927,116 928,116 928,116 929,116 930,115 931,115 932,115 933,114 934,114 935,114 936,114 936,113 937,113 938,113 939,113 940,113 941,112 942,112 943,112 944,111 945,111 945,111 946,111 947,110 948,110 949,109 950,109 951,109 952,109 953,109 954,108 954,108 955,108 956,107 957,107 958,107 959,107 960,106 961,106 962,106 962,105 963,105 964,104 965,104 966,104 967,103 968,103 969,102 970,102 971,101 971,101 972,101 972,101 973,101 973,699 78,699 "/>
<polyline fill="none" opacity="1" stroke="#E6194B" stroke-width="1" points="78,629 79,629 80,629 81,628 82,628 83,628 84,627 84,627 85,627 86,627 87,627 88,627 89,626 90,626 91,626 92,626 93,626 93,625 94,625 95,625 96,625 97,625 98,625 99,625 100,624 101,624 101,624 102,624 103,624 104,624 105,623 106,623 107,623 108,623 109,622 110,622 110,622 111,622 112,622 113,621 114,621 115,621 116,621 117,621 118,621 118,620 119,620 120,620 121,620 122,620 123,620 124,619 125,619 126,619 127,619 127,619 128,619 129,619 130,618 131,618 132,618 133,618 134,618 135,618 135,617 136,617 137,617 138,617 139,617 140,617 141,616 142,616 143,616 144,616 144,616 145,616 146,615 147,615 148,615 149,614 150,614 151,614 152,614 152,614 153,614 154,613 155,613 156,613 157,613 158,613 159,613 160,612 161,612 161,612 162,612 163,612 164,612 165,612 166,611 167,611 168,611 169,611 169,611 170,611 171,610 172,610 173,610 174,610 175,610 176,610 177,610 178,609 178,609 179,609 180,609 181,609 182,609 183,609 184,608 185,608 186,608 186,607 187,607 188,607 189,607 190,607 191,607 192,606 193,606 194,606 195,606 195,606 196,606 197,605 198,605 199,605 200,605 201,605 202,605 203,604 204,604 204,604 205,604 206,604 207,604 208,604 209,603 210,603 211,603 212,603 212,603 213,603 214,602 215,602 216,602 217,602 218,602 219,602 220,601 221,601 221,601 222,601 223,601 224,601 225,586 226,585 227,582 228,576 229,569 229,560 230,551 231,538 232,528 233,514 234,499 235,486 236,469 237,444 238,430 238,430 239,430 240,430 241,430 242,429 243,429 244,429 245,429 246,429 246,429 247,428 248,428 249,428 250,428 251,428 252,427 253,427 254,427 255,427 255,427 256,426 257,426 258,426 259,426 260,426 261,426 262,426 263,425 263,425 264,425 265,425 266,425 267,424 268,424 269,424 270,424 271,424 272,424 272,424 273,423 274,423 275,423 276,423 277,423 278,422 279,422 280,422 280,422 281,422 282,422 283,421 284,421 285,421 286,421 287,421 288,421 289,420 289,420 290,420 291,420 292,420 293,420 294,419 295,419 296,419 297,419 297,419 298,419 299,418 300,418 301,418 302,418 303,418 304,418 305,417 306,417 306,417 307,417 308,417 309,417 310,416 311,416 312,416 313,416 314,416 314,415 315,415 316,415 317,415 318,415 319,415 320,414 321,414 322,414 323,414 323,414 324,414 325,413 326,413 327,413 328,413 329,413 330,413 331,412 331,412 332,412 333,412 334,412 335,412 336,412 337,411 338,411 339,411 340,411 340,410 341,410 342,410 343,410 344,410 345,410 346,409 347,409 348,409 348,409 349,409 350,409 351,408 352,408 353,408 354,408 355,408 356,408 357,408 357,407 358,407 359,407 360,407 361,407 362,407 363,406 364,406 365,406 365,406 366,406 367,405 368,405 369,405 370,405 371,405 372,405 373,404 374,404 374,404 375,404 376,404 377,404 378,403 379,403 380,403 381,403 382,403 382,403 383,402 384,402 385,402 386,402 387,402 388,402 389,401 390,401 391,401 391,401 392,401 393,401 394,400 395,400 396,400 397,400 398,400 399,400 400,399 400,399 401,399 402,399 403,399 404,399 405,398 406,398 407,398 408,398 408,398 409,398 410,397 411,397 412,397 413,397 414,397 415,396 416,396 417,396 417,395 418,395 419,395 420,395 421,395 422,395 423,394 424,394 425,394 425,394 426,394 427,394 428,394 429,393 430,393 431,393 432,393 433,393 434,393 434,392 435,392 436,392 437,392 438,392 439,391 440,391 441,391 442,391 442,391 443,391 444,390 445,390 446,390 447,390 448,390 449,390 450,389 451,389 451,389 452,389 453,389 454,389 455,388 456,388 457,388 458,388 459,388 459,388 460,387 461,387 462,387 463,387 464,387 465,387 466,386 467,386 468,386 468,386 469,386 470,386 471,386 472,385 473,385 474,385 475,385 476,385 476,384 477,384 478,384 479,384 480,384 481,384 482,384 483,383 484,383 485,383 485,383 486,383 487,383 488,382 489,382 490,382 491,382 492,382 493,382 493,381 494,381 495,381 496,381 497,381 498,381 499,380 500,380 501,380 502,380 502,380 503,379 504,379 505,379 506,379 507,379 508,379 509,379 510,378 510,378 511,378 512,378 513,378 514,377 515,377 516,377 517,377 518,377 519,377 519,377 520,376 521,376 522,376 523,376 524,376 525,375 526,375 527,375 527,375 528,375 529,374 530,374 531,374 532,374 533,374 534,374 535,374 536,373 536,373 537,373 538,373 539,373 540,373 541,372 542,372 543,372 544,372 544,372 545,372 546,371 547,371 548,371 549,371 550,371 551,371 552,370 553,370 553,370 554,370 555,370 556,369 557,369 558,369 559,369 560,369 561,368 561,368 562,368 563,368 564,368 565,368 566,367 567,367 568,367 569,367 570,367 570,366 571,366 572,366 573,366 574,366 575,366 576,365 577,365 578,365 579,365 579,365 580,364 581,364 582,364 583,364 584,364 585,364 586,363 587,363 587,363 588,363 589,363 590,362 591,362 592,362 593,362 594,362 595,362 596,361 596,361 597,361 598,361 599,361 600,361 601,360 602,360 603,360 604,360 604,360 605,359 606,359 607,359 608,359 609,359 610,359 611,358 612,358 613,358 613,358 614,358 615,358 616,357 617,357 618,357 619,357 620,357 621,357 621,356 622,356 623,356 624,356 625,356 626,356 627,355 628,293 629,293 630,292 630,292 631,292 632,292 633,291 634,291 635,291 636,290 637,290 638,290 638,289 639,289 640,289 641,289 642,289 643,289 644,288 645,288 646,288 647,287 647,287 648,287 649,286 650,286 651,286 652,286 653,286 654,285 655,285 655,285 656,285 657,284 658,284 659,284 660,283 661,283 662,283 663,283 664,283 664,282 665,282 666,282 667,282 668,281 669,281 670,280 671,280 672,280 672,280 673,280 674,280 675,280 676,279 677,279 678,278 679,278 680,278 681,278 681,277 682,277 683,277 684,277 685,277 686,276 687,276 688,275 689,275 689,275 690,275 691,275 692,274 693,274 694,274 695,273 696,273 697,273 698,273 698,272 699,272 700,272 701,272 702,272 703,271 704,271 705,271 706,271 706,270 707,270 708,270 709,269 710,269 711,269 712,269 713,269 714,268 715,268 715,268 716,267 717,267 718,267 719,267 720,266 721,266 722,266 723,266 723,265 724,265 725,264 726,264 727,264 728,264 729,264 730,264 731,263 732,263 732,263 733,262 734,262 735,262 736,262 737,262 738,261 739,261 740,261 740,261 741,260 742,260 743,259 744,259 745,259 746,259 747,259 748,259 749,258 749,258 750,258 751,257 752,257 753,257 754,256 755,256 756,256 757,256 758,256 758,256 759,256 760,255 761,255 762,255 763,254 764,254 765,254 766,254 766,253 767,253 768,253 769,253 770,253 771,252 772,252 773,252 774,252 775,251 775,251 776,251 777,251 778,250 779,250 780,250 781,250 782,250 783,249 783,249 784,248 785,248 786,248 787,248 788,247 789,247 790,247 791,246 792,246 792,246 793,245 794,245 795,245 796,245 797,245 798,244 799,244 800,244 800,243 801,243 802,243 803,243 804,242 805,242 806,242 807,242 808,242 809,241 809,241 810,241 811,240 812,240 813,240 814,240 815,240 816,240 817,240 817,239 818,239 819,239 820,238 821,238 822,238 823,237 824,237 825,237 826,237 826,236 827,236 828,236 829,236 830,235 831,235 832,235 833,235 834,235 834,234 835,234 836,234 837,233 838,233 839,233 840,232 841,232 842,232 843,232 843,231 844,231 845,231 846,231 847,231 848,230 849,230 850,230 851,229 851,229 852,229 853,228 854,228 855,228 856,228 857,228 858,228 859,227 860,227 860,227 861,226 862,226 863,226 864,225 865,225 866,225 867,225 868,225 868,224 869,224 870,224 871,224 872,223 873,223 874,223 875,223 876,222 877,222 877,222 878,222 879,222 880,221 881,221 882,221 883,220 884,220 885,220 885,220 886,220 887,220 888,219 889,219 890,219 891,218 892,218 893,218 894,217 894,217 895,217 896,217 897,217 898,216 899,216 900,216 901,215 902,215 902,215 903,215 904,214 905,214 906,214 907,213 908,213 909,213 910,212 911,212 911,212 912,212 913,212 914,211 915,211 916,211 917,210 918,210 919,210 919,210 920,209 921,209 922,209 923,117 924,117 925,117 926,117 927,116 928,116 928,116 929,116 930,115 931,115 932,115 933,114 934,114 935,114 936,114 936,113 937,113 938,113 939,113 940,113 941,112 942,112 943,112 944,111 945,111 945,111 946,111 947,110 948,110 949,109 950,109 951,109 952,109 953,109 954,108 954,108 955,108 956,107 957,107 958,107 959,107 960,106 961,106 962,106 962,105 963,105 964,104 965,104 966,104 967,103 968,103 969,102 970,102 971,101 971,101 972,101 972,101 973,101 "/>
<line opacity="0.1" stroke="#000000" stroke-width="1" x1="89" y1="699" x2="89" y2="68"/>
<line opacity="0.1" stroke="#000000" stroke-width="1" x1="101" y1="699" x2="101" y2="68"/>
<line opacity="0.1" stroke="#000000" stroke-width="1" x1="112" y1="699" x2="112" y2="68"/>
<line opacity="0.1" stroke="#000000" stroke-width="1" x1="124" y1="699" x2="124" y2="68"/>
<line opacity="0.1" stroke="#000000" stroke-width="1" x1="136" y1="699" x2="136" y2="68"/>
<line opacity="0.1" stroke="#000000" stroke-width="1" x1="148" y1="699" x2="148" y2="68"/>
<line opacity="0.1" stroke="#000000" stroke-width="1" x1="160" y1="699" x2="160" y2="68"/>
<line opacity="0.1" stroke="#000000" stroke-width="1" x1="172" y1="699" x2="172" y2="68"/>
<line opacity="0.1" stroke="#000000" stroke-width="1" x1="184" y1="699" x2="184" y2="68"/>
<line opacity="0.1" stroke="#000000" stroke-width="1" x1="195" y1="699" x2="195" y2="68"/>
<line opacity="0.1" stroke="#000000" stroke-width="1" x1="207" y1="699" x2="207" y2="68"/>
<line opacity="0.1" stroke="#000000" stroke-width="1" x1="219" y1="699" x2="219" y2="68"/>
<line opacity="0.1" stroke="#000000" stroke-width="1" x1="231" y1="699" x2="231" y2="68"/>
<line opacity="0.1" stroke="#000000" stroke-width="1" x1="243" y1="699" x2="243" y2="68"/>
<line opacity="0.1" stroke="#000000" stroke-width="1" x1="255" y1="699" x2="255" y2="68"/>
<line opacity="0.1" stroke="#000000" stroke-width="1" x1="267" y1="699" x2="267" y2="68"/>
<line opacity="0.1" stroke="#000000" stroke-width="1" x1="278" y1="699" x2="278" y2="68"/>
<line opacity="0.1" stroke="#000000" stroke-width="1" x1="290" y1="699" x2="290" y2="68"/>
<line opacity="0.1" stroke="#000000" stroke-width="1" x1="302" y1="699" x2="302" y2="68"/>
<line opacity="0.1" stroke="#000000" stroke-width="1" x1="314" y1="699" x2="314" y2="68"/>
<line opacity="0.1" stroke="#000000" stroke-width="1" x1="326" y1="699" x2="326" y2="68"/>
<line opacity="0.1" stroke="#000000" stroke-width="1" x1="338" y1="699" x2="338" y2="68"/>
<line opacity="0.1" stroke="#000000" stroke-width="1" x1="350" y1="699" x2="350" y2="68"/>
<line opacity="0.1" stroke="#000000" stroke-width="1" x1="361" y1="699" x2="361" y2="68"/>
<line opacity="0.1" stroke="#000000" stroke-width="1" x1="373" y1="699" x2="373" y2="68"/>
<line opacity="0.1" stroke="#000000" stroke-width="1" x1="385" y1="699" x2="385" y2="68"/>
<line opacity="0.1" stroke="#000000" stroke-width="1" x1="397" y1="699" x2="397" y2="68"/>
<line opacity="0.1" stroke="#000000" stroke-width="1" x1="409" y1="699" x2="409" y2="68"/>
<line opacity="0.1" stroke="#000000" stroke-width="1" x1="421" y1="699" x2="421" y2="68"/>
<line opacity="0.1" stroke="#000000" stroke-width="1" x1="433" y1="699" x2="433" y2="68"/>
<line opacity="0.1" stroke="#000000" stroke-width="1" x1="444" y1="699" x2="444" y2="68"/>
<line opacity="0.1" stroke="#000000" stroke-width="1" x1="456" y1="699" x2="456" y2="68"/>
<line opacity="0.1" stroke="#000000" stroke-width="1" x1="468" y1="699" x2="468" y2="68"/>
<line opacity="0.1" stroke="#000000" stroke-width="1" x1="480" y1="699" x2="480" y2="68"/>
<line opacity="0.1" stroke="#000000" stroke-width="1" x1="492" y1="699" x2="492" y2="68"/>
<line opacity="0.1" stroke="#000000" stroke-width="1" x1="504" y1="699" x2="504" y2="68"/>
<line opacity="0.1" stroke="#000000" stroke-width="1" x1="516" y1="699" x2="516" y2="68"/>
<line opacity="0.1" stroke="#000000" stroke-width="1" x1="527" y1="699" x2="527" y2="68"/>
<line opacity="0.1" stroke="#000000" stroke-width="1" x1="539" y1="699" x2="539" y2="68"/>
<line opacity="0.1" stroke="#000000" stroke-width="1" x1="551" y1="699" x2="551" y2="68"/>
<line opacity="0.1" stroke="#000000" stroke-width="1" x1="563" y1="699" x2="563" y2="68"/>
<line opacity="0.1" stroke="#000000" stroke-width="1" x1="575" y1="699" x2="575" y2="68"/>
<line opacity="0.1" stroke="#000000" stroke-width="1" x1="587" y1="699" x2="587" y2="68"/>
<line opacity="0.1" stroke="#000000" stroke-width="1" x1="599" y1="699" x2="599" y2="68"/>
<line opacity="0.1" stroke="#000000" stroke-width="1" x1="610" y1="699" x2="610" y2="68"/>
<line opacity="0.1" stroke="#000000" stroke-width="1" x1="622" y1="699" x2="622" y2="68"/>
<line opacity="0.1" stroke="#000000" stroke-width="1" x1="634" y1="699" x2="634" y2="68"/>
<line opacity="0.1" stroke="#000000" stroke-width="1" x1="646" y1="699" x2="646" y2="68"/>
<line opacity="0.1" stroke="#000000" stroke-width="1" x1="658" y1="699" x2="658" y2="68"/>
<line opacity="0.1" stroke="#000000" stroke-width="1" x1="670" y1="699" x2="670" y2="68"/>
<line opacity="0.1" stroke="#000000" stroke-width="1" x1="682" y1="699" x2="682" y2="68"/>
<line opacity="0.1" stroke="#000000" stroke-width="1" x1="693" y1="699" x2="693" y2="68"/>
<line opacity="0.1" stroke="#000000" stroke-width="1" x1="705" y1="699" x2="705" y2="68"/>
<line opacity="0.1" stroke="#000000" stroke-width="1" x1="717" y1="699" x2="717" y2="68"/>
<line opacity="0.1" stroke="#000000" stroke-width="1" x1="729" y1="699" x2="729" y2="68"/>
<line opacity="0.1" stroke="#000000" stroke-width="1" x1="741" y1="699" x2="741" y2="68"/>
<line opacity="0.1" stroke="#000000" stroke-width="1" x1="753" y1="699" x2="753" y2="68"/>
<line opacity="0.1" stroke="#000000" stroke-width="1" x1="765" y1="699" x2="765" y2="68"/>
<line opacity="0.1" stroke="#000000" stroke-width="1" x1="776" y1="699" x2="776" y2="68"/>
<line opacity="0.1" stroke="#000000" stroke-width="1" x1="788" y1="699" x2="788" y2="68"/>
<line opacity="0.1" stroke="#000000" stroke-width="1" x1="800" y1="699" x2="800" y2="68"/>
<line opacity="0.1" stroke="#000000" stroke-width="1" x1="812" y1="699" x2="812" y2="68"/>
<line opacity="0.1" stroke="#000000" stroke-width="1" x1="824" y1="699" x2="824" y2="68"/>
<line opacity="0.1" stroke="#000000" stroke-width="1" x1="836" y1="699" x2="836" y2="68"/>
<line opacity="0.1" stroke="#000000" stroke-width="1" x1="848" y1="699" x2="848" y2="68"/>
<line opacity="0.1" stroke="#000000" stroke-width="1" x1="859" y1="699" x2="859" y2="68"/>
<line opacity="0.1" stroke="#000000" stroke-width="1" x1="871" y1="699" x2="871" y2="68"/>
<line opacity="0.1" stroke="#000000" stroke-width="1" x1="883" y1="699" x2="883" y2="68"/>
<line opacity="0.1" stroke="#000000" stroke-width="1" x1="895" y1="699" x2="895" y2="68"/>
<line opacity="0.1" stroke="#000000" stroke-width="1" x1="907" y1="699" x2="907" y2="68"/>
<line opacity="0.1" stroke="#000000" stroke-width="1" x1="919" y1="699" x2="919" y2="68"/>
<line opacity="0.1" stroke="#000000" stroke-width="1" x1="931" y1="699" x2="931" y2="68"/>
<line opacity="0.1" stroke="#000000" stroke-width="1" x1="942" y1="699" x2="942" y2="68"/>
<line opacity="0.1" stroke="#000000" stroke-width="1" x1="954" y1="699" x2="954" y2="68"/>
<line opacity="0.1" stroke="#000000" stroke-width="1" x1="966" y1="699" x2="966" y2="68"/>
<line opacity="0.1" stroke="#000000" stroke-width="1" x1="78" y1="699" x2="973" y2="699"/>
<line opacity="0.1" stroke="#000000" stroke-width="1" x1="78" y1="689" x2="973" y2="689"/>
<line opacity="0.1" stroke="#000000" stroke-width="1" x1="78" y1="679" x2="973" y2="679"/>
<line opacity="0.1" stroke="#000000" stroke-width="1" x1="78" y1="669" x2="973" y2="669"/>
<line opacity="0.1" stroke="#000000" stroke-width="1" x1="78" y1="659" x2="973" y2="659"/>
<line opacity="0.1" stroke="#000000" stroke-width="1" x1="78" y1="649" x2="973" y2="649"/>
<line opacity="0.1" stroke="#000000" stroke-width="1" x1="78" y1="639" x2="973" y2="639"/>
<line opacity="0.1" stroke="#000000" stroke-width="1" x1="78" y1="630" x2="973" y2="630"/>
<line opacity="0.1" stroke="#000000" stroke-width="1" x1="78" y1="620" x2="973" y2="620"/>
<line opacity="0.1" stroke="#000000" stroke-width="1" x1="78" y1="610" x2="973" y2="610"/>
<line opacity="0.1" stroke="#000000" stroke-width="1" x1="78" y1="600" x2="973" y2="600"/>
<line opacity="0.1" stroke="#000000" stroke-width="1" x1="78" y1="590" x2="973" y2="590"/>
<line opacity="0.1" stroke="#000000" stroke-width="1" x1="78" y1="580" x2="973" y2="580"/>
<line opacity="0.1" stroke="#000000" stroke-width="1" x1="78" y1="570" x2="973" y2="570"/>
<line opacity="0.1" stroke="#000000" stroke-width="1" x1="78" y1="561" x2="973" y2="561"/>
<line opacity="0.1" stroke="#000000" stroke-width="1" x1="78" y1="551" x2="973" y2="551"/>
<line opacity="0.1" stroke="#000000" stroke-width="1" x1="78" y1="541" x2="973" y2="541"/>
<line opacity="0.1" stroke="#000000" stroke-width="1" x1="78" y1="531" x2="973" y2="531"/>
<line opacity="0.1" stroke="#000000" stroke-width="1" x1="78" y1="521" x2="973" y2="521"/>
<line opacity="0.1" stroke="#000000" stroke-width="1" x1="78" y1="511" x2="973" y2="511"/>
<line opacity="0.1" stroke="#000000" stroke-width="1" x1="78" y1="501" x2="973" y2="501"/>
<line opacity="0.1" stroke="#000000" stroke-width="1" x1="78" y1="492" x2="973" y2="492"/>
<line opacity="0.1" stroke="#000000" stroke-width="1" x1="78" y1="482" x2="973" y2="482"/>
<line opacity="0.1" stroke="#000000" stroke-width="1" x1="78" y1="472" x2="973" y2="472"/>
<line opacity="0.1" stroke="#000000" stroke-width="1" x1="78" y1="462" x2="973" y2="462"/>
<line opacity="0.1" stroke="#000000" stroke-width="1" x1="78" y1="452" x2="973" y2="452"/>
<line opacity="0.1" stroke="#000000" stroke-width="1" x1="78" y1="442" x2="973" y2="442"/>
<line opacity="0.1" stroke="#000000" stroke-width="1" x1="78" y1="432" x2="973" y2="432"/>
<line opacity="0.1" stroke="#000000" stroke-width="1" x1="78" y1="423" x2="973" y2="423"/>
<line opacity="0.1" stroke="#000000" stroke-width="1" x1="78" y1="413" x2="973" y2="413"/>
<line opacity="0.1" stroke="#000000" stroke-width="1" x1="78" y1="403" x2="973" y2="403"/>
<line opacity="0.1" stroke="#000000" stroke-width="1" x1="78" y1="393" x2="973" y2="393"/>
<line opacity="0.1" stroke="#000000" stroke-width="1" x1="78" y1="383" x2="973" y2="383"/>
<line opacity="0.1" stroke="#000000" stroke-width="1" x1="78" y1="373" x2="973" y2="373"/>
<line opacity="0.1" stroke="#000000" stroke-width="1" x1="78" y1="363" x2="973" y2="363"/>
<line opacity="0.1" stroke="#000000" stroke-width="1" x1="78" y1="354" x2="973" y2="354"/>
<line opacity="0.1" stroke="#000000" stroke-width="1" x1="78" y1="344" x2="973" y2="344"/>
<line opacity="0.1" stroke="#000000" stroke-width="1" x1="78" y1="334" x2="973" y2="334"/>
<line opacity="0.1" stroke="#000000" stroke-width="1" x1="78" y1="324" x2="973" y2="324"/>
<line opacity="0.1" stroke="#000000" stroke-width="1" x1="78" y1="314" x2="973" y2="314"/>
<line opacity="0.1" stroke="#000000" stroke-width="1" x1="78" y1="304" x2="973" y2="304"/>
<line opacity="0.1" stroke="#000000" stroke-width="1" x1="78" y1="294" x2="973" y2="294"/>
<line opacity="0.1" stroke="#000000" stroke-width="1" x1="78" y1="285" x2="973" y2="285"/>
<line opacity="0.1" stroke="#000000" stroke-width="1" x1="78" y1="275" x2="973" y2="275"/>
<line opacity="0.1" stroke="#000000" stroke-width="1" x1="78" y1="265" x2="973" y2="265"/>
<line opacity="0.1" stroke="#000000" stroke-width="1" x1="78" y1="255" x2="973" y2="255"/>
<line opacity="0.1" stroke="#000000" stroke-width="1" x1="78" y1="245" x2="973" y2="245"/>
<line opacity="0.1" stroke="#000000" stroke-width="1" x1="78" y1="235" x2="973" y2="235"/>
<line opacity="0.1" stroke="#000000" stroke-width="1" x1="78" y1="225" x2="973" y2="225"/>
<line opacity="0.1" stroke="#000000" stroke-width="1" x1="78" y1="216" x2="973" y2="216"/>
<line opacity="0.1" stroke="#000000" stroke-width="1" x1="78" y1="206" x2="973" y2="206"/>
<line opacity="0.1" stroke="#000000" stroke-width="1" x1="78" y1="196" x2="973" y2="196"/>
<line opacity="0.1" stroke="#000000" stroke-width="1" x1="78" y1="186" x2="973" y2="186"/>
<line opacity="0.1" stroke="#000000" stroke-width="1" x1="78" y1="176" x2="973" y2="176"/>
<line opacity="0.1" stroke="#000000" stroke-width="1" x1="78" y1="166" x2="973" y2="166"/>
<line opacity="0.1" stroke="#000000" stroke-width="1" x1="78" y1="156" x2="973" y2="156"/>
<line opacity="0.1" stroke="#000000" stroke-width="1" x1="78" y1="147" x2="973" y2="147"/>
<line opacity="0.1" stroke="#000000" stroke-width="1" x1="78" y1="137" x2="973" y2="137"/>
<line opacity="0.1" stroke="#000000" stroke-width="1" x1="78" y1="127" x2="973" y2="127"/>
<line opacity="0.1" stroke="#000000" stroke-width="1" x1="78" y1="117" x2="973" y2="117"/>
<line opacity="0.1" stroke="#000000" stroke-width="1" x1="78" y1="107" x2="973" y2="107"/>
<line opacity="0.1" stroke="#000000" stroke-width="1" x1="78" y1="97" x2="973" y2="97"/>
<line opacity="0.1" stroke="#000000" stroke-width="1" x1="78" y1="87" x2="973" y2="87"/>
<line opacity="0.1" stroke="#000000" stroke-width="1" x1="78" y1="78" x2="973" y2="78"/>
<line opacity="0.1" stroke="#000000" stroke-width="1" x1="78" y1="68" x2="973" y2="68"/>
<text x="8" y="384" dy="0.76em" text-anchor="middle" font-family="sans-serif" font-size="9.67741935483871" opacity="1" fill="#000000" transform="rotate(270, 8, 384)">
Memory usage
</text>
<text x="526" y="760" dy="-0.5ex" text-anchor="middle" font-family="sans-serif" font-size="9.67741935483871" opacity="1" fill="#000000">
Time
</text>
<line opacity="0.2" stroke="#000000" stroke-width="1" x1="112" y1="699" x2="112" y2="68"/>
<line opacity="0.2" stroke="#000000" stroke-width="1" x1="231" y1="699" x2="231" y2="68"/>
<line opacity="0.2" stroke="#000000" stroke-width="1" x1="350" y1="699" x2="350" y2="68"/>
<line opacity="0.2" stroke="#000000" stroke-width="1" x1="468" y1="699" x2="468" y2="68"/>
<line opacity="0.2" stroke="#000000" stroke-width="1" x1="587" y1="699" x2="587" y2="68"/>
<line opacity="0.2" stroke="#000000" stroke-width="1" x1="705" y1="699" x2="705" y2="68"/>
<line opacity="0.2" stroke="#000000" stroke-width="1" x1="824" y1="699" x2="824" y2="68"/>
<line opacity="0.2" stroke="#000000" stroke-width="1" x1="942" y1="699" x2="942" y2="68"/>
<line opacity="0.2" stroke="#000000" stroke-width="1" x1="78" y1="699" x2="973" y2="699"/>
<line opacity="0.2" stroke="#000000" stroke-width="1" x1="78" y1="600" x2="973" y2="600"/>
<line opacity="0.2" stroke="#000000" stroke-width="1" x1="78" y1="501" x2="973" y2="501"/>
<line opacity="0.2" stroke="#000000" stroke-width="1" x1="78" y1="403" x2="973" y2="403"/>
<line opacity="0.2" stroke="#000000" stroke-width="1" x1="78" y1="304" x2="973" y2="304"/>
<line opacity="0.2" stroke="#000000" stroke-width="1" x1="78" y1="206" x2="973" y2="206"/>
<line opacity="0.2" stroke="#000000" stroke-width="1" x1="78" y1="107" x2="973" y2="107"/>
<polyline fill="none" opacity="1" stroke="#000000" stroke-width="1" points="77,68 77,699 "/>
<text x="68" y="699" dy="0.5ex" text-anchor="end" font-family="sans-serif" font-size="9.67741935483871" opacity="1" fill="#000000">
0 MB
</text>
<polyline fill="none" opacity="1" stroke="#000000" stroke-width="1" points="72,699 77,699 "/>
<text x="68" y="600" dy="0.5ex" text-anchor="end" font-family="sans-serif" font-size="9.67741935483871" opacity="1" fill="#000000">
190 MB
</text>
<polyline fill="none" opacity="1" stroke="#000000" stroke-width="1" points="72,600 77,600 "/>
<text x="68" y="501" dy="0.5ex" text-anchor="end" font-family="sans-serif" font-size="9.67741935483871" opacity="1" fill="#000000">
381 MB
</text>
<polyline fill="none" opacity="1" stroke="#000000" stroke-width="1" points="72,501 77,501 "/>
<text x="68" y="403" dy="0.5ex" text-anchor="end" font-family="sans-serif" font-size="9.67741935483871" opacity="1" fill="#000000">
572 MB
</text>
<polyline fill="none" opacity="1" stroke="#000000" stroke-width="1" points="72,403 77,403 "/>
<text x="68" y="304" dy="0.5ex" text-anchor="end" font-family="sans-serif" font-size="9.67741935483871" opacity="1" fill="#000000">
762 MB
</text>
<polyline fill="none" opacity="1" stroke="#000000" stroke-width="1" points="72,304 77,304 "/>
<text x="68" y="206" dy="0.5ex" text-anchor="end" font-family="sans-serif" font-size="9.67741935483871" opacity="1" fill="#000000">
953 MB
</text>
<polyline fill="none" opacity="1" stroke="#000000" stroke-width="1" points="72,206 77,206 "/>
<text x="68" y="107" dy="0.5ex" text-anchor="end" font-family="sans-serif" font-size="9.67741935483871" opacity="1" fill="#000000">
1144 MB
</text>
<polyline fill="none" opacity="1" stroke="#000000" stroke-width="1" points="72,107 77,107 "/>
<polyline fill="none" opacity="1" stroke="#000000" stroke-width="1" points="78,700 973,700 "/>
<text x="112" y="710" dy="0.76em" text-anchor="middle" font-family="sans-serif" font-size="9.67741935483871" opacity="1" fill="#000000">
07 17:46:40
</text>
<polyline fill="none" opacity="1" stroke="#000000" stroke-width="1" points="112,700 112,705 "/>
<text x="231" y="710" dy="0.76em" text-anchor="middle" font-family="sans-serif" font-size="9.67741935483871" opacity="1" fill="#000000">
07 20:33:20
</text>
<polyline fill="none" opacity="1" stroke="#000000" stroke-width="1" points="231,700 231,705 "/>
<text x="350" y="710" dy="0.76em" text-anchor="middle" font-family="sans-serif" font-size="9.67741935483871" opacity="1" fill="#000000">
07 23:20:00
</text>
<polyline fill="none" opacity="1" stroke="#000000" stroke-width="1" points="350,700 350,705 "/>
<text x="468" y="710" dy="0.76em" text-anchor="middle" font-family="sans-serif" font-size="9.67741935483871" opacity="1" fill="#000000">
08 02:06:40
</text>
<polyline fill="none" opacity="1" stroke="#000000" stroke-width="1" points="468,700 468,705 "/>
<text x="587" y="710" dy="0.76em" text-anchor="middle" font-family="sans-serif" font-size="9.67741935483871" opacity="1" fill="#000000">
08 04:53:20
</text>
<polyline fill="none" opacity="1" stroke="#000000" stroke-width="1" points="587,700 587,705 "/>
<text x="705" y="710" dy="0.76em" text-anchor="middle" font-family="sans-serif" font-size="9.67741935483871" opacity="1" fill="#000000">
08 07:40:00
</text>
<polyline fill="none" opacity="1" stroke="#000000" stroke-width="1" points="705,700 705,705 "/>
<text x="824" y="710" dy="0.76em" text-anchor="middle" font-family="sans-serif" font-size="9.67741935483871" opacity="1" fill="#000000">
08 10:26:40
</text>
<polyline fill="none" opacity="1" stroke="#000000" stroke-width="1" points="824,700 824,705 "/>
<text x="942" y="710" dy="0.76em" text-anchor="middle" font-family="sans-serif" font-size="9.67741935483871" opacity="1" fill="#000000">
08 13:13:20
</text>
<polyline fill="none" opacity="1" stroke="#000000" stroke-width="1" points="942,700 942,705 "/>
<polyline fill="none" opacity="1" stroke="#000000" stroke-width="1" points="78,67 974,67 "/>
<text x="112" y="58" dy="-0.5ex" text-anchor="middle" font-family="sans-serif" font-size="9.67741935483871" opacity="1" fill="#000000">
+00:49:04
</text>
<polyline fill="none" opacity="1" stroke="#000000" stroke-width="1" points="112,62 112,67 "/>
<text x="231" y="58" dy="-0.5ex" text-anchor="middle" font-family="sans-serif" font-size="9.67741935483871" opacity="1" fill="#000000">
+03:35:44
</text>
<polyline fill="none" opacity="1" stroke="#000000" stroke-width="1" points="231,62 231,67 "/>
<text x="350" y="58" dy="-0.5ex" text-anchor="middle" font-family="sans-serif" font-size="9.67741935483871" opacity="1" fill="#000000">
+06:22:24
</text>
<polyline fill="none" opacity="1" stroke="#000000" stroke-width="1" points="350,62 350,67 "/>
<text x="469" y="58" dy="-0.5ex" text-anchor="middle" font-family="sans-serif" font-size="9.67741935483871" opacity="1" fill="#000000">
+09:09:04
</text>
<polyline fill="none" opacity="1" stroke="#000000" stroke-width="1" points="469,62 469,67 "/>
<text x="587" y="58" dy="-0.5ex" text-anchor="middle" font-family="sans-serif" font-size="9.67741935483871" opacity="1" fill="#000000">
+11:55:44
</text>
<polyline fill="none" opacity="1" stroke="#000000" stroke-width="1" points="587,62 587,67 "/>
<text x="706" y="58" dy="-0.5ex" text-anchor="middle" font-family="sans-serif" font-size="9.67741935483871" opacity="1" fill="#000000">
+14:42:24
</text>
<polyline fill="none" opacity="1" stroke="#000000" stroke-width="1" points="706,62 706,67 "/>
<text x="825" y="58" dy="-0.5ex" text-anchor="middle" font-family="sans-serif" font-size="9.67741935483871" opacity="1" fill="#000000">
+17:29:04
</text>
<polyline fill="none" opacity="1" stroke="#000000" stroke-width="1" points="825,62 825,67 "/>
<text x="943" y="58" dy="-0.5ex" text-anchor="middle" font-family="sans-serif" font-size="9.67741935483871" opacity="1" fill="#000000">
+20:15:44
</text>
<polyline fill="none" opacity="1" stroke="#000000" stroke-width="1" points="943,62 943,67 "/>
<rect x="83" y="73" width="99" height="45" opacity="0.75" fill="#FFFFFF" stroke="none"/>
<rect x="83" y="73" width="99" height="45" opacity="1" fill="none" stroke="#000000"/>
<text x="123" y="83" dy="0.76em" text-anchor="start" font-family="sans-serif" font-size="9.67741935483871" opacity="1" fill="#000000">
Temporary
</text>
<text x="123" y="98" dy="0.76em" text-anchor="start" font-family="sans-serif" font-size="9.67741935483871" opacity="1" fill="#000000">
Leaked
</text>
<rect x="93" y="83" width="10" height="10" opacity="1" fill="#3CB44B" stroke="none"/>
<rect x="93" y="98" width="10" height="10" opacity="1" fill="#E6194B" stroke="none"/>
</svg>
