<svg width="1024" height="768" viewBox="0 0 1024 768" xmlns="http://www.w3.org/2000/svg">
<rect x="0" y="0" width="1024" height="768" opacity="1" fill="#FFFFFF" stroke="none"/>
<polygon opacity="1" fill="#3CB44B" points="973,699 973,699 973,699 "/>
<polyline fill="none" opacity="1" stroke="#3CB44B" stroke-width="1" points="973,699 "/>
<polygon opacity="1" fill="#E6194B" points="78,697 79,697 80,696 81,696 82,695 82,694 83,694 84,693 85,692 86,692 87,691 88,691 89,690 90,689 90,689 91,688 92,688 93,687 94,686 95,686 96,685 97,685 98,684 99,683 99,683 100,682 101,681 102,681 103,680 104,680 105,679 106,678 107,678 107,677 108,676 109,676 110,675 111,675 112,674 113,673 114,673 115,672 116,671 116,671 117,670 118,670 119,669 120,668 121,667 122,667 123,666 124,666 124,665 125,664 126,664 127,663 128,662 129,662 130,661 131,661 132,660 133,659 133,659 134,658 135,657 136,657 137,656 138,655 139,655 140,654 141,654 141,653 142,652 143,652 144,651 145,650 146,650 147,649 148,648 149,648 150,647 150,647 151,646 152,645 153,645 154,644 155,643 156,643 157,642 158,641 158,641 159,640 160,640 161,639 162,638 163,638 164,637 165,636 166,636 166,635 167,635 168,634 169,633 170,633 171,632 172,632 173,631 174,630 175,630 175,629 176,629 177,628 178,627 179,627 180,626 181,626 182,625 183,624 183,624 184,623 185,622 186,622 187,621 188,621 189,620 190,619 191,619 192,618 192,618 193,617 194,616 195,616 196,615 197,614 198,614 199,613 200,612 200,612 201,611 202,610 203,610 204,609 205,609 206,608 207,607 208,607 209,606 209,605 210,605 211,604 212,604 213,603 214,602 215,602 216,601 217,600 217,600 218,599 219,599 220,598 221,597 222,597 223,596 224,595 225,595 226,594 226,593 227,593 228,592 229,591 230,591 231,590 232,590 233,589 234,588 234,588 235,587 236,586 237,586 238,585 239,584 240,584 241,583 242,583 242,582 243,581 244,581 245,580 246,580 247,579 248,578 249,578 250,577 251,576 251,575 252,575 253,574 254,574 255,573 256,572 257,572 258,571 259,570 259,570 260,569 261,568 262,568 263,567 264,567 265,566 266,565 267,565 268,564 268,563 269,563 270,562 271,561 272,561 273,560 274,560 275,559 276,558 276,558 277,557 278,556 279,556 280,555 281,555 282,554 283,553 284,552 285,552 285,551 286,550 287,550 288,549 289,549 290,548 291,548 292,547 293,546 293,546 294,545 295,544 296,544 297,543 298,542 299,542 300,541 301,540 302,540 302,539 303,539 304,538 305,537 306,537 307,536 308,535 309,535 310,534 310,533 311,533 312,532 313,531 314,531 315,530 316,529 317,529 318,528 318,528 319,527 320,526 321,526 322,525 323,524 324,524 325,523 326,522 327,522 327,521 328,521 329,520 330,519 331,519 332,518 333,518 334,517 335,516 335,516 336,515 337,514 338,514 339,513 340,512 341,512 342,511 343,510 344,510 344,509 345,509 346,508 347,507 348,507 349,506 350,505 351,505 352,504 352,504 353,503 354,502 355,502 356,501 357,500 358,500 359,499 360,498 361,498 361,497 362,496 363,496 364,495 365,495 366,494 367,493 368,493 369,492 369,491 370,491 371,490 372,489 373,489 374,488 375,488 376,487 377,486 378,486 378,485 379,484 380,483 381,482 382,482 383,481 384,480 385,480 386,479 386,479 387,478 388,477 389,477 390,476 391,475 392,474 393,474 394,473 394,472 395,472 396,471 397,470 398,470 399,469 400,468 401,468 402,467 403,467 403,466 404,465 405,465 406,464 407,463 408,463 409,462 410,461 411,461 411,460 412,460 413,459 414,459 415,458 416,457 417,457 418,456 419,455 420,455 420,454 421,453 422,452 423,451 424,451 425,450 426,450 427,449 428,448 428,448 429,447 430,446 431,446 432,445 433,445 434,444 435,443 436,443 437,442 437,441 438,440 439,439 440,439 441,438 442,437 443,437 444,436 445,435 445,435 446,434 447,434 448,433 449,432 450,432 451,431 452,430 453,430 453,429 454,429 455,428 456,427 457,427 458,426 459,425 460,425 461,424 462,423 462,423 463,422 464,422 465,421 466,420 467,419 468,419 469,418 470,418 470,417 471,416 472,416 473,415 474,415 475,414 476,413 477,413 478,412 479,411 479,411 480,410 481,410 482,409 483,408 484,407 485,407 486,406 487,405 487,405 488,404 489,404 490,403 491,403 492,402 493,401 494,401 495,400 496,399 496,399 497,398 498,397 499,397 500,396 501,395 502,395 503,394 504,394 504,393 505,392 506,392 507,391 508,391 509,390 510,389 511,389 512,388 513,387 513,387 514,386 515,385 516,385 517,384 518,384 519,383 520,382 521,382 521,381 522,380 523,380 524,379 525,378 526,378 527,377 528,376 529,376 529,375 530,375 531,374 532,373 533,373 534,372 535,371 536,371 537,370 538,369 538,369 539,368 540,367 541,367 542,366 543,365 544,365 545,364 546,364 546,363 547,362 548,362 549,361 550,360 551,360 552,359 553,358 554,358 555,357 555,357 556,356 557,355 558,355 559,354 560,353 561,353 562,352 563,351 563,351 564,350 565,350 566,349 567,348 568,348 569,347 570,346 571,346 572,345 572,344 573,344 574,343 575,342 576,342 577,341 578,340 579,340 580,339 580,338 581,337 582,337 583,336 584,336 585,335 586,334 587,334 588,333 589,332 589,332 590,331 591,331 592,330 593,329 594,329 595,328 596,328 597,327 597,326 598,326 599,325 600,324 601,324 602,323 603,323 604,322 605,321 605,321 606,320 607,320 608,319 609,318 610,318 611,317 612,316 613,316 614,315 614,314 615,314 616,313 617,313 618,312 619,311 620,311 621,310 622,309 622,309 623,308 624,307 625,307 626,306 627,305 628,305 629,304 630,304 631,303 631,302 632,301 633,301 634,300 635,299 636,299 637,298 638,298 639,297 639,296 640,296 641,295 642,295 643,294 644,293 645,293 646,292 647,291 648,291 648,290 649,289 650,289 651,288 652,287 653,287 654,286 655,285 656,285 656,284 657,284 658,283 659,282 660,282 661,281 662,280 663,280 664,279 665,279 665,278 666,277 667,277 668,276 669,275 670,275 671,274 672,273 673,273 673,272 674,272 675,271 676,270 677,270 678,269 679,269 680,268 681,267 681,267 682,266 683,265 684,265 685,264 686,263 687,263 688,262 689,262 690,261 690,260 691,260 692,259 693,258 694,258 695,257 696,257 697,256 698,255 698,255 699,254 700,253 701,253 702,252 703,252 704,251 705,251 706,250 707,250 707,249 708,248 709,247 710,247 711,246 712,246 713,245 714,244 715,244 715,243 716,243 717,242 718,241 719,241 720,240 721,240 722,239 723,238 724,238 724,237 725,236 726,236 727,235 728,234 729,234 730,233 731,232 732,232 732,231 733,231 734,230 735,229 736,229 737,228 738,227 739,227 740,226 741,225 741,225 742,224 743,224 744,223 745,222 746,222 747,221 748,220 749,220 749,219 750,218 751,218 752,217 753,216 754,216 755,215 756,215 757,214 757,213 758,213 759,212 760,212 761,211 762,210 763,210 764,209 765,209 766,208 766,207 767,207 768,206 769,206 770,205 771,204 772,204 773,203 774,203 774,202 775,201 776,201 777,200 778,199 779,199 780,198 781,197 782,197 783,196 783,195 784,195 785,194 786,194 787,193 788,192 789,192 790,191 791,190 791,190 792,189 793,188 794,188 795,187 796,186 797,186 798,185 799,184 800,184 800,183 801,183 802,182 803,181 804,181 805,180 806,180 807,179 808,178 808,178 809,177 810,176 811,176 812,175 813,175 814,174 815,174 816,173 817,172 817,172 818,171 819,171 820,170 821,169 822,169 823,168 824,167 825,167 825,166 826,165 827,165 828,164 829,164 830,163 831,163 832,162 833,161 833,161 834,160 835,159 836,159 837,158 838,158 839,157 840,157 841,156 842,155 842,155 843,154 844,154 845,153 846,153 847,152 848,151 849,151 850,150 850,150 851,149 852,148 853,148 854,147 855,147 856,146 857,145 858,145 859,144 859,144 860,143 861,142 862,142 863,141 864,140 865,140 866,139 867,139 867,138 868,137 869,137 870,136 871,136 872,135 873,135 874,134 875,133 876,133 876,132 877,131 878,131 879,130 880,130 881,129 882,128 883,128 884,127 884,127 885,126 886,125 887,125 888,124 889,124 890,123 891,122 892,122 893,121 893,121 894,120 895,119 896,119 897,118 898,118 899,117 900,116 901,116 901,115 902,114 903,114 904,113 905,113 906,112 907,111 908,111 909,110 909,109 910,109 911,108 912,107 913,107 914,106 915,106 916,105 917,104 918,104 918,103 919,102 920,102 921,101 922,101 923,100 924,100 925,99 926,98 926,98 927,97 928,96 929,96 930,95 931,95 932,94 933,94 934,93 935,92 935,92 936,91 937,91 938,90 939,89 940,89 941,88 942,87 943,87 943,86 944,86 945,85 946,84 947,84 948,83 949,82 950,82 951,81 952,81 952,80 953,80 954,79 955,78 956,78 957,77 958,76 959,76 960,75 960,74 961,74 962,73 963,73 964,72 965,71 966,71 967,70 968,70 969,69 969,68 970,68 971,68 971,68 973,68 973,699 78,699 "/>
<polyline fill="none" opacity="1" stroke="#E6194B" stroke-width="1" points="78,697 79,697 80,696 81,696 82,695 82,694 83,694 84,693 85,692 86,692 87,691 88,691 89,690 90,689 90,689 91,688 92,688 93,687 94,686 95,686 96,685 97,685 98,684 99,683 99,683 100,682 101,681 102,681 103,680 104,680 105,679 106,678 107,678 107,677 108,676 109,676 110,675 111,675 112,674 113,673 114,673 115,672 116,671 116,671 117,670 118,670 119,669 120,668 121,667 122,667 123,666 124,666 124,665 125,664 126,664 127,663 128,662 129,662 130,661 131,661 132,660 133,659 133,659 134,658 135,657 136,657 137,656 138,655 139,655 140,654 141,654 141,653 142,652 143,652 144,651 145,650 146,650 147,649 148,648 149,648 150,647 150,647 151,646 152,645 153,645 154,644 155,643 156,643 157,642 158,641 158,641 159,640 160,640 161,639 162,638 163,638 164,637 165,636 166,636 166,635 167,635 168,634 169,633 170,633 171,632 172,632 173,631 174,630 175,630 175,629 176,629 177,628 178,627 179,627 180,626 181,626 182,625 183,624 183,624 184,623 185,622 186,622 187,621 188,621 189,620 190,619 191,619 192,618 192,618 193,617 194,616 195,616 196,615 197,614 198,614 199,613 200,612 200,612 201,611 202,610 203,610 204,609 205,609 206,608 207,607 208,607 209,606 209,605 210,605 211,604 212,604 213,603 214,602 215,602 216,601 217,600 217,600 218,599 219,599 220,598 221,597 222,597 223,596 224,595 225,595 226,594 226,593 227,593 228,592 229,591 230,591 231,590 232,590 233,589 234,588 234,588 235,587 236,586 237,586 238,585 239,584 240,584 241,583 242,583 242,582 243,581 244,581 245,580 246,580 247,579 248,578 249,578 250,577 251,576 251,575 252,575 253,574 254,574 255,573 256,572 257,572 258,571 259,570 259,570 260,569 261,568 262,568 263,567 264,567 265,566 266,565 267,565 268,564 268,563 269,563 270,562 271,561 272,561 273,560 274,560 275,559 276,558 276,558 277,557 278,556 279,556 280,555 281,555 282,554 283,553 284,552 285,552 285,551 286,550 287,550 288,549 289,549 290,548 291,548 292,547 293,546 293,546 294,545 295,544 296,544 297,543 298,542 299,542 300,541 301,540 302,540 302,539 303,539 304,538 305,537 306,537 307,536 308,535 309,535 310,534 310,533 311,533 312,532 313,531 314,531 315,530 316,529 317,529 318,528 318,528 319,527 320,526 321,526 322,525 323,524 324,524 325,523 326,522 327,522 327,521 328,521 329,520 330,519 331,519 332,518 333,518 334,517 335,516 335,516 336,515 337,514 338,514 339,513 340,512 341,512 342,511 343,510 344,510 344,509 345,509 346,508 347,507 348,507 349,506 350,505 351,505 352,504 352,504 353,503 354,502 355,502 356,501 357,500 358,500 359,499 360,498 361,498 361,497 362,496 363,496 364,495 365,495 366,494 367,493 368,493 369,492 369,491 370,491 371,490 372,489 373,489 374,488 375,488 376,487 377,486 378,486 378,485 379,484 380,483 381,482 382,482 383,481 384,480 385,480 386,479 386,479 387,478 388,477 389,477 390,476 391,475 392,474 393,474 394,473 394,472 395,472 396,471 397,470 398,470 399,469 400,468 401,468 402,467 403,467 403,466 404,465 405,465 406,464 407,463 408,463 409,462 410,461 411,461 411,460 412,460 413,459 414,459 415,458 416,457 417,457 418,456 419,455 420,455 420,454 421,453 422,452 423,451 424,451 425,450 426,450 427,449 428,448 428,448 429,447 430,446 431,446 432,445 433,445 434,444 435,443 436,443 437,442 437,441 438,440 439,439 440,439 441,438 442,437 443,437 444,436 445,435 445,435 446,434 447,434 448,433 449,432 450,432 451,431 452,430 453,430 453,429 454,429 455,428 456,427 457,427 458,426 459,425 460,425 461,424 462,423 462,423 463,422 464,422 465,421 466,420 467,419 468,419 469,418 470,418 470,417 471,416 472,416 473,415 474,415 475,414 476,413 477,413 478,412 479,411 479,411 480,410 481,410 482,409 483,408 484,407 485,407 486,406 487,405 487,405 488,404 489,404 490,403 491,403 492,402 493,401 494,401 495,400 496,399 496,399 497,398 498,397 499,397 500,396 501,395 502,395 503,394 504,394 504,393 505,392 506,392 507,391 508,391 509,390 510,389 511,389 512,388 513,387 513,387 514,386 515,385 516,385 517,384 518,384 519,383 520,382 521,382 521,381 522,380 523,380 524,379 525,378 526,378 527,377 528,376 529,376 529,375 530,375 531,374 532,373 533,373 534,372 535,371 536,371 537,370 538,369 538,369 539,368 540,367 541,367 542,366 543,365 544,365 545,364 546,364 546,363 547,362 548,362 549,361 550,360 551,360 552,359 553,358 554,358 555,357 555,357 556,356 557,355 558,355 559,354 560,353 561,353 562,352 563,351 563,351 564,350 565,350 566,349 567,348 568,348 569,347 570,346 571,346 572,345 572,344 573,344 574,343 575,342 576,342 577,341 578,340 579,340 580,339 580,338 581,337 582,337 583,336 584,336 585,335 586,334 587,334 588,333 589,332 589,332 590,331 591,331 592,330 593,329 594,329 595,328 596,328 597,327 597,326 598,326 599,325 600,324 601,324 602,323 603,323 604,322 605,321 605,321 606,320 607,320 608,319 609,318 610,318 611,317 612,316 613,316 614,315 614,314 615,314 616,313 617,313 618,312 619,311 620,311 621,310 622,309 622,309 623,308 624,307 625,307 626,306 627,305 628,305 629,304 630,304 631,303 631,302 632,301 633,301 634,300 635,299 636,299 637,298 638,298 639,297 639,296 640,296 641,295 642,295 643,294 644,293 645,293 646,292 647,291 648,291 648,290 649,289 650,289 651,288 652,287 653,287 654,286 655,285 656,285 656,284 657,284 658,283 659,282 660,282 661,281 662,280 663,280 664,279 665,279 665,278 666,277 667,277 668,276 669,275 670,275 671,274 672,273 673,273 673,272 674,272 675,271 676,270 677,270 678,269 679,269 680,268 681,267 681,267 682,266 683,265 684,265 685,264 686,263 687,263 688,262 689,262 690,261 690,260 691,260 692,259 693,258 694,258 695,257 696,257 697,256 698,255 698,255 699,254 700,253 701,253 702,252 703,252 704,251 705,251 706,250 707,250 707,249 708,248 709,247 710,247 711,246 712,246 713,245 714,244 715,244 715,243 716,243 717,242 718,241 719,241 720,240 721,240 722,239 723,238 724,238 724,237 725,236 726,236 727,235 728,234 729,234 730,233 731,232 732,232 732,231 733,231 734,230 735,229 736,229 737,228 738,227 739,227 740,226 741,225 741,225 742,224 743,224 744,223 745,222 746,222 747,221 748,220 749,220 749,219 750,218 751,218 752,217 753,216 754,216 755,215 756,215 757,214 757,213 758,213 759,212 760,212 761,211 762,210 763,210 764,209 765,209 766,208 766,207 767,207 768,206 769,206 770,205 771,204 772,204 773,203 774,203 774,202 775,201 776,201 777,200 778,199 779,199 780,198 781,197 782,197 783,196 783,195 784,195 785,194 786,194 787,193 788,192 789,192 790,191 791,190 791,190 792,189 793,188 794,188 795,187 796,186 797,186 798,185 799,184 800,184 800,183 801,183 802,182 803,181 804,181 805,180 806,180 807,179 808,178 808,178 809,177 810,176 811,176 812,175 813,175 814,174 815,174 816,173 817,172 817,172 818,171 819,171 820,170 821,169 822,169 823,168 824,167 825,167 825,166 826,165 827,165 828,164 829,164 830,163 831,163 832,162 833,161 833,161 834,160 835,159 836,159 837,158 838,158 839,157 840,157 841,156 842,155 842,155 843,154 844,154 845,153 846,153 847,152 848,151 849,151 850,150 850,150 851,149 852,148 853,148 854,147 855,147 856,146 857,145 858,145 859,144 859,144 860,143 861,142 862,142 863,141 864,140 865,140 866,139 867,139 867,138 868,137 869,137 870,136 871,136 872,135 873,135 874,134 875,133 876,133 876,132 877,131 878,131 879,130 880,130 881,129 882,128 883,128 884,127 884,127 885,126 886,125 887,125 888,124 889,124 890,123 891,122 892,122 893,121 893,121 894,120 895,119 896,119 897,118 898,118 899,117 900,116 901,116 901,115 902,114 903,114 904,113 905,113 906,112 907,111 908,111 909,110 909,109 910,109 911,108 912,107 913,107 914,106 915,106 916,105 917,104 918,104 918,103 919,102 920,102 921,101 922,101 923,100 924,100 925,99 926,98 926,98 927,97 928,96 929,96 930,95 931,95 932,94 933,94 934,93 935,92 935,92 936,91 937,91 938,90 939,89 940,89 941,88 942,87 943,87 943,86 944,86 945,85 946,84 947,84 948,83 949,82 950,82 951,81 952,81 952,80 953,80 954,79 955,78 956,78 957,77 958,76 959,76 960,75 960,74 961,74 962,73 963,73 964,72 965,71 966,71 967,70 968,70 969,69 969,68 970,68 971,68 971,68 973,68 "/>
<line opacity="0.1" stroke="#000000" stroke-width="1" x1="89" y1="699" x2="89" y2="68"/>
<line opacity="0.1" stroke="#000000" stroke-width="1" x1="101" y1="699" x2="101" y2="68"/>
<line opacity="0.1" stroke="#000000" stroke-width="1" x1="112" y1="699" x2="112" y2="68"/>
<line opacity="0.1" stroke="#000000" stroke-width="1" x1="124" y1="699" x2="124" y2="68"/>
<line opacity="0.1" stroke="#000000" stroke-width="1" x1="136" y1="699" x2="136" y2="68"/>
<line opacity="0.1" stroke="#000000" stroke-width="1" x1="148" y1="699" x2="148" y2="68"/>
<line opacity="0.1" stroke="#000000" stroke-width="1" x1="160" y1="699" x2="160" y2="68"/>
<line opacity="0.1" stroke="#000000" stroke-width="1" x1="172" y1="699" x2="172" y2="68"/>
<line opacity="0.1" stroke="#000000" stroke-width="1" x1="184" y1="699" x2="184" y2="68"/>
<line opacity="0.1" stroke="#000000" stroke-width="1" x1="195" y1="699" x2="195" y2="68"/>
<line opacity="0.1" stroke="#000000" stroke-width="1" x1="207" y1="699" x2="207" y2="68"/>
<line opacity="0.1" stroke="#000000" stroke-width="1" x1="219" y1="699" x2="219" y2="68"/>
<line opacity="0.1" stroke="#000000" stroke-width="1" x1="231" y1="699" x2="231" y2="68"/>
<line opacity="0.1" stroke="#000000" stroke-width="1" x1="243" y1="699" x2="243" y2="68"/>
<line opacity="0.1" stroke="#000000" stroke-width="1" x1="255" y1="699" x2="255" y2="68"/>
<line opacity="0.1" stroke="#000000" stroke-width="1" x1="267" y1="699" x2="267" y2="68"/>
<line opacity="0.1" stroke="#000000" stroke-width="1" x1="278" y1="699" x2="278" y2="68"/>
<line opacity="0.1" stroke="#000000" stroke-width="1" x1="290" y1="699" x2="290" y2="68"/>
<line opacity="0.1" stroke="#000000" stroke-width="1" x1="302" y1="699" x2="302" y2="68"/>
<line opacity="0.1" stroke="#000000" stroke-width="1" x1="314" y1="699" x2="314" y2="68"/>
<line opacity="0.1" stroke="#000000" stroke-width="1" x1="326" y1="699" x2="326" y2="68"/>
<line opacity="0.1" stroke="#000000" stroke-width="1" x1="338" y1="699" x2="338" y2="68"/>
<line opacity="0.1" stroke="#000000" stroke-width="1" x1="350" y1="699" x2="350" y2="68"/>
<line opacity="0.1" stroke="#000000" stroke-width="1" x1="361" y1="699" x2="361" y2="68"/>
<line opacity="0.1" stroke="#000000" stroke-width="1" x1="373" y1="699" x2="373" y2="68"/>
<line opacity="0.1" stroke="#000000" stroke-width="1" x1="385" y1="699" x2="385" y2="68"/>
<line opacity="0.1" stroke="#000000" stroke-width="1" x1="397" y1="699" x2="397" y2="68"/>
<line opacity="0.1" stroke="#000000" stroke-width="1" x1="409" y1="699" x2="409" y2="68"/>
<line opacity="0.1" stroke="#000000" stroke-width="1" x1="421" y1="699" x2="421" y2="68"/>
<line opacity="0.1" stroke="#000000" stroke-width="1" x1="433" y1="699" x2="433" y2="68"/>
<line opacity="0.1" stroke="#000000" stroke-width="1" x1="444" y1="699" x2="444" y2="68"/>
<line opacity="0.1" stroke="#000000" stroke-width="1" x1="456" y1="699" x2="456" y2="68"/>
<line opacity="0.1" stroke="#000000" stroke-width="1" x1="468" y1="699" x2="468" y2="68"/>
<line opacity="0.1" stroke="#000000" stroke-width="1" x1="480" y1="699" x2="480" y2="68"/>
<line opacity="0.1" stroke="#000000" stroke-width="1" x1="492" y1="699" x2="492" y2="68"/>
<line opacity="0.1" stroke="#000000" stroke-width="1" x1="504" y1="699" x2="504" y2="68"/>
<line opacity="0.1" stroke="#000000" stroke-width="1" x1="516" y1="699" x2="516" y2="68"/>
<line opacity="0.1" stroke="#000000" stroke-width="1" x1="527" y1="699" x2="527" y2="68"/>
<line opacity="0.1" stroke="#000000" stroke-width="1" x1="539" y1="699" x2="539" y2="68"/>
<line opacity="0.1" stroke="#000000" stroke-width="1" x1="551" y1="699" x2="551" y2="68"/>
<line opacity="0.1" stroke="#000000" stroke-width="1" x1="563" y1="699" x2="563" y2="68"/>
<line opacity="0.1" stroke="#000000" stroke-width="1" x1="575" y1="699" x2="575" y2="68"/>
<line opacity="0.1" stroke="#000000" stroke-width="1" x1="587" y1="699" x2="587" y2="68"/>
<line opacity="0.1" stroke="#000000" stroke-width="1" x1="599" y1="699" x2="599" y2="68"/>
<line opacity="0.1" stroke="#000000" stroke-width="1" x1="610" y1="699" x2="610" y2="68"/>
<line opacity="0.1" stroke="#000000" stroke-width="1" x1="622" y1="699" x2="622" y2="68"/>
<line opacity="0.1" stroke="#000000" stroke-width="1" x1="634" y1="699" x2="634" y2="68"/>
<line opacity="0.1" stroke="#000000" stroke-width="1" x1="646" y1="699" x2="646" y2="68"/>
<line opacity="0.1" stroke="#000000" stroke-width="1" x1="658" y1="699" x2="658" y2="68"/>
<line opacity="0.1" stroke="#000000" stroke-width="1" x1="670" y1="699" x2="670" y2="68"/>
<line opacity="0.1" stroke="#000000" stroke-width="1" x1="682" y1="699" x2="682" y2="68"/>
<line opacity="0.1" stroke="#000000" stroke-width="1" x1="693" y1="699" x2="693" y2="68"/>
<line opacity="0.1" stroke="#000000" stroke-width="1" x1="705" y1="699" x2="705" y2="68"/>
<line opacity="0.1" stroke="#000000" stroke-width="1" x1="717" y1="699" x2="717" y2="68"/>
<line opacity="0.1" stroke="#000000" stroke-width="1" x1="729" y1="699" x2="729" y2="68"/>
<line opacity="0.1" stroke="#000000" stroke-width="1" x1="741" y1="699" x2="741" y2="68"/>
<line opacity="0.1" stroke="#000000" stroke-width="1" x1="753" y1="699" x2="753" y2="68"/>
<line opacity="0.1" stroke="#000000" stroke-width="1" x1="765" y1="699" x2="765" y2="68"/>
<line opacity="0.1" stroke="#000000" stroke-width="1" x1="776" y1="699" x2="776" y2="68"/>
<line opacity="0.1" stroke="#000000" stroke-width="1" x1="788" y1="699" x2="788" y2="68"/>
<line opacity="0.1" stroke="#000000" stroke-width="1" x1="800" y1="699" x2="800" y2="68"/>
<line opacity="0.1" stroke="#000000" stroke-width="1" x1="812" y1="699" x2="812" y2="68"/>
<line opacity="0.1" stroke="#000000" stroke-width="1" x1="824" y1="699" x2="824" y2="68"/>
<line opacity="0.1" stroke="#000000" stroke-width="1" x1="836" y1="699" x2="836" y2="68"/>
<line opacity="0.1" stroke="#000000" stroke-width="1" x1="848" y1="699" x2="848" y2="68"/>
<line opacity="0.1" stroke="#000000" stroke-width="1" x1="859" y1="699" x2="859" y2="68"/>
<line opacity="0.1" stroke="#000000" stroke-width="1" x1="871" y1="699" x2="871" y2="68"/>
<line opacity="0.1" stroke="#000000" stroke-width="1" x1="883" y1="699" x2="883" y2="68"/>
<line opacity="0.1" stroke="#000000" stroke-width="1" x1="895" y1="699" x2="895" y2="68"/>
<line opacity="0.1" stroke="#000000" stroke-width="1" x1="907" y1="699" x2="907" y2="68"/>
<line opacity="0.1" stroke="#000000" stroke-width="1" x1="919" y1="699" x2="919" y2="68"/>
<line opacity="0.1" stroke="#000000" stroke-width="1" x1="931" y1="699" x2="931" y2="68"/>
<line opacity="0.1" stroke="#000000" stroke-width="1" x1="942" y1="699" x2="942" y2="68"/>
<line opacity="0.1" stroke="#000000" stroke-width="1" x1="954" y1="699" x2="954" y2="68"/>
<line opacity="0.1" stroke="#000000" stroke-width="1" x1="966" y1="699" x2="966" y2="68"/>
<line opacity="0.1" stroke="#000000" stroke-width="1" x1="78" y1="699" x2="973" y2="699"/>
<line opacity="0.1" stroke="#000000" stroke-width="1" x1="78" y1="688" x2="973" y2="688"/>
<line opacity="0.1" stroke="#000000" stroke-width="1" x1="78" y1="677" x2="973" y2="677"/>
<line opacity="0.1" stroke="#000000" stroke-width="1" x1="78" y1="666" x2="973" y2="666"/>
<line opacity="0.1" stroke="#000000" stroke-width="1" x1="78" y1="656" x2="973" y2="656"/>
<line opacity="0.1" stroke="#000000" stroke-width="1" x1="78" y1="645" x2="973" y2="645"/>
<line opacity="0.1" stroke="#000000" stroke-width="1" x1="78" y1="634" x2="973" y2="634"/>
<line opacity="0.1" stroke="#000000" stroke-width="1" x1="78" y1="623" x2="973" y2="623"/>
<line opacity="0.1" stroke="#000000" stroke-width="1" x1="78" y1="613" x2="973" y2="613"/>
<line opacity="0.1" stroke="#000000" stroke-width="1" x1="78" y1="602" x2="973" y2="602"/>
<line opacity="0.1" stroke="#000000" stroke-width="1" x1="78" y1="591" x2="973" y2="591"/>
<line opacity="0.1" stroke="#000000" stroke-width="1" x1="78" y1="581" x2="973" y2="581"/>
<line opacity="0.1" stroke="#000000" stroke-width="1" x1="78" y1="570" x2="973" y2="570"/>
<line opacity="0.1" stroke="#000000" stroke-width="1" x1="78" y1="559" x2="973" y2="559"/>
<line opacity="0.1" stroke="#000000" stroke-width="1" x1="78" y1="548" x2="973" y2="548"/>
<line opacity="0.1" stroke="#000000" stroke-width="1" x1="78" y1="538" x2="973" y2="538"/>
<line opacity="0.1" stroke="#000000" stroke-width="1" x1="78" y1="527" x2="973" y2="527"/>
<line opacity="0.1" stroke="#000000" stroke-width="1" x1="78" y1="516" x2="973" y2="516"/>
<line opacity="0.1" stroke="#000000" stroke-width="1" x1="78" y1="505" x2="973" y2="505"/>
<line opacity="0.1" stroke="#000000" stroke-width="1" x1="78" y1="495" x2="973" y2="495"/>
<line opacity="0.1" stroke="#000000" stroke-width="1" x1="78" y1="484" x2="973" y2="484"/>
<line opacity="0.1" stroke="#000000" stroke-width="1" x1="78" y1="473" x2="973" y2="473"/>
<line opacity="0.1" stroke="#000000" stroke-width="1" x1="78" y1="463" x2="973" y2="463"/>
<line opacity="0.1" stroke="#000000" stroke-width="1" x1="78" y1="452" x2="973" y2="452"/>
<line opacity="0.1" stroke="#000000" stroke-width="1" x1="78" y1="441" x2="973" y2="441"/>
<line opacity="0.1" stroke="#000000" stroke-width="1" x1="78" y1="430" x2="973" y2="430"/>
<line opacity="0.1" stroke="#000000" stroke-width="1" x1="78" y1="420" x2="973" y2="420"/>
<line opacity="0.1" stroke="#000000" stroke-width="1" x1="78" y1="409" x2="973" y2="409"/>
<line opacity="0.1" stroke="#000000" stroke-width="1" x1="78" y1="398" x2="973" y2="398"/>
<line opacity="0.1" stroke="#000000" stroke-width="1" x1="78" y1="387" x2="973" y2="387"/>
<line opacity="0.1" stroke="#000000" stroke-width="1" x1="78" y1="377" x2="973" y2="377"/>
<line opacity="0.1" stroke="#000000" stroke-width="1" x1="78" y1="366" x2="973" y2="366"/>
<line opacity="0.1" stroke="#000000" stroke-width="1" x1="78" y1="355" x2="973" y2="355"/>
<line opacity="0.1" stroke="#000000" stroke-width="1" x1="78" y1="345" x2="973" y2="345"/>
<line opacity="0.1" stroke="#000000" stroke-width="1" x1="78" y1="334" x2="973" y2="334"/>
<line opacity="0.1" stroke="#000000" stroke-width="1" x1="78" y1="323" x2="973" y2="323"/>
<line opacity="0.1" stroke="#000000" stroke-width="1" x1="78" y1="312" x2="973" y2="312"/>
<line opacity="0.1" stroke="#000000" stroke-width="1" x1="78" y1="302" x2="973" y2="302"/>
<line opacity="0.1" stroke="#000000" stroke-width="1" x1="78" y1="291" x2="973" y2="291"/>
<line opacity="0.1" stroke="#000000" stroke-width="1" x1="78" y1="280" x2="973" y2="280"/>
<line opacity="0.1" stroke="#000000" stroke-width="1" x1="78" y1="269" x2="973" y2="269"/>
<line opacity="0.1" stroke="#000000" stroke-width="1" x1="78" y1="259" x2="973" y2="259"/>
<line opacity="0.1" stroke="#000000" stroke-width="1" x1="78" y1="248" x2="973" y2="248"/>
<line opacity="0.1" stroke="#000000" stroke-width="1" x1="78" y1="237" x2="973" y2="237"/>
<line opacity="0.1" stroke="#000000" stroke-width="1" x1="78" y1="227" x2="973" y2="227"/>
<line opacity="0.1" stroke="#000000" stroke-width="1" x1="78" y1="216" x2="973" y2="216"/>
<line opacity="0.1" stroke="#000000" stroke-width="1" x1="78" y1="205" x2="973" y2="205"/>
<line opacity="0.1" stroke="#000000" stroke-width="1" x1="78" y1="194" x2="973" y2="194"/>
<line opacity="0.1" stroke="#000000" stroke-width="1" x1="78" y1="184" x2="973" y2="184"/>
<line opacity="0.1" stroke="#000000" stroke-width="1" x1="78" y1="173" x2="973" y2="173"/>
<line opacity="0.1" stroke="#000000" stroke-width="1" x1="78" y1="162" x2="973" y2="162"/>
<line opacity="0.1" stroke="#000000" stroke-width="1" x1="78" y1="152" x2="973" y2="152"/>
<line opacity="0.1" stroke="#000000" stroke-width="1" x1="78" y1="141" x2="973" y2="141"/>
<line opacity="0.1" stroke="#000000" stroke-width="1" x1="78" y1="130" x2="973" y2="130"/>
<line opacity="0.1" stroke="#000000" stroke-width="1" x1="78" y1="119" x2="973" y2="119"/>
<line opacity="0.1" stroke="#000000" stroke-width="1" x1="78" y1="109" x2="973" y2="109"/>
<line opacity="0.1" stroke="#000000" stroke-width="1" x1="78" y1="98" x2="973" y2="98"/>
<line opacity="0.1" stroke="#000000" stroke-width="1" x1="78" y1="87" x2="973" y2="87"/>
<line opacity="0.1" stroke="#000000" stroke-width="1" x1="78" y1="76" x2="973" y2="76"/>
<text x="8" y="384" dy="0.76em" text-anchor="middle" font-family="sans-serif" font-size="9.67741935483871" opacity="1" fill="#000000" transform="rotate(270, 8, 384)">
Memory usage
</text>
<text x="526" y="760" dy="-0.5ex" text-anchor="middle" font-family="sans-serif" font-size="9.67741935483871" opacity="1" fill="#000000">
Time
</text>
<line opacity="0.2" stroke="#000000" stroke-width="1" x1="112" y1="699" x2="112" y2="68"/>
<line opacity="0.2" stroke="#000000" stroke-width="1" x1="231" y1="699" x2="231" y2="68"/>
<line opacity="0.2" stroke="#000000" stroke-width="1" x1="350" y1="699" x2="350" y2="68"/>
<line opacity="0.2" stroke="#000000" stroke-width="1" x1="468" y1="699" x2="468" y2="68"/>
<line opacity="0.2" stroke="#000000" stroke-width="1" x1="587" y1="699" x2="587" y2="68"/>
<line opacity="0.2" stroke="#000000" stroke-width="1" x1="705" y1="699" x2="705" y2="68"/>
<line opacity="0.2" stroke="#000000" stroke-width="1" x1="824" y1="699" x2="824" y2="68"/>
<line opacity="0.2" stroke="#000000" stroke-width="1" x1="942" y1="699" x2="942" y2="68"/>
<line opacity="0.2" stroke="#000000" stroke-width="1" x1="78" y1="699" x2="973" y2="699"/>
<line opacity="0.2" stroke="#000000" stroke-width="1" x1="78" y1="591" x2="973" y2="591"/>
<line opacity="0.2" stroke="#000000" stroke-width="1" x1="78" y1="484" x2="973" y2="484"/>
<line opacity="0.2" stroke="#000000" stroke-width="1" x1="78" y1="377" x2="973" y2="377"/>
<line opacity="0.2" stroke="#000000" stroke-width="1" x1="78" y1="269" x2="973" y2="269"/>
<line opacity="0.2" stroke="#000000" stroke-width="1" x1="78" y1="162" x2="973" y2="162"/>
<polyline fill="none" opacity="1" stroke="#000000" stroke-width="1" points="77,68 77,699 "/>
<text x="68" y="699" dy="0.5ex" text-anchor="end" font-family="sans-serif" font-size="9.67741935483871" opacity="1" fill="#000000">
0.0 MB
</text>
<polyline fill="none" opacity="1" stroke="#000000" stroke-width="1" points="72,699 77,699 "/>
<text x="68" y="591" dy="0.5ex" text-anchor="end" font-family="sans-serif" font-size="9.67741935483871" opacity="1" fill="#000000">
4.8 MB
</text>
<polyline fill="none" opacity="1" stroke="#000000" stroke-width="1" points="72,591 77,591 "/>
<text x="68" y="484" dy="0.5ex" text-anchor="end" font-family="sans-serif" font-size="9.67741935483871" opacity="1" fill="#000000">
9.5 MB
</text>
<polyline fill="none" opacity="1" stroke="#000000" stroke-width="1" points="72,484 77,484 "/>
<text x="68" y="377" dy="0.5ex" text-anchor="end" font-family="sans-serif" font-size="9.67741935483871" opacity="1" fill="#000000">
14.3 MB
</text>
<polyline fill="none" opacity="1" stroke="#000000" stroke-width="1" points="72,377 77,377 "/>
<text x="68" y="269" dy="0.5ex" text-anchor="end" font-family="sans-serif" font-size="9.67741935483871" opacity="1" fill="#000000">
19.1 MB
</text>
<polyline fill="none" opacity="1" stroke="#000000" stroke-width="1" points="72,269 77,269 "/>
<text x="68" y="162" dy="0.5ex" text-anchor="end" font-family="sans-serif" font-size="9.67741935483871" opacity="1" fill="#000000">
23.8 MB
</text>
<polyline fill="none" opacity="1" stroke="#000000" stroke-width="1" points="72,162 77,162 "/>
<polyline fill="none" opacity="1" stroke="#000000" stroke-width="1" points="78,700 973,700 "/>
<text x="112" y="710" dy="0.76em" text-anchor="middle" font-family="sans-serif" font-size="9.67741935483871" opacity="1" fill="#000000">
07 17:46:40
</text>
<polyline fill="none" opacity="1" stroke="#000000" stroke-width="1" points="112,700 112,705 "/>
<text x="231" y="710" dy="0.76em" text-anchor="middle" font-family="sans-serif" font-size="9.67741935483871" opacity="1" fill="#000000">
07 20:33:20
</text>
<polyline fill="none" opacity="1" stroke="#000000" stroke-width="1" points="231,700 231,705 "/>
<text x="350" y="710" dy="0.76em" text-anchor="middle" font-family="sans-serif" font-size="9.67741935483871" opacity="1" fill="#000000">
07 23:20:00
</text>
<polyline fill="none" opacity="1" stroke="#000000" stroke-width="1" points="350,700 350,705 "/>
<text x="468" y="710" dy="0.76em" text-anchor="middle" font-family="sans-serif" font-size="9.67741935483871" opacity="1" fill="#000000">
08 02:06:40
</text>
<polyline fill="none" opacity="1" stroke="#000000" stroke-width="1" points="468,700 468,705 "/>
<text x="587" y="710" dy="0.76em" text-anchor="middle" font-family="sans-serif" font-size="9.67741935483871" opacity="1" fill="#000000">
08 04:53:20
</text>
<polyline fill="none" opacity="1" stroke="#000000" stroke-width="1" points="587,700 587,705 "/>
<text x="705" y="710" dy="0.76em" text-anchor="middle" font-family="sans-serif" font-size="9.67741935483871" opacity="1" fill="#000000">
08 07:40:00
</text>
<polyline fill="none" opacity="1" stroke="#000000" stroke-width="1" points="705,700 705,705 "/>
<text x="824" y="710" dy="0.76em" text-anchor="middle" font-family="sans-serif" font-size="9.67741935483871" opacity="1" fill="#000000">
08 10:26:40
</text>
<polyline fill="none" opacity="1" stroke="#000000" stroke-width="1" points="824,700 824,705 "/>
<text x="942" y="710" dy="0.76em" text-anchor="middle" font-family="sans-serif" font-size="9.67741935483871" opacity="1" fill="#000000">
08 13:13:20
</text>
<polyline fill="none" opacity="1" stroke="#000000" stroke-width="1" points="942,700 942,705 "/>
<polyline fill="none" opacity="1" stroke="#000000" stroke-width="1" points="78,67 974,67 "/>
<text x="112" y="58" dy="-0.5ex" text-anchor="middle" font-family="sans-serif" font-size="9.67741935483871" opacity="1" fill="#000000">
+00:49:04
</text>
<polyline fill="none" opacity="1" stroke="#000000" stroke-width="1" points="112,62 112,67 "/>
<text x="231" y="58" dy="-0.5ex" text-anchor="middle" font-family="sans-serif" font-size="9.67741935483871" opacity="1" fill="#000000">
+03:35:44
</text>
<polyline fill="none" opacity="1" stroke="#000000" stroke-width="1" points="231,62 231,67 "/>
<text x="350" y="58" dy="-0.5ex" text-anchor="middle" font-family="sans-serif" font-size="9.67741935483871" opacity="1" fill="#000000">
+06:22:24
</text>
<polyline fill="none" opacity="1" stroke="#000000" stroke-width="1" points="350,62 350,67 "/>
<text x="469" y="58" dy="-0.5ex" text-anchor="middle" font-family="sans-serif" font-size="9.67741935483871" opacity="1" fill="#000000">
+09:09:04
</text>
<polyline fill="none" opacity="1" stroke="#000000" stroke-width="1" points="469,62 469,67 "/>
<text x="587" y="58" dy="-0.5ex" text-anchor="middle" font-family="sans-serif" font-size="9.67741935483871" opacity="1" fill="#000000">
+11:55:44
</text>
<polyline fill="none" opacity="1" stroke="#000000" stroke-width="1" points="587,62 587,67 "/>
<text x="706" y="58" dy="-0.5ex" text-anchor="middle" font-family="sans-serif" font-size="9.67741935483871" opacity="1" fill="#000000">
+14:42:24
</text>
<polyline fill="none" opacity="1" stroke="#000000" stroke-width="1" points="706,62 706,67 "/>
<text x="825" y="58" dy="-0.5ex" text-anchor="middle" font-family="sans-serif" font-size="9.67741935483871" opacity="1" fill="#000000">
+17:29:04
</text>
<polyline fill="none" opacity="1" stroke="#000000" stroke-width="1" points="825,62 825,67 "/>
<text x="943" y="58" dy="-0.5ex" text-anchor="middle" font-family="sans-serif" font-size="9.67741935483871" opacity="1" fill="#000000">
+20:15:44
</text>
<polyline fill="none" opacity="1" stroke="#000000" stroke-width="1" points="943,62 943,67 "/>
<rect x="83" y="73" width="99" height="45" opacity="0.75" fill="#FFFFFF" stroke="none"/>
<rect x="83" y="73" width="99" height="45" opacity="1" fill="none" stroke="#000000"/>
<text x="123" y="83" dy="0.76em" text-anchor="start" font-family="sans-serif" font-size="9.67741935483871" opacity="1" fill="#000000">
Temporary
</text>
<text x="123" y="98" dy="0.76em" text-anchor="start" font-family="sans-serif" font-size="9.67741935483871" opacity="1" fill="#000000">
Leaked
</text>
<rect x="93" y="83" width="10" height="10" opacity="1" fill="#3CB44B" stroke="none"/>
<rect x="93" y="98" width="10" height="10" opacity="1" fill="#E6194B" stroke="none"/>
</svg>
