<svg width="1024" height="768" viewBox="0 0 1024 768" xmlns="http://www.w3.org/2000/svg">
<rect x="0" y="0" width="1024" height="768" opacity="1" fill="#FFFFFF" stroke="none"/>
<polygon opacity="1" fill="#3CB44B" points="78,685 79,663 80,629 81,607 82,571 83,543 83,510 84,470 85,435 86,405 87,373 88,334 89,302 90,262 91,235 91,199 92,166 93,136 94,117 95,121 96,118 97,116 98,120 99,118 99,126 100,124 101,121 102,114 103,107 104,109 105,125 106,124 107,118 107,107 108,104 109,113 110,116 111,120 112,107 113,101 114,108 114,98 115,87 116,76 117,71 118,72 119,99 120,105 121,96 122,96 122,105 123,121 124,126 125,114 126,112 127,125 128,131 129,138 130,121 130,106 131,103 132,109 133,117 134,130 135,132 136,140 137,171 138,171 138,146 139,126 140,113 141,112 142,114 143,139 144,152 145,146 146,125 146,111 147,105 148,104 149,106 150,117 151,129 152,142 153,161 153,148 154,134 155,117 156,102 157,93 158,92 159,98 160,103 161,122 161,134 162,132 163,126 164,124 165,128 166,119 167,118 168,118 169,121 169,131 170,136 171,130 172,127 173,133 174,125 175,126 176,125 177,127 177,139 178,133 179,127 180,125 181,123 182,128 183,132 184,150 185,141 185,134 186,137 187,152 188,143 189,124 190,137 191,153 192,146 192,134 193,124 194,119 195,108 196,100 197,109 198,114 199,164 200,181 200,153 201,132 202,128 203,136 204,117 205,108 206,105 207,120 208,169 208,141 209,130 210,116 211,106 212,84 213,68 214,74 215,102 216,190 216,171 217,164 218,153 219,148 220,142 221,142 222,126 223,107 224,105 224,115 225,127 226,171 227,168 228,160 229,168 230,162 231,146 231,131 232,142 233,143 234,178 235,159 236,135 237,96 238,136 238,136 239,159 239,159 240,159 241,159 242,159 243,159 244,159 245,159 246,159 247,159 247,161 248,161 249,161 250,161 251,161 252,161 253,161 254,161 255,161 255,161 256,161 257,161 258,161 259,161 260,161 261,161 262,161 263,161 263,161 264,161 265,161 266,161 267,161 268,161 269,161 270,161 270,161 271,161 272,161 273,161 274,162 275,162 276,162 277,162 278,162 278,162 279,162 280,162 281,162 282,162 283,162 284,162 285,162 286,162 286,162 287,162 288,162 289,162 290,162 291,162 292,162 293,162 294,162 294,162 295,162 296,162 297,162 298,162 299,162 300,162 301,162 302,162 302,162 303,162 304,162 305,162 306,162 307,162 308,162 309,162 309,162 310,162 311,163 312,163 313,163 314,163 315,163 316,163 317,163 317,163 318,163 319,163 320,163 321,163 322,163 323,163 324,163 325,163 325,163 326,163 327,163 328,163 329,163 330,163 331,163 332,163 333,163 333,163 334,163 335,163 336,163 337,164 338,164 339,164 340,164 341,164 341,164 342,164 343,164 344,164 345,164 346,164 347,164 348,164 348,164 349,164 350,164 351,164 352,164 353,164 354,164 355,165 356,165 356,165 357,165 358,165 359,165 360,165 361,165 362,165 363,165 364,165 364,165 365,165 366,165 367,165 368,165 369,165 370,165 371,165 372,165 372,165 373,165 374,165 375,165 376,165 377,165 378,165 379,165 380,165 380,165 381,165 382,165 383,165 384,165 385,165 386,165 387,165 387,165 388,165 389,165 390,165 391,165 392,165 393,165 394,165 395,165 395,165 396,165 397,165 398,165 399,165 400,165 401,166 402,166 403,166 403,166 404,166 405,166 406,166 407,166 408,166 409,166 410,166 411,166 411,166 412,166 413,166 414,166 415,166 416,166 417,166 418,166 419,166 419,166 420,166 421,166 422,166 423,166 424,166 425,166 426,166 426,166 427,166 428,166 429,166 430,166 431,166 432,166 433,166 434,166 434,166 435,166 436,166 437,166 438,166 439,166 440,166 441,167 442,167 442,167 443,167 444,167 445,167 446,167 447,167 448,167 449,167 450,167 450,167 451,167 452,168 453,168 454,168 455,168 456,168 457,168 458,168 458,168 459,168 460,168 461,168 462,168 463,168 464,168 465,168 465,168 466,168 467,168 468,168 469,168 470,168 471,168 472,168 473,168 473,168 474,168 475,168 476,168 477,168 478,168 479,168 480,168 481,168 481,168 482,168 483,168 484,168 485,168 486,168 487,168 488,168 489,168 489,168 490,168 491,168 492,168 493,168 494,168 495,168 496,168 497,168 497,168 498,168 499,168 500,168 501,168 502,168 503,168 504,168 504,168 505,168 506,168 507,168 508,168 509,168 510,168 511,169 512,169 512,169 513,169 514,169 515,169 516,169 517,169 518,169 519,169 520,169 520,169 521,169 522,169 523,169 524,169 525,169 526,169 527,169 528,169 528,169 529,169 530,169 531,169 532,169 533,169 534,169 535,169 536,170 536,170 537,170 538,170 539,170 540,170 541,170 542,170 543,170 543,170 544,170 545,170 546,170 547,170 548,170 549,170 550,170 551,170 551,170 552,170 553,170 554,170 555,170 556,170 557,170 558,170 559,170 559,170 560,170 561,171 562,171 563,171 564,171 565,171 566,171 567,171 567,171 568,171 569,171 570,171 571,171 572,171 573,171 574,171 575,171 575,171 576,171 577,171 578,171 579,171 580,171 581,171 582,172 582,172 583,172 584,172 585,172 586,172 587,172 588,172 589,172 590,172 590,172 591,172 592,172 593,172 594,172 595,172 596,172 597,172 598,172 598,172 599,172 600,172 601,172 602,172 603,173 604,173 605,173 606,173 606,173 607,173 608,173 609,173 610,173 611,173 612,173 613,173 614,173 614,173 615,173 616,173 617,173 618,173 619,173 620,173 621,173 621,173 622,173 623,173 624,173 625,173 626,173 627,173 628,173 629,173 629,173 630,173 631,173 632,173 633,174 634,174 635,174 636,174 637,174 637,174 638,174 639,174 640,174 641,174 642,174 643,174 644,174 645,174 645,174 646,178 647,178 648,178 649,178 650,178 651,178 652,178 653,178 653,178 654,178 655,178 656,178 657,178 658,178 659,178 660,178 660,178 661,178 662,178 663,178 664,178 665,178 666,178 667,178 668,178 668,178 669,178 670,178 671,178 672,178 673,178 674,178 675,178 676,178 676,178 677,178 678,178 679,178 680,179 681,179 682,179 683,179 684,179 684,179 685,179 686,179 687,179 688,179 689,179 690,179 691,179 692,179 692,179 693,179 694,179 695,179 696,179 697,179 698,179 699,179 699,179 700,179 701,179 702,179 703,179 704,179 705,179 706,179 707,179 707,179 708,179 709,179 710,179 711,179 712,179 713,179 714,180 715,180 715,180 716,180 717,180 718,180 719,180 720,180 721,180 722,180 723,180 723,180 724,180 725,180 726,180 727,180 728,180 729,180 730,180 731,180 731,180 732,180 733,180 734,180 735,180 736,180 737,180 738,180 738,180 739,180 740,180 741,180 742,180 743,180 744,180 745,180 746,180 746,180 747,180 748,180 749,180 750,180 751,180 752,180 753,180 754,180 754,180 755,180 756,180 757,180 758,180 759,180 760,180 761,180 762,180 762,180 763,180 764,181 765,181 766,181 767,181 768,181 769,181 770,181 770,181 771,181 772,181 773,181 774,181 775,181 776,181 777,181 777,181 778,181 779,181 780,181 781,181 782,181 783,181 784,181 785,181 785,181 786,181 787,181 788,181 789,181 790,181 791,181 792,181 793,181 793,181 794,181 795,181 796,181 797,181 798,181 799,181 800,181 801,181 801,181 802,181 803,181 804,181 805,181 806,181 807,181 808,181 809,181 809,181 810,182 811,182 812,182 813,182 814,182 815,182 816,182 816,182 817,182 818,182 819,182 820,182 821,182 822,182 823,182 824,182 824,182 825,182 826,182 827,182 828,182 829,182 830,182 831,182 832,182 832,182 833,182 834,182 835,182 836,182 837,182 838,182 839,182 840,182 840,182 841,182 842,182 843,183 844,183 845,183 846,183 847,183 848,183 848,183 849,183 850,183 851,183 852,183 853,183 854,183 855,183 856,183 856,183 857,183 858,184 859,184 860,184 861,184 862,184 863,184 863,184 864,184 865,184 866,184 867,184 868,184 869,184 870,184 871,184 871,184 872,184 873,184 874,184 875,184 876,184 877,184 878,184 879,184 879,184 880,184 881,184 882,184 883,184 884,184 885,184 886,184 887,184 887,184 888,184 889,184 890,184 891,184 892,184 893,184 894,184 895,184 895,184 896,184 897,184 898,184 899,184 900,184 901,184 902,184 902,184 903,184 904,184 905,184 906,184 907,184 908,184 909,184 910,185 910,185 911,185 912,185 913,185 914,185 915,185 916,185 917,185 918,185 918,185 919,185 920,185 921,185 922,185 923,185 924,185 925,185 926,185 926,185 927,185 928,185 929,185 930,185 931,185 932,185 933,185 934,185 934,185 935,185 936,185 937,185 938,185 939,185 940,185 941,185 941,185 942,185 943,185 944,185 945,185 946,185 947,185 948,185 949,185 949,185 950,185 951,185 952,185 953,185 954,185 955,185 956,185 957,185 957,185 958,185 959,185 960,185 961,185 962,185 963,185 964,185 965,186 965,186 973,186 973,699 78,699 "/>
<polyline fill="none" opacity="1" stroke="#3CB44B" stroke-width="1" points="78,685 79,663 80,629 81,607 82,571 83,543 83,510 84,470 85,435 86,405 87,373 88,334 89,302 90,262 91,235 91,199 92,166 93,136 94,117 95,121 96,118 97,116 98,120 99,118 99,126 100,124 101,121 102,114 103,107 104,109 105,125 106,124 107,118 107,107 108,104 109,113 110,116 111,120 112,107 113,101 114,108 114,98 115,87 116,76 117,71 118,72 119,99 120,105 121,96 122,96 122,105 123,121 124,126 125,114 126,112 127,125 128,131 129,138 130,121 130,106 131,103 132,109 133,117 134,130 135,132 136,140 137,171 138,171 138,146 139,126 140,113 141,112 142,114 143,139 144,152 145,146 146,125 146,111 147,105 148,104 149,106 150,117 151,129 152,142 153,161 153,148 154,134 155,117 156,102 157,93 158,92 159,98 160,103 161,122 161,134 162,132 163,126 164,124 165,128 166,119 167,118 168,118 169,121 169,131 170,136 171,130 172,127 173,133 174,125 175,126 176,125 177,127 177,139 178,133 179,127 180,125 181,123 182,128 183,132 184,150 185,141 185,134 186,137 187,152 188,143 189,124 190,137 191,153 192,146 192,134 193,124 194,119 195,108 196,100 197,109 198,114 199,164 200,181 200,153 201,132 202,128 203,136 204,117 205,108 206,105 207,120 208,169 208,141 209,130 210,116 211,106 212,84 213,68 214,74 215,102 216,190 216,171 217,164 218,153 219,148 220,142 221,142 222,126 223,107 224,105 224,115 225,127 226,171 227,168 228,160 229,168 230,162 231,146 231,131 232,142 233,143 234,178 235,159 236,135 237,96 238,136 238,136 239,159 239,159 240,159 241,159 242,159 243,159 244,159 245,159 246,159 247,159 247,161 248,161 249,161 250,161 251,161 252,161 253,161 254,161 255,161 255,161 256,161 257,161 258,161 259,161 260,161 261,161 262,161 263,161 263,161 264,161 265,161 266,161 267,161 268,161 269,161 270,161 270,161 271,161 272,161 273,161 274,162 275,162 276,162 277,162 278,162 278,162 279,162 280,162 281,162 282,162 283,162 284,162 285,162 286,162 286,162 287,162 288,162 289,162 290,162 291,162 292,162 293,162 294,162 294,162 295,162 296,162 297,162 298,162 299,162 300,162 301,162 302,162 302,162 303,162 304,162 305,162 306,162 307,162 308,162 309,162 309,162 310,162 311,163 312,163 313,163 314,163 315,163 316,163 317,163 317,163 318,163 319,163 320,163 321,163 322,163 323,163 324,163 325,163 325,163 326,163 327,163 328,163 329,163 330,163 331,163 332,163 333,163 333,163 334,163 335,163 336,163 337,164 338,164 339,164 340,164 341,164 341,164 342,164 343,164 344,164 345,164 346,164 347,164 348,164 348,164 349,164 350,164 351,164 352,164 353,164 354,164 355,165 356,165 356,165 357,165 358,165 359,165 360,165 361,165 362,165 363,165 364,165 364,165 365,165 366,165 367,165 368,165 369,165 370,165 371,165 372,165 372,165 373,165 374,165 375,165 376,165 377,165 378,165 379,165 380,165 380,165 381,165 382,165 383,165 384,165 385,165 386,165 387,165 387,165 388,165 389,165 390,165 391,165 392,165 393,165 394,165 395,165 395,165 396,165 397,165 398,165 399,165 400,165 401,166 402,166 403,166 403,166 404,166 405,166 406,166 407,166 408,166 409,166 410,166 411,166 411,166 412,166 413,166 414,166 415,166 416,166 417,166 418,166 419,166 419,166 420,166 421,166 422,166 423,166 424,166 425,166 426,166 426,166 427,166 428,166 429,166 430,166 431,166 432,166 433,166 434,166 434,166 435,166 436,166 437,166 438,166 439,166 440,166 441,167 442,167 442,167 443,167 444,167 445,167 446,167 447,167 448,167 449,167 450,167 450,167 451,167 452,168 453,168 454,168 455,168 456,168 457,168 458,168 458,168 459,168 460,168 461,168 462,168 463,168 464,168 465,168 465,168 466,168 467,168 468,168 469,168 470,168 471,168 472,168 473,168 473,168 474,168 475,168 476,168 477,168 478,168 479,168 480,168 481,168 481,168 482,168 483,168 484,168 485,168 486,168 487,168 488,168 489,168 489,168 490,168 491,168 492,168 493,168 494,168 495,168 496,168 497,168 497,168 498,168 499,168 500,168 501,168 502,168 503,168 504,168 504,168 505,168 506,168 507,168 508,168 509,168 510,168 511,169 512,169 512,169 513,169 514,169 515,169 516,169 517,169 518,169 519,169 520,169 520,169 521,169 522,169 523,169 524,169 525,169 526,169 527,169 528,169 528,169 529,169 530,169 531,169 532,169 533,169 534,169 535,169 536,170 536,170 537,170 538,170 539,170 540,170 541,170 542,170 543,170 543,170 544,170 545,170 546,170 547,170 548,170 549,170 550,170 551,170 551,170 552,170 553,170 554,170 555,170 556,170 557,170 558,170 559,170 559,170 560,170 561,171 562,171 563,171 564,171 565,171 566,171 567,171 567,171 568,171 569,171 570,171 571,171 572,171 573,171 574,171 575,171 575,171 576,171 577,171 578,171 579,171 580,171 581,171 582,172 582,172 583,172 584,172 585,172 586,172 587,172 588,172 589,172 590,172 590,172 591,172 592,172 593,172 594,172 595,172 596,172 597,172 598,172 598,172 599,172 600,172 601,172 602,172 603,173 604,173 605,173 606,173 606,173 607,173 608,173 609,173 610,173 611,173 612,173 613,173 614,173 614,173 615,173 616,173 617,173 618,173 619,173 620,173 621,173 621,173 622,173 623,173 624,173 625,173 626,173 627,173 628,173 629,173 629,173 630,173 631,173 632,173 633,174 634,174 635,174 636,174 637,174 637,174 638,174 639,174 640,174 641,174 642,174 643,174 644,174 645,174 645,174 646,178 647,178 648,178 649,178 650,178 651,178 652,178 653,178 653,178 654,178 655,178 656,178 657,178 658,178 659,178 660,178 660,178 661,178 662,178 663,178 664,178 665,178 666,178 667,178 668,178 668,178 669,178 670,178 671,178 672,178 673,178 674,178 675,178 676,178 676,178 677,178 678,178 679,178 680,179 681,179 682,179 683,179 684,179 684,179 685,179 686,179 687,179 688,179 689,179 690,179 691,179 692,179 692,179 693,179 694,179 695,179 696,179 697,179 698,179 699,179 699,179 700,179 701,179 702,179 703,179 704,179 705,179 706,179 707,179 707,179 708,179 709,179 710,179 711,179 712,179 713,179 714,180 715,180 715,180 716,180 717,180 718,180 719,180 720,180 721,180 722,180 723,180 723,180 724,180 725,180 726,180 727,180 728,180 729,180 730,180 731,180 731,180 732,180 733,180 734,180 735,180 736,180 737,180 738,180 738,180 739,180 740,180 741,180 742,180 743,180 744,180 745,180 746,180 746,180 747,180 748,180 749,180 750,180 751,180 752,180 753,180 754,180 754,180 755,180 756,180 757,180 758,180 759,180 760,180 761,180 762,180 762,180 763,180 764,181 765,181 766,181 767,181 768,181 769,181 770,181 770,181 771,181 772,181 773,181 774,181 775,181 776,181 777,181 777,181 778,181 779,181 780,181 781,181 782,181 783,181 784,181 785,181 785,181 786,181 787,181 788,181 789,181 790,181 791,181 792,181 793,181 793,181 794,181 795,181 796,181 797,181 798,181 799,181 800,181 801,181 801,181 802,181 803,181 804,181 805,181 806,181 807,181 808,181 809,181 809,181 810,182 811,182 812,182 813,182 814,182 815,182 816,182 816,182 817,182 818,182 819,182 820,182 821,182 822,182 823,182 824,182 824,182 825,182 826,182 827,182 828,182 829,182 830,182 831,182 832,182 832,182 833,182 834,182 835,182 836,182 837,182 838,182 839,182 840,182 840,182 841,182 842,182 843,183 844,183 845,183 846,183 847,183 848,183 848,183 849,183 850,183 851,183 852,183 853,183 854,183 855,183 856,183 856,183 857,183 858,184 859,184 860,184 861,184 862,184 863,184 863,184 864,184 865,184 866,184 867,184 868,184 869,184 870,184 871,184 871,184 872,184 873,184 874,184 875,184 876,184 877,184 878,184 879,184 879,184 880,184 881,184 882,184 883,184 884,184 885,184 886,184 887,184 887,184 888,184 889,184 890,184 891,184 892,184 893,184 894,184 895,184 895,184 896,184 897,184 898,184 899,184 900,184 901,184 902,184 902,184 903,184 904,184 905,184 906,184 907,184 908,184 909,184 910,185 910,185 911,185 912,185 913,185 914,185 915,185 916,185 917,185 918,185 918,185 919,185 920,185 921,185 922,185 923,185 924,185 925,185 926,185 926,185 927,185 928,185 929,185 930,185 931,185 932,185 933,185 934,185 934,185 935,185 936,185 937,185 938,185 939,185 940,185 941,185 941,185 942,185 943,185 944,185 945,185 946,185 947,185 948,185 949,185 949,185 950,185 951,185 952,185 953,185 954,185 955,185 956,185 957,185 957,185 958,185 959,185 960,185 961,185 962,185 963,185 964,185 965,186 965,186 973,186 "/>
<polygon opacity="1" fill="#E6194B" points="78,699 79,699 80,699 81,699 82,699 83,699 83,699 84,699 85,699 86,699 87,699 88,699 89,699 90,699 91,699 91,699 92,699 93,699 94,699 95,699 96,699 97,699 98,699 99,699 99,699 100,699 101,699 102,699 103,699 104,699 105,699 106,699 107,699 107,699 108,699 109,699 110,699 111,699 112,699 113,699 114,699 114,699 115,699 116,699 117,699 118,699 119,699 120,699 121,699 122,699 122,699 123,699 124,699 125,699 126,699 127,699 128,699 129,699 130,699 130,699 131,699 132,699 133,699 134,699 135,699 136,699 137,699 138,699 138,699 139,699 140,699 141,699 142,699 143,699 144,699 145,699 146,699 146,699 147,699 148,699 149,699 150,699 151,699 152,699 153,699 153,699 154,699 155,699 156,699 157,699 158,699 159,699 160,699 161,699 161,699 162,699 163,699 164,699 165,699 166,699 167,699 168,699 169,699 169,699 170,699 171,699 172,699 173,699 174,699 175,699 176,699 177,699 177,699 178,699 179,699 180,699 181,699 182,699 183,699 184,699 185,699 185,699 186,699 187,699 188,699 189,699 190,699 191,699 192,699 192,699 193,699 194,699 195,699 196,699 197,699 198,699 199,699 200,699 200,699 201,699 202,699 203,699 204,699 205,699 206,699 207,699 208,699 208,699 209,699 210,699 211,699 212,699 213,699 214,699 215,699 216,699 216,699 217,699 218,699 219,699 220,699 221,699 222,699 223,699 224,699 224,699 225,698 226,689 227,678 228,660 229,634 230,609 231,576 231,535 232,498 233,454 234,411 235,359 236,295 237,217 238,186 238,186 239,186 239,186 240,186 241,186 242,186 243,186 244,186 245,186 246,186 247,186 247,186 248,186 249,186 250,186 251,186 252,186 253,186 254,186 255,186 255,186 256,186 257,186 258,186 259,186 260,186 261,186 262,186 263,186 263,186 264,186 265,186 266,186 267,186 268,186 269,186 270,186 270,186 271,186 272,186 273,186 274,186 275,186 276,186 277,186 278,186 278,186 279,186 280,186 281,186 282,186 283,186 284,186 285,186 286,186 286,186 287,186 288,186 289,186 290,186 291,186 292,186 293,186 294,186 294,186 295,186 296,186 297,186 298,186 299,186 300,186 301,186 302,186 302,186 303,186 304,186 305,186 306,186 307,186 308,186 309,186 309,186 310,186 311,186 312,186 313,186 314,186 315,186 316,186 317,186 317,186 318,186 319,186 320,186 321,186 322,186 323,186 324,186 325,186 325,186 326,186 327,186 328,186 329,186 330,186 331,186 332,186 333,186 333,186 334,186 335,186 336,186 337,186 338,186 339,186 340,186 341,186 341,186 342,186 343,186 344,186 345,186 346,186 347,186 348,186 348,186 349,186 350,186 351,186 352,186 353,186 354,186 355,186 356,186 356,186 357,186 358,186 359,186 360,186 361,186 362,186 363,186 364,186 364,186 365,186 366,186 367,186 368,186 369,186 370,186 371,186 372,186 372,186 373,186 374,186 375,186 376,186 377,186 378,186 379,186 380,186 380,186 381,186 382,186 383,186 384,186 385,186 386,186 387,186 387,186 388,186 389,186 390,186 391,186 392,186 393,186 394,186 395,186 395,186 396,186 397,186 398,186 399,186 400,186 401,186 402,186 403,186 403,186 404,186 405,186 406,186 407,186 408,186 409,186 410,186 411,186 411,186 412,186 413,186 414,186 415,186 416,186 417,186 418,186 419,186 419,186 420,186 421,186 422,186 423,186 424,186 425,186 426,186 426,186 427,186 428,186 429,186 430,186 431,186 432,186 433,186 434,186 434,186 435,186 436,186 437,186 438,186 439,186 440,186 441,186 442,186 442,186 443,186 444,186 445,186 446,186 447,186 448,186 449,186 450,186 450,186 451,186 452,186 453,186 454,186 455,186 456,186 457,186 458,186 458,186 459,186 460,186 461,186 462,186 463,186 464,186 465,186 465,186 466,186 467,186 468,186 469,186 470,186 471,186 472,186 473,186 473,186 474,186 475,186 476,186 477,186 478,186 479,186 480,186 481,186 481,186 482,186 483,186 484,186 485,186 486,186 487,186 488,186 489,186 489,186 490,186 491,186 492,186 493,186 494,186 495,186 496,186 497,186 497,186 498,186 499,186 500,186 501,186 502,186 503,186 504,186 504,186 505,186 506,186 507,186 508,186 509,186 510,186 511,186 512,186 512,186 513,186 514,186 515,186 516,186 517,186 518,186 519,186 520,186 520,186 521,186 522,186 523,186 524,186 525,186 526,186 527,186 528,186 528,186 529,186 530,186 531,186 532,186 533,186 534,186 535,186 536,186 536,186 537,186 538,186 539,186 540,186 541,186 542,186 543,186 543,186 544,186 545,186 546,186 547,186 548,186 549,186 550,186 551,186 551,186 552,186 553,186 554,186 555,186 556,186 557,186 558,186 559,186 559,186 560,186 561,186 562,186 563,186 564,186 565,186 566,186 567,186 567,186 568,186 569,186 570,186 571,186 572,186 573,186 574,186 575,186 575,186 576,186 577,186 578,186 579,186 580,186 581,186 582,186 582,186 583,186 584,186 585,186 586,186 587,186 588,186 589,186 590,186 590,186 591,186 592,186 593,186 594,186 595,186 596,186 597,186 598,186 598,186 599,186 600,186 601,186 602,186 603,186 604,186 605,186 606,186 606,186 607,186 608,186 609,186 610,186 611,186 612,186 613,186 614,186 614,186 615,186 616,186 617,186 618,186 619,186 620,186 621,186 621,186 622,186 623,186 624,186 625,186 626,186 627,186 628,186 629,186 629,186 630,186 631,186 632,186 633,186 634,186 635,186 636,186 637,186 637,186 638,186 639,186 640,186 641,186 642,186 643,186 644,186 645,186 645,186 646,186 647,186 648,186 649,186 650,186 651,186 652,186 653,186 653,186 654,186 655,186 656,186 657,186 658,186 659,186 660,186 660,186 661,186 662,186 663,186 664,186 665,186 666,186 667,186 668,186 668,186 669,186 670,186 671,186 672,186 673,186 674,186 675,186 676,186 676,186 677,186 678,186 679,186 680,186 681,186 682,186 683,186 684,186 684,186 685,186 686,186 687,186 688,186 689,186 690,186 691,186 692,186 692,186 693,186 694,186 695,186 696,186 697,186 698,186 699,186 699,186 700,186 701,186 702,186 703,186 704,186 705,186 706,186 707,186 707,186 708,186 709,186 710,186 711,186 712,186 713,186 714,186 715,186 715,186 716,186 717,186 718,186 719,186 720,186 721,186 722,186 723,186 723,186 724,186 725,186 726,186 727,186 728,186 729,186 730,186 731,186 731,186 732,186 733,186 734,186 735,186 736,186 737,186 738,186 738,186 739,186 740,186 741,186 742,186 743,186 744,186 745,186 746,186 746,186 747,186 748,186 749,186 750,186 751,186 752,186 753,186 754,186 754,186 755,186 756,186 757,186 758,186 759,186 760,186 761,186 762,186 762,186 763,186 764,186 765,186 766,186 767,186 768,186 769,186 770,186 770,186 771,186 772,186 773,186 774,186 775,186 776,186 777,186 777,186 778,186 779,186 780,186 781,186 782,186 783,186 784,186 785,186 785,186 786,186 787,186 788,186 789,186 790,186 791,186 792,186 793,186 793,186 794,186 795,186 796,186 797,186 798,186 799,186 800,186 801,186 801,186 802,186 803,186 804,186 805,186 806,186 807,186 808,186 809,186 809,186 810,186 811,186 812,186 813,186 814,186 815,186 816,186 816,186 817,186 818,186 819,186 820,186 821,186 822,186 823,186 824,186 824,186 825,186 826,186 827,186 828,186 829,186 830,186 831,186 832,186 832,186 833,186 834,186 835,186 836,186 837,186 838,186 839,186 840,186 840,186 841,186 842,186 843,186 844,186 845,186 846,186 847,186 848,186 848,186 849,186 850,186 851,186 852,186 853,186 854,186 855,186 856,186 856,186 857,186 858,186 859,186 860,186 861,186 862,186 863,186 863,186 864,186 865,186 866,186 867,186 868,186 869,186 870,186 871,186 871,186 872,186 873,186 874,186 875,186 876,186 877,186 878,186 879,186 879,186 880,186 881,186 882,186 883,186 884,186 885,186 886,186 887,186 887,186 888,186 889,186 890,186 891,186 892,186 893,186 894,186 895,186 895,186 896,186 897,186 898,186 899,186 900,186 901,186 902,186 902,186 903,186 904,186 905,186 906,186 907,186 908,186 909,186 910,186 910,186 911,186 912,186 913,186 914,186 915,186 916,186 917,186 918,186 918,186 919,186 920,186 921,186 922,186 923,186 924,186 925,186 926,186 926,186 927,186 928,186 929,186 930,186 931,186 932,186 933,186 934,186 934,186 935,186 936,186 937,186 938,186 939,186 940,186 941,186 941,186 942,186 943,186 944,186 945,186 946,186 947,186 948,186 949,186 949,186 950,186 951,186 952,186 953,186 954,186 955,186 956,186 957,186 957,186 958,186 959,186 960,186 961,186 962,186 963,186 964,186 965,186 965,186 973,186 973,699 78,699 "/>
<polyline fill="none" opacity="1" stroke="#E6194B" stroke-width="1" points="78,699 79,699 80,699 81,699 82,699 83,699 83,699 84,699 85,699 86,699 87,699 88,699 89,699 90,699 91,699 91,699 92,699 93,699 94,699 95,699 96,699 97,699 98,699 99,699 99,699 100,699 101,699 102,699 103,699 104,699 105,699 106,699 107,699 107,699 108,699 109,699 110,699 111,699 112,699 113,699 114,699 114,699 115,699 116,699 117,699 118,699 119,699 120,699 121,699 122,699 122,699 123,699 124,699 125,699 126,699 127,699 128,699 129,699 130,699 130,699 131,699 132,699 133,699 134,699 135,699 136,699 137,699 138,699 138,699 139,699 140,699 141,699 142,699 143,699 144,699 145,699 146,699 146,699 147,699 148,699 149,699 150,699 151,699 152,699 153,699 153,699 154,699 155,699 156,699 157,699 158,699 159,699 160,699 161,699 161,699 162,699 163,699 164,699 165,699 166,699 167,699 168,699 169,699 169,699 170,699 171,699 172,699 173,699 174,699 175,699 176,699 177,699 177,699 178,699 179,699 180,699 181,699 182,699 183,699 184,699 185,699 185,699 186,699 187,699 188,699 189,699 190,699 191,699 192,699 192,699 193,699 194,699 195,699 196,699 197,699 198,699 199,699 200,699 200,699 201,699 202,699 203,699 204,699 205,699 206,699 207,699 208,699 208,699 209,699 210,699 211,699 212,699 213,699 214,699 215,699 216,699 216,699 217,699 218,699 219,699 220,699 221,699 222,699 223,699 224,699 224,699 225,698 226,689 227,678 228,660 229,634 230,609 231,576 231,535 232,498 233,454 234,411 235,359 236,295 237,217 238,186 238,186 239,186 239,186 240,186 241,186 242,186 243,186 244,186 245,186 246,186 247,186 247,186 248,186 249,186 250,186 251,186 252,186 253,186 254,186 255,186 255,186 256,186 257,186 258,186 259,186 260,186 261,186 262,186 263,186 263,186 264,186 265,186 266,186 267,186 268,186 269,186 270,186 270,186 271,186 272,186 273,186 274,186 275,186 276,186 277,186 278,186 278,186 279,186 280,186 281,186 282,186 283,186 284,186 285,186 286,186 286,186 287,186 288,186 289,186 290,186 291,186 292,186 293,186 294,186 294,186 295,186 296,186 297,186 298,186 299,186 300,186 301,186 302,186 302,186 303,186 304,186 305,186 306,186 307,186 308,186 309,186 309,186 310,186 311,186 312,186 313,186 314,186 315,186 316,186 317,186 317,186 318,186 319,186 320,186 321,186 322,186 323,186 324,186 325,186 325,186 326,186 327,186 328,186 329,186 330,186 331,186 332,186 333,186 333,186 334,186 335,186 336,186 337,186 338,186 339,186 340,186 341,186 341,186 342,186 343,186 344,186 345,186 346,186 347,186 348,186 348,186 349,186 350,186 351,186 352,186 353,186 354,186 355,186 356,186 356,186 357,186 358,186 359,186 360,186 361,186 362,186 363,186 364,186 364,186 365,186 366,186 367,186 368,186 369,186 370,186 371,186 372,186 372,186 373,186 374,186 375,186 376,186 377,186 378,186 379,186 380,186 380,186 381,186 382,186 383,186 384,186 385,186 386,186 387,186 387,186 388,186 389,186 390,186 391,186 392,186 393,186 394,186 395,186 395,186 396,186 397,186 398,186 399,186 400,186 401,186 402,186 403,186 403,186 404,186 405,186 406,186 407,186 408,186 409,186 410,186 411,186 411,186 412,186 413,186 414,186 415,186 416,186 417,186 418,186 419,186 419,186 420,186 421,186 422,186 423,186 424,186 425,186 426,186 426,186 427,186 428,186 429,186 430,186 431,186 432,186 433,186 434,186 434,186 435,186 436,186 437,186 438,186 439,186 440,186 441,186 442,186 442,186 443,186 444,186 445,186 446,186 447,186 448,186 449,186 450,186 450,186 451,186 452,186 453,186 454,186 455,186 456,186 457,186 458,186 458,186 459,186 460,186 461,186 462,186 463,186 464,186 465,186 465,186 466,186 467,186 468,186 469,186 470,186 471,186 472,186 473,186 473,186 474,186 475,186 476,186 477,186 478,186 479,186 480,186 481,186 481,186 482,186 483,186 484,186 485,186 486,186 487,186 488,186 489,186 489,186 490,186 491,186 492,186 493,186 494,186 495,186 496,186 497,186 497,186 498,186 499,186 500,186 501,186 502,186 503,186 504,186 504,186 505,186 506,186 507,186 508,186 509,186 510,186 511,186 512,186 512,186 513,186 514,186 515,186 516,186 517,186 518,186 519,186 520,186 520,186 521,186 522,186 523,186 524,186 525,186 526,186 527,186 528,186 528,186 529,186 530,186 531,186 532,186 533,186 534,186 535,186 536,186 536,186 537,186 538,186 539,186 540,186 541,186 542,186 543,186 543,186 544,186 545,186 546,186 547,186 548,186 549,186 550,186 551,186 551,186 552,186 553,186 554,186 555,186 556,186 557,186 558,186 559,186 559,186 560,186 561,186 562,186 563,186 564,186 565,186 566,186 567,186 567,186 568,186 569,186 570,186 571,186 572,186 573,186 574,186 575,186 575,186 576,186 577,186 578,186 579,186 580,186 581,186 582,186 582,186 583,186 584,186 585,186 586,186 587,186 588,186 589,186 590,186 590,186 591,186 592,186 593,186 594,186 595,186 596,186 597,186 598,186 598,186 599,186 600,186 601,186 602,186 603,186 604,186 605,186 606,186 606,186 607,186 608,186 609,186 610,186 611,186 612,186 613,186 614,186 614,186 615,186 616,186 617,186 618,186 619,186 620,186 621,186 621,186 622,186 623,186 624,186 625,186 626,186 627,186 628,186 629,186 629,186 630,186 631,186 632,186 633,186 634,186 635,186 636,186 637,186 637,186 638,186 639,186 640,186 641,186 642,186 643,186 644,186 645,186 645,186 646,186 647,186 648,186 649,186 650,186 651,186 652,186 653,186 653,186 654,186 655,186 656,186 657,186 658,186 659,186 660,186 660,186 661,186 662,186 663,186 664,186 665,186 666,186 667,186 668,186 668,186 669,186 670,186 671,186 672,186 673,186 674,186 675,186 676,186 676,186 677,186 678,186 679,186 680,186 681,186 682,186 683,186 684,186 684,186 685,186 686,186 687,186 688,186 689,186 690,186 691,186 692,186 692,186 693,186 694,186 695,186 696,186 697,186 698,186 699,186 699,186 700,186 701,186 702,186 703,186 704,186 705,186 706,186 707,186 707,186 708,186 709,186 710,186 711,186 712,186 713,186 714,186 715,186 715,186 716,186 717,186 718,186 719,186 720,186 721,186 722,186 723,186 723,186 724,186 725,186 726,186 727,186 728,186 729,186 730,186 731,186 731,186 732,186 733,186 734,186 735,186 736,186 737,186 738,186 738,186 739,186 740,186 741,186 742,186 743,186 744,186 745,186 746,186 746,186 747,186 748,186 749,186 750,186 751,186 752,186 753,186 754,186 754,186 755,186 756,186 757,186 758,186 759,186 760,186 761,186 762,186 762,186 763,186 764,186 765,186 766,186 767,186 768,186 769,186 770,186 770,186 771,186 772,186 773,186 774,186 775,186 776,186 777,186 777,186 778,186 779,186 780,186 781,186 782,186 783,186 784,186 785,186 785,186 786,186 787,186 788,186 789,186 790,186 791,186 792,186 793,186 793,186 794,186 795,186 796,186 797,186 798,186 799,186 800,186 801,186 801,186 802,186 803,186 804,186 805,186 806,186 807,186 808,186 809,186 809,186 810,186 811,186 812,186 813,186 814,186 815,186 816,186 816,186 817,186 818,186 819,186 820,186 821,186 822,186 823,186 824,186 824,186 825,186 826,186 827,186 828,186 829,186 830,186 831,186 832,186 832,186 833,186 834,186 835,186 836,186 837,186 838,186 839,186 840,186 840,186 841,186 842,186 843,186 844,186 845,186 846,186 847,186 848,186 848,186 849,186 850,186 851,186 852,186 853,186 854,186 855,186 856,186 856,186 857,186 858,186 859,186 860,186 861,186 862,186 863,186 863,186 864,186 865,186 866,186 867,186 868,186 869,186 870,186 871,186 871,186 872,186 873,186 874,186 875,186 876,186 877,186 878,186 879,186 879,186 880,186 881,186 882,186 883,186 884,186 885,186 886,186 887,186 887,186 888,186 889,186 890,186 891,186 892,186 893,186 894,186 895,186 895,186 896,186 897,186 898,186 899,186 900,186 901,186 902,186 902,186 903,186 904,186 905,186 906,186 907,186 908,186 909,186 910,186 910,186 911,186 912,186 913,186 914,186 915,186 916,186 917,186 918,186 918,186 919,186 920,186 921,186 922,186 923,186 924,186 925,186 926,186 926,186 927,186 928,186 929,186 930,186 931,186 932,186 933,186 934,186 934,186 935,186 936,186 937,186 938,186 939,186 940,186 941,186 941,186 942,186 943,186 944,186 945,186 946,186 947,186 948,186 949,186 949,186 950,186 951,186 952,186 953,186 954,186 955,186 956,186 957,186 957,186 958,186 959,186 960,186 961,186 962,186 963,186 964,186 965,186 965,186 973,186 "/>
<line opacity="0.1" stroke="#000000" stroke-width="1" x1="89" y1="699" x2="89" y2="68"/>
<line opacity="0.1" stroke="#000000" stroke-width="1" x1="101" y1="699" x2="101" y2="68"/>
<line opacity="0.1" stroke="#000000" stroke-width="1" x1="112" y1="699" x2="112" y2="68"/>
<line opacity="0.1" stroke="#000000" stroke-width="1" x1="124" y1="699" x2="124" y2="68"/>
<line opacity="0.1" stroke="#000000" stroke-width="1" x1="136" y1="699" x2="136" y2="68"/>
<line opacity="0.1" stroke="#000000" stroke-width="1" x1="148" y1="699" x2="148" y2="68"/>
<line opacity="0.1" stroke="#000000" stroke-width="1" x1="160" y1="699" x2="160" y2="68"/>
<line opacity="0.1" stroke="#000000" stroke-width="1" x1="172" y1="699" x2="172" y2="68"/>
<line opacity="0.1" stroke="#000000" stroke-width="1" x1="184" y1="699" x2="184" y2="68"/>
<line opacity="0.1" stroke="#000000" stroke-width="1" x1="195" y1="699" x2="195" y2="68"/>
<line opacity="0.1" stroke="#000000" stroke-width="1" x1="207" y1="699" x2="207" y2="68"/>
<line opacity="0.1" stroke="#000000" stroke-width="1" x1="219" y1="699" x2="219" y2="68"/>
<line opacity="0.1" stroke="#000000" stroke-width="1" x1="231" y1="699" x2="231" y2="68"/>
<line opacity="0.1" stroke="#000000" stroke-width="1" x1="243" y1="699" x2="243" y2="68"/>
<line opacity="0.1" stroke="#000000" stroke-width="1" x1="255" y1="699" x2="255" y2="68"/>
<line opacity="0.1" stroke="#000000" stroke-width="1" x1="267" y1="699" x2="267" y2="68"/>
<line opacity="0.1" stroke="#000000" stroke-width="1" x1="278" y1="699" x2="278" y2="68"/>
<line opacity="0.1" stroke="#000000" stroke-width="1" x1="290" y1="699" x2="290" y2="68"/>
<line opacity="0.1" stroke="#000000" stroke-width="1" x1="302" y1="699" x2="302" y2="68"/>
<line opacity="0.1" stroke="#000000" stroke-width="1" x1="314" y1="699" x2="314" y2="68"/>
<line opacity="0.1" stroke="#000000" stroke-width="1" x1="326" y1="699" x2="326" y2="68"/>
<line opacity="0.1" stroke="#000000" stroke-width="1" x1="338" y1="699" x2="338" y2="68"/>
<line opacity="0.1" stroke="#000000" stroke-width="1" x1="350" y1="699" x2="350" y2="68"/>
<line opacity="0.1" stroke="#000000" stroke-width="1" x1="361" y1="699" x2="361" y2="68"/>
<line opacity="0.1" stroke="#000000" stroke-width="1" x1="373" y1="699" x2="373" y2="68"/>
<line opacity="0.1" stroke="#000000" stroke-width="1" x1="385" y1="699" x2="385" y2="68"/>
<line opacity="0.1" stroke="#000000" stroke-width="1" x1="397" y1="699" x2="397" y2="68"/>
<line opacity="0.1" stroke="#000000" stroke-width="1" x1="409" y1="699" x2="409" y2="68"/>
<line opacity="0.1" stroke="#000000" stroke-width="1" x1="421" y1="699" x2="421" y2="68"/>
<line opacity="0.1" stroke="#000000" stroke-width="1" x1="433" y1="699" x2="433" y2="68"/>
<line opacity="0.1" stroke="#000000" stroke-width="1" x1="444" y1="699" x2="444" y2="68"/>
<line opacity="0.1" stroke="#000000" stroke-width="1" x1="456" y1="699" x2="456" y2="68"/>
<line opacity="0.1" stroke="#000000" stroke-width="1" x1="468" y1="699" x2="468" y2="68"/>
<line opacity="0.1" stroke="#000000" stroke-width="1" x1="480" y1="699" x2="480" y2="68"/>
<line opacity="0.1" stroke="#000000" stroke-width="1" x1="492" y1="699" x2="492" y2="68"/>
<line opacity="0.1" stroke="#000000" stroke-width="1" x1="504" y1="699" x2="504" y2="68"/>
<line opacity="0.1" stroke="#000000" stroke-width="1" x1="516" y1="699" x2="516" y2="68"/>
<line opacity="0.1" stroke="#000000" stroke-width="1" x1="527" y1="699" x2="527" y2="68"/>
<line opacity="0.1" stroke="#000000" stroke-width="1" x1="539" y1="699" x2="539" y2="68"/>
<line opacity="0.1" stroke="#000000" stroke-width="1" x1="551" y1="699" x2="551" y2="68"/>
<line opacity="0.1" stroke="#000000" stroke-width="1" x1="563" y1="699" x2="563" y2="68"/>
<line opacity="0.1" stroke="#000000" stroke-width="1" x1="575" y1="699" x2="575" y2="68"/>
<line opacity="0.1" stroke="#000000" stroke-width="1" x1="587" y1="699" x2="587" y2="68"/>
<line opacity="0.1" stroke="#000000" stroke-width="1" x1="599" y1="699" x2="599" y2="68"/>
<line opacity="0.1" stroke="#000000" stroke-width="1" x1="610" y1="699" x2="610" y2="68"/>
<line opacity="0.1" stroke="#000000" stroke-width="1" x1="622" y1="699" x2="622" y2="68"/>
<line opacity="0.1" stroke="#000000" stroke-width="1" x1="634" y1="699" x2="634" y2="68"/>
<line opacity="0.1" stroke="#000000" stroke-width="1" x1="646" y1="699" x2="646" y2="68"/>
<line opacity="0.1" stroke="#000000" stroke-width="1" x1="658" y1="699" x2="658" y2="68"/>
<line opacity="0.1" stroke="#000000" stroke-width="1" x1="670" y1="699" x2="670" y2="68"/>
<line opacity="0.1" stroke="#000000" stroke-width="1" x1="682" y1="699" x2="682" y2="68"/>
<line opacity="0.1" stroke="#000000" stroke-width="1" x1="693" y1="699" x2="693" y2="68"/>
<line opacity="0.1" stroke="#000000" stroke-width="1" x1="705" y1="699" x2="705" y2="68"/>
<line opacity="0.1" stroke="#000000" stroke-width="1" x1="717" y1="699" x2="717" y2="68"/>
<line opacity="0.1" stroke="#000000" stroke-width="1" x1="729" y1="699" x2="729" y2="68"/>
<line opacity="0.1" stroke="#000000" stroke-width="1" x1="741" y1="699" x2="741" y2="68"/>
<line opacity="0.1" stroke="#000000" stroke-width="1" x1="753" y1="699" x2="753" y2="68"/>
<line opacity="0.1" stroke="#000000" stroke-width="1" x1="765" y1="699" x2="765" y2="68"/>
<line opacity="0.1" stroke="#000000" stroke-width="1" x1="776" y1="699" x2="776" y2="68"/>
<line opacity="0.1" stroke="#000000" stroke-width="1" x1="788" y1="699" x2="788" y2="68"/>
<line opacity="0.1" stroke="#000000" stroke-width="1" x1="800" y1="699" x2="800" y2="68"/>
<line opacity="0.1" stroke="#000000" stroke-width="1" x1="812" y1="699" x2="812" y2="68"/>
<line opacity="0.1" stroke="#000000" stroke-width="1" x1="824" y1="699" x2="824" y2="68"/>
<line opacity="0.1" stroke="#000000" stroke-width="1" x1="836" y1="699" x2="836" y2="68"/>
<line opacity="0.1" stroke="#000000" stroke-width="1" x1="848" y1="699" x2="848" y2="68"/>
<line opacity="0.1" stroke="#000000" stroke-width="1" x1="859" y1="699" x2="859" y2="68"/>
<line opacity="0.1" stroke="#000000" stroke-width="1" x1="871" y1="699" x2="871" y2="68"/>
<line opacity="0.1" stroke="#000000" stroke-width="1" x1="883" y1="699" x2="883" y2="68"/>
<line opacity="0.1" stroke="#000000" stroke-width="1" x1="895" y1="699" x2="895" y2="68"/>
<line opacity="0.1" stroke="#000000" stroke-width="1" x1="907" y1="699" x2="907" y2="68"/>
<line opacity="0.1" stroke="#000000" stroke-width="1" x1="919" y1="699" x2="919" y2="68"/>
<line opacity="0.1" stroke="#000000" stroke-width="1" x1="931" y1="699" x2="931" y2="68"/>
<line opacity="0.1" stroke="#000000" stroke-width="1" x1="942" y1="699" x2="942" y2="68"/>
<line opacity="0.1" stroke="#000000" stroke-width="1" x1="954" y1="699" x2="954" y2="68"/>
<line opacity="0.1" stroke="#000000" stroke-width="1" x1="966" y1="699" x2="966" y2="68"/>
<line opacity="0.1" stroke="#000000" stroke-width="1" x1="78" y1="699" x2="973" y2="699"/>
<line opacity="0.1" stroke="#000000" stroke-width="1" x1="78" y1="690" x2="973" y2="690"/>
<line opacity="0.1" stroke="#000000" stroke-width="1" x1="78" y1="682" x2="973" y2="682"/>
<line opacity="0.1" stroke="#000000" stroke-width="1" x1="78" y1="674" x2="973" y2="674"/>
<line opacity="0.1" stroke="#000000" stroke-width="1" x1="78" y1="666" x2="973" y2="666"/>
<line opacity="0.1" stroke="#000000" stroke-width="1" x1="78" y1="658" x2="973" y2="658"/>
<line opacity="0.1" stroke="#000000" stroke-width="1" x1="78" y1="650" x2="973" y2="650"/>
<line opacity="0.1" stroke="#000000" stroke-width="1" x1="78" y1="642" x2="973" y2="642"/>
<line opacity="0.1" stroke="#000000" stroke-width="1" x1="78" y1="634" x2="973" y2="634"/>
<line opacity="0.1" stroke="#000000" stroke-width="1" x1="78" y1="626" x2="973" y2="626"/>
<line opacity="0.1" stroke="#000000" stroke-width="1" x1="78" y1="617" x2="973" y2="617"/>
<line opacity="0.1" stroke="#000000" stroke-width="1" x1="78" y1="609" x2="973" y2="609"/>
<line opacity="0.1" stroke="#000000" stroke-width="1" x1="78" y1="601" x2="973" y2="601"/>
<line opacity="0.1" stroke="#000000" stroke-width="1" x1="78" y1="593" x2="973" y2="593"/>
<line opacity="0.1" stroke="#000000" stroke-width="1" x1="78" y1="585" x2="973" y2="585"/>
<line opacity="0.1" stroke="#000000" stroke-width="1" x1="78" y1="577" x2="973" y2="577"/>
<line opacity="0.1" stroke="#000000" stroke-width="1" x1="78" y1="569" x2="973" y2="569"/>
<line opacity="0.1" stroke="#000000" stroke-width="1" x1="78" y1="561" x2="973" y2="561"/>
<line opacity="0.1" stroke="#000000" stroke-width="1" x1="78" y1="553" x2="973" y2="553"/>
<line opacity="0.1" stroke="#000000" stroke-width="1" x1="78" y1="544" x2="973" y2="544"/>
<line opacity="0.1" stroke="#000000" stroke-width="1" x1="78" y1="536" x2="973" y2="536"/>
<line opacity="0.1" stroke="#000000" stroke-width="1" x1="78" y1="528" x2="973" y2="528"/>
<line opacity="0.1" stroke="#000000" stroke-width="1" x1="78" y1="520" x2="973" y2="520"/>
<line opacity="0.1" stroke="#000000" stroke-width="1" x1="78" y1="512" x2="973" y2="512"/>
<line opacity="0.1" stroke="#000000" stroke-width="1" x1="78" y1="504" x2="973" y2="504"/>
<line opacity="0.1" stroke="#000000" stroke-width="1" x1="78" y1="496" x2="973" y2="496"/>
<line opacity="0.1" stroke="#000000" stroke-width="1" x1="78" y1="488" x2="973" y2="488"/>
<line opacity="0.1" stroke="#000000" stroke-width="1" x1="78" y1="480" x2="973" y2="480"/>
<line opacity="0.1" stroke="#000000" stroke-width="1" x1="78" y1="471" x2="973" y2="471"/>
<line opacity="0.1" stroke="#000000" stroke-width="1" x1="78" y1="463" x2="973" y2="463"/>
<line opacity="0.1" stroke="#000000" stroke-width="1" x1="78" y1="455" x2="973" y2="455"/>
<line opacity="0.1" stroke="#000000" stroke-width="1" x1="78" y1="447" x2="973" y2="447"/>
<line opacity="0.1" stroke="#000000" stroke-width="1" x1="78" y1="439" x2="973" y2="439"/>
<line opacity="0.1" stroke="#000000" stroke-width="1" x1="78" y1="431" x2="973" y2="431"/>
<line opacity="0.1" stroke="#000000" stroke-width="1" x1="78" y1="423" x2="973" y2="423"/>
<line opacity="0.1" stroke="#000000" stroke-width="1" x1="78" y1="415" x2="973" y2="415"/>
<line opacity="0.1" stroke="#000000" stroke-width="1" x1="78" y1="407" x2="973" y2="407"/>
<line opacity="0.1" stroke="#000000" stroke-width="1" x1="78" y1="398" x2="973" y2="398"/>
<line opacity="0.1" stroke="#000000" stroke-width="1" x1="78" y1="390" x2="973" y2="390"/>
<line opacity="0.1" stroke="#000000" stroke-width="1" x1="78" y1="382" x2="973" y2="382"/>
<line opacity="0.1" stroke="#000000" stroke-width="1" x1="78" y1="374" x2="973" y2="374"/>
<line opacity="0.1" stroke="#000000" stroke-width="1" x1="78" y1="366" x2="973" y2="366"/>
<line opacity="0.1" stroke="#000000" stroke-width="1" x1="78" y1="358" x2="973" y2="358"/>
<line opacity="0.1" stroke="#000000" stroke-width="1" x1="78" y1="350" x2="973" y2="350"/>
<line opacity="0.1" stroke="#000000" stroke-width="1" x1="78" y1="342" x2="973" y2="342"/>
<line opacity="0.1" stroke="#000000" stroke-width="1" x1="78" y1="334" x2="973" y2="334"/>
<line opacity="0.1" stroke="#000000" stroke-width="1" x1="78" y1="325" x2="973" y2="325"/>
<line opacity="0.1" stroke="#000000" stroke-width="1" x1="78" y1="317" x2="973" y2="317"/>
<line opacity="0.1" stroke="#000000" stroke-width="1" x1="78" y1="309" x2="973" y2="309"/>
<line opacity="0.1" stroke="#000000" stroke-width="1" x1="78" y1="301" x2="973" y2="301"/>
<line opacity="0.1" stroke="#000000" stroke-width="1" x1="78" y1="293" x2="973" y2="293"/>
<line opacity="0.1" stroke="#000000" stroke-width="1" x1="78" y1="285" x2="973" y2="285"/>
<line opacity="0.1" stroke="#000000" stroke-width="1" x1="78" y1="277" x2="973" y2="277"/>
<line opacity="0.1" stroke="#000000" stroke-width="1" x1="78" y1="269" x2="973" y2="269"/>
<line opacity="0.1" stroke="#000000" stroke-width="1" x1="78" y1="261" x2="973" y2="261"/>
<line opacity="0.1" stroke="#000000" stroke-width="1" x1="78" y1="252" x2="973" y2="252"/>
<line opacity="0.1" stroke="#000000" stroke-width="1" x1="78" y1="244" x2="973" y2="244"/>
<line opacity="0.1" stroke="#000000" stroke-width="1" x1="78" y1="236" x2="973" y2="236"/>
<line opacity="0.1" stroke="#000000" stroke-width="1" x1="78" y1="228" x2="973" y2="228"/>
<line opacity="0.1" stroke="#000000" stroke-width="1" x1="78" y1="220" x2="973" y2="220"/>
<line opacity="0.1" stroke="#000000" stroke-width="1" x1="78" y1="212" x2="973" y2="212"/>
<line opacity="0.1" stroke="#000000" stroke-width="1" x1="78" y1="204" x2="973" y2="204"/>
<line opacity="0.1" stroke="#000000" stroke-width="1" x1="78" y1="196" x2="973" y2="196"/>
<line opacity="0.1" stroke="#000000" stroke-width="1" x1="78" y1="188" x2="973" y2="188"/>
<line opacity="0.1" stroke="#000000" stroke-width="1" x1="78" y1="179" x2="973" y2="179"/>
<line opacity="0.1" stroke="#000000" stroke-width="1" x1="78" y1="171" x2="973" y2="171"/>
<line opacity="0.1" stroke="#000000" stroke-width="1" x1="78" y1="163" x2="973" y2="163"/>
<line opacity="0.1" stroke="#000000" stroke-width="1" x1="78" y1="155" x2="973" y2="155"/>
<line opacity="0.1" stroke="#000000" stroke-width="1" x1="78" y1="147" x2="973" y2="147"/>
<line opacity="0.1" stroke="#000000" stroke-width="1" x1="78" y1="139" x2="973" y2="139"/>
<line opacity="0.1" stroke="#000000" stroke-width="1" x1="78" y1="131" x2="973" y2="131"/>
<line opacity="0.1" stroke="#000000" stroke-width="1" x1="78" y1="123" x2="973" y2="123"/>
<line opacity="0.1" stroke="#000000" stroke-width="1" x1="78" y1="115" x2="973" y2="115"/>
<line opacity="0.1" stroke="#000000" stroke-width="1" x1="78" y1="106" x2="973" y2="106"/>
<line opacity="0.1" stroke="#000000" stroke-width="1" x1="78" y1="98" x2="973" y2="98"/>
<line opacity="0.1" stroke="#000000" stroke-width="1" x1="78" y1="90" x2="973" y2="90"/>
<line opacity="0.1" stroke="#000000" stroke-width="1" x1="78" y1="82" x2="973" y2="82"/>
<line opacity="0.1" stroke="#000000" stroke-width="1" x1="78" y1="74" x2="973" y2="74"/>
<text x="8" y="384" dy="0.76em" text-anchor="middle" font-family="sans-serif" font-size="9.67741935483871" opacity="1" fill="#000000" transform="rotate(270, 8, 384)">
Memory usage
</text>
<text x="526" y="760" dy="-0.5ex" text-anchor="middle" font-family="sans-serif" font-size="9.67741935483871" opacity="1" fill="#000000">
Time
</text>
<line opacity="0.2" stroke="#000000" stroke-width="1" x1="112" y1="699" x2="112" y2="68"/>
<line opacity="0.2" stroke="#000000" stroke-width="1" x1="231" y1="699" x2="231" y2="68"/>
<line opacity="0.2" stroke="#000000" stroke-width="1" x1="350" y1="699" x2="350" y2="68"/>
<line opacity="0.2" stroke="#000000" stroke-width="1" x1="468" y1="699" x2="468" y2="68"/>
<line opacity="0.2" stroke="#000000" stroke-width="1" x1="587" y1="699" x2="587" y2="68"/>
<line opacity="0.2" stroke="#000000" stroke-width="1" x1="705" y1="699" x2="705" y2="68"/>
<line opacity="0.2" stroke="#000000" stroke-width="1" x1="824" y1="699" x2="824" y2="68"/>
<line opacity="0.2" stroke="#000000" stroke-width="1" x1="942" y1="699" x2="942" y2="68"/>
<line opacity="0.2" stroke="#000000" stroke-width="1" x1="78" y1="699" x2="973" y2="699"/>
<line opacity="0.2" stroke="#000000" stroke-width="1" x1="78" y1="617" x2="973" y2="617"/>
<line opacity="0.2" stroke="#000000" stroke-width="1" x1="78" y1="536" x2="973" y2="536"/>
<line opacity="0.2" stroke="#000000" stroke-width="1" x1="78" y1="455" x2="973" y2="455"/>
<line opacity="0.2" stroke="#000000" stroke-width="1" x1="78" y1="374" x2="973" y2="374"/>
<line opacity="0.2" stroke="#000000" stroke-width="1" x1="78" y1="293" x2="973" y2="293"/>
<line opacity="0.2" stroke="#000000" stroke-width="1" x1="78" y1="212" x2="973" y2="212"/>
<line opacity="0.2" stroke="#000000" stroke-width="1" x1="78" y1="131" x2="973" y2="131"/>
<polyline fill="none" opacity="1" stroke="#000000" stroke-width="1" points="77,68 77,699 "/>
<text x="68" y="699" dy="0.5ex" text-anchor="end" font-family="sans-serif" font-size="9.67741935483871" opacity="1" fill="#000000">
0 MB
</text>
<polyline fill="none" opacity="1" stroke="#000000" stroke-width="1" points="72,699 77,699 "/>
<text x="68" y="617" dy="0.5ex" text-anchor="end" font-family="sans-serif" font-size="9.67741935483871" opacity="1" fill="#000000">
19 MB
</text>
<polyline fill="none" opacity="1" stroke="#000000" stroke-width="1" points="72,617 77,617 "/>
<text x="68" y="536" dy="0.5ex" text-anchor="end" font-family="sans-serif" font-size="9.67741935483871" opacity="1" fill="#000000">
38 MB
</text>
<polyline fill="none" opacity="1" stroke="#000000" stroke-width="1" points="72,536 77,536 "/>
<text x="68" y="455" dy="0.5ex" text-anchor="end" font-family="sans-serif" font-size="9.67741935483871" opacity="1" fill="#000000">
57 MB
</text>
<polyline fill="none" opacity="1" stroke="#000000" stroke-width="1" points="72,455 77,455 "/>
<text x="68" y="374" dy="0.5ex" text-anchor="end" font-family="sans-serif" font-size="9.67741935483871" opacity="1" fill="#000000">
76 MB
</text>
<polyline fill="none" opacity="1" stroke="#000000" stroke-width="1" points="72,374 77,374 "/>
<text x="68" y="293" dy="0.5ex" text-anchor="end" font-family="sans-serif" font-size="9.67741935483871" opacity="1" fill="#000000">
95 MB
</text>
<polyline fill="none" opacity="1" stroke="#000000" stroke-width="1" points="72,293 77,293 "/>
<text x="68" y="212" dy="0.5ex" text-anchor="end" font-family="sans-serif" font-size="9.67741935483871" opacity="1" fill="#000000">
114 MB
</text>
<polyline fill="none" opacity="1" stroke="#000000" stroke-width="1" points="72,212 77,212 "/>
<text x="68" y="131" dy="0.5ex" text-anchor="end" font-family="sans-serif" font-size="9.67741935483871" opacity="1" fill="#000000">
133 MB
</text>
<polyline fill="none" opacity="1" stroke="#000000" stroke-width="1" points="72,131 77,131 "/>
<polyline fill="none" opacity="1" stroke="#000000" stroke-width="1" points="78,700 973,700 "/>
<text x="112" y="710" dy="0.76em" text-anchor="middle" font-family="sans-serif" font-size="9.67741935483871" opacity="1" fill="#000000">
07 17:46:40
</text>
<polyline fill="none" opacity="1" stroke="#000000" stroke-width="1" points="112,700 112,705 "/>
<text x="231" y="710" dy="0.76em" text-anchor="middle" font-family="sans-serif" font-size="9.67741935483871" opacity="1" fill="#000000">
07 20:33:20
</text>
<polyline fill="none" opacity="1" stroke="#000000" stroke-width="1" points="231,700 231,705 "/>
<text x="350" y="710" dy="0.76em" text-anchor="middle" font-family="sans-serif" font-size="9.67741935483871" opacity="1" fill="#000000">
07 23:20:00
</text>
<polyline fill="none" opacity="1" stroke="#000000" stroke-width="1" points="350,700 350,705 "/>
<text x="468" y="710" dy="0.76em" text-anchor="middle" font-family="sans-serif" font-size="9.67741935483871" opacity="1" fill="#000000">
08 02:06:40
</text>
<polyline fill="none" opacity="1" stroke="#000000" stroke-width="1" points="468,700 468,705 "/>
<text x="587" y="710" dy="0.76em" text-anchor="middle" font-family="sans-serif" font-size="9.67741935483871" opacity="1" fill="#000000">
08 04:53:20
</text>
<polyline fill="none" opacity="1" stroke="#000000" stroke-width="1" points="587,700 587,705 "/>
<text x="705" y="710" dy="0.76em" text-anchor="middle" font-family="sans-serif" font-size="9.67741935483871" opacity="1" fill="#000000">
08 07:40:00
</text>
<polyline fill="none" opacity="1" stroke="#000000" stroke-width="1" points="705,700 705,705 "/>
<text x="824" y="710" dy="0.76em" text-anchor="middle" font-family="sans-serif" font-size="9.67741935483871" opacity="1" fill="#000000">
08 10:26:40
</text>
<polyline fill="none" opacity="1" stroke="#000000" stroke-width="1" points="824,700 824,705 "/>
<text x="942" y="710" dy="0.76em" text-anchor="middle" font-family="sans-serif" font-size="9.67741935483871" opacity="1" fill="#000000">
08 13:13:20
</text>
<polyline fill="none" opacity="1" stroke="#000000" stroke-width="1" points="942,700 942,705 "/>
<polyline fill="none" opacity="1" stroke="#000000" stroke-width="1" points="78,67 974,67 "/>
<text x="112" y="58" dy="-0.5ex" text-anchor="middle" font-family="sans-serif" font-size="9.67741935483871" opacity="1" fill="#000000">
+00:49:04
</text>
<polyline fill="none" opacity="1" stroke="#000000" stroke-width="1" points="112,62 112,67 "/>
<text x="231" y="58" dy="-0.5ex" text-anchor="middle" font-family="sans-serif" font-size="9.67741935483871" opacity="1" fill="#000000">
+03:35:44
</text>
<polyline fill="none" opacity="1" stroke="#000000" stroke-width="1" points="231,62 231,67 "/>
<text x="350" y="58" dy="-0.5ex" text-anchor="middle" font-family="sans-serif" font-size="9.67741935483871" opacity="1" fill="#000000">
+06:22:24
</text>
<polyline fill="none" opacity="1" stroke="#000000" stroke-width="1" points="350,62 350,67 "/>
<text x="469" y="58" dy="-0.5ex" text-anchor="middle" font-family="sans-serif" font-size="9.67741935483871" opacity="1" fill="#000000">
+09:09:04
</text>
<polyline fill="none" opacity="1" stroke="#000000" stroke-width="1" points="469,62 469,67 "/>
<text x="587" y="58" dy="-0.5ex" text-anchor="middle" font-family="sans-serif" font-size="9.67741935483871" opacity="1" fill="#000000">
+11:55:44
</text>
<polyline fill="none" opacity="1" stroke="#000000" stroke-width="1" points="587,62 587,67 "/>
<text x="706" y="58" dy="-0.5ex" text-anchor="middle" font-family="sans-serif" font-size="9.67741935483871" opacity="1" fill="#000000">
+14:42:24
</text>
<polyline fill="none" opacity="1" stroke="#000000" stroke-width="1" points="706,62 706,67 "/>
<text x="825" y="58" dy="-0.5ex" text-anchor="middle" font-family="sans-serif" font-size="9.67741935483871" opacity="1" fill="#000000">
+17:29:04
</text>
<polyline fill="none" opacity="1" stroke="#000000" stroke-width="1" points="825,62 825,67 "/>
<text x="943" y="58" dy="-0.5ex" text-anchor="middle" font-family="sans-serif" font-size="9.67741935483871" opacity="1" fill="#000000">
+20:15:44
</text>
<polyline fill="none" opacity="1" stroke="#000000" stroke-width="1" points="943,62 943,67 "/>
<rect x="83" y="73" width="99" height="45" opacity="0.75" fill="#FFFFFF" stroke="none"/>
<rect x="83" y="73" width="99" height="45" opacity="1" fill="none" stroke="#000000"/>
<text x="123" y="83" dy="0.76em" text-anchor="start" font-family="sans-serif" font-size="9.67741935483871" opacity="1" fill="#000000">
Temporary
</text>
<text x="123" y="98" dy="0.76em" text-anchor="start" font-family="sans-serif" font-size="9.67741935483871" opacity="1" fill="#000000">
Leaked
</text>
<rect x="93" y="83" width="10" height="10" opacity="1" fill="#3CB44B" stroke="none"/>
<rect x="93" y="98" width="10" height="10" opacity="1" fill="#E6194B" stroke="none"/>
</svg>
