<svg width="1024" height="768" viewBox="0 0 1024 768" xmlns="http://www.w3.org/2000/svg">
<rect x="0" y="0" width="1024" height="768" opacity="1" fill="#FFFFFF" stroke="none"/>
<polygon opacity="1" fill="#E6194B" points="78,613 79,605 80,594 81,585 82,575 83,569 84,559 84,545 85,536 86,525 87,514 88,503 89,491 90,481 91,470 92,458 93,448 93,440 94,437 95,439 96,438 97,438 98,437 99,436 100,437 101,436 101,434 102,434 103,434 104,433 105,433 106,432 107,433 108,434 109,433 110,434 110,435 111,435 112,434 113,433 114,434 115,433 116,432 117,432 118,433 118,433 119,436 120,434 121,433 122,433 123,432 124,432 125,431 126,431 127,431 127,431 128,426 129,426 130,426 131,428 132,427 133,427 134,427 135,425 135,425 136,426 137,429 138,429 139,427 140,426 141,427 142,427 143,426 144,426 144,418 145,421 146,419 147,419 148,418 149,420 150,420 151,420 152,420 152,420 153,418 154,417 155,417 156,416 157,416 158,416 159,416 160,416 161,418 161,417 162,416 163,416 164,416 165,417 166,417 167,415 168,416 169,415 169,415 170,414 171,414 172,417 173,417 174,418 175,416 176,415 177,414 178,414 178,414 179,414 180,414 181,414 182,406 183,409 184,408 185,408 186,408 186,408 187,410 188,408 189,406 190,406 191,405 192,405 193,405 194,405 195,406 195,405 196,408 197,407 198,406 199,405 200,405 201,404 202,403 203,403 204,405 204,405 205,405 206,403 207,402 208,402 209,402 210,406 211,404 212,405 212,405 213,402 214,401 215,401 216,386 217,393 218,394 219,394 220,392 221,393 221,394 222,394 223,392 224,393 225,392 226,392 227,392 228,392 229,397 229,394 230,393 231,390 232,389 233,389 234,392 235,391 236,390 237,389 238,386 238,386 239,385 240,385 241,384 242,384 243,383 244,383 245,385 246,384 246,384 247,384 248,383 249,382 250,382 251,381 252,381 253,380 254,379 255,379 255,379 256,380 257,380 258,379 259,378 260,378 261,378 262,377 263,377 263,377 264,378 265,377 266,377 267,377 268,378 269,378 270,377 271,377 272,376 272,376 273,375 274,375 275,375 276,374 277,373 278,373 279,375 280,374 280,373 281,373 282,372 283,372 284,371 285,371 286,370 287,347 288,358 289,357 289,360 290,361 291,361 292,360 293,359 294,359 295,358 296,358 297,358 297,357 298,356 299,356 300,356 301,357 302,356 303,356 304,355 305,355 306,354 306,354 307,353 308,352 309,352 310,351 311,351 312,353 313,352 314,354 314,353 315,353 316,352 317,352 318,352 319,351 320,350 321,350 322,350 323,349 323,351 324,350 325,349 326,349 327,349 328,348 329,348 330,347 331,346 331,346 332,346 333,346 334,345 335,347 336,347 337,346 338,345 339,345 340,346 340,346 341,345 342,345 343,344 344,344 345,343 346,345 347,344 348,344 348,343 349,343 350,342 351,342 352,310 353,325 354,324 355,324 356,324 357,324 357,323 358,324 359,324 360,323 361,323 362,323 363,322 364,321 365,323 365,323 366,322 367,322 368,322 369,323 370,322 371,322 372,321 373,321 374,320 374,320 375,319 376,319 377,318 378,318 379,317 380,319 381,318 382,318 382,318 383,317 384,317 385,316 386,315 387,315 388,314 389,314 390,314 391,317 391,316 392,316 393,315 394,314 395,314 396,314 397,313 398,313 399,313 400,312 400,311 401,313 402,313 403,312 404,312 405,312 406,310 407,310 408,310 408,309 409,309 410,308 411,308 412,307 413,307 414,309 415,308 416,307 417,308 417,308 418,307 419,307 420,306 421,305 422,305 423,305 424,306 425,306 425,305 426,305 427,304 428,304 429,303 430,303 431,302 432,302 433,301 434,301 434,301 435,302 436,302 437,301 438,300 439,300 440,299 441,299 442,301 442,300 443,299 444,299 445,301 446,300 447,300 448,299 449,299 450,298 451,298 451,297 452,296 453,296 454,296 455,295 456,295 457,296 458,296 459,295 459,295 460,294 461,294 462,293 463,293 464,292 465,292 466,291 467,291 468,294 468,294 469,293 470,293 471,293 472,292 473,292 474,291 475,291 476,290 476,290 477,290 478,289 479,291 480,290 481,289 482,289 483,289 484,288 485,287 485,287 486,286 487,286 488,286 489,285 490,285 491,286 492,286 493,285 493,287 494,241 495,263 496,262 497,262 498,261 499,261 500,261 501,260 502,260 502,261 503,260 504,260 505,260 506,259 507,258 508,258 509,258 510,257 510,257 511,256 512,256 513,255 514,257 515,257 516,256 517,255 518,255 519,254 519,256 520,256 521,255 522,255 523,254 524,254 525,255 526,255 527,255 527,254 528,253 529,253 530,252 531,252 532,251 533,251 534,250 535,250 536,249 536,251 537,251 538,250 539,249 540,249 541,249 542,248 543,248 544,247 544,246 545,248 546,248 547,248 548,248 549,248 550,248 551,247 552,247 553,246 553,245 554,245 555,245 556,244 557,244 558,243 559,245 560,244 561,244 561,243 562,243 563,242 564,242 565,241 566,241 567,240 568,240 569,239 570,239 570,240 571,242 572,241 573,241 574,240 575,239 576,239 577,239 578,238 579,238 579,237 580,238 581,238 582,238 583,237 584,236 585,236 586,235 587,235 587,235 588,234 589,234 590,235 591,235 592,236 593,236 594,236 595,235 596,234 596,236 597,235 598,235 599,235 600,234 601,233 602,233 603,233 604,235 604,234 605,234 606,233 607,233 608,232 609,231 610,231 611,231 612,230 613,230 613,229 614,231 615,230 616,230 617,230 618,229 619,228 620,228 621,228 621,227 622,229 623,228 624,227 625,227 626,229 627,229 628,166 629,196 630,196 630,195 631,195 632,194 633,194 634,234 635,233 636,233 637,234 638,234 638,233 639,233 640,232 641,232 642,231 643,231 644,231 645,230 646,229 647,229 647,231 648,232 649,232 650,231 651,231 652,230 653,230 654,229 655,228 655,228 656,227 657,227 658,227 659,227 660,228 661,227 662,227 663,226 664,226 664,225 665,225 666,224 667,224 668,223 669,223 670,222 671,222 672,224 672,223 673,225 674,225 675,224 676,223 677,223 678,222 679,222 680,221 681,221 681,220 682,222 683,221 684,221 685,221 686,220 687,220 688,219 689,219 689,218 690,218 691,217 692,217 693,216 694,218 695,217 696,217 697,217 698,216 698,216 699,217 700,217 701,216 702,216 703,215 704,215 705,214 706,214 706,216 707,215 708,215 709,214 710,214 711,213 712,213 713,213 714,212 715,212 715,211 716,211 717,210 718,212 719,212 720,211 721,211 722,210 723,210 723,209 724,209 725,208 726,208 727,209 728,209 729,209 730,210 731,210 732,209 732,208 733,208 734,208 735,207 736,207 737,206 738,206 739,205 740,205 740,204 741,206 742,206 743,205 744,204 745,204 746,203 747,203 748,203 749,202 749,201 750,201 751,201 752,203 753,204 754,203 755,203 756,202 757,202 758,201 758,201 759,201 760,200 761,200 762,199 763,199 764,199 765,200 766,199 766,199 767,199 768,198 769,198 770,197 771,197 772,196 773,196 774,195 775,195 775,195 776,195 777,196 778,195 779,197 780,196 781,196 782,195 783,195 783,194 784,194 785,193 786,193 787,193 788,195 789,195 790,195 791,194 792,194 792,193 793,192 794,192 795,192 796,191 797,191 798,191 799,192 800,191 800,191 801,190 802,190 803,190 804,191 805,191 806,190 807,190 808,189 809,189 809,188 810,188 811,189 812,189 813,189 814,188 815,188 816,188 817,187 817,186 818,186 819,186 820,185 821,185 822,184 823,186 824,185 825,185 826,184 826,184 827,183 828,182 829,182 830,184 831,183 832,183 833,183 834,183 834,184 835,183 836,183 837,183 838,182 839,182 840,181 841,181 842,181 843,180 843,180 844,179 845,179 846,178 847,180 848,179 849,179 850,178 851,178 851,178 852,177 853,176 854,176 855,175 856,175 857,177 858,177 859,177 860,178 860,177 861,177 862,177 863,176 864,175 865,174 866,174 867,174 868,174 868,173 869,172 870,172 871,173 872,173 873,173 874,172 875,172 876,171 877,171 877,170 878,170 879,169 880,169 881,168 882,168 883,168 884,169 885,171 885,171 886,170 887,170 888,169 889,169 890,168 891,168 892,167 893,167 894,166 894,166 895,166 896,167 897,167 898,166 899,165 900,165 901,164 902,164 902,164 903,163 904,162 905,162 906,161 907,163 908,163 909,162 910,162 911,163 911,163 912,162 913,162 914,161 915,161 916,160 917,160 918,160 919,161 919,161 920,160 921,159 922,159 923,68 924,113 925,112 926,112 927,111 928,110 928,110 929,110 930,111 931,111 932,110 933,110 934,109 935,109 936,109 936,108 937,108 938,109 939,109 940,108 941,108 942,108 943,109 944,108 945,108 945,107 946,107 947,107 948,106 949,105 950,105 951,104 952,104 953,104 954,103 954,105 955,104 956,104 957,103 958,103 959,103 960,102 961,101 962,101 962,101 963,101 964,100 965,101 966,101 967,102 968,102 969,102 970,101 971,101 971,100 972,100 972,100 973,100 973,699 78,699 "/>
<polyline fill="none" opacity="1" stroke="#E6194B" stroke-width="1" points="78,613 79,605 80,594 81,585 82,575 83,569 84,559 84,545 85,536 86,525 87,514 88,503 89,491 90,481 91,470 92,458 93,448 93,440 94,437 95,439 96,438 97,438 98,437 99,436 100,437 101,436 101,434 102,434 103,434 104,433 105,433 106,432 107,433 108,434 109,433 110,434 110,435 111,435 112,434 113,433 114,434 115,433 116,432 117,432 118,433 118,433 119,436 120,434 121,433 122,433 123,432 124,432 125,431 126,431 127,431 127,431 128,426 129,426 130,426 131,428 132,427 133,427 134,427 135,425 135,425 136,426 137,429 138,429 139,427 140,426 141,427 142,427 143,426 144,426 144,418 145,421 146,419 147,419 148,418 149,420 150,420 151,420 152,420 152,420 153,418 154,417 155,417 156,416 157,416 158,416 159,416 160,416 161,418 161,417 162,416 163,416 164,416 165,417 166,417 167,415 168,416 169,415 169,415 170,414 171,414 172,417 173,417 174,418 175,416 176,415 177,414 178,414 178,414 179,414 180,414 181,414 182,406 183,409 184,408 185,408 186,408 186,408 187,410 188,408 189,406 190,406 191,405 192,405 193,405 194,405 195,406 195,405 196,408 197,407 198,406 199,405 200,405 201,404 202,403 203,403 204,405 204,405 205,405 206,403 207,402 208,402 209,402 210,406 211,404 212,405 212,405 213,402 214,401 215,401 216,386 217,393 218,394 219,394 220,392 221,393 221,394 222,394 223,392 224,393 225,392 226,392 227,392 228,392 229,397 229,394 230,393 231,390 232,389 233,389 234,392 235,391 236,390 237,389 238,386 238,386 239,385 240,385 241,384 242,384 243,383 244,383 245,385 246,384 246,384 247,384 248,383 249,382 250,382 251,381 252,381 253,380 254,379 255,379 255,379 256,380 257,380 258,379 259,378 260,378 261,378 262,377 263,377 263,377 264,378 265,377 266,377 267,377 268,378 269,378 270,377 271,377 272,376 272,376 273,375 274,375 275,375 276,374 277,373 278,373 279,375 280,374 280,373 281,373 282,372 283,372 284,371 285,371 286,370 287,347 288,358 289,357 289,360 290,361 291,361 292,360 293,359 294,359 295,358 296,358 297,358 297,357 298,356 299,356 300,356 301,357 302,356 303,356 304,355 305,355 306,354 306,354 307,353 308,352 309,352 310,351 311,351 312,353 313,352 314,354 314,353 315,353 316,352 317,352 318,352 319,351 320,350 321,350 322,350 323,349 323,351 324,350 325,349 326,349 327,349 328,348 329,348 330,347 331,346 331,346 332,346 333,346 334,345 335,347 336,347 337,346 338,345 339,345 340,346 340,346 341,345 342,345 343,344 344,344 345,343 346,345 347,344 348,344 348,343 349,343 350,342 351,342 352,310 353,325 354,324 355,324 356,324 357,324 357,323 358,324 359,324 360,323 361,323 362,323 363,322 364,321 365,323 365,323 366,322 367,322 368,322 369,323 370,322 371,322 372,321 373,321 374,320 374,320 375,319 376,319 377,318 378,318 379,317 380,319 381,318 382,318 382,318 383,317 384,317 385,316 386,315 387,315 388,314 389,314 390,314 391,317 391,316 392,316 393,315 394,314 395,314 396,314 397,313 398,313 399,313 400,312 400,311 401,313 402,313 403,312 404,312 405,312 406,310 407,310 408,310 408,309 409,309 410,308 411,308 412,307 413,307 414,309 415,308 416,307 417,308 417,308 418,307 419,307 420,306 421,305 422,305 423,305 424,306 425,306 425,305 426,305 427,304 428,304 429,303 430,303 431,302 432,302 433,301 434,301 434,301 435,302 436,302 437,301 438,300 439,300 440,299 441,299 442,301 442,300 443,299 444,299 445,301 446,300 447,300 448,299 449,299 450,298 451,298 451,297 452,296 453,296 454,296 455,295 456,295 457,296 458,296 459,295 459,295 460,294 461,294 462,293 463,293 464,292 465,292 466,291 467,291 468,294 468,294 469,293 470,293 471,293 472,292 473,292 474,291 475,291 476,290 476,290 477,290 478,289 479,291 480,290 481,289 482,289 483,289 484,288 485,287 485,287 486,286 487,286 488,286 489,285 490,285 491,286 492,286 493,285 493,287 494,241 495,263 496,262 497,262 498,261 499,261 500,261 501,260 502,260 502,261 503,260 504,260 505,260 506,259 507,258 508,258 509,258 510,257 510,257 511,256 512,256 513,255 514,257 515,257 516,256 517,255 518,255 519,254 519,256 520,256 521,255 522,255 523,254 524,254 525,255 526,255 527,255 527,254 528,253 529,253 530,252 531,252 532,251 533,251 534,250 535,250 536,249 536,251 537,251 538,250 539,249 540,249 541,249 542,248 543,248 544,247 544,246 545,248 546,248 547,248 548,248 549,248 550,248 551,247 552,247 553,246 553,245 554,245 555,245 556,244 557,244 558,243 559,245 560,244 561,244 561,243 562,243 563,242 564,242 565,241 566,241 567,240 568,240 569,239 570,239 570,240 571,242 572,241 573,241 574,240 575,239 576,239 577,239 578,238 579,238 579,237 580,238 581,238 582,238 583,237 584,236 585,236 586,235 587,235 587,235 588,234 589,234 590,235 591,235 592,236 593,236 594,236 595,235 596,234 596,236 597,235 598,235 599,235 600,234 601,233 602,233 603,233 604,235 604,234 605,234 606,233 607,233 608,232 609,231 610,231 611,231 612,230 613,230 613,229 614,231 615,230 616,230 617,230 618,229 619,228 620,228 621,228 621,227 622,229 623,228 624,227 625,227 626,229 627,229 628,166 629,196 630,196 630,195 631,195 632,194 633,194 634,234 635,233 636,233 637,234 638,234 638,233 639,233 640,232 641,232 642,231 643,231 644,231 645,230 646,229 647,229 647,231 648,232 649,232 650,231 651,231 652,230 653,230 654,229 655,228 655,228 656,227 657,227 658,227 659,227 660,228 661,227 662,227 663,226 664,226 664,225 665,225 666,224 667,224 668,223 669,223 670,222 671,222 672,224 672,223 673,225 674,225 675,224 676,223 677,223 678,222 679,222 680,221 681,221 681,220 682,222 683,221 684,221 685,221 686,220 687,220 688,219 689,219 689,218 690,218 691,217 692,217 693,216 694,218 695,217 696,217 697,217 698,216 698,216 699,217 700,217 701,216 702,216 703,215 704,215 705,214 706,214 706,216 707,215 708,215 709,214 710,214 711,213 712,213 713,213 714,212 715,212 715,211 716,211 717,210 718,212 719,212 720,211 721,211 722,210 723,210 723,209 724,209 725,208 726,208 727,209 728,209 729,209 730,210 731,210 732,209 732,208 733,208 734,208 735,207 736,207 737,206 738,206 739,205 740,205 740,204 741,206 742,206 743,205 744,204 745,204 746,203 747,203 748,203 749,202 749,201 750,201 751,201 752,203 753,204 754,203 755,203 756,202 757,202 758,201 758,201 759,201 760,200 761,200 762,199 763,199 764,199 765,200 766,199 766,199 767,199 768,198 769,198 770,197 771,197 772,196 773,196 774,195 775,195 775,195 776,195 777,196 778,195 779,197 780,196 781,196 782,195 783,195 783,194 784,194 785,193 786,193 787,193 788,195 789,195 790,195 791,194 792,194 792,193 793,192 794,192 795,192 796,191 797,191 798,191 799,192 800,191 800,191 801,190 802,190 803,190 804,191 805,191 806,190 807,190 808,189 809,189 809,188 810,188 811,189 812,189 813,189 814,188 815,188 816,188 817,187 817,186 818,186 819,186 820,185 821,185 822,184 823,186 824,185 825,185 826,184 826,184 827,183 828,182 829,182 830,184 831,183 832,183 833,183 834,183 834,184 835,183 836,183 837,183 838,182 839,182 840,181 841,181 842,181 843,180 843,180 844,179 845,179 846,178 847,180 848,179 849,179 850,178 851,178 851,178 852,177 853,176 854,176 855,175 856,175 857,177 858,177 859,177 860,178 860,177 861,177 862,177 863,176 864,175 865,174 866,174 867,174 868,174 868,173 869,172 870,172 871,173 872,173 873,173 874,172 875,172 876,171 877,171 877,170 878,170 879,169 880,169 881,168 882,168 883,168 884,169 885,171 885,171 886,170 887,170 888,169 889,169 890,168 891,168 892,167 893,167 894,166 894,166 895,166 896,167 897,167 898,166 899,165 900,165 901,164 902,164 902,164 903,163 904,162 905,162 906,161 907,163 908,163 909,162 910,162 911,163 911,163 912,162 913,162 914,161 915,161 916,160 917,160 918,160 919,161 919,161 920,160 921,159 922,159 923,68 924,113 925,112 926,112 927,111 928,110 928,110 929,110 930,111 931,111 932,110 933,110 934,109 935,109 936,109 936,108 937,108 938,109 939,109 940,108 941,108 942,108 943,109 944,108 945,108 945,107 946,107 947,107 948,106 949,105 950,105 951,104 952,104 953,104 954,103 954,105 955,104 956,104 957,103 958,103 959,103 960,102 961,101 962,101 962,101 963,101 964,100 965,101 966,101 967,102 968,102 969,102 970,101 971,101 971,100 972,100 972,100 973,100 "/>
<line opacity="0.1" stroke="#000000" stroke-width="1" x1="89" y1="699" x2="89" y2="68"/>
<line opacity="0.1" stroke="#000000" stroke-width="1" x1="101" y1="699" x2="101" y2="68"/>
<line opacity="0.1" stroke="#000000" stroke-width="1" x1="112" y1="699" x2="112" y2="68"/>
<line opacity="0.1" stroke="#000000" stroke-width="1" x1="124" y1="699" x2="124" y2="68"/>
<line opacity="0.1" stroke="#000000" stroke-width="1" x1="136" y1="699" x2="136" y2="68"/>
<line opacity="0.1" stroke="#000000" stroke-width="1" x1="148" y1="699" x2="148" y2="68"/>
<line opacity="0.1" stroke="#000000" stroke-width="1" x1="160" y1="699" x2="160" y2="68"/>
<line opacity="0.1" stroke="#000000" stroke-width="1" x1="172" y1="699" x2="172" y2="68"/>
<line opacity="0.1" stroke="#000000" stroke-width="1" x1="184" y1="699" x2="184" y2="68"/>
<line opacity="0.1" stroke="#000000" stroke-width="1" x1="195" y1="699" x2="195" y2="68"/>
<line opacity="0.1" stroke="#000000" stroke-width="1" x1="207" y1="699" x2="207" y2="68"/>
<line opacity="0.1" stroke="#000000" stroke-width="1" x1="219" y1="699" x2="219" y2="68"/>
<line opacity="0.1" stroke="#000000" stroke-width="1" x1="231" y1="699" x2="231" y2="68"/>
<line opacity="0.1" stroke="#000000" stroke-width="1" x1="243" y1="699" x2="243" y2="68"/>
<line opacity="0.1" stroke="#000000" stroke-width="1" x1="255" y1="699" x2="255" y2="68"/>
<line opacity="0.1" stroke="#000000" stroke-width="1" x1="267" y1="699" x2="267" y2="68"/>
<line opacity="0.1" stroke="#000000" stroke-width="1" x1="278" y1="699" x2="278" y2="68"/>
<line opacity="0.1" stroke="#000000" stroke-width="1" x1="290" y1="699" x2="290" y2="68"/>
<line opacity="0.1" stroke="#000000" stroke-width="1" x1="302" y1="699" x2="302" y2="68"/>
<line opacity="0.1" stroke="#000000" stroke-width="1" x1="314" y1="699" x2="314" y2="68"/>
<line opacity="0.1" stroke="#000000" stroke-width="1" x1="326" y1="699" x2="326" y2="68"/>
<line opacity="0.1" stroke="#000000" stroke-width="1" x1="338" y1="699" x2="338" y2="68"/>
<line opacity="0.1" stroke="#000000" stroke-width="1" x1="350" y1="699" x2="350" y2="68"/>
<line opacity="0.1" stroke="#000000" stroke-width="1" x1="361" y1="699" x2="361" y2="68"/>
<line opacity="0.1" stroke="#000000" stroke-width="1" x1="373" y1="699" x2="373" y2="68"/>
<line opacity="0.1" stroke="#000000" stroke-width="1" x1="385" y1="699" x2="385" y2="68"/>
<line opacity="0.1" stroke="#000000" stroke-width="1" x1="397" y1="699" x2="397" y2="68"/>
<line opacity="0.1" stroke="#000000" stroke-width="1" x1="409" y1="699" x2="409" y2="68"/>
<line opacity="0.1" stroke="#000000" stroke-width="1" x1="421" y1="699" x2="421" y2="68"/>
<line opacity="0.1" stroke="#000000" stroke-width="1" x1="433" y1="699" x2="433" y2="68"/>
<line opacity="0.1" stroke="#000000" stroke-width="1" x1="444" y1="699" x2="444" y2="68"/>
<line opacity="0.1" stroke="#000000" stroke-width="1" x1="456" y1="699" x2="456" y2="68"/>
<line opacity="0.1" stroke="#000000" stroke-width="1" x1="468" y1="699" x2="468" y2="68"/>
<line opacity="0.1" stroke="#000000" stroke-width="1" x1="480" y1="699" x2="480" y2="68"/>
<line opacity="0.1" stroke="#000000" stroke-width="1" x1="492" y1="699" x2="492" y2="68"/>
<line opacity="0.1" stroke="#000000" stroke-width="1" x1="504" y1="699" x2="504" y2="68"/>
<line opacity="0.1" stroke="#000000" stroke-width="1" x1="516" y1="699" x2="516" y2="68"/>
<line opacity="0.1" stroke="#000000" stroke-width="1" x1="527" y1="699" x2="527" y2="68"/>
<line opacity="0.1" stroke="#000000" stroke-width="1" x1="539" y1="699" x2="539" y2="68"/>
<line opacity="0.1" stroke="#000000" stroke-width="1" x1="551" y1="699" x2="551" y2="68"/>
<line opacity="0.1" stroke="#000000" stroke-width="1" x1="563" y1="699" x2="563" y2="68"/>
<line opacity="0.1" stroke="#000000" stroke-width="1" x1="575" y1="699" x2="575" y2="68"/>
<line opacity="0.1" stroke="#000000" stroke-width="1" x1="587" y1="699" x2="587" y2="68"/>
<line opacity="0.1" stroke="#000000" stroke-width="1" x1="599" y1="699" x2="599" y2="68"/>
<line opacity="0.1" stroke="#000000" stroke-width="1" x1="610" y1="699" x2="610" y2="68"/>
<line opacity="0.1" stroke="#000000" stroke-width="1" x1="622" y1="699" x2="622" y2="68"/>
<line opacity="0.1" stroke="#000000" stroke-width="1" x1="634" y1="699" x2="634" y2="68"/>
<line opacity="0.1" stroke="#000000" stroke-width="1" x1="646" y1="699" x2="646" y2="68"/>
<line opacity="0.1" stroke="#000000" stroke-width="1" x1="658" y1="699" x2="658" y2="68"/>
<line opacity="0.1" stroke="#000000" stroke-width="1" x1="670" y1="699" x2="670" y2="68"/>
<line opacity="0.1" stroke="#000000" stroke-width="1" x1="682" y1="699" x2="682" y2="68"/>
<line opacity="0.1" stroke="#000000" stroke-width="1" x1="693" y1="699" x2="693" y2="68"/>
<line opacity="0.1" stroke="#000000" stroke-width="1" x1="705" y1="699" x2="705" y2="68"/>
<line opacity="0.1" stroke="#000000" stroke-width="1" x1="717" y1="699" x2="717" y2="68"/>
<line opacity="0.1" stroke="#000000" stroke-width="1" x1="729" y1="699" x2="729" y2="68"/>
<line opacity="0.1" stroke="#000000" stroke-width="1" x1="741" y1="699" x2="741" y2="68"/>
<line opacity="0.1" stroke="#000000" stroke-width="1" x1="753" y1="699" x2="753" y2="68"/>
<line opacity="0.1" stroke="#000000" stroke-width="1" x1="765" y1="699" x2="765" y2="68"/>
<line opacity="0.1" stroke="#000000" stroke-width="1" x1="776" y1="699" x2="776" y2="68"/>
<line opacity="0.1" stroke="#000000" stroke-width="1" x1="788" y1="699" x2="788" y2="68"/>
<line opacity="0.1" stroke="#000000" stroke-width="1" x1="800" y1="699" x2="800" y2="68"/>
<line opacity="0.1" stroke="#000000" stroke-width="1" x1="812" y1="699" x2="812" y2="68"/>
<line opacity="0.1" stroke="#000000" stroke-width="1" x1="824" y1="699" x2="824" y2="68"/>
<line opacity="0.1" stroke="#000000" stroke-width="1" x1="836" y1="699" x2="836" y2="68"/>
<line opacity="0.1" stroke="#000000" stroke-width="1" x1="848" y1="699" x2="848" y2="68"/>
<line opacity="0.1" stroke="#000000" stroke-width="1" x1="859" y1="699" x2="859" y2="68"/>
<line opacity="0.1" stroke="#000000" stroke-width="1" x1="871" y1="699" x2="871" y2="68"/>
<line opacity="0.1" stroke="#000000" stroke-width="1" x1="883" y1="699" x2="883" y2="68"/>
<line opacity="0.1" stroke="#000000" stroke-width="1" x1="895" y1="699" x2="895" y2="68"/>
<line opacity="0.1" stroke="#000000" stroke-width="1" x1="907" y1="699" x2="907" y2="68"/>
<line opacity="0.1" stroke="#000000" stroke-width="1" x1="919" y1="699" x2="919" y2="68"/>
<line opacity="0.1" stroke="#000000" stroke-width="1" x1="931" y1="699" x2="931" y2="68"/>
<line opacity="0.1" stroke="#000000" stroke-width="1" x1="942" y1="699" x2="942" y2="68"/>
<line opacity="0.1" stroke="#000000" stroke-width="1" x1="954" y1="699" x2="954" y2="68"/>
<line opacity="0.1" stroke="#000000" stroke-width="1" x1="966" y1="699" x2="966" y2="68"/>
<line opacity="0.1" stroke="#000000" stroke-width="1" x1="78" y1="699" x2="973" y2="699"/>
<line opacity="0.1" stroke="#000000" stroke-width="1" x1="78" y1="689" x2="973" y2="689"/>
<line opacity="0.1" stroke="#000000" stroke-width="1" x1="78" y1="679" x2="973" y2="679"/>
<line opacity="0.1" stroke="#000000" stroke-width="1" x1="78" y1="669" x2="973" y2="669"/>
<line opacity="0.1" stroke="#000000" stroke-width="1" x1="78" y1="659" x2="973" y2="659"/>
<line opacity="0.1" stroke="#000000" stroke-width="1" x1="78" y1="649" x2="973" y2="649"/>
<line opacity="0.1" stroke="#000000" stroke-width="1" x1="78" y1="639" x2="973" y2="639"/>
<line opacity="0.1" stroke="#000000" stroke-width="1" x1="78" y1="629" x2="973" y2="629"/>
<line opacity="0.1" stroke="#000000" stroke-width="1" x1="78" y1="620" x2="973" y2="620"/>
<line opacity="0.1" stroke="#000000" stroke-width="1" x1="78" y1="610" x2="973" y2="610"/>
<line opacity="0.1" stroke="#000000" stroke-width="1" x1="78" y1="600" x2="973" y2="600"/>
<line opacity="0.1" stroke="#000000" stroke-width="1" x1="78" y1="590" x2="973" y2="590"/>
<line opacity="0.1" stroke="#000000" stroke-width="1" x1="78" y1="580" x2="973" y2="580"/>
<line opacity="0.1" stroke="#000000" stroke-width="1" x1="78" y1="570" x2="973" y2="570"/>
<line opacity="0.1" stroke="#000000" stroke-width="1" x1="78" y1="560" x2="973" y2="560"/>
<line opacity="0.1" stroke="#000000" stroke-width="1" x1="78" y1="551" x2="973" y2="551"/>
<line opacity="0.1" stroke="#000000" stroke-width="1" x1="78" y1="541" x2="973" y2="541"/>
<line opacity="0.1" stroke="#000000" stroke-width="1" x1="78" y1="531" x2="973" y2="531"/>
<line opacity="0.1" stroke="#000000" stroke-width="1" x1="78" y1="521" x2="973" y2="521"/>
<line opacity="0.1" stroke="#000000" stroke-width="1" x1="78" y1="511" x2="973" y2="511"/>
<line opacity="0.1" stroke="#000000" stroke-width="1" x1="78" y1="501" x2="973" y2="501"/>
<line opacity="0.1" stroke="#000000" stroke-width="1" x1="78" y1="491" x2="973" y2="491"/>
<line opacity="0.1" stroke="#000000" stroke-width="1" x1="78" y1="482" x2="973" y2="482"/>
<line opacity="0.1" stroke="#000000" stroke-width="1" x1="78" y1="472" x2="973" y2="472"/>
<line opacity="0.1" stroke="#000000" stroke-width="1" x1="78" y1="462" x2="973" y2="462"/>
<line opacity="0.1" stroke="#000000" stroke-width="1" x1="78" y1="452" x2="973" y2="452"/>
<line opacity="0.1" stroke="#000000" stroke-width="1" x1="78" y1="442" x2="973" y2="442"/>
<line opacity="0.1" stroke="#000000" stroke-width="1" x1="78" y1="432" x2="973" y2="432"/>
<line opacity="0.1" stroke="#000000" stroke-width="1" x1="78" y1="422" x2="973" y2="422"/>
<line opacity="0.1" stroke="#000000" stroke-width="1" x1="78" y1="413" x2="973" y2="413"/>
<line opacity="0.1" stroke="#000000" stroke-width="1" x1="78" y1="403" x2="973" y2="403"/>
<line opacity="0.1" stroke="#000000" stroke-width="1" x1="78" y1="393" x2="973" y2="393"/>
<line opacity="0.1" stroke="#000000" stroke-width="1" x1="78" y1="383" x2="973" y2="383"/>
<line opacity="0.1" stroke="#000000" stroke-width="1" x1="78" y1="373" x2="973" y2="373"/>
<line opacity="0.1" stroke="#000000" stroke-width="1" x1="78" y1="363" x2="973" y2="363"/>
<line opacity="0.1" stroke="#000000" stroke-width="1" x1="78" y1="353" x2="973" y2="353"/>
<line opacity="0.1" stroke="#000000" stroke-width="1" x1="78" y1="344" x2="973" y2="344"/>
<line opacity="0.1" stroke="#000000" stroke-width="1" x1="78" y1="334" x2="973" y2="334"/>
<line opacity="0.1" stroke="#000000" stroke-width="1" x1="78" y1="324" x2="973" y2="324"/>
<line opacity="0.1" stroke="#000000" stroke-width="1" x1="78" y1="314" x2="973" y2="314"/>
<line opacity="0.1" stroke="#000000" stroke-width="1" x1="78" y1="304" x2="973" y2="304"/>
<line opacity="0.1" stroke="#000000" stroke-width="1" x1="78" y1="294" x2="973" y2="294"/>
<line opacity="0.1" stroke="#000000" stroke-width="1" x1="78" y1="284" x2="973" y2="284"/>
<line opacity="0.1" stroke="#000000" stroke-width="1" x1="78" y1="275" x2="973" y2="275"/>
<line opacity="0.1" stroke="#000000" stroke-width="1" x1="78" y1="265" x2="973" y2="265"/>
<line opacity="0.1" stroke="#000000" stroke-width="1" x1="78" y1="255" x2="973" y2="255"/>
<line opacity="0.1" stroke="#000000" stroke-width="1" x1="78" y1="245" x2="973" y2="245"/>
<line opacity="0.1" stroke="#000000" stroke-width="1" x1="78" y1="235" x2="973" y2="235"/>
<line opacity="0.1" stroke="#000000" stroke-width="1" x1="78" y1="225" x2="973" y2="225"/>
<line opacity="0.1" stroke="#000000" stroke-width="1" x1="78" y1="215" x2="973" y2="215"/>
<line opacity="0.1" stroke="#000000" stroke-width="1" x1="78" y1="206" x2="973" y2="206"/>
<line opacity="0.1" stroke="#000000" stroke-width="1" x1="78" y1="196" x2="973" y2="196"/>
<line opacity="0.1" stroke="#000000" stroke-width="1" x1="78" y1="186" x2="973" y2="186"/>
<line opacity="0.1" stroke="#000000" stroke-width="1" x1="78" y1="176" x2="973" y2="176"/>
<line opacity="0.1" stroke="#000000" stroke-width="1" x1="78" y1="166" x2="973" y2="166"/>
<line opacity="0.1" stroke="#000000" stroke-width="1" x1="78" y1="156" x2="973" y2="156"/>
<line opacity="0.1" stroke="#000000" stroke-width="1" x1="78" y1="146" x2="973" y2="146"/>
<line opacity="0.1" stroke="#000000" stroke-width="1" x1="78" y1="137" x2="973" y2="137"/>
<line opacity="0.1" stroke="#000000" stroke-width="1" x1="78" y1="127" x2="973" y2="127"/>
<line opacity="0.1" stroke="#000000" stroke-width="1" x1="78" y1="117" x2="973" y2="117"/>
<line opacity="0.1" stroke="#000000" stroke-width="1" x1="78" y1="107" x2="973" y2="107"/>
<line opacity="0.1" stroke="#000000" stroke-width="1" x1="78" y1="97" x2="973" y2="97"/>
<line opacity="0.1" stroke="#000000" stroke-width="1" x1="78" y1="87" x2="973" y2="87"/>
<line opacity="0.1" stroke="#000000" stroke-width="1" x1="78" y1="77" x2="973" y2="77"/>
<line opacity="0.1" stroke="#000000" stroke-width="1" x1="78" y1="68" x2="973" y2="68"/>
<text x="8" y="384" dy="0.76em" text-anchor="middle" font-family="sans-serif" font-size="9.67741935483871" opacity="1" fill="#000000" transform="rotate(270, 8, 384)">
Memory usage
</text>
<text x="526" y="760" dy="-0.5ex" text-anchor="middle" font-family="sans-serif" font-size="9.67741935483871" opacity="1" fill="#000000">
Time
</text>
<line opacity="0.2" stroke="#000000" stroke-width="1" x1="112" y1="699" x2="112" y2="68"/>
<line opacity="0.2" stroke="#000000" stroke-width="1" x1="231" y1="699" x2="231" y2="68"/>
<line opacity="0.2" stroke="#000000" stroke-width="1" x1="350" y1="699" x2="350" y2="68"/>
<line opacity="0.2" stroke="#000000" stroke-width="1" x1="468" y1="699" x2="468" y2="68"/>
<line opacity="0.2" stroke="#000000" stroke-width="1" x1="587" y1="699" x2="587" y2="68"/>
<line opacity="0.2" stroke="#000000" stroke-width="1" x1="705" y1="699" x2="705" y2="68"/>
<line opacity="0.2" stroke="#000000" stroke-width="1" x1="824" y1="699" x2="824" y2="68"/>
<line opacity="0.2" stroke="#000000" stroke-width="1" x1="942" y1="699" x2="942" y2="68"/>
<line opacity="0.2" stroke="#000000" stroke-width="1" x1="78" y1="699" x2="973" y2="699"/>
<line opacity="0.2" stroke="#000000" stroke-width="1" x1="78" y1="600" x2="973" y2="600"/>
<line opacity="0.2" stroke="#000000" stroke-width="1" x1="78" y1="501" x2="973" y2="501"/>
<line opacity="0.2" stroke="#000000" stroke-width="1" x1="78" y1="403" x2="973" y2="403"/>
<line opacity="0.2" stroke="#000000" stroke-width="1" x1="78" y1="304" x2="973" y2="304"/>
<line opacity="0.2" stroke="#000000" stroke-width="1" x1="78" y1="206" x2="973" y2="206"/>
<line opacity="0.2" stroke="#000000" stroke-width="1" x1="78" y1="107" x2="973" y2="107"/>
<polyline fill="none" opacity="1" stroke="#000000" stroke-width="1" points="77,68 77,699 "/>
<text x="68" y="699" dy="0.5ex" text-anchor="end" font-family="sans-serif" font-size="9.67741935483871" opacity="1" fill="#000000">
0 MB
</text>
<polyline fill="none" opacity="1" stroke="#000000" stroke-width="1" points="72,699 77,699 "/>
<text x="68" y="600" dy="0.5ex" text-anchor="end" font-family="sans-serif" font-size="9.67741935483871" opacity="1" fill="#000000">
190 MB
</text>
<polyline fill="none" opacity="1" stroke="#000000" stroke-width="1" points="72,600 77,600 "/>
<text x="68" y="501" dy="0.5ex" text-anchor="end" font-family="sans-serif" font-size="9.67741935483871" opacity="1" fill="#000000">
381 MB
</text>
<polyline fill="none" opacity="1" stroke="#000000" stroke-width="1" points="72,501 77,501 "/>
<text x="68" y="403" dy="0.5ex" text-anchor="end" font-family="sans-serif" font-size="9.67741935483871" opacity="1" fill="#000000">
572 MB
</text>
<polyline fill="none" opacity="1" stroke="#000000" stroke-width="1" points="72,403 77,403 "/>
<text x="68" y="304" dy="0.5ex" text-anchor="end" font-family="sans-serif" font-size="9.67741935483871" opacity="1" fill="#000000">
762 MB
</text>
<polyline fill="none" opacity="1" stroke="#000000" stroke-width="1" points="72,304 77,304 "/>
<text x="68" y="206" dy="0.5ex" text-anchor="end" font-family="sans-serif" font-size="9.67741935483871" opacity="1" fill="#000000">
953 MB
</text>
<polyline fill="none" opacity="1" stroke="#000000" stroke-width="1" points="72,206 77,206 "/>
<text x="68" y="107" dy="0.5ex" text-anchor="end" font-family="sans-serif" font-size="9.67741935483871" opacity="1" fill="#000000">
1144 MB
</text>
<polyline fill="none" opacity="1" stroke="#000000" stroke-width="1" points="72,107 77,107 "/>
<polyline fill="none" opacity="1" stroke="#000000" stroke-width="1" points="78,700 973,700 "/>
<text x="112" y="710" dy="0.76em" text-anchor="middle" font-family="sans-serif" font-size="9.67741935483871" opacity="1" fill="#000000">
07 17:46:40
</text>
<polyline fill="none" opacity="1" stroke="#000000" stroke-width="1" points="112,700 112,705 "/>
<text x="231" y="710" dy="0.76em" text-anchor="middle" font-family="sans-serif" font-size="9.67741935483871" opacity="1" fill="#000000">
07 20:33:20
</text>
<polyline fill="none" opacity="1" stroke="#000000" stroke-width="1" points="231,700 231,705 "/>
<text x="350" y="710" dy="0.76em" text-anchor="middle" font-family="sans-serif" font-size="9.67741935483871" opacity="1" fill="#000000">
07 23:20:00
</text>
<polyline fill="none" opacity="1" stroke="#000000" stroke-width="1" points="350,700 350,705 "/>
<text x="468" y="710" dy="0.76em" text-anchor="middle" font-family="sans-serif" font-size="9.67741935483871" opacity="1" fill="#000000">
08 02:06:40
</text>
<polyline fill="none" opacity="1" stroke="#000000" stroke-width="1" points="468,700 468,705 "/>
<text x="587" y="710" dy="0.76em" text-anchor="middle" font-family="sans-serif" font-size="9.67741935483871" opacity="1" fill="#000000">
08 04:53:20
</text>
<polyline fill="none" opacity="1" stroke="#000000" stroke-width="1" points="587,700 587,705 "/>
<text x="705" y="710" dy="0.76em" text-anchor="middle" font-family="sans-serif" font-size="9.67741935483871" opacity="1" fill="#000000">
08 07:40:00
</text>
<polyline fill="none" opacity="1" stroke="#000000" stroke-width="1" points="705,700 705,705 "/>
<text x="824" y="710" dy="0.76em" text-anchor="middle" font-family="sans-serif" font-size="9.67741935483871" opacity="1" fill="#000000">
08 10:26:40
</text>
<polyline fill="none" opacity="1" stroke="#000000" stroke-width="1" points="824,700 824,705 "/>
<text x="942" y="710" dy="0.76em" text-anchor="middle" font-family="sans-serif" font-size="9.67741935483871" opacity="1" fill="#000000">
08 13:13:20
</text>
<polyline fill="none" opacity="1" stroke="#000000" stroke-width="1" points="942,700 942,705 "/>
<polyline fill="none" opacity="1" stroke="#000000" stroke-width="1" points="78,67 974,67 "/>
<text x="112" y="58" dy="-0.5ex" text-anchor="middle" font-family="sans-serif" font-size="9.67741935483871" opacity="1" fill="#000000">
+00:49:04
</text>
<polyline fill="none" opacity="1" stroke="#000000" stroke-width="1" points="112,62 112,67 "/>
<text x="231" y="58" dy="-0.5ex" text-anchor="middle" font-family="sans-serif" font-size="9.67741935483871" opacity="1" fill="#000000">
+03:35:44
</text>
<polyline fill="none" opacity="1" stroke="#000000" stroke-width="1" points="231,62 231,67 "/>
<text x="350" y="58" dy="-0.5ex" text-anchor="middle" font-family="sans-serif" font-size="9.67741935483871" opacity="1" fill="#000000">
+06:22:24
</text>
<polyline fill="none" opacity="1" stroke="#000000" stroke-width="1" points="350,62 350,67 "/>
<text x="469" y="58" dy="-0.5ex" text-anchor="middle" font-family="sans-serif" font-size="9.67741935483871" opacity="1" fill="#000000">
+09:09:04
</text>
<polyline fill="none" opacity="1" stroke="#000000" stroke-width="1" points="469,62 469,67 "/>
<text x="587" y="58" dy="-0.5ex" text-anchor="middle" font-family="sans-serif" font-size="9.67741935483871" opacity="1" fill="#000000">
+11:55:44
</text>
<polyline fill="none" opacity="1" stroke="#000000" stroke-width="1" points="587,62 587,67 "/>
<text x="706" y="58" dy="-0.5ex" text-anchor="middle" font-family="sans-serif" font-size="9.67741935483871" opacity="1" fill="#000000">
+14:42:24
</text>
<polyline fill="none" opacity="1" stroke="#000000" stroke-width="1" points="706,62 706,67 "/>
<text x="825" y="58" dy="-0.5ex" text-anchor="middle" font-family="sans-serif" font-size="9.67741935483871" opacity="1" fill="#000000">
+17:29:04
</text>
<polyline fill="none" opacity="1" stroke="#000000" stroke-width="1" points="825,62 825,67 "/>
<text x="943" y="58" dy="-0.5ex" text-anchor="middle" font-family="sans-serif" font-size="9.67741935483871" opacity="1" fill="#000000">
+20:15:44
</text>
<polyline fill="none" opacity="1" stroke="#000000" stroke-width="1" points="943,62 943,67 "/>
</svg>
