<svg width="1024" height="768" viewBox="0 0 1024 768" xmlns="http://www.w3.org/2000/svg">
<rect x="0" y="0" width="1024" height="768" opacity="1" fill="#FFFFFF" stroke="none"/>
<polygon opacity="1" fill="#3CB44B" points="78,692 79,679 80,665 81,644 82,624 83,603 84,584 85,566 85,545 86,522 87,497 88,464 89,447 90,426 91,402 92,376 93,349 93,331 94,307 95,278 96,257 97,231 98,208 99,185 100,160 101,138 102,122 102,112 103,110 104,103 105,100 106,99 107,108 108,102 109,100 110,98 110,95 111,96 112,103 113,103 114,102 115,104 116,106 117,106 118,103 118,99 119,97 120,98 121,98 122,107 123,108 124,110 125,115 126,110 127,107 127,110 128,111 129,116 130,123 131,126 132,135 133,137 134,140 135,142 135,148 136,154 137,161 138,157 139,150 140,144 141,136 142,131 143,125 143,123 144,112 145,110 146,109 147,117 148,129 149,128 150,123 151,118 152,103 152,99 153,97 154,95 155,96 156,106 157,122 158,132 159,136 160,133 160,126 161,115 162,102 163,89 164,75 165,74 166,71 167,68 168,68 168,87 169,104 170,125 171,136 172,135 173,129 174,113 175,100 176,85 177,83 177,90 178,94 179,107 180,117 181,131 182,148 183,146 184,147 185,136 185,125 186,115 187,102 188,92 189,89 190,101 191,99 192,105 193,110 193,121 194,133 195,139 196,144 197,145 198,153 199,144 200,135 201,125 202,120 202,111 203,103 204,103 205,107 206,114 207,123 208,137 209,141 210,138 210,129 211,126 212,126 213,124 214,123 215,119 216,116 217,115 218,115 218,121 219,131 220,125 221,126 222,131 223,154 224,140 225,130 226,125 227,122 227,120 228,118 229,116 230,123 231,122 232,141 233,166 234,154 235,132 235,116 236,115 237,116 238,123 239,122 240,121 241,125 242,127 243,128 243,127 244,140 245,145 246,132 247,128 248,130 249,133 250,140 251,140 252,134 252,135 253,138 254,146 255,169 256,174 257,167 258,153 259,124 260,117 260,121 261,128 262,139 263,143 264,144 265,138 266,133 267,133 268,143 268,173 269,152 270,150 271,149 272,145 273,148 274,160 275,161 276,160 277,160 277,163 278,178 279,181 280,173 281,149 282,139 283,166 284,153 285,152 285,144 286,143 287,164 288,163 289,170 290,173 291,178 292,175 293,174 293,176 294,176 295,179 296,173 297,163 298,159 299,203 300,199 301,203 302,189 302,183 303,171 304,153 305,145 306,133 307,122 308,111 309,107 310,89 310,81 311,85 312,86 313,84 314,93 315,75 316,107 317,138 318,138 318,138 319,151 320,151 321,151 322,151 323,151 324,151 325,151 326,151 327,151 327,151 328,151 329,151 330,151 331,151 332,151 333,152 334,152 335,152 335,152 336,152 337,152 338,152 339,152 340,152 341,152 342,152 343,152 343,152 344,152 345,152 346,152 347,152 348,152 349,152 350,152 351,152 352,152 352,152 353,152 354,152 355,152 356,152 357,152 358,152 359,152 360,152 360,152 361,152 362,152 363,152 364,152 365,152 366,152 367,152 368,152 368,152 369,152 370,152 371,152 372,152 373,152 374,152 375,152 376,152 377,152 377,152 378,152 379,152 380,152 381,152 382,152 383,152 384,152 385,152 385,152 386,152 387,152 388,152 389,152 390,153 391,153 392,153 393,153 393,154 394,154 395,154 396,154 397,154 398,154 399,154 400,154 401,154 402,154 402,154 403,154 404,154 405,154 406,154 407,154 408,154 409,154 410,154 410,154 411,154 412,154 413,154 414,154 415,154 416,154 417,154 418,154 418,154 419,154 420,154 421,154 422,154 423,154 424,154 425,154 426,154 427,154 427,154 428,154 429,154 430,154 431,154 432,154 433,154 434,154 435,154 435,154 436,154 437,154 438,154 439,154 440,154 441,154 442,154 443,154 443,154 444,154 445,154 446,153 447,153 448,153 449,153 450,153 451,153 452,153 452,153 453,153 454,153 455,153 456,153 457,153 458,153 459,153 460,153 460,154 461,154 462,154 463,154 464,154 465,154 466,154 467,154 468,154 468,154 469,154 470,154 471,154 472,154 473,154 474,154 475,154 476,154 477,154 477,154 478,154 479,154 480,154 481,154 482,154 483,154 484,154 485,154 485,154 486,154 487,154 488,154 489,154 490,154 491,154 492,154 493,154 493,154 494,154 495,154 496,154 497,155 498,155 499,155 500,155 501,155 502,155 502,155 503,155 504,155 505,155 506,155 507,155 508,155 509,155 510,155 510,155 511,155 512,154 513,154 514,154 515,154 516,154 517,154 518,154 518,154 519,154 520,154 521,154 522,154 523,154 524,154 525,154 526,154 527,154 527,154 528,154 529,154 530,154 531,154 532,154 533,154 534,154 535,154 535,154 536,154 537,154 538,154 539,154 540,154 541,154 542,154 543,155 543,155 544,155 545,155 546,155 547,155 548,155 549,155 550,155 551,155 552,155 552,155 553,155 554,155 555,155 556,155 557,155 558,155 559,155 560,155 560,155 561,155 562,155 563,155 564,155 565,155 566,155 567,155 568,155 568,155 569,155 570,155 571,155 572,155 573,155 574,155 575,155 576,155 577,155 577,155 578,155 579,155 580,155 581,155 582,155 583,155 584,155 585,155 585,155 586,155 587,155 588,155 589,155 590,155 591,155 592,155 593,155 593,155 594,155 595,156 596,156 597,156 598,156 599,156 600,156 601,156 602,156 602,156 603,156 604,156 605,156 606,156 607,156 608,156 609,156 610,156 610,156 611,156 612,156 613,156 614,156 615,156 616,156 617,156 618,156 618,156 619,156 620,156 621,156 622,156 623,156 624,156 625,156 626,156 627,156 627,156 628,156 629,156 630,156 631,156 632,156 633,156 634,156 635,156 635,156 636,156 637,156 638,156 639,156 640,156 641,156 642,156 643,156 643,156 644,156 645,156 646,156 647,156 648,156 649,156 650,156 651,156 652,156 652,156 653,156 654,156 655,156 656,156 657,156 658,156 659,156 660,156 660,156 661,156 662,156 663,156 664,156 665,156 666,156 667,156 668,156 668,156 669,156 670,156 671,156 672,156 673,156 674,156 675,156 676,156 677,156 677,156 678,156 679,156 680,156 681,156 682,156 683,156 684,156 685,156 685,156 686,156 687,156 688,156 689,156 690,156 691,156 692,156 693,156 693,156 694,156 695,156 696,156 697,156 698,156 699,156 700,156 701,156 702,156 702,156 703,156 704,156 705,156 706,156 707,156 708,156 709,156 710,156 710,156 711,156 712,156 713,156 714,156 715,156 716,156 717,156 718,156 718,156 719,156 720,156 721,156 722,156 723,156 724,156 725,156 726,156 727,156 727,156 728,156 729,156 730,156 731,156 732,156 733,156 734,156 735,156 735,156 736,156 737,156 738,156 739,156 740,156 741,156 742,156 743,156 743,155 744,155 745,156 746,156 747,156 748,156 749,156 750,156 751,156 752,156 752,156 753,156 754,156 755,156 756,155 757,155 758,155 759,155 760,155 760,156 761,156 762,155 763,155 764,155 765,155 766,155 767,155 768,155 768,155 769,155 770,155 771,155 772,155 773,155 774,156 775,156 776,156 777,156 777,156 778,156 779,156 780,156 781,156 782,156 783,156 784,156 785,156 785,156 786,156 787,156 788,156 789,156 790,156 791,156 792,156 793,156 793,156 794,156 795,156 796,156 797,156 798,156 799,156 800,156 801,156 802,156 802,156 803,156 804,156 805,156 806,156 807,156 808,156 809,156 810,156 810,156 811,156 812,156 813,156 814,156 815,156 816,156 817,156 818,156 818,156 819,156 820,156 821,156 822,156 823,156 824,156 825,156 826,156 827,156 827,156 828,156 829,156 830,156 831,156 832,156 833,156 834,156 835,156 835,156 836,156 837,156 838,156 839,156 840,156 841,156 842,156 843,156 843,156 844,156 845,156 846,156 847,156 848,156 849,156 850,156 851,156 852,156 852,156 853,156 854,156 855,156 856,156 857,156 858,156 859,156 860,156 860,156 861,157 862,157 863,157 864,157 865,157 866,157 867,157 868,157 868,156 869,156 870,156 871,156 872,156 873,156 874,156 875,156 876,156 877,156 877,156 878,156 879,156 880,156 881,156 882,156 883,156 884,156 885,156 885,156 886,156 887,156 888,156 889,156 890,156 891,156 892,156 893,156 893,156 894,156 895,156 896,156 897,156 898,156 899,156 900,156 901,156 902,156 902,156 903,156 904,156 905,156 906,156 907,156 908,156 909,156 910,156 910,156 911,156 912,156 913,156 914,160 915,160 916,160 917,160 918,160 918,160 919,160 920,160 921,160 922,160 923,160 924,160 925,160 926,160 927,160 927,161 928,161 929,161 930,161 931,161 932,161 933,161 934,161 935,161 935,161 936,161 937,161 938,161 939,161 940,161 941,161 942,161 943,160 943,160 944,160 945,160 946,160 947,160 948,160 949,160 950,160 951,160 952,160 952,160 953,160 954,160 955,160 956,160 957,160 958,160 959,160 960,160 960,160 961,160 961,160 962,160 963,160 964,160 965,160 966,160 967,160 968,160 968,160 969,160 970,160 971,160 971,160 973,160 973,699 78,699 "/>
<polyline fill="none" opacity="1" stroke="#3CB44B" stroke-width="1" points="78,692 79,679 80,665 81,644 82,624 83,603 84,584 85,566 85,545 86,522 87,497 88,464 89,447 90,426 91,402 92,376 93,349 93,331 94,307 95,278 96,257 97,231 98,208 99,185 100,160 101,138 102,122 102,112 103,110 104,103 105,100 106,99 107,108 108,102 109,100 110,98 110,95 111,96 112,103 113,103 114,102 115,104 116,106 117,106 118,103 118,99 119,97 120,98 121,98 122,107 123,108 124,110 125,115 126,110 127,107 127,110 128,111 129,116 130,123 131,126 132,135 133,137 134,140 135,142 135,148 136,154 137,161 138,157 139,150 140,144 141,136 142,131 143,125 143,123 144,112 145,110 146,109 147,117 148,129 149,128 150,123 151,118 152,103 152,99 153,97 154,95 155,96 156,106 157,122 158,132 159,136 160,133 160,126 161,115 162,102 163,89 164,75 165,74 166,71 167,68 168,68 168,87 169,104 170,125 171,136 172,135 173,129 174,113 175,100 176,85 177,83 177,90 178,94 179,107 180,117 181,131 182,148 183,146 184,147 185,136 185,125 186,115 187,102 188,92 189,89 190,101 191,99 192,105 193,110 193,121 194,133 195,139 196,144 197,145 198,153 199,144 200,135 201,125 202,120 202,111 203,103 204,103 205,107 206,114 207,123 208,137 209,141 210,138 210,129 211,126 212,126 213,124 214,123 215,119 216,116 217,115 218,115 218,121 219,131 220,125 221,126 222,131 223,154 224,140 225,130 226,125 227,122 227,120 228,118 229,116 230,123 231,122 232,141 233,166 234,154 235,132 235,116 236,115 237,116 238,123 239,122 240,121 241,125 242,127 243,128 243,127 244,140 245,145 246,132 247,128 248,130 249,133 250,140 251,140 252,134 252,135 253,138 254,146 255,169 256,174 257,167 258,153 259,124 260,117 260,121 261,128 262,139 263,143 264,144 265,138 266,133 267,133 268,143 268,173 269,152 270,150 271,149 272,145 273,148 274,160 275,161 276,160 277,160 277,163 278,178 279,181 280,173 281,149 282,139 283,166 284,153 285,152 285,144 286,143 287,164 288,163 289,170 290,173 291,178 292,175 293,174 293,176 294,176 295,179 296,173 297,163 298,159 299,203 300,199 301,203 302,189 302,183 303,171 304,153 305,145 306,133 307,122 308,111 309,107 310,89 310,81 311,85 312,86 313,84 314,93 315,75 316,107 317,138 318,138 318,138 319,151 320,151 321,151 322,151 323,151 324,151 325,151 326,151 327,151 327,151 328,151 329,151 330,151 331,151 332,151 333,152 334,152 335,152 335,152 336,152 337,152 338,152 339,152 340,152 341,152 342,152 343,152 343,152 344,152 345,152 346,152 347,152 348,152 349,152 350,152 351,152 352,152 352,152 353,152 354,152 355,152 356,152 357,152 358,152 359,152 360,152 360,152 361,152 362,152 363,152 364,152 365,152 366,152 367,152 368,152 368,152 369,152 370,152 371,152 372,152 373,152 374,152 375,152 376,152 377,152 377,152 378,152 379,152 380,152 381,152 382,152 383,152 384,152 385,152 385,152 386,152 387,152 388,152 389,152 390,153 391,153 392,153 393,153 393,154 394,154 395,154 396,154 397,154 398,154 399,154 400,154 401,154 402,154 402,154 403,154 404,154 405,154 406,154 407,154 408,154 409,154 410,154 410,154 411,154 412,154 413,154 414,154 415,154 416,154 417,154 418,154 418,154 419,154 420,154 421,154 422,154 423,154 424,154 425,154 426,154 427,154 427,154 428,154 429,154 430,154 431,154 432,154 433,154 434,154 435,154 435,154 436,154 437,154 438,154 439,154 440,154 441,154 442,154 443,154 443,154 444,154 445,154 446,153 447,153 448,153 449,153 450,153 451,153 452,153 452,153 453,153 454,153 455,153 456,153 457,153 458,153 459,153 460,153 460,154 461,154 462,154 463,154 464,154 465,154 466,154 467,154 468,154 468,154 469,154 470,154 471,154 472,154 473,154 474,154 475,154 476,154 477,154 477,154 478,154 479,154 480,154 481,154 482,154 483,154 484,154 485,154 485,154 486,154 487,154 488,154 489,154 490,154 491,154 492,154 493,154 493,154 494,154 495,154 496,154 497,155 498,155 499,155 500,155 501,155 502,155 502,155 503,155 504,155 505,155 506,155 507,155 508,155 509,155 510,155 510,155 511,155 512,154 513,154 514,154 515,154 516,154 517,154 518,154 518,154 519,154 520,154 521,154 522,154 523,154 524,154 525,154 526,154 527,154 527,154 528,154 529,154 530,154 531,154 532,154 533,154 534,154 535,154 535,154 536,154 537,154 538,154 539,154 540,154 541,154 542,154 543,155 543,155 544,155 545,155 546,155 547,155 548,155 549,155 550,155 551,155 552,155 552,155 553,155 554,155 555,155 556,155 557,155 558,155 559,155 560,155 560,155 561,155 562,155 563,155 564,155 565,155 566,155 567,155 568,155 568,155 569,155 570,155 571,155 572,155 573,155 574,155 575,155 576,155 577,155 577,155 578,155 579,155 580,155 581,155 582,155 583,155 584,155 585,155 585,155 586,155 587,155 588,155 589,155 590,155 591,155 592,155 593,155 593,155 594,155 595,156 596,156 597,156 598,156 599,156 600,156 601,156 602,156 602,156 603,156 604,156 605,156 606,156 607,156 608,156 609,156 610,156 610,156 611,156 612,156 613,156 614,156 615,156 616,156 617,156 618,156 618,156 619,156 620,156 621,156 622,156 623,156 624,156 625,156 626,156 627,156 627,156 628,156 629,156 630,156 631,156 632,156 633,156 634,156 635,156 635,156 636,156 637,156 638,156 639,156 640,156 641,156 642,156 643,156 643,156 644,156 645,156 646,156 647,156 648,156 649,156 650,156 651,156 652,156 652,156 653,156 654,156 655,156 656,156 657,156 658,156 659,156 660,156 660,156 661,156 662,156 663,156 664,156 665,156 666,156 667,156 668,156 668,156 669,156 670,156 671,156 672,156 673,156 674,156 675,156 676,156 677,156 677,156 678,156 679,156 680,156 681,156 682,156 683,156 684,156 685,156 685,156 686,156 687,156 688,156 689,156 690,156 691,156 692,156 693,156 693,156 694,156 695,156 696,156 697,156 698,156 699,156 700,156 701,156 702,156 702,156 703,156 704,156 705,156 706,156 707,156 708,156 709,156 710,156 710,156 711,156 712,156 713,156 714,156 715,156 716,156 717,156 718,156 718,156 719,156 720,156 721,156 722,156 723,156 724,156 725,156 726,156 727,156 727,156 728,156 729,156 730,156 731,156 732,156 733,156 734,156 735,156 735,156 736,156 737,156 738,156 739,156 740,156 741,156 742,156 743,156 743,155 744,155 745,156 746,156 747,156 748,156 749,156 750,156 751,156 752,156 752,156 753,156 754,156 755,156 756,155 757,155 758,155 759,155 760,155 760,156 761,156 762,155 763,155 764,155 765,155 766,155 767,155 768,155 768,155 769,155 770,155 771,155 772,155 773,155 774,156 775,156 776,156 777,156 777,156 778,156 779,156 780,156 781,156 782,156 783,156 784,156 785,156 785,156 786,156 787,156 788,156 789,156 790,156 791,156 792,156 793,156 793,156 794,156 795,156 796,156 797,156 798,156 799,156 800,156 801,156 802,156 802,156 803,156 804,156 805,156 806,156 807,156 808,156 809,156 810,156 810,156 811,156 812,156 813,156 814,156 815,156 816,156 817,156 818,156 818,156 819,156 820,156 821,156 822,156 823,156 824,156 825,156 826,156 827,156 827,156 828,156 829,156 830,156 831,156 832,156 833,156 834,156 835,156 835,156 836,156 837,156 838,156 839,156 840,156 841,156 842,156 843,156 843,156 844,156 845,156 846,156 847,156 848,156 849,156 850,156 851,156 852,156 852,156 853,156 854,156 855,156 856,156 857,156 858,156 859,156 860,156 860,156 861,157 862,157 863,157 864,157 865,157 866,157 867,157 868,157 868,156 869,156 870,156 871,156 872,156 873,156 874,156 875,156 876,156 877,156 877,156 878,156 879,156 880,156 881,156 882,156 883,156 884,156 885,156 885,156 886,156 887,156 888,156 889,156 890,156 891,156 892,156 893,156 893,156 894,156 895,156 896,156 897,156 898,156 899,156 900,156 901,156 902,156 902,156 903,156 904,156 905,156 906,156 907,156 908,156 909,156 910,156 910,156 911,156 912,156 913,156 914,160 915,160 916,160 917,160 918,160 918,160 919,160 920,160 921,160 922,160 923,160 924,160 925,160 926,160 927,160 927,161 928,161 929,161 930,161 931,161 932,161 933,161 934,161 935,161 935,161 936,161 937,161 938,161 939,161 940,161 941,161 942,161 943,160 943,160 944,160 945,160 946,160 947,160 948,160 949,160 950,160 951,160 952,160 952,160 953,160 954,160 955,160 956,160 957,160 958,160 959,160 960,160 960,160 961,160 961,160 962,160 963,160 964,160 965,160 966,160 967,160 968,160 968,160 969,160 970,160 971,160 971,160 973,160 "/>
<polygon opacity="1" fill="#E6194B" points="78,699 79,699 80,699 81,699 82,699 83,699 84,699 85,699 85,699 86,699 87,699 88,699 89,699 90,699 91,699 92,699 93,699 93,699 94,699 95,699 96,699 97,699 98,699 99,699 100,699 101,699 102,699 102,699 103,699 104,699 105,699 106,699 107,699 108,699 109,699 110,699 110,699 111,699 112,699 113,699 114,699 115,699 116,699 117,699 118,699 118,699 119,699 120,699 121,699 122,699 123,699 124,699 125,699 126,699 127,699 127,699 128,699 129,699 130,699 131,699 132,699 133,699 134,699 135,699 135,699 136,699 137,699 138,699 139,699 140,699 141,699 142,699 143,699 143,699 144,699 145,699 146,699 147,699 148,699 149,699 150,699 151,699 152,699 152,699 153,699 154,699 155,699 156,699 157,699 158,699 159,699 160,699 160,699 161,699 162,699 163,699 164,699 165,699 166,699 167,699 168,699 168,699 169,699 170,699 171,699 172,699 173,699 174,699 175,699 176,699 177,699 177,699 178,699 179,699 180,699 181,699 182,699 183,699 184,699 185,699 185,699 186,699 187,699 188,699 189,699 190,699 191,699 192,699 193,699 193,699 194,699 195,699 196,699 197,699 198,699 199,699 200,699 201,699 202,699 202,699 203,699 204,699 205,699 206,699 207,699 208,699 209,699 210,699 210,699 211,699 212,699 213,699 214,699 215,699 216,699 217,699 218,699 218,699 219,699 220,699 221,699 222,699 223,699 224,699 225,699 226,699 227,699 227,699 228,699 229,699 230,699 231,699 232,699 233,699 234,699 235,699 235,699 236,699 237,699 238,699 239,699 240,699 241,699 242,699 243,699 243,699 244,699 245,699 246,699 247,699 248,699 249,699 250,699 251,699 252,699 252,699 253,699 254,699 255,699 256,699 257,699 258,699 259,699 260,699 260,699 261,699 262,699 263,699 264,699 265,699 266,699 267,699 268,699 268,699 269,699 270,699 271,699 272,699 273,699 274,699 275,699 276,699 277,699 277,699 278,699 279,699 280,699 281,699 282,699 283,699 284,699 285,699 285,699 286,699 287,699 288,699 289,698 290,698 291,698 292,698 293,698 293,698 294,698 295,698 296,698 297,698 298,698 299,695 300,691 301,685 302,672 302,655 303,640 304,619 305,603 306,579 307,550 308,523 309,502 310,468 310,438 311,408 312,379 313,337 314,294 315,225 316,183 317,171 318,171 318,171 319,171 320,171 321,171 322,171 323,171 324,171 325,171 326,171 327,171 327,171 328,171 329,171 330,171 331,171 332,171 333,171 334,170 335,170 335,170 336,170 337,170 338,170 339,170 340,170 341,170 342,170 343,170 343,170 344,170 345,170 346,170 347,170 348,170 349,170 350,170 351,170 352,170 352,170 353,170 354,170 355,170 356,170 357,170 358,170 359,170 360,170 360,170 361,170 362,170 363,170 364,170 365,170 366,170 367,170 368,170 368,170 369,170 370,170 371,170 372,170 373,170 374,170 375,170 376,170 377,170 377,170 378,170 379,170 380,170 381,170 382,170 383,170 384,170 385,170 385,170 386,170 387,170 388,170 389,170 390,170 391,170 392,170 393,170 393,170 394,170 395,170 396,170 397,170 398,170 399,170 400,170 401,169 402,169 402,169 403,169 404,169 405,169 406,169 407,169 408,169 409,169 410,169 410,169 411,169 412,169 413,169 414,169 415,169 416,169 417,169 418,169 418,169 419,169 420,169 421,169 422,169 423,169 424,169 425,169 426,169 427,169 427,169 428,169 429,169 430,169 431,169 432,169 433,169 434,169 435,169 435,169 436,169 437,169 438,169 439,169 440,169 441,169 442,169 443,169 443,169 444,169 445,169 446,169 447,169 448,169 449,169 450,169 451,169 452,169 452,169 453,169 454,169 455,169 456,169 457,169 458,169 459,169 460,169 460,169 461,169 462,169 463,169 464,169 465,169 466,168 467,168 468,168 468,168 469,168 470,168 471,168 472,168 473,168 474,168 475,168 476,168 477,168 477,168 478,168 479,168 480,168 481,168 482,168 483,168 484,168 485,168 485,168 486,168 487,168 488,168 489,168 490,168 491,168 492,168 493,168 493,168 494,168 495,168 496,168 497,168 498,168 499,168 500,168 501,168 502,168 502,168 503,168 504,168 505,168 506,168 507,168 508,168 509,168 510,168 510,168 511,168 512,168 513,168 514,168 515,168 516,168 517,168 518,168 518,168 519,168 520,168 521,168 522,168 523,168 524,168 525,168 526,167 527,167 527,167 528,167 529,167 530,167 531,167 532,167 533,167 534,167 535,167 535,167 536,167 537,167 538,167 539,167 540,167 541,167 542,167 543,167 543,167 544,167 545,167 546,167 547,167 548,167 549,167 550,167 551,167 552,167 552,167 553,167 554,167 555,167 556,167 557,167 558,167 559,167 560,167 560,167 561,167 562,167 563,167 564,167 565,167 566,167 567,167 568,167 568,167 569,167 570,167 571,167 572,167 573,167 574,167 575,167 576,167 577,167 577,167 578,167 579,167 580,167 581,167 582,167 583,167 584,167 585,167 585,167 586,167 587,167 588,167 589,167 590,167 591,167 592,167 593,167 593,167 594,167 595,167 596,167 597,167 598,167 599,167 600,167 601,167 602,167 602,167 603,167 604,167 605,167 606,167 607,167 608,167 609,167 610,167 610,167 611,167 612,167 613,167 614,167 615,166 616,166 617,166 618,166 618,166 619,166 620,166 621,166 622,166 623,166 624,166 625,166 626,166 627,166 627,166 628,166 629,166 630,166 631,166 632,166 633,166 634,166 635,166 635,166 636,166 637,166 638,166 639,166 640,166 641,166 642,166 643,166 643,166 644,166 645,166 646,166 647,166 648,166 649,166 650,166 651,166 652,166 652,166 653,166 654,166 655,166 656,166 657,166 658,166 659,166 660,166 660,166 661,166 662,166 663,166 664,166 665,166 666,166 667,166 668,166 668,166 669,165 670,165 671,165 672,165 673,165 674,165 675,165 676,165 677,165 677,165 678,165 679,165 680,165 681,165 682,165 683,165 684,165 685,165 685,165 686,165 687,165 688,165 689,165 690,165 691,165 692,165 693,165 693,165 694,165 695,165 696,165 697,165 698,165 699,165 700,165 701,165 702,165 702,165 703,165 704,165 705,165 706,165 707,165 708,165 709,165 710,165 710,165 711,165 712,165 713,165 714,165 715,165 716,165 717,165 718,165 718,165 719,165 720,165 721,165 722,165 723,165 724,165 725,165 726,164 727,164 727,164 728,164 729,164 730,164 731,164 732,164 733,164 734,164 735,164 735,164 736,164 737,164 738,164 739,164 740,164 741,164 742,164 743,164 743,164 744,164 745,164 746,164 747,164 748,164 749,164 750,164 751,164 752,164 752,164 753,164 754,164 755,164 756,164 757,164 758,164 759,164 760,164 760,164 761,164 762,164 763,164 764,164 765,164 766,164 767,164 768,164 768,164 769,164 770,163 771,163 772,163 773,163 774,163 775,163 776,163 777,163 777,163 778,163 779,163 780,163 781,163 782,163 783,163 784,163 785,163 785,163 786,163 787,163 788,163 789,163 790,163 791,163 792,163 793,163 793,163 794,163 795,163 796,163 797,163 798,163 799,163 800,163 801,163 802,163 802,163 803,163 804,163 805,163 806,163 807,163 808,163 809,163 810,163 810,163 811,163 812,163 813,163 814,163 815,163 816,163 817,163 818,163 818,163 819,163 820,163 821,163 822,163 823,163 824,163 825,163 826,163 827,163 827,163 828,163 829,163 830,163 831,163 832,162 833,162 834,162 835,162 835,162 836,162 837,162 838,162 839,162 840,162 841,162 842,162 843,162 843,162 844,162 845,162 846,162 847,162 848,162 849,162 850,162 851,162 852,162 852,162 853,162 854,162 855,162 856,162 857,162 858,162 859,162 860,162 860,162 861,162 862,162 863,162 864,162 865,162 866,162 867,162 868,162 868,162 869,162 870,162 871,162 872,162 873,162 874,162 875,162 876,162 877,162 877,162 878,162 879,162 880,162 881,162 882,162 883,162 884,162 885,162 885,162 886,162 887,162 888,162 889,161 890,161 891,161 892,161 893,161 893,161 894,161 895,161 896,161 897,161 898,161 899,161 900,161 901,161 902,161 902,161 903,161 904,161 905,161 906,161 907,161 908,161 909,161 910,161 910,161 911,161 912,161 913,161 914,161 915,161 916,161 917,161 918,161 918,161 919,161 920,161 921,161 922,161 923,161 924,161 925,161 926,161 927,161 927,161 928,161 929,161 930,161 931,161 932,161 933,161 934,161 935,161 935,161 936,161 937,161 938,161 939,161 940,161 941,161 942,161 943,161 943,161 944,161 945,161 946,161 947,161 948,161 949,161 950,161 951,161 952,161 952,161 953,161 954,161 955,161 956,161 957,161 958,160 959,160 960,160 960,160 961,160 961,160 962,160 963,160 964,160 965,160 966,160 967,160 968,160 968,160 969,160 970,160 971,160 971,160 973,160 973,699 78,699 "/>
<polyline fill="none" opacity="1" stroke="#E6194B" stroke-width="1" points="78,699 79,699 80,699 81,699 82,699 83,699 84,699 85,699 85,699 86,699 87,699 88,699 89,699 90,699 91,699 92,699 93,699 93,699 94,699 95,699 96,699 97,699 98,699 99,699 100,699 101,699 102,699 102,699 103,699 104,699 105,699 106,699 107,699 108,699 109,699 110,699 110,699 111,699 112,699 113,699 114,699 115,699 116,699 117,699 118,699 118,699 119,699 120,699 121,699 122,699 123,699 124,699 125,699 126,699 127,699 127,699 128,699 129,699 130,699 131,699 132,699 133,699 134,699 135,699 135,699 136,699 137,699 138,699 139,699 140,699 141,699 142,699 143,699 143,699 144,699 145,699 146,699 147,699 148,699 149,699 150,699 151,699 152,699 152,699 153,699 154,699 155,699 156,699 157,699 158,699 159,699 160,699 160,699 161,699 162,699 163,699 164,699 165,699 166,699 167,699 168,699 168,699 169,699 170,699 171,699 172,699 173,699 174,699 175,699 176,699 177,699 177,699 178,699 179,699 180,699 181,699 182,699 183,699 184,699 185,699 185,699 186,699 187,699 188,699 189,699 190,699 191,699 192,699 193,699 193,699 194,699 195,699 196,699 197,699 198,699 199,699 200,699 201,699 202,699 202,699 203,699 204,699 205,699 206,699 207,699 208,699 209,699 210,699 210,699 211,699 212,699 213,699 214,699 215,699 216,699 217,699 218,699 218,699 219,699 220,699 221,699 222,699 223,699 224,699 225,699 226,699 227,699 227,699 228,699 229,699 230,699 231,699 232,699 233,699 234,699 235,699 235,699 236,699 237,699 238,699 239,699 240,699 241,699 242,699 243,699 243,699 244,699 245,699 246,699 247,699 248,699 249,699 250,699 251,699 252,699 252,699 253,699 254,699 255,699 256,699 257,699 258,699 259,699 260,699 260,699 261,699 262,699 263,699 264,699 265,699 266,699 267,699 268,699 268,699 269,699 270,699 271,699 272,699 273,699 274,699 275,699 276,699 277,699 277,699 278,699 279,699 280,699 281,699 282,699 283,699 284,699 285,699 285,699 286,699 287,699 288,699 289,698 290,698 291,698 292,698 293,698 293,698 294,698 295,698 296,698 297,698 298,698 299,695 300,691 301,685 302,672 302,655 303,640 304,619 305,603 306,579 307,550 308,523 309,502 310,468 310,438 311,408 312,379 313,337 314,294 315,225 316,183 317,171 318,171 318,171 319,171 320,171 321,171 322,171 323,171 324,171 325,171 326,171 327,171 327,171 328,171 329,171 330,171 331,171 332,171 333,171 334,170 335,170 335,170 336,170 337,170 338,170 339,170 340,170 341,170 342,170 343,170 343,170 344,170 345,170 346,170 347,170 348,170 349,170 350,170 351,170 352,170 352,170 353,170 354,170 355,170 356,170 357,170 358,170 359,170 360,170 360,170 361,170 362,170 363,170 364,170 365,170 366,170 367,170 368,170 368,170 369,170 370,170 371,170 372,170 373,170 374,170 375,170 376,170 377,170 377,170 378,170 379,170 380,170 381,170 382,170 383,170 384,170 385,170 385,170 386,170 387,170 388,170 389,170 390,170 391,170 392,170 393,170 393,170 394,170 395,170 396,170 397,170 398,170 399,170 400,170 401,169 402,169 402,169 403,169 404,169 405,169 406,169 407,169 408,169 409,169 410,169 410,169 411,169 412,169 413,169 414,169 415,169 416,169 417,169 418,169 418,169 419,169 420,169 421,169 422,169 423,169 424,169 425,169 426,169 427,169 427,169 428,169 429,169 430,169 431,169 432,169 433,169 434,169 435,169 435,169 436,169 437,169 438,169 439,169 440,169 441,169 442,169 443,169 443,169 444,169 445,169 446,169 447,169 448,169 449,169 450,169 451,169 452,169 452,169 453,169 454,169 455,169 456,169 457,169 458,169 459,169 460,169 460,169 461,169 462,169 463,169 464,169 465,169 466,168 467,168 468,168 468,168 469,168 470,168 471,168 472,168 473,168 474,168 475,168 476,168 477,168 477,168 478,168 479,168 480,168 481,168 482,168 483,168 484,168 485,168 485,168 486,168 487,168 488,168 489,168 490,168 491,168 492,168 493,168 493,168 494,168 495,168 496,168 497,168 498,168 499,168 500,168 501,168 502,168 502,168 503,168 504,168 505,168 506,168 507,168 508,168 509,168 510,168 510,168 511,168 512,168 513,168 514,168 515,168 516,168 517,168 518,168 518,168 519,168 520,168 521,168 522,168 523,168 524,168 525,168 526,167 527,167 527,167 528,167 529,167 530,167 531,167 532,167 533,167 534,167 535,167 535,167 536,167 537,167 538,167 539,167 540,167 541,167 542,167 543,167 543,167 544,167 545,167 546,167 547,167 548,167 549,167 550,167 551,167 552,167 552,167 553,167 554,167 555,167 556,167 557,167 558,167 559,167 560,167 560,167 561,167 562,167 563,167 564,167 565,167 566,167 567,167 568,167 568,167 569,167 570,167 571,167 572,167 573,167 574,167 575,167 576,167 577,167 577,167 578,167 579,167 580,167 581,167 582,167 583,167 584,167 585,167 585,167 586,167 587,167 588,167 589,167 590,167 591,167 592,167 593,167 593,167 594,167 595,167 596,167 597,167 598,167 599,167 600,167 601,167 602,167 602,167 603,167 604,167 605,167 606,167 607,167 608,167 609,167 610,167 610,167 611,167 612,167 613,167 614,167 615,166 616,166 617,166 618,166 618,166 619,166 620,166 621,166 622,166 623,166 624,166 625,166 626,166 627,166 627,166 628,166 629,166 630,166 631,166 632,166 633,166 634,166 635,166 635,166 636,166 637,166 638,166 639,166 640,166 641,166 642,166 643,166 643,166 644,166 645,166 646,166 647,166 648,166 649,166 650,166 651,166 652,166 652,166 653,166 654,166 655,166 656,166 657,166 658,166 659,166 660,166 660,166 661,166 662,166 663,166 664,166 665,166 666,166 667,166 668,166 668,166 669,165 670,165 671,165 672,165 673,165 674,165 675,165 676,165 677,165 677,165 678,165 679,165 680,165 681,165 682,165 683,165 684,165 685,165 685,165 686,165 687,165 688,165 689,165 690,165 691,165 692,165 693,165 693,165 694,165 695,165 696,165 697,165 698,165 699,165 700,165 701,165 702,165 702,165 703,165 704,165 705,165 706,165 707,165 708,165 709,165 710,165 710,165 711,165 712,165 713,165 714,165 715,165 716,165 717,165 718,165 718,165 719,165 720,165 721,165 722,165 723,165 724,165 725,165 726,164 727,164 727,164 728,164 729,164 730,164 731,164 732,164 733,164 734,164 735,164 735,164 736,164 737,164 738,164 739,164 740,164 741,164 742,164 743,164 743,164 744,164 745,164 746,164 747,164 748,164 749,164 750,164 751,164 752,164 752,164 753,164 754,164 755,164 756,164 757,164 758,164 759,164 760,164 760,164 761,164 762,164 763,164 764,164 765,164 766,164 767,164 768,164 768,164 769,164 770,163 771,163 772,163 773,163 774,163 775,163 776,163 777,163 777,163 778,163 779,163 780,163 781,163 782,163 783,163 784,163 785,163 785,163 786,163 787,163 788,163 789,163 790,163 791,163 792,163 793,163 793,163 794,163 795,163 796,163 797,163 798,163 799,163 800,163 801,163 802,163 802,163 803,163 804,163 805,163 806,163 807,163 808,163 809,163 810,163 810,163 811,163 812,163 813,163 814,163 815,163 816,163 817,163 818,163 818,163 819,163 820,163 821,163 822,163 823,163 824,163 825,163 826,163 827,163 827,163 828,163 829,163 830,163 831,163 832,162 833,162 834,162 835,162 835,162 836,162 837,162 838,162 839,162 840,162 841,162 842,162 843,162 843,162 844,162 845,162 846,162 847,162 848,162 849,162 850,162 851,162 852,162 852,162 853,162 854,162 855,162 856,162 857,162 858,162 859,162 860,162 860,162 861,162 862,162 863,162 864,162 865,162 866,162 867,162 868,162 868,162 869,162 870,162 871,162 872,162 873,162 874,162 875,162 876,162 877,162 877,162 878,162 879,162 880,162 881,162 882,162 883,162 884,162 885,162 885,162 886,162 887,162 888,162 889,161 890,161 891,161 892,161 893,161 893,161 894,161 895,161 896,161 897,161 898,161 899,161 900,161 901,161 902,161 902,161 903,161 904,161 905,161 906,161 907,161 908,161 909,161 910,161 910,161 911,161 912,161 913,161 914,161 915,161 916,161 917,161 918,161 918,161 919,161 920,161 921,161 922,161 923,161 924,161 925,161 926,161 927,161 927,161 928,161 929,161 930,161 931,161 932,161 933,161 934,161 935,161 935,161 936,161 937,161 938,161 939,161 940,161 941,161 942,161 943,161 943,161 944,161 945,161 946,161 947,161 948,161 949,161 950,161 951,161 952,161 952,161 953,161 954,161 955,161 956,161 957,161 958,160 959,160 960,160 960,160 961,160 961,160 962,160 963,160 964,160 965,160 966,160 967,160 968,160 968,160 969,160 970,160 971,160 971,160 973,160 "/>
<line opacity="0.1" stroke="#000000" stroke-width="1" x1="85" y1="699" x2="85" y2="68"/>
<line opacity="0.1" stroke="#000000" stroke-width="1" x1="94" y1="699" x2="94" y2="68"/>
<line opacity="0.1" stroke="#000000" stroke-width="1" x1="103" y1="699" x2="103" y2="68"/>
<line opacity="0.1" stroke="#000000" stroke-width="1" x1="112" y1="699" x2="112" y2="68"/>
<line opacity="0.1" stroke="#000000" stroke-width="1" x1="121" y1="699" x2="121" y2="68"/>
<line opacity="0.1" stroke="#000000" stroke-width="1" x1="130" y1="699" x2="130" y2="68"/>
<line opacity="0.1" stroke="#000000" stroke-width="1" x1="138" y1="699" x2="138" y2="68"/>
<line opacity="0.1" stroke="#000000" stroke-width="1" x1="147" y1="699" x2="147" y2="68"/>
<line opacity="0.1" stroke="#000000" stroke-width="1" x1="156" y1="699" x2="156" y2="68"/>
<line opacity="0.1" stroke="#000000" stroke-width="1" x1="165" y1="699" x2="165" y2="68"/>
<line opacity="0.1" stroke="#000000" stroke-width="1" x1="174" y1="699" x2="174" y2="68"/>
<line opacity="0.1" stroke="#000000" stroke-width="1" x1="183" y1="699" x2="183" y2="68"/>
<line opacity="0.1" stroke="#000000" stroke-width="1" x1="191" y1="699" x2="191" y2="68"/>
<line opacity="0.1" stroke="#000000" stroke-width="1" x1="200" y1="699" x2="200" y2="68"/>
<line opacity="0.1" stroke="#000000" stroke-width="1" x1="209" y1="699" x2="209" y2="68"/>
<line opacity="0.1" stroke="#000000" stroke-width="1" x1="218" y1="699" x2="218" y2="68"/>
<line opacity="0.1" stroke="#000000" stroke-width="1" x1="227" y1="699" x2="227" y2="68"/>
<line opacity="0.1" stroke="#000000" stroke-width="1" x1="236" y1="699" x2="236" y2="68"/>
<line opacity="0.1" stroke="#000000" stroke-width="1" x1="244" y1="699" x2="244" y2="68"/>
<line opacity="0.1" stroke="#000000" stroke-width="1" x1="253" y1="699" x2="253" y2="68"/>
<line opacity="0.1" stroke="#000000" stroke-width="1" x1="262" y1="699" x2="262" y2="68"/>
<line opacity="0.1" stroke="#000000" stroke-width="1" x1="271" y1="699" x2="271" y2="68"/>
<line opacity="0.1" stroke="#000000" stroke-width="1" x1="280" y1="699" x2="280" y2="68"/>
<line opacity="0.1" stroke="#000000" stroke-width="1" x1="289" y1="699" x2="289" y2="68"/>
<line opacity="0.1" stroke="#000000" stroke-width="1" x1="298" y1="699" x2="298" y2="68"/>
<line opacity="0.1" stroke="#000000" stroke-width="1" x1="306" y1="699" x2="306" y2="68"/>
<line opacity="0.1" stroke="#000000" stroke-width="1" x1="315" y1="699" x2="315" y2="68"/>
<line opacity="0.1" stroke="#000000" stroke-width="1" x1="324" y1="699" x2="324" y2="68"/>
<line opacity="0.1" stroke="#000000" stroke-width="1" x1="333" y1="699" x2="333" y2="68"/>
<line opacity="0.1" stroke="#000000" stroke-width="1" x1="342" y1="699" x2="342" y2="68"/>
<line opacity="0.1" stroke="#000000" stroke-width="1" x1="351" y1="699" x2="351" y2="68"/>
<line opacity="0.1" stroke="#000000" stroke-width="1" x1="359" y1="699" x2="359" y2="68"/>
<line opacity="0.1" stroke="#000000" stroke-width="1" x1="368" y1="699" x2="368" y2="68"/>
<line opacity="0.1" stroke="#000000" stroke-width="1" x1="377" y1="699" x2="377" y2="68"/>
<line opacity="0.1" stroke="#000000" stroke-width="1" x1="386" y1="699" x2="386" y2="68"/>
<line opacity="0.1" stroke="#000000" stroke-width="1" x1="395" y1="699" x2="395" y2="68"/>
<line opacity="0.1" stroke="#000000" stroke-width="1" x1="404" y1="699" x2="404" y2="68"/>
<line opacity="0.1" stroke="#000000" stroke-width="1" x1="412" y1="699" x2="412" y2="68"/>
<line opacity="0.1" stroke="#000000" stroke-width="1" x1="421" y1="699" x2="421" y2="68"/>
<line opacity="0.1" stroke="#000000" stroke-width="1" x1="430" y1="699" x2="430" y2="68"/>
<line opacity="0.1" stroke="#000000" stroke-width="1" x1="439" y1="699" x2="439" y2="68"/>
<line opacity="0.1" stroke="#000000" stroke-width="1" x1="448" y1="699" x2="448" y2="68"/>
<line opacity="0.1" stroke="#000000" stroke-width="1" x1="457" y1="699" x2="457" y2="68"/>
<line opacity="0.1" stroke="#000000" stroke-width="1" x1="465" y1="699" x2="465" y2="68"/>
<line opacity="0.1" stroke="#000000" stroke-width="1" x1="474" y1="699" x2="474" y2="68"/>
<line opacity="0.1" stroke="#000000" stroke-width="1" x1="483" y1="699" x2="483" y2="68"/>
<line opacity="0.1" stroke="#000000" stroke-width="1" x1="492" y1="699" x2="492" y2="68"/>
<line opacity="0.1" stroke="#000000" stroke-width="1" x1="501" y1="699" x2="501" y2="68"/>
<line opacity="0.1" stroke="#000000" stroke-width="1" x1="510" y1="699" x2="510" y2="68"/>
<line opacity="0.1" stroke="#000000" stroke-width="1" x1="518" y1="699" x2="518" y2="68"/>
<line opacity="0.1" stroke="#000000" stroke-width="1" x1="527" y1="699" x2="527" y2="68"/>
<line opacity="0.1" stroke="#000000" stroke-width="1" x1="536" y1="699" x2="536" y2="68"/>
<line opacity="0.1" stroke="#000000" stroke-width="1" x1="545" y1="699" x2="545" y2="68"/>
<line opacity="0.1" stroke="#000000" stroke-width="1" x1="554" y1="699" x2="554" y2="68"/>
<line opacity="0.1" stroke="#000000" stroke-width="1" x1="563" y1="699" x2="563" y2="68"/>
<line opacity="0.1" stroke="#000000" stroke-width="1" x1="572" y1="699" x2="572" y2="68"/>
<line opacity="0.1" stroke="#000000" stroke-width="1" x1="580" y1="699" x2="580" y2="68"/>
<line opacity="0.1" stroke="#000000" stroke-width="1" x1="589" y1="699" x2="589" y2="68"/>
<line opacity="0.1" stroke="#000000" stroke-width="1" x1="598" y1="699" x2="598" y2="68"/>
<line opacity="0.1" stroke="#000000" stroke-width="1" x1="607" y1="699" x2="607" y2="68"/>
<line opacity="0.1" stroke="#000000" stroke-width="1" x1="616" y1="699" x2="616" y2="68"/>
<line opacity="0.1" stroke="#000000" stroke-width="1" x1="625" y1="699" x2="625" y2="68"/>
<line opacity="0.1" stroke="#000000" stroke-width="1" x1="633" y1="699" x2="633" y2="68"/>
<line opacity="0.1" stroke="#000000" stroke-width="1" x1="642" y1="699" x2="642" y2="68"/>
<line opacity="0.1" stroke="#000000" stroke-width="1" x1="651" y1="699" x2="651" y2="68"/>
<line opacity="0.1" stroke="#000000" stroke-width="1" x1="660" y1="699" x2="660" y2="68"/>
<line opacity="0.1" stroke="#000000" stroke-width="1" x1="669" y1="699" x2="669" y2="68"/>
<line opacity="0.1" stroke="#000000" stroke-width="1" x1="678" y1="699" x2="678" y2="68"/>
<line opacity="0.1" stroke="#000000" stroke-width="1" x1="686" y1="699" x2="686" y2="68"/>
<line opacity="0.1" stroke="#000000" stroke-width="1" x1="695" y1="699" x2="695" y2="68"/>
<line opacity="0.1" stroke="#000000" stroke-width="1" x1="704" y1="699" x2="704" y2="68"/>
<line opacity="0.1" stroke="#000000" stroke-width="1" x1="713" y1="699" x2="713" y2="68"/>
<line opacity="0.1" stroke="#000000" stroke-width="1" x1="722" y1="699" x2="722" y2="68"/>
<line opacity="0.1" stroke="#000000" stroke-width="1" x1="731" y1="699" x2="731" y2="68"/>
<line opacity="0.1" stroke="#000000" stroke-width="1" x1="739" y1="699" x2="739" y2="68"/>
<line opacity="0.1" stroke="#000000" stroke-width="1" x1="748" y1="699" x2="748" y2="68"/>
<line opacity="0.1" stroke="#000000" stroke-width="1" x1="757" y1="699" x2="757" y2="68"/>
<line opacity="0.1" stroke="#000000" stroke-width="1" x1="766" y1="699" x2="766" y2="68"/>
<line opacity="0.1" stroke="#000000" stroke-width="1" x1="775" y1="699" x2="775" y2="68"/>
<line opacity="0.1" stroke="#000000" stroke-width="1" x1="784" y1="699" x2="784" y2="68"/>
<line opacity="0.1" stroke="#000000" stroke-width="1" x1="792" y1="699" x2="792" y2="68"/>
<line opacity="0.1" stroke="#000000" stroke-width="1" x1="801" y1="699" x2="801" y2="68"/>
<line opacity="0.1" stroke="#000000" stroke-width="1" x1="810" y1="699" x2="810" y2="68"/>
<line opacity="0.1" stroke="#000000" stroke-width="1" x1="819" y1="699" x2="819" y2="68"/>
<line opacity="0.1" stroke="#000000" stroke-width="1" x1="828" y1="699" x2="828" y2="68"/>
<line opacity="0.1" stroke="#000000" stroke-width="1" x1="837" y1="699" x2="837" y2="68"/>
<line opacity="0.1" stroke="#000000" stroke-width="1" x1="846" y1="699" x2="846" y2="68"/>
<line opacity="0.1" stroke="#000000" stroke-width="1" x1="854" y1="699" x2="854" y2="68"/>
<line opacity="0.1" stroke="#000000" stroke-width="1" x1="863" y1="699" x2="863" y2="68"/>
<line opacity="0.1" stroke="#000000" stroke-width="1" x1="872" y1="699" x2="872" y2="68"/>
<line opacity="0.1" stroke="#000000" stroke-width="1" x1="881" y1="699" x2="881" y2="68"/>
<line opacity="0.1" stroke="#000000" stroke-width="1" x1="890" y1="699" x2="890" y2="68"/>
<line opacity="0.1" stroke="#000000" stroke-width="1" x1="899" y1="699" x2="899" y2="68"/>
<line opacity="0.1" stroke="#000000" stroke-width="1" x1="907" y1="699" x2="907" y2="68"/>
<line opacity="0.1" stroke="#000000" stroke-width="1" x1="916" y1="699" x2="916" y2="68"/>
<line opacity="0.1" stroke="#000000" stroke-width="1" x1="925" y1="699" x2="925" y2="68"/>
<line opacity="0.1" stroke="#000000" stroke-width="1" x1="934" y1="699" x2="934" y2="68"/>
<line opacity="0.1" stroke="#000000" stroke-width="1" x1="943" y1="699" x2="943" y2="68"/>
<line opacity="0.1" stroke="#000000" stroke-width="1" x1="952" y1="699" x2="952" y2="68"/>
<line opacity="0.1" stroke="#000000" stroke-width="1" x1="960" y1="699" x2="960" y2="68"/>
<line opacity="0.1" stroke="#000000" stroke-width="1" x1="969" y1="699" x2="969" y2="68"/>
<line opacity="0.1" stroke="#000000" stroke-width="1" x1="78" y1="699" x2="973" y2="699"/>
<line opacity="0.1" stroke="#000000" stroke-width="1" x1="78" y1="691" x2="973" y2="691"/>
<line opacity="0.1" stroke="#000000" stroke-width="1" x1="78" y1="683" x2="973" y2="683"/>
<line opacity="0.1" stroke="#000000" stroke-width="1" x1="78" y1="675" x2="973" y2="675"/>
<line opacity="0.1" stroke="#000000" stroke-width="1" x1="78" y1="667" x2="973" y2="667"/>
<line opacity="0.1" stroke="#000000" stroke-width="1" x1="78" y1="659" x2="973" y2="659"/>
<line opacity="0.1" stroke="#000000" stroke-width="1" x1="78" y1="651" x2="973" y2="651"/>
<line opacity="0.1" stroke="#000000" stroke-width="1" x1="78" y1="643" x2="973" y2="643"/>
<line opacity="0.1" stroke="#000000" stroke-width="1" x1="78" y1="635" x2="973" y2="635"/>
<line opacity="0.1" stroke="#000000" stroke-width="1" x1="78" y1="628" x2="973" y2="628"/>
<line opacity="0.1" stroke="#000000" stroke-width="1" x1="78" y1="620" x2="973" y2="620"/>
<line opacity="0.1" stroke="#000000" stroke-width="1" x1="78" y1="612" x2="973" y2="612"/>
<line opacity="0.1" stroke="#000000" stroke-width="1" x1="78" y1="604" x2="973" y2="604"/>
<line opacity="0.1" stroke="#000000" stroke-width="1" x1="78" y1="596" x2="973" y2="596"/>
<line opacity="0.1" stroke="#000000" stroke-width="1" x1="78" y1="588" x2="973" y2="588"/>
<line opacity="0.1" stroke="#000000" stroke-width="1" x1="78" y1="580" x2="973" y2="580"/>
<line opacity="0.1" stroke="#000000" stroke-width="1" x1="78" y1="572" x2="973" y2="572"/>
<line opacity="0.1" stroke="#000000" stroke-width="1" x1="78" y1="565" x2="973" y2="565"/>
<line opacity="0.1" stroke="#000000" stroke-width="1" x1="78" y1="557" x2="973" y2="557"/>
<line opacity="0.1" stroke="#000000" stroke-width="1" x1="78" y1="549" x2="973" y2="549"/>
<line opacity="0.1" stroke="#000000" stroke-width="1" x1="78" y1="541" x2="973" y2="541"/>
<line opacity="0.1" stroke="#000000" stroke-width="1" x1="78" y1="533" x2="973" y2="533"/>
<line opacity="0.1" stroke="#000000" stroke-width="1" x1="78" y1="525" x2="973" y2="525"/>
<line opacity="0.1" stroke="#000000" stroke-width="1" x1="78" y1="517" x2="973" y2="517"/>
<line opacity="0.1" stroke="#000000" stroke-width="1" x1="78" y1="509" x2="973" y2="509"/>
<line opacity="0.1" stroke="#000000" stroke-width="1" x1="78" y1="502" x2="973" y2="502"/>
<line opacity="0.1" stroke="#000000" stroke-width="1" x1="78" y1="494" x2="973" y2="494"/>
<line opacity="0.1" stroke="#000000" stroke-width="1" x1="78" y1="486" x2="973" y2="486"/>
<line opacity="0.1" stroke="#000000" stroke-width="1" x1="78" y1="478" x2="973" y2="478"/>
<line opacity="0.1" stroke="#000000" stroke-width="1" x1="78" y1="470" x2="973" y2="470"/>
<line opacity="0.1" stroke="#000000" stroke-width="1" x1="78" y1="462" x2="973" y2="462"/>
<line opacity="0.1" stroke="#000000" stroke-width="1" x1="78" y1="454" x2="973" y2="454"/>
<line opacity="0.1" stroke="#000000" stroke-width="1" x1="78" y1="446" x2="973" y2="446"/>
<line opacity="0.1" stroke="#000000" stroke-width="1" x1="78" y1="439" x2="973" y2="439"/>
<line opacity="0.1" stroke="#000000" stroke-width="1" x1="78" y1="431" x2="973" y2="431"/>
<line opacity="0.1" stroke="#000000" stroke-width="1" x1="78" y1="423" x2="973" y2="423"/>
<line opacity="0.1" stroke="#000000" stroke-width="1" x1="78" y1="415" x2="973" y2="415"/>
<line opacity="0.1" stroke="#000000" stroke-width="1" x1="78" y1="407" x2="973" y2="407"/>
<line opacity="0.1" stroke="#000000" stroke-width="1" x1="78" y1="399" x2="973" y2="399"/>
<line opacity="0.1" stroke="#000000" stroke-width="1" x1="78" y1="391" x2="973" y2="391"/>
<line opacity="0.1" stroke="#000000" stroke-width="1" x1="78" y1="383" x2="973" y2="383"/>
<line opacity="0.1" stroke="#000000" stroke-width="1" x1="78" y1="375" x2="973" y2="375"/>
<line opacity="0.1" stroke="#000000" stroke-width="1" x1="78" y1="368" x2="973" y2="368"/>
<line opacity="0.1" stroke="#000000" stroke-width="1" x1="78" y1="360" x2="973" y2="360"/>
<line opacity="0.1" stroke="#000000" stroke-width="1" x1="78" y1="352" x2="973" y2="352"/>
<line opacity="0.1" stroke="#000000" stroke-width="1" x1="78" y1="344" x2="973" y2="344"/>
<line opacity="0.1" stroke="#000000" stroke-width="1" x1="78" y1="336" x2="973" y2="336"/>
<line opacity="0.1" stroke="#000000" stroke-width="1" x1="78" y1="328" x2="973" y2="328"/>
<line opacity="0.1" stroke="#000000" stroke-width="1" x1="78" y1="320" x2="973" y2="320"/>
<line opacity="0.1" stroke="#000000" stroke-width="1" x1="78" y1="312" x2="973" y2="312"/>
<line opacity="0.1" stroke="#000000" stroke-width="1" x1="78" y1="305" x2="973" y2="305"/>
<line opacity="0.1" stroke="#000000" stroke-width="1" x1="78" y1="297" x2="973" y2="297"/>
<line opacity="0.1" stroke="#000000" stroke-width="1" x1="78" y1="289" x2="973" y2="289"/>
<line opacity="0.1" stroke="#000000" stroke-width="1" x1="78" y1="281" x2="973" y2="281"/>
<line opacity="0.1" stroke="#000000" stroke-width="1" x1="78" y1="273" x2="973" y2="273"/>
<line opacity="0.1" stroke="#000000" stroke-width="1" x1="78" y1="265" x2="973" y2="265"/>
<line opacity="0.1" stroke="#000000" stroke-width="1" x1="78" y1="257" x2="973" y2="257"/>
<line opacity="0.1" stroke="#000000" stroke-width="1" x1="78" y1="249" x2="973" y2="249"/>
<line opacity="0.1" stroke="#000000" stroke-width="1" x1="78" y1="242" x2="973" y2="242"/>
<line opacity="0.1" stroke="#000000" stroke-width="1" x1="78" y1="234" x2="973" y2="234"/>
<line opacity="0.1" stroke="#000000" stroke-width="1" x1="78" y1="226" x2="973" y2="226"/>
<line opacity="0.1" stroke="#000000" stroke-width="1" x1="78" y1="218" x2="973" y2="218"/>
<line opacity="0.1" stroke="#000000" stroke-width="1" x1="78" y1="210" x2="973" y2="210"/>
<line opacity="0.1" stroke="#000000" stroke-width="1" x1="78" y1="202" x2="973" y2="202"/>
<line opacity="0.1" stroke="#000000" stroke-width="1" x1="78" y1="194" x2="973" y2="194"/>
<line opacity="0.1" stroke="#000000" stroke-width="1" x1="78" y1="186" x2="973" y2="186"/>
<line opacity="0.1" stroke="#000000" stroke-width="1" x1="78" y1="179" x2="973" y2="179"/>
<line opacity="0.1" stroke="#000000" stroke-width="1" x1="78" y1="171" x2="973" y2="171"/>
<line opacity="0.1" stroke="#000000" stroke-width="1" x1="78" y1="163" x2="973" y2="163"/>
<line opacity="0.1" stroke="#000000" stroke-width="1" x1="78" y1="155" x2="973" y2="155"/>
<line opacity="0.1" stroke="#000000" stroke-width="1" x1="78" y1="147" x2="973" y2="147"/>
<line opacity="0.1" stroke="#000000" stroke-width="1" x1="78" y1="139" x2="973" y2="139"/>
<line opacity="0.1" stroke="#000000" stroke-width="1" x1="78" y1="131" x2="973" y2="131"/>
<line opacity="0.1" stroke="#000000" stroke-width="1" x1="78" y1="123" x2="973" y2="123"/>
<line opacity="0.1" stroke="#000000" stroke-width="1" x1="78" y1="116" x2="973" y2="116"/>
<line opacity="0.1" stroke="#000000" stroke-width="1" x1="78" y1="108" x2="973" y2="108"/>
<line opacity="0.1" stroke="#000000" stroke-width="1" x1="78" y1="100" x2="973" y2="100"/>
<line opacity="0.1" stroke="#000000" stroke-width="1" x1="78" y1="92" x2="973" y2="92"/>
<line opacity="0.1" stroke="#000000" stroke-width="1" x1="78" y1="84" x2="973" y2="84"/>
<line opacity="0.1" stroke="#000000" stroke-width="1" x1="78" y1="76" x2="973" y2="76"/>
<line opacity="0.1" stroke="#000000" stroke-width="1" x1="78" y1="68" x2="973" y2="68"/>
<text x="8" y="384" dy="0.76em" text-anchor="middle" font-family="sans-serif" font-size="9.67741935483871" opacity="1" fill="#000000" transform="rotate(270, 8, 384)">
Memory usage
</text>
<text x="526" y="760" dy="-0.5ex" text-anchor="middle" font-family="sans-serif" font-size="9.67741935483871" opacity="1" fill="#000000">
Time
</text>
<line opacity="0.2" stroke="#000000" stroke-width="1" x1="130" y1="699" x2="130" y2="68"/>
<line opacity="0.2" stroke="#000000" stroke-width="1" x1="306" y1="699" x2="306" y2="68"/>
<line opacity="0.2" stroke="#000000" stroke-width="1" x1="483" y1="699" x2="483" y2="68"/>
<line opacity="0.2" stroke="#000000" stroke-width="1" x1="660" y1="699" x2="660" y2="68"/>
<line opacity="0.2" stroke="#000000" stroke-width="1" x1="837" y1="699" x2="837" y2="68"/>
<line opacity="0.2" stroke="#000000" stroke-width="1" x1="78" y1="699" x2="973" y2="699"/>
<line opacity="0.2" stroke="#000000" stroke-width="1" x1="78" y1="620" x2="973" y2="620"/>
<line opacity="0.2" stroke="#000000" stroke-width="1" x1="78" y1="541" x2="973" y2="541"/>
<line opacity="0.2" stroke="#000000" stroke-width="1" x1="78" y1="462" x2="973" y2="462"/>
<line opacity="0.2" stroke="#000000" stroke-width="1" x1="78" y1="383" x2="973" y2="383"/>
<line opacity="0.2" stroke="#000000" stroke-width="1" x1="78" y1="305" x2="973" y2="305"/>
<line opacity="0.2" stroke="#000000" stroke-width="1" x1="78" y1="226" x2="973" y2="226"/>
<line opacity="0.2" stroke="#000000" stroke-width="1" x1="78" y1="147" x2="973" y2="147"/>
<line opacity="0.2" stroke="#000000" stroke-width="1" x1="78" y1="68" x2="973" y2="68"/>
<polyline fill="none" opacity="1" stroke="#000000" stroke-width="1" points="77,68 77,699 "/>
<text x="68" y="699" dy="0.5ex" text-anchor="end" font-family="sans-serif" font-size="9.67741935483871" opacity="1" fill="#000000">
0 MB
</text>
<polyline fill="none" opacity="1" stroke="#000000" stroke-width="1" points="72,699 77,699 "/>
<text x="68" y="620" dy="0.5ex" text-anchor="end" font-family="sans-serif" font-size="9.67741935483871" opacity="1" fill="#000000">
19 MB
</text>
<polyline fill="none" opacity="1" stroke="#000000" stroke-width="1" points="72,620 77,620 "/>
<text x="68" y="541" dy="0.5ex" text-anchor="end" font-family="sans-serif" font-size="9.67741935483871" opacity="1" fill="#000000">
38 MB
</text>
<polyline fill="none" opacity="1" stroke="#000000" stroke-width="1" points="72,541 77,541 "/>
<text x="68" y="462" dy="0.5ex" text-anchor="end" font-family="sans-serif" font-size="9.67741935483871" opacity="1" fill="#000000">
57 MB
</text>
<polyline fill="none" opacity="1" stroke="#000000" stroke-width="1" points="72,462 77,462 "/>
<text x="68" y="383" dy="0.5ex" text-anchor="end" font-family="sans-serif" font-size="9.67741935483871" opacity="1" fill="#000000">
76 MB
</text>
<polyline fill="none" opacity="1" stroke="#000000" stroke-width="1" points="72,383 77,383 "/>
<text x="68" y="305" dy="0.5ex" text-anchor="end" font-family="sans-serif" font-size="9.67741935483871" opacity="1" fill="#000000">
95 MB
</text>
<polyline fill="none" opacity="1" stroke="#000000" stroke-width="1" points="72,305 77,305 "/>
<text x="68" y="226" dy="0.5ex" text-anchor="end" font-family="sans-serif" font-size="9.67741935483871" opacity="1" fill="#000000">
114 MB
</text>
<polyline fill="none" opacity="1" stroke="#000000" stroke-width="1" points="72,226 77,226 "/>
<text x="68" y="147" dy="0.5ex" text-anchor="end" font-family="sans-serif" font-size="9.67741935483871" opacity="1" fill="#000000">
133 MB
</text>
<polyline fill="none" opacity="1" stroke="#000000" stroke-width="1" points="72,147 77,147 "/>
<text x="68" y="68" dy="0.5ex" text-anchor="end" font-family="sans-serif" font-size="9.67741935483871" opacity="1" fill="#000000">
152 MB
</text>
<polyline fill="none" opacity="1" stroke="#000000" stroke-width="1" points="72,68 77,68 "/>
<polyline fill="none" opacity="1" stroke="#000000" stroke-width="1" points="78,700 973,700 "/>
<text x="130" y="710" dy="0.76em" text-anchor="middle" font-family="sans-serif" font-size="9.67741935483871" opacity="1" fill="#000000">
07 17:46:40
</text>
<polyline fill="none" opacity="1" stroke="#000000" stroke-width="1" points="130,700 130,705 "/>
<text x="306" y="710" dy="0.76em" text-anchor="middle" font-family="sans-serif" font-size="9.67741935483871" opacity="1" fill="#000000">
07 20:33:20
</text>
<polyline fill="none" opacity="1" stroke="#000000" stroke-width="1" points="306,700 306,705 "/>
<text x="483" y="710" dy="0.76em" text-anchor="middle" font-family="sans-serif" font-size="9.67741935483871" opacity="1" fill="#000000">
07 23:20:00
</text>
<polyline fill="none" opacity="1" stroke="#000000" stroke-width="1" points="483,700 483,705 "/>
<text x="660" y="710" dy="0.76em" text-anchor="middle" font-family="sans-serif" font-size="9.67741935483871" opacity="1" fill="#000000">
08 02:06:40
</text>
<polyline fill="none" opacity="1" stroke="#000000" stroke-width="1" points="660,700 660,705 "/>
<text x="837" y="710" dy="0.76em" text-anchor="middle" font-family="sans-serif" font-size="9.67741935483871" opacity="1" fill="#000000">
08 04:53:20
</text>
<polyline fill="none" opacity="1" stroke="#000000" stroke-width="1" points="837,700 837,705 "/>
<polyline fill="none" opacity="1" stroke="#000000" stroke-width="1" points="78,67 974,67 "/>
<text x="130" y="58" dy="-0.5ex" text-anchor="middle" font-family="sans-serif" font-size="9.67741935483871" opacity="1" fill="#000000">
+00:49:04
</text>
<polyline fill="none" opacity="1" stroke="#000000" stroke-width="1" points="130,62 130,67 "/>
<text x="307" y="58" dy="-0.5ex" text-anchor="middle" font-family="sans-serif" font-size="9.67741935483871" opacity="1" fill="#000000">
+03:35:44
</text>
<polyline fill="none" opacity="1" stroke="#000000" stroke-width="1" points="307,62 307,67 "/>
<text x="484" y="58" dy="-0.5ex" text-anchor="middle" font-family="sans-serif" font-size="9.67741935483871" opacity="1" fill="#000000">
+06:22:24
</text>
<polyline fill="none" opacity="1" stroke="#000000" stroke-width="1" points="484,62 484,67 "/>
<text x="661" y="58" dy="-0.5ex" text-anchor="middle" font-family="sans-serif" font-size="9.67741935483871" opacity="1" fill="#000000">
+09:09:04
</text>
<polyline fill="none" opacity="1" stroke="#000000" stroke-width="1" points="661,62 661,67 "/>
<text x="838" y="58" dy="-0.5ex" text-anchor="middle" font-family="sans-serif" font-size="9.67741935483871" opacity="1" fill="#000000">
+11:55:44
</text>
<polyline fill="none" opacity="1" stroke="#000000" stroke-width="1" points="838,62 838,67 "/>
<rect x="83" y="73" width="99" height="45" opacity="0.75" fill="#FFFFFF" stroke="none"/>
<rect x="83" y="73" width="99" height="45" opacity="1" fill="none" stroke="#000000"/>
<text x="123" y="83" dy="0.76em" text-anchor="start" font-family="sans-serif" font-size="9.67741935483871" opacity="1" fill="#000000">
Temporary
</text>
<text x="123" y="98" dy="0.76em" text-anchor="start" font-family="sans-serif" font-size="9.67741935483871" opacity="1" fill="#000000">
Leaked
</text>
<rect x="93" y="83" width="10" height="10" opacity="1" fill="#3CB44B" stroke="none"/>
<rect x="93" y="98" width="10" height="10" opacity="1" fill="#E6194B" stroke="none"/>
</svg>
