<svg width="1024" height="768" viewBox="0 0 1024 768" xmlns="http://www.w3.org/2000/svg">
<rect x="0" y="0" width="1024" height="768" opacity="1" fill="#FFFFFF" stroke="none"/>
<polygon opacity="1" fill="#3CB44B" points="78,696 79,692 80,687 81,681 82,677 83,666 83,663 84,657 85,640 86,634 87,631 88,612 89,603 90,599 91,597 91,580 92,576 93,563 94,546 95,539 96,536 97,535 98,504 99,500 99,498 100,475 101,475 102,468 103,453 104,456 105,466 106,451 106,445 107,446 108,446 109,426 110,427 111,425 112,427 113,438 114,452 114,458 115,457 116,474 117,438 118,442 119,442 120,451 121,455 122,472 122,475 123,440 124,442 125,451 126,440 127,436 128,437 129,446 129,447 130,402 131,402 132,413 133,428 134,432 135,430 136,431 137,439 137,441 138,409 139,413 140,451 141,464 142,471 143,478 144,476 144,482 145,429 146,431 147,399 148,399 149,403 150,427 151,438 152,464 152,421 153,424 154,427 155,431 156,424 157,442 158,426 159,425 160,425 160,420 161,423 162,447 163,449 164,468 165,410 166,425 167,425 167,432 168,433 169,398 170,399 171,399 172,405 173,424 174,425 175,445 175,446 176,404 177,410 178,417 179,431 180,431 181,393 182,394 183,401 183,404 184,399 185,406 186,417 187,420 188,432 189,383 190,390 190,391 191,390 192,393 193,392 194,394 195,396 196,395 197,403 198,403 198,404 199,416 200,416 201,416 202,425 203,423 204,426 205,425 206,427 206,351 207,351 208,347 209,352 210,368 211,367 212,367 213,366 213,366 214,366 215,359 216,365 217,368 218,361 219,336 220,347 221,349 221,316 222,321 223,332 224,347 225,351 226,344 227,336 228,339 229,377 229,363 230,366 231,373 232,289 233,299 234,301 235,325 236,325 236,322 237,325 238,338 239,343 240,315 241,334 242,364 243,388 244,384 244,282 245,280 246,295 247,293 248,292 249,312 250,317 251,328 251,358 252,363 253,369 254,366 255,318 256,338 257,220 258,220 259,246 259,246 260,262 261,263 262,263 263,274 264,275 265,325 266,343 267,376 267,331 268,319 269,321 270,174 271,171 272,176 273,203 274,217 274,257 275,286 276,290 277,298 278,341 279,368 280,375 281,373 282,140 282,125 283,129 284,139 285,146 286,172 287,179 288,189 289,219 290,218 290,230 291,229 292,308 293,315 294,345 295,335 296,319 297,326 297,157 298,68 299,78 300,94 301,92 302,104 303,214 304,248 305,262 305,259 306,308 307,296 308,292 309,292 310,287 311,294 312,325 313,319 313,317 314,309 315,291 316,287 317,287 318,287 319,287 320,287 320,287 321,287 322,287 323,287 324,287 325,287 326,287 327,287 328,287 328,287 329,287 330,287 331,287 332,287 333,287 334,295 335,295 336,295 336,295 337,295 338,295 339,295 340,295 341,295 342,295 343,295 343,295 344,295 345,295 346,295 347,295 348,295 349,295 350,295 351,295 351,295 352,295 353,295 354,295 355,295 356,295 357,295 358,295 359,295 359,295 360,295 361,295 362,295 363,295 364,295 365,295 366,295 366,295 367,295 368,295 369,295 370,295 371,295 372,295 373,295 374,295 374,295 375,295 376,295 377,295 378,295 379,295 380,295 381,295 381,295 382,295 383,295 384,295 385,295 386,295 387,295 388,295 389,295 389,295 390,295 391,295 392,295 393,295 394,295 395,295 396,295 397,295 397,295 398,295 399,295 400,295 401,295 402,295 403,295 404,295 404,295 405,295 406,295 407,295 408,295 409,295 410,295 411,295 412,295 412,295 413,295 414,295 415,295 416,295 417,295 418,295 419,295 420,295 420,295 421,295 422,295 423,295 424,295 425,295 426,295 427,295 427,295 428,295 429,295 430,295 431,295 432,295 433,295 434,295 435,295 435,295 436,295 437,295 438,295 439,295 440,295 441,295 442,295 443,295 443,295 444,295 445,295 446,295 447,295 448,295 449,295 450,295 450,295 451,295 452,295 453,295 454,295 455,295 456,295 457,295 458,295 458,295 459,295 460,295 461,295 462,295 463,295 464,295 465,295 466,295 466,295 467,295 468,295 469,295 470,295 471,295 472,295 473,295 473,295 474,295 475,295 476,295 477,295 478,295 479,295 480,295 481,295 481,295 482,295 483,295 484,295 485,295 486,295 487,295 488,295 488,295 489,295 490,295 491,295 492,295 493,295 494,295 495,295 496,295 496,295 497,295 498,295 499,295 500,295 501,295 502,295 503,295 504,295 504,295 505,295 506,295 507,295 508,295 509,295 510,295 511,295 511,295 512,295 513,295 514,295 515,295 516,295 517,295 518,295 519,295 519,295 520,295 521,295 522,295 523,295 524,295 525,295 526,295 527,295 527,295 528,295 529,295 530,295 531,295 532,295 533,295 534,295 534,295 535,295 536,295 537,295 538,295 539,295 540,295 541,295 542,295 542,295 543,295 544,295 545,295 546,295 547,295 548,295 549,295 550,295 550,295 551,295 552,295 553,295 554,295 555,295 556,295 557,295 557,295 558,295 559,295 560,295 561,295 562,295 563,295 564,295 565,295 565,295 566,295 567,295 568,295 569,295 570,295 571,295 572,295 573,295 573,295 574,295 575,295 576,295 577,295 578,295 579,295 580,295 580,295 581,295 582,295 583,295 584,295 585,295 586,295 587,295 588,295 588,295 589,295 590,295 591,295 592,295 593,295 594,295 595,295 595,295 596,295 597,295 598,295 599,295 600,295 601,295 602,295 603,295 603,295 604,295 605,295 606,295 607,295 608,295 609,295 610,295 611,295 611,295 612,295 613,295 614,295 615,295 616,295 617,295 618,295 618,295 619,295 620,295 621,295 622,295 623,295 624,295 625,295 626,295 626,295 627,295 628,295 629,295 630,295 631,295 632,295 633,295 634,295 634,295 635,295 636,295 637,295 638,295 639,295 640,295 641,295 641,295 642,295 643,295 644,295 645,295 646,295 647,295 648,295 649,295 649,295 650,295 651,295 652,295 653,295 654,295 655,295 656,295 657,295 657,295 658,295 659,295 660,295 661,295 662,295 663,295 664,295 664,295 665,295 666,295 667,295 668,295 669,295 670,295 671,295 672,295 672,295 673,295 674,295 675,295 676,295 677,295 678,295 679,295 680,295 680,295 681,295 682,295 683,295 684,295 685,295 686,295 687,295 687,295 688,295 689,295 690,295 691,295 692,295 693,295 694,295 695,295 695,295 696,295 697,295 698,295 699,295 700,295 701,295 702,295 703,295 703,295 704,295 705,295 706,295 707,295 708,295 709,295 710,295 710,295 711,295 712,295 713,295 714,295 715,295 716,295 717,295 718,295 718,295 719,295 720,295 721,295 722,295 723,295 724,295 725,295 725,295 726,295 727,295 728,295 729,295 730,295 731,295 732,295 733,295 733,295 734,295 735,295 736,295 737,295 738,295 739,295 740,295 741,295 741,295 742,295 743,295 744,295 745,295 746,295 747,295 748,295 748,295 749,295 750,295 751,295 752,295 753,295 754,295 755,295 756,295 756,295 757,295 758,295 759,295 760,295 761,295 762,295 763,295 764,295 764,295 765,295 766,295 767,295 768,295 769,295 770,295 771,295 771,295 772,295 773,295 774,295 775,295 776,295 777,295 778,295 779,295 779,295 780,295 781,295 782,295 783,295 784,295 785,295 786,295 787,295 787,295 788,295 789,295 790,295 791,295 792,295 793,295 794,295 794,295 795,295 796,295 797,295 798,295 799,295 800,295 801,295 802,295 802,295 803,295 804,295 805,295 806,295 807,295 808,295 809,295 810,295 810,295 811,295 812,295 813,295 814,295 815,295 816,295 817,295 817,295 818,295 819,295 820,295 821,295 822,295 823,295 824,295 825,295 825,295 826,295 827,295 828,295 829,295 830,295 831,295 832,295 832,295 833,295 834,295 835,295 836,295 837,295 838,295 839,295 840,295 840,295 841,295 842,295 843,295 844,295 845,295 846,295 847,295 848,295 848,295 849,295 850,295 851,295 852,295 853,295 854,295 855,295 855,295 856,295 857,295 858,295 859,295 860,295 861,295 862,295 863,295 863,295 864,295 865,295 866,295 867,295 868,295 869,295 870,295 871,295 871,295 872,295 873,295 874,295 875,295 876,295 877,295 878,295 878,295 879,295 880,295 881,295 882,295 883,295 884,295 885,295 886,295 886,295 887,295 888,295 889,295 890,295 891,295 892,295 893,295 894,295 894,295 895,295 896,295 897,295 898,295 899,295 900,295 901,295 901,295 902,295 903,295 904,295 905,295 906,295 907,294 907,296 908,296 909,296 909,296 910,296 911,296 912,296 913,296 914,296 915,296 916,296 917,296 917,296 918,296 919,296 920,296 921,296 922,296 923,296 924,296 924,296 925,296 926,296 927,296 928,296 929,296 930,296 931,296 932,296 932,296 933,296 934,296 935,296 936,296 937,296 938,296 939,296 939,296 940,296 941,296 942,296 943,296 944,296 945,296 946,296 947,296 947,296 948,296 949,296 950,296 951,296 952,296 953,296 954,296 955,296 955,296 956,296 957,296 958,296 959,296 960,296 961,296 962,296 962,296 973,296 973,699 78,699 "/>
<polyline fill="none" opacity="1" stroke="#3CB44B" stroke-width="1" points="78,696 79,692 80,687 81,681 82,677 83,666 83,663 84,657 85,640 86,634 87,631 88,612 89,603 90,599 91,597 91,580 92,576 93,563 94,546 95,539 96,536 97,535 98,504 99,500 99,498 100,475 101,475 102,468 103,453 104,456 105,466 106,451 106,445 107,446 108,446 109,426 110,427 111,425 112,427 113,438 114,452 114,458 115,457 116,474 117,438 118,442 119,442 120,451 121,455 122,472 122,475 123,440 124,442 125,451 126,440 127,436 128,437 129,446 129,447 130,402 131,402 132,413 133,428 134,432 135,430 136,431 137,439 137,441 138,409 139,413 140,451 141,464 142,471 143,478 144,476 144,482 145,429 146,431 147,399 148,399 149,403 150,427 151,438 152,464 152,421 153,424 154,427 155,431 156,424 157,442 158,426 159,425 160,425 160,420 161,423 162,447 163,449 164,468 165,410 166,425 167,425 167,432 168,433 169,398 170,399 171,399 172,405 173,424 174,425 175,445 175,446 176,404 177,410 178,417 179,431 180,431 181,393 182,394 183,401 183,404 184,399 185,406 186,417 187,420 188,432 189,383 190,390 190,391 191,390 192,393 193,392 194,394 195,396 196,395 197,403 198,403 198,404 199,416 200,416 201,416 202,425 203,423 204,426 205,425 206,427 206,351 207,351 208,347 209,352 210,368 211,367 212,367 213,366 213,366 214,366 215,359 216,365 217,368 218,361 219,336 220,347 221,349 221,316 222,321 223,332 224,347 225,351 226,344 227,336 228,339 229,377 229,363 230,366 231,373 232,289 233,299 234,301 235,325 236,325 236,322 237,325 238,338 239,343 240,315 241,334 242,364 243,388 244,384 244,282 245,280 246,295 247,293 248,292 249,312 250,317 251,328 251,358 252,363 253,369 254,366 255,318 256,338 257,220 258,220 259,246 259,246 260,262 261,263 262,263 263,274 264,275 265,325 266,343 267,376 267,331 268,319 269,321 270,174 271,171 272,176 273,203 274,217 274,257 275,286 276,290 277,298 278,341 279,368 280,375 281,373 282,140 282,125 283,129 284,139 285,146 286,172 287,179 288,189 289,219 290,218 290,230 291,229 292,308 293,315 294,345 295,335 296,319 297,326 297,157 298,68 299,78 300,94 301,92 302,104 303,214 304,248 305,262 305,259 306,308 307,296 308,292 309,292 310,287 311,294 312,325 313,319 313,317 314,309 315,291 316,287 317,287 318,287 319,287 320,287 320,287 321,287 322,287 323,287 324,287 325,287 326,287 327,287 328,287 328,287 329,287 330,287 331,287 332,287 333,287 334,295 335,295 336,295 336,295 337,295 338,295 339,295 340,295 341,295 342,295 343,295 343,295 344,295 345,295 346,295 347,295 348,295 349,295 350,295 351,295 351,295 352,295 353,295 354,295 355,295 356,295 357,295 358,295 359,295 359,295 360,295 361,295 362,295 363,295 364,295 365,295 366,295 366,295 367,295 368,295 369,295 370,295 371,295 372,295 373,295 374,295 374,295 375,295 376,295 377,295 378,295 379,295 380,295 381,295 381,295 382,295 383,295 384,295 385,295 386,295 387,295 388,295 389,295 389,295 390,295 391,295 392,295 393,295 394,295 395,295 396,295 397,295 397,295 398,295 399,295 400,295 401,295 402,295 403,295 404,295 404,295 405,295 406,295 407,295 408,295 409,295 410,295 411,295 412,295 412,295 413,295 414,295 415,295 416,295 417,295 418,295 419,295 420,295 420,295 421,295 422,295 423,295 424,295 425,295 426,295 427,295 427,295 428,295 429,295 430,295 431,295 432,295 433,295 434,295 435,295 435,295 436,295 437,295 438,295 439,295 440,295 441,295 442,295 443,295 443,295 444,295 445,295 446,295 447,295 448,295 449,295 450,295 450,295 451,295 452,295 453,295 454,295 455,295 456,295 457,295 458,295 458,295 459,295 460,295 461,295 462,295 463,295 464,295 465,295 466,295 466,295 467,295 468,295 469,295 470,295 471,295 472,295 473,295 473,295 474,295 475,295 476,295 477,295 478,295 479,295 480,295 481,295 481,295 482,295 483,295 484,295 485,295 486,295 487,295 488,295 488,295 489,295 490,295 491,295 492,295 493,295 494,295 495,295 496,295 496,295 497,295 498,295 499,295 500,295 501,295 502,295 503,295 504,295 504,295 505,295 506,295 507,295 508,295 509,295 510,295 511,295 511,295 512,295 513,295 514,295 515,295 516,295 517,295 518,295 519,295 519,295 520,295 521,295 522,295 523,295 524,295 525,295 526,295 527,295 527,295 528,295 529,295 530,295 531,295 532,295 533,295 534,295 534,295 535,295 536,295 537,295 538,295 539,295 540,295 541,295 542,295 542,295 543,295 544,295 545,295 546,295 547,295 548,295 549,295 550,295 550,295 551,295 552,295 553,295 554,295 555,295 556,295 557,295 557,295 558,295 559,295 560,295 561,295 562,295 563,295 564,295 565,295 565,295 566,295 567,295 568,295 569,295 570,295 571,295 572,295 573,295 573,295 574,295 575,295 576,295 577,295 578,295 579,295 580,295 580,295 581,295 582,295 583,295 584,295 585,295 586,295 587,295 588,295 588,295 589,295 590,295 591,295 592,295 593,295 594,295 595,295 595,295 596,295 597,295 598,295 599,295 600,295 601,295 602,295 603,295 603,295 604,295 605,295 606,295 607,295 608,295 609,295 610,295 611,295 611,295 612,295 613,295 614,295 615,295 616,295 617,295 618,295 618,295 619,295 620,295 621,295 622,295 623,295 624,295 625,295 626,295 626,295 627,295 628,295 629,295 630,295 631,295 632,295 633,295 634,295 634,295 635,295 636,295 637,295 638,295 639,295 640,295 641,295 641,295 642,295 643,295 644,295 645,295 646,295 647,295 648,295 649,295 649,295 650,295 651,295 652,295 653,295 654,295 655,295 656,295 657,295 657,295 658,295 659,295 660,295 661,295 662,295 663,295 664,295 664,295 665,295 666,295 667,295 668,295 669,295 670,295 671,295 672,295 672,295 673,295 674,295 675,295 676,295 677,295 678,295 679,295 680,295 680,295 681,295 682,295 683,295 684,295 685,295 686,295 687,295 687,295 688,295 689,295 690,295 691,295 692,295 693,295 694,295 695,295 695,295 696,295 697,295 698,295 699,295 700,295 701,295 702,295 703,295 703,295 704,295 705,295 706,295 707,295 708,295 709,295 710,295 710,295 711,295 712,295 713,295 714,295 715,295 716,295 717,295 718,295 718,295 719,295 720,295 721,295 722,295 723,295 724,295 725,295 725,295 726,295 727,295 728,295 729,295 730,295 731,295 732,295 733,295 733,295 734,295 735,295 736,295 737,295 738,295 739,295 740,295 741,295 741,295 742,295 743,295 744,295 745,295 746,295 747,295 748,295 748,295 749,295 750,295 751,295 752,295 753,295 754,295 755,295 756,295 756,295 757,295 758,295 759,295 760,295 761,295 762,295 763,295 764,295 764,295 765,295 766,295 767,295 768,295 769,295 770,295 771,295 771,295 772,295 773,295 774,295 775,295 776,295 777,295 778,295 779,295 779,295 780,295 781,295 782,295 783,295 784,295 785,295 786,295 787,295 787,295 788,295 789,295 790,295 791,295 792,295 793,295 794,295 794,295 795,295 796,295 797,295 798,295 799,295 800,295 801,295 802,295 802,295 803,295 804,295 805,295 806,295 807,295 808,295 809,295 810,295 810,295 811,295 812,295 813,295 814,295 815,295 816,295 817,295 817,295 818,295 819,295 820,295 821,295 822,295 823,295 824,295 825,295 825,295 826,295 827,295 828,295 829,295 830,295 831,295 832,295 832,295 833,295 834,295 835,295 836,295 837,295 838,295 839,295 840,295 840,295 841,295 842,295 843,295 844,295 845,295 846,295 847,295 848,295 848,295 849,295 850,295 851,295 852,295 853,295 854,295 855,295 855,295 856,295 857,295 858,295 859,295 860,295 861,295 862,295 863,295 863,295 864,295 865,295 866,295 867,295 868,295 869,295 870,295 871,295 871,295 872,295 873,295 874,295 875,295 876,295 877,295 878,295 878,295 879,295 880,295 881,295 882,295 883,295 884,295 885,295 886,295 886,295 887,295 888,295 889,295 890,295 891,295 892,295 893,295 894,295 894,295 895,295 896,295 897,295 898,295 899,295 900,295 901,295 901,295 902,295 903,295 904,295 905,295 906,295 907,294 907,296 908,296 909,296 909,296 910,296 911,296 912,296 913,296 914,296 915,296 916,296 917,296 917,296 918,296 919,296 920,296 921,296 922,296 923,296 924,296 924,296 925,296 926,296 927,296 928,296 929,296 930,296 931,296 932,296 932,296 933,296 934,296 935,296 936,296 937,296 938,296 939,296 939,296 940,296 941,296 942,296 943,296 944,296 945,296 946,296 947,296 947,296 948,296 949,296 950,296 951,296 952,296 953,296 954,296 955,296 955,296 956,296 957,296 958,296 959,296 960,296 961,296 962,296 962,296 973,296 "/>
<polygon opacity="1" fill="#E6194B" points="78,699 79,699 80,699 81,699 82,699 83,699 83,699 84,699 85,699 86,699 87,699 88,699 89,699 90,699 91,699 91,699 92,699 93,699 94,699 95,699 96,699 97,699 98,699 99,699 99,699 100,699 101,699 102,699 103,699 104,699 105,699 106,699 106,699 107,699 108,699 109,699 110,699 111,699 112,699 113,699 114,699 114,699 115,699 116,699 117,699 118,699 119,699 120,699 121,699 122,699 122,699 123,699 124,699 125,699 126,699 127,699 128,699 129,699 129,699 130,699 131,699 132,699 133,699 134,699 135,699 136,699 137,699 137,699 138,699 139,699 140,699 141,699 142,699 143,699 144,699 144,699 145,699 146,699 147,699 148,699 149,699 150,699 151,699 152,699 152,699 153,699 154,699 155,699 156,699 157,699 158,699 159,699 160,699 160,699 161,699 162,699 163,699 164,699 165,699 166,699 167,699 167,699 168,699 169,699 170,699 171,699 172,699 173,699 174,699 175,699 175,699 176,699 177,699 178,699 179,699 180,699 181,699 182,699 183,699 183,699 184,699 185,699 186,699 187,699 188,699 189,699 190,699 190,699 191,699 192,699 193,699 194,699 195,699 196,699 197,699 198,699 198,699 199,699 200,699 201,699 202,699 203,699 204,699 205,699 206,699 206,699 207,699 208,699 209,699 210,699 211,699 212,699 213,699 213,699 214,699 215,699 216,699 217,699 218,699 219,699 220,699 221,699 221,699 222,699 223,699 224,699 225,699 226,699 227,699 228,699 229,699 229,699 230,699 231,699 232,699 233,699 234,699 235,699 236,699 236,699 237,699 238,699 239,699 240,699 241,699 242,699 243,699 244,699 244,699 245,699 246,699 247,699 248,699 249,699 250,699 251,699 251,699 252,699 253,699 254,699 255,699 256,699 257,699 258,699 259,699 259,699 260,699 261,699 262,699 263,699 264,699 265,699 266,699 267,699 267,699 268,699 269,699 270,699 271,699 272,699 273,699 274,699 274,698 275,698 276,698 277,698 278,698 279,698 280,698 281,698 282,698 282,698 283,698 284,698 285,698 286,698 287,698 288,698 289,698 290,698 290,698 291,698 292,698 293,698 294,698 295,698 296,698 297,698 297,535 298,453 299,452 300,451 301,448 302,442 303,440 304,437 305,428 305,422 306,421 307,409 308,399 309,398 310,382 311,370 312,361 313,344 313,343 314,333 315,309 316,297 317,297 318,297 319,297 320,297 320,297 321,297 322,297 323,297 324,297 325,297 326,297 327,297 328,297 328,297 329,297 330,297 331,297 332,297 333,297 334,297 335,297 336,297 336,297 337,297 338,297 339,297 340,297 341,297 342,297 343,297 343,297 344,297 345,297 346,297 347,297 348,297 349,297 350,297 351,297 351,297 352,297 353,297 354,297 355,297 356,297 357,297 358,297 359,297 359,297 360,297 361,297 362,297 363,297 364,297 365,297 366,297 366,297 367,297 368,297 369,297 370,297 371,297 372,297 373,297 374,297 374,297 375,297 376,297 377,297 378,297 379,297 380,297 381,297 381,297 382,297 383,297 384,297 385,297 386,297 387,297 388,297 389,297 389,297 390,297 391,297 392,297 393,297 394,297 395,297 396,297 397,297 397,297 398,297 399,297 400,297 401,297 402,297 403,297 404,297 404,297 405,297 406,297 407,297 408,297 409,297 410,297 411,297 412,297 412,297 413,297 414,297 415,297 416,297 417,297 418,297 419,297 420,297 420,297 421,297 422,297 423,297 424,297 425,297 426,297 427,297 427,297 428,297 429,297 430,297 431,297 432,297 433,297 434,297 435,297 435,297 436,297 437,297 438,297 439,297 440,297 441,297 442,297 443,297 443,297 444,297 445,297 446,297 447,297 448,297 449,297 450,297 450,297 451,297 452,297 453,297 454,297 455,297 456,297 457,297 458,297 458,297 459,297 460,297 461,297 462,297 463,297 464,297 465,297 466,297 466,297 467,297 468,297 469,297 470,297 471,297 472,297 473,297 473,297 474,297 475,297 476,297 477,297 478,297 479,297 480,297 481,297 481,297 482,297 483,297 484,297 485,297 486,297 487,297 488,297 488,297 489,297 490,297 491,297 492,297 493,297 494,297 495,297 496,297 496,297 497,297 498,297 499,297 500,297 501,297 502,297 503,297 504,297 504,297 505,297 506,297 507,297 508,297 509,297 510,297 511,297 511,297 512,297 513,297 514,297 515,297 516,297 517,297 518,297 519,297 519,297 520,297 521,297 522,297 523,297 524,297 525,297 526,297 527,297 527,297 528,297 529,297 530,297 531,297 532,297 533,297 534,297 534,297 535,297 536,297 537,297 538,297 539,297 540,297 541,297 542,297 542,297 543,297 544,297 545,297 546,297 547,297 548,297 549,297 550,297 550,297 551,297 552,297 553,297 554,297 555,297 556,297 557,297 557,297 558,297 559,297 560,297 561,297 562,297 563,297 564,297 565,297 565,297 566,297 567,297 568,297 569,297 570,297 571,297 572,297 573,297 573,297 574,297 575,297 576,297 577,297 578,297 579,297 580,297 580,297 581,297 582,297 583,297 584,297 585,297 586,297 587,297 588,297 588,297 589,297 590,297 591,297 592,297 593,297 594,297 595,297 595,297 596,297 597,297 598,297 599,297 600,297 601,297 602,297 603,297 603,297 604,297 605,297 606,297 607,297 608,297 609,297 610,297 611,297 611,297 612,297 613,297 614,297 615,297 616,297 617,297 618,297 618,297 619,297 620,297 621,297 622,297 623,297 624,297 625,297 626,297 626,297 627,297 628,297 629,297 630,297 631,297 632,297 633,297 634,297 634,297 635,297 636,297 637,297 638,297 639,297 640,297 641,297 641,297 642,297 643,297 644,297 645,297 646,297 647,297 648,297 649,297 649,297 650,297 651,297 652,297 653,297 654,297 655,297 656,297 657,297 657,297 658,297 659,297 660,297 661,297 662,297 663,297 664,297 664,297 665,297 666,297 667,297 668,297 669,297 670,297 671,297 672,297 672,297 673,297 674,297 675,297 676,297 677,297 678,297 679,297 680,297 680,297 681,297 682,297 683,297 684,297 685,297 686,297 687,297 687,297 688,297 689,297 690,297 691,297 692,297 693,297 694,297 695,297 695,297 696,297 697,297 698,297 699,297 700,297 701,297 702,297 703,297 703,297 704,297 705,297 706,297 707,297 708,297 709,297 710,297 710,297 711,297 712,297 713,297 714,297 715,297 716,297 717,297 718,297 718,297 719,297 720,297 721,297 722,297 723,297 724,297 725,297 725,297 726,297 727,297 728,297 729,297 730,297 731,297 732,297 733,297 733,297 734,297 735,297 736,297 737,297 738,297 739,297 740,297 741,297 741,297 742,297 743,297 744,297 745,297 746,297 747,297 748,297 748,297 749,297 750,297 751,297 752,297 753,297 754,297 755,297 756,297 756,297 757,297 758,297 759,297 760,297 761,297 762,297 763,297 764,297 764,297 765,297 766,297 767,297 768,297 769,297 770,297 771,297 771,297 772,297 773,297 774,297 775,297 776,297 777,297 778,297 779,297 779,297 780,297 781,297 782,297 783,297 784,297 785,297 786,297 787,297 787,297 788,297 789,297 790,297 791,297 792,297 793,297 794,297 794,297 795,297 796,297 797,297 798,297 799,297 800,297 801,297 802,297 802,297 803,297 804,297 805,297 806,297 807,297 808,297 809,297 810,297 810,297 811,297 812,297 813,297 814,297 815,297 816,297 817,297 817,297 818,297 819,297 820,297 821,297 822,297 823,297 824,297 825,297 825,297 826,297 827,297 828,297 829,297 830,297 831,297 832,297 832,297 833,297 834,297 835,297 836,297 837,297 838,297 839,297 840,297 840,297 841,296 842,296 843,296 844,296 845,296 846,296 847,296 848,296 848,296 849,296 850,296 851,296 852,296 853,296 854,296 855,296 855,296 856,296 857,296 858,296 859,296 860,296 861,296 862,296 863,296 863,296 864,296 865,296 866,296 867,296 868,296 869,296 870,296 871,296 871,296 872,296 873,296 874,296 875,296 876,296 877,296 878,296 878,296 879,296 880,296 881,296 882,296 883,296 884,296 885,296 886,296 886,296 887,296 888,296 889,296 890,296 891,296 892,296 893,296 894,296 894,296 895,296 896,296 897,296 898,296 899,296 900,296 901,296 901,296 902,296 903,296 904,296 905,296 906,296 907,296 907,296 908,296 909,296 909,296 910,296 911,296 912,296 913,296 914,296 915,296 916,296 917,296 917,296 918,296 919,296 920,296 921,296 922,296 923,296 924,296 924,296 925,296 926,296 927,296 928,296 929,296 930,296 931,296 932,296 932,296 933,296 934,296 935,296 936,296 937,296 938,296 939,296 939,296 940,296 941,296 942,296 943,296 944,296 945,296 946,296 947,296 947,296 948,296 949,296 950,296 951,296 952,296 953,296 954,296 955,296 955,296 956,296 957,296 958,296 959,296 960,296 961,296 962,296 962,296 973,296 973,699 78,699 "/>
<polyline fill="none" opacity="1" stroke="#E6194B" stroke-width="1" points="78,699 79,699 80,699 81,699 82,699 83,699 83,699 84,699 85,699 86,699 87,699 88,699 89,699 90,699 91,699 91,699 92,699 93,699 94,699 95,699 96,699 97,699 98,699 99,699 99,699 100,699 101,699 102,699 103,699 104,699 105,699 106,699 106,699 107,699 108,699 109,699 110,699 111,699 112,699 113,699 114,699 114,699 115,699 116,699 117,699 118,699 119,699 120,699 121,699 122,699 122,699 123,699 124,699 125,699 126,699 127,699 128,699 129,699 129,699 130,699 131,699 132,699 133,699 134,699 135,699 136,699 137,699 137,699 138,699 139,699 140,699 141,699 142,699 143,699 144,699 144,699 145,699 146,699 147,699 148,699 149,699 150,699 151,699 152,699 152,699 153,699 154,699 155,699 156,699 157,699 158,699 159,699 160,699 160,699 161,699 162,699 163,699 164,699 165,699 166,699 167,699 167,699 168,699 169,699 170,699 171,699 172,699 173,699 174,699 175,699 175,699 176,699 177,699 178,699 179,699 180,699 181,699 182,699 183,699 183,699 184,699 185,699 186,699 187,699 188,699 189,699 190,699 190,699 191,699 192,699 193,699 194,699 195,699 196,699 197,699 198,699 198,699 199,699 200,699 201,699 202,699 203,699 204,699 205,699 206,699 206,699 207,699 208,699 209,699 210,699 211,699 212,699 213,699 213,699 214,699 215,699 216,699 217,699 218,699 219,699 220,699 221,699 221,699 222,699 223,699 224,699 225,699 226,699 227,699 228,699 229,699 229,699 230,699 231,699 232,699 233,699 234,699 235,699 236,699 236,699 237,699 238,699 239,699 240,699 241,699 242,699 243,699 244,699 244,699 245,699 246,699 247,699 248,699 249,699 250,699 251,699 251,699 252,699 253,699 254,699 255,699 256,699 257,699 258,699 259,699 259,699 260,699 261,699 262,699 263,699 264,699 265,699 266,699 267,699 267,699 268,699 269,699 270,699 271,699 272,699 273,699 274,699 274,698 275,698 276,698 277,698 278,698 279,698 280,698 281,698 282,698 282,698 283,698 284,698 285,698 286,698 287,698 288,698 289,698 290,698 290,698 291,698 292,698 293,698 294,698 295,698 296,698 297,698 297,535 298,453 299,452 300,451 301,448 302,442 303,440 304,437 305,428 305,422 306,421 307,409 308,399 309,398 310,382 311,370 312,361 313,344 313,343 314,333 315,309 316,297 317,297 318,297 319,297 320,297 320,297 321,297 322,297 323,297 324,297 325,297 326,297 327,297 328,297 328,297 329,297 330,297 331,297 332,297 333,297 334,297 335,297 336,297 336,297 337,297 338,297 339,297 340,297 341,297 342,297 343,297 343,297 344,297 345,297 346,297 347,297 348,297 349,297 350,297 351,297 351,297 352,297 353,297 354,297 355,297 356,297 357,297 358,297 359,297 359,297 360,297 361,297 362,297 363,297 364,297 365,297 366,297 366,297 367,297 368,297 369,297 370,297 371,297 372,297 373,297 374,297 374,297 375,297 376,297 377,297 378,297 379,297 380,297 381,297 381,297 382,297 383,297 384,297 385,297 386,297 387,297 388,297 389,297 389,297 390,297 391,297 392,297 393,297 394,297 395,297 396,297 397,297 397,297 398,297 399,297 400,297 401,297 402,297 403,297 404,297 404,297 405,297 406,297 407,297 408,297 409,297 410,297 411,297 412,297 412,297 413,297 414,297 415,297 416,297 417,297 418,297 419,297 420,297 420,297 421,297 422,297 423,297 424,297 425,297 426,297 427,297 427,297 428,297 429,297 430,297 431,297 432,297 433,297 434,297 435,297 435,297 436,297 437,297 438,297 439,297 440,297 441,297 442,297 443,297 443,297 444,297 445,297 446,297 447,297 448,297 449,297 450,297 450,297 451,297 452,297 453,297 454,297 455,297 456,297 457,297 458,297 458,297 459,297 460,297 461,297 462,297 463,297 464,297 465,297 466,297 466,297 467,297 468,297 469,297 470,297 471,297 472,297 473,297 473,297 474,297 475,297 476,297 477,297 478,297 479,297 480,297 481,297 481,297 482,297 483,297 484,297 485,297 486,297 487,297 488,297 488,297 489,297 490,297 491,297 492,297 493,297 494,297 495,297 496,297 496,297 497,297 498,297 499,297 500,297 501,297 502,297 503,297 504,297 504,297 505,297 506,297 507,297 508,297 509,297 510,297 511,297 511,297 512,297 513,297 514,297 515,297 516,297 517,297 518,297 519,297 519,297 520,297 521,297 522,297 523,297 524,297 525,297 526,297 527,297 527,297 528,297 529,297 530,297 531,297 532,297 533,297 534,297 534,297 535,297 536,297 537,297 538,297 539,297 540,297 541,297 542,297 542,297 543,297 544,297 545,297 546,297 547,297 548,297 549,297 550,297 550,297 551,297 552,297 553,297 554,297 555,297 556,297 557,297 557,297 558,297 559,297 560,297 561,297 562,297 563,297 564,297 565,297 565,297 566,297 567,297 568,297 569,297 570,297 571,297 572,297 573,297 573,297 574,297 575,297 576,297 577,297 578,297 579,297 580,297 580,297 581,297 582,297 583,297 584,297 585,297 586,297 587,297 588,297 588,297 589,297 590,297 591,297 592,297 593,297 594,297 595,297 595,297 596,297 597,297 598,297 599,297 600,297 601,297 602,297 603,297 603,297 604,297 605,297 606,297 607,297 608,297 609,297 610,297 611,297 611,297 612,297 613,297 614,297 615,297 616,297 617,297 618,297 618,297 619,297 620,297 621,297 622,297 623,297 624,297 625,297 626,297 626,297 627,297 628,297 629,297 630,297 631,297 632,297 633,297 634,297 634,297 635,297 636,297 637,297 638,297 639,297 640,297 641,297 641,297 642,297 643,297 644,297 645,297 646,297 647,297 648,297 649,297 649,297 650,297 651,297 652,297 653,297 654,297 655,297 656,297 657,297 657,297 658,297 659,297 660,297 661,297 662,297 663,297 664,297 664,297 665,297 666,297 667,297 668,297 669,297 670,297 671,297 672,297 672,297 673,297 674,297 675,297 676,297 677,297 678,297 679,297 680,297 680,297 681,297 682,297 683,297 684,297 685,297 686,297 687,297 687,297 688,297 689,297 690,297 691,297 692,297 693,297 694,297 695,297 695,297 696,297 697,297 698,297 699,297 700,297 701,297 702,297 703,297 703,297 704,297 705,297 706,297 707,297 708,297 709,297 710,297 710,297 711,297 712,297 713,297 714,297 715,297 716,297 717,297 718,297 718,297 719,297 720,297 721,297 722,297 723,297 724,297 725,297 725,297 726,297 727,297 728,297 729,297 730,297 731,297 732,297 733,297 733,297 734,297 735,297 736,297 737,297 738,297 739,297 740,297 741,297 741,297 742,297 743,297 744,297 745,297 746,297 747,297 748,297 748,297 749,297 750,297 751,297 752,297 753,297 754,297 755,297 756,297 756,297 757,297 758,297 759,297 760,297 761,297 762,297 763,297 764,297 764,297 765,297 766,297 767,297 768,297 769,297 770,297 771,297 771,297 772,297 773,297 774,297 775,297 776,297 777,297 778,297 779,297 779,297 780,297 781,297 782,297 783,297 784,297 785,297 786,297 787,297 787,297 788,297 789,297 790,297 791,297 792,297 793,297 794,297 794,297 795,297 796,297 797,297 798,297 799,297 800,297 801,297 802,297 802,297 803,297 804,297 805,297 806,297 807,297 808,297 809,297 810,297 810,297 811,297 812,297 813,297 814,297 815,297 816,297 817,297 817,297 818,297 819,297 820,297 821,297 822,297 823,297 824,297 825,297 825,297 826,297 827,297 828,297 829,297 830,297 831,297 832,297 832,297 833,297 834,297 835,297 836,297 837,297 838,297 839,297 840,297 840,297 841,296 842,296 843,296 844,296 845,296 846,296 847,296 848,296 848,296 849,296 850,296 851,296 852,296 853,296 854,296 855,296 855,296 856,296 857,296 858,296 859,296 860,296 861,296 862,296 863,296 863,296 864,296 865,296 866,296 867,296 868,296 869,296 870,296 871,296 871,296 872,296 873,296 874,296 875,296 876,296 877,296 878,296 878,296 879,296 880,296 881,296 882,296 883,296 884,296 885,296 886,296 886,296 887,296 888,296 889,296 890,296 891,296 892,296 893,296 894,296 894,296 895,296 896,296 897,296 898,296 899,296 900,296 901,296 901,296 902,296 903,296 904,296 905,296 906,296 907,296 907,296 908,296 909,296 909,296 910,296 911,296 912,296 913,296 914,296 915,296 916,296 917,296 917,296 918,296 919,296 920,296 921,296 922,296 923,296 924,296 924,296 925,296 926,296 927,296 928,296 929,296 930,296 931,296 932,296 932,296 933,296 934,296 935,296 936,296 937,296 938,296 939,296 939,296 940,296 941,296 942,296 943,296 944,296 945,296 946,296 947,296 947,296 948,296 949,296 950,296 951,296 952,296 953,296 954,296 955,296 955,296 956,296 957,296 958,296 959,296 960,296 961,296 962,296 962,296 973,296 "/>
<line opacity="0.1" stroke="#000000" stroke-width="1" x1="85" y1="699" x2="85" y2="68"/>
<line opacity="0.1" stroke="#000000" stroke-width="1" x1="94" y1="699" x2="94" y2="68"/>
<line opacity="0.1" stroke="#000000" stroke-width="1" x1="103" y1="699" x2="103" y2="68"/>
<line opacity="0.1" stroke="#000000" stroke-width="1" x1="112" y1="699" x2="112" y2="68"/>
<line opacity="0.1" stroke="#000000" stroke-width="1" x1="121" y1="699" x2="121" y2="68"/>
<line opacity="0.1" stroke="#000000" stroke-width="1" x1="130" y1="699" x2="130" y2="68"/>
<line opacity="0.1" stroke="#000000" stroke-width="1" x1="138" y1="699" x2="138" y2="68"/>
<line opacity="0.1" stroke="#000000" stroke-width="1" x1="147" y1="699" x2="147" y2="68"/>
<line opacity="0.1" stroke="#000000" stroke-width="1" x1="156" y1="699" x2="156" y2="68"/>
<line opacity="0.1" stroke="#000000" stroke-width="1" x1="165" y1="699" x2="165" y2="68"/>
<line opacity="0.1" stroke="#000000" stroke-width="1" x1="174" y1="699" x2="174" y2="68"/>
<line opacity="0.1" stroke="#000000" stroke-width="1" x1="183" y1="699" x2="183" y2="68"/>
<line opacity="0.1" stroke="#000000" stroke-width="1" x1="191" y1="699" x2="191" y2="68"/>
<line opacity="0.1" stroke="#000000" stroke-width="1" x1="200" y1="699" x2="200" y2="68"/>
<line opacity="0.1" stroke="#000000" stroke-width="1" x1="209" y1="699" x2="209" y2="68"/>
<line opacity="0.1" stroke="#000000" stroke-width="1" x1="218" y1="699" x2="218" y2="68"/>
<line opacity="0.1" stroke="#000000" stroke-width="1" x1="227" y1="699" x2="227" y2="68"/>
<line opacity="0.1" stroke="#000000" stroke-width="1" x1="236" y1="699" x2="236" y2="68"/>
<line opacity="0.1" stroke="#000000" stroke-width="1" x1="244" y1="699" x2="244" y2="68"/>
<line opacity="0.1" stroke="#000000" stroke-width="1" x1="253" y1="699" x2="253" y2="68"/>
<line opacity="0.1" stroke="#000000" stroke-width="1" x1="262" y1="699" x2="262" y2="68"/>
<line opacity="0.1" stroke="#000000" stroke-width="1" x1="271" y1="699" x2="271" y2="68"/>
<line opacity="0.1" stroke="#000000" stroke-width="1" x1="280" y1="699" x2="280" y2="68"/>
<line opacity="0.1" stroke="#000000" stroke-width="1" x1="289" y1="699" x2="289" y2="68"/>
<line opacity="0.1" stroke="#000000" stroke-width="1" x1="298" y1="699" x2="298" y2="68"/>
<line opacity="0.1" stroke="#000000" stroke-width="1" x1="306" y1="699" x2="306" y2="68"/>
<line opacity="0.1" stroke="#000000" stroke-width="1" x1="315" y1="699" x2="315" y2="68"/>
<line opacity="0.1" stroke="#000000" stroke-width="1" x1="324" y1="699" x2="324" y2="68"/>
<line opacity="0.1" stroke="#000000" stroke-width="1" x1="333" y1="699" x2="333" y2="68"/>
<line opacity="0.1" stroke="#000000" stroke-width="1" x1="342" y1="699" x2="342" y2="68"/>
<line opacity="0.1" stroke="#000000" stroke-width="1" x1="351" y1="699" x2="351" y2="68"/>
<line opacity="0.1" stroke="#000000" stroke-width="1" x1="359" y1="699" x2="359" y2="68"/>
<line opacity="0.1" stroke="#000000" stroke-width="1" x1="368" y1="699" x2="368" y2="68"/>
<line opacity="0.1" stroke="#000000" stroke-width="1" x1="377" y1="699" x2="377" y2="68"/>
<line opacity="0.1" stroke="#000000" stroke-width="1" x1="386" y1="699" x2="386" y2="68"/>
<line opacity="0.1" stroke="#000000" stroke-width="1" x1="395" y1="699" x2="395" y2="68"/>
<line opacity="0.1" stroke="#000000" stroke-width="1" x1="404" y1="699" x2="404" y2="68"/>
<line opacity="0.1" stroke="#000000" stroke-width="1" x1="412" y1="699" x2="412" y2="68"/>
<line opacity="0.1" stroke="#000000" stroke-width="1" x1="421" y1="699" x2="421" y2="68"/>
<line opacity="0.1" stroke="#000000" stroke-width="1" x1="430" y1="699" x2="430" y2="68"/>
<line opacity="0.1" stroke="#000000" stroke-width="1" x1="439" y1="699" x2="439" y2="68"/>
<line opacity="0.1" stroke="#000000" stroke-width="1" x1="448" y1="699" x2="448" y2="68"/>
<line opacity="0.1" stroke="#000000" stroke-width="1" x1="457" y1="699" x2="457" y2="68"/>
<line opacity="0.1" stroke="#000000" stroke-width="1" x1="465" y1="699" x2="465" y2="68"/>
<line opacity="0.1" stroke="#000000" stroke-width="1" x1="474" y1="699" x2="474" y2="68"/>
<line opacity="0.1" stroke="#000000" stroke-width="1" x1="483" y1="699" x2="483" y2="68"/>
<line opacity="0.1" stroke="#000000" stroke-width="1" x1="492" y1="699" x2="492" y2="68"/>
<line opacity="0.1" stroke="#000000" stroke-width="1" x1="501" y1="699" x2="501" y2="68"/>
<line opacity="0.1" stroke="#000000" stroke-width="1" x1="510" y1="699" x2="510" y2="68"/>
<line opacity="0.1" stroke="#000000" stroke-width="1" x1="518" y1="699" x2="518" y2="68"/>
<line opacity="0.1" stroke="#000000" stroke-width="1" x1="527" y1="699" x2="527" y2="68"/>
<line opacity="0.1" stroke="#000000" stroke-width="1" x1="536" y1="699" x2="536" y2="68"/>
<line opacity="0.1" stroke="#000000" stroke-width="1" x1="545" y1="699" x2="545" y2="68"/>
<line opacity="0.1" stroke="#000000" stroke-width="1" x1="554" y1="699" x2="554" y2="68"/>
<line opacity="0.1" stroke="#000000" stroke-width="1" x1="563" y1="699" x2="563" y2="68"/>
<line opacity="0.1" stroke="#000000" stroke-width="1" x1="572" y1="699" x2="572" y2="68"/>
<line opacity="0.1" stroke="#000000" stroke-width="1" x1="580" y1="699" x2="580" y2="68"/>
<line opacity="0.1" stroke="#000000" stroke-width="1" x1="589" y1="699" x2="589" y2="68"/>
<line opacity="0.1" stroke="#000000" stroke-width="1" x1="598" y1="699" x2="598" y2="68"/>
<line opacity="0.1" stroke="#000000" stroke-width="1" x1="607" y1="699" x2="607" y2="68"/>
<line opacity="0.1" stroke="#000000" stroke-width="1" x1="616" y1="699" x2="616" y2="68"/>
<line opacity="0.1" stroke="#000000" stroke-width="1" x1="625" y1="699" x2="625" y2="68"/>
<line opacity="0.1" stroke="#000000" stroke-width="1" x1="633" y1="699" x2="633" y2="68"/>
<line opacity="0.1" stroke="#000000" stroke-width="1" x1="642" y1="699" x2="642" y2="68"/>
<line opacity="0.1" stroke="#000000" stroke-width="1" x1="651" y1="699" x2="651" y2="68"/>
<line opacity="0.1" stroke="#000000" stroke-width="1" x1="660" y1="699" x2="660" y2="68"/>
<line opacity="0.1" stroke="#000000" stroke-width="1" x1="669" y1="699" x2="669" y2="68"/>
<line opacity="0.1" stroke="#000000" stroke-width="1" x1="678" y1="699" x2="678" y2="68"/>
<line opacity="0.1" stroke="#000000" stroke-width="1" x1="686" y1="699" x2="686" y2="68"/>
<line opacity="0.1" stroke="#000000" stroke-width="1" x1="695" y1="699" x2="695" y2="68"/>
<line opacity="0.1" stroke="#000000" stroke-width="1" x1="704" y1="699" x2="704" y2="68"/>
<line opacity="0.1" stroke="#000000" stroke-width="1" x1="713" y1="699" x2="713" y2="68"/>
<line opacity="0.1" stroke="#000000" stroke-width="1" x1="722" y1="699" x2="722" y2="68"/>
<line opacity="0.1" stroke="#000000" stroke-width="1" x1="731" y1="699" x2="731" y2="68"/>
<line opacity="0.1" stroke="#000000" stroke-width="1" x1="739" y1="699" x2="739" y2="68"/>
<line opacity="0.1" stroke="#000000" stroke-width="1" x1="748" y1="699" x2="748" y2="68"/>
<line opacity="0.1" stroke="#000000" stroke-width="1" x1="757" y1="699" x2="757" y2="68"/>
<line opacity="0.1" stroke="#000000" stroke-width="1" x1="766" y1="699" x2="766" y2="68"/>
<line opacity="0.1" stroke="#000000" stroke-width="1" x1="775" y1="699" x2="775" y2="68"/>
<line opacity="0.1" stroke="#000000" stroke-width="1" x1="784" y1="699" x2="784" y2="68"/>
<line opacity="0.1" stroke="#000000" stroke-width="1" x1="792" y1="699" x2="792" y2="68"/>
<line opacity="0.1" stroke="#000000" stroke-width="1" x1="801" y1="699" x2="801" y2="68"/>
<line opacity="0.1" stroke="#000000" stroke-width="1" x1="810" y1="699" x2="810" y2="68"/>
<line opacity="0.1" stroke="#000000" stroke-width="1" x1="819" y1="699" x2="819" y2="68"/>
<line opacity="0.1" stroke="#000000" stroke-width="1" x1="828" y1="699" x2="828" y2="68"/>
<line opacity="0.1" stroke="#000000" stroke-width="1" x1="837" y1="699" x2="837" y2="68"/>
<line opacity="0.1" stroke="#000000" stroke-width="1" x1="846" y1="699" x2="846" y2="68"/>
<line opacity="0.1" stroke="#000000" stroke-width="1" x1="854" y1="699" x2="854" y2="68"/>
<line opacity="0.1" stroke="#000000" stroke-width="1" x1="863" y1="699" x2="863" y2="68"/>
<line opacity="0.1" stroke="#000000" stroke-width="1" x1="872" y1="699" x2="872" y2="68"/>
<line opacity="0.1" stroke="#000000" stroke-width="1" x1="881" y1="699" x2="881" y2="68"/>
<line opacity="0.1" stroke="#000000" stroke-width="1" x1="890" y1="699" x2="890" y2="68"/>
<line opacity="0.1" stroke="#000000" stroke-width="1" x1="899" y1="699" x2="899" y2="68"/>
<line opacity="0.1" stroke="#000000" stroke-width="1" x1="907" y1="699" x2="907" y2="68"/>
<line opacity="0.1" stroke="#000000" stroke-width="1" x1="916" y1="699" x2="916" y2="68"/>
<line opacity="0.1" stroke="#000000" stroke-width="1" x1="925" y1="699" x2="925" y2="68"/>
<line opacity="0.1" stroke="#000000" stroke-width="1" x1="934" y1="699" x2="934" y2="68"/>
<line opacity="0.1" stroke="#000000" stroke-width="1" x1="943" y1="699" x2="943" y2="68"/>
<line opacity="0.1" stroke="#000000" stroke-width="1" x1="952" y1="699" x2="952" y2="68"/>
<line opacity="0.1" stroke="#000000" stroke-width="1" x1="960" y1="699" x2="960" y2="68"/>
<line opacity="0.1" stroke="#000000" stroke-width="1" x1="969" y1="699" x2="969" y2="68"/>
<line opacity="0.1" stroke="#000000" stroke-width="1" x1="78" y1="699" x2="973" y2="699"/>
<line opacity="0.1" stroke="#000000" stroke-width="1" x1="78" y1="689" x2="973" y2="689"/>
<line opacity="0.1" stroke="#000000" stroke-width="1" x1="78" y1="680" x2="973" y2="680"/>
<line opacity="0.1" stroke="#000000" stroke-width="1" x1="78" y1="671" x2="973" y2="671"/>
<line opacity="0.1" stroke="#000000" stroke-width="1" x1="78" y1="662" x2="973" y2="662"/>
<line opacity="0.1" stroke="#000000" stroke-width="1" x1="78" y1="653" x2="973" y2="653"/>
<line opacity="0.1" stroke="#000000" stroke-width="1" x1="78" y1="644" x2="973" y2="644"/>
<line opacity="0.1" stroke="#000000" stroke-width="1" x1="78" y1="635" x2="973" y2="635"/>
<line opacity="0.1" stroke="#000000" stroke-width="1" x1="78" y1="626" x2="973" y2="626"/>
<line opacity="0.1" stroke="#000000" stroke-width="1" x1="78" y1="617" x2="973" y2="617"/>
<line opacity="0.1" stroke="#000000" stroke-width="1" x1="78" y1="608" x2="973" y2="608"/>
<line opacity="0.1" stroke="#000000" stroke-width="1" x1="78" y1="599" x2="973" y2="599"/>
<line opacity="0.1" stroke="#000000" stroke-width="1" x1="78" y1="590" x2="973" y2="590"/>
<line opacity="0.1" stroke="#000000" stroke-width="1" x1="78" y1="580" x2="973" y2="580"/>
<line opacity="0.1" stroke="#000000" stroke-width="1" x1="78" y1="571" x2="973" y2="571"/>
<line opacity="0.1" stroke="#000000" stroke-width="1" x1="78" y1="562" x2="973" y2="562"/>
<line opacity="0.1" stroke="#000000" stroke-width="1" x1="78" y1="553" x2="973" y2="553"/>
<line opacity="0.1" stroke="#000000" stroke-width="1" x1="78" y1="544" x2="973" y2="544"/>
<line opacity="0.1" stroke="#000000" stroke-width="1" x1="78" y1="535" x2="973" y2="535"/>
<line opacity="0.1" stroke="#000000" stroke-width="1" x1="78" y1="526" x2="973" y2="526"/>
<line opacity="0.1" stroke="#000000" stroke-width="1" x1="78" y1="517" x2="973" y2="517"/>
<line opacity="0.1" stroke="#000000" stroke-width="1" x1="78" y1="508" x2="973" y2="508"/>
<line opacity="0.1" stroke="#000000" stroke-width="1" x1="78" y1="499" x2="973" y2="499"/>
<line opacity="0.1" stroke="#000000" stroke-width="1" x1="78" y1="490" x2="973" y2="490"/>
<line opacity="0.1" stroke="#000000" stroke-width="1" x1="78" y1="481" x2="973" y2="481"/>
<line opacity="0.1" stroke="#000000" stroke-width="1" x1="78" y1="472" x2="973" y2="472"/>
<line opacity="0.1" stroke="#000000" stroke-width="1" x1="78" y1="462" x2="973" y2="462"/>
<line opacity="0.1" stroke="#000000" stroke-width="1" x1="78" y1="453" x2="973" y2="453"/>
<line opacity="0.1" stroke="#000000" stroke-width="1" x1="78" y1="444" x2="973" y2="444"/>
<line opacity="0.1" stroke="#000000" stroke-width="1" x1="78" y1="435" x2="973" y2="435"/>
<line opacity="0.1" stroke="#000000" stroke-width="1" x1="78" y1="426" x2="973" y2="426"/>
<line opacity="0.1" stroke="#000000" stroke-width="1" x1="78" y1="417" x2="973" y2="417"/>
<line opacity="0.1" stroke="#000000" stroke-width="1" x1="78" y1="408" x2="973" y2="408"/>
<line opacity="0.1" stroke="#000000" stroke-width="1" x1="78" y1="399" x2="973" y2="399"/>
<line opacity="0.1" stroke="#000000" stroke-width="1" x1="78" y1="390" x2="973" y2="390"/>
<line opacity="0.1" stroke="#000000" stroke-width="1" x1="78" y1="381" x2="973" y2="381"/>
<line opacity="0.1" stroke="#000000" stroke-width="1" x1="78" y1="372" x2="973" y2="372"/>
<line opacity="0.1" stroke="#000000" stroke-width="1" x1="78" y1="363" x2="973" y2="363"/>
<line opacity="0.1" stroke="#000000" stroke-width="1" x1="78" y1="354" x2="973" y2="354"/>
<line opacity="0.1" stroke="#000000" stroke-width="1" x1="78" y1="344" x2="973" y2="344"/>
<line opacity="0.1" stroke="#000000" stroke-width="1" x1="78" y1="335" x2="973" y2="335"/>
<line opacity="0.1" stroke="#000000" stroke-width="1" x1="78" y1="326" x2="973" y2="326"/>
<line opacity="0.1" stroke="#000000" stroke-width="1" x1="78" y1="317" x2="973" y2="317"/>
<line opacity="0.1" stroke="#000000" stroke-width="1" x1="78" y1="308" x2="973" y2="308"/>
<line opacity="0.1" stroke="#000000" stroke-width="1" x1="78" y1="299" x2="973" y2="299"/>
<line opacity="0.1" stroke="#000000" stroke-width="1" x1="78" y1="290" x2="973" y2="290"/>
<line opacity="0.1" stroke="#000000" stroke-width="1" x1="78" y1="281" x2="973" y2="281"/>
<line opacity="0.1" stroke="#000000" stroke-width="1" x1="78" y1="272" x2="973" y2="272"/>
<line opacity="0.1" stroke="#000000" stroke-width="1" x1="78" y1="263" x2="973" y2="263"/>
<line opacity="0.1" stroke="#000000" stroke-width="1" x1="78" y1="254" x2="973" y2="254"/>
<line opacity="0.1" stroke="#000000" stroke-width="1" x1="78" y1="245" x2="973" y2="245"/>
<line opacity="0.1" stroke="#000000" stroke-width="1" x1="78" y1="235" x2="973" y2="235"/>
<line opacity="0.1" stroke="#000000" stroke-width="1" x1="78" y1="226" x2="973" y2="226"/>
<line opacity="0.1" stroke="#000000" stroke-width="1" x1="78" y1="217" x2="973" y2="217"/>
<line opacity="0.1" stroke="#000000" stroke-width="1" x1="78" y1="208" x2="973" y2="208"/>
<line opacity="0.1" stroke="#000000" stroke-width="1" x1="78" y1="199" x2="973" y2="199"/>
<line opacity="0.1" stroke="#000000" stroke-width="1" x1="78" y1="190" x2="973" y2="190"/>
<line opacity="0.1" stroke="#000000" stroke-width="1" x1="78" y1="181" x2="973" y2="181"/>
<line opacity="0.1" stroke="#000000" stroke-width="1" x1="78" y1="172" x2="973" y2="172"/>
<line opacity="0.1" stroke="#000000" stroke-width="1" x1="78" y1="163" x2="973" y2="163"/>
<line opacity="0.1" stroke="#000000" stroke-width="1" x1="78" y1="154" x2="973" y2="154"/>
<line opacity="0.1" stroke="#000000" stroke-width="1" x1="78" y1="145" x2="973" y2="145"/>
<line opacity="0.1" stroke="#000000" stroke-width="1" x1="78" y1="136" x2="973" y2="136"/>
<line opacity="0.1" stroke="#000000" stroke-width="1" x1="78" y1="127" x2="973" y2="127"/>
<line opacity="0.1" stroke="#000000" stroke-width="1" x1="78" y1="117" x2="973" y2="117"/>
<line opacity="0.1" stroke="#000000" stroke-width="1" x1="78" y1="108" x2="973" y2="108"/>
<line opacity="0.1" stroke="#000000" stroke-width="1" x1="78" y1="99" x2="973" y2="99"/>
<line opacity="0.1" stroke="#000000" stroke-width="1" x1="78" y1="90" x2="973" y2="90"/>
<line opacity="0.1" stroke="#000000" stroke-width="1" x1="78" y1="81" x2="973" y2="81"/>
<line opacity="0.1" stroke="#000000" stroke-width="1" x1="78" y1="72" x2="973" y2="72"/>
<text x="8" y="384" dy="0.76em" text-anchor="middle" font-family="sans-serif" font-size="9.67741935483871" opacity="1" fill="#000000" transform="rotate(270, 8, 384)">
Memory usage
</text>
<text x="526" y="760" dy="-0.5ex" text-anchor="middle" font-family="sans-serif" font-size="9.67741935483871" opacity="1" fill="#000000">
Time
</text>
<line opacity="0.2" stroke="#000000" stroke-width="1" x1="130" y1="699" x2="130" y2="68"/>
<line opacity="0.2" stroke="#000000" stroke-width="1" x1="306" y1="699" x2="306" y2="68"/>
<line opacity="0.2" stroke="#000000" stroke-width="1" x1="483" y1="699" x2="483" y2="68"/>
<line opacity="0.2" stroke="#000000" stroke-width="1" x1="660" y1="699" x2="660" y2="68"/>
<line opacity="0.2" stroke="#000000" stroke-width="1" x1="837" y1="699" x2="837" y2="68"/>
<line opacity="0.2" stroke="#000000" stroke-width="1" x1="78" y1="699" x2="973" y2="699"/>
<line opacity="0.2" stroke="#000000" stroke-width="1" x1="78" y1="608" x2="973" y2="608"/>
<line opacity="0.2" stroke="#000000" stroke-width="1" x1="78" y1="517" x2="973" y2="517"/>
<line opacity="0.2" stroke="#000000" stroke-width="1" x1="78" y1="426" x2="973" y2="426"/>
<line opacity="0.2" stroke="#000000" stroke-width="1" x1="78" y1="335" x2="973" y2="335"/>
<line opacity="0.2" stroke="#000000" stroke-width="1" x1="78" y1="245" x2="973" y2="245"/>
<line opacity="0.2" stroke="#000000" stroke-width="1" x1="78" y1="154" x2="973" y2="154"/>
<polyline fill="none" opacity="1" stroke="#000000" stroke-width="1" points="77,68 77,699 "/>
<text x="68" y="699" dy="0.5ex" text-anchor="end" font-family="sans-serif" font-size="9.67741935483871" opacity="1" fill="#000000">
0.0 MB
</text>
<polyline fill="none" opacity="1" stroke="#000000" stroke-width="1" points="72,699 77,699 "/>
<text x="68" y="608" dy="0.5ex" text-anchor="end" font-family="sans-serif" font-size="9.67741935483871" opacity="1" fill="#000000">
9.5 MB
</text>
<polyline fill="none" opacity="1" stroke="#000000" stroke-width="1" points="72,608 77,608 "/>
<text x="68" y="517" dy="0.5ex" text-anchor="end" font-family="sans-serif" font-size="9.67741935483871" opacity="1" fill="#000000">
19.1 MB
</text>
<polyline fill="none" opacity="1" stroke="#000000" stroke-width="1" points="72,517 77,517 "/>
<text x="68" y="426" dy="0.5ex" text-anchor="end" font-family="sans-serif" font-size="9.67741935483871" opacity="1" fill="#000000">
28.6 MB
</text>
<polyline fill="none" opacity="1" stroke="#000000" stroke-width="1" points="72,426 77,426 "/>
<text x="68" y="335" dy="0.5ex" text-anchor="end" font-family="sans-serif" font-size="9.67741935483871" opacity="1" fill="#000000">
38.1 MB
</text>
<polyline fill="none" opacity="1" stroke="#000000" stroke-width="1" points="72,335 77,335 "/>
<text x="68" y="245" dy="0.5ex" text-anchor="end" font-family="sans-serif" font-size="9.67741935483871" opacity="1" fill="#000000">
47.7 MB
</text>
<polyline fill="none" opacity="1" stroke="#000000" stroke-width="1" points="72,245 77,245 "/>
<text x="68" y="154" dy="0.5ex" text-anchor="end" font-family="sans-serif" font-size="9.67741935483871" opacity="1" fill="#000000">
57.2 MB
</text>
<polyline fill="none" opacity="1" stroke="#000000" stroke-width="1" points="72,154 77,154 "/>
<polyline fill="none" opacity="1" stroke="#000000" stroke-width="1" points="78,700 973,700 "/>
<text x="130" y="710" dy="0.76em" text-anchor="middle" font-family="sans-serif" font-size="9.67741935483871" opacity="1" fill="#000000">
07 17:46:40
</text>
<polyline fill="none" opacity="1" stroke="#000000" stroke-width="1" points="130,700 130,705 "/>
<text x="306" y="710" dy="0.76em" text-anchor="middle" font-family="sans-serif" font-size="9.67741935483871" opacity="1" fill="#000000">
07 20:33:20
</text>
<polyline fill="none" opacity="1" stroke="#000000" stroke-width="1" points="306,700 306,705 "/>
<text x="483" y="710" dy="0.76em" text-anchor="middle" font-family="sans-serif" font-size="9.67741935483871" opacity="1" fill="#000000">
07 23:20:00
</text>
<polyline fill="none" opacity="1" stroke="#000000" stroke-width="1" points="483,700 483,705 "/>
<text x="660" y="710" dy="0.76em" text-anchor="middle" font-family="sans-serif" font-size="9.67741935483871" opacity="1" fill="#000000">
08 02:06:40
</text>
<polyline fill="none" opacity="1" stroke="#000000" stroke-width="1" points="660,700 660,705 "/>
<text x="837" y="710" dy="0.76em" text-anchor="middle" font-family="sans-serif" font-size="9.67741935483871" opacity="1" fill="#000000">
08 04:53:20
</text>
<polyline fill="none" opacity="1" stroke="#000000" stroke-width="1" points="837,700 837,705 "/>
<polyline fill="none" opacity="1" stroke="#000000" stroke-width="1" points="78,67 974,67 "/>
<text x="130" y="58" dy="-0.5ex" text-anchor="middle" font-family="sans-serif" font-size="9.67741935483871" opacity="1" fill="#000000">
+00:49:04
</text>
<polyline fill="none" opacity="1" stroke="#000000" stroke-width="1" points="130,62 130,67 "/>
<text x="307" y="58" dy="-0.5ex" text-anchor="middle" font-family="sans-serif" font-size="9.67741935483871" opacity="1" fill="#000000">
+03:35:44
</text>
<polyline fill="none" opacity="1" stroke="#000000" stroke-width="1" points="307,62 307,67 "/>
<text x="484" y="58" dy="-0.5ex" text-anchor="middle" font-family="sans-serif" font-size="9.67741935483871" opacity="1" fill="#000000">
+06:22:24
</text>
<polyline fill="none" opacity="1" stroke="#000000" stroke-width="1" points="484,62 484,67 "/>
<text x="661" y="58" dy="-0.5ex" text-anchor="middle" font-family="sans-serif" font-size="9.67741935483871" opacity="1" fill="#000000">
+09:09:04
</text>
<polyline fill="none" opacity="1" stroke="#000000" stroke-width="1" points="661,62 661,67 "/>
<text x="838" y="58" dy="-0.5ex" text-anchor="middle" font-family="sans-serif" font-size="9.67741935483871" opacity="1" fill="#000000">
+11:55:44
</text>
<polyline fill="none" opacity="1" stroke="#000000" stroke-width="1" points="838,62 838,67 "/>
<rect x="83" y="73" width="99" height="45" opacity="0.75" fill="#FFFFFF" stroke="none"/>
<rect x="83" y="73" width="99" height="45" opacity="1" fill="none" stroke="#000000"/>
<text x="123" y="83" dy="0.76em" text-anchor="start" font-family="sans-serif" font-size="9.67741935483871" opacity="1" fill="#000000">
Temporary
</text>
<text x="123" y="98" dy="0.76em" text-anchor="start" font-family="sans-serif" font-size="9.67741935483871" opacity="1" fill="#000000">
Leaked
</text>
<rect x="93" y="83" width="10" height="10" opacity="1" fill="#3CB44B" stroke="none"/>
<rect x="93" y="98" width="10" height="10" opacity="1" fill="#E6194B" stroke="none"/>
</svg>
