<svg width="1024" height="768" viewBox="0 0 1024 768" xmlns="http://www.w3.org/2000/svg">
<rect x="0" y="0" width="1024" height="768" opacity="1" fill="#FFFFFF" stroke="none"/>
<polygon opacity="1" fill="#3CB44B" points="78,491 79,491 80,491 81,482 82,472 82,462 83,452 84,452 85,442 86,442 87,482 88,472 89,462 90,452 91,442 91,442 92,432 93,422 94,413 95,413 96,393 97,393 98,383 99,383 99,373 100,363 101,353 102,353 103,363 104,482 105,482 106,472 107,472 107,462 108,462 109,452 110,442 111,432 112,432 113,422 114,422 115,413 116,403 116,393 117,393 118,383 119,373 120,373 121,383 122,383 123,482 124,472 124,659 125,649 126,649 127,639 128,629 129,620 130,610 131,600 132,600 132,590 133,590 134,570 135,551 136,570 137,560 138,551 139,570 140,669 141,679 141,669 142,669 143,659 144,659 145,649 146,639 147,639 148,639 149,629 149,620 150,620 151,610 152,610 153,600 154,590 155,560 156,570 157,679 157,659 158,659 159,659 160,649 161,639 162,639 163,600 164,610 165,610 166,620 166,689 167,689 168,679 169,639 170,629 171,649 172,629 173,629 174,629 174,629 175,629 176,620 177,610 178,600 179,570 180,560 181,570 182,560 182,521 183,649 184,659 185,629 186,639 187,669 188,659 189,629 190,620 191,629 191,560 192,551 193,570 194,560 195,570 196,580 197,570 198,511 199,501 199,501 200,541 201,669 202,679 203,669 204,639 205,639 206,629 207,600 207,580 208,600 209,629 210,629 211,590 212,600 213,590 214,590 215,551 216,541 216,511 217,521 218,521 219,521 220,679 221,679 222,669 223,659 224,649 224,649 225,649 226,639 227,639 228,639 229,639 230,629 231,620 232,620 232,620 233,629 234,689 235,679 236,669 237,669 238,659 239,649 240,649 241,649 241,639 242,629 243,629 244,620 245,610 246,600 247,590 248,590 249,580 249,580 250,590 251,590 252,689 253,679 254,669 255,659 256,649 257,649 257,629 258,629 259,620 260,610 261,610 262,600 263,590 264,580 265,570 266,570 266,580 267,580 268,689 269,679 270,679 271,669 272,669 273,659 274,659 274,669 275,679 276,669 277,669 278,659 279,649 280,649 281,639 282,639 283,639 283,620 284,620 285,610 286,600 287,600 288,600 289,590 290,580 291,580 291,590 292,590 293,689 294,679 295,669 296,659 297,659 298,659 299,649 299,649 300,649 301,649 302,639 303,629 304,620 305,610 306,600 307,600 308,590 308,590 309,600 310,689 311,679 312,669 313,659 314,659 315,649 316,639 316,452 317,452 318,452 319,422 320,422 321,413 322,403 323,393 324,393 324,373 325,373 326,363 327,462 328,452 329,442 330,422 331,413 332,393 333,383 333,383 334,363 335,363 336,344 337,334 338,324 339,314 340,284 341,275 341,275 342,265 343,265 344,265 345,363 346,363 347,353 348,344 349,334 349,324 350,314 351,304 352,304 353,284 354,284 355,265 356,413 357,413 358,383 358,383 359,363 360,363 361,462 362,442 363,432 364,422 365,413 366,403 366,393 367,373 368,353 369,344 370,344 371,334 372,324 373,314 374,294 374,284 375,284 376,275 377,284 378,393 379,373 380,363 381,363 382,344 383,334 383,324 384,314 385,314 386,294 387,294 388,275 389,265 390,255 391,245 391,225 392,225 393,383 394,472 395,462 396,452 397,432 398,432 399,413 399,413 400,403 401,383 402,383 403,363 404,363 405,353 406,344 407,334 408,324 408,314 409,324 410,403 411,393 412,393 413,363 414,353 415,334 416,324 416,324 417,314 418,304 419,284 420,275 421,265 422,265 423,255 424,245 424,225 425,225 426,235 427,324 428,314 429,304 430,304 431,442 432,422 433,413 433,393 434,383 435,383 436,363 437,353 438,334 439,324 440,314 441,314 441,294 442,294 443,304 444,413 445,393 446,383 447,373 448,363 449,363 449,353 450,344 451,344 452,334 453,324 454,314 455,294 456,284 457,284 458,265 458,265 459,265 460,255 461,245 462,334 463,314 464,304 465,284 466,265 466,255 467,265 468,383 469,373 470,363 471,353 472,334 473,324 474,314 474,304 475,294 476,294 477,265 478,403 479,383 480,383 481,373 482,353 483,344 483,344 484,324 485,314 486,294 487,275 488,265 489,245 490,235 491,225 491,215 492,206 493,206 494,186 495,186 496,324 497,304 498,294 499,275 499,265 500,245 501,245 502,235 503,215 504,206 505,196 506,334 507,324 508,304 508,304 509,294 510,284 511,294 512,294 513,403 514,403 515,393 516,383 516,383 517,363 518,353 519,353 520,344 521,334 522,324 523,314 524,314 525,304 525,294 526,275 527,265 528,265 529,334 530,324 531,304 532,304 533,294 533,265 534,255 535,245 536,235 537,225 538,225 539,206 540,196 541,176 541,166 542,166 543,176 544,422 545,403 546,393 547,393 548,373 549,363 550,353 550,334 551,324 552,304 553,294 554,284 555,275 556,265 557,255 558,235 558,235 559,225 560,363 561,363 562,344 563,324 564,314 565,304 566,294 566,284 567,265 568,265 569,255 570,235 571,225 572,225 573,206 574,196 575,186 575,176 576,176 577,166 578,275 579,265 580,255 581,235 582,225 583,215 583,363 584,344 585,344 586,334 587,314 588,314 589,304 590,284 591,284 591,275 592,265 593,265 594,373 595,363 596,353 597,334 598,334 599,334 600,314 600,304 601,294 602,284 603,265 604,255 605,255 606,235 607,225 608,215 608,206 609,206 610,215 611,294 612,284 613,265 614,255 615,245 616,225 616,215 617,215 618,196 619,186 620,196 621,304 622,304 623,294 624,294 625,284 625,393 626,393 627,373 628,363 629,353 630,334 631,334 632,324 633,304 633,294 634,284 635,265 636,255 637,235 638,225 639,215 640,206 641,206 641,186 642,304 643,304 644,284 645,275 646,255 647,245 648,235 649,215 650,206 650,206 651,186 652,176 653,166 654,146 655,137 656,117 657,117 658,127 658,393 659,383 660,373 661,363 662,353 663,344 664,334 665,324 666,314 666,314 667,294 668,294 669,294 670,275 671,265 672,255 673,245 674,245 675,245 675,225 676,225 677,314 678,294 679,284 680,265 681,255 682,245 683,235 683,235 684,215 685,206 686,206 687,186 688,176 689,166 690,156 691,146 691,146 692,137 693,245 694,225 695,215 696,215 697,206 698,206 699,353 700,353 700,353 701,344 702,344 703,334 704,314 705,304 706,294 707,284 708,275 708,275 709,255 710,314 711,304 712,294 713,294 714,284 715,275 716,255 716,255 717,245 718,245 719,235 720,225 721,215 722,206 723,196 724,186 725,166 725,166 726,156 727,146 728,146 729,225 730,215 731,196 732,196 733,186 733,176 734,156 735,146 736,156 737,275 738,265 739,245 740,235 741,225 741,215 742,215 743,196 744,196 745,324 746,304 747,294 748,275 749,265 750,245 750,235 751,225 752,206 753,206 754,196 755,176 756,176 757,176 758,156 758,146 759,137 760,127 761,245 762,235 763,225 764,215 765,196 766,186 767,186 767,166 768,156 769,146 770,137 771,127 772,107 773,97 774,77 775,77 775,225 776,206 777,215 778,344 779,334 780,324 781,314 782,294 783,284 783,284 784,275 785,255 786,255 787,225 788,215 789,206 790,196 791,186 792,166 792,166 793,156 794,146 795,255 796,245 797,235 798,225 799,206 800,196 800,196 801,176 802,166 803,156 804,146 805,137 806,127 807,107 808,107 808,97 809,77 810,77 811,68 812,186 813,196 814,314 815,294 816,294 817,275 817,265 818,255 819,245 820,235 821,225 822,206 823,196 824,176 825,166 825,166 826,156 827,284 828,265 829,255 830,235 831,225 832,225 833,215 833,206 834,196 835,186 836,176 837,176 838,156 839,156 840,146 841,127 842,117 842,255 843,255 844,255 845,353 846,353 847,344 848,324 849,304 850,304 850,284 851,422 852,413 853,403 854,403 855,393 856,383 857,373 858,353 858,353 859,344 860,334 861,344 862,422 863,413 864,403 865,383 866,383 867,373 867,353 868,353 869,344 870,334 871,324 872,314 873,304 874,284 875,275 875,255 876,255 877,245 878,353 879,344 880,334 881,324 882,304 883,294 883,284 884,275 885,265 886,245 887,235 888,215 889,215 890,353 891,344 892,344 892,324 893,324 894,314 895,432 896,422 897,413 898,403 899,393 900,383 900,363 901,353 902,334 903,324 904,324 905,294 906,294 907,275 908,275 908,255 909,255 910,245 911,363 912,363 913,363 914,353 915,334 916,324 917,304 917,294 918,275 919,255 920,255 921,245 922,225 923,215 924,206 925,186 925,176 926,166 927,334 928,334 929,442 930,432 931,432 932,413 933,403 933,393 934,373 935,363 936,353 937,344 938,334 939,314 940,314 941,294 942,284 942,275 943,265 944,265 945,275 946,373 947,363 948,353 949,334 950,334 950,314 951,304 952,294 953,275 954,265 955,265 956,255 957,245 958,235 958,215 959,206 960,196 961,196 962,196 963,294 964,284 965,275 965,422 966,413 967,403 967,403 968,393 969,373 970,363 970,363 973,363 973,699 78,699 "/>
<polyline fill="none" opacity="1" stroke="#3CB44B" stroke-width="1" points="78,491 79,491 80,491 81,482 82,472 82,462 83,452 84,452 85,442 86,442 87,482 88,472 89,462 90,452 91,442 91,442 92,432 93,422 94,413 95,413 96,393 97,393 98,383 99,383 99,373 100,363 101,353 102,353 103,363 104,482 105,482 106,472 107,472 107,462 108,462 109,452 110,442 111,432 112,432 113,422 114,422 115,413 116,403 116,393 117,393 118,383 119,373 120,373 121,383 122,383 123,482 124,472 124,659 125,649 126,649 127,639 128,629 129,620 130,610 131,600 132,600 132,590 133,590 134,570 135,551 136,570 137,560 138,551 139,570 140,669 141,679 141,669 142,669 143,659 144,659 145,649 146,639 147,639 148,639 149,629 149,620 150,620 151,610 152,610 153,600 154,590 155,560 156,570 157,679 157,659 158,659 159,659 160,649 161,639 162,639 163,600 164,610 165,610 166,620 166,689 167,689 168,679 169,639 170,629 171,649 172,629 173,629 174,629 174,629 175,629 176,620 177,610 178,600 179,570 180,560 181,570 182,560 182,521 183,649 184,659 185,629 186,639 187,669 188,659 189,629 190,620 191,629 191,560 192,551 193,570 194,560 195,570 196,580 197,570 198,511 199,501 199,501 200,541 201,669 202,679 203,669 204,639 205,639 206,629 207,600 207,580 208,600 209,629 210,629 211,590 212,600 213,590 214,590 215,551 216,541 216,511 217,521 218,521 219,521 220,679 221,679 222,669 223,659 224,649 224,649 225,649 226,639 227,639 228,639 229,639 230,629 231,620 232,620 232,620 233,629 234,689 235,679 236,669 237,669 238,659 239,649 240,649 241,649 241,639 242,629 243,629 244,620 245,610 246,600 247,590 248,590 249,580 249,580 250,590 251,590 252,689 253,679 254,669 255,659 256,649 257,649 257,629 258,629 259,620 260,610 261,610 262,600 263,590 264,580 265,570 266,570 266,580 267,580 268,689 269,679 270,679 271,669 272,669 273,659 274,659 274,669 275,679 276,669 277,669 278,659 279,649 280,649 281,639 282,639 283,639 283,620 284,620 285,610 286,600 287,600 288,600 289,590 290,580 291,580 291,590 292,590 293,689 294,679 295,669 296,659 297,659 298,659 299,649 299,649 300,649 301,649 302,639 303,629 304,620 305,610 306,600 307,600 308,590 308,590 309,600 310,689 311,679 312,669 313,659 314,659 315,649 316,639 316,452 317,452 318,452 319,422 320,422 321,413 322,403 323,393 324,393 324,373 325,373 326,363 327,462 328,452 329,442 330,422 331,413 332,393 333,383 333,383 334,363 335,363 336,344 337,334 338,324 339,314 340,284 341,275 341,275 342,265 343,265 344,265 345,363 346,363 347,353 348,344 349,334 349,324 350,314 351,304 352,304 353,284 354,284 355,265 356,413 357,413 358,383 358,383 359,363 360,363 361,462 362,442 363,432 364,422 365,413 366,403 366,393 367,373 368,353 369,344 370,344 371,334 372,324 373,314 374,294 374,284 375,284 376,275 377,284 378,393 379,373 380,363 381,363 382,344 383,334 383,324 384,314 385,314 386,294 387,294 388,275 389,265 390,255 391,245 391,225 392,225 393,383 394,472 395,462 396,452 397,432 398,432 399,413 399,413 400,403 401,383 402,383 403,363 404,363 405,353 406,344 407,334 408,324 408,314 409,324 410,403 411,393 412,393 413,363 414,353 415,334 416,324 416,324 417,314 418,304 419,284 420,275 421,265 422,265 423,255 424,245 424,225 425,225 426,235 427,324 428,314 429,304 430,304 431,442 432,422 433,413 433,393 434,383 435,383 436,363 437,353 438,334 439,324 440,314 441,314 441,294 442,294 443,304 444,413 445,393 446,383 447,373 448,363 449,363 449,353 450,344 451,344 452,334 453,324 454,314 455,294 456,284 457,284 458,265 458,265 459,265 460,255 461,245 462,334 463,314 464,304 465,284 466,265 466,255 467,265 468,383 469,373 470,363 471,353 472,334 473,324 474,314 474,304 475,294 476,294 477,265 478,403 479,383 480,383 481,373 482,353 483,344 483,344 484,324 485,314 486,294 487,275 488,265 489,245 490,235 491,225 491,215 492,206 493,206 494,186 495,186 496,324 497,304 498,294 499,275 499,265 500,245 501,245 502,235 503,215 504,206 505,196 506,334 507,324 508,304 508,304 509,294 510,284 511,294 512,294 513,403 514,403 515,393 516,383 516,383 517,363 518,353 519,353 520,344 521,334 522,324 523,314 524,314 525,304 525,294 526,275 527,265 528,265 529,334 530,324 531,304 532,304 533,294 533,265 534,255 535,245 536,235 537,225 538,225 539,206 540,196 541,176 541,166 542,166 543,176 544,422 545,403 546,393 547,393 548,373 549,363 550,353 550,334 551,324 552,304 553,294 554,284 555,275 556,265 557,255 558,235 558,235 559,225 560,363 561,363 562,344 563,324 564,314 565,304 566,294 566,284 567,265 568,265 569,255 570,235 571,225 572,225 573,206 574,196 575,186 575,176 576,176 577,166 578,275 579,265 580,255 581,235 582,225 583,215 583,363 584,344 585,344 586,334 587,314 588,314 589,304 590,284 591,284 591,275 592,265 593,265 594,373 595,363 596,353 597,334 598,334 599,334 600,314 600,304 601,294 602,284 603,265 604,255 605,255 606,235 607,225 608,215 608,206 609,206 610,215 611,294 612,284 613,265 614,255 615,245 616,225 616,215 617,215 618,196 619,186 620,196 621,304 622,304 623,294 624,294 625,284 625,393 626,393 627,373 628,363 629,353 630,334 631,334 632,324 633,304 633,294 634,284 635,265 636,255 637,235 638,225 639,215 640,206 641,206 641,186 642,304 643,304 644,284 645,275 646,255 647,245 648,235 649,215 650,206 650,206 651,186 652,176 653,166 654,146 655,137 656,117 657,117 658,127 658,393 659,383 660,373 661,363 662,353 663,344 664,334 665,324 666,314 666,314 667,294 668,294 669,294 670,275 671,265 672,255 673,245 674,245 675,245 675,225 676,225 677,314 678,294 679,284 680,265 681,255 682,245 683,235 683,235 684,215 685,206 686,206 687,186 688,176 689,166 690,156 691,146 691,146 692,137 693,245 694,225 695,215 696,215 697,206 698,206 699,353 700,353 700,353 701,344 702,344 703,334 704,314 705,304 706,294 707,284 708,275 708,275 709,255 710,314 711,304 712,294 713,294 714,284 715,275 716,255 716,255 717,245 718,245 719,235 720,225 721,215 722,206 723,196 724,186 725,166 725,166 726,156 727,146 728,146 729,225 730,215 731,196 732,196 733,186 733,176 734,156 735,146 736,156 737,275 738,265 739,245 740,235 741,225 741,215 742,215 743,196 744,196 745,324 746,304 747,294 748,275 749,265 750,245 750,235 751,225 752,206 753,206 754,196 755,176 756,176 757,176 758,156 758,146 759,137 760,127 761,245 762,235 763,225 764,215 765,196 766,186 767,186 767,166 768,156 769,146 770,137 771,127 772,107 773,97 774,77 775,77 775,225 776,206 777,215 778,344 779,334 780,324 781,314 782,294 783,284 783,284 784,275 785,255 786,255 787,225 788,215 789,206 790,196 791,186 792,166 792,166 793,156 794,146 795,255 796,245 797,235 798,225 799,206 800,196 800,196 801,176 802,166 803,156 804,146 805,137 806,127 807,107 808,107 808,97 809,77 810,77 811,68 812,186 813,196 814,314 815,294 816,294 817,275 817,265 818,255 819,245 820,235 821,225 822,206 823,196 824,176 825,166 825,166 826,156 827,284 828,265 829,255 830,235 831,225 832,225 833,215 833,206 834,196 835,186 836,176 837,176 838,156 839,156 840,146 841,127 842,117 842,255 843,255 844,255 845,353 846,353 847,344 848,324 849,304 850,304 850,284 851,422 852,413 853,403 854,403 855,393 856,383 857,373 858,353 858,353 859,344 860,334 861,344 862,422 863,413 864,403 865,383 866,383 867,373 867,353 868,353 869,344 870,334 871,324 872,314 873,304 874,284 875,275 875,255 876,255 877,245 878,353 879,344 880,334 881,324 882,304 883,294 883,284 884,275 885,265 886,245 887,235 888,215 889,215 890,353 891,344 892,344 892,324 893,324 894,314 895,432 896,422 897,413 898,403 899,393 900,383 900,363 901,353 902,334 903,324 904,324 905,294 906,294 907,275 908,275 908,255 909,255 910,245 911,363 912,363 913,363 914,353 915,334 916,324 917,304 917,294 918,275 919,255 920,255 921,245 922,225 923,215 924,206 925,186 925,176 926,166 927,334 928,334 929,442 930,432 931,432 932,413 933,403 933,393 934,373 935,363 936,353 937,344 938,334 939,314 940,314 941,294 942,284 942,275 943,265 944,265 945,275 946,373 947,363 948,353 949,334 950,334 950,314 951,304 952,294 953,275 954,265 955,265 956,255 957,245 958,235 958,215 959,206 960,196 961,196 962,196 963,294 964,284 965,275 965,422 966,413 967,403 967,403 968,393 969,373 970,363 970,363 973,363 "/>
<polygon opacity="1" fill="#E6194B" points="78,699 79,699 80,699 81,699 82,699 82,699 83,699 84,699 85,699 86,699 87,699 88,699 89,699 90,699 91,699 91,699 92,699 93,699 94,699 95,699 96,699 97,699 98,699 99,699 99,699 100,699 101,699 102,699 103,699 104,699 105,699 106,699 107,699 107,699 108,699 109,699 110,699 111,699 112,699 113,699 114,699 115,699 116,699 116,699 117,699 118,699 119,699 120,699 121,699 122,699 123,699 124,699 124,699 125,699 126,699 127,699 128,699 129,699 130,699 131,699 132,699 132,699 133,699 134,699 135,699 136,699 137,699 138,699 139,699 140,699 141,699 141,699 142,699 143,699 144,699 145,699 146,699 147,699 148,699 149,699 149,699 150,699 151,699 152,699 153,699 154,699 155,699 156,699 157,699 157,699 158,699 159,699 160,699 161,699 162,699 163,699 164,699 165,699 166,699 166,699 167,699 168,699 169,699 170,699 171,699 172,699 173,699 174,699 174,699 175,699 176,699 177,699 178,699 179,699 180,699 181,699 182,699 182,699 183,699 184,699 185,699 186,699 187,699 188,699 189,699 190,699 191,699 191,699 192,699 193,699 194,699 195,699 196,699 197,699 198,699 199,699 199,699 200,699 201,699 202,699 203,699 204,699 205,699 206,699 207,699 207,699 208,699 209,699 210,699 211,699 212,699 213,699 214,699 215,699 216,699 216,699 217,699 218,699 219,699 220,699 221,699 222,699 223,699 224,699 224,699 225,699 226,699 227,699 228,699 229,699 230,699 231,699 232,699 232,699 233,699 234,699 235,699 236,699 237,699 238,699 239,699 240,699 241,699 241,699 242,699 243,699 244,699 245,699 246,699 247,699 248,699 249,699 249,699 250,699 251,699 252,699 253,699 254,699 255,699 256,699 257,699 257,699 258,699 259,699 260,699 261,699 262,699 263,699 264,699 265,699 266,699 266,699 267,699 268,699 269,699 270,699 271,699 272,699 273,699 274,699 274,699 275,699 276,699 277,699 278,699 279,699 280,699 281,699 282,699 283,699 283,699 284,699 285,699 286,699 287,699 288,699 289,699 290,699 291,699 291,699 292,699 293,699 294,699 295,699 296,699 297,699 298,699 299,699 299,699 300,699 301,699 302,699 303,699 304,699 305,699 306,699 307,699 308,699 308,699 309,699 310,699 311,699 312,699 313,699 314,699 315,699 316,699 316,620 317,620 318,620 319,620 320,620 321,620 322,620 323,620 324,620 324,620 325,620 326,620 327,620 328,620 329,620 330,610 331,610 332,610 333,610 333,610 334,610 335,610 336,610 337,610 338,610 339,610 340,610 341,610 341,610 342,610 343,610 344,610 345,610 346,610 347,610 348,610 349,610 349,610 350,610 351,610 352,610 353,610 354,610 355,610 356,610 357,610 358,610 358,610 359,610 360,610 361,610 362,610 363,610 364,610 365,610 366,610 366,610 367,610 368,600 369,600 370,600 371,600 372,600 373,600 374,600 374,600 375,600 376,600 377,600 378,600 379,600 380,600 381,600 382,600 383,600 383,600 384,600 385,600 386,600 387,600 388,600 389,600 390,600 391,600 391,600 392,600 393,600 394,600 395,600 396,600 397,600 398,600 399,600 399,600 400,600 401,600 402,600 403,600 404,600 405,600 406,600 407,600 408,600 408,600 409,600 410,600 411,600 412,600 413,600 414,600 415,600 416,600 416,600 417,600 418,600 419,600 420,600 421,600 422,600 423,600 424,600 424,600 425,600 426,600 427,600 428,600 429,600 430,600 431,600 432,600 433,600 433,600 434,600 435,600 436,600 437,600 438,600 439,600 440,600 441,600 441,600 442,600 443,600 444,600 445,600 446,600 447,600 448,600 449,600 449,600 450,600 451,600 452,600 453,600 454,600 455,600 456,600 457,600 458,600 458,600 459,600 460,600 461,600 462,600 463,600 464,600 465,600 466,590 466,590 467,590 468,590 469,590 470,590 471,590 472,590 473,590 474,590 474,590 475,590 476,590 477,580 478,580 479,580 480,580 481,580 482,580 483,580 483,580 484,580 485,580 486,580 487,580 488,580 489,580 490,580 491,580 491,580 492,580 493,580 494,580 495,580 496,580 497,580 498,580 499,580 499,580 500,580 501,580 502,580 503,580 504,580 505,580 506,580 507,580 508,580 508,580 509,580 510,580 511,580 512,580 513,580 514,580 515,580 516,580 516,580 517,580 518,580 519,580 520,580 521,580 522,580 523,580 524,580 525,580 525,580 526,580 527,580 528,580 529,580 530,580 531,580 532,580 533,580 533,570 534,570 535,570 536,570 537,570 538,570 539,570 540,570 541,570 541,570 542,570 543,570 544,570 545,570 546,570 547,570 548,570 549,570 550,570 550,570 551,570 552,570 553,570 554,570 555,570 556,570 557,570 558,570 558,570 559,570 560,570 561,570 562,570 563,570 564,570 565,570 566,570 566,570 567,570 568,570 569,570 570,560 571,560 572,560 573,560 574,560 575,560 575,560 576,560 577,560 578,560 579,560 580,560 581,560 582,560 583,560 583,560 584,560 585,560 586,560 587,560 588,560 589,560 590,560 591,560 591,560 592,560 593,560 594,560 595,560 596,560 597,560 598,560 599,560 600,560 600,560 601,560 602,560 603,560 604,560 605,560 606,560 607,560 608,560 608,560 609,560 610,560 611,560 612,560 613,560 614,560 615,560 616,560 616,560 617,560 618,560 619,560 620,560 621,560 622,560 623,560 624,560 625,560 625,560 626,560 627,560 628,560 629,560 630,560 631,560 632,560 633,560 633,560 634,560 635,560 636,560 637,560 638,560 639,560 640,560 641,560 641,560 642,560 643,560 644,560 645,560 646,560 647,560 648,551 649,551 650,551 650,551 651,551 652,551 653,551 654,551 655,551 656,551 657,551 658,551 658,551 659,551 660,551 661,551 662,551 663,551 664,551 665,551 666,551 666,551 667,551 668,551 669,551 670,551 671,551 672,551 673,551 674,551 675,551 675,551 676,551 677,551 678,551 679,551 680,551 681,551 682,551 683,551 683,551 684,551 685,551 686,551 687,551 688,551 689,551 690,551 691,541 691,541 692,541 693,541 694,541 695,541 696,541 697,541 698,541 699,541 700,541 700,541 701,541 702,541 703,541 704,541 705,541 706,541 707,541 708,541 708,541 709,541 710,531 711,531 712,531 713,531 714,531 715,531 716,531 716,531 717,531 718,531 719,531 720,531 721,531 722,531 723,531 724,531 725,531 725,531 726,531 727,531 728,531 729,531 730,531 731,531 732,531 733,531 733,531 734,531 735,531 736,531 737,531 738,531 739,531 740,531 741,531 741,531 742,531 743,531 744,531 745,531 746,531 747,531 748,531 749,531 750,521 750,521 751,521 752,521 753,521 754,521 755,521 756,521 757,521 758,521 758,521 759,521 760,521 761,521 762,521 763,521 764,521 765,521 766,521 767,521 767,521 768,521 769,521 770,521 771,521 772,521 773,521 774,521 775,521 775,521 776,521 777,521 778,521 779,521 780,521 781,521 782,521 783,521 783,521 784,521 785,521 786,521 787,521 788,521 789,521 790,521 791,521 792,521 792,521 793,521 794,521 795,521 796,521 797,521 798,521 799,521 800,521 800,521 801,521 802,521 803,521 804,521 805,521 806,521 807,521 808,521 808,521 809,521 810,521 811,521 812,521 813,521 814,521 815,521 816,521 817,521 817,521 818,521 819,521 820,521 821,521 822,521 823,521 824,521 825,521 825,521 826,521 827,521 828,521 829,521 830,521 831,521 832,521 833,521 833,521 834,521 835,521 836,521 837,521 838,521 839,521 840,521 841,521 842,511 842,511 843,511 844,511 845,511 846,511 847,511 848,511 849,501 850,501 850,501 851,501 852,501 853,501 854,501 855,501 856,501 857,501 858,501 858,501 859,501 860,501 861,501 862,491 863,491 864,491 865,491 866,491 867,491 867,491 868,491 869,491 870,491 871,491 872,491 873,491 874,491 875,491 875,491 876,491 877,491 878,491 879,491 880,491 881,491 882,491 883,491 883,491 884,491 885,491 886,491 887,491 888,491 889,491 890,491 891,491 892,491 892,491 893,491 894,491 895,491 896,491 897,491 898,491 899,491 900,491 900,491 901,491 902,491 903,491 904,491 905,491 906,491 907,491 908,491 908,491 909,491 910,491 911,491 912,491 913,491 914,491 915,491 916,482 917,482 917,482 918,472 919,472 920,472 921,472 922,472 923,472 924,472 925,472 925,472 926,472 927,472 928,472 929,472 930,472 931,472 932,472 933,472 933,472 934,472 935,472 936,472 937,472 938,472 939,472 940,472 941,472 942,472 942,472 943,472 944,472 945,472 946,472 947,472 948,472 949,472 950,472 950,472 951,472 952,472 953,472 954,472 955,472 956,472 957,472 958,472 958,472 959,472 960,472 961,472 962,462 963,452 964,442 965,422 965,422 966,413 967,403 967,403 968,393 969,373 970,363 970,363 973,363 973,699 78,699 "/>
<polyline fill="none" opacity="1" stroke="#E6194B" stroke-width="1" points="78,699 79,699 80,699 81,699 82,699 82,699 83,699 84,699 85,699 86,699 87,699 88,699 89,699 90,699 91,699 91,699 92,699 93,699 94,699 95,699 96,699 97,699 98,699 99,699 99,699 100,699 101,699 102,699 103,699 104,699 105,699 106,699 107,699 107,699 108,699 109,699 110,699 111,699 112,699 113,699 114,699 115,699 116,699 116,699 117,699 118,699 119,699 120,699 121,699 122,699 123,699 124,699 124,699 125,699 126,699 127,699 128,699 129,699 130,699 131,699 132,699 132,699 133,699 134,699 135,699 136,699 137,699 138,699 139,699 140,699 141,699 141,699 142,699 143,699 144,699 145,699 146,699 147,699 148,699 149,699 149,699 150,699 151,699 152,699 153,699 154,699 155,699 156,699 157,699 157,699 158,699 159,699 160,699 161,699 162,699 163,699 164,699 165,699 166,699 166,699 167,699 168,699 169,699 170,699 171,699 172,699 173,699 174,699 174,699 175,699 176,699 177,699 178,699 179,699 180,699 181,699 182,699 182,699 183,699 184,699 185,699 186,699 187,699 188,699 189,699 190,699 191,699 191,699 192,699 193,699 194,699 195,699 196,699 197,699 198,699 199,699 199,699 200,699 201,699 202,699 203,699 204,699 205,699 206,699 207,699 207,699 208,699 209,699 210,699 211,699 212,699 213,699 214,699 215,699 216,699 216,699 217,699 218,699 219,699 220,699 221,699 222,699 223,699 224,699 224,699 225,699 226,699 227,699 228,699 229,699 230,699 231,699 232,699 232,699 233,699 234,699 235,699 236,699 237,699 238,699 239,699 240,699 241,699 241,699 242,699 243,699 244,699 245,699 246,699 247,699 248,699 249,699 249,699 250,699 251,699 252,699 253,699 254,699 255,699 256,699 257,699 257,699 258,699 259,699 260,699 261,699 262,699 263,699 264,699 265,699 266,699 266,699 267,699 268,699 269,699 270,699 271,699 272,699 273,699 274,699 274,699 275,699 276,699 277,699 278,699 279,699 280,699 281,699 282,699 283,699 283,699 284,699 285,699 286,699 287,699 288,699 289,699 290,699 291,699 291,699 292,699 293,699 294,699 295,699 296,699 297,699 298,699 299,699 299,699 300,699 301,699 302,699 303,699 304,699 305,699 306,699 307,699 308,699 308,699 309,699 310,699 311,699 312,699 313,699 314,699 315,699 316,699 316,620 317,620 318,620 319,620 320,620 321,620 322,620 323,620 324,620 324,620 325,620 326,620 327,620 328,620 329,620 330,610 331,610 332,610 333,610 333,610 334,610 335,610 336,610 337,610 338,610 339,610 340,610 341,610 341,610 342,610 343,610 344,610 345,610 346,610 347,610 348,610 349,610 349,610 350,610 351,610 352,610 353,610 354,610 355,610 356,610 357,610 358,610 358,610 359,610 360,610 361,610 362,610 363,610 364,610 365,610 366,610 366,610 367,610 368,600 369,600 370,600 371,600 372,600 373,600 374,600 374,600 375,600 376,600 377,600 378,600 379,600 380,600 381,600 382,600 383,600 383,600 384,600 385,600 386,600 387,600 388,600 389,600 390,600 391,600 391,600 392,600 393,600 394,600 395,600 396,600 397,600 398,600 399,600 399,600 400,600 401,600 402,600 403,600 404,600 405,600 406,600 407,600 408,600 408,600 409,600 410,600 411,600 412,600 413,600 414,600 415,600 416,600 416,600 417,600 418,600 419,600 420,600 421,600 422,600 423,600 424,600 424,600 425,600 426,600 427,600 428,600 429,600 430,600 431,600 432,600 433,600 433,600 434,600 435,600 436,600 437,600 438,600 439,600 440,600 441,600 441,600 442,600 443,600 444,600 445,600 446,600 447,600 448,600 449,600 449,600 450,600 451,600 452,600 453,600 454,600 455,600 456,600 457,600 458,600 458,600 459,600 460,600 461,600 462,600 463,600 464,600 465,600 466,590 466,590 467,590 468,590 469,590 470,590 471,590 472,590 473,590 474,590 474,590 475,590 476,590 477,580 478,580 479,580 480,580 481,580 482,580 483,580 483,580 484,580 485,580 486,580 487,580 488,580 489,580 490,580 491,580 491,580 492,580 493,580 494,580 495,580 496,580 497,580 498,580 499,580 499,580 500,580 501,580 502,580 503,580 504,580 505,580 506,580 507,580 508,580 508,580 509,580 510,580 511,580 512,580 513,580 514,580 515,580 516,580 516,580 517,580 518,580 519,580 520,580 521,580 522,580 523,580 524,580 525,580 525,580 526,580 527,580 528,580 529,580 530,580 531,580 532,580 533,580 533,570 534,570 535,570 536,570 537,570 538,570 539,570 540,570 541,570 541,570 542,570 543,570 544,570 545,570 546,570 547,570 548,570 549,570 550,570 550,570 551,570 552,570 553,570 554,570 555,570 556,570 557,570 558,570 558,570 559,570 560,570 561,570 562,570 563,570 564,570 565,570 566,570 566,570 567,570 568,570 569,570 570,560 571,560 572,560 573,560 574,560 575,560 575,560 576,560 577,560 578,560 579,560 580,560 581,560 582,560 583,560 583,560 584,560 585,560 586,560 587,560 588,560 589,560 590,560 591,560 591,560 592,560 593,560 594,560 595,560 596,560 597,560 598,560 599,560 600,560 600,560 601,560 602,560 603,560 604,560 605,560 606,560 607,560 608,560 608,560 609,560 610,560 611,560 612,560 613,560 614,560 615,560 616,560 616,560 617,560 618,560 619,560 620,560 621,560 622,560 623,560 624,560 625,560 625,560 626,560 627,560 628,560 629,560 630,560 631,560 632,560 633,560 633,560 634,560 635,560 636,560 637,560 638,560 639,560 640,560 641,560 641,560 642,560 643,560 644,560 645,560 646,560 647,560 648,551 649,551 650,551 650,551 651,551 652,551 653,551 654,551 655,551 656,551 657,551 658,551 658,551 659,551 660,551 661,551 662,551 663,551 664,551 665,551 666,551 666,551 667,551 668,551 669,551 670,551 671,551 672,551 673,551 674,551 675,551 675,551 676,551 677,551 678,551 679,551 680,551 681,551 682,551 683,551 683,551 684,551 685,551 686,551 687,551 688,551 689,551 690,551 691,541 691,541 692,541 693,541 694,541 695,541 696,541 697,541 698,541 699,541 700,541 700,541 701,541 702,541 703,541 704,541 705,541 706,541 707,541 708,541 708,541 709,541 710,531 711,531 712,531 713,531 714,531 715,531 716,531 716,531 717,531 718,531 719,531 720,531 721,531 722,531 723,531 724,531 725,531 725,531 726,531 727,531 728,531 729,531 730,531 731,531 732,531 733,531 733,531 734,531 735,531 736,531 737,531 738,531 739,531 740,531 741,531 741,531 742,531 743,531 744,531 745,531 746,531 747,531 748,531 749,531 750,521 750,521 751,521 752,521 753,521 754,521 755,521 756,521 757,521 758,521 758,521 759,521 760,521 761,521 762,521 763,521 764,521 765,521 766,521 767,521 767,521 768,521 769,521 770,521 771,521 772,521 773,521 774,521 775,521 775,521 776,521 777,521 778,521 779,521 780,521 781,521 782,521 783,521 783,521 784,521 785,521 786,521 787,521 788,521 789,521 790,521 791,521 792,521 792,521 793,521 794,521 795,521 796,521 797,521 798,521 799,521 800,521 800,521 801,521 802,521 803,521 804,521 805,521 806,521 807,521 808,521 808,521 809,521 810,521 811,521 812,521 813,521 814,521 815,521 816,521 817,521 817,521 818,521 819,521 820,521 821,521 822,521 823,521 824,521 825,521 825,521 826,521 827,521 828,521 829,521 830,521 831,521 832,521 833,521 833,521 834,521 835,521 836,521 837,521 838,521 839,521 840,521 841,521 842,511 842,511 843,511 844,511 845,511 846,511 847,511 848,511 849,501 850,501 850,501 851,501 852,501 853,501 854,501 855,501 856,501 857,501 858,501 858,501 859,501 860,501 861,501 862,491 863,491 864,491 865,491 866,491 867,491 867,491 868,491 869,491 870,491 871,491 872,491 873,491 874,491 875,491 875,491 876,491 877,491 878,491 879,491 880,491 881,491 882,491 883,491 883,491 884,491 885,491 886,491 887,491 888,491 889,491 890,491 891,491 892,491 892,491 893,491 894,491 895,491 896,491 897,491 898,491 899,491 900,491 900,491 901,491 902,491 903,491 904,491 905,491 906,491 907,491 908,491 908,491 909,491 910,491 911,491 912,491 913,491 914,491 915,491 916,482 917,482 917,482 918,472 919,472 920,472 921,472 922,472 923,472 924,472 925,472 925,472 926,472 927,472 928,472 929,472 930,472 931,472 932,472 933,472 933,472 934,472 935,472 936,472 937,472 938,472 939,472 940,472 941,472 942,472 942,472 943,472 944,472 945,472 946,472 947,472 948,472 949,472 950,472 950,472 951,472 952,472 953,472 954,472 955,472 956,472 957,472 958,472 958,472 959,472 960,472 961,472 962,462 963,452 964,442 965,422 965,422 966,413 967,403 967,403 968,393 969,373 970,363 970,363 973,363 "/>
<line opacity="0.1" stroke="#000000" stroke-width="1" x1="85" y1="699" x2="85" y2="68"/>
<line opacity="0.1" stroke="#000000" stroke-width="1" x1="94" y1="699" x2="94" y2="68"/>
<line opacity="0.1" stroke="#000000" stroke-width="1" x1="103" y1="699" x2="103" y2="68"/>
<line opacity="0.1" stroke="#000000" stroke-width="1" x1="112" y1="699" x2="112" y2="68"/>
<line opacity="0.1" stroke="#000000" stroke-width="1" x1="121" y1="699" x2="121" y2="68"/>
<line opacity="0.1" stroke="#000000" stroke-width="1" x1="130" y1="699" x2="130" y2="68"/>
<line opacity="0.1" stroke="#000000" stroke-width="1" x1="138" y1="699" x2="138" y2="68"/>
<line opacity="0.1" stroke="#000000" stroke-width="1" x1="147" y1="699" x2="147" y2="68"/>
<line opacity="0.1" stroke="#000000" stroke-width="1" x1="156" y1="699" x2="156" y2="68"/>
<line opacity="0.1" stroke="#000000" stroke-width="1" x1="165" y1="699" x2="165" y2="68"/>
<line opacity="0.1" stroke="#000000" stroke-width="1" x1="174" y1="699" x2="174" y2="68"/>
<line opacity="0.1" stroke="#000000" stroke-width="1" x1="183" y1="699" x2="183" y2="68"/>
<line opacity="0.1" stroke="#000000" stroke-width="1" x1="191" y1="699" x2="191" y2="68"/>
<line opacity="0.1" stroke="#000000" stroke-width="1" x1="200" y1="699" x2="200" y2="68"/>
<line opacity="0.1" stroke="#000000" stroke-width="1" x1="209" y1="699" x2="209" y2="68"/>
<line opacity="0.1" stroke="#000000" stroke-width="1" x1="218" y1="699" x2="218" y2="68"/>
<line opacity="0.1" stroke="#000000" stroke-width="1" x1="227" y1="699" x2="227" y2="68"/>
<line opacity="0.1" stroke="#000000" stroke-width="1" x1="236" y1="699" x2="236" y2="68"/>
<line opacity="0.1" stroke="#000000" stroke-width="1" x1="244" y1="699" x2="244" y2="68"/>
<line opacity="0.1" stroke="#000000" stroke-width="1" x1="253" y1="699" x2="253" y2="68"/>
<line opacity="0.1" stroke="#000000" stroke-width="1" x1="262" y1="699" x2="262" y2="68"/>
<line opacity="0.1" stroke="#000000" stroke-width="1" x1="271" y1="699" x2="271" y2="68"/>
<line opacity="0.1" stroke="#000000" stroke-width="1" x1="280" y1="699" x2="280" y2="68"/>
<line opacity="0.1" stroke="#000000" stroke-width="1" x1="289" y1="699" x2="289" y2="68"/>
<line opacity="0.1" stroke="#000000" stroke-width="1" x1="298" y1="699" x2="298" y2="68"/>
<line opacity="0.1" stroke="#000000" stroke-width="1" x1="306" y1="699" x2="306" y2="68"/>
<line opacity="0.1" stroke="#000000" stroke-width="1" x1="315" y1="699" x2="315" y2="68"/>
<line opacity="0.1" stroke="#000000" stroke-width="1" x1="324" y1="699" x2="324" y2="68"/>
<line opacity="0.1" stroke="#000000" stroke-width="1" x1="333" y1="699" x2="333" y2="68"/>
<line opacity="0.1" stroke="#000000" stroke-width="1" x1="342" y1="699" x2="342" y2="68"/>
<line opacity="0.1" stroke="#000000" stroke-width="1" x1="351" y1="699" x2="351" y2="68"/>
<line opacity="0.1" stroke="#000000" stroke-width="1" x1="359" y1="699" x2="359" y2="68"/>
<line opacity="0.1" stroke="#000000" stroke-width="1" x1="368" y1="699" x2="368" y2="68"/>
<line opacity="0.1" stroke="#000000" stroke-width="1" x1="377" y1="699" x2="377" y2="68"/>
<line opacity="0.1" stroke="#000000" stroke-width="1" x1="386" y1="699" x2="386" y2="68"/>
<line opacity="0.1" stroke="#000000" stroke-width="1" x1="395" y1="699" x2="395" y2="68"/>
<line opacity="0.1" stroke="#000000" stroke-width="1" x1="404" y1="699" x2="404" y2="68"/>
<line opacity="0.1" stroke="#000000" stroke-width="1" x1="412" y1="699" x2="412" y2="68"/>
<line opacity="0.1" stroke="#000000" stroke-width="1" x1="421" y1="699" x2="421" y2="68"/>
<line opacity="0.1" stroke="#000000" stroke-width="1" x1="430" y1="699" x2="430" y2="68"/>
<line opacity="0.1" stroke="#000000" stroke-width="1" x1="439" y1="699" x2="439" y2="68"/>
<line opacity="0.1" stroke="#000000" stroke-width="1" x1="448" y1="699" x2="448" y2="68"/>
<line opacity="0.1" stroke="#000000" stroke-width="1" x1="457" y1="699" x2="457" y2="68"/>
<line opacity="0.1" stroke="#000000" stroke-width="1" x1="465" y1="699" x2="465" y2="68"/>
<line opacity="0.1" stroke="#000000" stroke-width="1" x1="474" y1="699" x2="474" y2="68"/>
<line opacity="0.1" stroke="#000000" stroke-width="1" x1="483" y1="699" x2="483" y2="68"/>
<line opacity="0.1" stroke="#000000" stroke-width="1" x1="492" y1="699" x2="492" y2="68"/>
<line opacity="0.1" stroke="#000000" stroke-width="1" x1="501" y1="699" x2="501" y2="68"/>
<line opacity="0.1" stroke="#000000" stroke-width="1" x1="510" y1="699" x2="510" y2="68"/>
<line opacity="0.1" stroke="#000000" stroke-width="1" x1="518" y1="699" x2="518" y2="68"/>
<line opacity="0.1" stroke="#000000" stroke-width="1" x1="527" y1="699" x2="527" y2="68"/>
<line opacity="0.1" stroke="#000000" stroke-width="1" x1="536" y1="699" x2="536" y2="68"/>
<line opacity="0.1" stroke="#000000" stroke-width="1" x1="545" y1="699" x2="545" y2="68"/>
<line opacity="0.1" stroke="#000000" stroke-width="1" x1="554" y1="699" x2="554" y2="68"/>
<line opacity="0.1" stroke="#000000" stroke-width="1" x1="563" y1="699" x2="563" y2="68"/>
<line opacity="0.1" stroke="#000000" stroke-width="1" x1="572" y1="699" x2="572" y2="68"/>
<line opacity="0.1" stroke="#000000" stroke-width="1" x1="580" y1="699" x2="580" y2="68"/>
<line opacity="0.1" stroke="#000000" stroke-width="1" x1="589" y1="699" x2="589" y2="68"/>
<line opacity="0.1" stroke="#000000" stroke-width="1" x1="598" y1="699" x2="598" y2="68"/>
<line opacity="0.1" stroke="#000000" stroke-width="1" x1="607" y1="699" x2="607" y2="68"/>
<line opacity="0.1" stroke="#000000" stroke-width="1" x1="616" y1="699" x2="616" y2="68"/>
<line opacity="0.1" stroke="#000000" stroke-width="1" x1="625" y1="699" x2="625" y2="68"/>
<line opacity="0.1" stroke="#000000" stroke-width="1" x1="633" y1="699" x2="633" y2="68"/>
<line opacity="0.1" stroke="#000000" stroke-width="1" x1="642" y1="699" x2="642" y2="68"/>
<line opacity="0.1" stroke="#000000" stroke-width="1" x1="651" y1="699" x2="651" y2="68"/>
<line opacity="0.1" stroke="#000000" stroke-width="1" x1="660" y1="699" x2="660" y2="68"/>
<line opacity="0.1" stroke="#000000" stroke-width="1" x1="669" y1="699" x2="669" y2="68"/>
<line opacity="0.1" stroke="#000000" stroke-width="1" x1="678" y1="699" x2="678" y2="68"/>
<line opacity="0.1" stroke="#000000" stroke-width="1" x1="686" y1="699" x2="686" y2="68"/>
<line opacity="0.1" stroke="#000000" stroke-width="1" x1="695" y1="699" x2="695" y2="68"/>
<line opacity="0.1" stroke="#000000" stroke-width="1" x1="704" y1="699" x2="704" y2="68"/>
<line opacity="0.1" stroke="#000000" stroke-width="1" x1="713" y1="699" x2="713" y2="68"/>
<line opacity="0.1" stroke="#000000" stroke-width="1" x1="722" y1="699" x2="722" y2="68"/>
<line opacity="0.1" stroke="#000000" stroke-width="1" x1="731" y1="699" x2="731" y2="68"/>
<line opacity="0.1" stroke="#000000" stroke-width="1" x1="739" y1="699" x2="739" y2="68"/>
<line opacity="0.1" stroke="#000000" stroke-width="1" x1="748" y1="699" x2="748" y2="68"/>
<line opacity="0.1" stroke="#000000" stroke-width="1" x1="757" y1="699" x2="757" y2="68"/>
<line opacity="0.1" stroke="#000000" stroke-width="1" x1="766" y1="699" x2="766" y2="68"/>
<line opacity="0.1" stroke="#000000" stroke-width="1" x1="775" y1="699" x2="775" y2="68"/>
<line opacity="0.1" stroke="#000000" stroke-width="1" x1="784" y1="699" x2="784" y2="68"/>
<line opacity="0.1" stroke="#000000" stroke-width="1" x1="792" y1="699" x2="792" y2="68"/>
<line opacity="0.1" stroke="#000000" stroke-width="1" x1="801" y1="699" x2="801" y2="68"/>
<line opacity="0.1" stroke="#000000" stroke-width="1" x1="810" y1="699" x2="810" y2="68"/>
<line opacity="0.1" stroke="#000000" stroke-width="1" x1="819" y1="699" x2="819" y2="68"/>
<line opacity="0.1" stroke="#000000" stroke-width="1" x1="828" y1="699" x2="828" y2="68"/>
<line opacity="0.1" stroke="#000000" stroke-width="1" x1="837" y1="699" x2="837" y2="68"/>
<line opacity="0.1" stroke="#000000" stroke-width="1" x1="846" y1="699" x2="846" y2="68"/>
<line opacity="0.1" stroke="#000000" stroke-width="1" x1="854" y1="699" x2="854" y2="68"/>
<line opacity="0.1" stroke="#000000" stroke-width="1" x1="863" y1="699" x2="863" y2="68"/>
<line opacity="0.1" stroke="#000000" stroke-width="1" x1="872" y1="699" x2="872" y2="68"/>
<line opacity="0.1" stroke="#000000" stroke-width="1" x1="881" y1="699" x2="881" y2="68"/>
<line opacity="0.1" stroke="#000000" stroke-width="1" x1="890" y1="699" x2="890" y2="68"/>
<line opacity="0.1" stroke="#000000" stroke-width="1" x1="899" y1="699" x2="899" y2="68"/>
<line opacity="0.1" stroke="#000000" stroke-width="1" x1="907" y1="699" x2="907" y2="68"/>
<line opacity="0.1" stroke="#000000" stroke-width="1" x1="916" y1="699" x2="916" y2="68"/>
<line opacity="0.1" stroke="#000000" stroke-width="1" x1="925" y1="699" x2="925" y2="68"/>
<line opacity="0.1" stroke="#000000" stroke-width="1" x1="934" y1="699" x2="934" y2="68"/>
<line opacity="0.1" stroke="#000000" stroke-width="1" x1="943" y1="699" x2="943" y2="68"/>
<line opacity="0.1" stroke="#000000" stroke-width="1" x1="952" y1="699" x2="952" y2="68"/>
<line opacity="0.1" stroke="#000000" stroke-width="1" x1="960" y1="699" x2="960" y2="68"/>
<line opacity="0.1" stroke="#000000" stroke-width="1" x1="969" y1="699" x2="969" y2="68"/>
<line opacity="0.1" stroke="#000000" stroke-width="1" x1="78" y1="699" x2="973" y2="699"/>
<line opacity="0.1" stroke="#000000" stroke-width="1" x1="78" y1="691" x2="973" y2="691"/>
<line opacity="0.1" stroke="#000000" stroke-width="1" x1="78" y1="683" x2="973" y2="683"/>
<line opacity="0.1" stroke="#000000" stroke-width="1" x1="78" y1="676" x2="973" y2="676"/>
<line opacity="0.1" stroke="#000000" stroke-width="1" x1="78" y1="668" x2="973" y2="668"/>
<line opacity="0.1" stroke="#000000" stroke-width="1" x1="78" y1="661" x2="973" y2="661"/>
<line opacity="0.1" stroke="#000000" stroke-width="1" x1="78" y1="653" x2="973" y2="653"/>
<line opacity="0.1" stroke="#000000" stroke-width="1" x1="78" y1="646" x2="973" y2="646"/>
<line opacity="0.1" stroke="#000000" stroke-width="1" x1="78" y1="638" x2="973" y2="638"/>
<line opacity="0.1" stroke="#000000" stroke-width="1" x1="78" y1="631" x2="973" y2="631"/>
<line opacity="0.1" stroke="#000000" stroke-width="1" x1="78" y1="623" x2="973" y2="623"/>
<line opacity="0.1" stroke="#000000" stroke-width="1" x1="78" y1="616" x2="973" y2="616"/>
<line opacity="0.1" stroke="#000000" stroke-width="1" x1="78" y1="608" x2="973" y2="608"/>
<line opacity="0.1" stroke="#000000" stroke-width="1" x1="78" y1="601" x2="973" y2="601"/>
<line opacity="0.1" stroke="#000000" stroke-width="1" x1="78" y1="593" x2="973" y2="593"/>
<line opacity="0.1" stroke="#000000" stroke-width="1" x1="78" y1="586" x2="973" y2="586"/>
<line opacity="0.1" stroke="#000000" stroke-width="1" x1="78" y1="578" x2="973" y2="578"/>
<line opacity="0.1" stroke="#000000" stroke-width="1" x1="78" y1="571" x2="973" y2="571"/>
<line opacity="0.1" stroke="#000000" stroke-width="1" x1="78" y1="563" x2="973" y2="563"/>
<line opacity="0.1" stroke="#000000" stroke-width="1" x1="78" y1="556" x2="973" y2="556"/>
<line opacity="0.1" stroke="#000000" stroke-width="1" x1="78" y1="548" x2="973" y2="548"/>
<line opacity="0.1" stroke="#000000" stroke-width="1" x1="78" y1="541" x2="973" y2="541"/>
<line opacity="0.1" stroke="#000000" stroke-width="1" x1="78" y1="533" x2="973" y2="533"/>
<line opacity="0.1" stroke="#000000" stroke-width="1" x1="78" y1="525" x2="973" y2="525"/>
<line opacity="0.1" stroke="#000000" stroke-width="1" x1="78" y1="518" x2="973" y2="518"/>
<line opacity="0.1" stroke="#000000" stroke-width="1" x1="78" y1="510" x2="973" y2="510"/>
<line opacity="0.1" stroke="#000000" stroke-width="1" x1="78" y1="503" x2="973" y2="503"/>
<line opacity="0.1" stroke="#000000" stroke-width="1" x1="78" y1="495" x2="973" y2="495"/>
<line opacity="0.1" stroke="#000000" stroke-width="1" x1="78" y1="488" x2="973" y2="488"/>
<line opacity="0.1" stroke="#000000" stroke-width="1" x1="78" y1="480" x2="973" y2="480"/>
<line opacity="0.1" stroke="#000000" stroke-width="1" x1="78" y1="473" x2="973" y2="473"/>
<line opacity="0.1" stroke="#000000" stroke-width="1" x1="78" y1="465" x2="973" y2="465"/>
<line opacity="0.1" stroke="#000000" stroke-width="1" x1="78" y1="458" x2="973" y2="458"/>
<line opacity="0.1" stroke="#000000" stroke-width="1" x1="78" y1="450" x2="973" y2="450"/>
<line opacity="0.1" stroke="#000000" stroke-width="1" x1="78" y1="443" x2="973" y2="443"/>
<line opacity="0.1" stroke="#000000" stroke-width="1" x1="78" y1="435" x2="973" y2="435"/>
<line opacity="0.1" stroke="#000000" stroke-width="1" x1="78" y1="428" x2="973" y2="428"/>
<line opacity="0.1" stroke="#000000" stroke-width="1" x1="78" y1="420" x2="973" y2="420"/>
<line opacity="0.1" stroke="#000000" stroke-width="1" x1="78" y1="413" x2="973" y2="413"/>
<line opacity="0.1" stroke="#000000" stroke-width="1" x1="78" y1="405" x2="973" y2="405"/>
<line opacity="0.1" stroke="#000000" stroke-width="1" x1="78" y1="398" x2="973" y2="398"/>
<line opacity="0.1" stroke="#000000" stroke-width="1" x1="78" y1="390" x2="973" y2="390"/>
<line opacity="0.1" stroke="#000000" stroke-width="1" x1="78" y1="383" x2="973" y2="383"/>
<line opacity="0.1" stroke="#000000" stroke-width="1" x1="78" y1="375" x2="973" y2="375"/>
<line opacity="0.1" stroke="#000000" stroke-width="1" x1="78" y1="368" x2="973" y2="368"/>
<line opacity="0.1" stroke="#000000" stroke-width="1" x1="78" y1="360" x2="973" y2="360"/>
<line opacity="0.1" stroke="#000000" stroke-width="1" x1="78" y1="352" x2="973" y2="352"/>
<line opacity="0.1" stroke="#000000" stroke-width="1" x1="78" y1="345" x2="973" y2="345"/>
<line opacity="0.1" stroke="#000000" stroke-width="1" x1="78" y1="337" x2="973" y2="337"/>
<line opacity="0.1" stroke="#000000" stroke-width="1" x1="78" y1="330" x2="973" y2="330"/>
<line opacity="0.1" stroke="#000000" stroke-width="1" x1="78" y1="322" x2="973" y2="322"/>
<line opacity="0.1" stroke="#000000" stroke-width="1" x1="78" y1="315" x2="973" y2="315"/>
<line opacity="0.1" stroke="#000000" stroke-width="1" x1="78" y1="307" x2="973" y2="307"/>
<line opacity="0.1" stroke="#000000" stroke-width="1" x1="78" y1="300" x2="973" y2="300"/>
<line opacity="0.1" stroke="#000000" stroke-width="1" x1="78" y1="292" x2="973" y2="292"/>
<line opacity="0.1" stroke="#000000" stroke-width="1" x1="78" y1="285" x2="973" y2="285"/>
<line opacity="0.1" stroke="#000000" stroke-width="1" x1="78" y1="277" x2="973" y2="277"/>
<line opacity="0.1" stroke="#000000" stroke-width="1" x1="78" y1="270" x2="973" y2="270"/>
<line opacity="0.1" stroke="#000000" stroke-width="1" x1="78" y1="262" x2="973" y2="262"/>
<line opacity="0.1" stroke="#000000" stroke-width="1" x1="78" y1="255" x2="973" y2="255"/>
<line opacity="0.1" stroke="#000000" stroke-width="1" x1="78" y1="247" x2="973" y2="247"/>
<line opacity="0.1" stroke="#000000" stroke-width="1" x1="78" y1="240" x2="973" y2="240"/>
<line opacity="0.1" stroke="#000000" stroke-width="1" x1="78" y1="232" x2="973" y2="232"/>
<line opacity="0.1" stroke="#000000" stroke-width="1" x1="78" y1="225" x2="973" y2="225"/>
<line opacity="0.1" stroke="#000000" stroke-width="1" x1="78" y1="217" x2="973" y2="217"/>
<line opacity="0.1" stroke="#000000" stroke-width="1" x1="78" y1="210" x2="973" y2="210"/>
<line opacity="0.1" stroke="#000000" stroke-width="1" x1="78" y1="202" x2="973" y2="202"/>
<line opacity="0.1" stroke="#000000" stroke-width="1" x1="78" y1="195" x2="973" y2="195"/>
<line opacity="0.1" stroke="#000000" stroke-width="1" x1="78" y1="187" x2="973" y2="187"/>
<line opacity="0.1" stroke="#000000" stroke-width="1" x1="78" y1="179" x2="973" y2="179"/>
<line opacity="0.1" stroke="#000000" stroke-width="1" x1="78" y1="172" x2="973" y2="172"/>
<line opacity="0.1" stroke="#000000" stroke-width="1" x1="78" y1="164" x2="973" y2="164"/>
<line opacity="0.1" stroke="#000000" stroke-width="1" x1="78" y1="157" x2="973" y2="157"/>
<line opacity="0.1" stroke="#000000" stroke-width="1" x1="78" y1="149" x2="973" y2="149"/>
<line opacity="0.1" stroke="#000000" stroke-width="1" x1="78" y1="142" x2="973" y2="142"/>
<line opacity="0.1" stroke="#000000" stroke-width="1" x1="78" y1="134" x2="973" y2="134"/>
<line opacity="0.1" stroke="#000000" stroke-width="1" x1="78" y1="127" x2="973" y2="127"/>
<line opacity="0.1" stroke="#000000" stroke-width="1" x1="78" y1="119" x2="973" y2="119"/>
<line opacity="0.1" stroke="#000000" stroke-width="1" x1="78" y1="112" x2="973" y2="112"/>
<line opacity="0.1" stroke="#000000" stroke-width="1" x1="78" y1="104" x2="973" y2="104"/>
<line opacity="0.1" stroke="#000000" stroke-width="1" x1="78" y1="97" x2="973" y2="97"/>
<line opacity="0.1" stroke="#000000" stroke-width="1" x1="78" y1="89" x2="973" y2="89"/>
<line opacity="0.1" stroke="#000000" stroke-width="1" x1="78" y1="82" x2="973" y2="82"/>
<line opacity="0.1" stroke="#000000" stroke-width="1" x1="78" y1="74" x2="973" y2="74"/>
<text x="8" y="384" dy="0.76em" text-anchor="middle" font-family="sans-serif" font-size="9.67741935483871" opacity="1" fill="#000000" transform="rotate(270, 8, 384)">
Memory usage
</text>
<text x="526" y="760" dy="-0.5ex" text-anchor="middle" font-family="sans-serif" font-size="9.67741935483871" opacity="1" fill="#000000">
Time
</text>
<line opacity="0.2" stroke="#000000" stroke-width="1" x1="130" y1="699" x2="130" y2="68"/>
<line opacity="0.2" stroke="#000000" stroke-width="1" x1="306" y1="699" x2="306" y2="68"/>
<line opacity="0.2" stroke="#000000" stroke-width="1" x1="483" y1="699" x2="483" y2="68"/>
<line opacity="0.2" stroke="#000000" stroke-width="1" x1="660" y1="699" x2="660" y2="68"/>
<line opacity="0.2" stroke="#000000" stroke-width="1" x1="837" y1="699" x2="837" y2="68"/>
<line opacity="0.2" stroke="#000000" stroke-width="1" x1="78" y1="699" x2="973" y2="699"/>
<line opacity="0.2" stroke="#000000" stroke-width="1" x1="78" y1="623" x2="973" y2="623"/>
<line opacity="0.2" stroke="#000000" stroke-width="1" x1="78" y1="548" x2="973" y2="548"/>
<line opacity="0.2" stroke="#000000" stroke-width="1" x1="78" y1="473" x2="973" y2="473"/>
<line opacity="0.2" stroke="#000000" stroke-width="1" x1="78" y1="398" x2="973" y2="398"/>
<line opacity="0.2" stroke="#000000" stroke-width="1" x1="78" y1="322" x2="973" y2="322"/>
<line opacity="0.2" stroke="#000000" stroke-width="1" x1="78" y1="247" x2="973" y2="247"/>
<line opacity="0.2" stroke="#000000" stroke-width="1" x1="78" y1="172" x2="973" y2="172"/>
<line opacity="0.2" stroke="#000000" stroke-width="1" x1="78" y1="97" x2="973" y2="97"/>
<polyline fill="none" opacity="1" stroke="#000000" stroke-width="1" points="77,68 77,699 "/>
<text x="68" y="699" dy="0.5ex" text-anchor="end" font-family="sans-serif" font-size="9.67741935483871" opacity="1" fill="#000000">
0.0 MB
</text>
<polyline fill="none" opacity="1" stroke="#000000" stroke-width="1" points="72,699 77,699 "/>
<text x="68" y="623" dy="0.5ex" text-anchor="end" font-family="sans-serif" font-size="9.67741935483871" opacity="1" fill="#000000">
1.9 MB
</text>
<polyline fill="none" opacity="1" stroke="#000000" stroke-width="1" points="72,623 77,623 "/>
<text x="68" y="548" dy="0.5ex" text-anchor="end" font-family="sans-serif" font-size="9.67741935483871" opacity="1" fill="#000000">
3.8 MB
</text>
<polyline fill="none" opacity="1" stroke="#000000" stroke-width="1" points="72,548 77,548 "/>
<text x="68" y="473" dy="0.5ex" text-anchor="end" font-family="sans-serif" font-size="9.67741935483871" opacity="1" fill="#000000">
5.7 MB
</text>
<polyline fill="none" opacity="1" stroke="#000000" stroke-width="1" points="72,473 77,473 "/>
<text x="68" y="398" dy="0.5ex" text-anchor="end" font-family="sans-serif" font-size="9.67741935483871" opacity="1" fill="#000000">
7.6 MB
</text>
<polyline fill="none" opacity="1" stroke="#000000" stroke-width="1" points="72,398 77,398 "/>
<text x="68" y="322" dy="0.5ex" text-anchor="end" font-family="sans-serif" font-size="9.67741935483871" opacity="1" fill="#000000">
9.5 MB
</text>
<polyline fill="none" opacity="1" stroke="#000000" stroke-width="1" points="72,322 77,322 "/>
<text x="68" y="247" dy="0.5ex" text-anchor="end" font-family="sans-serif" font-size="9.67741935483871" opacity="1" fill="#000000">
11.4 MB
</text>
<polyline fill="none" opacity="1" stroke="#000000" stroke-width="1" points="72,247 77,247 "/>
<text x="68" y="172" dy="0.5ex" text-anchor="end" font-family="sans-serif" font-size="9.67741935483871" opacity="1" fill="#000000">
13.4 MB
</text>
<polyline fill="none" opacity="1" stroke="#000000" stroke-width="1" points="72,172 77,172 "/>
<text x="68" y="97" dy="0.5ex" text-anchor="end" font-family="sans-serif" font-size="9.67741935483871" opacity="1" fill="#000000">
15.3 MB
</text>
<polyline fill="none" opacity="1" stroke="#000000" stroke-width="1" points="72,97 77,97 "/>
<polyline fill="none" opacity="1" stroke="#000000" stroke-width="1" points="78,700 973,700 "/>
<text x="130" y="710" dy="0.76em" text-anchor="middle" font-family="sans-serif" font-size="9.67741935483871" opacity="1" fill="#000000">
07 17:46:40
</text>
<polyline fill="none" opacity="1" stroke="#000000" stroke-width="1" points="130,700 130,705 "/>
<text x="306" y="710" dy="0.76em" text-anchor="middle" font-family="sans-serif" font-size="9.67741935483871" opacity="1" fill="#000000">
07 20:33:20
</text>
<polyline fill="none" opacity="1" stroke="#000000" stroke-width="1" points="306,700 306,705 "/>
<text x="483" y="710" dy="0.76em" text-anchor="middle" font-family="sans-serif" font-size="9.67741935483871" opacity="1" fill="#000000">
07 23:20:00
</text>
<polyline fill="none" opacity="1" stroke="#000000" stroke-width="1" points="483,700 483,705 "/>
<text x="660" y="710" dy="0.76em" text-anchor="middle" font-family="sans-serif" font-size="9.67741935483871" opacity="1" fill="#000000">
08 02:06:40
</text>
<polyline fill="none" opacity="1" stroke="#000000" stroke-width="1" points="660,700 660,705 "/>
<text x="837" y="710" dy="0.76em" text-anchor="middle" font-family="sans-serif" font-size="9.67741935483871" opacity="1" fill="#000000">
08 04:53:20
</text>
<polyline fill="none" opacity="1" stroke="#000000" stroke-width="1" points="837,700 837,705 "/>
<polyline fill="none" opacity="1" stroke="#000000" stroke-width="1" points="78,67 974,67 "/>
<text x="130" y="58" dy="-0.5ex" text-anchor="middle" font-family="sans-serif" font-size="9.67741935483871" opacity="1" fill="#000000">
+00:49:04
</text>
<polyline fill="none" opacity="1" stroke="#000000" stroke-width="1" points="130,62 130,67 "/>
<text x="307" y="58" dy="-0.5ex" text-anchor="middle" font-family="sans-serif" font-size="9.67741935483871" opacity="1" fill="#000000">
+03:35:44
</text>
<polyline fill="none" opacity="1" stroke="#000000" stroke-width="1" points="307,62 307,67 "/>
<text x="484" y="58" dy="-0.5ex" text-anchor="middle" font-family="sans-serif" font-size="9.67741935483871" opacity="1" fill="#000000">
+06:22:24
</text>
<polyline fill="none" opacity="1" stroke="#000000" stroke-width="1" points="484,62 484,67 "/>
<text x="661" y="58" dy="-0.5ex" text-anchor="middle" font-family="sans-serif" font-size="9.67741935483871" opacity="1" fill="#000000">
+09:09:04
</text>
<polyline fill="none" opacity="1" stroke="#000000" stroke-width="1" points="661,62 661,67 "/>
<text x="838" y="58" dy="-0.5ex" text-anchor="middle" font-family="sans-serif" font-size="9.67741935483871" opacity="1" fill="#000000">
+11:55:44
</text>
<polyline fill="none" opacity="1" stroke="#000000" stroke-width="1" points="838,62 838,67 "/>
<rect x="83" y="73" width="99" height="45" opacity="0.75" fill="#FFFFFF" stroke="none"/>
<rect x="83" y="73" width="99" height="45" opacity="1" fill="none" stroke="#000000"/>
<text x="123" y="83" dy="0.76em" text-anchor="start" font-family="sans-serif" font-size="9.67741935483871" opacity="1" fill="#000000">
Temporary
</text>
<text x="123" y="98" dy="0.76em" text-anchor="start" font-family="sans-serif" font-size="9.67741935483871" opacity="1" fill="#000000">
Leaked
</text>
<rect x="93" y="83" width="10" height="10" opacity="1" fill="#3CB44B" stroke="none"/>
<rect x="93" y="98" width="10" height="10" opacity="1" fill="#E6194B" stroke="none"/>
</svg>
