<svg width="1024" height="768" viewBox="0 0 1024 768" xmlns="http://www.w3.org/2000/svg">
<rect x="0" y="0" width="1024" height="768" opacity="1" fill="#FFFFFF" stroke="none"/>
<polygon opacity="1" fill="#3CB44B" points="78,693 79,683 80,668 81,647 82,626 83,611 83,590 84,570 85,550 86,527 87,507 88,477 89,450 90,430 91,409 91,392 92,368 93,340 94,320 95,294 96,271 97,248 98,229 98,205 99,178 100,163 101,140 102,123 103,117 104,123 105,120 106,116 106,116 107,120 108,120 109,118 110,124 111,127 112,125 113,122 114,120 114,115 115,109 116,107 117,112 118,125 119,125 120,124 121,119 121,118 122,108 123,104 124,112 125,113 126,115 127,122 128,122 129,115 129,104 130,101 131,110 132,105 133,98 134,92 135,84 136,77 136,71 137,71 138,76 139,98 140,105 141,105 142,101 143,96 144,96 144,105 145,109 146,123 147,126 148,122 149,114 150,112 151,118 152,129 152,131 153,145 154,139 155,127 156,116 157,106 158,103 159,109 159,109 160,117 161,131 162,130 163,132 164,138 165,144 166,170 167,180 167,171 168,155 169,142 170,126 171,113 172,113 173,112 174,114 174,135 175,145 176,152 177,159 178,146 179,131 180,120 181,111 182,105 182,104 183,107 184,106 185,115 186,123 187,129 188,136 189,147 190,163 190,157 191,147 192,138 193,128 194,117 195,105 196,99 197,93 197,92 198,99 199,98 200,103 201,122 202,126 203,134 204,134 205,132 205,127 206,124 207,135 208,129 209,122 210,119 211,118 212,120 212,118 213,121 214,127 215,133 216,137 217,135 218,130 219,127 220,129 220,134 221,125 222,131 223,125 224,125 225,127 226,135 227,139 228,140 228,131 229,127 230,133 231,123 232,123 233,128 234,128 235,135 235,144 236,153 237,141 238,141 239,134 240,139 241,152 242,156 243,147 243,125 244,124 245,138 246,150 247,159 248,149 249,143 250,132 250,124 251,123 252,115 253,110 254,100 255,104 256,109 257,111 258,151 258,169 259,185 260,176 261,157 262,141 263,128 264,128 265,139 266,136 266,120 267,108 268,108 269,105 270,115 271,169 272,172 273,150 273,133 274,130 275,119 276,116 277,107 278,90 279,75 280,68 281,73 281,88 282,111 283,190 284,182 285,171 286,169 287,160 288,154 288,150 289,145 290,142 291,142 292,139 293,126 294,111 295,105 296,107 296,115 297,120 298,140 299,176 300,175 301,168 302,166 303,177 304,176 304,170 305,168 306,155 307,144 308,148 309,159 310,160 311,170 311,191 312,180 313,169 314,146 315,120 316,120 317,152 317,152 318,159 319,159 319,159 320,159 321,159 322,159 323,159 324,159 325,159 326,159 326,159 327,159 328,159 329,159 330,159 331,161 332,161 333,161 334,161 334,161 335,161 336,161 337,161 338,161 339,161 340,161 341,161 342,161 342,161 343,161 344,161 345,161 346,161 347,161 348,161 349,161 349,161 350,161 351,161 352,161 353,161 354,161 355,161 356,161 357,161 357,161 358,161 359,161 360,161 361,161 362,161 363,161 364,161 365,161 365,161 366,161 367,161 368,161 369,161 370,161 371,161 372,162 372,162 373,162 374,162 375,162 376,162 377,162 378,162 379,162 380,162 380,162 381,162 382,162 383,162 384,162 385,162 386,162 387,162 387,162 388,162 389,162 390,162 391,162 392,162 393,162 394,162 395,162 395,162 396,162 397,162 398,162 399,162 400,162 401,162 402,162 403,162 403,162 404,162 405,162 406,162 407,162 408,162 409,162 410,162 410,162 411,162 412,162 413,162 414,162 415,162 416,162 417,162 418,162 418,162 419,162 420,162 421,162 422,162 423,162 424,162 425,162 425,162 426,163 427,163 428,163 429,163 430,163 431,163 432,163 433,163 433,163 434,163 435,163 436,163 437,163 438,163 439,163 440,163 441,163 441,163 442,163 443,163 444,163 445,163 446,163 447,163 448,163 448,163 449,163 450,163 451,163 452,163 453,163 454,163 455,163 456,163 456,163 457,163 458,163 459,163 460,163 461,163 462,163 463,163 463,163 464,164 465,164 466,164 467,164 468,164 469,164 470,164 471,164 471,164 472,164 473,164 474,164 475,164 476,164 477,164 478,164 479,164 479,164 480,164 481,164 482,164 483,164 484,164 485,164 486,164 486,164 487,164 488,164 489,164 490,164 491,165 492,165 493,165 494,165 494,165 495,165 496,165 497,165 498,165 499,165 500,165 501,165 501,165 502,165 503,165 504,165 505,165 506,165 507,165 508,165 509,165 509,165 510,165 511,165 512,165 513,165 514,165 515,165 516,165 517,165 517,165 518,165 519,165 520,165 521,165 522,165 523,165 524,165 524,165 525,165 526,165 527,165 528,165 529,165 530,165 531,165 532,165 532,165 533,165 534,165 535,165 536,165 537,165 538,165 539,165 539,165 540,165 541,165 542,165 543,165 544,165 545,165 546,165 547,165 547,165 548,165 549,165 550,165 551,165 552,165 553,165 554,165 555,165 555,165 556,165 557,165 558,165 559,165 560,166 561,166 562,166 562,166 563,166 564,166 565,166 566,166 567,166 568,166 569,166 570,166 570,166 571,166 572,166 573,166 574,166 575,166 576,166 577,166 577,166 578,166 579,166 580,166 581,166 582,166 583,166 584,166 585,166 585,166 586,166 587,166 588,166 589,166 590,166 591,166 592,166 593,166 593,166 594,166 595,166 596,166 597,166 598,166 599,166 600,166 600,166 601,166 602,166 603,166 604,166 605,166 606,166 607,166 608,166 608,166 609,166 610,166 611,166 612,166 613,166 614,166 615,166 615,166 616,166 617,166 618,166 619,166 620,167 621,167 622,167 623,167 623,167 624,167 625,167 626,167 627,167 628,167 629,167 630,167 631,167 631,167 632,167 633,167 634,167 635,167 636,168 637,168 638,168 638,168 639,168 640,168 641,168 642,168 643,168 644,168 645,168 646,168 646,168 647,168 648,168 649,168 650,168 651,168 652,168 653,168 653,168 654,168 655,168 656,168 657,168 658,168 659,168 660,168 661,168 661,168 662,168 663,168 664,168 665,168 666,168 667,168 668,168 669,168 669,168 670,168 671,168 672,168 673,168 674,168 675,168 676,168 676,168 677,168 678,168 679,168 680,168 681,168 682,168 683,168 684,168 684,168 685,168 686,168 687,168 688,168 689,168 690,168 691,168 692,168 692,168 693,168 694,168 695,168 696,168 697,168 698,168 699,168 699,168 700,168 701,168 702,168 703,168 704,168 705,168 706,168 707,168 707,168 708,168 709,168 710,168 711,168 712,168 713,168 714,168 714,168 715,168 716,168 717,168 718,168 719,168 720,168 721,168 722,168 722,168 723,169 724,169 725,169 726,169 727,169 728,169 729,169 730,169 730,169 731,169 732,169 733,169 734,169 735,169 736,169 737,169 737,169 738,169 739,169 740,169 741,169 742,169 743,169 744,169 745,169 745,169 746,169 747,169 748,169 749,169 750,169 751,169 752,169 752,169 753,169 754,169 755,169 756,169 757,169 758,169 759,169 760,169 760,170 761,170 762,170 763,170 764,170 765,170 766,170 767,170 768,170 768,170 769,170 770,170 771,170 772,170 773,170 774,170 775,170 775,170 776,170 777,170 778,170 779,170 780,170 781,170 782,170 783,170 783,170 784,170 785,170 786,170 787,170 788,170 789,170 790,170 790,170 791,170 792,170 793,170 794,170 795,170 796,170 797,170 798,170 798,170 799,171 800,171 801,171 802,171 803,171 804,171 805,171 806,171 806,171 807,171 808,171 809,171 810,171 811,171 812,171 813,171 813,171 814,171 815,171 816,171 817,171 818,171 819,171 820,171 821,171 821,171 822,171 823,171 824,171 825,171 826,171 827,171 828,171 828,171 829,172 830,172 831,172 832,172 833,172 834,172 835,172 836,172 836,172 837,172 838,172 839,172 840,172 841,172 842,172 843,172 844,172 844,172 845,172 846,172 847,172 848,172 849,172 850,172 851,172 851,172 852,172 853,172 854,172 855,172 856,172 857,172 858,172 859,172 859,172 860,172 861,173 862,173 863,173 864,173 865,173 866,173 866,173 867,173 868,173 869,173 870,173 871,173 872,173 873,173 874,173 874,173 875,173 876,173 877,173 878,173 879,173 880,173 881,173 882,173 882,173 883,173 884,173 885,173 886,173 887,173 888,173 889,173 889,173 890,173 891,173 892,173 893,173 894,173 895,173 896,173 897,173 897,173 898,173 899,173 900,173 901,173 902,173 903,173 904,173 904,173 905,173 906,174 907,174 908,174 909,174 910,174 911,174 912,174 912,174 913,174 914,174 915,174 916,174 917,174 918,174 919,174 920,174 920,174 921,174 922,174 923,174 924,174 925,174 926,178 927,178 927,178 928,178 929,178 930,178 931,178 932,178 933,178 934,178 935,178 935,178 936,178 937,178 938,178 939,178 940,178 941,178 942,178 942,178 943,178 944,178 945,178 946,178 947,178 948,178 949,178 950,178 950,178 951,178 952,178 953,178 954,178 955,178 956,178 957,178 958,178 958,178 959,178 960,178 961,178 962,178 962,179 973,179 973,699 78,699 "/>
<polyline fill="none" opacity="1" stroke="#3CB44B" stroke-width="1" points="78,693 79,683 80,668 81,647 82,626 83,611 83,590 84,570 85,550 86,527 87,507 88,477 89,450 90,430 91,409 91,392 92,368 93,340 94,320 95,294 96,271 97,248 98,229 98,205 99,178 100,163 101,140 102,123 103,117 104,123 105,120 106,116 106,116 107,120 108,120 109,118 110,124 111,127 112,125 113,122 114,120 114,115 115,109 116,107 117,112 118,125 119,125 120,124 121,119 121,118 122,108 123,104 124,112 125,113 126,115 127,122 128,122 129,115 129,104 130,101 131,110 132,105 133,98 134,92 135,84 136,77 136,71 137,71 138,76 139,98 140,105 141,105 142,101 143,96 144,96 144,105 145,109 146,123 147,126 148,122 149,114 150,112 151,118 152,129 152,131 153,145 154,139 155,127 156,116 157,106 158,103 159,109 159,109 160,117 161,131 162,130 163,132 164,138 165,144 166,170 167,180 167,171 168,155 169,142 170,126 171,113 172,113 173,112 174,114 174,135 175,145 176,152 177,159 178,146 179,131 180,120 181,111 182,105 182,104 183,107 184,106 185,115 186,123 187,129 188,136 189,147 190,163 190,157 191,147 192,138 193,128 194,117 195,105 196,99 197,93 197,92 198,99 199,98 200,103 201,122 202,126 203,134 204,134 205,132 205,127 206,124 207,135 208,129 209,122 210,119 211,118 212,120 212,118 213,121 214,127 215,133 216,137 217,135 218,130 219,127 220,129 220,134 221,125 222,131 223,125 224,125 225,127 226,135 227,139 228,140 228,131 229,127 230,133 231,123 232,123 233,128 234,128 235,135 235,144 236,153 237,141 238,141 239,134 240,139 241,152 242,156 243,147 243,125 244,124 245,138 246,150 247,159 248,149 249,143 250,132 250,124 251,123 252,115 253,110 254,100 255,104 256,109 257,111 258,151 258,169 259,185 260,176 261,157 262,141 263,128 264,128 265,139 266,136 266,120 267,108 268,108 269,105 270,115 271,169 272,172 273,150 273,133 274,130 275,119 276,116 277,107 278,90 279,75 280,68 281,73 281,88 282,111 283,190 284,182 285,171 286,169 287,160 288,154 288,150 289,145 290,142 291,142 292,139 293,126 294,111 295,105 296,107 296,115 297,120 298,140 299,176 300,175 301,168 302,166 303,177 304,176 304,170 305,168 306,155 307,144 308,148 309,159 310,160 311,170 311,191 312,180 313,169 314,146 315,120 316,120 317,152 317,152 318,159 319,159 319,159 320,159 321,159 322,159 323,159 324,159 325,159 326,159 326,159 327,159 328,159 329,159 330,159 331,161 332,161 333,161 334,161 334,161 335,161 336,161 337,161 338,161 339,161 340,161 341,161 342,161 342,161 343,161 344,161 345,161 346,161 347,161 348,161 349,161 349,161 350,161 351,161 352,161 353,161 354,161 355,161 356,161 357,161 357,161 358,161 359,161 360,161 361,161 362,161 363,161 364,161 365,161 365,161 366,161 367,161 368,161 369,161 370,161 371,161 372,162 372,162 373,162 374,162 375,162 376,162 377,162 378,162 379,162 380,162 380,162 381,162 382,162 383,162 384,162 385,162 386,162 387,162 387,162 388,162 389,162 390,162 391,162 392,162 393,162 394,162 395,162 395,162 396,162 397,162 398,162 399,162 400,162 401,162 402,162 403,162 403,162 404,162 405,162 406,162 407,162 408,162 409,162 410,162 410,162 411,162 412,162 413,162 414,162 415,162 416,162 417,162 418,162 418,162 419,162 420,162 421,162 422,162 423,162 424,162 425,162 425,162 426,163 427,163 428,163 429,163 430,163 431,163 432,163 433,163 433,163 434,163 435,163 436,163 437,163 438,163 439,163 440,163 441,163 441,163 442,163 443,163 444,163 445,163 446,163 447,163 448,163 448,163 449,163 450,163 451,163 452,163 453,163 454,163 455,163 456,163 456,163 457,163 458,163 459,163 460,163 461,163 462,163 463,163 463,163 464,164 465,164 466,164 467,164 468,164 469,164 470,164 471,164 471,164 472,164 473,164 474,164 475,164 476,164 477,164 478,164 479,164 479,164 480,164 481,164 482,164 483,164 484,164 485,164 486,164 486,164 487,164 488,164 489,164 490,164 491,165 492,165 493,165 494,165 494,165 495,165 496,165 497,165 498,165 499,165 500,165 501,165 501,165 502,165 503,165 504,165 505,165 506,165 507,165 508,165 509,165 509,165 510,165 511,165 512,165 513,165 514,165 515,165 516,165 517,165 517,165 518,165 519,165 520,165 521,165 522,165 523,165 524,165 524,165 525,165 526,165 527,165 528,165 529,165 530,165 531,165 532,165 532,165 533,165 534,165 535,165 536,165 537,165 538,165 539,165 539,165 540,165 541,165 542,165 543,165 544,165 545,165 546,165 547,165 547,165 548,165 549,165 550,165 551,165 552,165 553,165 554,165 555,165 555,165 556,165 557,165 558,165 559,165 560,166 561,166 562,166 562,166 563,166 564,166 565,166 566,166 567,166 568,166 569,166 570,166 570,166 571,166 572,166 573,166 574,166 575,166 576,166 577,166 577,166 578,166 579,166 580,166 581,166 582,166 583,166 584,166 585,166 585,166 586,166 587,166 588,166 589,166 590,166 591,166 592,166 593,166 593,166 594,166 595,166 596,166 597,166 598,166 599,166 600,166 600,166 601,166 602,166 603,166 604,166 605,166 606,166 607,166 608,166 608,166 609,166 610,166 611,166 612,166 613,166 614,166 615,166 615,166 616,166 617,166 618,166 619,166 620,167 621,167 622,167 623,167 623,167 624,167 625,167 626,167 627,167 628,167 629,167 630,167 631,167 631,167 632,167 633,167 634,167 635,167 636,168 637,168 638,168 638,168 639,168 640,168 641,168 642,168 643,168 644,168 645,168 646,168 646,168 647,168 648,168 649,168 650,168 651,168 652,168 653,168 653,168 654,168 655,168 656,168 657,168 658,168 659,168 660,168 661,168 661,168 662,168 663,168 664,168 665,168 666,168 667,168 668,168 669,168 669,168 670,168 671,168 672,168 673,168 674,168 675,168 676,168 676,168 677,168 678,168 679,168 680,168 681,168 682,168 683,168 684,168 684,168 685,168 686,168 687,168 688,168 689,168 690,168 691,168 692,168 692,168 693,168 694,168 695,168 696,168 697,168 698,168 699,168 699,168 700,168 701,168 702,168 703,168 704,168 705,168 706,168 707,168 707,168 708,168 709,168 710,168 711,168 712,168 713,168 714,168 714,168 715,168 716,168 717,168 718,168 719,168 720,168 721,168 722,168 722,168 723,169 724,169 725,169 726,169 727,169 728,169 729,169 730,169 730,169 731,169 732,169 733,169 734,169 735,169 736,169 737,169 737,169 738,169 739,169 740,169 741,169 742,169 743,169 744,169 745,169 745,169 746,169 747,169 748,169 749,169 750,169 751,169 752,169 752,169 753,169 754,169 755,169 756,169 757,169 758,169 759,169 760,169 760,170 761,170 762,170 763,170 764,170 765,170 766,170 767,170 768,170 768,170 769,170 770,170 771,170 772,170 773,170 774,170 775,170 775,170 776,170 777,170 778,170 779,170 780,170 781,170 782,170 783,170 783,170 784,170 785,170 786,170 787,170 788,170 789,170 790,170 790,170 791,170 792,170 793,170 794,170 795,170 796,170 797,170 798,170 798,170 799,171 800,171 801,171 802,171 803,171 804,171 805,171 806,171 806,171 807,171 808,171 809,171 810,171 811,171 812,171 813,171 813,171 814,171 815,171 816,171 817,171 818,171 819,171 820,171 821,171 821,171 822,171 823,171 824,171 825,171 826,171 827,171 828,171 828,171 829,172 830,172 831,172 832,172 833,172 834,172 835,172 836,172 836,172 837,172 838,172 839,172 840,172 841,172 842,172 843,172 844,172 844,172 845,172 846,172 847,172 848,172 849,172 850,172 851,172 851,172 852,172 853,172 854,172 855,172 856,172 857,172 858,172 859,172 859,172 860,172 861,173 862,173 863,173 864,173 865,173 866,173 866,173 867,173 868,173 869,173 870,173 871,173 872,173 873,173 874,173 874,173 875,173 876,173 877,173 878,173 879,173 880,173 881,173 882,173 882,173 883,173 884,173 885,173 886,173 887,173 888,173 889,173 889,173 890,173 891,173 892,173 893,173 894,173 895,173 896,173 897,173 897,173 898,173 899,173 900,173 901,173 902,173 903,173 904,173 904,173 905,173 906,174 907,174 908,174 909,174 910,174 911,174 912,174 912,174 913,174 914,174 915,174 916,174 917,174 918,174 919,174 920,174 920,174 921,174 922,174 923,174 924,174 925,174 926,178 927,178 927,178 928,178 929,178 930,178 931,178 932,178 933,178 934,178 935,178 935,178 936,178 937,178 938,178 939,178 940,178 941,178 942,178 942,178 943,178 944,178 945,178 946,178 947,178 948,178 949,178 950,178 950,178 951,178 952,178 953,178 954,178 955,178 956,178 957,178 958,178 958,178 959,178 960,178 961,178 962,178 962,179 973,179 "/>
<polygon opacity="1" fill="#E6194B" points="78,699 79,699 80,699 81,699 82,699 83,699 83,699 84,699 85,699 86,699 87,699 88,699 89,699 90,699 91,699 91,699 92,699 93,699 94,699 95,699 96,699 97,699 98,699 98,699 99,699 100,699 101,699 102,699 103,699 104,699 105,699 106,699 106,699 107,699 108,699 109,699 110,699 111,699 112,699 113,699 114,699 114,699 115,699 116,699 117,699 118,699 119,699 120,699 121,699 121,699 122,699 123,699 124,699 125,699 126,699 127,699 128,699 129,699 129,699 130,699 131,699 132,699 133,699 134,699 135,699 136,699 136,699 137,699 138,699 139,699 140,699 141,699 142,699 143,699 144,699 144,699 145,699 146,699 147,699 148,699 149,699 150,699 151,699 152,699 152,699 153,699 154,699 155,699 156,699 157,699 158,699 159,699 159,699 160,699 161,699 162,699 163,699 164,699 165,699 166,699 167,699 167,699 168,699 169,699 170,699 171,699 172,699 173,699 174,699 174,699 175,699 176,699 177,699 178,699 179,699 180,699 181,699 182,699 182,699 183,699 184,699 185,699 186,699 187,699 188,699 189,699 190,699 190,699 191,699 192,699 193,699 194,699 195,699 196,699 197,699 197,699 198,699 199,699 200,699 201,699 202,699 203,699 204,699 205,699 205,699 206,699 207,699 208,699 209,699 210,699 211,699 212,699 212,699 213,699 214,699 215,699 216,699 217,699 218,699 219,699 220,699 220,699 221,699 222,699 223,699 224,699 225,699 226,699 227,699 228,699 228,699 229,699 230,699 231,699 232,699 233,699 234,699 235,699 235,699 236,699 237,699 238,699 239,699 240,699 241,699 242,699 243,699 243,699 244,699 245,699 246,699 247,699 248,699 249,699 250,699 250,699 251,699 252,699 253,699 254,699 255,699 256,699 257,699 258,699 258,699 259,699 260,699 261,699 262,699 263,699 264,699 265,699 266,699 266,699 267,699 268,699 269,699 270,699 271,699 272,699 273,699 273,699 274,699 275,699 276,699 277,699 278,699 279,699 280,699 281,699 281,699 282,699 283,699 284,699 285,699 286,699 287,699 288,699 288,699 289,699 290,699 291,699 292,699 293,699 294,699 295,699 296,699 296,699 297,699 298,698 299,694 300,684 301,677 302,665 303,648 304,631 304,614 305,597 306,574 307,546 308,518 309,494 310,468 311,431 311,405 312,373 313,334 314,288 315,233 316,186 317,179 317,179 318,179 319,179 319,179 320,179 321,179 322,179 323,179 324,179 325,179 326,179 326,179 327,179 328,179 329,179 330,179 331,179 332,179 333,179 334,179 334,179 335,179 336,179 337,179 338,179 339,179 340,179 341,179 342,179 342,179 343,179 344,179 345,179 346,179 347,179 348,179 349,179 349,179 350,179 351,179 352,179 353,179 354,179 355,179 356,179 357,179 357,179 358,179 359,179 360,179 361,179 362,179 363,179 364,179 365,179 365,179 366,179 367,179 368,179 369,179 370,179 371,179 372,179 372,179 373,179 374,179 375,179 376,179 377,179 378,179 379,179 380,179 380,179 381,179 382,179 383,179 384,179 385,179 386,179 387,179 387,179 388,179 389,179 390,179 391,179 392,179 393,179 394,179 395,179 395,179 396,179 397,179 398,179 399,179 400,179 401,179 402,179 403,179 403,179 404,179 405,179 406,179 407,179 408,179 409,179 410,179 410,179 411,179 412,179 413,179 414,179 415,179 416,179 417,179 418,179 418,179 419,179 420,179 421,179 422,179 423,179 424,179 425,179 425,179 426,179 427,179 428,179 429,179 430,179 431,179 432,179 433,179 433,179 434,179 435,179 436,179 437,179 438,179 439,179 440,179 441,179 441,179 442,179 443,179 444,179 445,179 446,179 447,179 448,179 448,179 449,179 450,179 451,179 452,179 453,179 454,179 455,179 456,179 456,179 457,179 458,179 459,179 460,179 461,179 462,179 463,179 463,179 464,179 465,179 466,179 467,179 468,179 469,179 470,179 471,179 471,179 472,179 473,179 474,179 475,179 476,179 477,179 478,179 479,179 479,179 480,179 481,179 482,179 483,179 484,179 485,179 486,179 486,179 487,179 488,179 489,179 490,179 491,179 492,179 493,179 494,179 494,179 495,179 496,179 497,179 498,179 499,179 500,179 501,179 501,179 502,179 503,179 504,179 505,179 506,179 507,179 508,179 509,179 509,179 510,179 511,179 512,179 513,179 514,179 515,179 516,179 517,179 517,179 518,179 519,179 520,179 521,179 522,179 523,179 524,179 524,179 525,179 526,179 527,179 528,179 529,179 530,179 531,179 532,179 532,179 533,179 534,179 535,179 536,179 537,179 538,179 539,179 539,179 540,179 541,179 542,179 543,179 544,179 545,179 546,179 547,179 547,179 548,179 549,179 550,179 551,179 552,179 553,179 554,179 555,179 555,179 556,179 557,179 558,179 559,179 560,179 561,179 562,179 562,179 563,179 564,179 565,179 566,179 567,179 568,179 569,179 570,179 570,179 571,179 572,179 573,179 574,179 575,179 576,179 577,179 577,179 578,179 579,179 580,179 581,179 582,179 583,179 584,179 585,179 585,179 586,179 587,179 588,179 589,179 590,179 591,179 592,179 593,179 593,179 594,179 595,179 596,179 597,179 598,179 599,179 600,179 600,179 601,179 602,179 603,179 604,179 605,179 606,179 607,179 608,179 608,179 609,179 610,179 611,179 612,179 613,179 614,179 615,179 615,179 616,179 617,179 618,179 619,179 620,179 621,179 622,179 623,179 623,179 624,179 625,179 626,179 627,179 628,179 629,179 630,179 631,179 631,179 632,179 633,179 634,179 635,179 636,179 637,179 638,179 638,179 639,179 640,179 641,179 642,179 643,179 644,179 645,179 646,179 646,179 647,179 648,179 649,179 650,179 651,179 652,179 653,179 653,179 654,179 655,179 656,179 657,179 658,179 659,179 660,179 661,179 661,179 662,179 663,179 664,179 665,179 666,179 667,179 668,179 669,179 669,179 670,179 671,179 672,179 673,179 674,179 675,179 676,179 676,179 677,179 678,179 679,179 680,179 681,179 682,179 683,179 684,179 684,179 685,179 686,179 687,179 688,179 689,179 690,179 691,179 692,179 692,179 693,179 694,179 695,179 696,179 697,179 698,179 699,179 699,179 700,179 701,179 702,179 703,179 704,179 705,179 706,179 707,179 707,179 708,179 709,179 710,179 711,179 712,179 713,179 714,179 714,179 715,179 716,179 717,179 718,179 719,179 720,179 721,179 722,179 722,179 723,179 724,179 725,179 726,179 727,179 728,179 729,179 730,179 730,179 731,179 732,179 733,179 734,179 735,179 736,179 737,179 737,179 738,179 739,179 740,179 741,179 742,179 743,179 744,179 745,179 745,179 746,179 747,179 748,179 749,179 750,179 751,179 752,179 752,179 753,179 754,179 755,179 756,179 757,179 758,179 759,179 760,179 760,179 761,179 762,179 763,179 764,179 765,179 766,179 767,179 768,179 768,179 769,179 770,179 771,179 772,179 773,179 774,179 775,179 775,179 776,179 777,179 778,179 779,179 780,179 781,179 782,179 783,179 783,179 784,179 785,179 786,179 787,179 788,179 789,179 790,179 790,179 791,179 792,179 793,179 794,179 795,179 796,179 797,179 798,179 798,179 799,179 800,179 801,179 802,179 803,179 804,179 805,179 806,179 806,179 807,179 808,179 809,179 810,179 811,179 812,179 813,179 813,179 814,179 815,179 816,179 817,179 818,179 819,179 820,179 821,179 821,179 822,179 823,179 824,179 825,179 826,179 827,179 828,179 828,179 829,179 830,179 831,179 832,179 833,179 834,179 835,179 836,179 836,179 837,179 838,179 839,179 840,179 841,179 842,179 843,179 844,179 844,179 845,179 846,179 847,179 848,179 849,179 850,179 851,179 851,179 852,179 853,179 854,179 855,179 856,179 857,179 858,179 859,179 859,179 860,179 861,179 862,179 863,179 864,179 865,179 866,179 866,179 867,179 868,179 869,179 870,179 871,179 872,179 873,179 874,179 874,179 875,179 876,179 877,179 878,179 879,179 880,179 881,179 882,179 882,179 883,179 884,179 885,179 886,179 887,179 888,179 889,179 889,179 890,179 891,179 892,179 893,179 894,179 895,179 896,179 897,179 897,179 898,179 899,179 900,179 901,179 902,179 903,179 904,179 904,179 905,179 906,179 907,179 908,179 909,179 910,179 911,179 912,179 912,179 913,179 914,179 915,179 916,179 917,179 918,179 919,179 920,179 920,179 921,179 922,179 923,179 924,179 925,179 926,179 927,179 927,179 928,179 929,179 930,179 931,179 932,179 933,179 934,179 935,179 935,179 936,179 937,179 938,179 939,179 940,179 941,179 942,179 942,179 943,179 944,179 945,179 946,179 947,179 948,179 949,179 950,179 950,179 951,179 952,179 953,179 954,179 955,179 956,179 957,179 958,179 958,179 959,179 960,179 961,179 962,179 962,179 973,179 973,699 78,699 "/>
<polyline fill="none" opacity="1" stroke="#E6194B" stroke-width="1" points="78,699 79,699 80,699 81,699 82,699 83,699 83,699 84,699 85,699 86,699 87,699 88,699 89,699 90,699 91,699 91,699 92,699 93,699 94,699 95,699 96,699 97,699 98,699 98,699 99,699 100,699 101,699 102,699 103,699 104,699 105,699 106,699 106,699 107,699 108,699 109,699 110,699 111,699 112,699 113,699 114,699 114,699 115,699 116,699 117,699 118,699 119,699 120,699 121,699 121,699 122,699 123,699 124,699 125,699 126,699 127,699 128,699 129,699 129,699 130,699 131,699 132,699 133,699 134,699 135,699 136,699 136,699 137,699 138,699 139,699 140,699 141,699 142,699 143,699 144,699 144,699 145,699 146,699 147,699 148,699 149,699 150,699 151,699 152,699 152,699 153,699 154,699 155,699 156,699 157,699 158,699 159,699 159,699 160,699 161,699 162,699 163,699 164,699 165,699 166,699 167,699 167,699 168,699 169,699 170,699 171,699 172,699 173,699 174,699 174,699 175,699 176,699 177,699 178,699 179,699 180,699 181,699 182,699 182,699 183,699 184,699 185,699 186,699 187,699 188,699 189,699 190,699 190,699 191,699 192,699 193,699 194,699 195,699 196,699 197,699 197,699 198,699 199,699 200,699 201,699 202,699 203,699 204,699 205,699 205,699 206,699 207,699 208,699 209,699 210,699 211,699 212,699 212,699 213,699 214,699 215,699 216,699 217,699 218,699 219,699 220,699 220,699 221,699 222,699 223,699 224,699 225,699 226,699 227,699 228,699 228,699 229,699 230,699 231,699 232,699 233,699 234,699 235,699 235,699 236,699 237,699 238,699 239,699 240,699 241,699 242,699 243,699 243,699 244,699 245,699 246,699 247,699 248,699 249,699 250,699 250,699 251,699 252,699 253,699 254,699 255,699 256,699 257,699 258,699 258,699 259,699 260,699 261,699 262,699 263,699 264,699 265,699 266,699 266,699 267,699 268,699 269,699 270,699 271,699 272,699 273,699 273,699 274,699 275,699 276,699 277,699 278,699 279,699 280,699 281,699 281,699 282,699 283,699 284,699 285,699 286,699 287,699 288,699 288,699 289,699 290,699 291,699 292,699 293,699 294,699 295,699 296,699 296,699 297,699 298,698 299,694 300,684 301,677 302,665 303,648 304,631 304,614 305,597 306,574 307,546 308,518 309,494 310,468 311,431 311,405 312,373 313,334 314,288 315,233 316,186 317,179 317,179 318,179 319,179 319,179 320,179 321,179 322,179 323,179 324,179 325,179 326,179 326,179 327,179 328,179 329,179 330,179 331,179 332,179 333,179 334,179 334,179 335,179 336,179 337,179 338,179 339,179 340,179 341,179 342,179 342,179 343,179 344,179 345,179 346,179 347,179 348,179 349,179 349,179 350,179 351,179 352,179 353,179 354,179 355,179 356,179 357,179 357,179 358,179 359,179 360,179 361,179 362,179 363,179 364,179 365,179 365,179 366,179 367,179 368,179 369,179 370,179 371,179 372,179 372,179 373,179 374,179 375,179 376,179 377,179 378,179 379,179 380,179 380,179 381,179 382,179 383,179 384,179 385,179 386,179 387,179 387,179 388,179 389,179 390,179 391,179 392,179 393,179 394,179 395,179 395,179 396,179 397,179 398,179 399,179 400,179 401,179 402,179 403,179 403,179 404,179 405,179 406,179 407,179 408,179 409,179 410,179 410,179 411,179 412,179 413,179 414,179 415,179 416,179 417,179 418,179 418,179 419,179 420,179 421,179 422,179 423,179 424,179 425,179 425,179 426,179 427,179 428,179 429,179 430,179 431,179 432,179 433,179 433,179 434,179 435,179 436,179 437,179 438,179 439,179 440,179 441,179 441,179 442,179 443,179 444,179 445,179 446,179 447,179 448,179 448,179 449,179 450,179 451,179 452,179 453,179 454,179 455,179 456,179 456,179 457,179 458,179 459,179 460,179 461,179 462,179 463,179 463,179 464,179 465,179 466,179 467,179 468,179 469,179 470,179 471,179 471,179 472,179 473,179 474,179 475,179 476,179 477,179 478,179 479,179 479,179 480,179 481,179 482,179 483,179 484,179 485,179 486,179 486,179 487,179 488,179 489,179 490,179 491,179 492,179 493,179 494,179 494,179 495,179 496,179 497,179 498,179 499,179 500,179 501,179 501,179 502,179 503,179 504,179 505,179 506,179 507,179 508,179 509,179 509,179 510,179 511,179 512,179 513,179 514,179 515,179 516,179 517,179 517,179 518,179 519,179 520,179 521,179 522,179 523,179 524,179 524,179 525,179 526,179 527,179 528,179 529,179 530,179 531,179 532,179 532,179 533,179 534,179 535,179 536,179 537,179 538,179 539,179 539,179 540,179 541,179 542,179 543,179 544,179 545,179 546,179 547,179 547,179 548,179 549,179 550,179 551,179 552,179 553,179 554,179 555,179 555,179 556,179 557,179 558,179 559,179 560,179 561,179 562,179 562,179 563,179 564,179 565,179 566,179 567,179 568,179 569,179 570,179 570,179 571,179 572,179 573,179 574,179 575,179 576,179 577,179 577,179 578,179 579,179 580,179 581,179 582,179 583,179 584,179 585,179 585,179 586,179 587,179 588,179 589,179 590,179 591,179 592,179 593,179 593,179 594,179 595,179 596,179 597,179 598,179 599,179 600,179 600,179 601,179 602,179 603,179 604,179 605,179 606,179 607,179 608,179 608,179 609,179 610,179 611,179 612,179 613,179 614,179 615,179 615,179 616,179 617,179 618,179 619,179 620,179 621,179 622,179 623,179 623,179 624,179 625,179 626,179 627,179 628,179 629,179 630,179 631,179 631,179 632,179 633,179 634,179 635,179 636,179 637,179 638,179 638,179 639,179 640,179 641,179 642,179 643,179 644,179 645,179 646,179 646,179 647,179 648,179 649,179 650,179 651,179 652,179 653,179 653,179 654,179 655,179 656,179 657,179 658,179 659,179 660,179 661,179 661,179 662,179 663,179 664,179 665,179 666,179 667,179 668,179 669,179 669,179 670,179 671,179 672,179 673,179 674,179 675,179 676,179 676,179 677,179 678,179 679,179 680,179 681,179 682,179 683,179 684,179 684,179 685,179 686,179 687,179 688,179 689,179 690,179 691,179 692,179 692,179 693,179 694,179 695,179 696,179 697,179 698,179 699,179 699,179 700,179 701,179 702,179 703,179 704,179 705,179 706,179 707,179 707,179 708,179 709,179 710,179 711,179 712,179 713,179 714,179 714,179 715,179 716,179 717,179 718,179 719,179 720,179 721,179 722,179 722,179 723,179 724,179 725,179 726,179 727,179 728,179 729,179 730,179 730,179 731,179 732,179 733,179 734,179 735,179 736,179 737,179 737,179 738,179 739,179 740,179 741,179 742,179 743,179 744,179 745,179 745,179 746,179 747,179 748,179 749,179 750,179 751,179 752,179 752,179 753,179 754,179 755,179 756,179 757,179 758,179 759,179 760,179 760,179 761,179 762,179 763,179 764,179 765,179 766,179 767,179 768,179 768,179 769,179 770,179 771,179 772,179 773,179 774,179 775,179 775,179 776,179 777,179 778,179 779,179 780,179 781,179 782,179 783,179 783,179 784,179 785,179 786,179 787,179 788,179 789,179 790,179 790,179 791,179 792,179 793,179 794,179 795,179 796,179 797,179 798,179 798,179 799,179 800,179 801,179 802,179 803,179 804,179 805,179 806,179 806,179 807,179 808,179 809,179 810,179 811,179 812,179 813,179 813,179 814,179 815,179 816,179 817,179 818,179 819,179 820,179 821,179 821,179 822,179 823,179 824,179 825,179 826,179 827,179 828,179 828,179 829,179 830,179 831,179 832,179 833,179 834,179 835,179 836,179 836,179 837,179 838,179 839,179 840,179 841,179 842,179 843,179 844,179 844,179 845,179 846,179 847,179 848,179 849,179 850,179 851,179 851,179 852,179 853,179 854,179 855,179 856,179 857,179 858,179 859,179 859,179 860,179 861,179 862,179 863,179 864,179 865,179 866,179 866,179 867,179 868,179 869,179 870,179 871,179 872,179 873,179 874,179 874,179 875,179 876,179 877,179 878,179 879,179 880,179 881,179 882,179 882,179 883,179 884,179 885,179 886,179 887,179 888,179 889,179 889,179 890,179 891,179 892,179 893,179 894,179 895,179 896,179 897,179 897,179 898,179 899,179 900,179 901,179 902,179 903,179 904,179 904,179 905,179 906,179 907,179 908,179 909,179 910,179 911,179 912,179 912,179 913,179 914,179 915,179 916,179 917,179 918,179 919,179 920,179 920,179 921,179 922,179 923,179 924,179 925,179 926,179 927,179 927,179 928,179 929,179 930,179 931,179 932,179 933,179 934,179 935,179 935,179 936,179 937,179 938,179 939,179 940,179 941,179 942,179 942,179 943,179 944,179 945,179 946,179 947,179 948,179 949,179 950,179 950,179 951,179 952,179 953,179 954,179 955,179 956,179 957,179 958,179 958,179 959,179 960,179 961,179 962,179 962,179 973,179 "/>
<line opacity="0.1" stroke="#000000" stroke-width="1" x1="85" y1="699" x2="85" y2="68"/>
<line opacity="0.1" stroke="#000000" stroke-width="1" x1="94" y1="699" x2="94" y2="68"/>
<line opacity="0.1" stroke="#000000" stroke-width="1" x1="103" y1="699" x2="103" y2="68"/>
<line opacity="0.1" stroke="#000000" stroke-width="1" x1="112" y1="699" x2="112" y2="68"/>
<line opacity="0.1" stroke="#000000" stroke-width="1" x1="121" y1="699" x2="121" y2="68"/>
<line opacity="0.1" stroke="#000000" stroke-width="1" x1="130" y1="699" x2="130" y2="68"/>
<line opacity="0.1" stroke="#000000" stroke-width="1" x1="138" y1="699" x2="138" y2="68"/>
<line opacity="0.1" stroke="#000000" stroke-width="1" x1="147" y1="699" x2="147" y2="68"/>
<line opacity="0.1" stroke="#000000" stroke-width="1" x1="156" y1="699" x2="156" y2="68"/>
<line opacity="0.1" stroke="#000000" stroke-width="1" x1="165" y1="699" x2="165" y2="68"/>
<line opacity="0.1" stroke="#000000" stroke-width="1" x1="174" y1="699" x2="174" y2="68"/>
<line opacity="0.1" stroke="#000000" stroke-width="1" x1="183" y1="699" x2="183" y2="68"/>
<line opacity="0.1" stroke="#000000" stroke-width="1" x1="191" y1="699" x2="191" y2="68"/>
<line opacity="0.1" stroke="#000000" stroke-width="1" x1="200" y1="699" x2="200" y2="68"/>
<line opacity="0.1" stroke="#000000" stroke-width="1" x1="209" y1="699" x2="209" y2="68"/>
<line opacity="0.1" stroke="#000000" stroke-width="1" x1="218" y1="699" x2="218" y2="68"/>
<line opacity="0.1" stroke="#000000" stroke-width="1" x1="227" y1="699" x2="227" y2="68"/>
<line opacity="0.1" stroke="#000000" stroke-width="1" x1="236" y1="699" x2="236" y2="68"/>
<line opacity="0.1" stroke="#000000" stroke-width="1" x1="244" y1="699" x2="244" y2="68"/>
<line opacity="0.1" stroke="#000000" stroke-width="1" x1="253" y1="699" x2="253" y2="68"/>
<line opacity="0.1" stroke="#000000" stroke-width="1" x1="262" y1="699" x2="262" y2="68"/>
<line opacity="0.1" stroke="#000000" stroke-width="1" x1="271" y1="699" x2="271" y2="68"/>
<line opacity="0.1" stroke="#000000" stroke-width="1" x1="280" y1="699" x2="280" y2="68"/>
<line opacity="0.1" stroke="#000000" stroke-width="1" x1="289" y1="699" x2="289" y2="68"/>
<line opacity="0.1" stroke="#000000" stroke-width="1" x1="298" y1="699" x2="298" y2="68"/>
<line opacity="0.1" stroke="#000000" stroke-width="1" x1="306" y1="699" x2="306" y2="68"/>
<line opacity="0.1" stroke="#000000" stroke-width="1" x1="315" y1="699" x2="315" y2="68"/>
<line opacity="0.1" stroke="#000000" stroke-width="1" x1="324" y1="699" x2="324" y2="68"/>
<line opacity="0.1" stroke="#000000" stroke-width="1" x1="333" y1="699" x2="333" y2="68"/>
<line opacity="0.1" stroke="#000000" stroke-width="1" x1="342" y1="699" x2="342" y2="68"/>
<line opacity="0.1" stroke="#000000" stroke-width="1" x1="351" y1="699" x2="351" y2="68"/>
<line opacity="0.1" stroke="#000000" stroke-width="1" x1="359" y1="699" x2="359" y2="68"/>
<line opacity="0.1" stroke="#000000" stroke-width="1" x1="368" y1="699" x2="368" y2="68"/>
<line opacity="0.1" stroke="#000000" stroke-width="1" x1="377" y1="699" x2="377" y2="68"/>
<line opacity="0.1" stroke="#000000" stroke-width="1" x1="386" y1="699" x2="386" y2="68"/>
<line opacity="0.1" stroke="#000000" stroke-width="1" x1="395" y1="699" x2="395" y2="68"/>
<line opacity="0.1" stroke="#000000" stroke-width="1" x1="404" y1="699" x2="404" y2="68"/>
<line opacity="0.1" stroke="#000000" stroke-width="1" x1="412" y1="699" x2="412" y2="68"/>
<line opacity="0.1" stroke="#000000" stroke-width="1" x1="421" y1="699" x2="421" y2="68"/>
<line opacity="0.1" stroke="#000000" stroke-width="1" x1="430" y1="699" x2="430" y2="68"/>
<line opacity="0.1" stroke="#000000" stroke-width="1" x1="439" y1="699" x2="439" y2="68"/>
<line opacity="0.1" stroke="#000000" stroke-width="1" x1="448" y1="699" x2="448" y2="68"/>
<line opacity="0.1" stroke="#000000" stroke-width="1" x1="457" y1="699" x2="457" y2="68"/>
<line opacity="0.1" stroke="#000000" stroke-width="1" x1="465" y1="699" x2="465" y2="68"/>
<line opacity="0.1" stroke="#000000" stroke-width="1" x1="474" y1="699" x2="474" y2="68"/>
<line opacity="0.1" stroke="#000000" stroke-width="1" x1="483" y1="699" x2="483" y2="68"/>
<line opacity="0.1" stroke="#000000" stroke-width="1" x1="492" y1="699" x2="492" y2="68"/>
<line opacity="0.1" stroke="#000000" stroke-width="1" x1="501" y1="699" x2="501" y2="68"/>
<line opacity="0.1" stroke="#000000" stroke-width="1" x1="510" y1="699" x2="510" y2="68"/>
<line opacity="0.1" stroke="#000000" stroke-width="1" x1="518" y1="699" x2="518" y2="68"/>
<line opacity="0.1" stroke="#000000" stroke-width="1" x1="527" y1="699" x2="527" y2="68"/>
<line opacity="0.1" stroke="#000000" stroke-width="1" x1="536" y1="699" x2="536" y2="68"/>
<line opacity="0.1" stroke="#000000" stroke-width="1" x1="545" y1="699" x2="545" y2="68"/>
<line opacity="0.1" stroke="#000000" stroke-width="1" x1="554" y1="699" x2="554" y2="68"/>
<line opacity="0.1" stroke="#000000" stroke-width="1" x1="563" y1="699" x2="563" y2="68"/>
<line opacity="0.1" stroke="#000000" stroke-width="1" x1="572" y1="699" x2="572" y2="68"/>
<line opacity="0.1" stroke="#000000" stroke-width="1" x1="580" y1="699" x2="580" y2="68"/>
<line opacity="0.1" stroke="#000000" stroke-width="1" x1="589" y1="699" x2="589" y2="68"/>
<line opacity="0.1" stroke="#000000" stroke-width="1" x1="598" y1="699" x2="598" y2="68"/>
<line opacity="0.1" stroke="#000000" stroke-width="1" x1="607" y1="699" x2="607" y2="68"/>
<line opacity="0.1" stroke="#000000" stroke-width="1" x1="616" y1="699" x2="616" y2="68"/>
<line opacity="0.1" stroke="#000000" stroke-width="1" x1="625" y1="699" x2="625" y2="68"/>
<line opacity="0.1" stroke="#000000" stroke-width="1" x1="633" y1="699" x2="633" y2="68"/>
<line opacity="0.1" stroke="#000000" stroke-width="1" x1="642" y1="699" x2="642" y2="68"/>
<line opacity="0.1" stroke="#000000" stroke-width="1" x1="651" y1="699" x2="651" y2="68"/>
<line opacity="0.1" stroke="#000000" stroke-width="1" x1="660" y1="699" x2="660" y2="68"/>
<line opacity="0.1" stroke="#000000" stroke-width="1" x1="669" y1="699" x2="669" y2="68"/>
<line opacity="0.1" stroke="#000000" stroke-width="1" x1="678" y1="699" x2="678" y2="68"/>
<line opacity="0.1" stroke="#000000" stroke-width="1" x1="686" y1="699" x2="686" y2="68"/>
<line opacity="0.1" stroke="#000000" stroke-width="1" x1="695" y1="699" x2="695" y2="68"/>
<line opacity="0.1" stroke="#000000" stroke-width="1" x1="704" y1="699" x2="704" y2="68"/>
<line opacity="0.1" stroke="#000000" stroke-width="1" x1="713" y1="699" x2="713" y2="68"/>
<line opacity="0.1" stroke="#000000" stroke-width="1" x1="722" y1="699" x2="722" y2="68"/>
<line opacity="0.1" stroke="#000000" stroke-width="1" x1="731" y1="699" x2="731" y2="68"/>
<line opacity="0.1" stroke="#000000" stroke-width="1" x1="739" y1="699" x2="739" y2="68"/>
<line opacity="0.1" stroke="#000000" stroke-width="1" x1="748" y1="699" x2="748" y2="68"/>
<line opacity="0.1" stroke="#000000" stroke-width="1" x1="757" y1="699" x2="757" y2="68"/>
<line opacity="0.1" stroke="#000000" stroke-width="1" x1="766" y1="699" x2="766" y2="68"/>
<line opacity="0.1" stroke="#000000" stroke-width="1" x1="775" y1="699" x2="775" y2="68"/>
<line opacity="0.1" stroke="#000000" stroke-width="1" x1="784" y1="699" x2="784" y2="68"/>
<line opacity="0.1" stroke="#000000" stroke-width="1" x1="792" y1="699" x2="792" y2="68"/>
<line opacity="0.1" stroke="#000000" stroke-width="1" x1="801" y1="699" x2="801" y2="68"/>
<line opacity="0.1" stroke="#000000" stroke-width="1" x1="810" y1="699" x2="810" y2="68"/>
<line opacity="0.1" stroke="#000000" stroke-width="1" x1="819" y1="699" x2="819" y2="68"/>
<line opacity="0.1" stroke="#000000" stroke-width="1" x1="828" y1="699" x2="828" y2="68"/>
<line opacity="0.1" stroke="#000000" stroke-width="1" x1="837" y1="699" x2="837" y2="68"/>
<line opacity="0.1" stroke="#000000" stroke-width="1" x1="846" y1="699" x2="846" y2="68"/>
<line opacity="0.1" stroke="#000000" stroke-width="1" x1="854" y1="699" x2="854" y2="68"/>
<line opacity="0.1" stroke="#000000" stroke-width="1" x1="863" y1="699" x2="863" y2="68"/>
<line opacity="0.1" stroke="#000000" stroke-width="1" x1="872" y1="699" x2="872" y2="68"/>
<line opacity="0.1" stroke="#000000" stroke-width="1" x1="881" y1="699" x2="881" y2="68"/>
<line opacity="0.1" stroke="#000000" stroke-width="1" x1="890" y1="699" x2="890" y2="68"/>
<line opacity="0.1" stroke="#000000" stroke-width="1" x1="899" y1="699" x2="899" y2="68"/>
<line opacity="0.1" stroke="#000000" stroke-width="1" x1="907" y1="699" x2="907" y2="68"/>
<line opacity="0.1" stroke="#000000" stroke-width="1" x1="916" y1="699" x2="916" y2="68"/>
<line opacity="0.1" stroke="#000000" stroke-width="1" x1="925" y1="699" x2="925" y2="68"/>
<line opacity="0.1" stroke="#000000" stroke-width="1" x1="934" y1="699" x2="934" y2="68"/>
<line opacity="0.1" stroke="#000000" stroke-width="1" x1="943" y1="699" x2="943" y2="68"/>
<line opacity="0.1" stroke="#000000" stroke-width="1" x1="952" y1="699" x2="952" y2="68"/>
<line opacity="0.1" stroke="#000000" stroke-width="1" x1="960" y1="699" x2="960" y2="68"/>
<line opacity="0.1" stroke="#000000" stroke-width="1" x1="969" y1="699" x2="969" y2="68"/>
<line opacity="0.1" stroke="#000000" stroke-width="1" x1="78" y1="699" x2="973" y2="699"/>
<line opacity="0.1" stroke="#000000" stroke-width="1" x1="78" y1="690" x2="973" y2="690"/>
<line opacity="0.1" stroke="#000000" stroke-width="1" x1="78" y1="682" x2="973" y2="682"/>
<line opacity="0.1" stroke="#000000" stroke-width="1" x1="78" y1="674" x2="973" y2="674"/>
<line opacity="0.1" stroke="#000000" stroke-width="1" x1="78" y1="666" x2="973" y2="666"/>
<line opacity="0.1" stroke="#000000" stroke-width="1" x1="78" y1="658" x2="973" y2="658"/>
<line opacity="0.1" stroke="#000000" stroke-width="1" x1="78" y1="650" x2="973" y2="650"/>
<line opacity="0.1" stroke="#000000" stroke-width="1" x1="78" y1="642" x2="973" y2="642"/>
<line opacity="0.1" stroke="#000000" stroke-width="1" x1="78" y1="634" x2="973" y2="634"/>
<line opacity="0.1" stroke="#000000" stroke-width="1" x1="78" y1="626" x2="973" y2="626"/>
<line opacity="0.1" stroke="#000000" stroke-width="1" x1="78" y1="617" x2="973" y2="617"/>
<line opacity="0.1" stroke="#000000" stroke-width="1" x1="78" y1="609" x2="973" y2="609"/>
<line opacity="0.1" stroke="#000000" stroke-width="1" x1="78" y1="601" x2="973" y2="601"/>
<line opacity="0.1" stroke="#000000" stroke-width="1" x1="78" y1="593" x2="973" y2="593"/>
<line opacity="0.1" stroke="#000000" stroke-width="1" x1="78" y1="585" x2="973" y2="585"/>
<line opacity="0.1" stroke="#000000" stroke-width="1" x1="78" y1="577" x2="973" y2="577"/>
<line opacity="0.1" stroke="#000000" stroke-width="1" x1="78" y1="569" x2="973" y2="569"/>
<line opacity="0.1" stroke="#000000" stroke-width="1" x1="78" y1="561" x2="973" y2="561"/>
<line opacity="0.1" stroke="#000000" stroke-width="1" x1="78" y1="553" x2="973" y2="553"/>
<line opacity="0.1" stroke="#000000" stroke-width="1" x1="78" y1="544" x2="973" y2="544"/>
<line opacity="0.1" stroke="#000000" stroke-width="1" x1="78" y1="536" x2="973" y2="536"/>
<line opacity="0.1" stroke="#000000" stroke-width="1" x1="78" y1="528" x2="973" y2="528"/>
<line opacity="0.1" stroke="#000000" stroke-width="1" x1="78" y1="520" x2="973" y2="520"/>
<line opacity="0.1" stroke="#000000" stroke-width="1" x1="78" y1="512" x2="973" y2="512"/>
<line opacity="0.1" stroke="#000000" stroke-width="1" x1="78" y1="504" x2="973" y2="504"/>
<line opacity="0.1" stroke="#000000" stroke-width="1" x1="78" y1="496" x2="973" y2="496"/>
<line opacity="0.1" stroke="#000000" stroke-width="1" x1="78" y1="488" x2="973" y2="488"/>
<line opacity="0.1" stroke="#000000" stroke-width="1" x1="78" y1="480" x2="973" y2="480"/>
<line opacity="0.1" stroke="#000000" stroke-width="1" x1="78" y1="471" x2="973" y2="471"/>
<line opacity="0.1" stroke="#000000" stroke-width="1" x1="78" y1="463" x2="973" y2="463"/>
<line opacity="0.1" stroke="#000000" stroke-width="1" x1="78" y1="455" x2="973" y2="455"/>
<line opacity="0.1" stroke="#000000" stroke-width="1" x1="78" y1="447" x2="973" y2="447"/>
<line opacity="0.1" stroke="#000000" stroke-width="1" x1="78" y1="439" x2="973" y2="439"/>
<line opacity="0.1" stroke="#000000" stroke-width="1" x1="78" y1="431" x2="973" y2="431"/>
<line opacity="0.1" stroke="#000000" stroke-width="1" x1="78" y1="423" x2="973" y2="423"/>
<line opacity="0.1" stroke="#000000" stroke-width="1" x1="78" y1="415" x2="973" y2="415"/>
<line opacity="0.1" stroke="#000000" stroke-width="1" x1="78" y1="407" x2="973" y2="407"/>
<line opacity="0.1" stroke="#000000" stroke-width="1" x1="78" y1="398" x2="973" y2="398"/>
<line opacity="0.1" stroke="#000000" stroke-width="1" x1="78" y1="390" x2="973" y2="390"/>
<line opacity="0.1" stroke="#000000" stroke-width="1" x1="78" y1="382" x2="973" y2="382"/>
<line opacity="0.1" stroke="#000000" stroke-width="1" x1="78" y1="374" x2="973" y2="374"/>
<line opacity="0.1" stroke="#000000" stroke-width="1" x1="78" y1="366" x2="973" y2="366"/>
<line opacity="0.1" stroke="#000000" stroke-width="1" x1="78" y1="358" x2="973" y2="358"/>
<line opacity="0.1" stroke="#000000" stroke-width="1" x1="78" y1="350" x2="973" y2="350"/>
<line opacity="0.1" stroke="#000000" stroke-width="1" x1="78" y1="342" x2="973" y2="342"/>
<line opacity="0.1" stroke="#000000" stroke-width="1" x1="78" y1="334" x2="973" y2="334"/>
<line opacity="0.1" stroke="#000000" stroke-width="1" x1="78" y1="325" x2="973" y2="325"/>
<line opacity="0.1" stroke="#000000" stroke-width="1" x1="78" y1="317" x2="973" y2="317"/>
<line opacity="0.1" stroke="#000000" stroke-width="1" x1="78" y1="309" x2="973" y2="309"/>
<line opacity="0.1" stroke="#000000" stroke-width="1" x1="78" y1="301" x2="973" y2="301"/>
<line opacity="0.1" stroke="#000000" stroke-width="1" x1="78" y1="293" x2="973" y2="293"/>
<line opacity="0.1" stroke="#000000" stroke-width="1" x1="78" y1="285" x2="973" y2="285"/>
<line opacity="0.1" stroke="#000000" stroke-width="1" x1="78" y1="277" x2="973" y2="277"/>
<line opacity="0.1" stroke="#000000" stroke-width="1" x1="78" y1="269" x2="973" y2="269"/>
<line opacity="0.1" stroke="#000000" stroke-width="1" x1="78" y1="261" x2="973" y2="261"/>
<line opacity="0.1" stroke="#000000" stroke-width="1" x1="78" y1="252" x2="973" y2="252"/>
<line opacity="0.1" stroke="#000000" stroke-width="1" x1="78" y1="244" x2="973" y2="244"/>
<line opacity="0.1" stroke="#000000" stroke-width="1" x1="78" y1="236" x2="973" y2="236"/>
<line opacity="0.1" stroke="#000000" stroke-width="1" x1="78" y1="228" x2="973" y2="228"/>
<line opacity="0.1" stroke="#000000" stroke-width="1" x1="78" y1="220" x2="973" y2="220"/>
<line opacity="0.1" stroke="#000000" stroke-width="1" x1="78" y1="212" x2="973" y2="212"/>
<line opacity="0.1" stroke="#000000" stroke-width="1" x1="78" y1="204" x2="973" y2="204"/>
<line opacity="0.1" stroke="#000000" stroke-width="1" x1="78" y1="196" x2="973" y2="196"/>
<line opacity="0.1" stroke="#000000" stroke-width="1" x1="78" y1="188" x2="973" y2="188"/>
<line opacity="0.1" stroke="#000000" stroke-width="1" x1="78" y1="179" x2="973" y2="179"/>
<line opacity="0.1" stroke="#000000" stroke-width="1" x1="78" y1="171" x2="973" y2="171"/>
<line opacity="0.1" stroke="#000000" stroke-width="1" x1="78" y1="163" x2="973" y2="163"/>
<line opacity="0.1" stroke="#000000" stroke-width="1" x1="78" y1="155" x2="973" y2="155"/>
<line opacity="0.1" stroke="#000000" stroke-width="1" x1="78" y1="147" x2="973" y2="147"/>
<line opacity="0.1" stroke="#000000" stroke-width="1" x1="78" y1="139" x2="973" y2="139"/>
<line opacity="0.1" stroke="#000000" stroke-width="1" x1="78" y1="131" x2="973" y2="131"/>
<line opacity="0.1" stroke="#000000" stroke-width="1" x1="78" y1="123" x2="973" y2="123"/>
<line opacity="0.1" stroke="#000000" stroke-width="1" x1="78" y1="115" x2="973" y2="115"/>
<line opacity="0.1" stroke="#000000" stroke-width="1" x1="78" y1="106" x2="973" y2="106"/>
<line opacity="0.1" stroke="#000000" stroke-width="1" x1="78" y1="98" x2="973" y2="98"/>
<line opacity="0.1" stroke="#000000" stroke-width="1" x1="78" y1="90" x2="973" y2="90"/>
<line opacity="0.1" stroke="#000000" stroke-width="1" x1="78" y1="82" x2="973" y2="82"/>
<line opacity="0.1" stroke="#000000" stroke-width="1" x1="78" y1="74" x2="973" y2="74"/>
<text x="8" y="384" dy="0.76em" text-anchor="middle" font-family="sans-serif" font-size="9.67741935483871" opacity="1" fill="#000000" transform="rotate(270, 8, 384)">
Memory usage
</text>
<text x="526" y="760" dy="-0.5ex" text-anchor="middle" font-family="sans-serif" font-size="9.67741935483871" opacity="1" fill="#000000">
Time
</text>
<line opacity="0.2" stroke="#000000" stroke-width="1" x1="130" y1="699" x2="130" y2="68"/>
<line opacity="0.2" stroke="#000000" stroke-width="1" x1="306" y1="699" x2="306" y2="68"/>
<line opacity="0.2" stroke="#000000" stroke-width="1" x1="483" y1="699" x2="483" y2="68"/>
<line opacity="0.2" stroke="#000000" stroke-width="1" x1="660" y1="699" x2="660" y2="68"/>
<line opacity="0.2" stroke="#000000" stroke-width="1" x1="837" y1="699" x2="837" y2="68"/>
<line opacity="0.2" stroke="#000000" stroke-width="1" x1="78" y1="699" x2="973" y2="699"/>
<line opacity="0.2" stroke="#000000" stroke-width="1" x1="78" y1="617" x2="973" y2="617"/>
<line opacity="0.2" stroke="#000000" stroke-width="1" x1="78" y1="536" x2="973" y2="536"/>
<line opacity="0.2" stroke="#000000" stroke-width="1" x1="78" y1="455" x2="973" y2="455"/>
<line opacity="0.2" stroke="#000000" stroke-width="1" x1="78" y1="374" x2="973" y2="374"/>
<line opacity="0.2" stroke="#000000" stroke-width="1" x1="78" y1="293" x2="973" y2="293"/>
<line opacity="0.2" stroke="#000000" stroke-width="1" x1="78" y1="212" x2="973" y2="212"/>
<line opacity="0.2" stroke="#000000" stroke-width="1" x1="78" y1="131" x2="973" y2="131"/>
<polyline fill="none" opacity="1" stroke="#000000" stroke-width="1" points="77,68 77,699 "/>
<text x="68" y="699" dy="0.5ex" text-anchor="end" font-family="sans-serif" font-size="9.67741935483871" opacity="1" fill="#000000">
0 MB
</text>
<polyline fill="none" opacity="1" stroke="#000000" stroke-width="1" points="72,699 77,699 "/>
<text x="68" y="617" dy="0.5ex" text-anchor="end" font-family="sans-serif" font-size="9.67741935483871" opacity="1" fill="#000000">
19 MB
</text>
<polyline fill="none" opacity="1" stroke="#000000" stroke-width="1" points="72,617 77,617 "/>
<text x="68" y="536" dy="0.5ex" text-anchor="end" font-family="sans-serif" font-size="9.67741935483871" opacity="1" fill="#000000">
38 MB
</text>
<polyline fill="none" opacity="1" stroke="#000000" stroke-width="1" points="72,536 77,536 "/>
<text x="68" y="455" dy="0.5ex" text-anchor="end" font-family="sans-serif" font-size="9.67741935483871" opacity="1" fill="#000000">
57 MB
</text>
<polyline fill="none" opacity="1" stroke="#000000" stroke-width="1" points="72,455 77,455 "/>
<text x="68" y="374" dy="0.5ex" text-anchor="end" font-family="sans-serif" font-size="9.67741935483871" opacity="1" fill="#000000">
76 MB
</text>
<polyline fill="none" opacity="1" stroke="#000000" stroke-width="1" points="72,374 77,374 "/>
<text x="68" y="293" dy="0.5ex" text-anchor="end" font-family="sans-serif" font-size="9.67741935483871" opacity="1" fill="#000000">
95 MB
</text>
<polyline fill="none" opacity="1" stroke="#000000" stroke-width="1" points="72,293 77,293 "/>
<text x="68" y="212" dy="0.5ex" text-anchor="end" font-family="sans-serif" font-size="9.67741935483871" opacity="1" fill="#000000">
114 MB
</text>
<polyline fill="none" opacity="1" stroke="#000000" stroke-width="1" points="72,212 77,212 "/>
<text x="68" y="131" dy="0.5ex" text-anchor="end" font-family="sans-serif" font-size="9.67741935483871" opacity="1" fill="#000000">
133 MB
</text>
<polyline fill="none" opacity="1" stroke="#000000" stroke-width="1" points="72,131 77,131 "/>
<polyline fill="none" opacity="1" stroke="#000000" stroke-width="1" points="78,700 973,700 "/>
<text x="130" y="710" dy="0.76em" text-anchor="middle" font-family="sans-serif" font-size="9.67741935483871" opacity="1" fill="#000000">
07 17:46:40
</text>
<polyline fill="none" opacity="1" stroke="#000000" stroke-width="1" points="130,700 130,705 "/>
<text x="306" y="710" dy="0.76em" text-anchor="middle" font-family="sans-serif" font-size="9.67741935483871" opacity="1" fill="#000000">
07 20:33:20
</text>
<polyline fill="none" opacity="1" stroke="#000000" stroke-width="1" points="306,700 306,705 "/>
<text x="483" y="710" dy="0.76em" text-anchor="middle" font-family="sans-serif" font-size="9.67741935483871" opacity="1" fill="#000000">
07 23:20:00
</text>
<polyline fill="none" opacity="1" stroke="#000000" stroke-width="1" points="483,700 483,705 "/>
<text x="660" y="710" dy="0.76em" text-anchor="middle" font-family="sans-serif" font-size="9.67741935483871" opacity="1" fill="#000000">
08 02:06:40
</text>
<polyline fill="none" opacity="1" stroke="#000000" stroke-width="1" points="660,700 660,705 "/>
<text x="837" y="710" dy="0.76em" text-anchor="middle" font-family="sans-serif" font-size="9.67741935483871" opacity="1" fill="#000000">
08 04:53:20
</text>
<polyline fill="none" opacity="1" stroke="#000000" stroke-width="1" points="837,700 837,705 "/>
<polyline fill="none" opacity="1" stroke="#000000" stroke-width="1" points="78,67 974,67 "/>
<text x="130" y="58" dy="-0.5ex" text-anchor="middle" font-family="sans-serif" font-size="9.67741935483871" opacity="1" fill="#000000">
+00:49:04
</text>
<polyline fill="none" opacity="1" stroke="#000000" stroke-width="1" points="130,62 130,67 "/>
<text x="307" y="58" dy="-0.5ex" text-anchor="middle" font-family="sans-serif" font-size="9.67741935483871" opacity="1" fill="#000000">
+03:35:44
</text>
<polyline fill="none" opacity="1" stroke="#000000" stroke-width="1" points="307,62 307,67 "/>
<text x="484" y="58" dy="-0.5ex" text-anchor="middle" font-family="sans-serif" font-size="9.67741935483871" opacity="1" fill="#000000">
+06:22:24
</text>
<polyline fill="none" opacity="1" stroke="#000000" stroke-width="1" points="484,62 484,67 "/>
<text x="661" y="58" dy="-0.5ex" text-anchor="middle" font-family="sans-serif" font-size="9.67741935483871" opacity="1" fill="#000000">
+09:09:04
</text>
<polyline fill="none" opacity="1" stroke="#000000" stroke-width="1" points="661,62 661,67 "/>
<text x="838" y="58" dy="-0.5ex" text-anchor="middle" font-family="sans-serif" font-size="9.67741935483871" opacity="1" fill="#000000">
+11:55:44
</text>
<polyline fill="none" opacity="1" stroke="#000000" stroke-width="1" points="838,62 838,67 "/>
<rect x="83" y="73" width="99" height="45" opacity="0.75" fill="#FFFFFF" stroke="none"/>
<rect x="83" y="73" width="99" height="45" opacity="1" fill="none" stroke="#000000"/>
<text x="123" y="83" dy="0.76em" text-anchor="start" font-family="sans-serif" font-size="9.67741935483871" opacity="1" fill="#000000">
Temporary
</text>
<text x="123" y="98" dy="0.76em" text-anchor="start" font-family="sans-serif" font-size="9.67741935483871" opacity="1" fill="#000000">
Leaked
</text>
<rect x="93" y="83" width="10" height="10" opacity="1" fill="#3CB44B" stroke="none"/>
<rect x="93" y="98" width="10" height="10" opacity="1" fill="#E6194B" stroke="none"/>
</svg>
