<svg width="1024" height="768" viewBox="0 0 1024 768" xmlns="http://www.w3.org/2000/svg">
<rect x="0" y="0" width="1024" height="768" opacity="1" fill="#FFFFFF" stroke="none"/>
<polygon opacity="1" fill="#3CB44B" points="973,699 973,699 973,699 "/>
<polyline fill="none" opacity="1" stroke="#3CB44B" stroke-width="1" points="973,699 "/>
<polygon opacity="1" fill="#E6194B" points="78,698 78,697 79,696 80,696 81,695 82,694 83,694 84,693 85,692 86,692 87,691 87,690 88,690 89,689 90,689 91,688 92,688 93,687 94,686 95,686 95,685 96,685 97,684 98,684 99,683 100,682 101,682 102,681 103,680 104,680 104,679 105,678 106,678 107,677 108,677 109,676 110,675 111,675 112,674 112,673 113,672 114,672 115,671 116,671 117,670 118,670 119,669 120,668 120,668 121,667 122,666 123,666 124,665 125,665 126,664 127,663 128,663 129,662 129,661 130,661 131,660 132,660 133,659 134,658 135,658 136,657 137,656 137,656 138,655 139,654 140,654 141,653 142,652 143,652 144,651 145,650 146,650 146,649 147,649 148,648 149,648 150,647 151,646 152,646 153,645 154,644 154,644 155,643 156,642 157,642 158,641 159,641 160,640 161,639 162,639 162,638 163,637 164,637 165,636 166,635 167,635 168,634 169,634 170,633 171,632 171,632 172,631 173,630 174,630 175,629 176,629 177,628 178,627 179,626 179,626 180,626 181,625 182,624 183,624 184,623 185,622 186,622 187,621 188,620 188,620 189,619 190,618 191,618 192,617 193,617 194,616 195,615 196,615 196,614 197,613 198,613 199,612 200,611 201,611 202,610 203,610 204,609 204,609 205,608 206,607 207,607 208,606 209,606 210,605 211,604 212,604 213,603 213,603 214,602 215,601 216,601 217,600 218,600 219,599 220,599 221,598 221,597 222,597 223,596 224,596 225,595 226,594 227,594 228,593 229,593 230,592 230,591 231,591 232,590 233,590 234,589 235,588 236,588 237,587 238,586 238,586 239,585 240,585 241,584 242,583 243,583 244,582 245,582 246,581 246,580 247,580 248,579 249,579 250,578 251,578 252,577 253,577 254,576 255,575 255,574 256,574 257,573 258,572 259,572 260,571 261,570 262,570 263,569 263,569 264,568 265,568 266,567 267,566 268,566 269,565 270,564 271,564 272,563 272,562 273,562 274,561 275,560 276,560 277,559 278,559 279,558 280,557 280,556 281,556 282,555 283,554 284,554 285,553 286,553 287,552 288,552 288,551 289,550 290,550 291,549 292,548 293,548 294,547 295,546 296,546 297,545 297,544 298,544 299,543 300,542 301,542 302,541 303,540 304,539 305,539 305,538 306,538 307,538 308,537 309,536 310,535 311,535 312,534 313,534 314,533 314,532 315,531 316,531 317,530 318,529 319,529 320,528 321,527 322,527 322,526 323,526 324,525 325,524 326,524 327,523 328,523 329,522 330,522 330,521 331,520 332,520 333,519 334,518 335,518 336,517 337,516 338,515 339,515 339,514 340,513 341,513 342,512 343,512 344,511 345,510 346,510 347,509 347,508 348,508 349,507 350,507 351,506 352,505 353,505 354,504 355,503 356,503 356,502 357,501 358,500 359,500 360,499 361,499 362,498 363,497 364,497 364,496 365,496 366,495 367,494 368,494 369,493 370,493 371,492 372,492 372,491 373,490 374,489 375,489 376,488 377,488 378,487 379,486 380,485 381,485 381,484 382,483 383,483 384,482 385,481 386,481 387,480 388,479 389,479 389,478 390,478 391,477 392,477 393,476 394,476 395,475 396,474 397,474 398,473 398,473 399,472 400,471 401,471 402,470 403,469 404,469 405,468 406,467 406,467 407,466 408,465 409,464 410,464 411,463 412,463 413,462 414,462 414,461 415,461 416,460 417,460 418,459 419,458 420,458 421,457 422,456 423,455 423,455 424,454 425,453 426,453 427,452 428,452 429,451 430,450 431,450 431,449 432,448 433,448 434,448 435,447 436,446 437,446 438,445 439,445 440,444 440,443 441,443 442,442 443,441 444,441 445,440 446,439 447,439 448,438 448,437 449,437 450,436 451,435 452,434 453,434 454,433 455,433 456,433 456,432 457,431 458,431 459,431 460,430 461,429 462,428 463,428 464,427 465,426 465,426 466,425 467,424 468,424 469,423 470,422 471,422 472,421 473,420 473,419 474,419 475,418 476,417 477,417 478,417 479,416 480,415 481,415 482,414 482,413 483,413 484,412 485,412 486,411 487,411 488,410 489,409 490,409 490,408 491,407 492,407 493,406 494,405 495,404 496,404 497,403 498,403 498,402 499,402 500,401 501,400 502,400 503,399 504,398 505,398 506,397 507,397 507,396 508,395 509,395 510,394 511,393 512,392 513,392 514,391 515,390 515,390 516,389 517,388 518,388 519,387 520,387 521,386 522,386 523,385 524,384 524,384 525,383 526,382 527,382 528,381 529,380 530,379 531,379 532,379 532,378 533,378 534,377 535,376 536,375 537,375 538,374 539,373 540,373 540,372 541,372 542,371 543,370 544,370 545,369 546,368 547,368 548,367 549,366 549,366 550,365 551,364 552,364 553,363 554,363 555,362 556,361 557,361 557,360 558,359 559,359 560,358 561,358 562,357 563,357 564,356 565,355 566,355 566,354 567,353 568,353 569,352 570,351 571,351 572,350 573,349 574,349 574,348 575,348 576,347 577,347 578,346 579,345 580,345 581,344 582,343 582,343 583,342 584,342 585,341 586,340 587,340 588,339 589,338 590,338 591,337 591,336 592,336 593,335 594,335 595,334 596,333 597,333 598,332 599,332 599,331 600,330 601,330 602,329 603,329 604,328 605,328 606,327 607,326 608,326 608,325 609,324 610,323 611,323 612,322 613,321 614,321 615,320 616,320 616,319 617,319 618,318 619,317 620,317 621,316 622,315 623,314 624,314 624,313 625,313 626,312 627,312 628,311 629,310 630,310 631,309 632,308 633,308 633,307 634,306 635,306 636,305 637,304 638,304 639,304 640,303 641,302 641,302 642,301 643,300 644,300 645,299 646,298 647,298 648,297 649,297 650,296 650,295 651,295 652,294 653,293 654,293 655,292 656,291 657,291 658,290 658,289 659,289 660,288 661,288 662,287 663,287 664,286 665,285 666,285 666,284 667,283 668,283 669,282 670,282 671,281 672,280 673,279 674,279 675,278 675,278 676,277 677,277 678,276 679,275 680,275 681,274 682,273 683,273 683,272 684,271 685,271 686,270 687,269 688,268 689,268 690,267 691,267 692,266 692,266 693,265 694,264 695,264 696,263 697,263 698,262 699,261 700,261 700,260 701,259 702,259 703,258 704,257 705,256 706,256 707,255 708,255 708,254 709,253 710,253 711,252 712,252 713,251 714,250 715,249 716,249 717,248 717,247 718,247 719,247 720,246 721,245 722,245 723,244 724,243 725,242 725,242 726,241 727,241 728,240 729,239 730,239 731,238 732,238 733,237 734,236 734,236 735,235 736,234 737,234 738,233 739,232 740,232 741,231 742,231 742,230 743,229 744,229 745,228 746,227 747,227 748,226 749,225 750,225 750,224 751,223 752,223 753,222 754,222 755,221 756,220 757,220 758,219 759,218 759,218 760,217 761,216 762,216 763,215 764,214 765,214 766,213 767,212 767,212 768,211 769,211 770,210 771,209 772,208 773,208 774,207 775,207 776,206 776,206 777,205 778,204 779,204 780,203 781,202 782,202 783,201 784,200 784,200 785,199 786,198 787,198 788,197 789,196 790,196 791,195 792,194 792,194 793,193 794,193 795,192 796,192 797,191 798,190 799,189 800,189 801,188 801,187 802,187 803,186 804,185 805,185 806,184 807,184 808,183 809,182 809,182 810,181 811,180 812,180 813,179 814,178 815,178 816,177 817,177 818,176 818,175 819,175 820,174 821,173 822,173 823,172 824,171 825,170 826,170 826,169 827,168 828,168 829,167 830,166 831,165 832,165 833,164 834,163 834,163 835,162 836,161 837,161 838,161 839,160 840,159 841,159 842,158 843,157 843,157 844,156 845,156 846,155 847,155 848,154 849,153 850,153 851,152 851,152 852,151 853,150 854,150 855,149 856,148 857,148 858,147 859,147 860,146 860,145 861,145 862,144 863,143 864,143 865,142 866,142 867,141 868,141 868,140 869,139 870,139 871,138 872,138 873,137 874,136 875,136 876,135 876,134 877,134 878,133 879,132 880,132 881,131 882,131 883,130 884,129 885,129 885,128 886,127 887,127 888,126 889,125 890,125 891,124 892,123 893,123 893,122 894,121 895,121 896,120 897,120 898,119 899,118 900,118 901,117 902,117 902,116 903,115 904,114 905,114 906,113 907,112 908,112 909,111 910,110 910,110 911,109 912,108 913,108 914,107 915,106 916,106 917,105 918,104 918,104 919,104 920,103 921,102 922,102 923,101 924,100 925,100 926,99 927,98 927,98 928,97 929,96 930,96 931,95 932,94 933,94 934,93 935,92 935,92 936,91 937,90 938,90 939,89 940,89 941,88 942,87 943,87 944,86 944,86 945,85 946,84 947,84 948,83 949,82 950,82 951,81 952,80 952,80 953,79 954,78 955,78 956,77 957,76 958,76 959,75 960,75 960,74 961,74 962,73 963,72 964,71 965,71 966,70 967,70 968,69 969,69 969,68 970,68 971,68 971,68 973,68 973,699 78,699 "/>
<polyline fill="none" opacity="1" stroke="#E6194B" stroke-width="1" points="78,698 78,697 79,696 80,696 81,695 82,694 83,694 84,693 85,692 86,692 87,691 87,690 88,690 89,689 90,689 91,688 92,688 93,687 94,686 95,686 95,685 96,685 97,684 98,684 99,683 100,682 101,682 102,681 103,680 104,680 104,679 105,678 106,678 107,677 108,677 109,676 110,675 111,675 112,674 112,673 113,672 114,672 115,671 116,671 117,670 118,670 119,669 120,668 120,668 121,667 122,666 123,666 124,665 125,665 126,664 127,663 128,663 129,662 129,661 130,661 131,660 132,660 133,659 134,658 135,658 136,657 137,656 137,656 138,655 139,654 140,654 141,653 142,652 143,652 144,651 145,650 146,650 146,649 147,649 148,648 149,648 150,647 151,646 152,646 153,645 154,644 154,644 155,643 156,642 157,642 158,641 159,641 160,640 161,639 162,639 162,638 163,637 164,637 165,636 166,635 167,635 168,634 169,634 170,633 171,632 171,632 172,631 173,630 174,630 175,629 176,629 177,628 178,627 179,626 179,626 180,626 181,625 182,624 183,624 184,623 185,622 186,622 187,621 188,620 188,620 189,619 190,618 191,618 192,617 193,617 194,616 195,615 196,615 196,614 197,613 198,613 199,612 200,611 201,611 202,610 203,610 204,609 204,609 205,608 206,607 207,607 208,606 209,606 210,605 211,604 212,604 213,603 213,603 214,602 215,601 216,601 217,600 218,600 219,599 220,599 221,598 221,597 222,597 223,596 224,596 225,595 226,594 227,594 228,593 229,593 230,592 230,591 231,591 232,590 233,590 234,589 235,588 236,588 237,587 238,586 238,586 239,585 240,585 241,584 242,583 243,583 244,582 245,582 246,581 246,580 247,580 248,579 249,579 250,578 251,578 252,577 253,577 254,576 255,575 255,574 256,574 257,573 258,572 259,572 260,571 261,570 262,570 263,569 263,569 264,568 265,568 266,567 267,566 268,566 269,565 270,564 271,564 272,563 272,562 273,562 274,561 275,560 276,560 277,559 278,559 279,558 280,557 280,556 281,556 282,555 283,554 284,554 285,553 286,553 287,552 288,552 288,551 289,550 290,550 291,549 292,548 293,548 294,547 295,546 296,546 297,545 297,544 298,544 299,543 300,542 301,542 302,541 303,540 304,539 305,539 305,538 306,538 307,538 308,537 309,536 310,535 311,535 312,534 313,534 314,533 314,532 315,531 316,531 317,530 318,529 319,529 320,528 321,527 322,527 322,526 323,526 324,525 325,524 326,524 327,523 328,523 329,522 330,522 330,521 331,520 332,520 333,519 334,518 335,518 336,517 337,516 338,515 339,515 339,514 340,513 341,513 342,512 343,512 344,511 345,510 346,510 347,509 347,508 348,508 349,507 350,507 351,506 352,505 353,505 354,504 355,503 356,503 356,502 357,501 358,500 359,500 360,499 361,499 362,498 363,497 364,497 364,496 365,496 366,495 367,494 368,494 369,493 370,493 371,492 372,492 372,491 373,490 374,489 375,489 376,488 377,488 378,487 379,486 380,485 381,485 381,484 382,483 383,483 384,482 385,481 386,481 387,480 388,479 389,479 389,478 390,478 391,477 392,477 393,476 394,476 395,475 396,474 397,474 398,473 398,473 399,472 400,471 401,471 402,470 403,469 404,469 405,468 406,467 406,467 407,466 408,465 409,464 410,464 411,463 412,463 413,462 414,462 414,461 415,461 416,460 417,460 418,459 419,458 420,458 421,457 422,456 423,455 423,455 424,454 425,453 426,453 427,452 428,452 429,451 430,450 431,450 431,449 432,448 433,448 434,448 435,447 436,446 437,446 438,445 439,445 440,444 440,443 441,443 442,442 443,441 444,441 445,440 446,439 447,439 448,438 448,437 449,437 450,436 451,435 452,434 453,434 454,433 455,433 456,433 456,432 457,431 458,431 459,431 460,430 461,429 462,428 463,428 464,427 465,426 465,426 466,425 467,424 468,424 469,423 470,422 471,422 472,421 473,420 473,419 474,419 475,418 476,417 477,417 478,417 479,416 480,415 481,415 482,414 482,413 483,413 484,412 485,412 486,411 487,411 488,410 489,409 490,409 490,408 491,407 492,407 493,406 494,405 495,404 496,404 497,403 498,403 498,402 499,402 500,401 501,400 502,400 503,399 504,398 505,398 506,397 507,397 507,396 508,395 509,395 510,394 511,393 512,392 513,392 514,391 515,390 515,390 516,389 517,388 518,388 519,387 520,387 521,386 522,386 523,385 524,384 524,384 525,383 526,382 527,382 528,381 529,380 530,379 531,379 532,379 532,378 533,378 534,377 535,376 536,375 537,375 538,374 539,373 540,373 540,372 541,372 542,371 543,370 544,370 545,369 546,368 547,368 548,367 549,366 549,366 550,365 551,364 552,364 553,363 554,363 555,362 556,361 557,361 557,360 558,359 559,359 560,358 561,358 562,357 563,357 564,356 565,355 566,355 566,354 567,353 568,353 569,352 570,351 571,351 572,350 573,349 574,349 574,348 575,348 576,347 577,347 578,346 579,345 580,345 581,344 582,343 582,343 583,342 584,342 585,341 586,340 587,340 588,339 589,338 590,338 591,337 591,336 592,336 593,335 594,335 595,334 596,333 597,333 598,332 599,332 599,331 600,330 601,330 602,329 603,329 604,328 605,328 606,327 607,326 608,326 608,325 609,324 610,323 611,323 612,322 613,321 614,321 615,320 616,320 616,319 617,319 618,318 619,317 620,317 621,316 622,315 623,314 624,314 624,313 625,313 626,312 627,312 628,311 629,310 630,310 631,309 632,308 633,308 633,307 634,306 635,306 636,305 637,304 638,304 639,304 640,303 641,302 641,302 642,301 643,300 644,300 645,299 646,298 647,298 648,297 649,297 650,296 650,295 651,295 652,294 653,293 654,293 655,292 656,291 657,291 658,290 658,289 659,289 660,288 661,288 662,287 663,287 664,286 665,285 666,285 666,284 667,283 668,283 669,282 670,282 671,281 672,280 673,279 674,279 675,278 675,278 676,277 677,277 678,276 679,275 680,275 681,274 682,273 683,273 683,272 684,271 685,271 686,270 687,269 688,268 689,268 690,267 691,267 692,266 692,266 693,265 694,264 695,264 696,263 697,263 698,262 699,261 700,261 700,260 701,259 702,259 703,258 704,257 705,256 706,256 707,255 708,255 708,254 709,253 710,253 711,252 712,252 713,251 714,250 715,249 716,249 717,248 717,247 718,247 719,247 720,246 721,245 722,245 723,244 724,243 725,242 725,242 726,241 727,241 728,240 729,239 730,239 731,238 732,238 733,237 734,236 734,236 735,235 736,234 737,234 738,233 739,232 740,232 741,231 742,231 742,230 743,229 744,229 745,228 746,227 747,227 748,226 749,225 750,225 750,224 751,223 752,223 753,222 754,222 755,221 756,220 757,220 758,219 759,218 759,218 760,217 761,216 762,216 763,215 764,214 765,214 766,213 767,212 767,212 768,211 769,211 770,210 771,209 772,208 773,208 774,207 775,207 776,206 776,206 777,205 778,204 779,204 780,203 781,202 782,202 783,201 784,200 784,200 785,199 786,198 787,198 788,197 789,196 790,196 791,195 792,194 792,194 793,193 794,193 795,192 796,192 797,191 798,190 799,189 800,189 801,188 801,187 802,187 803,186 804,185 805,185 806,184 807,184 808,183 809,182 809,182 810,181 811,180 812,180 813,179 814,178 815,178 816,177 817,177 818,176 818,175 819,175 820,174 821,173 822,173 823,172 824,171 825,170 826,170 826,169 827,168 828,168 829,167 830,166 831,165 832,165 833,164 834,163 834,163 835,162 836,161 837,161 838,161 839,160 840,159 841,159 842,158 843,157 843,157 844,156 845,156 846,155 847,155 848,154 849,153 850,153 851,152 851,152 852,151 853,150 854,150 855,149 856,148 857,148 858,147 859,147 860,146 860,145 861,145 862,144 863,143 864,143 865,142 866,142 867,141 868,141 868,140 869,139 870,139 871,138 872,138 873,137 874,136 875,136 876,135 876,134 877,134 878,133 879,132 880,132 881,131 882,131 883,130 884,129 885,129 885,128 886,127 887,127 888,126 889,125 890,125 891,124 892,123 893,123 893,122 894,121 895,121 896,120 897,120 898,119 899,118 900,118 901,117 902,117 902,116 903,115 904,114 905,114 906,113 907,112 908,112 909,111 910,110 910,110 911,109 912,108 913,108 914,107 915,106 916,106 917,105 918,104 918,104 919,104 920,103 921,102 922,102 923,101 924,100 925,100 926,99 927,98 927,98 928,97 929,96 930,96 931,95 932,94 933,94 934,93 935,92 935,92 936,91 937,90 938,90 939,89 940,89 941,88 942,87 943,87 944,86 944,86 945,85 946,84 947,84 948,83 949,82 950,82 951,81 952,80 952,80 953,79 954,78 955,78 956,77 957,76 958,76 959,75 960,75 960,74 961,74 962,73 963,72 964,71 965,71 966,70 967,70 968,69 969,69 969,68 970,68 971,68 971,68 973,68 "/>
<line opacity="0.1" stroke="#000000" stroke-width="1" x1="85" y1="699" x2="85" y2="68"/>
<line opacity="0.1" stroke="#000000" stroke-width="1" x1="94" y1="699" x2="94" y2="68"/>
<line opacity="0.1" stroke="#000000" stroke-width="1" x1="103" y1="699" x2="103" y2="68"/>
<line opacity="0.1" stroke="#000000" stroke-width="1" x1="112" y1="699" x2="112" y2="68"/>
<line opacity="0.1" stroke="#000000" stroke-width="1" x1="121" y1="699" x2="121" y2="68"/>
<line opacity="0.1" stroke="#000000" stroke-width="1" x1="130" y1="699" x2="130" y2="68"/>
<line opacity="0.1" stroke="#000000" stroke-width="1" x1="138" y1="699" x2="138" y2="68"/>
<line opacity="0.1" stroke="#000000" stroke-width="1" x1="147" y1="699" x2="147" y2="68"/>
<line opacity="0.1" stroke="#000000" stroke-width="1" x1="156" y1="699" x2="156" y2="68"/>
<line opacity="0.1" stroke="#000000" stroke-width="1" x1="165" y1="699" x2="165" y2="68"/>
<line opacity="0.1" stroke="#000000" stroke-width="1" x1="174" y1="699" x2="174" y2="68"/>
<line opacity="0.1" stroke="#000000" stroke-width="1" x1="183" y1="699" x2="183" y2="68"/>
<line opacity="0.1" stroke="#000000" stroke-width="1" x1="191" y1="699" x2="191" y2="68"/>
<line opacity="0.1" stroke="#000000" stroke-width="1" x1="200" y1="699" x2="200" y2="68"/>
<line opacity="0.1" stroke="#000000" stroke-width="1" x1="209" y1="699" x2="209" y2="68"/>
<line opacity="0.1" stroke="#000000" stroke-width="1" x1="218" y1="699" x2="218" y2="68"/>
<line opacity="0.1" stroke="#000000" stroke-width="1" x1="227" y1="699" x2="227" y2="68"/>
<line opacity="0.1" stroke="#000000" stroke-width="1" x1="236" y1="699" x2="236" y2="68"/>
<line opacity="0.1" stroke="#000000" stroke-width="1" x1="244" y1="699" x2="244" y2="68"/>
<line opacity="0.1" stroke="#000000" stroke-width="1" x1="253" y1="699" x2="253" y2="68"/>
<line opacity="0.1" stroke="#000000" stroke-width="1" x1="262" y1="699" x2="262" y2="68"/>
<line opacity="0.1" stroke="#000000" stroke-width="1" x1="271" y1="699" x2="271" y2="68"/>
<line opacity="0.1" stroke="#000000" stroke-width="1" x1="280" y1="699" x2="280" y2="68"/>
<line opacity="0.1" stroke="#000000" stroke-width="1" x1="289" y1="699" x2="289" y2="68"/>
<line opacity="0.1" stroke="#000000" stroke-width="1" x1="298" y1="699" x2="298" y2="68"/>
<line opacity="0.1" stroke="#000000" stroke-width="1" x1="306" y1="699" x2="306" y2="68"/>
<line opacity="0.1" stroke="#000000" stroke-width="1" x1="315" y1="699" x2="315" y2="68"/>
<line opacity="0.1" stroke="#000000" stroke-width="1" x1="324" y1="699" x2="324" y2="68"/>
<line opacity="0.1" stroke="#000000" stroke-width="1" x1="333" y1="699" x2="333" y2="68"/>
<line opacity="0.1" stroke="#000000" stroke-width="1" x1="342" y1="699" x2="342" y2="68"/>
<line opacity="0.1" stroke="#000000" stroke-width="1" x1="351" y1="699" x2="351" y2="68"/>
<line opacity="0.1" stroke="#000000" stroke-width="1" x1="359" y1="699" x2="359" y2="68"/>
<line opacity="0.1" stroke="#000000" stroke-width="1" x1="368" y1="699" x2="368" y2="68"/>
<line opacity="0.1" stroke="#000000" stroke-width="1" x1="377" y1="699" x2="377" y2="68"/>
<line opacity="0.1" stroke="#000000" stroke-width="1" x1="386" y1="699" x2="386" y2="68"/>
<line opacity="0.1" stroke="#000000" stroke-width="1" x1="395" y1="699" x2="395" y2="68"/>
<line opacity="0.1" stroke="#000000" stroke-width="1" x1="404" y1="699" x2="404" y2="68"/>
<line opacity="0.1" stroke="#000000" stroke-width="1" x1="412" y1="699" x2="412" y2="68"/>
<line opacity="0.1" stroke="#000000" stroke-width="1" x1="421" y1="699" x2="421" y2="68"/>
<line opacity="0.1" stroke="#000000" stroke-width="1" x1="430" y1="699" x2="430" y2="68"/>
<line opacity="0.1" stroke="#000000" stroke-width="1" x1="439" y1="699" x2="439" y2="68"/>
<line opacity="0.1" stroke="#000000" stroke-width="1" x1="448" y1="699" x2="448" y2="68"/>
<line opacity="0.1" stroke="#000000" stroke-width="1" x1="457" y1="699" x2="457" y2="68"/>
<line opacity="0.1" stroke="#000000" stroke-width="1" x1="465" y1="699" x2="465" y2="68"/>
<line opacity="0.1" stroke="#000000" stroke-width="1" x1="474" y1="699" x2="474" y2="68"/>
<line opacity="0.1" stroke="#000000" stroke-width="1" x1="483" y1="699" x2="483" y2="68"/>
<line opacity="0.1" stroke="#000000" stroke-width="1" x1="492" y1="699" x2="492" y2="68"/>
<line opacity="0.1" stroke="#000000" stroke-width="1" x1="501" y1="699" x2="501" y2="68"/>
<line opacity="0.1" stroke="#000000" stroke-width="1" x1="510" y1="699" x2="510" y2="68"/>
<line opacity="0.1" stroke="#000000" stroke-width="1" x1="518" y1="699" x2="518" y2="68"/>
<line opacity="0.1" stroke="#000000" stroke-width="1" x1="527" y1="699" x2="527" y2="68"/>
<line opacity="0.1" stroke="#000000" stroke-width="1" x1="536" y1="699" x2="536" y2="68"/>
<line opacity="0.1" stroke="#000000" stroke-width="1" x1="545" y1="699" x2="545" y2="68"/>
<line opacity="0.1" stroke="#000000" stroke-width="1" x1="554" y1="699" x2="554" y2="68"/>
<line opacity="0.1" stroke="#000000" stroke-width="1" x1="563" y1="699" x2="563" y2="68"/>
<line opacity="0.1" stroke="#000000" stroke-width="1" x1="572" y1="699" x2="572" y2="68"/>
<line opacity="0.1" stroke="#000000" stroke-width="1" x1="580" y1="699" x2="580" y2="68"/>
<line opacity="0.1" stroke="#000000" stroke-width="1" x1="589" y1="699" x2="589" y2="68"/>
<line opacity="0.1" stroke="#000000" stroke-width="1" x1="598" y1="699" x2="598" y2="68"/>
<line opacity="0.1" stroke="#000000" stroke-width="1" x1="607" y1="699" x2="607" y2="68"/>
<line opacity="0.1" stroke="#000000" stroke-width="1" x1="616" y1="699" x2="616" y2="68"/>
<line opacity="0.1" stroke="#000000" stroke-width="1" x1="625" y1="699" x2="625" y2="68"/>
<line opacity="0.1" stroke="#000000" stroke-width="1" x1="633" y1="699" x2="633" y2="68"/>
<line opacity="0.1" stroke="#000000" stroke-width="1" x1="642" y1="699" x2="642" y2="68"/>
<line opacity="0.1" stroke="#000000" stroke-width="1" x1="651" y1="699" x2="651" y2="68"/>
<line opacity="0.1" stroke="#000000" stroke-width="1" x1="660" y1="699" x2="660" y2="68"/>
<line opacity="0.1" stroke="#000000" stroke-width="1" x1="669" y1="699" x2="669" y2="68"/>
<line opacity="0.1" stroke="#000000" stroke-width="1" x1="678" y1="699" x2="678" y2="68"/>
<line opacity="0.1" stroke="#000000" stroke-width="1" x1="686" y1="699" x2="686" y2="68"/>
<line opacity="0.1" stroke="#000000" stroke-width="1" x1="695" y1="699" x2="695" y2="68"/>
<line opacity="0.1" stroke="#000000" stroke-width="1" x1="704" y1="699" x2="704" y2="68"/>
<line opacity="0.1" stroke="#000000" stroke-width="1" x1="713" y1="699" x2="713" y2="68"/>
<line opacity="0.1" stroke="#000000" stroke-width="1" x1="722" y1="699" x2="722" y2="68"/>
<line opacity="0.1" stroke="#000000" stroke-width="1" x1="731" y1="699" x2="731" y2="68"/>
<line opacity="0.1" stroke="#000000" stroke-width="1" x1="739" y1="699" x2="739" y2="68"/>
<line opacity="0.1" stroke="#000000" stroke-width="1" x1="748" y1="699" x2="748" y2="68"/>
<line opacity="0.1" stroke="#000000" stroke-width="1" x1="757" y1="699" x2="757" y2="68"/>
<line opacity="0.1" stroke="#000000" stroke-width="1" x1="766" y1="699" x2="766" y2="68"/>
<line opacity="0.1" stroke="#000000" stroke-width="1" x1="775" y1="699" x2="775" y2="68"/>
<line opacity="0.1" stroke="#000000" stroke-width="1" x1="784" y1="699" x2="784" y2="68"/>
<line opacity="0.1" stroke="#000000" stroke-width="1" x1="792" y1="699" x2="792" y2="68"/>
<line opacity="0.1" stroke="#000000" stroke-width="1" x1="801" y1="699" x2="801" y2="68"/>
<line opacity="0.1" stroke="#000000" stroke-width="1" x1="810" y1="699" x2="810" y2="68"/>
<line opacity="0.1" stroke="#000000" stroke-width="1" x1="819" y1="699" x2="819" y2="68"/>
<line opacity="0.1" stroke="#000000" stroke-width="1" x1="828" y1="699" x2="828" y2="68"/>
<line opacity="0.1" stroke="#000000" stroke-width="1" x1="837" y1="699" x2="837" y2="68"/>
<line opacity="0.1" stroke="#000000" stroke-width="1" x1="846" y1="699" x2="846" y2="68"/>
<line opacity="0.1" stroke="#000000" stroke-width="1" x1="854" y1="699" x2="854" y2="68"/>
<line opacity="0.1" stroke="#000000" stroke-width="1" x1="863" y1="699" x2="863" y2="68"/>
<line opacity="0.1" stroke="#000000" stroke-width="1" x1="872" y1="699" x2="872" y2="68"/>
<line opacity="0.1" stroke="#000000" stroke-width="1" x1="881" y1="699" x2="881" y2="68"/>
<line opacity="0.1" stroke="#000000" stroke-width="1" x1="890" y1="699" x2="890" y2="68"/>
<line opacity="0.1" stroke="#000000" stroke-width="1" x1="899" y1="699" x2="899" y2="68"/>
<line opacity="0.1" stroke="#000000" stroke-width="1" x1="907" y1="699" x2="907" y2="68"/>
<line opacity="0.1" stroke="#000000" stroke-width="1" x1="916" y1="699" x2="916" y2="68"/>
<line opacity="0.1" stroke="#000000" stroke-width="1" x1="925" y1="699" x2="925" y2="68"/>
<line opacity="0.1" stroke="#000000" stroke-width="1" x1="934" y1="699" x2="934" y2="68"/>
<line opacity="0.1" stroke="#000000" stroke-width="1" x1="943" y1="699" x2="943" y2="68"/>
<line opacity="0.1" stroke="#000000" stroke-width="1" x1="952" y1="699" x2="952" y2="68"/>
<line opacity="0.1" stroke="#000000" stroke-width="1" x1="960" y1="699" x2="960" y2="68"/>
<line opacity="0.1" stroke="#000000" stroke-width="1" x1="969" y1="699" x2="969" y2="68"/>
<line opacity="0.1" stroke="#000000" stroke-width="1" x1="78" y1="699" x2="973" y2="699"/>
<line opacity="0.1" stroke="#000000" stroke-width="1" x1="78" y1="691" x2="973" y2="691"/>
<line opacity="0.1" stroke="#000000" stroke-width="1" x1="78" y1="684" x2="973" y2="684"/>
<line opacity="0.1" stroke="#000000" stroke-width="1" x1="78" y1="677" x2="973" y2="677"/>
<line opacity="0.1" stroke="#000000" stroke-width="1" x1="78" y1="670" x2="973" y2="670"/>
<line opacity="0.1" stroke="#000000" stroke-width="1" x1="78" y1="663" x2="973" y2="663"/>
<line opacity="0.1" stroke="#000000" stroke-width="1" x1="78" y1="656" x2="973" y2="656"/>
<line opacity="0.1" stroke="#000000" stroke-width="1" x1="78" y1="649" x2="973" y2="649"/>
<line opacity="0.1" stroke="#000000" stroke-width="1" x1="78" y1="642" x2="973" y2="642"/>
<line opacity="0.1" stroke="#000000" stroke-width="1" x1="78" y1="634" x2="973" y2="634"/>
<line opacity="0.1" stroke="#000000" stroke-width="1" x1="78" y1="627" x2="973" y2="627"/>
<line opacity="0.1" stroke="#000000" stroke-width="1" x1="78" y1="620" x2="973" y2="620"/>
<line opacity="0.1" stroke="#000000" stroke-width="1" x1="78" y1="613" x2="973" y2="613"/>
<line opacity="0.1" stroke="#000000" stroke-width="1" x1="78" y1="606" x2="973" y2="606"/>
<line opacity="0.1" stroke="#000000" stroke-width="1" x1="78" y1="599" x2="973" y2="599"/>
<line opacity="0.1" stroke="#000000" stroke-width="1" x1="78" y1="592" x2="973" y2="592"/>
<line opacity="0.1" stroke="#000000" stroke-width="1" x1="78" y1="585" x2="973" y2="585"/>
<line opacity="0.1" stroke="#000000" stroke-width="1" x1="78" y1="578" x2="973" y2="578"/>
<line opacity="0.1" stroke="#000000" stroke-width="1" x1="78" y1="570" x2="973" y2="570"/>
<line opacity="0.1" stroke="#000000" stroke-width="1" x1="78" y1="563" x2="973" y2="563"/>
<line opacity="0.1" stroke="#000000" stroke-width="1" x1="78" y1="556" x2="973" y2="556"/>
<line opacity="0.1" stroke="#000000" stroke-width="1" x1="78" y1="549" x2="973" y2="549"/>
<line opacity="0.1" stroke="#000000" stroke-width="1" x1="78" y1="542" x2="973" y2="542"/>
<line opacity="0.1" stroke="#000000" stroke-width="1" x1="78" y1="535" x2="973" y2="535"/>
<line opacity="0.1" stroke="#000000" stroke-width="1" x1="78" y1="528" x2="973" y2="528"/>
<line opacity="0.1" stroke="#000000" stroke-width="1" x1="78" y1="521" x2="973" y2="521"/>
<line opacity="0.1" stroke="#000000" stroke-width="1" x1="78" y1="514" x2="973" y2="514"/>
<line opacity="0.1" stroke="#000000" stroke-width="1" x1="78" y1="506" x2="973" y2="506"/>
<line opacity="0.1" stroke="#000000" stroke-width="1" x1="78" y1="499" x2="973" y2="499"/>
<line opacity="0.1" stroke="#000000" stroke-width="1" x1="78" y1="492" x2="973" y2="492"/>
<line opacity="0.1" stroke="#000000" stroke-width="1" x1="78" y1="485" x2="973" y2="485"/>
<line opacity="0.1" stroke="#000000" stroke-width="1" x1="78" y1="478" x2="973" y2="478"/>
<line opacity="0.1" stroke="#000000" stroke-width="1" x1="78" y1="471" x2="973" y2="471"/>
<line opacity="0.1" stroke="#000000" stroke-width="1" x1="78" y1="464" x2="973" y2="464"/>
<line opacity="0.1" stroke="#000000" stroke-width="1" x1="78" y1="457" x2="973" y2="457"/>
<line opacity="0.1" stroke="#000000" stroke-width="1" x1="78" y1="449" x2="973" y2="449"/>
<line opacity="0.1" stroke="#000000" stroke-width="1" x1="78" y1="442" x2="973" y2="442"/>
<line opacity="0.1" stroke="#000000" stroke-width="1" x1="78" y1="435" x2="973" y2="435"/>
<line opacity="0.1" stroke="#000000" stroke-width="1" x1="78" y1="428" x2="973" y2="428"/>
<line opacity="0.1" stroke="#000000" stroke-width="1" x1="78" y1="421" x2="973" y2="421"/>
<line opacity="0.1" stroke="#000000" stroke-width="1" x1="78" y1="414" x2="973" y2="414"/>
<line opacity="0.1" stroke="#000000" stroke-width="1" x1="78" y1="407" x2="973" y2="407"/>
<line opacity="0.1" stroke="#000000" stroke-width="1" x1="78" y1="400" x2="973" y2="400"/>
<line opacity="0.1" stroke="#000000" stroke-width="1" x1="78" y1="393" x2="973" y2="393"/>
<line opacity="0.1" stroke="#000000" stroke-width="1" x1="78" y1="385" x2="973" y2="385"/>
<line opacity="0.1" stroke="#000000" stroke-width="1" x1="78" y1="378" x2="973" y2="378"/>
<line opacity="0.1" stroke="#000000" stroke-width="1" x1="78" y1="371" x2="973" y2="371"/>
<line opacity="0.1" stroke="#000000" stroke-width="1" x1="78" y1="364" x2="973" y2="364"/>
<line opacity="0.1" stroke="#000000" stroke-width="1" x1="78" y1="357" x2="973" y2="357"/>
<line opacity="0.1" stroke="#000000" stroke-width="1" x1="78" y1="350" x2="973" y2="350"/>
<line opacity="0.1" stroke="#000000" stroke-width="1" x1="78" y1="343" x2="973" y2="343"/>
<line opacity="0.1" stroke="#000000" stroke-width="1" x1="78" y1="336" x2="973" y2="336"/>
<line opacity="0.1" stroke="#000000" stroke-width="1" x1="78" y1="329" x2="973" y2="329"/>
<line opacity="0.1" stroke="#000000" stroke-width="1" x1="78" y1="321" x2="973" y2="321"/>
<line opacity="0.1" stroke="#000000" stroke-width="1" x1="78" y1="314" x2="973" y2="314"/>
<line opacity="0.1" stroke="#000000" stroke-width="1" x1="78" y1="307" x2="973" y2="307"/>
<line opacity="0.1" stroke="#000000" stroke-width="1" x1="78" y1="300" x2="973" y2="300"/>
<line opacity="0.1" stroke="#000000" stroke-width="1" x1="78" y1="293" x2="973" y2="293"/>
<line opacity="0.1" stroke="#000000" stroke-width="1" x1="78" y1="286" x2="973" y2="286"/>
<line opacity="0.1" stroke="#000000" stroke-width="1" x1="78" y1="279" x2="973" y2="279"/>
<line opacity="0.1" stroke="#000000" stroke-width="1" x1="78" y1="272" x2="973" y2="272"/>
<line opacity="0.1" stroke="#000000" stroke-width="1" x1="78" y1="264" x2="973" y2="264"/>
<line opacity="0.1" stroke="#000000" stroke-width="1" x1="78" y1="257" x2="973" y2="257"/>
<line opacity="0.1" stroke="#000000" stroke-width="1" x1="78" y1="250" x2="973" y2="250"/>
<line opacity="0.1" stroke="#000000" stroke-width="1" x1="78" y1="243" x2="973" y2="243"/>
<line opacity="0.1" stroke="#000000" stroke-width="1" x1="78" y1="236" x2="973" y2="236"/>
<line opacity="0.1" stroke="#000000" stroke-width="1" x1="78" y1="229" x2="973" y2="229"/>
<line opacity="0.1" stroke="#000000" stroke-width="1" x1="78" y1="222" x2="973" y2="222"/>
<line opacity="0.1" stroke="#000000" stroke-width="1" x1="78" y1="215" x2="973" y2="215"/>
<line opacity="0.1" stroke="#000000" stroke-width="1" x1="78" y1="208" x2="973" y2="208"/>
<line opacity="0.1" stroke="#000000" stroke-width="1" x1="78" y1="200" x2="973" y2="200"/>
<line opacity="0.1" stroke="#000000" stroke-width="1" x1="78" y1="193" x2="973" y2="193"/>
<line opacity="0.1" stroke="#000000" stroke-width="1" x1="78" y1="186" x2="973" y2="186"/>
<line opacity="0.1" stroke="#000000" stroke-width="1" x1="78" y1="179" x2="973" y2="179"/>
<line opacity="0.1" stroke="#000000" stroke-width="1" x1="78" y1="172" x2="973" y2="172"/>
<line opacity="0.1" stroke="#000000" stroke-width="1" x1="78" y1="165" x2="973" y2="165"/>
<line opacity="0.1" stroke="#000000" stroke-width="1" x1="78" y1="158" x2="973" y2="158"/>
<line opacity="0.1" stroke="#000000" stroke-width="1" x1="78" y1="151" x2="973" y2="151"/>
<line opacity="0.1" stroke="#000000" stroke-width="1" x1="78" y1="144" x2="973" y2="144"/>
<line opacity="0.1" stroke="#000000" stroke-width="1" x1="78" y1="136" x2="973" y2="136"/>
<line opacity="0.1" stroke="#000000" stroke-width="1" x1="78" y1="129" x2="973" y2="129"/>
<line opacity="0.1" stroke="#000000" stroke-width="1" x1="78" y1="122" x2="973" y2="122"/>
<line opacity="0.1" stroke="#000000" stroke-width="1" x1="78" y1="115" x2="973" y2="115"/>
<line opacity="0.1" stroke="#000000" stroke-width="1" x1="78" y1="108" x2="973" y2="108"/>
<line opacity="0.1" stroke="#000000" stroke-width="1" x1="78" y1="101" x2="973" y2="101"/>
<line opacity="0.1" stroke="#000000" stroke-width="1" x1="78" y1="94" x2="973" y2="94"/>
<line opacity="0.1" stroke="#000000" stroke-width="1" x1="78" y1="87" x2="973" y2="87"/>
<line opacity="0.1" stroke="#000000" stroke-width="1" x1="78" y1="79" x2="973" y2="79"/>
<line opacity="0.1" stroke="#000000" stroke-width="1" x1="78" y1="72" x2="973" y2="72"/>
<text x="8" y="384" dy="0.76em" text-anchor="middle" font-family="sans-serif" font-size="9.67741935483871" opacity="1" fill="#000000" transform="rotate(270, 8, 384)">
Memory usage
</text>
<text x="526" y="760" dy="-0.5ex" text-anchor="middle" font-family="sans-serif" font-size="9.67741935483871" opacity="1" fill="#000000">
Time
</text>
<line opacity="0.2" stroke="#000000" stroke-width="1" x1="130" y1="699" x2="130" y2="68"/>
<line opacity="0.2" stroke="#000000" stroke-width="1" x1="306" y1="699" x2="306" y2="68"/>
<line opacity="0.2" stroke="#000000" stroke-width="1" x1="483" y1="699" x2="483" y2="68"/>
<line opacity="0.2" stroke="#000000" stroke-width="1" x1="660" y1="699" x2="660" y2="68"/>
<line opacity="0.2" stroke="#000000" stroke-width="1" x1="837" y1="699" x2="837" y2="68"/>
<line opacity="0.2" stroke="#000000" stroke-width="1" x1="78" y1="699" x2="973" y2="699"/>
<line opacity="0.2" stroke="#000000" stroke-width="1" x1="78" y1="627" x2="973" y2="627"/>
<line opacity="0.2" stroke="#000000" stroke-width="1" x1="78" y1="556" x2="973" y2="556"/>
<line opacity="0.2" stroke="#000000" stroke-width="1" x1="78" y1="485" x2="973" y2="485"/>
<line opacity="0.2" stroke="#000000" stroke-width="1" x1="78" y1="414" x2="973" y2="414"/>
<line opacity="0.2" stroke="#000000" stroke-width="1" x1="78" y1="343" x2="973" y2="343"/>
<line opacity="0.2" stroke="#000000" stroke-width="1" x1="78" y1="272" x2="973" y2="272"/>
<line opacity="0.2" stroke="#000000" stroke-width="1" x1="78" y1="200" x2="973" y2="200"/>
<line opacity="0.2" stroke="#000000" stroke-width="1" x1="78" y1="129" x2="973" y2="129"/>
<polyline fill="none" opacity="1" stroke="#000000" stroke-width="1" points="77,68 77,699 "/>
<text x="68" y="699" dy="0.5ex" text-anchor="end" font-family="sans-serif" font-size="9.67741935483871" opacity="1" fill="#000000">
0.00 MB
</text>
<polyline fill="none" opacity="1" stroke="#000000" stroke-width="1" points="72,699 77,699 "/>
<text x="68" y="627" dy="0.5ex" text-anchor="end" font-family="sans-serif" font-size="9.67741935483871" opacity="1" fill="#000000">
0.95 MB
</text>
<polyline fill="none" opacity="1" stroke="#000000" stroke-width="1" points="72,627 77,627 "/>
<text x="68" y="556" dy="0.5ex" text-anchor="end" font-family="sans-serif" font-size="9.67741935483871" opacity="1" fill="#000000">
1.91 MB
</text>
<polyline fill="none" opacity="1" stroke="#000000" stroke-width="1" points="72,556 77,556 "/>
<text x="68" y="485" dy="0.5ex" text-anchor="end" font-family="sans-serif" font-size="9.67741935483871" opacity="1" fill="#000000">
2.86 MB
</text>
<polyline fill="none" opacity="1" stroke="#000000" stroke-width="1" points="72,485 77,485 "/>
<text x="68" y="414" dy="0.5ex" text-anchor="end" font-family="sans-serif" font-size="9.67741935483871" opacity="1" fill="#000000">
3.81 MB
</text>
<polyline fill="none" opacity="1" stroke="#000000" stroke-width="1" points="72,414 77,414 "/>
<text x="68" y="343" dy="0.5ex" text-anchor="end" font-family="sans-serif" font-size="9.67741935483871" opacity="1" fill="#000000">
4.77 MB
</text>
<polyline fill="none" opacity="1" stroke="#000000" stroke-width="1" points="72,343 77,343 "/>
<text x="68" y="272" dy="0.5ex" text-anchor="end" font-family="sans-serif" font-size="9.67741935483871" opacity="1" fill="#000000">
5.72 MB
</text>
<polyline fill="none" opacity="1" stroke="#000000" stroke-width="1" points="72,272 77,272 "/>
<text x="68" y="200" dy="0.5ex" text-anchor="end" font-family="sans-serif" font-size="9.67741935483871" opacity="1" fill="#000000">
6.68 MB
</text>
<polyline fill="none" opacity="1" stroke="#000000" stroke-width="1" points="72,200 77,200 "/>
<text x="68" y="129" dy="0.5ex" text-anchor="end" font-family="sans-serif" font-size="9.67741935483871" opacity="1" fill="#000000">
7.63 MB
</text>
<polyline fill="none" opacity="1" stroke="#000000" stroke-width="1" points="72,129 77,129 "/>
<polyline fill="none" opacity="1" stroke="#000000" stroke-width="1" points="78,700 973,700 "/>
<text x="130" y="710" dy="0.76em" text-anchor="middle" font-family="sans-serif" font-size="9.67741935483871" opacity="1" fill="#000000">
07 17:46:40
</text>
<polyline fill="none" opacity="1" stroke="#000000" stroke-width="1" points="130,700 130,705 "/>
<text x="306" y="710" dy="0.76em" text-anchor="middle" font-family="sans-serif" font-size="9.67741935483871" opacity="1" fill="#000000">
07 20:33:20
</text>
<polyline fill="none" opacity="1" stroke="#000000" stroke-width="1" points="306,700 306,705 "/>
<text x="483" y="710" dy="0.76em" text-anchor="middle" font-family="sans-serif" font-size="9.67741935483871" opacity="1" fill="#000000">
07 23:20:00
</text>
<polyline fill="none" opacity="1" stroke="#000000" stroke-width="1" points="483,700 483,705 "/>
<text x="660" y="710" dy="0.76em" text-anchor="middle" font-family="sans-serif" font-size="9.67741935483871" opacity="1" fill="#000000">
08 02:06:40
</text>
<polyline fill="none" opacity="1" stroke="#000000" stroke-width="1" points="660,700 660,705 "/>
<text x="837" y="710" dy="0.76em" text-anchor="middle" font-family="sans-serif" font-size="9.67741935483871" opacity="1" fill="#000000">
08 04:53:20
</text>
<polyline fill="none" opacity="1" stroke="#000000" stroke-width="1" points="837,700 837,705 "/>
<polyline fill="none" opacity="1" stroke="#000000" stroke-width="1" points="78,67 974,67 "/>
<text x="130" y="58" dy="-0.5ex" text-anchor="middle" font-family="sans-serif" font-size="9.67741935483871" opacity="1" fill="#000000">
+00:49:04
</text>
<polyline fill="none" opacity="1" stroke="#000000" stroke-width="1" points="130,62 130,67 "/>
<text x="307" y="58" dy="-0.5ex" text-anchor="middle" font-family="sans-serif" font-size="9.67741935483871" opacity="1" fill="#000000">
+03:35:44
</text>
<polyline fill="none" opacity="1" stroke="#000000" stroke-width="1" points="307,62 307,67 "/>
<text x="484" y="58" dy="-0.5ex" text-anchor="middle" font-family="sans-serif" font-size="9.67741935483871" opacity="1" fill="#000000">
+06:22:24
</text>
<polyline fill="none" opacity="1" stroke="#000000" stroke-width="1" points="484,62 484,67 "/>
<text x="661" y="58" dy="-0.5ex" text-anchor="middle" font-family="sans-serif" font-size="9.67741935483871" opacity="1" fill="#000000">
+09:09:04
</text>
<polyline fill="none" opacity="1" stroke="#000000" stroke-width="1" points="661,62 661,67 "/>
<text x="838" y="58" dy="-0.5ex" text-anchor="middle" font-family="sans-serif" font-size="9.67741935483871" opacity="1" fill="#000000">
+11:55:44
</text>
<polyline fill="none" opacity="1" stroke="#000000" stroke-width="1" points="838,62 838,67 "/>
<rect x="83" y="73" width="99" height="45" opacity="0.75" fill="#FFFFFF" stroke="none"/>
<rect x="83" y="73" width="99" height="45" opacity="1" fill="none" stroke="#000000"/>
<text x="123" y="83" dy="0.76em" text-anchor="start" font-family="sans-serif" font-size="9.67741935483871" opacity="1" fill="#000000">
Temporary
</text>
<text x="123" y="98" dy="0.76em" text-anchor="start" font-family="sans-serif" font-size="9.67741935483871" opacity="1" fill="#000000">
Leaked
</text>
<rect x="93" y="83" width="10" height="10" opacity="1" fill="#3CB44B" stroke="none"/>
<rect x="93" y="98" width="10" height="10" opacity="1" fill="#E6194B" stroke="none"/>
</svg>
