<svg width="1024" height="768" viewBox="0 0 1024 768" xmlns="http://www.w3.org/2000/svg">
<rect x="0" y="0" width="1024" height="768" opacity="1" fill="#FFFFFF" stroke="none"/>
<polygon opacity="1" fill="#3CB44B" points="973,699 973,699 973,699 "/>
<polyline fill="none" opacity="1" stroke="#3CB44B" stroke-width="1" points="973,699 "/>
<polygon opacity="1" fill="#E6194B" points="78,697 79,697 80,696 81,695 82,695 83,694 84,694 84,693 85,692 86,692 87,691 88,690 89,690 90,689 91,689 92,688 92,687 93,687 94,686 95,686 96,685 97,684 98,684 99,683 100,683 101,682 101,681 102,681 103,680 104,680 105,679 106,679 107,678 108,677 109,677 109,676 110,675 111,675 112,674 113,673 114,673 115,672 116,672 117,671 118,670 118,670 119,669 120,669 121,668 122,667 123,667 124,666 125,665 126,665 126,664 127,663 128,663 129,662 130,662 131,661 132,660 133,660 134,659 134,659 135,658 136,657 137,657 138,656 139,656 140,655 141,654 142,653 143,653 143,652 144,652 145,651 146,650 147,650 148,649 149,649 150,648 151,647 151,647 152,646 153,645 154,645 155,644 156,644 157,643 158,642 159,642 160,641 160,641 161,640 162,639 163,639 164,638 165,637 166,637 167,636 168,635 168,635 169,634 170,634 171,633 172,632 173,632 174,631 175,630 176,630 176,629 177,628 178,628 179,627 180,627 181,626 182,625 183,625 184,624 185,623 185,623 186,622 187,622 188,621 189,620 190,620 191,619 192,618 193,618 193,617 194,616 195,616 196,615 197,615 198,614 199,613 200,613 201,612 202,612 202,611 203,610 204,610 205,609 206,608 207,608 208,607 209,607 210,606 210,605 211,605 212,604 213,604 214,603 215,602 216,602 217,601 218,600 218,600 219,599 220,599 221,598 222,598 223,597 224,596 225,596 226,595 227,595 227,594 228,593 229,593 230,592 231,592 232,591 233,590 234,590 235,589 235,589 236,588 237,587 238,587 239,586 240,586 241,585 242,584 243,584 244,583 244,583 245,582 246,581 247,581 248,580 249,579 250,579 251,578 252,578 252,577 253,577 254,576 255,575 256,574 257,574 258,573 259,572 260,572 260,571 261,571 262,570 263,569 264,569 265,568 266,567 267,567 268,566 269,566 269,565 270,564 271,564 272,563 273,562 274,562 275,561 276,561 277,560 277,559 278,559 279,558 280,557 281,557 282,556 283,555 284,555 285,554 286,554 286,553 287,552 288,552 289,551 290,551 291,550 292,549 293,549 294,548 294,548 295,547 296,546 297,546 298,545 299,544 300,544 301,543 302,542 302,542 303,541 304,540 305,540 306,539 307,539 308,538 309,537 310,537 311,536 311,536 312,535 313,534 314,534 315,533 316,532 317,532 318,531 319,530 319,530 320,529 321,528 322,528 323,527 324,527 325,526 326,525 327,525 328,524 328,524 329,523 330,523 331,522 332,521 333,521 334,520 335,519 336,519 336,518 337,517 338,516 339,516 340,515 341,515 342,514 343,513 344,513 344,512 345,511 346,511 347,510 348,509 349,509 350,508 351,508 352,507 353,506 353,506 354,505 355,505 356,504 357,503 358,503 359,502 360,501 361,501 361,500 362,499 363,499 364,498 365,498 366,497 367,496 368,496 369,495 370,495 370,494 371,493 372,493 373,492 374,491 375,491 376,490 377,489 378,489 378,488 379,488 380,487 381,486 382,486 383,485 384,484 385,484 386,483 386,482 387,482 388,481 389,480 390,480 391,479 392,479 393,478 394,478 395,477 395,476 396,476 397,475 398,474 399,474 400,473 401,472 402,472 403,471 403,470 404,470 405,469 406,468 407,468 408,467 409,466 410,466 411,465 412,464 412,464 413,463 414,463 415,462 416,462 417,461 418,461 419,460 420,459 420,459 421,458 422,457 423,457 424,456 425,455 426,455 427,454 428,453 428,453 429,452 430,451 431,451 432,450 433,450 434,449 435,448 436,448 437,447 437,447 438,446 439,445 440,445 441,444 442,444 443,443 444,442 445,441 445,441 446,440 447,439 448,439 449,438 450,437 451,437 452,436 453,436 454,435 454,434 455,434 456,433 457,433 458,432 459,432 460,431 461,430 462,430 462,429 463,429 464,428 465,427 466,426 467,426 468,425 469,424 470,424 470,423 471,423 472,422 473,421 474,421 475,420 476,419 477,419 478,418 479,418 479,417 480,416 481,416 482,415 483,415 484,414 485,413 486,413 487,412 487,411 488,411 489,410 490,410 491,409 492,408 493,408 494,407 495,406 496,406 496,405 497,404 498,404 499,403 500,403 501,402 502,401 503,401 504,400 504,399 505,399 506,398 507,398 508,397 509,396 510,396 511,395 512,394 512,394 513,393 514,392 515,392 516,391 517,390 518,390 519,389 520,389 521,388 521,387 522,387 523,386 524,386 525,385 526,384 527,383 528,382 529,381 529,381 530,380 531,379 532,379 533,378 534,377 535,377 536,376 537,376 538,375 538,374 539,374 540,373 541,373 542,372 543,371 544,370 545,370 546,369 546,368 547,367 548,367 549,366 550,365 551,365 552,364 553,363 554,363 554,362 555,362 556,361 557,360 558,360 559,359 560,358 561,358 562,357 563,357 563,356 564,355 565,355 566,354 567,353 568,353 569,352 570,352 571,351 571,350 572,350 573,349 574,349 575,348 576,347 577,347 578,346 579,346 580,345 580,344 581,344 582,343 583,343 584,342 585,341 586,340 587,340 588,339 588,339 589,338 590,337 591,336 592,335 593,335 594,334 595,333 596,333 596,332 597,331 598,331 599,330 600,330 601,329 602,328 603,328 604,327 605,327 605,326 606,325 607,325 608,324 609,323 610,323 611,322 612,321 613,321 613,320 614,319 615,318 616,317 617,317 618,316 619,315 620,315 621,314 622,313 622,313 623,312 624,311 625,311 626,310 627,310 628,309 629,309 630,308 630,307 631,306 632,306 633,305 634,305 635,304 636,303 637,303 638,302 638,301 639,301 640,300 641,300 642,299 643,298 644,298 645,297 646,296 647,296 647,295 648,295 649,294 650,293 651,293 652,292 653,291 654,291 655,290 655,289 656,289 657,288 658,287 659,287 660,286 661,286 662,285 663,285 664,284 664,283 665,283 666,282 667,281 668,281 669,280 670,280 671,279 672,278 672,278 673,277 674,276 675,276 676,275 677,275 678,274 679,273 680,273 680,272 681,271 682,271 683,270 684,269 685,269 686,268 687,267 688,267 689,266 689,266 690,265 691,264 692,264 693,263 694,263 695,262 696,261 697,261 697,260 698,259 699,259 700,258 701,258 702,257 703,256 704,255 705,255 706,254 706,254 707,253 708,252 709,252 710,251 711,251 712,250 713,249 714,249 714,248 715,247 716,247 717,246 718,246 719,245 720,245 721,244 722,243 722,243 723,242 724,241 725,241 726,240 727,239 728,239 729,238 730,238 731,237 731,236 732,236 733,235 734,235 735,234 736,233 737,233 738,232 739,231 739,231 740,230 741,229 742,229 743,228 744,228 745,227 746,226 747,226 748,225 748,224 749,224 750,223 751,222 752,222 753,221 754,221 755,220 756,219 756,219 757,218 758,217 759,217 760,216 761,215 762,215 763,214 764,214 764,213 765,212 766,212 767,211 768,210 769,210 770,209 771,208 772,208 773,207 773,206 774,206 775,205 776,205 777,204 778,203 779,203 780,202 781,201 781,201 782,200 783,200 784,199 785,198 786,198 787,197 788,196 789,196 790,195 790,195 791,194 792,193 793,192 794,192 795,191 796,191 797,190 798,190 798,189 799,188 800,188 801,187 802,186 803,186 804,185 805,184 806,184 806,183 807,183 808,182 809,181 810,181 811,180 812,179 813,178 814,178 815,177 815,177 816,176 817,175 818,175 819,174 820,173 821,173 822,172 823,171 823,171 824,170 825,169 826,169 827,168 828,167 829,167 830,166 831,165 832,165 832,164 833,163 834,163 835,162 836,161 837,161 838,160 839,160 840,159 840,158 841,158 842,157 843,157 844,156 845,155 846,155 847,154 848,154 848,153 849,152 850,152 851,151 852,151 853,150 854,149 855,149 856,148 857,148 857,147 858,146 859,146 860,145 861,145 862,144 863,143 864,143 865,142 865,142 866,141 867,140 868,140 869,139 870,138 871,138 872,137 873,136 874,136 874,135 875,135 876,134 877,133 878,133 879,132 880,132 881,131 882,130 882,130 883,129 884,128 885,128 886,127 887,126 888,126 889,125 890,124 890,124 891,123 892,122 893,122 894,121 895,121 896,120 897,119 898,119 899,118 899,117 900,117 901,116 902,116 903,115 904,114 905,114 906,113 907,112 907,111 908,111 909,110 910,109 911,109 912,108 913,108 914,107 915,106 916,106 916,105 917,105 918,104 919,104 920,103 921,102 922,102 923,101 924,100 924,100 925,99 926,98 927,98 928,97 929,96 930,96 931,95 932,95 932,94 933,93 934,93 935,92 936,91 937,91 938,90 939,89 940,89 941,88 941,87 942,87 943,86 944,86 945,85 946,85 947,84 948,83 949,83 949,82 950,81 951,81 952,80 953,79 954,79 955,78 956,78 957,77 958,76 958,76 959,75 960,75 961,74 962,73 963,73 964,72 965,71 966,71 966,70 967,70 968,69 969,68 970,68 971,68 971,68 973,68 973,699 78,699 "/>
<polyline fill="none" opacity="1" stroke="#E6194B" stroke-width="1" points="78,697 79,697 80,696 81,695 82,695 83,694 84,694 84,693 85,692 86,692 87,691 88,690 89,690 90,689 91,689 92,688 92,687 93,687 94,686 95,686 96,685 97,684 98,684 99,683 100,683 101,682 101,681 102,681 103,680 104,680 105,679 106,679 107,678 108,677 109,677 109,676 110,675 111,675 112,674 113,673 114,673 115,672 116,672 117,671 118,670 118,670 119,669 120,669 121,668 122,667 123,667 124,666 125,665 126,665 126,664 127,663 128,663 129,662 130,662 131,661 132,660 133,660 134,659 134,659 135,658 136,657 137,657 138,656 139,656 140,655 141,654 142,653 143,653 143,652 144,652 145,651 146,650 147,650 148,649 149,649 150,648 151,647 151,647 152,646 153,645 154,645 155,644 156,644 157,643 158,642 159,642 160,641 160,641 161,640 162,639 163,639 164,638 165,637 166,637 167,636 168,635 168,635 169,634 170,634 171,633 172,632 173,632 174,631 175,630 176,630 176,629 177,628 178,628 179,627 180,627 181,626 182,625 183,625 184,624 185,623 185,623 186,622 187,622 188,621 189,620 190,620 191,619 192,618 193,618 193,617 194,616 195,616 196,615 197,615 198,614 199,613 200,613 201,612 202,612 202,611 203,610 204,610 205,609 206,608 207,608 208,607 209,607 210,606 210,605 211,605 212,604 213,604 214,603 215,602 216,602 217,601 218,600 218,600 219,599 220,599 221,598 222,598 223,597 224,596 225,596 226,595 227,595 227,594 228,593 229,593 230,592 231,592 232,591 233,590 234,590 235,589 235,589 236,588 237,587 238,587 239,586 240,586 241,585 242,584 243,584 244,583 244,583 245,582 246,581 247,581 248,580 249,579 250,579 251,578 252,578 252,577 253,577 254,576 255,575 256,574 257,574 258,573 259,572 260,572 260,571 261,571 262,570 263,569 264,569 265,568 266,567 267,567 268,566 269,566 269,565 270,564 271,564 272,563 273,562 274,562 275,561 276,561 277,560 277,559 278,559 279,558 280,557 281,557 282,556 283,555 284,555 285,554 286,554 286,553 287,552 288,552 289,551 290,551 291,550 292,549 293,549 294,548 294,548 295,547 296,546 297,546 298,545 299,544 300,544 301,543 302,542 302,542 303,541 304,540 305,540 306,539 307,539 308,538 309,537 310,537 311,536 311,536 312,535 313,534 314,534 315,533 316,532 317,532 318,531 319,530 319,530 320,529 321,528 322,528 323,527 324,527 325,526 326,525 327,525 328,524 328,524 329,523 330,523 331,522 332,521 333,521 334,520 335,519 336,519 336,518 337,517 338,516 339,516 340,515 341,515 342,514 343,513 344,513 344,512 345,511 346,511 347,510 348,509 349,509 350,508 351,508 352,507 353,506 353,506 354,505 355,505 356,504 357,503 358,503 359,502 360,501 361,501 361,500 362,499 363,499 364,498 365,498 366,497 367,496 368,496 369,495 370,495 370,494 371,493 372,493 373,492 374,491 375,491 376,490 377,489 378,489 378,488 379,488 380,487 381,486 382,486 383,485 384,484 385,484 386,483 386,482 387,482 388,481 389,480 390,480 391,479 392,479 393,478 394,478 395,477 395,476 396,476 397,475 398,474 399,474 400,473 401,472 402,472 403,471 403,470 404,470 405,469 406,468 407,468 408,467 409,466 410,466 411,465 412,464 412,464 413,463 414,463 415,462 416,462 417,461 418,461 419,460 420,459 420,459 421,458 422,457 423,457 424,456 425,455 426,455 427,454 428,453 428,453 429,452 430,451 431,451 432,450 433,450 434,449 435,448 436,448 437,447 437,447 438,446 439,445 440,445 441,444 442,444 443,443 444,442 445,441 445,441 446,440 447,439 448,439 449,438 450,437 451,437 452,436 453,436 454,435 454,434 455,434 456,433 457,433 458,432 459,432 460,431 461,430 462,430 462,429 463,429 464,428 465,427 466,426 467,426 468,425 469,424 470,424 470,423 471,423 472,422 473,421 474,421 475,420 476,419 477,419 478,418 479,418 479,417 480,416 481,416 482,415 483,415 484,414 485,413 486,413 487,412 487,411 488,411 489,410 490,410 491,409 492,408 493,408 494,407 495,406 496,406 496,405 497,404 498,404 499,403 500,403 501,402 502,401 503,401 504,400 504,399 505,399 506,398 507,398 508,397 509,396 510,396 511,395 512,394 512,394 513,393 514,392 515,392 516,391 517,390 518,390 519,389 520,389 521,388 521,387 522,387 523,386 524,386 525,385 526,384 527,383 528,382 529,381 529,381 530,380 531,379 532,379 533,378 534,377 535,377 536,376 537,376 538,375 538,374 539,374 540,373 541,373 542,372 543,371 544,370 545,370 546,369 546,368 547,367 548,367 549,366 550,365 551,365 552,364 553,363 554,363 554,362 555,362 556,361 557,360 558,360 559,359 560,358 561,358 562,357 563,357 563,356 564,355 565,355 566,354 567,353 568,353 569,352 570,352 571,351 571,350 572,350 573,349 574,349 575,348 576,347 577,347 578,346 579,346 580,345 580,344 581,344 582,343 583,343 584,342 585,341 586,340 587,340 588,339 588,339 589,338 590,337 591,336 592,335 593,335 594,334 595,333 596,333 596,332 597,331 598,331 599,330 600,330 601,329 602,328 603,328 604,327 605,327 605,326 606,325 607,325 608,324 609,323 610,323 611,322 612,321 613,321 613,320 614,319 615,318 616,317 617,317 618,316 619,315 620,315 621,314 622,313 622,313 623,312 624,311 625,311 626,310 627,310 628,309 629,309 630,308 630,307 631,306 632,306 633,305 634,305 635,304 636,303 637,303 638,302 638,301 639,301 640,300 641,300 642,299 643,298 644,298 645,297 646,296 647,296 647,295 648,295 649,294 650,293 651,293 652,292 653,291 654,291 655,290 655,289 656,289 657,288 658,287 659,287 660,286 661,286 662,285 663,285 664,284 664,283 665,283 666,282 667,281 668,281 669,280 670,280 671,279 672,278 672,278 673,277 674,276 675,276 676,275 677,275 678,274 679,273 680,273 680,272 681,271 682,271 683,270 684,269 685,269 686,268 687,267 688,267 689,266 689,266 690,265 691,264 692,264 693,263 694,263 695,262 696,261 697,261 697,260 698,259 699,259 700,258 701,258 702,257 703,256 704,255 705,255 706,254 706,254 707,253 708,252 709,252 710,251 711,251 712,250 713,249 714,249 714,248 715,247 716,247 717,246 718,246 719,245 720,245 721,244 722,243 722,243 723,242 724,241 725,241 726,240 727,239 728,239 729,238 730,238 731,237 731,236 732,236 733,235 734,235 735,234 736,233 737,233 738,232 739,231 739,231 740,230 741,229 742,229 743,228 744,228 745,227 746,226 747,226 748,225 748,224 749,224 750,223 751,222 752,222 753,221 754,221 755,220 756,219 756,219 757,218 758,217 759,217 760,216 761,215 762,215 763,214 764,214 764,213 765,212 766,212 767,211 768,210 769,210 770,209 771,208 772,208 773,207 773,206 774,206 775,205 776,205 777,204 778,203 779,203 780,202 781,201 781,201 782,200 783,200 784,199 785,198 786,198 787,197 788,196 789,196 790,195 790,195 791,194 792,193 793,192 794,192 795,191 796,191 797,190 798,190 798,189 799,188 800,188 801,187 802,186 803,186 804,185 805,184 806,184 806,183 807,183 808,182 809,181 810,181 811,180 812,179 813,178 814,178 815,177 815,177 816,176 817,175 818,175 819,174 820,173 821,173 822,172 823,171 823,171 824,170 825,169 826,169 827,168 828,167 829,167 830,166 831,165 832,165 832,164 833,163 834,163 835,162 836,161 837,161 838,160 839,160 840,159 840,158 841,158 842,157 843,157 844,156 845,155 846,155 847,154 848,154 848,153 849,152 850,152 851,151 852,151 853,150 854,149 855,149 856,148 857,148 857,147 858,146 859,146 860,145 861,145 862,144 863,143 864,143 865,142 865,142 866,141 867,140 868,140 869,139 870,138 871,138 872,137 873,136 874,136 874,135 875,135 876,134 877,133 878,133 879,132 880,132 881,131 882,130 882,130 883,129 884,128 885,128 886,127 887,126 888,126 889,125 890,124 890,124 891,123 892,122 893,122 894,121 895,121 896,120 897,119 898,119 899,118 899,117 900,117 901,116 902,116 903,115 904,114 905,114 906,113 907,112 907,111 908,111 909,110 910,109 911,109 912,108 913,108 914,107 915,106 916,106 916,105 917,105 918,104 919,104 920,103 921,102 922,102 923,101 924,100 924,100 925,99 926,98 927,98 928,97 929,96 930,96 931,95 932,95 932,94 933,93 934,93 935,92 936,91 937,91 938,90 939,89 940,89 941,88 941,87 942,87 943,86 944,86 945,85 946,85 947,84 948,83 949,83 949,82 950,81 951,81 952,80 953,79 954,79 955,78 956,78 957,77 958,76 958,76 959,75 960,75 961,74 962,73 963,73 964,72 965,71 966,71 966,70 967,70 968,69 969,68 970,68 971,68 971,68 973,68 "/>
<line opacity="0.1" stroke="#000000" stroke-width="1" x1="85" y1="699" x2="85" y2="68"/>
<line opacity="0.1" stroke="#000000" stroke-width="1" x1="94" y1="699" x2="94" y2="68"/>
<line opacity="0.1" stroke="#000000" stroke-width="1" x1="103" y1="699" x2="103" y2="68"/>
<line opacity="0.1" stroke="#000000" stroke-width="1" x1="112" y1="699" x2="112" y2="68"/>
<line opacity="0.1" stroke="#000000" stroke-width="1" x1="121" y1="699" x2="121" y2="68"/>
<line opacity="0.1" stroke="#000000" stroke-width="1" x1="130" y1="699" x2="130" y2="68"/>
<line opacity="0.1" stroke="#000000" stroke-width="1" x1="138" y1="699" x2="138" y2="68"/>
<line opacity="0.1" stroke="#000000" stroke-width="1" x1="147" y1="699" x2="147" y2="68"/>
<line opacity="0.1" stroke="#000000" stroke-width="1" x1="156" y1="699" x2="156" y2="68"/>
<line opacity="0.1" stroke="#000000" stroke-width="1" x1="165" y1="699" x2="165" y2="68"/>
<line opacity="0.1" stroke="#000000" stroke-width="1" x1="174" y1="699" x2="174" y2="68"/>
<line opacity="0.1" stroke="#000000" stroke-width="1" x1="183" y1="699" x2="183" y2="68"/>
<line opacity="0.1" stroke="#000000" stroke-width="1" x1="191" y1="699" x2="191" y2="68"/>
<line opacity="0.1" stroke="#000000" stroke-width="1" x1="200" y1="699" x2="200" y2="68"/>
<line opacity="0.1" stroke="#000000" stroke-width="1" x1="209" y1="699" x2="209" y2="68"/>
<line opacity="0.1" stroke="#000000" stroke-width="1" x1="218" y1="699" x2="218" y2="68"/>
<line opacity="0.1" stroke="#000000" stroke-width="1" x1="227" y1="699" x2="227" y2="68"/>
<line opacity="0.1" stroke="#000000" stroke-width="1" x1="236" y1="699" x2="236" y2="68"/>
<line opacity="0.1" stroke="#000000" stroke-width="1" x1="244" y1="699" x2="244" y2="68"/>
<line opacity="0.1" stroke="#000000" stroke-width="1" x1="253" y1="699" x2="253" y2="68"/>
<line opacity="0.1" stroke="#000000" stroke-width="1" x1="262" y1="699" x2="262" y2="68"/>
<line opacity="0.1" stroke="#000000" stroke-width="1" x1="271" y1="699" x2="271" y2="68"/>
<line opacity="0.1" stroke="#000000" stroke-width="1" x1="280" y1="699" x2="280" y2="68"/>
<line opacity="0.1" stroke="#000000" stroke-width="1" x1="289" y1="699" x2="289" y2="68"/>
<line opacity="0.1" stroke="#000000" stroke-width="1" x1="298" y1="699" x2="298" y2="68"/>
<line opacity="0.1" stroke="#000000" stroke-width="1" x1="306" y1="699" x2="306" y2="68"/>
<line opacity="0.1" stroke="#000000" stroke-width="1" x1="315" y1="699" x2="315" y2="68"/>
<line opacity="0.1" stroke="#000000" stroke-width="1" x1="324" y1="699" x2="324" y2="68"/>
<line opacity="0.1" stroke="#000000" stroke-width="1" x1="333" y1="699" x2="333" y2="68"/>
<line opacity="0.1" stroke="#000000" stroke-width="1" x1="342" y1="699" x2="342" y2="68"/>
<line opacity="0.1" stroke="#000000" stroke-width="1" x1="351" y1="699" x2="351" y2="68"/>
<line opacity="0.1" stroke="#000000" stroke-width="1" x1="359" y1="699" x2="359" y2="68"/>
<line opacity="0.1" stroke="#000000" stroke-width="1" x1="368" y1="699" x2="368" y2="68"/>
<line opacity="0.1" stroke="#000000" stroke-width="1" x1="377" y1="699" x2="377" y2="68"/>
<line opacity="0.1" stroke="#000000" stroke-width="1" x1="386" y1="699" x2="386" y2="68"/>
<line opacity="0.1" stroke="#000000" stroke-width="1" x1="395" y1="699" x2="395" y2="68"/>
<line opacity="0.1" stroke="#000000" stroke-width="1" x1="404" y1="699" x2="404" y2="68"/>
<line opacity="0.1" stroke="#000000" stroke-width="1" x1="412" y1="699" x2="412" y2="68"/>
<line opacity="0.1" stroke="#000000" stroke-width="1" x1="421" y1="699" x2="421" y2="68"/>
<line opacity="0.1" stroke="#000000" stroke-width="1" x1="430" y1="699" x2="430" y2="68"/>
<line opacity="0.1" stroke="#000000" stroke-width="1" x1="439" y1="699" x2="439" y2="68"/>
<line opacity="0.1" stroke="#000000" stroke-width="1" x1="448" y1="699" x2="448" y2="68"/>
<line opacity="0.1" stroke="#000000" stroke-width="1" x1="457" y1="699" x2="457" y2="68"/>
<line opacity="0.1" stroke="#000000" stroke-width="1" x1="465" y1="699" x2="465" y2="68"/>
<line opacity="0.1" stroke="#000000" stroke-width="1" x1="474" y1="699" x2="474" y2="68"/>
<line opacity="0.1" stroke="#000000" stroke-width="1" x1="483" y1="699" x2="483" y2="68"/>
<line opacity="0.1" stroke="#000000" stroke-width="1" x1="492" y1="699" x2="492" y2="68"/>
<line opacity="0.1" stroke="#000000" stroke-width="1" x1="501" y1="699" x2="501" y2="68"/>
<line opacity="0.1" stroke="#000000" stroke-width="1" x1="510" y1="699" x2="510" y2="68"/>
<line opacity="0.1" stroke="#000000" stroke-width="1" x1="518" y1="699" x2="518" y2="68"/>
<line opacity="0.1" stroke="#000000" stroke-width="1" x1="527" y1="699" x2="527" y2="68"/>
<line opacity="0.1" stroke="#000000" stroke-width="1" x1="536" y1="699" x2="536" y2="68"/>
<line opacity="0.1" stroke="#000000" stroke-width="1" x1="545" y1="699" x2="545" y2="68"/>
<line opacity="0.1" stroke="#000000" stroke-width="1" x1="554" y1="699" x2="554" y2="68"/>
<line opacity="0.1" stroke="#000000" stroke-width="1" x1="563" y1="699" x2="563" y2="68"/>
<line opacity="0.1" stroke="#000000" stroke-width="1" x1="572" y1="699" x2="572" y2="68"/>
<line opacity="0.1" stroke="#000000" stroke-width="1" x1="580" y1="699" x2="580" y2="68"/>
<line opacity="0.1" stroke="#000000" stroke-width="1" x1="589" y1="699" x2="589" y2="68"/>
<line opacity="0.1" stroke="#000000" stroke-width="1" x1="598" y1="699" x2="598" y2="68"/>
<line opacity="0.1" stroke="#000000" stroke-width="1" x1="607" y1="699" x2="607" y2="68"/>
<line opacity="0.1" stroke="#000000" stroke-width="1" x1="616" y1="699" x2="616" y2="68"/>
<line opacity="0.1" stroke="#000000" stroke-width="1" x1="625" y1="699" x2="625" y2="68"/>
<line opacity="0.1" stroke="#000000" stroke-width="1" x1="633" y1="699" x2="633" y2="68"/>
<line opacity="0.1" stroke="#000000" stroke-width="1" x1="642" y1="699" x2="642" y2="68"/>
<line opacity="0.1" stroke="#000000" stroke-width="1" x1="651" y1="699" x2="651" y2="68"/>
<line opacity="0.1" stroke="#000000" stroke-width="1" x1="660" y1="699" x2="660" y2="68"/>
<line opacity="0.1" stroke="#000000" stroke-width="1" x1="669" y1="699" x2="669" y2="68"/>
<line opacity="0.1" stroke="#000000" stroke-width="1" x1="678" y1="699" x2="678" y2="68"/>
<line opacity="0.1" stroke="#000000" stroke-width="1" x1="686" y1="699" x2="686" y2="68"/>
<line opacity="0.1" stroke="#000000" stroke-width="1" x1="695" y1="699" x2="695" y2="68"/>
<line opacity="0.1" stroke="#000000" stroke-width="1" x1="704" y1="699" x2="704" y2="68"/>
<line opacity="0.1" stroke="#000000" stroke-width="1" x1="713" y1="699" x2="713" y2="68"/>
<line opacity="0.1" stroke="#000000" stroke-width="1" x1="722" y1="699" x2="722" y2="68"/>
<line opacity="0.1" stroke="#000000" stroke-width="1" x1="731" y1="699" x2="731" y2="68"/>
<line opacity="0.1" stroke="#000000" stroke-width="1" x1="739" y1="699" x2="739" y2="68"/>
<line opacity="0.1" stroke="#000000" stroke-width="1" x1="748" y1="699" x2="748" y2="68"/>
<line opacity="0.1" stroke="#000000" stroke-width="1" x1="757" y1="699" x2="757" y2="68"/>
<line opacity="0.1" stroke="#000000" stroke-width="1" x1="766" y1="699" x2="766" y2="68"/>
<line opacity="0.1" stroke="#000000" stroke-width="1" x1="775" y1="699" x2="775" y2="68"/>
<line opacity="0.1" stroke="#000000" stroke-width="1" x1="784" y1="699" x2="784" y2="68"/>
<line opacity="0.1" stroke="#000000" stroke-width="1" x1="792" y1="699" x2="792" y2="68"/>
<line opacity="0.1" stroke="#000000" stroke-width="1" x1="801" y1="699" x2="801" y2="68"/>
<line opacity="0.1" stroke="#000000" stroke-width="1" x1="810" y1="699" x2="810" y2="68"/>
<line opacity="0.1" stroke="#000000" stroke-width="1" x1="819" y1="699" x2="819" y2="68"/>
<line opacity="0.1" stroke="#000000" stroke-width="1" x1="828" y1="699" x2="828" y2="68"/>
<line opacity="0.1" stroke="#000000" stroke-width="1" x1="837" y1="699" x2="837" y2="68"/>
<line opacity="0.1" stroke="#000000" stroke-width="1" x1="846" y1="699" x2="846" y2="68"/>
<line opacity="0.1" stroke="#000000" stroke-width="1" x1="854" y1="699" x2="854" y2="68"/>
<line opacity="0.1" stroke="#000000" stroke-width="1" x1="863" y1="699" x2="863" y2="68"/>
<line opacity="0.1" stroke="#000000" stroke-width="1" x1="872" y1="699" x2="872" y2="68"/>
<line opacity="0.1" stroke="#000000" stroke-width="1" x1="881" y1="699" x2="881" y2="68"/>
<line opacity="0.1" stroke="#000000" stroke-width="1" x1="890" y1="699" x2="890" y2="68"/>
<line opacity="0.1" stroke="#000000" stroke-width="1" x1="899" y1="699" x2="899" y2="68"/>
<line opacity="0.1" stroke="#000000" stroke-width="1" x1="907" y1="699" x2="907" y2="68"/>
<line opacity="0.1" stroke="#000000" stroke-width="1" x1="916" y1="699" x2="916" y2="68"/>
<line opacity="0.1" stroke="#000000" stroke-width="1" x1="925" y1="699" x2="925" y2="68"/>
<line opacity="0.1" stroke="#000000" stroke-width="1" x1="934" y1="699" x2="934" y2="68"/>
<line opacity="0.1" stroke="#000000" stroke-width="1" x1="943" y1="699" x2="943" y2="68"/>
<line opacity="0.1" stroke="#000000" stroke-width="1" x1="952" y1="699" x2="952" y2="68"/>
<line opacity="0.1" stroke="#000000" stroke-width="1" x1="960" y1="699" x2="960" y2="68"/>
<line opacity="0.1" stroke="#000000" stroke-width="1" x1="969" y1="699" x2="969" y2="68"/>
<line opacity="0.1" stroke="#000000" stroke-width="1" x1="78" y1="699" x2="973" y2="699"/>
<line opacity="0.1" stroke="#000000" stroke-width="1" x1="78" y1="692" x2="973" y2="692"/>
<line opacity="0.1" stroke="#000000" stroke-width="1" x1="78" y1="686" x2="973" y2="686"/>
<line opacity="0.1" stroke="#000000" stroke-width="1" x1="78" y1="680" x2="973" y2="680"/>
<line opacity="0.1" stroke="#000000" stroke-width="1" x1="78" y1="673" x2="973" y2="673"/>
<line opacity="0.1" stroke="#000000" stroke-width="1" x1="78" y1="667" x2="973" y2="667"/>
<line opacity="0.1" stroke="#000000" stroke-width="1" x1="78" y1="661" x2="973" y2="661"/>
<line opacity="0.1" stroke="#000000" stroke-width="1" x1="78" y1="654" x2="973" y2="654"/>
<line opacity="0.1" stroke="#000000" stroke-width="1" x1="78" y1="648" x2="973" y2="648"/>
<line opacity="0.1" stroke="#000000" stroke-width="1" x1="78" y1="642" x2="973" y2="642"/>
<line opacity="0.1" stroke="#000000" stroke-width="1" x1="78" y1="635" x2="973" y2="635"/>
<line opacity="0.1" stroke="#000000" stroke-width="1" x1="78" y1="629" x2="973" y2="629"/>
<line opacity="0.1" stroke="#000000" stroke-width="1" x1="78" y1="623" x2="973" y2="623"/>
<line opacity="0.1" stroke="#000000" stroke-width="1" x1="78" y1="616" x2="973" y2="616"/>
<line opacity="0.1" stroke="#000000" stroke-width="1" x1="78" y1="610" x2="973" y2="610"/>
<line opacity="0.1" stroke="#000000" stroke-width="1" x1="78" y1="604" x2="973" y2="604"/>
<line opacity="0.1" stroke="#000000" stroke-width="1" x1="78" y1="597" x2="973" y2="597"/>
<line opacity="0.1" stroke="#000000" stroke-width="1" x1="78" y1="591" x2="973" y2="591"/>
<line opacity="0.1" stroke="#000000" stroke-width="1" x1="78" y1="585" x2="973" y2="585"/>
<line opacity="0.1" stroke="#000000" stroke-width="1" x1="78" y1="578" x2="973" y2="578"/>
<line opacity="0.1" stroke="#000000" stroke-width="1" x1="78" y1="572" x2="973" y2="572"/>
<line opacity="0.1" stroke="#000000" stroke-width="1" x1="78" y1="566" x2="973" y2="566"/>
<line opacity="0.1" stroke="#000000" stroke-width="1" x1="78" y1="559" x2="973" y2="559"/>
<line opacity="0.1" stroke="#000000" stroke-width="1" x1="78" y1="553" x2="973" y2="553"/>
<line opacity="0.1" stroke="#000000" stroke-width="1" x1="78" y1="547" x2="973" y2="547"/>
<line opacity="0.1" stroke="#000000" stroke-width="1" x1="78" y1="540" x2="973" y2="540"/>
<line opacity="0.1" stroke="#000000" stroke-width="1" x1="78" y1="534" x2="973" y2="534"/>
<line opacity="0.1" stroke="#000000" stroke-width="1" x1="78" y1="528" x2="973" y2="528"/>
<line opacity="0.1" stroke="#000000" stroke-width="1" x1="78" y1="521" x2="973" y2="521"/>
<line opacity="0.1" stroke="#000000" stroke-width="1" x1="78" y1="515" x2="973" y2="515"/>
<line opacity="0.1" stroke="#000000" stroke-width="1" x1="78" y1="509" x2="973" y2="509"/>
<line opacity="0.1" stroke="#000000" stroke-width="1" x1="78" y1="502" x2="973" y2="502"/>
<line opacity="0.1" stroke="#000000" stroke-width="1" x1="78" y1="496" x2="973" y2="496"/>
<line opacity="0.1" stroke="#000000" stroke-width="1" x1="78" y1="490" x2="973" y2="490"/>
<line opacity="0.1" stroke="#000000" stroke-width="1" x1="78" y1="483" x2="973" y2="483"/>
<line opacity="0.1" stroke="#000000" stroke-width="1" x1="78" y1="477" x2="973" y2="477"/>
<line opacity="0.1" stroke="#000000" stroke-width="1" x1="78" y1="471" x2="973" y2="471"/>
<line opacity="0.1" stroke="#000000" stroke-width="1" x1="78" y1="465" x2="973" y2="465"/>
<line opacity="0.1" stroke="#000000" stroke-width="1" x1="78" y1="458" x2="973" y2="458"/>
<line opacity="0.1" stroke="#000000" stroke-width="1" x1="78" y1="452" x2="973" y2="452"/>
<line opacity="0.1" stroke="#000000" stroke-width="1" x1="78" y1="446" x2="973" y2="446"/>
<line opacity="0.1" stroke="#000000" stroke-width="1" x1="78" y1="439" x2="973" y2="439"/>
<line opacity="0.1" stroke="#000000" stroke-width="1" x1="78" y1="433" x2="973" y2="433"/>
<line opacity="0.1" stroke="#000000" stroke-width="1" x1="78" y1="427" x2="973" y2="427"/>
<line opacity="0.1" stroke="#000000" stroke-width="1" x1="78" y1="420" x2="973" y2="420"/>
<line opacity="0.1" stroke="#000000" stroke-width="1" x1="78" y1="414" x2="973" y2="414"/>
<line opacity="0.1" stroke="#000000" stroke-width="1" x1="78" y1="408" x2="973" y2="408"/>
<line opacity="0.1" stroke="#000000" stroke-width="1" x1="78" y1="401" x2="973" y2="401"/>
<line opacity="0.1" stroke="#000000" stroke-width="1" x1="78" y1="395" x2="973" y2="395"/>
<line opacity="0.1" stroke="#000000" stroke-width="1" x1="78" y1="389" x2="973" y2="389"/>
<line opacity="0.1" stroke="#000000" stroke-width="1" x1="78" y1="382" x2="973" y2="382"/>
<line opacity="0.1" stroke="#000000" stroke-width="1" x1="78" y1="376" x2="973" y2="376"/>
<line opacity="0.1" stroke="#000000" stroke-width="1" x1="78" y1="370" x2="973" y2="370"/>
<line opacity="0.1" stroke="#000000" stroke-width="1" x1="78" y1="363" x2="973" y2="363"/>
<line opacity="0.1" stroke="#000000" stroke-width="1" x1="78" y1="357" x2="973" y2="357"/>
<line opacity="0.1" stroke="#000000" stroke-width="1" x1="78" y1="351" x2="973" y2="351"/>
<line opacity="0.1" stroke="#000000" stroke-width="1" x1="78" y1="344" x2="973" y2="344"/>
<line opacity="0.1" stroke="#000000" stroke-width="1" x1="78" y1="338" x2="973" y2="338"/>
<line opacity="0.1" stroke="#000000" stroke-width="1" x1="78" y1="332" x2="973" y2="332"/>
<line opacity="0.1" stroke="#000000" stroke-width="1" x1="78" y1="325" x2="973" y2="325"/>
<line opacity="0.1" stroke="#000000" stroke-width="1" x1="78" y1="319" x2="973" y2="319"/>
<line opacity="0.1" stroke="#000000" stroke-width="1" x1="78" y1="313" x2="973" y2="313"/>
<line opacity="0.1" stroke="#000000" stroke-width="1" x1="78" y1="306" x2="973" y2="306"/>
<line opacity="0.1" stroke="#000000" stroke-width="1" x1="78" y1="300" x2="973" y2="300"/>
<line opacity="0.1" stroke="#000000" stroke-width="1" x1="78" y1="294" x2="973" y2="294"/>
<line opacity="0.1" stroke="#000000" stroke-width="1" x1="78" y1="287" x2="973" y2="287"/>
<line opacity="0.1" stroke="#000000" stroke-width="1" x1="78" y1="281" x2="973" y2="281"/>
<line opacity="0.1" stroke="#000000" stroke-width="1" x1="78" y1="275" x2="973" y2="275"/>
<line opacity="0.1" stroke="#000000" stroke-width="1" x1="78" y1="268" x2="973" y2="268"/>
<line opacity="0.1" stroke="#000000" stroke-width="1" x1="78" y1="262" x2="973" y2="262"/>
<line opacity="0.1" stroke="#000000" stroke-width="1" x1="78" y1="256" x2="973" y2="256"/>
<line opacity="0.1" stroke="#000000" stroke-width="1" x1="78" y1="250" x2="973" y2="250"/>
<line opacity="0.1" stroke="#000000" stroke-width="1" x1="78" y1="243" x2="973" y2="243"/>
<line opacity="0.1" stroke="#000000" stroke-width="1" x1="78" y1="237" x2="973" y2="237"/>
<line opacity="0.1" stroke="#000000" stroke-width="1" x1="78" y1="231" x2="973" y2="231"/>
<line opacity="0.1" stroke="#000000" stroke-width="1" x1="78" y1="224" x2="973" y2="224"/>
<line opacity="0.1" stroke="#000000" stroke-width="1" x1="78" y1="218" x2="973" y2="218"/>
<line opacity="0.1" stroke="#000000" stroke-width="1" x1="78" y1="212" x2="973" y2="212"/>
<line opacity="0.1" stroke="#000000" stroke-width="1" x1="78" y1="205" x2="973" y2="205"/>
<line opacity="0.1" stroke="#000000" stroke-width="1" x1="78" y1="199" x2="973" y2="199"/>
<line opacity="0.1" stroke="#000000" stroke-width="1" x1="78" y1="193" x2="973" y2="193"/>
<line opacity="0.1" stroke="#000000" stroke-width="1" x1="78" y1="186" x2="973" y2="186"/>
<line opacity="0.1" stroke="#000000" stroke-width="1" x1="78" y1="180" x2="973" y2="180"/>
<line opacity="0.1" stroke="#000000" stroke-width="1" x1="78" y1="174" x2="973" y2="174"/>
<line opacity="0.1" stroke="#000000" stroke-width="1" x1="78" y1="167" x2="973" y2="167"/>
<line opacity="0.1" stroke="#000000" stroke-width="1" x1="78" y1="161" x2="973" y2="161"/>
<line opacity="0.1" stroke="#000000" stroke-width="1" x1="78" y1="155" x2="973" y2="155"/>
<line opacity="0.1" stroke="#000000" stroke-width="1" x1="78" y1="148" x2="973" y2="148"/>
<line opacity="0.1" stroke="#000000" stroke-width="1" x1="78" y1="142" x2="973" y2="142"/>
<line opacity="0.1" stroke="#000000" stroke-width="1" x1="78" y1="136" x2="973" y2="136"/>
<line opacity="0.1" stroke="#000000" stroke-width="1" x1="78" y1="129" x2="973" y2="129"/>
<line opacity="0.1" stroke="#000000" stroke-width="1" x1="78" y1="123" x2="973" y2="123"/>
<line opacity="0.1" stroke="#000000" stroke-width="1" x1="78" y1="117" x2="973" y2="117"/>
<line opacity="0.1" stroke="#000000" stroke-width="1" x1="78" y1="110" x2="973" y2="110"/>
<line opacity="0.1" stroke="#000000" stroke-width="1" x1="78" y1="104" x2="973" y2="104"/>
<line opacity="0.1" stroke="#000000" stroke-width="1" x1="78" y1="98" x2="973" y2="98"/>
<line opacity="0.1" stroke="#000000" stroke-width="1" x1="78" y1="91" x2="973" y2="91"/>
<line opacity="0.1" stroke="#000000" stroke-width="1" x1="78" y1="85" x2="973" y2="85"/>
<line opacity="0.1" stroke="#000000" stroke-width="1" x1="78" y1="79" x2="973" y2="79"/>
<line opacity="0.1" stroke="#000000" stroke-width="1" x1="78" y1="72" x2="973" y2="72"/>
<text x="8" y="384" dy="0.76em" text-anchor="middle" font-family="sans-serif" font-size="9.67741935483871" opacity="1" fill="#000000" transform="rotate(270, 8, 384)">
Memory usage
</text>
<text x="526" y="760" dy="-0.5ex" text-anchor="middle" font-family="sans-serif" font-size="9.67741935483871" opacity="1" fill="#000000">
Time
</text>
<line opacity="0.2" stroke="#000000" stroke-width="1" x1="130" y1="699" x2="130" y2="68"/>
<line opacity="0.2" stroke="#000000" stroke-width="1" x1="306" y1="699" x2="306" y2="68"/>
<line opacity="0.2" stroke="#000000" stroke-width="1" x1="483" y1="699" x2="483" y2="68"/>
<line opacity="0.2" stroke="#000000" stroke-width="1" x1="660" y1="699" x2="660" y2="68"/>
<line opacity="0.2" stroke="#000000" stroke-width="1" x1="837" y1="699" x2="837" y2="68"/>
<line opacity="0.2" stroke="#000000" stroke-width="1" x1="78" y1="699" x2="973" y2="699"/>
<line opacity="0.2" stroke="#000000" stroke-width="1" x1="78" y1="635" x2="973" y2="635"/>
<line opacity="0.2" stroke="#000000" stroke-width="1" x1="78" y1="572" x2="973" y2="572"/>
<line opacity="0.2" stroke="#000000" stroke-width="1" x1="78" y1="509" x2="973" y2="509"/>
<line opacity="0.2" stroke="#000000" stroke-width="1" x1="78" y1="446" x2="973" y2="446"/>
<line opacity="0.2" stroke="#000000" stroke-width="1" x1="78" y1="382" x2="973" y2="382"/>
<line opacity="0.2" stroke="#000000" stroke-width="1" x1="78" y1="319" x2="973" y2="319"/>
<line opacity="0.2" stroke="#000000" stroke-width="1" x1="78" y1="256" x2="973" y2="256"/>
<line opacity="0.2" stroke="#000000" stroke-width="1" x1="78" y1="193" x2="973" y2="193"/>
<line opacity="0.2" stroke="#000000" stroke-width="1" x1="78" y1="129" x2="973" y2="129"/>
<polyline fill="none" opacity="1" stroke="#000000" stroke-width="1" points="77,68 77,699 "/>
<text x="68" y="699" dy="0.5ex" text-anchor="end" font-family="sans-serif" font-size="9.67741935483871" opacity="1" fill="#000000">
0.0 MB
</text>
<polyline fill="none" opacity="1" stroke="#000000" stroke-width="1" points="72,699 77,699 "/>
<text x="68" y="635" dy="0.5ex" text-anchor="end" font-family="sans-serif" font-size="9.67741935483871" opacity="1" fill="#000000">
1.9 MB
</text>
<polyline fill="none" opacity="1" stroke="#000000" stroke-width="1" points="72,635 77,635 "/>
<text x="68" y="572" dy="0.5ex" text-anchor="end" font-family="sans-serif" font-size="9.67741935483871" opacity="1" fill="#000000">
3.8 MB
</text>
<polyline fill="none" opacity="1" stroke="#000000" stroke-width="1" points="72,572 77,572 "/>
<text x="68" y="509" dy="0.5ex" text-anchor="end" font-family="sans-serif" font-size="9.67741935483871" opacity="1" fill="#000000">
5.7 MB
</text>
<polyline fill="none" opacity="1" stroke="#000000" stroke-width="1" points="72,509 77,509 "/>
<text x="68" y="446" dy="0.5ex" text-anchor="end" font-family="sans-serif" font-size="9.67741935483871" opacity="1" fill="#000000">
7.6 MB
</text>
<polyline fill="none" opacity="1" stroke="#000000" stroke-width="1" points="72,446 77,446 "/>
<text x="68" y="382" dy="0.5ex" text-anchor="end" font-family="sans-serif" font-size="9.67741935483871" opacity="1" fill="#000000">
9.5 MB
</text>
<polyline fill="none" opacity="1" stroke="#000000" stroke-width="1" points="72,382 77,382 "/>
<text x="68" y="319" dy="0.5ex" text-anchor="end" font-family="sans-serif" font-size="9.67741935483871" opacity="1" fill="#000000">
11.4 MB
</text>
<polyline fill="none" opacity="1" stroke="#000000" stroke-width="1" points="72,319 77,319 "/>
<text x="68" y="256" dy="0.5ex" text-anchor="end" font-family="sans-serif" font-size="9.67741935483871" opacity="1" fill="#000000">
13.4 MB
</text>
<polyline fill="none" opacity="1" stroke="#000000" stroke-width="1" points="72,256 77,256 "/>
<text x="68" y="193" dy="0.5ex" text-anchor="end" font-family="sans-serif" font-size="9.67741935483871" opacity="1" fill="#000000">
15.3 MB
</text>
<polyline fill="none" opacity="1" stroke="#000000" stroke-width="1" points="72,193 77,193 "/>
<text x="68" y="129" dy="0.5ex" text-anchor="end" font-family="sans-serif" font-size="9.67741935483871" opacity="1" fill="#000000">
17.2 MB
</text>
<polyline fill="none" opacity="1" stroke="#000000" stroke-width="1" points="72,129 77,129 "/>
<polyline fill="none" opacity="1" stroke="#000000" stroke-width="1" points="78,700 973,700 "/>
<text x="130" y="710" dy="0.76em" text-anchor="middle" font-family="sans-serif" font-size="9.67741935483871" opacity="1" fill="#000000">
07 17:46:40
</text>
<polyline fill="none" opacity="1" stroke="#000000" stroke-width="1" points="130,700 130,705 "/>
<text x="306" y="710" dy="0.76em" text-anchor="middle" font-family="sans-serif" font-size="9.67741935483871" opacity="1" fill="#000000">
07 20:33:20
</text>
<polyline fill="none" opacity="1" stroke="#000000" stroke-width="1" points="306,700 306,705 "/>
<text x="483" y="710" dy="0.76em" text-anchor="middle" font-family="sans-serif" font-size="9.67741935483871" opacity="1" fill="#000000">
07 23:20:00
</text>
<polyline fill="none" opacity="1" stroke="#000000" stroke-width="1" points="483,700 483,705 "/>
<text x="660" y="710" dy="0.76em" text-anchor="middle" font-family="sans-serif" font-size="9.67741935483871" opacity="1" fill="#000000">
08 02:06:40
</text>
<polyline fill="none" opacity="1" stroke="#000000" stroke-width="1" points="660,700 660,705 "/>
<text x="837" y="710" dy="0.76em" text-anchor="middle" font-family="sans-serif" font-size="9.67741935483871" opacity="1" fill="#000000">
08 04:53:20
</text>
<polyline fill="none" opacity="1" stroke="#000000" stroke-width="1" points="837,700 837,705 "/>
<polyline fill="none" opacity="1" stroke="#000000" stroke-width="1" points="78,67 974,67 "/>
<text x="130" y="58" dy="-0.5ex" text-anchor="middle" font-family="sans-serif" font-size="9.67741935483871" opacity="1" fill="#000000">
+00:49:04
</text>
<polyline fill="none" opacity="1" stroke="#000000" stroke-width="1" points="130,62 130,67 "/>
<text x="307" y="58" dy="-0.5ex" text-anchor="middle" font-family="sans-serif" font-size="9.67741935483871" opacity="1" fill="#000000">
+03:35:44
</text>
<polyline fill="none" opacity="1" stroke="#000000" stroke-width="1" points="307,62 307,67 "/>
<text x="484" y="58" dy="-0.5ex" text-anchor="middle" font-family="sans-serif" font-size="9.67741935483871" opacity="1" fill="#000000">
+06:22:24
</text>
<polyline fill="none" opacity="1" stroke="#000000" stroke-width="1" points="484,62 484,67 "/>
<text x="661" y="58" dy="-0.5ex" text-anchor="middle" font-family="sans-serif" font-size="9.67741935483871" opacity="1" fill="#000000">
+09:09:04
</text>
<polyline fill="none" opacity="1" stroke="#000000" stroke-width="1" points="661,62 661,67 "/>
<text x="838" y="58" dy="-0.5ex" text-anchor="middle" font-family="sans-serif" font-size="9.67741935483871" opacity="1" fill="#000000">
+11:55:44
</text>
<polyline fill="none" opacity="1" stroke="#000000" stroke-width="1" points="838,62 838,67 "/>
<rect x="83" y="73" width="99" height="45" opacity="0.75" fill="#FFFFFF" stroke="none"/>
<rect x="83" y="73" width="99" height="45" opacity="1" fill="none" stroke="#000000"/>
<text x="123" y="83" dy="0.76em" text-anchor="start" font-family="sans-serif" font-size="9.67741935483871" opacity="1" fill="#000000">
Temporary
</text>
<text x="123" y="98" dy="0.76em" text-anchor="start" font-family="sans-serif" font-size="9.67741935483871" opacity="1" fill="#000000">
Leaked
</text>
<rect x="93" y="83" width="10" height="10" opacity="1" fill="#3CB44B" stroke="none"/>
<rect x="93" y="98" width="10" height="10" opacity="1" fill="#E6194B" stroke="none"/>
</svg>
