<svg width="1024" height="768" viewBox="0 0 1024 768" xmlns="http://www.w3.org/2000/svg">
<rect x="0" y="0" width="1024" height="768" opacity="1" fill="#FFFFFF" stroke="none"/>
<polygon opacity="1" fill="#3CB44B" points="973,699 973,699 973,699 "/>
<polyline fill="none" opacity="1" stroke="#3CB44B" stroke-width="1" points="973,699 "/>
<polygon opacity="1" fill="#E6194B" points="78,698 78,697 79,696 80,696 81,695 82,694 83,694 84,693 85,692 86,692 87,691 87,690 88,690 89,690 90,689 91,688 92,688 93,687 94,686 95,686 95,685 96,685 97,684 98,684 99,683 100,682 101,682 102,681 103,681 104,680 104,679 105,679 106,678 107,677 108,677 109,676 110,676 111,675 112,674 112,673 113,673 114,672 115,671 116,671 117,671 118,670 119,669 120,669 120,668 121,667 122,667 123,666 124,665 125,665 126,664 127,664 128,663 129,662 129,662 130,661 131,660 132,660 133,659 134,658 135,658 136,657 137,656 137,656 138,656 139,655 140,654 141,653 142,653 143,652 144,652 145,651 146,650 146,650 147,649 148,649 149,648 150,647 151,647 152,646 153,645 154,645 154,644 155,644 156,643 157,642 158,642 159,642 160,641 161,640 162,640 162,639 163,638 164,638 165,637 166,636 167,636 168,635 169,634 170,634 171,633 171,633 172,632 173,631 174,630 175,630 176,629 177,629 178,628 179,627 179,627 180,626 181,626 182,625 183,624 184,624 185,623 186,622 187,622 188,621 188,620 189,620 190,619 191,619 192,618 193,617 194,617 195,616 196,615 196,615 197,614 198,613 199,613 200,612 201,612 202,611 203,611 204,610 204,609 205,609 206,608 207,608 208,607 209,606 210,606 211,605 212,605 213,604 213,603 214,603 215,602 216,601 217,601 218,600 219,599 220,599 221,598 221,598 222,597 223,597 224,596 225,595 226,595 227,594 228,594 229,593 230,593 230,592 231,591 232,591 233,590 234,589 235,589 236,588 237,588 238,587 238,586 239,586 240,585 241,584 242,584 243,583 244,583 245,582 246,582 246,581 247,580 248,580 249,579 250,579 251,578 252,578 253,577 254,576 255,575 255,575 256,574 257,573 258,573 259,572 260,571 261,571 262,570 263,570 263,569 264,568 265,568 266,567 267,567 268,566 269,565 270,565 271,564 272,563 272,563 273,562 274,561 275,560 276,560 277,559 278,559 279,558 280,557 280,556 281,556 282,555 283,555 284,554 285,554 286,553 287,553 288,552 288,551 289,551 290,550 291,549 292,549 293,548 294,547 295,547 296,546 297,545 297,545 298,544 299,543 300,543 301,542 302,541 303,540 304,540 305,539 305,539 306,538 307,538 308,537 309,536 310,536 311,535 312,534 313,534 314,533 314,532 315,531 316,531 317,530 318,529 319,529 320,528 321,528 322,527 322,526 323,526 324,525 325,525 326,524 327,524 328,523 329,523 330,522 330,521 331,521 332,520 333,519 334,519 335,518 336,517 337,516 338,516 339,515 339,515 340,514 341,513 342,513 343,512 344,511 345,511 346,510 347,509 347,509 348,508 349,508 350,507 351,506 352,506 353,505 354,505 355,504 356,503 356,503 357,502 358,501 359,500 360,500 361,499 362,498 363,498 364,497 364,497 365,496 366,495 367,495 368,494 369,493 370,493 371,493 372,492 372,491 373,491 374,490 375,489 376,489 377,488 378,487 379,486 380,486 381,485 381,485 382,484 383,483 384,483 385,482 386,481 387,481 388,480 389,479 389,479 390,478 391,478 392,477 393,477 394,476 395,476 396,475 397,474 398,474 398,473 399,472 400,472 401,471 402,470 403,470 404,469 405,468 406,467 406,467 407,466 408,465 409,465 410,464 411,464 412,463 413,463 414,462 414,462 415,461 416,461 417,460 418,459 419,458 420,458 421,457 422,456 423,456 423,455 424,454 425,454 426,453 427,452 428,452 429,451 430,450 431,450 431,449 432,448 433,448 434,448 435,447 436,447 437,446 438,445 439,445 440,444 440,443 441,443 442,442 443,441 444,441 445,440 446,439 447,439 448,438 448,437 449,437 450,436 451,435 452,435 453,434 454,433 455,433 456,433 456,432 457,431 458,431 459,431 460,430 461,429 462,429 463,428 464,427 465,427 465,426 466,425 467,425 468,424 469,423 470,423 471,422 472,421 473,420 473,420 474,419 475,418 476,418 477,418 478,417 479,416 480,416 481,415 482,415 482,414 483,413 484,413 485,412 486,412 487,411 488,410 489,410 490,409 490,408 491,408 492,407 493,407 494,406 495,405 496,404 497,404 498,403 498,403 499,402 500,402 501,401 502,400 503,400 504,399 505,398 506,398 507,397 507,396 508,396 509,395 510,394 511,394 512,393 513,392 514,391 515,391 515,390 516,390 517,389 518,388 519,388 520,387 521,387 522,386 523,385 524,385 524,384 525,383 526,383 527,382 528,381 529,381 530,380 531,380 532,379 532,379 533,378 534,377 535,377 536,376 537,375 538,375 539,374 540,373 540,373 541,372 542,372 543,371 544,370 545,369 546,369 547,368 548,368 549,367 549,366 550,366 551,365 552,365 553,364 554,363 555,363 556,362 557,361 557,361 558,360 559,359 560,359 561,358 562,358 563,357 564,357 565,356 566,355 566,355 567,354 568,353 569,353 570,352 571,352 572,351 573,350 574,350 574,349 575,349 576,348 577,347 578,347 579,346 580,346 581,345 582,344 582,344 583,343 584,343 585,342 586,341 587,341 588,340 589,339 590,338 591,338 591,337 592,336 593,336 594,335 595,335 596,334 597,334 598,333 599,333 599,332 600,331 601,331 602,330 603,329 604,329 605,329 606,328 607,327 608,326 608,326 609,325 610,324 611,324 612,323 613,322 614,322 615,321 616,320 616,320 617,319 618,318 619,318 620,317 621,317 622,316 623,315 624,315 624,314 625,314 626,313 627,312 628,312 629,311 630,310 631,309 632,309 633,308 633,307 634,307 635,306 636,305 637,305 638,305 639,304 640,303 641,302 641,302 642,301 643,301 644,300 645,299 646,299 647,299 648,298 649,297 650,296 650,296 651,295 652,294 653,294 654,293 655,292 656,292 657,291 658,290 658,290 659,289 660,289 661,288 662,288 663,287 664,286 665,286 666,285 666,284 667,284 668,283 669,283 670,282 671,281 672,280 673,280 674,279 675,279 675,278 676,278 677,277 678,276 679,276 680,275 681,274 682,273 683,273 683,272 684,271 685,271 686,270 687,269 688,269 689,269 690,268 691,267 692,267 692,266 693,265 694,265 695,264 696,264 697,263 698,262 699,262 700,261 700,260 701,260 702,259 703,258 704,258 705,257 706,256 707,256 708,255 708,254 709,253 710,253 711,252 712,252 713,251 714,250 715,249 716,249 717,248 717,248 718,247 719,247 720,246 721,245 722,245 723,244 724,243 725,243 725,242 726,241 727,241 728,240 729,239 730,239 731,238 732,238 733,237 734,236 734,236 735,235 736,234 737,234 738,233 739,232 740,232 741,231 742,231 742,230 743,229 744,229 745,228 746,227 747,227 748,226 749,225 750,225 750,224 751,223 752,223 753,222 754,222 755,221 756,220 757,220 758,219 759,218 759,218 760,217 761,217 762,216 763,215 764,214 765,214 766,213 767,212 767,212 768,211 769,211 770,210 771,209 772,208 773,208 774,207 775,207 776,206 776,205 777,205 778,204 779,203 780,203 781,202 782,201 783,200 784,200 784,199 785,198 786,198 787,197 788,197 789,196 790,195 791,195 792,194 792,193 793,193 794,192 795,192 796,191 797,191 798,190 799,189 800,189 801,188 801,187 802,187 803,186 804,185 805,185 806,184 807,183 808,183 809,182 809,181 810,181 811,180 812,179 813,179 814,178 815,177 816,177 817,176 818,176 818,175 819,174 820,174 821,173 822,172 823,172 824,171 825,170 826,169 826,169 827,168 828,167 829,166 830,166 831,165 832,164 833,164 834,163 834,163 835,162 836,161 837,161 838,160 839,160 840,159 841,159 842,158 843,157 843,157 844,156 845,156 846,155 847,155 848,154 849,153 850,153 851,152 851,152 852,151 853,150 854,149 855,149 856,148 857,148 858,147 859,147 860,146 860,145 861,145 862,144 863,143 864,143 865,142 866,142 867,141 868,141 868,140 869,139 870,139 871,138 872,137 873,137 874,136 875,136 876,135 876,134 877,133 878,133 879,132 880,132 881,131 882,131 883,130 884,129 885,128 885,128 886,127 887,127 888,126 889,125 890,125 891,124 892,123 893,123 893,122 894,122 895,121 896,120 897,119 898,119 899,118 900,117 901,117 902,116 902,116 903,115 904,114 905,114 906,113 907,112 908,111 909,111 910,110 910,109 911,109 912,108 913,107 914,107 915,106 916,105 917,105 918,104 918,104 919,103 920,103 921,102 922,101 923,101 924,100 925,100 926,99 927,98 927,97 928,97 929,96 930,95 931,95 932,94 933,93 934,93 935,92 935,91 936,91 937,90 938,90 939,89 940,88 941,88 942,87 943,86 944,86 944,85 945,85 946,84 947,83 948,83 949,82 950,81 951,81 952,80 952,79 953,79 954,78 955,77 956,77 957,76 958,75 959,75 960,74 960,74 961,73 962,73 963,72 964,71 965,71 966,70 967,70 968,69 969,68 969,68 970,68 971,68 971,68 973,68 973,699 78,699 "/>
<polyline fill="none" opacity="1" stroke="#E6194B" stroke-width="1" points="78,698 78,697 79,696 80,696 81,695 82,694 83,694 84,693 85,692 86,692 87,691 87,690 88,690 89,690 90,689 91,688 92,688 93,687 94,686 95,686 95,685 96,685 97,684 98,684 99,683 100,682 101,682 102,681 103,681 104,680 104,679 105,679 106,678 107,677 108,677 109,676 110,676 111,675 112,674 112,673 113,673 114,672 115,671 116,671 117,671 118,670 119,669 120,669 120,668 121,667 122,667 123,666 124,665 125,665 126,664 127,664 128,663 129,662 129,662 130,661 131,660 132,660 133,659 134,658 135,658 136,657 137,656 137,656 138,656 139,655 140,654 141,653 142,653 143,652 144,652 145,651 146,650 146,650 147,649 148,649 149,648 150,647 151,647 152,646 153,645 154,645 154,644 155,644 156,643 157,642 158,642 159,642 160,641 161,640 162,640 162,639 163,638 164,638 165,637 166,636 167,636 168,635 169,634 170,634 171,633 171,633 172,632 173,631 174,630 175,630 176,629 177,629 178,628 179,627 179,627 180,626 181,626 182,625 183,624 184,624 185,623 186,622 187,622 188,621 188,620 189,620 190,619 191,619 192,618 193,617 194,617 195,616 196,615 196,615 197,614 198,613 199,613 200,612 201,612 202,611 203,611 204,610 204,609 205,609 206,608 207,608 208,607 209,606 210,606 211,605 212,605 213,604 213,603 214,603 215,602 216,601 217,601 218,600 219,599 220,599 221,598 221,598 222,597 223,597 224,596 225,595 226,595 227,594 228,594 229,593 230,593 230,592 231,591 232,591 233,590 234,589 235,589 236,588 237,588 238,587 238,586 239,586 240,585 241,584 242,584 243,583 244,583 245,582 246,582 246,581 247,580 248,580 249,579 250,579 251,578 252,578 253,577 254,576 255,575 255,575 256,574 257,573 258,573 259,572 260,571 261,571 262,570 263,570 263,569 264,568 265,568 266,567 267,567 268,566 269,565 270,565 271,564 272,563 272,563 273,562 274,561 275,560 276,560 277,559 278,559 279,558 280,557 280,556 281,556 282,555 283,555 284,554 285,554 286,553 287,553 288,552 288,551 289,551 290,550 291,549 292,549 293,548 294,547 295,547 296,546 297,545 297,545 298,544 299,543 300,543 301,542 302,541 303,540 304,540 305,539 305,539 306,538 307,538 308,537 309,536 310,536 311,535 312,534 313,534 314,533 314,532 315,531 316,531 317,530 318,529 319,529 320,528 321,528 322,527 322,526 323,526 324,525 325,525 326,524 327,524 328,523 329,523 330,522 330,521 331,521 332,520 333,519 334,519 335,518 336,517 337,516 338,516 339,515 339,515 340,514 341,513 342,513 343,512 344,511 345,511 346,510 347,509 347,509 348,508 349,508 350,507 351,506 352,506 353,505 354,505 355,504 356,503 356,503 357,502 358,501 359,500 360,500 361,499 362,498 363,498 364,497 364,497 365,496 366,495 367,495 368,494 369,493 370,493 371,493 372,492 372,491 373,491 374,490 375,489 376,489 377,488 378,487 379,486 380,486 381,485 381,485 382,484 383,483 384,483 385,482 386,481 387,481 388,480 389,479 389,479 390,478 391,478 392,477 393,477 394,476 395,476 396,475 397,474 398,474 398,473 399,472 400,472 401,471 402,470 403,470 404,469 405,468 406,467 406,467 407,466 408,465 409,465 410,464 411,464 412,463 413,463 414,462 414,462 415,461 416,461 417,460 418,459 419,458 420,458 421,457 422,456 423,456 423,455 424,454 425,454 426,453 427,452 428,452 429,451 430,450 431,450 431,449 432,448 433,448 434,448 435,447 436,447 437,446 438,445 439,445 440,444 440,443 441,443 442,442 443,441 444,441 445,440 446,439 447,439 448,438 448,437 449,437 450,436 451,435 452,435 453,434 454,433 455,433 456,433 456,432 457,431 458,431 459,431 460,430 461,429 462,429 463,428 464,427 465,427 465,426 466,425 467,425 468,424 469,423 470,423 471,422 472,421 473,420 473,420 474,419 475,418 476,418 477,418 478,417 479,416 480,416 481,415 482,415 482,414 483,413 484,413 485,412 486,412 487,411 488,410 489,410 490,409 490,408 491,408 492,407 493,407 494,406 495,405 496,404 497,404 498,403 498,403 499,402 500,402 501,401 502,400 503,400 504,399 505,398 506,398 507,397 507,396 508,396 509,395 510,394 511,394 512,393 513,392 514,391 515,391 515,390 516,390 517,389 518,388 519,388 520,387 521,387 522,386 523,385 524,385 524,384 525,383 526,383 527,382 528,381 529,381 530,380 531,380 532,379 532,379 533,378 534,377 535,377 536,376 537,375 538,375 539,374 540,373 540,373 541,372 542,372 543,371 544,370 545,369 546,369 547,368 548,368 549,367 549,366 550,366 551,365 552,365 553,364 554,363 555,363 556,362 557,361 557,361 558,360 559,359 560,359 561,358 562,358 563,357 564,357 565,356 566,355 566,355 567,354 568,353 569,353 570,352 571,352 572,351 573,350 574,350 574,349 575,349 576,348 577,347 578,347 579,346 580,346 581,345 582,344 582,344 583,343 584,343 585,342 586,341 587,341 588,340 589,339 590,338 591,338 591,337 592,336 593,336 594,335 595,335 596,334 597,334 598,333 599,333 599,332 600,331 601,331 602,330 603,329 604,329 605,329 606,328 607,327 608,326 608,326 609,325 610,324 611,324 612,323 613,322 614,322 615,321 616,320 616,320 617,319 618,318 619,318 620,317 621,317 622,316 623,315 624,315 624,314 625,314 626,313 627,312 628,312 629,311 630,310 631,309 632,309 633,308 633,307 634,307 635,306 636,305 637,305 638,305 639,304 640,303 641,302 641,302 642,301 643,301 644,300 645,299 646,299 647,299 648,298 649,297 650,296 650,296 651,295 652,294 653,294 654,293 655,292 656,292 657,291 658,290 658,290 659,289 660,289 661,288 662,288 663,287 664,286 665,286 666,285 666,284 667,284 668,283 669,283 670,282 671,281 672,280 673,280 674,279 675,279 675,278 676,278 677,277 678,276 679,276 680,275 681,274 682,273 683,273 683,272 684,271 685,271 686,270 687,269 688,269 689,269 690,268 691,267 692,267 692,266 693,265 694,265 695,264 696,264 697,263 698,262 699,262 700,261 700,260 701,260 702,259 703,258 704,258 705,257 706,256 707,256 708,255 708,254 709,253 710,253 711,252 712,252 713,251 714,250 715,249 716,249 717,248 717,248 718,247 719,247 720,246 721,245 722,245 723,244 724,243 725,243 725,242 726,241 727,241 728,240 729,239 730,239 731,238 732,238 733,237 734,236 734,236 735,235 736,234 737,234 738,233 739,232 740,232 741,231 742,231 742,230 743,229 744,229 745,228 746,227 747,227 748,226 749,225 750,225 750,224 751,223 752,223 753,222 754,222 755,221 756,220 757,220 758,219 759,218 759,218 760,217 761,217 762,216 763,215 764,214 765,214 766,213 767,212 767,212 768,211 769,211 770,210 771,209 772,208 773,208 774,207 775,207 776,206 776,205 777,205 778,204 779,203 780,203 781,202 782,201 783,200 784,200 784,199 785,198 786,198 787,197 788,197 789,196 790,195 791,195 792,194 792,193 793,193 794,192 795,192 796,191 797,191 798,190 799,189 800,189 801,188 801,187 802,187 803,186 804,185 805,185 806,184 807,183 808,183 809,182 809,181 810,181 811,180 812,179 813,179 814,178 815,177 816,177 817,176 818,176 818,175 819,174 820,174 821,173 822,172 823,172 824,171 825,170 826,169 826,169 827,168 828,167 829,166 830,166 831,165 832,164 833,164 834,163 834,163 835,162 836,161 837,161 838,160 839,160 840,159 841,159 842,158 843,157 843,157 844,156 845,156 846,155 847,155 848,154 849,153 850,153 851,152 851,152 852,151 853,150 854,149 855,149 856,148 857,148 858,147 859,147 860,146 860,145 861,145 862,144 863,143 864,143 865,142 866,142 867,141 868,141 868,140 869,139 870,139 871,138 872,137 873,137 874,136 875,136 876,135 876,134 877,133 878,133 879,132 880,132 881,131 882,131 883,130 884,129 885,128 885,128 886,127 887,127 888,126 889,125 890,125 891,124 892,123 893,123 893,122 894,122 895,121 896,120 897,119 898,119 899,118 900,117 901,117 902,116 902,116 903,115 904,114 905,114 906,113 907,112 908,111 909,111 910,110 910,109 911,109 912,108 913,107 914,107 915,106 916,105 917,105 918,104 918,104 919,103 920,103 921,102 922,101 923,101 924,100 925,100 926,99 927,98 927,97 928,97 929,96 930,95 931,95 932,94 933,93 934,93 935,92 935,91 936,91 937,90 938,90 939,89 940,88 941,88 942,87 943,86 944,86 944,85 945,85 946,84 947,83 948,83 949,82 950,81 951,81 952,80 952,79 953,79 954,78 955,77 956,77 957,76 958,75 959,75 960,74 960,74 961,73 962,73 963,72 964,71 965,71 966,70 967,70 968,69 969,68 969,68 970,68 971,68 971,68 973,68 "/>
<line opacity="0.1" stroke="#000000" stroke-width="1" x1="85" y1="699" x2="85" y2="68"/>
<line opacity="0.1" stroke="#000000" stroke-width="1" x1="94" y1="699" x2="94" y2="68"/>
<line opacity="0.1" stroke="#000000" stroke-width="1" x1="103" y1="699" x2="103" y2="68"/>
<line opacity="0.1" stroke="#000000" stroke-width="1" x1="112" y1="699" x2="112" y2="68"/>
<line opacity="0.1" stroke="#000000" stroke-width="1" x1="121" y1="699" x2="121" y2="68"/>
<line opacity="0.1" stroke="#000000" stroke-width="1" x1="130" y1="699" x2="130" y2="68"/>
<line opacity="0.1" stroke="#000000" stroke-width="1" x1="138" y1="699" x2="138" y2="68"/>
<line opacity="0.1" stroke="#000000" stroke-width="1" x1="147" y1="699" x2="147" y2="68"/>
<line opacity="0.1" stroke="#000000" stroke-width="1" x1="156" y1="699" x2="156" y2="68"/>
<line opacity="0.1" stroke="#000000" stroke-width="1" x1="165" y1="699" x2="165" y2="68"/>
<line opacity="0.1" stroke="#000000" stroke-width="1" x1="174" y1="699" x2="174" y2="68"/>
<line opacity="0.1" stroke="#000000" stroke-width="1" x1="183" y1="699" x2="183" y2="68"/>
<line opacity="0.1" stroke="#000000" stroke-width="1" x1="191" y1="699" x2="191" y2="68"/>
<line opacity="0.1" stroke="#000000" stroke-width="1" x1="200" y1="699" x2="200" y2="68"/>
<line opacity="0.1" stroke="#000000" stroke-width="1" x1="209" y1="699" x2="209" y2="68"/>
<line opacity="0.1" stroke="#000000" stroke-width="1" x1="218" y1="699" x2="218" y2="68"/>
<line opacity="0.1" stroke="#000000" stroke-width="1" x1="227" y1="699" x2="227" y2="68"/>
<line opacity="0.1" stroke="#000000" stroke-width="1" x1="236" y1="699" x2="236" y2="68"/>
<line opacity="0.1" stroke="#000000" stroke-width="1" x1="244" y1="699" x2="244" y2="68"/>
<line opacity="0.1" stroke="#000000" stroke-width="1" x1="253" y1="699" x2="253" y2="68"/>
<line opacity="0.1" stroke="#000000" stroke-width="1" x1="262" y1="699" x2="262" y2="68"/>
<line opacity="0.1" stroke="#000000" stroke-width="1" x1="271" y1="699" x2="271" y2="68"/>
<line opacity="0.1" stroke="#000000" stroke-width="1" x1="280" y1="699" x2="280" y2="68"/>
<line opacity="0.1" stroke="#000000" stroke-width="1" x1="289" y1="699" x2="289" y2="68"/>
<line opacity="0.1" stroke="#000000" stroke-width="1" x1="298" y1="699" x2="298" y2="68"/>
<line opacity="0.1" stroke="#000000" stroke-width="1" x1="306" y1="699" x2="306" y2="68"/>
<line opacity="0.1" stroke="#000000" stroke-width="1" x1="315" y1="699" x2="315" y2="68"/>
<line opacity="0.1" stroke="#000000" stroke-width="1" x1="324" y1="699" x2="324" y2="68"/>
<line opacity="0.1" stroke="#000000" stroke-width="1" x1="333" y1="699" x2="333" y2="68"/>
<line opacity="0.1" stroke="#000000" stroke-width="1" x1="342" y1="699" x2="342" y2="68"/>
<line opacity="0.1" stroke="#000000" stroke-width="1" x1="351" y1="699" x2="351" y2="68"/>
<line opacity="0.1" stroke="#000000" stroke-width="1" x1="359" y1="699" x2="359" y2="68"/>
<line opacity="0.1" stroke="#000000" stroke-width="1" x1="368" y1="699" x2="368" y2="68"/>
<line opacity="0.1" stroke="#000000" stroke-width="1" x1="377" y1="699" x2="377" y2="68"/>
<line opacity="0.1" stroke="#000000" stroke-width="1" x1="386" y1="699" x2="386" y2="68"/>
<line opacity="0.1" stroke="#000000" stroke-width="1" x1="395" y1="699" x2="395" y2="68"/>
<line opacity="0.1" stroke="#000000" stroke-width="1" x1="404" y1="699" x2="404" y2="68"/>
<line opacity="0.1" stroke="#000000" stroke-width="1" x1="412" y1="699" x2="412" y2="68"/>
<line opacity="0.1" stroke="#000000" stroke-width="1" x1="421" y1="699" x2="421" y2="68"/>
<line opacity="0.1" stroke="#000000" stroke-width="1" x1="430" y1="699" x2="430" y2="68"/>
<line opacity="0.1" stroke="#000000" stroke-width="1" x1="439" y1="699" x2="439" y2="68"/>
<line opacity="0.1" stroke="#000000" stroke-width="1" x1="448" y1="699" x2="448" y2="68"/>
<line opacity="0.1" stroke="#000000" stroke-width="1" x1="457" y1="699" x2="457" y2="68"/>
<line opacity="0.1" stroke="#000000" stroke-width="1" x1="465" y1="699" x2="465" y2="68"/>
<line opacity="0.1" stroke="#000000" stroke-width="1" x1="474" y1="699" x2="474" y2="68"/>
<line opacity="0.1" stroke="#000000" stroke-width="1" x1="483" y1="699" x2="483" y2="68"/>
<line opacity="0.1" stroke="#000000" stroke-width="1" x1="492" y1="699" x2="492" y2="68"/>
<line opacity="0.1" stroke="#000000" stroke-width="1" x1="501" y1="699" x2="501" y2="68"/>
<line opacity="0.1" stroke="#000000" stroke-width="1" x1="510" y1="699" x2="510" y2="68"/>
<line opacity="0.1" stroke="#000000" stroke-width="1" x1="518" y1="699" x2="518" y2="68"/>
<line opacity="0.1" stroke="#000000" stroke-width="1" x1="527" y1="699" x2="527" y2="68"/>
<line opacity="0.1" stroke="#000000" stroke-width="1" x1="536" y1="699" x2="536" y2="68"/>
<line opacity="0.1" stroke="#000000" stroke-width="1" x1="545" y1="699" x2="545" y2="68"/>
<line opacity="0.1" stroke="#000000" stroke-width="1" x1="554" y1="699" x2="554" y2="68"/>
<line opacity="0.1" stroke="#000000" stroke-width="1" x1="563" y1="699" x2="563" y2="68"/>
<line opacity="0.1" stroke="#000000" stroke-width="1" x1="572" y1="699" x2="572" y2="68"/>
<line opacity="0.1" stroke="#000000" stroke-width="1" x1="580" y1="699" x2="580" y2="68"/>
<line opacity="0.1" stroke="#000000" stroke-width="1" x1="589" y1="699" x2="589" y2="68"/>
<line opacity="0.1" stroke="#000000" stroke-width="1" x1="598" y1="699" x2="598" y2="68"/>
<line opacity="0.1" stroke="#000000" stroke-width="1" x1="607" y1="699" x2="607" y2="68"/>
<line opacity="0.1" stroke="#000000" stroke-width="1" x1="616" y1="699" x2="616" y2="68"/>
<line opacity="0.1" stroke="#000000" stroke-width="1" x1="625" y1="699" x2="625" y2="68"/>
<line opacity="0.1" stroke="#000000" stroke-width="1" x1="633" y1="699" x2="633" y2="68"/>
<line opacity="0.1" stroke="#000000" stroke-width="1" x1="642" y1="699" x2="642" y2="68"/>
<line opacity="0.1" stroke="#000000" stroke-width="1" x1="651" y1="699" x2="651" y2="68"/>
<line opacity="0.1" stroke="#000000" stroke-width="1" x1="660" y1="699" x2="660" y2="68"/>
<line opacity="0.1" stroke="#000000" stroke-width="1" x1="669" y1="699" x2="669" y2="68"/>
<line opacity="0.1" stroke="#000000" stroke-width="1" x1="678" y1="699" x2="678" y2="68"/>
<line opacity="0.1" stroke="#000000" stroke-width="1" x1="686" y1="699" x2="686" y2="68"/>
<line opacity="0.1" stroke="#000000" stroke-width="1" x1="695" y1="699" x2="695" y2="68"/>
<line opacity="0.1" stroke="#000000" stroke-width="1" x1="704" y1="699" x2="704" y2="68"/>
<line opacity="0.1" stroke="#000000" stroke-width="1" x1="713" y1="699" x2="713" y2="68"/>
<line opacity="0.1" stroke="#000000" stroke-width="1" x1="722" y1="699" x2="722" y2="68"/>
<line opacity="0.1" stroke="#000000" stroke-width="1" x1="731" y1="699" x2="731" y2="68"/>
<line opacity="0.1" stroke="#000000" stroke-width="1" x1="739" y1="699" x2="739" y2="68"/>
<line opacity="0.1" stroke="#000000" stroke-width="1" x1="748" y1="699" x2="748" y2="68"/>
<line opacity="0.1" stroke="#000000" stroke-width="1" x1="757" y1="699" x2="757" y2="68"/>
<line opacity="0.1" stroke="#000000" stroke-width="1" x1="766" y1="699" x2="766" y2="68"/>
<line opacity="0.1" stroke="#000000" stroke-width="1" x1="775" y1="699" x2="775" y2="68"/>
<line opacity="0.1" stroke="#000000" stroke-width="1" x1="784" y1="699" x2="784" y2="68"/>
<line opacity="0.1" stroke="#000000" stroke-width="1" x1="792" y1="699" x2="792" y2="68"/>
<line opacity="0.1" stroke="#000000" stroke-width="1" x1="801" y1="699" x2="801" y2="68"/>
<line opacity="0.1" stroke="#000000" stroke-width="1" x1="810" y1="699" x2="810" y2="68"/>
<line opacity="0.1" stroke="#000000" stroke-width="1" x1="819" y1="699" x2="819" y2="68"/>
<line opacity="0.1" stroke="#000000" stroke-width="1" x1="828" y1="699" x2="828" y2="68"/>
<line opacity="0.1" stroke="#000000" stroke-width="1" x1="837" y1="699" x2="837" y2="68"/>
<line opacity="0.1" stroke="#000000" stroke-width="1" x1="846" y1="699" x2="846" y2="68"/>
<line opacity="0.1" stroke="#000000" stroke-width="1" x1="854" y1="699" x2="854" y2="68"/>
<line opacity="0.1" stroke="#000000" stroke-width="1" x1="863" y1="699" x2="863" y2="68"/>
<line opacity="0.1" stroke="#000000" stroke-width="1" x1="872" y1="699" x2="872" y2="68"/>
<line opacity="0.1" stroke="#000000" stroke-width="1" x1="881" y1="699" x2="881" y2="68"/>
<line opacity="0.1" stroke="#000000" stroke-width="1" x1="890" y1="699" x2="890" y2="68"/>
<line opacity="0.1" stroke="#000000" stroke-width="1" x1="899" y1="699" x2="899" y2="68"/>
<line opacity="0.1" stroke="#000000" stroke-width="1" x1="907" y1="699" x2="907" y2="68"/>
<line opacity="0.1" stroke="#000000" stroke-width="1" x1="916" y1="699" x2="916" y2="68"/>
<line opacity="0.1" stroke="#000000" stroke-width="1" x1="925" y1="699" x2="925" y2="68"/>
<line opacity="0.1" stroke="#000000" stroke-width="1" x1="934" y1="699" x2="934" y2="68"/>
<line opacity="0.1" stroke="#000000" stroke-width="1" x1="943" y1="699" x2="943" y2="68"/>
<line opacity="0.1" stroke="#000000" stroke-width="1" x1="952" y1="699" x2="952" y2="68"/>
<line opacity="0.1" stroke="#000000" stroke-width="1" x1="960" y1="699" x2="960" y2="68"/>
<line opacity="0.1" stroke="#000000" stroke-width="1" x1="969" y1="699" x2="969" y2="68"/>
<line opacity="0.1" stroke="#000000" stroke-width="1" x1="78" y1="699" x2="973" y2="699"/>
<line opacity="0.1" stroke="#000000" stroke-width="1" x1="78" y1="691" x2="973" y2="691"/>
<line opacity="0.1" stroke="#000000" stroke-width="1" x1="78" y1="684" x2="973" y2="684"/>
<line opacity="0.1" stroke="#000000" stroke-width="1" x1="78" y1="677" x2="973" y2="677"/>
<line opacity="0.1" stroke="#000000" stroke-width="1" x1="78" y1="669" x2="973" y2="669"/>
<line opacity="0.1" stroke="#000000" stroke-width="1" x1="78" y1="662" x2="973" y2="662"/>
<line opacity="0.1" stroke="#000000" stroke-width="1" x1="78" y1="655" x2="973" y2="655"/>
<line opacity="0.1" stroke="#000000" stroke-width="1" x1="78" y1="647" x2="973" y2="647"/>
<line opacity="0.1" stroke="#000000" stroke-width="1" x1="78" y1="640" x2="973" y2="640"/>
<line opacity="0.1" stroke="#000000" stroke-width="1" x1="78" y1="633" x2="973" y2="633"/>
<line opacity="0.1" stroke="#000000" stroke-width="1" x1="78" y1="625" x2="973" y2="625"/>
<line opacity="0.1" stroke="#000000" stroke-width="1" x1="78" y1="618" x2="973" y2="618"/>
<line opacity="0.1" stroke="#000000" stroke-width="1" x1="78" y1="611" x2="973" y2="611"/>
<line opacity="0.1" stroke="#000000" stroke-width="1" x1="78" y1="603" x2="973" y2="603"/>
<line opacity="0.1" stroke="#000000" stroke-width="1" x1="78" y1="596" x2="973" y2="596"/>
<line opacity="0.1" stroke="#000000" stroke-width="1" x1="78" y1="589" x2="973" y2="589"/>
<line opacity="0.1" stroke="#000000" stroke-width="1" x1="78" y1="581" x2="973" y2="581"/>
<line opacity="0.1" stroke="#000000" stroke-width="1" x1="78" y1="574" x2="973" y2="574"/>
<line opacity="0.1" stroke="#000000" stroke-width="1" x1="78" y1="567" x2="973" y2="567"/>
<line opacity="0.1" stroke="#000000" stroke-width="1" x1="78" y1="559" x2="973" y2="559"/>
<line opacity="0.1" stroke="#000000" stroke-width="1" x1="78" y1="552" x2="973" y2="552"/>
<line opacity="0.1" stroke="#000000" stroke-width="1" x1="78" y1="545" x2="973" y2="545"/>
<line opacity="0.1" stroke="#000000" stroke-width="1" x1="78" y1="537" x2="973" y2="537"/>
<line opacity="0.1" stroke="#000000" stroke-width="1" x1="78" y1="530" x2="973" y2="530"/>
<line opacity="0.1" stroke="#000000" stroke-width="1" x1="78" y1="523" x2="973" y2="523"/>
<line opacity="0.1" stroke="#000000" stroke-width="1" x1="78" y1="515" x2="973" y2="515"/>
<line opacity="0.1" stroke="#000000" stroke-width="1" x1="78" y1="508" x2="973" y2="508"/>
<line opacity="0.1" stroke="#000000" stroke-width="1" x1="78" y1="501" x2="973" y2="501"/>
<line opacity="0.1" stroke="#000000" stroke-width="1" x1="78" y1="494" x2="973" y2="494"/>
<line opacity="0.1" stroke="#000000" stroke-width="1" x1="78" y1="486" x2="973" y2="486"/>
<line opacity="0.1" stroke="#000000" stroke-width="1" x1="78" y1="479" x2="973" y2="479"/>
<line opacity="0.1" stroke="#000000" stroke-width="1" x1="78" y1="472" x2="973" y2="472"/>
<line opacity="0.1" stroke="#000000" stroke-width="1" x1="78" y1="464" x2="973" y2="464"/>
<line opacity="0.1" stroke="#000000" stroke-width="1" x1="78" y1="457" x2="973" y2="457"/>
<line opacity="0.1" stroke="#000000" stroke-width="1" x1="78" y1="450" x2="973" y2="450"/>
<line opacity="0.1" stroke="#000000" stroke-width="1" x1="78" y1="442" x2="973" y2="442"/>
<line opacity="0.1" stroke="#000000" stroke-width="1" x1="78" y1="435" x2="973" y2="435"/>
<line opacity="0.1" stroke="#000000" stroke-width="1" x1="78" y1="428" x2="973" y2="428"/>
<line opacity="0.1" stroke="#000000" stroke-width="1" x1="78" y1="420" x2="973" y2="420"/>
<line opacity="0.1" stroke="#000000" stroke-width="1" x1="78" y1="413" x2="973" y2="413"/>
<line opacity="0.1" stroke="#000000" stroke-width="1" x1="78" y1="406" x2="973" y2="406"/>
<line opacity="0.1" stroke="#000000" stroke-width="1" x1="78" y1="398" x2="973" y2="398"/>
<line opacity="0.1" stroke="#000000" stroke-width="1" x1="78" y1="391" x2="973" y2="391"/>
<line opacity="0.1" stroke="#000000" stroke-width="1" x1="78" y1="384" x2="973" y2="384"/>
<line opacity="0.1" stroke="#000000" stroke-width="1" x1="78" y1="376" x2="973" y2="376"/>
<line opacity="0.1" stroke="#000000" stroke-width="1" x1="78" y1="369" x2="973" y2="369"/>
<line opacity="0.1" stroke="#000000" stroke-width="1" x1="78" y1="362" x2="973" y2="362"/>
<line opacity="0.1" stroke="#000000" stroke-width="1" x1="78" y1="354" x2="973" y2="354"/>
<line opacity="0.1" stroke="#000000" stroke-width="1" x1="78" y1="347" x2="973" y2="347"/>
<line opacity="0.1" stroke="#000000" stroke-width="1" x1="78" y1="340" x2="973" y2="340"/>
<line opacity="0.1" stroke="#000000" stroke-width="1" x1="78" y1="332" x2="973" y2="332"/>
<line opacity="0.1" stroke="#000000" stroke-width="1" x1="78" y1="325" x2="973" y2="325"/>
<line opacity="0.1" stroke="#000000" stroke-width="1" x1="78" y1="318" x2="973" y2="318"/>
<line opacity="0.1" stroke="#000000" stroke-width="1" x1="78" y1="311" x2="973" y2="311"/>
<line opacity="0.1" stroke="#000000" stroke-width="1" x1="78" y1="303" x2="973" y2="303"/>
<line opacity="0.1" stroke="#000000" stroke-width="1" x1="78" y1="296" x2="973" y2="296"/>
<line opacity="0.1" stroke="#000000" stroke-width="1" x1="78" y1="289" x2="973" y2="289"/>
<line opacity="0.1" stroke="#000000" stroke-width="1" x1="78" y1="281" x2="973" y2="281"/>
<line opacity="0.1" stroke="#000000" stroke-width="1" x1="78" y1="274" x2="973" y2="274"/>
<line opacity="0.1" stroke="#000000" stroke-width="1" x1="78" y1="267" x2="973" y2="267"/>
<line opacity="0.1" stroke="#000000" stroke-width="1" x1="78" y1="259" x2="973" y2="259"/>
<line opacity="0.1" stroke="#000000" stroke-width="1" x1="78" y1="252" x2="973" y2="252"/>
<line opacity="0.1" stroke="#000000" stroke-width="1" x1="78" y1="245" x2="973" y2="245"/>
<line opacity="0.1" stroke="#000000" stroke-width="1" x1="78" y1="237" x2="973" y2="237"/>
<line opacity="0.1" stroke="#000000" stroke-width="1" x1="78" y1="230" x2="973" y2="230"/>
<line opacity="0.1" stroke="#000000" stroke-width="1" x1="78" y1="223" x2="973" y2="223"/>
<line opacity="0.1" stroke="#000000" stroke-width="1" x1="78" y1="215" x2="973" y2="215"/>
<line opacity="0.1" stroke="#000000" stroke-width="1" x1="78" y1="208" x2="973" y2="208"/>
<line opacity="0.1" stroke="#000000" stroke-width="1" x1="78" y1="201" x2="973" y2="201"/>
<line opacity="0.1" stroke="#000000" stroke-width="1" x1="78" y1="193" x2="973" y2="193"/>
<line opacity="0.1" stroke="#000000" stroke-width="1" x1="78" y1="186" x2="973" y2="186"/>
<line opacity="0.1" stroke="#000000" stroke-width="1" x1="78" y1="179" x2="973" y2="179"/>
<line opacity="0.1" stroke="#000000" stroke-width="1" x1="78" y1="171" x2="973" y2="171"/>
<line opacity="0.1" stroke="#000000" stroke-width="1" x1="78" y1="164" x2="973" y2="164"/>
<line opacity="0.1" stroke="#000000" stroke-width="1" x1="78" y1="157" x2="973" y2="157"/>
<line opacity="0.1" stroke="#000000" stroke-width="1" x1="78" y1="149" x2="973" y2="149"/>
<line opacity="0.1" stroke="#000000" stroke-width="1" x1="78" y1="142" x2="973" y2="142"/>
<line opacity="0.1" stroke="#000000" stroke-width="1" x1="78" y1="135" x2="973" y2="135"/>
<line opacity="0.1" stroke="#000000" stroke-width="1" x1="78" y1="128" x2="973" y2="128"/>
<line opacity="0.1" stroke="#000000" stroke-width="1" x1="78" y1="120" x2="973" y2="120"/>
<line opacity="0.1" stroke="#000000" stroke-width="1" x1="78" y1="113" x2="973" y2="113"/>
<line opacity="0.1" stroke="#000000" stroke-width="1" x1="78" y1="106" x2="973" y2="106"/>
<line opacity="0.1" stroke="#000000" stroke-width="1" x1="78" y1="98" x2="973" y2="98"/>
<line opacity="0.1" stroke="#000000" stroke-width="1" x1="78" y1="91" x2="973" y2="91"/>
<line opacity="0.1" stroke="#000000" stroke-width="1" x1="78" y1="84" x2="973" y2="84"/>
<line opacity="0.1" stroke="#000000" stroke-width="1" x1="78" y1="76" x2="973" y2="76"/>
<line opacity="0.1" stroke="#000000" stroke-width="1" x1="78" y1="69" x2="973" y2="69"/>
<text x="8" y="384" dy="0.76em" text-anchor="middle" font-family="sans-serif" font-size="9.67741935483871" opacity="1" fill="#000000" transform="rotate(270, 8, 384)">
Memory usage
</text>
<text x="526" y="760" dy="-0.5ex" text-anchor="middle" font-family="sans-serif" font-size="9.67741935483871" opacity="1" fill="#000000">
Time
</text>
<line opacity="0.2" stroke="#000000" stroke-width="1" x1="130" y1="699" x2="130" y2="68"/>
<line opacity="0.2" stroke="#000000" stroke-width="1" x1="306" y1="699" x2="306" y2="68"/>
<line opacity="0.2" stroke="#000000" stroke-width="1" x1="483" y1="699" x2="483" y2="68"/>
<line opacity="0.2" stroke="#000000" stroke-width="1" x1="660" y1="699" x2="660" y2="68"/>
<line opacity="0.2" stroke="#000000" stroke-width="1" x1="837" y1="699" x2="837" y2="68"/>
<line opacity="0.2" stroke="#000000" stroke-width="1" x1="78" y1="699" x2="973" y2="699"/>
<line opacity="0.2" stroke="#000000" stroke-width="1" x1="78" y1="625" x2="973" y2="625"/>
<line opacity="0.2" stroke="#000000" stroke-width="1" x1="78" y1="552" x2="973" y2="552"/>
<line opacity="0.2" stroke="#000000" stroke-width="1" x1="78" y1="479" x2="973" y2="479"/>
<line opacity="0.2" stroke="#000000" stroke-width="1" x1="78" y1="406" x2="973" y2="406"/>
<line opacity="0.2" stroke="#000000" stroke-width="1" x1="78" y1="332" x2="973" y2="332"/>
<line opacity="0.2" stroke="#000000" stroke-width="1" x1="78" y1="259" x2="973" y2="259"/>
<line opacity="0.2" stroke="#000000" stroke-width="1" x1="78" y1="186" x2="973" y2="186"/>
<line opacity="0.2" stroke="#000000" stroke-width="1" x1="78" y1="113" x2="973" y2="113"/>
<polyline fill="none" opacity="1" stroke="#000000" stroke-width="1" points="77,68 77,699 "/>
<text x="68" y="699" dy="0.5ex" text-anchor="end" font-family="sans-serif" font-size="9.67741935483871" opacity="1" fill="#000000">
0.00 MB
</text>
<polyline fill="none" opacity="1" stroke="#000000" stroke-width="1" points="72,699 77,699 "/>
<text x="68" y="625" dy="0.5ex" text-anchor="end" font-family="sans-serif" font-size="9.67741935483871" opacity="1" fill="#000000">
0.95 MB
</text>
<polyline fill="none" opacity="1" stroke="#000000" stroke-width="1" points="72,625 77,625 "/>
<text x="68" y="552" dy="0.5ex" text-anchor="end" font-family="sans-serif" font-size="9.67741935483871" opacity="1" fill="#000000">
1.91 MB
</text>
<polyline fill="none" opacity="1" stroke="#000000" stroke-width="1" points="72,552 77,552 "/>
<text x="68" y="479" dy="0.5ex" text-anchor="end" font-family="sans-serif" font-size="9.67741935483871" opacity="1" fill="#000000">
2.86 MB
</text>
<polyline fill="none" opacity="1" stroke="#000000" stroke-width="1" points="72,479 77,479 "/>
<text x="68" y="406" dy="0.5ex" text-anchor="end" font-family="sans-serif" font-size="9.67741935483871" opacity="1" fill="#000000">
3.81 MB
</text>
<polyline fill="none" opacity="1" stroke="#000000" stroke-width="1" points="72,406 77,406 "/>
<text x="68" y="332" dy="0.5ex" text-anchor="end" font-family="sans-serif" font-size="9.67741935483871" opacity="1" fill="#000000">
4.77 MB
</text>
<polyline fill="none" opacity="1" stroke="#000000" stroke-width="1" points="72,332 77,332 "/>
<text x="68" y="259" dy="0.5ex" text-anchor="end" font-family="sans-serif" font-size="9.67741935483871" opacity="1" fill="#000000">
5.72 MB
</text>
<polyline fill="none" opacity="1" stroke="#000000" stroke-width="1" points="72,259 77,259 "/>
<text x="68" y="186" dy="0.5ex" text-anchor="end" font-family="sans-serif" font-size="9.67741935483871" opacity="1" fill="#000000">
6.68 MB
</text>
<polyline fill="none" opacity="1" stroke="#000000" stroke-width="1" points="72,186 77,186 "/>
<text x="68" y="113" dy="0.5ex" text-anchor="end" font-family="sans-serif" font-size="9.67741935483871" opacity="1" fill="#000000">
7.63 MB
</text>
<polyline fill="none" opacity="1" stroke="#000000" stroke-width="1" points="72,113 77,113 "/>
<polyline fill="none" opacity="1" stroke="#000000" stroke-width="1" points="78,700 973,700 "/>
<text x="130" y="710" dy="0.76em" text-anchor="middle" font-family="sans-serif" font-size="9.67741935483871" opacity="1" fill="#000000">
07 17:46:40
</text>
<polyline fill="none" opacity="1" stroke="#000000" stroke-width="1" points="130,700 130,705 "/>
<text x="306" y="710" dy="0.76em" text-anchor="middle" font-family="sans-serif" font-size="9.67741935483871" opacity="1" fill="#000000">
07 20:33:20
</text>
<polyline fill="none" opacity="1" stroke="#000000" stroke-width="1" points="306,700 306,705 "/>
<text x="483" y="710" dy="0.76em" text-anchor="middle" font-family="sans-serif" font-size="9.67741935483871" opacity="1" fill="#000000">
07 23:20:00
</text>
<polyline fill="none" opacity="1" stroke="#000000" stroke-width="1" points="483,700 483,705 "/>
<text x="660" y="710" dy="0.76em" text-anchor="middle" font-family="sans-serif" font-size="9.67741935483871" opacity="1" fill="#000000">
08 02:06:40
</text>
<polyline fill="none" opacity="1" stroke="#000000" stroke-width="1" points="660,700 660,705 "/>
<text x="837" y="710" dy="0.76em" text-anchor="middle" font-family="sans-serif" font-size="9.67741935483871" opacity="1" fill="#000000">
08 04:53:20
</text>
<polyline fill="none" opacity="1" stroke="#000000" stroke-width="1" points="837,700 837,705 "/>
<polyline fill="none" opacity="1" stroke="#000000" stroke-width="1" points="78,67 974,67 "/>
<text x="130" y="58" dy="-0.5ex" text-anchor="middle" font-family="sans-serif" font-size="9.67741935483871" opacity="1" fill="#000000">
+00:49:04
</text>
<polyline fill="none" opacity="1" stroke="#000000" stroke-width="1" points="130,62 130,67 "/>
<text x="307" y="58" dy="-0.5ex" text-anchor="middle" font-family="sans-serif" font-size="9.67741935483871" opacity="1" fill="#000000">
+03:35:44
</text>
<polyline fill="none" opacity="1" stroke="#000000" stroke-width="1" points="307,62 307,67 "/>
<text x="484" y="58" dy="-0.5ex" text-anchor="middle" font-family="sans-serif" font-size="9.67741935483871" opacity="1" fill="#000000">
+06:22:24
</text>
<polyline fill="none" opacity="1" stroke="#000000" stroke-width="1" points="484,62 484,67 "/>
<text x="661" y="58" dy="-0.5ex" text-anchor="middle" font-family="sans-serif" font-size="9.67741935483871" opacity="1" fill="#000000">
+09:09:04
</text>
<polyline fill="none" opacity="1" stroke="#000000" stroke-width="1" points="661,62 661,67 "/>
<text x="838" y="58" dy="-0.5ex" text-anchor="middle" font-family="sans-serif" font-size="9.67741935483871" opacity="1" fill="#000000">
+11:55:44
</text>
<polyline fill="none" opacity="1" stroke="#000000" stroke-width="1" points="838,62 838,67 "/>
<rect x="83" y="73" width="99" height="45" opacity="0.75" fill="#FFFFFF" stroke="none"/>
<rect x="83" y="73" width="99" height="45" opacity="1" fill="none" stroke="#000000"/>
<text x="123" y="83" dy="0.76em" text-anchor="start" font-family="sans-serif" font-size="9.67741935483871" opacity="1" fill="#000000">
Temporary
</text>
<text x="123" y="98" dy="0.76em" text-anchor="start" font-family="sans-serif" font-size="9.67741935483871" opacity="1" fill="#000000">
Leaked
</text>
<rect x="93" y="83" width="10" height="10" opacity="1" fill="#3CB44B" stroke="none"/>
<rect x="93" y="98" width="10" height="10" opacity="1" fill="#E6194B" stroke="none"/>
</svg>
