<svg width="1024" height="768" viewBox="0 0 1024 768" xmlns="http://www.w3.org/2000/svg">
<rect x="0" y="0" width="1024" height="768" opacity="1" fill="#FFFFFF" stroke="none"/>
<polygon opacity="1" fill="#3CB44B" points="79,694 80,694 80,694 81,694 82,694 83,694 84,694 84,694 85,684 86,684 87,684 88,684 89,684 89,684 90,684 91,684 92,684 93,684 94,684 94,684 95,684 96,684 97,684 98,684 98,669 99,669 100,669 101,669 102,669 103,669 103,669 104,669 105,669 106,669 107,669 107,669 108,669 109,669 110,669 111,669 112,669 112,669 113,669 114,669 115,669 116,669 116,669 117,669 118,669 119,669 120,669 121,669 121,669 122,669 123,669 124,669 125,669 125,639 126,639 127,639 128,639 129,639 130,639 130,639 131,639 132,639 133,639 134,639 134,639 135,639 136,639 137,639 138,639 139,639 139,639 140,639 141,639 142,639 143,639 144,639 144,639 145,639 146,639 147,639 148,639 148,639 149,639 150,639 151,639 152,639 153,639 153,639 154,639 155,639 156,639 157,639 157,639 158,639 159,639 160,639 161,639 162,639 162,639 163,639 164,639 165,639 166,639 166,639 167,639 168,639 169,639 170,639 171,639 171,639 172,639 173,639 174,639 175,639 175,639 176,639 177,580 178,580 179,580 180,580 180,580 181,580 182,580 183,580 184,580 184,580 185,580 186,580 187,580 188,580 189,580 189,580 190,580 191,580 192,580 193,580 193,580 194,580 195,580 196,580 197,580 198,580 198,580 199,580 200,580 201,580 202,580 203,580 203,580 204,580 205,580 206,580 207,580 207,580 208,580 209,580 210,580 211,580 212,580 212,580 213,580 214,580 215,580 216,580 216,580 217,580 218,580 219,580 220,580 221,580 221,580 222,580 223,580 224,580 225,580 225,580 226,580 227,580 228,580 229,580 230,580 230,580 231,580 232,580 233,580 234,580 234,580 235,580 236,580 237,580 238,580 239,580 239,580 240,580 241,580 242,580 243,580 243,580 244,580 245,580 246,580 247,580 248,580 248,580 249,580 250,580 251,580 252,580 253,580 253,580 254,580 255,580 256,580 257,580 257,580 258,580 259,580 260,580 261,580 262,580 262,580 263,580 264,580 265,580 266,580 266,580 267,580 268,580 269,580 270,580 271,580 271,580 272,580 273,580 274,580 275,580 275,580 276,580 277,580 278,580 279,580 280,580 280,580 281,580 282,580 283,580 284,462 284,462 285,462 286,462 287,462 288,462 289,462 289,462 290,462 291,462 292,462 293,462 293,462 294,462 295,462 296,462 297,462 298,462 298,462 299,462 300,462 301,462 302,462 303,462 303,462 304,462 305,462 306,462 307,462 307,462 308,462 309,462 310,462 311,462 312,462 312,462 313,462 314,462 315,462 316,462 316,462 317,462 318,462 319,462 320,462 321,462 321,462 322,462 323,462 324,462 325,462 325,462 326,462 327,462 328,462 329,462 330,462 330,462 331,462 332,462 333,462 334,462 334,462 335,462 336,462 337,462 338,462 339,462 339,462 340,462 341,462 342,462 343,462 343,462 344,462 345,462 346,462 347,462 348,462 348,462 349,462 350,462 351,462 352,462 352,462 353,462 354,462 355,462 356,462 357,462 357,462 358,462 359,462 360,462 361,462 362,462 362,462 363,462 364,462 365,462 366,462 366,462 367,462 368,462 369,462 370,462 371,462 371,462 372,462 373,462 374,462 375,462 375,462 376,462 377,462 378,462 379,462 380,462 380,462 381,462 382,462 383,462 384,462 384,462 385,462 386,462 387,462 388,462 389,462 389,462 390,462 391,462 392,462 393,462 393,462 394,462 395,462 396,462 397,462 398,462 398,462 399,462 400,462 401,462 402,462 402,462 403,462 404,462 405,462 406,462 407,462 407,462 408,462 409,462 410,462 411,462 412,462 412,462 413,462 414,462 415,462 416,462 416,462 417,462 418,462 419,462 420,462 421,462 421,462 422,462 423,462 424,462 425,462 425,462 426,462 427,462 428,462 429,462 430,462 430,462 431,462 432,462 433,462 434,462 434,462 435,462 436,462 437,462 438,462 439,462 439,462 440,462 441,462 442,462 443,462 443,462 444,462 445,462 446,462 447,462 448,462 448,462 449,462 450,462 451,462 452,462 452,462 453,462 454,462 455,462 456,462 457,462 457,462 458,462 459,462 460,462 461,462 462,462 462,462 463,462 464,462 465,462 466,462 466,462 467,462 468,462 469,462 470,462 471,462 471,462 472,462 473,462 474,462 475,462 475,462 476,462 477,462 478,462 479,462 480,462 480,462 481,462 482,462 483,462 484,462 484,462 485,462 486,462 487,225 488,225 489,225 489,225 490,225 491,225 492,225 493,225 493,225 494,225 495,225 496,225 497,225 498,225 498,225 499,225 500,225 501,225 502,225 502,225 503,225 504,225 505,225 506,225 507,225 507,225 508,225 509,225 510,225 511,225 512,225 512,225 513,225 514,225 515,225 516,225 516,225 517,225 518,225 519,225 520,225 521,225 521,225 522,225 523,225 524,225 525,225 525,225 526,225 527,225 528,225 529,225 530,225 530,225 531,225 532,225 533,225 534,225 534,225 535,225 536,225 537,225 538,225 539,225 539,225 540,225 541,225 542,225 543,225 543,225 544,225 545,225 546,225 547,225 548,225 548,225 549,225 550,225 551,225 552,225 552,225 553,225 554,225 555,225 556,225 557,225 557,225 558,225 559,225 560,225 561,225 561,225 562,225 563,225 564,225 565,225 566,225 566,225 567,225 568,225 569,225 570,225 571,225 571,225 572,225 573,225 574,225 575,225 575,225 576,225 577,225 578,225 579,225 580,225 580,225 581,225 582,225 583,225 584,225 584,225 585,225 586,225 587,225 588,225 589,225 589,225 590,225 591,225 592,225 593,225 593,225 594,225 595,225 596,225 597,225 598,225 598,225 599,225 600,225 601,225 602,225 602,225 603,225 604,225 605,225 606,225 607,225 607,225 608,225 609,225 610,225 611,225 611,225 612,225 613,225 614,225 615,225 616,225 616,225 617,225 618,225 619,225 620,225 621,225 621,225 622,225 623,225 624,225 625,225 625,225 626,225 627,225 628,225 629,225 630,225 630,225 631,225 632,225 633,225 634,225 634,225 635,225 636,225 637,225 638,225 639,225 639,225 640,225 641,225 642,225 643,225 643,225 644,225 645,225 646,225 647,225 648,225 648,225 649,225 650,225 651,225 652,225 652,225 653,225 654,225 655,225 656,225 657,225 657,225 658,225 659,225 660,225 661,225 661,225 662,225 663,225 664,225 665,225 666,225 666,225 667,225 668,225 669,225 670,225 671,225 671,225 672,225 673,225 674,225 675,225 675,225 676,225 677,225 678,225 679,225 680,225 680,225 681,225 682,225 683,225 684,225 684,225 685,225 686,225 687,225 688,225 689,225 689,225 690,225 691,225 692,225 693,225 693,225 694,225 695,225 696,225 697,225 698,225 698,225 699,225 700,225 701,225 702,225 702,225 703,225 704,225 705,225 706,225 707,225 707,225 708,225 709,225 710,225 711,225 711,225 712,225 713,225 714,225 715,225 716,225 716,225 717,225 718,225 719,225 720,225 720,225 721,225 722,225 723,225 724,225 725,225 725,225 726,225 727,225 728,225 729,225 730,225 730,225 731,225 732,225 733,225 734,225 734,225 735,225 736,225 737,225 738,225 739,225 739,225 740,225 741,225 742,225 743,225 743,225 744,225 745,225 746,225 747,225 748,225 748,225 749,225 750,225 751,225 752,225 752,225 753,225 754,225 755,225 756,225 757,225 757,225 758,225 759,225 760,225 761,225 761,225 762,225 763,225 764,225 765,225 766,225 766,225 767,225 768,225 769,225 770,225 770,225 771,225 772,225 773,225 774,225 775,225 775,225 776,225 777,225 778,225 779,225 780,225 780,225 781,225 782,225 783,225 784,225 784,225 785,225 786,225 787,225 788,225 789,225 789,225 790,225 791,225 792,225 793,225 793,225 794,225 795,225 796,225 797,225 798,225 798,225 799,225 800,225 801,225 802,225 802,225 803,225 804,225 805,225 806,225 807,225 807,225 808,225 809,225 810,225 811,225 811,225 812,225 813,225 814,225 815,225 816,225 816,225 817,225 818,225 819,225 820,225 820,225 821,225 822,225 823,225 824,225 825,225 825,225 826,225 827,225 828,225 829,225 830,225 830,225 831,225 832,225 833,225 834,225 834,225 835,225 836,225 837,225 838,225 839,225 839,225 840,225 841,225 842,225 843,225 843,225 844,225 845,225 846,225 847,225 848,225 848,225 849,225 850,225 851,225 852,225 852,225 853,225 854,225 855,225 856,225 857,225 857,225 858,225 859,225 860,225 861,225 861,225 862,225 863,225 864,225 865,225 866,225 866,225 867,225 868,225 869,225 870,225 870,225 871,225 872,225 873,225 874,225 875,225 875,225 876,225 877,225 878,225 879,225 880,225 880,225 881,225 882,225 883,225 884,225 884,225 885,225 886,225 887,225 888,225 889,225 889,225 890,225 891,225 892,225 893,225 893,225 894,225 895,225 896,225 897,225 898,225 898,225 898,68 898,68 973,68 973,699 79,699 "/>
<polyline fill="none" opacity="1" stroke="#3CB44B" stroke-width="1" points="79,694 80,694 80,694 81,694 82,694 83,694 84,694 84,694 85,684 86,684 87,684 88,684 89,684 89,684 90,684 91,684 92,684 93,684 94,684 94,684 95,684 96,684 97,684 98,684 98,669 99,669 100,669 101,669 102,669 103,669 103,669 104,669 105,669 106,669 107,669 107,669 108,669 109,669 110,669 111,669 112,669 112,669 113,669 114,669 115,669 116,669 116,669 117,669 118,669 119,669 120,669 121,669 121,669 122,669 123,669 124,669 125,669 125,639 126,639 127,639 128,639 129,639 130,639 130,639 131,639 132,639 133,639 134,639 134,639 135,639 136,639 137,639 138,639 139,639 139,639 140,639 141,639 142,639 143,639 144,639 144,639 145,639 146,639 147,639 148,639 148,639 149,639 150,639 151,639 152,639 153,639 153,639 154,639 155,639 156,639 157,639 157,639 158,639 159,639 160,639 161,639 162,639 162,639 163,639 164,639 165,639 166,639 166,639 167,639 168,639 169,639 170,639 171,639 171,639 172,639 173,639 174,639 175,639 175,639 176,639 177,580 178,580 179,580 180,580 180,580 181,580 182,580 183,580 184,580 184,580 185,580 186,580 187,580 188,580 189,580 189,580 190,580 191,580 192,580 193,580 193,580 194,580 195,580 196,580 197,580 198,580 198,580 199,580 200,580 201,580 202,580 203,580 203,580 204,580 205,580 206,580 207,580 207,580 208,580 209,580 210,580 211,580 212,580 212,580 213,580 214,580 215,580 216,580 216,580 217,580 218,580 219,580 220,580 221,580 221,580 222,580 223,580 224,580 225,580 225,580 226,580 227,580 228,580 229,580 230,580 230,580 231,580 232,580 233,580 234,580 234,580 235,580 236,580 237,580 238,580 239,580 239,580 240,580 241,580 242,580 243,580 243,580 244,580 245,580 246,580 247,580 248,580 248,580 249,580 250,580 251,580 252,580 253,580 253,580 254,580 255,580 256,580 257,580 257,580 258,580 259,580 260,580 261,580 262,580 262,580 263,580 264,580 265,580 266,580 266,580 267,580 268,580 269,580 270,580 271,580 271,580 272,580 273,580 274,580 275,580 275,580 276,580 277,580 278,580 279,580 280,580 280,580 281,580 282,580 283,580 284,462 284,462 285,462 286,462 287,462 288,462 289,462 289,462 290,462 291,462 292,462 293,462 293,462 294,462 295,462 296,462 297,462 298,462 298,462 299,462 300,462 301,462 302,462 303,462 303,462 304,462 305,462 306,462 307,462 307,462 308,462 309,462 310,462 311,462 312,462 312,462 313,462 314,462 315,462 316,462 316,462 317,462 318,462 319,462 320,462 321,462 321,462 322,462 323,462 324,462 325,462 325,462 326,462 327,462 328,462 329,462 330,462 330,462 331,462 332,462 333,462 334,462 334,462 335,462 336,462 337,462 338,462 339,462 339,462 340,462 341,462 342,462 343,462 343,462 344,462 345,462 346,462 347,462 348,462 348,462 349,462 350,462 351,462 352,462 352,462 353,462 354,462 355,462 356,462 357,462 357,462 358,462 359,462 360,462 361,462 362,462 362,462 363,462 364,462 365,462 366,462 366,462 367,462 368,462 369,462 370,462 371,462 371,462 372,462 373,462 374,462 375,462 375,462 376,462 377,462 378,462 379,462 380,462 380,462 381,462 382,462 383,462 384,462 384,462 385,462 386,462 387,462 388,462 389,462 389,462 390,462 391,462 392,462 393,462 393,462 394,462 395,462 396,462 397,462 398,462 398,462 399,462 400,462 401,462 402,462 402,462 403,462 404,462 405,462 406,462 407,462 407,462 408,462 409,462 410,462 411,462 412,462 412,462 413,462 414,462 415,462 416,462 416,462 417,462 418,462 419,462 420,462 421,462 421,462 422,462 423,462 424,462 425,462 425,462 426,462 427,462 428,462 429,462 430,462 430,462 431,462 432,462 433,462 434,462 434,462 435,462 436,462 437,462 438,462 439,462 439,462 440,462 441,462 442,462 443,462 443,462 444,462 445,462 446,462 447,462 448,462 448,462 449,462 450,462 451,462 452,462 452,462 453,462 454,462 455,462 456,462 457,462 457,462 458,462 459,462 460,462 461,462 462,462 462,462 463,462 464,462 465,462 466,462 466,462 467,462 468,462 469,462 470,462 471,462 471,462 472,462 473,462 474,462 475,462 475,462 476,462 477,462 478,462 479,462 480,462 480,462 481,462 482,462 483,462 484,462 484,462 485,462 486,462 487,225 488,225 489,225 489,225 490,225 491,225 492,225 493,225 493,225 494,225 495,225 496,225 497,225 498,225 498,225 499,225 500,225 501,225 502,225 502,225 503,225 504,225 505,225 506,225 507,225 507,225 508,225 509,225 510,225 511,225 512,225 512,225 513,225 514,225 515,225 516,225 516,225 517,225 518,225 519,225 520,225 521,225 521,225 522,225 523,225 524,225 525,225 525,225 526,225 527,225 528,225 529,225 530,225 530,225 531,225 532,225 533,225 534,225 534,225 535,225 536,225 537,225 538,225 539,225 539,225 540,225 541,225 542,225 543,225 543,225 544,225 545,225 546,225 547,225 548,225 548,225 549,225 550,225 551,225 552,225 552,225 553,225 554,225 555,225 556,225 557,225 557,225 558,225 559,225 560,225 561,225 561,225 562,225 563,225 564,225 565,225 566,225 566,225 567,225 568,225 569,225 570,225 571,225 571,225 572,225 573,225 574,225 575,225 575,225 576,225 577,225 578,225 579,225 580,225 580,225 581,225 582,225 583,225 584,225 584,225 585,225 586,225 587,225 588,225 589,225 589,225 590,225 591,225 592,225 593,225 593,225 594,225 595,225 596,225 597,225 598,225 598,225 599,225 600,225 601,225 602,225 602,225 603,225 604,225 605,225 606,225 607,225 607,225 608,225 609,225 610,225 611,225 611,225 612,225 613,225 614,225 615,225 616,225 616,225 617,225 618,225 619,225 620,225 621,225 621,225 622,225 623,225 624,225 625,225 625,225 626,225 627,225 628,225 629,225 630,225 630,225 631,225 632,225 633,225 634,225 634,225 635,225 636,225 637,225 638,225 639,225 639,225 640,225 641,225 642,225 643,225 643,225 644,225 645,225 646,225 647,225 648,225 648,225 649,225 650,225 651,225 652,225 652,225 653,225 654,225 655,225 656,225 657,225 657,225 658,225 659,225 660,225 661,225 661,225 662,225 663,225 664,225 665,225 666,225 666,225 667,225 668,225 669,225 670,225 671,225 671,225 672,225 673,225 674,225 675,225 675,225 676,225 677,225 678,225 679,225 680,225 680,225 681,225 682,225 683,225 684,225 684,225 685,225 686,225 687,225 688,225 689,225 689,225 690,225 691,225 692,225 693,225 693,225 694,225 695,225 696,225 697,225 698,225 698,225 699,225 700,225 701,225 702,225 702,225 703,225 704,225 705,225 706,225 707,225 707,225 708,225 709,225 710,225 711,225 711,225 712,225 713,225 714,225 715,225 716,225 716,225 717,225 718,225 719,225 720,225 720,225 721,225 722,225 723,225 724,225 725,225 725,225 726,225 727,225 728,225 729,225 730,225 730,225 731,225 732,225 733,225 734,225 734,225 735,225 736,225 737,225 738,225 739,225 739,225 740,225 741,225 742,225 743,225 743,225 744,225 745,225 746,225 747,225 748,225 748,225 749,225 750,225 751,225 752,225 752,225 753,225 754,225 755,225 756,225 757,225 757,225 758,225 759,225 760,225 761,225 761,225 762,225 763,225 764,225 765,225 766,225 766,225 767,225 768,225 769,225 770,225 770,225 771,225 772,225 773,225 774,225 775,225 775,225 776,225 777,225 778,225 779,225 780,225 780,225 781,225 782,225 783,225 784,225 784,225 785,225 786,225 787,225 788,225 789,225 789,225 790,225 791,225 792,225 793,225 793,225 794,225 795,225 796,225 797,225 798,225 798,225 799,225 800,225 801,225 802,225 802,225 803,225 804,225 805,225 806,225 807,225 807,225 808,225 809,225 810,225 811,225 811,225 812,225 813,225 814,225 815,225 816,225 816,225 817,225 818,225 819,225 820,225 820,225 821,225 822,225 823,225 824,225 825,225 825,225 826,225 827,225 828,225 829,225 830,225 830,225 831,225 832,225 833,225 834,225 834,225 835,225 836,225 837,225 838,225 839,225 839,225 840,225 841,225 842,225 843,225 843,225 844,225 845,225 846,225 847,225 848,225 848,225 849,225 850,225 851,225 852,225 852,225 853,225 854,225 855,225 856,225 857,225 857,225 858,225 859,225 860,225 861,225 861,225 862,225 863,225 864,225 865,225 866,225 866,225 867,225 868,225 869,225 870,225 870,225 871,225 872,225 873,225 874,225 875,225 875,225 876,225 877,225 878,225 879,225 880,225 880,225 881,225 882,225 883,225 884,225 884,225 885,225 886,225 887,225 888,225 889,225 889,225 890,225 891,225 892,225 893,225 893,225 894,225 895,225 896,225 897,225 898,225 898,225 898,68 898,68 973,68 "/>
<polygon opacity="1" fill="#E6194B" points="79,699 80,699 80,699 81,699 82,699 83,699 84,699 84,699 85,699 86,699 87,699 88,699 89,699 89,699 90,699 91,699 92,699 93,699 94,699 94,699 95,699 96,699 97,699 98,699 98,699 99,699 100,699 101,699 102,699 103,699 103,699 104,699 105,699 106,699 107,699 107,699 108,699 109,699 110,699 111,699 112,699 112,699 113,699 114,699 115,699 116,699 116,699 117,699 118,699 119,699 120,699 121,699 121,699 122,699 123,699 124,699 125,699 125,699 126,699 127,699 128,699 129,699 130,699 130,699 131,699 132,699 133,699 134,699 134,699 135,699 136,699 137,699 138,699 139,699 139,699 140,699 141,699 142,699 143,699 144,699 144,699 145,699 146,699 147,699 148,699 148,699 149,699 150,699 151,699 152,699 153,699 153,699 154,699 155,699 156,699 157,699 157,699 158,699 159,699 160,699 161,699 162,699 162,699 163,699 164,699 165,699 166,699 166,699 167,699 168,699 169,699 170,699 171,699 171,699 172,699 173,699 174,699 175,699 175,699 176,699 177,699 178,699 179,699 180,699 180,699 181,699 182,699 183,699 184,699 184,699 185,699 186,699 187,699 188,699 189,699 189,699 190,699 191,699 192,699 193,699 193,699 194,699 195,699 196,699 197,699 198,699 198,699 199,699 200,699 201,699 202,699 203,699 203,699 204,699 205,699 206,699 207,699 207,699 208,699 209,699 210,699 211,699 212,699 212,699 213,699 214,699 215,699 216,699 216,699 217,699 218,699 219,699 220,699 221,699 221,699 222,699 223,699 224,699 225,699 225,699 226,699 227,699 228,699 229,699 230,699 230,699 231,699 232,699 233,699 234,699 234,699 235,699 236,699 237,699 238,699 239,699 239,699 240,699 241,699 242,699 243,699 243,699 244,699 245,699 246,699 247,699 248,699 248,699 249,699 250,699 251,699 252,699 253,699 253,699 254,699 255,699 256,699 257,699 257,699 258,699 259,699 260,699 261,699 262,699 262,699 263,699 264,699 265,699 266,699 266,699 267,699 268,699 269,699 270,699 271,699 271,699 272,699 273,699 274,699 275,699 275,699 276,699 277,699 278,699 279,699 280,699 280,699 281,699 282,699 283,699 284,699 284,699 285,699 286,699 287,699 288,699 289,699 289,699 290,699 291,699 292,699 293,699 293,699 294,699 295,699 296,699 297,699 298,699 298,699 299,699 300,699 301,699 302,699 303,699 303,699 304,699 305,699 306,699 307,699 307,699 308,699 309,699 310,699 311,699 312,699 312,699 313,699 314,699 315,699 316,699 316,699 317,699 318,699 319,699 320,699 321,699 321,699 322,699 323,699 324,699 325,699 325,699 326,699 327,699 328,699 329,699 330,699 330,699 331,699 332,699 333,699 334,699 334,699 335,699 336,699 337,699 338,699 339,699 339,699 340,699 341,699 342,699 343,699 343,699 344,699 345,699 346,699 347,699 348,699 348,699 349,699 350,699 351,699 352,699 352,699 353,699 354,699 355,699 356,699 357,699 357,699 358,699 359,699 360,699 361,699 362,699 362,699 363,699 364,699 365,699 366,699 366,699 367,699 368,699 369,699 370,699 371,699 371,699 372,699 373,699 374,699 375,699 375,699 376,699 377,699 378,699 379,699 380,699 380,699 381,699 382,699 383,699 384,699 384,699 385,699 386,699 387,699 388,699 389,699 389,699 390,699 391,699 392,699 393,699 393,699 394,699 395,699 396,699 397,699 398,699 398,699 399,699 400,699 401,699 402,699 402,699 403,699 404,699 405,699 406,699 407,699 407,699 408,699 409,699 410,699 411,699 412,699 412,699 413,699 414,699 415,699 416,699 416,699 417,699 418,699 419,699 420,699 421,699 421,699 422,699 423,699 424,699 425,699 425,699 426,699 427,699 428,699 429,699 430,699 430,699 431,699 432,699 433,699 434,699 434,699 435,699 436,699 437,699 438,699 439,699 439,699 440,699 441,699 442,699 443,699 443,699 444,699 445,699 446,699 447,699 448,699 448,699 449,699 450,699 451,699 452,699 452,699 453,699 454,699 455,699 456,699 457,699 457,699 458,699 459,699 460,699 461,699 462,699 462,699 463,699 464,699 465,699 466,699 466,699 467,699 468,699 469,699 470,699 471,699 471,699 472,699 473,699 474,699 475,699 475,699 476,699 477,699 478,699 479,699 480,699 480,699 481,699 482,699 483,699 484,699 484,699 485,699 486,699 487,699 488,699 489,699 489,699 490,699 491,699 492,699 493,699 493,699 494,699 495,699 496,699 497,699 498,699 498,699 499,699 500,699 501,699 502,699 502,699 503,699 504,699 505,699 506,699 507,699 507,699 508,699 509,699 510,699 511,699 512,699 512,699 513,699 514,699 515,699 516,699 516,699 517,699 518,699 519,699 520,699 521,699 521,699 522,699 523,699 524,699 525,699 525,699 526,699 527,699 528,699 529,699 530,699 530,699 531,699 532,699 533,699 534,699 534,699 535,699 536,699 537,699 538,699 539,699 539,699 540,699 541,699 542,699 543,699 543,699 544,699 545,699 546,699 547,699 548,699 548,699 549,699 550,699 551,699 552,699 552,699 553,699 554,699 555,699 556,699 557,699 557,699 558,699 559,699 560,699 561,699 561,699 562,699 563,699 564,699 565,699 566,699 566,699 567,699 568,699 569,699 570,699 571,699 571,699 572,699 573,699 574,699 575,699 575,699 576,699 577,699 578,699 579,699 580,699 580,699 581,699 582,699 583,699 584,699 584,699 585,699 586,699 587,699 588,699 589,699 589,699 590,699 591,699 592,699 593,699 593,699 594,699 595,699 596,699 597,699 598,699 598,699 599,699 600,699 601,699 602,699 602,699 603,699 604,699 605,699 606,699 607,699 607,699 608,699 609,699 610,699 611,699 611,699 612,699 613,699 614,699 615,699 616,699 616,699 617,699 618,699 619,699 620,699 621,699 621,699 622,699 623,699 624,699 625,699 625,699 626,699 627,699 628,699 629,699 630,699 630,699 631,699 632,699 633,699 634,699 634,699 635,699 636,699 637,699 638,699 639,699 639,699 640,699 641,699 642,699 643,699 643,699 644,699 645,699 646,699 647,699 648,699 648,699 649,699 650,699 651,699 652,699 652,699 653,699 654,699 655,699 656,699 657,699 657,699 658,699 659,699 660,699 661,699 661,699 662,699 663,699 664,699 665,699 666,699 666,699 667,699 668,699 669,699 670,699 671,699 671,699 672,699 673,699 674,699 675,699 675,699 676,699 677,699 678,699 679,699 680,699 680,699 681,699 682,699 683,699 684,699 684,699 685,699 686,699 687,699 688,699 689,699 689,699 690,699 691,699 692,699 693,699 693,699 694,699 695,699 696,699 697,699 698,699 698,699 699,699 700,699 701,699 702,699 702,699 703,699 704,699 705,699 706,699 707,699 707,699 708,699 709,699 710,699 711,699 711,699 712,699 713,699 714,699 715,699 716,699 716,699 717,699 718,699 719,699 720,699 720,699 721,699 722,699 723,699 724,699 725,699 725,699 726,699 727,699 728,699 729,699 730,699 730,699 731,699 732,699 733,699 734,699 734,699 735,699 736,699 737,699 738,699 739,699 739,699 740,699 741,699 742,699 743,699 743,699 744,699 745,699 746,699 747,699 748,699 748,699 749,699 750,699 751,699 752,699 752,699 753,699 754,699 755,699 756,699 757,699 757,699 758,699 759,699 760,699 761,699 761,699 762,699 763,699 764,699 765,699 766,699 766,699 767,699 768,699 769,699 770,699 770,699 771,699 772,699 773,699 774,699 775,699 775,699 776,699 777,699 778,699 779,699 780,699 780,699 781,699 782,699 783,699 784,699 784,699 785,699 786,699 787,699 788,699 789,699 789,699 790,699 791,699 792,699 793,699 793,699 794,699 795,699 796,699 797,699 798,699 798,699 799,699 800,699 801,699 802,699 802,699 803,699 804,699 805,699 806,699 807,699 807,699 808,699 809,699 810,699 811,699 811,699 812,699 813,699 814,699 815,699 816,699 816,699 817,699 818,699 819,699 820,699 820,699 821,699 822,699 823,699 824,699 825,699 825,699 826,699 827,699 828,699 829,699 830,699 830,699 831,699 832,699 833,699 834,699 834,699 835,699 836,699 837,699 838,699 839,699 839,699 840,699 841,699 842,699 843,699 843,699 844,699 845,699 846,699 847,699 848,699 848,699 849,699 850,699 851,699 852,699 852,699 853,699 854,699 855,699 856,699 857,699 857,699 858,699 859,699 860,699 861,699 861,699 862,699 863,699 864,699 865,699 866,699 866,699 867,699 868,699 869,699 870,699 870,699 871,699 872,699 873,699 874,699 875,699 875,699 876,699 877,699 878,699 879,699 880,699 880,699 881,699 882,699 883,699 884,699 884,699 885,699 886,699 887,699 888,699 889,699 889,699 890,699 891,699 892,699 893,699 893,699 894,699 895,699 896,699 897,699 898,699 898,699 898,68 898,68 973,68 973,699 79,699 "/>
<polyline fill="none" opacity="1" stroke="#E6194B" stroke-width="1" points="79,699 80,699 80,699 81,699 82,699 83,699 84,699 84,699 85,699 86,699 87,699 88,699 89,699 89,699 90,699 91,699 92,699 93,699 94,699 94,699 95,699 96,699 97,699 98,699 98,699 99,699 100,699 101,699 102,699 103,699 103,699 104,699 105,699 106,699 107,699 107,699 108,699 109,699 110,699 111,699 112,699 112,699 113,699 114,699 115,699 116,699 116,699 117,699 118,699 119,699 120,699 121,699 121,699 122,699 123,699 124,699 125,699 125,699 126,699 127,699 128,699 129,699 130,699 130,699 131,699 132,699 133,699 134,699 134,699 135,699 136,699 137,699 138,699 139,699 139,699 140,699 141,699 142,699 143,699 144,699 144,699 145,699 146,699 147,699 148,699 148,699 149,699 150,699 151,699 152,699 153,699 153,699 154,699 155,699 156,699 157,699 157,699 158,699 159,699 160,699 161,699 162,699 162,699 163,699 164,699 165,699 166,699 166,699 167,699 168,699 169,699 170,699 171,699 171,699 172,699 173,699 174,699 175,699 175,699 176,699 177,699 178,699 179,699 180,699 180,699 181,699 182,699 183,699 184,699 184,699 185,699 186,699 187,699 188,699 189,699 189,699 190,699 191,699 192,699 193,699 193,699 194,699 195,699 196,699 197,699 198,699 198,699 199,699 200,699 201,699 202,699 203,699 203,699 204,699 205,699 206,699 207,699 207,699 208,699 209,699 210,699 211,699 212,699 212,699 213,699 214,699 215,699 216,699 216,699 217,699 218,699 219,699 220,699 221,699 221,699 222,699 223,699 224,699 225,699 225,699 226,699 227,699 228,699 229,699 230,699 230,699 231,699 232,699 233,699 234,699 234,699 235,699 236,699 237,699 238,699 239,699 239,699 240,699 241,699 242,699 243,699 243,699 244,699 245,699 246,699 247,699 248,699 248,699 249,699 250,699 251,699 252,699 253,699 253,699 254,699 255,699 256,699 257,699 257,699 258,699 259,699 260,699 261,699 262,699 262,699 263,699 264,699 265,699 266,699 266,699 267,699 268,699 269,699 270,699 271,699 271,699 272,699 273,699 274,699 275,699 275,699 276,699 277,699 278,699 279,699 280,699 280,699 281,699 282,699 283,699 284,699 284,699 285,699 286,699 287,699 288,699 289,699 289,699 290,699 291,699 292,699 293,699 293,699 294,699 295,699 296,699 297,699 298,699 298,699 299,699 300,699 301,699 302,699 303,699 303,699 304,699 305,699 306,699 307,699 307,699 308,699 309,699 310,699 311,699 312,699 312,699 313,699 314,699 315,699 316,699 316,699 317,699 318,699 319,699 320,699 321,699 321,699 322,699 323,699 324,699 325,699 325,699 326,699 327,699 328,699 329,699 330,699 330,699 331,699 332,699 333,699 334,699 334,699 335,699 336,699 337,699 338,699 339,699 339,699 340,699 341,699 342,699 343,699 343,699 344,699 345,699 346,699 347,699 348,699 348,699 349,699 350,699 351,699 352,699 352,699 353,699 354,699 355,699 356,699 357,699 357,699 358,699 359,699 360,699 361,699 362,699 362,699 363,699 364,699 365,699 366,699 366,699 367,699 368,699 369,699 370,699 371,699 371,699 372,699 373,699 374,699 375,699 375,699 376,699 377,699 378,699 379,699 380,699 380,699 381,699 382,699 383,699 384,699 384,699 385,699 386,699 387,699 388,699 389,699 389,699 390,699 391,699 392,699 393,699 393,699 394,699 395,699 396,699 397,699 398,699 398,699 399,699 400,699 401,699 402,699 402,699 403,699 404,699 405,699 406,699 407,699 407,699 408,699 409,699 410,699 411,699 412,699 412,699 413,699 414,699 415,699 416,699 416,699 417,699 418,699 419,699 420,699 421,699 421,699 422,699 423,699 424,699 425,699 425,699 426,699 427,699 428,699 429,699 430,699 430,699 431,699 432,699 433,699 434,699 434,699 435,699 436,699 437,699 438,699 439,699 439,699 440,699 441,699 442,699 443,699 443,699 444,699 445,699 446,699 447,699 448,699 448,699 449,699 450,699 451,699 452,699 452,699 453,699 454,699 455,699 456,699 457,699 457,699 458,699 459,699 460,699 461,699 462,699 462,699 463,699 464,699 465,699 466,699 466,699 467,699 468,699 469,699 470,699 471,699 471,699 472,699 473,699 474,699 475,699 475,699 476,699 477,699 478,699 479,699 480,699 480,699 481,699 482,699 483,699 484,699 484,699 485,699 486,699 487,699 488,699 489,699 489,699 490,699 491,699 492,699 493,699 493,699 494,699 495,699 496,699 497,699 498,699 498,699 499,699 500,699 501,699 502,699 502,699 503,699 504,699 505,699 506,699 507,699 507,699 508,699 509,699 510,699 511,699 512,699 512,699 513,699 514,699 515,699 516,699 516,699 517,699 518,699 519,699 520,699 521,699 521,699 522,699 523,699 524,699 525,699 525,699 526,699 527,699 528,699 529,699 530,699 530,699 531,699 532,699 533,699 534,699 534,699 535,699 536,699 537,699 538,699 539,699 539,699 540,699 541,699 542,699 543,699 543,699 544,699 545,699 546,699 547,699 548,699 548,699 549,699 550,699 551,699 552,699 552,699 553,699 554,699 555,699 556,699 557,699 557,699 558,699 559,699 560,699 561,699 561,699 562,699 563,699 564,699 565,699 566,699 566,699 567,699 568,699 569,699 570,699 571,699 571,699 572,699 573,699 574,699 575,699 575,699 576,699 577,699 578,699 579,699 580,699 580,699 581,699 582,699 583,699 584,699 584,699 585,699 586,699 587,699 588,699 589,699 589,699 590,699 591,699 592,699 593,699 593,699 594,699 595,699 596,699 597,699 598,699 598,699 599,699 600,699 601,699 602,699 602,699 603,699 604,699 605,699 606,699 607,699 607,699 608,699 609,699 610,699 611,699 611,699 612,699 613,699 614,699 615,699 616,699 616,699 617,699 618,699 619,699 620,699 621,699 621,699 622,699 623,699 624,699 625,699 625,699 626,699 627,699 628,699 629,699 630,699 630,699 631,699 632,699 633,699 634,699 634,699 635,699 636,699 637,699 638,699 639,699 639,699 640,699 641,699 642,699 643,699 643,699 644,699 645,699 646,699 647,699 648,699 648,699 649,699 650,699 651,699 652,699 652,699 653,699 654,699 655,699 656,699 657,699 657,699 658,699 659,699 660,699 661,699 661,699 662,699 663,699 664,699 665,699 666,699 666,699 667,699 668,699 669,699 670,699 671,699 671,699 672,699 673,699 674,699 675,699 675,699 676,699 677,699 678,699 679,699 680,699 680,699 681,699 682,699 683,699 684,699 684,699 685,699 686,699 687,699 688,699 689,699 689,699 690,699 691,699 692,699 693,699 693,699 694,699 695,699 696,699 697,699 698,699 698,699 699,699 700,699 701,699 702,699 702,699 703,699 704,699 705,699 706,699 707,699 707,699 708,699 709,699 710,699 711,699 711,699 712,699 713,699 714,699 715,699 716,699 716,699 717,699 718,699 719,699 720,699 720,699 721,699 722,699 723,699 724,699 725,699 725,699 726,699 727,699 728,699 729,699 730,699 730,699 731,699 732,699 733,699 734,699 734,699 735,699 736,699 737,699 738,699 739,699 739,699 740,699 741,699 742,699 743,699 743,699 744,699 745,699 746,699 747,699 748,699 748,699 749,699 750,699 751,699 752,699 752,699 753,699 754,699 755,699 756,699 757,699 757,699 758,699 759,699 760,699 761,699 761,699 762,699 763,699 764,699 765,699 766,699 766,699 767,699 768,699 769,699 770,699 770,699 771,699 772,699 773,699 774,699 775,699 775,699 776,699 777,699 778,699 779,699 780,699 780,699 781,699 782,699 783,699 784,699 784,699 785,699 786,699 787,699 788,699 789,699 789,699 790,699 791,699 792,699 793,699 793,699 794,699 795,699 796,699 797,699 798,699 798,699 799,699 800,699 801,699 802,699 802,699 803,699 804,699 805,699 806,699 807,699 807,699 808,699 809,699 810,699 811,699 811,699 812,699 813,699 814,699 815,699 816,699 816,699 817,699 818,699 819,699 820,699 820,699 821,699 822,699 823,699 824,699 825,699 825,699 826,699 827,699 828,699 829,699 830,699 830,699 831,699 832,699 833,699 834,699 834,699 835,699 836,699 837,699 838,699 839,699 839,699 840,699 841,699 842,699 843,699 843,699 844,699 845,699 846,699 847,699 848,699 848,699 849,699 850,699 851,699 852,699 852,699 853,699 854,699 855,699 856,699 857,699 857,699 858,699 859,699 860,699 861,699 861,699 862,699 863,699 864,699 865,699 866,699 866,699 867,699 868,699 869,699 870,699 870,699 871,699 872,699 873,699 874,699 875,699 875,699 876,699 877,699 878,699 879,699 880,699 880,699 881,699 882,699 883,699 884,699 884,699 885,699 886,699 887,699 888,699 889,699 889,699 890,699 891,699 892,699 893,699 893,699 894,699 895,699 896,699 897,699 898,699 898,699 898,68 898,68 973,68 "/>
<line opacity="0.1" stroke="#000000" stroke-width="1" x1="85" y1="699" x2="85" y2="68"/>
<line opacity="0.1" stroke="#000000" stroke-width="1" x1="94" y1="699" x2="94" y2="68"/>
<line opacity="0.1" stroke="#000000" stroke-width="1" x1="103" y1="699" x2="103" y2="68"/>
<line opacity="0.1" stroke="#000000" stroke-width="1" x1="112" y1="699" x2="112" y2="68"/>
<line opacity="0.1" stroke="#000000" stroke-width="1" x1="121" y1="699" x2="121" y2="68"/>
<line opacity="0.1" stroke="#000000" stroke-width="1" x1="130" y1="699" x2="130" y2="68"/>
<line opacity="0.1" stroke="#000000" stroke-width="1" x1="138" y1="699" x2="138" y2="68"/>
<line opacity="0.1" stroke="#000000" stroke-width="1" x1="147" y1="699" x2="147" y2="68"/>
<line opacity="0.1" stroke="#000000" stroke-width="1" x1="156" y1="699" x2="156" y2="68"/>
<line opacity="0.1" stroke="#000000" stroke-width="1" x1="165" y1="699" x2="165" y2="68"/>
<line opacity="0.1" stroke="#000000" stroke-width="1" x1="174" y1="699" x2="174" y2="68"/>
<line opacity="0.1" stroke="#000000" stroke-width="1" x1="183" y1="699" x2="183" y2="68"/>
<line opacity="0.1" stroke="#000000" stroke-width="1" x1="191" y1="699" x2="191" y2="68"/>
<line opacity="0.1" stroke="#000000" stroke-width="1" x1="200" y1="699" x2="200" y2="68"/>
<line opacity="0.1" stroke="#000000" stroke-width="1" x1="209" y1="699" x2="209" y2="68"/>
<line opacity="0.1" stroke="#000000" stroke-width="1" x1="218" y1="699" x2="218" y2="68"/>
<line opacity="0.1" stroke="#000000" stroke-width="1" x1="227" y1="699" x2="227" y2="68"/>
<line opacity="0.1" stroke="#000000" stroke-width="1" x1="236" y1="699" x2="236" y2="68"/>
<line opacity="0.1" stroke="#000000" stroke-width="1" x1="244" y1="699" x2="244" y2="68"/>
<line opacity="0.1" stroke="#000000" stroke-width="1" x1="253" y1="699" x2="253" y2="68"/>
<line opacity="0.1" stroke="#000000" stroke-width="1" x1="262" y1="699" x2="262" y2="68"/>
<line opacity="0.1" stroke="#000000" stroke-width="1" x1="271" y1="699" x2="271" y2="68"/>
<line opacity="0.1" stroke="#000000" stroke-width="1" x1="280" y1="699" x2="280" y2="68"/>
<line opacity="0.1" stroke="#000000" stroke-width="1" x1="289" y1="699" x2="289" y2="68"/>
<line opacity="0.1" stroke="#000000" stroke-width="1" x1="298" y1="699" x2="298" y2="68"/>
<line opacity="0.1" stroke="#000000" stroke-width="1" x1="306" y1="699" x2="306" y2="68"/>
<line opacity="0.1" stroke="#000000" stroke-width="1" x1="315" y1="699" x2="315" y2="68"/>
<line opacity="0.1" stroke="#000000" stroke-width="1" x1="324" y1="699" x2="324" y2="68"/>
<line opacity="0.1" stroke="#000000" stroke-width="1" x1="333" y1="699" x2="333" y2="68"/>
<line opacity="0.1" stroke="#000000" stroke-width="1" x1="342" y1="699" x2="342" y2="68"/>
<line opacity="0.1" stroke="#000000" stroke-width="1" x1="351" y1="699" x2="351" y2="68"/>
<line opacity="0.1" stroke="#000000" stroke-width="1" x1="359" y1="699" x2="359" y2="68"/>
<line opacity="0.1" stroke="#000000" stroke-width="1" x1="368" y1="699" x2="368" y2="68"/>
<line opacity="0.1" stroke="#000000" stroke-width="1" x1="377" y1="699" x2="377" y2="68"/>
<line opacity="0.1" stroke="#000000" stroke-width="1" x1="386" y1="699" x2="386" y2="68"/>
<line opacity="0.1" stroke="#000000" stroke-width="1" x1="395" y1="699" x2="395" y2="68"/>
<line opacity="0.1" stroke="#000000" stroke-width="1" x1="404" y1="699" x2="404" y2="68"/>
<line opacity="0.1" stroke="#000000" stroke-width="1" x1="412" y1="699" x2="412" y2="68"/>
<line opacity="0.1" stroke="#000000" stroke-width="1" x1="421" y1="699" x2="421" y2="68"/>
<line opacity="0.1" stroke="#000000" stroke-width="1" x1="430" y1="699" x2="430" y2="68"/>
<line opacity="0.1" stroke="#000000" stroke-width="1" x1="439" y1="699" x2="439" y2="68"/>
<line opacity="0.1" stroke="#000000" stroke-width="1" x1="448" y1="699" x2="448" y2="68"/>
<line opacity="0.1" stroke="#000000" stroke-width="1" x1="457" y1="699" x2="457" y2="68"/>
<line opacity="0.1" stroke="#000000" stroke-width="1" x1="465" y1="699" x2="465" y2="68"/>
<line opacity="0.1" stroke="#000000" stroke-width="1" x1="474" y1="699" x2="474" y2="68"/>
<line opacity="0.1" stroke="#000000" stroke-width="1" x1="483" y1="699" x2="483" y2="68"/>
<line opacity="0.1" stroke="#000000" stroke-width="1" x1="492" y1="699" x2="492" y2="68"/>
<line opacity="0.1" stroke="#000000" stroke-width="1" x1="501" y1="699" x2="501" y2="68"/>
<line opacity="0.1" stroke="#000000" stroke-width="1" x1="510" y1="699" x2="510" y2="68"/>
<line opacity="0.1" stroke="#000000" stroke-width="1" x1="518" y1="699" x2="518" y2="68"/>
<line opacity="0.1" stroke="#000000" stroke-width="1" x1="527" y1="699" x2="527" y2="68"/>
<line opacity="0.1" stroke="#000000" stroke-width="1" x1="536" y1="699" x2="536" y2="68"/>
<line opacity="0.1" stroke="#000000" stroke-width="1" x1="545" y1="699" x2="545" y2="68"/>
<line opacity="0.1" stroke="#000000" stroke-width="1" x1="554" y1="699" x2="554" y2="68"/>
<line opacity="0.1" stroke="#000000" stroke-width="1" x1="563" y1="699" x2="563" y2="68"/>
<line opacity="0.1" stroke="#000000" stroke-width="1" x1="572" y1="699" x2="572" y2="68"/>
<line opacity="0.1" stroke="#000000" stroke-width="1" x1="580" y1="699" x2="580" y2="68"/>
<line opacity="0.1" stroke="#000000" stroke-width="1" x1="589" y1="699" x2="589" y2="68"/>
<line opacity="0.1" stroke="#000000" stroke-width="1" x1="598" y1="699" x2="598" y2="68"/>
<line opacity="0.1" stroke="#000000" stroke-width="1" x1="607" y1="699" x2="607" y2="68"/>
<line opacity="0.1" stroke="#000000" stroke-width="1" x1="616" y1="699" x2="616" y2="68"/>
<line opacity="0.1" stroke="#000000" stroke-width="1" x1="625" y1="699" x2="625" y2="68"/>
<line opacity="0.1" stroke="#000000" stroke-width="1" x1="633" y1="699" x2="633" y2="68"/>
<line opacity="0.1" stroke="#000000" stroke-width="1" x1="642" y1="699" x2="642" y2="68"/>
<line opacity="0.1" stroke="#000000" stroke-width="1" x1="651" y1="699" x2="651" y2="68"/>
<line opacity="0.1" stroke="#000000" stroke-width="1" x1="660" y1="699" x2="660" y2="68"/>
<line opacity="0.1" stroke="#000000" stroke-width="1" x1="669" y1="699" x2="669" y2="68"/>
<line opacity="0.1" stroke="#000000" stroke-width="1" x1="678" y1="699" x2="678" y2="68"/>
<line opacity="0.1" stroke="#000000" stroke-width="1" x1="686" y1="699" x2="686" y2="68"/>
<line opacity="0.1" stroke="#000000" stroke-width="1" x1="695" y1="699" x2="695" y2="68"/>
<line opacity="0.1" stroke="#000000" stroke-width="1" x1="704" y1="699" x2="704" y2="68"/>
<line opacity="0.1" stroke="#000000" stroke-width="1" x1="713" y1="699" x2="713" y2="68"/>
<line opacity="0.1" stroke="#000000" stroke-width="1" x1="722" y1="699" x2="722" y2="68"/>
<line opacity="0.1" stroke="#000000" stroke-width="1" x1="731" y1="699" x2="731" y2="68"/>
<line opacity="0.1" stroke="#000000" stroke-width="1" x1="739" y1="699" x2="739" y2="68"/>
<line opacity="0.1" stroke="#000000" stroke-width="1" x1="748" y1="699" x2="748" y2="68"/>
<line opacity="0.1" stroke="#000000" stroke-width="1" x1="757" y1="699" x2="757" y2="68"/>
<line opacity="0.1" stroke="#000000" stroke-width="1" x1="766" y1="699" x2="766" y2="68"/>
<line opacity="0.1" stroke="#000000" stroke-width="1" x1="775" y1="699" x2="775" y2="68"/>
<line opacity="0.1" stroke="#000000" stroke-width="1" x1="784" y1="699" x2="784" y2="68"/>
<line opacity="0.1" stroke="#000000" stroke-width="1" x1="792" y1="699" x2="792" y2="68"/>
<line opacity="0.1" stroke="#000000" stroke-width="1" x1="801" y1="699" x2="801" y2="68"/>
<line opacity="0.1" stroke="#000000" stroke-width="1" x1="810" y1="699" x2="810" y2="68"/>
<line opacity="0.1" stroke="#000000" stroke-width="1" x1="819" y1="699" x2="819" y2="68"/>
<line opacity="0.1" stroke="#000000" stroke-width="1" x1="828" y1="699" x2="828" y2="68"/>
<line opacity="0.1" stroke="#000000" stroke-width="1" x1="837" y1="699" x2="837" y2="68"/>
<line opacity="0.1" stroke="#000000" stroke-width="1" x1="846" y1="699" x2="846" y2="68"/>
<line opacity="0.1" stroke="#000000" stroke-width="1" x1="854" y1="699" x2="854" y2="68"/>
<line opacity="0.1" stroke="#000000" stroke-width="1" x1="863" y1="699" x2="863" y2="68"/>
<line opacity="0.1" stroke="#000000" stroke-width="1" x1="872" y1="699" x2="872" y2="68"/>
<line opacity="0.1" stroke="#000000" stroke-width="1" x1="881" y1="699" x2="881" y2="68"/>
<line opacity="0.1" stroke="#000000" stroke-width="1" x1="890" y1="699" x2="890" y2="68"/>
<line opacity="0.1" stroke="#000000" stroke-width="1" x1="899" y1="699" x2="899" y2="68"/>
<line opacity="0.1" stroke="#000000" stroke-width="1" x1="907" y1="699" x2="907" y2="68"/>
<line opacity="0.1" stroke="#000000" stroke-width="1" x1="916" y1="699" x2="916" y2="68"/>
<line opacity="0.1" stroke="#000000" stroke-width="1" x1="925" y1="699" x2="925" y2="68"/>
<line opacity="0.1" stroke="#000000" stroke-width="1" x1="934" y1="699" x2="934" y2="68"/>
<line opacity="0.1" stroke="#000000" stroke-width="1" x1="943" y1="699" x2="943" y2="68"/>
<line opacity="0.1" stroke="#000000" stroke-width="1" x1="952" y1="699" x2="952" y2="68"/>
<line opacity="0.1" stroke="#000000" stroke-width="1" x1="960" y1="699" x2="960" y2="68"/>
<line opacity="0.1" stroke="#000000" stroke-width="1" x1="969" y1="699" x2="969" y2="68"/>
<line opacity="0.1" stroke="#000000" stroke-width="1" x1="78" y1="699" x2="973" y2="699"/>
<line opacity="0.1" stroke="#000000" stroke-width="1" x1="78" y1="689" x2="973" y2="689"/>
<line opacity="0.1" stroke="#000000" stroke-width="1" x1="78" y1="679" x2="973" y2="679"/>
<line opacity="0.1" stroke="#000000" stroke-width="1" x1="78" y1="669" x2="973" y2="669"/>
<line opacity="0.1" stroke="#000000" stroke-width="1" x1="78" y1="659" x2="973" y2="659"/>
<line opacity="0.1" stroke="#000000" stroke-width="1" x1="78" y1="649" x2="973" y2="649"/>
<line opacity="0.1" stroke="#000000" stroke-width="1" x1="78" y1="639" x2="973" y2="639"/>
<line opacity="0.1" stroke="#000000" stroke-width="1" x1="78" y1="629" x2="973" y2="629"/>
<line opacity="0.1" stroke="#000000" stroke-width="1" x1="78" y1="619" x2="973" y2="619"/>
<line opacity="0.1" stroke="#000000" stroke-width="1" x1="78" y1="609" x2="973" y2="609"/>
<line opacity="0.1" stroke="#000000" stroke-width="1" x1="78" y1="599" x2="973" y2="599"/>
<line opacity="0.1" stroke="#000000" stroke-width="1" x1="78" y1="589" x2="973" y2="589"/>
<line opacity="0.1" stroke="#000000" stroke-width="1" x1="78" y1="579" x2="973" y2="579"/>
<line opacity="0.1" stroke="#000000" stroke-width="1" x1="78" y1="569" x2="973" y2="569"/>
<line opacity="0.1" stroke="#000000" stroke-width="1" x1="78" y1="559" x2="973" y2="559"/>
<line opacity="0.1" stroke="#000000" stroke-width="1" x1="78" y1="549" x2="973" y2="549"/>
<line opacity="0.1" stroke="#000000" stroke-width="1" x1="78" y1="539" x2="973" y2="539"/>
<line opacity="0.1" stroke="#000000" stroke-width="1" x1="78" y1="529" x2="973" y2="529"/>
<line opacity="0.1" stroke="#000000" stroke-width="1" x1="78" y1="519" x2="973" y2="519"/>
<line opacity="0.1" stroke="#000000" stroke-width="1" x1="78" y1="510" x2="973" y2="510"/>
<line opacity="0.1" stroke="#000000" stroke-width="1" x1="78" y1="500" x2="973" y2="500"/>
<line opacity="0.1" stroke="#000000" stroke-width="1" x1="78" y1="490" x2="973" y2="490"/>
<line opacity="0.1" stroke="#000000" stroke-width="1" x1="78" y1="480" x2="973" y2="480"/>
<line opacity="0.1" stroke="#000000" stroke-width="1" x1="78" y1="470" x2="973" y2="470"/>
<line opacity="0.1" stroke="#000000" stroke-width="1" x1="78" y1="460" x2="973" y2="460"/>
<line opacity="0.1" stroke="#000000" stroke-width="1" x1="78" y1="450" x2="973" y2="450"/>
<line opacity="0.1" stroke="#000000" stroke-width="1" x1="78" y1="440" x2="973" y2="440"/>
<line opacity="0.1" stroke="#000000" stroke-width="1" x1="78" y1="430" x2="973" y2="430"/>
<line opacity="0.1" stroke="#000000" stroke-width="1" x1="78" y1="420" x2="973" y2="420"/>
<line opacity="0.1" stroke="#000000" stroke-width="1" x1="78" y1="410" x2="973" y2="410"/>
<line opacity="0.1" stroke="#000000" stroke-width="1" x1="78" y1="400" x2="973" y2="400"/>
<line opacity="0.1" stroke="#000000" stroke-width="1" x1="78" y1="390" x2="973" y2="390"/>
<line opacity="0.1" stroke="#000000" stroke-width="1" x1="78" y1="380" x2="973" y2="380"/>
<line opacity="0.1" stroke="#000000" stroke-width="1" x1="78" y1="370" x2="973" y2="370"/>
<line opacity="0.1" stroke="#000000" stroke-width="1" x1="78" y1="360" x2="973" y2="360"/>
<line opacity="0.1" stroke="#000000" stroke-width="1" x1="78" y1="350" x2="973" y2="350"/>
<line opacity="0.1" stroke="#000000" stroke-width="1" x1="78" y1="340" x2="973" y2="340"/>
<line opacity="0.1" stroke="#000000" stroke-width="1" x1="78" y1="330" x2="973" y2="330"/>
<line opacity="0.1" stroke="#000000" stroke-width="1" x1="78" y1="321" x2="973" y2="321"/>
<line opacity="0.1" stroke="#000000" stroke-width="1" x1="78" y1="311" x2="973" y2="311"/>
<line opacity="0.1" stroke="#000000" stroke-width="1" x1="78" y1="301" x2="973" y2="301"/>
<line opacity="0.1" stroke="#000000" stroke-width="1" x1="78" y1="291" x2="973" y2="291"/>
<line opacity="0.1" stroke="#000000" stroke-width="1" x1="78" y1="281" x2="973" y2="281"/>
<line opacity="0.1" stroke="#000000" stroke-width="1" x1="78" y1="271" x2="973" y2="271"/>
<line opacity="0.1" stroke="#000000" stroke-width="1" x1="78" y1="261" x2="973" y2="261"/>
<line opacity="0.1" stroke="#000000" stroke-width="1" x1="78" y1="251" x2="973" y2="251"/>
<line opacity="0.1" stroke="#000000" stroke-width="1" x1="78" y1="241" x2="973" y2="241"/>
<line opacity="0.1" stroke="#000000" stroke-width="1" x1="78" y1="231" x2="973" y2="231"/>
<line opacity="0.1" stroke="#000000" stroke-width="1" x1="78" y1="221" x2="973" y2="221"/>
<line opacity="0.1" stroke="#000000" stroke-width="1" x1="78" y1="211" x2="973" y2="211"/>
<line opacity="0.1" stroke="#000000" stroke-width="1" x1="78" y1="201" x2="973" y2="201"/>
<line opacity="0.1" stroke="#000000" stroke-width="1" x1="78" y1="191" x2="973" y2="191"/>
<line opacity="0.1" stroke="#000000" stroke-width="1" x1="78" y1="181" x2="973" y2="181"/>
<line opacity="0.1" stroke="#000000" stroke-width="1" x1="78" y1="171" x2="973" y2="171"/>
<line opacity="0.1" stroke="#000000" stroke-width="1" x1="78" y1="161" x2="973" y2="161"/>
<line opacity="0.1" stroke="#000000" stroke-width="1" x1="78" y1="151" x2="973" y2="151"/>
<line opacity="0.1" stroke="#000000" stroke-width="1" x1="78" y1="141" x2="973" y2="141"/>
<line opacity="0.1" stroke="#000000" stroke-width="1" x1="78" y1="132" x2="973" y2="132"/>
<line opacity="0.1" stroke="#000000" stroke-width="1" x1="78" y1="122" x2="973" y2="122"/>
<line opacity="0.1" stroke="#000000" stroke-width="1" x1="78" y1="112" x2="973" y2="112"/>
<line opacity="0.1" stroke="#000000" stroke-width="1" x1="78" y1="102" x2="973" y2="102"/>
<line opacity="0.1" stroke="#000000" stroke-width="1" x1="78" y1="92" x2="973" y2="92"/>
<line opacity="0.1" stroke="#000000" stroke-width="1" x1="78" y1="82" x2="973" y2="82"/>
<line opacity="0.1" stroke="#000000" stroke-width="1" x1="78" y1="72" x2="973" y2="72"/>
<text x="8" y="384" dy="0.76em" text-anchor="middle" font-family="sans-serif" font-size="9.67741935483871" opacity="1" fill="#000000" transform="rotate(270, 8, 384)">
Memory usage
</text>
<text x="526" y="760" dy="-0.5ex" text-anchor="middle" font-family="sans-serif" font-size="9.67741935483871" opacity="1" fill="#000000">
Time
</text>
<line opacity="0.2" stroke="#000000" stroke-width="1" x1="130" y1="699" x2="130" y2="68"/>
<line opacity="0.2" stroke="#000000" stroke-width="1" x1="306" y1="699" x2="306" y2="68"/>
<line opacity="0.2" stroke="#000000" stroke-width="1" x1="483" y1="699" x2="483" y2="68"/>
<line opacity="0.2" stroke="#000000" stroke-width="1" x1="660" y1="699" x2="660" y2="68"/>
<line opacity="0.2" stroke="#000000" stroke-width="1" x1="837" y1="699" x2="837" y2="68"/>
<line opacity="0.2" stroke="#000000" stroke-width="1" x1="78" y1="699" x2="973" y2="699"/>
<line opacity="0.2" stroke="#000000" stroke-width="1" x1="78" y1="599" x2="973" y2="599"/>
<line opacity="0.2" stroke="#000000" stroke-width="1" x1="78" y1="500" x2="973" y2="500"/>
<line opacity="0.2" stroke="#000000" stroke-width="1" x1="78" y1="400" x2="973" y2="400"/>
<line opacity="0.2" stroke="#000000" stroke-width="1" x1="78" y1="301" x2="973" y2="301"/>
<line opacity="0.2" stroke="#000000" stroke-width="1" x1="78" y1="201" x2="973" y2="201"/>
<line opacity="0.2" stroke="#000000" stroke-width="1" x1="78" y1="102" x2="973" y2="102"/>
<polyline fill="none" opacity="1" stroke="#000000" stroke-width="1" points="77,68 77,699 "/>
<text x="68" y="699" dy="0.5ex" text-anchor="end" font-family="sans-serif" font-size="9.67741935483871" opacity="1" fill="#000000">
0 MB
</text>
<polyline fill="none" opacity="1" stroke="#000000" stroke-width="1" points="72,699 77,699 "/>
<text x="68" y="599" dy="0.5ex" text-anchor="end" font-family="sans-serif" font-size="9.67741935483871" opacity="1" fill="#000000">
19 MB
</text>
<polyline fill="none" opacity="1" stroke="#000000" stroke-width="1" points="72,599 77,599 "/>
<text x="68" y="500" dy="0.5ex" text-anchor="end" font-family="sans-serif" font-size="9.67741935483871" opacity="1" fill="#000000">
38 MB
</text>
<polyline fill="none" opacity="1" stroke="#000000" stroke-width="1" points="72,500 77,500 "/>
<text x="68" y="400" dy="0.5ex" text-anchor="end" font-family="sans-serif" font-size="9.67741935483871" opacity="1" fill="#000000">
57 MB
</text>
<polyline fill="none" opacity="1" stroke="#000000" stroke-width="1" points="72,400 77,400 "/>
<text x="68" y="301" dy="0.5ex" text-anchor="end" font-family="sans-serif" font-size="9.67741935483871" opacity="1" fill="#000000">
76 MB
</text>
<polyline fill="none" opacity="1" stroke="#000000" stroke-width="1" points="72,301 77,301 "/>
<text x="68" y="201" dy="0.5ex" text-anchor="end" font-family="sans-serif" font-size="9.67741935483871" opacity="1" fill="#000000">
95 MB
</text>
<polyline fill="none" opacity="1" stroke="#000000" stroke-width="1" points="72,201 77,201 "/>
<text x="68" y="102" dy="0.5ex" text-anchor="end" font-family="sans-serif" font-size="9.67741935483871" opacity="1" fill="#000000">
114 MB
</text>
<polyline fill="none" opacity="1" stroke="#000000" stroke-width="1" points="72,102 77,102 "/>
<polyline fill="none" opacity="1" stroke="#000000" stroke-width="1" points="78,700 973,700 "/>
<text x="130" y="710" dy="0.76em" text-anchor="middle" font-family="sans-serif" font-size="9.67741935483871" opacity="1" fill="#000000">
07 17:46:40
</text>
<polyline fill="none" opacity="1" stroke="#000000" stroke-width="1" points="130,700 130,705 "/>
<text x="306" y="710" dy="0.76em" text-anchor="middle" font-family="sans-serif" font-size="9.67741935483871" opacity="1" fill="#000000">
07 20:33:20
</text>
<polyline fill="none" opacity="1" stroke="#000000" stroke-width="1" points="306,700 306,705 "/>
<text x="483" y="710" dy="0.76em" text-anchor="middle" font-family="sans-serif" font-size="9.67741935483871" opacity="1" fill="#000000">
07 23:20:00
</text>
<polyline fill="none" opacity="1" stroke="#000000" stroke-width="1" points="483,700 483,705 "/>
<text x="660" y="710" dy="0.76em" text-anchor="middle" font-family="sans-serif" font-size="9.67741935483871" opacity="1" fill="#000000">
08 02:06:40
</text>
<polyline fill="none" opacity="1" stroke="#000000" stroke-width="1" points="660,700 660,705 "/>
<text x="837" y="710" dy="0.76em" text-anchor="middle" font-family="sans-serif" font-size="9.67741935483871" opacity="1" fill="#000000">
08 04:53:20
</text>
<polyline fill="none" opacity="1" stroke="#000000" stroke-width="1" points="837,700 837,705 "/>
<polyline fill="none" opacity="1" stroke="#000000" stroke-width="1" points="78,67 974,67 "/>
<text x="130" y="58" dy="-0.5ex" text-anchor="middle" font-family="sans-serif" font-size="9.67741935483871" opacity="1" fill="#000000">
+00:49:04
</text>
<polyline fill="none" opacity="1" stroke="#000000" stroke-width="1" points="130,62 130,67 "/>
<text x="307" y="58" dy="-0.5ex" text-anchor="middle" font-family="sans-serif" font-size="9.67741935483871" opacity="1" fill="#000000">
+03:35:44
</text>
<polyline fill="none" opacity="1" stroke="#000000" stroke-width="1" points="307,62 307,67 "/>
<text x="484" y="58" dy="-0.5ex" text-anchor="middle" font-family="sans-serif" font-size="9.67741935483871" opacity="1" fill="#000000">
+06:22:24
</text>
<polyline fill="none" opacity="1" stroke="#000000" stroke-width="1" points="484,62 484,67 "/>
<text x="661" y="58" dy="-0.5ex" text-anchor="middle" font-family="sans-serif" font-size="9.67741935483871" opacity="1" fill="#000000">
+09:09:04
</text>
<polyline fill="none" opacity="1" stroke="#000000" stroke-width="1" points="661,62 661,67 "/>
<text x="838" y="58" dy="-0.5ex" text-anchor="middle" font-family="sans-serif" font-size="9.67741935483871" opacity="1" fill="#000000">
+11:55:44
</text>
<polyline fill="none" opacity="1" stroke="#000000" stroke-width="1" points="838,62 838,67 "/>
<rect x="83" y="73" width="99" height="45" opacity="0.75" fill="#FFFFFF" stroke="none"/>
<rect x="83" y="73" width="99" height="45" opacity="1" fill="none" stroke="#000000"/>
<text x="123" y="83" dy="0.76em" text-anchor="start" font-family="sans-serif" font-size="9.67741935483871" opacity="1" fill="#000000">
Temporary
</text>
<text x="123" y="98" dy="0.76em" text-anchor="start" font-family="sans-serif" font-size="9.67741935483871" opacity="1" fill="#000000">
Leaked
</text>
<rect x="93" y="83" width="10" height="10" opacity="1" fill="#3CB44B" stroke="none"/>
<rect x="93" y="98" width="10" height="10" opacity="1" fill="#E6194B" stroke="none"/>
</svg>
