<svg width="1024" height="768" viewBox="0 0 1024 768" xmlns="http://www.w3.org/2000/svg">
<rect x="0" y="0" width="1024" height="768" opacity="1" fill="#FFFFFF" stroke="none"/>
<polygon opacity="1" fill="#3CB44B" points="78,694 79,694 80,694 80,694 81,694 82,694 82,694 83,694 83,684 84,684 85,684 85,684 86,684 87,684 87,684 88,684 88,684 89,684 90,684 90,684 91,684 91,684 92,684 93,684 93,669 94,669 95,669 95,669 96,669 96,669 97,669 98,669 98,669 99,669 100,669 100,669 101,669 101,669 102,669 103,669 103,669 104,669 105,669 105,669 106,669 106,669 107,669 108,669 108,669 109,669 110,669 110,669 111,669 111,669 112,669 113,669 113,669 114,639 114,639 115,639 116,639 116,639 117,639 118,639 118,639 119,639 119,639 120,639 121,639 121,639 122,639 123,639 123,639 124,639 124,639 125,639 126,639 126,639 127,639 128,639 128,639 129,639 129,639 130,639 131,639 131,639 132,639 132,639 133,639 134,639 134,639 135,639 136,639 136,639 137,639 137,639 138,639 139,639 139,639 140,639 141,639 141,639 142,639 142,639 143,639 144,639 144,639 145,639 146,639 146,639 147,639 147,639 148,639 149,639 149,639 150,639 151,639 151,639 152,639 152,639 153,580 154,580 154,580 155,580 155,580 156,580 157,580 157,580 158,580 159,580 159,580 160,580 160,580 161,580 162,580 162,580 163,580 164,580 164,580 165,580 165,580 166,580 167,580 167,580 168,580 169,580 169,580 170,580 170,580 171,580 172,580 172,580 173,580 174,580 174,580 175,580 175,580 176,580 177,580 177,580 178,580 178,580 179,580 180,580 180,580 181,580 182,580 182,580 183,580 183,580 184,580 185,580 185,580 186,580 187,580 187,580 188,580 188,580 189,580 190,580 190,580 191,580 192,580 192,580 193,580 193,580 194,580 195,580 195,580 196,580 196,580 197,580 198,580 198,580 199,580 200,580 200,580 201,580 201,580 202,580 203,580 203,580 204,580 205,580 205,580 206,580 206,580 207,580 208,580 208,580 209,580 210,580 210,580 211,580 211,580 212,580 213,580 213,580 214,580 215,580 215,580 216,580 216,580 217,580 218,580 218,580 219,580 219,580 220,580 221,580 221,580 222,580 223,580 223,580 224,580 224,580 225,580 226,580 226,580 227,580 228,580 228,580 229,580 229,580 230,580 231,580 231,580 232,580 233,580 233,462 234,462 234,462 235,462 236,462 236,462 237,462 238,462 238,462 239,462 239,462 240,462 241,462 241,462 242,462 242,462 243,462 244,462 244,462 245,462 246,462 246,462 247,462 247,462 248,462 249,462 249,462 250,462 251,462 251,462 252,462 252,462 253,462 254,462 254,462 255,462 256,462 256,462 257,462 257,462 258,462 259,462 259,462 260,462 260,462 261,462 262,462 262,462 263,462 264,462 264,462 265,462 265,462 266,462 267,462 267,462 268,462 269,462 269,462 270,462 270,462 271,462 272,462 272,462 273,462 274,462 274,462 275,462 275,462 276,462 277,462 277,462 278,462 279,462 279,462 280,462 280,462 281,462 282,462 282,462 283,462 283,462 284,462 285,462 285,462 286,462 287,462 287,462 288,462 288,462 289,462 290,462 290,462 291,462 292,462 292,462 293,462 293,462 294,462 295,462 295,462 296,462 297,462 297,462 298,462 298,462 299,462 300,462 300,462 301,462 302,462 302,462 303,462 303,462 304,462 305,462 305,462 306,462 306,462 307,462 308,462 308,462 309,462 310,462 310,462 311,462 311,462 312,462 313,462 313,462 314,462 315,462 315,462 316,462 316,462 317,462 318,462 318,462 319,462 320,462 320,462 321,462 321,462 322,462 323,462 323,462 324,462 324,462 325,462 326,462 326,462 327,462 328,462 328,462 329,462 329,462 330,462 331,462 331,462 332,462 333,462 333,462 334,462 334,462 335,462 336,462 336,462 337,462 338,462 338,462 339,462 339,462 340,462 341,462 341,462 342,462 343,462 343,462 344,462 344,462 345,462 346,462 346,462 347,462 347,462 348,462 349,462 349,462 350,462 351,462 351,462 352,462 352,462 353,462 354,462 354,462 355,462 356,462 356,462 357,462 357,462 358,462 359,462 359,462 360,462 361,462 361,462 362,462 362,462 363,462 364,462 364,462 365,462 366,462 366,462 367,462 367,462 368,462 369,462 369,462 370,462 370,462 371,462 372,462 372,462 373,462 374,462 374,462 375,462 375,462 376,462 377,462 377,462 378,462 379,462 379,462 380,462 380,462 381,462 382,462 382,462 383,462 384,462 384,462 385,462 385,462 386,462 387,462 387,462 388,462 388,462 389,462 390,462 390,225 391,225 392,225 392,225 393,225 393,225 394,225 395,225 395,225 396,225 397,225 397,225 398,225 398,225 399,225 400,225 400,225 401,225 402,225 402,225 403,225 403,225 404,225 405,225 405,225 406,225 407,225 407,225 408,225 408,225 409,225 410,225 410,225 411,225 411,225 412,225 413,225 413,225 414,225 415,225 415,225 416,225 416,225 417,225 418,225 418,225 419,225 420,225 420,225 421,225 421,225 422,225 423,225 423,225 424,225 425,225 425,225 426,225 426,225 427,225 428,225 428,225 429,225 430,225 430,225 431,225 431,225 432,225 433,225 433,225 434,225 434,225 435,225 436,225 436,225 437,225 438,225 438,225 439,225 439,225 440,225 441,225 441,225 442,225 443,225 443,225 444,225 444,225 445,225 446,225 446,225 447,225 448,225 448,225 449,225 449,225 450,225 451,225 451,225 452,225 452,225 453,225 454,225 454,225 455,225 456,225 456,225 457,225 457,225 458,225 459,225 459,225 460,225 461,225 461,225 462,225 462,225 463,225 464,225 464,225 465,225 466,225 466,225 467,225 467,225 468,225 469,225 469,225 470,225 471,225 471,225 472,225 472,225 473,225 474,225 474,225 475,225 475,225 476,225 477,225 477,225 478,225 479,225 479,225 480,225 480,225 481,225 482,225 482,225 483,225 484,225 484,225 485,225 485,225 486,225 487,225 487,225 488,225 489,225 489,225 490,225 490,225 491,225 492,225 492,225 493,225 494,225 494,225 495,225 495,225 496,225 497,225 497,225 498,225 498,225 499,225 500,225 500,225 501,225 502,225 502,225 503,225 503,225 504,225 505,225 505,225 506,225 507,225 507,225 508,225 508,225 509,225 510,225 510,225 511,225 512,225 512,225 513,225 513,225 514,225 515,225 515,225 516,225 516,225 517,225 518,225 518,225 519,225 520,225 520,225 521,225 521,225 522,225 523,225 523,225 524,225 525,225 525,225 526,225 526,225 527,225 528,225 528,225 529,225 530,225 530,225 531,225 531,225 532,225 533,225 533,225 534,225 535,225 535,225 536,225 536,225 537,225 538,225 538,225 539,225 539,225 540,225 541,225 541,225 542,225 543,225 543,225 544,225 544,225 545,225 546,225 546,225 547,225 548,225 548,225 549,225 549,225 550,225 551,225 551,225 552,225 553,225 553,225 554,225 554,225 555,225 556,225 556,225 557,225 558,225 558,225 559,225 559,225 560,225 561,225 561,225 562,225 562,225 563,225 564,225 564,225 565,225 566,225 566,225 567,225 567,225 568,225 569,225 569,225 570,225 571,225 571,225 572,225 572,225 573,225 574,225 574,225 575,225 576,225 576,225 577,225 577,225 578,225 579,225 579,225 580,225 580,225 581,225 582,225 582,225 583,225 584,225 584,225 585,225 585,225 586,225 587,225 587,225 588,225 589,225 589,225 590,225 590,225 591,225 592,225 592,225 593,225 594,225 594,225 595,225 595,225 596,225 597,225 597,225 598,225 599,225 599,225 600,225 600,225 601,225 602,225 602,225 603,225 603,225 604,225 605,225 605,225 606,225 607,225 607,225 608,225 608,225 609,225 610,225 610,225 611,225 612,225 612,225 613,225 613,225 614,225 615,225 615,225 616,225 617,225 617,225 618,225 618,225 619,225 620,225 620,225 621,225 622,225 622,225 623,225 623,225 624,225 625,225 625,225 626,225 626,225 627,225 628,225 628,225 629,225 630,225 630,225 631,225 631,225 632,225 633,225 633,225 634,225 635,225 635,225 636,225 636,225 637,225 638,225 638,225 639,225 640,225 640,225 641,225 641,225 642,225 643,225 643,225 644,225 644,225 645,225 646,225 646,225 647,225 648,225 648,225 649,225 649,225 650,225 651,225 651,225 652,225 653,225 653,225 654,225 654,225 655,225 656,225 656,225 657,225 658,225 658,225 659,225 659,225 660,225 661,225 661,225 662,225 663,225 663,225 664,225 664,225 665,225 666,225 666,225 667,225 667,225 668,225 669,225 669,225 670,225 671,225 671,225 672,225 672,225 673,225 674,225 674,225 675,225 676,225 676,225 677,225 677,225 678,225 679,225 679,225 680,225 681,225 681,225 682,225 682,225 683,225 684,225 684,225 685,225 686,225 686,225 687,225 687,225 688,225 689,225 689,225 690,225 690,225 691,225 692,225 692,225 693,225 694,225 694,225 695,225 695,225 696,225 697,225 697,225 698,225 699,225 699,225 700,225 700,68 700,68 973,68 973,699 78,699 "/>
<polyline fill="none" opacity="1" stroke="#3CB44B" stroke-width="1" points="78,694 79,694 80,694 80,694 81,694 82,694 82,694 83,694 83,684 84,684 85,684 85,684 86,684 87,684 87,684 88,684 88,684 89,684 90,684 90,684 91,684 91,684 92,684 93,684 93,669 94,669 95,669 95,669 96,669 96,669 97,669 98,669 98,669 99,669 100,669 100,669 101,669 101,669 102,669 103,669 103,669 104,669 105,669 105,669 106,669 106,669 107,669 108,669 108,669 109,669 110,669 110,669 111,669 111,669 112,669 113,669 113,669 114,639 114,639 115,639 116,639 116,639 117,639 118,639 118,639 119,639 119,639 120,639 121,639 121,639 122,639 123,639 123,639 124,639 124,639 125,639 126,639 126,639 127,639 128,639 128,639 129,639 129,639 130,639 131,639 131,639 132,639 132,639 133,639 134,639 134,639 135,639 136,639 136,639 137,639 137,639 138,639 139,639 139,639 140,639 141,639 141,639 142,639 142,639 143,639 144,639 144,639 145,639 146,639 146,639 147,639 147,639 148,639 149,639 149,639 150,639 151,639 151,639 152,639 152,639 153,580 154,580 154,580 155,580 155,580 156,580 157,580 157,580 158,580 159,580 159,580 160,580 160,580 161,580 162,580 162,580 163,580 164,580 164,580 165,580 165,580 166,580 167,580 167,580 168,580 169,580 169,580 170,580 170,580 171,580 172,580 172,580 173,580 174,580 174,580 175,580 175,580 176,580 177,580 177,580 178,580 178,580 179,580 180,580 180,580 181,580 182,580 182,580 183,580 183,580 184,580 185,580 185,580 186,580 187,580 187,580 188,580 188,580 189,580 190,580 190,580 191,580 192,580 192,580 193,580 193,580 194,580 195,580 195,580 196,580 196,580 197,580 198,580 198,580 199,580 200,580 200,580 201,580 201,580 202,580 203,580 203,580 204,580 205,580 205,580 206,580 206,580 207,580 208,580 208,580 209,580 210,580 210,580 211,580 211,580 212,580 213,580 213,580 214,580 215,580 215,580 216,580 216,580 217,580 218,580 218,580 219,580 219,580 220,580 221,580 221,580 222,580 223,580 223,580 224,580 224,580 225,580 226,580 226,580 227,580 228,580 228,580 229,580 229,580 230,580 231,580 231,580 232,580 233,580 233,462 234,462 234,462 235,462 236,462 236,462 237,462 238,462 238,462 239,462 239,462 240,462 241,462 241,462 242,462 242,462 243,462 244,462 244,462 245,462 246,462 246,462 247,462 247,462 248,462 249,462 249,462 250,462 251,462 251,462 252,462 252,462 253,462 254,462 254,462 255,462 256,462 256,462 257,462 257,462 258,462 259,462 259,462 260,462 260,462 261,462 262,462 262,462 263,462 264,462 264,462 265,462 265,462 266,462 267,462 267,462 268,462 269,462 269,462 270,462 270,462 271,462 272,462 272,462 273,462 274,462 274,462 275,462 275,462 276,462 277,462 277,462 278,462 279,462 279,462 280,462 280,462 281,462 282,462 282,462 283,462 283,462 284,462 285,462 285,462 286,462 287,462 287,462 288,462 288,462 289,462 290,462 290,462 291,462 292,462 292,462 293,462 293,462 294,462 295,462 295,462 296,462 297,462 297,462 298,462 298,462 299,462 300,462 300,462 301,462 302,462 302,462 303,462 303,462 304,462 305,462 305,462 306,462 306,462 307,462 308,462 308,462 309,462 310,462 310,462 311,462 311,462 312,462 313,462 313,462 314,462 315,462 315,462 316,462 316,462 317,462 318,462 318,462 319,462 320,462 320,462 321,462 321,462 322,462 323,462 323,462 324,462 324,462 325,462 326,462 326,462 327,462 328,462 328,462 329,462 329,462 330,462 331,462 331,462 332,462 333,462 333,462 334,462 334,462 335,462 336,462 336,462 337,462 338,462 338,462 339,462 339,462 340,462 341,462 341,462 342,462 343,462 343,462 344,462 344,462 345,462 346,462 346,462 347,462 347,462 348,462 349,462 349,462 350,462 351,462 351,462 352,462 352,462 353,462 354,462 354,462 355,462 356,462 356,462 357,462 357,462 358,462 359,462 359,462 360,462 361,462 361,462 362,462 362,462 363,462 364,462 364,462 365,462 366,462 366,462 367,462 367,462 368,462 369,462 369,462 370,462 370,462 371,462 372,462 372,462 373,462 374,462 374,462 375,462 375,462 376,462 377,462 377,462 378,462 379,462 379,462 380,462 380,462 381,462 382,462 382,462 383,462 384,462 384,462 385,462 385,462 386,462 387,462 387,462 388,462 388,462 389,462 390,462 390,225 391,225 392,225 392,225 393,225 393,225 394,225 395,225 395,225 396,225 397,225 397,225 398,225 398,225 399,225 400,225 400,225 401,225 402,225 402,225 403,225 403,225 404,225 405,225 405,225 406,225 407,225 407,225 408,225 408,225 409,225 410,225 410,225 411,225 411,225 412,225 413,225 413,225 414,225 415,225 415,225 416,225 416,225 417,225 418,225 418,225 419,225 420,225 420,225 421,225 421,225 422,225 423,225 423,225 424,225 425,225 425,225 426,225 426,225 427,225 428,225 428,225 429,225 430,225 430,225 431,225 431,225 432,225 433,225 433,225 434,225 434,225 435,225 436,225 436,225 437,225 438,225 438,225 439,225 439,225 440,225 441,225 441,225 442,225 443,225 443,225 444,225 444,225 445,225 446,225 446,225 447,225 448,225 448,225 449,225 449,225 450,225 451,225 451,225 452,225 452,225 453,225 454,225 454,225 455,225 456,225 456,225 457,225 457,225 458,225 459,225 459,225 460,225 461,225 461,225 462,225 462,225 463,225 464,225 464,225 465,225 466,225 466,225 467,225 467,225 468,225 469,225 469,225 470,225 471,225 471,225 472,225 472,225 473,225 474,225 474,225 475,225 475,225 476,225 477,225 477,225 478,225 479,225 479,225 480,225 480,225 481,225 482,225 482,225 483,225 484,225 484,225 485,225 485,225 486,225 487,225 487,225 488,225 489,225 489,225 490,225 490,225 491,225 492,225 492,225 493,225 494,225 494,225 495,225 495,225 496,225 497,225 497,225 498,225 498,225 499,225 500,225 500,225 501,225 502,225 502,225 503,225 503,225 504,225 505,225 505,225 506,225 507,225 507,225 508,225 508,225 509,225 510,225 510,225 511,225 512,225 512,225 513,225 513,225 514,225 515,225 515,225 516,225 516,225 517,225 518,225 518,225 519,225 520,225 520,225 521,225 521,225 522,225 523,225 523,225 524,225 525,225 525,225 526,225 526,225 527,225 528,225 528,225 529,225 530,225 530,225 531,225 531,225 532,225 533,225 533,225 534,225 535,225 535,225 536,225 536,225 537,225 538,225 538,225 539,225 539,225 540,225 541,225 541,225 542,225 543,225 543,225 544,225 544,225 545,225 546,225 546,225 547,225 548,225 548,225 549,225 549,225 550,225 551,225 551,225 552,225 553,225 553,225 554,225 554,225 555,225 556,225 556,225 557,225 558,225 558,225 559,225 559,225 560,225 561,225 561,225 562,225 562,225 563,225 564,225 564,225 565,225 566,225 566,225 567,225 567,225 568,225 569,225 569,225 570,225 571,225 571,225 572,225 572,225 573,225 574,225 574,225 575,225 576,225 576,225 577,225 577,225 578,225 579,225 579,225 580,225 580,225 581,225 582,225 582,225 583,225 584,225 584,225 585,225 585,225 586,225 587,225 587,225 588,225 589,225 589,225 590,225 590,225 591,225 592,225 592,225 593,225 594,225 594,225 595,225 595,225 596,225 597,225 597,225 598,225 599,225 599,225 600,225 600,225 601,225 602,225 602,225 603,225 603,225 604,225 605,225 605,225 606,225 607,225 607,225 608,225 608,225 609,225 610,225 610,225 611,225 612,225 612,225 613,225 613,225 614,225 615,225 615,225 616,225 617,225 617,225 618,225 618,225 619,225 620,225 620,225 621,225 622,225 622,225 623,225 623,225 624,225 625,225 625,225 626,225 626,225 627,225 628,225 628,225 629,225 630,225 630,225 631,225 631,225 632,225 633,225 633,225 634,225 635,225 635,225 636,225 636,225 637,225 638,225 638,225 639,225 640,225 640,225 641,225 641,225 642,225 643,225 643,225 644,225 644,225 645,225 646,225 646,225 647,225 648,225 648,225 649,225 649,225 650,225 651,225 651,225 652,225 653,225 653,225 654,225 654,225 655,225 656,225 656,225 657,225 658,225 658,225 659,225 659,225 660,225 661,225 661,225 662,225 663,225 663,225 664,225 664,225 665,225 666,225 666,225 667,225 667,225 668,225 669,225 669,225 670,225 671,225 671,225 672,225 672,225 673,225 674,225 674,225 675,225 676,225 676,225 677,225 677,225 678,225 679,225 679,225 680,225 681,225 681,225 682,225 682,225 683,225 684,225 684,225 685,225 686,225 686,225 687,225 687,225 688,225 689,225 689,225 690,225 690,225 691,225 692,225 692,225 693,225 694,225 694,225 695,225 695,225 696,225 697,225 697,225 698,225 699,225 699,225 700,225 700,68 700,68 973,68 "/>
<polygon opacity="1" fill="#E6194B" points="78,699 79,699 80,699 80,699 81,699 82,699 82,699 83,699 83,699 84,699 85,699 85,699 86,699 87,699 87,699 88,699 88,699 89,699 90,699 90,699 91,699 91,699 92,699 93,699 93,699 94,699 95,699 95,699 96,699 96,699 97,699 98,699 98,699 99,699 100,699 100,699 101,699 101,699 102,699 103,699 103,699 104,699 105,699 105,699 106,699 106,699 107,699 108,699 108,699 109,699 110,699 110,699 111,699 111,699 112,699 113,699 113,699 114,699 114,699 115,699 116,699 116,699 117,699 118,699 118,699 119,699 119,699 120,699 121,699 121,699 122,699 123,699 123,699 124,699 124,699 125,699 126,699 126,699 127,699 128,699 128,699 129,699 129,699 130,699 131,699 131,699 132,699 132,699 133,699 134,699 134,699 135,699 136,699 136,699 137,699 137,699 138,699 139,699 139,699 140,699 141,699 141,699 142,699 142,699 143,699 144,699 144,699 145,699 146,699 146,699 147,699 147,699 148,699 149,699 149,699 150,699 151,699 151,699 152,699 152,699 153,699 154,699 154,699 155,699 155,699 156,699 157,699 157,699 158,699 159,699 159,699 160,699 160,699 161,699 162,699 162,699 163,699 164,699 164,699 165,699 165,699 166,699 167,699 167,699 168,699 169,699 169,699 170,699 170,699 171,699 172,699 172,699 173,699 174,699 174,699 175,699 175,699 176,699 177,699 177,699 178,699 178,699 179,699 180,699 180,699 181,699 182,699 182,699 183,699 183,699 184,699 185,699 185,699 186,699 187,699 187,699 188,699 188,699 189,699 190,699 190,699 191,699 192,699 192,699 193,699 193,699 194,699 195,699 195,699 196,699 196,699 197,699 198,699 198,699 199,699 200,699 200,699 201,699 201,699 202,699 203,699 203,699 204,699 205,699 205,699 206,699 206,699 207,699 208,699 208,699 209,699 210,699 210,699 211,699 211,699 212,699 213,699 213,699 214,699 215,699 215,699 216,699 216,699 217,699 218,699 218,699 219,699 219,699 220,699 221,699 221,699 222,699 223,699 223,699 224,699 224,699 225,699 226,699 226,699 227,699 228,699 228,699 229,699 229,699 230,699 231,699 231,699 232,699 233,699 233,699 234,699 234,699 235,699 236,699 236,699 237,699 238,699 238,699 239,699 239,699 240,699 241,699 241,699 242,699 242,699 243,699 244,699 244,699 245,699 246,699 246,699 247,699 247,699 248,699 249,699 249,699 250,699 251,699 251,699 252,699 252,699 253,699 254,699 254,699 255,699 256,699 256,699 257,699 257,699 258,699 259,699 259,699 260,699 260,699 261,699 262,699 262,699 263,699 264,699 264,699 265,699 265,699 266,699 267,699 267,699 268,699 269,699 269,699 270,699 270,699 271,699 272,699 272,699 273,699 274,699 274,699 275,699 275,699 276,699 277,699 277,699 278,699 279,699 279,699 280,699 280,699 281,699 282,699 282,699 283,699 283,699 284,699 285,699 285,699 286,699 287,699 287,699 288,699 288,699 289,699 290,699 290,699 291,699 292,699 292,699 293,699 293,699 294,699 295,699 295,699 296,699 297,699 297,699 298,699 298,699 299,699 300,699 300,699 301,699 302,699 302,699 303,699 303,699 304,699 305,699 305,699 306,699 306,699 307,699 308,699 308,699 309,699 310,699 310,699 311,699 311,699 312,699 313,699 313,699 314,699 315,699 315,699 316,699 316,699 317,699 318,699 318,699 319,699 320,699 320,699 321,699 321,699 322,699 323,699 323,699 324,699 324,699 325,699 326,699 326,699 327,699 328,699 328,699 329,699 329,699 330,699 331,699 331,699 332,699 333,699 333,699 334,699 334,699 335,699 336,699 336,699 337,699 338,699 338,699 339,699 339,699 340,699 341,699 341,699 342,699 343,699 343,699 344,699 344,699 345,699 346,699 346,699 347,699 347,699 348,699 349,699 349,699 350,699 351,699 351,699 352,699 352,699 353,699 354,699 354,699 355,699 356,699 356,699 357,699 357,699 358,699 359,699 359,699 360,699 361,699 361,699 362,699 362,699 363,699 364,699 364,699 365,699 366,699 366,699 367,699 367,699 368,699 369,699 369,699 370,699 370,699 371,699 372,699 372,699 373,699 374,699 374,699 375,699 375,699 376,699 377,699 377,699 378,699 379,699 379,699 380,699 380,699 381,699 382,699 382,699 383,699 384,699 384,699 385,699 385,699 386,699 387,699 387,699 388,699 388,699 389,699 390,699 390,699 391,699 392,699 392,699 393,699 393,699 394,699 395,699 395,699 396,699 397,699 397,699 398,699 398,699 399,699 400,699 400,699 401,699 402,699 402,699 403,699 403,699 404,699 405,699 405,699 406,699 407,699 407,699 408,699 408,699 409,699 410,699 410,699 411,699 411,699 412,699 413,699 413,699 414,699 415,699 415,699 416,699 416,699 417,699 418,699 418,699 419,699 420,699 420,699 421,699 421,699 422,699 423,699 423,699 424,699 425,699 425,699 426,699 426,699 427,699 428,699 428,699 429,699 430,699 430,699 431,699 431,699 432,699 433,699 433,699 434,699 434,699 435,699 436,699 436,699 437,699 438,699 438,699 439,699 439,699 440,699 441,699 441,699 442,699 443,699 443,699 444,699 444,699 445,699 446,699 446,699 447,699 448,699 448,699 449,699 449,699 450,699 451,699 451,699 452,699 452,699 453,699 454,699 454,699 455,699 456,699 456,699 457,699 457,699 458,699 459,699 459,699 460,699 461,699 461,699 462,699 462,699 463,699 464,699 464,699 465,699 466,699 466,699 467,699 467,699 468,699 469,699 469,699 470,699 471,699 471,699 472,699 472,699 473,699 474,699 474,699 475,699 475,699 476,699 477,699 477,699 478,699 479,699 479,699 480,699 480,699 481,699 482,699 482,699 483,699 484,699 484,699 485,699 485,699 486,699 487,699 487,699 488,699 489,699 489,699 490,699 490,699 491,699 492,699 492,699 493,699 494,699 494,699 495,699 495,699 496,699 497,699 497,699 498,699 498,699 499,699 500,699 500,699 501,699 502,699 502,699 503,699 503,699 504,699 505,699 505,699 506,699 507,699 507,699 508,699 508,699 509,699 510,699 510,699 511,699 512,699 512,699 513,699 513,699 514,699 515,699 515,699 516,699 516,699 517,699 518,699 518,699 519,699 520,699 520,699 521,699 521,699 522,699 523,699 523,699 524,699 525,699 525,699 526,699 526,699 527,699 528,699 528,699 529,699 530,699 530,699 531,699 531,699 532,699 533,699 533,699 534,699 535,699 535,699 536,699 536,699 537,699 538,699 538,699 539,699 539,699 540,699 541,699 541,699 542,699 543,699 543,699 544,699 544,699 545,699 546,699 546,699 547,699 548,699 548,699 549,699 549,699 550,699 551,699 551,699 552,699 553,699 553,699 554,699 554,699 555,699 556,699 556,699 557,699 558,699 558,699 559,699 559,699 560,699 561,699 561,699 562,699 562,699 563,699 564,699 564,699 565,699 566,699 566,699 567,699 567,699 568,699 569,699 569,699 570,699 571,699 571,699 572,699 572,699 573,699 574,699 574,699 575,699 576,699 576,699 577,699 577,699 578,699 579,699 579,699 580,699 580,699 581,699 582,699 582,699 583,699 584,699 584,699 585,699 585,699 586,699 587,699 587,699 588,699 589,699 589,699 590,699 590,699 591,699 592,699 592,699 593,699 594,699 594,699 595,699 595,699 596,699 597,699 597,699 598,699 599,699 599,699 600,699 600,699 601,699 602,699 602,699 603,699 603,699 604,699 605,699 605,699 606,699 607,699 607,699 608,699 608,699 609,699 610,699 610,699 611,699 612,699 612,699 613,699 613,699 614,699 615,699 615,699 616,699 617,699 617,699 618,699 618,699 619,699 620,699 620,699 621,699 622,699 622,699 623,699 623,699 624,699 625,699 625,699 626,699 626,699 627,699 628,699 628,699 629,699 630,699 630,699 631,699 631,699 632,699 633,699 633,699 634,699 635,699 635,699 636,699 636,699 637,699 638,699 638,699 639,699 640,699 640,699 641,699 641,699 642,699 643,699 643,699 644,699 644,699 645,699 646,699 646,699 647,699 648,699 648,699 649,699 649,699 650,699 651,699 651,699 652,699 653,699 653,699 654,699 654,699 655,699 656,699 656,699 657,699 658,699 658,699 659,699 659,699 660,699 661,699 661,699 662,699 663,699 663,699 664,699 664,699 665,699 666,699 666,699 667,699 667,699 668,699 669,699 669,699 670,699 671,699 671,699 672,699 672,699 673,699 674,699 674,699 675,699 676,699 676,699 677,699 677,699 678,699 679,699 679,699 680,699 681,699 681,699 682,699 682,699 683,699 684,699 684,699 685,699 686,699 686,699 687,699 687,699 688,699 689,699 689,699 690,699 690,699 691,699 692,699 692,699 693,699 694,699 694,699 695,699 695,699 696,699 697,699 697,699 698,699 699,699 699,699 700,699 700,68 700,68 973,68 973,699 78,699 "/>
<polyline fill="none" opacity="1" stroke="#E6194B" stroke-width="1" points="78,699 79,699 80,699 80,699 81,699 82,699 82,699 83,699 83,699 84,699 85,699 85,699 86,699 87,699 87,699 88,699 88,699 89,699 90,699 90,699 91,699 91,699 92,699 93,699 93,699 94,699 95,699 95,699 96,699 96,699 97,699 98,699 98,699 99,699 100,699 100,699 101,699 101,699 102,699 103,699 103,699 104,699 105,699 105,699 106,699 106,699 107,699 108,699 108,699 109,699 110,699 110,699 111,699 111,699 112,699 113,699 113,699 114,699 114,699 115,699 116,699 116,699 117,699 118,699 118,699 119,699 119,699 120,699 121,699 121,699 122,699 123,699 123,699 124,699 124,699 125,699 126,699 126,699 127,699 128,699 128,699 129,699 129,699 130,699 131,699 131,699 132,699 132,699 133,699 134,699 134,699 135,699 136,699 136,699 137,699 137,699 138,699 139,699 139,699 140,699 141,699 141,699 142,699 142,699 143,699 144,699 144,699 145,699 146,699 146,699 147,699 147,699 148,699 149,699 149,699 150,699 151,699 151,699 152,699 152,699 153,699 154,699 154,699 155,699 155,699 156,699 157,699 157,699 158,699 159,699 159,699 160,699 160,699 161,699 162,699 162,699 163,699 164,699 164,699 165,699 165,699 166,699 167,699 167,699 168,699 169,699 169,699 170,699 170,699 171,699 172,699 172,699 173,699 174,699 174,699 175,699 175,699 176,699 177,699 177,699 178,699 178,699 179,699 180,699 180,699 181,699 182,699 182,699 183,699 183,699 184,699 185,699 185,699 186,699 187,699 187,699 188,699 188,699 189,699 190,699 190,699 191,699 192,699 192,699 193,699 193,699 194,699 195,699 195,699 196,699 196,699 197,699 198,699 198,699 199,699 200,699 200,699 201,699 201,699 202,699 203,699 203,699 204,699 205,699 205,699 206,699 206,699 207,699 208,699 208,699 209,699 210,699 210,699 211,699 211,699 212,699 213,699 213,699 214,699 215,699 215,699 216,699 216,699 217,699 218,699 218,699 219,699 219,699 220,699 221,699 221,699 222,699 223,699 223,699 224,699 224,699 225,699 226,699 226,699 227,699 228,699 228,699 229,699 229,699 230,699 231,699 231,699 232,699 233,699 233,699 234,699 234,699 235,699 236,699 236,699 237,699 238,699 238,699 239,699 239,699 240,699 241,699 241,699 242,699 242,699 243,699 244,699 244,699 245,699 246,699 246,699 247,699 247,699 248,699 249,699 249,699 250,699 251,699 251,699 252,699 252,699 253,699 254,699 254,699 255,699 256,699 256,699 257,699 257,699 258,699 259,699 259,699 260,699 260,699 261,699 262,699 262,699 263,699 264,699 264,699 265,699 265,699 266,699 267,699 267,699 268,699 269,699 269,699 270,699 270,699 271,699 272,699 272,699 273,699 274,699 274,699 275,699 275,699 276,699 277,699 277,699 278,699 279,699 279,699 280,699 280,699 281,699 282,699 282,699 283,699 283,699 284,699 285,699 285,699 286,699 287,699 287,699 288,699 288,699 289,699 290,699 290,699 291,699 292,699 292,699 293,699 293,699 294,699 295,699 295,699 296,699 297,699 297,699 298,699 298,699 299,699 300,699 300,699 301,699 302,699 302,699 303,699 303,699 304,699 305,699 305,699 306,699 306,699 307,699 308,699 308,699 309,699 310,699 310,699 311,699 311,699 312,699 313,699 313,699 314,699 315,699 315,699 316,699 316,699 317,699 318,699 318,699 319,699 320,699 320,699 321,699 321,699 322,699 323,699 323,699 324,699 324,699 325,699 326,699 326,699 327,699 328,699 328,699 329,699 329,699 330,699 331,699 331,699 332,699 333,699 333,699 334,699 334,699 335,699 336,699 336,699 337,699 338,699 338,699 339,699 339,699 340,699 341,699 341,699 342,699 343,699 343,699 344,699 344,699 345,699 346,699 346,699 347,699 347,699 348,699 349,699 349,699 350,699 351,699 351,699 352,699 352,699 353,699 354,699 354,699 355,699 356,699 356,699 357,699 357,699 358,699 359,699 359,699 360,699 361,699 361,699 362,699 362,699 363,699 364,699 364,699 365,699 366,699 366,699 367,699 367,699 368,699 369,699 369,699 370,699 370,699 371,699 372,699 372,699 373,699 374,699 374,699 375,699 375,699 376,699 377,699 377,699 378,699 379,699 379,699 380,699 380,699 381,699 382,699 382,699 383,699 384,699 384,699 385,699 385,699 386,699 387,699 387,699 388,699 388,699 389,699 390,699 390,699 391,699 392,699 392,699 393,699 393,699 394,699 395,699 395,699 396,699 397,699 397,699 398,699 398,699 399,699 400,699 400,699 401,699 402,699 402,699 403,699 403,699 404,699 405,699 405,699 406,699 407,699 407,699 408,699 408,699 409,699 410,699 410,699 411,699 411,699 412,699 413,699 413,699 414,699 415,699 415,699 416,699 416,699 417,699 418,699 418,699 419,699 420,699 420,699 421,699 421,699 422,699 423,699 423,699 424,699 425,699 425,699 426,699 426,699 427,699 428,699 428,699 429,699 430,699 430,699 431,699 431,699 432,699 433,699 433,699 434,699 434,699 435,699 436,699 436,699 437,699 438,699 438,699 439,699 439,699 440,699 441,699 441,699 442,699 443,699 443,699 444,699 444,699 445,699 446,699 446,699 447,699 448,699 448,699 449,699 449,699 450,699 451,699 451,699 452,699 452,699 453,699 454,699 454,699 455,699 456,699 456,699 457,699 457,699 458,699 459,699 459,699 460,699 461,699 461,699 462,699 462,699 463,699 464,699 464,699 465,699 466,699 466,699 467,699 467,699 468,699 469,699 469,699 470,699 471,699 471,699 472,699 472,699 473,699 474,699 474,699 475,699 475,699 476,699 477,699 477,699 478,699 479,699 479,699 480,699 480,699 481,699 482,699 482,699 483,699 484,699 484,699 485,699 485,699 486,699 487,699 487,699 488,699 489,699 489,699 490,699 490,699 491,699 492,699 492,699 493,699 494,699 494,699 495,699 495,699 496,699 497,699 497,699 498,699 498,699 499,699 500,699 500,699 501,699 502,699 502,699 503,699 503,699 504,699 505,699 505,699 506,699 507,699 507,699 508,699 508,699 509,699 510,699 510,699 511,699 512,699 512,699 513,699 513,699 514,699 515,699 515,699 516,699 516,699 517,699 518,699 518,699 519,699 520,699 520,699 521,699 521,699 522,699 523,699 523,699 524,699 525,699 525,699 526,699 526,699 527,699 528,699 528,699 529,699 530,699 530,699 531,699 531,699 532,699 533,699 533,699 534,699 535,699 535,699 536,699 536,699 537,699 538,699 538,699 539,699 539,699 540,699 541,699 541,699 542,699 543,699 543,699 544,699 544,699 545,699 546,699 546,699 547,699 548,699 548,699 549,699 549,699 550,699 551,699 551,699 552,699 553,699 553,699 554,699 554,699 555,699 556,699 556,699 557,699 558,699 558,699 559,699 559,699 560,699 561,699 561,699 562,699 562,699 563,699 564,699 564,699 565,699 566,699 566,699 567,699 567,699 568,699 569,699 569,699 570,699 571,699 571,699 572,699 572,699 573,699 574,699 574,699 575,699 576,699 576,699 577,699 577,699 578,699 579,699 579,699 580,699 580,699 581,699 582,699 582,699 583,699 584,699 584,699 585,699 585,699 586,699 587,699 587,699 588,699 589,699 589,699 590,699 590,699 591,699 592,699 592,699 593,699 594,699 594,699 595,699 595,699 596,699 597,699 597,699 598,699 599,699 599,699 600,699 600,699 601,699 602,699 602,699 603,699 603,699 604,699 605,699 605,699 606,699 607,699 607,699 608,699 608,699 609,699 610,699 610,699 611,699 612,699 612,699 613,699 613,699 614,699 615,699 615,699 616,699 617,699 617,699 618,699 618,699 619,699 620,699 620,699 621,699 622,699 622,699 623,699 623,699 624,699 625,699 625,699 626,699 626,699 627,699 628,699 628,699 629,699 630,699 630,699 631,699 631,699 632,699 633,699 633,699 634,699 635,699 635,699 636,699 636,699 637,699 638,699 638,699 639,699 640,699 640,699 641,699 641,699 642,699 643,699 643,699 644,699 644,699 645,699 646,699 646,699 647,699 648,699 648,699 649,699 649,699 650,699 651,699 651,699 652,699 653,699 653,699 654,699 654,699 655,699 656,699 656,699 657,699 658,699 658,699 659,699 659,699 660,699 661,699 661,699 662,699 663,699 663,699 664,699 664,699 665,699 666,699 666,699 667,699 667,699 668,699 669,699 669,699 670,699 671,699 671,699 672,699 672,699 673,699 674,699 674,699 675,699 676,699 676,699 677,699 677,699 678,699 679,699 679,699 680,699 681,699 681,699 682,699 682,699 683,699 684,699 684,699 685,699 686,699 686,699 687,699 687,699 688,699 689,699 689,699 690,699 690,699 691,699 692,699 692,699 693,699 694,699 694,699 695,699 695,699 696,699 697,699 697,699 698,699 699,699 699,699 700,699 700,68 700,68 973,68 "/>
<line opacity="0.1" stroke="#000000" stroke-width="1" x1="85" y1="699" x2="85" y2="68"/>
<line opacity="0.1" stroke="#000000" stroke-width="1" x1="94" y1="699" x2="94" y2="68"/>
<line opacity="0.1" stroke="#000000" stroke-width="1" x1="103" y1="699" x2="103" y2="68"/>
<line opacity="0.1" stroke="#000000" stroke-width="1" x1="112" y1="699" x2="112" y2="68"/>
<line opacity="0.1" stroke="#000000" stroke-width="1" x1="121" y1="699" x2="121" y2="68"/>
<line opacity="0.1" stroke="#000000" stroke-width="1" x1="130" y1="699" x2="130" y2="68"/>
<line opacity="0.1" stroke="#000000" stroke-width="1" x1="138" y1="699" x2="138" y2="68"/>
<line opacity="0.1" stroke="#000000" stroke-width="1" x1="147" y1="699" x2="147" y2="68"/>
<line opacity="0.1" stroke="#000000" stroke-width="1" x1="156" y1="699" x2="156" y2="68"/>
<line opacity="0.1" stroke="#000000" stroke-width="1" x1="165" y1="699" x2="165" y2="68"/>
<line opacity="0.1" stroke="#000000" stroke-width="1" x1="174" y1="699" x2="174" y2="68"/>
<line opacity="0.1" stroke="#000000" stroke-width="1" x1="183" y1="699" x2="183" y2="68"/>
<line opacity="0.1" stroke="#000000" stroke-width="1" x1="191" y1="699" x2="191" y2="68"/>
<line opacity="0.1" stroke="#000000" stroke-width="1" x1="200" y1="699" x2="200" y2="68"/>
<line opacity="0.1" stroke="#000000" stroke-width="1" x1="209" y1="699" x2="209" y2="68"/>
<line opacity="0.1" stroke="#000000" stroke-width="1" x1="218" y1="699" x2="218" y2="68"/>
<line opacity="0.1" stroke="#000000" stroke-width="1" x1="227" y1="699" x2="227" y2="68"/>
<line opacity="0.1" stroke="#000000" stroke-width="1" x1="236" y1="699" x2="236" y2="68"/>
<line opacity="0.1" stroke="#000000" stroke-width="1" x1="244" y1="699" x2="244" y2="68"/>
<line opacity="0.1" stroke="#000000" stroke-width="1" x1="253" y1="699" x2="253" y2="68"/>
<line opacity="0.1" stroke="#000000" stroke-width="1" x1="262" y1="699" x2="262" y2="68"/>
<line opacity="0.1" stroke="#000000" stroke-width="1" x1="271" y1="699" x2="271" y2="68"/>
<line opacity="0.1" stroke="#000000" stroke-width="1" x1="280" y1="699" x2="280" y2="68"/>
<line opacity="0.1" stroke="#000000" stroke-width="1" x1="289" y1="699" x2="289" y2="68"/>
<line opacity="0.1" stroke="#000000" stroke-width="1" x1="298" y1="699" x2="298" y2="68"/>
<line opacity="0.1" stroke="#000000" stroke-width="1" x1="306" y1="699" x2="306" y2="68"/>
<line opacity="0.1" stroke="#000000" stroke-width="1" x1="315" y1="699" x2="315" y2="68"/>
<line opacity="0.1" stroke="#000000" stroke-width="1" x1="324" y1="699" x2="324" y2="68"/>
<line opacity="0.1" stroke="#000000" stroke-width="1" x1="333" y1="699" x2="333" y2="68"/>
<line opacity="0.1" stroke="#000000" stroke-width="1" x1="342" y1="699" x2="342" y2="68"/>
<line opacity="0.1" stroke="#000000" stroke-width="1" x1="351" y1="699" x2="351" y2="68"/>
<line opacity="0.1" stroke="#000000" stroke-width="1" x1="359" y1="699" x2="359" y2="68"/>
<line opacity="0.1" stroke="#000000" stroke-width="1" x1="368" y1="699" x2="368" y2="68"/>
<line opacity="0.1" stroke="#000000" stroke-width="1" x1="377" y1="699" x2="377" y2="68"/>
<line opacity="0.1" stroke="#000000" stroke-width="1" x1="386" y1="699" x2="386" y2="68"/>
<line opacity="0.1" stroke="#000000" stroke-width="1" x1="395" y1="699" x2="395" y2="68"/>
<line opacity="0.1" stroke="#000000" stroke-width="1" x1="404" y1="699" x2="404" y2="68"/>
<line opacity="0.1" stroke="#000000" stroke-width="1" x1="412" y1="699" x2="412" y2="68"/>
<line opacity="0.1" stroke="#000000" stroke-width="1" x1="421" y1="699" x2="421" y2="68"/>
<line opacity="0.1" stroke="#000000" stroke-width="1" x1="430" y1="699" x2="430" y2="68"/>
<line opacity="0.1" stroke="#000000" stroke-width="1" x1="439" y1="699" x2="439" y2="68"/>
<line opacity="0.1" stroke="#000000" stroke-width="1" x1="448" y1="699" x2="448" y2="68"/>
<line opacity="0.1" stroke="#000000" stroke-width="1" x1="457" y1="699" x2="457" y2="68"/>
<line opacity="0.1" stroke="#000000" stroke-width="1" x1="465" y1="699" x2="465" y2="68"/>
<line opacity="0.1" stroke="#000000" stroke-width="1" x1="474" y1="699" x2="474" y2="68"/>
<line opacity="0.1" stroke="#000000" stroke-width="1" x1="483" y1="699" x2="483" y2="68"/>
<line opacity="0.1" stroke="#000000" stroke-width="1" x1="492" y1="699" x2="492" y2="68"/>
<line opacity="0.1" stroke="#000000" stroke-width="1" x1="501" y1="699" x2="501" y2="68"/>
<line opacity="0.1" stroke="#000000" stroke-width="1" x1="510" y1="699" x2="510" y2="68"/>
<line opacity="0.1" stroke="#000000" stroke-width="1" x1="518" y1="699" x2="518" y2="68"/>
<line opacity="0.1" stroke="#000000" stroke-width="1" x1="527" y1="699" x2="527" y2="68"/>
<line opacity="0.1" stroke="#000000" stroke-width="1" x1="536" y1="699" x2="536" y2="68"/>
<line opacity="0.1" stroke="#000000" stroke-width="1" x1="545" y1="699" x2="545" y2="68"/>
<line opacity="0.1" stroke="#000000" stroke-width="1" x1="554" y1="699" x2="554" y2="68"/>
<line opacity="0.1" stroke="#000000" stroke-width="1" x1="563" y1="699" x2="563" y2="68"/>
<line opacity="0.1" stroke="#000000" stroke-width="1" x1="572" y1="699" x2="572" y2="68"/>
<line opacity="0.1" stroke="#000000" stroke-width="1" x1="580" y1="699" x2="580" y2="68"/>
<line opacity="0.1" stroke="#000000" stroke-width="1" x1="589" y1="699" x2="589" y2="68"/>
<line opacity="0.1" stroke="#000000" stroke-width="1" x1="598" y1="699" x2="598" y2="68"/>
<line opacity="0.1" stroke="#000000" stroke-width="1" x1="607" y1="699" x2="607" y2="68"/>
<line opacity="0.1" stroke="#000000" stroke-width="1" x1="616" y1="699" x2="616" y2="68"/>
<line opacity="0.1" stroke="#000000" stroke-width="1" x1="625" y1="699" x2="625" y2="68"/>
<line opacity="0.1" stroke="#000000" stroke-width="1" x1="633" y1="699" x2="633" y2="68"/>
<line opacity="0.1" stroke="#000000" stroke-width="1" x1="642" y1="699" x2="642" y2="68"/>
<line opacity="0.1" stroke="#000000" stroke-width="1" x1="651" y1="699" x2="651" y2="68"/>
<line opacity="0.1" stroke="#000000" stroke-width="1" x1="660" y1="699" x2="660" y2="68"/>
<line opacity="0.1" stroke="#000000" stroke-width="1" x1="669" y1="699" x2="669" y2="68"/>
<line opacity="0.1" stroke="#000000" stroke-width="1" x1="678" y1="699" x2="678" y2="68"/>
<line opacity="0.1" stroke="#000000" stroke-width="1" x1="686" y1="699" x2="686" y2="68"/>
<line opacity="0.1" stroke="#000000" stroke-width="1" x1="695" y1="699" x2="695" y2="68"/>
<line opacity="0.1" stroke="#000000" stroke-width="1" x1="704" y1="699" x2="704" y2="68"/>
<line opacity="0.1" stroke="#000000" stroke-width="1" x1="713" y1="699" x2="713" y2="68"/>
<line opacity="0.1" stroke="#000000" stroke-width="1" x1="722" y1="699" x2="722" y2="68"/>
<line opacity="0.1" stroke="#000000" stroke-width="1" x1="731" y1="699" x2="731" y2="68"/>
<line opacity="0.1" stroke="#000000" stroke-width="1" x1="739" y1="699" x2="739" y2="68"/>
<line opacity="0.1" stroke="#000000" stroke-width="1" x1="748" y1="699" x2="748" y2="68"/>
<line opacity="0.1" stroke="#000000" stroke-width="1" x1="757" y1="699" x2="757" y2="68"/>
<line opacity="0.1" stroke="#000000" stroke-width="1" x1="766" y1="699" x2="766" y2="68"/>
<line opacity="0.1" stroke="#000000" stroke-width="1" x1="775" y1="699" x2="775" y2="68"/>
<line opacity="0.1" stroke="#000000" stroke-width="1" x1="784" y1="699" x2="784" y2="68"/>
<line opacity="0.1" stroke="#000000" stroke-width="1" x1="792" y1="699" x2="792" y2="68"/>
<line opacity="0.1" stroke="#000000" stroke-width="1" x1="801" y1="699" x2="801" y2="68"/>
<line opacity="0.1" stroke="#000000" stroke-width="1" x1="810" y1="699" x2="810" y2="68"/>
<line opacity="0.1" stroke="#000000" stroke-width="1" x1="819" y1="699" x2="819" y2="68"/>
<line opacity="0.1" stroke="#000000" stroke-width="1" x1="828" y1="699" x2="828" y2="68"/>
<line opacity="0.1" stroke="#000000" stroke-width="1" x1="837" y1="699" x2="837" y2="68"/>
<line opacity="0.1" stroke="#000000" stroke-width="1" x1="846" y1="699" x2="846" y2="68"/>
<line opacity="0.1" stroke="#000000" stroke-width="1" x1="854" y1="699" x2="854" y2="68"/>
<line opacity="0.1" stroke="#000000" stroke-width="1" x1="863" y1="699" x2="863" y2="68"/>
<line opacity="0.1" stroke="#000000" stroke-width="1" x1="872" y1="699" x2="872" y2="68"/>
<line opacity="0.1" stroke="#000000" stroke-width="1" x1="881" y1="699" x2="881" y2="68"/>
<line opacity="0.1" stroke="#000000" stroke-width="1" x1="890" y1="699" x2="890" y2="68"/>
<line opacity="0.1" stroke="#000000" stroke-width="1" x1="899" y1="699" x2="899" y2="68"/>
<line opacity="0.1" stroke="#000000" stroke-width="1" x1="907" y1="699" x2="907" y2="68"/>
<line opacity="0.1" stroke="#000000" stroke-width="1" x1="916" y1="699" x2="916" y2="68"/>
<line opacity="0.1" stroke="#000000" stroke-width="1" x1="925" y1="699" x2="925" y2="68"/>
<line opacity="0.1" stroke="#000000" stroke-width="1" x1="934" y1="699" x2="934" y2="68"/>
<line opacity="0.1" stroke="#000000" stroke-width="1" x1="943" y1="699" x2="943" y2="68"/>
<line opacity="0.1" stroke="#000000" stroke-width="1" x1="952" y1="699" x2="952" y2="68"/>
<line opacity="0.1" stroke="#000000" stroke-width="1" x1="960" y1="699" x2="960" y2="68"/>
<line opacity="0.1" stroke="#000000" stroke-width="1" x1="969" y1="699" x2="969" y2="68"/>
<line opacity="0.1" stroke="#000000" stroke-width="1" x1="78" y1="699" x2="973" y2="699"/>
<line opacity="0.1" stroke="#000000" stroke-width="1" x1="78" y1="692" x2="973" y2="692"/>
<line opacity="0.1" stroke="#000000" stroke-width="1" x1="78" y1="685" x2="973" y2="685"/>
<line opacity="0.1" stroke="#000000" stroke-width="1" x1="78" y1="678" x2="973" y2="678"/>
<line opacity="0.1" stroke="#000000" stroke-width="1" x1="78" y1="671" x2="973" y2="671"/>
<line opacity="0.1" stroke="#000000" stroke-width="1" x1="78" y1="665" x2="973" y2="665"/>
<line opacity="0.1" stroke="#000000" stroke-width="1" x1="78" y1="658" x2="973" y2="658"/>
<line opacity="0.1" stroke="#000000" stroke-width="1" x1="78" y1="651" x2="973" y2="651"/>
<line opacity="0.1" stroke="#000000" stroke-width="1" x1="78" y1="644" x2="973" y2="644"/>
<line opacity="0.1" stroke="#000000" stroke-width="1" x1="78" y1="637" x2="973" y2="637"/>
<line opacity="0.1" stroke="#000000" stroke-width="1" x1="78" y1="631" x2="973" y2="631"/>
<line opacity="0.1" stroke="#000000" stroke-width="1" x1="78" y1="624" x2="973" y2="624"/>
<line opacity="0.1" stroke="#000000" stroke-width="1" x1="78" y1="617" x2="973" y2="617"/>
<line opacity="0.1" stroke="#000000" stroke-width="1" x1="78" y1="610" x2="973" y2="610"/>
<line opacity="0.1" stroke="#000000" stroke-width="1" x1="78" y1="603" x2="973" y2="603"/>
<line opacity="0.1" stroke="#000000" stroke-width="1" x1="78" y1="597" x2="973" y2="597"/>
<line opacity="0.1" stroke="#000000" stroke-width="1" x1="78" y1="590" x2="973" y2="590"/>
<line opacity="0.1" stroke="#000000" stroke-width="1" x1="78" y1="583" x2="973" y2="583"/>
<line opacity="0.1" stroke="#000000" stroke-width="1" x1="78" y1="576" x2="973" y2="576"/>
<line opacity="0.1" stroke="#000000" stroke-width="1" x1="78" y1="569" x2="973" y2="569"/>
<line opacity="0.1" stroke="#000000" stroke-width="1" x1="78" y1="563" x2="973" y2="563"/>
<line opacity="0.1" stroke="#000000" stroke-width="1" x1="78" y1="556" x2="973" y2="556"/>
<line opacity="0.1" stroke="#000000" stroke-width="1" x1="78" y1="549" x2="973" y2="549"/>
<line opacity="0.1" stroke="#000000" stroke-width="1" x1="78" y1="542" x2="973" y2="542"/>
<line opacity="0.1" stroke="#000000" stroke-width="1" x1="78" y1="535" x2="973" y2="535"/>
<line opacity="0.1" stroke="#000000" stroke-width="1" x1="78" y1="529" x2="973" y2="529"/>
<line opacity="0.1" stroke="#000000" stroke-width="1" x1="78" y1="522" x2="973" y2="522"/>
<line opacity="0.1" stroke="#000000" stroke-width="1" x1="78" y1="515" x2="973" y2="515"/>
<line opacity="0.1" stroke="#000000" stroke-width="1" x1="78" y1="508" x2="973" y2="508"/>
<line opacity="0.1" stroke="#000000" stroke-width="1" x1="78" y1="501" x2="973" y2="501"/>
<line opacity="0.1" stroke="#000000" stroke-width="1" x1="78" y1="495" x2="973" y2="495"/>
<line opacity="0.1" stroke="#000000" stroke-width="1" x1="78" y1="488" x2="973" y2="488"/>
<line opacity="0.1" stroke="#000000" stroke-width="1" x1="78" y1="481" x2="973" y2="481"/>
<line opacity="0.1" stroke="#000000" stroke-width="1" x1="78" y1="474" x2="973" y2="474"/>
<line opacity="0.1" stroke="#000000" stroke-width="1" x1="78" y1="467" x2="973" y2="467"/>
<line opacity="0.1" stroke="#000000" stroke-width="1" x1="78" y1="461" x2="973" y2="461"/>
<line opacity="0.1" stroke="#000000" stroke-width="1" x1="78" y1="454" x2="973" y2="454"/>
<line opacity="0.1" stroke="#000000" stroke-width="1" x1="78" y1="447" x2="973" y2="447"/>
<line opacity="0.1" stroke="#000000" stroke-width="1" x1="78" y1="440" x2="973" y2="440"/>
<line opacity="0.1" stroke="#000000" stroke-width="1" x1="78" y1="433" x2="973" y2="433"/>
<line opacity="0.1" stroke="#000000" stroke-width="1" x1="78" y1="427" x2="973" y2="427"/>
<line opacity="0.1" stroke="#000000" stroke-width="1" x1="78" y1="420" x2="973" y2="420"/>
<line opacity="0.1" stroke="#000000" stroke-width="1" x1="78" y1="413" x2="973" y2="413"/>
<line opacity="0.1" stroke="#000000" stroke-width="1" x1="78" y1="406" x2="973" y2="406"/>
<line opacity="0.1" stroke="#000000" stroke-width="1" x1="78" y1="399" x2="973" y2="399"/>
<line opacity="0.1" stroke="#000000" stroke-width="1" x1="78" y1="393" x2="973" y2="393"/>
<line opacity="0.1" stroke="#000000" stroke-width="1" x1="78" y1="386" x2="973" y2="386"/>
<line opacity="0.1" stroke="#000000" stroke-width="1" x1="78" y1="379" x2="973" y2="379"/>
<line opacity="0.1" stroke="#000000" stroke-width="1" x1="78" y1="372" x2="973" y2="372"/>
<line opacity="0.1" stroke="#000000" stroke-width="1" x1="78" y1="365" x2="973" y2="365"/>
<line opacity="0.1" stroke="#000000" stroke-width="1" x1="78" y1="359" x2="973" y2="359"/>
<line opacity="0.1" stroke="#000000" stroke-width="1" x1="78" y1="352" x2="973" y2="352"/>
<line opacity="0.1" stroke="#000000" stroke-width="1" x1="78" y1="345" x2="973" y2="345"/>
<line opacity="0.1" stroke="#000000" stroke-width="1" x1="78" y1="338" x2="973" y2="338"/>
<line opacity="0.1" stroke="#000000" stroke-width="1" x1="78" y1="331" x2="973" y2="331"/>
<line opacity="0.1" stroke="#000000" stroke-width="1" x1="78" y1="325" x2="973" y2="325"/>
<line opacity="0.1" stroke="#000000" stroke-width="1" x1="78" y1="318" x2="973" y2="318"/>
<line opacity="0.1" stroke="#000000" stroke-width="1" x1="78" y1="311" x2="973" y2="311"/>
<line opacity="0.1" stroke="#000000" stroke-width="1" x1="78" y1="304" x2="973" y2="304"/>
<line opacity="0.1" stroke="#000000" stroke-width="1" x1="78" y1="297" x2="973" y2="297"/>
<line opacity="0.1" stroke="#000000" stroke-width="1" x1="78" y1="291" x2="973" y2="291"/>
<line opacity="0.1" stroke="#000000" stroke-width="1" x1="78" y1="284" x2="973" y2="284"/>
<line opacity="0.1" stroke="#000000" stroke-width="1" x1="78" y1="277" x2="973" y2="277"/>
<line opacity="0.1" stroke="#000000" stroke-width="1" x1="78" y1="270" x2="973" y2="270"/>
<line opacity="0.1" stroke="#000000" stroke-width="1" x1="78" y1="263" x2="973" y2="263"/>
<line opacity="0.1" stroke="#000000" stroke-width="1" x1="78" y1="257" x2="973" y2="257"/>
<line opacity="0.1" stroke="#000000" stroke-width="1" x1="78" y1="250" x2="973" y2="250"/>
<line opacity="0.1" stroke="#000000" stroke-width="1" x1="78" y1="243" x2="973" y2="243"/>
<line opacity="0.1" stroke="#000000" stroke-width="1" x1="78" y1="236" x2="973" y2="236"/>
<line opacity="0.1" stroke="#000000" stroke-width="1" x1="78" y1="229" x2="973" y2="229"/>
<line opacity="0.1" stroke="#000000" stroke-width="1" x1="78" y1="223" x2="973" y2="223"/>
<line opacity="0.1" stroke="#000000" stroke-width="1" x1="78" y1="216" x2="973" y2="216"/>
<line opacity="0.1" stroke="#000000" stroke-width="1" x1="78" y1="209" x2="973" y2="209"/>
<line opacity="0.1" stroke="#000000" stroke-width="1" x1="78" y1="202" x2="973" y2="202"/>
<line opacity="0.1" stroke="#000000" stroke-width="1" x1="78" y1="195" x2="973" y2="195"/>
<line opacity="0.1" stroke="#000000" stroke-width="1" x1="78" y1="189" x2="973" y2="189"/>
<line opacity="0.1" stroke="#000000" stroke-width="1" x1="78" y1="182" x2="973" y2="182"/>
<line opacity="0.1" stroke="#000000" stroke-width="1" x1="78" y1="175" x2="973" y2="175"/>
<line opacity="0.1" stroke="#000000" stroke-width="1" x1="78" y1="168" x2="973" y2="168"/>
<line opacity="0.1" stroke="#000000" stroke-width="1" x1="78" y1="161" x2="973" y2="161"/>
<line opacity="0.1" stroke="#000000" stroke-width="1" x1="78" y1="155" x2="973" y2="155"/>
<line opacity="0.1" stroke="#000000" stroke-width="1" x1="78" y1="148" x2="973" y2="148"/>
<line opacity="0.1" stroke="#000000" stroke-width="1" x1="78" y1="141" x2="973" y2="141"/>
<line opacity="0.1" stroke="#000000" stroke-width="1" x1="78" y1="134" x2="973" y2="134"/>
<line opacity="0.1" stroke="#000000" stroke-width="1" x1="78" y1="127" x2="973" y2="127"/>
<line opacity="0.1" stroke="#000000" stroke-width="1" x1="78" y1="121" x2="973" y2="121"/>
<line opacity="0.1" stroke="#000000" stroke-width="1" x1="78" y1="114" x2="973" y2="114"/>
<line opacity="0.1" stroke="#000000" stroke-width="1" x1="78" y1="107" x2="973" y2="107"/>
<line opacity="0.1" stroke="#000000" stroke-width="1" x1="78" y1="100" x2="973" y2="100"/>
<line opacity="0.1" stroke="#000000" stroke-width="1" x1="78" y1="93" x2="973" y2="93"/>
<line opacity="0.1" stroke="#000000" stroke-width="1" x1="78" y1="87" x2="973" y2="87"/>
<line opacity="0.1" stroke="#000000" stroke-width="1" x1="78" y1="80" x2="973" y2="80"/>
<line opacity="0.1" stroke="#000000" stroke-width="1" x1="78" y1="73" x2="973" y2="73"/>
<text x="8" y="384" dy="0.76em" text-anchor="middle" font-family="sans-serif" font-size="9.67741935483871" opacity="1" fill="#000000" transform="rotate(270, 8, 384)">
Memory usage
</text>
<text x="526" y="760" dy="-0.5ex" text-anchor="middle" font-family="sans-serif" font-size="9.67741935483871" opacity="1" fill="#000000">
Time
</text>
<line opacity="0.2" stroke="#000000" stroke-width="1" x1="130" y1="699" x2="130" y2="68"/>
<line opacity="0.2" stroke="#000000" stroke-width="1" x1="306" y1="699" x2="306" y2="68"/>
<line opacity="0.2" stroke="#000000" stroke-width="1" x1="483" y1="699" x2="483" y2="68"/>
<line opacity="0.2" stroke="#000000" stroke-width="1" x1="660" y1="699" x2="660" y2="68"/>
<line opacity="0.2" stroke="#000000" stroke-width="1" x1="837" y1="699" x2="837" y2="68"/>
<line opacity="0.2" stroke="#000000" stroke-width="1" x1="78" y1="699" x2="973" y2="699"/>
<line opacity="0.2" stroke="#000000" stroke-width="1" x1="78" y1="631" x2="973" y2="631"/>
<line opacity="0.2" stroke="#000000" stroke-width="1" x1="78" y1="563" x2="973" y2="563"/>
<line opacity="0.2" stroke="#000000" stroke-width="1" x1="78" y1="495" x2="973" y2="495"/>
<line opacity="0.2" stroke="#000000" stroke-width="1" x1="78" y1="427" x2="973" y2="427"/>
<line opacity="0.2" stroke="#000000" stroke-width="1" x1="78" y1="359" x2="973" y2="359"/>
<line opacity="0.2" stroke="#000000" stroke-width="1" x1="78" y1="291" x2="973" y2="291"/>
<line opacity="0.2" stroke="#000000" stroke-width="1" x1="78" y1="223" x2="973" y2="223"/>
<line opacity="0.2" stroke="#000000" stroke-width="1" x1="78" y1="155" x2="973" y2="155"/>
<line opacity="0.2" stroke="#000000" stroke-width="1" x1="78" y1="87" x2="973" y2="87"/>
<polyline fill="none" opacity="1" stroke="#000000" stroke-width="1" points="77,68 77,699 "/>
<text x="68" y="699" dy="0.5ex" text-anchor="end" font-family="sans-serif" font-size="9.67741935483871" opacity="1" fill="#000000">
0.0 MB
</text>
<polyline fill="none" opacity="1" stroke="#000000" stroke-width="1" points="72,699 77,699 "/>
<text x="68" y="631" dy="0.5ex" text-anchor="end" font-family="sans-serif" font-size="9.67741935483871" opacity="1" fill="#000000">
9.5 MB
</text>
<polyline fill="none" opacity="1" stroke="#000000" stroke-width="1" points="72,631 77,631 "/>
<text x="68" y="563" dy="0.5ex" text-anchor="end" font-family="sans-serif" font-size="9.67741935483871" opacity="1" fill="#000000">
19.1 MB
</text>
<polyline fill="none" opacity="1" stroke="#000000" stroke-width="1" points="72,563 77,563 "/>
<text x="68" y="495" dy="0.5ex" text-anchor="end" font-family="sans-serif" font-size="9.67741935483871" opacity="1" fill="#000000">
28.6 MB
</text>
<polyline fill="none" opacity="1" stroke="#000000" stroke-width="1" points="72,495 77,495 "/>
<text x="68" y="427" dy="0.5ex" text-anchor="end" font-family="sans-serif" font-size="9.67741935483871" opacity="1" fill="#000000">
38.1 MB
</text>
<polyline fill="none" opacity="1" stroke="#000000" stroke-width="1" points="72,427 77,427 "/>
<text x="68" y="359" dy="0.5ex" text-anchor="end" font-family="sans-serif" font-size="9.67741935483871" opacity="1" fill="#000000">
47.7 MB
</text>
<polyline fill="none" opacity="1" stroke="#000000" stroke-width="1" points="72,359 77,359 "/>
<text x="68" y="291" dy="0.5ex" text-anchor="end" font-family="sans-serif" font-size="9.67741935483871" opacity="1" fill="#000000">
57.2 MB
</text>
<polyline fill="none" opacity="1" stroke="#000000" stroke-width="1" points="72,291 77,291 "/>
<text x="68" y="223" dy="0.5ex" text-anchor="end" font-family="sans-serif" font-size="9.67741935483871" opacity="1" fill="#000000">
66.8 MB
</text>
<polyline fill="none" opacity="1" stroke="#000000" stroke-width="1" points="72,223 77,223 "/>
<text x="68" y="155" dy="0.5ex" text-anchor="end" font-family="sans-serif" font-size="9.67741935483871" opacity="1" fill="#000000">
76.3 MB
</text>
<polyline fill="none" opacity="1" stroke="#000000" stroke-width="1" points="72,155 77,155 "/>
<text x="68" y="87" dy="0.5ex" text-anchor="end" font-family="sans-serif" font-size="9.67741935483871" opacity="1" fill="#000000">
85.8 MB
</text>
<polyline fill="none" opacity="1" stroke="#000000" stroke-width="1" points="72,87 77,87 "/>
<polyline fill="none" opacity="1" stroke="#000000" stroke-width="1" points="78,700 973,700 "/>
<text x="130" y="710" dy="0.76em" text-anchor="middle" font-family="sans-serif" font-size="9.67741935483871" opacity="1" fill="#000000">
07 17:46:40
</text>
<polyline fill="none" opacity="1" stroke="#000000" stroke-width="1" points="130,700 130,705 "/>
<text x="306" y="710" dy="0.76em" text-anchor="middle" font-family="sans-serif" font-size="9.67741935483871" opacity="1" fill="#000000">
07 20:33:20
</text>
<polyline fill="none" opacity="1" stroke="#000000" stroke-width="1" points="306,700 306,705 "/>
<text x="483" y="710" dy="0.76em" text-anchor="middle" font-family="sans-serif" font-size="9.67741935483871" opacity="1" fill="#000000">
07 23:20:00
</text>
<polyline fill="none" opacity="1" stroke="#000000" stroke-width="1" points="483,700 483,705 "/>
<text x="660" y="710" dy="0.76em" text-anchor="middle" font-family="sans-serif" font-size="9.67741935483871" opacity="1" fill="#000000">
08 02:06:40
</text>
<polyline fill="none" opacity="1" stroke="#000000" stroke-width="1" points="660,700 660,705 "/>
<text x="837" y="710" dy="0.76em" text-anchor="middle" font-family="sans-serif" font-size="9.67741935483871" opacity="1" fill="#000000">
08 04:53:20
</text>
<polyline fill="none" opacity="1" stroke="#000000" stroke-width="1" points="837,700 837,705 "/>
<polyline fill="none" opacity="1" stroke="#000000" stroke-width="1" points="78,67 974,67 "/>
<text x="130" y="58" dy="-0.5ex" text-anchor="middle" font-family="sans-serif" font-size="9.67741935483871" opacity="1" fill="#000000">
+00:49:04
</text>
<polyline fill="none" opacity="1" stroke="#000000" stroke-width="1" points="130,62 130,67 "/>
<text x="307" y="58" dy="-0.5ex" text-anchor="middle" font-family="sans-serif" font-size="9.67741935483871" opacity="1" fill="#000000">
+03:35:44
</text>
<polyline fill="none" opacity="1" stroke="#000000" stroke-width="1" points="307,62 307,67 "/>
<text x="484" y="58" dy="-0.5ex" text-anchor="middle" font-family="sans-serif" font-size="9.67741935483871" opacity="1" fill="#000000">
+06:22:24
</text>
<polyline fill="none" opacity="1" stroke="#000000" stroke-width="1" points="484,62 484,67 "/>
<text x="661" y="58" dy="-0.5ex" text-anchor="middle" font-family="sans-serif" font-size="9.67741935483871" opacity="1" fill="#000000">
+09:09:04
</text>
<polyline fill="none" opacity="1" stroke="#000000" stroke-width="1" points="661,62 661,67 "/>
<text x="838" y="58" dy="-0.5ex" text-anchor="middle" font-family="sans-serif" font-size="9.67741935483871" opacity="1" fill="#000000">
+11:55:44
</text>
<polyline fill="none" opacity="1" stroke="#000000" stroke-width="1" points="838,62 838,67 "/>
<rect x="83" y="73" width="99" height="45" opacity="0.75" fill="#FFFFFF" stroke="none"/>
<rect x="83" y="73" width="99" height="45" opacity="1" fill="none" stroke="#000000"/>
<text x="123" y="83" dy="0.76em" text-anchor="start" font-family="sans-serif" font-size="9.67741935483871" opacity="1" fill="#000000">
Temporary
</text>
<text x="123" y="98" dy="0.76em" text-anchor="start" font-family="sans-serif" font-size="9.67741935483871" opacity="1" fill="#000000">
Leaked
</text>
<rect x="93" y="83" width="10" height="10" opacity="1" fill="#3CB44B" stroke="none"/>
<rect x="93" y="98" width="10" height="10" opacity="1" fill="#E6194B" stroke="none"/>
</svg>
