<svg width="1024" height="768" viewBox="0 0 1024 768" xmlns="http://www.w3.org/2000/svg">
<rect x="0" y="0" width="1024" height="768" opacity="1" fill="#FFFFFF" stroke="none"/>
<polygon opacity="1" fill="#3CB44B" points="973,699 973,699 973,699 "/>
<polyline fill="none" opacity="1" stroke="#3CB44B" stroke-width="1" points="973,699 "/>
<polygon opacity="1" fill="#E6194B" points="78,697 79,697 80,696 81,696 82,695 83,694 84,694 84,693 85,692 86,692 87,691 88,690 89,690 90,689 91,689 92,688 92,687 93,687 94,686 95,686 96,685 97,684 98,684 99,683 100,683 101,682 101,681 102,681 103,680 104,680 105,679 106,678 107,678 108,677 109,677 109,676 110,675 111,675 112,674 113,673 114,673 115,672 116,672 117,671 118,670 118,670 119,669 120,669 121,668 122,667 123,667 124,666 125,665 126,665 126,664 127,664 128,663 129,662 130,662 131,661 132,660 133,660 134,659 134,659 135,658 136,657 137,657 138,656 139,656 140,655 141,654 142,653 143,653 143,652 144,652 145,651 146,650 147,650 148,649 149,648 150,648 151,647 151,647 152,646 153,645 154,645 155,644 156,644 157,643 158,642 159,642 160,641 160,640 161,640 162,639 163,639 164,638 165,637 166,637 167,636 168,635 168,635 169,634 170,633 171,633 172,632 173,632 174,631 175,630 176,630 176,629 177,628 178,628 179,627 180,626 181,626 182,625 183,625 184,624 185,623 185,623 186,622 187,621 188,621 189,620 190,620 191,619 192,618 193,618 193,617 194,616 195,616 196,615 197,614 198,614 199,613 200,613 201,612 202,611 202,611 203,610 204,610 205,609 206,608 207,607 208,607 209,606 210,606 210,605 211,604 212,604 213,603 214,603 215,602 216,602 217,601 218,600 218,600 219,599 220,598 221,598 222,597 223,597 224,596 225,596 226,595 227,594 227,594 228,593 229,593 230,592 231,591 232,591 233,590 234,590 235,589 235,589 236,588 237,587 238,587 239,586 240,585 241,585 242,584 243,584 244,583 244,582 245,581 246,581 247,580 248,580 249,579 250,579 251,578 252,577 252,577 253,576 254,576 255,575 256,574 257,574 258,573 259,572 260,572 260,571 261,570 262,570 263,569 264,568 265,568 266,567 267,566 268,566 269,565 269,564 270,564 271,563 272,563 273,562 274,562 275,561 276,560 277,560 277,559 278,559 279,558 280,557 281,557 282,556 283,555 284,555 285,554 286,553 286,553 287,552 288,551 289,551 290,550 291,550 292,549 293,548 294,548 294,547 295,546 296,546 297,545 298,545 299,544 300,544 301,543 302,542 302,542 303,541 304,541 305,540 306,539 307,539 308,538 309,537 310,537 311,536 311,536 312,535 313,534 314,534 315,533 316,532 317,532 318,531 319,531 319,530 320,529 321,529 322,528 323,527 324,527 325,526 326,526 327,525 328,524 328,524 329,523 330,522 331,522 332,521 333,520 334,520 335,519 336,518 336,518 337,517 338,516 339,516 340,515 341,515 342,514 343,513 344,513 344,512 345,511 346,511 347,510 348,509 349,509 350,508 351,507 352,507 353,506 353,506 354,505 355,505 356,504 357,503 358,503 359,502 360,501 361,501 361,500 362,499 363,499 364,498 365,498 366,497 367,496 368,496 369,495 370,494 370,494 371,493 372,493 373,492 374,491 375,491 376,490 377,489 378,489 378,488 379,488 380,487 381,486 382,486 383,485 384,484 385,484 386,483 386,482 387,482 388,481 389,480 390,480 391,479 392,478 393,478 394,477 395,476 395,476 396,475 397,474 398,474 399,473 400,472 401,472 402,471 403,470 403,470 404,469 405,468 406,468 407,467 408,467 409,466 410,465 411,465 412,464 412,463 413,463 414,462 415,461 416,461 417,460 418,460 419,459 420,458 420,458 421,457 422,456 423,456 424,455 425,455 426,454 427,453 428,453 428,452 429,451 430,451 431,450 432,449 433,449 434,448 435,447 436,447 437,446 437,445 438,445 439,444 440,444 441,443 442,443 443,442 444,441 445,440 445,440 446,439 447,438 448,438 449,437 450,437 451,436 452,435 453,435 454,434 454,433 455,433 456,432 457,431 458,431 459,430 460,430 461,429 462,428 462,428 463,427 464,427 465,426 466,425 467,425 468,424 469,423 470,423 470,422 471,422 472,421 473,420 474,420 475,419 476,418 477,418 478,417 479,416 479,416 480,415 481,415 482,414 483,413 484,413 485,412 486,411 487,411 487,410 488,409 489,409 490,408 491,407 492,407 493,406 494,406 495,405 496,405 496,404 497,403 498,402 499,402 500,401 501,400 502,400 503,399 504,399 504,398 505,397 506,397 507,396 508,395 509,395 510,394 511,394 512,393 512,392 513,392 514,391 515,390 516,390 517,389 518,388 519,388 520,387 521,387 521,386 522,385 523,385 524,384 525,383 526,383 527,382 528,381 529,381 529,380 530,379 531,379 532,378 533,377 534,377 535,376 536,376 537,375 538,374 538,374 539,373 540,372 541,372 542,371 543,371 544,370 545,369 546,369 546,368 547,368 548,367 549,366 550,365 551,365 552,364 553,363 554,363 554,362 555,362 556,361 557,360 558,360 559,359 560,359 561,358 562,358 563,357 563,356 564,356 565,355 566,354 567,354 568,353 569,352 570,352 571,351 571,350 572,350 573,349 574,348 575,348 576,347 577,347 578,346 579,346 580,345 580,344 581,344 582,343 583,342 584,342 585,341 586,340 587,340 588,339 588,339 589,338 590,337 591,337 592,336 593,335 594,335 595,334 596,333 596,333 597,332 598,332 599,331 600,331 601,330 602,329 603,328 604,328 605,327 605,327 606,326 607,325 608,325 609,324 610,324 611,323 612,322 613,322 613,321 614,320 615,320 616,319 617,318 618,318 619,317 620,316 621,315 622,315 622,314 623,314 624,313 625,312 626,312 627,311 628,311 629,310 630,310 630,309 631,308 632,308 633,307 634,306 635,306 636,305 637,304 638,304 638,303 639,303 640,302 641,301 642,301 643,300 644,299 645,299 646,298 647,297 647,297 648,296 649,295 650,295 651,294 652,294 653,293 654,292 655,292 655,291 656,290 657,290 658,289 659,288 660,288 661,287 662,287 663,286 664,285 664,285 665,284 666,283 667,283 668,282 669,282 670,281 671,281 672,280 672,279 673,279 674,278 675,277 676,277 677,276 678,275 679,275 680,274 680,273 681,273 682,272 683,271 684,271 685,270 686,269 687,269 688,268 689,267 689,267 690,266 691,266 692,265 693,264 694,264 695,263 696,263 697,262 697,261 698,261 699,260 700,259 701,259 702,258 703,258 704,257 705,256 706,256 706,255 707,255 708,254 709,253 710,253 711,252 712,251 713,251 714,250 714,250 715,249 716,248 717,248 718,247 719,247 720,246 721,245 722,245 722,244 723,244 724,243 725,242 726,241 727,241 728,240 729,240 730,239 731,238 731,238 732,237 733,237 734,236 735,235 736,235 737,234 738,233 739,232 739,232 740,231 741,231 742,230 743,229 744,229 745,228 746,228 747,227 748,226 748,226 749,225 750,224 751,224 752,223 753,222 754,222 755,221 756,221 756,220 757,219 758,219 759,218 760,217 761,217 762,216 763,215 764,215 764,214 765,213 766,213 767,212 768,212 769,211 770,210 771,210 772,209 773,208 773,208 774,207 775,206 776,206 777,205 778,205 779,204 780,203 781,203 781,202 782,202 783,201 784,201 785,200 786,199 787,199 788,198 789,197 790,197 790,196 791,195 792,194 793,194 794,193 795,193 796,192 797,191 798,191 798,190 799,190 800,189 801,188 802,188 803,187 804,186 805,186 806,185 806,185 807,184 808,184 809,183 810,182 811,181 812,181 813,180 814,179 815,179 815,178 816,177 817,176 818,176 819,175 820,175 821,174 822,173 823,173 823,172 824,171 825,170 826,170 827,169 828,168 829,168 830,167 831,167 832,166 832,165 833,165 834,164 835,163 836,163 837,162 838,161 839,161 840,160 840,160 841,159 842,158 843,158 844,157 845,156 846,156 847,155 848,155 848,154 849,154 850,153 851,152 852,152 853,151 854,150 855,150 856,149 857,148 857,148 858,147 859,147 860,146 861,145 862,145 863,144 864,143 865,143 865,142 866,142 867,141 868,140 869,140 870,139 871,138 872,138 873,137 874,136 874,136 875,135 876,134 877,134 878,133 879,133 880,132 881,132 882,131 882,130 883,130 884,129 885,128 886,128 887,127 888,126 889,126 890,125 890,124 891,123 892,123 893,122 894,122 895,121 896,121 897,120 898,119 899,119 899,118 900,117 901,117 902,116 903,115 904,115 905,114 906,113 907,113 907,112 908,111 909,111 910,110 911,109 912,109 913,108 914,108 915,107 916,107 916,106 917,105 918,105 919,104 920,103 921,103 922,102 923,102 924,101 924,100 925,100 926,99 927,98 928,98 929,97 930,97 931,96 932,95 932,95 933,94 934,94 935,93 936,92 937,91 938,91 939,90 940,89 941,89 941,88 942,88 943,87 944,86 945,86 946,85 947,85 948,84 949,83 949,83 950,82 951,81 952,81 953,80 954,80 955,79 956,79 957,78 958,77 958,77 959,76 960,75 961,75 962,74 963,73 964,73 965,72 966,71 966,71 967,70 968,69 969,69 970,68 971,68 971,68 973,68 973,699 78,699 "/>
<polyline fill="none" opacity="1" stroke="#E6194B" stroke-width="1" points="78,697 79,697 80,696 81,696 82,695 83,694 84,694 84,693 85,692 86,692 87,691 88,690 89,690 90,689 91,689 92,688 92,687 93,687 94,686 95,686 96,685 97,684 98,684 99,683 100,683 101,682 101,681 102,681 103,680 104,680 105,679 106,678 107,678 108,677 109,677 109,676 110,675 111,675 112,674 113,673 114,673 115,672 116,672 117,671 118,670 118,670 119,669 120,669 121,668 122,667 123,667 124,666 125,665 126,665 126,664 127,664 128,663 129,662 130,662 131,661 132,660 133,660 134,659 134,659 135,658 136,657 137,657 138,656 139,656 140,655 141,654 142,653 143,653 143,652 144,652 145,651 146,650 147,650 148,649 149,648 150,648 151,647 151,647 152,646 153,645 154,645 155,644 156,644 157,643 158,642 159,642 160,641 160,640 161,640 162,639 163,639 164,638 165,637 166,637 167,636 168,635 168,635 169,634 170,633 171,633 172,632 173,632 174,631 175,630 176,630 176,629 177,628 178,628 179,627 180,626 181,626 182,625 183,625 184,624 185,623 185,623 186,622 187,621 188,621 189,620 190,620 191,619 192,618 193,618 193,617 194,616 195,616 196,615 197,614 198,614 199,613 200,613 201,612 202,611 202,611 203,610 204,610 205,609 206,608 207,607 208,607 209,606 210,606 210,605 211,604 212,604 213,603 214,603 215,602 216,602 217,601 218,600 218,600 219,599 220,598 221,598 222,597 223,597 224,596 225,596 226,595 227,594 227,594 228,593 229,593 230,592 231,591 232,591 233,590 234,590 235,589 235,589 236,588 237,587 238,587 239,586 240,585 241,585 242,584 243,584 244,583 244,582 245,581 246,581 247,580 248,580 249,579 250,579 251,578 252,577 252,577 253,576 254,576 255,575 256,574 257,574 258,573 259,572 260,572 260,571 261,570 262,570 263,569 264,568 265,568 266,567 267,566 268,566 269,565 269,564 270,564 271,563 272,563 273,562 274,562 275,561 276,560 277,560 277,559 278,559 279,558 280,557 281,557 282,556 283,555 284,555 285,554 286,553 286,553 287,552 288,551 289,551 290,550 291,550 292,549 293,548 294,548 294,547 295,546 296,546 297,545 298,545 299,544 300,544 301,543 302,542 302,542 303,541 304,541 305,540 306,539 307,539 308,538 309,537 310,537 311,536 311,536 312,535 313,534 314,534 315,533 316,532 317,532 318,531 319,531 319,530 320,529 321,529 322,528 323,527 324,527 325,526 326,526 327,525 328,524 328,524 329,523 330,522 331,522 332,521 333,520 334,520 335,519 336,518 336,518 337,517 338,516 339,516 340,515 341,515 342,514 343,513 344,513 344,512 345,511 346,511 347,510 348,509 349,509 350,508 351,507 352,507 353,506 353,506 354,505 355,505 356,504 357,503 358,503 359,502 360,501 361,501 361,500 362,499 363,499 364,498 365,498 366,497 367,496 368,496 369,495 370,494 370,494 371,493 372,493 373,492 374,491 375,491 376,490 377,489 378,489 378,488 379,488 380,487 381,486 382,486 383,485 384,484 385,484 386,483 386,482 387,482 388,481 389,480 390,480 391,479 392,478 393,478 394,477 395,476 395,476 396,475 397,474 398,474 399,473 400,472 401,472 402,471 403,470 403,470 404,469 405,468 406,468 407,467 408,467 409,466 410,465 411,465 412,464 412,463 413,463 414,462 415,461 416,461 417,460 418,460 419,459 420,458 420,458 421,457 422,456 423,456 424,455 425,455 426,454 427,453 428,453 428,452 429,451 430,451 431,450 432,449 433,449 434,448 435,447 436,447 437,446 437,445 438,445 439,444 440,444 441,443 442,443 443,442 444,441 445,440 445,440 446,439 447,438 448,438 449,437 450,437 451,436 452,435 453,435 454,434 454,433 455,433 456,432 457,431 458,431 459,430 460,430 461,429 462,428 462,428 463,427 464,427 465,426 466,425 467,425 468,424 469,423 470,423 470,422 471,422 472,421 473,420 474,420 475,419 476,418 477,418 478,417 479,416 479,416 480,415 481,415 482,414 483,413 484,413 485,412 486,411 487,411 487,410 488,409 489,409 490,408 491,407 492,407 493,406 494,406 495,405 496,405 496,404 497,403 498,402 499,402 500,401 501,400 502,400 503,399 504,399 504,398 505,397 506,397 507,396 508,395 509,395 510,394 511,394 512,393 512,392 513,392 514,391 515,390 516,390 517,389 518,388 519,388 520,387 521,387 521,386 522,385 523,385 524,384 525,383 526,383 527,382 528,381 529,381 529,380 530,379 531,379 532,378 533,377 534,377 535,376 536,376 537,375 538,374 538,374 539,373 540,372 541,372 542,371 543,371 544,370 545,369 546,369 546,368 547,368 548,367 549,366 550,365 551,365 552,364 553,363 554,363 554,362 555,362 556,361 557,360 558,360 559,359 560,359 561,358 562,358 563,357 563,356 564,356 565,355 566,354 567,354 568,353 569,352 570,352 571,351 571,350 572,350 573,349 574,348 575,348 576,347 577,347 578,346 579,346 580,345 580,344 581,344 582,343 583,342 584,342 585,341 586,340 587,340 588,339 588,339 589,338 590,337 591,337 592,336 593,335 594,335 595,334 596,333 596,333 597,332 598,332 599,331 600,331 601,330 602,329 603,328 604,328 605,327 605,327 606,326 607,325 608,325 609,324 610,324 611,323 612,322 613,322 613,321 614,320 615,320 616,319 617,318 618,318 619,317 620,316 621,315 622,315 622,314 623,314 624,313 625,312 626,312 627,311 628,311 629,310 630,310 630,309 631,308 632,308 633,307 634,306 635,306 636,305 637,304 638,304 638,303 639,303 640,302 641,301 642,301 643,300 644,299 645,299 646,298 647,297 647,297 648,296 649,295 650,295 651,294 652,294 653,293 654,292 655,292 655,291 656,290 657,290 658,289 659,288 660,288 661,287 662,287 663,286 664,285 664,285 665,284 666,283 667,283 668,282 669,282 670,281 671,281 672,280 672,279 673,279 674,278 675,277 676,277 677,276 678,275 679,275 680,274 680,273 681,273 682,272 683,271 684,271 685,270 686,269 687,269 688,268 689,267 689,267 690,266 691,266 692,265 693,264 694,264 695,263 696,263 697,262 697,261 698,261 699,260 700,259 701,259 702,258 703,258 704,257 705,256 706,256 706,255 707,255 708,254 709,253 710,253 711,252 712,251 713,251 714,250 714,250 715,249 716,248 717,248 718,247 719,247 720,246 721,245 722,245 722,244 723,244 724,243 725,242 726,241 727,241 728,240 729,240 730,239 731,238 731,238 732,237 733,237 734,236 735,235 736,235 737,234 738,233 739,232 739,232 740,231 741,231 742,230 743,229 744,229 745,228 746,228 747,227 748,226 748,226 749,225 750,224 751,224 752,223 753,222 754,222 755,221 756,221 756,220 757,219 758,219 759,218 760,217 761,217 762,216 763,215 764,215 764,214 765,213 766,213 767,212 768,212 769,211 770,210 771,210 772,209 773,208 773,208 774,207 775,206 776,206 777,205 778,205 779,204 780,203 781,203 781,202 782,202 783,201 784,201 785,200 786,199 787,199 788,198 789,197 790,197 790,196 791,195 792,194 793,194 794,193 795,193 796,192 797,191 798,191 798,190 799,190 800,189 801,188 802,188 803,187 804,186 805,186 806,185 806,185 807,184 808,184 809,183 810,182 811,181 812,181 813,180 814,179 815,179 815,178 816,177 817,176 818,176 819,175 820,175 821,174 822,173 823,173 823,172 824,171 825,170 826,170 827,169 828,168 829,168 830,167 831,167 832,166 832,165 833,165 834,164 835,163 836,163 837,162 838,161 839,161 840,160 840,160 841,159 842,158 843,158 844,157 845,156 846,156 847,155 848,155 848,154 849,154 850,153 851,152 852,152 853,151 854,150 855,150 856,149 857,148 857,148 858,147 859,147 860,146 861,145 862,145 863,144 864,143 865,143 865,142 866,142 867,141 868,140 869,140 870,139 871,138 872,138 873,137 874,136 874,136 875,135 876,134 877,134 878,133 879,133 880,132 881,132 882,131 882,130 883,130 884,129 885,128 886,128 887,127 888,126 889,126 890,125 890,124 891,123 892,123 893,122 894,122 895,121 896,121 897,120 898,119 899,119 899,118 900,117 901,117 902,116 903,115 904,115 905,114 906,113 907,113 907,112 908,111 909,111 910,110 911,109 912,109 913,108 914,108 915,107 916,107 916,106 917,105 918,105 919,104 920,103 921,103 922,102 923,102 924,101 924,100 925,100 926,99 927,98 928,98 929,97 930,97 931,96 932,95 932,95 933,94 934,94 935,93 936,92 937,91 938,91 939,90 940,89 941,89 941,88 942,88 943,87 944,86 945,86 946,85 947,85 948,84 949,83 949,83 950,82 951,81 952,81 953,80 954,80 955,79 956,79 957,78 958,77 958,77 959,76 960,75 961,75 962,74 963,73 964,73 965,72 966,71 966,71 967,70 968,69 969,69 970,68 971,68 971,68 973,68 "/>
<line opacity="0.1" stroke="#000000" stroke-width="1" x1="85" y1="699" x2="85" y2="68"/>
<line opacity="0.1" stroke="#000000" stroke-width="1" x1="94" y1="699" x2="94" y2="68"/>
<line opacity="0.1" stroke="#000000" stroke-width="1" x1="103" y1="699" x2="103" y2="68"/>
<line opacity="0.1" stroke="#000000" stroke-width="1" x1="112" y1="699" x2="112" y2="68"/>
<line opacity="0.1" stroke="#000000" stroke-width="1" x1="121" y1="699" x2="121" y2="68"/>
<line opacity="0.1" stroke="#000000" stroke-width="1" x1="130" y1="699" x2="130" y2="68"/>
<line opacity="0.1" stroke="#000000" stroke-width="1" x1="138" y1="699" x2="138" y2="68"/>
<line opacity="0.1" stroke="#000000" stroke-width="1" x1="147" y1="699" x2="147" y2="68"/>
<line opacity="0.1" stroke="#000000" stroke-width="1" x1="156" y1="699" x2="156" y2="68"/>
<line opacity="0.1" stroke="#000000" stroke-width="1" x1="165" y1="699" x2="165" y2="68"/>
<line opacity="0.1" stroke="#000000" stroke-width="1" x1="174" y1="699" x2="174" y2="68"/>
<line opacity="0.1" stroke="#000000" stroke-width="1" x1="183" y1="699" x2="183" y2="68"/>
<line opacity="0.1" stroke="#000000" stroke-width="1" x1="191" y1="699" x2="191" y2="68"/>
<line opacity="0.1" stroke="#000000" stroke-width="1" x1="200" y1="699" x2="200" y2="68"/>
<line opacity="0.1" stroke="#000000" stroke-width="1" x1="209" y1="699" x2="209" y2="68"/>
<line opacity="0.1" stroke="#000000" stroke-width="1" x1="218" y1="699" x2="218" y2="68"/>
<line opacity="0.1" stroke="#000000" stroke-width="1" x1="227" y1="699" x2="227" y2="68"/>
<line opacity="0.1" stroke="#000000" stroke-width="1" x1="236" y1="699" x2="236" y2="68"/>
<line opacity="0.1" stroke="#000000" stroke-width="1" x1="244" y1="699" x2="244" y2="68"/>
<line opacity="0.1" stroke="#000000" stroke-width="1" x1="253" y1="699" x2="253" y2="68"/>
<line opacity="0.1" stroke="#000000" stroke-width="1" x1="262" y1="699" x2="262" y2="68"/>
<line opacity="0.1" stroke="#000000" stroke-width="1" x1="271" y1="699" x2="271" y2="68"/>
<line opacity="0.1" stroke="#000000" stroke-width="1" x1="280" y1="699" x2="280" y2="68"/>
<line opacity="0.1" stroke="#000000" stroke-width="1" x1="289" y1="699" x2="289" y2="68"/>
<line opacity="0.1" stroke="#000000" stroke-width="1" x1="298" y1="699" x2="298" y2="68"/>
<line opacity="0.1" stroke="#000000" stroke-width="1" x1="306" y1="699" x2="306" y2="68"/>
<line opacity="0.1" stroke="#000000" stroke-width="1" x1="315" y1="699" x2="315" y2="68"/>
<line opacity="0.1" stroke="#000000" stroke-width="1" x1="324" y1="699" x2="324" y2="68"/>
<line opacity="0.1" stroke="#000000" stroke-width="1" x1="333" y1="699" x2="333" y2="68"/>
<line opacity="0.1" stroke="#000000" stroke-width="1" x1="342" y1="699" x2="342" y2="68"/>
<line opacity="0.1" stroke="#000000" stroke-width="1" x1="351" y1="699" x2="351" y2="68"/>
<line opacity="0.1" stroke="#000000" stroke-width="1" x1="359" y1="699" x2="359" y2="68"/>
<line opacity="0.1" stroke="#000000" stroke-width="1" x1="368" y1="699" x2="368" y2="68"/>
<line opacity="0.1" stroke="#000000" stroke-width="1" x1="377" y1="699" x2="377" y2="68"/>
<line opacity="0.1" stroke="#000000" stroke-width="1" x1="386" y1="699" x2="386" y2="68"/>
<line opacity="0.1" stroke="#000000" stroke-width="1" x1="395" y1="699" x2="395" y2="68"/>
<line opacity="0.1" stroke="#000000" stroke-width="1" x1="404" y1="699" x2="404" y2="68"/>
<line opacity="0.1" stroke="#000000" stroke-width="1" x1="412" y1="699" x2="412" y2="68"/>
<line opacity="0.1" stroke="#000000" stroke-width="1" x1="421" y1="699" x2="421" y2="68"/>
<line opacity="0.1" stroke="#000000" stroke-width="1" x1="430" y1="699" x2="430" y2="68"/>
<line opacity="0.1" stroke="#000000" stroke-width="1" x1="439" y1="699" x2="439" y2="68"/>
<line opacity="0.1" stroke="#000000" stroke-width="1" x1="448" y1="699" x2="448" y2="68"/>
<line opacity="0.1" stroke="#000000" stroke-width="1" x1="457" y1="699" x2="457" y2="68"/>
<line opacity="0.1" stroke="#000000" stroke-width="1" x1="465" y1="699" x2="465" y2="68"/>
<line opacity="0.1" stroke="#000000" stroke-width="1" x1="474" y1="699" x2="474" y2="68"/>
<line opacity="0.1" stroke="#000000" stroke-width="1" x1="483" y1="699" x2="483" y2="68"/>
<line opacity="0.1" stroke="#000000" stroke-width="1" x1="492" y1="699" x2="492" y2="68"/>
<line opacity="0.1" stroke="#000000" stroke-width="1" x1="501" y1="699" x2="501" y2="68"/>
<line opacity="0.1" stroke="#000000" stroke-width="1" x1="510" y1="699" x2="510" y2="68"/>
<line opacity="0.1" stroke="#000000" stroke-width="1" x1="518" y1="699" x2="518" y2="68"/>
<line opacity="0.1" stroke="#000000" stroke-width="1" x1="527" y1="699" x2="527" y2="68"/>
<line opacity="0.1" stroke="#000000" stroke-width="1" x1="536" y1="699" x2="536" y2="68"/>
<line opacity="0.1" stroke="#000000" stroke-width="1" x1="545" y1="699" x2="545" y2="68"/>
<line opacity="0.1" stroke="#000000" stroke-width="1" x1="554" y1="699" x2="554" y2="68"/>
<line opacity="0.1" stroke="#000000" stroke-width="1" x1="563" y1="699" x2="563" y2="68"/>
<line opacity="0.1" stroke="#000000" stroke-width="1" x1="572" y1="699" x2="572" y2="68"/>
<line opacity="0.1" stroke="#000000" stroke-width="1" x1="580" y1="699" x2="580" y2="68"/>
<line opacity="0.1" stroke="#000000" stroke-width="1" x1="589" y1="699" x2="589" y2="68"/>
<line opacity="0.1" stroke="#000000" stroke-width="1" x1="598" y1="699" x2="598" y2="68"/>
<line opacity="0.1" stroke="#000000" stroke-width="1" x1="607" y1="699" x2="607" y2="68"/>
<line opacity="0.1" stroke="#000000" stroke-width="1" x1="616" y1="699" x2="616" y2="68"/>
<line opacity="0.1" stroke="#000000" stroke-width="1" x1="625" y1="699" x2="625" y2="68"/>
<line opacity="0.1" stroke="#000000" stroke-width="1" x1="633" y1="699" x2="633" y2="68"/>
<line opacity="0.1" stroke="#000000" stroke-width="1" x1="642" y1="699" x2="642" y2="68"/>
<line opacity="0.1" stroke="#000000" stroke-width="1" x1="651" y1="699" x2="651" y2="68"/>
<line opacity="0.1" stroke="#000000" stroke-width="1" x1="660" y1="699" x2="660" y2="68"/>
<line opacity="0.1" stroke="#000000" stroke-width="1" x1="669" y1="699" x2="669" y2="68"/>
<line opacity="0.1" stroke="#000000" stroke-width="1" x1="678" y1="699" x2="678" y2="68"/>
<line opacity="0.1" stroke="#000000" stroke-width="1" x1="686" y1="699" x2="686" y2="68"/>
<line opacity="0.1" stroke="#000000" stroke-width="1" x1="695" y1="699" x2="695" y2="68"/>
<line opacity="0.1" stroke="#000000" stroke-width="1" x1="704" y1="699" x2="704" y2="68"/>
<line opacity="0.1" stroke="#000000" stroke-width="1" x1="713" y1="699" x2="713" y2="68"/>
<line opacity="0.1" stroke="#000000" stroke-width="1" x1="722" y1="699" x2="722" y2="68"/>
<line opacity="0.1" stroke="#000000" stroke-width="1" x1="731" y1="699" x2="731" y2="68"/>
<line opacity="0.1" stroke="#000000" stroke-width="1" x1="739" y1="699" x2="739" y2="68"/>
<line opacity="0.1" stroke="#000000" stroke-width="1" x1="748" y1="699" x2="748" y2="68"/>
<line opacity="0.1" stroke="#000000" stroke-width="1" x1="757" y1="699" x2="757" y2="68"/>
<line opacity="0.1" stroke="#000000" stroke-width="1" x1="766" y1="699" x2="766" y2="68"/>
<line opacity="0.1" stroke="#000000" stroke-width="1" x1="775" y1="699" x2="775" y2="68"/>
<line opacity="0.1" stroke="#000000" stroke-width="1" x1="784" y1="699" x2="784" y2="68"/>
<line opacity="0.1" stroke="#000000" stroke-width="1" x1="792" y1="699" x2="792" y2="68"/>
<line opacity="0.1" stroke="#000000" stroke-width="1" x1="801" y1="699" x2="801" y2="68"/>
<line opacity="0.1" stroke="#000000" stroke-width="1" x1="810" y1="699" x2="810" y2="68"/>
<line opacity="0.1" stroke="#000000" stroke-width="1" x1="819" y1="699" x2="819" y2="68"/>
<line opacity="0.1" stroke="#000000" stroke-width="1" x1="828" y1="699" x2="828" y2="68"/>
<line opacity="0.1" stroke="#000000" stroke-width="1" x1="837" y1="699" x2="837" y2="68"/>
<line opacity="0.1" stroke="#000000" stroke-width="1" x1="846" y1="699" x2="846" y2="68"/>
<line opacity="0.1" stroke="#000000" stroke-width="1" x1="854" y1="699" x2="854" y2="68"/>
<line opacity="0.1" stroke="#000000" stroke-width="1" x1="863" y1="699" x2="863" y2="68"/>
<line opacity="0.1" stroke="#000000" stroke-width="1" x1="872" y1="699" x2="872" y2="68"/>
<line opacity="0.1" stroke="#000000" stroke-width="1" x1="881" y1="699" x2="881" y2="68"/>
<line opacity="0.1" stroke="#000000" stroke-width="1" x1="890" y1="699" x2="890" y2="68"/>
<line opacity="0.1" stroke="#000000" stroke-width="1" x1="899" y1="699" x2="899" y2="68"/>
<line opacity="0.1" stroke="#000000" stroke-width="1" x1="907" y1="699" x2="907" y2="68"/>
<line opacity="0.1" stroke="#000000" stroke-width="1" x1="916" y1="699" x2="916" y2="68"/>
<line opacity="0.1" stroke="#000000" stroke-width="1" x1="925" y1="699" x2="925" y2="68"/>
<line opacity="0.1" stroke="#000000" stroke-width="1" x1="934" y1="699" x2="934" y2="68"/>
<line opacity="0.1" stroke="#000000" stroke-width="1" x1="943" y1="699" x2="943" y2="68"/>
<line opacity="0.1" stroke="#000000" stroke-width="1" x1="952" y1="699" x2="952" y2="68"/>
<line opacity="0.1" stroke="#000000" stroke-width="1" x1="960" y1="699" x2="960" y2="68"/>
<line opacity="0.1" stroke="#000000" stroke-width="1" x1="969" y1="699" x2="969" y2="68"/>
<line opacity="0.1" stroke="#000000" stroke-width="1" x1="78" y1="699" x2="973" y2="699"/>
<line opacity="0.1" stroke="#000000" stroke-width="1" x1="78" y1="691" x2="973" y2="691"/>
<line opacity="0.1" stroke="#000000" stroke-width="1" x1="78" y1="684" x2="973" y2="684"/>
<line opacity="0.1" stroke="#000000" stroke-width="1" x1="78" y1="677" x2="973" y2="677"/>
<line opacity="0.1" stroke="#000000" stroke-width="1" x1="78" y1="669" x2="973" y2="669"/>
<line opacity="0.1" stroke="#000000" stroke-width="1" x1="78" y1="662" x2="973" y2="662"/>
<line opacity="0.1" stroke="#000000" stroke-width="1" x1="78" y1="655" x2="973" y2="655"/>
<line opacity="0.1" stroke="#000000" stroke-width="1" x1="78" y1="647" x2="973" y2="647"/>
<line opacity="0.1" stroke="#000000" stroke-width="1" x1="78" y1="640" x2="973" y2="640"/>
<line opacity="0.1" stroke="#000000" stroke-width="1" x1="78" y1="633" x2="973" y2="633"/>
<line opacity="0.1" stroke="#000000" stroke-width="1" x1="78" y1="625" x2="973" y2="625"/>
<line opacity="0.1" stroke="#000000" stroke-width="1" x1="78" y1="618" x2="973" y2="618"/>
<line opacity="0.1" stroke="#000000" stroke-width="1" x1="78" y1="611" x2="973" y2="611"/>
<line opacity="0.1" stroke="#000000" stroke-width="1" x1="78" y1="603" x2="973" y2="603"/>
<line opacity="0.1" stroke="#000000" stroke-width="1" x1="78" y1="596" x2="973" y2="596"/>
<line opacity="0.1" stroke="#000000" stroke-width="1" x1="78" y1="589" x2="973" y2="589"/>
<line opacity="0.1" stroke="#000000" stroke-width="1" x1="78" y1="582" x2="973" y2="582"/>
<line opacity="0.1" stroke="#000000" stroke-width="1" x1="78" y1="574" x2="973" y2="574"/>
<line opacity="0.1" stroke="#000000" stroke-width="1" x1="78" y1="567" x2="973" y2="567"/>
<line opacity="0.1" stroke="#000000" stroke-width="1" x1="78" y1="560" x2="973" y2="560"/>
<line opacity="0.1" stroke="#000000" stroke-width="1" x1="78" y1="552" x2="973" y2="552"/>
<line opacity="0.1" stroke="#000000" stroke-width="1" x1="78" y1="545" x2="973" y2="545"/>
<line opacity="0.1" stroke="#000000" stroke-width="1" x1="78" y1="538" x2="973" y2="538"/>
<line opacity="0.1" stroke="#000000" stroke-width="1" x1="78" y1="530" x2="973" y2="530"/>
<line opacity="0.1" stroke="#000000" stroke-width="1" x1="78" y1="523" x2="973" y2="523"/>
<line opacity="0.1" stroke="#000000" stroke-width="1" x1="78" y1="516" x2="973" y2="516"/>
<line opacity="0.1" stroke="#000000" stroke-width="1" x1="78" y1="508" x2="973" y2="508"/>
<line opacity="0.1" stroke="#000000" stroke-width="1" x1="78" y1="501" x2="973" y2="501"/>
<line opacity="0.1" stroke="#000000" stroke-width="1" x1="78" y1="494" x2="973" y2="494"/>
<line opacity="0.1" stroke="#000000" stroke-width="1" x1="78" y1="486" x2="973" y2="486"/>
<line opacity="0.1" stroke="#000000" stroke-width="1" x1="78" y1="479" x2="973" y2="479"/>
<line opacity="0.1" stroke="#000000" stroke-width="1" x1="78" y1="472" x2="973" y2="472"/>
<line opacity="0.1" stroke="#000000" stroke-width="1" x1="78" y1="465" x2="973" y2="465"/>
<line opacity="0.1" stroke="#000000" stroke-width="1" x1="78" y1="457" x2="973" y2="457"/>
<line opacity="0.1" stroke="#000000" stroke-width="1" x1="78" y1="450" x2="973" y2="450"/>
<line opacity="0.1" stroke="#000000" stroke-width="1" x1="78" y1="443" x2="973" y2="443"/>
<line opacity="0.1" stroke="#000000" stroke-width="1" x1="78" y1="435" x2="973" y2="435"/>
<line opacity="0.1" stroke="#000000" stroke-width="1" x1="78" y1="428" x2="973" y2="428"/>
<line opacity="0.1" stroke="#000000" stroke-width="1" x1="78" y1="421" x2="973" y2="421"/>
<line opacity="0.1" stroke="#000000" stroke-width="1" x1="78" y1="413" x2="973" y2="413"/>
<line opacity="0.1" stroke="#000000" stroke-width="1" x1="78" y1="406" x2="973" y2="406"/>
<line opacity="0.1" stroke="#000000" stroke-width="1" x1="78" y1="399" x2="973" y2="399"/>
<line opacity="0.1" stroke="#000000" stroke-width="1" x1="78" y1="391" x2="973" y2="391"/>
<line opacity="0.1" stroke="#000000" stroke-width="1" x1="78" y1="384" x2="973" y2="384"/>
<line opacity="0.1" stroke="#000000" stroke-width="1" x1="78" y1="377" x2="973" y2="377"/>
<line opacity="0.1" stroke="#000000" stroke-width="1" x1="78" y1="370" x2="973" y2="370"/>
<line opacity="0.1" stroke="#000000" stroke-width="1" x1="78" y1="362" x2="973" y2="362"/>
<line opacity="0.1" stroke="#000000" stroke-width="1" x1="78" y1="355" x2="973" y2="355"/>
<line opacity="0.1" stroke="#000000" stroke-width="1" x1="78" y1="348" x2="973" y2="348"/>
<line opacity="0.1" stroke="#000000" stroke-width="1" x1="78" y1="340" x2="973" y2="340"/>
<line opacity="0.1" stroke="#000000" stroke-width="1" x1="78" y1="333" x2="973" y2="333"/>
<line opacity="0.1" stroke="#000000" stroke-width="1" x1="78" y1="326" x2="973" y2="326"/>
<line opacity="0.1" stroke="#000000" stroke-width="1" x1="78" y1="318" x2="973" y2="318"/>
<line opacity="0.1" stroke="#000000" stroke-width="1" x1="78" y1="311" x2="973" y2="311"/>
<line opacity="0.1" stroke="#000000" stroke-width="1" x1="78" y1="304" x2="973" y2="304"/>
<line opacity="0.1" stroke="#000000" stroke-width="1" x1="78" y1="296" x2="973" y2="296"/>
<line opacity="0.1" stroke="#000000" stroke-width="1" x1="78" y1="289" x2="973" y2="289"/>
<line opacity="0.1" stroke="#000000" stroke-width="1" x1="78" y1="282" x2="973" y2="282"/>
<line opacity="0.1" stroke="#000000" stroke-width="1" x1="78" y1="274" x2="973" y2="274"/>
<line opacity="0.1" stroke="#000000" stroke-width="1" x1="78" y1="267" x2="973" y2="267"/>
<line opacity="0.1" stroke="#000000" stroke-width="1" x1="78" y1="260" x2="973" y2="260"/>
<line opacity="0.1" stroke="#000000" stroke-width="1" x1="78" y1="253" x2="973" y2="253"/>
<line opacity="0.1" stroke="#000000" stroke-width="1" x1="78" y1="245" x2="973" y2="245"/>
<line opacity="0.1" stroke="#000000" stroke-width="1" x1="78" y1="238" x2="973" y2="238"/>
<line opacity="0.1" stroke="#000000" stroke-width="1" x1="78" y1="231" x2="973" y2="231"/>
<line opacity="0.1" stroke="#000000" stroke-width="1" x1="78" y1="223" x2="973" y2="223"/>
<line opacity="0.1" stroke="#000000" stroke-width="1" x1="78" y1="216" x2="973" y2="216"/>
<line opacity="0.1" stroke="#000000" stroke-width="1" x1="78" y1="209" x2="973" y2="209"/>
<line opacity="0.1" stroke="#000000" stroke-width="1" x1="78" y1="201" x2="973" y2="201"/>
<line opacity="0.1" stroke="#000000" stroke-width="1" x1="78" y1="194" x2="973" y2="194"/>
<line opacity="0.1" stroke="#000000" stroke-width="1" x1="78" y1="187" x2="973" y2="187"/>
<line opacity="0.1" stroke="#000000" stroke-width="1" x1="78" y1="179" x2="973" y2="179"/>
<line opacity="0.1" stroke="#000000" stroke-width="1" x1="78" y1="172" x2="973" y2="172"/>
<line opacity="0.1" stroke="#000000" stroke-width="1" x1="78" y1="165" x2="973" y2="165"/>
<line opacity="0.1" stroke="#000000" stroke-width="1" x1="78" y1="158" x2="973" y2="158"/>
<line opacity="0.1" stroke="#000000" stroke-width="1" x1="78" y1="150" x2="973" y2="150"/>
<line opacity="0.1" stroke="#000000" stroke-width="1" x1="78" y1="143" x2="973" y2="143"/>
<line opacity="0.1" stroke="#000000" stroke-width="1" x1="78" y1="136" x2="973" y2="136"/>
<line opacity="0.1" stroke="#000000" stroke-width="1" x1="78" y1="128" x2="973" y2="128"/>
<line opacity="0.1" stroke="#000000" stroke-width="1" x1="78" y1="121" x2="973" y2="121"/>
<line opacity="0.1" stroke="#000000" stroke-width="1" x1="78" y1="114" x2="973" y2="114"/>
<line opacity="0.1" stroke="#000000" stroke-width="1" x1="78" y1="106" x2="973" y2="106"/>
<line opacity="0.1" stroke="#000000" stroke-width="1" x1="78" y1="99" x2="973" y2="99"/>
<line opacity="0.1" stroke="#000000" stroke-width="1" x1="78" y1="92" x2="973" y2="92"/>
<line opacity="0.1" stroke="#000000" stroke-width="1" x1="78" y1="84" x2="973" y2="84"/>
<line opacity="0.1" stroke="#000000" stroke-width="1" x1="78" y1="77" x2="973" y2="77"/>
<line opacity="0.1" stroke="#000000" stroke-width="1" x1="78" y1="70" x2="973" y2="70"/>
<text x="8" y="384" dy="0.76em" text-anchor="middle" font-family="sans-serif" font-size="9.67741935483871" opacity="1" fill="#000000" transform="rotate(270, 8, 384)">
Memory usage
</text>
<text x="526" y="760" dy="-0.5ex" text-anchor="middle" font-family="sans-serif" font-size="9.67741935483871" opacity="1" fill="#000000">
Time
</text>
<line opacity="0.2" stroke="#000000" stroke-width="1" x1="130" y1="699" x2="130" y2="68"/>
<line opacity="0.2" stroke="#000000" stroke-width="1" x1="306" y1="699" x2="306" y2="68"/>
<line opacity="0.2" stroke="#000000" stroke-width="1" x1="483" y1="699" x2="483" y2="68"/>
<line opacity="0.2" stroke="#000000" stroke-width="1" x1="660" y1="699" x2="660" y2="68"/>
<line opacity="0.2" stroke="#000000" stroke-width="1" x1="837" y1="699" x2="837" y2="68"/>
<line opacity="0.2" stroke="#000000" stroke-width="1" x1="78" y1="699" x2="973" y2="699"/>
<line opacity="0.2" stroke="#000000" stroke-width="1" x1="78" y1="625" x2="973" y2="625"/>
<line opacity="0.2" stroke="#000000" stroke-width="1" x1="78" y1="552" x2="973" y2="552"/>
<line opacity="0.2" stroke="#000000" stroke-width="1" x1="78" y1="479" x2="973" y2="479"/>
<line opacity="0.2" stroke="#000000" stroke-width="1" x1="78" y1="406" x2="973" y2="406"/>
<line opacity="0.2" stroke="#000000" stroke-width="1" x1="78" y1="333" x2="973" y2="333"/>
<line opacity="0.2" stroke="#000000" stroke-width="1" x1="78" y1="260" x2="973" y2="260"/>
<line opacity="0.2" stroke="#000000" stroke-width="1" x1="78" y1="187" x2="973" y2="187"/>
<line opacity="0.2" stroke="#000000" stroke-width="1" x1="78" y1="114" x2="973" y2="114"/>
<polyline fill="none" opacity="1" stroke="#000000" stroke-width="1" points="77,68 77,699 "/>
<text x="68" y="699" dy="0.5ex" text-anchor="end" font-family="sans-serif" font-size="9.67741935483871" opacity="1" fill="#000000">
0.00 MB
</text>
<polyline fill="none" opacity="1" stroke="#000000" stroke-width="1" points="72,699 77,699 "/>
<text x="68" y="625" dy="0.5ex" text-anchor="end" font-family="sans-serif" font-size="9.67741935483871" opacity="1" fill="#000000">
0.95 MB
</text>
<polyline fill="none" opacity="1" stroke="#000000" stroke-width="1" points="72,625 77,625 "/>
<text x="68" y="552" dy="0.5ex" text-anchor="end" font-family="sans-serif" font-size="9.67741935483871" opacity="1" fill="#000000">
1.91 MB
</text>
<polyline fill="none" opacity="1" stroke="#000000" stroke-width="1" points="72,552 77,552 "/>
<text x="68" y="479" dy="0.5ex" text-anchor="end" font-family="sans-serif" font-size="9.67741935483871" opacity="1" fill="#000000">
2.86 MB
</text>
<polyline fill="none" opacity="1" stroke="#000000" stroke-width="1" points="72,479 77,479 "/>
<text x="68" y="406" dy="0.5ex" text-anchor="end" font-family="sans-serif" font-size="9.67741935483871" opacity="1" fill="#000000">
3.81 MB
</text>
<polyline fill="none" opacity="1" stroke="#000000" stroke-width="1" points="72,406 77,406 "/>
<text x="68" y="333" dy="0.5ex" text-anchor="end" font-family="sans-serif" font-size="9.67741935483871" opacity="1" fill="#000000">
4.77 MB
</text>
<polyline fill="none" opacity="1" stroke="#000000" stroke-width="1" points="72,333 77,333 "/>
<text x="68" y="260" dy="0.5ex" text-anchor="end" font-family="sans-serif" font-size="9.67741935483871" opacity="1" fill="#000000">
5.72 MB
</text>
<polyline fill="none" opacity="1" stroke="#000000" stroke-width="1" points="72,260 77,260 "/>
<text x="68" y="187" dy="0.5ex" text-anchor="end" font-family="sans-serif" font-size="9.67741935483871" opacity="1" fill="#000000">
6.68 MB
</text>
<polyline fill="none" opacity="1" stroke="#000000" stroke-width="1" points="72,187 77,187 "/>
<text x="68" y="114" dy="0.5ex" text-anchor="end" font-family="sans-serif" font-size="9.67741935483871" opacity="1" fill="#000000">
7.63 MB
</text>
<polyline fill="none" opacity="1" stroke="#000000" stroke-width="1" points="72,114 77,114 "/>
<polyline fill="none" opacity="1" stroke="#000000" stroke-width="1" points="78,700 973,700 "/>
<text x="130" y="710" dy="0.76em" text-anchor="middle" font-family="sans-serif" font-size="9.67741935483871" opacity="1" fill="#000000">
07 17:46:40
</text>
<polyline fill="none" opacity="1" stroke="#000000" stroke-width="1" points="130,700 130,705 "/>
<text x="306" y="710" dy="0.76em" text-anchor="middle" font-family="sans-serif" font-size="9.67741935483871" opacity="1" fill="#000000">
07 20:33:20
</text>
<polyline fill="none" opacity="1" stroke="#000000" stroke-width="1" points="306,700 306,705 "/>
<text x="483" y="710" dy="0.76em" text-anchor="middle" font-family="sans-serif" font-size="9.67741935483871" opacity="1" fill="#000000">
07 23:20:00
</text>
<polyline fill="none" opacity="1" stroke="#000000" stroke-width="1" points="483,700 483,705 "/>
<text x="660" y="710" dy="0.76em" text-anchor="middle" font-family="sans-serif" font-size="9.67741935483871" opacity="1" fill="#000000">
08 02:06:40
</text>
<polyline fill="none" opacity="1" stroke="#000000" stroke-width="1" points="660,700 660,705 "/>
<text x="837" y="710" dy="0.76em" text-anchor="middle" font-family="sans-serif" font-size="9.67741935483871" opacity="1" fill="#000000">
08 04:53:20
</text>
<polyline fill="none" opacity="1" stroke="#000000" stroke-width="1" points="837,700 837,705 "/>
<polyline fill="none" opacity="1" stroke="#000000" stroke-width="1" points="78,67 974,67 "/>
<text x="130" y="58" dy="-0.5ex" text-anchor="middle" font-family="sans-serif" font-size="9.67741935483871" opacity="1" fill="#000000">
+00:49:04
</text>
<polyline fill="none" opacity="1" stroke="#000000" stroke-width="1" points="130,62 130,67 "/>
<text x="307" y="58" dy="-0.5ex" text-anchor="middle" font-family="sans-serif" font-size="9.67741935483871" opacity="1" fill="#000000">
+03:35:44
</text>
<polyline fill="none" opacity="1" stroke="#000000" stroke-width="1" points="307,62 307,67 "/>
<text x="484" y="58" dy="-0.5ex" text-anchor="middle" font-family="sans-serif" font-size="9.67741935483871" opacity="1" fill="#000000">
+06:22:24
</text>
<polyline fill="none" opacity="1" stroke="#000000" stroke-width="1" points="484,62 484,67 "/>
<text x="661" y="58" dy="-0.5ex" text-anchor="middle" font-family="sans-serif" font-size="9.67741935483871" opacity="1" fill="#000000">
+09:09:04
</text>
<polyline fill="none" opacity="1" stroke="#000000" stroke-width="1" points="661,62 661,67 "/>
<text x="838" y="58" dy="-0.5ex" text-anchor="middle" font-family="sans-serif" font-size="9.67741935483871" opacity="1" fill="#000000">
+11:55:44
</text>
<polyline fill="none" opacity="1" stroke="#000000" stroke-width="1" points="838,62 838,67 "/>
<rect x="83" y="73" width="99" height="45" opacity="0.75" fill="#FFFFFF" stroke="none"/>
<rect x="83" y="73" width="99" height="45" opacity="1" fill="none" stroke="#000000"/>
<text x="123" y="83" dy="0.76em" text-anchor="start" font-family="sans-serif" font-size="9.67741935483871" opacity="1" fill="#000000">
Temporary
</text>
<text x="123" y="98" dy="0.76em" text-anchor="start" font-family="sans-serif" font-size="9.67741935483871" opacity="1" fill="#000000">
Leaked
</text>
<rect x="93" y="83" width="10" height="10" opacity="1" fill="#3CB44B" stroke="none"/>
<rect x="93" y="98" width="10" height="10" opacity="1" fill="#E6194B" stroke="none"/>
</svg>
