<svg width="1024" height="768" viewBox="0 0 1024 768" xmlns="http://www.w3.org/2000/svg">
<rect x="0" y="0" width="1024" height="768" opacity="1" fill="#FFFFFF" stroke="none"/>
<polygon opacity="1" fill="#3CB44B" points="78,676 79,658 80,647 81,628 82,616 83,594 83,579 84,563 85,544 86,527 87,514 88,488 89,474 89,459 90,442 91,435 92,420 93,409 94,390 94,372 95,365 96,345 97,335 98,321 99,304 100,296 100,287 101,287 102,286 103,289 104,304 105,314 105,316 106,326 107,342 108,333 109,335 110,338 111,333 111,327 112,331 113,332 114,319 115,315 116,314 117,307 117,294 118,300 119,299 120,298 121,283 122,282 122,291 123,299 124,303 125,288 126,290 127,283 128,282 128,284 129,285 130,271 131,277 132,284 133,295 133,298 134,306 135,306 136,304 137,308 138,306 139,308 139,302 140,300 141,311 142,320 143,329 144,313 145,318 145,321 146,323 147,323 148,322 149,326 150,321 150,320 151,321 152,323 153,326 154,340 155,345 156,341 156,341 157,311 158,301 159,300 160,301 161,303 162,315 162,326 163,339 164,341 165,345 166,317 167,317 167,316 168,313 169,308 170,315 171,318 172,328 173,344 173,318 174,316 175,316 176,320 177,337 178,347 178,350 179,348 180,346 181,314 182,312 183,319 184,328 184,329 185,332 186,324 187,322 188,322 189,308 190,323 190,329 191,331 192,331 193,321 194,320 195,321 195,323 196,330 197,318 198,333 199,336 200,332 201,325 201,322 202,323 203,321 204,323 205,301 206,302 206,302 207,311 208,319 209,328 210,339 211,364 212,376 212,381 213,360 214,358 215,360 216,359 217,366 218,369 218,362 219,364 220,338 221,338 222,330 223,329 223,328 224,337 225,352 226,310 227,308 228,316 229,337 229,346 230,344 231,299 232,282 233,283 234,301 234,334 235,343 236,340 237,344 238,318 239,324 240,338 240,333 241,331 242,329 243,324 244,324 245,340 246,319 246,321 247,331 248,334 249,331 250,337 251,355 251,371 252,368 253,357 254,300 255,287 256,287 257,286 257,289 258,300 259,317 260,353 261,379 262,388 262,388 263,394 264,333 265,347 266,370 267,353 268,331 268,326 269,318 270,330 271,345 272,361 273,367 274,383 274,346 275,371 276,365 277,355 278,341 279,330 279,329 280,332 281,330 282,321 283,329 284,341 285,373 285,408 286,373 287,363 288,353 289,345 290,332 291,316 291,304 292,291 293,283 294,273 295,264 296,260 296,260 297,265 298,240 299,203 300,203 301,236 302,225 302,223 303,214 304,208 305,210 306,196 307,186 307,192 308,194 309,186 310,71 311,85 312,83 313,72 313,68 314,68 315,106 316,171 317,212 318,212 319,212 319,212 320,212 321,212 322,212 323,212 324,212 324,212 325,212 326,213 327,213 328,213 329,213 330,213 330,213 331,213 332,213 333,213 334,213 335,213 335,213 336,213 337,213 338,213 339,213 340,213 341,213 341,213 342,213 343,213 344,213 345,213 346,213 347,213 347,213 348,213 349,213 350,213 351,213 352,213 352,213 353,213 354,213 355,213 356,213 357,213 358,213 358,213 359,219 360,219 361,219 362,219 363,219 363,219 364,219 365,219 366,219 367,219 368,219 369,219 369,219 370,219 371,219 372,219 373,219 374,219 375,219 375,219 376,219 377,219 378,219 379,219 380,219 380,219 381,219 382,219 383,219 384,219 385,219 386,219 386,219 387,219 388,219 389,219 390,219 391,219 391,219 392,219 393,219 394,219 395,219 396,219 397,219 397,219 398,219 399,219 400,219 401,219 402,219 403,219 403,219 404,219 405,219 406,219 407,219 408,219 408,219 409,219 410,219 411,219 412,219 413,219 414,219 414,219 415,219 416,219 417,219 418,219 419,219 420,219 420,219 421,219 422,219 423,219 424,219 425,219 425,219 426,220 427,220 428,220 429,220 430,220 431,220 431,220 432,220 433,220 434,220 435,220 436,220 436,220 437,220 438,220 439,220 440,220 441,220 442,220 442,220 443,220 444,220 445,220 446,220 447,220 448,220 448,220 449,220 450,220 451,220 452,220 453,220 453,220 454,220 455,220 456,220 457,220 458,220 459,220 459,220 460,220 461,221 462,221 463,221 464,221 464,221 465,221 466,221 467,221 468,221 469,221 470,221 470,221 471,221 472,221 473,221 474,221 475,221 476,221 476,221 477,221 478,221 479,221 480,221 481,221 481,221 482,221 483,221 484,221 485,221 486,221 487,221 487,221 488,221 489,221 490,221 491,221 492,221 492,221 493,221 494,221 495,221 496,221 497,221 498,221 498,221 499,221 500,221 501,221 502,221 503,221 504,221 504,221 505,221 506,221 507,221 508,221 509,221 509,221 510,221 511,221 512,221 513,221 514,221 515,221 515,221 516,221 517,221 518,221 519,221 520,221 520,221 521,221 522,221 523,221 524,221 525,221 526,221 526,221 527,221 528,221 529,221 530,221 531,221 532,221 532,221 533,221 534,221 535,221 536,221 537,221 537,221 538,221 539,221 540,221 541,221 542,221 543,223 543,223 544,223 545,223 546,223 547,223 548,223 549,223 549,223 550,223 551,223 552,223 553,223 554,223 554,223 555,223 556,223 557,223 558,223 559,223 560,223 560,223 561,223 562,223 563,223 564,223 565,223 565,223 566,223 567,223 568,223 569,223 570,223 571,223 571,223 572,223 573,223 574,223 575,223 576,223 577,223 577,223 578,223 579,223 580,223 581,223 582,223 582,223 583,223 584,223 585,223 586,223 587,223 588,223 588,223 589,223 590,223 591,223 592,223 593,223 593,223 594,223 595,223 596,223 597,223 598,223 599,223 599,223 600,223 601,223 602,223 603,223 604,223 605,223 605,223 606,223 607,223 608,223 609,223 610,223 610,223 611,223 612,223 613,223 614,223 615,223 616,223 616,223 617,223 618,223 619,223 620,222 621,222 621,222 622,222 623,222 624,222 625,222 626,222 627,222 627,222 628,222 629,222 630,222 631,222 632,222 633,222 633,222 634,222 635,222 636,222 637,222 638,222 638,222 639,222 640,222 641,222 642,222 643,222 644,222 644,222 645,222 646,222 647,222 648,222 649,222 649,222 650,222 651,222 652,222 653,222 654,222 655,222 655,222 656,222 657,222 658,222 659,222 660,222 661,222 661,222 662,222 663,222 664,222 665,222 666,222 666,222 667,222 668,222 669,222 670,222 671,222 672,222 672,222 673,222 674,222 675,222 676,222 677,222 678,222 678,222 679,222 680,222 681,222 682,222 683,222 683,222 684,222 685,222 686,222 687,222 688,222 689,222 689,222 690,222 691,222 692,222 693,222 694,222 694,222 695,222 696,222 697,222 698,222 699,222 700,222 700,222 701,222 702,222 703,222 704,222 705,222 706,222 706,222 707,222 708,222 709,222 710,222 711,222 711,222 712,222 713,222 714,222 715,222 716,222 717,222 717,222 718,222 719,222 720,222 721,222 722,222 722,222 723,222 724,222 725,222 726,222 727,222 728,222 728,222 729,222 730,222 731,222 732,222 733,222 734,222 734,222 735,222 736,222 737,222 738,222 739,222 739,222 740,222 741,222 742,222 743,222 744,222 745,222 745,222 746,222 747,222 748,222 749,222 750,222 750,222 751,224 752,224 753,224 754,224 755,224 756,224 756,224 757,224 758,224 759,224 760,224 761,225 762,225 762,225 763,225 764,225 765,225 766,225 767,225 767,225 768,225 769,225 770,225 771,225 772,225 773,225 773,225 774,224 775,224 776,224 777,224 778,224 778,224 779,224 780,224 781,224 782,224 783,224 784,224 784,224 785,224 786,224 787,224 788,224 789,224 790,224 790,224 791,224 792,224 793,224 794,224 795,224 795,224 796,224 797,224 798,224 799,224 800,224 801,224 801,224 802,224 803,224 804,224 805,224 806,224 807,224 807,224 808,224 809,224 810,224 811,224 812,224 812,224 813,224 814,224 815,225 816,225 817,225 818,225 818,225 819,225 820,225 821,225 822,225 823,225 823,225 824,225 825,225 826,225 827,225 828,225 829,225 829,225 830,225 831,225 832,225 833,225 834,225 835,225 835,225 836,225 837,225 838,225 839,225 840,225 840,225 841,225 842,225 843,225 844,225 845,225 846,225 846,225 847,225 848,225 849,225 850,225 851,224 851,224 852,224 853,224 854,224 855,224 856,224 857,224 857,224 858,224 859,224 860,224 861,224 862,224 863,224 863,224 864,224 865,224 866,224 867,224 868,224 868,224 869,224 870,224 871,224 872,224 873,224 874,224 874,224 875,224 876,224 877,224 878,224 879,224 879,224 880,224 881,224 882,224 883,224 884,224 885,224 885,224 886,224 887,224 888,224 889,224 890,224 891,224 891,224 892,224 893,224 894,224 895,224 896,224 896,224 897,224 898,224 899,224 900,224 901,224 902,224 902,224 903,224 904,224 905,224 906,224 907,224 907,224 907,224 908,224 909,224 910,224 911,224 912,224 913,224 913,224 914,224 915,224 916,224 917,224 918,224 919,224 919,224 920,224 921,224 922,224 923,224 924,224 924,224 925,224 926,224 926,224 973,224 973,699 78,699 "/>
<polyline fill="none" opacity="1" stroke="#3CB44B" stroke-width="1" points="78,676 79,658 80,647 81,628 82,616 83,594 83,579 84,563 85,544 86,527 87,514 88,488 89,474 89,459 90,442 91,435 92,420 93,409 94,390 94,372 95,365 96,345 97,335 98,321 99,304 100,296 100,287 101,287 102,286 103,289 104,304 105,314 105,316 106,326 107,342 108,333 109,335 110,338 111,333 111,327 112,331 113,332 114,319 115,315 116,314 117,307 117,294 118,300 119,299 120,298 121,283 122,282 122,291 123,299 124,303 125,288 126,290 127,283 128,282 128,284 129,285 130,271 131,277 132,284 133,295 133,298 134,306 135,306 136,304 137,308 138,306 139,308 139,302 140,300 141,311 142,320 143,329 144,313 145,318 145,321 146,323 147,323 148,322 149,326 150,321 150,320 151,321 152,323 153,326 154,340 155,345 156,341 156,341 157,311 158,301 159,300 160,301 161,303 162,315 162,326 163,339 164,341 165,345 166,317 167,317 167,316 168,313 169,308 170,315 171,318 172,328 173,344 173,318 174,316 175,316 176,320 177,337 178,347 178,350 179,348 180,346 181,314 182,312 183,319 184,328 184,329 185,332 186,324 187,322 188,322 189,308 190,323 190,329 191,331 192,331 193,321 194,320 195,321 195,323 196,330 197,318 198,333 199,336 200,332 201,325 201,322 202,323 203,321 204,323 205,301 206,302 206,302 207,311 208,319 209,328 210,339 211,364 212,376 212,381 213,360 214,358 215,360 216,359 217,366 218,369 218,362 219,364 220,338 221,338 222,330 223,329 223,328 224,337 225,352 226,310 227,308 228,316 229,337 229,346 230,344 231,299 232,282 233,283 234,301 234,334 235,343 236,340 237,344 238,318 239,324 240,338 240,333 241,331 242,329 243,324 244,324 245,340 246,319 246,321 247,331 248,334 249,331 250,337 251,355 251,371 252,368 253,357 254,300 255,287 256,287 257,286 257,289 258,300 259,317 260,353 261,379 262,388 262,388 263,394 264,333 265,347 266,370 267,353 268,331 268,326 269,318 270,330 271,345 272,361 273,367 274,383 274,346 275,371 276,365 277,355 278,341 279,330 279,329 280,332 281,330 282,321 283,329 284,341 285,373 285,408 286,373 287,363 288,353 289,345 290,332 291,316 291,304 292,291 293,283 294,273 295,264 296,260 296,260 297,265 298,240 299,203 300,203 301,236 302,225 302,223 303,214 304,208 305,210 306,196 307,186 307,192 308,194 309,186 310,71 311,85 312,83 313,72 313,68 314,68 315,106 316,171 317,212 318,212 319,212 319,212 320,212 321,212 322,212 323,212 324,212 324,212 325,212 326,213 327,213 328,213 329,213 330,213 330,213 331,213 332,213 333,213 334,213 335,213 335,213 336,213 337,213 338,213 339,213 340,213 341,213 341,213 342,213 343,213 344,213 345,213 346,213 347,213 347,213 348,213 349,213 350,213 351,213 352,213 352,213 353,213 354,213 355,213 356,213 357,213 358,213 358,213 359,219 360,219 361,219 362,219 363,219 363,219 364,219 365,219 366,219 367,219 368,219 369,219 369,219 370,219 371,219 372,219 373,219 374,219 375,219 375,219 376,219 377,219 378,219 379,219 380,219 380,219 381,219 382,219 383,219 384,219 385,219 386,219 386,219 387,219 388,219 389,219 390,219 391,219 391,219 392,219 393,219 394,219 395,219 396,219 397,219 397,219 398,219 399,219 400,219 401,219 402,219 403,219 403,219 404,219 405,219 406,219 407,219 408,219 408,219 409,219 410,219 411,219 412,219 413,219 414,219 414,219 415,219 416,219 417,219 418,219 419,219 420,219 420,219 421,219 422,219 423,219 424,219 425,219 425,219 426,220 427,220 428,220 429,220 430,220 431,220 431,220 432,220 433,220 434,220 435,220 436,220 436,220 437,220 438,220 439,220 440,220 441,220 442,220 442,220 443,220 444,220 445,220 446,220 447,220 448,220 448,220 449,220 450,220 451,220 452,220 453,220 453,220 454,220 455,220 456,220 457,220 458,220 459,220 459,220 460,220 461,221 462,221 463,221 464,221 464,221 465,221 466,221 467,221 468,221 469,221 470,221 470,221 471,221 472,221 473,221 474,221 475,221 476,221 476,221 477,221 478,221 479,221 480,221 481,221 481,221 482,221 483,221 484,221 485,221 486,221 487,221 487,221 488,221 489,221 490,221 491,221 492,221 492,221 493,221 494,221 495,221 496,221 497,221 498,221 498,221 499,221 500,221 501,221 502,221 503,221 504,221 504,221 505,221 506,221 507,221 508,221 509,221 509,221 510,221 511,221 512,221 513,221 514,221 515,221 515,221 516,221 517,221 518,221 519,221 520,221 520,221 521,221 522,221 523,221 524,221 525,221 526,221 526,221 527,221 528,221 529,221 530,221 531,221 532,221 532,221 533,221 534,221 535,221 536,221 537,221 537,221 538,221 539,221 540,221 541,221 542,221 543,223 543,223 544,223 545,223 546,223 547,223 548,223 549,223 549,223 550,223 551,223 552,223 553,223 554,223 554,223 555,223 556,223 557,223 558,223 559,223 560,223 560,223 561,223 562,223 563,223 564,223 565,223 565,223 566,223 567,223 568,223 569,223 570,223 571,223 571,223 572,223 573,223 574,223 575,223 576,223 577,223 577,223 578,223 579,223 580,223 581,223 582,223 582,223 583,223 584,223 585,223 586,223 587,223 588,223 588,223 589,223 590,223 591,223 592,223 593,223 593,223 594,223 595,223 596,223 597,223 598,223 599,223 599,223 600,223 601,223 602,223 603,223 604,223 605,223 605,223 606,223 607,223 608,223 609,223 610,223 610,223 611,223 612,223 613,223 614,223 615,223 616,223 616,223 617,223 618,223 619,223 620,222 621,222 621,222 622,222 623,222 624,222 625,222 626,222 627,222 627,222 628,222 629,222 630,222 631,222 632,222 633,222 633,222 634,222 635,222 636,222 637,222 638,222 638,222 639,222 640,222 641,222 642,222 643,222 644,222 644,222 645,222 646,222 647,222 648,222 649,222 649,222 650,222 651,222 652,222 653,222 654,222 655,222 655,222 656,222 657,222 658,222 659,222 660,222 661,222 661,222 662,222 663,222 664,222 665,222 666,222 666,222 667,222 668,222 669,222 670,222 671,222 672,222 672,222 673,222 674,222 675,222 676,222 677,222 678,222 678,222 679,222 680,222 681,222 682,222 683,222 683,222 684,222 685,222 686,222 687,222 688,222 689,222 689,222 690,222 691,222 692,222 693,222 694,222 694,222 695,222 696,222 697,222 698,222 699,222 700,222 700,222 701,222 702,222 703,222 704,222 705,222 706,222 706,222 707,222 708,222 709,222 710,222 711,222 711,222 712,222 713,222 714,222 715,222 716,222 717,222 717,222 718,222 719,222 720,222 721,222 722,222 722,222 723,222 724,222 725,222 726,222 727,222 728,222 728,222 729,222 730,222 731,222 732,222 733,222 734,222 734,222 735,222 736,222 737,222 738,222 739,222 739,222 740,222 741,222 742,222 743,222 744,222 745,222 745,222 746,222 747,222 748,222 749,222 750,222 750,222 751,224 752,224 753,224 754,224 755,224 756,224 756,224 757,224 758,224 759,224 760,224 761,225 762,225 762,225 763,225 764,225 765,225 766,225 767,225 767,225 768,225 769,225 770,225 771,225 772,225 773,225 773,225 774,224 775,224 776,224 777,224 778,224 778,224 779,224 780,224 781,224 782,224 783,224 784,224 784,224 785,224 786,224 787,224 788,224 789,224 790,224 790,224 791,224 792,224 793,224 794,224 795,224 795,224 796,224 797,224 798,224 799,224 800,224 801,224 801,224 802,224 803,224 804,224 805,224 806,224 807,224 807,224 808,224 809,224 810,224 811,224 812,224 812,224 813,224 814,224 815,225 816,225 817,225 818,225 818,225 819,225 820,225 821,225 822,225 823,225 823,225 824,225 825,225 826,225 827,225 828,225 829,225 829,225 830,225 831,225 832,225 833,225 834,225 835,225 835,225 836,225 837,225 838,225 839,225 840,225 840,225 841,225 842,225 843,225 844,225 845,225 846,225 846,225 847,225 848,225 849,225 850,225 851,224 851,224 852,224 853,224 854,224 855,224 856,224 857,224 857,224 858,224 859,224 860,224 861,224 862,224 863,224 863,224 864,224 865,224 866,224 867,224 868,224 868,224 869,224 870,224 871,224 872,224 873,224 874,224 874,224 875,224 876,224 877,224 878,224 879,224 879,224 880,224 881,224 882,224 883,224 884,224 885,224 885,224 886,224 887,224 888,224 889,224 890,224 891,224 891,224 892,224 893,224 894,224 895,224 896,224 896,224 897,224 898,224 899,224 900,224 901,224 902,224 902,224 903,224 904,224 905,224 906,224 907,224 907,224 907,224 908,224 909,224 910,224 911,224 912,224 913,224 913,224 914,224 915,224 916,224 917,224 918,224 919,224 919,224 920,224 921,224 922,224 923,224 924,224 924,224 925,224 926,224 926,224 973,224 "/>
<polygon opacity="1" fill="#E6194B" points="78,699 79,699 80,699 81,699 82,699 83,699 83,699 84,699 85,699 86,699 87,699 88,699 89,699 89,699 90,699 91,699 92,699 93,699 94,699 94,699 95,699 96,699 97,699 98,699 99,699 100,699 100,699 101,699 102,699 103,699 104,699 105,699 105,699 106,699 107,699 108,699 109,699 110,699 111,699 111,699 112,699 113,699 114,699 115,699 116,699 117,699 117,699 118,699 119,699 120,699 121,699 122,699 122,699 123,699 124,699 125,699 126,699 127,699 128,699 128,699 129,699 130,699 131,699 132,699 133,699 133,699 134,699 135,699 136,699 137,699 138,699 139,699 139,699 140,699 141,699 142,699 143,699 144,699 145,699 145,699 146,699 147,699 148,699 149,699 150,699 150,699 151,699 152,699 153,699 154,699 155,699 156,699 156,699 157,699 158,699 159,699 160,699 161,699 162,699 162,699 163,699 164,699 165,699 166,699 167,699 167,699 168,699 169,699 170,699 171,699 172,699 173,699 173,699 174,699 175,699 176,699 177,699 178,699 178,699 179,699 180,699 181,699 182,699 183,699 184,699 184,699 185,699 186,699 187,699 188,699 189,699 190,699 190,699 191,699 192,699 193,699 194,699 195,699 195,699 196,699 197,699 198,699 199,699 200,699 201,699 201,699 202,699 203,699 204,699 205,699 206,699 206,699 207,699 208,699 209,699 210,699 211,699 212,699 212,699 213,699 214,699 215,699 216,699 217,699 218,699 218,699 219,699 220,699 221,699 222,699 223,699 223,699 224,699 225,699 226,699 227,699 228,699 229,699 229,699 230,699 231,699 232,699 233,699 234,699 234,699 235,699 236,699 237,699 238,699 239,699 240,699 240,699 241,699 242,699 243,699 244,699 245,699 246,699 246,699 247,699 248,699 249,699 250,699 251,699 251,699 252,699 253,699 254,699 255,699 256,699 257,699 257,699 258,699 259,699 260,699 261,699 262,699 262,699 263,699 264,699 265,699 266,699 267,699 268,699 268,699 269,699 270,699 271,699 272,699 273,699 274,699 274,698 275,698 276,698 277,698 278,698 279,698 279,698 280,698 281,698 282,698 283,698 284,698 285,698 285,698 286,698 287,698 288,698 289,698 290,698 291,698 291,698 292,698 293,698 294,698 295,698 296,698 296,698 297,698 298,667 299,655 300,641 301,638 302,624 302,607 303,591 304,574 305,558 306,541 307,525 307,510 308,496 309,476 310,350 311,333 312,321 313,307 313,292 314,268 315,248 316,232 317,227 318,227 319,227 319,227 320,227 321,227 322,227 323,227 324,227 324,227 325,227 326,227 327,227 328,227 329,227 330,227 330,227 331,227 332,227 333,227 334,227 335,227 335,227 336,227 337,227 338,227 339,227 340,227 341,227 341,227 342,227 343,227 344,227 345,227 346,227 347,227 347,227 348,227 349,227 350,227 351,227 352,227 352,227 353,227 354,227 355,227 356,227 357,227 358,227 358,227 359,227 360,227 361,227 362,227 363,227 363,227 364,227 365,227 366,227 367,227 368,227 369,227 369,227 370,227 371,227 372,227 373,227 374,227 375,227 375,227 376,227 377,227 378,227 379,227 380,227 380,227 381,227 382,227 383,227 384,227 385,227 386,227 386,227 387,227 388,227 389,227 390,227 391,227 391,227 392,227 393,227 394,227 395,227 396,227 397,227 397,227 398,227 399,227 400,227 401,227 402,227 403,227 403,227 404,227 405,227 406,227 407,227 408,227 408,227 409,227 410,227 411,227 412,227 413,227 414,227 414,227 415,227 416,227 417,227 418,227 419,227 420,227 420,227 421,227 422,227 423,227 424,227 425,227 425,227 426,227 427,227 428,227 429,227 430,227 431,227 431,227 432,227 433,227 434,227 435,227 436,227 436,227 437,227 438,227 439,227 440,227 441,227 442,227 442,227 443,227 444,227 445,227 446,227 447,227 448,227 448,227 449,227 450,227 451,227 452,227 453,227 453,227 454,227 455,227 456,227 457,227 458,227 459,227 459,227 460,227 461,227 462,227 463,227 464,227 464,227 465,227 466,227 467,227 468,227 469,227 470,227 470,227 471,227 472,227 473,227 474,227 475,227 476,227 476,227 477,227 478,227 479,227 480,227 481,227 481,227 482,227 483,227 484,227 485,227 486,227 487,227 487,227 488,227 489,227 490,227 491,227 492,227 492,227 493,227 494,227 495,227 496,227 497,227 498,227 498,227 499,227 500,227 501,227 502,227 503,227 504,227 504,227 505,227 506,227 507,227 508,227 509,227 509,227 510,227 511,227 512,227 513,227 514,227 515,227 515,227 516,227 517,227 518,227 519,227 520,227 520,227 521,227 522,227 523,227 524,227 525,227 526,227 526,227 527,227 528,227 529,227 530,227 531,227 532,227 532,227 533,227 534,227 535,227 536,227 537,227 537,227 538,227 539,227 540,227 541,227 542,227 543,227 543,227 544,227 545,227 546,227 547,227 548,227 549,227 549,227 550,227 551,227 552,227 553,227 554,227 554,227 555,227 556,227 557,227 558,227 559,227 560,227 560,227 561,227 562,227 563,227 564,227 565,227 565,227 566,227 567,227 568,227 569,227 570,227 571,227 571,227 572,227 573,227 574,227 575,227 576,227 577,227 577,227 578,227 579,227 580,227 581,227 582,227 582,227 583,227 584,227 585,227 586,227 587,227 588,227 588,227 589,227 590,227 591,227 592,227 593,227 593,227 594,227 595,227 596,227 597,227 598,227 599,227 599,227 600,227 601,227 602,227 603,227 604,227 605,227 605,227 606,227 607,227 608,227 609,227 610,227 610,227 611,227 612,227 613,227 614,227 615,227 616,227 616,227 617,227 618,227 619,227 620,226 621,226 621,226 622,226 623,226 624,226 625,226 626,226 627,226 627,226 628,226 629,226 630,226 631,226 632,226 633,226 633,226 634,226 635,226 636,226 637,226 638,226 638,226 639,226 640,226 641,226 642,226 643,226 644,226 644,226 645,226 646,226 647,226 648,226 649,226 649,226 650,226 651,226 652,226 653,226 654,226 655,226 655,226 656,226 657,226 658,226 659,226 660,226 661,226 661,226 662,226 663,226 664,226 665,226 666,226 666,226 667,226 668,226 669,226 670,226 671,226 672,226 672,226 673,226 674,226 675,226 676,226 677,226 678,226 678,226 679,226 680,226 681,226 682,226 683,226 683,226 684,226 685,226 686,226 687,226 688,226 689,226 689,226 690,226 691,226 692,226 693,226 694,226 694,226 695,226 696,226 697,226 698,226 699,226 700,226 700,226 701,226 702,226 703,226 704,226 705,226 706,226 706,226 707,226 708,226 709,226 710,226 711,226 711,226 712,226 713,226 714,226 715,226 716,226 717,226 717,226 718,226 719,226 720,226 721,226 722,226 722,226 723,226 724,226 725,226 726,226 727,226 728,226 728,226 729,226 730,226 731,226 732,226 733,226 734,226 734,226 735,226 736,226 737,226 738,226 739,226 739,226 740,226 741,226 742,226 743,226 744,226 745,226 745,226 746,226 747,226 748,226 749,226 750,226 750,226 751,226 752,226 753,226 754,226 755,226 756,226 756,226 757,226 758,226 759,226 760,226 761,226 762,226 762,226 763,226 764,226 765,226 766,226 767,226 767,226 768,226 769,226 770,226 771,226 772,226 773,226 773,226 774,226 775,226 776,226 777,226 778,226 778,226 779,226 780,226 781,226 782,226 783,226 784,226 784,226 785,226 786,226 787,226 788,226 789,226 790,226 790,226 791,226 792,226 793,226 794,226 795,226 795,226 796,226 797,226 798,226 799,226 800,226 801,226 801,226 802,226 803,226 804,226 805,226 806,226 807,226 807,226 808,226 809,226 810,226 811,226 812,226 812,226 813,226 814,226 815,226 816,226 817,226 818,226 818,226 819,226 820,226 821,226 822,226 823,226 823,226 824,226 825,226 826,226 827,226 828,226 829,226 829,226 830,226 831,226 832,226 833,226 834,226 835,226 835,226 836,226 837,226 838,226 839,226 840,226 840,226 841,226 842,226 843,226 844,226 845,226 846,226 846,226 847,226 848,226 849,226 850,226 851,224 851,224 852,224 853,224 854,224 855,224 856,224 857,224 857,224 858,224 859,224 860,224 861,224 862,224 863,224 863,224 864,224 865,224 866,224 867,224 868,224 868,224 869,224 870,224 871,224 872,224 873,224 874,224 874,224 875,224 876,224 877,224 878,224 879,224 879,224 880,224 881,224 882,224 883,224 884,224 885,224 885,224 886,224 887,224 888,224 889,224 890,224 891,224 891,224 892,224 893,224 894,224 895,224 896,224 896,224 897,224 898,224 899,224 900,224 901,224 902,224 902,224 903,224 904,224 905,224 906,224 907,224 907,224 907,224 908,224 909,224 910,224 911,224 912,224 913,224 913,224 914,224 915,224 916,224 917,224 918,224 919,224 919,224 920,224 921,224 922,224 923,224 924,224 924,224 925,224 926,224 926,224 973,224 973,699 78,699 "/>
<polyline fill="none" opacity="1" stroke="#E6194B" stroke-width="1" points="78,699 79,699 80,699 81,699 82,699 83,699 83,699 84,699 85,699 86,699 87,699 88,699 89,699 89,699 90,699 91,699 92,699 93,699 94,699 94,699 95,699 96,699 97,699 98,699 99,699 100,699 100,699 101,699 102,699 103,699 104,699 105,699 105,699 106,699 107,699 108,699 109,699 110,699 111,699 111,699 112,699 113,699 114,699 115,699 116,699 117,699 117,699 118,699 119,699 120,699 121,699 122,699 122,699 123,699 124,699 125,699 126,699 127,699 128,699 128,699 129,699 130,699 131,699 132,699 133,699 133,699 134,699 135,699 136,699 137,699 138,699 139,699 139,699 140,699 141,699 142,699 143,699 144,699 145,699 145,699 146,699 147,699 148,699 149,699 150,699 150,699 151,699 152,699 153,699 154,699 155,699 156,699 156,699 157,699 158,699 159,699 160,699 161,699 162,699 162,699 163,699 164,699 165,699 166,699 167,699 167,699 168,699 169,699 170,699 171,699 172,699 173,699 173,699 174,699 175,699 176,699 177,699 178,699 178,699 179,699 180,699 181,699 182,699 183,699 184,699 184,699 185,699 186,699 187,699 188,699 189,699 190,699 190,699 191,699 192,699 193,699 194,699 195,699 195,699 196,699 197,699 198,699 199,699 200,699 201,699 201,699 202,699 203,699 204,699 205,699 206,699 206,699 207,699 208,699 209,699 210,699 211,699 212,699 212,699 213,699 214,699 215,699 216,699 217,699 218,699 218,699 219,699 220,699 221,699 222,699 223,699 223,699 224,699 225,699 226,699 227,699 228,699 229,699 229,699 230,699 231,699 232,699 233,699 234,699 234,699 235,699 236,699 237,699 238,699 239,699 240,699 240,699 241,699 242,699 243,699 244,699 245,699 246,699 246,699 247,699 248,699 249,699 250,699 251,699 251,699 252,699 253,699 254,699 255,699 256,699 257,699 257,699 258,699 259,699 260,699 261,699 262,699 262,699 263,699 264,699 265,699 266,699 267,699 268,699 268,699 269,699 270,699 271,699 272,699 273,699 274,699 274,698 275,698 276,698 277,698 278,698 279,698 279,698 280,698 281,698 282,698 283,698 284,698 285,698 285,698 286,698 287,698 288,698 289,698 290,698 291,698 291,698 292,698 293,698 294,698 295,698 296,698 296,698 297,698 298,667 299,655 300,641 301,638 302,624 302,607 303,591 304,574 305,558 306,541 307,525 307,510 308,496 309,476 310,350 311,333 312,321 313,307 313,292 314,268 315,248 316,232 317,227 318,227 319,227 319,227 320,227 321,227 322,227 323,227 324,227 324,227 325,227 326,227 327,227 328,227 329,227 330,227 330,227 331,227 332,227 333,227 334,227 335,227 335,227 336,227 337,227 338,227 339,227 340,227 341,227 341,227 342,227 343,227 344,227 345,227 346,227 347,227 347,227 348,227 349,227 350,227 351,227 352,227 352,227 353,227 354,227 355,227 356,227 357,227 358,227 358,227 359,227 360,227 361,227 362,227 363,227 363,227 364,227 365,227 366,227 367,227 368,227 369,227 369,227 370,227 371,227 372,227 373,227 374,227 375,227 375,227 376,227 377,227 378,227 379,227 380,227 380,227 381,227 382,227 383,227 384,227 385,227 386,227 386,227 387,227 388,227 389,227 390,227 391,227 391,227 392,227 393,227 394,227 395,227 396,227 397,227 397,227 398,227 399,227 400,227 401,227 402,227 403,227 403,227 404,227 405,227 406,227 407,227 408,227 408,227 409,227 410,227 411,227 412,227 413,227 414,227 414,227 415,227 416,227 417,227 418,227 419,227 420,227 420,227 421,227 422,227 423,227 424,227 425,227 425,227 426,227 427,227 428,227 429,227 430,227 431,227 431,227 432,227 433,227 434,227 435,227 436,227 436,227 437,227 438,227 439,227 440,227 441,227 442,227 442,227 443,227 444,227 445,227 446,227 447,227 448,227 448,227 449,227 450,227 451,227 452,227 453,227 453,227 454,227 455,227 456,227 457,227 458,227 459,227 459,227 460,227 461,227 462,227 463,227 464,227 464,227 465,227 466,227 467,227 468,227 469,227 470,227 470,227 471,227 472,227 473,227 474,227 475,227 476,227 476,227 477,227 478,227 479,227 480,227 481,227 481,227 482,227 483,227 484,227 485,227 486,227 487,227 487,227 488,227 489,227 490,227 491,227 492,227 492,227 493,227 494,227 495,227 496,227 497,227 498,227 498,227 499,227 500,227 501,227 502,227 503,227 504,227 504,227 505,227 506,227 507,227 508,227 509,227 509,227 510,227 511,227 512,227 513,227 514,227 515,227 515,227 516,227 517,227 518,227 519,227 520,227 520,227 521,227 522,227 523,227 524,227 525,227 526,227 526,227 527,227 528,227 529,227 530,227 531,227 532,227 532,227 533,227 534,227 535,227 536,227 537,227 537,227 538,227 539,227 540,227 541,227 542,227 543,227 543,227 544,227 545,227 546,227 547,227 548,227 549,227 549,227 550,227 551,227 552,227 553,227 554,227 554,227 555,227 556,227 557,227 558,227 559,227 560,227 560,227 561,227 562,227 563,227 564,227 565,227 565,227 566,227 567,227 568,227 569,227 570,227 571,227 571,227 572,227 573,227 574,227 575,227 576,227 577,227 577,227 578,227 579,227 580,227 581,227 582,227 582,227 583,227 584,227 585,227 586,227 587,227 588,227 588,227 589,227 590,227 591,227 592,227 593,227 593,227 594,227 595,227 596,227 597,227 598,227 599,227 599,227 600,227 601,227 602,227 603,227 604,227 605,227 605,227 606,227 607,227 608,227 609,227 610,227 610,227 611,227 612,227 613,227 614,227 615,227 616,227 616,227 617,227 618,227 619,227 620,226 621,226 621,226 622,226 623,226 624,226 625,226 626,226 627,226 627,226 628,226 629,226 630,226 631,226 632,226 633,226 633,226 634,226 635,226 636,226 637,226 638,226 638,226 639,226 640,226 641,226 642,226 643,226 644,226 644,226 645,226 646,226 647,226 648,226 649,226 649,226 650,226 651,226 652,226 653,226 654,226 655,226 655,226 656,226 657,226 658,226 659,226 660,226 661,226 661,226 662,226 663,226 664,226 665,226 666,226 666,226 667,226 668,226 669,226 670,226 671,226 672,226 672,226 673,226 674,226 675,226 676,226 677,226 678,226 678,226 679,226 680,226 681,226 682,226 683,226 683,226 684,226 685,226 686,226 687,226 688,226 689,226 689,226 690,226 691,226 692,226 693,226 694,226 694,226 695,226 696,226 697,226 698,226 699,226 700,226 700,226 701,226 702,226 703,226 704,226 705,226 706,226 706,226 707,226 708,226 709,226 710,226 711,226 711,226 712,226 713,226 714,226 715,226 716,226 717,226 717,226 718,226 719,226 720,226 721,226 722,226 722,226 723,226 724,226 725,226 726,226 727,226 728,226 728,226 729,226 730,226 731,226 732,226 733,226 734,226 734,226 735,226 736,226 737,226 738,226 739,226 739,226 740,226 741,226 742,226 743,226 744,226 745,226 745,226 746,226 747,226 748,226 749,226 750,226 750,226 751,226 752,226 753,226 754,226 755,226 756,226 756,226 757,226 758,226 759,226 760,226 761,226 762,226 762,226 763,226 764,226 765,226 766,226 767,226 767,226 768,226 769,226 770,226 771,226 772,226 773,226 773,226 774,226 775,226 776,226 777,226 778,226 778,226 779,226 780,226 781,226 782,226 783,226 784,226 784,226 785,226 786,226 787,226 788,226 789,226 790,226 790,226 791,226 792,226 793,226 794,226 795,226 795,226 796,226 797,226 798,226 799,226 800,226 801,226 801,226 802,226 803,226 804,226 805,226 806,226 807,226 807,226 808,226 809,226 810,226 811,226 812,226 812,226 813,226 814,226 815,226 816,226 817,226 818,226 818,226 819,226 820,226 821,226 822,226 823,226 823,226 824,226 825,226 826,226 827,226 828,226 829,226 829,226 830,226 831,226 832,226 833,226 834,226 835,226 835,226 836,226 837,226 838,226 839,226 840,226 840,226 841,226 842,226 843,226 844,226 845,226 846,226 846,226 847,226 848,226 849,226 850,226 851,224 851,224 852,224 853,224 854,224 855,224 856,224 857,224 857,224 858,224 859,224 860,224 861,224 862,224 863,224 863,224 864,224 865,224 866,224 867,224 868,224 868,224 869,224 870,224 871,224 872,224 873,224 874,224 874,224 875,224 876,224 877,224 878,224 879,224 879,224 880,224 881,224 882,224 883,224 884,224 885,224 885,224 886,224 887,224 888,224 889,224 890,224 891,224 891,224 892,224 893,224 894,224 895,224 896,224 896,224 897,224 898,224 899,224 900,224 901,224 902,224 902,224 903,224 904,224 905,224 906,224 907,224 907,224 907,224 908,224 909,224 910,224 911,224 912,224 913,224 913,224 914,224 915,224 916,224 917,224 918,224 919,224 919,224 920,224 921,224 922,224 923,224 924,224 924,224 925,224 926,224 926,224 973,224 "/>
<line opacity="0.1" stroke="#000000" stroke-width="1" x1="85" y1="699" x2="85" y2="68"/>
<line opacity="0.1" stroke="#000000" stroke-width="1" x1="94" y1="699" x2="94" y2="68"/>
<line opacity="0.1" stroke="#000000" stroke-width="1" x1="103" y1="699" x2="103" y2="68"/>
<line opacity="0.1" stroke="#000000" stroke-width="1" x1="112" y1="699" x2="112" y2="68"/>
<line opacity="0.1" stroke="#000000" stroke-width="1" x1="121" y1="699" x2="121" y2="68"/>
<line opacity="0.1" stroke="#000000" stroke-width="1" x1="130" y1="699" x2="130" y2="68"/>
<line opacity="0.1" stroke="#000000" stroke-width="1" x1="138" y1="699" x2="138" y2="68"/>
<line opacity="0.1" stroke="#000000" stroke-width="1" x1="147" y1="699" x2="147" y2="68"/>
<line opacity="0.1" stroke="#000000" stroke-width="1" x1="156" y1="699" x2="156" y2="68"/>
<line opacity="0.1" stroke="#000000" stroke-width="1" x1="165" y1="699" x2="165" y2="68"/>
<line opacity="0.1" stroke="#000000" stroke-width="1" x1="174" y1="699" x2="174" y2="68"/>
<line opacity="0.1" stroke="#000000" stroke-width="1" x1="183" y1="699" x2="183" y2="68"/>
<line opacity="0.1" stroke="#000000" stroke-width="1" x1="191" y1="699" x2="191" y2="68"/>
<line opacity="0.1" stroke="#000000" stroke-width="1" x1="200" y1="699" x2="200" y2="68"/>
<line opacity="0.1" stroke="#000000" stroke-width="1" x1="209" y1="699" x2="209" y2="68"/>
<line opacity="0.1" stroke="#000000" stroke-width="1" x1="218" y1="699" x2="218" y2="68"/>
<line opacity="0.1" stroke="#000000" stroke-width="1" x1="227" y1="699" x2="227" y2="68"/>
<line opacity="0.1" stroke="#000000" stroke-width="1" x1="236" y1="699" x2="236" y2="68"/>
<line opacity="0.1" stroke="#000000" stroke-width="1" x1="244" y1="699" x2="244" y2="68"/>
<line opacity="0.1" stroke="#000000" stroke-width="1" x1="253" y1="699" x2="253" y2="68"/>
<line opacity="0.1" stroke="#000000" stroke-width="1" x1="262" y1="699" x2="262" y2="68"/>
<line opacity="0.1" stroke="#000000" stroke-width="1" x1="271" y1="699" x2="271" y2="68"/>
<line opacity="0.1" stroke="#000000" stroke-width="1" x1="280" y1="699" x2="280" y2="68"/>
<line opacity="0.1" stroke="#000000" stroke-width="1" x1="289" y1="699" x2="289" y2="68"/>
<line opacity="0.1" stroke="#000000" stroke-width="1" x1="298" y1="699" x2="298" y2="68"/>
<line opacity="0.1" stroke="#000000" stroke-width="1" x1="306" y1="699" x2="306" y2="68"/>
<line opacity="0.1" stroke="#000000" stroke-width="1" x1="315" y1="699" x2="315" y2="68"/>
<line opacity="0.1" stroke="#000000" stroke-width="1" x1="324" y1="699" x2="324" y2="68"/>
<line opacity="0.1" stroke="#000000" stroke-width="1" x1="333" y1="699" x2="333" y2="68"/>
<line opacity="0.1" stroke="#000000" stroke-width="1" x1="342" y1="699" x2="342" y2="68"/>
<line opacity="0.1" stroke="#000000" stroke-width="1" x1="351" y1="699" x2="351" y2="68"/>
<line opacity="0.1" stroke="#000000" stroke-width="1" x1="359" y1="699" x2="359" y2="68"/>
<line opacity="0.1" stroke="#000000" stroke-width="1" x1="368" y1="699" x2="368" y2="68"/>
<line opacity="0.1" stroke="#000000" stroke-width="1" x1="377" y1="699" x2="377" y2="68"/>
<line opacity="0.1" stroke="#000000" stroke-width="1" x1="386" y1="699" x2="386" y2="68"/>
<line opacity="0.1" stroke="#000000" stroke-width="1" x1="395" y1="699" x2="395" y2="68"/>
<line opacity="0.1" stroke="#000000" stroke-width="1" x1="404" y1="699" x2="404" y2="68"/>
<line opacity="0.1" stroke="#000000" stroke-width="1" x1="412" y1="699" x2="412" y2="68"/>
<line opacity="0.1" stroke="#000000" stroke-width="1" x1="421" y1="699" x2="421" y2="68"/>
<line opacity="0.1" stroke="#000000" stroke-width="1" x1="430" y1="699" x2="430" y2="68"/>
<line opacity="0.1" stroke="#000000" stroke-width="1" x1="439" y1="699" x2="439" y2="68"/>
<line opacity="0.1" stroke="#000000" stroke-width="1" x1="448" y1="699" x2="448" y2="68"/>
<line opacity="0.1" stroke="#000000" stroke-width="1" x1="457" y1="699" x2="457" y2="68"/>
<line opacity="0.1" stroke="#000000" stroke-width="1" x1="465" y1="699" x2="465" y2="68"/>
<line opacity="0.1" stroke="#000000" stroke-width="1" x1="474" y1="699" x2="474" y2="68"/>
<line opacity="0.1" stroke="#000000" stroke-width="1" x1="483" y1="699" x2="483" y2="68"/>
<line opacity="0.1" stroke="#000000" stroke-width="1" x1="492" y1="699" x2="492" y2="68"/>
<line opacity="0.1" stroke="#000000" stroke-width="1" x1="501" y1="699" x2="501" y2="68"/>
<line opacity="0.1" stroke="#000000" stroke-width="1" x1="510" y1="699" x2="510" y2="68"/>
<line opacity="0.1" stroke="#000000" stroke-width="1" x1="518" y1="699" x2="518" y2="68"/>
<line opacity="0.1" stroke="#000000" stroke-width="1" x1="527" y1="699" x2="527" y2="68"/>
<line opacity="0.1" stroke="#000000" stroke-width="1" x1="536" y1="699" x2="536" y2="68"/>
<line opacity="0.1" stroke="#000000" stroke-width="1" x1="545" y1="699" x2="545" y2="68"/>
<line opacity="0.1" stroke="#000000" stroke-width="1" x1="554" y1="699" x2="554" y2="68"/>
<line opacity="0.1" stroke="#000000" stroke-width="1" x1="563" y1="699" x2="563" y2="68"/>
<line opacity="0.1" stroke="#000000" stroke-width="1" x1="572" y1="699" x2="572" y2="68"/>
<line opacity="0.1" stroke="#000000" stroke-width="1" x1="580" y1="699" x2="580" y2="68"/>
<line opacity="0.1" stroke="#000000" stroke-width="1" x1="589" y1="699" x2="589" y2="68"/>
<line opacity="0.1" stroke="#000000" stroke-width="1" x1="598" y1="699" x2="598" y2="68"/>
<line opacity="0.1" stroke="#000000" stroke-width="1" x1="607" y1="699" x2="607" y2="68"/>
<line opacity="0.1" stroke="#000000" stroke-width="1" x1="616" y1="699" x2="616" y2="68"/>
<line opacity="0.1" stroke="#000000" stroke-width="1" x1="625" y1="699" x2="625" y2="68"/>
<line opacity="0.1" stroke="#000000" stroke-width="1" x1="633" y1="699" x2="633" y2="68"/>
<line opacity="0.1" stroke="#000000" stroke-width="1" x1="642" y1="699" x2="642" y2="68"/>
<line opacity="0.1" stroke="#000000" stroke-width="1" x1="651" y1="699" x2="651" y2="68"/>
<line opacity="0.1" stroke="#000000" stroke-width="1" x1="660" y1="699" x2="660" y2="68"/>
<line opacity="0.1" stroke="#000000" stroke-width="1" x1="669" y1="699" x2="669" y2="68"/>
<line opacity="0.1" stroke="#000000" stroke-width="1" x1="678" y1="699" x2="678" y2="68"/>
<line opacity="0.1" stroke="#000000" stroke-width="1" x1="686" y1="699" x2="686" y2="68"/>
<line opacity="0.1" stroke="#000000" stroke-width="1" x1="695" y1="699" x2="695" y2="68"/>
<line opacity="0.1" stroke="#000000" stroke-width="1" x1="704" y1="699" x2="704" y2="68"/>
<line opacity="0.1" stroke="#000000" stroke-width="1" x1="713" y1="699" x2="713" y2="68"/>
<line opacity="0.1" stroke="#000000" stroke-width="1" x1="722" y1="699" x2="722" y2="68"/>
<line opacity="0.1" stroke="#000000" stroke-width="1" x1="731" y1="699" x2="731" y2="68"/>
<line opacity="0.1" stroke="#000000" stroke-width="1" x1="739" y1="699" x2="739" y2="68"/>
<line opacity="0.1" stroke="#000000" stroke-width="1" x1="748" y1="699" x2="748" y2="68"/>
<line opacity="0.1" stroke="#000000" stroke-width="1" x1="757" y1="699" x2="757" y2="68"/>
<line opacity="0.1" stroke="#000000" stroke-width="1" x1="766" y1="699" x2="766" y2="68"/>
<line opacity="0.1" stroke="#000000" stroke-width="1" x1="775" y1="699" x2="775" y2="68"/>
<line opacity="0.1" stroke="#000000" stroke-width="1" x1="784" y1="699" x2="784" y2="68"/>
<line opacity="0.1" stroke="#000000" stroke-width="1" x1="792" y1="699" x2="792" y2="68"/>
<line opacity="0.1" stroke="#000000" stroke-width="1" x1="801" y1="699" x2="801" y2="68"/>
<line opacity="0.1" stroke="#000000" stroke-width="1" x1="810" y1="699" x2="810" y2="68"/>
<line opacity="0.1" stroke="#000000" stroke-width="1" x1="819" y1="699" x2="819" y2="68"/>
<line opacity="0.1" stroke="#000000" stroke-width="1" x1="828" y1="699" x2="828" y2="68"/>
<line opacity="0.1" stroke="#000000" stroke-width="1" x1="837" y1="699" x2="837" y2="68"/>
<line opacity="0.1" stroke="#000000" stroke-width="1" x1="846" y1="699" x2="846" y2="68"/>
<line opacity="0.1" stroke="#000000" stroke-width="1" x1="854" y1="699" x2="854" y2="68"/>
<line opacity="0.1" stroke="#000000" stroke-width="1" x1="863" y1="699" x2="863" y2="68"/>
<line opacity="0.1" stroke="#000000" stroke-width="1" x1="872" y1="699" x2="872" y2="68"/>
<line opacity="0.1" stroke="#000000" stroke-width="1" x1="881" y1="699" x2="881" y2="68"/>
<line opacity="0.1" stroke="#000000" stroke-width="1" x1="890" y1="699" x2="890" y2="68"/>
<line opacity="0.1" stroke="#000000" stroke-width="1" x1="899" y1="699" x2="899" y2="68"/>
<line opacity="0.1" stroke="#000000" stroke-width="1" x1="907" y1="699" x2="907" y2="68"/>
<line opacity="0.1" stroke="#000000" stroke-width="1" x1="916" y1="699" x2="916" y2="68"/>
<line opacity="0.1" stroke="#000000" stroke-width="1" x1="925" y1="699" x2="925" y2="68"/>
<line opacity="0.1" stroke="#000000" stroke-width="1" x1="934" y1="699" x2="934" y2="68"/>
<line opacity="0.1" stroke="#000000" stroke-width="1" x1="943" y1="699" x2="943" y2="68"/>
<line opacity="0.1" stroke="#000000" stroke-width="1" x1="952" y1="699" x2="952" y2="68"/>
<line opacity="0.1" stroke="#000000" stroke-width="1" x1="960" y1="699" x2="960" y2="68"/>
<line opacity="0.1" stroke="#000000" stroke-width="1" x1="969" y1="699" x2="969" y2="68"/>
<line opacity="0.1" stroke="#000000" stroke-width="1" x1="78" y1="699" x2="973" y2="699"/>
<line opacity="0.1" stroke="#000000" stroke-width="1" x1="78" y1="685" x2="973" y2="685"/>
<line opacity="0.1" stroke="#000000" stroke-width="1" x1="78" y1="672" x2="973" y2="672"/>
<line opacity="0.1" stroke="#000000" stroke-width="1" x1="78" y1="659" x2="973" y2="659"/>
<line opacity="0.1" stroke="#000000" stroke-width="1" x1="78" y1="646" x2="973" y2="646"/>
<line opacity="0.1" stroke="#000000" stroke-width="1" x1="78" y1="632" x2="973" y2="632"/>
<line opacity="0.1" stroke="#000000" stroke-width="1" x1="78" y1="619" x2="973" y2="619"/>
<line opacity="0.1" stroke="#000000" stroke-width="1" x1="78" y1="606" x2="973" y2="606"/>
<line opacity="0.1" stroke="#000000" stroke-width="1" x1="78" y1="593" x2="973" y2="593"/>
<line opacity="0.1" stroke="#000000" stroke-width="1" x1="78" y1="580" x2="973" y2="580"/>
<line opacity="0.1" stroke="#000000" stroke-width="1" x1="78" y1="566" x2="973" y2="566"/>
<line opacity="0.1" stroke="#000000" stroke-width="1" x1="78" y1="553" x2="973" y2="553"/>
<line opacity="0.1" stroke="#000000" stroke-width="1" x1="78" y1="540" x2="973" y2="540"/>
<line opacity="0.1" stroke="#000000" stroke-width="1" x1="78" y1="527" x2="973" y2="527"/>
<line opacity="0.1" stroke="#000000" stroke-width="1" x1="78" y1="514" x2="973" y2="514"/>
<line opacity="0.1" stroke="#000000" stroke-width="1" x1="78" y1="500" x2="973" y2="500"/>
<line opacity="0.1" stroke="#000000" stroke-width="1" x1="78" y1="487" x2="973" y2="487"/>
<line opacity="0.1" stroke="#000000" stroke-width="1" x1="78" y1="474" x2="973" y2="474"/>
<line opacity="0.1" stroke="#000000" stroke-width="1" x1="78" y1="461" x2="973" y2="461"/>
<line opacity="0.1" stroke="#000000" stroke-width="1" x1="78" y1="447" x2="973" y2="447"/>
<line opacity="0.1" stroke="#000000" stroke-width="1" x1="78" y1="434" x2="973" y2="434"/>
<line opacity="0.1" stroke="#000000" stroke-width="1" x1="78" y1="421" x2="973" y2="421"/>
<line opacity="0.1" stroke="#000000" stroke-width="1" x1="78" y1="408" x2="973" y2="408"/>
<line opacity="0.1" stroke="#000000" stroke-width="1" x1="78" y1="395" x2="973" y2="395"/>
<line opacity="0.1" stroke="#000000" stroke-width="1" x1="78" y1="381" x2="973" y2="381"/>
<line opacity="0.1" stroke="#000000" stroke-width="1" x1="78" y1="368" x2="973" y2="368"/>
<line opacity="0.1" stroke="#000000" stroke-width="1" x1="78" y1="355" x2="973" y2="355"/>
<line opacity="0.1" stroke="#000000" stroke-width="1" x1="78" y1="342" x2="973" y2="342"/>
<line opacity="0.1" stroke="#000000" stroke-width="1" x1="78" y1="329" x2="973" y2="329"/>
<line opacity="0.1" stroke="#000000" stroke-width="1" x1="78" y1="315" x2="973" y2="315"/>
<line opacity="0.1" stroke="#000000" stroke-width="1" x1="78" y1="302" x2="973" y2="302"/>
<line opacity="0.1" stroke="#000000" stroke-width="1" x1="78" y1="289" x2="973" y2="289"/>
<line opacity="0.1" stroke="#000000" stroke-width="1" x1="78" y1="276" x2="973" y2="276"/>
<line opacity="0.1" stroke="#000000" stroke-width="1" x1="78" y1="263" x2="973" y2="263"/>
<line opacity="0.1" stroke="#000000" stroke-width="1" x1="78" y1="249" x2="973" y2="249"/>
<line opacity="0.1" stroke="#000000" stroke-width="1" x1="78" y1="236" x2="973" y2="236"/>
<line opacity="0.1" stroke="#000000" stroke-width="1" x1="78" y1="223" x2="973" y2="223"/>
<line opacity="0.1" stroke="#000000" stroke-width="1" x1="78" y1="210" x2="973" y2="210"/>
<line opacity="0.1" stroke="#000000" stroke-width="1" x1="78" y1="196" x2="973" y2="196"/>
<line opacity="0.1" stroke="#000000" stroke-width="1" x1="78" y1="183" x2="973" y2="183"/>
<line opacity="0.1" stroke="#000000" stroke-width="1" x1="78" y1="170" x2="973" y2="170"/>
<line opacity="0.1" stroke="#000000" stroke-width="1" x1="78" y1="157" x2="973" y2="157"/>
<line opacity="0.1" stroke="#000000" stroke-width="1" x1="78" y1="144" x2="973" y2="144"/>
<line opacity="0.1" stroke="#000000" stroke-width="1" x1="78" y1="130" x2="973" y2="130"/>
<line opacity="0.1" stroke="#000000" stroke-width="1" x1="78" y1="117" x2="973" y2="117"/>
<line opacity="0.1" stroke="#000000" stroke-width="1" x1="78" y1="104" x2="973" y2="104"/>
<line opacity="0.1" stroke="#000000" stroke-width="1" x1="78" y1="91" x2="973" y2="91"/>
<line opacity="0.1" stroke="#000000" stroke-width="1" x1="78" y1="78" x2="973" y2="78"/>
<text x="8" y="384" dy="0.76em" text-anchor="middle" font-family="sans-serif" font-size="9.67741935483871" opacity="1" fill="#000000" transform="rotate(270, 8, 384)">
Memory usage
</text>
<text x="526" y="760" dy="-0.5ex" text-anchor="middle" font-family="sans-serif" font-size="9.67741935483871" opacity="1" fill="#000000">
Time
</text>
<line opacity="0.2" stroke="#000000" stroke-width="1" x1="130" y1="699" x2="130" y2="68"/>
<line opacity="0.2" stroke="#000000" stroke-width="1" x1="306" y1="699" x2="306" y2="68"/>
<line opacity="0.2" stroke="#000000" stroke-width="1" x1="483" y1="699" x2="483" y2="68"/>
<line opacity="0.2" stroke="#000000" stroke-width="1" x1="660" y1="699" x2="660" y2="68"/>
<line opacity="0.2" stroke="#000000" stroke-width="1" x1="837" y1="699" x2="837" y2="68"/>
<line opacity="0.2" stroke="#000000" stroke-width="1" x1="78" y1="699" x2="973" y2="699"/>
<line opacity="0.2" stroke="#000000" stroke-width="1" x1="78" y1="566" x2="973" y2="566"/>
<line opacity="0.2" stroke="#000000" stroke-width="1" x1="78" y1="434" x2="973" y2="434"/>
<line opacity="0.2" stroke="#000000" stroke-width="1" x1="78" y1="302" x2="973" y2="302"/>
<line opacity="0.2" stroke="#000000" stroke-width="1" x1="78" y1="170" x2="973" y2="170"/>
<polyline fill="none" opacity="1" stroke="#000000" stroke-width="1" points="77,68 77,699 "/>
<text x="68" y="699" dy="0.5ex" text-anchor="end" font-family="sans-serif" font-size="9.67741935483871" opacity="1" fill="#000000">
0.0 MB
</text>
<polyline fill="none" opacity="1" stroke="#000000" stroke-width="1" points="72,699 77,699 "/>
<text x="68" y="566" dy="0.5ex" text-anchor="end" font-family="sans-serif" font-size="9.67741935483871" opacity="1" fill="#000000">
4.8 MB
</text>
<polyline fill="none" opacity="1" stroke="#000000" stroke-width="1" points="72,566 77,566 "/>
<text x="68" y="434" dy="0.5ex" text-anchor="end" font-family="sans-serif" font-size="9.67741935483871" opacity="1" fill="#000000">
9.5 MB
</text>
<polyline fill="none" opacity="1" stroke="#000000" stroke-width="1" points="72,434 77,434 "/>
<text x="68" y="302" dy="0.5ex" text-anchor="end" font-family="sans-serif" font-size="9.67741935483871" opacity="1" fill="#000000">
14.3 MB
</text>
<polyline fill="none" opacity="1" stroke="#000000" stroke-width="1" points="72,302 77,302 "/>
<text x="68" y="170" dy="0.5ex" text-anchor="end" font-family="sans-serif" font-size="9.67741935483871" opacity="1" fill="#000000">
19.1 MB
</text>
<polyline fill="none" opacity="1" stroke="#000000" stroke-width="1" points="72,170 77,170 "/>
<polyline fill="none" opacity="1" stroke="#000000" stroke-width="1" points="78,700 973,700 "/>
<text x="130" y="710" dy="0.76em" text-anchor="middle" font-family="sans-serif" font-size="9.67741935483871" opacity="1" fill="#000000">
07 17:46:40
</text>
<polyline fill="none" opacity="1" stroke="#000000" stroke-width="1" points="130,700 130,705 "/>
<text x="306" y="710" dy="0.76em" text-anchor="middle" font-family="sans-serif" font-size="9.67741935483871" opacity="1" fill="#000000">
07 20:33:20
</text>
<polyline fill="none" opacity="1" stroke="#000000" stroke-width="1" points="306,700 306,705 "/>
<text x="483" y="710" dy="0.76em" text-anchor="middle" font-family="sans-serif" font-size="9.67741935483871" opacity="1" fill="#000000">
07 23:20:00
</text>
<polyline fill="none" opacity="1" stroke="#000000" stroke-width="1" points="483,700 483,705 "/>
<text x="660" y="710" dy="0.76em" text-anchor="middle" font-family="sans-serif" font-size="9.67741935483871" opacity="1" fill="#000000">
08 02:06:40
</text>
<polyline fill="none" opacity="1" stroke="#000000" stroke-width="1" points="660,700 660,705 "/>
<text x="837" y="710" dy="0.76em" text-anchor="middle" font-family="sans-serif" font-size="9.67741935483871" opacity="1" fill="#000000">
08 04:53:20
</text>
<polyline fill="none" opacity="1" stroke="#000000" stroke-width="1" points="837,700 837,705 "/>
<polyline fill="none" opacity="1" stroke="#000000" stroke-width="1" points="78,67 974,67 "/>
<text x="130" y="58" dy="-0.5ex" text-anchor="middle" font-family="sans-serif" font-size="9.67741935483871" opacity="1" fill="#000000">
+00:49:04
</text>
<polyline fill="none" opacity="1" stroke="#000000" stroke-width="1" points="130,62 130,67 "/>
<text x="307" y="58" dy="-0.5ex" text-anchor="middle" font-family="sans-serif" font-size="9.67741935483871" opacity="1" fill="#000000">
+03:35:44
</text>
<polyline fill="none" opacity="1" stroke="#000000" stroke-width="1" points="307,62 307,67 "/>
<text x="484" y="58" dy="-0.5ex" text-anchor="middle" font-family="sans-serif" font-size="9.67741935483871" opacity="1" fill="#000000">
+06:22:24
</text>
<polyline fill="none" opacity="1" stroke="#000000" stroke-width="1" points="484,62 484,67 "/>
<text x="661" y="58" dy="-0.5ex" text-anchor="middle" font-family="sans-serif" font-size="9.67741935483871" opacity="1" fill="#000000">
+09:09:04
</text>
<polyline fill="none" opacity="1" stroke="#000000" stroke-width="1" points="661,62 661,67 "/>
<text x="838" y="58" dy="-0.5ex" text-anchor="middle" font-family="sans-serif" font-size="9.67741935483871" opacity="1" fill="#000000">
+11:55:44
</text>
<polyline fill="none" opacity="1" stroke="#000000" stroke-width="1" points="838,62 838,67 "/>
<rect x="83" y="73" width="99" height="45" opacity="0.75" fill="#FFFFFF" stroke="none"/>
<rect x="83" y="73" width="99" height="45" opacity="1" fill="none" stroke="#000000"/>
<text x="123" y="83" dy="0.76em" text-anchor="start" font-family="sans-serif" font-size="9.67741935483871" opacity="1" fill="#000000">
Temporary
</text>
<text x="123" y="98" dy="0.76em" text-anchor="start" font-family="sans-serif" font-size="9.67741935483871" opacity="1" fill="#000000">
Leaked
</text>
<rect x="93" y="83" width="10" height="10" opacity="1" fill="#3CB44B" stroke="none"/>
<rect x="93" y="98" width="10" height="10" opacity="1" fill="#E6194B" stroke="none"/>
</svg>
