<svg width="1024" height="768" viewBox="0 0 1024 768" xmlns="http://www.w3.org/2000/svg">
<rect x="0" y="0" width="1024" height="768" opacity="1" fill="#FFFFFF" stroke="none"/>
<polygon opacity="1" fill="#E6194B" points="78,603 79,598 80,594 81,586 81,577 82,570 83,562 84,554 85,546 86,544 87,536 88,524 89,514 89,508 90,499 91,491 92,483 93,473 94,464 95,455 96,446 97,439 98,429 98,420 99,411 100,403 101,396 102,391 103,389 104,392 105,391 106,390 106,391 107,390 108,389 109,388 110,388 111,388 112,388 113,388 114,385 115,386 115,385 116,385 117,385 118,384 119,384 120,383 121,383 122,386 123,385 123,385 124,391 125,386 126,387 127,387 128,386 129,386 130,385 131,385 132,385 132,385 133,385 134,384 135,383 136,383 137,384 138,384 139,384 140,387 140,388 141,386 142,385 143,384 144,385 145,383 146,383 147,383 148,383 149,382 149,382 150,382 151,383 152,381 153,376 154,377 155,376 156,375 157,378 157,378 158,377 159,377 160,377 161,377 162,377 163,375 164,375 165,375 166,376 166,380 167,380 168,379 169,378 170,377 171,377 172,376 173,377 174,377 174,377 175,376 176,376 177,366 178,371 179,370 180,369 181,368 182,367 183,366 183,370 184,369 185,369 186,369 187,369 188,369 189,370 190,369 191,368 191,366 192,365 193,365 194,364 195,364 196,364 197,364 198,365 199,364 200,364 200,367 201,367 202,366 203,365 204,364 205,364 206,364 207,364 208,365 208,365 209,365 210,365 211,363 212,363 213,363 214,364 215,363 216,362 217,361 217,361 218,364 219,365 220,365 221,367 222,366 223,365 224,364 225,362 225,362 226,361 227,361 228,362 229,362 230,362 231,361 232,362 233,362 234,352 234,357 235,356 236,355 237,355 238,354 239,355 240,355 241,354 242,358 242,357 243,355 244,352 245,352 246,352 247,352 248,351 249,351 250,351 251,351 251,354 252,353 253,352 254,352 255,355 256,354 257,353 258,353 259,352 259,351 260,351 261,351 262,349 263,348 264,348 265,351 266,351 267,351 268,352 268,351 269,349 270,348 271,348 272,348 273,348 274,349 275,353 276,351 277,350 277,352 278,351 279,351 280,349 281,347 282,346 283,347 284,328 285,337 285,336 286,337 287,338 288,337 289,337 290,336 291,336 292,336 293,340 294,338 294,336 295,336 296,336 297,337 298,336 299,336 300,336 301,335 302,335 302,342 303,341 304,339 305,337 306,337 307,334 308,333 309,332 310,334 311,335 311,335 312,335 313,334 314,333 315,332 316,331 317,328 318,328 319,328 319,327 320,327 321,327 322,327 323,326 324,325 325,325 326,325 327,327 328,327 328,327 329,326 330,326 331,326 332,325 333,325 334,324 335,324 336,323 336,323 337,322 338,322 339,322 340,321 341,320 342,320 343,320 344,322 345,322 345,321 346,321 347,321 348,320 349,319 350,319 351,319 352,319 353,318 353,318 354,318 355,317 356,319 357,319 358,318 359,318 360,318 361,320 362,320 362,319 363,319 364,318 365,318 366,318 367,317 368,317 369,316 370,316 370,316 371,315 372,315 373,314 374,314 375,313 376,313 377,313 378,315 379,315 379,314 380,314 381,313 382,313 383,312 384,312 385,312 386,311 387,311 387,310 388,310 389,309 390,282 391,295 392,295 393,297 394,300 395,299 396,299 396,298 397,298 398,297 399,297 400,297 401,296 402,296 403,295 404,295 404,295 405,294 406,293 407,293 408,293 409,293 410,295 411,294 412,294 413,293 413,293 414,293 415,292 416,292 417,291 418,291 419,291 420,290 421,290 421,290 422,289 423,288 424,288 425,288 426,287 427,289 428,289 429,288 430,290 430,290 431,290 432,289 433,289 434,289 435,288 436,288 437,288 438,287 438,287 439,286 440,286 441,286 442,286 443,285 444,287 445,287 446,286 447,286 447,285 448,285 449,285 450,284 451,284 452,284 453,283 454,282 455,282 455,282 456,281 457,281 458,281 459,281 460,280 461,280 462,282 463,282 464,282 464,281 465,280 466,280 467,280 468,282 469,281 470,281 471,280 472,280 472,280 473,279 474,279 475,278 476,278 477,278 478,280 479,279 480,279 481,278 481,278 482,278 483,278 484,277 485,277 486,276 487,239 488,257 489,256 490,256 490,256 491,255 492,255 493,255 494,255 495,254 496,256 497,255 498,255 498,254 499,254 500,254 501,254 502,254 503,253 504,253 505,252 506,254 507,254 507,253 508,253 509,253 510,253 511,252 512,254 513,253 514,253 515,253 515,252 516,252 517,252 518,251 519,250 520,250 521,250 522,250 523,249 524,249 524,249 525,248 526,248 527,247 528,249 529,249 530,248 531,248 532,248 532,247 533,247 534,247 535,246 536,245 537,245 538,245 539,244 540,244 541,243 541,243 542,243 543,243 544,245 545,246 546,246 547,246 548,245 549,245 549,245 550,244 551,243 552,243 553,243 554,242 555,242 556,242 557,242 558,241 558,240 559,240 560,242 561,242 562,242 563,241 564,241 565,241 566,240 566,240 567,239 568,239 569,238 570,238 571,238 572,237 573,237 574,237 575,236 575,236 576,235 577,235 578,237 579,237 580,237 581,236 582,235 583,235 583,236 584,236 585,235 586,235 587,235 588,234 589,234 590,233 591,233 592,232 592,232 593,234 594,234 595,234 596,233 597,233 598,232 599,232 600,232 600,231 601,231 602,231 603,230 604,230 605,230 606,229 607,228 608,228 609,228 609,228 610,230 611,229 612,229 613,228 614,228 615,227 616,227 617,226 617,226 618,226 619,225 620,228 621,226 622,226 623,226 624,226 625,225 626,227 626,227 627,227 628,227 629,226 630,225 631,225 632,225 633,225 634,224 634,224 635,223 636,222 637,222 638,222 639,222 640,221 641,221 642,221 643,223 643,222 644,221 645,221 646,221 647,220 648,220 649,220 650,219 651,219 651,218 652,218 653,218 654,217 655,217 656,216 657,216 658,216 659,221 660,219 660,219 661,219 662,219 663,218 664,218 665,218 666,218 667,217 668,217 668,217 669,216 670,215 671,215 672,215 673,215 674,214 675,214 676,214 677,216 677,215 678,214 679,214 680,214 681,214 682,213 683,213 684,212 685,211 686,211 686,211 687,211 688,210 689,210 690,210 691,209 692,209 693,209 694,210 694,210 695,210 696,209 697,211 698,211 699,211 700,157 701,183 702,182 703,182 703,182 704,181 705,181 706,181 707,180 708,180 709,179 710,179 711,181 711,180 712,180 713,180 714,179 715,179 716,178 717,178 718,178 719,177 720,177 720,177 721,176 722,176 723,176 724,175 725,174 726,174 727,174 728,176 728,176 729,176 730,175 731,175 732,174 733,174 734,173 735,173 736,173 737,175 737,175 738,174 739,174 740,173 741,173 742,172 743,172 744,172 745,174 745,173 746,173 747,173 748,172 749,171 750,171 751,171 752,170 753,170 754,170 754,169 755,169 756,169 757,168 758,168 759,167 760,167 761,167 762,169 762,169 763,168 764,168 765,167 766,167 767,167 768,166 769,166 770,165 771,165 771,165 772,164 773,163 774,163 775,165 776,165 777,165 778,165 779,167 779,166 780,165 781,165 782,165 783,165 784,164 785,164 786,163 787,162 788,162 788,162 789,161 790,161 791,161 792,160 793,160 794,160 795,161 796,161 796,161 797,160 798,160 799,160 800,160 801,159 802,159 803,158 804,157 805,157 805,157 806,157 807,156 808,156 809,155 810,155 811,154 812,156 813,156 813,158 814,157 815,157 816,157 817,156 818,156 819,155 820,155 821,154 822,154 822,154 823,153 824,153 825,153 826,152 827,154 828,154 829,153 830,153 830,153 831,152 832,151 833,151 834,151 835,150 836,150 837,150 838,149 839,149 839,149 840,149 841,148 842,150 843,150 844,152 845,151 846,151 847,151 847,150 848,150 849,150 850,149 851,151 852,151 853,150 854,150 855,150 856,149 856,149 857,149 858,148 859,148 860,148 861,147 862,149 863,149 864,149 864,148 865,148 866,148 867,147 868,146 869,146 870,145 871,145 872,145 873,145 873,144 874,144 875,144 876,143 877,142 878,145 879,145 880,144 881,144 881,144 882,143 883,143 884,142 885,142 886,141 887,141 888,140 889,143 890,142 890,142 891,141 892,141 893,141 894,140 895,142 896,142 897,142 898,142 899,68 899,104 900,103 901,103 902,103 903,102 904,102 905,102 906,101 907,101 907,148 908,148 909,148 910,147 911,149 912,149 913,149 914,148 915,148 916,147 916,147 917,147 918,146 919,146 920,146 921,145 922,145 923,144 924,144 924,143 925,143 926,143 927,145 928,145 929,147 930,146 931,146 932,145 933,145 933,144 934,144 935,144 936,143 937,142 938,142 939,142 940,141 941,141 941,141 942,140 943,140 944,140 945,140 946,141 947,141 948,140 949,140 950,140 950,139 951,139 952,139 953,138 954,137 955,137 956,137 957,137 958,136 958,136 959,136 960,136 961,135 962,135 963,137 964,136 965,136 966,138 967,138 967,137 968,137 969,136 970,136 971,136 972,136 972,136 973,136 973,699 78,699 "/>
<polyline fill="none" opacity="1" stroke="#E6194B" stroke-width="1" points="78,603 79,598 80,594 81,586 81,577 82,570 83,562 84,554 85,546 86,544 87,536 88,524 89,514 89,508 90,499 91,491 92,483 93,473 94,464 95,455 96,446 97,439 98,429 98,420 99,411 100,403 101,396 102,391 103,389 104,392 105,391 106,390 106,391 107,390 108,389 109,388 110,388 111,388 112,388 113,388 114,385 115,386 115,385 116,385 117,385 118,384 119,384 120,383 121,383 122,386 123,385 123,385 124,391 125,386 126,387 127,387 128,386 129,386 130,385 131,385 132,385 132,385 133,385 134,384 135,383 136,383 137,384 138,384 139,384 140,387 140,388 141,386 142,385 143,384 144,385 145,383 146,383 147,383 148,383 149,382 149,382 150,382 151,383 152,381 153,376 154,377 155,376 156,375 157,378 157,378 158,377 159,377 160,377 161,377 162,377 163,375 164,375 165,375 166,376 166,380 167,380 168,379 169,378 170,377 171,377 172,376 173,377 174,377 174,377 175,376 176,376 177,366 178,371 179,370 180,369 181,368 182,367 183,366 183,370 184,369 185,369 186,369 187,369 188,369 189,370 190,369 191,368 191,366 192,365 193,365 194,364 195,364 196,364 197,364 198,365 199,364 200,364 200,367 201,367 202,366 203,365 204,364 205,364 206,364 207,364 208,365 208,365 209,365 210,365 211,363 212,363 213,363 214,364 215,363 216,362 217,361 217,361 218,364 219,365 220,365 221,367 222,366 223,365 224,364 225,362 225,362 226,361 227,361 228,362 229,362 230,362 231,361 232,362 233,362 234,352 234,357 235,356 236,355 237,355 238,354 239,355 240,355 241,354 242,358 242,357 243,355 244,352 245,352 246,352 247,352 248,351 249,351 250,351 251,351 251,354 252,353 253,352 254,352 255,355 256,354 257,353 258,353 259,352 259,351 260,351 261,351 262,349 263,348 264,348 265,351 266,351 267,351 268,352 268,351 269,349 270,348 271,348 272,348 273,348 274,349 275,353 276,351 277,350 277,352 278,351 279,351 280,349 281,347 282,346 283,347 284,328 285,337 285,336 286,337 287,338 288,337 289,337 290,336 291,336 292,336 293,340 294,338 294,336 295,336 296,336 297,337 298,336 299,336 300,336 301,335 302,335 302,342 303,341 304,339 305,337 306,337 307,334 308,333 309,332 310,334 311,335 311,335 312,335 313,334 314,333 315,332 316,331 317,328 318,328 319,328 319,327 320,327 321,327 322,327 323,326 324,325 325,325 326,325 327,327 328,327 328,327 329,326 330,326 331,326 332,325 333,325 334,324 335,324 336,323 336,323 337,322 338,322 339,322 340,321 341,320 342,320 343,320 344,322 345,322 345,321 346,321 347,321 348,320 349,319 350,319 351,319 352,319 353,318 353,318 354,318 355,317 356,319 357,319 358,318 359,318 360,318 361,320 362,320 362,319 363,319 364,318 365,318 366,318 367,317 368,317 369,316 370,316 370,316 371,315 372,315 373,314 374,314 375,313 376,313 377,313 378,315 379,315 379,314 380,314 381,313 382,313 383,312 384,312 385,312 386,311 387,311 387,310 388,310 389,309 390,282 391,295 392,295 393,297 394,300 395,299 396,299 396,298 397,298 398,297 399,297 400,297 401,296 402,296 403,295 404,295 404,295 405,294 406,293 407,293 408,293 409,293 410,295 411,294 412,294 413,293 413,293 414,293 415,292 416,292 417,291 418,291 419,291 420,290 421,290 421,290 422,289 423,288 424,288 425,288 426,287 427,289 428,289 429,288 430,290 430,290 431,290 432,289 433,289 434,289 435,288 436,288 437,288 438,287 438,287 439,286 440,286 441,286 442,286 443,285 444,287 445,287 446,286 447,286 447,285 448,285 449,285 450,284 451,284 452,284 453,283 454,282 455,282 455,282 456,281 457,281 458,281 459,281 460,280 461,280 462,282 463,282 464,282 464,281 465,280 466,280 467,280 468,282 469,281 470,281 471,280 472,280 472,280 473,279 474,279 475,278 476,278 477,278 478,280 479,279 480,279 481,278 481,278 482,278 483,278 484,277 485,277 486,276 487,239 488,257 489,256 490,256 490,256 491,255 492,255 493,255 494,255 495,254 496,256 497,255 498,255 498,254 499,254 500,254 501,254 502,254 503,253 504,253 505,252 506,254 507,254 507,253 508,253 509,253 510,253 511,252 512,254 513,253 514,253 515,253 515,252 516,252 517,252 518,251 519,250 520,250 521,250 522,250 523,249 524,249 524,249 525,248 526,248 527,247 528,249 529,249 530,248 531,248 532,248 532,247 533,247 534,247 535,246 536,245 537,245 538,245 539,244 540,244 541,243 541,243 542,243 543,243 544,245 545,246 546,246 547,246 548,245 549,245 549,245 550,244 551,243 552,243 553,243 554,242 555,242 556,242 557,242 558,241 558,240 559,240 560,242 561,242 562,242 563,241 564,241 565,241 566,240 566,240 567,239 568,239 569,238 570,238 571,238 572,237 573,237 574,237 575,236 575,236 576,235 577,235 578,237 579,237 580,237 581,236 582,235 583,235 583,236 584,236 585,235 586,235 587,235 588,234 589,234 590,233 591,233 592,232 592,232 593,234 594,234 595,234 596,233 597,233 598,232 599,232 600,232 600,231 601,231 602,231 603,230 604,230 605,230 606,229 607,228 608,228 609,228 609,228 610,230 611,229 612,229 613,228 614,228 615,227 616,227 617,226 617,226 618,226 619,225 620,228 621,226 622,226 623,226 624,226 625,225 626,227 626,227 627,227 628,227 629,226 630,225 631,225 632,225 633,225 634,224 634,224 635,223 636,222 637,222 638,222 639,222 640,221 641,221 642,221 643,223 643,222 644,221 645,221 646,221 647,220 648,220 649,220 650,219 651,219 651,218 652,218 653,218 654,217 655,217 656,216 657,216 658,216 659,221 660,219 660,219 661,219 662,219 663,218 664,218 665,218 666,218 667,217 668,217 668,217 669,216 670,215 671,215 672,215 673,215 674,214 675,214 676,214 677,216 677,215 678,214 679,214 680,214 681,214 682,213 683,213 684,212 685,211 686,211 686,211 687,211 688,210 689,210 690,210 691,209 692,209 693,209 694,210 694,210 695,210 696,209 697,211 698,211 699,211 700,157 701,183 702,182 703,182 703,182 704,181 705,181 706,181 707,180 708,180 709,179 710,179 711,181 711,180 712,180 713,180 714,179 715,179 716,178 717,178 718,178 719,177 720,177 720,177 721,176 722,176 723,176 724,175 725,174 726,174 727,174 728,176 728,176 729,176 730,175 731,175 732,174 733,174 734,173 735,173 736,173 737,175 737,175 738,174 739,174 740,173 741,173 742,172 743,172 744,172 745,174 745,173 746,173 747,173 748,172 749,171 750,171 751,171 752,170 753,170 754,170 754,169 755,169 756,169 757,168 758,168 759,167 760,167 761,167 762,169 762,169 763,168 764,168 765,167 766,167 767,167 768,166 769,166 770,165 771,165 771,165 772,164 773,163 774,163 775,165 776,165 777,165 778,165 779,167 779,166 780,165 781,165 782,165 783,165 784,164 785,164 786,163 787,162 788,162 788,162 789,161 790,161 791,161 792,160 793,160 794,160 795,161 796,161 796,161 797,160 798,160 799,160 800,160 801,159 802,159 803,158 804,157 805,157 805,157 806,157 807,156 808,156 809,155 810,155 811,154 812,156 813,156 813,158 814,157 815,157 816,157 817,156 818,156 819,155 820,155 821,154 822,154 822,154 823,153 824,153 825,153 826,152 827,154 828,154 829,153 830,153 830,153 831,152 832,151 833,151 834,151 835,150 836,150 837,150 838,149 839,149 839,149 840,149 841,148 842,150 843,150 844,152 845,151 846,151 847,151 847,150 848,150 849,150 850,149 851,151 852,151 853,150 854,150 855,150 856,149 856,149 857,149 858,148 859,148 860,148 861,147 862,149 863,149 864,149 864,148 865,148 866,148 867,147 868,146 869,146 870,145 871,145 872,145 873,145 873,144 874,144 875,144 876,143 877,142 878,145 879,145 880,144 881,144 881,144 882,143 883,143 884,142 885,142 886,141 887,141 888,140 889,143 890,142 890,142 891,141 892,141 893,141 894,140 895,142 896,142 897,142 898,142 899,68 899,104 900,103 901,103 902,103 903,102 904,102 905,102 906,101 907,101 907,148 908,148 909,148 910,147 911,149 912,149 913,149 914,148 915,148 916,147 916,147 917,147 918,146 919,146 920,146 921,145 922,145 923,144 924,144 924,143 925,143 926,143 927,145 928,145 929,147 930,146 931,146 932,145 933,145 933,144 934,144 935,144 936,143 937,142 938,142 939,142 940,141 941,141 941,141 942,140 943,140 944,140 945,140 946,141 947,141 948,140 949,140 950,140 950,139 951,139 952,139 953,138 954,137 955,137 956,137 957,137 958,136 958,136 959,136 960,136 961,135 962,135 963,137 964,136 965,136 966,138 967,138 967,137 968,137 969,136 970,136 971,136 972,136 972,136 973,136 "/>
<line opacity="0.1" stroke="#000000" stroke-width="1" x1="85" y1="699" x2="85" y2="68"/>
<line opacity="0.1" stroke="#000000" stroke-width="1" x1="94" y1="699" x2="94" y2="68"/>
<line opacity="0.1" stroke="#000000" stroke-width="1" x1="103" y1="699" x2="103" y2="68"/>
<line opacity="0.1" stroke="#000000" stroke-width="1" x1="112" y1="699" x2="112" y2="68"/>
<line opacity="0.1" stroke="#000000" stroke-width="1" x1="121" y1="699" x2="121" y2="68"/>
<line opacity="0.1" stroke="#000000" stroke-width="1" x1="130" y1="699" x2="130" y2="68"/>
<line opacity="0.1" stroke="#000000" stroke-width="1" x1="138" y1="699" x2="138" y2="68"/>
<line opacity="0.1" stroke="#000000" stroke-width="1" x1="147" y1="699" x2="147" y2="68"/>
<line opacity="0.1" stroke="#000000" stroke-width="1" x1="156" y1="699" x2="156" y2="68"/>
<line opacity="0.1" stroke="#000000" stroke-width="1" x1="165" y1="699" x2="165" y2="68"/>
<line opacity="0.1" stroke="#000000" stroke-width="1" x1="174" y1="699" x2="174" y2="68"/>
<line opacity="0.1" stroke="#000000" stroke-width="1" x1="183" y1="699" x2="183" y2="68"/>
<line opacity="0.1" stroke="#000000" stroke-width="1" x1="191" y1="699" x2="191" y2="68"/>
<line opacity="0.1" stroke="#000000" stroke-width="1" x1="200" y1="699" x2="200" y2="68"/>
<line opacity="0.1" stroke="#000000" stroke-width="1" x1="209" y1="699" x2="209" y2="68"/>
<line opacity="0.1" stroke="#000000" stroke-width="1" x1="218" y1="699" x2="218" y2="68"/>
<line opacity="0.1" stroke="#000000" stroke-width="1" x1="227" y1="699" x2="227" y2="68"/>
<line opacity="0.1" stroke="#000000" stroke-width="1" x1="236" y1="699" x2="236" y2="68"/>
<line opacity="0.1" stroke="#000000" stroke-width="1" x1="244" y1="699" x2="244" y2="68"/>
<line opacity="0.1" stroke="#000000" stroke-width="1" x1="253" y1="699" x2="253" y2="68"/>
<line opacity="0.1" stroke="#000000" stroke-width="1" x1="262" y1="699" x2="262" y2="68"/>
<line opacity="0.1" stroke="#000000" stroke-width="1" x1="271" y1="699" x2="271" y2="68"/>
<line opacity="0.1" stroke="#000000" stroke-width="1" x1="280" y1="699" x2="280" y2="68"/>
<line opacity="0.1" stroke="#000000" stroke-width="1" x1="289" y1="699" x2="289" y2="68"/>
<line opacity="0.1" stroke="#000000" stroke-width="1" x1="298" y1="699" x2="298" y2="68"/>
<line opacity="0.1" stroke="#000000" stroke-width="1" x1="306" y1="699" x2="306" y2="68"/>
<line opacity="0.1" stroke="#000000" stroke-width="1" x1="315" y1="699" x2="315" y2="68"/>
<line opacity="0.1" stroke="#000000" stroke-width="1" x1="324" y1="699" x2="324" y2="68"/>
<line opacity="0.1" stroke="#000000" stroke-width="1" x1="333" y1="699" x2="333" y2="68"/>
<line opacity="0.1" stroke="#000000" stroke-width="1" x1="342" y1="699" x2="342" y2="68"/>
<line opacity="0.1" stroke="#000000" stroke-width="1" x1="351" y1="699" x2="351" y2="68"/>
<line opacity="0.1" stroke="#000000" stroke-width="1" x1="359" y1="699" x2="359" y2="68"/>
<line opacity="0.1" stroke="#000000" stroke-width="1" x1="368" y1="699" x2="368" y2="68"/>
<line opacity="0.1" stroke="#000000" stroke-width="1" x1="377" y1="699" x2="377" y2="68"/>
<line opacity="0.1" stroke="#000000" stroke-width="1" x1="386" y1="699" x2="386" y2="68"/>
<line opacity="0.1" stroke="#000000" stroke-width="1" x1="395" y1="699" x2="395" y2="68"/>
<line opacity="0.1" stroke="#000000" stroke-width="1" x1="404" y1="699" x2="404" y2="68"/>
<line opacity="0.1" stroke="#000000" stroke-width="1" x1="412" y1="699" x2="412" y2="68"/>
<line opacity="0.1" stroke="#000000" stroke-width="1" x1="421" y1="699" x2="421" y2="68"/>
<line opacity="0.1" stroke="#000000" stroke-width="1" x1="430" y1="699" x2="430" y2="68"/>
<line opacity="0.1" stroke="#000000" stroke-width="1" x1="439" y1="699" x2="439" y2="68"/>
<line opacity="0.1" stroke="#000000" stroke-width="1" x1="448" y1="699" x2="448" y2="68"/>
<line opacity="0.1" stroke="#000000" stroke-width="1" x1="457" y1="699" x2="457" y2="68"/>
<line opacity="0.1" stroke="#000000" stroke-width="1" x1="465" y1="699" x2="465" y2="68"/>
<line opacity="0.1" stroke="#000000" stroke-width="1" x1="474" y1="699" x2="474" y2="68"/>
<line opacity="0.1" stroke="#000000" stroke-width="1" x1="483" y1="699" x2="483" y2="68"/>
<line opacity="0.1" stroke="#000000" stroke-width="1" x1="492" y1="699" x2="492" y2="68"/>
<line opacity="0.1" stroke="#000000" stroke-width="1" x1="501" y1="699" x2="501" y2="68"/>
<line opacity="0.1" stroke="#000000" stroke-width="1" x1="510" y1="699" x2="510" y2="68"/>
<line opacity="0.1" stroke="#000000" stroke-width="1" x1="518" y1="699" x2="518" y2="68"/>
<line opacity="0.1" stroke="#000000" stroke-width="1" x1="527" y1="699" x2="527" y2="68"/>
<line opacity="0.1" stroke="#000000" stroke-width="1" x1="536" y1="699" x2="536" y2="68"/>
<line opacity="0.1" stroke="#000000" stroke-width="1" x1="545" y1="699" x2="545" y2="68"/>
<line opacity="0.1" stroke="#000000" stroke-width="1" x1="554" y1="699" x2="554" y2="68"/>
<line opacity="0.1" stroke="#000000" stroke-width="1" x1="563" y1="699" x2="563" y2="68"/>
<line opacity="0.1" stroke="#000000" stroke-width="1" x1="572" y1="699" x2="572" y2="68"/>
<line opacity="0.1" stroke="#000000" stroke-width="1" x1="580" y1="699" x2="580" y2="68"/>
<line opacity="0.1" stroke="#000000" stroke-width="1" x1="589" y1="699" x2="589" y2="68"/>
<line opacity="0.1" stroke="#000000" stroke-width="1" x1="598" y1="699" x2="598" y2="68"/>
<line opacity="0.1" stroke="#000000" stroke-width="1" x1="607" y1="699" x2="607" y2="68"/>
<line opacity="0.1" stroke="#000000" stroke-width="1" x1="616" y1="699" x2="616" y2="68"/>
<line opacity="0.1" stroke="#000000" stroke-width="1" x1="625" y1="699" x2="625" y2="68"/>
<line opacity="0.1" stroke="#000000" stroke-width="1" x1="633" y1="699" x2="633" y2="68"/>
<line opacity="0.1" stroke="#000000" stroke-width="1" x1="642" y1="699" x2="642" y2="68"/>
<line opacity="0.1" stroke="#000000" stroke-width="1" x1="651" y1="699" x2="651" y2="68"/>
<line opacity="0.1" stroke="#000000" stroke-width="1" x1="660" y1="699" x2="660" y2="68"/>
<line opacity="0.1" stroke="#000000" stroke-width="1" x1="669" y1="699" x2="669" y2="68"/>
<line opacity="0.1" stroke="#000000" stroke-width="1" x1="678" y1="699" x2="678" y2="68"/>
<line opacity="0.1" stroke="#000000" stroke-width="1" x1="686" y1="699" x2="686" y2="68"/>
<line opacity="0.1" stroke="#000000" stroke-width="1" x1="695" y1="699" x2="695" y2="68"/>
<line opacity="0.1" stroke="#000000" stroke-width="1" x1="704" y1="699" x2="704" y2="68"/>
<line opacity="0.1" stroke="#000000" stroke-width="1" x1="713" y1="699" x2="713" y2="68"/>
<line opacity="0.1" stroke="#000000" stroke-width="1" x1="722" y1="699" x2="722" y2="68"/>
<line opacity="0.1" stroke="#000000" stroke-width="1" x1="731" y1="699" x2="731" y2="68"/>
<line opacity="0.1" stroke="#000000" stroke-width="1" x1="739" y1="699" x2="739" y2="68"/>
<line opacity="0.1" stroke="#000000" stroke-width="1" x1="748" y1="699" x2="748" y2="68"/>
<line opacity="0.1" stroke="#000000" stroke-width="1" x1="757" y1="699" x2="757" y2="68"/>
<line opacity="0.1" stroke="#000000" stroke-width="1" x1="766" y1="699" x2="766" y2="68"/>
<line opacity="0.1" stroke="#000000" stroke-width="1" x1="775" y1="699" x2="775" y2="68"/>
<line opacity="0.1" stroke="#000000" stroke-width="1" x1="784" y1="699" x2="784" y2="68"/>
<line opacity="0.1" stroke="#000000" stroke-width="1" x1="792" y1="699" x2="792" y2="68"/>
<line opacity="0.1" stroke="#000000" stroke-width="1" x1="801" y1="699" x2="801" y2="68"/>
<line opacity="0.1" stroke="#000000" stroke-width="1" x1="810" y1="699" x2="810" y2="68"/>
<line opacity="0.1" stroke="#000000" stroke-width="1" x1="819" y1="699" x2="819" y2="68"/>
<line opacity="0.1" stroke="#000000" stroke-width="1" x1="828" y1="699" x2="828" y2="68"/>
<line opacity="0.1" stroke="#000000" stroke-width="1" x1="837" y1="699" x2="837" y2="68"/>
<line opacity="0.1" stroke="#000000" stroke-width="1" x1="846" y1="699" x2="846" y2="68"/>
<line opacity="0.1" stroke="#000000" stroke-width="1" x1="854" y1="699" x2="854" y2="68"/>
<line opacity="0.1" stroke="#000000" stroke-width="1" x1="863" y1="699" x2="863" y2="68"/>
<line opacity="0.1" stroke="#000000" stroke-width="1" x1="872" y1="699" x2="872" y2="68"/>
<line opacity="0.1" stroke="#000000" stroke-width="1" x1="881" y1="699" x2="881" y2="68"/>
<line opacity="0.1" stroke="#000000" stroke-width="1" x1="890" y1="699" x2="890" y2="68"/>
<line opacity="0.1" stroke="#000000" stroke-width="1" x1="899" y1="699" x2="899" y2="68"/>
<line opacity="0.1" stroke="#000000" stroke-width="1" x1="907" y1="699" x2="907" y2="68"/>
<line opacity="0.1" stroke="#000000" stroke-width="1" x1="916" y1="699" x2="916" y2="68"/>
<line opacity="0.1" stroke="#000000" stroke-width="1" x1="925" y1="699" x2="925" y2="68"/>
<line opacity="0.1" stroke="#000000" stroke-width="1" x1="934" y1="699" x2="934" y2="68"/>
<line opacity="0.1" stroke="#000000" stroke-width="1" x1="943" y1="699" x2="943" y2="68"/>
<line opacity="0.1" stroke="#000000" stroke-width="1" x1="952" y1="699" x2="952" y2="68"/>
<line opacity="0.1" stroke="#000000" stroke-width="1" x1="960" y1="699" x2="960" y2="68"/>
<line opacity="0.1" stroke="#000000" stroke-width="1" x1="969" y1="699" x2="969" y2="68"/>
<line opacity="0.1" stroke="#000000" stroke-width="1" x1="78" y1="699" x2="973" y2="699"/>
<line opacity="0.1" stroke="#000000" stroke-width="1" x1="78" y1="693" x2="973" y2="693"/>
<line opacity="0.1" stroke="#000000" stroke-width="1" x1="78" y1="687" x2="973" y2="687"/>
<line opacity="0.1" stroke="#000000" stroke-width="1" x1="78" y1="681" x2="973" y2="681"/>
<line opacity="0.1" stroke="#000000" stroke-width="1" x1="78" y1="675" x2="973" y2="675"/>
<line opacity="0.1" stroke="#000000" stroke-width="1" x1="78" y1="669" x2="973" y2="669"/>
<line opacity="0.1" stroke="#000000" stroke-width="1" x1="78" y1="663" x2="973" y2="663"/>
<line opacity="0.1" stroke="#000000" stroke-width="1" x1="78" y1="658" x2="973" y2="658"/>
<line opacity="0.1" stroke="#000000" stroke-width="1" x1="78" y1="652" x2="973" y2="652"/>
<line opacity="0.1" stroke="#000000" stroke-width="1" x1="78" y1="646" x2="973" y2="646"/>
<line opacity="0.1" stroke="#000000" stroke-width="1" x1="78" y1="640" x2="973" y2="640"/>
<line opacity="0.1" stroke="#000000" stroke-width="1" x1="78" y1="634" x2="973" y2="634"/>
<line opacity="0.1" stroke="#000000" stroke-width="1" x1="78" y1="628" x2="973" y2="628"/>
<line opacity="0.1" stroke="#000000" stroke-width="1" x1="78" y1="623" x2="973" y2="623"/>
<line opacity="0.1" stroke="#000000" stroke-width="1" x1="78" y1="617" x2="973" y2="617"/>
<line opacity="0.1" stroke="#000000" stroke-width="1" x1="78" y1="611" x2="973" y2="611"/>
<line opacity="0.1" stroke="#000000" stroke-width="1" x1="78" y1="605" x2="973" y2="605"/>
<line opacity="0.1" stroke="#000000" stroke-width="1" x1="78" y1="599" x2="973" y2="599"/>
<line opacity="0.1" stroke="#000000" stroke-width="1" x1="78" y1="593" x2="973" y2="593"/>
<line opacity="0.1" stroke="#000000" stroke-width="1" x1="78" y1="588" x2="973" y2="588"/>
<line opacity="0.1" stroke="#000000" stroke-width="1" x1="78" y1="582" x2="973" y2="582"/>
<line opacity="0.1" stroke="#000000" stroke-width="1" x1="78" y1="576" x2="973" y2="576"/>
<line opacity="0.1" stroke="#000000" stroke-width="1" x1="78" y1="570" x2="973" y2="570"/>
<line opacity="0.1" stroke="#000000" stroke-width="1" x1="78" y1="564" x2="973" y2="564"/>
<line opacity="0.1" stroke="#000000" stroke-width="1" x1="78" y1="558" x2="973" y2="558"/>
<line opacity="0.1" stroke="#000000" stroke-width="1" x1="78" y1="553" x2="973" y2="553"/>
<line opacity="0.1" stroke="#000000" stroke-width="1" x1="78" y1="547" x2="973" y2="547"/>
<line opacity="0.1" stroke="#000000" stroke-width="1" x1="78" y1="541" x2="973" y2="541"/>
<line opacity="0.1" stroke="#000000" stroke-width="1" x1="78" y1="535" x2="973" y2="535"/>
<line opacity="0.1" stroke="#000000" stroke-width="1" x1="78" y1="529" x2="973" y2="529"/>
<line opacity="0.1" stroke="#000000" stroke-width="1" x1="78" y1="523" x2="973" y2="523"/>
<line opacity="0.1" stroke="#000000" stroke-width="1" x1="78" y1="518" x2="973" y2="518"/>
<line opacity="0.1" stroke="#000000" stroke-width="1" x1="78" y1="512" x2="973" y2="512"/>
<line opacity="0.1" stroke="#000000" stroke-width="1" x1="78" y1="506" x2="973" y2="506"/>
<line opacity="0.1" stroke="#000000" stroke-width="1" x1="78" y1="500" x2="973" y2="500"/>
<line opacity="0.1" stroke="#000000" stroke-width="1" x1="78" y1="494" x2="973" y2="494"/>
<line opacity="0.1" stroke="#000000" stroke-width="1" x1="78" y1="488" x2="973" y2="488"/>
<line opacity="0.1" stroke="#000000" stroke-width="1" x1="78" y1="483" x2="973" y2="483"/>
<line opacity="0.1" stroke="#000000" stroke-width="1" x1="78" y1="477" x2="973" y2="477"/>
<line opacity="0.1" stroke="#000000" stroke-width="1" x1="78" y1="471" x2="973" y2="471"/>
<line opacity="0.1" stroke="#000000" stroke-width="1" x1="78" y1="465" x2="973" y2="465"/>
<line opacity="0.1" stroke="#000000" stroke-width="1" x1="78" y1="459" x2="973" y2="459"/>
<line opacity="0.1" stroke="#000000" stroke-width="1" x1="78" y1="453" x2="973" y2="453"/>
<line opacity="0.1" stroke="#000000" stroke-width="1" x1="78" y1="448" x2="973" y2="448"/>
<line opacity="0.1" stroke="#000000" stroke-width="1" x1="78" y1="442" x2="973" y2="442"/>
<line opacity="0.1" stroke="#000000" stroke-width="1" x1="78" y1="436" x2="973" y2="436"/>
<line opacity="0.1" stroke="#000000" stroke-width="1" x1="78" y1="430" x2="973" y2="430"/>
<line opacity="0.1" stroke="#000000" stroke-width="1" x1="78" y1="424" x2="973" y2="424"/>
<line opacity="0.1" stroke="#000000" stroke-width="1" x1="78" y1="418" x2="973" y2="418"/>
<line opacity="0.1" stroke="#000000" stroke-width="1" x1="78" y1="412" x2="973" y2="412"/>
<line opacity="0.1" stroke="#000000" stroke-width="1" x1="78" y1="407" x2="973" y2="407"/>
<line opacity="0.1" stroke="#000000" stroke-width="1" x1="78" y1="401" x2="973" y2="401"/>
<line opacity="0.1" stroke="#000000" stroke-width="1" x1="78" y1="395" x2="973" y2="395"/>
<line opacity="0.1" stroke="#000000" stroke-width="1" x1="78" y1="389" x2="973" y2="389"/>
<line opacity="0.1" stroke="#000000" stroke-width="1" x1="78" y1="383" x2="973" y2="383"/>
<line opacity="0.1" stroke="#000000" stroke-width="1" x1="78" y1="377" x2="973" y2="377"/>
<line opacity="0.1" stroke="#000000" stroke-width="1" x1="78" y1="372" x2="973" y2="372"/>
<line opacity="0.1" stroke="#000000" stroke-width="1" x1="78" y1="366" x2="973" y2="366"/>
<line opacity="0.1" stroke="#000000" stroke-width="1" x1="78" y1="360" x2="973" y2="360"/>
<line opacity="0.1" stroke="#000000" stroke-width="1" x1="78" y1="354" x2="973" y2="354"/>
<line opacity="0.1" stroke="#000000" stroke-width="1" x1="78" y1="348" x2="973" y2="348"/>
<line opacity="0.1" stroke="#000000" stroke-width="1" x1="78" y1="342" x2="973" y2="342"/>
<line opacity="0.1" stroke="#000000" stroke-width="1" x1="78" y1="337" x2="973" y2="337"/>
<line opacity="0.1" stroke="#000000" stroke-width="1" x1="78" y1="331" x2="973" y2="331"/>
<line opacity="0.1" stroke="#000000" stroke-width="1" x1="78" y1="325" x2="973" y2="325"/>
<line opacity="0.1" stroke="#000000" stroke-width="1" x1="78" y1="319" x2="973" y2="319"/>
<line opacity="0.1" stroke="#000000" stroke-width="1" x1="78" y1="313" x2="973" y2="313"/>
<line opacity="0.1" stroke="#000000" stroke-width="1" x1="78" y1="307" x2="973" y2="307"/>
<line opacity="0.1" stroke="#000000" stroke-width="1" x1="78" y1="302" x2="973" y2="302"/>
<line opacity="0.1" stroke="#000000" stroke-width="1" x1="78" y1="296" x2="973" y2="296"/>
<line opacity="0.1" stroke="#000000" stroke-width="1" x1="78" y1="290" x2="973" y2="290"/>
<line opacity="0.1" stroke="#000000" stroke-width="1" x1="78" y1="284" x2="973" y2="284"/>
<line opacity="0.1" stroke="#000000" stroke-width="1" x1="78" y1="278" x2="973" y2="278"/>
<line opacity="0.1" stroke="#000000" stroke-width="1" x1="78" y1="272" x2="973" y2="272"/>
<line opacity="0.1" stroke="#000000" stroke-width="1" x1="78" y1="267" x2="973" y2="267"/>
<line opacity="0.1" stroke="#000000" stroke-width="1" x1="78" y1="261" x2="973" y2="261"/>
<line opacity="0.1" stroke="#000000" stroke-width="1" x1="78" y1="255" x2="973" y2="255"/>
<line opacity="0.1" stroke="#000000" stroke-width="1" x1="78" y1="249" x2="973" y2="249"/>
<line opacity="0.1" stroke="#000000" stroke-width="1" x1="78" y1="243" x2="973" y2="243"/>
<line opacity="0.1" stroke="#000000" stroke-width="1" x1="78" y1="237" x2="973" y2="237"/>
<line opacity="0.1" stroke="#000000" stroke-width="1" x1="78" y1="232" x2="973" y2="232"/>
<line opacity="0.1" stroke="#000000" stroke-width="1" x1="78" y1="226" x2="973" y2="226"/>
<line opacity="0.1" stroke="#000000" stroke-width="1" x1="78" y1="220" x2="973" y2="220"/>
<line opacity="0.1" stroke="#000000" stroke-width="1" x1="78" y1="214" x2="973" y2="214"/>
<line opacity="0.1" stroke="#000000" stroke-width="1" x1="78" y1="208" x2="973" y2="208"/>
<line opacity="0.1" stroke="#000000" stroke-width="1" x1="78" y1="202" x2="973" y2="202"/>
<line opacity="0.1" stroke="#000000" stroke-width="1" x1="78" y1="197" x2="973" y2="197"/>
<line opacity="0.1" stroke="#000000" stroke-width="1" x1="78" y1="191" x2="973" y2="191"/>
<line opacity="0.1" stroke="#000000" stroke-width="1" x1="78" y1="185" x2="973" y2="185"/>
<line opacity="0.1" stroke="#000000" stroke-width="1" x1="78" y1="179" x2="973" y2="179"/>
<line opacity="0.1" stroke="#000000" stroke-width="1" x1="78" y1="173" x2="973" y2="173"/>
<line opacity="0.1" stroke="#000000" stroke-width="1" x1="78" y1="167" x2="973" y2="167"/>
<line opacity="0.1" stroke="#000000" stroke-width="1" x1="78" y1="162" x2="973" y2="162"/>
<line opacity="0.1" stroke="#000000" stroke-width="1" x1="78" y1="156" x2="973" y2="156"/>
<line opacity="0.1" stroke="#000000" stroke-width="1" x1="78" y1="150" x2="973" y2="150"/>
<line opacity="0.1" stroke="#000000" stroke-width="1" x1="78" y1="144" x2="973" y2="144"/>
<line opacity="0.1" stroke="#000000" stroke-width="1" x1="78" y1="138" x2="973" y2="138"/>
<line opacity="0.1" stroke="#000000" stroke-width="1" x1="78" y1="132" x2="973" y2="132"/>
<line opacity="0.1" stroke="#000000" stroke-width="1" x1="78" y1="126" x2="973" y2="126"/>
<line opacity="0.1" stroke="#000000" stroke-width="1" x1="78" y1="121" x2="973" y2="121"/>
<line opacity="0.1" stroke="#000000" stroke-width="1" x1="78" y1="115" x2="973" y2="115"/>
<line opacity="0.1" stroke="#000000" stroke-width="1" x1="78" y1="109" x2="973" y2="109"/>
<line opacity="0.1" stroke="#000000" stroke-width="1" x1="78" y1="103" x2="973" y2="103"/>
<line opacity="0.1" stroke="#000000" stroke-width="1" x1="78" y1="97" x2="973" y2="97"/>
<line opacity="0.1" stroke="#000000" stroke-width="1" x1="78" y1="91" x2="973" y2="91"/>
<line opacity="0.1" stroke="#000000" stroke-width="1" x1="78" y1="86" x2="973" y2="86"/>
<line opacity="0.1" stroke="#000000" stroke-width="1" x1="78" y1="80" x2="973" y2="80"/>
<line opacity="0.1" stroke="#000000" stroke-width="1" x1="78" y1="74" x2="973" y2="74"/>
<line opacity="0.1" stroke="#000000" stroke-width="1" x1="78" y1="68" x2="973" y2="68"/>
<text x="8" y="384" dy="0.76em" text-anchor="middle" font-family="sans-serif" font-size="9.67741935483871" opacity="1" fill="#000000" transform="rotate(270, 8, 384)">
Memory usage
</text>
<text x="526" y="760" dy="-0.5ex" text-anchor="middle" font-family="sans-serif" font-size="9.67741935483871" opacity="1" fill="#000000">
Time
</text>
<line opacity="0.2" stroke="#000000" stroke-width="1" x1="130" y1="699" x2="130" y2="68"/>
<line opacity="0.2" stroke="#000000" stroke-width="1" x1="306" y1="699" x2="306" y2="68"/>
<line opacity="0.2" stroke="#000000" stroke-width="1" x1="483" y1="699" x2="483" y2="68"/>
<line opacity="0.2" stroke="#000000" stroke-width="1" x1="660" y1="699" x2="660" y2="68"/>
<line opacity="0.2" stroke="#000000" stroke-width="1" x1="837" y1="699" x2="837" y2="68"/>
<line opacity="0.2" stroke="#000000" stroke-width="1" x1="78" y1="699" x2="973" y2="699"/>
<line opacity="0.2" stroke="#000000" stroke-width="1" x1="78" y1="640" x2="973" y2="640"/>
<line opacity="0.2" stroke="#000000" stroke-width="1" x1="78" y1="582" x2="973" y2="582"/>
<line opacity="0.2" stroke="#000000" stroke-width="1" x1="78" y1="523" x2="973" y2="523"/>
<line opacity="0.2" stroke="#000000" stroke-width="1" x1="78" y1="465" x2="973" y2="465"/>
<line opacity="0.2" stroke="#000000" stroke-width="1" x1="78" y1="407" x2="973" y2="407"/>
<line opacity="0.2" stroke="#000000" stroke-width="1" x1="78" y1="348" x2="973" y2="348"/>
<line opacity="0.2" stroke="#000000" stroke-width="1" x1="78" y1="290" x2="973" y2="290"/>
<line opacity="0.2" stroke="#000000" stroke-width="1" x1="78" y1="232" x2="973" y2="232"/>
<line opacity="0.2" stroke="#000000" stroke-width="1" x1="78" y1="173" x2="973" y2="173"/>
<line opacity="0.2" stroke="#000000" stroke-width="1" x1="78" y1="115" x2="973" y2="115"/>
<polyline fill="none" opacity="1" stroke="#000000" stroke-width="1" points="77,68 77,699 "/>
<text x="68" y="699" dy="0.5ex" text-anchor="end" font-family="sans-serif" font-size="9.67741935483871" opacity="1" fill="#000000">
0 MB
</text>
<polyline fill="none" opacity="1" stroke="#000000" stroke-width="1" points="72,699 77,699 "/>
<text x="68" y="640" dy="0.5ex" text-anchor="end" font-family="sans-serif" font-size="9.67741935483871" opacity="1" fill="#000000">
95 MB
</text>
<polyline fill="none" opacity="1" stroke="#000000" stroke-width="1" points="72,640 77,640 "/>
<text x="68" y="582" dy="0.5ex" text-anchor="end" font-family="sans-serif" font-size="9.67741935483871" opacity="1" fill="#000000">
190 MB
</text>
<polyline fill="none" opacity="1" stroke="#000000" stroke-width="1" points="72,582 77,582 "/>
<text x="68" y="523" dy="0.5ex" text-anchor="end" font-family="sans-serif" font-size="9.67741935483871" opacity="1" fill="#000000">
286 MB
</text>
<polyline fill="none" opacity="1" stroke="#000000" stroke-width="1" points="72,523 77,523 "/>
<text x="68" y="465" dy="0.5ex" text-anchor="end" font-family="sans-serif" font-size="9.67741935483871" opacity="1" fill="#000000">
381 MB
</text>
<polyline fill="none" opacity="1" stroke="#000000" stroke-width="1" points="72,465 77,465 "/>
<text x="68" y="407" dy="0.5ex" text-anchor="end" font-family="sans-serif" font-size="9.67741935483871" opacity="1" fill="#000000">
476 MB
</text>
<polyline fill="none" opacity="1" stroke="#000000" stroke-width="1" points="72,407 77,407 "/>
<text x="68" y="348" dy="0.5ex" text-anchor="end" font-family="sans-serif" font-size="9.67741935483871" opacity="1" fill="#000000">
572 MB
</text>
<polyline fill="none" opacity="1" stroke="#000000" stroke-width="1" points="72,348 77,348 "/>
<text x="68" y="290" dy="0.5ex" text-anchor="end" font-family="sans-serif" font-size="9.67741935483871" opacity="1" fill="#000000">
667 MB
</text>
<polyline fill="none" opacity="1" stroke="#000000" stroke-width="1" points="72,290 77,290 "/>
<text x="68" y="232" dy="0.5ex" text-anchor="end" font-family="sans-serif" font-size="9.67741935483871" opacity="1" fill="#000000">
762 MB
</text>
<polyline fill="none" opacity="1" stroke="#000000" stroke-width="1" points="72,232 77,232 "/>
<text x="68" y="173" dy="0.5ex" text-anchor="end" font-family="sans-serif" font-size="9.67741935483871" opacity="1" fill="#000000">
858 MB
</text>
<polyline fill="none" opacity="1" stroke="#000000" stroke-width="1" points="72,173 77,173 "/>
<text x="68" y="115" dy="0.5ex" text-anchor="end" font-family="sans-serif" font-size="9.67741935483871" opacity="1" fill="#000000">
953 MB
</text>
<polyline fill="none" opacity="1" stroke="#000000" stroke-width="1" points="72,115 77,115 "/>
<polyline fill="none" opacity="1" stroke="#000000" stroke-width="1" points="78,700 973,700 "/>
<text x="130" y="710" dy="0.76em" text-anchor="middle" font-family="sans-serif" font-size="9.67741935483871" opacity="1" fill="#000000">
07 17:46:40
</text>
<polyline fill="none" opacity="1" stroke="#000000" stroke-width="1" points="130,700 130,705 "/>
<text x="306" y="710" dy="0.76em" text-anchor="middle" font-family="sans-serif" font-size="9.67741935483871" opacity="1" fill="#000000">
07 20:33:20
</text>
<polyline fill="none" opacity="1" stroke="#000000" stroke-width="1" points="306,700 306,705 "/>
<text x="483" y="710" dy="0.76em" text-anchor="middle" font-family="sans-serif" font-size="9.67741935483871" opacity="1" fill="#000000">
07 23:20:00
</text>
<polyline fill="none" opacity="1" stroke="#000000" stroke-width="1" points="483,700 483,705 "/>
<text x="660" y="710" dy="0.76em" text-anchor="middle" font-family="sans-serif" font-size="9.67741935483871" opacity="1" fill="#000000">
08 02:06:40
</text>
<polyline fill="none" opacity="1" stroke="#000000" stroke-width="1" points="660,700 660,705 "/>
<text x="837" y="710" dy="0.76em" text-anchor="middle" font-family="sans-serif" font-size="9.67741935483871" opacity="1" fill="#000000">
08 04:53:20
</text>
<polyline fill="none" opacity="1" stroke="#000000" stroke-width="1" points="837,700 837,705 "/>
<polyline fill="none" opacity="1" stroke="#000000" stroke-width="1" points="78,67 974,67 "/>
<text x="130" y="58" dy="-0.5ex" text-anchor="middle" font-family="sans-serif" font-size="9.67741935483871" opacity="1" fill="#000000">
+00:49:04
</text>
<polyline fill="none" opacity="1" stroke="#000000" stroke-width="1" points="130,62 130,67 "/>
<text x="307" y="58" dy="-0.5ex" text-anchor="middle" font-family="sans-serif" font-size="9.67741935483871" opacity="1" fill="#000000">
+03:35:44
</text>
<polyline fill="none" opacity="1" stroke="#000000" stroke-width="1" points="307,62 307,67 "/>
<text x="484" y="58" dy="-0.5ex" text-anchor="middle" font-family="sans-serif" font-size="9.67741935483871" opacity="1" fill="#000000">
+06:22:24
</text>
<polyline fill="none" opacity="1" stroke="#000000" stroke-width="1" points="484,62 484,67 "/>
<text x="661" y="58" dy="-0.5ex" text-anchor="middle" font-family="sans-serif" font-size="9.67741935483871" opacity="1" fill="#000000">
+09:09:04
</text>
<polyline fill="none" opacity="1" stroke="#000000" stroke-width="1" points="661,62 661,67 "/>
<text x="838" y="58" dy="-0.5ex" text-anchor="middle" font-family="sans-serif" font-size="9.67741935483871" opacity="1" fill="#000000">
+11:55:44
</text>
<polyline fill="none" opacity="1" stroke="#000000" stroke-width="1" points="838,62 838,67 "/>
</svg>
