<svg width="1024" height="768" viewBox="0 0 1024 768" xmlns="http://www.w3.org/2000/svg">
<rect x="0" y="0" width="1024" height="768" opacity="1" fill="#FFFFFF" stroke="none"/>
<polygon opacity="1" fill="#3CB44B" points="973,699 973,699 973,699 "/>
<polyline fill="none" opacity="1" stroke="#3CB44B" stroke-width="1" points="973,699 "/>
<polygon opacity="1" fill="#E6194B" points="78,697 79,697 80,696 81,696 82,695 83,694 84,694 84,693 85,692 86,692 87,691 88,690 89,690 90,689 91,689 92,688 92,687 93,687 94,686 95,686 96,685 97,684 98,684 99,683 100,683 101,682 101,681 102,681 103,680 104,680 105,679 106,679 107,678 108,677 109,677 109,676 110,675 111,675 112,674 113,673 114,673 115,672 116,672 117,671 118,671 118,670 119,669 120,669 121,668 122,667 123,667 124,666 125,666 126,665 126,664 127,664 128,663 129,662 130,662 131,661 132,660 133,660 134,659 134,659 135,658 136,657 137,657 138,656 139,656 140,655 141,654 142,654 143,653 143,652 144,652 145,651 146,650 147,650 148,649 149,648 150,648 151,647 151,646 152,646 153,645 154,645 155,644 156,644 157,643 158,642 159,641 160,641 160,640 161,640 162,639 163,638 164,638 165,637 166,636 167,636 168,635 168,634 169,634 170,633 171,632 172,632 173,631 174,631 175,630 176,629 176,628 177,628 178,627 179,627 180,626 181,625 182,625 183,624 184,624 185,623 185,623 186,622 187,621 188,620 189,620 190,619 191,619 192,618 193,617 193,617 194,616 195,615 196,615 197,614 198,613 199,613 200,612 201,612 202,611 202,610 203,610 204,609 205,609 206,608 207,607 208,606 209,606 210,605 210,605 211,604 212,603 213,603 214,602 215,602 216,601 217,600 218,600 218,599 219,599 220,598 221,598 222,597 223,596 224,596 225,595 226,595 227,594 227,593 228,593 229,592 230,591 231,591 232,590 233,590 234,589 235,588 235,588 236,587 237,587 238,586 239,585 240,585 241,584 242,583 243,583 244,582 244,582 245,581 246,580 247,580 248,579 249,579 250,578 251,577 252,577 252,576 253,576 254,575 255,574 256,574 257,573 258,572 259,572 260,571 260,570 261,570 262,569 263,568 264,568 265,567 266,566 267,566 268,565 269,564 269,564 270,563 271,563 272,562 273,562 274,561 275,560 276,560 277,559 277,559 278,558 279,557 280,557 281,556 282,556 283,555 284,554 285,553 286,553 286,552 287,552 288,551 289,550 290,550 291,549 292,549 293,548 294,547 294,547 295,546 296,546 297,545 298,544 299,544 300,543 301,543 302,542 302,541 303,541 304,540 305,540 306,539 307,538 308,538 309,537 310,536 311,536 311,535 312,534 313,534 314,533 315,533 316,532 317,532 318,531 319,530 319,530 320,529 321,528 322,528 323,527 324,526 325,526 326,525 327,524 328,524 328,523 329,523 330,522 331,521 332,521 333,520 334,519 335,519 336,518 336,517 337,517 338,516 339,515 340,515 341,514 342,514 343,513 344,512 344,511 345,511 346,510 347,510 348,509 349,508 350,508 351,507 352,507 353,506 353,505 354,505 355,504 356,504 357,503 358,502 359,502 360,501 361,500 361,500 362,499 363,498 364,498 365,497 366,496 367,496 368,495 369,495 370,494 370,493 371,493 372,492 373,491 374,491 375,490 376,489 377,489 378,488 378,488 379,487 380,486 381,486 382,485 383,484 384,484 385,483 386,482 386,482 387,481 388,480 389,480 390,479 391,478 392,478 393,477 394,477 395,476 395,475 396,474 397,474 398,473 399,473 400,472 401,471 402,471 403,470 403,469 404,469 405,468 406,467 407,467 408,466 409,465 410,465 411,464 412,463 412,463 413,462 414,462 415,461 416,461 417,460 418,459 419,459 420,458 420,457 421,457 422,456 423,456 424,455 425,454 426,454 427,453 428,452 428,451 429,451 430,450 431,450 432,449 433,448 434,448 435,447 436,446 437,446 437,445 438,445 439,444 440,443 441,443 442,442 443,441 444,441 445,440 445,439 446,439 447,438 448,437 449,437 450,436 451,436 452,435 453,434 454,434 454,433 455,432 456,432 457,431 458,430 459,430 460,429 461,429 462,428 462,428 463,427 464,426 465,426 466,425 467,424 468,424 469,423 470,422 470,422 471,421 472,420 473,420 474,419 475,419 476,418 477,417 478,417 479,416 479,415 480,415 481,414 482,414 483,413 484,412 485,411 486,411 487,410 487,410 488,409 489,408 490,408 491,407 492,406 493,406 494,405 495,405 496,404 496,403 497,402 498,402 499,401 500,401 501,400 502,399 503,399 504,398 504,397 505,397 506,396 507,395 508,395 509,394 510,394 511,393 512,392 512,392 513,391 514,390 515,390 516,389 517,388 518,388 519,387 520,387 521,386 521,385 522,385 523,384 524,384 525,383 526,382 527,381 528,381 529,380 529,380 530,379 531,378 532,378 533,377 534,376 535,376 536,375 537,374 538,374 538,373 539,373 540,372 541,371 542,371 543,370 544,369 545,369 546,368 546,368 547,367 548,366 549,366 550,365 551,364 552,364 553,363 554,362 554,362 555,361 556,361 557,360 558,359 559,359 560,358 561,358 562,357 563,356 563,356 564,355 565,354 566,354 567,353 568,352 569,352 570,351 571,351 571,350 572,349 573,349 574,348 575,347 576,347 577,346 578,346 579,345 580,344 580,344 581,343 582,342 583,342 584,341 585,341 586,340 587,339 588,339 588,338 589,337 590,337 591,336 592,335 593,335 594,334 595,334 596,333 596,332 597,332 598,331 599,331 600,330 601,329 602,329 603,328 604,327 605,327 605,326 606,326 607,325 608,324 609,324 610,323 611,322 612,322 613,321 613,320 614,320 615,319 616,319 617,318 618,317 619,317 620,316 621,315 622,314 622,314 623,313 624,313 625,312 626,311 627,311 628,310 629,310 630,309 630,308 631,308 632,307 633,307 634,306 635,305 636,305 637,304 638,303 638,303 639,302 640,301 641,301 642,300 643,300 644,299 645,298 646,297 647,297 647,296 648,296 649,295 650,294 651,294 652,293 653,293 654,292 655,291 655,291 656,290 657,289 658,289 659,288 660,287 661,287 662,286 663,286 664,285 664,284 665,284 666,283 667,282 668,282 669,281 670,281 671,280 672,279 672,279 673,278 674,277 675,277 676,276 677,276 678,275 679,274 680,274 680,273 681,272 682,272 683,271 684,270 685,270 686,269 687,268 688,268 689,267 689,267 690,266 691,265 692,265 693,264 694,264 695,263 696,262 697,262 697,261 698,260 699,260 700,259 701,259 702,258 703,257 704,256 705,256 706,255 706,255 707,254 708,253 709,253 710,252 711,252 712,251 713,250 714,250 714,249 715,248 716,248 717,247 718,247 719,246 720,246 721,245 722,245 722,244 723,243 724,243 725,242 726,241 727,241 728,240 729,239 730,238 731,238 731,237 732,237 733,236 734,236 735,235 736,234 737,234 738,233 739,232 739,231 740,231 741,230 742,230 743,229 744,228 745,228 746,227 747,227 748,226 748,225 749,225 750,224 751,223 752,223 753,222 754,222 755,221 756,220 756,220 757,219 758,218 759,218 760,217 761,216 762,216 763,215 764,214 764,214 765,213 766,213 767,212 768,211 769,211 770,210 771,209 772,209 773,208 773,207 774,207 775,206 776,206 777,205 778,204 779,204 780,203 781,203 781,202 782,201 783,201 784,200 785,200 786,199 787,198 788,198 789,197 790,196 790,196 791,195 792,194 793,194 794,193 795,192 796,192 797,191 798,191 798,190 799,189 800,189 801,188 802,188 803,187 804,186 805,186 806,185 806,184 807,184 808,183 809,183 810,182 811,181 812,180 813,180 814,179 815,178 815,178 816,177 817,176 818,176 819,175 820,174 821,174 822,173 823,172 823,172 824,171 825,170 826,170 827,169 828,168 829,168 830,167 831,166 832,166 832,165 833,164 834,164 835,163 836,162 837,162 838,161 839,161 840,160 840,159 841,159 842,158 843,157 844,157 845,156 846,156 847,155 848,154 848,154 849,153 850,153 851,152 852,151 853,151 854,150 855,150 856,149 857,148 857,148 858,147 859,147 860,146 861,145 862,145 863,144 864,143 865,143 865,142 866,141 867,141 868,140 869,139 870,139 871,138 872,138 873,137 874,136 874,135 875,135 876,134 877,134 878,133 879,133 880,132 881,131 882,131 882,130 883,130 884,129 885,128 886,128 887,127 888,126 889,126 890,125 890,124 891,123 892,123 893,122 894,122 895,121 896,120 897,120 898,119 899,118 899,118 900,117 901,117 902,116 903,115 904,115 905,114 906,113 907,112 907,112 908,111 909,111 910,110 911,109 912,109 913,108 914,107 915,107 916,106 916,106 917,105 918,104 919,104 920,103 921,102 922,102 923,101 924,101 924,100 925,99 926,99 927,98 928,97 929,97 930,96 931,96 932,95 932,95 933,94 934,93 935,92 936,92 937,91 938,90 939,90 940,89 941,89 941,88 942,87 943,87 944,86 945,86 946,85 947,84 948,84 949,83 949,82 950,82 951,81 952,81 953,80 954,79 955,79 956,78 957,78 958,77 958,76 959,76 960,75 961,74 962,74 963,73 964,72 965,72 966,71 966,70 967,70 968,69 969,68 970,68 971,68 971,68 973,68 973,699 78,699 "/>
<polyline fill="none" opacity="1" stroke="#E6194B" stroke-width="1" points="78,697 79,697 80,696 81,696 82,695 83,694 84,694 84,693 85,692 86,692 87,691 88,690 89,690 90,689 91,689 92,688 92,687 93,687 94,686 95,686 96,685 97,684 98,684 99,683 100,683 101,682 101,681 102,681 103,680 104,680 105,679 106,679 107,678 108,677 109,677 109,676 110,675 111,675 112,674 113,673 114,673 115,672 116,672 117,671 118,671 118,670 119,669 120,669 121,668 122,667 123,667 124,666 125,666 126,665 126,664 127,664 128,663 129,662 130,662 131,661 132,660 133,660 134,659 134,659 135,658 136,657 137,657 138,656 139,656 140,655 141,654 142,654 143,653 143,652 144,652 145,651 146,650 147,650 148,649 149,648 150,648 151,647 151,646 152,646 153,645 154,645 155,644 156,644 157,643 158,642 159,641 160,641 160,640 161,640 162,639 163,638 164,638 165,637 166,636 167,636 168,635 168,634 169,634 170,633 171,632 172,632 173,631 174,631 175,630 176,629 176,628 177,628 178,627 179,627 180,626 181,625 182,625 183,624 184,624 185,623 185,623 186,622 187,621 188,620 189,620 190,619 191,619 192,618 193,617 193,617 194,616 195,615 196,615 197,614 198,613 199,613 200,612 201,612 202,611 202,610 203,610 204,609 205,609 206,608 207,607 208,606 209,606 210,605 210,605 211,604 212,603 213,603 214,602 215,602 216,601 217,600 218,600 218,599 219,599 220,598 221,598 222,597 223,596 224,596 225,595 226,595 227,594 227,593 228,593 229,592 230,591 231,591 232,590 233,590 234,589 235,588 235,588 236,587 237,587 238,586 239,585 240,585 241,584 242,583 243,583 244,582 244,582 245,581 246,580 247,580 248,579 249,579 250,578 251,577 252,577 252,576 253,576 254,575 255,574 256,574 257,573 258,572 259,572 260,571 260,570 261,570 262,569 263,568 264,568 265,567 266,566 267,566 268,565 269,564 269,564 270,563 271,563 272,562 273,562 274,561 275,560 276,560 277,559 277,559 278,558 279,557 280,557 281,556 282,556 283,555 284,554 285,553 286,553 286,552 287,552 288,551 289,550 290,550 291,549 292,549 293,548 294,547 294,547 295,546 296,546 297,545 298,544 299,544 300,543 301,543 302,542 302,541 303,541 304,540 305,540 306,539 307,538 308,538 309,537 310,536 311,536 311,535 312,534 313,534 314,533 315,533 316,532 317,532 318,531 319,530 319,530 320,529 321,528 322,528 323,527 324,526 325,526 326,525 327,524 328,524 328,523 329,523 330,522 331,521 332,521 333,520 334,519 335,519 336,518 336,517 337,517 338,516 339,515 340,515 341,514 342,514 343,513 344,512 344,511 345,511 346,510 347,510 348,509 349,508 350,508 351,507 352,507 353,506 353,505 354,505 355,504 356,504 357,503 358,502 359,502 360,501 361,500 361,500 362,499 363,498 364,498 365,497 366,496 367,496 368,495 369,495 370,494 370,493 371,493 372,492 373,491 374,491 375,490 376,489 377,489 378,488 378,488 379,487 380,486 381,486 382,485 383,484 384,484 385,483 386,482 386,482 387,481 388,480 389,480 390,479 391,478 392,478 393,477 394,477 395,476 395,475 396,474 397,474 398,473 399,473 400,472 401,471 402,471 403,470 403,469 404,469 405,468 406,467 407,467 408,466 409,465 410,465 411,464 412,463 412,463 413,462 414,462 415,461 416,461 417,460 418,459 419,459 420,458 420,457 421,457 422,456 423,456 424,455 425,454 426,454 427,453 428,452 428,451 429,451 430,450 431,450 432,449 433,448 434,448 435,447 436,446 437,446 437,445 438,445 439,444 440,443 441,443 442,442 443,441 444,441 445,440 445,439 446,439 447,438 448,437 449,437 450,436 451,436 452,435 453,434 454,434 454,433 455,432 456,432 457,431 458,430 459,430 460,429 461,429 462,428 462,428 463,427 464,426 465,426 466,425 467,424 468,424 469,423 470,422 470,422 471,421 472,420 473,420 474,419 475,419 476,418 477,417 478,417 479,416 479,415 480,415 481,414 482,414 483,413 484,412 485,411 486,411 487,410 487,410 488,409 489,408 490,408 491,407 492,406 493,406 494,405 495,405 496,404 496,403 497,402 498,402 499,401 500,401 501,400 502,399 503,399 504,398 504,397 505,397 506,396 507,395 508,395 509,394 510,394 511,393 512,392 512,392 513,391 514,390 515,390 516,389 517,388 518,388 519,387 520,387 521,386 521,385 522,385 523,384 524,384 525,383 526,382 527,381 528,381 529,380 529,380 530,379 531,378 532,378 533,377 534,376 535,376 536,375 537,374 538,374 538,373 539,373 540,372 541,371 542,371 543,370 544,369 545,369 546,368 546,368 547,367 548,366 549,366 550,365 551,364 552,364 553,363 554,362 554,362 555,361 556,361 557,360 558,359 559,359 560,358 561,358 562,357 563,356 563,356 564,355 565,354 566,354 567,353 568,352 569,352 570,351 571,351 571,350 572,349 573,349 574,348 575,347 576,347 577,346 578,346 579,345 580,344 580,344 581,343 582,342 583,342 584,341 585,341 586,340 587,339 588,339 588,338 589,337 590,337 591,336 592,335 593,335 594,334 595,334 596,333 596,332 597,332 598,331 599,331 600,330 601,329 602,329 603,328 604,327 605,327 605,326 606,326 607,325 608,324 609,324 610,323 611,322 612,322 613,321 613,320 614,320 615,319 616,319 617,318 618,317 619,317 620,316 621,315 622,314 622,314 623,313 624,313 625,312 626,311 627,311 628,310 629,310 630,309 630,308 631,308 632,307 633,307 634,306 635,305 636,305 637,304 638,303 638,303 639,302 640,301 641,301 642,300 643,300 644,299 645,298 646,297 647,297 647,296 648,296 649,295 650,294 651,294 652,293 653,293 654,292 655,291 655,291 656,290 657,289 658,289 659,288 660,287 661,287 662,286 663,286 664,285 664,284 665,284 666,283 667,282 668,282 669,281 670,281 671,280 672,279 672,279 673,278 674,277 675,277 676,276 677,276 678,275 679,274 680,274 680,273 681,272 682,272 683,271 684,270 685,270 686,269 687,268 688,268 689,267 689,267 690,266 691,265 692,265 693,264 694,264 695,263 696,262 697,262 697,261 698,260 699,260 700,259 701,259 702,258 703,257 704,256 705,256 706,255 706,255 707,254 708,253 709,253 710,252 711,252 712,251 713,250 714,250 714,249 715,248 716,248 717,247 718,247 719,246 720,246 721,245 722,245 722,244 723,243 724,243 725,242 726,241 727,241 728,240 729,239 730,238 731,238 731,237 732,237 733,236 734,236 735,235 736,234 737,234 738,233 739,232 739,231 740,231 741,230 742,230 743,229 744,228 745,228 746,227 747,227 748,226 748,225 749,225 750,224 751,223 752,223 753,222 754,222 755,221 756,220 756,220 757,219 758,218 759,218 760,217 761,216 762,216 763,215 764,214 764,214 765,213 766,213 767,212 768,211 769,211 770,210 771,209 772,209 773,208 773,207 774,207 775,206 776,206 777,205 778,204 779,204 780,203 781,203 781,202 782,201 783,201 784,200 785,200 786,199 787,198 788,198 789,197 790,196 790,196 791,195 792,194 793,194 794,193 795,192 796,192 797,191 798,191 798,190 799,189 800,189 801,188 802,188 803,187 804,186 805,186 806,185 806,184 807,184 808,183 809,183 810,182 811,181 812,180 813,180 814,179 815,178 815,178 816,177 817,176 818,176 819,175 820,174 821,174 822,173 823,172 823,172 824,171 825,170 826,170 827,169 828,168 829,168 830,167 831,166 832,166 832,165 833,164 834,164 835,163 836,162 837,162 838,161 839,161 840,160 840,159 841,159 842,158 843,157 844,157 845,156 846,156 847,155 848,154 848,154 849,153 850,153 851,152 852,151 853,151 854,150 855,150 856,149 857,148 857,148 858,147 859,147 860,146 861,145 862,145 863,144 864,143 865,143 865,142 866,141 867,141 868,140 869,139 870,139 871,138 872,138 873,137 874,136 874,135 875,135 876,134 877,134 878,133 879,133 880,132 881,131 882,131 882,130 883,130 884,129 885,128 886,128 887,127 888,126 889,126 890,125 890,124 891,123 892,123 893,122 894,122 895,121 896,120 897,120 898,119 899,118 899,118 900,117 901,117 902,116 903,115 904,115 905,114 906,113 907,112 907,112 908,111 909,111 910,110 911,109 912,109 913,108 914,107 915,107 916,106 916,106 917,105 918,104 919,104 920,103 921,102 922,102 923,101 924,101 924,100 925,99 926,99 927,98 928,97 929,97 930,96 931,96 932,95 932,95 933,94 934,93 935,92 936,92 937,91 938,90 939,90 940,89 941,89 941,88 942,87 943,87 944,86 945,86 946,85 947,84 948,84 949,83 949,82 950,82 951,81 952,81 953,80 954,79 955,79 956,78 957,78 958,77 958,76 959,76 960,75 961,74 962,74 963,73 964,72 965,72 966,71 966,70 967,70 968,69 969,68 970,68 971,68 971,68 973,68 "/>
<line opacity="0.1" stroke="#000000" stroke-width="1" x1="85" y1="699" x2="85" y2="68"/>
<line opacity="0.1" stroke="#000000" stroke-width="1" x1="94" y1="699" x2="94" y2="68"/>
<line opacity="0.1" stroke="#000000" stroke-width="1" x1="103" y1="699" x2="103" y2="68"/>
<line opacity="0.1" stroke="#000000" stroke-width="1" x1="112" y1="699" x2="112" y2="68"/>
<line opacity="0.1" stroke="#000000" stroke-width="1" x1="121" y1="699" x2="121" y2="68"/>
<line opacity="0.1" stroke="#000000" stroke-width="1" x1="130" y1="699" x2="130" y2="68"/>
<line opacity="0.1" stroke="#000000" stroke-width="1" x1="138" y1="699" x2="138" y2="68"/>
<line opacity="0.1" stroke="#000000" stroke-width="1" x1="147" y1="699" x2="147" y2="68"/>
<line opacity="0.1" stroke="#000000" stroke-width="1" x1="156" y1="699" x2="156" y2="68"/>
<line opacity="0.1" stroke="#000000" stroke-width="1" x1="165" y1="699" x2="165" y2="68"/>
<line opacity="0.1" stroke="#000000" stroke-width="1" x1="174" y1="699" x2="174" y2="68"/>
<line opacity="0.1" stroke="#000000" stroke-width="1" x1="183" y1="699" x2="183" y2="68"/>
<line opacity="0.1" stroke="#000000" stroke-width="1" x1="191" y1="699" x2="191" y2="68"/>
<line opacity="0.1" stroke="#000000" stroke-width="1" x1="200" y1="699" x2="200" y2="68"/>
<line opacity="0.1" stroke="#000000" stroke-width="1" x1="209" y1="699" x2="209" y2="68"/>
<line opacity="0.1" stroke="#000000" stroke-width="1" x1="218" y1="699" x2="218" y2="68"/>
<line opacity="0.1" stroke="#000000" stroke-width="1" x1="227" y1="699" x2="227" y2="68"/>
<line opacity="0.1" stroke="#000000" stroke-width="1" x1="236" y1="699" x2="236" y2="68"/>
<line opacity="0.1" stroke="#000000" stroke-width="1" x1="244" y1="699" x2="244" y2="68"/>
<line opacity="0.1" stroke="#000000" stroke-width="1" x1="253" y1="699" x2="253" y2="68"/>
<line opacity="0.1" stroke="#000000" stroke-width="1" x1="262" y1="699" x2="262" y2="68"/>
<line opacity="0.1" stroke="#000000" stroke-width="1" x1="271" y1="699" x2="271" y2="68"/>
<line opacity="0.1" stroke="#000000" stroke-width="1" x1="280" y1="699" x2="280" y2="68"/>
<line opacity="0.1" stroke="#000000" stroke-width="1" x1="289" y1="699" x2="289" y2="68"/>
<line opacity="0.1" stroke="#000000" stroke-width="1" x1="298" y1="699" x2="298" y2="68"/>
<line opacity="0.1" stroke="#000000" stroke-width="1" x1="306" y1="699" x2="306" y2="68"/>
<line opacity="0.1" stroke="#000000" stroke-width="1" x1="315" y1="699" x2="315" y2="68"/>
<line opacity="0.1" stroke="#000000" stroke-width="1" x1="324" y1="699" x2="324" y2="68"/>
<line opacity="0.1" stroke="#000000" stroke-width="1" x1="333" y1="699" x2="333" y2="68"/>
<line opacity="0.1" stroke="#000000" stroke-width="1" x1="342" y1="699" x2="342" y2="68"/>
<line opacity="0.1" stroke="#000000" stroke-width="1" x1="351" y1="699" x2="351" y2="68"/>
<line opacity="0.1" stroke="#000000" stroke-width="1" x1="359" y1="699" x2="359" y2="68"/>
<line opacity="0.1" stroke="#000000" stroke-width="1" x1="368" y1="699" x2="368" y2="68"/>
<line opacity="0.1" stroke="#000000" stroke-width="1" x1="377" y1="699" x2="377" y2="68"/>
<line opacity="0.1" stroke="#000000" stroke-width="1" x1="386" y1="699" x2="386" y2="68"/>
<line opacity="0.1" stroke="#000000" stroke-width="1" x1="395" y1="699" x2="395" y2="68"/>
<line opacity="0.1" stroke="#000000" stroke-width="1" x1="404" y1="699" x2="404" y2="68"/>
<line opacity="0.1" stroke="#000000" stroke-width="1" x1="412" y1="699" x2="412" y2="68"/>
<line opacity="0.1" stroke="#000000" stroke-width="1" x1="421" y1="699" x2="421" y2="68"/>
<line opacity="0.1" stroke="#000000" stroke-width="1" x1="430" y1="699" x2="430" y2="68"/>
<line opacity="0.1" stroke="#000000" stroke-width="1" x1="439" y1="699" x2="439" y2="68"/>
<line opacity="0.1" stroke="#000000" stroke-width="1" x1="448" y1="699" x2="448" y2="68"/>
<line opacity="0.1" stroke="#000000" stroke-width="1" x1="457" y1="699" x2="457" y2="68"/>
<line opacity="0.1" stroke="#000000" stroke-width="1" x1="465" y1="699" x2="465" y2="68"/>
<line opacity="0.1" stroke="#000000" stroke-width="1" x1="474" y1="699" x2="474" y2="68"/>
<line opacity="0.1" stroke="#000000" stroke-width="1" x1="483" y1="699" x2="483" y2="68"/>
<line opacity="0.1" stroke="#000000" stroke-width="1" x1="492" y1="699" x2="492" y2="68"/>
<line opacity="0.1" stroke="#000000" stroke-width="1" x1="501" y1="699" x2="501" y2="68"/>
<line opacity="0.1" stroke="#000000" stroke-width="1" x1="510" y1="699" x2="510" y2="68"/>
<line opacity="0.1" stroke="#000000" stroke-width="1" x1="518" y1="699" x2="518" y2="68"/>
<line opacity="0.1" stroke="#000000" stroke-width="1" x1="527" y1="699" x2="527" y2="68"/>
<line opacity="0.1" stroke="#000000" stroke-width="1" x1="536" y1="699" x2="536" y2="68"/>
<line opacity="0.1" stroke="#000000" stroke-width="1" x1="545" y1="699" x2="545" y2="68"/>
<line opacity="0.1" stroke="#000000" stroke-width="1" x1="554" y1="699" x2="554" y2="68"/>
<line opacity="0.1" stroke="#000000" stroke-width="1" x1="563" y1="699" x2="563" y2="68"/>
<line opacity="0.1" stroke="#000000" stroke-width="1" x1="572" y1="699" x2="572" y2="68"/>
<line opacity="0.1" stroke="#000000" stroke-width="1" x1="580" y1="699" x2="580" y2="68"/>
<line opacity="0.1" stroke="#000000" stroke-width="1" x1="589" y1="699" x2="589" y2="68"/>
<line opacity="0.1" stroke="#000000" stroke-width="1" x1="598" y1="699" x2="598" y2="68"/>
<line opacity="0.1" stroke="#000000" stroke-width="1" x1="607" y1="699" x2="607" y2="68"/>
<line opacity="0.1" stroke="#000000" stroke-width="1" x1="616" y1="699" x2="616" y2="68"/>
<line opacity="0.1" stroke="#000000" stroke-width="1" x1="625" y1="699" x2="625" y2="68"/>
<line opacity="0.1" stroke="#000000" stroke-width="1" x1="633" y1="699" x2="633" y2="68"/>
<line opacity="0.1" stroke="#000000" stroke-width="1" x1="642" y1="699" x2="642" y2="68"/>
<line opacity="0.1" stroke="#000000" stroke-width="1" x1="651" y1="699" x2="651" y2="68"/>
<line opacity="0.1" stroke="#000000" stroke-width="1" x1="660" y1="699" x2="660" y2="68"/>
<line opacity="0.1" stroke="#000000" stroke-width="1" x1="669" y1="699" x2="669" y2="68"/>
<line opacity="0.1" stroke="#000000" stroke-width="1" x1="678" y1="699" x2="678" y2="68"/>
<line opacity="0.1" stroke="#000000" stroke-width="1" x1="686" y1="699" x2="686" y2="68"/>
<line opacity="0.1" stroke="#000000" stroke-width="1" x1="695" y1="699" x2="695" y2="68"/>
<line opacity="0.1" stroke="#000000" stroke-width="1" x1="704" y1="699" x2="704" y2="68"/>
<line opacity="0.1" stroke="#000000" stroke-width="1" x1="713" y1="699" x2="713" y2="68"/>
<line opacity="0.1" stroke="#000000" stroke-width="1" x1="722" y1="699" x2="722" y2="68"/>
<line opacity="0.1" stroke="#000000" stroke-width="1" x1="731" y1="699" x2="731" y2="68"/>
<line opacity="0.1" stroke="#000000" stroke-width="1" x1="739" y1="699" x2="739" y2="68"/>
<line opacity="0.1" stroke="#000000" stroke-width="1" x1="748" y1="699" x2="748" y2="68"/>
<line opacity="0.1" stroke="#000000" stroke-width="1" x1="757" y1="699" x2="757" y2="68"/>
<line opacity="0.1" stroke="#000000" stroke-width="1" x1="766" y1="699" x2="766" y2="68"/>
<line opacity="0.1" stroke="#000000" stroke-width="1" x1="775" y1="699" x2="775" y2="68"/>
<line opacity="0.1" stroke="#000000" stroke-width="1" x1="784" y1="699" x2="784" y2="68"/>
<line opacity="0.1" stroke="#000000" stroke-width="1" x1="792" y1="699" x2="792" y2="68"/>
<line opacity="0.1" stroke="#000000" stroke-width="1" x1="801" y1="699" x2="801" y2="68"/>
<line opacity="0.1" stroke="#000000" stroke-width="1" x1="810" y1="699" x2="810" y2="68"/>
<line opacity="0.1" stroke="#000000" stroke-width="1" x1="819" y1="699" x2="819" y2="68"/>
<line opacity="0.1" stroke="#000000" stroke-width="1" x1="828" y1="699" x2="828" y2="68"/>
<line opacity="0.1" stroke="#000000" stroke-width="1" x1="837" y1="699" x2="837" y2="68"/>
<line opacity="0.1" stroke="#000000" stroke-width="1" x1="846" y1="699" x2="846" y2="68"/>
<line opacity="0.1" stroke="#000000" stroke-width="1" x1="854" y1="699" x2="854" y2="68"/>
<line opacity="0.1" stroke="#000000" stroke-width="1" x1="863" y1="699" x2="863" y2="68"/>
<line opacity="0.1" stroke="#000000" stroke-width="1" x1="872" y1="699" x2="872" y2="68"/>
<line opacity="0.1" stroke="#000000" stroke-width="1" x1="881" y1="699" x2="881" y2="68"/>
<line opacity="0.1" stroke="#000000" stroke-width="1" x1="890" y1="699" x2="890" y2="68"/>
<line opacity="0.1" stroke="#000000" stroke-width="1" x1="899" y1="699" x2="899" y2="68"/>
<line opacity="0.1" stroke="#000000" stroke-width="1" x1="907" y1="699" x2="907" y2="68"/>
<line opacity="0.1" stroke="#000000" stroke-width="1" x1="916" y1="699" x2="916" y2="68"/>
<line opacity="0.1" stroke="#000000" stroke-width="1" x1="925" y1="699" x2="925" y2="68"/>
<line opacity="0.1" stroke="#000000" stroke-width="1" x1="934" y1="699" x2="934" y2="68"/>
<line opacity="0.1" stroke="#000000" stroke-width="1" x1="943" y1="699" x2="943" y2="68"/>
<line opacity="0.1" stroke="#000000" stroke-width="1" x1="952" y1="699" x2="952" y2="68"/>
<line opacity="0.1" stroke="#000000" stroke-width="1" x1="960" y1="699" x2="960" y2="68"/>
<line opacity="0.1" stroke="#000000" stroke-width="1" x1="969" y1="699" x2="969" y2="68"/>
<line opacity="0.1" stroke="#000000" stroke-width="1" x1="78" y1="699" x2="973" y2="699"/>
<line opacity="0.1" stroke="#000000" stroke-width="1" x1="78" y1="686" x2="973" y2="686"/>
<line opacity="0.1" stroke="#000000" stroke-width="1" x1="78" y1="674" x2="973" y2="674"/>
<line opacity="0.1" stroke="#000000" stroke-width="1" x1="78" y1="661" x2="973" y2="661"/>
<line opacity="0.1" stroke="#000000" stroke-width="1" x1="78" y1="649" x2="973" y2="649"/>
<line opacity="0.1" stroke="#000000" stroke-width="1" x1="78" y1="636" x2="973" y2="636"/>
<line opacity="0.1" stroke="#000000" stroke-width="1" x1="78" y1="624" x2="973" y2="624"/>
<line opacity="0.1" stroke="#000000" stroke-width="1" x1="78" y1="611" x2="973" y2="611"/>
<line opacity="0.1" stroke="#000000" stroke-width="1" x1="78" y1="599" x2="973" y2="599"/>
<line opacity="0.1" stroke="#000000" stroke-width="1" x1="78" y1="586" x2="973" y2="586"/>
<line opacity="0.1" stroke="#000000" stroke-width="1" x1="78" y1="574" x2="973" y2="574"/>
<line opacity="0.1" stroke="#000000" stroke-width="1" x1="78" y1="561" x2="973" y2="561"/>
<line opacity="0.1" stroke="#000000" stroke-width="1" x1="78" y1="549" x2="973" y2="549"/>
<line opacity="0.1" stroke="#000000" stroke-width="1" x1="78" y1="536" x2="973" y2="536"/>
<line opacity="0.1" stroke="#000000" stroke-width="1" x1="78" y1="524" x2="973" y2="524"/>
<line opacity="0.1" stroke="#000000" stroke-width="1" x1="78" y1="511" x2="973" y2="511"/>
<line opacity="0.1" stroke="#000000" stroke-width="1" x1="78" y1="499" x2="973" y2="499"/>
<line opacity="0.1" stroke="#000000" stroke-width="1" x1="78" y1="486" x2="973" y2="486"/>
<line opacity="0.1" stroke="#000000" stroke-width="1" x1="78" y1="474" x2="973" y2="474"/>
<line opacity="0.1" stroke="#000000" stroke-width="1" x1="78" y1="461" x2="973" y2="461"/>
<line opacity="0.1" stroke="#000000" stroke-width="1" x1="78" y1="449" x2="973" y2="449"/>
<line opacity="0.1" stroke="#000000" stroke-width="1" x1="78" y1="436" x2="973" y2="436"/>
<line opacity="0.1" stroke="#000000" stroke-width="1" x1="78" y1="424" x2="973" y2="424"/>
<line opacity="0.1" stroke="#000000" stroke-width="1" x1="78" y1="411" x2="973" y2="411"/>
<line opacity="0.1" stroke="#000000" stroke-width="1" x1="78" y1="399" x2="973" y2="399"/>
<line opacity="0.1" stroke="#000000" stroke-width="1" x1="78" y1="386" x2="973" y2="386"/>
<line opacity="0.1" stroke="#000000" stroke-width="1" x1="78" y1="374" x2="973" y2="374"/>
<line opacity="0.1" stroke="#000000" stroke-width="1" x1="78" y1="361" x2="973" y2="361"/>
<line opacity="0.1" stroke="#000000" stroke-width="1" x1="78" y1="349" x2="973" y2="349"/>
<line opacity="0.1" stroke="#000000" stroke-width="1" x1="78" y1="336" x2="973" y2="336"/>
<line opacity="0.1" stroke="#000000" stroke-width="1" x1="78" y1="324" x2="973" y2="324"/>
<line opacity="0.1" stroke="#000000" stroke-width="1" x1="78" y1="312" x2="973" y2="312"/>
<line opacity="0.1" stroke="#000000" stroke-width="1" x1="78" y1="299" x2="973" y2="299"/>
<line opacity="0.1" stroke="#000000" stroke-width="1" x1="78" y1="287" x2="973" y2="287"/>
<line opacity="0.1" stroke="#000000" stroke-width="1" x1="78" y1="274" x2="973" y2="274"/>
<line opacity="0.1" stroke="#000000" stroke-width="1" x1="78" y1="262" x2="973" y2="262"/>
<line opacity="0.1" stroke="#000000" stroke-width="1" x1="78" y1="249" x2="973" y2="249"/>
<line opacity="0.1" stroke="#000000" stroke-width="1" x1="78" y1="237" x2="973" y2="237"/>
<line opacity="0.1" stroke="#000000" stroke-width="1" x1="78" y1="224" x2="973" y2="224"/>
<line opacity="0.1" stroke="#000000" stroke-width="1" x1="78" y1="212" x2="973" y2="212"/>
<line opacity="0.1" stroke="#000000" stroke-width="1" x1="78" y1="199" x2="973" y2="199"/>
<line opacity="0.1" stroke="#000000" stroke-width="1" x1="78" y1="187" x2="973" y2="187"/>
<line opacity="0.1" stroke="#000000" stroke-width="1" x1="78" y1="174" x2="973" y2="174"/>
<line opacity="0.1" stroke="#000000" stroke-width="1" x1="78" y1="162" x2="973" y2="162"/>
<line opacity="0.1" stroke="#000000" stroke-width="1" x1="78" y1="149" x2="973" y2="149"/>
<line opacity="0.1" stroke="#000000" stroke-width="1" x1="78" y1="137" x2="973" y2="137"/>
<line opacity="0.1" stroke="#000000" stroke-width="1" x1="78" y1="124" x2="973" y2="124"/>
<line opacity="0.1" stroke="#000000" stroke-width="1" x1="78" y1="112" x2="973" y2="112"/>
<line opacity="0.1" stroke="#000000" stroke-width="1" x1="78" y1="99" x2="973" y2="99"/>
<line opacity="0.1" stroke="#000000" stroke-width="1" x1="78" y1="87" x2="973" y2="87"/>
<line opacity="0.1" stroke="#000000" stroke-width="1" x1="78" y1="74" x2="973" y2="74"/>
<text x="8" y="384" dy="0.76em" text-anchor="middle" font-family="sans-serif" font-size="9.67741935483871" opacity="1" fill="#000000" transform="rotate(270, 8, 384)">
Memory usage
</text>
<text x="526" y="760" dy="-0.5ex" text-anchor="middle" font-family="sans-serif" font-size="9.67741935483871" opacity="1" fill="#000000">
Time
</text>
<line opacity="0.2" stroke="#000000" stroke-width="1" x1="130" y1="699" x2="130" y2="68"/>
<line opacity="0.2" stroke="#000000" stroke-width="1" x1="306" y1="699" x2="306" y2="68"/>
<line opacity="0.2" stroke="#000000" stroke-width="1" x1="483" y1="699" x2="483" y2="68"/>
<line opacity="0.2" stroke="#000000" stroke-width="1" x1="660" y1="699" x2="660" y2="68"/>
<line opacity="0.2" stroke="#000000" stroke-width="1" x1="837" y1="699" x2="837" y2="68"/>
<line opacity="0.2" stroke="#000000" stroke-width="1" x1="78" y1="699" x2="973" y2="699"/>
<line opacity="0.2" stroke="#000000" stroke-width="1" x1="78" y1="574" x2="973" y2="574"/>
<line opacity="0.2" stroke="#000000" stroke-width="1" x1="78" y1="449" x2="973" y2="449"/>
<line opacity="0.2" stroke="#000000" stroke-width="1" x1="78" y1="324" x2="973" y2="324"/>
<line opacity="0.2" stroke="#000000" stroke-width="1" x1="78" y1="199" x2="973" y2="199"/>
<line opacity="0.2" stroke="#000000" stroke-width="1" x1="78" y1="74" x2="973" y2="74"/>
<polyline fill="none" opacity="1" stroke="#000000" stroke-width="1" points="77,68 77,699 "/>
<text x="68" y="699" dy="0.5ex" text-anchor="end" font-family="sans-serif" font-size="9.67741935483871" opacity="1" fill="#000000">
0.0 MB
</text>
<polyline fill="none" opacity="1" stroke="#000000" stroke-width="1" points="72,699 77,699 "/>
<text x="68" y="574" dy="0.5ex" text-anchor="end" font-family="sans-serif" font-size="9.67741935483871" opacity="1" fill="#000000">
4.8 MB
</text>
<polyline fill="none" opacity="1" stroke="#000000" stroke-width="1" points="72,574 77,574 "/>
<text x="68" y="449" dy="0.5ex" text-anchor="end" font-family="sans-serif" font-size="9.67741935483871" opacity="1" fill="#000000">
9.5 MB
</text>
<polyline fill="none" opacity="1" stroke="#000000" stroke-width="1" points="72,449 77,449 "/>
<text x="68" y="324" dy="0.5ex" text-anchor="end" font-family="sans-serif" font-size="9.67741935483871" opacity="1" fill="#000000">
14.3 MB
</text>
<polyline fill="none" opacity="1" stroke="#000000" stroke-width="1" points="72,324 77,324 "/>
<text x="68" y="199" dy="0.5ex" text-anchor="end" font-family="sans-serif" font-size="9.67741935483871" opacity="1" fill="#000000">
19.1 MB
</text>
<polyline fill="none" opacity="1" stroke="#000000" stroke-width="1" points="72,199 77,199 "/>
<text x="68" y="74" dy="0.5ex" text-anchor="end" font-family="sans-serif" font-size="9.67741935483871" opacity="1" fill="#000000">
23.8 MB
</text>
<polyline fill="none" opacity="1" stroke="#000000" stroke-width="1" points="72,74 77,74 "/>
<polyline fill="none" opacity="1" stroke="#000000" stroke-width="1" points="78,700 973,700 "/>
<text x="130" y="710" dy="0.76em" text-anchor="middle" font-family="sans-serif" font-size="9.67741935483871" opacity="1" fill="#000000">
07 17:46:40
</text>
<polyline fill="none" opacity="1" stroke="#000000" stroke-width="1" points="130,700 130,705 "/>
<text x="306" y="710" dy="0.76em" text-anchor="middle" font-family="sans-serif" font-size="9.67741935483871" opacity="1" fill="#000000">
07 20:33:20
</text>
<polyline fill="none" opacity="1" stroke="#000000" stroke-width="1" points="306,700 306,705 "/>
<text x="483" y="710" dy="0.76em" text-anchor="middle" font-family="sans-serif" font-size="9.67741935483871" opacity="1" fill="#000000">
07 23:20:00
</text>
<polyline fill="none" opacity="1" stroke="#000000" stroke-width="1" points="483,700 483,705 "/>
<text x="660" y="710" dy="0.76em" text-anchor="middle" font-family="sans-serif" font-size="9.67741935483871" opacity="1" fill="#000000">
08 02:06:40
</text>
<polyline fill="none" opacity="1" stroke="#000000" stroke-width="1" points="660,700 660,705 "/>
<text x="837" y="710" dy="0.76em" text-anchor="middle" font-family="sans-serif" font-size="9.67741935483871" opacity="1" fill="#000000">
08 04:53:20
</text>
<polyline fill="none" opacity="1" stroke="#000000" stroke-width="1" points="837,700 837,705 "/>
<polyline fill="none" opacity="1" stroke="#000000" stroke-width="1" points="78,67 974,67 "/>
<text x="130" y="58" dy="-0.5ex" text-anchor="middle" font-family="sans-serif" font-size="9.67741935483871" opacity="1" fill="#000000">
+00:49:04
</text>
<polyline fill="none" opacity="1" stroke="#000000" stroke-width="1" points="130,62 130,67 "/>
<text x="307" y="58" dy="-0.5ex" text-anchor="middle" font-family="sans-serif" font-size="9.67741935483871" opacity="1" fill="#000000">
+03:35:44
</text>
<polyline fill="none" opacity="1" stroke="#000000" stroke-width="1" points="307,62 307,67 "/>
<text x="484" y="58" dy="-0.5ex" text-anchor="middle" font-family="sans-serif" font-size="9.67741935483871" opacity="1" fill="#000000">
+06:22:24
</text>
<polyline fill="none" opacity="1" stroke="#000000" stroke-width="1" points="484,62 484,67 "/>
<text x="661" y="58" dy="-0.5ex" text-anchor="middle" font-family="sans-serif" font-size="9.67741935483871" opacity="1" fill="#000000">
+09:09:04
</text>
<polyline fill="none" opacity="1" stroke="#000000" stroke-width="1" points="661,62 661,67 "/>
<text x="838" y="58" dy="-0.5ex" text-anchor="middle" font-family="sans-serif" font-size="9.67741935483871" opacity="1" fill="#000000">
+11:55:44
</text>
<polyline fill="none" opacity="1" stroke="#000000" stroke-width="1" points="838,62 838,67 "/>
<rect x="83" y="73" width="99" height="45" opacity="0.75" fill="#FFFFFF" stroke="none"/>
<rect x="83" y="73" width="99" height="45" opacity="1" fill="none" stroke="#000000"/>
<text x="123" y="83" dy="0.76em" text-anchor="start" font-family="sans-serif" font-size="9.67741935483871" opacity="1" fill="#000000">
Temporary
</text>
<text x="123" y="98" dy="0.76em" text-anchor="start" font-family="sans-serif" font-size="9.67741935483871" opacity="1" fill="#000000">
Leaked
</text>
<rect x="93" y="83" width="10" height="10" opacity="1" fill="#3CB44B" stroke="none"/>
<rect x="93" y="98" width="10" height="10" opacity="1" fill="#E6194B" stroke="none"/>
</svg>
