<svg width="1024" height="768" viewBox="0 0 1024 768" xmlns="http://www.w3.org/2000/svg">
<rect x="0" y="0" width="1024" height="768" opacity="1" fill="#FFFFFF" stroke="none"/>
<polygon opacity="1" fill="#3CB44B" points="973,699 973,699 973,699 "/>
<polyline fill="none" opacity="1" stroke="#3CB44B" stroke-width="1" points="973,699 "/>
<polygon opacity="1" fill="#E6194B" points="78,698 78,697 79,697 80,696 81,695 82,695 83,694 84,693 85,693 86,692 87,691 87,691 88,690 89,689 90,689 91,688 92,687 93,687 94,686 95,686 95,685 96,685 97,684 98,684 99,683 100,682 101,682 102,681 103,681 104,680 104,679 105,679 106,678 107,677 108,677 109,677 110,676 111,675 112,674 112,674 113,673 114,673 115,672 116,671 117,671 118,670 119,670 120,669 120,669 121,668 122,667 123,667 124,666 125,665 126,665 127,664 128,664 129,663 129,662 130,662 131,661 132,660 133,660 134,659 135,659 136,658 137,657 137,657 138,656 139,655 140,655 141,654 142,653 143,653 144,652 145,651 146,651 146,650 147,650 148,649 149,649 150,648 151,647 152,647 153,646 154,646 154,645 155,645 156,644 157,643 158,643 159,642 160,642 161,641 162,640 162,640 163,639 164,638 165,638 166,637 167,636 168,636 169,635 170,634 171,634 171,633 172,632 173,632 174,631 175,630 176,630 177,629 178,629 179,628 179,628 180,627 181,626 182,626 183,625 184,624 185,624 186,623 187,623 188,622 188,621 189,621 190,620 191,620 192,619 193,618 194,617 195,617 196,616 196,616 197,615 198,615 199,614 200,613 201,613 202,612 203,612 204,611 204,610 205,610 206,609 207,608 208,608 209,607 210,607 211,606 212,605 213,605 213,604 214,604 215,603 216,603 217,602 218,601 219,601 220,600 221,600 221,599 222,599 223,598 224,598 225,597 226,596 227,596 228,595 229,595 230,594 230,594 231,593 232,593 233,592 234,591 235,591 236,590 237,590 238,589 238,588 239,587 240,587 241,586 242,586 243,585 244,584 245,584 246,583 246,583 247,582 248,581 249,581 250,580 251,580 252,579 253,579 254,578 255,577 255,577 256,576 257,575 258,574 259,574 260,573 261,572 262,572 263,571 263,570 264,570 265,569 266,569 267,568 268,567 269,566 270,566 271,565 272,565 272,564 273,563 274,563 275,562 276,562 277,561 278,561 279,560 280,559 280,559 281,558 282,558 283,557 284,556 285,556 286,555 287,555 288,554 288,553 289,553 290,552 291,551 292,551 293,550 294,550 295,549 296,548 297,548 297,547 298,547 299,546 300,545 301,545 302,544 303,543 304,543 305,542 305,542 306,541 307,540 308,540 309,539 310,538 311,538 312,537 313,536 314,536 314,535 315,534 316,534 317,533 318,533 319,532 320,531 321,530 322,530 322,529 323,529 324,528 325,528 326,527 327,526 328,526 329,525 330,525 330,524 331,523 332,523 333,522 334,521 335,521 336,520 337,519 338,519 339,518 339,517 340,517 341,516 342,515 343,515 344,514 345,513 346,513 347,512 347,512 348,511 349,510 350,510 351,509 352,509 353,508 354,508 355,507 356,506 356,506 357,505 358,504 359,503 360,503 361,502 362,501 363,501 364,500 364,500 365,499 366,498 367,498 368,497 369,497 370,496 371,495 372,495 372,494 373,494 374,493 375,492 376,491 377,491 378,490 379,489 380,489 381,488 381,488 382,487 383,486 384,485 385,485 386,484 387,483 388,482 389,482 389,481 390,481 391,480 392,480 393,479 394,478 395,478 396,477 397,476 398,475 398,475 399,474 400,474 401,473 402,472 403,472 404,471 405,470 406,470 406,469 407,468 408,468 409,467 410,466 411,465 412,465 413,464 414,464 414,463 415,462 416,462 417,461 418,460 419,460 420,459 421,458 422,458 423,457 423,457 424,456 425,455 426,454 427,454 428,453 429,452 430,452 431,451 431,451 432,450 433,449 434,449 435,448 436,447 437,447 438,446 439,446 440,445 440,444 441,444 442,443 443,443 444,442 445,441 446,440 447,440 448,439 448,438 449,438 450,437 451,437 452,436 453,436 454,435 455,434 456,434 456,433 457,432 458,432 459,431 460,431 461,430 462,429 463,429 464,428 465,427 465,427 466,426 467,425 468,425 469,424 470,423 471,423 472,422 473,422 473,421 474,420 475,420 476,419 477,418 478,418 479,417 480,416 481,416 482,415 482,415 483,414 484,413 485,413 486,412 487,412 488,411 489,410 490,410 490,409 491,409 492,408 493,407 494,407 495,406 496,406 497,405 498,404 498,403 499,403 500,402 501,402 502,401 503,400 504,400 505,399 506,398 507,398 507,397 508,396 509,396 510,395 511,395 512,394 513,393 514,392 515,392 515,391 516,390 517,390 518,389 519,389 520,388 521,388 522,387 523,386 524,386 524,385 525,384 526,384 527,383 528,382 529,382 530,381 531,380 532,380 532,379 533,379 534,378 535,377 536,377 537,376 538,375 539,375 540,374 540,373 541,373 542,372 543,372 544,371 545,370 546,369 547,369 548,368 549,368 549,367 550,366 551,365 552,365 553,364 554,364 555,363 556,363 557,362 557,361 558,361 559,360 560,359 561,359 562,358 563,358 564,357 565,357 566,356 566,355 567,355 568,354 569,353 570,353 571,352 572,351 573,351 574,350 574,350 575,349 576,349 577,348 578,347 579,347 580,346 581,346 582,345 582,344 583,344 584,343 585,342 586,342 587,341 588,341 589,340 590,339 591,339 591,338 592,337 593,337 594,336 595,336 596,335 597,334 598,334 599,333 599,333 600,332 601,331 602,331 603,330 604,329 605,329 606,328 607,328 608,327 608,326 609,326 610,325 611,324 612,323 613,323 614,322 615,321 616,321 616,320 617,319 618,319 619,318 620,317 621,316 622,316 623,315 624,315 624,314 625,313 626,313 627,312 628,312 629,311 630,310 631,310 632,309 633,309 633,308 634,307 635,306 636,306 637,305 638,304 639,304 640,303 641,302 641,302 642,301 643,301 644,300 645,300 646,299 647,298 648,298 649,297 650,296 650,296 651,295 652,294 653,294 654,293 655,292 656,292 657,291 658,290 658,289 659,289 660,288 661,288 662,287 663,287 664,286 665,285 666,285 666,284 667,284 668,283 669,282 670,282 671,281 672,280 673,280 674,279 675,279 675,278 676,278 677,277 678,276 679,276 680,275 681,274 682,274 683,273 683,272 684,271 685,271 686,270 687,270 688,269 689,269 690,268 691,267 692,267 692,266 693,265 694,265 695,264 696,263 697,263 698,262 699,261 700,261 700,260 701,260 702,259 703,258 704,258 705,257 706,257 707,256 708,255 708,255 709,254 710,253 711,253 712,252 713,251 714,251 715,250 716,250 717,249 717,249 718,248 719,248 720,247 721,246 722,246 723,245 724,244 725,244 725,243 726,242 727,242 728,241 729,240 730,240 731,239 732,239 733,238 734,238 734,237 735,236 736,235 737,235 738,234 739,233 740,233 741,232 742,232 742,231 743,230 744,230 745,229 746,229 747,228 748,227 749,226 750,226 750,225 751,224 752,224 753,223 754,222 755,222 756,221 757,221 758,220 759,219 759,219 760,218 761,217 762,217 763,217 764,216 765,215 766,214 767,214 767,213 768,213 769,212 770,211 771,210 772,210 773,209 774,209 775,208 776,207 776,207 777,206 778,205 779,205 780,204 781,204 782,203 783,202 784,202 784,201 785,200 786,200 787,199 788,199 789,198 790,197 791,197 792,196 792,195 793,194 794,194 795,193 796,193 797,192 798,191 799,191 800,190 801,189 801,189 802,188 803,187 804,187 805,186 806,185 807,185 808,184 809,184 809,183 810,182 811,182 812,181 813,180 814,179 815,178 816,178 817,177 818,177 818,176 819,175 820,175 821,174 822,173 823,172 824,172 825,171 826,170 826,169 827,169 828,168 829,167 830,167 831,166 832,165 833,165 834,164 834,164 835,163 836,162 837,162 838,161 839,161 840,160 841,159 842,159 843,158 843,157 844,157 845,156 846,156 847,155 848,155 849,154 850,154 851,153 851,152 852,152 853,151 854,151 855,150 856,149 857,149 858,148 859,148 860,147 860,146 861,145 862,145 863,144 864,143 865,143 866,142 867,142 868,141 868,140 869,140 870,139 871,139 872,138 873,137 874,136 875,136 876,135 876,135 877,134 878,133 879,133 880,132 881,132 882,131 883,130 884,129 885,129 885,128 886,127 887,127 888,126 889,125 890,125 891,124 892,123 893,122 893,122 894,121 895,121 896,120 897,120 898,119 899,118 900,118 901,117 902,117 902,116 903,115 904,114 905,114 906,113 907,113 908,112 909,111 910,110 910,110 911,109 912,109 913,108 914,108 915,107 916,106 917,106 918,105 918,104 919,104 920,103 921,103 922,102 923,102 924,101 925,100 926,99 927,99 927,98 928,97 929,97 930,96 931,96 932,95 933,94 934,94 935,93 935,92 936,92 937,91 938,90 939,90 940,89 941,88 942,88 943,87 944,87 944,86 945,85 946,85 947,84 948,84 949,83 950,82 951,82 952,81 952,80 953,80 954,79 955,78 956,78 957,77 958,76 959,76 960,75 960,75 961,74 962,73 963,73 964,72 965,71 966,71 967,70 968,70 969,69 969,68 970,68 971,68 971,68 973,68 973,699 78,699 "/>
<polyline fill="none" opacity="1" stroke="#E6194B" stroke-width="1" points="78,698 78,697 79,697 80,696 81,695 82,695 83,694 84,693 85,693 86,692 87,691 87,691 88,690 89,689 90,689 91,688 92,687 93,687 94,686 95,686 95,685 96,685 97,684 98,684 99,683 100,682 101,682 102,681 103,681 104,680 104,679 105,679 106,678 107,677 108,677 109,677 110,676 111,675 112,674 112,674 113,673 114,673 115,672 116,671 117,671 118,670 119,670 120,669 120,669 121,668 122,667 123,667 124,666 125,665 126,665 127,664 128,664 129,663 129,662 130,662 131,661 132,660 133,660 134,659 135,659 136,658 137,657 137,657 138,656 139,655 140,655 141,654 142,653 143,653 144,652 145,651 146,651 146,650 147,650 148,649 149,649 150,648 151,647 152,647 153,646 154,646 154,645 155,645 156,644 157,643 158,643 159,642 160,642 161,641 162,640 162,640 163,639 164,638 165,638 166,637 167,636 168,636 169,635 170,634 171,634 171,633 172,632 173,632 174,631 175,630 176,630 177,629 178,629 179,628 179,628 180,627 181,626 182,626 183,625 184,624 185,624 186,623 187,623 188,622 188,621 189,621 190,620 191,620 192,619 193,618 194,617 195,617 196,616 196,616 197,615 198,615 199,614 200,613 201,613 202,612 203,612 204,611 204,610 205,610 206,609 207,608 208,608 209,607 210,607 211,606 212,605 213,605 213,604 214,604 215,603 216,603 217,602 218,601 219,601 220,600 221,600 221,599 222,599 223,598 224,598 225,597 226,596 227,596 228,595 229,595 230,594 230,594 231,593 232,593 233,592 234,591 235,591 236,590 237,590 238,589 238,588 239,587 240,587 241,586 242,586 243,585 244,584 245,584 246,583 246,583 247,582 248,581 249,581 250,580 251,580 252,579 253,579 254,578 255,577 255,577 256,576 257,575 258,574 259,574 260,573 261,572 262,572 263,571 263,570 264,570 265,569 266,569 267,568 268,567 269,566 270,566 271,565 272,565 272,564 273,563 274,563 275,562 276,562 277,561 278,561 279,560 280,559 280,559 281,558 282,558 283,557 284,556 285,556 286,555 287,555 288,554 288,553 289,553 290,552 291,551 292,551 293,550 294,550 295,549 296,548 297,548 297,547 298,547 299,546 300,545 301,545 302,544 303,543 304,543 305,542 305,542 306,541 307,540 308,540 309,539 310,538 311,538 312,537 313,536 314,536 314,535 315,534 316,534 317,533 318,533 319,532 320,531 321,530 322,530 322,529 323,529 324,528 325,528 326,527 327,526 328,526 329,525 330,525 330,524 331,523 332,523 333,522 334,521 335,521 336,520 337,519 338,519 339,518 339,517 340,517 341,516 342,515 343,515 344,514 345,513 346,513 347,512 347,512 348,511 349,510 350,510 351,509 352,509 353,508 354,508 355,507 356,506 356,506 357,505 358,504 359,503 360,503 361,502 362,501 363,501 364,500 364,500 365,499 366,498 367,498 368,497 369,497 370,496 371,495 372,495 372,494 373,494 374,493 375,492 376,491 377,491 378,490 379,489 380,489 381,488 381,488 382,487 383,486 384,485 385,485 386,484 387,483 388,482 389,482 389,481 390,481 391,480 392,480 393,479 394,478 395,478 396,477 397,476 398,475 398,475 399,474 400,474 401,473 402,472 403,472 404,471 405,470 406,470 406,469 407,468 408,468 409,467 410,466 411,465 412,465 413,464 414,464 414,463 415,462 416,462 417,461 418,460 419,460 420,459 421,458 422,458 423,457 423,457 424,456 425,455 426,454 427,454 428,453 429,452 430,452 431,451 431,451 432,450 433,449 434,449 435,448 436,447 437,447 438,446 439,446 440,445 440,444 441,444 442,443 443,443 444,442 445,441 446,440 447,440 448,439 448,438 449,438 450,437 451,437 452,436 453,436 454,435 455,434 456,434 456,433 457,432 458,432 459,431 460,431 461,430 462,429 463,429 464,428 465,427 465,427 466,426 467,425 468,425 469,424 470,423 471,423 472,422 473,422 473,421 474,420 475,420 476,419 477,418 478,418 479,417 480,416 481,416 482,415 482,415 483,414 484,413 485,413 486,412 487,412 488,411 489,410 490,410 490,409 491,409 492,408 493,407 494,407 495,406 496,406 497,405 498,404 498,403 499,403 500,402 501,402 502,401 503,400 504,400 505,399 506,398 507,398 507,397 508,396 509,396 510,395 511,395 512,394 513,393 514,392 515,392 515,391 516,390 517,390 518,389 519,389 520,388 521,388 522,387 523,386 524,386 524,385 525,384 526,384 527,383 528,382 529,382 530,381 531,380 532,380 532,379 533,379 534,378 535,377 536,377 537,376 538,375 539,375 540,374 540,373 541,373 542,372 543,372 544,371 545,370 546,369 547,369 548,368 549,368 549,367 550,366 551,365 552,365 553,364 554,364 555,363 556,363 557,362 557,361 558,361 559,360 560,359 561,359 562,358 563,358 564,357 565,357 566,356 566,355 567,355 568,354 569,353 570,353 571,352 572,351 573,351 574,350 574,350 575,349 576,349 577,348 578,347 579,347 580,346 581,346 582,345 582,344 583,344 584,343 585,342 586,342 587,341 588,341 589,340 590,339 591,339 591,338 592,337 593,337 594,336 595,336 596,335 597,334 598,334 599,333 599,333 600,332 601,331 602,331 603,330 604,329 605,329 606,328 607,328 608,327 608,326 609,326 610,325 611,324 612,323 613,323 614,322 615,321 616,321 616,320 617,319 618,319 619,318 620,317 621,316 622,316 623,315 624,315 624,314 625,313 626,313 627,312 628,312 629,311 630,310 631,310 632,309 633,309 633,308 634,307 635,306 636,306 637,305 638,304 639,304 640,303 641,302 641,302 642,301 643,301 644,300 645,300 646,299 647,298 648,298 649,297 650,296 650,296 651,295 652,294 653,294 654,293 655,292 656,292 657,291 658,290 658,289 659,289 660,288 661,288 662,287 663,287 664,286 665,285 666,285 666,284 667,284 668,283 669,282 670,282 671,281 672,280 673,280 674,279 675,279 675,278 676,278 677,277 678,276 679,276 680,275 681,274 682,274 683,273 683,272 684,271 685,271 686,270 687,270 688,269 689,269 690,268 691,267 692,267 692,266 693,265 694,265 695,264 696,263 697,263 698,262 699,261 700,261 700,260 701,260 702,259 703,258 704,258 705,257 706,257 707,256 708,255 708,255 709,254 710,253 711,253 712,252 713,251 714,251 715,250 716,250 717,249 717,249 718,248 719,248 720,247 721,246 722,246 723,245 724,244 725,244 725,243 726,242 727,242 728,241 729,240 730,240 731,239 732,239 733,238 734,238 734,237 735,236 736,235 737,235 738,234 739,233 740,233 741,232 742,232 742,231 743,230 744,230 745,229 746,229 747,228 748,227 749,226 750,226 750,225 751,224 752,224 753,223 754,222 755,222 756,221 757,221 758,220 759,219 759,219 760,218 761,217 762,217 763,217 764,216 765,215 766,214 767,214 767,213 768,213 769,212 770,211 771,210 772,210 773,209 774,209 775,208 776,207 776,207 777,206 778,205 779,205 780,204 781,204 782,203 783,202 784,202 784,201 785,200 786,200 787,199 788,199 789,198 790,197 791,197 792,196 792,195 793,194 794,194 795,193 796,193 797,192 798,191 799,191 800,190 801,189 801,189 802,188 803,187 804,187 805,186 806,185 807,185 808,184 809,184 809,183 810,182 811,182 812,181 813,180 814,179 815,178 816,178 817,177 818,177 818,176 819,175 820,175 821,174 822,173 823,172 824,172 825,171 826,170 826,169 827,169 828,168 829,167 830,167 831,166 832,165 833,165 834,164 834,164 835,163 836,162 837,162 838,161 839,161 840,160 841,159 842,159 843,158 843,157 844,157 845,156 846,156 847,155 848,155 849,154 850,154 851,153 851,152 852,152 853,151 854,151 855,150 856,149 857,149 858,148 859,148 860,147 860,146 861,145 862,145 863,144 864,143 865,143 866,142 867,142 868,141 868,140 869,140 870,139 871,139 872,138 873,137 874,136 875,136 876,135 876,135 877,134 878,133 879,133 880,132 881,132 882,131 883,130 884,129 885,129 885,128 886,127 887,127 888,126 889,125 890,125 891,124 892,123 893,122 893,122 894,121 895,121 896,120 897,120 898,119 899,118 900,118 901,117 902,117 902,116 903,115 904,114 905,114 906,113 907,113 908,112 909,111 910,110 910,110 911,109 912,109 913,108 914,108 915,107 916,106 917,106 918,105 918,104 919,104 920,103 921,103 922,102 923,102 924,101 925,100 926,99 927,99 927,98 928,97 929,97 930,96 931,96 932,95 933,94 934,94 935,93 935,92 936,92 937,91 938,90 939,90 940,89 941,88 942,88 943,87 944,87 944,86 945,85 946,85 947,84 948,84 949,83 950,82 951,82 952,81 952,80 953,80 954,79 955,78 956,78 957,77 958,76 959,76 960,75 960,75 961,74 962,73 963,73 964,72 965,71 966,71 967,70 968,70 969,69 969,68 970,68 971,68 971,68 973,68 "/>
<line opacity="0.1" stroke="#000000" stroke-width="1" x1="85" y1="699" x2="85" y2="68"/>
<line opacity="0.1" stroke="#000000" stroke-width="1" x1="94" y1="699" x2="94" y2="68"/>
<line opacity="0.1" stroke="#000000" stroke-width="1" x1="103" y1="699" x2="103" y2="68"/>
<line opacity="0.1" stroke="#000000" stroke-width="1" x1="112" y1="699" x2="112" y2="68"/>
<line opacity="0.1" stroke="#000000" stroke-width="1" x1="121" y1="699" x2="121" y2="68"/>
<line opacity="0.1" stroke="#000000" stroke-width="1" x1="130" y1="699" x2="130" y2="68"/>
<line opacity="0.1" stroke="#000000" stroke-width="1" x1="138" y1="699" x2="138" y2="68"/>
<line opacity="0.1" stroke="#000000" stroke-width="1" x1="147" y1="699" x2="147" y2="68"/>
<line opacity="0.1" stroke="#000000" stroke-width="1" x1="156" y1="699" x2="156" y2="68"/>
<line opacity="0.1" stroke="#000000" stroke-width="1" x1="165" y1="699" x2="165" y2="68"/>
<line opacity="0.1" stroke="#000000" stroke-width="1" x1="174" y1="699" x2="174" y2="68"/>
<line opacity="0.1" stroke="#000000" stroke-width="1" x1="183" y1="699" x2="183" y2="68"/>
<line opacity="0.1" stroke="#000000" stroke-width="1" x1="191" y1="699" x2="191" y2="68"/>
<line opacity="0.1" stroke="#000000" stroke-width="1" x1="200" y1="699" x2="200" y2="68"/>
<line opacity="0.1" stroke="#000000" stroke-width="1" x1="209" y1="699" x2="209" y2="68"/>
<line opacity="0.1" stroke="#000000" stroke-width="1" x1="218" y1="699" x2="218" y2="68"/>
<line opacity="0.1" stroke="#000000" stroke-width="1" x1="227" y1="699" x2="227" y2="68"/>
<line opacity="0.1" stroke="#000000" stroke-width="1" x1="236" y1="699" x2="236" y2="68"/>
<line opacity="0.1" stroke="#000000" stroke-width="1" x1="244" y1="699" x2="244" y2="68"/>
<line opacity="0.1" stroke="#000000" stroke-width="1" x1="253" y1="699" x2="253" y2="68"/>
<line opacity="0.1" stroke="#000000" stroke-width="1" x1="262" y1="699" x2="262" y2="68"/>
<line opacity="0.1" stroke="#000000" stroke-width="1" x1="271" y1="699" x2="271" y2="68"/>
<line opacity="0.1" stroke="#000000" stroke-width="1" x1="280" y1="699" x2="280" y2="68"/>
<line opacity="0.1" stroke="#000000" stroke-width="1" x1="289" y1="699" x2="289" y2="68"/>
<line opacity="0.1" stroke="#000000" stroke-width="1" x1="298" y1="699" x2="298" y2="68"/>
<line opacity="0.1" stroke="#000000" stroke-width="1" x1="306" y1="699" x2="306" y2="68"/>
<line opacity="0.1" stroke="#000000" stroke-width="1" x1="315" y1="699" x2="315" y2="68"/>
<line opacity="0.1" stroke="#000000" stroke-width="1" x1="324" y1="699" x2="324" y2="68"/>
<line opacity="0.1" stroke="#000000" stroke-width="1" x1="333" y1="699" x2="333" y2="68"/>
<line opacity="0.1" stroke="#000000" stroke-width="1" x1="342" y1="699" x2="342" y2="68"/>
<line opacity="0.1" stroke="#000000" stroke-width="1" x1="351" y1="699" x2="351" y2="68"/>
<line opacity="0.1" stroke="#000000" stroke-width="1" x1="359" y1="699" x2="359" y2="68"/>
<line opacity="0.1" stroke="#000000" stroke-width="1" x1="368" y1="699" x2="368" y2="68"/>
<line opacity="0.1" stroke="#000000" stroke-width="1" x1="377" y1="699" x2="377" y2="68"/>
<line opacity="0.1" stroke="#000000" stroke-width="1" x1="386" y1="699" x2="386" y2="68"/>
<line opacity="0.1" stroke="#000000" stroke-width="1" x1="395" y1="699" x2="395" y2="68"/>
<line opacity="0.1" stroke="#000000" stroke-width="1" x1="404" y1="699" x2="404" y2="68"/>
<line opacity="0.1" stroke="#000000" stroke-width="1" x1="412" y1="699" x2="412" y2="68"/>
<line opacity="0.1" stroke="#000000" stroke-width="1" x1="421" y1="699" x2="421" y2="68"/>
<line opacity="0.1" stroke="#000000" stroke-width="1" x1="430" y1="699" x2="430" y2="68"/>
<line opacity="0.1" stroke="#000000" stroke-width="1" x1="439" y1="699" x2="439" y2="68"/>
<line opacity="0.1" stroke="#000000" stroke-width="1" x1="448" y1="699" x2="448" y2="68"/>
<line opacity="0.1" stroke="#000000" stroke-width="1" x1="457" y1="699" x2="457" y2="68"/>
<line opacity="0.1" stroke="#000000" stroke-width="1" x1="465" y1="699" x2="465" y2="68"/>
<line opacity="0.1" stroke="#000000" stroke-width="1" x1="474" y1="699" x2="474" y2="68"/>
<line opacity="0.1" stroke="#000000" stroke-width="1" x1="483" y1="699" x2="483" y2="68"/>
<line opacity="0.1" stroke="#000000" stroke-width="1" x1="492" y1="699" x2="492" y2="68"/>
<line opacity="0.1" stroke="#000000" stroke-width="1" x1="501" y1="699" x2="501" y2="68"/>
<line opacity="0.1" stroke="#000000" stroke-width="1" x1="510" y1="699" x2="510" y2="68"/>
<line opacity="0.1" stroke="#000000" stroke-width="1" x1="518" y1="699" x2="518" y2="68"/>
<line opacity="0.1" stroke="#000000" stroke-width="1" x1="527" y1="699" x2="527" y2="68"/>
<line opacity="0.1" stroke="#000000" stroke-width="1" x1="536" y1="699" x2="536" y2="68"/>
<line opacity="0.1" stroke="#000000" stroke-width="1" x1="545" y1="699" x2="545" y2="68"/>
<line opacity="0.1" stroke="#000000" stroke-width="1" x1="554" y1="699" x2="554" y2="68"/>
<line opacity="0.1" stroke="#000000" stroke-width="1" x1="563" y1="699" x2="563" y2="68"/>
<line opacity="0.1" stroke="#000000" stroke-width="1" x1="572" y1="699" x2="572" y2="68"/>
<line opacity="0.1" stroke="#000000" stroke-width="1" x1="580" y1="699" x2="580" y2="68"/>
<line opacity="0.1" stroke="#000000" stroke-width="1" x1="589" y1="699" x2="589" y2="68"/>
<line opacity="0.1" stroke="#000000" stroke-width="1" x1="598" y1="699" x2="598" y2="68"/>
<line opacity="0.1" stroke="#000000" stroke-width="1" x1="607" y1="699" x2="607" y2="68"/>
<line opacity="0.1" stroke="#000000" stroke-width="1" x1="616" y1="699" x2="616" y2="68"/>
<line opacity="0.1" stroke="#000000" stroke-width="1" x1="625" y1="699" x2="625" y2="68"/>
<line opacity="0.1" stroke="#000000" stroke-width="1" x1="633" y1="699" x2="633" y2="68"/>
<line opacity="0.1" stroke="#000000" stroke-width="1" x1="642" y1="699" x2="642" y2="68"/>
<line opacity="0.1" stroke="#000000" stroke-width="1" x1="651" y1="699" x2="651" y2="68"/>
<line opacity="0.1" stroke="#000000" stroke-width="1" x1="660" y1="699" x2="660" y2="68"/>
<line opacity="0.1" stroke="#000000" stroke-width="1" x1="669" y1="699" x2="669" y2="68"/>
<line opacity="0.1" stroke="#000000" stroke-width="1" x1="678" y1="699" x2="678" y2="68"/>
<line opacity="0.1" stroke="#000000" stroke-width="1" x1="686" y1="699" x2="686" y2="68"/>
<line opacity="0.1" stroke="#000000" stroke-width="1" x1="695" y1="699" x2="695" y2="68"/>
<line opacity="0.1" stroke="#000000" stroke-width="1" x1="704" y1="699" x2="704" y2="68"/>
<line opacity="0.1" stroke="#000000" stroke-width="1" x1="713" y1="699" x2="713" y2="68"/>
<line opacity="0.1" stroke="#000000" stroke-width="1" x1="722" y1="699" x2="722" y2="68"/>
<line opacity="0.1" stroke="#000000" stroke-width="1" x1="731" y1="699" x2="731" y2="68"/>
<line opacity="0.1" stroke="#000000" stroke-width="1" x1="739" y1="699" x2="739" y2="68"/>
<line opacity="0.1" stroke="#000000" stroke-width="1" x1="748" y1="699" x2="748" y2="68"/>
<line opacity="0.1" stroke="#000000" stroke-width="1" x1="757" y1="699" x2="757" y2="68"/>
<line opacity="0.1" stroke="#000000" stroke-width="1" x1="766" y1="699" x2="766" y2="68"/>
<line opacity="0.1" stroke="#000000" stroke-width="1" x1="775" y1="699" x2="775" y2="68"/>
<line opacity="0.1" stroke="#000000" stroke-width="1" x1="784" y1="699" x2="784" y2="68"/>
<line opacity="0.1" stroke="#000000" stroke-width="1" x1="792" y1="699" x2="792" y2="68"/>
<line opacity="0.1" stroke="#000000" stroke-width="1" x1="801" y1="699" x2="801" y2="68"/>
<line opacity="0.1" stroke="#000000" stroke-width="1" x1="810" y1="699" x2="810" y2="68"/>
<line opacity="0.1" stroke="#000000" stroke-width="1" x1="819" y1="699" x2="819" y2="68"/>
<line opacity="0.1" stroke="#000000" stroke-width="1" x1="828" y1="699" x2="828" y2="68"/>
<line opacity="0.1" stroke="#000000" stroke-width="1" x1="837" y1="699" x2="837" y2="68"/>
<line opacity="0.1" stroke="#000000" stroke-width="1" x1="846" y1="699" x2="846" y2="68"/>
<line opacity="0.1" stroke="#000000" stroke-width="1" x1="854" y1="699" x2="854" y2="68"/>
<line opacity="0.1" stroke="#000000" stroke-width="1" x1="863" y1="699" x2="863" y2="68"/>
<line opacity="0.1" stroke="#000000" stroke-width="1" x1="872" y1="699" x2="872" y2="68"/>
<line opacity="0.1" stroke="#000000" stroke-width="1" x1="881" y1="699" x2="881" y2="68"/>
<line opacity="0.1" stroke="#000000" stroke-width="1" x1="890" y1="699" x2="890" y2="68"/>
<line opacity="0.1" stroke="#000000" stroke-width="1" x1="899" y1="699" x2="899" y2="68"/>
<line opacity="0.1" stroke="#000000" stroke-width="1" x1="907" y1="699" x2="907" y2="68"/>
<line opacity="0.1" stroke="#000000" stroke-width="1" x1="916" y1="699" x2="916" y2="68"/>
<line opacity="0.1" stroke="#000000" stroke-width="1" x1="925" y1="699" x2="925" y2="68"/>
<line opacity="0.1" stroke="#000000" stroke-width="1" x1="934" y1="699" x2="934" y2="68"/>
<line opacity="0.1" stroke="#000000" stroke-width="1" x1="943" y1="699" x2="943" y2="68"/>
<line opacity="0.1" stroke="#000000" stroke-width="1" x1="952" y1="699" x2="952" y2="68"/>
<line opacity="0.1" stroke="#000000" stroke-width="1" x1="960" y1="699" x2="960" y2="68"/>
<line opacity="0.1" stroke="#000000" stroke-width="1" x1="969" y1="699" x2="969" y2="68"/>
<line opacity="0.1" stroke="#000000" stroke-width="1" x1="78" y1="699" x2="973" y2="699"/>
<line opacity="0.1" stroke="#000000" stroke-width="1" x1="78" y1="691" x2="973" y2="691"/>
<line opacity="0.1" stroke="#000000" stroke-width="1" x1="78" y1="683" x2="973" y2="683"/>
<line opacity="0.1" stroke="#000000" stroke-width="1" x1="78" y1="675" x2="973" y2="675"/>
<line opacity="0.1" stroke="#000000" stroke-width="1" x1="78" y1="667" x2="973" y2="667"/>
<line opacity="0.1" stroke="#000000" stroke-width="1" x1="78" y1="659" x2="973" y2="659"/>
<line opacity="0.1" stroke="#000000" stroke-width="1" x1="78" y1="651" x2="973" y2="651"/>
<line opacity="0.1" stroke="#000000" stroke-width="1" x1="78" y1="643" x2="973" y2="643"/>
<line opacity="0.1" stroke="#000000" stroke-width="1" x1="78" y1="635" x2="973" y2="635"/>
<line opacity="0.1" stroke="#000000" stroke-width="1" x1="78" y1="627" x2="973" y2="627"/>
<line opacity="0.1" stroke="#000000" stroke-width="1" x1="78" y1="619" x2="973" y2="619"/>
<line opacity="0.1" stroke="#000000" stroke-width="1" x1="78" y1="611" x2="973" y2="611"/>
<line opacity="0.1" stroke="#000000" stroke-width="1" x1="78" y1="603" x2="973" y2="603"/>
<line opacity="0.1" stroke="#000000" stroke-width="1" x1="78" y1="596" x2="973" y2="596"/>
<line opacity="0.1" stroke="#000000" stroke-width="1" x1="78" y1="588" x2="973" y2="588"/>
<line opacity="0.1" stroke="#000000" stroke-width="1" x1="78" y1="580" x2="973" y2="580"/>
<line opacity="0.1" stroke="#000000" stroke-width="1" x1="78" y1="572" x2="973" y2="572"/>
<line opacity="0.1" stroke="#000000" stroke-width="1" x1="78" y1="564" x2="973" y2="564"/>
<line opacity="0.1" stroke="#000000" stroke-width="1" x1="78" y1="556" x2="973" y2="556"/>
<line opacity="0.1" stroke="#000000" stroke-width="1" x1="78" y1="548" x2="973" y2="548"/>
<line opacity="0.1" stroke="#000000" stroke-width="1" x1="78" y1="540" x2="973" y2="540"/>
<line opacity="0.1" stroke="#000000" stroke-width="1" x1="78" y1="532" x2="973" y2="532"/>
<line opacity="0.1" stroke="#000000" stroke-width="1" x1="78" y1="524" x2="973" y2="524"/>
<line opacity="0.1" stroke="#000000" stroke-width="1" x1="78" y1="516" x2="973" y2="516"/>
<line opacity="0.1" stroke="#000000" stroke-width="1" x1="78" y1="508" x2="973" y2="508"/>
<line opacity="0.1" stroke="#000000" stroke-width="1" x1="78" y1="500" x2="973" y2="500"/>
<line opacity="0.1" stroke="#000000" stroke-width="1" x1="78" y1="493" x2="973" y2="493"/>
<line opacity="0.1" stroke="#000000" stroke-width="1" x1="78" y1="485" x2="973" y2="485"/>
<line opacity="0.1" stroke="#000000" stroke-width="1" x1="78" y1="477" x2="973" y2="477"/>
<line opacity="0.1" stroke="#000000" stroke-width="1" x1="78" y1="469" x2="973" y2="469"/>
<line opacity="0.1" stroke="#000000" stroke-width="1" x1="78" y1="461" x2="973" y2="461"/>
<line opacity="0.1" stroke="#000000" stroke-width="1" x1="78" y1="453" x2="973" y2="453"/>
<line opacity="0.1" stroke="#000000" stroke-width="1" x1="78" y1="445" x2="973" y2="445"/>
<line opacity="0.1" stroke="#000000" stroke-width="1" x1="78" y1="437" x2="973" y2="437"/>
<line opacity="0.1" stroke="#000000" stroke-width="1" x1="78" y1="429" x2="973" y2="429"/>
<line opacity="0.1" stroke="#000000" stroke-width="1" x1="78" y1="421" x2="973" y2="421"/>
<line opacity="0.1" stroke="#000000" stroke-width="1" x1="78" y1="413" x2="973" y2="413"/>
<line opacity="0.1" stroke="#000000" stroke-width="1" x1="78" y1="405" x2="973" y2="405"/>
<line opacity="0.1" stroke="#000000" stroke-width="1" x1="78" y1="397" x2="973" y2="397"/>
<line opacity="0.1" stroke="#000000" stroke-width="1" x1="78" y1="390" x2="973" y2="390"/>
<line opacity="0.1" stroke="#000000" stroke-width="1" x1="78" y1="382" x2="973" y2="382"/>
<line opacity="0.1" stroke="#000000" stroke-width="1" x1="78" y1="374" x2="973" y2="374"/>
<line opacity="0.1" stroke="#000000" stroke-width="1" x1="78" y1="366" x2="973" y2="366"/>
<line opacity="0.1" stroke="#000000" stroke-width="1" x1="78" y1="358" x2="973" y2="358"/>
<line opacity="0.1" stroke="#000000" stroke-width="1" x1="78" y1="350" x2="973" y2="350"/>
<line opacity="0.1" stroke="#000000" stroke-width="1" x1="78" y1="342" x2="973" y2="342"/>
<line opacity="0.1" stroke="#000000" stroke-width="1" x1="78" y1="334" x2="973" y2="334"/>
<line opacity="0.1" stroke="#000000" stroke-width="1" x1="78" y1="326" x2="973" y2="326"/>
<line opacity="0.1" stroke="#000000" stroke-width="1" x1="78" y1="318" x2="973" y2="318"/>
<line opacity="0.1" stroke="#000000" stroke-width="1" x1="78" y1="310" x2="973" y2="310"/>
<line opacity="0.1" stroke="#000000" stroke-width="1" x1="78" y1="302" x2="973" y2="302"/>
<line opacity="0.1" stroke="#000000" stroke-width="1" x1="78" y1="294" x2="973" y2="294"/>
<line opacity="0.1" stroke="#000000" stroke-width="1" x1="78" y1="287" x2="973" y2="287"/>
<line opacity="0.1" stroke="#000000" stroke-width="1" x1="78" y1="279" x2="973" y2="279"/>
<line opacity="0.1" stroke="#000000" stroke-width="1" x1="78" y1="271" x2="973" y2="271"/>
<line opacity="0.1" stroke="#000000" stroke-width="1" x1="78" y1="263" x2="973" y2="263"/>
<line opacity="0.1" stroke="#000000" stroke-width="1" x1="78" y1="255" x2="973" y2="255"/>
<line opacity="0.1" stroke="#000000" stroke-width="1" x1="78" y1="247" x2="973" y2="247"/>
<line opacity="0.1" stroke="#000000" stroke-width="1" x1="78" y1="239" x2="973" y2="239"/>
<line opacity="0.1" stroke="#000000" stroke-width="1" x1="78" y1="231" x2="973" y2="231"/>
<line opacity="0.1" stroke="#000000" stroke-width="1" x1="78" y1="223" x2="973" y2="223"/>
<line opacity="0.1" stroke="#000000" stroke-width="1" x1="78" y1="215" x2="973" y2="215"/>
<line opacity="0.1" stroke="#000000" stroke-width="1" x1="78" y1="207" x2="973" y2="207"/>
<line opacity="0.1" stroke="#000000" stroke-width="1" x1="78" y1="199" x2="973" y2="199"/>
<line opacity="0.1" stroke="#000000" stroke-width="1" x1="78" y1="191" x2="973" y2="191"/>
<line opacity="0.1" stroke="#000000" stroke-width="1" x1="78" y1="184" x2="973" y2="184"/>
<line opacity="0.1" stroke="#000000" stroke-width="1" x1="78" y1="176" x2="973" y2="176"/>
<line opacity="0.1" stroke="#000000" stroke-width="1" x1="78" y1="168" x2="973" y2="168"/>
<line opacity="0.1" stroke="#000000" stroke-width="1" x1="78" y1="160" x2="973" y2="160"/>
<line opacity="0.1" stroke="#000000" stroke-width="1" x1="78" y1="152" x2="973" y2="152"/>
<line opacity="0.1" stroke="#000000" stroke-width="1" x1="78" y1="144" x2="973" y2="144"/>
<line opacity="0.1" stroke="#000000" stroke-width="1" x1="78" y1="136" x2="973" y2="136"/>
<line opacity="0.1" stroke="#000000" stroke-width="1" x1="78" y1="128" x2="973" y2="128"/>
<line opacity="0.1" stroke="#000000" stroke-width="1" x1="78" y1="120" x2="973" y2="120"/>
<line opacity="0.1" stroke="#000000" stroke-width="1" x1="78" y1="112" x2="973" y2="112"/>
<line opacity="0.1" stroke="#000000" stroke-width="1" x1="78" y1="104" x2="973" y2="104"/>
<line opacity="0.1" stroke="#000000" stroke-width="1" x1="78" y1="96" x2="973" y2="96"/>
<line opacity="0.1" stroke="#000000" stroke-width="1" x1="78" y1="88" x2="973" y2="88"/>
<line opacity="0.1" stroke="#000000" stroke-width="1" x1="78" y1="81" x2="973" y2="81"/>
<line opacity="0.1" stroke="#000000" stroke-width="1" x1="78" y1="73" x2="973" y2="73"/>
<text x="8" y="384" dy="0.76em" text-anchor="middle" font-family="sans-serif" font-size="9.67741935483871" opacity="1" fill="#000000" transform="rotate(270, 8, 384)">
Memory usage
</text>
<text x="526" y="760" dy="-0.5ex" text-anchor="middle" font-family="sans-serif" font-size="9.67741935483871" opacity="1" fill="#000000">
Time
</text>
<line opacity="0.2" stroke="#000000" stroke-width="1" x1="130" y1="699" x2="130" y2="68"/>
<line opacity="0.2" stroke="#000000" stroke-width="1" x1="306" y1="699" x2="306" y2="68"/>
<line opacity="0.2" stroke="#000000" stroke-width="1" x1="483" y1="699" x2="483" y2="68"/>
<line opacity="0.2" stroke="#000000" stroke-width="1" x1="660" y1="699" x2="660" y2="68"/>
<line opacity="0.2" stroke="#000000" stroke-width="1" x1="837" y1="699" x2="837" y2="68"/>
<line opacity="0.2" stroke="#000000" stroke-width="1" x1="78" y1="699" x2="973" y2="699"/>
<line opacity="0.2" stroke="#000000" stroke-width="1" x1="78" y1="619" x2="973" y2="619"/>
<line opacity="0.2" stroke="#000000" stroke-width="1" x1="78" y1="540" x2="973" y2="540"/>
<line opacity="0.2" stroke="#000000" stroke-width="1" x1="78" y1="461" x2="973" y2="461"/>
<line opacity="0.2" stroke="#000000" stroke-width="1" x1="78" y1="382" x2="973" y2="382"/>
<line opacity="0.2" stroke="#000000" stroke-width="1" x1="78" y1="302" x2="973" y2="302"/>
<line opacity="0.2" stroke="#000000" stroke-width="1" x1="78" y1="223" x2="973" y2="223"/>
<line opacity="0.2" stroke="#000000" stroke-width="1" x1="78" y1="144" x2="973" y2="144"/>
<polyline fill="none" opacity="1" stroke="#000000" stroke-width="1" points="77,68 77,699 "/>
<text x="68" y="699" dy="0.5ex" text-anchor="end" font-family="sans-serif" font-size="9.67741935483871" opacity="1" fill="#000000">
0.0 MB
</text>
<polyline fill="none" opacity="1" stroke="#000000" stroke-width="1" points="72,699 77,699 "/>
<text x="68" y="619" dy="0.5ex" text-anchor="end" font-family="sans-serif" font-size="9.67741935483871" opacity="1" fill="#000000">
9.5 MB
</text>
<polyline fill="none" opacity="1" stroke="#000000" stroke-width="1" points="72,619 77,619 "/>
<text x="68" y="540" dy="0.5ex" text-anchor="end" font-family="sans-serif" font-size="9.67741935483871" opacity="1" fill="#000000">
19.1 MB
</text>
<polyline fill="none" opacity="1" stroke="#000000" stroke-width="1" points="72,540 77,540 "/>
<text x="68" y="461" dy="0.5ex" text-anchor="end" font-family="sans-serif" font-size="9.67741935483871" opacity="1" fill="#000000">
28.6 MB
</text>
<polyline fill="none" opacity="1" stroke="#000000" stroke-width="1" points="72,461 77,461 "/>
<text x="68" y="382" dy="0.5ex" text-anchor="end" font-family="sans-serif" font-size="9.67741935483871" opacity="1" fill="#000000">
38.1 MB
</text>
<polyline fill="none" opacity="1" stroke="#000000" stroke-width="1" points="72,382 77,382 "/>
<text x="68" y="302" dy="0.5ex" text-anchor="end" font-family="sans-serif" font-size="9.67741935483871" opacity="1" fill="#000000">
47.7 MB
</text>
<polyline fill="none" opacity="1" stroke="#000000" stroke-width="1" points="72,302 77,302 "/>
<text x="68" y="223" dy="0.5ex" text-anchor="end" font-family="sans-serif" font-size="9.67741935483871" opacity="1" fill="#000000">
57.2 MB
</text>
<polyline fill="none" opacity="1" stroke="#000000" stroke-width="1" points="72,223 77,223 "/>
<text x="68" y="144" dy="0.5ex" text-anchor="end" font-family="sans-serif" font-size="9.67741935483871" opacity="1" fill="#000000">
66.8 MB
</text>
<polyline fill="none" opacity="1" stroke="#000000" stroke-width="1" points="72,144 77,144 "/>
<polyline fill="none" opacity="1" stroke="#000000" stroke-width="1" points="78,700 973,700 "/>
<text x="130" y="710" dy="0.76em" text-anchor="middle" font-family="sans-serif" font-size="9.67741935483871" opacity="1" fill="#000000">
07 17:46:40
</text>
<polyline fill="none" opacity="1" stroke="#000000" stroke-width="1" points="130,700 130,705 "/>
<text x="306" y="710" dy="0.76em" text-anchor="middle" font-family="sans-serif" font-size="9.67741935483871" opacity="1" fill="#000000">
07 20:33:20
</text>
<polyline fill="none" opacity="1" stroke="#000000" stroke-width="1" points="306,700 306,705 "/>
<text x="483" y="710" dy="0.76em" text-anchor="middle" font-family="sans-serif" font-size="9.67741935483871" opacity="1" fill="#000000">
07 23:20:00
</text>
<polyline fill="none" opacity="1" stroke="#000000" stroke-width="1" points="483,700 483,705 "/>
<text x="660" y="710" dy="0.76em" text-anchor="middle" font-family="sans-serif" font-size="9.67741935483871" opacity="1" fill="#000000">
08 02:06:40
</text>
<polyline fill="none" opacity="1" stroke="#000000" stroke-width="1" points="660,700 660,705 "/>
<text x="837" y="710" dy="0.76em" text-anchor="middle" font-family="sans-serif" font-size="9.67741935483871" opacity="1" fill="#000000">
08 04:53:20
</text>
<polyline fill="none" opacity="1" stroke="#000000" stroke-width="1" points="837,700 837,705 "/>
<polyline fill="none" opacity="1" stroke="#000000" stroke-width="1" points="78,67 974,67 "/>
<text x="130" y="58" dy="-0.5ex" text-anchor="middle" font-family="sans-serif" font-size="9.67741935483871" opacity="1" fill="#000000">
+00:49:04
</text>
<polyline fill="none" opacity="1" stroke="#000000" stroke-width="1" points="130,62 130,67 "/>
<text x="307" y="58" dy="-0.5ex" text-anchor="middle" font-family="sans-serif" font-size="9.67741935483871" opacity="1" fill="#000000">
+03:35:44
</text>
<polyline fill="none" opacity="1" stroke="#000000" stroke-width="1" points="307,62 307,67 "/>
<text x="484" y="58" dy="-0.5ex" text-anchor="middle" font-family="sans-serif" font-size="9.67741935483871" opacity="1" fill="#000000">
+06:22:24
</text>
<polyline fill="none" opacity="1" stroke="#000000" stroke-width="1" points="484,62 484,67 "/>
<text x="661" y="58" dy="-0.5ex" text-anchor="middle" font-family="sans-serif" font-size="9.67741935483871" opacity="1" fill="#000000">
+09:09:04
</text>
<polyline fill="none" opacity="1" stroke="#000000" stroke-width="1" points="661,62 661,67 "/>
<text x="838" y="58" dy="-0.5ex" text-anchor="middle" font-family="sans-serif" font-size="9.67741935483871" opacity="1" fill="#000000">
+11:55:44
</text>
<polyline fill="none" opacity="1" stroke="#000000" stroke-width="1" points="838,62 838,67 "/>
<rect x="83" y="73" width="99" height="45" opacity="0.75" fill="#FFFFFF" stroke="none"/>
<rect x="83" y="73" width="99" height="45" opacity="1" fill="none" stroke="#000000"/>
<text x="123" y="83" dy="0.76em" text-anchor="start" font-family="sans-serif" font-size="9.67741935483871" opacity="1" fill="#000000">
Temporary
</text>
<text x="123" y="98" dy="0.76em" text-anchor="start" font-family="sans-serif" font-size="9.67741935483871" opacity="1" fill="#000000">
Leaked
</text>
<rect x="93" y="83" width="10" height="10" opacity="1" fill="#3CB44B" stroke="none"/>
<rect x="93" y="98" width="10" height="10" opacity="1" fill="#E6194B" stroke="none"/>
</svg>
