<svg width="1024" height="768" viewBox="0 0 1024 768" xmlns="http://www.w3.org/2000/svg">
<rect x="0" y="0" width="1024" height="768" opacity="1" fill="#FFFFFF" stroke="none"/>
<polygon opacity="1" fill="#3CB44B" points="79,694 79,694 80,694 81,694 82,694 83,694 84,694 85,694 86,699 86,699 87,699 88,699 89,699 90,699 91,699 92,699 93,699 94,699 94,699 95,699 96,699 97,699 98,699 99,699 100,699 101,699 102,699 102,699 103,699 104,699 105,699 106,699 107,699 108,699 109,699 109,699 110,699 111,699 112,699 113,699 114,699 115,699 116,699 117,699 117,699 118,699 119,699 120,680 121,680 122,680 123,680 124,699 124,699 125,699 126,699 127,699 128,699 129,699 130,699 131,699 132,699 132,699 133,699 134,699 135,699 136,699 137,699 138,699 139,699 139,699 140,699 141,699 142,699 143,699 144,699 145,699 146,699 147,694 147,694 148,694 149,675 150,675 151,675 152,675 153,675 154,675 155,675 155,675 156,680 157,680 158,680 159,680 160,680 161,680 162,680 162,680 163,680 164,680 165,680 166,675 167,675 168,675 169,675 170,675 170,675 171,675 172,675 173,675 174,670 175,670 176,670 177,670 177,670 178,670 179,670 180,670 181,670 182,670 183,675 184,675 185,675 185,675 186,670 187,670 188,670 189,670 190,670 191,670 192,670 192,670 193,670 194,670 195,670 196,670 197,670 198,670 199,670 200,675 200,675 201,675 202,675 203,675 204,675 205,675 206,675 207,699 208,699 208,699 209,699 210,699 211,699 212,699 213,699 214,699 215,694 215,675 216,675 217,680 218,680 219,675 220,675 221,675 222,675 223,675 223,675 224,656 225,652 226,652 227,652 228,652 229,652 230,652 230,652 231,652 232,652 233,670 234,670 235,670 236,670 237,670 238,670 238,670 239,694 240,689 241,689 242,689 243,689 244,689 245,689 246,689 246,689 247,689 248,689 249,689 250,670 251,675 252,675 253,675 253,694 254,694 255,694 256,694 257,694 258,694 259,694 260,694 261,675 261,675 262,675 263,675 264,675 265,675 266,675 267,680 268,680 268,680 269,661 270,656 271,656 272,656 273,656 274,661 275,661 276,661 276,661 277,661 278,661 279,661 280,694 281,694 282,694 283,694 283,694 284,694 285,694 286,694 287,694 288,689 289,689 290,689 291,689 291,670 292,670 293,670 294,670 295,680 296,680 297,680 298,675 299,675 299,670 300,670 301,652 302,652 303,652 304,652 305,652 306,652 306,652 307,652 308,652 309,656 310,656 311,656 312,656 313,656 314,656 314,656 315,656 316,656 317,656 318,656 319,656 320,656 321,656 321,652 322,652 323,652 324,633 325,633 326,638 327,638 328,638 329,638 329,638 330,638 331,638 332,638 333,638 334,638 335,638 336,638 337,638 337,638 338,638 339,638 340,638 341,619 342,619 343,624 344,624 344,624 345,624 346,624 347,624 348,624 349,605 350,605 351,600 352,600 352,600 353,600 354,596 355,596 356,596 357,577 358,577 359,577 359,582 360,582 361,582 362,582 363,582 364,582 365,582 366,582 367,582 367,582 368,582 369,582 370,582 371,582 372,582 373,582 374,568 374,568 375,568 376,568 377,563 378,563 379,563 380,544 381,544 382,544 382,544 383,544 384,544 385,544 386,544 387,540 388,540 389,540 390,540 390,540 391,540 392,540 393,544 394,544 395,544 396,544 397,544 397,544 398,530 399,530 400,530 401,530 402,530 403,530 404,530 405,530 405,507 406,507 407,507 408,507 409,502 410,502 411,502 412,502 412,502 413,502 414,502 415,502 416,502 417,502 418,502 419,502 420,502 420,498 421,498 422,498 423,498 424,498 425,498 426,502 427,502 427,502 428,488 429,488 430,488 431,488 432,488 433,488 434,488 435,488 435,488 436,488 437,488 438,488 439,488 440,488 441,488 442,488 443,488 443,483 444,483 445,483 446,483 447,483 448,483 449,479 450,479 450,479 451,474 452,474 453,474 454,455 455,455 456,455 457,455 458,451 458,451 459,451 460,451 461,455 462,455 463,455 464,455 465,455 465,455 466,455 467,455 468,455 469,455 470,455 471,451 472,451 473,451 473,451 474,451 475,451 476,451 477,451 478,451 479,451 480,451 481,451 481,451 482,451 483,451 484,451 485,451 486,451 487,451 488,451 488,432 489,432 490,432 491,432 492,432 493,432 494,432 495,432 496,413 496,413 497,413 498,413 499,413 500,413 501,413 502,413 503,413 503,413 504,413 505,413 506,413 507,413 508,413 509,413 510,413 511,413 511,409 512,409 513,409 514,409 515,409 516,409 517,409 518,409 518,409 519,404 520,404 521,404 522,404 523,399 524,395 525,395 526,395 526,395 527,399 528,390 529,390 530,390 531,390 532,390 533,390 534,390 534,390 535,390 536,367 537,367 538,367 539,367 540,367 541,367 541,367 542,367 543,367 544,371 545,371 546,371 547,371 548,371 549,371 549,371 550,357 551,357 552,357 553,357 554,357 555,357 556,357 556,357 557,357 558,357 559,357 560,357 561,353 562,353 563,353 564,353 564,353 565,353 566,353 567,353 568,353 569,353 570,353 571,353 572,348 572,348 573,348 574,348 575,348 576,348 577,348 578,353 579,353 579,353 580,353 581,353 582,353 583,339 584,339 585,334 586,334 587,334 587,334 588,329 589,329 590,329 591,329 592,325 593,320 594,320 594,320 595,320 596,320 597,320 598,306 599,306 600,306 601,306 602,301 602,301 603,301 604,301 605,301 606,301 607,283 608,283 609,283 609,287 610,287 611,287 612,287 613,287 614,287 615,287 616,287 617,287 617,287 618,287 619,287 620,287 621,278 622,278 623,278 624,278 625,278 625,278 626,278 627,278 628,278 629,278 630,278 631,278 632,278 632,278 633,278 634,278 635,259 636,254 637,254 638,254 639,254 640,254 640,254 641,259 642,259 643,259 644,259 645,259 646,259 647,259 647,259 648,259 649,259 650,259 651,259 652,240 653,240 654,240 655,240 655,240 656,240 657,240 658,240 659,240 660,240 661,240 662,240 663,240 663,240 664,240 665,240 666,240 667,240 668,240 669,236 670,236 670,236 671,236 672,236 673,231 674,231 675,231 676,236 677,236 678,236 678,236 679,236 680,236 681,236 682,236 683,236 684,231 685,212 685,212 686,212 687,212 688,212 689,212 690,212 691,208 692,208 693,203 693,198 694,198 695,198 696,194 697,194 698,189 699,184 700,180 700,175 701,175 702,175 703,175 704,175 705,175 706,175 707,175 708,175 708,175 709,180 710,180 711,180 712,198 713,194 714,194 715,189 716,189 716,189 717,189 718,184 719,184 720,184 721,184 722,184 723,184 723,184 724,184 725,184 726,184 727,189 728,189 729,189 730,189 731,189 731,189 732,189 733,184 734,184 735,184 736,184 737,184 738,184 738,184 739,184 740,184 741,184 742,184 743,184 744,184 745,184 746,184 746,184 747,184 748,184 749,184 750,184 751,184 752,180 753,180 753,180 754,180 755,180 756,175 757,175 758,175 759,175 760,175 761,180 761,180 762,180 763,180 764,180 765,166 766,166 767,166 768,166 769,161 769,161 770,161 771,161 772,142 773,142 774,142 775,142 776,142 776,142 777,138 778,138 779,138 780,138 781,138 782,138 783,138 784,138 784,138 785,138 786,138 787,138 788,138 789,138 790,138 791,138 791,138 792,138 793,138 794,142 795,142 796,142 797,142 798,142 799,142 799,142 800,142 801,142 802,142 803,142 804,142 805,142 806,142 807,142 807,138 808,138 809,138 810,138 811,142 812,142 813,142 814,142 814,142 815,142 816,142 817,142 818,142 819,142 820,142 821,142 822,142 822,142 823,142 824,142 825,142 826,119 827,119 828,119 829,119 829,119 830,119 831,100 832,100 833,100 834,100 835,100 836,96 837,96 837,96 838,91 839,91 840,91 841,91 842,91 843,96 844,100 844,100 845,100 846,100 847,100 848,100 849,100 850,100 851,100 852,100 852,100 853,100 854,96 855,96 856,96 857,96 858,96 859,96 860,96 860,96 861,100 862,100 863,100 864,100 865,100 866,100 867,100 867,100 868,100 869,100 870,100 871,100 872,100 873,100 874,100 875,100 875,100 876,100 877,105 878,105 879,105 880,105 881,105 882,105 882,105 883,86 884,86 885,86 886,86 887,86 888,86 889,82 890,82 890,82 891,82 892,82 893,82 894,86 895,86 896,86 897,86 898,86 898,86 899,68 900,68 901,68 902,68 903,68 904,68 905,68 905,68 906,68 907,68 908,661 909,661 910,661 911,666 912,666 913,666 913,666 914,666 915,666 916,666 917,666 918,666 919,666 920,666 920,666 921,666 922,666 923,647 924,647 925,647 926,647 927,647 928,642 928,642 929,624 930,624 931,624 932,624 933,624 934,624 935,624 935,624 936,600 937,600 938,600 939,600 940,600 941,600 942,600 943,600 943,600 944,600 945,596 946,596 947,596 948,596 949,596 950,596 951,596 951,596 952,596 953,577 954,577 955,577 956,577 957,577 958,577 958,577 959,577 960,577 961,558 961,558 962,572 962,572 973,572 973,699 79,699 "/>
<polyline fill="none" opacity="1" stroke="#3CB44B" stroke-width="1" points="79,694 79,694 80,694 81,694 82,694 83,694 84,694 85,694 86,699 86,699 87,699 88,699 89,699 90,699 91,699 92,699 93,699 94,699 94,699 95,699 96,699 97,699 98,699 99,699 100,699 101,699 102,699 102,699 103,699 104,699 105,699 106,699 107,699 108,699 109,699 109,699 110,699 111,699 112,699 113,699 114,699 115,699 116,699 117,699 117,699 118,699 119,699 120,680 121,680 122,680 123,680 124,699 124,699 125,699 126,699 127,699 128,699 129,699 130,699 131,699 132,699 132,699 133,699 134,699 135,699 136,699 137,699 138,699 139,699 139,699 140,699 141,699 142,699 143,699 144,699 145,699 146,699 147,694 147,694 148,694 149,675 150,675 151,675 152,675 153,675 154,675 155,675 155,675 156,680 157,680 158,680 159,680 160,680 161,680 162,680 162,680 163,680 164,680 165,680 166,675 167,675 168,675 169,675 170,675 170,675 171,675 172,675 173,675 174,670 175,670 176,670 177,670 177,670 178,670 179,670 180,670 181,670 182,670 183,675 184,675 185,675 185,675 186,670 187,670 188,670 189,670 190,670 191,670 192,670 192,670 193,670 194,670 195,670 196,670 197,670 198,670 199,670 200,675 200,675 201,675 202,675 203,675 204,675 205,675 206,675 207,699 208,699 208,699 209,699 210,699 211,699 212,699 213,699 214,699 215,694 215,675 216,675 217,680 218,680 219,675 220,675 221,675 222,675 223,675 223,675 224,656 225,652 226,652 227,652 228,652 229,652 230,652 230,652 231,652 232,652 233,670 234,670 235,670 236,670 237,670 238,670 238,670 239,694 240,689 241,689 242,689 243,689 244,689 245,689 246,689 246,689 247,689 248,689 249,689 250,670 251,675 252,675 253,675 253,694 254,694 255,694 256,694 257,694 258,694 259,694 260,694 261,675 261,675 262,675 263,675 264,675 265,675 266,675 267,680 268,680 268,680 269,661 270,656 271,656 272,656 273,656 274,661 275,661 276,661 276,661 277,661 278,661 279,661 280,694 281,694 282,694 283,694 283,694 284,694 285,694 286,694 287,694 288,689 289,689 290,689 291,689 291,670 292,670 293,670 294,670 295,680 296,680 297,680 298,675 299,675 299,670 300,670 301,652 302,652 303,652 304,652 305,652 306,652 306,652 307,652 308,652 309,656 310,656 311,656 312,656 313,656 314,656 314,656 315,656 316,656 317,656 318,656 319,656 320,656 321,656 321,652 322,652 323,652 324,633 325,633 326,638 327,638 328,638 329,638 329,638 330,638 331,638 332,638 333,638 334,638 335,638 336,638 337,638 337,638 338,638 339,638 340,638 341,619 342,619 343,624 344,624 344,624 345,624 346,624 347,624 348,624 349,605 350,605 351,600 352,600 352,600 353,600 354,596 355,596 356,596 357,577 358,577 359,577 359,582 360,582 361,582 362,582 363,582 364,582 365,582 366,582 367,582 367,582 368,582 369,582 370,582 371,582 372,582 373,582 374,568 374,568 375,568 376,568 377,563 378,563 379,563 380,544 381,544 382,544 382,544 383,544 384,544 385,544 386,544 387,540 388,540 389,540 390,540 390,540 391,540 392,540 393,544 394,544 395,544 396,544 397,544 397,544 398,530 399,530 400,530 401,530 402,530 403,530 404,530 405,530 405,507 406,507 407,507 408,507 409,502 410,502 411,502 412,502 412,502 413,502 414,502 415,502 416,502 417,502 418,502 419,502 420,502 420,498 421,498 422,498 423,498 424,498 425,498 426,502 427,502 427,502 428,488 429,488 430,488 431,488 432,488 433,488 434,488 435,488 435,488 436,488 437,488 438,488 439,488 440,488 441,488 442,488 443,488 443,483 444,483 445,483 446,483 447,483 448,483 449,479 450,479 450,479 451,474 452,474 453,474 454,455 455,455 456,455 457,455 458,451 458,451 459,451 460,451 461,455 462,455 463,455 464,455 465,455 465,455 466,455 467,455 468,455 469,455 470,455 471,451 472,451 473,451 473,451 474,451 475,451 476,451 477,451 478,451 479,451 480,451 481,451 481,451 482,451 483,451 484,451 485,451 486,451 487,451 488,451 488,432 489,432 490,432 491,432 492,432 493,432 494,432 495,432 496,413 496,413 497,413 498,413 499,413 500,413 501,413 502,413 503,413 503,413 504,413 505,413 506,413 507,413 508,413 509,413 510,413 511,413 511,409 512,409 513,409 514,409 515,409 516,409 517,409 518,409 518,409 519,404 520,404 521,404 522,404 523,399 524,395 525,395 526,395 526,395 527,399 528,390 529,390 530,390 531,390 532,390 533,390 534,390 534,390 535,390 536,367 537,367 538,367 539,367 540,367 541,367 541,367 542,367 543,367 544,371 545,371 546,371 547,371 548,371 549,371 549,371 550,357 551,357 552,357 553,357 554,357 555,357 556,357 556,357 557,357 558,357 559,357 560,357 561,353 562,353 563,353 564,353 564,353 565,353 566,353 567,353 568,353 569,353 570,353 571,353 572,348 572,348 573,348 574,348 575,348 576,348 577,348 578,353 579,353 579,353 580,353 581,353 582,353 583,339 584,339 585,334 586,334 587,334 587,334 588,329 589,329 590,329 591,329 592,325 593,320 594,320 594,320 595,320 596,320 597,320 598,306 599,306 600,306 601,306 602,301 602,301 603,301 604,301 605,301 606,301 607,283 608,283 609,283 609,287 610,287 611,287 612,287 613,287 614,287 615,287 616,287 617,287 617,287 618,287 619,287 620,287 621,278 622,278 623,278 624,278 625,278 625,278 626,278 627,278 628,278 629,278 630,278 631,278 632,278 632,278 633,278 634,278 635,259 636,254 637,254 638,254 639,254 640,254 640,254 641,259 642,259 643,259 644,259 645,259 646,259 647,259 647,259 648,259 649,259 650,259 651,259 652,240 653,240 654,240 655,240 655,240 656,240 657,240 658,240 659,240 660,240 661,240 662,240 663,240 663,240 664,240 665,240 666,240 667,240 668,240 669,236 670,236 670,236 671,236 672,236 673,231 674,231 675,231 676,236 677,236 678,236 678,236 679,236 680,236 681,236 682,236 683,236 684,231 685,212 685,212 686,212 687,212 688,212 689,212 690,212 691,208 692,208 693,203 693,198 694,198 695,198 696,194 697,194 698,189 699,184 700,180 700,175 701,175 702,175 703,175 704,175 705,175 706,175 707,175 708,175 708,175 709,180 710,180 711,180 712,198 713,194 714,194 715,189 716,189 716,189 717,189 718,184 719,184 720,184 721,184 722,184 723,184 723,184 724,184 725,184 726,184 727,189 728,189 729,189 730,189 731,189 731,189 732,189 733,184 734,184 735,184 736,184 737,184 738,184 738,184 739,184 740,184 741,184 742,184 743,184 744,184 745,184 746,184 746,184 747,184 748,184 749,184 750,184 751,184 752,180 753,180 753,180 754,180 755,180 756,175 757,175 758,175 759,175 760,175 761,180 761,180 762,180 763,180 764,180 765,166 766,166 767,166 768,166 769,161 769,161 770,161 771,161 772,142 773,142 774,142 775,142 776,142 776,142 777,138 778,138 779,138 780,138 781,138 782,138 783,138 784,138 784,138 785,138 786,138 787,138 788,138 789,138 790,138 791,138 791,138 792,138 793,138 794,142 795,142 796,142 797,142 798,142 799,142 799,142 800,142 801,142 802,142 803,142 804,142 805,142 806,142 807,142 807,138 808,138 809,138 810,138 811,142 812,142 813,142 814,142 814,142 815,142 816,142 817,142 818,142 819,142 820,142 821,142 822,142 822,142 823,142 824,142 825,142 826,119 827,119 828,119 829,119 829,119 830,119 831,100 832,100 833,100 834,100 835,100 836,96 837,96 837,96 838,91 839,91 840,91 841,91 842,91 843,96 844,100 844,100 845,100 846,100 847,100 848,100 849,100 850,100 851,100 852,100 852,100 853,100 854,96 855,96 856,96 857,96 858,96 859,96 860,96 860,96 861,100 862,100 863,100 864,100 865,100 866,100 867,100 867,100 868,100 869,100 870,100 871,100 872,100 873,100 874,100 875,100 875,100 876,100 877,105 878,105 879,105 880,105 881,105 882,105 882,105 883,86 884,86 885,86 886,86 887,86 888,86 889,82 890,82 890,82 891,82 892,82 893,82 894,86 895,86 896,86 897,86 898,86 898,86 899,68 900,68 901,68 902,68 903,68 904,68 905,68 905,68 906,68 907,68 908,661 909,661 910,661 911,666 912,666 913,666 913,666 914,666 915,666 916,666 917,666 918,666 919,666 920,666 920,666 921,666 922,666 923,647 924,647 925,647 926,647 927,647 928,642 928,642 929,624 930,624 931,624 932,624 933,624 934,624 935,624 935,624 936,600 937,600 938,600 939,600 940,600 941,600 942,600 943,600 943,600 944,600 945,596 946,596 947,596 948,596 949,596 950,596 951,596 951,596 952,596 953,577 954,577 955,577 956,577 957,577 958,577 958,577 959,577 960,577 961,558 961,558 962,572 962,572 973,572 "/>
<polygon opacity="1" fill="#E6194B" points="79,699 79,699 80,699 81,699 82,699 83,699 84,699 85,699 86,699 86,699 87,699 88,699 89,699 90,699 91,699 92,699 93,699 94,699 94,699 95,699 96,699 97,699 98,699 99,699 100,699 101,699 102,699 102,699 103,699 104,699 105,699 106,699 107,699 108,699 109,699 109,699 110,699 111,699 112,699 113,699 114,699 115,699 116,699 117,699 117,699 118,699 119,699 120,699 121,699 122,699 123,699 124,699 124,699 125,699 126,699 127,699 128,699 129,699 130,699 131,699 132,699 132,699 133,699 134,699 135,699 136,699 137,699 138,699 139,699 139,699 140,699 141,699 142,699 143,699 144,699 145,699 146,699 147,699 147,699 148,699 149,699 150,699 151,699 152,699 153,699 154,699 155,699 155,699 156,699 157,699 158,699 159,699 160,699 161,699 162,699 162,699 163,699 164,699 165,699 166,699 167,699 168,699 169,699 170,699 170,699 171,699 172,699 173,699 174,699 175,699 176,699 177,699 177,699 178,699 179,699 180,699 181,699 182,699 183,699 184,699 185,699 185,699 186,699 187,699 188,699 189,699 190,699 191,699 192,699 192,699 193,699 194,699 195,699 196,699 197,699 198,699 199,699 200,699 200,699 201,699 202,699 203,699 204,699 205,699 206,699 207,699 208,699 208,699 209,699 210,699 211,699 212,699 213,699 214,699 215,699 215,699 216,699 217,699 218,699 219,699 220,699 221,699 222,699 223,699 223,699 224,699 225,699 226,699 227,699 228,699 229,699 230,699 230,699 231,699 232,699 233,699 234,699 235,699 236,699 237,699 238,699 238,699 239,699 240,699 241,699 242,699 243,699 244,699 245,699 246,699 246,699 247,699 248,699 249,699 250,699 251,699 252,699 253,699 253,699 254,699 255,699 256,699 257,699 258,699 259,699 260,699 261,699 261,699 262,699 263,699 264,699 265,699 266,699 267,699 268,699 268,699 269,699 270,699 271,699 272,699 273,699 274,699 275,699 276,699 276,699 277,699 278,699 279,699 280,699 281,699 282,699 283,699 283,699 284,699 285,699 286,699 287,699 288,699 289,699 290,699 291,699 291,699 292,699 293,699 294,699 295,699 296,699 297,699 298,699 299,699 299,699 300,699 301,699 302,699 303,699 304,699 305,699 306,699 306,699 307,699 308,699 309,699 310,699 311,699 312,699 313,699 314,699 314,699 315,699 316,699 317,699 318,699 319,699 320,699 321,699 321,699 322,699 323,699 324,699 325,699 326,699 327,699 328,699 329,699 329,699 330,699 331,699 332,699 333,699 334,699 335,699 336,699 337,699 337,699 338,699 339,699 340,699 341,699 342,699 343,699 344,699 344,699 345,699 346,699 347,699 348,699 349,699 350,699 351,699 352,699 352,699 353,699 354,699 355,699 356,699 357,699 358,699 359,699 359,699 360,699 361,699 362,699 363,699 364,699 365,699 366,699 367,699 367,699 368,699 369,699 370,699 371,699 372,699 373,699 374,699 374,699 375,699 376,699 377,699 378,699 379,699 380,699 381,699 382,699 382,699 383,699 384,699 385,699 386,699 387,699 388,699 389,699 390,699 390,699 391,699 392,699 393,699 394,699 395,699 396,699 397,699 397,699 398,699 399,699 400,699 401,699 402,699 403,699 404,699 405,699 405,699 406,699 407,699 408,699 409,699 410,699 411,699 412,699 412,699 413,699 414,699 415,699 416,699 417,699 418,699 419,699 420,699 420,694 421,694 422,694 423,694 424,694 425,694 426,694 427,694 427,694 428,694 429,694 430,694 431,694 432,694 433,694 434,694 435,694 435,694 436,694 437,694 438,694 439,694 440,694 441,694 442,694 443,694 443,694 444,694 445,694 446,694 447,694 448,694 449,694 450,694 450,694 451,694 452,694 453,694 454,694 455,694 456,694 457,694 458,694 458,694 459,694 460,694 461,694 462,694 463,694 464,694 465,694 465,694 466,694 467,694 468,694 469,694 470,694 471,694 472,694 473,694 473,694 474,694 475,694 476,694 477,694 478,694 479,694 480,694 481,694 481,694 482,694 483,694 484,694 485,694 486,694 487,694 488,694 488,694 489,694 490,694 491,694 492,694 493,694 494,694 495,694 496,694 496,694 497,694 498,694 499,694 500,694 501,694 502,694 503,694 503,694 504,694 505,694 506,694 507,694 508,694 509,694 510,694 511,694 511,694 512,694 513,694 514,694 515,694 516,694 517,694 518,694 518,694 519,694 520,694 521,694 522,694 523,694 524,694 525,694 526,694 526,694 527,694 528,694 529,694 530,694 531,694 532,694 533,694 534,694 534,694 535,694 536,694 537,694 538,694 539,694 540,694 541,694 541,694 542,694 543,694 544,694 545,694 546,694 547,694 548,694 549,694 549,694 550,694 551,694 552,694 553,694 554,694 555,694 556,694 556,694 557,694 558,694 559,694 560,694 561,694 562,694 563,694 564,694 564,694 565,694 566,694 567,694 568,694 569,694 570,694 571,694 572,694 572,694 573,694 574,694 575,694 576,694 577,694 578,694 579,694 579,694 580,694 581,694 582,694 583,694 584,694 585,694 586,694 587,694 587,694 588,694 589,694 590,694 591,694 592,689 593,689 594,689 594,689 595,689 596,689 597,689 598,689 599,689 600,689 601,689 602,689 602,689 603,689 604,689 605,689 606,689 607,689 608,689 609,689 609,689 610,689 611,689 612,689 613,689 614,689 615,689 616,689 617,689 617,689 618,689 619,689 620,689 621,689 622,689 623,689 624,689 625,689 625,689 626,689 627,689 628,689 629,689 630,689 631,689 632,689 632,689 633,689 634,689 635,689 636,689 637,689 638,689 639,689 640,689 640,689 641,689 642,689 643,689 644,689 645,689 646,689 647,689 647,689 648,689 649,689 650,689 651,689 652,689 653,689 654,689 655,689 655,689 656,689 657,689 658,689 659,689 660,689 661,689 662,689 663,689 663,689 664,689 665,689 666,689 667,689 668,689 669,689 670,689 670,689 671,689 672,689 673,689 674,689 675,689 676,689 677,689 678,689 678,689 679,689 680,689 681,689 682,689 683,689 684,689 685,689 685,689 686,689 687,689 688,689 689,689 690,689 691,689 692,689 693,689 693,689 694,689 695,689 696,689 697,689 698,689 699,689 700,689 700,689 701,689 702,689 703,689 704,689 705,689 706,689 707,689 708,689 708,689 709,689 710,689 711,689 712,689 713,689 714,689 715,689 716,689 716,689 717,689 718,689 719,689 720,689 721,689 722,689 723,689 723,689 724,689 725,689 726,689 727,689 728,689 729,689 730,689 731,689 731,689 732,689 733,689 734,689 735,689 736,689 737,689 738,689 738,689 739,689 740,689 741,689 742,689 743,689 744,689 745,689 746,689 746,689 747,689 748,689 749,689 750,689 751,689 752,689 753,689 753,689 754,689 755,689 756,689 757,689 758,689 759,689 760,689 761,689 761,689 762,689 763,689 764,689 765,689 766,689 767,689 768,689 769,689 769,689 770,689 771,689 772,689 773,689 774,689 775,689 776,689 776,689 777,689 778,689 779,689 780,689 781,689 782,689 783,689 784,689 784,689 785,689 786,689 787,689 788,689 789,689 790,689 791,689 791,689 792,689 793,689 794,689 795,689 796,689 797,689 798,689 799,689 799,689 800,689 801,689 802,689 803,689 804,689 805,689 806,689 807,689 807,684 808,684 809,684 810,684 811,684 812,684 813,684 814,684 814,684 815,684 816,684 817,684 818,684 819,684 820,684 821,684 822,684 822,684 823,684 824,684 825,684 826,684 827,684 828,684 829,684 829,684 830,684 831,684 832,684 833,684 834,684 835,684 836,684 837,684 837,684 838,684 839,684 840,684 841,684 842,684 843,684 844,684 844,684 845,684 846,684 847,684 848,684 849,684 850,684 851,684 852,684 852,684 853,684 854,684 855,684 856,684 857,684 858,684 859,684 860,684 860,684 861,684 862,684 863,684 864,684 865,684 866,684 867,684 867,684 868,684 869,684 870,684 871,684 872,684 873,684 874,684 875,684 875,684 876,684 877,684 878,684 879,684 880,684 881,684 882,684 882,684 883,684 884,684 885,684 886,684 887,684 888,684 889,684 890,684 890,684 891,684 892,684 893,684 894,684 895,684 896,684 897,684 898,684 898,684 899,684 900,684 901,684 902,684 903,684 904,684 905,684 905,684 906,666 907,666 908,666 909,666 910,666 911,666 912,666 913,666 913,666 914,666 915,666 916,666 917,666 918,666 919,666 920,666 920,666 921,666 922,666 923,647 924,647 925,647 926,647 927,647 928,647 928,647 929,628 930,628 931,628 932,628 933,628 934,628 935,628 935,628 936,610 937,610 938,610 939,610 940,610 941,610 942,610 943,610 943,610 944,610 945,610 946,610 947,610 948,610 949,610 950,610 951,610 951,610 952,610 953,591 954,591 955,591 956,591 957,591 958,591 958,591 959,591 960,591 961,572 961,572 962,572 962,572 973,572 973,699 79,699 "/>
<polyline fill="none" opacity="1" stroke="#E6194B" stroke-width="1" points="79,699 79,699 80,699 81,699 82,699 83,699 84,699 85,699 86,699 86,699 87,699 88,699 89,699 90,699 91,699 92,699 93,699 94,699 94,699 95,699 96,699 97,699 98,699 99,699 100,699 101,699 102,699 102,699 103,699 104,699 105,699 106,699 107,699 108,699 109,699 109,699 110,699 111,699 112,699 113,699 114,699 115,699 116,699 117,699 117,699 118,699 119,699 120,699 121,699 122,699 123,699 124,699 124,699 125,699 126,699 127,699 128,699 129,699 130,699 131,699 132,699 132,699 133,699 134,699 135,699 136,699 137,699 138,699 139,699 139,699 140,699 141,699 142,699 143,699 144,699 145,699 146,699 147,699 147,699 148,699 149,699 150,699 151,699 152,699 153,699 154,699 155,699 155,699 156,699 157,699 158,699 159,699 160,699 161,699 162,699 162,699 163,699 164,699 165,699 166,699 167,699 168,699 169,699 170,699 170,699 171,699 172,699 173,699 174,699 175,699 176,699 177,699 177,699 178,699 179,699 180,699 181,699 182,699 183,699 184,699 185,699 185,699 186,699 187,699 188,699 189,699 190,699 191,699 192,699 192,699 193,699 194,699 195,699 196,699 197,699 198,699 199,699 200,699 200,699 201,699 202,699 203,699 204,699 205,699 206,699 207,699 208,699 208,699 209,699 210,699 211,699 212,699 213,699 214,699 215,699 215,699 216,699 217,699 218,699 219,699 220,699 221,699 222,699 223,699 223,699 224,699 225,699 226,699 227,699 228,699 229,699 230,699 230,699 231,699 232,699 233,699 234,699 235,699 236,699 237,699 238,699 238,699 239,699 240,699 241,699 242,699 243,699 244,699 245,699 246,699 246,699 247,699 248,699 249,699 250,699 251,699 252,699 253,699 253,699 254,699 255,699 256,699 257,699 258,699 259,699 260,699 261,699 261,699 262,699 263,699 264,699 265,699 266,699 267,699 268,699 268,699 269,699 270,699 271,699 272,699 273,699 274,699 275,699 276,699 276,699 277,699 278,699 279,699 280,699 281,699 282,699 283,699 283,699 284,699 285,699 286,699 287,699 288,699 289,699 290,699 291,699 291,699 292,699 293,699 294,699 295,699 296,699 297,699 298,699 299,699 299,699 300,699 301,699 302,699 303,699 304,699 305,699 306,699 306,699 307,699 308,699 309,699 310,699 311,699 312,699 313,699 314,699 314,699 315,699 316,699 317,699 318,699 319,699 320,699 321,699 321,699 322,699 323,699 324,699 325,699 326,699 327,699 328,699 329,699 329,699 330,699 331,699 332,699 333,699 334,699 335,699 336,699 337,699 337,699 338,699 339,699 340,699 341,699 342,699 343,699 344,699 344,699 345,699 346,699 347,699 348,699 349,699 350,699 351,699 352,699 352,699 353,699 354,699 355,699 356,699 357,699 358,699 359,699 359,699 360,699 361,699 362,699 363,699 364,699 365,699 366,699 367,699 367,699 368,699 369,699 370,699 371,699 372,699 373,699 374,699 374,699 375,699 376,699 377,699 378,699 379,699 380,699 381,699 382,699 382,699 383,699 384,699 385,699 386,699 387,699 388,699 389,699 390,699 390,699 391,699 392,699 393,699 394,699 395,699 396,699 397,699 397,699 398,699 399,699 400,699 401,699 402,699 403,699 404,699 405,699 405,699 406,699 407,699 408,699 409,699 410,699 411,699 412,699 412,699 413,699 414,699 415,699 416,699 417,699 418,699 419,699 420,699 420,694 421,694 422,694 423,694 424,694 425,694 426,694 427,694 427,694 428,694 429,694 430,694 431,694 432,694 433,694 434,694 435,694 435,694 436,694 437,694 438,694 439,694 440,694 441,694 442,694 443,694 443,694 444,694 445,694 446,694 447,694 448,694 449,694 450,694 450,694 451,694 452,694 453,694 454,694 455,694 456,694 457,694 458,694 458,694 459,694 460,694 461,694 462,694 463,694 464,694 465,694 465,694 466,694 467,694 468,694 469,694 470,694 471,694 472,694 473,694 473,694 474,694 475,694 476,694 477,694 478,694 479,694 480,694 481,694 481,694 482,694 483,694 484,694 485,694 486,694 487,694 488,694 488,694 489,694 490,694 491,694 492,694 493,694 494,694 495,694 496,694 496,694 497,694 498,694 499,694 500,694 501,694 502,694 503,694 503,694 504,694 505,694 506,694 507,694 508,694 509,694 510,694 511,694 511,694 512,694 513,694 514,694 515,694 516,694 517,694 518,694 518,694 519,694 520,694 521,694 522,694 523,694 524,694 525,694 526,694 526,694 527,694 528,694 529,694 530,694 531,694 532,694 533,694 534,694 534,694 535,694 536,694 537,694 538,694 539,694 540,694 541,694 541,694 542,694 543,694 544,694 545,694 546,694 547,694 548,694 549,694 549,694 550,694 551,694 552,694 553,694 554,694 555,694 556,694 556,694 557,694 558,694 559,694 560,694 561,694 562,694 563,694 564,694 564,694 565,694 566,694 567,694 568,694 569,694 570,694 571,694 572,694 572,694 573,694 574,694 575,694 576,694 577,694 578,694 579,694 579,694 580,694 581,694 582,694 583,694 584,694 585,694 586,694 587,694 587,694 588,694 589,694 590,694 591,694 592,689 593,689 594,689 594,689 595,689 596,689 597,689 598,689 599,689 600,689 601,689 602,689 602,689 603,689 604,689 605,689 606,689 607,689 608,689 609,689 609,689 610,689 611,689 612,689 613,689 614,689 615,689 616,689 617,689 617,689 618,689 619,689 620,689 621,689 622,689 623,689 624,689 625,689 625,689 626,689 627,689 628,689 629,689 630,689 631,689 632,689 632,689 633,689 634,689 635,689 636,689 637,689 638,689 639,689 640,689 640,689 641,689 642,689 643,689 644,689 645,689 646,689 647,689 647,689 648,689 649,689 650,689 651,689 652,689 653,689 654,689 655,689 655,689 656,689 657,689 658,689 659,689 660,689 661,689 662,689 663,689 663,689 664,689 665,689 666,689 667,689 668,689 669,689 670,689 670,689 671,689 672,689 673,689 674,689 675,689 676,689 677,689 678,689 678,689 679,689 680,689 681,689 682,689 683,689 684,689 685,689 685,689 686,689 687,689 688,689 689,689 690,689 691,689 692,689 693,689 693,689 694,689 695,689 696,689 697,689 698,689 699,689 700,689 700,689 701,689 702,689 703,689 704,689 705,689 706,689 707,689 708,689 708,689 709,689 710,689 711,689 712,689 713,689 714,689 715,689 716,689 716,689 717,689 718,689 719,689 720,689 721,689 722,689 723,689 723,689 724,689 725,689 726,689 727,689 728,689 729,689 730,689 731,689 731,689 732,689 733,689 734,689 735,689 736,689 737,689 738,689 738,689 739,689 740,689 741,689 742,689 743,689 744,689 745,689 746,689 746,689 747,689 748,689 749,689 750,689 751,689 752,689 753,689 753,689 754,689 755,689 756,689 757,689 758,689 759,689 760,689 761,689 761,689 762,689 763,689 764,689 765,689 766,689 767,689 768,689 769,689 769,689 770,689 771,689 772,689 773,689 774,689 775,689 776,689 776,689 777,689 778,689 779,689 780,689 781,689 782,689 783,689 784,689 784,689 785,689 786,689 787,689 788,689 789,689 790,689 791,689 791,689 792,689 793,689 794,689 795,689 796,689 797,689 798,689 799,689 799,689 800,689 801,689 802,689 803,689 804,689 805,689 806,689 807,689 807,684 808,684 809,684 810,684 811,684 812,684 813,684 814,684 814,684 815,684 816,684 817,684 818,684 819,684 820,684 821,684 822,684 822,684 823,684 824,684 825,684 826,684 827,684 828,684 829,684 829,684 830,684 831,684 832,684 833,684 834,684 835,684 836,684 837,684 837,684 838,684 839,684 840,684 841,684 842,684 843,684 844,684 844,684 845,684 846,684 847,684 848,684 849,684 850,684 851,684 852,684 852,684 853,684 854,684 855,684 856,684 857,684 858,684 859,684 860,684 860,684 861,684 862,684 863,684 864,684 865,684 866,684 867,684 867,684 868,684 869,684 870,684 871,684 872,684 873,684 874,684 875,684 875,684 876,684 877,684 878,684 879,684 880,684 881,684 882,684 882,684 883,684 884,684 885,684 886,684 887,684 888,684 889,684 890,684 890,684 891,684 892,684 893,684 894,684 895,684 896,684 897,684 898,684 898,684 899,684 900,684 901,684 902,684 903,684 904,684 905,684 905,684 906,666 907,666 908,666 909,666 910,666 911,666 912,666 913,666 913,666 914,666 915,666 916,666 917,666 918,666 919,666 920,666 920,666 921,666 922,666 923,647 924,647 925,647 926,647 927,647 928,647 928,647 929,628 930,628 931,628 932,628 933,628 934,628 935,628 935,628 936,610 937,610 938,610 939,610 940,610 941,610 942,610 943,610 943,610 944,610 945,610 946,610 947,610 948,610 949,610 950,610 951,610 951,610 952,610 953,591 954,591 955,591 956,591 957,591 958,591 958,591 959,591 960,591 961,572 961,572 962,572 962,572 973,572 "/>
<line opacity="0.1" stroke="#000000" stroke-width="1" x1="85" y1="699" x2="85" y2="68"/>
<line opacity="0.1" stroke="#000000" stroke-width="1" x1="94" y1="699" x2="94" y2="68"/>
<line opacity="0.1" stroke="#000000" stroke-width="1" x1="103" y1="699" x2="103" y2="68"/>
<line opacity="0.1" stroke="#000000" stroke-width="1" x1="112" y1="699" x2="112" y2="68"/>
<line opacity="0.1" stroke="#000000" stroke-width="1" x1="121" y1="699" x2="121" y2="68"/>
<line opacity="0.1" stroke="#000000" stroke-width="1" x1="130" y1="699" x2="130" y2="68"/>
<line opacity="0.1" stroke="#000000" stroke-width="1" x1="138" y1="699" x2="138" y2="68"/>
<line opacity="0.1" stroke="#000000" stroke-width="1" x1="147" y1="699" x2="147" y2="68"/>
<line opacity="0.1" stroke="#000000" stroke-width="1" x1="156" y1="699" x2="156" y2="68"/>
<line opacity="0.1" stroke="#000000" stroke-width="1" x1="165" y1="699" x2="165" y2="68"/>
<line opacity="0.1" stroke="#000000" stroke-width="1" x1="174" y1="699" x2="174" y2="68"/>
<line opacity="0.1" stroke="#000000" stroke-width="1" x1="183" y1="699" x2="183" y2="68"/>
<line opacity="0.1" stroke="#000000" stroke-width="1" x1="191" y1="699" x2="191" y2="68"/>
<line opacity="0.1" stroke="#000000" stroke-width="1" x1="200" y1="699" x2="200" y2="68"/>
<line opacity="0.1" stroke="#000000" stroke-width="1" x1="209" y1="699" x2="209" y2="68"/>
<line opacity="0.1" stroke="#000000" stroke-width="1" x1="218" y1="699" x2="218" y2="68"/>
<line opacity="0.1" stroke="#000000" stroke-width="1" x1="227" y1="699" x2="227" y2="68"/>
<line opacity="0.1" stroke="#000000" stroke-width="1" x1="236" y1="699" x2="236" y2="68"/>
<line opacity="0.1" stroke="#000000" stroke-width="1" x1="244" y1="699" x2="244" y2="68"/>
<line opacity="0.1" stroke="#000000" stroke-width="1" x1="253" y1="699" x2="253" y2="68"/>
<line opacity="0.1" stroke="#000000" stroke-width="1" x1="262" y1="699" x2="262" y2="68"/>
<line opacity="0.1" stroke="#000000" stroke-width="1" x1="271" y1="699" x2="271" y2="68"/>
<line opacity="0.1" stroke="#000000" stroke-width="1" x1="280" y1="699" x2="280" y2="68"/>
<line opacity="0.1" stroke="#000000" stroke-width="1" x1="289" y1="699" x2="289" y2="68"/>
<line opacity="0.1" stroke="#000000" stroke-width="1" x1="298" y1="699" x2="298" y2="68"/>
<line opacity="0.1" stroke="#000000" stroke-width="1" x1="306" y1="699" x2="306" y2="68"/>
<line opacity="0.1" stroke="#000000" stroke-width="1" x1="315" y1="699" x2="315" y2="68"/>
<line opacity="0.1" stroke="#000000" stroke-width="1" x1="324" y1="699" x2="324" y2="68"/>
<line opacity="0.1" stroke="#000000" stroke-width="1" x1="333" y1="699" x2="333" y2="68"/>
<line opacity="0.1" stroke="#000000" stroke-width="1" x1="342" y1="699" x2="342" y2="68"/>
<line opacity="0.1" stroke="#000000" stroke-width="1" x1="351" y1="699" x2="351" y2="68"/>
<line opacity="0.1" stroke="#000000" stroke-width="1" x1="359" y1="699" x2="359" y2="68"/>
<line opacity="0.1" stroke="#000000" stroke-width="1" x1="368" y1="699" x2="368" y2="68"/>
<line opacity="0.1" stroke="#000000" stroke-width="1" x1="377" y1="699" x2="377" y2="68"/>
<line opacity="0.1" stroke="#000000" stroke-width="1" x1="386" y1="699" x2="386" y2="68"/>
<line opacity="0.1" stroke="#000000" stroke-width="1" x1="395" y1="699" x2="395" y2="68"/>
<line opacity="0.1" stroke="#000000" stroke-width="1" x1="404" y1="699" x2="404" y2="68"/>
<line opacity="0.1" stroke="#000000" stroke-width="1" x1="412" y1="699" x2="412" y2="68"/>
<line opacity="0.1" stroke="#000000" stroke-width="1" x1="421" y1="699" x2="421" y2="68"/>
<line opacity="0.1" stroke="#000000" stroke-width="1" x1="430" y1="699" x2="430" y2="68"/>
<line opacity="0.1" stroke="#000000" stroke-width="1" x1="439" y1="699" x2="439" y2="68"/>
<line opacity="0.1" stroke="#000000" stroke-width="1" x1="448" y1="699" x2="448" y2="68"/>
<line opacity="0.1" stroke="#000000" stroke-width="1" x1="457" y1="699" x2="457" y2="68"/>
<line opacity="0.1" stroke="#000000" stroke-width="1" x1="465" y1="699" x2="465" y2="68"/>
<line opacity="0.1" stroke="#000000" stroke-width="1" x1="474" y1="699" x2="474" y2="68"/>
<line opacity="0.1" stroke="#000000" stroke-width="1" x1="483" y1="699" x2="483" y2="68"/>
<line opacity="0.1" stroke="#000000" stroke-width="1" x1="492" y1="699" x2="492" y2="68"/>
<line opacity="0.1" stroke="#000000" stroke-width="1" x1="501" y1="699" x2="501" y2="68"/>
<line opacity="0.1" stroke="#000000" stroke-width="1" x1="510" y1="699" x2="510" y2="68"/>
<line opacity="0.1" stroke="#000000" stroke-width="1" x1="518" y1="699" x2="518" y2="68"/>
<line opacity="0.1" stroke="#000000" stroke-width="1" x1="527" y1="699" x2="527" y2="68"/>
<line opacity="0.1" stroke="#000000" stroke-width="1" x1="536" y1="699" x2="536" y2="68"/>
<line opacity="0.1" stroke="#000000" stroke-width="1" x1="545" y1="699" x2="545" y2="68"/>
<line opacity="0.1" stroke="#000000" stroke-width="1" x1="554" y1="699" x2="554" y2="68"/>
<line opacity="0.1" stroke="#000000" stroke-width="1" x1="563" y1="699" x2="563" y2="68"/>
<line opacity="0.1" stroke="#000000" stroke-width="1" x1="572" y1="699" x2="572" y2="68"/>
<line opacity="0.1" stroke="#000000" stroke-width="1" x1="580" y1="699" x2="580" y2="68"/>
<line opacity="0.1" stroke="#000000" stroke-width="1" x1="589" y1="699" x2="589" y2="68"/>
<line opacity="0.1" stroke="#000000" stroke-width="1" x1="598" y1="699" x2="598" y2="68"/>
<line opacity="0.1" stroke="#000000" stroke-width="1" x1="607" y1="699" x2="607" y2="68"/>
<line opacity="0.1" stroke="#000000" stroke-width="1" x1="616" y1="699" x2="616" y2="68"/>
<line opacity="0.1" stroke="#000000" stroke-width="1" x1="625" y1="699" x2="625" y2="68"/>
<line opacity="0.1" stroke="#000000" stroke-width="1" x1="633" y1="699" x2="633" y2="68"/>
<line opacity="0.1" stroke="#000000" stroke-width="1" x1="642" y1="699" x2="642" y2="68"/>
<line opacity="0.1" stroke="#000000" stroke-width="1" x1="651" y1="699" x2="651" y2="68"/>
<line opacity="0.1" stroke="#000000" stroke-width="1" x1="660" y1="699" x2="660" y2="68"/>
<line opacity="0.1" stroke="#000000" stroke-width="1" x1="669" y1="699" x2="669" y2="68"/>
<line opacity="0.1" stroke="#000000" stroke-width="1" x1="678" y1="699" x2="678" y2="68"/>
<line opacity="0.1" stroke="#000000" stroke-width="1" x1="686" y1="699" x2="686" y2="68"/>
<line opacity="0.1" stroke="#000000" stroke-width="1" x1="695" y1="699" x2="695" y2="68"/>
<line opacity="0.1" stroke="#000000" stroke-width="1" x1="704" y1="699" x2="704" y2="68"/>
<line opacity="0.1" stroke="#000000" stroke-width="1" x1="713" y1="699" x2="713" y2="68"/>
<line opacity="0.1" stroke="#000000" stroke-width="1" x1="722" y1="699" x2="722" y2="68"/>
<line opacity="0.1" stroke="#000000" stroke-width="1" x1="731" y1="699" x2="731" y2="68"/>
<line opacity="0.1" stroke="#000000" stroke-width="1" x1="739" y1="699" x2="739" y2="68"/>
<line opacity="0.1" stroke="#000000" stroke-width="1" x1="748" y1="699" x2="748" y2="68"/>
<line opacity="0.1" stroke="#000000" stroke-width="1" x1="757" y1="699" x2="757" y2="68"/>
<line opacity="0.1" stroke="#000000" stroke-width="1" x1="766" y1="699" x2="766" y2="68"/>
<line opacity="0.1" stroke="#000000" stroke-width="1" x1="775" y1="699" x2="775" y2="68"/>
<line opacity="0.1" stroke="#000000" stroke-width="1" x1="784" y1="699" x2="784" y2="68"/>
<line opacity="0.1" stroke="#000000" stroke-width="1" x1="792" y1="699" x2="792" y2="68"/>
<line opacity="0.1" stroke="#000000" stroke-width="1" x1="801" y1="699" x2="801" y2="68"/>
<line opacity="0.1" stroke="#000000" stroke-width="1" x1="810" y1="699" x2="810" y2="68"/>
<line opacity="0.1" stroke="#000000" stroke-width="1" x1="819" y1="699" x2="819" y2="68"/>
<line opacity="0.1" stroke="#000000" stroke-width="1" x1="828" y1="699" x2="828" y2="68"/>
<line opacity="0.1" stroke="#000000" stroke-width="1" x1="837" y1="699" x2="837" y2="68"/>
<line opacity="0.1" stroke="#000000" stroke-width="1" x1="846" y1="699" x2="846" y2="68"/>
<line opacity="0.1" stroke="#000000" stroke-width="1" x1="854" y1="699" x2="854" y2="68"/>
<line opacity="0.1" stroke="#000000" stroke-width="1" x1="863" y1="699" x2="863" y2="68"/>
<line opacity="0.1" stroke="#000000" stroke-width="1" x1="872" y1="699" x2="872" y2="68"/>
<line opacity="0.1" stroke="#000000" stroke-width="1" x1="881" y1="699" x2="881" y2="68"/>
<line opacity="0.1" stroke="#000000" stroke-width="1" x1="890" y1="699" x2="890" y2="68"/>
<line opacity="0.1" stroke="#000000" stroke-width="1" x1="899" y1="699" x2="899" y2="68"/>
<line opacity="0.1" stroke="#000000" stroke-width="1" x1="907" y1="699" x2="907" y2="68"/>
<line opacity="0.1" stroke="#000000" stroke-width="1" x1="916" y1="699" x2="916" y2="68"/>
<line opacity="0.1" stroke="#000000" stroke-width="1" x1="925" y1="699" x2="925" y2="68"/>
<line opacity="0.1" stroke="#000000" stroke-width="1" x1="934" y1="699" x2="934" y2="68"/>
<line opacity="0.1" stroke="#000000" stroke-width="1" x1="943" y1="699" x2="943" y2="68"/>
<line opacity="0.1" stroke="#000000" stroke-width="1" x1="952" y1="699" x2="952" y2="68"/>
<line opacity="0.1" stroke="#000000" stroke-width="1" x1="960" y1="699" x2="960" y2="68"/>
<line opacity="0.1" stroke="#000000" stroke-width="1" x1="969" y1="699" x2="969" y2="68"/>
<line opacity="0.1" stroke="#000000" stroke-width="1" x1="78" y1="699" x2="973" y2="699"/>
<line opacity="0.1" stroke="#000000" stroke-width="1" x1="78" y1="690" x2="973" y2="690"/>
<line opacity="0.1" stroke="#000000" stroke-width="1" x1="78" y1="681" x2="973" y2="681"/>
<line opacity="0.1" stroke="#000000" stroke-width="1" x1="78" y1="672" x2="973" y2="672"/>
<line opacity="0.1" stroke="#000000" stroke-width="1" x1="78" y1="663" x2="973" y2="663"/>
<line opacity="0.1" stroke="#000000" stroke-width="1" x1="78" y1="654" x2="973" y2="654"/>
<line opacity="0.1" stroke="#000000" stroke-width="1" x1="78" y1="645" x2="973" y2="645"/>
<line opacity="0.1" stroke="#000000" stroke-width="1" x1="78" y1="636" x2="973" y2="636"/>
<line opacity="0.1" stroke="#000000" stroke-width="1" x1="78" y1="627" x2="973" y2="627"/>
<line opacity="0.1" stroke="#000000" stroke-width="1" x1="78" y1="618" x2="973" y2="618"/>
<line opacity="0.1" stroke="#000000" stroke-width="1" x1="78" y1="609" x2="973" y2="609"/>
<line opacity="0.1" stroke="#000000" stroke-width="1" x1="78" y1="600" x2="973" y2="600"/>
<line opacity="0.1" stroke="#000000" stroke-width="1" x1="78" y1="592" x2="973" y2="592"/>
<line opacity="0.1" stroke="#000000" stroke-width="1" x1="78" y1="583" x2="973" y2="583"/>
<line opacity="0.1" stroke="#000000" stroke-width="1" x1="78" y1="574" x2="973" y2="574"/>
<line opacity="0.1" stroke="#000000" stroke-width="1" x1="78" y1="565" x2="973" y2="565"/>
<line opacity="0.1" stroke="#000000" stroke-width="1" x1="78" y1="556" x2="973" y2="556"/>
<line opacity="0.1" stroke="#000000" stroke-width="1" x1="78" y1="547" x2="973" y2="547"/>
<line opacity="0.1" stroke="#000000" stroke-width="1" x1="78" y1="538" x2="973" y2="538"/>
<line opacity="0.1" stroke="#000000" stroke-width="1" x1="78" y1="529" x2="973" y2="529"/>
<line opacity="0.1" stroke="#000000" stroke-width="1" x1="78" y1="520" x2="973" y2="520"/>
<line opacity="0.1" stroke="#000000" stroke-width="1" x1="78" y1="511" x2="973" y2="511"/>
<line opacity="0.1" stroke="#000000" stroke-width="1" x1="78" y1="502" x2="973" y2="502"/>
<line opacity="0.1" stroke="#000000" stroke-width="1" x1="78" y1="493" x2="973" y2="493"/>
<line opacity="0.1" stroke="#000000" stroke-width="1" x1="78" y1="485" x2="973" y2="485"/>
<line opacity="0.1" stroke="#000000" stroke-width="1" x1="78" y1="476" x2="973" y2="476"/>
<line opacity="0.1" stroke="#000000" stroke-width="1" x1="78" y1="467" x2="973" y2="467"/>
<line opacity="0.1" stroke="#000000" stroke-width="1" x1="78" y1="458" x2="973" y2="458"/>
<line opacity="0.1" stroke="#000000" stroke-width="1" x1="78" y1="449" x2="973" y2="449"/>
<line opacity="0.1" stroke="#000000" stroke-width="1" x1="78" y1="440" x2="973" y2="440"/>
<line opacity="0.1" stroke="#000000" stroke-width="1" x1="78" y1="431" x2="973" y2="431"/>
<line opacity="0.1" stroke="#000000" stroke-width="1" x1="78" y1="422" x2="973" y2="422"/>
<line opacity="0.1" stroke="#000000" stroke-width="1" x1="78" y1="413" x2="973" y2="413"/>
<line opacity="0.1" stroke="#000000" stroke-width="1" x1="78" y1="404" x2="973" y2="404"/>
<line opacity="0.1" stroke="#000000" stroke-width="1" x1="78" y1="395" x2="973" y2="395"/>
<line opacity="0.1" stroke="#000000" stroke-width="1" x1="78" y1="386" x2="973" y2="386"/>
<line opacity="0.1" stroke="#000000" stroke-width="1" x1="78" y1="378" x2="973" y2="378"/>
<line opacity="0.1" stroke="#000000" stroke-width="1" x1="78" y1="369" x2="973" y2="369"/>
<line opacity="0.1" stroke="#000000" stroke-width="1" x1="78" y1="360" x2="973" y2="360"/>
<line opacity="0.1" stroke="#000000" stroke-width="1" x1="78" y1="351" x2="973" y2="351"/>
<line opacity="0.1" stroke="#000000" stroke-width="1" x1="78" y1="342" x2="973" y2="342"/>
<line opacity="0.1" stroke="#000000" stroke-width="1" x1="78" y1="333" x2="973" y2="333"/>
<line opacity="0.1" stroke="#000000" stroke-width="1" x1="78" y1="324" x2="973" y2="324"/>
<line opacity="0.1" stroke="#000000" stroke-width="1" x1="78" y1="315" x2="973" y2="315"/>
<line opacity="0.1" stroke="#000000" stroke-width="1" x1="78" y1="306" x2="973" y2="306"/>
<line opacity="0.1" stroke="#000000" stroke-width="1" x1="78" y1="297" x2="973" y2="297"/>
<line opacity="0.1" stroke="#000000" stroke-width="1" x1="78" y1="288" x2="973" y2="288"/>
<line opacity="0.1" stroke="#000000" stroke-width="1" x1="78" y1="279" x2="973" y2="279"/>
<line opacity="0.1" stroke="#000000" stroke-width="1" x1="78" y1="271" x2="973" y2="271"/>
<line opacity="0.1" stroke="#000000" stroke-width="1" x1="78" y1="262" x2="973" y2="262"/>
<line opacity="0.1" stroke="#000000" stroke-width="1" x1="78" y1="253" x2="973" y2="253"/>
<line opacity="0.1" stroke="#000000" stroke-width="1" x1="78" y1="244" x2="973" y2="244"/>
<line opacity="0.1" stroke="#000000" stroke-width="1" x1="78" y1="235" x2="973" y2="235"/>
<line opacity="0.1" stroke="#000000" stroke-width="1" x1="78" y1="226" x2="973" y2="226"/>
<line opacity="0.1" stroke="#000000" stroke-width="1" x1="78" y1="217" x2="973" y2="217"/>
<line opacity="0.1" stroke="#000000" stroke-width="1" x1="78" y1="208" x2="973" y2="208"/>
<line opacity="0.1" stroke="#000000" stroke-width="1" x1="78" y1="199" x2="973" y2="199"/>
<line opacity="0.1" stroke="#000000" stroke-width="1" x1="78" y1="190" x2="973" y2="190"/>
<line opacity="0.1" stroke="#000000" stroke-width="1" x1="78" y1="181" x2="973" y2="181"/>
<line opacity="0.1" stroke="#000000" stroke-width="1" x1="78" y1="173" x2="973" y2="173"/>
<line opacity="0.1" stroke="#000000" stroke-width="1" x1="78" y1="164" x2="973" y2="164"/>
<line opacity="0.1" stroke="#000000" stroke-width="1" x1="78" y1="155" x2="973" y2="155"/>
<line opacity="0.1" stroke="#000000" stroke-width="1" x1="78" y1="146" x2="973" y2="146"/>
<line opacity="0.1" stroke="#000000" stroke-width="1" x1="78" y1="137" x2="973" y2="137"/>
<line opacity="0.1" stroke="#000000" stroke-width="1" x1="78" y1="128" x2="973" y2="128"/>
<line opacity="0.1" stroke="#000000" stroke-width="1" x1="78" y1="119" x2="973" y2="119"/>
<line opacity="0.1" stroke="#000000" stroke-width="1" x1="78" y1="110" x2="973" y2="110"/>
<line opacity="0.1" stroke="#000000" stroke-width="1" x1="78" y1="101" x2="973" y2="101"/>
<line opacity="0.1" stroke="#000000" stroke-width="1" x1="78" y1="92" x2="973" y2="92"/>
<line opacity="0.1" stroke="#000000" stroke-width="1" x1="78" y1="83" x2="973" y2="83"/>
<line opacity="0.1" stroke="#000000" stroke-width="1" x1="78" y1="74" x2="973" y2="74"/>
<text x="8" y="384" dy="0.76em" text-anchor="middle" font-family="sans-serif" font-size="9.67741935483871" opacity="1" fill="#000000" transform="rotate(270, 8, 384)">
Memory usage
</text>
<text x="526" y="760" dy="-0.5ex" text-anchor="middle" font-family="sans-serif" font-size="9.67741935483871" opacity="1" fill="#000000">
Time
</text>
<line opacity="0.2" stroke="#000000" stroke-width="1" x1="130" y1="699" x2="130" y2="68"/>
<line opacity="0.2" stroke="#000000" stroke-width="1" x1="306" y1="699" x2="306" y2="68"/>
<line opacity="0.2" stroke="#000000" stroke-width="1" x1="483" y1="699" x2="483" y2="68"/>
<line opacity="0.2" stroke="#000000" stroke-width="1" x1="660" y1="699" x2="660" y2="68"/>
<line opacity="0.2" stroke="#000000" stroke-width="1" x1="837" y1="699" x2="837" y2="68"/>
<line opacity="0.2" stroke="#000000" stroke-width="1" x1="78" y1="699" x2="973" y2="699"/>
<line opacity="0.2" stroke="#000000" stroke-width="1" x1="78" y1="609" x2="973" y2="609"/>
<line opacity="0.2" stroke="#000000" stroke-width="1" x1="78" y1="520" x2="973" y2="520"/>
<line opacity="0.2" stroke="#000000" stroke-width="1" x1="78" y1="431" x2="973" y2="431"/>
<line opacity="0.2" stroke="#000000" stroke-width="1" x1="78" y1="342" x2="973" y2="342"/>
<line opacity="0.2" stroke="#000000" stroke-width="1" x1="78" y1="253" x2="973" y2="253"/>
<line opacity="0.2" stroke="#000000" stroke-width="1" x1="78" y1="164" x2="973" y2="164"/>
<line opacity="0.2" stroke="#000000" stroke-width="1" x1="78" y1="74" x2="973" y2="74"/>
<polyline fill="none" opacity="1" stroke="#000000" stroke-width="1" points="77,68 77,699 "/>
<text x="68" y="699" dy="0.5ex" text-anchor="end" font-family="sans-serif" font-size="9.67741935483871" opacity="1" fill="#000000">
0.0 MB
</text>
<polyline fill="none" opacity="1" stroke="#000000" stroke-width="1" points="72,699 77,699 "/>
<text x="68" y="609" dy="0.5ex" text-anchor="end" font-family="sans-serif" font-size="9.67741935483871" opacity="1" fill="#000000">
4.8 MB
</text>
<polyline fill="none" opacity="1" stroke="#000000" stroke-width="1" points="72,609 77,609 "/>
<text x="68" y="520" dy="0.5ex" text-anchor="end" font-family="sans-serif" font-size="9.67741935483871" opacity="1" fill="#000000">
9.5 MB
</text>
<polyline fill="none" opacity="1" stroke="#000000" stroke-width="1" points="72,520 77,520 "/>
<text x="68" y="431" dy="0.5ex" text-anchor="end" font-family="sans-serif" font-size="9.67741935483871" opacity="1" fill="#000000">
14.3 MB
</text>
<polyline fill="none" opacity="1" stroke="#000000" stroke-width="1" points="72,431 77,431 "/>
<text x="68" y="342" dy="0.5ex" text-anchor="end" font-family="sans-serif" font-size="9.67741935483871" opacity="1" fill="#000000">
19.1 MB
</text>
<polyline fill="none" opacity="1" stroke="#000000" stroke-width="1" points="72,342 77,342 "/>
<text x="68" y="253" dy="0.5ex" text-anchor="end" font-family="sans-serif" font-size="9.67741935483871" opacity="1" fill="#000000">
23.8 MB
</text>
<polyline fill="none" opacity="1" stroke="#000000" stroke-width="1" points="72,253 77,253 "/>
<text x="68" y="164" dy="0.5ex" text-anchor="end" font-family="sans-serif" font-size="9.67741935483871" opacity="1" fill="#000000">
28.6 MB
</text>
<polyline fill="none" opacity="1" stroke="#000000" stroke-width="1" points="72,164 77,164 "/>
<text x="68" y="74" dy="0.5ex" text-anchor="end" font-family="sans-serif" font-size="9.67741935483871" opacity="1" fill="#000000">
33.4 MB
</text>
<polyline fill="none" opacity="1" stroke="#000000" stroke-width="1" points="72,74 77,74 "/>
<polyline fill="none" opacity="1" stroke="#000000" stroke-width="1" points="78,700 973,700 "/>
<text x="130" y="710" dy="0.76em" text-anchor="middle" font-family="sans-serif" font-size="9.67741935483871" opacity="1" fill="#000000">
07 17:46:40
</text>
<polyline fill="none" opacity="1" stroke="#000000" stroke-width="1" points="130,700 130,705 "/>
<text x="306" y="710" dy="0.76em" text-anchor="middle" font-family="sans-serif" font-size="9.67741935483871" opacity="1" fill="#000000">
07 20:33:20
</text>
<polyline fill="none" opacity="1" stroke="#000000" stroke-width="1" points="306,700 306,705 "/>
<text x="483" y="710" dy="0.76em" text-anchor="middle" font-family="sans-serif" font-size="9.67741935483871" opacity="1" fill="#000000">
07 23:20:00
</text>
<polyline fill="none" opacity="1" stroke="#000000" stroke-width="1" points="483,700 483,705 "/>
<text x="660" y="710" dy="0.76em" text-anchor="middle" font-family="sans-serif" font-size="9.67741935483871" opacity="1" fill="#000000">
08 02:06:40
</text>
<polyline fill="none" opacity="1" stroke="#000000" stroke-width="1" points="660,700 660,705 "/>
<text x="837" y="710" dy="0.76em" text-anchor="middle" font-family="sans-serif" font-size="9.67741935483871" opacity="1" fill="#000000">
08 04:53:20
</text>
<polyline fill="none" opacity="1" stroke="#000000" stroke-width="1" points="837,700 837,705 "/>
<polyline fill="none" opacity="1" stroke="#000000" stroke-width="1" points="78,67 974,67 "/>
<text x="130" y="58" dy="-0.5ex" text-anchor="middle" font-family="sans-serif" font-size="9.67741935483871" opacity="1" fill="#000000">
+00:49:04
</text>
<polyline fill="none" opacity="1" stroke="#000000" stroke-width="1" points="130,62 130,67 "/>
<text x="307" y="58" dy="-0.5ex" text-anchor="middle" font-family="sans-serif" font-size="9.67741935483871" opacity="1" fill="#000000">
+03:35:44
</text>
<polyline fill="none" opacity="1" stroke="#000000" stroke-width="1" points="307,62 307,67 "/>
<text x="484" y="58" dy="-0.5ex" text-anchor="middle" font-family="sans-serif" font-size="9.67741935483871" opacity="1" fill="#000000">
+06:22:24
</text>
<polyline fill="none" opacity="1" stroke="#000000" stroke-width="1" points="484,62 484,67 "/>
<text x="661" y="58" dy="-0.5ex" text-anchor="middle" font-family="sans-serif" font-size="9.67741935483871" opacity="1" fill="#000000">
+09:09:04
</text>
<polyline fill="none" opacity="1" stroke="#000000" stroke-width="1" points="661,62 661,67 "/>
<text x="838" y="58" dy="-0.5ex" text-anchor="middle" font-family="sans-serif" font-size="9.67741935483871" opacity="1" fill="#000000">
+11:55:44
</text>
<polyline fill="none" opacity="1" stroke="#000000" stroke-width="1" points="838,62 838,67 "/>
<rect x="83" y="73" width="99" height="45" opacity="0.75" fill="#FFFFFF" stroke="none"/>
<rect x="83" y="73" width="99" height="45" opacity="1" fill="none" stroke="#000000"/>
<text x="123" y="83" dy="0.76em" text-anchor="start" font-family="sans-serif" font-size="9.67741935483871" opacity="1" fill="#000000">
Temporary
</text>
<text x="123" y="98" dy="0.76em" text-anchor="start" font-family="sans-serif" font-size="9.67741935483871" opacity="1" fill="#000000">
Leaked
</text>
<rect x="93" y="83" width="10" height="10" opacity="1" fill="#3CB44B" stroke="none"/>
<rect x="93" y="98" width="10" height="10" opacity="1" fill="#E6194B" stroke="none"/>
</svg>
