<svg width="1024" height="768" viewBox="0 0 1024 768" xmlns="http://www.w3.org/2000/svg">
<rect x="0" y="0" width="1024" height="768" opacity="1" fill="#FFFFFF" stroke="none"/>
<polygon opacity="1" fill="#3CB44B" points="78,694 78,694 78,694 78,694 78,694 78,694 78,694 78,694 78,684 79,684 79,684 79,684 79,684 79,684 79,684 79,684 79,684 79,684 80,684 80,684 80,684 80,684 80,684 80,684 80,669 80,669 80,669 80,669 81,669 81,669 81,669 81,669 81,669 81,669 81,669 81,669 81,669 81,669 82,669 82,669 82,669 82,669 82,669 82,669 82,669 82,669 82,669 83,669 83,669 83,669 83,669 83,669 83,669 83,669 83,669 83,669 83,669 84,639 84,639 84,639 84,639 84,639 84,639 84,639 84,639 84,639 85,639 85,639 85,639 85,639 85,639 85,639 85,639 85,639 85,639 85,639 86,639 86,639 86,639 86,639 86,639 86,639 86,639 86,639 86,639 86,639 87,639 87,639 87,639 87,639 87,639 87,639 87,639 87,639 87,639 88,639 88,639 88,639 88,639 88,639 88,639 88,639 88,639 88,639 88,639 89,639 89,639 89,639 89,639 89,639 89,639 89,639 89,639 89,639 89,639 90,639 90,639 90,639 90,639 90,639 90,580 90,580 90,580 90,580 91,580 91,580 91,580 91,580 91,580 91,580 91,580 91,580 91,580 91,580 92,580 92,580 92,580 92,580 92,580 92,580 92,580 92,580 92,580 92,580 93,580 93,580 93,580 93,580 93,580 93,580 93,580 93,580 93,580 94,580 94,580 94,580 94,580 94,580 94,580 94,580 94,580 94,580 94,580 95,580 95,580 95,580 95,580 95,580 95,580 95,580 95,580 95,580 95,580 96,580 96,580 96,580 96,580 96,580 96,580 96,580 96,580 96,580 97,580 97,580 97,580 97,580 97,580 97,580 97,580 97,580 97,580 97,580 98,580 98,580 98,580 98,580 98,580 98,580 98,580 98,580 98,580 99,580 99,580 99,580 99,580 99,580 99,580 99,580 99,580 99,580 99,580 100,580 100,580 100,580 100,580 100,580 100,580 100,580 100,580 100,580 100,580 101,580 101,580 101,580 101,580 101,580 101,580 101,580 101,580 101,580 102,580 102,580 102,580 102,580 102,580 102,580 102,580 102,580 102,580 102,580 103,580 103,580 103,580 103,580 103,580 103,580 103,580 103,580 103,580 103,580 104,462 104,462 104,462 104,462 104,462 104,462 104,462 104,462 104,462 105,462 105,462 105,462 105,462 105,462 105,462 105,462 105,462 105,462 105,462 106,462 106,462 106,462 106,462 106,462 106,462 106,462 106,462 106,462 106,462 107,462 107,462 107,462 107,462 107,462 107,462 107,462 107,462 107,462 108,462 108,462 108,462 108,462 108,462 108,462 108,462 108,462 108,462 108,462 109,462 109,462 109,462 109,462 109,462 109,462 109,462 109,462 109,462 109,462 110,462 110,462 110,462 110,462 110,462 110,462 110,462 110,462 110,462 111,462 111,462 111,462 111,462 111,462 111,462 111,462 111,462 111,462 111,462 112,462 112,462 112,462 112,462 112,462 112,462 112,462 112,462 112,462 113,462 113,462 113,462 113,462 113,462 113,462 113,462 113,462 113,462 113,462 114,462 114,462 114,462 114,462 114,462 114,462 114,462 114,462 114,462 114,462 115,462 115,462 115,462 115,462 115,462 115,462 115,462 115,462 115,462 116,462 116,462 116,462 116,462 116,462 116,462 116,462 116,462 116,462 116,462 117,462 117,462 117,462 117,462 117,462 117,462 117,462 117,462 117,462 117,462 118,462 118,462 118,462 118,462 118,462 118,462 118,462 118,462 118,462 119,462 119,462 119,462 119,462 119,462 119,462 119,462 119,462 119,462 119,462 120,462 120,462 120,462 120,462 120,462 120,462 120,462 120,462 120,462 120,462 121,462 121,462 121,462 121,462 121,462 121,462 121,462 121,462 121,462 122,462 122,462 122,462 122,462 122,462 122,462 122,462 122,462 122,462 122,462 123,462 123,462 123,462 123,462 123,462 123,462 123,462 123,462 123,462 123,462 124,462 124,462 124,462 124,462 124,462 124,462 124,462 124,462 124,462 125,462 125,462 125,462 125,462 125,462 125,462 125,462 125,462 125,462 125,462 126,462 126,462 126,462 126,462 126,462 126,462 126,462 126,462 126,462 127,462 127,462 127,462 127,462 127,462 127,462 127,462 127,462 127,462 127,462 128,462 128,462 128,462 128,462 128,462 128,462 128,462 128,462 128,462 128,462 129,462 129,462 129,462 129,462 129,462 129,462 129,462 129,225 129,225 130,225 130,225 130,225 130,225 130,225 130,225 130,225 130,225 130,225 130,225 131,225 131,225 131,225 131,225 131,225 131,225 131,225 131,225 131,225 131,225 132,225 132,225 132,225 132,225 132,225 132,225 132,225 132,225 132,225 133,225 133,225 133,225 133,225 133,225 133,225 133,225 133,225 133,225 133,225 134,225 134,225 134,225 134,225 134,225 134,225 134,225 134,225 134,225 134,225 135,225 135,225 135,225 135,225 135,225 135,225 135,225 135,225 135,225 136,225 136,225 136,225 136,225 136,225 136,225 136,225 136,225 136,225 136,225 137,225 137,225 137,225 137,225 137,225 137,225 137,225 137,225 137,225 137,225 138,225 138,225 138,225 138,225 138,225 138,225 138,225 138,225 138,225 139,225 139,225 139,225 139,225 139,225 139,225 139,225 139,225 139,225 139,225 140,225 140,225 140,225 140,225 140,225 140,225 140,225 140,225 140,225 140,225 141,225 141,225 141,225 141,225 141,225 141,225 141,225 141,225 141,225 142,225 142,225 142,225 142,225 142,225 142,225 142,225 142,225 142,225 142,225 143,225 143,225 143,225 143,225 143,225 143,225 143,225 143,225 143,225 144,225 144,225 144,225 144,225 144,225 144,225 144,225 144,225 144,225 144,225 145,225 145,225 145,225 145,225 145,225 145,225 145,225 145,225 145,225 145,225 146,225 146,225 146,225 146,225 146,225 146,225 146,225 146,225 146,225 147,225 147,225 147,225 147,225 147,225 147,225 147,225 147,225 147,225 147,225 148,225 148,225 148,225 148,225 148,225 148,225 148,225 148,225 148,225 148,225 149,225 149,225 149,225 149,225 149,225 149,225 149,225 149,225 149,225 150,225 150,225 150,225 150,225 150,225 150,225 150,225 150,225 150,225 150,225 151,225 151,225 151,225 151,225 151,225 151,225 151,225 151,225 151,225 151,225 152,225 152,225 152,225 152,225 152,225 152,225 152,225 152,225 152,225 153,225 153,225 153,225 153,225 153,225 153,225 153,225 153,225 153,225 153,225 154,225 154,225 154,225 154,225 154,225 154,225 154,225 154,225 154,225 154,225 155,225 155,225 155,225 155,225 155,225 155,225 155,225 155,225 155,225 156,225 156,225 156,225 156,225 156,225 156,225 156,225 156,225 156,225 156,225 157,225 157,225 157,225 157,225 157,225 157,225 157,225 157,225 157,225 158,225 158,225 158,225 158,225 158,225 158,225 158,225 158,225 158,225 158,225 159,225 159,225 159,225 159,225 159,225 159,225 159,225 159,225 159,225 159,225 160,225 160,225 160,225 160,225 160,225 160,225 160,225 160,225 160,225 161,225 161,225 161,225 161,225 161,225 161,225 161,225 161,225 161,225 161,225 162,225 162,225 162,225 162,225 162,225 162,225 162,225 162,225 162,225 162,225 163,225 163,225 163,225 163,225 163,225 163,225 163,225 163,225 163,225 164,225 164,225 164,225 164,225 164,225 164,225 164,225 164,225 164,225 164,225 165,225 165,225 165,225 165,225 165,225 165,225 165,225 165,225 165,225 165,225 166,225 166,225 166,225 166,225 166,225 166,225 166,225 166,225 166,225 167,225 167,225 167,225 167,225 167,225 167,225 167,225 167,225 167,225 167,225 168,225 168,225 168,225 168,225 168,225 168,225 168,225 168,225 168,225 168,225 169,225 169,225 169,225 169,225 169,225 169,225 169,225 169,225 169,225 170,225 170,225 170,225 170,225 170,225 170,225 170,225 170,225 170,225 170,225 171,225 171,225 171,225 171,225 171,225 171,225 171,225 171,225 171,225 172,225 172,225 172,225 172,225 172,225 172,225 172,225 172,225 172,225 172,225 173,225 173,225 173,225 173,225 173,225 173,225 173,225 173,225 173,225 173,225 174,225 174,225 174,225 174,225 174,225 174,225 174,225 174,225 174,225 175,225 175,225 175,225 175,225 175,225 175,225 175,225 175,225 175,225 175,225 176,225 176,225 176,225 176,225 176,225 176,225 176,225 176,225 176,225 176,225 177,225 177,225 177,225 177,225 177,225 177,225 177,225 177,225 177,225 178,225 178,225 178,225 178,225 178,225 178,225 178,225 178,225 178,225 178,225 179,225 179,225 179,225 179,225 179,225 179,225 179,225 179,225 179,225 179,225 180,225 180,225 180,225 180,225 180,225 180,225 180,225 180,225 180,225 181,225 181,225 181,225 181,225 181,225 181,225 181,225 181,225 181,225 181,68 181,68 973,68 973,699 78,699 "/>
<polyline fill="none" opacity="1" stroke="#3CB44B" stroke-width="1" points="78,694 78,694 78,694 78,694 78,694 78,694 78,694 78,694 78,684 79,684 79,684 79,684 79,684 79,684 79,684 79,684 79,684 79,684 80,684 80,684 80,684 80,684 80,684 80,684 80,669 80,669 80,669 80,669 81,669 81,669 81,669 81,669 81,669 81,669 81,669 81,669 81,669 81,669 82,669 82,669 82,669 82,669 82,669 82,669 82,669 82,669 82,669 83,669 83,669 83,669 83,669 83,669 83,669 83,669 83,669 83,669 83,669 84,639 84,639 84,639 84,639 84,639 84,639 84,639 84,639 84,639 85,639 85,639 85,639 85,639 85,639 85,639 85,639 85,639 85,639 85,639 86,639 86,639 86,639 86,639 86,639 86,639 86,639 86,639 86,639 86,639 87,639 87,639 87,639 87,639 87,639 87,639 87,639 87,639 87,639 88,639 88,639 88,639 88,639 88,639 88,639 88,639 88,639 88,639 88,639 89,639 89,639 89,639 89,639 89,639 89,639 89,639 89,639 89,639 89,639 90,639 90,639 90,639 90,639 90,639 90,580 90,580 90,580 90,580 91,580 91,580 91,580 91,580 91,580 91,580 91,580 91,580 91,580 91,580 92,580 92,580 92,580 92,580 92,580 92,580 92,580 92,580 92,580 92,580 93,580 93,580 93,580 93,580 93,580 93,580 93,580 93,580 93,580 94,580 94,580 94,580 94,580 94,580 94,580 94,580 94,580 94,580 94,580 95,580 95,580 95,580 95,580 95,580 95,580 95,580 95,580 95,580 95,580 96,580 96,580 96,580 96,580 96,580 96,580 96,580 96,580 96,580 97,580 97,580 97,580 97,580 97,580 97,580 97,580 97,580 97,580 97,580 98,580 98,580 98,580 98,580 98,580 98,580 98,580 98,580 98,580 99,580 99,580 99,580 99,580 99,580 99,580 99,580 99,580 99,580 99,580 100,580 100,580 100,580 100,580 100,580 100,580 100,580 100,580 100,580 100,580 101,580 101,580 101,580 101,580 101,580 101,580 101,580 101,580 101,580 102,580 102,580 102,580 102,580 102,580 102,580 102,580 102,580 102,580 102,580 103,580 103,580 103,580 103,580 103,580 103,580 103,580 103,580 103,580 103,580 104,462 104,462 104,462 104,462 104,462 104,462 104,462 104,462 104,462 105,462 105,462 105,462 105,462 105,462 105,462 105,462 105,462 105,462 105,462 106,462 106,462 106,462 106,462 106,462 106,462 106,462 106,462 106,462 106,462 107,462 107,462 107,462 107,462 107,462 107,462 107,462 107,462 107,462 108,462 108,462 108,462 108,462 108,462 108,462 108,462 108,462 108,462 108,462 109,462 109,462 109,462 109,462 109,462 109,462 109,462 109,462 109,462 109,462 110,462 110,462 110,462 110,462 110,462 110,462 110,462 110,462 110,462 111,462 111,462 111,462 111,462 111,462 111,462 111,462 111,462 111,462 111,462 112,462 112,462 112,462 112,462 112,462 112,462 112,462 112,462 112,462 113,462 113,462 113,462 113,462 113,462 113,462 113,462 113,462 113,462 113,462 114,462 114,462 114,462 114,462 114,462 114,462 114,462 114,462 114,462 114,462 115,462 115,462 115,462 115,462 115,462 115,462 115,462 115,462 115,462 116,462 116,462 116,462 116,462 116,462 116,462 116,462 116,462 116,462 116,462 117,462 117,462 117,462 117,462 117,462 117,462 117,462 117,462 117,462 117,462 118,462 118,462 118,462 118,462 118,462 118,462 118,462 118,462 118,462 119,462 119,462 119,462 119,462 119,462 119,462 119,462 119,462 119,462 119,462 120,462 120,462 120,462 120,462 120,462 120,462 120,462 120,462 120,462 120,462 121,462 121,462 121,462 121,462 121,462 121,462 121,462 121,462 121,462 122,462 122,462 122,462 122,462 122,462 122,462 122,462 122,462 122,462 122,462 123,462 123,462 123,462 123,462 123,462 123,462 123,462 123,462 123,462 123,462 124,462 124,462 124,462 124,462 124,462 124,462 124,462 124,462 124,462 125,462 125,462 125,462 125,462 125,462 125,462 125,462 125,462 125,462 125,462 126,462 126,462 126,462 126,462 126,462 126,462 126,462 126,462 126,462 127,462 127,462 127,462 127,462 127,462 127,462 127,462 127,462 127,462 127,462 128,462 128,462 128,462 128,462 128,462 128,462 128,462 128,462 128,462 128,462 129,462 129,462 129,462 129,462 129,462 129,462 129,462 129,225 129,225 130,225 130,225 130,225 130,225 130,225 130,225 130,225 130,225 130,225 130,225 131,225 131,225 131,225 131,225 131,225 131,225 131,225 131,225 131,225 131,225 132,225 132,225 132,225 132,225 132,225 132,225 132,225 132,225 132,225 133,225 133,225 133,225 133,225 133,225 133,225 133,225 133,225 133,225 133,225 134,225 134,225 134,225 134,225 134,225 134,225 134,225 134,225 134,225 134,225 135,225 135,225 135,225 135,225 135,225 135,225 135,225 135,225 135,225 136,225 136,225 136,225 136,225 136,225 136,225 136,225 136,225 136,225 136,225 137,225 137,225 137,225 137,225 137,225 137,225 137,225 137,225 137,225 137,225 138,225 138,225 138,225 138,225 138,225 138,225 138,225 138,225 138,225 139,225 139,225 139,225 139,225 139,225 139,225 139,225 139,225 139,225 139,225 140,225 140,225 140,225 140,225 140,225 140,225 140,225 140,225 140,225 140,225 141,225 141,225 141,225 141,225 141,225 141,225 141,225 141,225 141,225 142,225 142,225 142,225 142,225 142,225 142,225 142,225 142,225 142,225 142,225 143,225 143,225 143,225 143,225 143,225 143,225 143,225 143,225 143,225 144,225 144,225 144,225 144,225 144,225 144,225 144,225 144,225 144,225 144,225 145,225 145,225 145,225 145,225 145,225 145,225 145,225 145,225 145,225 145,225 146,225 146,225 146,225 146,225 146,225 146,225 146,225 146,225 146,225 147,225 147,225 147,225 147,225 147,225 147,225 147,225 147,225 147,225 147,225 148,225 148,225 148,225 148,225 148,225 148,225 148,225 148,225 148,225 148,225 149,225 149,225 149,225 149,225 149,225 149,225 149,225 149,225 149,225 150,225 150,225 150,225 150,225 150,225 150,225 150,225 150,225 150,225 150,225 151,225 151,225 151,225 151,225 151,225 151,225 151,225 151,225 151,225 151,225 152,225 152,225 152,225 152,225 152,225 152,225 152,225 152,225 152,225 153,225 153,225 153,225 153,225 153,225 153,225 153,225 153,225 153,225 153,225 154,225 154,225 154,225 154,225 154,225 154,225 154,225 154,225 154,225 154,225 155,225 155,225 155,225 155,225 155,225 155,225 155,225 155,225 155,225 156,225 156,225 156,225 156,225 156,225 156,225 156,225 156,225 156,225 156,225 157,225 157,225 157,225 157,225 157,225 157,225 157,225 157,225 157,225 158,225 158,225 158,225 158,225 158,225 158,225 158,225 158,225 158,225 158,225 159,225 159,225 159,225 159,225 159,225 159,225 159,225 159,225 159,225 159,225 160,225 160,225 160,225 160,225 160,225 160,225 160,225 160,225 160,225 161,225 161,225 161,225 161,225 161,225 161,225 161,225 161,225 161,225 161,225 162,225 162,225 162,225 162,225 162,225 162,225 162,225 162,225 162,225 162,225 163,225 163,225 163,225 163,225 163,225 163,225 163,225 163,225 163,225 164,225 164,225 164,225 164,225 164,225 164,225 164,225 164,225 164,225 164,225 165,225 165,225 165,225 165,225 165,225 165,225 165,225 165,225 165,225 165,225 166,225 166,225 166,225 166,225 166,225 166,225 166,225 166,225 166,225 167,225 167,225 167,225 167,225 167,225 167,225 167,225 167,225 167,225 167,225 168,225 168,225 168,225 168,225 168,225 168,225 168,225 168,225 168,225 168,225 169,225 169,225 169,225 169,225 169,225 169,225 169,225 169,225 169,225 170,225 170,225 170,225 170,225 170,225 170,225 170,225 170,225 170,225 170,225 171,225 171,225 171,225 171,225 171,225 171,225 171,225 171,225 171,225 172,225 172,225 172,225 172,225 172,225 172,225 172,225 172,225 172,225 172,225 173,225 173,225 173,225 173,225 173,225 173,225 173,225 173,225 173,225 173,225 174,225 174,225 174,225 174,225 174,225 174,225 174,225 174,225 174,225 175,225 175,225 175,225 175,225 175,225 175,225 175,225 175,225 175,225 175,225 176,225 176,225 176,225 176,225 176,225 176,225 176,225 176,225 176,225 176,225 177,225 177,225 177,225 177,225 177,225 177,225 177,225 177,225 177,225 178,225 178,225 178,225 178,225 178,225 178,225 178,225 178,225 178,225 178,225 179,225 179,225 179,225 179,225 179,225 179,225 179,225 179,225 179,225 179,225 180,225 180,225 180,225 180,225 180,225 180,225 180,225 180,225 180,225 181,225 181,225 181,225 181,225 181,225 181,225 181,225 181,225 181,225 181,68 181,68 973,68 "/>
<polygon opacity="1" fill="#E6194B" points="78,699 78,699 78,699 78,699 78,699 78,699 78,699 78,699 78,699 79,699 79,699 79,699 79,699 79,699 79,699 79,699 79,699 79,699 80,699 80,699 80,699 80,699 80,699 80,699 80,699 80,699 80,699 80,699 81,699 81,699 81,699 81,699 81,699 81,699 81,699 81,699 81,699 81,699 82,699 82,699 82,699 82,699 82,699 82,699 82,699 82,699 82,699 83,699 83,699 83,699 83,699 83,699 83,699 83,699 83,699 83,699 83,699 84,699 84,699 84,699 84,699 84,699 84,699 84,699 84,699 84,699 85,699 85,699 85,699 85,699 85,699 85,699 85,699 85,699 85,699 85,699 86,699 86,699 86,699 86,699 86,699 86,699 86,699 86,699 86,699 86,699 87,699 87,699 87,699 87,699 87,699 87,699 87,699 87,699 87,699 88,699 88,699 88,699 88,699 88,699 88,699 88,699 88,699 88,699 88,699 89,699 89,699 89,699 89,699 89,699 89,699 89,699 89,699 89,699 89,699 90,699 90,699 90,699 90,699 90,699 90,699 90,699 90,699 90,699 91,699 91,699 91,699 91,699 91,699 91,699 91,699 91,699 91,699 91,699 92,699 92,699 92,699 92,699 92,699 92,699 92,699 92,699 92,699 92,699 93,699 93,699 93,699 93,699 93,699 93,699 93,699 93,699 93,699 94,699 94,699 94,699 94,699 94,699 94,699 94,699 94,699 94,699 94,699 95,699 95,699 95,699 95,699 95,699 95,699 95,699 95,699 95,699 95,699 96,699 96,699 96,699 96,699 96,699 96,699 96,699 96,699 96,699 97,699 97,699 97,699 97,699 97,699 97,699 97,699 97,699 97,699 97,699 98,699 98,699 98,699 98,699 98,699 98,699 98,699 98,699 98,699 99,699 99,699 99,699 99,699 99,699 99,699 99,699 99,699 99,699 99,699 100,699 100,699 100,699 100,699 100,699 100,699 100,699 100,699 100,699 100,699 101,699 101,699 101,699 101,699 101,699 101,699 101,699 101,699 101,699 102,699 102,699 102,699 102,699 102,699 102,699 102,699 102,699 102,699 102,699 103,699 103,699 103,699 103,699 103,699 103,699 103,699 103,699 103,699 103,699 104,699 104,699 104,699 104,699 104,699 104,699 104,699 104,699 104,699 105,699 105,699 105,699 105,699 105,699 105,699 105,699 105,699 105,699 105,699 106,699 106,699 106,699 106,699 106,699 106,699 106,699 106,699 106,699 106,699 107,699 107,699 107,699 107,699 107,699 107,699 107,699 107,699 107,699 108,699 108,699 108,699 108,699 108,699 108,699 108,699 108,699 108,699 108,699 109,699 109,699 109,699 109,699 109,699 109,699 109,699 109,699 109,699 109,699 110,699 110,699 110,699 110,699 110,699 110,699 110,699 110,699 110,699 111,699 111,699 111,699 111,699 111,699 111,699 111,699 111,699 111,699 111,699 112,699 112,699 112,699 112,699 112,699 112,699 112,699 112,699 112,699 113,699 113,699 113,699 113,699 113,699 113,699 113,699 113,699 113,699 113,699 114,699 114,699 114,699 114,699 114,699 114,699 114,699 114,699 114,699 114,699 115,699 115,699 115,699 115,699 115,699 115,699 115,699 115,699 115,699 116,699 116,699 116,699 116,699 116,699 116,699 116,699 116,699 116,699 116,699 117,699 117,699 117,699 117,699 117,699 117,699 117,699 117,699 117,699 117,699 118,699 118,699 118,699 118,699 118,699 118,699 118,699 118,699 118,699 119,699 119,699 119,699 119,699 119,699 119,699 119,699 119,699 119,699 119,699 120,699 120,699 120,699 120,699 120,699 120,699 120,699 120,699 120,699 120,699 121,699 121,699 121,699 121,699 121,699 121,699 121,699 121,699 121,699 122,699 122,699 122,699 122,699 122,699 122,699 122,699 122,699 122,699 122,699 123,699 123,699 123,699 123,699 123,699 123,699 123,699 123,699 123,699 123,699 124,699 124,699 124,699 124,699 124,699 124,699 124,699 124,699 124,699 125,699 125,699 125,699 125,699 125,699 125,699 125,699 125,699 125,699 125,699 126,699 126,699 126,699 126,699 126,699 126,699 126,699 126,699 126,699 127,699 127,699 127,699 127,699 127,699 127,699 127,699 127,699 127,699 127,699 128,699 128,699 128,699 128,699 128,699 128,699 128,699 128,699 128,699 128,699 129,699 129,699 129,699 129,699 129,699 129,699 129,699 129,699 129,699 130,699 130,699 130,699 130,699 130,699 130,699 130,699 130,699 130,699 130,699 131,699 131,699 131,699 131,699 131,699 131,699 131,699 131,699 131,699 131,699 132,699 132,699 132,699 132,699 132,699 132,699 132,699 132,699 132,699 133,699 133,699 133,699 133,699 133,699 133,699 133,699 133,699 133,699 133,699 134,699 134,699 134,699 134,699 134,699 134,699 134,699 134,699 134,699 134,699 135,699 135,699 135,699 135,699 135,699 135,699 135,699 135,699 135,699 136,699 136,699 136,699 136,699 136,699 136,699 136,699 136,699 136,699 136,699 137,699 137,699 137,699 137,699 137,699 137,699 137,699 137,699 137,699 137,699 138,699 138,699 138,699 138,699 138,699 138,699 138,699 138,699 138,699 139,699 139,699 139,699 139,699 139,699 139,699 139,699 139,699 139,699 139,699 140,699 140,699 140,699 140,699 140,699 140,699 140,699 140,699 140,699 140,699 141,699 141,699 141,699 141,699 141,699 141,699 141,699 141,699 141,699 142,699 142,699 142,699 142,699 142,699 142,699 142,699 142,699 142,699 142,699 143,699 143,699 143,699 143,699 143,699 143,699 143,699 143,699 143,699 144,699 144,699 144,699 144,699 144,699 144,699 144,699 144,699 144,699 144,699 145,699 145,699 145,699 145,699 145,699 145,699 145,699 145,699 145,699 145,699 146,699 146,699 146,699 146,699 146,699 146,699 146,699 146,699 146,699 147,699 147,699 147,699 147,699 147,699 147,699 147,699 147,699 147,699 147,699 148,699 148,699 148,699 148,699 148,699 148,699 148,699 148,699 148,699 148,699 149,699 149,699 149,699 149,699 149,699 149,699 149,699 149,699 149,699 150,699 150,699 150,699 150,699 150,699 150,699 150,699 150,699 150,699 150,699 151,699 151,699 151,699 151,699 151,699 151,699 151,699 151,699 151,699 151,699 152,699 152,699 152,699 152,699 152,699 152,699 152,699 152,699 152,699 153,699 153,699 153,699 153,699 153,699 153,699 153,699 153,699 153,699 153,699 154,699 154,699 154,699 154,699 154,699 154,699 154,699 154,699 154,699 154,699 155,699 155,699 155,699 155,699 155,699 155,699 155,699 155,699 155,699 156,699 156,699 156,699 156,699 156,699 156,699 156,699 156,699 156,699 156,699 157,699 157,699 157,699 157,699 157,699 157,699 157,699 157,699 157,699 158,699 158,699 158,699 158,699 158,699 158,699 158,699 158,699 158,699 158,699 159,699 159,699 159,699 159,699 159,699 159,699 159,699 159,699 159,699 159,699 160,699 160,699 160,699 160,699 160,699 160,699 160,699 160,699 160,699 161,699 161,699 161,699 161,699 161,699 161,699 161,699 161,699 161,699 161,699 162,699 162,699 162,699 162,699 162,699 162,699 162,699 162,699 162,699 162,699 163,699 163,699 163,699 163,699 163,699 163,699 163,699 163,699 163,699 164,699 164,699 164,699 164,699 164,699 164,699 164,699 164,699 164,699 164,699 165,699 165,699 165,699 165,699 165,699 165,699 165,699 165,699 165,699 165,699 166,699 166,699 166,699 166,699 166,699 166,699 166,699 166,699 166,699 167,699 167,699 167,699 167,699 167,699 167,699 167,699 167,699 167,699 167,699 168,699 168,699 168,699 168,699 168,699 168,699 168,699 168,699 168,699 168,699 169,699 169,699 169,699 169,699 169,699 169,699 169,699 169,699 169,699 170,699 170,699 170,699 170,699 170,699 170,699 170,699 170,699 170,699 170,699 171,699 171,699 171,699 171,699 171,699 171,699 171,699 171,699 171,699 172,699 172,699 172,699 172,699 172,699 172,699 172,699 172,699 172,699 172,699 173,699 173,699 173,699 173,699 173,699 173,699 173,699 173,699 173,699 173,699 174,699 174,699 174,699 174,699 174,699 174,699 174,699 174,699 174,699 175,699 175,699 175,699 175,699 175,699 175,699 175,699 175,699 175,699 175,699 176,699 176,699 176,699 176,699 176,699 176,699 176,699 176,699 176,699 176,699 177,699 177,699 177,699 177,699 177,699 177,699 177,699 177,699 177,699 178,699 178,699 178,699 178,699 178,699 178,699 178,699 178,699 178,699 178,699 179,699 179,699 179,699 179,699 179,699 179,699 179,699 179,699 179,699 179,699 180,699 180,699 180,699 180,699 180,699 180,699 180,699 180,699 180,699 181,699 181,699 181,699 181,699 181,699 181,699 181,699 181,699 181,699 181,68 181,68 973,68 973,699 78,699 "/>
<polyline fill="none" opacity="1" stroke="#E6194B" stroke-width="1" points="78,699 78,699 78,699 78,699 78,699 78,699 78,699 78,699 78,699 79,699 79,699 79,699 79,699 79,699 79,699 79,699 79,699 79,699 80,699 80,699 80,699 80,699 80,699 80,699 80,699 80,699 80,699 80,699 81,699 81,699 81,699 81,699 81,699 81,699 81,699 81,699 81,699 81,699 82,699 82,699 82,699 82,699 82,699 82,699 82,699 82,699 82,699 83,699 83,699 83,699 83,699 83,699 83,699 83,699 83,699 83,699 83,699 84,699 84,699 84,699 84,699 84,699 84,699 84,699 84,699 84,699 85,699 85,699 85,699 85,699 85,699 85,699 85,699 85,699 85,699 85,699 86,699 86,699 86,699 86,699 86,699 86,699 86,699 86,699 86,699 86,699 87,699 87,699 87,699 87,699 87,699 87,699 87,699 87,699 87,699 88,699 88,699 88,699 88,699 88,699 88,699 88,699 88,699 88,699 88,699 89,699 89,699 89,699 89,699 89,699 89,699 89,699 89,699 89,699 89,699 90,699 90,699 90,699 90,699 90,699 90,699 90,699 90,699 90,699 91,699 91,699 91,699 91,699 91,699 91,699 91,699 91,699 91,699 91,699 92,699 92,699 92,699 92,699 92,699 92,699 92,699 92,699 92,699 92,699 93,699 93,699 93,699 93,699 93,699 93,699 93,699 93,699 93,699 94,699 94,699 94,699 94,699 94,699 94,699 94,699 94,699 94,699 94,699 95,699 95,699 95,699 95,699 95,699 95,699 95,699 95,699 95,699 95,699 96,699 96,699 96,699 96,699 96,699 96,699 96,699 96,699 96,699 97,699 97,699 97,699 97,699 97,699 97,699 97,699 97,699 97,699 97,699 98,699 98,699 98,699 98,699 98,699 98,699 98,699 98,699 98,699 99,699 99,699 99,699 99,699 99,699 99,699 99,699 99,699 99,699 99,699 100,699 100,699 100,699 100,699 100,699 100,699 100,699 100,699 100,699 100,699 101,699 101,699 101,699 101,699 101,699 101,699 101,699 101,699 101,699 102,699 102,699 102,699 102,699 102,699 102,699 102,699 102,699 102,699 102,699 103,699 103,699 103,699 103,699 103,699 103,699 103,699 103,699 103,699 103,699 104,699 104,699 104,699 104,699 104,699 104,699 104,699 104,699 104,699 105,699 105,699 105,699 105,699 105,699 105,699 105,699 105,699 105,699 105,699 106,699 106,699 106,699 106,699 106,699 106,699 106,699 106,699 106,699 106,699 107,699 107,699 107,699 107,699 107,699 107,699 107,699 107,699 107,699 108,699 108,699 108,699 108,699 108,699 108,699 108,699 108,699 108,699 108,699 109,699 109,699 109,699 109,699 109,699 109,699 109,699 109,699 109,699 109,699 110,699 110,699 110,699 110,699 110,699 110,699 110,699 110,699 110,699 111,699 111,699 111,699 111,699 111,699 111,699 111,699 111,699 111,699 111,699 112,699 112,699 112,699 112,699 112,699 112,699 112,699 112,699 112,699 113,699 113,699 113,699 113,699 113,699 113,699 113,699 113,699 113,699 113,699 114,699 114,699 114,699 114,699 114,699 114,699 114,699 114,699 114,699 114,699 115,699 115,699 115,699 115,699 115,699 115,699 115,699 115,699 115,699 116,699 116,699 116,699 116,699 116,699 116,699 116,699 116,699 116,699 116,699 117,699 117,699 117,699 117,699 117,699 117,699 117,699 117,699 117,699 117,699 118,699 118,699 118,699 118,699 118,699 118,699 118,699 118,699 118,699 119,699 119,699 119,699 119,699 119,699 119,699 119,699 119,699 119,699 119,699 120,699 120,699 120,699 120,699 120,699 120,699 120,699 120,699 120,699 120,699 121,699 121,699 121,699 121,699 121,699 121,699 121,699 121,699 121,699 122,699 122,699 122,699 122,699 122,699 122,699 122,699 122,699 122,699 122,699 123,699 123,699 123,699 123,699 123,699 123,699 123,699 123,699 123,699 123,699 124,699 124,699 124,699 124,699 124,699 124,699 124,699 124,699 124,699 125,699 125,699 125,699 125,699 125,699 125,699 125,699 125,699 125,699 125,699 126,699 126,699 126,699 126,699 126,699 126,699 126,699 126,699 126,699 127,699 127,699 127,699 127,699 127,699 127,699 127,699 127,699 127,699 127,699 128,699 128,699 128,699 128,699 128,699 128,699 128,699 128,699 128,699 128,699 129,699 129,699 129,699 129,699 129,699 129,699 129,699 129,699 129,699 130,699 130,699 130,699 130,699 130,699 130,699 130,699 130,699 130,699 130,699 131,699 131,699 131,699 131,699 131,699 131,699 131,699 131,699 131,699 131,699 132,699 132,699 132,699 132,699 132,699 132,699 132,699 132,699 132,699 133,699 133,699 133,699 133,699 133,699 133,699 133,699 133,699 133,699 133,699 134,699 134,699 134,699 134,699 134,699 134,699 134,699 134,699 134,699 134,699 135,699 135,699 135,699 135,699 135,699 135,699 135,699 135,699 135,699 136,699 136,699 136,699 136,699 136,699 136,699 136,699 136,699 136,699 136,699 137,699 137,699 137,699 137,699 137,699 137,699 137,699 137,699 137,699 137,699 138,699 138,699 138,699 138,699 138,699 138,699 138,699 138,699 138,699 139,699 139,699 139,699 139,699 139,699 139,699 139,699 139,699 139,699 139,699 140,699 140,699 140,699 140,699 140,699 140,699 140,699 140,699 140,699 140,699 141,699 141,699 141,699 141,699 141,699 141,699 141,699 141,699 141,699 142,699 142,699 142,699 142,699 142,699 142,699 142,699 142,699 142,699 142,699 143,699 143,699 143,699 143,699 143,699 143,699 143,699 143,699 143,699 144,699 144,699 144,699 144,699 144,699 144,699 144,699 144,699 144,699 144,699 145,699 145,699 145,699 145,699 145,699 145,699 145,699 145,699 145,699 145,699 146,699 146,699 146,699 146,699 146,699 146,699 146,699 146,699 146,699 147,699 147,699 147,699 147,699 147,699 147,699 147,699 147,699 147,699 147,699 148,699 148,699 148,699 148,699 148,699 148,699 148,699 148,699 148,699 148,699 149,699 149,699 149,699 149,699 149,699 149,699 149,699 149,699 149,699 150,699 150,699 150,699 150,699 150,699 150,699 150,699 150,699 150,699 150,699 151,699 151,699 151,699 151,699 151,699 151,699 151,699 151,699 151,699 151,699 152,699 152,699 152,699 152,699 152,699 152,699 152,699 152,699 152,699 153,699 153,699 153,699 153,699 153,699 153,699 153,699 153,699 153,699 153,699 154,699 154,699 154,699 154,699 154,699 154,699 154,699 154,699 154,699 154,699 155,699 155,699 155,699 155,699 155,699 155,699 155,699 155,699 155,699 156,699 156,699 156,699 156,699 156,699 156,699 156,699 156,699 156,699 156,699 157,699 157,699 157,699 157,699 157,699 157,699 157,699 157,699 157,699 158,699 158,699 158,699 158,699 158,699 158,699 158,699 158,699 158,699 158,699 159,699 159,699 159,699 159,699 159,699 159,699 159,699 159,699 159,699 159,699 160,699 160,699 160,699 160,699 160,699 160,699 160,699 160,699 160,699 161,699 161,699 161,699 161,699 161,699 161,699 161,699 161,699 161,699 161,699 162,699 162,699 162,699 162,699 162,699 162,699 162,699 162,699 162,699 162,699 163,699 163,699 163,699 163,699 163,699 163,699 163,699 163,699 163,699 164,699 164,699 164,699 164,699 164,699 164,699 164,699 164,699 164,699 164,699 165,699 165,699 165,699 165,699 165,699 165,699 165,699 165,699 165,699 165,699 166,699 166,699 166,699 166,699 166,699 166,699 166,699 166,699 166,699 167,699 167,699 167,699 167,699 167,699 167,699 167,699 167,699 167,699 167,699 168,699 168,699 168,699 168,699 168,699 168,699 168,699 168,699 168,699 168,699 169,699 169,699 169,699 169,699 169,699 169,699 169,699 169,699 169,699 170,699 170,699 170,699 170,699 170,699 170,699 170,699 170,699 170,699 170,699 171,699 171,699 171,699 171,699 171,699 171,699 171,699 171,699 171,699 172,699 172,699 172,699 172,699 172,699 172,699 172,699 172,699 172,699 172,699 173,699 173,699 173,699 173,699 173,699 173,699 173,699 173,699 173,699 173,699 174,699 174,699 174,699 174,699 174,699 174,699 174,699 174,699 174,699 175,699 175,699 175,699 175,699 175,699 175,699 175,699 175,699 175,699 175,699 176,699 176,699 176,699 176,699 176,699 176,699 176,699 176,699 176,699 176,699 177,699 177,699 177,699 177,699 177,699 177,699 177,699 177,699 177,699 178,699 178,699 178,699 178,699 178,699 178,699 178,699 178,699 178,699 178,699 179,699 179,699 179,699 179,699 179,699 179,699 179,699 179,699 179,699 179,699 180,699 180,699 180,699 180,699 180,699 180,699 180,699 180,699 180,699 181,699 181,699 181,699 181,699 181,699 181,699 181,699 181,699 181,699 181,68 181,68 973,68 "/>
<line opacity="0.1" stroke="#000000" stroke-width="1" x1="84" y1="699" x2="84" y2="68"/>
<line opacity="0.1" stroke="#000000" stroke-width="1" x1="95" y1="699" x2="95" y2="68"/>
<line opacity="0.1" stroke="#000000" stroke-width="1" x1="106" y1="699" x2="106" y2="68"/>
<line opacity="0.1" stroke="#000000" stroke-width="1" x1="118" y1="699" x2="118" y2="68"/>
<line opacity="0.1" stroke="#000000" stroke-width="1" x1="129" y1="699" x2="129" y2="68"/>
<line opacity="0.1" stroke="#000000" stroke-width="1" x1="140" y1="699" x2="140" y2="68"/>
<line opacity="0.1" stroke="#000000" stroke-width="1" x1="151" y1="699" x2="151" y2="68"/>
<line opacity="0.1" stroke="#000000" stroke-width="1" x1="162" y1="699" x2="162" y2="68"/>
<line opacity="0.1" stroke="#000000" stroke-width="1" x1="174" y1="699" x2="174" y2="68"/>
<line opacity="0.1" stroke="#000000" stroke-width="1" x1="185" y1="699" x2="185" y2="68"/>
<line opacity="0.1" stroke="#000000" stroke-width="1" x1="196" y1="699" x2="196" y2="68"/>
<line opacity="0.1" stroke="#000000" stroke-width="1" x1="207" y1="699" x2="207" y2="68"/>
<line opacity="0.1" stroke="#000000" stroke-width="1" x1="218" y1="699" x2="218" y2="68"/>
<line opacity="0.1" stroke="#000000" stroke-width="1" x1="229" y1="699" x2="229" y2="68"/>
<line opacity="0.1" stroke="#000000" stroke-width="1" x1="241" y1="699" x2="241" y2="68"/>
<line opacity="0.1" stroke="#000000" stroke-width="1" x1="252" y1="699" x2="252" y2="68"/>
<line opacity="0.1" stroke="#000000" stroke-width="1" x1="263" y1="699" x2="263" y2="68"/>
<line opacity="0.1" stroke="#000000" stroke-width="1" x1="274" y1="699" x2="274" y2="68"/>
<line opacity="0.1" stroke="#000000" stroke-width="1" x1="285" y1="699" x2="285" y2="68"/>
<line opacity="0.1" stroke="#000000" stroke-width="1" x1="297" y1="699" x2="297" y2="68"/>
<line opacity="0.1" stroke="#000000" stroke-width="1" x1="308" y1="699" x2="308" y2="68"/>
<line opacity="0.1" stroke="#000000" stroke-width="1" x1="319" y1="699" x2="319" y2="68"/>
<line opacity="0.1" stroke="#000000" stroke-width="1" x1="330" y1="699" x2="330" y2="68"/>
<line opacity="0.1" stroke="#000000" stroke-width="1" x1="341" y1="699" x2="341" y2="68"/>
<line opacity="0.1" stroke="#000000" stroke-width="1" x1="352" y1="699" x2="352" y2="68"/>
<line opacity="0.1" stroke="#000000" stroke-width="1" x1="364" y1="699" x2="364" y2="68"/>
<line opacity="0.1" stroke="#000000" stroke-width="1" x1="375" y1="699" x2="375" y2="68"/>
<line opacity="0.1" stroke="#000000" stroke-width="1" x1="386" y1="699" x2="386" y2="68"/>
<line opacity="0.1" stroke="#000000" stroke-width="1" x1="397" y1="699" x2="397" y2="68"/>
<line opacity="0.1" stroke="#000000" stroke-width="1" x1="408" y1="699" x2="408" y2="68"/>
<line opacity="0.1" stroke="#000000" stroke-width="1" x1="420" y1="699" x2="420" y2="68"/>
<line opacity="0.1" stroke="#000000" stroke-width="1" x1="431" y1="699" x2="431" y2="68"/>
<line opacity="0.1" stroke="#000000" stroke-width="1" x1="442" y1="699" x2="442" y2="68"/>
<line opacity="0.1" stroke="#000000" stroke-width="1" x1="453" y1="699" x2="453" y2="68"/>
<line opacity="0.1" stroke="#000000" stroke-width="1" x1="464" y1="699" x2="464" y2="68"/>
<line opacity="0.1" stroke="#000000" stroke-width="1" x1="476" y1="699" x2="476" y2="68"/>
<line opacity="0.1" stroke="#000000" stroke-width="1" x1="487" y1="699" x2="487" y2="68"/>
<line opacity="0.1" stroke="#000000" stroke-width="1" x1="498" y1="699" x2="498" y2="68"/>
<line opacity="0.1" stroke="#000000" stroke-width="1" x1="509" y1="699" x2="509" y2="68"/>
<line opacity="0.1" stroke="#000000" stroke-width="1" x1="520" y1="699" x2="520" y2="68"/>
<line opacity="0.1" stroke="#000000" stroke-width="1" x1="531" y1="699" x2="531" y2="68"/>
<line opacity="0.1" stroke="#000000" stroke-width="1" x1="543" y1="699" x2="543" y2="68"/>
<line opacity="0.1" stroke="#000000" stroke-width="1" x1="554" y1="699" x2="554" y2="68"/>
<line opacity="0.1" stroke="#000000" stroke-width="1" x1="565" y1="699" x2="565" y2="68"/>
<line opacity="0.1" stroke="#000000" stroke-width="1" x1="576" y1="699" x2="576" y2="68"/>
<line opacity="0.1" stroke="#000000" stroke-width="1" x1="587" y1="699" x2="587" y2="68"/>
<line opacity="0.1" stroke="#000000" stroke-width="1" x1="599" y1="699" x2="599" y2="68"/>
<line opacity="0.1" stroke="#000000" stroke-width="1" x1="610" y1="699" x2="610" y2="68"/>
<line opacity="0.1" stroke="#000000" stroke-width="1" x1="621" y1="699" x2="621" y2="68"/>
<line opacity="0.1" stroke="#000000" stroke-width="1" x1="632" y1="699" x2="632" y2="68"/>
<line opacity="0.1" stroke="#000000" stroke-width="1" x1="643" y1="699" x2="643" y2="68"/>
<line opacity="0.1" stroke="#000000" stroke-width="1" x1="654" y1="699" x2="654" y2="68"/>
<line opacity="0.1" stroke="#000000" stroke-width="1" x1="666" y1="699" x2="666" y2="68"/>
<line opacity="0.1" stroke="#000000" stroke-width="1" x1="677" y1="699" x2="677" y2="68"/>
<line opacity="0.1" stroke="#000000" stroke-width="1" x1="688" y1="699" x2="688" y2="68"/>
<line opacity="0.1" stroke="#000000" stroke-width="1" x1="699" y1="699" x2="699" y2="68"/>
<line opacity="0.1" stroke="#000000" stroke-width="1" x1="710" y1="699" x2="710" y2="68"/>
<line opacity="0.1" stroke="#000000" stroke-width="1" x1="722" y1="699" x2="722" y2="68"/>
<line opacity="0.1" stroke="#000000" stroke-width="1" x1="733" y1="699" x2="733" y2="68"/>
<line opacity="0.1" stroke="#000000" stroke-width="1" x1="744" y1="699" x2="744" y2="68"/>
<line opacity="0.1" stroke="#000000" stroke-width="1" x1="755" y1="699" x2="755" y2="68"/>
<line opacity="0.1" stroke="#000000" stroke-width="1" x1="766" y1="699" x2="766" y2="68"/>
<line opacity="0.1" stroke="#000000" stroke-width="1" x1="777" y1="699" x2="777" y2="68"/>
<line opacity="0.1" stroke="#000000" stroke-width="1" x1="789" y1="699" x2="789" y2="68"/>
<line opacity="0.1" stroke="#000000" stroke-width="1" x1="800" y1="699" x2="800" y2="68"/>
<line opacity="0.1" stroke="#000000" stroke-width="1" x1="811" y1="699" x2="811" y2="68"/>
<line opacity="0.1" stroke="#000000" stroke-width="1" x1="822" y1="699" x2="822" y2="68"/>
<line opacity="0.1" stroke="#000000" stroke-width="1" x1="833" y1="699" x2="833" y2="68"/>
<line opacity="0.1" stroke="#000000" stroke-width="1" x1="845" y1="699" x2="845" y2="68"/>
<line opacity="0.1" stroke="#000000" stroke-width="1" x1="856" y1="699" x2="856" y2="68"/>
<line opacity="0.1" stroke="#000000" stroke-width="1" x1="867" y1="699" x2="867" y2="68"/>
<line opacity="0.1" stroke="#000000" stroke-width="1" x1="878" y1="699" x2="878" y2="68"/>
<line opacity="0.1" stroke="#000000" stroke-width="1" x1="889" y1="699" x2="889" y2="68"/>
<line opacity="0.1" stroke="#000000" stroke-width="1" x1="900" y1="699" x2="900" y2="68"/>
<line opacity="0.1" stroke="#000000" stroke-width="1" x1="912" y1="699" x2="912" y2="68"/>
<line opacity="0.1" stroke="#000000" stroke-width="1" x1="923" y1="699" x2="923" y2="68"/>
<line opacity="0.1" stroke="#000000" stroke-width="1" x1="934" y1="699" x2="934" y2="68"/>
<line opacity="0.1" stroke="#000000" stroke-width="1" x1="945" y1="699" x2="945" y2="68"/>
<line opacity="0.1" stroke="#000000" stroke-width="1" x1="956" y1="699" x2="956" y2="68"/>
<line opacity="0.1" stroke="#000000" stroke-width="1" x1="968" y1="699" x2="968" y2="68"/>
<line opacity="0.1" stroke="#000000" stroke-width="1" x1="78" y1="699" x2="973" y2="699"/>
<line opacity="0.1" stroke="#000000" stroke-width="1" x1="78" y1="689" x2="973" y2="689"/>
<line opacity="0.1" stroke="#000000" stroke-width="1" x1="78" y1="679" x2="973" y2="679"/>
<line opacity="0.1" stroke="#000000" stroke-width="1" x1="78" y1="669" x2="973" y2="669"/>
<line opacity="0.1" stroke="#000000" stroke-width="1" x1="78" y1="659" x2="973" y2="659"/>
<line opacity="0.1" stroke="#000000" stroke-width="1" x1="78" y1="649" x2="973" y2="649"/>
<line opacity="0.1" stroke="#000000" stroke-width="1" x1="78" y1="639" x2="973" y2="639"/>
<line opacity="0.1" stroke="#000000" stroke-width="1" x1="78" y1="629" x2="973" y2="629"/>
<line opacity="0.1" stroke="#000000" stroke-width="1" x1="78" y1="619" x2="973" y2="619"/>
<line opacity="0.1" stroke="#000000" stroke-width="1" x1="78" y1="609" x2="973" y2="609"/>
<line opacity="0.1" stroke="#000000" stroke-width="1" x1="78" y1="599" x2="973" y2="599"/>
<line opacity="0.1" stroke="#000000" stroke-width="1" x1="78" y1="589" x2="973" y2="589"/>
<line opacity="0.1" stroke="#000000" stroke-width="1" x1="78" y1="579" x2="973" y2="579"/>
<line opacity="0.1" stroke="#000000" stroke-width="1" x1="78" y1="569" x2="973" y2="569"/>
<line opacity="0.1" stroke="#000000" stroke-width="1" x1="78" y1="559" x2="973" y2="559"/>
<line opacity="0.1" stroke="#000000" stroke-width="1" x1="78" y1="549" x2="973" y2="549"/>
<line opacity="0.1" stroke="#000000" stroke-width="1" x1="78" y1="539" x2="973" y2="539"/>
<line opacity="0.1" stroke="#000000" stroke-width="1" x1="78" y1="529" x2="973" y2="529"/>
<line opacity="0.1" stroke="#000000" stroke-width="1" x1="78" y1="519" x2="973" y2="519"/>
<line opacity="0.1" stroke="#000000" stroke-width="1" x1="78" y1="510" x2="973" y2="510"/>
<line opacity="0.1" stroke="#000000" stroke-width="1" x1="78" y1="500" x2="973" y2="500"/>
<line opacity="0.1" stroke="#000000" stroke-width="1" x1="78" y1="490" x2="973" y2="490"/>
<line opacity="0.1" stroke="#000000" stroke-width="1" x1="78" y1="480" x2="973" y2="480"/>
<line opacity="0.1" stroke="#000000" stroke-width="1" x1="78" y1="470" x2="973" y2="470"/>
<line opacity="0.1" stroke="#000000" stroke-width="1" x1="78" y1="460" x2="973" y2="460"/>
<line opacity="0.1" stroke="#000000" stroke-width="1" x1="78" y1="450" x2="973" y2="450"/>
<line opacity="0.1" stroke="#000000" stroke-width="1" x1="78" y1="440" x2="973" y2="440"/>
<line opacity="0.1" stroke="#000000" stroke-width="1" x1="78" y1="430" x2="973" y2="430"/>
<line opacity="0.1" stroke="#000000" stroke-width="1" x1="78" y1="420" x2="973" y2="420"/>
<line opacity="0.1" stroke="#000000" stroke-width="1" x1="78" y1="410" x2="973" y2="410"/>
<line opacity="0.1" stroke="#000000" stroke-width="1" x1="78" y1="400" x2="973" y2="400"/>
<line opacity="0.1" stroke="#000000" stroke-width="1" x1="78" y1="390" x2="973" y2="390"/>
<line opacity="0.1" stroke="#000000" stroke-width="1" x1="78" y1="380" x2="973" y2="380"/>
<line opacity="0.1" stroke="#000000" stroke-width="1" x1="78" y1="370" x2="973" y2="370"/>
<line opacity="0.1" stroke="#000000" stroke-width="1" x1="78" y1="360" x2="973" y2="360"/>
<line opacity="0.1" stroke="#000000" stroke-width="1" x1="78" y1="350" x2="973" y2="350"/>
<line opacity="0.1" stroke="#000000" stroke-width="1" x1="78" y1="340" x2="973" y2="340"/>
<line opacity="0.1" stroke="#000000" stroke-width="1" x1="78" y1="330" x2="973" y2="330"/>
<line opacity="0.1" stroke="#000000" stroke-width="1" x1="78" y1="321" x2="973" y2="321"/>
<line opacity="0.1" stroke="#000000" stroke-width="1" x1="78" y1="311" x2="973" y2="311"/>
<line opacity="0.1" stroke="#000000" stroke-width="1" x1="78" y1="301" x2="973" y2="301"/>
<line opacity="0.1" stroke="#000000" stroke-width="1" x1="78" y1="291" x2="973" y2="291"/>
<line opacity="0.1" stroke="#000000" stroke-width="1" x1="78" y1="281" x2="973" y2="281"/>
<line opacity="0.1" stroke="#000000" stroke-width="1" x1="78" y1="271" x2="973" y2="271"/>
<line opacity="0.1" stroke="#000000" stroke-width="1" x1="78" y1="261" x2="973" y2="261"/>
<line opacity="0.1" stroke="#000000" stroke-width="1" x1="78" y1="251" x2="973" y2="251"/>
<line opacity="0.1" stroke="#000000" stroke-width="1" x1="78" y1="241" x2="973" y2="241"/>
<line opacity="0.1" stroke="#000000" stroke-width="1" x1="78" y1="231" x2="973" y2="231"/>
<line opacity="0.1" stroke="#000000" stroke-width="1" x1="78" y1="221" x2="973" y2="221"/>
<line opacity="0.1" stroke="#000000" stroke-width="1" x1="78" y1="211" x2="973" y2="211"/>
<line opacity="0.1" stroke="#000000" stroke-width="1" x1="78" y1="201" x2="973" y2="201"/>
<line opacity="0.1" stroke="#000000" stroke-width="1" x1="78" y1="191" x2="973" y2="191"/>
<line opacity="0.1" stroke="#000000" stroke-width="1" x1="78" y1="181" x2="973" y2="181"/>
<line opacity="0.1" stroke="#000000" stroke-width="1" x1="78" y1="171" x2="973" y2="171"/>
<line opacity="0.1" stroke="#000000" stroke-width="1" x1="78" y1="161" x2="973" y2="161"/>
<line opacity="0.1" stroke="#000000" stroke-width="1" x1="78" y1="151" x2="973" y2="151"/>
<line opacity="0.1" stroke="#000000" stroke-width="1" x1="78" y1="141" x2="973" y2="141"/>
<line opacity="0.1" stroke="#000000" stroke-width="1" x1="78" y1="132" x2="973" y2="132"/>
<line opacity="0.1" stroke="#000000" stroke-width="1" x1="78" y1="122" x2="973" y2="122"/>
<line opacity="0.1" stroke="#000000" stroke-width="1" x1="78" y1="112" x2="973" y2="112"/>
<line opacity="0.1" stroke="#000000" stroke-width="1" x1="78" y1="102" x2="973" y2="102"/>
<line opacity="0.1" stroke="#000000" stroke-width="1" x1="78" y1="92" x2="973" y2="92"/>
<line opacity="0.1" stroke="#000000" stroke-width="1" x1="78" y1="82" x2="973" y2="82"/>
<line opacity="0.1" stroke="#000000" stroke-width="1" x1="78" y1="72" x2="973" y2="72"/>
<text x="8" y="384" dy="0.76em" text-anchor="middle" font-family="sans-serif" font-size="9.67741935483871" opacity="1" fill="#000000" transform="rotate(270, 8, 384)">
Memory usage
</text>
<text x="526" y="760" dy="-0.5ex" text-anchor="middle" font-family="sans-serif" font-size="9.67741935483871" opacity="1" fill="#000000">
Time
</text>
<line opacity="0.2" stroke="#000000" stroke-width="1" x1="106" y1="699" x2="106" y2="68"/>
<line opacity="0.2" stroke="#000000" stroke-width="1" x1="218" y1="699" x2="218" y2="68"/>
<line opacity="0.2" stroke="#000000" stroke-width="1" x1="330" y1="699" x2="330" y2="68"/>
<line opacity="0.2" stroke="#000000" stroke-width="1" x1="442" y1="699" x2="442" y2="68"/>
<line opacity="0.2" stroke="#000000" stroke-width="1" x1="554" y1="699" x2="554" y2="68"/>
<line opacity="0.2" stroke="#000000" stroke-width="1" x1="666" y1="699" x2="666" y2="68"/>
<line opacity="0.2" stroke="#000000" stroke-width="1" x1="777" y1="699" x2="777" y2="68"/>
<line opacity="0.2" stroke="#000000" stroke-width="1" x1="889" y1="699" x2="889" y2="68"/>
<line opacity="0.2" stroke="#000000" stroke-width="1" x1="78" y1="699" x2="973" y2="699"/>
<line opacity="0.2" stroke="#000000" stroke-width="1" x1="78" y1="599" x2="973" y2="599"/>
<line opacity="0.2" stroke="#000000" stroke-width="1" x1="78" y1="500" x2="973" y2="500"/>
<line opacity="0.2" stroke="#000000" stroke-width="1" x1="78" y1="400" x2="973" y2="400"/>
<line opacity="0.2" stroke="#000000" stroke-width="1" x1="78" y1="301" x2="973" y2="301"/>
<line opacity="0.2" stroke="#000000" stroke-width="1" x1="78" y1="201" x2="973" y2="201"/>
<line opacity="0.2" stroke="#000000" stroke-width="1" x1="78" y1="102" x2="973" y2="102"/>
<polyline fill="none" opacity="1" stroke="#000000" stroke-width="1" points="77,68 77,699 "/>
<text x="68" y="699" dy="0.5ex" text-anchor="end" font-family="sans-serif" font-size="9.67741935483871" opacity="1" fill="#000000">
0 MB
</text>
<polyline fill="none" opacity="1" stroke="#000000" stroke-width="1" points="72,699 77,699 "/>
<text x="68" y="599" dy="0.5ex" text-anchor="end" font-family="sans-serif" font-size="9.67741935483871" opacity="1" fill="#000000">
19 MB
</text>
<polyline fill="none" opacity="1" stroke="#000000" stroke-width="1" points="72,599 77,599 "/>
<text x="68" y="500" dy="0.5ex" text-anchor="end" font-family="sans-serif" font-size="9.67741935483871" opacity="1" fill="#000000">
38 MB
</text>
<polyline fill="none" opacity="1" stroke="#000000" stroke-width="1" points="72,500 77,500 "/>
<text x="68" y="400" dy="0.5ex" text-anchor="end" font-family="sans-serif" font-size="9.67741935483871" opacity="1" fill="#000000">
57 MB
</text>
<polyline fill="none" opacity="1" stroke="#000000" stroke-width="1" points="72,400 77,400 "/>
<text x="68" y="301" dy="0.5ex" text-anchor="end" font-family="sans-serif" font-size="9.67741935483871" opacity="1" fill="#000000">
76 MB
</text>
<polyline fill="none" opacity="1" stroke="#000000" stroke-width="1" points="72,301 77,301 "/>
<text x="68" y="201" dy="0.5ex" text-anchor="end" font-family="sans-serif" font-size="9.67741935483871" opacity="1" fill="#000000">
95 MB
</text>
<polyline fill="none" opacity="1" stroke="#000000" stroke-width="1" points="72,201 77,201 "/>
<text x="68" y="102" dy="0.5ex" text-anchor="end" font-family="sans-serif" font-size="9.67741935483871" opacity="1" fill="#000000">
114 MB
</text>
<polyline fill="none" opacity="1" stroke="#000000" stroke-width="1" points="72,102 77,102 "/>
<polyline fill="none" opacity="1" stroke="#000000" stroke-width="1" points="78,700 973,700 "/>
<text x="106" y="710" dy="0.76em" text-anchor="middle" font-family="sans-serif" font-size="9.67741935483871" opacity="1" fill="#000000">
07 20:33:20
</text>
<polyline fill="none" opacity="1" stroke="#000000" stroke-width="1" points="106,700 106,705 "/>
<text x="218" y="710" dy="0.76em" text-anchor="middle" font-family="sans-serif" font-size="9.67741935483871" opacity="1" fill="#000000">
08 10:26:40
</text>
<polyline fill="none" opacity="1" stroke="#000000" stroke-width="1" points="218,700 218,705 "/>
<text x="330" y="710" dy="0.76em" text-anchor="middle" font-family="sans-serif" font-size="9.67741935483871" opacity="1" fill="#000000">
09 00:20:00
</text>
<polyline fill="none" opacity="1" stroke="#000000" stroke-width="1" points="330,700 330,705 "/>
<text x="442" y="710" dy="0.76em" text-anchor="middle" font-family="sans-serif" font-size="9.67741935483871" opacity="1" fill="#000000">
09 14:13:20
</text>
<polyline fill="none" opacity="1" stroke="#000000" stroke-width="1" points="442,700 442,705 "/>
<text x="554" y="710" dy="0.76em" text-anchor="middle" font-family="sans-serif" font-size="9.67741935483871" opacity="1" fill="#000000">
10 04:06:40
</text>
<polyline fill="none" opacity="1" stroke="#000000" stroke-width="1" points="554,700 554,705 "/>
<text x="666" y="710" dy="0.76em" text-anchor="middle" font-family="sans-serif" font-size="9.67741935483871" opacity="1" fill="#000000">
10 18:00:00
</text>
<polyline fill="none" opacity="1" stroke="#000000" stroke-width="1" points="666,700 666,705 "/>
<text x="777" y="710" dy="0.76em" text-anchor="middle" font-family="sans-serif" font-size="9.67741935483871" opacity="1" fill="#000000">
11 07:53:20
</text>
<polyline fill="none" opacity="1" stroke="#000000" stroke-width="1" points="777,700 777,705 "/>
<text x="889" y="710" dy="0.76em" text-anchor="middle" font-family="sans-serif" font-size="9.67741935483871" opacity="1" fill="#000000">
11 21:46:40
</text>
<polyline fill="none" opacity="1" stroke="#000000" stroke-width="1" points="889,700 889,705 "/>
<polyline fill="none" opacity="1" stroke="#000000" stroke-width="1" points="78,67 974,67 "/>
<text x="106" y="58" dy="-0.5ex" text-anchor="middle" font-family="sans-serif" font-size="9.67741935483871" opacity="1" fill="#000000">
+03:35:44
</text>
<polyline fill="none" opacity="1" stroke="#000000" stroke-width="1" points="106,62 106,67 "/>
<text x="218" y="58" dy="-0.5ex" text-anchor="middle" font-family="sans-serif" font-size="9.67741935483871" opacity="1" fill="#000000">
+17:29:04
</text>
<polyline fill="none" opacity="1" stroke="#000000" stroke-width="1" points="218,62 218,67 "/>
<text x="330" y="58" dy="-0.5ex" text-anchor="middle" font-family="sans-serif" font-size="9.67741935483871" opacity="1" fill="#000000">
+31:22:24
</text>
<polyline fill="none" opacity="1" stroke="#000000" stroke-width="1" points="330,62 330,67 "/>
<text x="442" y="58" dy="-0.5ex" text-anchor="middle" font-family="sans-serif" font-size="9.67741935483871" opacity="1" fill="#000000">
+45:15:44
</text>
<polyline fill="none" opacity="1" stroke="#000000" stroke-width="1" points="442,62 442,67 "/>
<text x="554" y="58" dy="-0.5ex" text-anchor="middle" font-family="sans-serif" font-size="9.67741935483871" opacity="1" fill="#000000">
+59:09:04
</text>
<polyline fill="none" opacity="1" stroke="#000000" stroke-width="1" points="554,62 554,67 "/>
<text x="666" y="58" dy="-0.5ex" text-anchor="middle" font-family="sans-serif" font-size="9.67741935483871" opacity="1" fill="#000000">
+73:02:24
</text>
<polyline fill="none" opacity="1" stroke="#000000" stroke-width="1" points="666,62 666,67 "/>
<text x="778" y="58" dy="-0.5ex" text-anchor="middle" font-family="sans-serif" font-size="9.67741935483871" opacity="1" fill="#000000">
+86:55:44
</text>
<polyline fill="none" opacity="1" stroke="#000000" stroke-width="1" points="778,62 778,67 "/>
<text x="890" y="58" dy="-0.5ex" text-anchor="middle" font-family="sans-serif" font-size="9.67741935483871" opacity="1" fill="#000000">
+100:49:04
</text>
<polyline fill="none" opacity="1" stroke="#000000" stroke-width="1" points="890,62 890,67 "/>
<rect x="83" y="73" width="99" height="45" opacity="0.75" fill="#FFFFFF" stroke="none"/>
<rect x="83" y="73" width="99" height="45" opacity="1" fill="none" stroke="#000000"/>
<text x="123" y="83" dy="0.76em" text-anchor="start" font-family="sans-serif" font-size="9.67741935483871" opacity="1" fill="#000000">
Temporary
</text>
<text x="123" y="98" dy="0.76em" text-anchor="start" font-family="sans-serif" font-size="9.67741935483871" opacity="1" fill="#000000">
Leaked
</text>
<rect x="93" y="83" width="10" height="10" opacity="1" fill="#3CB44B" stroke="none"/>
<rect x="93" y="98" width="10" height="10" opacity="1" fill="#E6194B" stroke="none"/>
</svg>
