<svg width="1024" height="768" viewBox="0 0 1024 768" xmlns="http://www.w3.org/2000/svg">
<rect x="0" y="0" width="1024" height="768" opacity="1" fill="#FFFFFF" stroke="none"/>
<polygon opacity="1" fill="#3CB44B" points="78,699 79,699 80,699 81,699 82,699 83,695 84,695 85,695 85,698 86,695 87,695 88,695 89,694 90,694 91,694 92,694 93,695 93,699 94,695 95,692 96,691 97,694 98,697 99,694 100,698 101,695 102,692 102,692 103,697 104,694 105,691 106,692 107,692 108,691 109,688 110,689 110,686 111,683 112,679 113,679 114,679 115,673 116,673 117,673 118,671 119,667 119,667 120,666 121,664 122,664 123,664 124,663 125,658 126,659 127,658 127,658 128,658 129,655 130,652 131,652 132,651 133,651 134,648 135,648 136,645 136,645 137,643 138,642 139,642 140,641 141,639 142,638 143,635 144,634 144,631 145,631 146,630 147,630 148,626 149,626 150,624 151,624 152,623 153,622 153,622 154,619 155,616 156,613 157,614 158,615 159,615 160,615 161,615 161,615 162,614 163,613 164,611 165,608 166,607 167,607 168,607 169,608 170,607 170,607 171,607 172,601 173,600 174,600 175,600 176,600 177,601 178,601 178,602 179,598 180,599 181,596 182,599 183,693 184,690 185,686 186,683 187,682 187,682 188,680 189,677 190,675 191,674 192,671 193,671 194,668 195,668 195,665 196,665 197,661 198,659 199,656 200,655 201,655 202,655 203,653 203,652 204,649 205,648 206,645 207,645 208,645 209,643 210,642 211,643 212,644 212,644 213,644 214,641 215,638 216,638 217,637 218,634 219,632 220,631 220,629 221,626 222,626 223,622 224,621 225,619 226,616 227,616 228,616 229,613 229,613 230,613 231,610 232,607 233,607 234,604 235,603 236,601 237,601 237,597 238,597 239,597 240,594 241,591 242,592 243,591 244,588 245,589 246,586 246,583 247,583 248,583 249,583 250,580 251,577 252,577 253,573 254,573 254,573 255,569 256,568 257,568 258,565 259,561 260,559 261,558 262,555 263,556 263,555 264,552 265,552 266,552 267,551 268,551 269,549 270,546 271,546 271,543 272,543 273,543 274,543 275,543 276,542 277,540 278,537 279,534 280,530 280,530 281,527 282,527 283,527 284,527 285,524 286,524 287,524 288,524 288,523 289,524 290,522 291,519 292,516 293,516 294,516 295,512 296,509 297,508 297,508 298,508 299,508 300,505 301,505 302,502 303,500 304,500 305,497 305,497 306,493 307,494 308,493 309,492 310,492 311,495 312,495 313,493 313,494 314,491 315,490 316,487 317,484 318,484 319,484 320,484 321,484 322,482 322,481 323,478 324,479 325,476 326,476 327,473 328,473 329,470 330,470 330,470 331,470 332,470 333,470 334,470 335,467 336,464 337,464 338,464 339,464 339,460 340,460 341,460 342,461 343,458 344,455 345,454 346,454 347,454 347,454 348,451 349,449 350,449 351,445 352,445 353,445 354,445 355,445 356,445 356,442 357,438 358,438 359,438 360,438 361,438 362,438 363,438 364,435 364,434 365,431 366,431 367,428 368,428 369,425 370,425 371,424 372,424 373,422 373,421 374,422 375,422 376,421 377,418 378,415 379,412 380,412 381,412 381,410 382,410 383,407 384,404 385,404 386,404 387,404 388,404 389,403 390,402 390,401 391,401 392,400 393,400 394,400 395,400 396,400 397,400 398,400 398,400 399,397 400,397 401,397 402,394 403,394 404,391 405,388 406,385 407,385 407,381 408,381 409,380 410,381 411,381 412,381 413,378 414,375 415,375 415,372 416,373 417,372 418,372 419,372 420,372 421,372 422,371 423,370 424,370 424,370 425,370 426,367 427,366 428,366 429,366 430,367 431,362 432,359 432,358 433,358 434,357 435,354 436,355 437,355 438,350 439,350 440,350 440,347 441,347 442,346 443,343 444,340 445,339 446,336 447,333 448,332 449,331 449,332 450,331 451,331 452,333 453,334 454,331 455,330 456,328 457,324 457,323 458,321 459,317 460,315 461,311 462,312 463,312 464,311 465,308 466,308 466,305 467,305 468,305 469,305 470,305 471,305 472,302 473,299 474,299 474,294 475,293 476,293 477,293 478,289 479,289 480,290 481,290 482,289 483,289 483,286 484,287 485,283 486,281 487,281 488,281 489,277 490,277 491,274 491,271 492,272 493,269 494,269 495,268 496,268 497,266 498,263 499,263 500,263 500,263 501,259 502,256 503,257 504,257 505,253 506,254 507,252 508,253 508,253 509,253 510,253 511,249 512,248 513,247 514,247 515,247 516,245 517,244 517,244 518,247 519,245 520,244 521,245 522,245 523,244 524,244 525,241 525,240 526,239 527,236 528,236 529,236 530,236 531,231 532,229 533,229 534,224 534,225 535,225 536,226 537,223 538,223 539,220 540,219 541,220 542,218 542,215 543,215 544,215 545,213 546,212 547,209 548,209 549,207 550,205 550,205 551,204 552,201 553,202 554,202 555,202 556,202 557,202 558,202 559,202 559,202 560,202 561,202 562,202 563,202 564,201 565,197 566,196 567,196 567,197 568,197 569,196 570,193 571,193 572,190 573,190 574,191 575,188 576,188 576,185 577,182 578,182 579,181 580,180 581,181 582,181 583,181 584,182 584,181 585,178 586,178 587,178 588,178 589,178 590,178 591,178 592,178 593,175 593,171 594,170 595,170 596,170 597,171 598,168 599,169 600,166 601,163 601,160 602,160 603,160 604,160 605,157 606,156 607,156 608,156 609,153 610,152 610,152 611,152 612,151 613,149 614,150 615,148 616,148 617,147 618,143 618,144 619,141 620,142 621,139 622,136 623,135 624,135 625,133 626,133 627,133 627,132 628,128 629,129 630,129 631,126 632,126 633,123 634,120 635,120 635,116 636,117 637,117 638,116 639,116 640,114 641,115 642,115 643,114 644,109 644,109 645,108 646,104 647,101 648,99 649,96 650,96 651,93 652,93 652,93 653,93 654,92 655,87 656,87 657,86 658,87 659,87 660,83 660,83 661,83 662,83 663,80 664,80 665,80 666,77 667,76 668,74 669,74 669,74 670,74 671,74 672,71 673,68 674,68 675,691 676,692 677,692 677,692 678,692 679,689 680,686 681,682 682,681 683,681 684,677 685,677 686,674 686,673 687,672 688,670 689,672 690,672 691,671 692,671 693,672 694,672 694,672 695,673 696,670 697,667 698,666 699,666 700,667 701,667 702,662 703,662 703,659 704,657 705,654 706,650 707,650 708,650 709,648 710,648 711,646 711,642 712,642 713,638 714,638 715,637 716,632 717,633 718,633 719,633 720,633 720,633 721,629 722,629 723,628 724,629 725,627 726,626 727,626 728,626 728,626 729,623 730,623 731,623 732,623 733,623 734,623 735,622 736,622 737,622 737,622 738,620 739,618 740,615 741,612 742,612 743,612 744,612 745,611 745,612 746,612 747,613 748,612 749,612 750,610 751,610 752,607 753,603 754,600 754,600 755,597 756,594 757,591 758,591 759,591 760,591 761,591 762,591 762,588 763,585 764,584 765,585 766,585 767,581 768,578 769,576 770,574 770,572 771,568 772,568 773,570 774,566 775,563 776,564 777,562 778,561 779,562 779,562 780,559 781,558 782,557 783,555 784,552 785,549 786,549 787,549 787,545 788,546 789,546 790,545 791,541 792,539 793,540 794,540 795,537 796,534 796,530 797,530 798,527 799,527 800,527 801,523 802,523 803,524 804,524 804,521 805,518 806,515 807,516 808,513 809,513 810,512 811,508 812,505 813,505 813,502 814,502 815,503 816,500 817,500 818,499 819,500 820,496 821,497 821,497 822,497 823,497 824,494 825,491 826,489 827,487 828,487 829,487 830,487 830,484 831,482 832,482 833,483 834,482 835,482 836,478 837,478 838,480 838,479 839,478 840,474 841,474 842,473 843,473 844,470 845,470 846,467 847,464 847,459 848,459 849,460 850,460 851,460 852,461 853,458 854,455 855,455 855,451 856,450 857,448 858,448 859,448 860,447 861,444 862,445 863,442 864,441 864,438 865,439 866,438 867,438 868,440 869,440 870,437 871,437 872,436 872,432 873,432 874,432 875,432 876,433 877,432 878,429 879,427 880,423 880,423 881,424 882,423 883,423 884,423 885,423 886,424 887,424 888,420 889,421 889,421 890,419 891,418 892,417 893,415 894,415 895,412 896,412 897,408 897,406 898,406 899,405 900,401 901,401 902,399 903,399 904,399 905,399 906,397 906,394 907,394 908,391 909,391 910,387 911,384 912,385 913,381 914,382 914,379 915,376 916,375 917,375 918,376 919,375 920,376 921,376 922,375 923,375 923,375 924,375 925,372 926,372 927,372 928,372 929,372 930,372 931,372 931,369 932,366 933,366 934,362 935,362 936,362 937,362 938,362 939,359 940,356 940,356 941,353 942,351 943,351 944,352 945,351 946,347 947,343 948,340 948,341 949,338 950,335 951,336 952,333 953,331 954,330 955,331 956,331 957,326 957,324 957,324 958,324 959,321 960,321 961,321 962,318 963,315 964,315 965,315 965,315 966,315 967,312 968,312 969,308 970,308 971,308 972,305 972,305 973,305 973,699 78,699 "/>
<polyline fill="none" opacity="1" stroke="#3CB44B" stroke-width="1" points="78,699 79,699 80,699 81,699 82,699 83,695 84,695 85,695 85,698 86,695 87,695 88,695 89,694 90,694 91,694 92,694 93,695 93,699 94,695 95,692 96,691 97,694 98,697 99,694 100,698 101,695 102,692 102,692 103,697 104,694 105,691 106,692 107,692 108,691 109,688 110,689 110,686 111,683 112,679 113,679 114,679 115,673 116,673 117,673 118,671 119,667 119,667 120,666 121,664 122,664 123,664 124,663 125,658 126,659 127,658 127,658 128,658 129,655 130,652 131,652 132,651 133,651 134,648 135,648 136,645 136,645 137,643 138,642 139,642 140,641 141,639 142,638 143,635 144,634 144,631 145,631 146,630 147,630 148,626 149,626 150,624 151,624 152,623 153,622 153,622 154,619 155,616 156,613 157,614 158,615 159,615 160,615 161,615 161,615 162,614 163,613 164,611 165,608 166,607 167,607 168,607 169,608 170,607 170,607 171,607 172,601 173,600 174,600 175,600 176,600 177,601 178,601 178,602 179,598 180,599 181,596 182,599 183,693 184,690 185,686 186,683 187,682 187,682 188,680 189,677 190,675 191,674 192,671 193,671 194,668 195,668 195,665 196,665 197,661 198,659 199,656 200,655 201,655 202,655 203,653 203,652 204,649 205,648 206,645 207,645 208,645 209,643 210,642 211,643 212,644 212,644 213,644 214,641 215,638 216,638 217,637 218,634 219,632 220,631 220,629 221,626 222,626 223,622 224,621 225,619 226,616 227,616 228,616 229,613 229,613 230,613 231,610 232,607 233,607 234,604 235,603 236,601 237,601 237,597 238,597 239,597 240,594 241,591 242,592 243,591 244,588 245,589 246,586 246,583 247,583 248,583 249,583 250,580 251,577 252,577 253,573 254,573 254,573 255,569 256,568 257,568 258,565 259,561 260,559 261,558 262,555 263,556 263,555 264,552 265,552 266,552 267,551 268,551 269,549 270,546 271,546 271,543 272,543 273,543 274,543 275,543 276,542 277,540 278,537 279,534 280,530 280,530 281,527 282,527 283,527 284,527 285,524 286,524 287,524 288,524 288,523 289,524 290,522 291,519 292,516 293,516 294,516 295,512 296,509 297,508 297,508 298,508 299,508 300,505 301,505 302,502 303,500 304,500 305,497 305,497 306,493 307,494 308,493 309,492 310,492 311,495 312,495 313,493 313,494 314,491 315,490 316,487 317,484 318,484 319,484 320,484 321,484 322,482 322,481 323,478 324,479 325,476 326,476 327,473 328,473 329,470 330,470 330,470 331,470 332,470 333,470 334,470 335,467 336,464 337,464 338,464 339,464 339,460 340,460 341,460 342,461 343,458 344,455 345,454 346,454 347,454 347,454 348,451 349,449 350,449 351,445 352,445 353,445 354,445 355,445 356,445 356,442 357,438 358,438 359,438 360,438 361,438 362,438 363,438 364,435 364,434 365,431 366,431 367,428 368,428 369,425 370,425 371,424 372,424 373,422 373,421 374,422 375,422 376,421 377,418 378,415 379,412 380,412 381,412 381,410 382,410 383,407 384,404 385,404 386,404 387,404 388,404 389,403 390,402 390,401 391,401 392,400 393,400 394,400 395,400 396,400 397,400 398,400 398,400 399,397 400,397 401,397 402,394 403,394 404,391 405,388 406,385 407,385 407,381 408,381 409,380 410,381 411,381 412,381 413,378 414,375 415,375 415,372 416,373 417,372 418,372 419,372 420,372 421,372 422,371 423,370 424,370 424,370 425,370 426,367 427,366 428,366 429,366 430,367 431,362 432,359 432,358 433,358 434,357 435,354 436,355 437,355 438,350 439,350 440,350 440,347 441,347 442,346 443,343 444,340 445,339 446,336 447,333 448,332 449,331 449,332 450,331 451,331 452,333 453,334 454,331 455,330 456,328 457,324 457,323 458,321 459,317 460,315 461,311 462,312 463,312 464,311 465,308 466,308 466,305 467,305 468,305 469,305 470,305 471,305 472,302 473,299 474,299 474,294 475,293 476,293 477,293 478,289 479,289 480,290 481,290 482,289 483,289 483,286 484,287 485,283 486,281 487,281 488,281 489,277 490,277 491,274 491,271 492,272 493,269 494,269 495,268 496,268 497,266 498,263 499,263 500,263 500,263 501,259 502,256 503,257 504,257 505,253 506,254 507,252 508,253 508,253 509,253 510,253 511,249 512,248 513,247 514,247 515,247 516,245 517,244 517,244 518,247 519,245 520,244 521,245 522,245 523,244 524,244 525,241 525,240 526,239 527,236 528,236 529,236 530,236 531,231 532,229 533,229 534,224 534,225 535,225 536,226 537,223 538,223 539,220 540,219 541,220 542,218 542,215 543,215 544,215 545,213 546,212 547,209 548,209 549,207 550,205 550,205 551,204 552,201 553,202 554,202 555,202 556,202 557,202 558,202 559,202 559,202 560,202 561,202 562,202 563,202 564,201 565,197 566,196 567,196 567,197 568,197 569,196 570,193 571,193 572,190 573,190 574,191 575,188 576,188 576,185 577,182 578,182 579,181 580,180 581,181 582,181 583,181 584,182 584,181 585,178 586,178 587,178 588,178 589,178 590,178 591,178 592,178 593,175 593,171 594,170 595,170 596,170 597,171 598,168 599,169 600,166 601,163 601,160 602,160 603,160 604,160 605,157 606,156 607,156 608,156 609,153 610,152 610,152 611,152 612,151 613,149 614,150 615,148 616,148 617,147 618,143 618,144 619,141 620,142 621,139 622,136 623,135 624,135 625,133 626,133 627,133 627,132 628,128 629,129 630,129 631,126 632,126 633,123 634,120 635,120 635,116 636,117 637,117 638,116 639,116 640,114 641,115 642,115 643,114 644,109 644,109 645,108 646,104 647,101 648,99 649,96 650,96 651,93 652,93 652,93 653,93 654,92 655,87 656,87 657,86 658,87 659,87 660,83 660,83 661,83 662,83 663,80 664,80 665,80 666,77 667,76 668,74 669,74 669,74 670,74 671,74 672,71 673,68 674,68 675,691 676,692 677,692 677,692 678,692 679,689 680,686 681,682 682,681 683,681 684,677 685,677 686,674 686,673 687,672 688,670 689,672 690,672 691,671 692,671 693,672 694,672 694,672 695,673 696,670 697,667 698,666 699,666 700,667 701,667 702,662 703,662 703,659 704,657 705,654 706,650 707,650 708,650 709,648 710,648 711,646 711,642 712,642 713,638 714,638 715,637 716,632 717,633 718,633 719,633 720,633 720,633 721,629 722,629 723,628 724,629 725,627 726,626 727,626 728,626 728,626 729,623 730,623 731,623 732,623 733,623 734,623 735,622 736,622 737,622 737,622 738,620 739,618 740,615 741,612 742,612 743,612 744,612 745,611 745,612 746,612 747,613 748,612 749,612 750,610 751,610 752,607 753,603 754,600 754,600 755,597 756,594 757,591 758,591 759,591 760,591 761,591 762,591 762,588 763,585 764,584 765,585 766,585 767,581 768,578 769,576 770,574 770,572 771,568 772,568 773,570 774,566 775,563 776,564 777,562 778,561 779,562 779,562 780,559 781,558 782,557 783,555 784,552 785,549 786,549 787,549 787,545 788,546 789,546 790,545 791,541 792,539 793,540 794,540 795,537 796,534 796,530 797,530 798,527 799,527 800,527 801,523 802,523 803,524 804,524 804,521 805,518 806,515 807,516 808,513 809,513 810,512 811,508 812,505 813,505 813,502 814,502 815,503 816,500 817,500 818,499 819,500 820,496 821,497 821,497 822,497 823,497 824,494 825,491 826,489 827,487 828,487 829,487 830,487 830,484 831,482 832,482 833,483 834,482 835,482 836,478 837,478 838,480 838,479 839,478 840,474 841,474 842,473 843,473 844,470 845,470 846,467 847,464 847,459 848,459 849,460 850,460 851,460 852,461 853,458 854,455 855,455 855,451 856,450 857,448 858,448 859,448 860,447 861,444 862,445 863,442 864,441 864,438 865,439 866,438 867,438 868,440 869,440 870,437 871,437 872,436 872,432 873,432 874,432 875,432 876,433 877,432 878,429 879,427 880,423 880,423 881,424 882,423 883,423 884,423 885,423 886,424 887,424 888,420 889,421 889,421 890,419 891,418 892,417 893,415 894,415 895,412 896,412 897,408 897,406 898,406 899,405 900,401 901,401 902,399 903,399 904,399 905,399 906,397 906,394 907,394 908,391 909,391 910,387 911,384 912,385 913,381 914,382 914,379 915,376 916,375 917,375 918,376 919,375 920,376 921,376 922,375 923,375 923,375 924,375 925,372 926,372 927,372 928,372 929,372 930,372 931,372 931,369 932,366 933,366 934,362 935,362 936,362 937,362 938,362 939,359 940,356 940,356 941,353 942,351 943,351 944,352 945,351 946,347 947,343 948,340 948,341 949,338 950,335 951,336 952,333 953,331 954,330 955,331 956,331 957,326 957,324 957,324 958,324 959,321 960,321 961,321 962,318 963,315 964,315 965,315 965,315 966,315 967,312 968,312 969,308 970,308 971,308 972,305 972,305 973,305 "/>
<polygon opacity="1" fill="#E6194B" points="78,699 79,699 80,699 81,699 82,699 83,699 84,699 85,699 85,699 86,699 87,699 88,699 89,699 90,699 91,699 92,699 93,699 93,699 94,699 95,699 96,699 97,699 98,699 99,699 100,699 101,699 102,699 102,699 103,699 104,699 105,699 106,699 107,699 108,699 109,699 110,699 110,699 111,699 112,699 113,699 114,699 115,699 116,699 117,699 118,699 119,699 119,699 120,699 121,699 122,699 123,699 124,699 125,699 126,699 127,699 127,699 128,699 129,699 130,699 131,699 132,699 133,699 134,699 135,699 136,699 136,699 137,699 138,699 139,699 140,699 141,699 142,699 143,699 144,699 144,699 145,699 146,699 147,699 148,699 149,699 150,699 151,699 152,699 153,699 153,699 154,699 155,699 156,699 157,699 158,699 159,699 160,699 161,699 161,699 162,699 163,699 164,699 165,699 166,699 167,699 168,699 169,699 170,699 170,699 171,699 172,699 173,699 174,699 175,699 176,699 177,699 178,699 178,699 179,699 180,699 181,699 182,699 183,699 184,699 185,699 186,699 187,699 187,699 188,699 189,699 190,699 191,699 192,699 193,699 194,699 195,699 195,699 196,699 197,699 198,699 199,699 200,699 201,699 202,699 203,699 203,699 204,699 205,699 206,699 207,699 208,699 209,699 210,699 211,699 212,699 212,699 213,699 214,699 215,699 216,699 217,699 218,699 219,699 220,699 220,699 221,699 222,699 223,699 224,699 225,699 226,699 227,699 228,699 229,699 229,699 230,699 231,699 232,699 233,699 234,699 235,699 236,699 237,699 237,699 238,699 239,699 240,699 241,699 242,699 243,699 244,699 245,699 246,699 246,699 247,699 248,699 249,699 250,699 251,699 252,699 253,699 254,699 254,699 255,699 256,699 257,699 258,699 259,699 260,699 261,699 262,699 263,699 263,699 264,699 265,699 266,699 267,699 268,699 269,699 270,699 271,699 271,699 272,699 273,699 274,699 275,699 276,699 277,699 278,699 279,699 280,699 280,699 281,699 282,699 283,699 284,699 285,699 286,699 287,699 288,699 288,699 289,699 290,699 291,699 292,699 293,699 294,699 295,699 296,699 297,699 297,699 298,699 299,699 300,699 301,699 302,699 303,699 304,699 305,699 305,699 306,699 307,699 308,699 309,699 310,699 311,699 312,699 313,699 313,699 314,699 315,699 316,699 317,699 318,699 319,699 320,699 321,699 322,699 322,699 323,699 324,699 325,699 326,699 327,699 328,699 329,699 330,699 330,699 331,699 332,699 333,699 334,699 335,699 336,699 337,699 338,699 339,699 339,699 340,699 341,699 342,699 343,699 344,699 345,699 346,699 347,699 347,699 348,699 349,699 350,699 351,699 352,699 353,699 354,699 355,699 356,699 356,699 357,699 358,699 359,699 360,699 361,699 362,699 363,699 364,699 364,699 365,699 366,699 367,699 368,699 369,699 370,699 371,699 372,699 373,699 373,699 374,699 375,699 376,699 377,699 378,699 379,699 380,699 381,699 381,699 382,699 383,699 384,699 385,699 386,699 387,699 388,699 389,699 390,699 390,699 391,699 392,699 393,699 394,699 395,699 396,699 397,699 398,699 398,699 399,699 400,699 401,699 402,699 403,699 404,699 405,699 406,699 407,699 407,699 408,699 409,699 410,699 411,699 412,699 413,699 414,699 415,699 415,699 416,699 417,699 418,699 419,699 420,699 421,699 422,699 423,699 424,699 424,699 425,699 426,699 427,699 428,699 429,699 430,699 431,699 432,699 432,699 433,699 434,699 435,699 436,699 437,699 438,699 439,699 440,699 440,699 441,699 442,699 443,699 444,699 445,699 446,699 447,699 448,699 449,699 449,699 450,699 451,699 452,699 453,699 454,699 455,699 456,699 457,699 457,699 458,699 459,699 460,699 461,699 462,699 463,699 464,699 465,699 466,699 466,699 467,699 468,699 469,699 470,699 471,699 472,699 473,699 474,699 474,699 475,699 476,699 477,699 478,699 479,699 480,699 481,699 482,699 483,699 483,699 484,699 485,699 486,699 487,699 488,699 489,699 490,699 491,699 491,699 492,699 493,699 494,699 495,699 496,699 497,699 498,699 499,699 500,699 500,699 501,699 502,699 503,699 504,699 505,699 506,699 507,699 508,699 508,699 509,699 510,699 511,699 512,699 513,699 514,699 515,699 516,699 517,699 517,699 518,699 519,699 520,699 521,699 522,699 523,699 524,699 525,699 525,699 526,699 527,699 528,699 529,699 530,699 531,699 532,699 533,699 534,699 534,699 535,699 536,699 537,699 538,699 539,699 540,699 541,699 542,699 542,699 543,699 544,699 545,699 546,699 547,699 548,699 549,699 550,699 550,699 551,699 552,699 553,699 554,699 555,699 556,699 557,699 558,699 559,699 559,699 560,699 561,699 562,699 563,699 564,699 565,699 566,699 567,699 567,699 568,699 569,699 570,699 571,699 572,699 573,699 574,699 575,699 576,699 576,699 577,699 578,699 579,699 580,699 581,699 582,699 583,699 584,699 584,699 585,699 586,699 587,699 588,699 589,699 590,699 591,699 592,699 593,699 593,699 594,699 595,699 596,699 597,699 598,699 599,699 600,699 601,699 601,699 602,699 603,699 604,699 605,699 606,699 607,699 608,699 609,699 610,699 610,699 611,699 612,699 613,699 614,699 615,699 616,699 617,699 618,699 618,699 619,699 620,699 621,699 622,699 623,699 624,699 625,699 626,699 627,699 627,699 628,699 629,699 630,699 631,699 632,699 633,699 634,699 635,699 635,699 636,699 637,699 638,699 639,699 640,699 641,699 642,699 643,699 644,699 644,699 645,699 646,699 647,699 648,699 649,699 650,699 651,699 652,699 652,699 653,699 654,699 655,699 656,699 657,699 658,699 659,699 660,699 660,699 661,699 662,699 663,699 664,699 665,699 666,699 667,699 668,699 669,699 669,699 670,699 671,699 672,699 673,699 674,695 675,692 676,692 677,692 677,692 678,692 679,689 680,686 681,683 682,683 683,683 684,680 685,680 686,677 686,674 687,674 688,674 689,674 690,674 691,674 692,674 693,674 694,674 694,674 695,674 696,671 697,668 698,668 699,668 700,668 701,668 702,665 703,665 703,662 704,659 705,656 706,653 707,653 708,653 709,650 710,650 711,647 711,644 712,644 713,641 714,641 715,638 716,635 717,635 718,635 719,635 720,635 720,635 721,632 722,632 723,632 724,632 725,629 726,629 727,629 728,629 728,629 729,626 730,626 731,626 732,626 733,626 734,626 735,626 736,626 737,622 737,622 738,622 739,619 740,616 741,613 742,613 743,613 744,613 745,613 745,613 746,613 747,613 748,613 749,613 750,610 751,610 752,607 753,604 754,601 754,601 755,598 756,595 757,592 758,592 759,592 760,592 761,592 762,592 762,589 763,586 764,586 765,586 766,586 767,583 768,580 769,580 770,577 770,574 771,571 772,571 773,571 774,568 775,565 776,565 777,562 778,562 779,562 779,562 780,559 781,559 782,559 783,556 784,553 785,549 786,549 787,549 787,546 788,546 789,546 790,546 791,543 792,540 793,540 794,540 795,537 796,534 796,531 797,531 798,528 799,528 800,528 801,525 802,525 803,525 804,525 804,522 805,519 806,516 807,516 808,513 809,513 810,513 811,510 812,507 813,507 813,504 814,504 815,504 816,501 817,501 818,501 819,501 820,498 821,498 821,498 822,498 823,498 824,495 825,492 826,492 827,489 828,489 829,489 830,489 830,486 831,483 832,483 833,483 834,483 835,483 836,480 837,480 838,480 838,480 839,480 840,477 841,477 842,477 843,477 844,473 845,470 846,467 847,464 847,461 848,461 849,461 850,461 851,461 852,461 853,458 854,455 855,455 855,452 856,452 857,449 858,449 859,449 860,449 861,446 862,446 863,443 864,443 864,440 865,440 866,440 867,440 868,440 869,440 870,437 871,437 872,437 872,434 873,434 874,434 875,434 876,434 877,434 878,431 879,428 880,425 880,425 881,425 882,425 883,425 884,425 885,425 886,425 887,425 888,422 889,422 889,422 890,419 891,419 892,419 893,416 894,416 895,413 896,413 897,410 897,407 898,407 899,407 900,404 901,404 902,400 903,400 904,400 905,400 906,397 906,394 907,394 908,391 909,391 910,388 911,385 912,385 913,382 914,382 914,379 915,376 916,376 917,376 918,376 919,376 920,376 921,376 922,376 923,376 923,376 924,376 925,373 926,373 927,373 928,373 929,373 930,373 931,373 931,370 932,367 933,367 934,364 935,364 936,364 937,364 938,364 939,361 940,358 940,358 941,355 942,352 943,352 944,352 945,352 946,349 947,346 948,343 948,343 949,340 950,337 951,337 952,334 953,331 954,331 955,331 956,331 957,327 957,324 957,324 958,324 959,321 960,321 961,321 962,318 963,315 964,315 965,315 965,315 966,315 967,312 968,312 969,308 970,308 971,308 972,305 972,305 973,305 973,699 78,699 "/>
<polyline fill="none" opacity="1" stroke="#E6194B" stroke-width="1" points="78,699 79,699 80,699 81,699 82,699 83,699 84,699 85,699 85,699 86,699 87,699 88,699 89,699 90,699 91,699 92,699 93,699 93,699 94,699 95,699 96,699 97,699 98,699 99,699 100,699 101,699 102,699 102,699 103,699 104,699 105,699 106,699 107,699 108,699 109,699 110,699 110,699 111,699 112,699 113,699 114,699 115,699 116,699 117,699 118,699 119,699 119,699 120,699 121,699 122,699 123,699 124,699 125,699 126,699 127,699 127,699 128,699 129,699 130,699 131,699 132,699 133,699 134,699 135,699 136,699 136,699 137,699 138,699 139,699 140,699 141,699 142,699 143,699 144,699 144,699 145,699 146,699 147,699 148,699 149,699 150,699 151,699 152,699 153,699 153,699 154,699 155,699 156,699 157,699 158,699 159,699 160,699 161,699 161,699 162,699 163,699 164,699 165,699 166,699 167,699 168,699 169,699 170,699 170,699 171,699 172,699 173,699 174,699 175,699 176,699 177,699 178,699 178,699 179,699 180,699 181,699 182,699 183,699 184,699 185,699 186,699 187,699 187,699 188,699 189,699 190,699 191,699 192,699 193,699 194,699 195,699 195,699 196,699 197,699 198,699 199,699 200,699 201,699 202,699 203,699 203,699 204,699 205,699 206,699 207,699 208,699 209,699 210,699 211,699 212,699 212,699 213,699 214,699 215,699 216,699 217,699 218,699 219,699 220,699 220,699 221,699 222,699 223,699 224,699 225,699 226,699 227,699 228,699 229,699 229,699 230,699 231,699 232,699 233,699 234,699 235,699 236,699 237,699 237,699 238,699 239,699 240,699 241,699 242,699 243,699 244,699 245,699 246,699 246,699 247,699 248,699 249,699 250,699 251,699 252,699 253,699 254,699 254,699 255,699 256,699 257,699 258,699 259,699 260,699 261,699 262,699 263,699 263,699 264,699 265,699 266,699 267,699 268,699 269,699 270,699 271,699 271,699 272,699 273,699 274,699 275,699 276,699 277,699 278,699 279,699 280,699 280,699 281,699 282,699 283,699 284,699 285,699 286,699 287,699 288,699 288,699 289,699 290,699 291,699 292,699 293,699 294,699 295,699 296,699 297,699 297,699 298,699 299,699 300,699 301,699 302,699 303,699 304,699 305,699 305,699 306,699 307,699 308,699 309,699 310,699 311,699 312,699 313,699 313,699 314,699 315,699 316,699 317,699 318,699 319,699 320,699 321,699 322,699 322,699 323,699 324,699 325,699 326,699 327,699 328,699 329,699 330,699 330,699 331,699 332,699 333,699 334,699 335,699 336,699 337,699 338,699 339,699 339,699 340,699 341,699 342,699 343,699 344,699 345,699 346,699 347,699 347,699 348,699 349,699 350,699 351,699 352,699 353,699 354,699 355,699 356,699 356,699 357,699 358,699 359,699 360,699 361,699 362,699 363,699 364,699 364,699 365,699 366,699 367,699 368,699 369,699 370,699 371,699 372,699 373,699 373,699 374,699 375,699 376,699 377,699 378,699 379,699 380,699 381,699 381,699 382,699 383,699 384,699 385,699 386,699 387,699 388,699 389,699 390,699 390,699 391,699 392,699 393,699 394,699 395,699 396,699 397,699 398,699 398,699 399,699 400,699 401,699 402,699 403,699 404,699 405,699 406,699 407,699 407,699 408,699 409,699 410,699 411,699 412,699 413,699 414,699 415,699 415,699 416,699 417,699 418,699 419,699 420,699 421,699 422,699 423,699 424,699 424,699 425,699 426,699 427,699 428,699 429,699 430,699 431,699 432,699 432,699 433,699 434,699 435,699 436,699 437,699 438,699 439,699 440,699 440,699 441,699 442,699 443,699 444,699 445,699 446,699 447,699 448,699 449,699 449,699 450,699 451,699 452,699 453,699 454,699 455,699 456,699 457,699 457,699 458,699 459,699 460,699 461,699 462,699 463,699 464,699 465,699 466,699 466,699 467,699 468,699 469,699 470,699 471,699 472,699 473,699 474,699 474,699 475,699 476,699 477,699 478,699 479,699 480,699 481,699 482,699 483,699 483,699 484,699 485,699 486,699 487,699 488,699 489,699 490,699 491,699 491,699 492,699 493,699 494,699 495,699 496,699 497,699 498,699 499,699 500,699 500,699 501,699 502,699 503,699 504,699 505,699 506,699 507,699 508,699 508,699 509,699 510,699 511,699 512,699 513,699 514,699 515,699 516,699 517,699 517,699 518,699 519,699 520,699 521,699 522,699 523,699 524,699 525,699 525,699 526,699 527,699 528,699 529,699 530,699 531,699 532,699 533,699 534,699 534,699 535,699 536,699 537,699 538,699 539,699 540,699 541,699 542,699 542,699 543,699 544,699 545,699 546,699 547,699 548,699 549,699 550,699 550,699 551,699 552,699 553,699 554,699 555,699 556,699 557,699 558,699 559,699 559,699 560,699 561,699 562,699 563,699 564,699 565,699 566,699 567,699 567,699 568,699 569,699 570,699 571,699 572,699 573,699 574,699 575,699 576,699 576,699 577,699 578,699 579,699 580,699 581,699 582,699 583,699 584,699 584,699 585,699 586,699 587,699 588,699 589,699 590,699 591,699 592,699 593,699 593,699 594,699 595,699 596,699 597,699 598,699 599,699 600,699 601,699 601,699 602,699 603,699 604,699 605,699 606,699 607,699 608,699 609,699 610,699 610,699 611,699 612,699 613,699 614,699 615,699 616,699 617,699 618,699 618,699 619,699 620,699 621,699 622,699 623,699 624,699 625,699 626,699 627,699 627,699 628,699 629,699 630,699 631,699 632,699 633,699 634,699 635,699 635,699 636,699 637,699 638,699 639,699 640,699 641,699 642,699 643,699 644,699 644,699 645,699 646,699 647,699 648,699 649,699 650,699 651,699 652,699 652,699 653,699 654,699 655,699 656,699 657,699 658,699 659,699 660,699 660,699 661,699 662,699 663,699 664,699 665,699 666,699 667,699 668,699 669,699 669,699 670,699 671,699 672,699 673,699 674,695 675,692 676,692 677,692 677,692 678,692 679,689 680,686 681,683 682,683 683,683 684,680 685,680 686,677 686,674 687,674 688,674 689,674 690,674 691,674 692,674 693,674 694,674 694,674 695,674 696,671 697,668 698,668 699,668 700,668 701,668 702,665 703,665 703,662 704,659 705,656 706,653 707,653 708,653 709,650 710,650 711,647 711,644 712,644 713,641 714,641 715,638 716,635 717,635 718,635 719,635 720,635 720,635 721,632 722,632 723,632 724,632 725,629 726,629 727,629 728,629 728,629 729,626 730,626 731,626 732,626 733,626 734,626 735,626 736,626 737,622 737,622 738,622 739,619 740,616 741,613 742,613 743,613 744,613 745,613 745,613 746,613 747,613 748,613 749,613 750,610 751,610 752,607 753,604 754,601 754,601 755,598 756,595 757,592 758,592 759,592 760,592 761,592 762,592 762,589 763,586 764,586 765,586 766,586 767,583 768,580 769,580 770,577 770,574 771,571 772,571 773,571 774,568 775,565 776,565 777,562 778,562 779,562 779,562 780,559 781,559 782,559 783,556 784,553 785,549 786,549 787,549 787,546 788,546 789,546 790,546 791,543 792,540 793,540 794,540 795,537 796,534 796,531 797,531 798,528 799,528 800,528 801,525 802,525 803,525 804,525 804,522 805,519 806,516 807,516 808,513 809,513 810,513 811,510 812,507 813,507 813,504 814,504 815,504 816,501 817,501 818,501 819,501 820,498 821,498 821,498 822,498 823,498 824,495 825,492 826,492 827,489 828,489 829,489 830,489 830,486 831,483 832,483 833,483 834,483 835,483 836,480 837,480 838,480 838,480 839,480 840,477 841,477 842,477 843,477 844,473 845,470 846,467 847,464 847,461 848,461 849,461 850,461 851,461 852,461 853,458 854,455 855,455 855,452 856,452 857,449 858,449 859,449 860,449 861,446 862,446 863,443 864,443 864,440 865,440 866,440 867,440 868,440 869,440 870,437 871,437 872,437 872,434 873,434 874,434 875,434 876,434 877,434 878,431 879,428 880,425 880,425 881,425 882,425 883,425 884,425 885,425 886,425 887,425 888,422 889,422 889,422 890,419 891,419 892,419 893,416 894,416 895,413 896,413 897,410 897,407 898,407 899,407 900,404 901,404 902,400 903,400 904,400 905,400 906,397 906,394 907,394 908,391 909,391 910,388 911,385 912,385 913,382 914,382 914,379 915,376 916,376 917,376 918,376 919,376 920,376 921,376 922,376 923,376 923,376 924,376 925,373 926,373 927,373 928,373 929,373 930,373 931,373 931,370 932,367 933,367 934,364 935,364 936,364 937,364 938,364 939,361 940,358 940,358 941,355 942,352 943,352 944,352 945,352 946,349 947,346 948,343 948,343 949,340 950,337 951,337 952,334 953,331 954,331 955,331 956,331 957,327 957,324 957,324 958,324 959,321 960,321 961,321 962,318 963,315 964,315 965,315 965,315 966,315 967,312 968,312 969,308 970,308 971,308 972,305 972,305 973,305 "/>
<line opacity="0.1" stroke="#000000" stroke-width="1" x1="84" y1="699" x2="84" y2="68"/>
<line opacity="0.1" stroke="#000000" stroke-width="1" x1="95" y1="699" x2="95" y2="68"/>
<line opacity="0.1" stroke="#000000" stroke-width="1" x1="106" y1="699" x2="106" y2="68"/>
<line opacity="0.1" stroke="#000000" stroke-width="1" x1="118" y1="699" x2="118" y2="68"/>
<line opacity="0.1" stroke="#000000" stroke-width="1" x1="129" y1="699" x2="129" y2="68"/>
<line opacity="0.1" stroke="#000000" stroke-width="1" x1="140" y1="699" x2="140" y2="68"/>
<line opacity="0.1" stroke="#000000" stroke-width="1" x1="151" y1="699" x2="151" y2="68"/>
<line opacity="0.1" stroke="#000000" stroke-width="1" x1="162" y1="699" x2="162" y2="68"/>
<line opacity="0.1" stroke="#000000" stroke-width="1" x1="174" y1="699" x2="174" y2="68"/>
<line opacity="0.1" stroke="#000000" stroke-width="1" x1="185" y1="699" x2="185" y2="68"/>
<line opacity="0.1" stroke="#000000" stroke-width="1" x1="196" y1="699" x2="196" y2="68"/>
<line opacity="0.1" stroke="#000000" stroke-width="1" x1="207" y1="699" x2="207" y2="68"/>
<line opacity="0.1" stroke="#000000" stroke-width="1" x1="218" y1="699" x2="218" y2="68"/>
<line opacity="0.1" stroke="#000000" stroke-width="1" x1="229" y1="699" x2="229" y2="68"/>
<line opacity="0.1" stroke="#000000" stroke-width="1" x1="241" y1="699" x2="241" y2="68"/>
<line opacity="0.1" stroke="#000000" stroke-width="1" x1="252" y1="699" x2="252" y2="68"/>
<line opacity="0.1" stroke="#000000" stroke-width="1" x1="263" y1="699" x2="263" y2="68"/>
<line opacity="0.1" stroke="#000000" stroke-width="1" x1="274" y1="699" x2="274" y2="68"/>
<line opacity="0.1" stroke="#000000" stroke-width="1" x1="285" y1="699" x2="285" y2="68"/>
<line opacity="0.1" stroke="#000000" stroke-width="1" x1="297" y1="699" x2="297" y2="68"/>
<line opacity="0.1" stroke="#000000" stroke-width="1" x1="308" y1="699" x2="308" y2="68"/>
<line opacity="0.1" stroke="#000000" stroke-width="1" x1="319" y1="699" x2="319" y2="68"/>
<line opacity="0.1" stroke="#000000" stroke-width="1" x1="330" y1="699" x2="330" y2="68"/>
<line opacity="0.1" stroke="#000000" stroke-width="1" x1="341" y1="699" x2="341" y2="68"/>
<line opacity="0.1" stroke="#000000" stroke-width="1" x1="352" y1="699" x2="352" y2="68"/>
<line opacity="0.1" stroke="#000000" stroke-width="1" x1="364" y1="699" x2="364" y2="68"/>
<line opacity="0.1" stroke="#000000" stroke-width="1" x1="375" y1="699" x2="375" y2="68"/>
<line opacity="0.1" stroke="#000000" stroke-width="1" x1="386" y1="699" x2="386" y2="68"/>
<line opacity="0.1" stroke="#000000" stroke-width="1" x1="397" y1="699" x2="397" y2="68"/>
<line opacity="0.1" stroke="#000000" stroke-width="1" x1="408" y1="699" x2="408" y2="68"/>
<line opacity="0.1" stroke="#000000" stroke-width="1" x1="420" y1="699" x2="420" y2="68"/>
<line opacity="0.1" stroke="#000000" stroke-width="1" x1="431" y1="699" x2="431" y2="68"/>
<line opacity="0.1" stroke="#000000" stroke-width="1" x1="442" y1="699" x2="442" y2="68"/>
<line opacity="0.1" stroke="#000000" stroke-width="1" x1="453" y1="699" x2="453" y2="68"/>
<line opacity="0.1" stroke="#000000" stroke-width="1" x1="464" y1="699" x2="464" y2="68"/>
<line opacity="0.1" stroke="#000000" stroke-width="1" x1="476" y1="699" x2="476" y2="68"/>
<line opacity="0.1" stroke="#000000" stroke-width="1" x1="487" y1="699" x2="487" y2="68"/>
<line opacity="0.1" stroke="#000000" stroke-width="1" x1="498" y1="699" x2="498" y2="68"/>
<line opacity="0.1" stroke="#000000" stroke-width="1" x1="509" y1="699" x2="509" y2="68"/>
<line opacity="0.1" stroke="#000000" stroke-width="1" x1="520" y1="699" x2="520" y2="68"/>
<line opacity="0.1" stroke="#000000" stroke-width="1" x1="531" y1="699" x2="531" y2="68"/>
<line opacity="0.1" stroke="#000000" stroke-width="1" x1="543" y1="699" x2="543" y2="68"/>
<line opacity="0.1" stroke="#000000" stroke-width="1" x1="554" y1="699" x2="554" y2="68"/>
<line opacity="0.1" stroke="#000000" stroke-width="1" x1="565" y1="699" x2="565" y2="68"/>
<line opacity="0.1" stroke="#000000" stroke-width="1" x1="576" y1="699" x2="576" y2="68"/>
<line opacity="0.1" stroke="#000000" stroke-width="1" x1="587" y1="699" x2="587" y2="68"/>
<line opacity="0.1" stroke="#000000" stroke-width="1" x1="599" y1="699" x2="599" y2="68"/>
<line opacity="0.1" stroke="#000000" stroke-width="1" x1="610" y1="699" x2="610" y2="68"/>
<line opacity="0.1" stroke="#000000" stroke-width="1" x1="621" y1="699" x2="621" y2="68"/>
<line opacity="0.1" stroke="#000000" stroke-width="1" x1="632" y1="699" x2="632" y2="68"/>
<line opacity="0.1" stroke="#000000" stroke-width="1" x1="643" y1="699" x2="643" y2="68"/>
<line opacity="0.1" stroke="#000000" stroke-width="1" x1="654" y1="699" x2="654" y2="68"/>
<line opacity="0.1" stroke="#000000" stroke-width="1" x1="666" y1="699" x2="666" y2="68"/>
<line opacity="0.1" stroke="#000000" stroke-width="1" x1="677" y1="699" x2="677" y2="68"/>
<line opacity="0.1" stroke="#000000" stroke-width="1" x1="688" y1="699" x2="688" y2="68"/>
<line opacity="0.1" stroke="#000000" stroke-width="1" x1="699" y1="699" x2="699" y2="68"/>
<line opacity="0.1" stroke="#000000" stroke-width="1" x1="710" y1="699" x2="710" y2="68"/>
<line opacity="0.1" stroke="#000000" stroke-width="1" x1="722" y1="699" x2="722" y2="68"/>
<line opacity="0.1" stroke="#000000" stroke-width="1" x1="733" y1="699" x2="733" y2="68"/>
<line opacity="0.1" stroke="#000000" stroke-width="1" x1="744" y1="699" x2="744" y2="68"/>
<line opacity="0.1" stroke="#000000" stroke-width="1" x1="755" y1="699" x2="755" y2="68"/>
<line opacity="0.1" stroke="#000000" stroke-width="1" x1="766" y1="699" x2="766" y2="68"/>
<line opacity="0.1" stroke="#000000" stroke-width="1" x1="777" y1="699" x2="777" y2="68"/>
<line opacity="0.1" stroke="#000000" stroke-width="1" x1="789" y1="699" x2="789" y2="68"/>
<line opacity="0.1" stroke="#000000" stroke-width="1" x1="800" y1="699" x2="800" y2="68"/>
<line opacity="0.1" stroke="#000000" stroke-width="1" x1="811" y1="699" x2="811" y2="68"/>
<line opacity="0.1" stroke="#000000" stroke-width="1" x1="822" y1="699" x2="822" y2="68"/>
<line opacity="0.1" stroke="#000000" stroke-width="1" x1="833" y1="699" x2="833" y2="68"/>
<line opacity="0.1" stroke="#000000" stroke-width="1" x1="845" y1="699" x2="845" y2="68"/>
<line opacity="0.1" stroke="#000000" stroke-width="1" x1="856" y1="699" x2="856" y2="68"/>
<line opacity="0.1" stroke="#000000" stroke-width="1" x1="867" y1="699" x2="867" y2="68"/>
<line opacity="0.1" stroke="#000000" stroke-width="1" x1="878" y1="699" x2="878" y2="68"/>
<line opacity="0.1" stroke="#000000" stroke-width="1" x1="889" y1="699" x2="889" y2="68"/>
<line opacity="0.1" stroke="#000000" stroke-width="1" x1="900" y1="699" x2="900" y2="68"/>
<line opacity="0.1" stroke="#000000" stroke-width="1" x1="912" y1="699" x2="912" y2="68"/>
<line opacity="0.1" stroke="#000000" stroke-width="1" x1="923" y1="699" x2="923" y2="68"/>
<line opacity="0.1" stroke="#000000" stroke-width="1" x1="934" y1="699" x2="934" y2="68"/>
<line opacity="0.1" stroke="#000000" stroke-width="1" x1="945" y1="699" x2="945" y2="68"/>
<line opacity="0.1" stroke="#000000" stroke-width="1" x1="956" y1="699" x2="956" y2="68"/>
<line opacity="0.1" stroke="#000000" stroke-width="1" x1="968" y1="699" x2="968" y2="68"/>
<line opacity="0.1" stroke="#000000" stroke-width="1" x1="78" y1="699" x2="973" y2="699"/>
<line opacity="0.1" stroke="#000000" stroke-width="1" x1="78" y1="693" x2="973" y2="693"/>
<line opacity="0.1" stroke="#000000" stroke-width="1" x1="78" y1="687" x2="973" y2="687"/>
<line opacity="0.1" stroke="#000000" stroke-width="1" x1="78" y1="681" x2="973" y2="681"/>
<line opacity="0.1" stroke="#000000" stroke-width="1" x1="78" y1="675" x2="973" y2="675"/>
<line opacity="0.1" stroke="#000000" stroke-width="1" x1="78" y1="670" x2="973" y2="670"/>
<line opacity="0.1" stroke="#000000" stroke-width="1" x1="78" y1="664" x2="973" y2="664"/>
<line opacity="0.1" stroke="#000000" stroke-width="1" x1="78" y1="658" x2="973" y2="658"/>
<line opacity="0.1" stroke="#000000" stroke-width="1" x1="78" y1="652" x2="973" y2="652"/>
<line opacity="0.1" stroke="#000000" stroke-width="1" x1="78" y1="646" x2="973" y2="646"/>
<line opacity="0.1" stroke="#000000" stroke-width="1" x1="78" y1="640" x2="973" y2="640"/>
<line opacity="0.1" stroke="#000000" stroke-width="1" x1="78" y1="635" x2="973" y2="635"/>
<line opacity="0.1" stroke="#000000" stroke-width="1" x1="78" y1="629" x2="973" y2="629"/>
<line opacity="0.1" stroke="#000000" stroke-width="1" x1="78" y1="623" x2="973" y2="623"/>
<line opacity="0.1" stroke="#000000" stroke-width="1" x1="78" y1="617" x2="973" y2="617"/>
<line opacity="0.1" stroke="#000000" stroke-width="1" x1="78" y1="611" x2="973" y2="611"/>
<line opacity="0.1" stroke="#000000" stroke-width="1" x1="78" y1="606" x2="973" y2="606"/>
<line opacity="0.1" stroke="#000000" stroke-width="1" x1="78" y1="600" x2="973" y2="600"/>
<line opacity="0.1" stroke="#000000" stroke-width="1" x1="78" y1="594" x2="973" y2="594"/>
<line opacity="0.1" stroke="#000000" stroke-width="1" x1="78" y1="588" x2="973" y2="588"/>
<line opacity="0.1" stroke="#000000" stroke-width="1" x1="78" y1="582" x2="973" y2="582"/>
<line opacity="0.1" stroke="#000000" stroke-width="1" x1="78" y1="577" x2="973" y2="577"/>
<line opacity="0.1" stroke="#000000" stroke-width="1" x1="78" y1="571" x2="973" y2="571"/>
<line opacity="0.1" stroke="#000000" stroke-width="1" x1="78" y1="565" x2="973" y2="565"/>
<line opacity="0.1" stroke="#000000" stroke-width="1" x1="78" y1="559" x2="973" y2="559"/>
<line opacity="0.1" stroke="#000000" stroke-width="1" x1="78" y1="553" x2="973" y2="553"/>
<line opacity="0.1" stroke="#000000" stroke-width="1" x1="78" y1="548" x2="973" y2="548"/>
<line opacity="0.1" stroke="#000000" stroke-width="1" x1="78" y1="542" x2="973" y2="542"/>
<line opacity="0.1" stroke="#000000" stroke-width="1" x1="78" y1="536" x2="973" y2="536"/>
<line opacity="0.1" stroke="#000000" stroke-width="1" x1="78" y1="530" x2="973" y2="530"/>
<line opacity="0.1" stroke="#000000" stroke-width="1" x1="78" y1="524" x2="973" y2="524"/>
<line opacity="0.1" stroke="#000000" stroke-width="1" x1="78" y1="519" x2="973" y2="519"/>
<line opacity="0.1" stroke="#000000" stroke-width="1" x1="78" y1="513" x2="973" y2="513"/>
<line opacity="0.1" stroke="#000000" stroke-width="1" x1="78" y1="507" x2="973" y2="507"/>
<line opacity="0.1" stroke="#000000" stroke-width="1" x1="78" y1="501" x2="973" y2="501"/>
<line opacity="0.1" stroke="#000000" stroke-width="1" x1="78" y1="495" x2="973" y2="495"/>
<line opacity="0.1" stroke="#000000" stroke-width="1" x1="78" y1="490" x2="973" y2="490"/>
<line opacity="0.1" stroke="#000000" stroke-width="1" x1="78" y1="484" x2="973" y2="484"/>
<line opacity="0.1" stroke="#000000" stroke-width="1" x1="78" y1="478" x2="973" y2="478"/>
<line opacity="0.1" stroke="#000000" stroke-width="1" x1="78" y1="472" x2="973" y2="472"/>
<line opacity="0.1" stroke="#000000" stroke-width="1" x1="78" y1="466" x2="973" y2="466"/>
<line opacity="0.1" stroke="#000000" stroke-width="1" x1="78" y1="461" x2="973" y2="461"/>
<line opacity="0.1" stroke="#000000" stroke-width="1" x1="78" y1="455" x2="973" y2="455"/>
<line opacity="0.1" stroke="#000000" stroke-width="1" x1="78" y1="449" x2="973" y2="449"/>
<line opacity="0.1" stroke="#000000" stroke-width="1" x1="78" y1="443" x2="973" y2="443"/>
<line opacity="0.1" stroke="#000000" stroke-width="1" x1="78" y1="437" x2="973" y2="437"/>
<line opacity="0.1" stroke="#000000" stroke-width="1" x1="78" y1="432" x2="973" y2="432"/>
<line opacity="0.1" stroke="#000000" stroke-width="1" x1="78" y1="426" x2="973" y2="426"/>
<line opacity="0.1" stroke="#000000" stroke-width="1" x1="78" y1="420" x2="973" y2="420"/>
<line opacity="0.1" stroke="#000000" stroke-width="1" x1="78" y1="414" x2="973" y2="414"/>
<line opacity="0.1" stroke="#000000" stroke-width="1" x1="78" y1="408" x2="973" y2="408"/>
<line opacity="0.1" stroke="#000000" stroke-width="1" x1="78" y1="403" x2="973" y2="403"/>
<line opacity="0.1" stroke="#000000" stroke-width="1" x1="78" y1="397" x2="973" y2="397"/>
<line opacity="0.1" stroke="#000000" stroke-width="1" x1="78" y1="391" x2="973" y2="391"/>
<line opacity="0.1" stroke="#000000" stroke-width="1" x1="78" y1="385" x2="973" y2="385"/>
<line opacity="0.1" stroke="#000000" stroke-width="1" x1="78" y1="379" x2="973" y2="379"/>
<line opacity="0.1" stroke="#000000" stroke-width="1" x1="78" y1="374" x2="973" y2="374"/>
<line opacity="0.1" stroke="#000000" stroke-width="1" x1="78" y1="368" x2="973" y2="368"/>
<line opacity="0.1" stroke="#000000" stroke-width="1" x1="78" y1="362" x2="973" y2="362"/>
<line opacity="0.1" stroke="#000000" stroke-width="1" x1="78" y1="356" x2="973" y2="356"/>
<line opacity="0.1" stroke="#000000" stroke-width="1" x1="78" y1="350" x2="973" y2="350"/>
<line opacity="0.1" stroke="#000000" stroke-width="1" x1="78" y1="345" x2="973" y2="345"/>
<line opacity="0.1" stroke="#000000" stroke-width="1" x1="78" y1="339" x2="973" y2="339"/>
<line opacity="0.1" stroke="#000000" stroke-width="1" x1="78" y1="333" x2="973" y2="333"/>
<line opacity="0.1" stroke="#000000" stroke-width="1" x1="78" y1="327" x2="973" y2="327"/>
<line opacity="0.1" stroke="#000000" stroke-width="1" x1="78" y1="321" x2="973" y2="321"/>
<line opacity="0.1" stroke="#000000" stroke-width="1" x1="78" y1="316" x2="973" y2="316"/>
<line opacity="0.1" stroke="#000000" stroke-width="1" x1="78" y1="310" x2="973" y2="310"/>
<line opacity="0.1" stroke="#000000" stroke-width="1" x1="78" y1="304" x2="973" y2="304"/>
<line opacity="0.1" stroke="#000000" stroke-width="1" x1="78" y1="298" x2="973" y2="298"/>
<line opacity="0.1" stroke="#000000" stroke-width="1" x1="78" y1="292" x2="973" y2="292"/>
<line opacity="0.1" stroke="#000000" stroke-width="1" x1="78" y1="287" x2="973" y2="287"/>
<line opacity="0.1" stroke="#000000" stroke-width="1" x1="78" y1="281" x2="973" y2="281"/>
<line opacity="0.1" stroke="#000000" stroke-width="1" x1="78" y1="275" x2="973" y2="275"/>
<line opacity="0.1" stroke="#000000" stroke-width="1" x1="78" y1="269" x2="973" y2="269"/>
<line opacity="0.1" stroke="#000000" stroke-width="1" x1="78" y1="263" x2="973" y2="263"/>
<line opacity="0.1" stroke="#000000" stroke-width="1" x1="78" y1="258" x2="973" y2="258"/>
<line opacity="0.1" stroke="#000000" stroke-width="1" x1="78" y1="252" x2="973" y2="252"/>
<line opacity="0.1" stroke="#000000" stroke-width="1" x1="78" y1="246" x2="973" y2="246"/>
<line opacity="0.1" stroke="#000000" stroke-width="1" x1="78" y1="240" x2="973" y2="240"/>
<line opacity="0.1" stroke="#000000" stroke-width="1" x1="78" y1="234" x2="973" y2="234"/>
<line opacity="0.1" stroke="#000000" stroke-width="1" x1="78" y1="229" x2="973" y2="229"/>
<line opacity="0.1" stroke="#000000" stroke-width="1" x1="78" y1="223" x2="973" y2="223"/>
<line opacity="0.1" stroke="#000000" stroke-width="1" x1="78" y1="217" x2="973" y2="217"/>
<line opacity="0.1" stroke="#000000" stroke-width="1" x1="78" y1="211" x2="973" y2="211"/>
<line opacity="0.1" stroke="#000000" stroke-width="1" x1="78" y1="205" x2="973" y2="205"/>
<line opacity="0.1" stroke="#000000" stroke-width="1" x1="78" y1="200" x2="973" y2="200"/>
<line opacity="0.1" stroke="#000000" stroke-width="1" x1="78" y1="194" x2="973" y2="194"/>
<line opacity="0.1" stroke="#000000" stroke-width="1" x1="78" y1="188" x2="973" y2="188"/>
<line opacity="0.1" stroke="#000000" stroke-width="1" x1="78" y1="182" x2="973" y2="182"/>
<line opacity="0.1" stroke="#000000" stroke-width="1" x1="78" y1="176" x2="973" y2="176"/>
<line opacity="0.1" stroke="#000000" stroke-width="1" x1="78" y1="171" x2="973" y2="171"/>
<line opacity="0.1" stroke="#000000" stroke-width="1" x1="78" y1="165" x2="973" y2="165"/>
<line opacity="0.1" stroke="#000000" stroke-width="1" x1="78" y1="159" x2="973" y2="159"/>
<line opacity="0.1" stroke="#000000" stroke-width="1" x1="78" y1="153" x2="973" y2="153"/>
<line opacity="0.1" stroke="#000000" stroke-width="1" x1="78" y1="147" x2="973" y2="147"/>
<line opacity="0.1" stroke="#000000" stroke-width="1" x1="78" y1="142" x2="973" y2="142"/>
<line opacity="0.1" stroke="#000000" stroke-width="1" x1="78" y1="136" x2="973" y2="136"/>
<line opacity="0.1" stroke="#000000" stroke-width="1" x1="78" y1="130" x2="973" y2="130"/>
<line opacity="0.1" stroke="#000000" stroke-width="1" x1="78" y1="124" x2="973" y2="124"/>
<line opacity="0.1" stroke="#000000" stroke-width="1" x1="78" y1="118" x2="973" y2="118"/>
<line opacity="0.1" stroke="#000000" stroke-width="1" x1="78" y1="113" x2="973" y2="113"/>
<line opacity="0.1" stroke="#000000" stroke-width="1" x1="78" y1="107" x2="973" y2="107"/>
<line opacity="0.1" stroke="#000000" stroke-width="1" x1="78" y1="101" x2="973" y2="101"/>
<line opacity="0.1" stroke="#000000" stroke-width="1" x1="78" y1="95" x2="973" y2="95"/>
<line opacity="0.1" stroke="#000000" stroke-width="1" x1="78" y1="89" x2="973" y2="89"/>
<line opacity="0.1" stroke="#000000" stroke-width="1" x1="78" y1="84" x2="973" y2="84"/>
<line opacity="0.1" stroke="#000000" stroke-width="1" x1="78" y1="78" x2="973" y2="78"/>
<line opacity="0.1" stroke="#000000" stroke-width="1" x1="78" y1="72" x2="973" y2="72"/>
<text x="8" y="384" dy="0.76em" text-anchor="middle" font-family="sans-serif" font-size="9.67741935483871" opacity="1" fill="#000000" transform="rotate(270, 8, 384)">
Memory usage
</text>
<text x="526" y="760" dy="-0.5ex" text-anchor="middle" font-family="sans-serif" font-size="9.67741935483871" opacity="1" fill="#000000">
Time
</text>
<line opacity="0.2" stroke="#000000" stroke-width="1" x1="106" y1="699" x2="106" y2="68"/>
<line opacity="0.2" stroke="#000000" stroke-width="1" x1="218" y1="699" x2="218" y2="68"/>
<line opacity="0.2" stroke="#000000" stroke-width="1" x1="330" y1="699" x2="330" y2="68"/>
<line opacity="0.2" stroke="#000000" stroke-width="1" x1="442" y1="699" x2="442" y2="68"/>
<line opacity="0.2" stroke="#000000" stroke-width="1" x1="554" y1="699" x2="554" y2="68"/>
<line opacity="0.2" stroke="#000000" stroke-width="1" x1="666" y1="699" x2="666" y2="68"/>
<line opacity="0.2" stroke="#000000" stroke-width="1" x1="777" y1="699" x2="777" y2="68"/>
<line opacity="0.2" stroke="#000000" stroke-width="1" x1="889" y1="699" x2="889" y2="68"/>
<line opacity="0.2" stroke="#000000" stroke-width="1" x1="78" y1="699" x2="973" y2="699"/>
<line opacity="0.2" stroke="#000000" stroke-width="1" x1="78" y1="553" x2="973" y2="553"/>
<line opacity="0.2" stroke="#000000" stroke-width="1" x1="78" y1="408" x2="973" y2="408"/>
<line opacity="0.2" stroke="#000000" stroke-width="1" x1="78" y1="263" x2="973" y2="263"/>
<line opacity="0.2" stroke="#000000" stroke-width="1" x1="78" y1="118" x2="973" y2="118"/>
<polyline fill="none" opacity="1" stroke="#000000" stroke-width="1" points="77,68 77,699 "/>
<text x="68" y="699" dy="0.5ex" text-anchor="end" font-family="sans-serif" font-size="9.67741935483871" opacity="1" fill="#000000">
0 MB
</text>
<polyline fill="none" opacity="1" stroke="#000000" stroke-width="1" points="72,699 77,699 "/>
<text x="68" y="553" dy="0.5ex" text-anchor="end" font-family="sans-serif" font-size="9.67741935483871" opacity="1" fill="#000000">
47 MB
</text>
<polyline fill="none" opacity="1" stroke="#000000" stroke-width="1" points="72,553 77,553 "/>
<text x="68" y="408" dy="0.5ex" text-anchor="end" font-family="sans-serif" font-size="9.67741935483871" opacity="1" fill="#000000">
95 MB
</text>
<polyline fill="none" opacity="1" stroke="#000000" stroke-width="1" points="72,408 77,408 "/>
<text x="68" y="263" dy="0.5ex" text-anchor="end" font-family="sans-serif" font-size="9.67741935483871" opacity="1" fill="#000000">
143 MB
</text>
<polyline fill="none" opacity="1" stroke="#000000" stroke-width="1" points="72,263 77,263 "/>
<text x="68" y="118" dy="0.5ex" text-anchor="end" font-family="sans-serif" font-size="9.67741935483871" opacity="1" fill="#000000">
190 MB
</text>
<polyline fill="none" opacity="1" stroke="#000000" stroke-width="1" points="72,118 77,118 "/>
<polyline fill="none" opacity="1" stroke="#000000" stroke-width="1" points="78,700 973,700 "/>
<text x="106" y="710" dy="0.76em" text-anchor="middle" font-family="sans-serif" font-size="9.67741935483871" opacity="1" fill="#000000">
07 20:33:20
</text>
<polyline fill="none" opacity="1" stroke="#000000" stroke-width="1" points="106,700 106,705 "/>
<text x="218" y="710" dy="0.76em" text-anchor="middle" font-family="sans-serif" font-size="9.67741935483871" opacity="1" fill="#000000">
08 10:26:40
</text>
<polyline fill="none" opacity="1" stroke="#000000" stroke-width="1" points="218,700 218,705 "/>
<text x="330" y="710" dy="0.76em" text-anchor="middle" font-family="sans-serif" font-size="9.67741935483871" opacity="1" fill="#000000">
09 00:20:00
</text>
<polyline fill="none" opacity="1" stroke="#000000" stroke-width="1" points="330,700 330,705 "/>
<text x="442" y="710" dy="0.76em" text-anchor="middle" font-family="sans-serif" font-size="9.67741935483871" opacity="1" fill="#000000">
09 14:13:20
</text>
<polyline fill="none" opacity="1" stroke="#000000" stroke-width="1" points="442,700 442,705 "/>
<text x="554" y="710" dy="0.76em" text-anchor="middle" font-family="sans-serif" font-size="9.67741935483871" opacity="1" fill="#000000">
10 04:06:40
</text>
<polyline fill="none" opacity="1" stroke="#000000" stroke-width="1" points="554,700 554,705 "/>
<text x="666" y="710" dy="0.76em" text-anchor="middle" font-family="sans-serif" font-size="9.67741935483871" opacity="1" fill="#000000">
10 18:00:00
</text>
<polyline fill="none" opacity="1" stroke="#000000" stroke-width="1" points="666,700 666,705 "/>
<text x="777" y="710" dy="0.76em" text-anchor="middle" font-family="sans-serif" font-size="9.67741935483871" opacity="1" fill="#000000">
11 07:53:20
</text>
<polyline fill="none" opacity="1" stroke="#000000" stroke-width="1" points="777,700 777,705 "/>
<text x="889" y="710" dy="0.76em" text-anchor="middle" font-family="sans-serif" font-size="9.67741935483871" opacity="1" fill="#000000">
11 21:46:40
</text>
<polyline fill="none" opacity="1" stroke="#000000" stroke-width="1" points="889,700 889,705 "/>
<polyline fill="none" opacity="1" stroke="#000000" stroke-width="1" points="78,67 974,67 "/>
<text x="106" y="58" dy="-0.5ex" text-anchor="middle" font-family="sans-serif" font-size="9.67741935483871" opacity="1" fill="#000000">
+03:35:44
</text>
<polyline fill="none" opacity="1" stroke="#000000" stroke-width="1" points="106,62 106,67 "/>
<text x="218" y="58" dy="-0.5ex" text-anchor="middle" font-family="sans-serif" font-size="9.67741935483871" opacity="1" fill="#000000">
+17:29:04
</text>
<polyline fill="none" opacity="1" stroke="#000000" stroke-width="1" points="218,62 218,67 "/>
<text x="330" y="58" dy="-0.5ex" text-anchor="middle" font-family="sans-serif" font-size="9.67741935483871" opacity="1" fill="#000000">
+31:22:24
</text>
<polyline fill="none" opacity="1" stroke="#000000" stroke-width="1" points="330,62 330,67 "/>
<text x="442" y="58" dy="-0.5ex" text-anchor="middle" font-family="sans-serif" font-size="9.67741935483871" opacity="1" fill="#000000">
+45:15:44
</text>
<polyline fill="none" opacity="1" stroke="#000000" stroke-width="1" points="442,62 442,67 "/>
<text x="554" y="58" dy="-0.5ex" text-anchor="middle" font-family="sans-serif" font-size="9.67741935483871" opacity="1" fill="#000000">
+59:09:04
</text>
<polyline fill="none" opacity="1" stroke="#000000" stroke-width="1" points="554,62 554,67 "/>
<text x="666" y="58" dy="-0.5ex" text-anchor="middle" font-family="sans-serif" font-size="9.67741935483871" opacity="1" fill="#000000">
+73:02:24
</text>
<polyline fill="none" opacity="1" stroke="#000000" stroke-width="1" points="666,62 666,67 "/>
<text x="778" y="58" dy="-0.5ex" text-anchor="middle" font-family="sans-serif" font-size="9.67741935483871" opacity="1" fill="#000000">
+86:55:44
</text>
<polyline fill="none" opacity="1" stroke="#000000" stroke-width="1" points="778,62 778,67 "/>
<text x="890" y="58" dy="-0.5ex" text-anchor="middle" font-family="sans-serif" font-size="9.67741935483871" opacity="1" fill="#000000">
+100:49:04
</text>
<polyline fill="none" opacity="1" stroke="#000000" stroke-width="1" points="890,62 890,67 "/>
<rect x="83" y="73" width="99" height="45" opacity="0.75" fill="#FFFFFF" stroke="none"/>
<rect x="83" y="73" width="99" height="45" opacity="1" fill="none" stroke="#000000"/>
<text x="123" y="83" dy="0.76em" text-anchor="start" font-family="sans-serif" font-size="9.67741935483871" opacity="1" fill="#000000">
Temporary
</text>
<text x="123" y="98" dy="0.76em" text-anchor="start" font-family="sans-serif" font-size="9.67741935483871" opacity="1" fill="#000000">
Leaked
</text>
<rect x="93" y="83" width="10" height="10" opacity="1" fill="#3CB44B" stroke="none"/>
<rect x="93" y="98" width="10" height="10" opacity="1" fill="#E6194B" stroke="none"/>
</svg>
