<svg width="1024" height="768" viewBox="0 0 1024 768" xmlns="http://www.w3.org/2000/svg">
<rect x="0" y="0" width="1024" height="768" opacity="1" fill="#FFFFFF" stroke="none"/>
<polygon opacity="1" fill="#3CB44B" points="78,697 79,696 80,695 80,694 81,692 82,691 83,690 84,689 85,688 86,687 87,686 88,684 88,683 89,682 90,681 91,680 92,679 93,677 94,676 95,675 96,674 97,673 97,672 98,671 99,669 100,668 101,667 102,666 103,665 104,664 105,663 105,661 106,660 107,659 108,658 109,657 110,655 111,654 112,653 113,652 114,651 114,649 115,648 116,647 117,646 118,644 119,643 120,642 121,641 122,640 122,639 123,637 124,636 125,635 126,634 127,633 128,631 129,630 130,629 131,628 131,627 132,625 133,624 134,623 135,622 136,621 137,620 138,618 139,617 139,616 140,615 141,614 142,612 143,611 144,610 145,609 146,607 147,606 148,605 148,604 149,603 150,602 151,600 152,599 153,598 154,597 155,596 156,595 156,593 157,592 158,591 159,590 160,589 161,587 162,586 163,585 164,584 165,583 165,581 166,580 167,579 168,577 169,576 170,575 171,574 172,573 173,572 174,570 174,569 175,568 176,567 177,566 178,564 179,563 180,562 181,561 182,560 182,559 183,557 184,556 185,555 186,554 187,553 188,552 189,551 190,549 191,548 191,547 192,546 193,545 194,544 195,542 196,541 197,540 198,539 199,538 199,537 200,536 201,534 202,533 203,532 204,531 205,530 206,528 207,527 208,526 208,525 209,524 210,523 211,522 212,520 213,519 214,518 215,517 216,516 216,515 217,514 218,513 219,512 220,511 221,510 222,508 223,507 224,506 225,505 225,504 226,503 227,502 228,500 229,499 230,498 231,497 232,496 233,495 233,494 234,493 235,491 236,490 237,489 238,488 239,487 240,486 241,485 242,483 242,482 243,481 244,480 245,479 246,478 247,477 248,475 249,474 250,473 250,472 251,471 252,470 253,469 254,467 255,466 256,465 257,464 258,463 259,462 259,461 260,459 261,458 262,457 263,456 264,455 265,454 266,453 267,451 267,450 268,449 269,448 270,447 271,446 272,445 273,444 274,442 275,441 276,440 276,439 277,438 278,437 279,436 280,435 281,433 282,432 283,431 284,430 284,429 285,428 286,427 287,425 288,424 289,423 290,422 291,421 292,420 293,419 293,417 294,416 295,415 296,414 297,413 298,412 299,410 300,409 301,408 301,407 302,406 303,405 304,404 305,402 306,401 307,400 308,399 309,398 310,397 310,396 311,395 312,394 313,393 314,391 315,390 316,389 317,388 318,387 318,386 319,385 320,384 321,382 322,381 323,380 324,379 325,378 326,377 327,375 327,374 328,373 329,372 330,371 331,370 332,369 333,368 334,366 335,365 335,364 336,363 337,362 338,361 339,359 340,358 341,357 342,356 343,355 344,354 344,353 345,351 346,350 347,349 348,348 349,347 350,346 351,345 352,343 352,342 353,341 354,340 355,339 356,338 357,337 358,335 359,334 360,333 361,332 361,331 362,330 363,329 364,328 365,326 366,325 367,324 368,323 369,322 370,321 370,319 371,318 372,317 373,316 374,315 375,313 376,312 377,311 378,310 378,309 379,308 380,306 381,305 382,304 383,303 384,302 385,301 386,299 387,298 387,297 388,296 389,295 390,294 391,293 392,291 393,290 394,289 395,288 395,287 396,286 397,285 398,283 399,282 400,281 401,280 402,279 403,278 404,276 404,275 405,274 406,273 407,272 408,270 409,269 410,268 411,267 412,266 412,265 413,264 414,263 415,262 416,260 417,259 418,258 419,257 420,256 421,255 421,254 422,252 423,251 424,250 425,249 426,248 427,247 428,245 429,244 429,243 430,242 431,241 432,239 433,238 434,237 435,236 436,235 437,233 438,232 438,231 439,230 440,229 441,228 442,226 443,225 444,224 445,223 446,222 446,221 447,220 448,219 449,217 450,216 451,215 452,214 453,213 454,211 455,210 455,209 456,208 457,207 458,206 459,205 460,204 461,203 462,201 463,200 463,199 464,198 465,197 466,195 467,194 468,193 469,192 470,191 471,189 472,188 472,187 473,186 474,185 475,184 476,183 477,182 478,180 479,179 480,178 480,177 481,176 482,175 483,174 484,172 485,171 486,170 487,169 488,168 489,167 489,166 490,164 491,163 492,162 493,161 494,160 495,159 496,157 497,156 497,155 498,154 499,153 500,152 501,151 502,149 503,148 504,147 505,146 506,145 506,144 507,142 508,141 509,140 510,139 511,138 512,137 513,135 514,134 514,133 515,132 516,131 517,130 518,128 519,127 520,126 521,125 522,124 523,123 523,121 524,120 525,119 526,118 527,117 528,116 529,115 530,113 531,112 531,111 532,110 533,109 534,108 535,107 536,106 537,105 538,104 539,103 540,102 540,100 541,99 542,98 543,97 544,96 545,95 546,94 547,92 548,91 548,90 549,89 550,88 551,87 552,86 553,85 554,84 555,83 556,81 557,80 557,79 558,78 559,77 560,76 561,74 562,73 563,72 564,71 565,70 566,69 566,68 567,68 568,68 569,68 570,68 571,68 572,68 573,68 574,68 574,68 575,68 576,68 577,68 578,68 579,68 580,68 581,68 582,68 583,68 583,68 584,68 585,68 586,68 587,68 588,68 589,68 590,68 591,68 591,68 592,68 593,68 594,68 595,68 596,68 597,68 598,68 599,68 600,68 600,68 601,68 602,68 603,68 604,68 605,68 606,68 607,68 608,68 608,68 609,68 610,68 611,68 612,68 613,68 614,68 615,68 616,68 617,68 617,68 618,68 619,68 620,68 621,68 622,68 623,68 624,68 625,68 625,68 626,68 627,68 628,68 629,68 630,68 631,68 632,68 633,68 634,68 634,68 635,68 636,68 637,68 638,68 639,68 640,68 641,68 642,68 642,68 643,68 644,68 645,68 646,68 647,68 648,68 649,68 650,68 651,68 651,68 652,68 653,68 654,68 655,68 656,68 657,68 658,68 659,68 659,68 660,68 661,68 662,68 663,68 664,68 665,68 666,68 667,68 668,68 668,68 669,68 670,68 671,68 672,68 673,68 674,68 675,68 676,68 676,68 677,68 678,68 679,68 680,68 681,68 682,68 683,68 684,68 685,68 685,68 686,68 687,68 688,68 689,68 690,68 691,68 692,68 693,68 693,68 694,68 695,68 696,68 697,68 698,68 699,68 700,68 701,68 702,68 702,68 703,68 704,68 705,68 706,68 707,68 708,68 709,68 710,68 710,68 711,68 712,68 713,68 714,68 715,68 716,68 717,68 718,68 719,68 719,68 720,68 721,68 722,68 723,68 724,68 725,68 726,68 727,68 727,68 728,68 729,68 730,68 731,68 732,68 733,68 734,68 735,68 736,68 736,68 737,68 738,68 739,68 740,68 741,68 742,68 743,68 744,68 744,68 745,68 746,68 747,68 748,68 749,68 750,68 751,68 752,68 753,68 753,68 754,68 755,68 756,68 757,68 758,68 759,68 760,68 761,68 761,68 762,68 763,68 764,68 765,68 766,68 767,68 768,68 769,68 770,68 770,68 771,68 772,68 773,68 774,68 775,68 776,68 777,68 778,68 779,68 779,68 780,68 781,68 782,68 783,68 784,68 785,68 786,68 787,68 787,68 788,68 789,68 790,68 791,68 792,68 793,68 794,68 795,68 796,68 796,68 797,68 798,68 799,68 800,68 801,68 802,68 803,68 804,68 804,68 805,68 806,68 807,68 808,68 809,68 810,68 811,68 812,68 813,68 813,68 814,68 815,68 816,68 817,68 818,68 819,68 820,68 821,68 821,68 822,68 823,68 824,68 825,68 826,68 827,68 828,68 829,68 830,68 830,68 831,68 832,68 833,68 834,68 835,68 836,68 837,68 838,68 838,68 839,68 840,68 841,68 842,68 843,68 844,68 845,68 846,68 847,68 847,68 848,68 849,68 850,68 851,68 852,68 853,68 854,68 855,68 855,68 856,68 857,68 858,68 859,68 860,68 861,68 862,68 863,68 864,68 864,68 865,68 866,68 867,68 868,68 869,68 870,68 871,68 872,68 872,68 873,68 874,68 875,68 876,68 877,68 878,68 879,68 880,68 881,68 881,68 882,68 883,68 884,68 885,68 886,68 887,68 888,68 889,68 889,68 890,68 891,68 892,68 893,68 894,68 895,68 896,68 897,68 898,68 898,68 899,68 900,68 901,68 902,68 903,68 904,68 905,68 906,68 906,68 907,68 908,68 909,68 910,68 911,68 912,68 913,68 914,68 915,68 915,68 916,68 917,68 918,68 919,68 920,68 921,68 922,68 923,68 923,68 924,68 925,68 926,68 927,68 928,68 929,68 930,68 931,68 932,68 932,68 933,68 934,68 935,68 936,68 937,68 938,68 939,68 940,68 940,68 941,68 942,68 943,68 944,68 945,68 946,68 947,68 948,68 949,68 949,68 950,68 951,68 952,68 953,68 954,68 955,68 956,68 957,68 957,68 958,68 959,68 960,68 961,68 962,68 963,68 964,68 965,68 966,68 966,68 967,68 968,68 969,68 970,68 971,68 972,68 972,69 973,69 973,699 78,699 "/>
<polyline fill="none" opacity="1" stroke="#3CB44B" stroke-width="1" points="78,697 79,696 80,695 80,694 81,692 82,691 83,690 84,689 85,688 86,687 87,686 88,684 88,683 89,682 90,681 91,680 92,679 93,677 94,676 95,675 96,674 97,673 97,672 98,671 99,669 100,668 101,667 102,666 103,665 104,664 105,663 105,661 106,660 107,659 108,658 109,657 110,655 111,654 112,653 113,652 114,651 114,649 115,648 116,647 117,646 118,644 119,643 120,642 121,641 122,640 122,639 123,637 124,636 125,635 126,634 127,633 128,631 129,630 130,629 131,628 131,627 132,625 133,624 134,623 135,622 136,621 137,620 138,618 139,617 139,616 140,615 141,614 142,612 143,611 144,610 145,609 146,607 147,606 148,605 148,604 149,603 150,602 151,600 152,599 153,598 154,597 155,596 156,595 156,593 157,592 158,591 159,590 160,589 161,587 162,586 163,585 164,584 165,583 165,581 166,580 167,579 168,577 169,576 170,575 171,574 172,573 173,572 174,570 174,569 175,568 176,567 177,566 178,564 179,563 180,562 181,561 182,560 182,559 183,557 184,556 185,555 186,554 187,553 188,552 189,551 190,549 191,548 191,547 192,546 193,545 194,544 195,542 196,541 197,540 198,539 199,538 199,537 200,536 201,534 202,533 203,532 204,531 205,530 206,528 207,527 208,526 208,525 209,524 210,523 211,522 212,520 213,519 214,518 215,517 216,516 216,515 217,514 218,513 219,512 220,511 221,510 222,508 223,507 224,506 225,505 225,504 226,503 227,502 228,500 229,499 230,498 231,497 232,496 233,495 233,494 234,493 235,491 236,490 237,489 238,488 239,487 240,486 241,485 242,483 242,482 243,481 244,480 245,479 246,478 247,477 248,475 249,474 250,473 250,472 251,471 252,470 253,469 254,467 255,466 256,465 257,464 258,463 259,462 259,461 260,459 261,458 262,457 263,456 264,455 265,454 266,453 267,451 267,450 268,449 269,448 270,447 271,446 272,445 273,444 274,442 275,441 276,440 276,439 277,438 278,437 279,436 280,435 281,433 282,432 283,431 284,430 284,429 285,428 286,427 287,425 288,424 289,423 290,422 291,421 292,420 293,419 293,417 294,416 295,415 296,414 297,413 298,412 299,410 300,409 301,408 301,407 302,406 303,405 304,404 305,402 306,401 307,400 308,399 309,398 310,397 310,396 311,395 312,394 313,393 314,391 315,390 316,389 317,388 318,387 318,386 319,385 320,384 321,382 322,381 323,380 324,379 325,378 326,377 327,375 327,374 328,373 329,372 330,371 331,370 332,369 333,368 334,366 335,365 335,364 336,363 337,362 338,361 339,359 340,358 341,357 342,356 343,355 344,354 344,353 345,351 346,350 347,349 348,348 349,347 350,346 351,345 352,343 352,342 353,341 354,340 355,339 356,338 357,337 358,335 359,334 360,333 361,332 361,331 362,330 363,329 364,328 365,326 366,325 367,324 368,323 369,322 370,321 370,319 371,318 372,317 373,316 374,315 375,313 376,312 377,311 378,310 378,309 379,308 380,306 381,305 382,304 383,303 384,302 385,301 386,299 387,298 387,297 388,296 389,295 390,294 391,293 392,291 393,290 394,289 395,288 395,287 396,286 397,285 398,283 399,282 400,281 401,280 402,279 403,278 404,276 404,275 405,274 406,273 407,272 408,270 409,269 410,268 411,267 412,266 412,265 413,264 414,263 415,262 416,260 417,259 418,258 419,257 420,256 421,255 421,254 422,252 423,251 424,250 425,249 426,248 427,247 428,245 429,244 429,243 430,242 431,241 432,239 433,238 434,237 435,236 436,235 437,233 438,232 438,231 439,230 440,229 441,228 442,226 443,225 444,224 445,223 446,222 446,221 447,220 448,219 449,217 450,216 451,215 452,214 453,213 454,211 455,210 455,209 456,208 457,207 458,206 459,205 460,204 461,203 462,201 463,200 463,199 464,198 465,197 466,195 467,194 468,193 469,192 470,191 471,189 472,188 472,187 473,186 474,185 475,184 476,183 477,182 478,180 479,179 480,178 480,177 481,176 482,175 483,174 484,172 485,171 486,170 487,169 488,168 489,167 489,166 490,164 491,163 492,162 493,161 494,160 495,159 496,157 497,156 497,155 498,154 499,153 500,152 501,151 502,149 503,148 504,147 505,146 506,145 506,144 507,142 508,141 509,140 510,139 511,138 512,137 513,135 514,134 514,133 515,132 516,131 517,130 518,128 519,127 520,126 521,125 522,124 523,123 523,121 524,120 525,119 526,118 527,117 528,116 529,115 530,113 531,112 531,111 532,110 533,109 534,108 535,107 536,106 537,105 538,104 539,103 540,102 540,100 541,99 542,98 543,97 544,96 545,95 546,94 547,92 548,91 548,90 549,89 550,88 551,87 552,86 553,85 554,84 555,83 556,81 557,80 557,79 558,78 559,77 560,76 561,74 562,73 563,72 564,71 565,70 566,69 566,68 567,68 568,68 569,68 570,68 571,68 572,68 573,68 574,68 574,68 575,68 576,68 577,68 578,68 579,68 580,68 581,68 582,68 583,68 583,68 584,68 585,68 586,68 587,68 588,68 589,68 590,68 591,68 591,68 592,68 593,68 594,68 595,68 596,68 597,68 598,68 599,68 600,68 600,68 601,68 602,68 603,68 604,68 605,68 606,68 607,68 608,68 608,68 609,68 610,68 611,68 612,68 613,68 614,68 615,68 616,68 617,68 617,68 618,68 619,68 620,68 621,68 622,68 623,68 624,68 625,68 625,68 626,68 627,68 628,68 629,68 630,68 631,68 632,68 633,68 634,68 634,68 635,68 636,68 637,68 638,68 639,68 640,68 641,68 642,68 642,68 643,68 644,68 645,68 646,68 647,68 648,68 649,68 650,68 651,68 651,68 652,68 653,68 654,68 655,68 656,68 657,68 658,68 659,68 659,68 660,68 661,68 662,68 663,68 664,68 665,68 666,68 667,68 668,68 668,68 669,68 670,68 671,68 672,68 673,68 674,68 675,68 676,68 676,68 677,68 678,68 679,68 680,68 681,68 682,68 683,68 684,68 685,68 685,68 686,68 687,68 688,68 689,68 690,68 691,68 692,68 693,68 693,68 694,68 695,68 696,68 697,68 698,68 699,68 700,68 701,68 702,68 702,68 703,68 704,68 705,68 706,68 707,68 708,68 709,68 710,68 710,68 711,68 712,68 713,68 714,68 715,68 716,68 717,68 718,68 719,68 719,68 720,68 721,68 722,68 723,68 724,68 725,68 726,68 727,68 727,68 728,68 729,68 730,68 731,68 732,68 733,68 734,68 735,68 736,68 736,68 737,68 738,68 739,68 740,68 741,68 742,68 743,68 744,68 744,68 745,68 746,68 747,68 748,68 749,68 750,68 751,68 752,68 753,68 753,68 754,68 755,68 756,68 757,68 758,68 759,68 760,68 761,68 761,68 762,68 763,68 764,68 765,68 766,68 767,68 768,68 769,68 770,68 770,68 771,68 772,68 773,68 774,68 775,68 776,68 777,68 778,68 779,68 779,68 780,68 781,68 782,68 783,68 784,68 785,68 786,68 787,68 787,68 788,68 789,68 790,68 791,68 792,68 793,68 794,68 795,68 796,68 796,68 797,68 798,68 799,68 800,68 801,68 802,68 803,68 804,68 804,68 805,68 806,68 807,68 808,68 809,68 810,68 811,68 812,68 813,68 813,68 814,68 815,68 816,68 817,68 818,68 819,68 820,68 821,68 821,68 822,68 823,68 824,68 825,68 826,68 827,68 828,68 829,68 830,68 830,68 831,68 832,68 833,68 834,68 835,68 836,68 837,68 838,68 838,68 839,68 840,68 841,68 842,68 843,68 844,68 845,68 846,68 847,68 847,68 848,68 849,68 850,68 851,68 852,68 853,68 854,68 855,68 855,68 856,68 857,68 858,68 859,68 860,68 861,68 862,68 863,68 864,68 864,68 865,68 866,68 867,68 868,68 869,68 870,68 871,68 872,68 872,68 873,68 874,68 875,68 876,68 877,68 878,68 879,68 880,68 881,68 881,68 882,68 883,68 884,68 885,68 886,68 887,68 888,68 889,68 889,68 890,68 891,68 892,68 893,68 894,68 895,68 896,68 897,68 898,68 898,68 899,68 900,68 901,68 902,68 903,68 904,68 905,68 906,68 906,68 907,68 908,68 909,68 910,68 911,68 912,68 913,68 914,68 915,68 915,68 916,68 917,68 918,68 919,68 920,68 921,68 922,68 923,68 923,68 924,68 925,68 926,68 927,68 928,68 929,68 930,68 931,68 932,68 932,68 933,68 934,68 935,68 936,68 937,68 938,68 939,68 940,68 940,68 941,68 942,68 943,68 944,68 945,68 946,68 947,68 948,68 949,68 949,68 950,68 951,68 952,68 953,68 954,68 955,68 956,68 957,68 957,68 958,68 959,68 960,68 961,68 962,68 963,68 964,68 965,68 966,68 966,68 967,68 968,68 969,68 970,68 971,68 972,68 972,69 973,69 "/>
<polygon opacity="1" fill="#E6194B" points="78,699 79,699 80,699 80,699 81,699 82,699 83,699 84,699 85,699 86,699 87,699 88,699 88,699 89,699 90,699 91,699 92,699 93,699 94,699 95,699 96,699 97,699 97,699 98,699 99,699 100,699 101,699 102,699 103,699 104,699 105,699 105,699 106,699 107,699 108,699 109,699 110,699 111,699 112,699 113,699 114,699 114,699 115,699 116,699 117,699 118,699 119,699 120,699 121,699 122,699 122,699 123,699 124,699 125,699 126,699 127,699 128,699 129,699 130,699 131,698 131,698 132,698 133,698 134,698 135,698 136,698 137,698 138,698 139,698 139,698 140,698 141,698 142,698 143,698 144,698 145,698 146,698 147,698 148,698 148,698 149,698 150,698 151,698 152,698 153,698 154,698 155,698 156,698 156,698 157,698 158,698 159,698 160,698 161,698 162,698 163,698 164,698 165,698 165,698 166,698 167,698 168,698 169,698 170,698 171,698 172,698 173,698 174,698 174,698 175,698 176,698 177,698 178,698 179,698 180,698 181,698 182,698 182,698 183,698 184,698 185,698 186,698 187,698 188,698 189,698 190,698 191,698 191,698 192,698 193,698 194,698 195,698 196,698 197,698 198,698 199,698 199,698 200,698 201,698 202,698 203,698 204,698 205,698 206,698 207,698 208,698 208,698 209,698 210,698 211,698 212,698 213,698 214,698 215,698 216,698 216,698 217,698 218,698 219,698 220,698 221,698 222,698 223,698 224,698 225,698 225,698 226,698 227,698 228,698 229,698 230,698 231,698 232,698 233,698 233,698 234,698 235,698 236,698 237,698 238,698 239,698 240,698 241,698 242,698 242,698 243,698 244,698 245,698 246,698 247,698 248,698 249,698 250,698 250,698 251,698 252,698 253,698 254,698 255,698 256,698 257,698 258,698 259,698 259,698 260,698 261,698 262,698 263,698 264,698 265,698 266,698 267,698 267,698 268,698 269,698 270,698 271,698 272,698 273,698 274,698 275,698 276,698 276,698 277,698 278,698 279,698 280,698 281,698 282,698 283,698 284,698 284,698 285,698 286,698 287,698 288,698 289,698 290,698 291,698 292,698 293,698 293,698 294,698 295,698 296,698 297,698 298,698 299,698 300,698 301,698 301,698 302,698 303,698 304,698 305,698 306,698 307,698 308,698 309,698 310,698 310,698 311,698 312,698 313,698 314,698 315,698 316,698 317,698 318,698 318,698 319,698 320,698 321,698 322,698 323,698 324,698 325,698 326,698 327,698 327,698 328,698 329,698 330,698 331,698 332,698 333,698 334,698 335,698 335,698 336,698 337,698 338,698 339,698 340,698 341,698 342,698 343,698 344,698 344,698 345,698 346,698 347,698 348,698 349,698 350,698 351,698 352,698 352,698 353,698 354,698 355,698 356,698 357,698 358,698 359,698 360,698 361,698 361,698 362,698 363,698 364,698 365,698 366,698 367,698 368,698 369,698 370,698 370,698 371,698 372,698 373,698 374,698 375,698 376,698 377,698 378,698 378,698 379,698 380,698 381,698 382,698 383,698 384,698 385,698 386,698 387,698 387,698 388,698 389,698 390,698 391,698 392,698 393,698 394,698 395,698 395,698 396,698 397,698 398,698 399,698 400,698 401,698 402,698 403,698 404,698 404,698 405,698 406,698 407,698 408,698 409,698 410,698 411,698 412,698 412,698 413,698 414,698 415,698 416,698 417,698 418,698 419,698 420,698 421,698 421,698 422,698 423,698 424,698 425,698 426,698 427,698 428,698 429,698 429,698 430,698 431,698 432,698 433,698 434,698 435,698 436,698 437,698 438,698 438,698 439,698 440,698 441,698 442,698 443,698 444,698 445,698 446,698 446,698 447,698 448,698 449,698 450,698 451,698 452,698 453,698 454,698 455,698 455,698 456,698 457,698 458,698 459,698 460,698 461,698 462,698 463,698 463,698 464,698 465,698 466,698 467,698 468,698 469,698 470,698 471,698 472,698 472,698 473,698 474,698 475,698 476,698 477,698 478,698 479,698 480,698 480,698 481,698 482,698 483,698 484,698 485,698 486,697 487,696 488,695 489,694 489,692 490,691 491,690 492,689 493,688 494,687 495,685 496,684 497,683 497,682 498,681 499,680 500,679 501,677 502,676 503,675 504,674 505,673 506,672 506,670 507,669 508,668 509,667 510,666 511,665 512,663 513,662 514,661 514,660 515,659 516,658 517,656 518,655 519,654 520,653 521,652 522,651 523,649 523,648 524,647 525,646 526,645 527,644 528,643 529,641 530,640 531,639 531,638 532,637 533,636 534,635 535,634 536,633 537,632 538,631 539,630 540,628 540,627 541,626 542,625 543,624 544,623 545,622 546,620 547,619 548,618 548,617 549,616 550,615 551,614 552,613 553,612 554,610 555,609 556,608 557,607 557,606 558,605 559,604 560,602 561,601 562,600 563,599 564,598 565,597 566,596 566,595 567,593 568,592 569,591 570,590 571,589 572,588 573,587 574,585 574,584 575,583 576,582 577,581 578,579 579,578 580,577 581,576 582,575 583,574 583,572 584,571 585,570 586,569 587,568 588,567 589,565 590,564 591,563 591,562 592,561 593,560 594,559 595,557 596,556 597,555 598,554 599,553 600,552 600,550 601,549 602,548 603,547 604,546 605,545 606,544 607,543 608,541 608,540 609,539 610,538 611,537 612,536 613,535 614,534 615,532 616,531 617,530 617,529 618,527 619,526 620,525 621,524 622,523 623,522 624,520 625,519 625,518 626,517 627,516 628,515 629,513 630,512 631,511 632,510 633,509 634,508 634,507 635,505 636,504 637,503 638,502 639,501 640,499 641,498 642,497 642,496 643,495 644,494 645,493 646,491 647,490 648,489 649,488 650,486 651,485 651,484 652,483 653,482 654,481 655,480 656,478 657,477 658,476 659,475 659,474 660,473 661,471 662,470 663,469 664,468 665,467 666,466 667,465 668,464 668,462 669,461 670,460 671,459 672,458 673,457 674,456 675,454 676,453 676,452 677,451 678,450 679,449 680,448 681,446 682,445 683,444 684,443 685,442 685,441 686,439 687,438 688,437 689,436 690,435 691,434 692,433 693,432 693,430 694,429 695,428 696,427 697,426 698,425 699,423 700,422 701,421 702,420 702,419 703,418 704,417 705,415 706,414 707,413 708,412 709,411 710,410 710,408 711,407 712,406 713,405 714,404 715,402 716,401 717,400 718,399 719,398 719,397 720,395 721,394 722,393 723,392 724,391 725,390 726,388 727,387 727,386 728,385 729,384 730,383 731,382 732,380 733,379 734,378 735,377 736,376 736,375 737,374 738,373 739,372 740,370 741,369 742,368 743,367 744,366 744,365 745,364 746,362 747,361 748,360 749,359 750,358 751,357 752,356 753,355 753,354 754,353 755,351 756,350 757,349 758,348 759,347 760,346 761,344 761,343 762,342 763,341 764,340 765,339 766,337 767,336 768,335 769,334 770,333 770,332 771,331 772,329 773,328 774,327 775,326 776,325 777,323 778,322 779,321 779,320 780,319 781,318 782,317 783,315 784,314 785,313 786,312 787,311 787,309 788,308 789,307 790,306 791,305 792,304 793,302 794,301 795,300 796,299 796,298 797,297 798,296 799,294 800,293 801,292 802,291 803,290 804,288 804,287 805,286 806,285 807,284 808,283 809,282 810,281 811,279 812,278 813,277 813,276 814,275 815,273 816,272 817,271 818,270 819,269 820,268 821,266 821,265 822,264 823,263 824,262 825,261 826,259 827,258 828,257 829,256 830,255 830,254 831,253 832,251 833,250 834,249 835,248 836,247 837,246 838,244 838,243 839,242 840,241 841,240 842,239 843,238 844,236 845,235 846,234 847,233 847,232 848,231 849,230 850,229 851,227 852,226 853,225 854,224 855,223 855,221 856,220 857,219 858,218 859,217 860,215 861,214 862,213 863,212 864,211 864,209 865,208 866,207 867,206 868,205 869,203 870,202 871,201 872,200 872,199 873,197 874,196 875,195 876,194 877,193 878,191 879,190 880,189 881,188 881,187 882,185 883,184 884,183 885,182 886,181 887,180 888,179 889,178 889,177 890,175 891,174 892,173 893,172 894,171 895,169 896,168 897,167 898,166 898,165 899,163 900,162 901,161 902,160 903,159 904,158 905,157 906,155 906,154 907,153 908,152 909,150 910,149 911,148 912,147 913,146 914,145 915,143 915,142 916,141 917,140 918,139 919,138 920,136 921,135 922,134 923,133 923,132 924,131 925,130 926,128 927,127 928,126 929,125 930,124 931,122 932,121 932,120 933,119 934,118 935,117 936,116 937,115 938,113 939,112 940,111 940,110 941,108 942,107 943,106 944,105 945,104 946,103 947,101 948,100 949,99 949,98 950,97 951,96 952,94 953,93 954,92 955,91 956,90 957,89 957,87 958,86 959,85 960,84 961,83 962,82 963,80 964,79 965,78 966,77 966,76 967,75 968,73 969,72 970,71 971,70 972,69 972,69 973,69 973,699 78,699 "/>
<polyline fill="none" opacity="1" stroke="#E6194B" stroke-width="1" points="78,699 79,699 80,699 80,699 81,699 82,699 83,699 84,699 85,699 86,699 87,699 88,699 88,699 89,699 90,699 91,699 92,699 93,699 94,699 95,699 96,699 97,699 97,699 98,699 99,699 100,699 101,699 102,699 103,699 104,699 105,699 105,699 106,699 107,699 108,699 109,699 110,699 111,699 112,699 113,699 114,699 114,699 115,699 116,699 117,699 118,699 119,699 120,699 121,699 122,699 122,699 123,699 124,699 125,699 126,699 127,699 128,699 129,699 130,699 131,698 131,698 132,698 133,698 134,698 135,698 136,698 137,698 138,698 139,698 139,698 140,698 141,698 142,698 143,698 144,698 145,698 146,698 147,698 148,698 148,698 149,698 150,698 151,698 152,698 153,698 154,698 155,698 156,698 156,698 157,698 158,698 159,698 160,698 161,698 162,698 163,698 164,698 165,698 165,698 166,698 167,698 168,698 169,698 170,698 171,698 172,698 173,698 174,698 174,698 175,698 176,698 177,698 178,698 179,698 180,698 181,698 182,698 182,698 183,698 184,698 185,698 186,698 187,698 188,698 189,698 190,698 191,698 191,698 192,698 193,698 194,698 195,698 196,698 197,698 198,698 199,698 199,698 200,698 201,698 202,698 203,698 204,698 205,698 206,698 207,698 208,698 208,698 209,698 210,698 211,698 212,698 213,698 214,698 215,698 216,698 216,698 217,698 218,698 219,698 220,698 221,698 222,698 223,698 224,698 225,698 225,698 226,698 227,698 228,698 229,698 230,698 231,698 232,698 233,698 233,698 234,698 235,698 236,698 237,698 238,698 239,698 240,698 241,698 242,698 242,698 243,698 244,698 245,698 246,698 247,698 248,698 249,698 250,698 250,698 251,698 252,698 253,698 254,698 255,698 256,698 257,698 258,698 259,698 259,698 260,698 261,698 262,698 263,698 264,698 265,698 266,698 267,698 267,698 268,698 269,698 270,698 271,698 272,698 273,698 274,698 275,698 276,698 276,698 277,698 278,698 279,698 280,698 281,698 282,698 283,698 284,698 284,698 285,698 286,698 287,698 288,698 289,698 290,698 291,698 292,698 293,698 293,698 294,698 295,698 296,698 297,698 298,698 299,698 300,698 301,698 301,698 302,698 303,698 304,698 305,698 306,698 307,698 308,698 309,698 310,698 310,698 311,698 312,698 313,698 314,698 315,698 316,698 317,698 318,698 318,698 319,698 320,698 321,698 322,698 323,698 324,698 325,698 326,698 327,698 327,698 328,698 329,698 330,698 331,698 332,698 333,698 334,698 335,698 335,698 336,698 337,698 338,698 339,698 340,698 341,698 342,698 343,698 344,698 344,698 345,698 346,698 347,698 348,698 349,698 350,698 351,698 352,698 352,698 353,698 354,698 355,698 356,698 357,698 358,698 359,698 360,698 361,698 361,698 362,698 363,698 364,698 365,698 366,698 367,698 368,698 369,698 370,698 370,698 371,698 372,698 373,698 374,698 375,698 376,698 377,698 378,698 378,698 379,698 380,698 381,698 382,698 383,698 384,698 385,698 386,698 387,698 387,698 388,698 389,698 390,698 391,698 392,698 393,698 394,698 395,698 395,698 396,698 397,698 398,698 399,698 400,698 401,698 402,698 403,698 404,698 404,698 405,698 406,698 407,698 408,698 409,698 410,698 411,698 412,698 412,698 413,698 414,698 415,698 416,698 417,698 418,698 419,698 420,698 421,698 421,698 422,698 423,698 424,698 425,698 426,698 427,698 428,698 429,698 429,698 430,698 431,698 432,698 433,698 434,698 435,698 436,698 437,698 438,698 438,698 439,698 440,698 441,698 442,698 443,698 444,698 445,698 446,698 446,698 447,698 448,698 449,698 450,698 451,698 452,698 453,698 454,698 455,698 455,698 456,698 457,698 458,698 459,698 460,698 461,698 462,698 463,698 463,698 464,698 465,698 466,698 467,698 468,698 469,698 470,698 471,698 472,698 472,698 473,698 474,698 475,698 476,698 477,698 478,698 479,698 480,698 480,698 481,698 482,698 483,698 484,698 485,698 486,697 487,696 488,695 489,694 489,692 490,691 491,690 492,689 493,688 494,687 495,685 496,684 497,683 497,682 498,681 499,680 500,679 501,677 502,676 503,675 504,674 505,673 506,672 506,670 507,669 508,668 509,667 510,666 511,665 512,663 513,662 514,661 514,660 515,659 516,658 517,656 518,655 519,654 520,653 521,652 522,651 523,649 523,648 524,647 525,646 526,645 527,644 528,643 529,641 530,640 531,639 531,638 532,637 533,636 534,635 535,634 536,633 537,632 538,631 539,630 540,628 540,627 541,626 542,625 543,624 544,623 545,622 546,620 547,619 548,618 548,617 549,616 550,615 551,614 552,613 553,612 554,610 555,609 556,608 557,607 557,606 558,605 559,604 560,602 561,601 562,600 563,599 564,598 565,597 566,596 566,595 567,593 568,592 569,591 570,590 571,589 572,588 573,587 574,585 574,584 575,583 576,582 577,581 578,579 579,578 580,577 581,576 582,575 583,574 583,572 584,571 585,570 586,569 587,568 588,567 589,565 590,564 591,563 591,562 592,561 593,560 594,559 595,557 596,556 597,555 598,554 599,553 600,552 600,550 601,549 602,548 603,547 604,546 605,545 606,544 607,543 608,541 608,540 609,539 610,538 611,537 612,536 613,535 614,534 615,532 616,531 617,530 617,529 618,527 619,526 620,525 621,524 622,523 623,522 624,520 625,519 625,518 626,517 627,516 628,515 629,513 630,512 631,511 632,510 633,509 634,508 634,507 635,505 636,504 637,503 638,502 639,501 640,499 641,498 642,497 642,496 643,495 644,494 645,493 646,491 647,490 648,489 649,488 650,486 651,485 651,484 652,483 653,482 654,481 655,480 656,478 657,477 658,476 659,475 659,474 660,473 661,471 662,470 663,469 664,468 665,467 666,466 667,465 668,464 668,462 669,461 670,460 671,459 672,458 673,457 674,456 675,454 676,453 676,452 677,451 678,450 679,449 680,448 681,446 682,445 683,444 684,443 685,442 685,441 686,439 687,438 688,437 689,436 690,435 691,434 692,433 693,432 693,430 694,429 695,428 696,427 697,426 698,425 699,423 700,422 701,421 702,420 702,419 703,418 704,417 705,415 706,414 707,413 708,412 709,411 710,410 710,408 711,407 712,406 713,405 714,404 715,402 716,401 717,400 718,399 719,398 719,397 720,395 721,394 722,393 723,392 724,391 725,390 726,388 727,387 727,386 728,385 729,384 730,383 731,382 732,380 733,379 734,378 735,377 736,376 736,375 737,374 738,373 739,372 740,370 741,369 742,368 743,367 744,366 744,365 745,364 746,362 747,361 748,360 749,359 750,358 751,357 752,356 753,355 753,354 754,353 755,351 756,350 757,349 758,348 759,347 760,346 761,344 761,343 762,342 763,341 764,340 765,339 766,337 767,336 768,335 769,334 770,333 770,332 771,331 772,329 773,328 774,327 775,326 776,325 777,323 778,322 779,321 779,320 780,319 781,318 782,317 783,315 784,314 785,313 786,312 787,311 787,309 788,308 789,307 790,306 791,305 792,304 793,302 794,301 795,300 796,299 796,298 797,297 798,296 799,294 800,293 801,292 802,291 803,290 804,288 804,287 805,286 806,285 807,284 808,283 809,282 810,281 811,279 812,278 813,277 813,276 814,275 815,273 816,272 817,271 818,270 819,269 820,268 821,266 821,265 822,264 823,263 824,262 825,261 826,259 827,258 828,257 829,256 830,255 830,254 831,253 832,251 833,250 834,249 835,248 836,247 837,246 838,244 838,243 839,242 840,241 841,240 842,239 843,238 844,236 845,235 846,234 847,233 847,232 848,231 849,230 850,229 851,227 852,226 853,225 854,224 855,223 855,221 856,220 857,219 858,218 859,217 860,215 861,214 862,213 863,212 864,211 864,209 865,208 866,207 867,206 868,205 869,203 870,202 871,201 872,200 872,199 873,197 874,196 875,195 876,194 877,193 878,191 879,190 880,189 881,188 881,187 882,185 883,184 884,183 885,182 886,181 887,180 888,179 889,178 889,177 890,175 891,174 892,173 893,172 894,171 895,169 896,168 897,167 898,166 898,165 899,163 900,162 901,161 902,160 903,159 904,158 905,157 906,155 906,154 907,153 908,152 909,150 910,149 911,148 912,147 913,146 914,145 915,143 915,142 916,141 917,140 918,139 919,138 920,136 921,135 922,134 923,133 923,132 924,131 925,130 926,128 927,127 928,126 929,125 930,124 931,122 932,121 932,120 933,119 934,118 935,117 936,116 937,115 938,113 939,112 940,111 940,110 941,108 942,107 943,106 944,105 945,104 946,103 947,101 948,100 949,99 949,98 950,97 951,96 952,94 953,93 954,92 955,91 956,90 957,89 957,87 958,86 959,85 960,84 961,83 962,82 963,80 964,79 965,78 966,77 966,76 967,75 968,73 969,72 970,71 971,70 972,69 972,69 973,69 "/>
<line opacity="0.1" stroke="#000000" stroke-width="1" x1="84" y1="699" x2="84" y2="68"/>
<line opacity="0.1" stroke="#000000" stroke-width="1" x1="94" y1="699" x2="94" y2="68"/>
<line opacity="0.1" stroke="#000000" stroke-width="1" x1="105" y1="699" x2="105" y2="68"/>
<line opacity="0.1" stroke="#000000" stroke-width="1" x1="115" y1="699" x2="115" y2="68"/>
<line opacity="0.1" stroke="#000000" stroke-width="1" x1="126" y1="699" x2="126" y2="68"/>
<line opacity="0.1" stroke="#000000" stroke-width="1" x1="137" y1="699" x2="137" y2="68"/>
<line opacity="0.1" stroke="#000000" stroke-width="1" x1="147" y1="699" x2="147" y2="68"/>
<line opacity="0.1" stroke="#000000" stroke-width="1" x1="158" y1="699" x2="158" y2="68"/>
<line opacity="0.1" stroke="#000000" stroke-width="1" x1="168" y1="699" x2="168" y2="68"/>
<line opacity="0.1" stroke="#000000" stroke-width="1" x1="179" y1="699" x2="179" y2="68"/>
<line opacity="0.1" stroke="#000000" stroke-width="1" x1="189" y1="699" x2="189" y2="68"/>
<line opacity="0.1" stroke="#000000" stroke-width="1" x1="200" y1="699" x2="200" y2="68"/>
<line opacity="0.1" stroke="#000000" stroke-width="1" x1="211" y1="699" x2="211" y2="68"/>
<line opacity="0.1" stroke="#000000" stroke-width="1" x1="221" y1="699" x2="221" y2="68"/>
<line opacity="0.1" stroke="#000000" stroke-width="1" x1="232" y1="699" x2="232" y2="68"/>
<line opacity="0.1" stroke="#000000" stroke-width="1" x1="242" y1="699" x2="242" y2="68"/>
<line opacity="0.1" stroke="#000000" stroke-width="1" x1="253" y1="699" x2="253" y2="68"/>
<line opacity="0.1" stroke="#000000" stroke-width="1" x1="264" y1="699" x2="264" y2="68"/>
<line opacity="0.1" stroke="#000000" stroke-width="1" x1="274" y1="699" x2="274" y2="68"/>
<line opacity="0.1" stroke="#000000" stroke-width="1" x1="285" y1="699" x2="285" y2="68"/>
<line opacity="0.1" stroke="#000000" stroke-width="1" x1="295" y1="699" x2="295" y2="68"/>
<line opacity="0.1" stroke="#000000" stroke-width="1" x1="306" y1="699" x2="306" y2="68"/>
<line opacity="0.1" stroke="#000000" stroke-width="1" x1="316" y1="699" x2="316" y2="68"/>
<line opacity="0.1" stroke="#000000" stroke-width="1" x1="327" y1="699" x2="327" y2="68"/>
<line opacity="0.1" stroke="#000000" stroke-width="1" x1="338" y1="699" x2="338" y2="68"/>
<line opacity="0.1" stroke="#000000" stroke-width="1" x1="348" y1="699" x2="348" y2="68"/>
<line opacity="0.1" stroke="#000000" stroke-width="1" x1="359" y1="699" x2="359" y2="68"/>
<line opacity="0.1" stroke="#000000" stroke-width="1" x1="369" y1="699" x2="369" y2="68"/>
<line opacity="0.1" stroke="#000000" stroke-width="1" x1="380" y1="699" x2="380" y2="68"/>
<line opacity="0.1" stroke="#000000" stroke-width="1" x1="390" y1="699" x2="390" y2="68"/>
<line opacity="0.1" stroke="#000000" stroke-width="1" x1="401" y1="699" x2="401" y2="68"/>
<line opacity="0.1" stroke="#000000" stroke-width="1" x1="412" y1="699" x2="412" y2="68"/>
<line opacity="0.1" stroke="#000000" stroke-width="1" x1="422" y1="699" x2="422" y2="68"/>
<line opacity="0.1" stroke="#000000" stroke-width="1" x1="433" y1="699" x2="433" y2="68"/>
<line opacity="0.1" stroke="#000000" stroke-width="1" x1="443" y1="699" x2="443" y2="68"/>
<line opacity="0.1" stroke="#000000" stroke-width="1" x1="454" y1="699" x2="454" y2="68"/>
<line opacity="0.1" stroke="#000000" stroke-width="1" x1="464" y1="699" x2="464" y2="68"/>
<line opacity="0.1" stroke="#000000" stroke-width="1" x1="475" y1="699" x2="475" y2="68"/>
<line opacity="0.1" stroke="#000000" stroke-width="1" x1="486" y1="699" x2="486" y2="68"/>
<line opacity="0.1" stroke="#000000" stroke-width="1" x1="496" y1="699" x2="496" y2="68"/>
<line opacity="0.1" stroke="#000000" stroke-width="1" x1="507" y1="699" x2="507" y2="68"/>
<line opacity="0.1" stroke="#000000" stroke-width="1" x1="517" y1="699" x2="517" y2="68"/>
<line opacity="0.1" stroke="#000000" stroke-width="1" x1="528" y1="699" x2="528" y2="68"/>
<line opacity="0.1" stroke="#000000" stroke-width="1" x1="538" y1="699" x2="538" y2="68"/>
<line opacity="0.1" stroke="#000000" stroke-width="1" x1="549" y1="699" x2="549" y2="68"/>
<line opacity="0.1" stroke="#000000" stroke-width="1" x1="560" y1="699" x2="560" y2="68"/>
<line opacity="0.1" stroke="#000000" stroke-width="1" x1="570" y1="699" x2="570" y2="68"/>
<line opacity="0.1" stroke="#000000" stroke-width="1" x1="581" y1="699" x2="581" y2="68"/>
<line opacity="0.1" stroke="#000000" stroke-width="1" x1="591" y1="699" x2="591" y2="68"/>
<line opacity="0.1" stroke="#000000" stroke-width="1" x1="602" y1="699" x2="602" y2="68"/>
<line opacity="0.1" stroke="#000000" stroke-width="1" x1="612" y1="699" x2="612" y2="68"/>
<line opacity="0.1" stroke="#000000" stroke-width="1" x1="623" y1="699" x2="623" y2="68"/>
<line opacity="0.1" stroke="#000000" stroke-width="1" x1="634" y1="699" x2="634" y2="68"/>
<line opacity="0.1" stroke="#000000" stroke-width="1" x1="644" y1="699" x2="644" y2="68"/>
<line opacity="0.1" stroke="#000000" stroke-width="1" x1="655" y1="699" x2="655" y2="68"/>
<line opacity="0.1" stroke="#000000" stroke-width="1" x1="665" y1="699" x2="665" y2="68"/>
<line opacity="0.1" stroke="#000000" stroke-width="1" x1="676" y1="699" x2="676" y2="68"/>
<line opacity="0.1" stroke="#000000" stroke-width="1" x1="687" y1="699" x2="687" y2="68"/>
<line opacity="0.1" stroke="#000000" stroke-width="1" x1="697" y1="699" x2="697" y2="68"/>
<line opacity="0.1" stroke="#000000" stroke-width="1" x1="708" y1="699" x2="708" y2="68"/>
<line opacity="0.1" stroke="#000000" stroke-width="1" x1="718" y1="699" x2="718" y2="68"/>
<line opacity="0.1" stroke="#000000" stroke-width="1" x1="729" y1="699" x2="729" y2="68"/>
<line opacity="0.1" stroke="#000000" stroke-width="1" x1="739" y1="699" x2="739" y2="68"/>
<line opacity="0.1" stroke="#000000" stroke-width="1" x1="750" y1="699" x2="750" y2="68"/>
<line opacity="0.1" stroke="#000000" stroke-width="1" x1="761" y1="699" x2="761" y2="68"/>
<line opacity="0.1" stroke="#000000" stroke-width="1" x1="771" y1="699" x2="771" y2="68"/>
<line opacity="0.1" stroke="#000000" stroke-width="1" x1="782" y1="699" x2="782" y2="68"/>
<line opacity="0.1" stroke="#000000" stroke-width="1" x1="792" y1="699" x2="792" y2="68"/>
<line opacity="0.1" stroke="#000000" stroke-width="1" x1="803" y1="699" x2="803" y2="68"/>
<line opacity="0.1" stroke="#000000" stroke-width="1" x1="813" y1="699" x2="813" y2="68"/>
<line opacity="0.1" stroke="#000000" stroke-width="1" x1="824" y1="699" x2="824" y2="68"/>
<line opacity="0.1" stroke="#000000" stroke-width="1" x1="835" y1="699" x2="835" y2="68"/>
<line opacity="0.1" stroke="#000000" stroke-width="1" x1="845" y1="699" x2="845" y2="68"/>
<line opacity="0.1" stroke="#000000" stroke-width="1" x1="856" y1="699" x2="856" y2="68"/>
<line opacity="0.1" stroke="#000000" stroke-width="1" x1="866" y1="699" x2="866" y2="68"/>
<line opacity="0.1" stroke="#000000" stroke-width="1" x1="877" y1="699" x2="877" y2="68"/>
<line opacity="0.1" stroke="#000000" stroke-width="1" x1="887" y1="699" x2="887" y2="68"/>
<line opacity="0.1" stroke="#000000" stroke-width="1" x1="898" y1="699" x2="898" y2="68"/>
<line opacity="0.1" stroke="#000000" stroke-width="1" x1="909" y1="699" x2="909" y2="68"/>
<line opacity="0.1" stroke="#000000" stroke-width="1" x1="919" y1="699" x2="919" y2="68"/>
<line opacity="0.1" stroke="#000000" stroke-width="1" x1="930" y1="699" x2="930" y2="68"/>
<line opacity="0.1" stroke="#000000" stroke-width="1" x1="940" y1="699" x2="940" y2="68"/>
<line opacity="0.1" stroke="#000000" stroke-width="1" x1="951" y1="699" x2="951" y2="68"/>
<line opacity="0.1" stroke="#000000" stroke-width="1" x1="961" y1="699" x2="961" y2="68"/>
<line opacity="0.1" stroke="#000000" stroke-width="1" x1="972" y1="699" x2="972" y2="68"/>
<line opacity="0.1" stroke="#000000" stroke-width="1" x1="78" y1="699" x2="973" y2="699"/>
<line opacity="0.1" stroke="#000000" stroke-width="1" x1="78" y1="690" x2="973" y2="690"/>
<line opacity="0.1" stroke="#000000" stroke-width="1" x1="78" y1="681" x2="973" y2="681"/>
<line opacity="0.1" stroke="#000000" stroke-width="1" x1="78" y1="672" x2="973" y2="672"/>
<line opacity="0.1" stroke="#000000" stroke-width="1" x1="78" y1="663" x2="973" y2="663"/>
<line opacity="0.1" stroke="#000000" stroke-width="1" x1="78" y1="654" x2="973" y2="654"/>
<line opacity="0.1" stroke="#000000" stroke-width="1" x1="78" y1="645" x2="973" y2="645"/>
<line opacity="0.1" stroke="#000000" stroke-width="1" x1="78" y1="636" x2="973" y2="636"/>
<line opacity="0.1" stroke="#000000" stroke-width="1" x1="78" y1="627" x2="973" y2="627"/>
<line opacity="0.1" stroke="#000000" stroke-width="1" x1="78" y1="619" x2="973" y2="619"/>
<line opacity="0.1" stroke="#000000" stroke-width="1" x1="78" y1="610" x2="973" y2="610"/>
<line opacity="0.1" stroke="#000000" stroke-width="1" x1="78" y1="601" x2="973" y2="601"/>
<line opacity="0.1" stroke="#000000" stroke-width="1" x1="78" y1="592" x2="973" y2="592"/>
<line opacity="0.1" stroke="#000000" stroke-width="1" x1="78" y1="583" x2="973" y2="583"/>
<line opacity="0.1" stroke="#000000" stroke-width="1" x1="78" y1="574" x2="973" y2="574"/>
<line opacity="0.1" stroke="#000000" stroke-width="1" x1="78" y1="565" x2="973" y2="565"/>
<line opacity="0.1" stroke="#000000" stroke-width="1" x1="78" y1="556" x2="973" y2="556"/>
<line opacity="0.1" stroke="#000000" stroke-width="1" x1="78" y1="548" x2="973" y2="548"/>
<line opacity="0.1" stroke="#000000" stroke-width="1" x1="78" y1="539" x2="973" y2="539"/>
<line opacity="0.1" stroke="#000000" stroke-width="1" x1="78" y1="530" x2="973" y2="530"/>
<line opacity="0.1" stroke="#000000" stroke-width="1" x1="78" y1="521" x2="973" y2="521"/>
<line opacity="0.1" stroke="#000000" stroke-width="1" x1="78" y1="512" x2="973" y2="512"/>
<line opacity="0.1" stroke="#000000" stroke-width="1" x1="78" y1="503" x2="973" y2="503"/>
<line opacity="0.1" stroke="#000000" stroke-width="1" x1="78" y1="494" x2="973" y2="494"/>
<line opacity="0.1" stroke="#000000" stroke-width="1" x1="78" y1="485" x2="973" y2="485"/>
<line opacity="0.1" stroke="#000000" stroke-width="1" x1="78" y1="477" x2="973" y2="477"/>
<line opacity="0.1" stroke="#000000" stroke-width="1" x1="78" y1="468" x2="973" y2="468"/>
<line opacity="0.1" stroke="#000000" stroke-width="1" x1="78" y1="459" x2="973" y2="459"/>
<line opacity="0.1" stroke="#000000" stroke-width="1" x1="78" y1="450" x2="973" y2="450"/>
<line opacity="0.1" stroke="#000000" stroke-width="1" x1="78" y1="441" x2="973" y2="441"/>
<line opacity="0.1" stroke="#000000" stroke-width="1" x1="78" y1="432" x2="973" y2="432"/>
<line opacity="0.1" stroke="#000000" stroke-width="1" x1="78" y1="423" x2="973" y2="423"/>
<line opacity="0.1" stroke="#000000" stroke-width="1" x1="78" y1="414" x2="973" y2="414"/>
<line opacity="0.1" stroke="#000000" stroke-width="1" x1="78" y1="406" x2="973" y2="406"/>
<line opacity="0.1" stroke="#000000" stroke-width="1" x1="78" y1="397" x2="973" y2="397"/>
<line opacity="0.1" stroke="#000000" stroke-width="1" x1="78" y1="388" x2="973" y2="388"/>
<line opacity="0.1" stroke="#000000" stroke-width="1" x1="78" y1="379" x2="973" y2="379"/>
<line opacity="0.1" stroke="#000000" stroke-width="1" x1="78" y1="370" x2="973" y2="370"/>
<line opacity="0.1" stroke="#000000" stroke-width="1" x1="78" y1="361" x2="973" y2="361"/>
<line opacity="0.1" stroke="#000000" stroke-width="1" x1="78" y1="352" x2="973" y2="352"/>
<line opacity="0.1" stroke="#000000" stroke-width="1" x1="78" y1="343" x2="973" y2="343"/>
<line opacity="0.1" stroke="#000000" stroke-width="1" x1="78" y1="334" x2="973" y2="334"/>
<line opacity="0.1" stroke="#000000" stroke-width="1" x1="78" y1="326" x2="973" y2="326"/>
<line opacity="0.1" stroke="#000000" stroke-width="1" x1="78" y1="317" x2="973" y2="317"/>
<line opacity="0.1" stroke="#000000" stroke-width="1" x1="78" y1="308" x2="973" y2="308"/>
<line opacity="0.1" stroke="#000000" stroke-width="1" x1="78" y1="299" x2="973" y2="299"/>
<line opacity="0.1" stroke="#000000" stroke-width="1" x1="78" y1="290" x2="973" y2="290"/>
<line opacity="0.1" stroke="#000000" stroke-width="1" x1="78" y1="281" x2="973" y2="281"/>
<line opacity="0.1" stroke="#000000" stroke-width="1" x1="78" y1="272" x2="973" y2="272"/>
<line opacity="0.1" stroke="#000000" stroke-width="1" x1="78" y1="263" x2="973" y2="263"/>
<line opacity="0.1" stroke="#000000" stroke-width="1" x1="78" y1="255" x2="973" y2="255"/>
<line opacity="0.1" stroke="#000000" stroke-width="1" x1="78" y1="246" x2="973" y2="246"/>
<line opacity="0.1" stroke="#000000" stroke-width="1" x1="78" y1="237" x2="973" y2="237"/>
<line opacity="0.1" stroke="#000000" stroke-width="1" x1="78" y1="228" x2="973" y2="228"/>
<line opacity="0.1" stroke="#000000" stroke-width="1" x1="78" y1="219" x2="973" y2="219"/>
<line opacity="0.1" stroke="#000000" stroke-width="1" x1="78" y1="210" x2="973" y2="210"/>
<line opacity="0.1" stroke="#000000" stroke-width="1" x1="78" y1="201" x2="973" y2="201"/>
<line opacity="0.1" stroke="#000000" stroke-width="1" x1="78" y1="192" x2="973" y2="192"/>
<line opacity="0.1" stroke="#000000" stroke-width="1" x1="78" y1="184" x2="973" y2="184"/>
<line opacity="0.1" stroke="#000000" stroke-width="1" x1="78" y1="175" x2="973" y2="175"/>
<line opacity="0.1" stroke="#000000" stroke-width="1" x1="78" y1="166" x2="973" y2="166"/>
<line opacity="0.1" stroke="#000000" stroke-width="1" x1="78" y1="157" x2="973" y2="157"/>
<line opacity="0.1" stroke="#000000" stroke-width="1" x1="78" y1="148" x2="973" y2="148"/>
<line opacity="0.1" stroke="#000000" stroke-width="1" x1="78" y1="139" x2="973" y2="139"/>
<line opacity="0.1" stroke="#000000" stroke-width="1" x1="78" y1="130" x2="973" y2="130"/>
<line opacity="0.1" stroke="#000000" stroke-width="1" x1="78" y1="121" x2="973" y2="121"/>
<line opacity="0.1" stroke="#000000" stroke-width="1" x1="78" y1="113" x2="973" y2="113"/>
<line opacity="0.1" stroke="#000000" stroke-width="1" x1="78" y1="104" x2="973" y2="104"/>
<line opacity="0.1" stroke="#000000" stroke-width="1" x1="78" y1="95" x2="973" y2="95"/>
<line opacity="0.1" stroke="#000000" stroke-width="1" x1="78" y1="86" x2="973" y2="86"/>
<line opacity="0.1" stroke="#000000" stroke-width="1" x1="78" y1="77" x2="973" y2="77"/>
<line opacity="0.1" stroke="#000000" stroke-width="1" x1="78" y1="68" x2="973" y2="68"/>
<text x="8" y="384" dy="0.76em" text-anchor="middle" font-family="sans-serif" font-size="9.67741935483871" opacity="1" fill="#000000" transform="rotate(270, 8, 384)">
Memory usage
</text>
<text x="526" y="760" dy="-0.5ex" text-anchor="middle" font-family="sans-serif" font-size="9.67741935483871" opacity="1" fill="#000000">
Time
</text>
<line opacity="0.2" stroke="#000000" stroke-width="1" x1="105" y1="699" x2="105" y2="68"/>
<line opacity="0.2" stroke="#000000" stroke-width="1" x1="211" y1="699" x2="211" y2="68"/>
<line opacity="0.2" stroke="#000000" stroke-width="1" x1="316" y1="699" x2="316" y2="68"/>
<line opacity="0.2" stroke="#000000" stroke-width="1" x1="422" y1="699" x2="422" y2="68"/>
<line opacity="0.2" stroke="#000000" stroke-width="1" x1="528" y1="699" x2="528" y2="68"/>
<line opacity="0.2" stroke="#000000" stroke-width="1" x1="634" y1="699" x2="634" y2="68"/>
<line opacity="0.2" stroke="#000000" stroke-width="1" x1="739" y1="699" x2="739" y2="68"/>
<line opacity="0.2" stroke="#000000" stroke-width="1" x1="845" y1="699" x2="845" y2="68"/>
<line opacity="0.2" stroke="#000000" stroke-width="1" x1="951" y1="699" x2="951" y2="68"/>
<line opacity="0.2" stroke="#000000" stroke-width="1" x1="78" y1="699" x2="973" y2="699"/>
<line opacity="0.2" stroke="#000000" stroke-width="1" x1="78" y1="610" x2="973" y2="610"/>
<line opacity="0.2" stroke="#000000" stroke-width="1" x1="78" y1="521" x2="973" y2="521"/>
<line opacity="0.2" stroke="#000000" stroke-width="1" x1="78" y1="432" x2="973" y2="432"/>
<line opacity="0.2" stroke="#000000" stroke-width="1" x1="78" y1="343" x2="973" y2="343"/>
<line opacity="0.2" stroke="#000000" stroke-width="1" x1="78" y1="255" x2="973" y2="255"/>
<line opacity="0.2" stroke="#000000" stroke-width="1" x1="78" y1="166" x2="973" y2="166"/>
<line opacity="0.2" stroke="#000000" stroke-width="1" x1="78" y1="77" x2="973" y2="77"/>
<polyline fill="none" opacity="1" stroke="#000000" stroke-width="1" points="77,68 77,699 "/>
<text x="68" y="699" dy="0.5ex" text-anchor="end" font-family="sans-serif" font-size="9.67741935483871" opacity="1" fill="#000000">
0 MB
</text>
<polyline fill="none" opacity="1" stroke="#000000" stroke-width="1" points="72,699 77,699 "/>
<text x="68" y="610" dy="0.5ex" text-anchor="end" font-family="sans-serif" font-size="9.67741935483871" opacity="1" fill="#000000">
47 MB
</text>
<polyline fill="none" opacity="1" stroke="#000000" stroke-width="1" points="72,610 77,610 "/>
<text x="68" y="521" dy="0.5ex" text-anchor="end" font-family="sans-serif" font-size="9.67741935483871" opacity="1" fill="#000000">
95 MB
</text>
<polyline fill="none" opacity="1" stroke="#000000" stroke-width="1" points="72,521 77,521 "/>
<text x="68" y="432" dy="0.5ex" text-anchor="end" font-family="sans-serif" font-size="9.67741935483871" opacity="1" fill="#000000">
143 MB
</text>
<polyline fill="none" opacity="1" stroke="#000000" stroke-width="1" points="72,432 77,432 "/>
<text x="68" y="343" dy="0.5ex" text-anchor="end" font-family="sans-serif" font-size="9.67741935483871" opacity="1" fill="#000000">
190 MB
</text>
<polyline fill="none" opacity="1" stroke="#000000" stroke-width="1" points="72,343 77,343 "/>
<text x="68" y="255" dy="0.5ex" text-anchor="end" font-family="sans-serif" font-size="9.67741935483871" opacity="1" fill="#000000">
238 MB
</text>
<polyline fill="none" opacity="1" stroke="#000000" stroke-width="1" points="72,255 77,255 "/>
<text x="68" y="166" dy="0.5ex" text-anchor="end" font-family="sans-serif" font-size="9.67741935483871" opacity="1" fill="#000000">
286 MB
</text>
<polyline fill="none" opacity="1" stroke="#000000" stroke-width="1" points="72,166 77,166 "/>
<text x="68" y="77" dy="0.5ex" text-anchor="end" font-family="sans-serif" font-size="9.67741935483871" opacity="1" fill="#000000">
333 MB
</text>
<polyline fill="none" opacity="1" stroke="#000000" stroke-width="1" points="72,77 77,77 "/>
<polyline fill="none" opacity="1" stroke="#000000" stroke-width="1" points="78,700 973,700 "/>
<text x="105" y="710" dy="0.76em" text-anchor="middle" font-family="sans-serif" font-size="9.67741935483871" opacity="1" fill="#000000">
07 20:33:20
</text>
<polyline fill="none" opacity="1" stroke="#000000" stroke-width="1" points="105,700 105,705 "/>
<text x="211" y="710" dy="0.76em" text-anchor="middle" font-family="sans-serif" font-size="9.67741935483871" opacity="1" fill="#000000">
08 10:26:40
</text>
<polyline fill="none" opacity="1" stroke="#000000" stroke-width="1" points="211,700 211,705 "/>
<text x="316" y="710" dy="0.76em" text-anchor="middle" font-family="sans-serif" font-size="9.67741935483871" opacity="1" fill="#000000">
09 00:20:00
</text>
<polyline fill="none" opacity="1" stroke="#000000" stroke-width="1" points="316,700 316,705 "/>
<text x="422" y="710" dy="0.76em" text-anchor="middle" font-family="sans-serif" font-size="9.67741935483871" opacity="1" fill="#000000">
09 14:13:20
</text>
<polyline fill="none" opacity="1" stroke="#000000" stroke-width="1" points="422,700 422,705 "/>
<text x="528" y="710" dy="0.76em" text-anchor="middle" font-family="sans-serif" font-size="9.67741935483871" opacity="1" fill="#000000">
10 04:06:40
</text>
<polyline fill="none" opacity="1" stroke="#000000" stroke-width="1" points="528,700 528,705 "/>
<text x="634" y="710" dy="0.76em" text-anchor="middle" font-family="sans-serif" font-size="9.67741935483871" opacity="1" fill="#000000">
10 18:00:00
</text>
<polyline fill="none" opacity="1" stroke="#000000" stroke-width="1" points="634,700 634,705 "/>
<text x="739" y="710" dy="0.76em" text-anchor="middle" font-family="sans-serif" font-size="9.67741935483871" opacity="1" fill="#000000">
11 07:53:20
</text>
<polyline fill="none" opacity="1" stroke="#000000" stroke-width="1" points="739,700 739,705 "/>
<text x="845" y="710" dy="0.76em" text-anchor="middle" font-family="sans-serif" font-size="9.67741935483871" opacity="1" fill="#000000">
11 21:46:40
</text>
<polyline fill="none" opacity="1" stroke="#000000" stroke-width="1" points="845,700 845,705 "/>
<text x="951" y="710" dy="0.76em" text-anchor="middle" font-family="sans-serif" font-size="9.67741935483871" opacity="1" fill="#000000">
12 11:40:00
</text>
<polyline fill="none" opacity="1" stroke="#000000" stroke-width="1" points="951,700 951,705 "/>
<polyline fill="none" opacity="1" stroke="#000000" stroke-width="1" points="78,67 974,67 "/>
<text x="105" y="58" dy="-0.5ex" text-anchor="middle" font-family="sans-serif" font-size="9.67741935483871" opacity="1" fill="#000000">
+03:35:44
</text>
<polyline fill="none" opacity="1" stroke="#000000" stroke-width="1" points="105,62 105,67 "/>
<text x="211" y="58" dy="-0.5ex" text-anchor="middle" font-family="sans-serif" font-size="9.67741935483871" opacity="1" fill="#000000">
+17:29:04
</text>
<polyline fill="none" opacity="1" stroke="#000000" stroke-width="1" points="211,62 211,67 "/>
<text x="317" y="58" dy="-0.5ex" text-anchor="middle" font-family="sans-serif" font-size="9.67741935483871" opacity="1" fill="#000000">
+31:22:24
</text>
<polyline fill="none" opacity="1" stroke="#000000" stroke-width="1" points="317,62 317,67 "/>
<text x="423" y="58" dy="-0.5ex" text-anchor="middle" font-family="sans-serif" font-size="9.67741935483871" opacity="1" fill="#000000">
+45:15:44
</text>
<polyline fill="none" opacity="1" stroke="#000000" stroke-width="1" points="423,62 423,67 "/>
<text x="528" y="58" dy="-0.5ex" text-anchor="middle" font-family="sans-serif" font-size="9.67741935483871" opacity="1" fill="#000000">
+59:09:04
</text>
<polyline fill="none" opacity="1" stroke="#000000" stroke-width="1" points="528,62 528,67 "/>
<text x="634" y="58" dy="-0.5ex" text-anchor="middle" font-family="sans-serif" font-size="9.67741935483871" opacity="1" fill="#000000">
+73:02:24
</text>
<polyline fill="none" opacity="1" stroke="#000000" stroke-width="1" points="634,62 634,67 "/>
<text x="740" y="58" dy="-0.5ex" text-anchor="middle" font-family="sans-serif" font-size="9.67741935483871" opacity="1" fill="#000000">
+86:55:44
</text>
<polyline fill="none" opacity="1" stroke="#000000" stroke-width="1" points="740,62 740,67 "/>
<text x="846" y="58" dy="-0.5ex" text-anchor="middle" font-family="sans-serif" font-size="9.67741935483871" opacity="1" fill="#000000">
+100:49:04
</text>
<polyline fill="none" opacity="1" stroke="#000000" stroke-width="1" points="846,62 846,67 "/>
<text x="952" y="58" dy="-0.5ex" text-anchor="middle" font-family="sans-serif" font-size="9.67741935483871" opacity="1" fill="#000000">
+114:42:24
</text>
<polyline fill="none" opacity="1" stroke="#000000" stroke-width="1" points="952,62 952,67 "/>
<rect x="83" y="73" width="99" height="45" opacity="0.75" fill="#FFFFFF" stroke="none"/>
<rect x="83" y="73" width="99" height="45" opacity="1" fill="none" stroke="#000000"/>
<text x="123" y="83" dy="0.76em" text-anchor="start" font-family="sans-serif" font-size="9.67741935483871" opacity="1" fill="#000000">
Temporary
</text>
<text x="123" y="98" dy="0.76em" text-anchor="start" font-family="sans-serif" font-size="9.67741935483871" opacity="1" fill="#000000">
Leaked
</text>
<rect x="93" y="83" width="10" height="10" opacity="1" fill="#3CB44B" stroke="none"/>
<rect x="93" y="98" width="10" height="10" opacity="1" fill="#E6194B" stroke="none"/>
</svg>
