<svg width="1024" height="768" viewBox="0 0 1024 768" xmlns="http://www.w3.org/2000/svg">
<rect x="0" y="0" width="1024" height="768" opacity="1" fill="#FFFFFF" stroke="none"/>
<polygon opacity="1" fill="#3CB44B" points="78,697 79,696 80,695 81,694 82,692 82,691 83,690 84,689 85,688 86,687 87,686 88,685 89,684 90,682 91,681 91,680 92,679 93,678 94,677 95,676 96,675 97,674 98,673 99,672 99,671 100,669 101,668 102,667 103,666 104,665 105,664 106,663 107,662 108,661 108,659 109,658 110,657 111,656 112,655 113,654 114,653 115,652 116,650 116,649 117,648 118,647 119,646 120,645 121,644 122,643 123,642 124,640 125,639 125,638 126,637 127,636 128,635 129,634 130,633 131,632 132,630 133,629 134,628 134,627 135,626 136,625 137,623 138,622 139,621 140,620 141,619 142,618 142,617 143,615 144,614 145,613 146,612 147,611 148,610 149,609 150,607 151,606 151,605 152,604 153,603 154,602 155,601 156,600 157,599 158,597 159,596 159,595 160,594 161,593 162,592 163,591 164,590 165,589 166,587 167,586 168,585 168,584 169,583 170,582 171,581 172,579 173,578 174,577 175,576 176,575 176,574 177,573 178,572 179,571 180,570 181,568 182,567 183,566 184,565 185,564 185,563 186,562 187,561 188,559 189,558 190,557 191,556 192,555 193,554 193,553 194,552 195,551 196,550 197,549 198,548 199,546 200,545 201,544 202,543 202,542 203,541 204,540 205,539 206,538 207,537 208,536 209,534 210,533 210,532 211,531 212,530 213,529 214,528 215,527 216,526 217,525 218,523 219,522 219,521 220,520 221,519 222,518 223,517 224,516 225,515 226,514 227,513 227,512 228,511 229,510 230,509 231,508 232,507 233,506 234,504 235,503 236,502 236,501 237,500 238,499 239,498 240,497 241,496 242,495 243,494 244,493 244,492 245,491 246,490 247,488 248,487 249,486 250,485 251,484 252,483 253,482 253,481 254,480 255,479 256,478 257,477 258,476 259,474 260,473 261,472 261,471 262,470 263,469 264,468 265,467 266,466 267,465 268,464 269,462 270,461 270,460 271,459 272,458 273,457 274,456 275,455 276,454 277,453 278,452 278,451 279,450 280,449 281,447 282,446 283,445 284,444 285,443 286,442 287,441 287,440 288,439 289,438 290,437 291,436 292,435 293,433 294,432 295,431 295,430 296,429 297,428 298,427 299,426 300,425 301,424 302,423 303,422 304,421 304,419 305,418 306,417 307,416 308,415 309,414 310,413 311,412 312,411 312,410 313,409 314,408 315,406 316,405 317,404 318,403 319,402 320,401 321,400 321,399 322,398 323,397 324,396 325,395 326,394 327,393 328,391 329,390 329,389 330,388 331,387 332,386 333,385 334,384 335,383 336,381 337,380 338,379 338,378 339,377 340,376 341,375 342,374 343,373 344,371 345,370 346,369 347,368 347,367 348,366 349,365 350,364 351,363 352,362 353,361 354,360 355,358 355,357 356,356 357,355 358,354 359,353 360,352 361,351 362,350 363,349 364,348 364,347 365,345 366,344 367,343 368,342 369,341 370,340 371,339 372,338 372,337 373,336 374,335 375,334 376,333 377,332 378,330 379,329 380,328 381,327 381,326 382,325 383,324 384,323 385,322 386,321 387,320 388,319 389,318 389,316 390,315 391,314 392,313 393,312 394,311 395,310 396,309 397,308 398,307 398,306 399,304 400,303 401,302 402,301 403,300 404,299 405,298 406,297 406,296 407,295 408,294 409,293 410,292 411,290 412,289 413,288 414,287 415,286 415,285 416,284 417,283 418,282 419,281 420,280 421,279 422,277 423,276 423,275 424,274 425,273 426,272 427,271 428,270 429,269 430,268 431,267 432,266 432,264 433,263 434,262 435,261 436,260 437,259 438,258 439,257 440,256 440,254 441,253 442,252 443,251 444,250 445,249 446,248 447,247 448,246 449,245 449,244 450,242 451,241 452,240 453,239 454,238 455,237 456,236 457,235 457,234 458,232 459,231 460,230 461,229 462,228 463,227 464,226 465,225 466,224 466,223 467,222 468,220 469,219 470,218 471,217 472,216 473,215 474,214 474,213 475,212 476,211 477,210 478,209 479,208 480,206 481,205 482,204 483,203 483,202 484,201 485,200 486,199 487,198 488,197 489,196 490,195 491,193 491,192 492,191 493,190 494,189 495,188 496,187 497,185 498,184 499,183 500,182 500,181 501,180 502,179 503,178 504,177 505,176 506,175 507,174 508,172 508,171 509,170 510,169 511,168 512,167 513,166 514,165 515,164 516,163 517,162 517,161 518,159 519,158 520,157 521,156 522,155 523,154 524,153 525,151 525,150 526,149 527,148 528,147 529,146 530,145 531,144 532,142 533,141 534,140 534,139 535,138 536,137 537,136 538,135 539,134 540,133 541,132 542,130 542,129 543,128 544,127 545,126 546,125 547,124 548,123 549,122 550,120 551,119 551,118 552,117 553,116 554,115 555,114 556,113 557,112 558,111 559,110 560,109 560,108 561,107 562,106 563,105 564,104 565,103 566,102 567,101 568,99 568,98 569,97 570,96 571,95 572,94 573,93 574,92 575,91 576,90 577,89 577,88 578,87 579,86 580,84 581,83 582,82 583,81 584,80 585,79 585,78 586,77 587,76 588,75 589,74 590,73 591,72 592,71 593,69 594,68 594,68 595,68 596,68 597,68 598,68 599,68 600,68 601,68 602,68 602,68 603,68 604,68 605,68 606,68 607,68 608,68 609,68 610,68 611,68 611,68 612,68 613,68 614,68 615,68 616,68 617,68 618,68 619,68 619,68 620,68 621,68 622,68 623,68 624,68 625,68 626,68 627,68 628,68 628,68 629,68 630,68 631,68 632,68 633,68 634,68 635,68 636,68 636,68 637,68 638,68 639,68 640,68 641,68 642,68 643,68 644,68 645,68 645,68 646,68 647,68 648,68 649,68 650,68 651,68 652,68 653,68 653,68 654,68 655,68 656,68 657,68 658,68 659,68 660,68 661,69 662,69 662,69 663,69 664,69 665,69 666,69 667,69 668,69 669,69 670,69 670,69 671,69 672,69 673,69 674,69 675,69 676,69 677,69 678,69 679,69 679,69 680,69 681,69 682,69 683,69 684,69 685,69 686,69 687,69 687,69 688,69 689,69 690,69 691,69 692,69 693,69 694,69 695,69 696,69 696,69 697,69 698,69 699,69 700,69 701,69 702,69 703,69 704,69 704,69 705,69 706,69 707,69 708,69 709,69 710,69 711,69 712,69 713,69 713,68 714,68 715,68 716,68 717,68 718,68 719,68 720,68 721,68 721,69 722,68 723,68 724,68 725,68 726,68 727,68 728,68 729,68 730,68 730,68 731,68 732,68 733,68 734,68 735,68 736,68 737,68 738,68 738,68 739,68 740,68 741,68 742,68 743,68 744,68 745,68 746,68 747,68 747,68 748,68 749,68 750,68 751,68 752,68 753,68 754,68 755,68 755,68 756,68 757,68 758,68 759,68 760,68 761,68 762,68 763,68 764,68 764,68 765,68 766,68 767,68 768,68 769,68 770,68 771,68 772,68 773,68 773,68 774,68 775,68 776,68 777,68 778,68 779,68 780,68 781,68 781,68 782,68 783,68 784,68 785,68 786,68 787,68 788,68 789,68 790,68 790,68 791,68 792,68 793,68 794,68 795,68 796,68 797,68 798,68 798,68 799,68 800,68 801,68 802,68 803,68 804,68 805,68 806,68 807,68 807,68 808,68 809,68 810,68 811,68 812,68 813,68 814,69 815,69 815,69 816,68 817,69 818,69 819,69 820,68 821,68 822,68 823,68 824,68 824,68 825,68 826,69 827,68 828,68 829,68 830,68 831,68 832,68 832,68 833,68 834,68 835,68 836,68 837,68 838,68 839,68 840,68 841,68 841,68 842,68 843,68 844,68 845,68 846,69 847,69 848,69 849,69 849,69 850,69 851,69 852,69 853,69 854,69 855,69 856,69 857,69 858,69 858,69 859,69 860,69 861,69 862,69 863,69 864,69 865,69 866,70 866,69 867,69 868,69 869,70 870,70 871,69 872,70 873,69 874,69 875,69 875,69 876,69 877,69 878,69 879,69 880,69 881,69 882,69 883,69 883,69 884,69 885,69 886,69 887,69 888,69 889,69 890,69 891,69 892,69 892,69 893,69 894,69 895,69 896,69 897,69 898,69 899,69 900,69 900,69 901,69 902,69 903,69 904,69 905,69 906,69 907,69 908,69 909,69 909,69 910,68 911,69 912,69 913,69 914,69 915,68 916,68 917,68 917,68 918,68 919,68 920,68 921,68 922,68 923,68 924,68 925,68 926,68 926,68 927,68 928,68 929,68 930,68 931,68 932,68 933,68 934,68 934,68 935,68 936,68 937,68 938,68 939,68 940,68 941,68 942,68 943,68 943,68 944,68 945,68 946,68 947,68 948,68 949,68 950,68 951,68 951,68 952,68 953,68 954,68 955,68 956,68 957,69 958,69 959,69 960,69 960,69 961,69 962,69 963,69 964,69 965,69 966,69 967,68 968,69 968,68 969,68 970,68 971,68 972,69 972,70 973,70 973,699 78,699 "/>
<polyline fill="none" opacity="1" stroke="#3CB44B" stroke-width="1" points="78,697 79,696 80,695 81,694 82,692 82,691 83,690 84,689 85,688 86,687 87,686 88,685 89,684 90,682 91,681 91,680 92,679 93,678 94,677 95,676 96,675 97,674 98,673 99,672 99,671 100,669 101,668 102,667 103,666 104,665 105,664 106,663 107,662 108,661 108,659 109,658 110,657 111,656 112,655 113,654 114,653 115,652 116,650 116,649 117,648 118,647 119,646 120,645 121,644 122,643 123,642 124,640 125,639 125,638 126,637 127,636 128,635 129,634 130,633 131,632 132,630 133,629 134,628 134,627 135,626 136,625 137,623 138,622 139,621 140,620 141,619 142,618 142,617 143,615 144,614 145,613 146,612 147,611 148,610 149,609 150,607 151,606 151,605 152,604 153,603 154,602 155,601 156,600 157,599 158,597 159,596 159,595 160,594 161,593 162,592 163,591 164,590 165,589 166,587 167,586 168,585 168,584 169,583 170,582 171,581 172,579 173,578 174,577 175,576 176,575 176,574 177,573 178,572 179,571 180,570 181,568 182,567 183,566 184,565 185,564 185,563 186,562 187,561 188,559 189,558 190,557 191,556 192,555 193,554 193,553 194,552 195,551 196,550 197,549 198,548 199,546 200,545 201,544 202,543 202,542 203,541 204,540 205,539 206,538 207,537 208,536 209,534 210,533 210,532 211,531 212,530 213,529 214,528 215,527 216,526 217,525 218,523 219,522 219,521 220,520 221,519 222,518 223,517 224,516 225,515 226,514 227,513 227,512 228,511 229,510 230,509 231,508 232,507 233,506 234,504 235,503 236,502 236,501 237,500 238,499 239,498 240,497 241,496 242,495 243,494 244,493 244,492 245,491 246,490 247,488 248,487 249,486 250,485 251,484 252,483 253,482 253,481 254,480 255,479 256,478 257,477 258,476 259,474 260,473 261,472 261,471 262,470 263,469 264,468 265,467 266,466 267,465 268,464 269,462 270,461 270,460 271,459 272,458 273,457 274,456 275,455 276,454 277,453 278,452 278,451 279,450 280,449 281,447 282,446 283,445 284,444 285,443 286,442 287,441 287,440 288,439 289,438 290,437 291,436 292,435 293,433 294,432 295,431 295,430 296,429 297,428 298,427 299,426 300,425 301,424 302,423 303,422 304,421 304,419 305,418 306,417 307,416 308,415 309,414 310,413 311,412 312,411 312,410 313,409 314,408 315,406 316,405 317,404 318,403 319,402 320,401 321,400 321,399 322,398 323,397 324,396 325,395 326,394 327,393 328,391 329,390 329,389 330,388 331,387 332,386 333,385 334,384 335,383 336,381 337,380 338,379 338,378 339,377 340,376 341,375 342,374 343,373 344,371 345,370 346,369 347,368 347,367 348,366 349,365 350,364 351,363 352,362 353,361 354,360 355,358 355,357 356,356 357,355 358,354 359,353 360,352 361,351 362,350 363,349 364,348 364,347 365,345 366,344 367,343 368,342 369,341 370,340 371,339 372,338 372,337 373,336 374,335 375,334 376,333 377,332 378,330 379,329 380,328 381,327 381,326 382,325 383,324 384,323 385,322 386,321 387,320 388,319 389,318 389,316 390,315 391,314 392,313 393,312 394,311 395,310 396,309 397,308 398,307 398,306 399,304 400,303 401,302 402,301 403,300 404,299 405,298 406,297 406,296 407,295 408,294 409,293 410,292 411,290 412,289 413,288 414,287 415,286 415,285 416,284 417,283 418,282 419,281 420,280 421,279 422,277 423,276 423,275 424,274 425,273 426,272 427,271 428,270 429,269 430,268 431,267 432,266 432,264 433,263 434,262 435,261 436,260 437,259 438,258 439,257 440,256 440,254 441,253 442,252 443,251 444,250 445,249 446,248 447,247 448,246 449,245 449,244 450,242 451,241 452,240 453,239 454,238 455,237 456,236 457,235 457,234 458,232 459,231 460,230 461,229 462,228 463,227 464,226 465,225 466,224 466,223 467,222 468,220 469,219 470,218 471,217 472,216 473,215 474,214 474,213 475,212 476,211 477,210 478,209 479,208 480,206 481,205 482,204 483,203 483,202 484,201 485,200 486,199 487,198 488,197 489,196 490,195 491,193 491,192 492,191 493,190 494,189 495,188 496,187 497,185 498,184 499,183 500,182 500,181 501,180 502,179 503,178 504,177 505,176 506,175 507,174 508,172 508,171 509,170 510,169 511,168 512,167 513,166 514,165 515,164 516,163 517,162 517,161 518,159 519,158 520,157 521,156 522,155 523,154 524,153 525,151 525,150 526,149 527,148 528,147 529,146 530,145 531,144 532,142 533,141 534,140 534,139 535,138 536,137 537,136 538,135 539,134 540,133 541,132 542,130 542,129 543,128 544,127 545,126 546,125 547,124 548,123 549,122 550,120 551,119 551,118 552,117 553,116 554,115 555,114 556,113 557,112 558,111 559,110 560,109 560,108 561,107 562,106 563,105 564,104 565,103 566,102 567,101 568,99 568,98 569,97 570,96 571,95 572,94 573,93 574,92 575,91 576,90 577,89 577,88 578,87 579,86 580,84 581,83 582,82 583,81 584,80 585,79 585,78 586,77 587,76 588,75 589,74 590,73 591,72 592,71 593,69 594,68 594,68 595,68 596,68 597,68 598,68 599,68 600,68 601,68 602,68 602,68 603,68 604,68 605,68 606,68 607,68 608,68 609,68 610,68 611,68 611,68 612,68 613,68 614,68 615,68 616,68 617,68 618,68 619,68 619,68 620,68 621,68 622,68 623,68 624,68 625,68 626,68 627,68 628,68 628,68 629,68 630,68 631,68 632,68 633,68 634,68 635,68 636,68 636,68 637,68 638,68 639,68 640,68 641,68 642,68 643,68 644,68 645,68 645,68 646,68 647,68 648,68 649,68 650,68 651,68 652,68 653,68 653,68 654,68 655,68 656,68 657,68 658,68 659,68 660,68 661,69 662,69 662,69 663,69 664,69 665,69 666,69 667,69 668,69 669,69 670,69 670,69 671,69 672,69 673,69 674,69 675,69 676,69 677,69 678,69 679,69 679,69 680,69 681,69 682,69 683,69 684,69 685,69 686,69 687,69 687,69 688,69 689,69 690,69 691,69 692,69 693,69 694,69 695,69 696,69 696,69 697,69 698,69 699,69 700,69 701,69 702,69 703,69 704,69 704,69 705,69 706,69 707,69 708,69 709,69 710,69 711,69 712,69 713,69 713,68 714,68 715,68 716,68 717,68 718,68 719,68 720,68 721,68 721,69 722,68 723,68 724,68 725,68 726,68 727,68 728,68 729,68 730,68 730,68 731,68 732,68 733,68 734,68 735,68 736,68 737,68 738,68 738,68 739,68 740,68 741,68 742,68 743,68 744,68 745,68 746,68 747,68 747,68 748,68 749,68 750,68 751,68 752,68 753,68 754,68 755,68 755,68 756,68 757,68 758,68 759,68 760,68 761,68 762,68 763,68 764,68 764,68 765,68 766,68 767,68 768,68 769,68 770,68 771,68 772,68 773,68 773,68 774,68 775,68 776,68 777,68 778,68 779,68 780,68 781,68 781,68 782,68 783,68 784,68 785,68 786,68 787,68 788,68 789,68 790,68 790,68 791,68 792,68 793,68 794,68 795,68 796,68 797,68 798,68 798,68 799,68 800,68 801,68 802,68 803,68 804,68 805,68 806,68 807,68 807,68 808,68 809,68 810,68 811,68 812,68 813,68 814,69 815,69 815,69 816,68 817,69 818,69 819,69 820,68 821,68 822,68 823,68 824,68 824,68 825,68 826,69 827,68 828,68 829,68 830,68 831,68 832,68 832,68 833,68 834,68 835,68 836,68 837,68 838,68 839,68 840,68 841,68 841,68 842,68 843,68 844,68 845,68 846,69 847,69 848,69 849,69 849,69 850,69 851,69 852,69 853,69 854,69 855,69 856,69 857,69 858,69 858,69 859,69 860,69 861,69 862,69 863,69 864,69 865,69 866,70 866,69 867,69 868,69 869,70 870,70 871,69 872,70 873,69 874,69 875,69 875,69 876,69 877,69 878,69 879,69 880,69 881,69 882,69 883,69 883,69 884,69 885,69 886,69 887,69 888,69 889,69 890,69 891,69 892,69 892,69 893,69 894,69 895,69 896,69 897,69 898,69 899,69 900,69 900,69 901,69 902,69 903,69 904,69 905,69 906,69 907,69 908,69 909,69 909,69 910,68 911,69 912,69 913,69 914,69 915,68 916,68 917,68 917,68 918,68 919,68 920,68 921,68 922,68 923,68 924,68 925,68 926,68 926,68 927,68 928,68 929,68 930,68 931,68 932,68 933,68 934,68 934,68 935,68 936,68 937,68 938,68 939,68 940,68 941,68 942,68 943,68 943,68 944,68 945,68 946,68 947,68 948,68 949,68 950,68 951,68 951,68 952,68 953,68 954,68 955,68 956,68 957,69 958,69 959,69 960,69 960,69 961,69 962,69 963,69 964,69 965,69 966,69 967,68 968,69 968,68 969,68 970,68 971,68 972,69 972,70 973,70 "/>
<polygon opacity="1" fill="#E6194B" points="78,699 79,699 80,699 81,699 82,699 82,699 83,699 84,699 85,699 86,699 87,699 88,699 89,699 90,699 91,699 91,699 92,699 93,699 94,699 95,699 96,699 97,699 98,699 99,699 99,699 100,699 101,699 102,699 103,699 104,699 105,699 106,699 107,698 108,698 108,698 109,698 110,698 111,698 112,698 113,698 114,698 115,698 116,698 116,698 117,698 118,698 119,698 120,698 121,698 122,698 123,698 124,698 125,698 125,698 126,698 127,698 128,698 129,698 130,698 131,698 132,698 133,698 134,698 134,698 135,698 136,698 137,698 138,698 139,698 140,698 141,698 142,698 142,698 143,698 144,698 145,698 146,698 147,698 148,698 149,698 150,698 151,698 151,698 152,698 153,698 154,698 155,698 156,698 157,698 158,698 159,698 159,698 160,698 161,698 162,698 163,698 164,698 165,698 166,698 167,698 168,698 168,698 169,698 170,698 171,698 172,698 173,698 174,698 175,698 176,698 176,698 177,698 178,698 179,698 180,698 181,698 182,698 183,698 184,698 185,698 185,698 186,698 187,698 188,698 189,698 190,698 191,698 192,698 193,698 193,698 194,698 195,698 196,698 197,698 198,698 199,698 200,698 201,698 202,698 202,698 203,698 204,698 205,698 206,698 207,698 208,698 209,698 210,698 210,698 211,698 212,698 213,698 214,698 215,698 216,698 217,698 218,698 219,698 219,698 220,698 221,698 222,698 223,698 224,698 225,698 226,698 227,698 227,698 228,698 229,698 230,698 231,698 232,698 233,698 234,698 235,698 236,698 236,698 237,698 238,698 239,698 240,698 241,698 242,698 243,698 244,698 244,698 245,698 246,698 247,698 248,698 249,698 250,698 251,698 252,698 253,698 253,698 254,698 255,698 256,698 257,698 258,698 259,698 260,698 261,698 261,698 262,698 263,698 264,698 265,698 266,698 267,698 268,698 269,698 270,698 270,698 271,698 272,698 273,698 274,698 275,698 276,698 277,698 278,698 278,698 279,698 280,698 281,698 282,698 283,698 284,698 285,698 286,698 287,698 287,698 288,698 289,698 290,698 291,698 292,698 293,698 294,698 295,698 295,698 296,698 297,698 298,698 299,698 300,698 301,698 302,698 303,698 304,698 304,698 305,698 306,698 307,698 308,698 309,698 310,698 311,698 312,698 312,698 313,698 314,698 315,698 316,698 317,698 318,698 319,698 320,698 321,698 321,698 322,698 323,698 324,698 325,698 326,698 327,698 328,698 329,698 329,698 330,698 331,698 332,698 333,698 334,698 335,698 336,698 337,698 338,698 338,698 339,698 340,698 341,698 342,698 343,698 344,698 345,698 346,698 347,698 347,698 348,698 349,698 350,698 351,698 352,698 353,698 354,698 355,698 355,698 356,698 357,698 358,698 359,698 360,698 361,698 362,698 363,698 364,698 364,698 365,698 366,698 367,698 368,698 369,698 370,698 371,698 372,698 372,698 373,698 374,698 375,698 376,698 377,698 378,698 379,698 380,698 381,698 381,698 382,698 383,698 384,698 385,698 386,698 387,698 388,698 389,698 389,698 390,698 391,698 392,698 393,698 394,698 395,698 396,698 397,698 398,698 398,698 399,698 400,698 401,698 402,698 403,698 404,698 405,698 406,698 406,698 407,698 408,698 409,698 410,698 411,698 412,698 413,698 414,698 415,698 415,698 416,698 417,698 418,698 419,698 420,698 421,698 422,698 423,698 423,698 424,698 425,698 426,698 427,698 428,698 429,698 430,698 431,698 432,698 432,698 433,698 434,698 435,698 436,698 437,698 438,698 439,698 440,698 440,698 441,698 442,698 443,698 444,698 445,698 446,698 447,698 448,698 449,698 449,698 450,698 451,698 452,698 453,698 454,698 455,698 456,698 457,698 457,697 458,695 459,694 460,693 461,692 462,691 463,690 464,689 465,688 466,687 466,686 467,684 468,683 469,682 470,681 471,680 472,679 473,678 474,677 474,676 475,675 476,674 477,673 478,672 479,671 480,669 481,668 482,667 483,666 483,665 484,664 485,663 486,662 487,661 488,660 489,659 490,658 491,656 491,655 492,654 493,653 494,652 495,651 496,650 497,648 498,647 499,646 500,645 500,644 501,643 502,642 503,641 504,640 505,639 506,638 507,637 508,635 508,634 509,633 510,632 511,631 512,630 513,629 514,628 515,627 516,626 517,625 517,624 518,622 519,621 520,620 521,619 522,618 523,617 524,616 525,614 525,613 526,612 527,611 528,610 529,609 530,608 531,607 532,605 533,604 534,603 534,602 535,601 536,600 537,599 538,598 539,597 540,596 541,595 542,593 542,592 543,591 544,590 545,589 546,588 547,587 548,586 549,585 550,583 551,582 551,581 552,580 553,579 554,578 555,577 556,576 557,575 558,574 559,573 560,572 560,571 561,570 562,569 563,568 564,567 565,566 566,565 567,564 568,562 568,561 569,560 570,559 571,558 572,557 573,556 574,555 575,554 576,553 577,552 577,551 578,550 579,549 580,547 581,546 582,545 583,544 584,543 585,542 585,541 586,540 587,539 588,538 589,537 590,536 591,535 592,533 593,532 594,531 594,530 595,529 596,528 597,527 598,526 599,525 600,524 601,523 602,522 602,521 603,520 604,518 605,517 606,516 607,515 608,514 609,513 610,512 611,511 611,510 612,509 613,507 614,506 615,505 616,504 617,503 618,502 619,501 619,500 620,499 621,498 622,497 623,496 624,494 625,493 626,492 627,491 628,490 628,489 629,488 630,487 631,486 632,485 633,484 634,483 635,482 636,480 636,479 637,478 638,477 639,476 640,475 641,474 642,473 643,472 644,471 645,470 645,469 646,467 647,466 648,465 649,464 650,463 651,462 652,461 653,460 653,459 654,458 655,456 656,455 657,454 658,453 659,452 660,451 661,450 662,449 662,448 663,447 664,446 665,445 666,443 667,442 668,441 669,440 670,439 670,438 671,437 672,436 673,435 674,434 675,433 676,432 677,430 678,429 679,428 679,427 680,426 681,425 682,424 683,423 684,422 685,421 686,420 687,418 687,417 688,416 689,415 690,414 691,413 692,412 693,411 694,410 695,409 696,408 696,407 697,406 698,404 699,403 700,402 701,401 702,400 703,399 704,398 704,397 705,396 706,395 707,394 708,393 709,391 710,390 711,389 712,388 713,387 713,386 714,385 715,384 716,382 717,381 718,380 719,379 720,378 721,377 721,376 722,375 723,374 724,373 725,372 726,371 727,369 728,368 729,367 730,366 730,365 731,364 732,363 733,362 734,361 735,360 736,358 737,357 738,356 738,355 739,354 740,353 741,352 742,351 743,350 744,349 745,348 746,347 747,345 747,344 748,343 749,342 750,341 751,340 752,339 753,338 754,337 755,335 755,334 756,333 757,332 758,331 759,330 760,329 761,328 762,327 763,326 764,325 764,323 765,322 766,321 767,320 768,319 769,318 770,317 771,316 772,315 773,314 773,313 774,312 775,311 776,309 777,308 778,307 779,306 780,305 781,304 781,303 782,302 783,301 784,300 785,299 786,298 787,297 788,296 789,294 790,293 790,292 791,291 792,290 793,289 794,288 795,287 796,286 797,285 798,284 798,283 799,282 800,280 801,279 802,278 803,277 804,276 805,275 806,274 807,273 807,272 808,271 809,270 810,268 811,267 812,266 813,265 814,264 815,263 815,262 816,261 817,260 818,259 819,258 820,257 821,255 822,254 823,253 824,252 824,251 825,250 826,249 827,248 828,246 829,245 830,244 831,243 832,242 832,241 833,240 834,239 835,238 836,237 837,236 838,234 839,233 840,232 841,231 841,230 842,229 843,228 844,227 845,226 846,225 847,224 848,222 849,221 849,220 850,219 851,218 852,217 853,216 854,215 855,214 856,213 857,211 858,210 858,209 859,208 860,207 861,206 862,205 863,204 864,203 865,202 866,201 866,199 867,198 868,197 869,196 870,195 871,194 872,193 873,192 874,191 875,190 875,189 876,188 877,186 878,185 879,184 880,183 881,182 882,181 883,180 883,179 884,178 885,177 886,176 887,174 888,173 889,172 890,171 891,170 892,169 892,168 893,167 894,166 895,165 896,164 897,162 898,161 899,160 900,159 900,158 901,157 902,156 903,155 904,153 905,152 906,151 907,150 908,149 909,148 909,147 910,145 911,144 912,143 913,142 914,141 915,140 916,138 917,137 917,136 918,135 919,134 920,133 921,132 922,131 923,129 924,128 925,127 926,126 926,125 927,124 928,123 929,122 930,121 931,120 932,119 933,117 934,116 934,115 935,114 936,113 937,112 938,111 939,110 940,109 941,108 942,107 943,105 943,104 944,103 945,102 946,101 947,100 948,99 949,98 950,96 951,95 951,94 952,93 953,92 954,91 955,90 956,89 957,88 958,86 959,85 960,84 960,83 961,82 962,81 963,80 964,79 965,78 966,77 967,75 968,74 968,73 969,72 970,71 971,70 972,70 972,70 973,70 973,699 78,699 "/>
<polyline fill="none" opacity="1" stroke="#E6194B" stroke-width="1" points="78,699 79,699 80,699 81,699 82,699 82,699 83,699 84,699 85,699 86,699 87,699 88,699 89,699 90,699 91,699 91,699 92,699 93,699 94,699 95,699 96,699 97,699 98,699 99,699 99,699 100,699 101,699 102,699 103,699 104,699 105,699 106,699 107,698 108,698 108,698 109,698 110,698 111,698 112,698 113,698 114,698 115,698 116,698 116,698 117,698 118,698 119,698 120,698 121,698 122,698 123,698 124,698 125,698 125,698 126,698 127,698 128,698 129,698 130,698 131,698 132,698 133,698 134,698 134,698 135,698 136,698 137,698 138,698 139,698 140,698 141,698 142,698 142,698 143,698 144,698 145,698 146,698 147,698 148,698 149,698 150,698 151,698 151,698 152,698 153,698 154,698 155,698 156,698 157,698 158,698 159,698 159,698 160,698 161,698 162,698 163,698 164,698 165,698 166,698 167,698 168,698 168,698 169,698 170,698 171,698 172,698 173,698 174,698 175,698 176,698 176,698 177,698 178,698 179,698 180,698 181,698 182,698 183,698 184,698 185,698 185,698 186,698 187,698 188,698 189,698 190,698 191,698 192,698 193,698 193,698 194,698 195,698 196,698 197,698 198,698 199,698 200,698 201,698 202,698 202,698 203,698 204,698 205,698 206,698 207,698 208,698 209,698 210,698 210,698 211,698 212,698 213,698 214,698 215,698 216,698 217,698 218,698 219,698 219,698 220,698 221,698 222,698 223,698 224,698 225,698 226,698 227,698 227,698 228,698 229,698 230,698 231,698 232,698 233,698 234,698 235,698 236,698 236,698 237,698 238,698 239,698 240,698 241,698 242,698 243,698 244,698 244,698 245,698 246,698 247,698 248,698 249,698 250,698 251,698 252,698 253,698 253,698 254,698 255,698 256,698 257,698 258,698 259,698 260,698 261,698 261,698 262,698 263,698 264,698 265,698 266,698 267,698 268,698 269,698 270,698 270,698 271,698 272,698 273,698 274,698 275,698 276,698 277,698 278,698 278,698 279,698 280,698 281,698 282,698 283,698 284,698 285,698 286,698 287,698 287,698 288,698 289,698 290,698 291,698 292,698 293,698 294,698 295,698 295,698 296,698 297,698 298,698 299,698 300,698 301,698 302,698 303,698 304,698 304,698 305,698 306,698 307,698 308,698 309,698 310,698 311,698 312,698 312,698 313,698 314,698 315,698 316,698 317,698 318,698 319,698 320,698 321,698 321,698 322,698 323,698 324,698 325,698 326,698 327,698 328,698 329,698 329,698 330,698 331,698 332,698 333,698 334,698 335,698 336,698 337,698 338,698 338,698 339,698 340,698 341,698 342,698 343,698 344,698 345,698 346,698 347,698 347,698 348,698 349,698 350,698 351,698 352,698 353,698 354,698 355,698 355,698 356,698 357,698 358,698 359,698 360,698 361,698 362,698 363,698 364,698 364,698 365,698 366,698 367,698 368,698 369,698 370,698 371,698 372,698 372,698 373,698 374,698 375,698 376,698 377,698 378,698 379,698 380,698 381,698 381,698 382,698 383,698 384,698 385,698 386,698 387,698 388,698 389,698 389,698 390,698 391,698 392,698 393,698 394,698 395,698 396,698 397,698 398,698 398,698 399,698 400,698 401,698 402,698 403,698 404,698 405,698 406,698 406,698 407,698 408,698 409,698 410,698 411,698 412,698 413,698 414,698 415,698 415,698 416,698 417,698 418,698 419,698 420,698 421,698 422,698 423,698 423,698 424,698 425,698 426,698 427,698 428,698 429,698 430,698 431,698 432,698 432,698 433,698 434,698 435,698 436,698 437,698 438,698 439,698 440,698 440,698 441,698 442,698 443,698 444,698 445,698 446,698 447,698 448,698 449,698 449,698 450,698 451,698 452,698 453,698 454,698 455,698 456,698 457,698 457,697 458,695 459,694 460,693 461,692 462,691 463,690 464,689 465,688 466,687 466,686 467,684 468,683 469,682 470,681 471,680 472,679 473,678 474,677 474,676 475,675 476,674 477,673 478,672 479,671 480,669 481,668 482,667 483,666 483,665 484,664 485,663 486,662 487,661 488,660 489,659 490,658 491,656 491,655 492,654 493,653 494,652 495,651 496,650 497,648 498,647 499,646 500,645 500,644 501,643 502,642 503,641 504,640 505,639 506,638 507,637 508,635 508,634 509,633 510,632 511,631 512,630 513,629 514,628 515,627 516,626 517,625 517,624 518,622 519,621 520,620 521,619 522,618 523,617 524,616 525,614 525,613 526,612 527,611 528,610 529,609 530,608 531,607 532,605 533,604 534,603 534,602 535,601 536,600 537,599 538,598 539,597 540,596 541,595 542,593 542,592 543,591 544,590 545,589 546,588 547,587 548,586 549,585 550,583 551,582 551,581 552,580 553,579 554,578 555,577 556,576 557,575 558,574 559,573 560,572 560,571 561,570 562,569 563,568 564,567 565,566 566,565 567,564 568,562 568,561 569,560 570,559 571,558 572,557 573,556 574,555 575,554 576,553 577,552 577,551 578,550 579,549 580,547 581,546 582,545 583,544 584,543 585,542 585,541 586,540 587,539 588,538 589,537 590,536 591,535 592,533 593,532 594,531 594,530 595,529 596,528 597,527 598,526 599,525 600,524 601,523 602,522 602,521 603,520 604,518 605,517 606,516 607,515 608,514 609,513 610,512 611,511 611,510 612,509 613,507 614,506 615,505 616,504 617,503 618,502 619,501 619,500 620,499 621,498 622,497 623,496 624,494 625,493 626,492 627,491 628,490 628,489 629,488 630,487 631,486 632,485 633,484 634,483 635,482 636,480 636,479 637,478 638,477 639,476 640,475 641,474 642,473 643,472 644,471 645,470 645,469 646,467 647,466 648,465 649,464 650,463 651,462 652,461 653,460 653,459 654,458 655,456 656,455 657,454 658,453 659,452 660,451 661,450 662,449 662,448 663,447 664,446 665,445 666,443 667,442 668,441 669,440 670,439 670,438 671,437 672,436 673,435 674,434 675,433 676,432 677,430 678,429 679,428 679,427 680,426 681,425 682,424 683,423 684,422 685,421 686,420 687,418 687,417 688,416 689,415 690,414 691,413 692,412 693,411 694,410 695,409 696,408 696,407 697,406 698,404 699,403 700,402 701,401 702,400 703,399 704,398 704,397 705,396 706,395 707,394 708,393 709,391 710,390 711,389 712,388 713,387 713,386 714,385 715,384 716,382 717,381 718,380 719,379 720,378 721,377 721,376 722,375 723,374 724,373 725,372 726,371 727,369 728,368 729,367 730,366 730,365 731,364 732,363 733,362 734,361 735,360 736,358 737,357 738,356 738,355 739,354 740,353 741,352 742,351 743,350 744,349 745,348 746,347 747,345 747,344 748,343 749,342 750,341 751,340 752,339 753,338 754,337 755,335 755,334 756,333 757,332 758,331 759,330 760,329 761,328 762,327 763,326 764,325 764,323 765,322 766,321 767,320 768,319 769,318 770,317 771,316 772,315 773,314 773,313 774,312 775,311 776,309 777,308 778,307 779,306 780,305 781,304 781,303 782,302 783,301 784,300 785,299 786,298 787,297 788,296 789,294 790,293 790,292 791,291 792,290 793,289 794,288 795,287 796,286 797,285 798,284 798,283 799,282 800,280 801,279 802,278 803,277 804,276 805,275 806,274 807,273 807,272 808,271 809,270 810,268 811,267 812,266 813,265 814,264 815,263 815,262 816,261 817,260 818,259 819,258 820,257 821,255 822,254 823,253 824,252 824,251 825,250 826,249 827,248 828,246 829,245 830,244 831,243 832,242 832,241 833,240 834,239 835,238 836,237 837,236 838,234 839,233 840,232 841,231 841,230 842,229 843,228 844,227 845,226 846,225 847,224 848,222 849,221 849,220 850,219 851,218 852,217 853,216 854,215 855,214 856,213 857,211 858,210 858,209 859,208 860,207 861,206 862,205 863,204 864,203 865,202 866,201 866,199 867,198 868,197 869,196 870,195 871,194 872,193 873,192 874,191 875,190 875,189 876,188 877,186 878,185 879,184 880,183 881,182 882,181 883,180 883,179 884,178 885,177 886,176 887,174 888,173 889,172 890,171 891,170 892,169 892,168 893,167 894,166 895,165 896,164 897,162 898,161 899,160 900,159 900,158 901,157 902,156 903,155 904,153 905,152 906,151 907,150 908,149 909,148 909,147 910,145 911,144 912,143 913,142 914,141 915,140 916,138 917,137 917,136 918,135 919,134 920,133 921,132 922,131 923,129 924,128 925,127 926,126 926,125 927,124 928,123 929,122 930,121 931,120 932,119 933,117 934,116 934,115 935,114 936,113 937,112 938,111 939,110 940,109 941,108 942,107 943,105 943,104 944,103 945,102 946,101 947,100 948,99 949,98 950,96 951,95 951,94 952,93 953,92 954,91 955,90 956,89 957,88 958,86 959,85 960,84 960,83 961,82 962,81 963,80 964,79 965,78 966,77 967,75 968,74 968,73 969,72 970,71 971,70 972,70 972,70 973,70 "/>
<line opacity="0.1" stroke="#000000" stroke-width="1" x1="84" y1="699" x2="84" y2="68"/>
<line opacity="0.1" stroke="#000000" stroke-width="1" x1="95" y1="699" x2="95" y2="68"/>
<line opacity="0.1" stroke="#000000" stroke-width="1" x1="106" y1="699" x2="106" y2="68"/>
<line opacity="0.1" stroke="#000000" stroke-width="1" x1="118" y1="699" x2="118" y2="68"/>
<line opacity="0.1" stroke="#000000" stroke-width="1" x1="129" y1="699" x2="129" y2="68"/>
<line opacity="0.1" stroke="#000000" stroke-width="1" x1="140" y1="699" x2="140" y2="68"/>
<line opacity="0.1" stroke="#000000" stroke-width="1" x1="151" y1="699" x2="151" y2="68"/>
<line opacity="0.1" stroke="#000000" stroke-width="1" x1="162" y1="699" x2="162" y2="68"/>
<line opacity="0.1" stroke="#000000" stroke-width="1" x1="174" y1="699" x2="174" y2="68"/>
<line opacity="0.1" stroke="#000000" stroke-width="1" x1="185" y1="699" x2="185" y2="68"/>
<line opacity="0.1" stroke="#000000" stroke-width="1" x1="196" y1="699" x2="196" y2="68"/>
<line opacity="0.1" stroke="#000000" stroke-width="1" x1="207" y1="699" x2="207" y2="68"/>
<line opacity="0.1" stroke="#000000" stroke-width="1" x1="218" y1="699" x2="218" y2="68"/>
<line opacity="0.1" stroke="#000000" stroke-width="1" x1="229" y1="699" x2="229" y2="68"/>
<line opacity="0.1" stroke="#000000" stroke-width="1" x1="241" y1="699" x2="241" y2="68"/>
<line opacity="0.1" stroke="#000000" stroke-width="1" x1="252" y1="699" x2="252" y2="68"/>
<line opacity="0.1" stroke="#000000" stroke-width="1" x1="263" y1="699" x2="263" y2="68"/>
<line opacity="0.1" stroke="#000000" stroke-width="1" x1="274" y1="699" x2="274" y2="68"/>
<line opacity="0.1" stroke="#000000" stroke-width="1" x1="285" y1="699" x2="285" y2="68"/>
<line opacity="0.1" stroke="#000000" stroke-width="1" x1="297" y1="699" x2="297" y2="68"/>
<line opacity="0.1" stroke="#000000" stroke-width="1" x1="308" y1="699" x2="308" y2="68"/>
<line opacity="0.1" stroke="#000000" stroke-width="1" x1="319" y1="699" x2="319" y2="68"/>
<line opacity="0.1" stroke="#000000" stroke-width="1" x1="330" y1="699" x2="330" y2="68"/>
<line opacity="0.1" stroke="#000000" stroke-width="1" x1="341" y1="699" x2="341" y2="68"/>
<line opacity="0.1" stroke="#000000" stroke-width="1" x1="352" y1="699" x2="352" y2="68"/>
<line opacity="0.1" stroke="#000000" stroke-width="1" x1="364" y1="699" x2="364" y2="68"/>
<line opacity="0.1" stroke="#000000" stroke-width="1" x1="375" y1="699" x2="375" y2="68"/>
<line opacity="0.1" stroke="#000000" stroke-width="1" x1="386" y1="699" x2="386" y2="68"/>
<line opacity="0.1" stroke="#000000" stroke-width="1" x1="397" y1="699" x2="397" y2="68"/>
<line opacity="0.1" stroke="#000000" stroke-width="1" x1="408" y1="699" x2="408" y2="68"/>
<line opacity="0.1" stroke="#000000" stroke-width="1" x1="420" y1="699" x2="420" y2="68"/>
<line opacity="0.1" stroke="#000000" stroke-width="1" x1="431" y1="699" x2="431" y2="68"/>
<line opacity="0.1" stroke="#000000" stroke-width="1" x1="442" y1="699" x2="442" y2="68"/>
<line opacity="0.1" stroke="#000000" stroke-width="1" x1="453" y1="699" x2="453" y2="68"/>
<line opacity="0.1" stroke="#000000" stroke-width="1" x1="464" y1="699" x2="464" y2="68"/>
<line opacity="0.1" stroke="#000000" stroke-width="1" x1="476" y1="699" x2="476" y2="68"/>
<line opacity="0.1" stroke="#000000" stroke-width="1" x1="487" y1="699" x2="487" y2="68"/>
<line opacity="0.1" stroke="#000000" stroke-width="1" x1="498" y1="699" x2="498" y2="68"/>
<line opacity="0.1" stroke="#000000" stroke-width="1" x1="509" y1="699" x2="509" y2="68"/>
<line opacity="0.1" stroke="#000000" stroke-width="1" x1="520" y1="699" x2="520" y2="68"/>
<line opacity="0.1" stroke="#000000" stroke-width="1" x1="531" y1="699" x2="531" y2="68"/>
<line opacity="0.1" stroke="#000000" stroke-width="1" x1="543" y1="699" x2="543" y2="68"/>
<line opacity="0.1" stroke="#000000" stroke-width="1" x1="554" y1="699" x2="554" y2="68"/>
<line opacity="0.1" stroke="#000000" stroke-width="1" x1="565" y1="699" x2="565" y2="68"/>
<line opacity="0.1" stroke="#000000" stroke-width="1" x1="576" y1="699" x2="576" y2="68"/>
<line opacity="0.1" stroke="#000000" stroke-width="1" x1="587" y1="699" x2="587" y2="68"/>
<line opacity="0.1" stroke="#000000" stroke-width="1" x1="599" y1="699" x2="599" y2="68"/>
<line opacity="0.1" stroke="#000000" stroke-width="1" x1="610" y1="699" x2="610" y2="68"/>
<line opacity="0.1" stroke="#000000" stroke-width="1" x1="621" y1="699" x2="621" y2="68"/>
<line opacity="0.1" stroke="#000000" stroke-width="1" x1="632" y1="699" x2="632" y2="68"/>
<line opacity="0.1" stroke="#000000" stroke-width="1" x1="643" y1="699" x2="643" y2="68"/>
<line opacity="0.1" stroke="#000000" stroke-width="1" x1="654" y1="699" x2="654" y2="68"/>
<line opacity="0.1" stroke="#000000" stroke-width="1" x1="666" y1="699" x2="666" y2="68"/>
<line opacity="0.1" stroke="#000000" stroke-width="1" x1="677" y1="699" x2="677" y2="68"/>
<line opacity="0.1" stroke="#000000" stroke-width="1" x1="688" y1="699" x2="688" y2="68"/>
<line opacity="0.1" stroke="#000000" stroke-width="1" x1="699" y1="699" x2="699" y2="68"/>
<line opacity="0.1" stroke="#000000" stroke-width="1" x1="710" y1="699" x2="710" y2="68"/>
<line opacity="0.1" stroke="#000000" stroke-width="1" x1="722" y1="699" x2="722" y2="68"/>
<line opacity="0.1" stroke="#000000" stroke-width="1" x1="733" y1="699" x2="733" y2="68"/>
<line opacity="0.1" stroke="#000000" stroke-width="1" x1="744" y1="699" x2="744" y2="68"/>
<line opacity="0.1" stroke="#000000" stroke-width="1" x1="755" y1="699" x2="755" y2="68"/>
<line opacity="0.1" stroke="#000000" stroke-width="1" x1="766" y1="699" x2="766" y2="68"/>
<line opacity="0.1" stroke="#000000" stroke-width="1" x1="777" y1="699" x2="777" y2="68"/>
<line opacity="0.1" stroke="#000000" stroke-width="1" x1="789" y1="699" x2="789" y2="68"/>
<line opacity="0.1" stroke="#000000" stroke-width="1" x1="800" y1="699" x2="800" y2="68"/>
<line opacity="0.1" stroke="#000000" stroke-width="1" x1="811" y1="699" x2="811" y2="68"/>
<line opacity="0.1" stroke="#000000" stroke-width="1" x1="822" y1="699" x2="822" y2="68"/>
<line opacity="0.1" stroke="#000000" stroke-width="1" x1="833" y1="699" x2="833" y2="68"/>
<line opacity="0.1" stroke="#000000" stroke-width="1" x1="845" y1="699" x2="845" y2="68"/>
<line opacity="0.1" stroke="#000000" stroke-width="1" x1="856" y1="699" x2="856" y2="68"/>
<line opacity="0.1" stroke="#000000" stroke-width="1" x1="867" y1="699" x2="867" y2="68"/>
<line opacity="0.1" stroke="#000000" stroke-width="1" x1="878" y1="699" x2="878" y2="68"/>
<line opacity="0.1" stroke="#000000" stroke-width="1" x1="889" y1="699" x2="889" y2="68"/>
<line opacity="0.1" stroke="#000000" stroke-width="1" x1="900" y1="699" x2="900" y2="68"/>
<line opacity="0.1" stroke="#000000" stroke-width="1" x1="912" y1="699" x2="912" y2="68"/>
<line opacity="0.1" stroke="#000000" stroke-width="1" x1="923" y1="699" x2="923" y2="68"/>
<line opacity="0.1" stroke="#000000" stroke-width="1" x1="934" y1="699" x2="934" y2="68"/>
<line opacity="0.1" stroke="#000000" stroke-width="1" x1="945" y1="699" x2="945" y2="68"/>
<line opacity="0.1" stroke="#000000" stroke-width="1" x1="956" y1="699" x2="956" y2="68"/>
<line opacity="0.1" stroke="#000000" stroke-width="1" x1="968" y1="699" x2="968" y2="68"/>
<line opacity="0.1" stroke="#000000" stroke-width="1" x1="78" y1="699" x2="973" y2="699"/>
<line opacity="0.1" stroke="#000000" stroke-width="1" x1="78" y1="691" x2="973" y2="691"/>
<line opacity="0.1" stroke="#000000" stroke-width="1" x1="78" y1="684" x2="973" y2="684"/>
<line opacity="0.1" stroke="#000000" stroke-width="1" x1="78" y1="677" x2="973" y2="677"/>
<line opacity="0.1" stroke="#000000" stroke-width="1" x1="78" y1="670" x2="973" y2="670"/>
<line opacity="0.1" stroke="#000000" stroke-width="1" x1="78" y1="663" x2="973" y2="663"/>
<line opacity="0.1" stroke="#000000" stroke-width="1" x1="78" y1="656" x2="973" y2="656"/>
<line opacity="0.1" stroke="#000000" stroke-width="1" x1="78" y1="649" x2="973" y2="649"/>
<line opacity="0.1" stroke="#000000" stroke-width="1" x1="78" y1="642" x2="973" y2="642"/>
<line opacity="0.1" stroke="#000000" stroke-width="1" x1="78" y1="635" x2="973" y2="635"/>
<line opacity="0.1" stroke="#000000" stroke-width="1" x1="78" y1="628" x2="973" y2="628"/>
<line opacity="0.1" stroke="#000000" stroke-width="1" x1="78" y1="621" x2="973" y2="621"/>
<line opacity="0.1" stroke="#000000" stroke-width="1" x1="78" y1="614" x2="973" y2="614"/>
<line opacity="0.1" stroke="#000000" stroke-width="1" x1="78" y1="607" x2="973" y2="607"/>
<line opacity="0.1" stroke="#000000" stroke-width="1" x1="78" y1="600" x2="973" y2="600"/>
<line opacity="0.1" stroke="#000000" stroke-width="1" x1="78" y1="593" x2="973" y2="593"/>
<line opacity="0.1" stroke="#000000" stroke-width="1" x1="78" y1="585" x2="973" y2="585"/>
<line opacity="0.1" stroke="#000000" stroke-width="1" x1="78" y1="578" x2="973" y2="578"/>
<line opacity="0.1" stroke="#000000" stroke-width="1" x1="78" y1="571" x2="973" y2="571"/>
<line opacity="0.1" stroke="#000000" stroke-width="1" x1="78" y1="564" x2="973" y2="564"/>
<line opacity="0.1" stroke="#000000" stroke-width="1" x1="78" y1="557" x2="973" y2="557"/>
<line opacity="0.1" stroke="#000000" stroke-width="1" x1="78" y1="550" x2="973" y2="550"/>
<line opacity="0.1" stroke="#000000" stroke-width="1" x1="78" y1="543" x2="973" y2="543"/>
<line opacity="0.1" stroke="#000000" stroke-width="1" x1="78" y1="536" x2="973" y2="536"/>
<line opacity="0.1" stroke="#000000" stroke-width="1" x1="78" y1="529" x2="973" y2="529"/>
<line opacity="0.1" stroke="#000000" stroke-width="1" x1="78" y1="522" x2="973" y2="522"/>
<line opacity="0.1" stroke="#000000" stroke-width="1" x1="78" y1="515" x2="973" y2="515"/>
<line opacity="0.1" stroke="#000000" stroke-width="1" x1="78" y1="508" x2="973" y2="508"/>
<line opacity="0.1" stroke="#000000" stroke-width="1" x1="78" y1="501" x2="973" y2="501"/>
<line opacity="0.1" stroke="#000000" stroke-width="1" x1="78" y1="494" x2="973" y2="494"/>
<line opacity="0.1" stroke="#000000" stroke-width="1" x1="78" y1="487" x2="973" y2="487"/>
<line opacity="0.1" stroke="#000000" stroke-width="1" x1="78" y1="480" x2="973" y2="480"/>
<line opacity="0.1" stroke="#000000" stroke-width="1" x1="78" y1="472" x2="973" y2="472"/>
<line opacity="0.1" stroke="#000000" stroke-width="1" x1="78" y1="465" x2="973" y2="465"/>
<line opacity="0.1" stroke="#000000" stroke-width="1" x1="78" y1="458" x2="973" y2="458"/>
<line opacity="0.1" stroke="#000000" stroke-width="1" x1="78" y1="451" x2="973" y2="451"/>
<line opacity="0.1" stroke="#000000" stroke-width="1" x1="78" y1="444" x2="973" y2="444"/>
<line opacity="0.1" stroke="#000000" stroke-width="1" x1="78" y1="437" x2="973" y2="437"/>
<line opacity="0.1" stroke="#000000" stroke-width="1" x1="78" y1="430" x2="973" y2="430"/>
<line opacity="0.1" stroke="#000000" stroke-width="1" x1="78" y1="423" x2="973" y2="423"/>
<line opacity="0.1" stroke="#000000" stroke-width="1" x1="78" y1="416" x2="973" y2="416"/>
<line opacity="0.1" stroke="#000000" stroke-width="1" x1="78" y1="409" x2="973" y2="409"/>
<line opacity="0.1" stroke="#000000" stroke-width="1" x1="78" y1="402" x2="973" y2="402"/>
<line opacity="0.1" stroke="#000000" stroke-width="1" x1="78" y1="395" x2="973" y2="395"/>
<line opacity="0.1" stroke="#000000" stroke-width="1" x1="78" y1="388" x2="973" y2="388"/>
<line opacity="0.1" stroke="#000000" stroke-width="1" x1="78" y1="381" x2="973" y2="381"/>
<line opacity="0.1" stroke="#000000" stroke-width="1" x1="78" y1="374" x2="973" y2="374"/>
<line opacity="0.1" stroke="#000000" stroke-width="1" x1="78" y1="366" x2="973" y2="366"/>
<line opacity="0.1" stroke="#000000" stroke-width="1" x1="78" y1="359" x2="973" y2="359"/>
<line opacity="0.1" stroke="#000000" stroke-width="1" x1="78" y1="352" x2="973" y2="352"/>
<line opacity="0.1" stroke="#000000" stroke-width="1" x1="78" y1="345" x2="973" y2="345"/>
<line opacity="0.1" stroke="#000000" stroke-width="1" x1="78" y1="338" x2="973" y2="338"/>
<line opacity="0.1" stroke="#000000" stroke-width="1" x1="78" y1="331" x2="973" y2="331"/>
<line opacity="0.1" stroke="#000000" stroke-width="1" x1="78" y1="324" x2="973" y2="324"/>
<line opacity="0.1" stroke="#000000" stroke-width="1" x1="78" y1="317" x2="973" y2="317"/>
<line opacity="0.1" stroke="#000000" stroke-width="1" x1="78" y1="310" x2="973" y2="310"/>
<line opacity="0.1" stroke="#000000" stroke-width="1" x1="78" y1="303" x2="973" y2="303"/>
<line opacity="0.1" stroke="#000000" stroke-width="1" x1="78" y1="296" x2="973" y2="296"/>
<line opacity="0.1" stroke="#000000" stroke-width="1" x1="78" y1="289" x2="973" y2="289"/>
<line opacity="0.1" stroke="#000000" stroke-width="1" x1="78" y1="282" x2="973" y2="282"/>
<line opacity="0.1" stroke="#000000" stroke-width="1" x1="78" y1="275" x2="973" y2="275"/>
<line opacity="0.1" stroke="#000000" stroke-width="1" x1="78" y1="268" x2="973" y2="268"/>
<line opacity="0.1" stroke="#000000" stroke-width="1" x1="78" y1="261" x2="973" y2="261"/>
<line opacity="0.1" stroke="#000000" stroke-width="1" x1="78" y1="253" x2="973" y2="253"/>
<line opacity="0.1" stroke="#000000" stroke-width="1" x1="78" y1="246" x2="973" y2="246"/>
<line opacity="0.1" stroke="#000000" stroke-width="1" x1="78" y1="239" x2="973" y2="239"/>
<line opacity="0.1" stroke="#000000" stroke-width="1" x1="78" y1="232" x2="973" y2="232"/>
<line opacity="0.1" stroke="#000000" stroke-width="1" x1="78" y1="225" x2="973" y2="225"/>
<line opacity="0.1" stroke="#000000" stroke-width="1" x1="78" y1="218" x2="973" y2="218"/>
<line opacity="0.1" stroke="#000000" stroke-width="1" x1="78" y1="211" x2="973" y2="211"/>
<line opacity="0.1" stroke="#000000" stroke-width="1" x1="78" y1="204" x2="973" y2="204"/>
<line opacity="0.1" stroke="#000000" stroke-width="1" x1="78" y1="197" x2="973" y2="197"/>
<line opacity="0.1" stroke="#000000" stroke-width="1" x1="78" y1="190" x2="973" y2="190"/>
<line opacity="0.1" stroke="#000000" stroke-width="1" x1="78" y1="183" x2="973" y2="183"/>
<line opacity="0.1" stroke="#000000" stroke-width="1" x1="78" y1="176" x2="973" y2="176"/>
<line opacity="0.1" stroke="#000000" stroke-width="1" x1="78" y1="169" x2="973" y2="169"/>
<line opacity="0.1" stroke="#000000" stroke-width="1" x1="78" y1="162" x2="973" y2="162"/>
<line opacity="0.1" stroke="#000000" stroke-width="1" x1="78" y1="155" x2="973" y2="155"/>
<line opacity="0.1" stroke="#000000" stroke-width="1" x1="78" y1="148" x2="973" y2="148"/>
<line opacity="0.1" stroke="#000000" stroke-width="1" x1="78" y1="140" x2="973" y2="140"/>
<line opacity="0.1" stroke="#000000" stroke-width="1" x1="78" y1="133" x2="973" y2="133"/>
<line opacity="0.1" stroke="#000000" stroke-width="1" x1="78" y1="126" x2="973" y2="126"/>
<line opacity="0.1" stroke="#000000" stroke-width="1" x1="78" y1="119" x2="973" y2="119"/>
<line opacity="0.1" stroke="#000000" stroke-width="1" x1="78" y1="112" x2="973" y2="112"/>
<line opacity="0.1" stroke="#000000" stroke-width="1" x1="78" y1="105" x2="973" y2="105"/>
<line opacity="0.1" stroke="#000000" stroke-width="1" x1="78" y1="98" x2="973" y2="98"/>
<line opacity="0.1" stroke="#000000" stroke-width="1" x1="78" y1="91" x2="973" y2="91"/>
<line opacity="0.1" stroke="#000000" stroke-width="1" x1="78" y1="84" x2="973" y2="84"/>
<line opacity="0.1" stroke="#000000" stroke-width="1" x1="78" y1="77" x2="973" y2="77"/>
<line opacity="0.1" stroke="#000000" stroke-width="1" x1="78" y1="70" x2="973" y2="70"/>
<text x="8" y="384" dy="0.76em" text-anchor="middle" font-family="sans-serif" font-size="9.67741935483871" opacity="1" fill="#000000" transform="rotate(270, 8, 384)">
Memory usage
</text>
<text x="526" y="760" dy="-0.5ex" text-anchor="middle" font-family="sans-serif" font-size="9.67741935483871" opacity="1" fill="#000000">
Time
</text>
<line opacity="0.2" stroke="#000000" stroke-width="1" x1="106" y1="699" x2="106" y2="68"/>
<line opacity="0.2" stroke="#000000" stroke-width="1" x1="218" y1="699" x2="218" y2="68"/>
<line opacity="0.2" stroke="#000000" stroke-width="1" x1="330" y1="699" x2="330" y2="68"/>
<line opacity="0.2" stroke="#000000" stroke-width="1" x1="442" y1="699" x2="442" y2="68"/>
<line opacity="0.2" stroke="#000000" stroke-width="1" x1="554" y1="699" x2="554" y2="68"/>
<line opacity="0.2" stroke="#000000" stroke-width="1" x1="666" y1="699" x2="666" y2="68"/>
<line opacity="0.2" stroke="#000000" stroke-width="1" x1="777" y1="699" x2="777" y2="68"/>
<line opacity="0.2" stroke="#000000" stroke-width="1" x1="889" y1="699" x2="889" y2="68"/>
<line opacity="0.2" stroke="#000000" stroke-width="1" x1="78" y1="699" x2="973" y2="699"/>
<line opacity="0.2" stroke="#000000" stroke-width="1" x1="78" y1="628" x2="973" y2="628"/>
<line opacity="0.2" stroke="#000000" stroke-width="1" x1="78" y1="557" x2="973" y2="557"/>
<line opacity="0.2" stroke="#000000" stroke-width="1" x1="78" y1="487" x2="973" y2="487"/>
<line opacity="0.2" stroke="#000000" stroke-width="1" x1="78" y1="416" x2="973" y2="416"/>
<line opacity="0.2" stroke="#000000" stroke-width="1" x1="78" y1="345" x2="973" y2="345"/>
<line opacity="0.2" stroke="#000000" stroke-width="1" x1="78" y1="275" x2="973" y2="275"/>
<line opacity="0.2" stroke="#000000" stroke-width="1" x1="78" y1="204" x2="973" y2="204"/>
<line opacity="0.2" stroke="#000000" stroke-width="1" x1="78" y1="133" x2="973" y2="133"/>
<polyline fill="none" opacity="1" stroke="#000000" stroke-width="1" points="77,68 77,699 "/>
<text x="68" y="699" dy="0.5ex" text-anchor="end" font-family="sans-serif" font-size="9.67741935483871" opacity="1" fill="#000000">
0.0 MB
</text>
<polyline fill="none" opacity="1" stroke="#000000" stroke-width="1" points="72,699 77,699 "/>
<text x="68" y="628" dy="0.5ex" text-anchor="end" font-family="sans-serif" font-size="9.67741935483871" opacity="1" fill="#000000">
9.5 MB
</text>
<polyline fill="none" opacity="1" stroke="#000000" stroke-width="1" points="72,628 77,628 "/>
<text x="68" y="557" dy="0.5ex" text-anchor="end" font-family="sans-serif" font-size="9.67741935483871" opacity="1" fill="#000000">
19.1 MB
</text>
<polyline fill="none" opacity="1" stroke="#000000" stroke-width="1" points="72,557 77,557 "/>
<text x="68" y="487" dy="0.5ex" text-anchor="end" font-family="sans-serif" font-size="9.67741935483871" opacity="1" fill="#000000">
28.6 MB
</text>
<polyline fill="none" opacity="1" stroke="#000000" stroke-width="1" points="72,487 77,487 "/>
<text x="68" y="416" dy="0.5ex" text-anchor="end" font-family="sans-serif" font-size="9.67741935483871" opacity="1" fill="#000000">
38.1 MB
</text>
<polyline fill="none" opacity="1" stroke="#000000" stroke-width="1" points="72,416 77,416 "/>
<text x="68" y="345" dy="0.5ex" text-anchor="end" font-family="sans-serif" font-size="9.67741935483871" opacity="1" fill="#000000">
47.7 MB
</text>
<polyline fill="none" opacity="1" stroke="#000000" stroke-width="1" points="72,345 77,345 "/>
<text x="68" y="275" dy="0.5ex" text-anchor="end" font-family="sans-serif" font-size="9.67741935483871" opacity="1" fill="#000000">
57.2 MB
</text>
<polyline fill="none" opacity="1" stroke="#000000" stroke-width="1" points="72,275 77,275 "/>
<text x="68" y="204" dy="0.5ex" text-anchor="end" font-family="sans-serif" font-size="9.67741935483871" opacity="1" fill="#000000">
66.8 MB
</text>
<polyline fill="none" opacity="1" stroke="#000000" stroke-width="1" points="72,204 77,204 "/>
<text x="68" y="133" dy="0.5ex" text-anchor="end" font-family="sans-serif" font-size="9.67741935483871" opacity="1" fill="#000000">
76.3 MB
</text>
<polyline fill="none" opacity="1" stroke="#000000" stroke-width="1" points="72,133 77,133 "/>
<polyline fill="none" opacity="1" stroke="#000000" stroke-width="1" points="78,700 973,700 "/>
<text x="106" y="710" dy="0.76em" text-anchor="middle" font-family="sans-serif" font-size="9.67741935483871" opacity="1" fill="#000000">
07 20:33:20
</text>
<polyline fill="none" opacity="1" stroke="#000000" stroke-width="1" points="106,700 106,705 "/>
<text x="218" y="710" dy="0.76em" text-anchor="middle" font-family="sans-serif" font-size="9.67741935483871" opacity="1" fill="#000000">
08 10:26:40
</text>
<polyline fill="none" opacity="1" stroke="#000000" stroke-width="1" points="218,700 218,705 "/>
<text x="330" y="710" dy="0.76em" text-anchor="middle" font-family="sans-serif" font-size="9.67741935483871" opacity="1" fill="#000000">
09 00:20:00
</text>
<polyline fill="none" opacity="1" stroke="#000000" stroke-width="1" points="330,700 330,705 "/>
<text x="442" y="710" dy="0.76em" text-anchor="middle" font-family="sans-serif" font-size="9.67741935483871" opacity="1" fill="#000000">
09 14:13:20
</text>
<polyline fill="none" opacity="1" stroke="#000000" stroke-width="1" points="442,700 442,705 "/>
<text x="554" y="710" dy="0.76em" text-anchor="middle" font-family="sans-serif" font-size="9.67741935483871" opacity="1" fill="#000000">
10 04:06:40
</text>
<polyline fill="none" opacity="1" stroke="#000000" stroke-width="1" points="554,700 554,705 "/>
<text x="666" y="710" dy="0.76em" text-anchor="middle" font-family="sans-serif" font-size="9.67741935483871" opacity="1" fill="#000000">
10 18:00:00
</text>
<polyline fill="none" opacity="1" stroke="#000000" stroke-width="1" points="666,700 666,705 "/>
<text x="777" y="710" dy="0.76em" text-anchor="middle" font-family="sans-serif" font-size="9.67741935483871" opacity="1" fill="#000000">
11 07:53:20
</text>
<polyline fill="none" opacity="1" stroke="#000000" stroke-width="1" points="777,700 777,705 "/>
<text x="889" y="710" dy="0.76em" text-anchor="middle" font-family="sans-serif" font-size="9.67741935483871" opacity="1" fill="#000000">
11 21:46:40
</text>
<polyline fill="none" opacity="1" stroke="#000000" stroke-width="1" points="889,700 889,705 "/>
<polyline fill="none" opacity="1" stroke="#000000" stroke-width="1" points="78,67 974,67 "/>
<text x="106" y="58" dy="-0.5ex" text-anchor="middle" font-family="sans-serif" font-size="9.67741935483871" opacity="1" fill="#000000">
+03:35:44
</text>
<polyline fill="none" opacity="1" stroke="#000000" stroke-width="1" points="106,62 106,67 "/>
<text x="218" y="58" dy="-0.5ex" text-anchor="middle" font-family="sans-serif" font-size="9.67741935483871" opacity="1" fill="#000000">
+17:29:04
</text>
<polyline fill="none" opacity="1" stroke="#000000" stroke-width="1" points="218,62 218,67 "/>
<text x="330" y="58" dy="-0.5ex" text-anchor="middle" font-family="sans-serif" font-size="9.67741935483871" opacity="1" fill="#000000">
+31:22:24
</text>
<polyline fill="none" opacity="1" stroke="#000000" stroke-width="1" points="330,62 330,67 "/>
<text x="442" y="58" dy="-0.5ex" text-anchor="middle" font-family="sans-serif" font-size="9.67741935483871" opacity="1" fill="#000000">
+45:15:44
</text>
<polyline fill="none" opacity="1" stroke="#000000" stroke-width="1" points="442,62 442,67 "/>
<text x="554" y="58" dy="-0.5ex" text-anchor="middle" font-family="sans-serif" font-size="9.67741935483871" opacity="1" fill="#000000">
+59:09:04
</text>
<polyline fill="none" opacity="1" stroke="#000000" stroke-width="1" points="554,62 554,67 "/>
<text x="666" y="58" dy="-0.5ex" text-anchor="middle" font-family="sans-serif" font-size="9.67741935483871" opacity="1" fill="#000000">
+73:02:24
</text>
<polyline fill="none" opacity="1" stroke="#000000" stroke-width="1" points="666,62 666,67 "/>
<text x="778" y="58" dy="-0.5ex" text-anchor="middle" font-family="sans-serif" font-size="9.67741935483871" opacity="1" fill="#000000">
+86:55:44
</text>
<polyline fill="none" opacity="1" stroke="#000000" stroke-width="1" points="778,62 778,67 "/>
<text x="890" y="58" dy="-0.5ex" text-anchor="middle" font-family="sans-serif" font-size="9.67741935483871" opacity="1" fill="#000000">
+100:49:04
</text>
<polyline fill="none" opacity="1" stroke="#000000" stroke-width="1" points="890,62 890,67 "/>
<rect x="83" y="73" width="99" height="45" opacity="0.75" fill="#FFFFFF" stroke="none"/>
<rect x="83" y="73" width="99" height="45" opacity="1" fill="none" stroke="#000000"/>
<text x="123" y="83" dy="0.76em" text-anchor="start" font-family="sans-serif" font-size="9.67741935483871" opacity="1" fill="#000000">
Temporary
</text>
<text x="123" y="98" dy="0.76em" text-anchor="start" font-family="sans-serif" font-size="9.67741935483871" opacity="1" fill="#000000">
Leaked
</text>
<rect x="93" y="83" width="10" height="10" opacity="1" fill="#3CB44B" stroke="none"/>
<rect x="93" y="98" width="10" height="10" opacity="1" fill="#E6194B" stroke="none"/>
</svg>
