<svg width="1024" height="768" viewBox="0 0 1024 768" xmlns="http://www.w3.org/2000/svg">
<rect x="0" y="0" width="1024" height="768" opacity="1" fill="#FFFFFF" stroke="none"/>
<polygon opacity="1" fill="#3CB44B" points="78,698 78,699 79,699 80,699 81,699 82,695 83,699 84,699 85,699 86,695 87,695 87,695 88,694 89,694 90,694 91,694 92,695 93,699 94,695 95,691 95,694 96,697 97,697 98,694 99,695 100,692 101,692 102,698 103,694 104,691 104,692 105,692 106,688 107,689 108,689 109,686 110,682 111,679 112,679 112,677 113,674 114,673 115,671 116,667 117,667 118,667 119,664 120,664 121,664 121,663 122,658 123,659 124,658 125,658 126,655 127,652 128,652 129,652 129,652 130,649 131,649 132,645 133,646 134,643 135,643 136,643 137,642 137,639 138,637 139,635 140,631 141,632 142,630 143,630 144,627 145,627 146,624 146,624 147,624 148,623 149,624 150,619 151,616 152,614 153,615 154,615 154,616 155,615 156,615 157,615 158,614 159,612 160,608 161,608 162,608 163,608 163,608 164,608 165,608 166,608 167,602 168,600 169,601 170,601 171,602 171,602 172,602 173,599 174,599 175,596 176,599 177,692 178,692 179,686 180,683 180,683 181,682 182,680 183,677 184,674 185,675 186,671 187,668 188,668 188,665 189,666 190,662 191,661 192,659 193,655 194,655 195,655 196,653 197,652 197,649 198,649 199,646 200,646 201,646 202,643 203,643 204,643 205,643 205,643 206,641 207,641 208,638 209,637 210,634 211,633 212,632 213,630 214,627 214,626 215,622 216,619 217,616 218,616 219,617 220,616 221,613 222,613 222,611 223,608 224,608 225,608 226,604 227,605 228,602 229,598 230,598 231,597 231,595 232,592 233,593 234,589 235,589 236,590 237,587 238,583 239,583 239,583 240,580 241,580 242,577 243,574 244,574 245,574 246,570 247,568 247,568 248,565 249,562 250,559 251,556 252,556 253,556 254,552 255,553 256,552 256,552 257,552 258,549 259,546 260,546 261,544 262,543 263,544 264,543 264,543 265,540 266,537 267,534 268,534 269,531 270,528 271,528 272,528 273,528 273,528 274,525 275,525 276,524 277,524 278,523 279,520 280,520 281,517 281,517 282,513 283,510 284,510 285,509 286,509 287,509 288,506 289,506 290,503 290,501 291,501 292,498 293,498 294,494 295,494 296,493 297,493 298,493 298,496 299,494 300,495 301,495 302,491 303,488 304,485 305,486 306,486 307,486 307,486 308,483 309,479 310,479 311,480 312,477 313,475 314,475 315,471 315,471 316,471 317,472 318,471 319,472 320,472 321,468 322,465 323,465 324,465 324,465 325,461 326,461 327,462 328,459 329,459 330,456 331,455 332,456 332,456 333,453 334,450 335,450 336,447 337,446 338,447 339,447 340,446 341,446 341,442 342,439 343,439 344,439 345,439 346,440 347,439 348,436 349,436 349,435 350,432 351,429 352,429 353,426 354,426 355,425 356,425 357,423 357,422 358,423 359,422 360,422 361,419 362,416 363,413 364,413 365,411 366,411 366,408 367,405 368,405 369,405 370,405 371,405 372,404 373,403 374,403 374,403 375,401 376,401 377,402 378,402 379,402 380,402 381,402 382,399 383,398 383,399 384,396 385,396 386,393 387,390 388,386 389,383 390,384 391,382 391,381 392,382 393,383 394,381 395,377 396,376 397,376 398,374 399,373 400,374 400,374 401,374 402,374 403,372 404,372 405,372 406,372 407,369 408,369 408,368 409,368 410,369 411,364 412,361 413,360 414,360 415,359 416,356 417,357 417,357 418,352 419,352 420,349 421,350 422,350 423,347 424,344 425,341 425,338 426,335 427,335 428,333 429,334 430,333 431,332 432,335 433,335 434,332 434,332 435,329 436,325 437,322 438,319 439,319 440,316 441,313 442,313 442,313 443,310 444,310 445,307 446,307 447,307 448,307 449,307 450,307 451,304 451,301 452,296 453,295 454,295 455,295 456,295 457,291 458,292 459,292 459,291 460,291 461,291 462,288 463,285 464,283 465,283 466,280 467,279 467,279 468,276 469,273 470,274 471,271 472,270 473,270 474,268 475,265 476,265 476,265 477,265 478,261 479,258 480,259 481,258 482,255 483,255 484,254 484,255 485,255 486,255 487,251 488,251 489,251 490,249 491,249 492,247 493,246 493,246 494,249 495,247 496,246 497,247 498,247 499,246 500,246 501,242 501,242 502,238 503,238 504,238 505,238 506,233 507,232 508,231 509,226 510,227 510,227 511,228 512,225 513,225 514,221 515,222 516,221 517,217 518,218 518,218 519,216 520,214 521,211 522,211 523,210 524,207 525,207 526,207 527,204 527,204 528,204 529,204 530,204 531,204 532,204 533,204 534,204 535,204 535,204 536,204 537,203 538,200 539,198 540,198 541,199 542,199 543,198 544,195 544,195 545,192 546,192 547,190 548,190 549,189 550,187 551,184 552,183 552,183 553,183 554,183 555,183 556,184 557,183 558,180 559,180 560,181 561,181 561,181 562,180 563,180 564,180 565,177 566,173 567,173 568,173 569,173 569,173 570,170 571,168 572,165 573,163 574,163 575,163 576,163 577,160 577,159 578,160 579,155 580,155 581,155 582,155 583,155 584,151 585,152 586,151 586,151 587,150 588,145 589,145 590,144 591,142 592,142 593,138 594,138 594,138 595,136 596,136 597,136 598,132 599,131 600,131 601,129 602,129 603,126 603,123 604,123 605,119 606,119 607,119 608,119 609,119 610,117 611,117 611,117 612,113 613,112 614,111 615,107 616,104 617,102 618,99 619,99 620,96 620,96 621,96 622,96 623,92 624,90 625,89 626,89 627,89 628,89 628,86 629,86 630,86 631,83 632,83 633,83 634,80 635,79 636,77 637,77 637,77 638,77 639,74 640,74 641,68 642,691 643,692 644,692 645,692 645,692 646,689 647,686 648,682 649,681 650,681 651,677 652,677 653,674 654,673 654,671 655,671 656,672 657,671 658,671 659,672 660,673 661,673 662,673 662,670 663,667 664,666 665,666 666,667 667,663 668,662 669,659 670,660 671,658 671,654 672,650 673,650 674,648 675,648 676,646 677,643 678,643 679,639 679,639 680,637 681,633 682,633 683,633 684,633 685,633 686,633 687,630 687,630 688,628 689,630 690,627 691,627 692,627 693,627 694,624 695,624 696,624 696,624 697,624 698,624 699,623 700,620 701,622 702,621 703,618 704,615 704,615 705,611 706,611 707,611 708,612 709,611 710,612 711,612 712,612 713,609 713,610 714,610 715,607 716,604 717,600 718,597 719,594 720,592 721,592 721,592 722,591 723,592 724,591 725,588 726,586 727,585 728,586 729,586 730,582 730,579 731,577 732,574 733,572 734,570 735,571 736,567 737,567 738,565 738,562 739,562 740,562 741,562 742,559 743,559 744,558 745,556 746,552 747,550 747,549 748,546 749,546 750,546 751,546 752,545 753,542 754,540 755,540 755,538 756,535 757,531 758,531 759,529 760,528 761,524 762,524 763,524 764,524 764,524 765,522 766,519 767,516 768,514 769,514 770,513 771,509 772,506 772,506 773,503 774,503 775,504 776,501 777,501 778,500 779,498 780,497 781,498 781,498 782,499 783,499 784,496 785,490 786,491 787,488 788,488 789,488 789,485 790,483 791,483 792,484 793,483 794,483 795,479 796,479 797,480 797,479 798,475 799,476 800,475 801,475 802,472 803,472 804,468 805,465 806,460 806,460 807,461 808,461 809,461 810,462 811,459 812,456 813,452 814,452 814,448 815,449 816,449 817,448 818,445 819,446 820,443 821,439 822,440 823,441 823,440 824,440 825,441 826,438 827,438 828,438 829,437 830,434 831,433 831,434 832,434 833,434 834,431 835,428 836,425 837,425 838,425 839,424 840,424 840,425 841,425 842,425 843,425 844,422 845,422 846,419 847,420 848,419 848,416 849,416 850,413 851,413 852,409 853,407 854,407 855,403 856,403 857,400 857,401 858,400 859,400 860,400 861,398 862,395 863,393 864,392 865,391 865,385 866,387 867,383 868,384 869,381 870,378 871,377 872,377 873,378 874,377 874,378 875,378 876,376 877,376 878,376 879,373 880,373 881,374 882,374 882,373 883,373 884,373 885,370 886,367 887,368 888,364 889,363 890,363 891,363 891,361 892,361 893,357 894,358 895,356 896,353 897,353 898,353 899,349 899,345 900,342 901,343 902,340 903,338 904,338 905,335 906,332 907,332 907,332 908,329 909,325 910,325 911,325 912,322 913,322 914,319 915,316 916,316 916,316 917,316 918,316 919,313 920,313 921,310 922,310 923,307 924,304 924,301 925,300 926,297 927,297 928,297 929,297 930,294 931,294 932,290 933,291 933,291 934,291 935,291 936,291 937,289 938,287 939,284 940,281 941,278 941,275 942,275 943,276 944,273 945,273 946,273 947,272 948,273 949,275 950,274 950,275 951,274 952,275 953,275 954,275 955,274 956,273 957,270 958,267 958,266 959,263 960,262 961,258 962,258 963,260 964,260 965,257 966,257 967,256 967,253 968,253 969,251 969,251 970,248 971,248 972,244 972,244 973,244 973,699 78,699 "/>
<polyline fill="none" opacity="1" stroke="#3CB44B" stroke-width="1" points="78,698 78,699 79,699 80,699 81,699 82,695 83,699 84,699 85,699 86,695 87,695 87,695 88,694 89,694 90,694 91,694 92,695 93,699 94,695 95,691 95,694 96,697 97,697 98,694 99,695 100,692 101,692 102,698 103,694 104,691 104,692 105,692 106,688 107,689 108,689 109,686 110,682 111,679 112,679 112,677 113,674 114,673 115,671 116,667 117,667 118,667 119,664 120,664 121,664 121,663 122,658 123,659 124,658 125,658 126,655 127,652 128,652 129,652 129,652 130,649 131,649 132,645 133,646 134,643 135,643 136,643 137,642 137,639 138,637 139,635 140,631 141,632 142,630 143,630 144,627 145,627 146,624 146,624 147,624 148,623 149,624 150,619 151,616 152,614 153,615 154,615 154,616 155,615 156,615 157,615 158,614 159,612 160,608 161,608 162,608 163,608 163,608 164,608 165,608 166,608 167,602 168,600 169,601 170,601 171,602 171,602 172,602 173,599 174,599 175,596 176,599 177,692 178,692 179,686 180,683 180,683 181,682 182,680 183,677 184,674 185,675 186,671 187,668 188,668 188,665 189,666 190,662 191,661 192,659 193,655 194,655 195,655 196,653 197,652 197,649 198,649 199,646 200,646 201,646 202,643 203,643 204,643 205,643 205,643 206,641 207,641 208,638 209,637 210,634 211,633 212,632 213,630 214,627 214,626 215,622 216,619 217,616 218,616 219,617 220,616 221,613 222,613 222,611 223,608 224,608 225,608 226,604 227,605 228,602 229,598 230,598 231,597 231,595 232,592 233,593 234,589 235,589 236,590 237,587 238,583 239,583 239,583 240,580 241,580 242,577 243,574 244,574 245,574 246,570 247,568 247,568 248,565 249,562 250,559 251,556 252,556 253,556 254,552 255,553 256,552 256,552 257,552 258,549 259,546 260,546 261,544 262,543 263,544 264,543 264,543 265,540 266,537 267,534 268,534 269,531 270,528 271,528 272,528 273,528 273,528 274,525 275,525 276,524 277,524 278,523 279,520 280,520 281,517 281,517 282,513 283,510 284,510 285,509 286,509 287,509 288,506 289,506 290,503 290,501 291,501 292,498 293,498 294,494 295,494 296,493 297,493 298,493 298,496 299,494 300,495 301,495 302,491 303,488 304,485 305,486 306,486 307,486 307,486 308,483 309,479 310,479 311,480 312,477 313,475 314,475 315,471 315,471 316,471 317,472 318,471 319,472 320,472 321,468 322,465 323,465 324,465 324,465 325,461 326,461 327,462 328,459 329,459 330,456 331,455 332,456 332,456 333,453 334,450 335,450 336,447 337,446 338,447 339,447 340,446 341,446 341,442 342,439 343,439 344,439 345,439 346,440 347,439 348,436 349,436 349,435 350,432 351,429 352,429 353,426 354,426 355,425 356,425 357,423 357,422 358,423 359,422 360,422 361,419 362,416 363,413 364,413 365,411 366,411 366,408 367,405 368,405 369,405 370,405 371,405 372,404 373,403 374,403 374,403 375,401 376,401 377,402 378,402 379,402 380,402 381,402 382,399 383,398 383,399 384,396 385,396 386,393 387,390 388,386 389,383 390,384 391,382 391,381 392,382 393,383 394,381 395,377 396,376 397,376 398,374 399,373 400,374 400,374 401,374 402,374 403,372 404,372 405,372 406,372 407,369 408,369 408,368 409,368 410,369 411,364 412,361 413,360 414,360 415,359 416,356 417,357 417,357 418,352 419,352 420,349 421,350 422,350 423,347 424,344 425,341 425,338 426,335 427,335 428,333 429,334 430,333 431,332 432,335 433,335 434,332 434,332 435,329 436,325 437,322 438,319 439,319 440,316 441,313 442,313 442,313 443,310 444,310 445,307 446,307 447,307 448,307 449,307 450,307 451,304 451,301 452,296 453,295 454,295 455,295 456,295 457,291 458,292 459,292 459,291 460,291 461,291 462,288 463,285 464,283 465,283 466,280 467,279 467,279 468,276 469,273 470,274 471,271 472,270 473,270 474,268 475,265 476,265 476,265 477,265 478,261 479,258 480,259 481,258 482,255 483,255 484,254 484,255 485,255 486,255 487,251 488,251 489,251 490,249 491,249 492,247 493,246 493,246 494,249 495,247 496,246 497,247 498,247 499,246 500,246 501,242 501,242 502,238 503,238 504,238 505,238 506,233 507,232 508,231 509,226 510,227 510,227 511,228 512,225 513,225 514,221 515,222 516,221 517,217 518,218 518,218 519,216 520,214 521,211 522,211 523,210 524,207 525,207 526,207 527,204 527,204 528,204 529,204 530,204 531,204 532,204 533,204 534,204 535,204 535,204 536,204 537,203 538,200 539,198 540,198 541,199 542,199 543,198 544,195 544,195 545,192 546,192 547,190 548,190 549,189 550,187 551,184 552,183 552,183 553,183 554,183 555,183 556,184 557,183 558,180 559,180 560,181 561,181 561,181 562,180 563,180 564,180 565,177 566,173 567,173 568,173 569,173 569,173 570,170 571,168 572,165 573,163 574,163 575,163 576,163 577,160 577,159 578,160 579,155 580,155 581,155 582,155 583,155 584,151 585,152 586,151 586,151 587,150 588,145 589,145 590,144 591,142 592,142 593,138 594,138 594,138 595,136 596,136 597,136 598,132 599,131 600,131 601,129 602,129 603,126 603,123 604,123 605,119 606,119 607,119 608,119 609,119 610,117 611,117 611,117 612,113 613,112 614,111 615,107 616,104 617,102 618,99 619,99 620,96 620,96 621,96 622,96 623,92 624,90 625,89 626,89 627,89 628,89 628,86 629,86 630,86 631,83 632,83 633,83 634,80 635,79 636,77 637,77 637,77 638,77 639,74 640,74 641,68 642,691 643,692 644,692 645,692 645,692 646,689 647,686 648,682 649,681 650,681 651,677 652,677 653,674 654,673 654,671 655,671 656,672 657,671 658,671 659,672 660,673 661,673 662,673 662,670 663,667 664,666 665,666 666,667 667,663 668,662 669,659 670,660 671,658 671,654 672,650 673,650 674,648 675,648 676,646 677,643 678,643 679,639 679,639 680,637 681,633 682,633 683,633 684,633 685,633 686,633 687,630 687,630 688,628 689,630 690,627 691,627 692,627 693,627 694,624 695,624 696,624 696,624 697,624 698,624 699,623 700,620 701,622 702,621 703,618 704,615 704,615 705,611 706,611 707,611 708,612 709,611 710,612 711,612 712,612 713,609 713,610 714,610 715,607 716,604 717,600 718,597 719,594 720,592 721,592 721,592 722,591 723,592 724,591 725,588 726,586 727,585 728,586 729,586 730,582 730,579 731,577 732,574 733,572 734,570 735,571 736,567 737,567 738,565 738,562 739,562 740,562 741,562 742,559 743,559 744,558 745,556 746,552 747,550 747,549 748,546 749,546 750,546 751,546 752,545 753,542 754,540 755,540 755,538 756,535 757,531 758,531 759,529 760,528 761,524 762,524 763,524 764,524 764,524 765,522 766,519 767,516 768,514 769,514 770,513 771,509 772,506 772,506 773,503 774,503 775,504 776,501 777,501 778,500 779,498 780,497 781,498 781,498 782,499 783,499 784,496 785,490 786,491 787,488 788,488 789,488 789,485 790,483 791,483 792,484 793,483 794,483 795,479 796,479 797,480 797,479 798,475 799,476 800,475 801,475 802,472 803,472 804,468 805,465 806,460 806,460 807,461 808,461 809,461 810,462 811,459 812,456 813,452 814,452 814,448 815,449 816,449 817,448 818,445 819,446 820,443 821,439 822,440 823,441 823,440 824,440 825,441 826,438 827,438 828,438 829,437 830,434 831,433 831,434 832,434 833,434 834,431 835,428 836,425 837,425 838,425 839,424 840,424 840,425 841,425 842,425 843,425 844,422 845,422 846,419 847,420 848,419 848,416 849,416 850,413 851,413 852,409 853,407 854,407 855,403 856,403 857,400 857,401 858,400 859,400 860,400 861,398 862,395 863,393 864,392 865,391 865,385 866,387 867,383 868,384 869,381 870,378 871,377 872,377 873,378 874,377 874,378 875,378 876,376 877,376 878,376 879,373 880,373 881,374 882,374 882,373 883,373 884,373 885,370 886,367 887,368 888,364 889,363 890,363 891,363 891,361 892,361 893,357 894,358 895,356 896,353 897,353 898,353 899,349 899,345 900,342 901,343 902,340 903,338 904,338 905,335 906,332 907,332 907,332 908,329 909,325 910,325 911,325 912,322 913,322 914,319 915,316 916,316 916,316 917,316 918,316 919,313 920,313 921,310 922,310 923,307 924,304 924,301 925,300 926,297 927,297 928,297 929,297 930,294 931,294 932,290 933,291 933,291 934,291 935,291 936,291 937,289 938,287 939,284 940,281 941,278 941,275 942,275 943,276 944,273 945,273 946,273 947,272 948,273 949,275 950,274 950,275 951,274 952,275 953,275 954,275 955,274 956,273 957,270 958,267 958,266 959,263 960,262 961,258 962,258 963,260 964,260 965,257 966,257 967,256 967,253 968,253 969,251 969,251 970,248 971,248 972,244 972,244 973,244 "/>
<polygon opacity="1" fill="#E6194B" points="78,699 78,699 79,699 80,699 81,699 82,699 83,699 84,699 85,699 86,699 87,699 87,699 88,699 89,699 90,699 91,699 92,699 93,699 94,699 95,699 95,699 96,699 97,699 98,699 99,699 100,699 101,699 102,699 103,699 104,699 104,699 105,699 106,699 107,699 108,699 109,699 110,699 111,699 112,699 112,699 113,699 114,699 115,699 116,699 117,699 118,699 119,699 120,699 121,699 121,699 122,699 123,699 124,699 125,699 126,699 127,699 128,699 129,699 129,699 130,699 131,699 132,699 133,699 134,699 135,699 136,699 137,699 137,699 138,699 139,699 140,699 141,699 142,699 143,699 144,699 145,699 146,699 146,699 147,699 148,699 149,699 150,699 151,699 152,699 153,699 154,699 154,699 155,699 156,699 157,699 158,699 159,699 160,699 161,699 162,699 163,699 163,699 164,699 165,699 166,699 167,699 168,699 169,699 170,699 171,699 171,699 172,699 173,699 174,699 175,699 176,699 177,699 178,699 179,699 180,699 180,699 181,699 182,699 183,699 184,699 185,699 186,699 187,699 188,699 188,699 189,699 190,699 191,699 192,699 193,699 194,699 195,699 196,699 197,699 197,699 198,699 199,699 200,699 201,699 202,699 203,699 204,699 205,699 205,699 206,699 207,699 208,699 209,699 210,699 211,699 212,699 213,699 214,699 214,699 215,699 216,699 217,699 218,699 219,699 220,699 221,699 222,699 222,699 223,699 224,699 225,699 226,699 227,699 228,699 229,699 230,699 231,699 231,699 232,699 233,699 234,699 235,699 236,699 237,699 238,699 239,699 239,699 240,699 241,699 242,699 243,699 244,699 245,699 246,699 247,699 247,699 248,699 249,699 250,699 251,699 252,699 253,699 254,699 255,699 256,699 256,699 257,699 258,699 259,699 260,699 261,699 262,699 263,699 264,699 264,699 265,699 266,699 267,699 268,699 269,699 270,699 271,699 272,699 273,699 273,699 274,699 275,699 276,699 277,699 278,699 279,699 280,699 281,699 281,699 282,699 283,699 284,699 285,699 286,699 287,699 288,699 289,699 290,699 290,699 291,699 292,699 293,699 294,699 295,699 296,699 297,699 298,699 298,699 299,699 300,699 301,699 302,699 303,699 304,699 305,699 306,699 307,699 307,699 308,699 309,699 310,699 311,699 312,699 313,699 314,699 315,699 315,699 316,699 317,699 318,699 319,699 320,699 321,699 322,699 323,699 324,699 324,699 325,699 326,699 327,699 328,699 329,699 330,699 331,699 332,699 332,699 333,699 334,699 335,699 336,699 337,699 338,699 339,699 340,699 341,699 341,699 342,699 343,699 344,699 345,699 346,699 347,699 348,699 349,699 349,699 350,699 351,699 352,699 353,699 354,699 355,699 356,699 357,699 357,699 358,699 359,699 360,699 361,699 362,699 363,699 364,699 365,699 366,699 366,699 367,699 368,699 369,699 370,699 371,699 372,699 373,699 374,699 374,699 375,699 376,699 377,699 378,699 379,699 380,699 381,699 382,699 383,699 383,699 384,699 385,699 386,699 387,699 388,699 389,699 390,699 391,699 391,699 392,699 393,699 394,699 395,699 396,699 397,699 398,699 399,699 400,699 400,699 401,699 402,699 403,699 404,699 405,699 406,699 407,699 408,699 408,699 409,699 410,699 411,699 412,699 413,699 414,699 415,699 416,699 417,699 417,699 418,699 419,699 420,699 421,699 422,699 423,699 424,699 425,699 425,699 426,699 427,699 428,699 429,699 430,699 431,699 432,699 433,699 434,699 434,699 435,699 436,699 437,699 438,699 439,699 440,699 441,699 442,699 442,699 443,699 444,699 445,699 446,699 447,699 448,699 449,699 450,699 451,699 451,699 452,699 453,699 454,699 455,699 456,699 457,699 458,699 459,699 459,699 460,699 461,699 462,699 463,699 464,699 465,699 466,699 467,699 467,699 468,699 469,699 470,699 471,699 472,699 473,699 474,699 475,699 476,699 476,699 477,699 478,699 479,699 480,699 481,699 482,699 483,699 484,699 484,699 485,699 486,699 487,699 488,699 489,699 490,699 491,699 492,699 493,699 493,699 494,699 495,699 496,699 497,699 498,699 499,699 500,699 501,699 501,699 502,699 503,699 504,699 505,699 506,699 507,699 508,699 509,699 510,699 510,699 511,699 512,699 513,699 514,699 515,699 516,699 517,699 518,699 518,699 519,699 520,699 521,699 522,699 523,699 524,699 525,699 526,699 527,699 527,699 528,699 529,699 530,699 531,699 532,699 533,699 534,699 535,699 535,699 536,699 537,699 538,699 539,699 540,699 541,699 542,699 543,699 544,699 544,699 545,699 546,699 547,699 548,699 549,699 550,699 551,699 552,699 552,699 553,699 554,699 555,699 556,699 557,699 558,699 559,699 560,699 561,699 561,699 562,699 563,699 564,699 565,699 566,699 567,699 568,699 569,699 569,699 570,699 571,699 572,699 573,699 574,699 575,699 576,699 577,699 577,699 578,699 579,699 580,699 581,699 582,699 583,699 584,699 585,699 586,699 586,699 587,699 588,699 589,699 590,699 591,699 592,699 593,699 594,699 594,699 595,699 596,699 597,699 598,699 599,699 600,699 601,699 602,699 603,699 603,699 604,699 605,699 606,699 607,699 608,699 609,699 610,699 611,699 611,699 612,699 613,699 614,699 615,699 616,699 617,699 618,699 619,699 620,699 620,699 621,699 622,699 623,699 624,699 625,699 626,699 627,699 628,699 628,699 629,699 630,699 631,699 632,699 633,699 634,699 635,699 636,699 637,699 637,699 638,699 639,699 640,699 641,695 642,692 643,692 644,692 645,692 645,692 646,689 647,686 648,683 649,683 650,683 651,680 652,680 653,677 654,674 654,674 655,674 656,674 657,674 658,674 659,674 660,674 661,674 662,674 662,671 663,668 664,668 665,668 666,668 667,665 668,665 669,662 670,662 671,659 671,656 672,653 673,653 674,650 675,650 676,647 677,644 678,644 679,641 679,641 680,638 681,635 682,635 683,635 684,635 685,635 686,635 687,632 687,632 688,632 689,632 690,629 691,629 692,629 693,629 694,626 695,626 696,626 696,626 697,626 698,626 699,626 700,623 701,623 702,623 703,620 704,617 704,617 705,614 706,614 707,614 708,614 709,614 710,614 711,614 712,614 713,611 713,611 714,611 715,608 716,605 717,602 718,599 719,596 720,593 721,593 721,593 722,593 723,593 724,593 725,590 726,587 727,587 728,587 729,587 730,583 730,580 731,580 732,577 733,574 734,571 735,571 736,568 737,568 738,565 738,562 739,562 740,562 741,562 742,559 743,559 744,559 745,556 746,553 747,550 747,550 748,547 749,547 750,547 751,547 752,547 753,544 754,541 755,541 755,538 756,535 757,532 758,532 759,529 760,529 761,526 762,526 763,526 764,526 764,526 765,523 766,520 767,517 768,514 769,514 770,514 771,511 772,508 772,508 773,505 774,505 775,505 776,502 777,502 778,502 779,499 780,499 781,499 781,499 782,499 783,499 784,496 785,493 786,493 787,490 788,490 789,490 789,487 790,484 791,484 792,484 793,484 794,484 795,481 796,481 797,481 797,481 798,478 799,478 800,478 801,478 802,475 803,472 804,468 805,465 806,462 806,462 807,462 808,462 809,462 810,462 811,459 812,456 813,453 814,453 814,450 815,450 816,450 817,450 818,447 819,447 820,444 821,441 822,441 823,441 823,441 824,441 825,441 826,438 827,438 828,438 829,438 830,435 831,435 831,435 832,435 833,435 834,432 835,429 836,426 837,426 838,426 839,426 840,426 840,426 841,426 842,426 843,426 844,423 845,423 846,420 847,420 848,420 848,417 849,417 850,414 851,414 852,411 853,408 854,408 855,405 856,405 857,402 857,402 858,402 859,402 860,402 861,399 862,396 863,393 864,393 865,393 865,387 866,387 867,384 868,384 869,381 870,378 871,378 872,378 873,378 874,378 874,378 875,378 876,378 877,378 878,378 879,375 880,375 881,375 882,375 882,375 883,375 884,375 885,372 886,369 887,369 888,366 889,366 890,366 891,366 891,363 892,363 893,360 894,360 895,357 896,353 897,353 898,353 899,350 899,347 900,344 901,344 902,341 903,338 904,338 905,335 906,332 907,332 907,332 908,329 909,326 910,326 911,326 912,323 913,323 914,320 915,317 916,317 916,317 917,317 918,317 919,314 920,314 921,311 922,311 923,308 924,305 924,302 925,302 926,299 927,299 928,299 929,299 930,296 931,296 932,293 933,293 933,293 934,293 935,293 936,293 937,293 938,290 939,287 940,284 941,281 941,278 942,278 943,278 944,275 945,275 946,275 947,275 948,275 949,275 950,275 950,275 951,275 952,275 953,275 954,275 955,275 956,275 957,272 958,269 958,266 959,263 960,263 961,260 962,260 963,260 964,260 965,257 966,257 967,257 967,254 968,254 969,251 969,251 970,248 971,248 972,244 972,244 973,244 973,699 78,699 "/>
<polyline fill="none" opacity="1" stroke="#E6194B" stroke-width="1" points="78,699 78,699 79,699 80,699 81,699 82,699 83,699 84,699 85,699 86,699 87,699 87,699 88,699 89,699 90,699 91,699 92,699 93,699 94,699 95,699 95,699 96,699 97,699 98,699 99,699 100,699 101,699 102,699 103,699 104,699 104,699 105,699 106,699 107,699 108,699 109,699 110,699 111,699 112,699 112,699 113,699 114,699 115,699 116,699 117,699 118,699 119,699 120,699 121,699 121,699 122,699 123,699 124,699 125,699 126,699 127,699 128,699 129,699 129,699 130,699 131,699 132,699 133,699 134,699 135,699 136,699 137,699 137,699 138,699 139,699 140,699 141,699 142,699 143,699 144,699 145,699 146,699 146,699 147,699 148,699 149,699 150,699 151,699 152,699 153,699 154,699 154,699 155,699 156,699 157,699 158,699 159,699 160,699 161,699 162,699 163,699 163,699 164,699 165,699 166,699 167,699 168,699 169,699 170,699 171,699 171,699 172,699 173,699 174,699 175,699 176,699 177,699 178,699 179,699 180,699 180,699 181,699 182,699 183,699 184,699 185,699 186,699 187,699 188,699 188,699 189,699 190,699 191,699 192,699 193,699 194,699 195,699 196,699 197,699 197,699 198,699 199,699 200,699 201,699 202,699 203,699 204,699 205,699 205,699 206,699 207,699 208,699 209,699 210,699 211,699 212,699 213,699 214,699 214,699 215,699 216,699 217,699 218,699 219,699 220,699 221,699 222,699 222,699 223,699 224,699 225,699 226,699 227,699 228,699 229,699 230,699 231,699 231,699 232,699 233,699 234,699 235,699 236,699 237,699 238,699 239,699 239,699 240,699 241,699 242,699 243,699 244,699 245,699 246,699 247,699 247,699 248,699 249,699 250,699 251,699 252,699 253,699 254,699 255,699 256,699 256,699 257,699 258,699 259,699 260,699 261,699 262,699 263,699 264,699 264,699 265,699 266,699 267,699 268,699 269,699 270,699 271,699 272,699 273,699 273,699 274,699 275,699 276,699 277,699 278,699 279,699 280,699 281,699 281,699 282,699 283,699 284,699 285,699 286,699 287,699 288,699 289,699 290,699 290,699 291,699 292,699 293,699 294,699 295,699 296,699 297,699 298,699 298,699 299,699 300,699 301,699 302,699 303,699 304,699 305,699 306,699 307,699 307,699 308,699 309,699 310,699 311,699 312,699 313,699 314,699 315,699 315,699 316,699 317,699 318,699 319,699 320,699 321,699 322,699 323,699 324,699 324,699 325,699 326,699 327,699 328,699 329,699 330,699 331,699 332,699 332,699 333,699 334,699 335,699 336,699 337,699 338,699 339,699 340,699 341,699 341,699 342,699 343,699 344,699 345,699 346,699 347,699 348,699 349,699 349,699 350,699 351,699 352,699 353,699 354,699 355,699 356,699 357,699 357,699 358,699 359,699 360,699 361,699 362,699 363,699 364,699 365,699 366,699 366,699 367,699 368,699 369,699 370,699 371,699 372,699 373,699 374,699 374,699 375,699 376,699 377,699 378,699 379,699 380,699 381,699 382,699 383,699 383,699 384,699 385,699 386,699 387,699 388,699 389,699 390,699 391,699 391,699 392,699 393,699 394,699 395,699 396,699 397,699 398,699 399,699 400,699 400,699 401,699 402,699 403,699 404,699 405,699 406,699 407,699 408,699 408,699 409,699 410,699 411,699 412,699 413,699 414,699 415,699 416,699 417,699 417,699 418,699 419,699 420,699 421,699 422,699 423,699 424,699 425,699 425,699 426,699 427,699 428,699 429,699 430,699 431,699 432,699 433,699 434,699 434,699 435,699 436,699 437,699 438,699 439,699 440,699 441,699 442,699 442,699 443,699 444,699 445,699 446,699 447,699 448,699 449,699 450,699 451,699 451,699 452,699 453,699 454,699 455,699 456,699 457,699 458,699 459,699 459,699 460,699 461,699 462,699 463,699 464,699 465,699 466,699 467,699 467,699 468,699 469,699 470,699 471,699 472,699 473,699 474,699 475,699 476,699 476,699 477,699 478,699 479,699 480,699 481,699 482,699 483,699 484,699 484,699 485,699 486,699 487,699 488,699 489,699 490,699 491,699 492,699 493,699 493,699 494,699 495,699 496,699 497,699 498,699 499,699 500,699 501,699 501,699 502,699 503,699 504,699 505,699 506,699 507,699 508,699 509,699 510,699 510,699 511,699 512,699 513,699 514,699 515,699 516,699 517,699 518,699 518,699 519,699 520,699 521,699 522,699 523,699 524,699 525,699 526,699 527,699 527,699 528,699 529,699 530,699 531,699 532,699 533,699 534,699 535,699 535,699 536,699 537,699 538,699 539,699 540,699 541,699 542,699 543,699 544,699 544,699 545,699 546,699 547,699 548,699 549,699 550,699 551,699 552,699 552,699 553,699 554,699 555,699 556,699 557,699 558,699 559,699 560,699 561,699 561,699 562,699 563,699 564,699 565,699 566,699 567,699 568,699 569,699 569,699 570,699 571,699 572,699 573,699 574,699 575,699 576,699 577,699 577,699 578,699 579,699 580,699 581,699 582,699 583,699 584,699 585,699 586,699 586,699 587,699 588,699 589,699 590,699 591,699 592,699 593,699 594,699 594,699 595,699 596,699 597,699 598,699 599,699 600,699 601,699 602,699 603,699 603,699 604,699 605,699 606,699 607,699 608,699 609,699 610,699 611,699 611,699 612,699 613,699 614,699 615,699 616,699 617,699 618,699 619,699 620,699 620,699 621,699 622,699 623,699 624,699 625,699 626,699 627,699 628,699 628,699 629,699 630,699 631,699 632,699 633,699 634,699 635,699 636,699 637,699 637,699 638,699 639,699 640,699 641,695 642,692 643,692 644,692 645,692 645,692 646,689 647,686 648,683 649,683 650,683 651,680 652,680 653,677 654,674 654,674 655,674 656,674 657,674 658,674 659,674 660,674 661,674 662,674 662,671 663,668 664,668 665,668 666,668 667,665 668,665 669,662 670,662 671,659 671,656 672,653 673,653 674,650 675,650 676,647 677,644 678,644 679,641 679,641 680,638 681,635 682,635 683,635 684,635 685,635 686,635 687,632 687,632 688,632 689,632 690,629 691,629 692,629 693,629 694,626 695,626 696,626 696,626 697,626 698,626 699,626 700,623 701,623 702,623 703,620 704,617 704,617 705,614 706,614 707,614 708,614 709,614 710,614 711,614 712,614 713,611 713,611 714,611 715,608 716,605 717,602 718,599 719,596 720,593 721,593 721,593 722,593 723,593 724,593 725,590 726,587 727,587 728,587 729,587 730,583 730,580 731,580 732,577 733,574 734,571 735,571 736,568 737,568 738,565 738,562 739,562 740,562 741,562 742,559 743,559 744,559 745,556 746,553 747,550 747,550 748,547 749,547 750,547 751,547 752,547 753,544 754,541 755,541 755,538 756,535 757,532 758,532 759,529 760,529 761,526 762,526 763,526 764,526 764,526 765,523 766,520 767,517 768,514 769,514 770,514 771,511 772,508 772,508 773,505 774,505 775,505 776,502 777,502 778,502 779,499 780,499 781,499 781,499 782,499 783,499 784,496 785,493 786,493 787,490 788,490 789,490 789,487 790,484 791,484 792,484 793,484 794,484 795,481 796,481 797,481 797,481 798,478 799,478 800,478 801,478 802,475 803,472 804,468 805,465 806,462 806,462 807,462 808,462 809,462 810,462 811,459 812,456 813,453 814,453 814,450 815,450 816,450 817,450 818,447 819,447 820,444 821,441 822,441 823,441 823,441 824,441 825,441 826,438 827,438 828,438 829,438 830,435 831,435 831,435 832,435 833,435 834,432 835,429 836,426 837,426 838,426 839,426 840,426 840,426 841,426 842,426 843,426 844,423 845,423 846,420 847,420 848,420 848,417 849,417 850,414 851,414 852,411 853,408 854,408 855,405 856,405 857,402 857,402 858,402 859,402 860,402 861,399 862,396 863,393 864,393 865,393 865,387 866,387 867,384 868,384 869,381 870,378 871,378 872,378 873,378 874,378 874,378 875,378 876,378 877,378 878,378 879,375 880,375 881,375 882,375 882,375 883,375 884,375 885,372 886,369 887,369 888,366 889,366 890,366 891,366 891,363 892,363 893,360 894,360 895,357 896,353 897,353 898,353 899,350 899,347 900,344 901,344 902,341 903,338 904,338 905,335 906,332 907,332 907,332 908,329 909,326 910,326 911,326 912,323 913,323 914,320 915,317 916,317 916,317 917,317 918,317 919,314 920,314 921,311 922,311 923,308 924,305 924,302 925,302 926,299 927,299 928,299 929,299 930,296 931,296 932,293 933,293 933,293 934,293 935,293 936,293 937,293 938,290 939,287 940,284 941,281 941,278 942,278 943,278 944,275 945,275 946,275 947,275 948,275 949,275 950,275 950,275 951,275 952,275 953,275 954,275 955,275 956,275 957,272 958,269 958,266 959,263 960,263 961,260 962,260 963,260 964,260 965,257 966,257 967,257 967,254 968,254 969,251 969,251 970,248 971,248 972,244 972,244 973,244 "/>
<line opacity="0.1" stroke="#000000" stroke-width="1" x1="84" y1="699" x2="84" y2="68"/>
<line opacity="0.1" stroke="#000000" stroke-width="1" x1="94" y1="699" x2="94" y2="68"/>
<line opacity="0.1" stroke="#000000" stroke-width="1" x1="105" y1="699" x2="105" y2="68"/>
<line opacity="0.1" stroke="#000000" stroke-width="1" x1="115" y1="699" x2="115" y2="68"/>
<line opacity="0.1" stroke="#000000" stroke-width="1" x1="126" y1="699" x2="126" y2="68"/>
<line opacity="0.1" stroke="#000000" stroke-width="1" x1="137" y1="699" x2="137" y2="68"/>
<line opacity="0.1" stroke="#000000" stroke-width="1" x1="147" y1="699" x2="147" y2="68"/>
<line opacity="0.1" stroke="#000000" stroke-width="1" x1="158" y1="699" x2="158" y2="68"/>
<line opacity="0.1" stroke="#000000" stroke-width="1" x1="168" y1="699" x2="168" y2="68"/>
<line opacity="0.1" stroke="#000000" stroke-width="1" x1="179" y1="699" x2="179" y2="68"/>
<line opacity="0.1" stroke="#000000" stroke-width="1" x1="189" y1="699" x2="189" y2="68"/>
<line opacity="0.1" stroke="#000000" stroke-width="1" x1="200" y1="699" x2="200" y2="68"/>
<line opacity="0.1" stroke="#000000" stroke-width="1" x1="211" y1="699" x2="211" y2="68"/>
<line opacity="0.1" stroke="#000000" stroke-width="1" x1="221" y1="699" x2="221" y2="68"/>
<line opacity="0.1" stroke="#000000" stroke-width="1" x1="232" y1="699" x2="232" y2="68"/>
<line opacity="0.1" stroke="#000000" stroke-width="1" x1="242" y1="699" x2="242" y2="68"/>
<line opacity="0.1" stroke="#000000" stroke-width="1" x1="253" y1="699" x2="253" y2="68"/>
<line opacity="0.1" stroke="#000000" stroke-width="1" x1="264" y1="699" x2="264" y2="68"/>
<line opacity="0.1" stroke="#000000" stroke-width="1" x1="274" y1="699" x2="274" y2="68"/>
<line opacity="0.1" stroke="#000000" stroke-width="1" x1="285" y1="699" x2="285" y2="68"/>
<line opacity="0.1" stroke="#000000" stroke-width="1" x1="295" y1="699" x2="295" y2="68"/>
<line opacity="0.1" stroke="#000000" stroke-width="1" x1="306" y1="699" x2="306" y2="68"/>
<line opacity="0.1" stroke="#000000" stroke-width="1" x1="316" y1="699" x2="316" y2="68"/>
<line opacity="0.1" stroke="#000000" stroke-width="1" x1="327" y1="699" x2="327" y2="68"/>
<line opacity="0.1" stroke="#000000" stroke-width="1" x1="338" y1="699" x2="338" y2="68"/>
<line opacity="0.1" stroke="#000000" stroke-width="1" x1="348" y1="699" x2="348" y2="68"/>
<line opacity="0.1" stroke="#000000" stroke-width="1" x1="359" y1="699" x2="359" y2="68"/>
<line opacity="0.1" stroke="#000000" stroke-width="1" x1="369" y1="699" x2="369" y2="68"/>
<line opacity="0.1" stroke="#000000" stroke-width="1" x1="380" y1="699" x2="380" y2="68"/>
<line opacity="0.1" stroke="#000000" stroke-width="1" x1="390" y1="699" x2="390" y2="68"/>
<line opacity="0.1" stroke="#000000" stroke-width="1" x1="401" y1="699" x2="401" y2="68"/>
<line opacity="0.1" stroke="#000000" stroke-width="1" x1="412" y1="699" x2="412" y2="68"/>
<line opacity="0.1" stroke="#000000" stroke-width="1" x1="422" y1="699" x2="422" y2="68"/>
<line opacity="0.1" stroke="#000000" stroke-width="1" x1="433" y1="699" x2="433" y2="68"/>
<line opacity="0.1" stroke="#000000" stroke-width="1" x1="443" y1="699" x2="443" y2="68"/>
<line opacity="0.1" stroke="#000000" stroke-width="1" x1="454" y1="699" x2="454" y2="68"/>
<line opacity="0.1" stroke="#000000" stroke-width="1" x1="464" y1="699" x2="464" y2="68"/>
<line opacity="0.1" stroke="#000000" stroke-width="1" x1="475" y1="699" x2="475" y2="68"/>
<line opacity="0.1" stroke="#000000" stroke-width="1" x1="486" y1="699" x2="486" y2="68"/>
<line opacity="0.1" stroke="#000000" stroke-width="1" x1="496" y1="699" x2="496" y2="68"/>
<line opacity="0.1" stroke="#000000" stroke-width="1" x1="507" y1="699" x2="507" y2="68"/>
<line opacity="0.1" stroke="#000000" stroke-width="1" x1="517" y1="699" x2="517" y2="68"/>
<line opacity="0.1" stroke="#000000" stroke-width="1" x1="528" y1="699" x2="528" y2="68"/>
<line opacity="0.1" stroke="#000000" stroke-width="1" x1="538" y1="699" x2="538" y2="68"/>
<line opacity="0.1" stroke="#000000" stroke-width="1" x1="549" y1="699" x2="549" y2="68"/>
<line opacity="0.1" stroke="#000000" stroke-width="1" x1="560" y1="699" x2="560" y2="68"/>
<line opacity="0.1" stroke="#000000" stroke-width="1" x1="570" y1="699" x2="570" y2="68"/>
<line opacity="0.1" stroke="#000000" stroke-width="1" x1="581" y1="699" x2="581" y2="68"/>
<line opacity="0.1" stroke="#000000" stroke-width="1" x1="591" y1="699" x2="591" y2="68"/>
<line opacity="0.1" stroke="#000000" stroke-width="1" x1="602" y1="699" x2="602" y2="68"/>
<line opacity="0.1" stroke="#000000" stroke-width="1" x1="612" y1="699" x2="612" y2="68"/>
<line opacity="0.1" stroke="#000000" stroke-width="1" x1="623" y1="699" x2="623" y2="68"/>
<line opacity="0.1" stroke="#000000" stroke-width="1" x1="634" y1="699" x2="634" y2="68"/>
<line opacity="0.1" stroke="#000000" stroke-width="1" x1="644" y1="699" x2="644" y2="68"/>
<line opacity="0.1" stroke="#000000" stroke-width="1" x1="655" y1="699" x2="655" y2="68"/>
<line opacity="0.1" stroke="#000000" stroke-width="1" x1="665" y1="699" x2="665" y2="68"/>
<line opacity="0.1" stroke="#000000" stroke-width="1" x1="676" y1="699" x2="676" y2="68"/>
<line opacity="0.1" stroke="#000000" stroke-width="1" x1="687" y1="699" x2="687" y2="68"/>
<line opacity="0.1" stroke="#000000" stroke-width="1" x1="697" y1="699" x2="697" y2="68"/>
<line opacity="0.1" stroke="#000000" stroke-width="1" x1="708" y1="699" x2="708" y2="68"/>
<line opacity="0.1" stroke="#000000" stroke-width="1" x1="718" y1="699" x2="718" y2="68"/>
<line opacity="0.1" stroke="#000000" stroke-width="1" x1="729" y1="699" x2="729" y2="68"/>
<line opacity="0.1" stroke="#000000" stroke-width="1" x1="739" y1="699" x2="739" y2="68"/>
<line opacity="0.1" stroke="#000000" stroke-width="1" x1="750" y1="699" x2="750" y2="68"/>
<line opacity="0.1" stroke="#000000" stroke-width="1" x1="761" y1="699" x2="761" y2="68"/>
<line opacity="0.1" stroke="#000000" stroke-width="1" x1="771" y1="699" x2="771" y2="68"/>
<line opacity="0.1" stroke="#000000" stroke-width="1" x1="782" y1="699" x2="782" y2="68"/>
<line opacity="0.1" stroke="#000000" stroke-width="1" x1="792" y1="699" x2="792" y2="68"/>
<line opacity="0.1" stroke="#000000" stroke-width="1" x1="803" y1="699" x2="803" y2="68"/>
<line opacity="0.1" stroke="#000000" stroke-width="1" x1="813" y1="699" x2="813" y2="68"/>
<line opacity="0.1" stroke="#000000" stroke-width="1" x1="824" y1="699" x2="824" y2="68"/>
<line opacity="0.1" stroke="#000000" stroke-width="1" x1="835" y1="699" x2="835" y2="68"/>
<line opacity="0.1" stroke="#000000" stroke-width="1" x1="845" y1="699" x2="845" y2="68"/>
<line opacity="0.1" stroke="#000000" stroke-width="1" x1="856" y1="699" x2="856" y2="68"/>
<line opacity="0.1" stroke="#000000" stroke-width="1" x1="866" y1="699" x2="866" y2="68"/>
<line opacity="0.1" stroke="#000000" stroke-width="1" x1="877" y1="699" x2="877" y2="68"/>
<line opacity="0.1" stroke="#000000" stroke-width="1" x1="887" y1="699" x2="887" y2="68"/>
<line opacity="0.1" stroke="#000000" stroke-width="1" x1="898" y1="699" x2="898" y2="68"/>
<line opacity="0.1" stroke="#000000" stroke-width="1" x1="909" y1="699" x2="909" y2="68"/>
<line opacity="0.1" stroke="#000000" stroke-width="1" x1="919" y1="699" x2="919" y2="68"/>
<line opacity="0.1" stroke="#000000" stroke-width="1" x1="930" y1="699" x2="930" y2="68"/>
<line opacity="0.1" stroke="#000000" stroke-width="1" x1="940" y1="699" x2="940" y2="68"/>
<line opacity="0.1" stroke="#000000" stroke-width="1" x1="951" y1="699" x2="951" y2="68"/>
<line opacity="0.1" stroke="#000000" stroke-width="1" x1="961" y1="699" x2="961" y2="68"/>
<line opacity="0.1" stroke="#000000" stroke-width="1" x1="972" y1="699" x2="972" y2="68"/>
<line opacity="0.1" stroke="#000000" stroke-width="1" x1="78" y1="699" x2="973" y2="699"/>
<line opacity="0.1" stroke="#000000" stroke-width="1" x1="78" y1="684" x2="973" y2="684"/>
<line opacity="0.1" stroke="#000000" stroke-width="1" x1="78" y1="670" x2="973" y2="670"/>
<line opacity="0.1" stroke="#000000" stroke-width="1" x1="78" y1="655" x2="973" y2="655"/>
<line opacity="0.1" stroke="#000000" stroke-width="1" x1="78" y1="641" x2="973" y2="641"/>
<line opacity="0.1" stroke="#000000" stroke-width="1" x1="78" y1="626" x2="973" y2="626"/>
<line opacity="0.1" stroke="#000000" stroke-width="1" x1="78" y1="612" x2="973" y2="612"/>
<line opacity="0.1" stroke="#000000" stroke-width="1" x1="78" y1="597" x2="973" y2="597"/>
<line opacity="0.1" stroke="#000000" stroke-width="1" x1="78" y1="583" x2="973" y2="583"/>
<line opacity="0.1" stroke="#000000" stroke-width="1" x1="78" y1="569" x2="973" y2="569"/>
<line opacity="0.1" stroke="#000000" stroke-width="1" x1="78" y1="554" x2="973" y2="554"/>
<line opacity="0.1" stroke="#000000" stroke-width="1" x1="78" y1="540" x2="973" y2="540"/>
<line opacity="0.1" stroke="#000000" stroke-width="1" x1="78" y1="525" x2="973" y2="525"/>
<line opacity="0.1" stroke="#000000" stroke-width="1" x1="78" y1="511" x2="973" y2="511"/>
<line opacity="0.1" stroke="#000000" stroke-width="1" x1="78" y1="496" x2="973" y2="496"/>
<line opacity="0.1" stroke="#000000" stroke-width="1" x1="78" y1="482" x2="973" y2="482"/>
<line opacity="0.1" stroke="#000000" stroke-width="1" x1="78" y1="468" x2="973" y2="468"/>
<line opacity="0.1" stroke="#000000" stroke-width="1" x1="78" y1="453" x2="973" y2="453"/>
<line opacity="0.1" stroke="#000000" stroke-width="1" x1="78" y1="439" x2="973" y2="439"/>
<line opacity="0.1" stroke="#000000" stroke-width="1" x1="78" y1="424" x2="973" y2="424"/>
<line opacity="0.1" stroke="#000000" stroke-width="1" x1="78" y1="410" x2="973" y2="410"/>
<line opacity="0.1" stroke="#000000" stroke-width="1" x1="78" y1="395" x2="973" y2="395"/>
<line opacity="0.1" stroke="#000000" stroke-width="1" x1="78" y1="381" x2="973" y2="381"/>
<line opacity="0.1" stroke="#000000" stroke-width="1" x1="78" y1="367" x2="973" y2="367"/>
<line opacity="0.1" stroke="#000000" stroke-width="1" x1="78" y1="352" x2="973" y2="352"/>
<line opacity="0.1" stroke="#000000" stroke-width="1" x1="78" y1="338" x2="973" y2="338"/>
<line opacity="0.1" stroke="#000000" stroke-width="1" x1="78" y1="323" x2="973" y2="323"/>
<line opacity="0.1" stroke="#000000" stroke-width="1" x1="78" y1="309" x2="973" y2="309"/>
<line opacity="0.1" stroke="#000000" stroke-width="1" x1="78" y1="294" x2="973" y2="294"/>
<line opacity="0.1" stroke="#000000" stroke-width="1" x1="78" y1="280" x2="973" y2="280"/>
<line opacity="0.1" stroke="#000000" stroke-width="1" x1="78" y1="266" x2="973" y2="266"/>
<line opacity="0.1" stroke="#000000" stroke-width="1" x1="78" y1="251" x2="973" y2="251"/>
<line opacity="0.1" stroke="#000000" stroke-width="1" x1="78" y1="237" x2="973" y2="237"/>
<line opacity="0.1" stroke="#000000" stroke-width="1" x1="78" y1="222" x2="973" y2="222"/>
<line opacity="0.1" stroke="#000000" stroke-width="1" x1="78" y1="208" x2="973" y2="208"/>
<line opacity="0.1" stroke="#000000" stroke-width="1" x1="78" y1="193" x2="973" y2="193"/>
<line opacity="0.1" stroke="#000000" stroke-width="1" x1="78" y1="179" x2="973" y2="179"/>
<line opacity="0.1" stroke="#000000" stroke-width="1" x1="78" y1="165" x2="973" y2="165"/>
<line opacity="0.1" stroke="#000000" stroke-width="1" x1="78" y1="150" x2="973" y2="150"/>
<line opacity="0.1" stroke="#000000" stroke-width="1" x1="78" y1="136" x2="973" y2="136"/>
<line opacity="0.1" stroke="#000000" stroke-width="1" x1="78" y1="121" x2="973" y2="121"/>
<line opacity="0.1" stroke="#000000" stroke-width="1" x1="78" y1="107" x2="973" y2="107"/>
<line opacity="0.1" stroke="#000000" stroke-width="1" x1="78" y1="92" x2="973" y2="92"/>
<line opacity="0.1" stroke="#000000" stroke-width="1" x1="78" y1="78" x2="973" y2="78"/>
<text x="8" y="384" dy="0.76em" text-anchor="middle" font-family="sans-serif" font-size="9.67741935483871" opacity="1" fill="#000000" transform="rotate(270, 8, 384)">
Memory usage
</text>
<text x="526" y="760" dy="-0.5ex" text-anchor="middle" font-family="sans-serif" font-size="9.67741935483871" opacity="1" fill="#000000">
Time
</text>
<line opacity="0.2" stroke="#000000" stroke-width="1" x1="105" y1="699" x2="105" y2="68"/>
<line opacity="0.2" stroke="#000000" stroke-width="1" x1="211" y1="699" x2="211" y2="68"/>
<line opacity="0.2" stroke="#000000" stroke-width="1" x1="316" y1="699" x2="316" y2="68"/>
<line opacity="0.2" stroke="#000000" stroke-width="1" x1="422" y1="699" x2="422" y2="68"/>
<line opacity="0.2" stroke="#000000" stroke-width="1" x1="528" y1="699" x2="528" y2="68"/>
<line opacity="0.2" stroke="#000000" stroke-width="1" x1="634" y1="699" x2="634" y2="68"/>
<line opacity="0.2" stroke="#000000" stroke-width="1" x1="739" y1="699" x2="739" y2="68"/>
<line opacity="0.2" stroke="#000000" stroke-width="1" x1="845" y1="699" x2="845" y2="68"/>
<line opacity="0.2" stroke="#000000" stroke-width="1" x1="951" y1="699" x2="951" y2="68"/>
<line opacity="0.2" stroke="#000000" stroke-width="1" x1="78" y1="699" x2="973" y2="699"/>
<line opacity="0.2" stroke="#000000" stroke-width="1" x1="78" y1="554" x2="973" y2="554"/>
<line opacity="0.2" stroke="#000000" stroke-width="1" x1="78" y1="410" x2="973" y2="410"/>
<line opacity="0.2" stroke="#000000" stroke-width="1" x1="78" y1="266" x2="973" y2="266"/>
<line opacity="0.2" stroke="#000000" stroke-width="1" x1="78" y1="121" x2="973" y2="121"/>
<polyline fill="none" opacity="1" stroke="#000000" stroke-width="1" points="77,68 77,699 "/>
<text x="68" y="699" dy="0.5ex" text-anchor="end" font-family="sans-serif" font-size="9.67741935483871" opacity="1" fill="#000000">
0 MB
</text>
<polyline fill="none" opacity="1" stroke="#000000" stroke-width="1" points="72,699 77,699 "/>
<text x="68" y="554" dy="0.5ex" text-anchor="end" font-family="sans-serif" font-size="9.67741935483871" opacity="1" fill="#000000">
47 MB
</text>
<polyline fill="none" opacity="1" stroke="#000000" stroke-width="1" points="72,554 77,554 "/>
<text x="68" y="410" dy="0.5ex" text-anchor="end" font-family="sans-serif" font-size="9.67741935483871" opacity="1" fill="#000000">
95 MB
</text>
<polyline fill="none" opacity="1" stroke="#000000" stroke-width="1" points="72,410 77,410 "/>
<text x="68" y="266" dy="0.5ex" text-anchor="end" font-family="sans-serif" font-size="9.67741935483871" opacity="1" fill="#000000">
143 MB
</text>
<polyline fill="none" opacity="1" stroke="#000000" stroke-width="1" points="72,266 77,266 "/>
<text x="68" y="121" dy="0.5ex" text-anchor="end" font-family="sans-serif" font-size="9.67741935483871" opacity="1" fill="#000000">
190 MB
</text>
<polyline fill="none" opacity="1" stroke="#000000" stroke-width="1" points="72,121 77,121 "/>
<polyline fill="none" opacity="1" stroke="#000000" stroke-width="1" points="78,700 973,700 "/>
<text x="105" y="710" dy="0.76em" text-anchor="middle" font-family="sans-serif" font-size="9.67741935483871" opacity="1" fill="#000000">
07 20:33:20
</text>
<polyline fill="none" opacity="1" stroke="#000000" stroke-width="1" points="105,700 105,705 "/>
<text x="211" y="710" dy="0.76em" text-anchor="middle" font-family="sans-serif" font-size="9.67741935483871" opacity="1" fill="#000000">
08 10:26:40
</text>
<polyline fill="none" opacity="1" stroke="#000000" stroke-width="1" points="211,700 211,705 "/>
<text x="316" y="710" dy="0.76em" text-anchor="middle" font-family="sans-serif" font-size="9.67741935483871" opacity="1" fill="#000000">
09 00:20:00
</text>
<polyline fill="none" opacity="1" stroke="#000000" stroke-width="1" points="316,700 316,705 "/>
<text x="422" y="710" dy="0.76em" text-anchor="middle" font-family="sans-serif" font-size="9.67741935483871" opacity="1" fill="#000000">
09 14:13:20
</text>
<polyline fill="none" opacity="1" stroke="#000000" stroke-width="1" points="422,700 422,705 "/>
<text x="528" y="710" dy="0.76em" text-anchor="middle" font-family="sans-serif" font-size="9.67741935483871" opacity="1" fill="#000000">
10 04:06:40
</text>
<polyline fill="none" opacity="1" stroke="#000000" stroke-width="1" points="528,700 528,705 "/>
<text x="634" y="710" dy="0.76em" text-anchor="middle" font-family="sans-serif" font-size="9.67741935483871" opacity="1" fill="#000000">
10 18:00:00
</text>
<polyline fill="none" opacity="1" stroke="#000000" stroke-width="1" points="634,700 634,705 "/>
<text x="739" y="710" dy="0.76em" text-anchor="middle" font-family="sans-serif" font-size="9.67741935483871" opacity="1" fill="#000000">
11 07:53:20
</text>
<polyline fill="none" opacity="1" stroke="#000000" stroke-width="1" points="739,700 739,705 "/>
<text x="845" y="710" dy="0.76em" text-anchor="middle" font-family="sans-serif" font-size="9.67741935483871" opacity="1" fill="#000000">
11 21:46:40
</text>
<polyline fill="none" opacity="1" stroke="#000000" stroke-width="1" points="845,700 845,705 "/>
<text x="951" y="710" dy="0.76em" text-anchor="middle" font-family="sans-serif" font-size="9.67741935483871" opacity="1" fill="#000000">
12 11:40:00
</text>
<polyline fill="none" opacity="1" stroke="#000000" stroke-width="1" points="951,700 951,705 "/>
<polyline fill="none" opacity="1" stroke="#000000" stroke-width="1" points="78,67 974,67 "/>
<text x="105" y="58" dy="-0.5ex" text-anchor="middle" font-family="sans-serif" font-size="9.67741935483871" opacity="1" fill="#000000">
+03:35:44
</text>
<polyline fill="none" opacity="1" stroke="#000000" stroke-width="1" points="105,62 105,67 "/>
<text x="211" y="58" dy="-0.5ex" text-anchor="middle" font-family="sans-serif" font-size="9.67741935483871" opacity="1" fill="#000000">
+17:29:04
</text>
<polyline fill="none" opacity="1" stroke="#000000" stroke-width="1" points="211,62 211,67 "/>
<text x="317" y="58" dy="-0.5ex" text-anchor="middle" font-family="sans-serif" font-size="9.67741935483871" opacity="1" fill="#000000">
+31:22:24
</text>
<polyline fill="none" opacity="1" stroke="#000000" stroke-width="1" points="317,62 317,67 "/>
<text x="423" y="58" dy="-0.5ex" text-anchor="middle" font-family="sans-serif" font-size="9.67741935483871" opacity="1" fill="#000000">
+45:15:44
</text>
<polyline fill="none" opacity="1" stroke="#000000" stroke-width="1" points="423,62 423,67 "/>
<text x="528" y="58" dy="-0.5ex" text-anchor="middle" font-family="sans-serif" font-size="9.67741935483871" opacity="1" fill="#000000">
+59:09:04
</text>
<polyline fill="none" opacity="1" stroke="#000000" stroke-width="1" points="528,62 528,67 "/>
<text x="634" y="58" dy="-0.5ex" text-anchor="middle" font-family="sans-serif" font-size="9.67741935483871" opacity="1" fill="#000000">
+73:02:24
</text>
<polyline fill="none" opacity="1" stroke="#000000" stroke-width="1" points="634,62 634,67 "/>
<text x="740" y="58" dy="-0.5ex" text-anchor="middle" font-family="sans-serif" font-size="9.67741935483871" opacity="1" fill="#000000">
+86:55:44
</text>
<polyline fill="none" opacity="1" stroke="#000000" stroke-width="1" points="740,62 740,67 "/>
<text x="846" y="58" dy="-0.5ex" text-anchor="middle" font-family="sans-serif" font-size="9.67741935483871" opacity="1" fill="#000000">
+100:49:04
</text>
<polyline fill="none" opacity="1" stroke="#000000" stroke-width="1" points="846,62 846,67 "/>
<text x="952" y="58" dy="-0.5ex" text-anchor="middle" font-family="sans-serif" font-size="9.67741935483871" opacity="1" fill="#000000">
+114:42:24
</text>
<polyline fill="none" opacity="1" stroke="#000000" stroke-width="1" points="952,62 952,67 "/>
<rect x="83" y="73" width="99" height="45" opacity="0.75" fill="#FFFFFF" stroke="none"/>
<rect x="83" y="73" width="99" height="45" opacity="1" fill="none" stroke="#000000"/>
<text x="123" y="83" dy="0.76em" text-anchor="start" font-family="sans-serif" font-size="9.67741935483871" opacity="1" fill="#000000">
Temporary
</text>
<text x="123" y="98" dy="0.76em" text-anchor="start" font-family="sans-serif" font-size="9.67741935483871" opacity="1" fill="#000000">
Leaked
</text>
<rect x="93" y="83" width="10" height="10" opacity="1" fill="#3CB44B" stroke="none"/>
<rect x="93" y="98" width="10" height="10" opacity="1" fill="#E6194B" stroke="none"/>
</svg>
