<svg width="1024" height="768" viewBox="0 0 1024 768" xmlns="http://www.w3.org/2000/svg">
<rect x="0" y="0" width="1024" height="768" opacity="1" fill="#FFFFFF" stroke="none"/>
<polygon opacity="1" fill="#3CB44B" points="78,697 79,696 80,695 81,694 82,692 82,691 83,690 84,689 85,688 86,687 87,686 88,685 89,684 90,683 91,681 91,680 92,679 93,678 94,677 95,676 96,675 97,674 98,673 99,672 99,671 100,670 101,668 102,667 103,666 104,665 105,664 106,663 107,662 108,660 108,660 109,658 110,657 111,656 112,655 113,654 114,653 115,652 116,650 116,649 117,648 118,647 119,646 120,645 121,644 122,643 123,642 124,640 125,639 125,638 126,637 127,636 128,635 129,634 130,633 131,632 132,631 133,629 134,628 134,627 135,626 136,625 137,624 138,623 139,622 140,621 141,620 142,618 142,617 143,616 144,615 145,614 146,613 147,612 148,611 149,610 150,608 151,607 151,606 152,605 153,604 154,603 155,602 156,601 157,600 158,598 159,597 159,596 160,595 161,594 162,593 163,592 164,590 165,589 166,588 167,587 168,586 168,585 169,584 170,583 171,581 172,580 173,579 174,578 175,577 176,576 176,575 177,574 178,573 179,571 180,570 181,569 182,568 183,567 184,566 185,565 185,563 186,562 187,561 188,560 189,559 190,558 191,557 192,556 193,555 193,554 194,552 195,552 196,550 197,549 198,548 199,547 200,546 201,545 202,544 202,543 203,542 204,540 205,539 206,538 207,537 208,536 209,535 210,534 210,533 211,532 212,531 213,530 214,528 215,527 216,527 217,525 218,524 219,523 219,522 220,521 221,520 222,519 223,518 224,517 225,516 226,515 227,514 227,513 228,512 229,511 230,510 231,509 232,508 233,506 234,505 235,504 236,503 236,502 237,501 238,500 239,499 240,498 241,497 242,496 243,495 244,493 244,492 245,491 246,490 247,489 248,488 249,487 250,486 251,485 252,484 253,483 253,482 254,481 255,480 256,479 257,478 258,477 259,476 260,474 261,473 261,472 262,471 263,470 264,469 265,468 266,467 267,466 268,465 269,464 270,463 270,462 271,460 272,459 273,458 274,458 275,457 276,455 277,454 278,453 278,452 279,451 280,450 281,449 282,448 283,447 284,446 285,445 286,444 287,443 287,442 288,441 289,440 290,439 291,437 292,436 293,435 294,434 295,433 295,432 296,431 297,430 298,429 299,428 300,427 301,426 302,425 303,423 304,422 304,421 305,420 306,419 307,418 308,417 309,416 310,415 311,414 312,413 312,412 313,411 314,410 315,409 316,408 317,407 318,406 319,405 320,403 321,402 321,401 322,400 323,399 324,398 325,397 326,396 327,395 328,394 329,393 329,392 330,391 331,390 332,389 333,388 334,387 335,386 336,385 337,384 338,382 338,381 339,380 340,379 341,378 342,377 343,376 344,375 345,374 346,373 347,372 347,371 348,370 349,369 350,368 351,367 352,365 353,365 354,363 355,362 355,361 356,360 357,359 358,358 359,357 360,356 361,355 362,354 363,353 364,352 364,351 365,349 366,348 367,347 368,346 369,345 370,344 371,343 372,342 372,341 373,340 374,339 375,338 376,337 377,336 378,335 379,334 380,333 381,331 381,330 382,329 383,328 384,327 385,326 386,325 387,324 388,323 389,322 389,321 390,320 391,318 392,317 393,316 394,315 395,314 396,313 397,312 398,311 398,310 399,309 400,308 401,307 402,306 403,305 404,304 405,303 406,301 406,301 407,299 408,298 409,297 410,296 411,295 412,294 413,293 414,292 415,291 415,290 416,289 417,288 418,286 419,285 420,284 421,283 422,282 423,281 423,280 424,279 425,278 426,277 427,276 428,275 429,274 430,273 431,272 432,271 432,270 433,269 434,268 435,266 436,265 437,264 438,263 439,262 440,261 440,260 441,259 442,258 443,256 444,256 445,255 446,253 447,252 448,251 449,250 449,249 450,248 451,247 452,246 453,245 454,243 455,242 456,241 457,240 457,239 458,238 459,237 460,236 461,235 462,234 463,233 464,231 465,230 466,229 466,228 467,227 468,226 469,225 470,224 471,223 472,222 473,221 474,220 474,219 475,217 476,216 477,215 478,214 479,213 480,212 481,211 482,210 483,209 483,208 484,207 485,206 486,205 487,204 488,203 489,201 490,200 491,199 491,198 492,197 493,196 494,195 495,194 496,193 497,192 498,191 499,190 500,189 500,188 501,186 502,185 503,184 504,183 505,182 506,181 507,180 508,179 508,178 509,177 510,176 511,175 512,174 513,173 514,171 515,170 516,169 517,168 517,167 518,166 519,165 520,164 521,163 522,162 523,161 524,160 525,159 525,158 526,156 527,155 528,154 529,153 530,152 531,151 532,150 533,149 534,148 534,147 535,146 536,145 537,144 538,142 539,141 540,140 541,139 542,138 542,137 543,136 544,135 545,134 546,133 547,131 548,130 549,129 550,128 551,127 551,126 552,125 553,124 554,123 555,122 556,121 557,120 558,119 559,118 560,117 560,116 561,115 562,114 563,112 564,111 565,110 566,109 567,108 568,107 568,106 569,105 570,104 571,103 572,102 573,101 574,99 575,98 576,97 577,96 577,95 578,94 579,93 580,92 581,91 582,90 583,89 584,88 585,87 585,85 586,84 587,83 588,82 589,81 590,80 591,79 592,78 593,77 594,76 594,75 595,74 596,74 597,74 598,73 599,73 600,73 601,73 602,73 602,73 603,73 604,73 605,73 606,73 607,74 608,74 609,74 610,74 611,74 611,74 612,74 613,74 614,74 615,74 616,74 617,74 618,74 619,74 619,74 620,74 621,74 622,74 623,74 624,74 625,74 626,74 627,74 628,74 628,74 629,74 630,74 631,74 632,74 633,74 634,74 635,74 636,74 636,74 637,74 638,74 639,74 640,74 641,74 642,74 643,74 644,74 645,74 645,74 646,73 647,73 648,74 649,73 650,74 651,74 652,74 653,73 653,74 654,74 655,73 656,73 657,73 658,73 659,73 660,73 661,73 662,73 662,73 663,73 664,73 665,73 666,73 667,73 668,73 669,73 670,73 670,73 671,73 672,73 673,73 674,73 675,73 676,73 677,73 678,73 679,73 679,73 680,73 681,73 682,73 683,73 684,73 685,74 686,74 687,73 687,74 688,74 689,73 690,73 691,73 692,73 693,73 694,73 695,73 696,73 696,73 697,73 698,73 699,73 700,73 701,73 702,73 703,73 704,73 704,73 705,73 706,73 707,73 708,73 709,73 710,73 711,73 712,73 713,73 713,73 714,73 715,73 716,73 717,73 718,73 719,73 720,73 721,73 721,73 722,73 723,73 724,73 725,73 726,73 727,73 728,73 729,73 730,73 730,73 731,73 732,73 733,73 734,73 735,73 736,72 737,73 738,73 738,73 739,73 740,73 741,73 742,73 743,73 744,73 745,73 746,73 747,73 747,73 748,73 749,73 750,73 751,73 752,73 753,73 754,73 755,73 755,73 756,73 757,73 758,73 759,73 760,73 761,73 762,73 763,73 764,73 764,73 765,73 766,73 767,73 768,73 769,73 770,73 771,73 772,73 773,73 773,73 774,73 775,73 776,72 777,72 778,72 779,72 780,72 781,72 781,72 782,73 783,72 784,73 785,73 786,73 787,72 788,72 789,72 790,72 790,72 791,72 792,72 793,72 794,72 795,72 796,72 797,72 798,72 798,72 799,72 800,72 801,72 802,72 803,72 804,72 805,72 806,72 807,72 807,72 808,72 809,72 810,72 811,72 812,72 813,72 814,72 815,72 815,72 816,72 817,72 818,72 819,72 820,72 821,72 822,72 823,72 824,72 824,72 825,72 826,72 827,71 828,71 829,71 830,71 831,71 832,71 832,71 833,71 834,71 835,71 836,71 837,71 838,71 839,71 840,71 841,71 841,71 842,71 843,71 844,71 845,71 846,71 847,70 848,70 849,70 849,70 850,70 851,70 852,70 853,70 854,71 855,71 856,71 857,71 858,71 858,70 859,70 860,70 861,70 862,70 863,70 864,70 865,70 866,70 866,70 867,70 868,70 869,70 870,70 871,70 872,70 873,70 874,70 875,70 875,70 876,70 877,70 878,70 879,70 880,70 881,70 882,70 883,70 883,70 884,70 885,70 886,70 887,70 888,70 889,70 890,69 891,70 892,69 892,69 893,69 894,69 895,69 896,69 897,69 898,69 899,69 900,69 900,69 901,69 902,69 903,69 904,69 905,69 906,69 907,69 908,69 909,69 909,69 910,69 911,69 912,69 913,69 914,69 915,69 916,69 917,69 917,69 918,69 919,69 920,69 921,69 922,69 923,69 924,69 925,69 926,69 926,69 927,69 928,69 929,69 930,69 931,69 932,69 933,69 934,69 934,68 935,68 936,68 937,68 938,68 939,68 940,68 941,68 942,68 943,68 943,68 944,68 945,68 946,68 947,68 948,68 949,68 950,68 951,68 951,68 952,68 953,68 954,68 955,68 956,68 957,68 958,68 959,68 960,68 960,68 961,68 962,68 963,68 964,68 965,68 966,68 967,68 968,68 968,68 969,68 970,68 971,68 972,69 972,69 973,69 973,699 78,699 "/>
<polyline fill="none" opacity="1" stroke="#3CB44B" stroke-width="1" points="78,697 79,696 80,695 81,694 82,692 82,691 83,690 84,689 85,688 86,687 87,686 88,685 89,684 90,683 91,681 91,680 92,679 93,678 94,677 95,676 96,675 97,674 98,673 99,672 99,671 100,670 101,668 102,667 103,666 104,665 105,664 106,663 107,662 108,660 108,660 109,658 110,657 111,656 112,655 113,654 114,653 115,652 116,650 116,649 117,648 118,647 119,646 120,645 121,644 122,643 123,642 124,640 125,639 125,638 126,637 127,636 128,635 129,634 130,633 131,632 132,631 133,629 134,628 134,627 135,626 136,625 137,624 138,623 139,622 140,621 141,620 142,618 142,617 143,616 144,615 145,614 146,613 147,612 148,611 149,610 150,608 151,607 151,606 152,605 153,604 154,603 155,602 156,601 157,600 158,598 159,597 159,596 160,595 161,594 162,593 163,592 164,590 165,589 166,588 167,587 168,586 168,585 169,584 170,583 171,581 172,580 173,579 174,578 175,577 176,576 176,575 177,574 178,573 179,571 180,570 181,569 182,568 183,567 184,566 185,565 185,563 186,562 187,561 188,560 189,559 190,558 191,557 192,556 193,555 193,554 194,552 195,552 196,550 197,549 198,548 199,547 200,546 201,545 202,544 202,543 203,542 204,540 205,539 206,538 207,537 208,536 209,535 210,534 210,533 211,532 212,531 213,530 214,528 215,527 216,527 217,525 218,524 219,523 219,522 220,521 221,520 222,519 223,518 224,517 225,516 226,515 227,514 227,513 228,512 229,511 230,510 231,509 232,508 233,506 234,505 235,504 236,503 236,502 237,501 238,500 239,499 240,498 241,497 242,496 243,495 244,493 244,492 245,491 246,490 247,489 248,488 249,487 250,486 251,485 252,484 253,483 253,482 254,481 255,480 256,479 257,478 258,477 259,476 260,474 261,473 261,472 262,471 263,470 264,469 265,468 266,467 267,466 268,465 269,464 270,463 270,462 271,460 272,459 273,458 274,458 275,457 276,455 277,454 278,453 278,452 279,451 280,450 281,449 282,448 283,447 284,446 285,445 286,444 287,443 287,442 288,441 289,440 290,439 291,437 292,436 293,435 294,434 295,433 295,432 296,431 297,430 298,429 299,428 300,427 301,426 302,425 303,423 304,422 304,421 305,420 306,419 307,418 308,417 309,416 310,415 311,414 312,413 312,412 313,411 314,410 315,409 316,408 317,407 318,406 319,405 320,403 321,402 321,401 322,400 323,399 324,398 325,397 326,396 327,395 328,394 329,393 329,392 330,391 331,390 332,389 333,388 334,387 335,386 336,385 337,384 338,382 338,381 339,380 340,379 341,378 342,377 343,376 344,375 345,374 346,373 347,372 347,371 348,370 349,369 350,368 351,367 352,365 353,365 354,363 355,362 355,361 356,360 357,359 358,358 359,357 360,356 361,355 362,354 363,353 364,352 364,351 365,349 366,348 367,347 368,346 369,345 370,344 371,343 372,342 372,341 373,340 374,339 375,338 376,337 377,336 378,335 379,334 380,333 381,331 381,330 382,329 383,328 384,327 385,326 386,325 387,324 388,323 389,322 389,321 390,320 391,318 392,317 393,316 394,315 395,314 396,313 397,312 398,311 398,310 399,309 400,308 401,307 402,306 403,305 404,304 405,303 406,301 406,301 407,299 408,298 409,297 410,296 411,295 412,294 413,293 414,292 415,291 415,290 416,289 417,288 418,286 419,285 420,284 421,283 422,282 423,281 423,280 424,279 425,278 426,277 427,276 428,275 429,274 430,273 431,272 432,271 432,270 433,269 434,268 435,266 436,265 437,264 438,263 439,262 440,261 440,260 441,259 442,258 443,256 444,256 445,255 446,253 447,252 448,251 449,250 449,249 450,248 451,247 452,246 453,245 454,243 455,242 456,241 457,240 457,239 458,238 459,237 460,236 461,235 462,234 463,233 464,231 465,230 466,229 466,228 467,227 468,226 469,225 470,224 471,223 472,222 473,221 474,220 474,219 475,217 476,216 477,215 478,214 479,213 480,212 481,211 482,210 483,209 483,208 484,207 485,206 486,205 487,204 488,203 489,201 490,200 491,199 491,198 492,197 493,196 494,195 495,194 496,193 497,192 498,191 499,190 500,189 500,188 501,186 502,185 503,184 504,183 505,182 506,181 507,180 508,179 508,178 509,177 510,176 511,175 512,174 513,173 514,171 515,170 516,169 517,168 517,167 518,166 519,165 520,164 521,163 522,162 523,161 524,160 525,159 525,158 526,156 527,155 528,154 529,153 530,152 531,151 532,150 533,149 534,148 534,147 535,146 536,145 537,144 538,142 539,141 540,140 541,139 542,138 542,137 543,136 544,135 545,134 546,133 547,131 548,130 549,129 550,128 551,127 551,126 552,125 553,124 554,123 555,122 556,121 557,120 558,119 559,118 560,117 560,116 561,115 562,114 563,112 564,111 565,110 566,109 567,108 568,107 568,106 569,105 570,104 571,103 572,102 573,101 574,99 575,98 576,97 577,96 577,95 578,94 579,93 580,92 581,91 582,90 583,89 584,88 585,87 585,85 586,84 587,83 588,82 589,81 590,80 591,79 592,78 593,77 594,76 594,75 595,74 596,74 597,74 598,73 599,73 600,73 601,73 602,73 602,73 603,73 604,73 605,73 606,73 607,74 608,74 609,74 610,74 611,74 611,74 612,74 613,74 614,74 615,74 616,74 617,74 618,74 619,74 619,74 620,74 621,74 622,74 623,74 624,74 625,74 626,74 627,74 628,74 628,74 629,74 630,74 631,74 632,74 633,74 634,74 635,74 636,74 636,74 637,74 638,74 639,74 640,74 641,74 642,74 643,74 644,74 645,74 645,74 646,73 647,73 648,74 649,73 650,74 651,74 652,74 653,73 653,74 654,74 655,73 656,73 657,73 658,73 659,73 660,73 661,73 662,73 662,73 663,73 664,73 665,73 666,73 667,73 668,73 669,73 670,73 670,73 671,73 672,73 673,73 674,73 675,73 676,73 677,73 678,73 679,73 679,73 680,73 681,73 682,73 683,73 684,73 685,74 686,74 687,73 687,74 688,74 689,73 690,73 691,73 692,73 693,73 694,73 695,73 696,73 696,73 697,73 698,73 699,73 700,73 701,73 702,73 703,73 704,73 704,73 705,73 706,73 707,73 708,73 709,73 710,73 711,73 712,73 713,73 713,73 714,73 715,73 716,73 717,73 718,73 719,73 720,73 721,73 721,73 722,73 723,73 724,73 725,73 726,73 727,73 728,73 729,73 730,73 730,73 731,73 732,73 733,73 734,73 735,73 736,72 737,73 738,73 738,73 739,73 740,73 741,73 742,73 743,73 744,73 745,73 746,73 747,73 747,73 748,73 749,73 750,73 751,73 752,73 753,73 754,73 755,73 755,73 756,73 757,73 758,73 759,73 760,73 761,73 762,73 763,73 764,73 764,73 765,73 766,73 767,73 768,73 769,73 770,73 771,73 772,73 773,73 773,73 774,73 775,73 776,72 777,72 778,72 779,72 780,72 781,72 781,72 782,73 783,72 784,73 785,73 786,73 787,72 788,72 789,72 790,72 790,72 791,72 792,72 793,72 794,72 795,72 796,72 797,72 798,72 798,72 799,72 800,72 801,72 802,72 803,72 804,72 805,72 806,72 807,72 807,72 808,72 809,72 810,72 811,72 812,72 813,72 814,72 815,72 815,72 816,72 817,72 818,72 819,72 820,72 821,72 822,72 823,72 824,72 824,72 825,72 826,72 827,71 828,71 829,71 830,71 831,71 832,71 832,71 833,71 834,71 835,71 836,71 837,71 838,71 839,71 840,71 841,71 841,71 842,71 843,71 844,71 845,71 846,71 847,70 848,70 849,70 849,70 850,70 851,70 852,70 853,70 854,71 855,71 856,71 857,71 858,71 858,70 859,70 860,70 861,70 862,70 863,70 864,70 865,70 866,70 866,70 867,70 868,70 869,70 870,70 871,70 872,70 873,70 874,70 875,70 875,70 876,70 877,70 878,70 879,70 880,70 881,70 882,70 883,70 883,70 884,70 885,70 886,70 887,70 888,70 889,70 890,69 891,70 892,69 892,69 893,69 894,69 895,69 896,69 897,69 898,69 899,69 900,69 900,69 901,69 902,69 903,69 904,69 905,69 906,69 907,69 908,69 909,69 909,69 910,69 911,69 912,69 913,69 914,69 915,69 916,69 917,69 917,69 918,69 919,69 920,69 921,69 922,69 923,69 924,69 925,69 926,69 926,69 927,69 928,69 929,69 930,69 931,69 932,69 933,69 934,69 934,68 935,68 936,68 937,68 938,68 939,68 940,68 941,68 942,68 943,68 943,68 944,68 945,68 946,68 947,68 948,68 949,68 950,68 951,68 951,68 952,68 953,68 954,68 955,68 956,68 957,68 958,68 959,68 960,68 960,68 961,68 962,68 963,68 964,68 965,68 966,68 967,68 968,68 968,68 969,68 970,68 971,68 972,69 972,69 973,69 "/>
<polygon opacity="1" fill="#E6194B" points="78,699 79,698 80,698 81,698 82,698 82,698 83,698 84,698 85,698 86,698 87,698 88,698 89,698 90,698 91,698 91,698 92,698 93,698 94,698 95,698 96,698 97,698 98,698 99,698 99,698 100,698 101,698 102,698 103,698 104,698 105,698 106,698 107,698 108,698 108,698 109,698 110,698 111,698 112,698 113,698 114,698 115,698 116,698 116,698 117,698 118,698 119,698 120,698 121,698 122,698 123,698 124,698 125,698 125,698 126,698 127,698 128,698 129,698 130,698 131,698 132,698 133,698 134,698 134,698 135,698 136,698 137,698 138,698 139,698 140,698 141,698 142,698 142,698 143,698 144,698 145,698 146,698 147,698 148,698 149,698 150,698 151,698 151,698 152,698 153,698 154,698 155,698 156,698 157,698 158,698 159,698 159,698 160,698 161,698 162,698 163,698 164,698 165,698 166,698 167,698 168,698 168,698 169,698 170,698 171,698 172,698 173,698 174,698 175,698 176,698 176,698 177,698 178,698 179,698 180,698 181,698 182,698 183,698 184,698 185,698 185,698 186,698 187,698 188,698 189,698 190,698 191,698 192,698 193,698 193,698 194,698 195,698 196,698 197,698 198,698 199,698 200,698 201,698 202,698 202,698 203,698 204,698 205,698 206,698 207,698 208,698 209,698 210,698 210,698 211,698 212,698 213,698 214,698 215,698 216,698 217,698 218,698 219,698 219,698 220,698 221,698 222,698 223,698 224,698 225,698 226,698 227,698 227,698 228,698 229,698 230,698 231,698 232,698 233,698 234,698 235,698 236,698 236,698 237,698 238,698 239,698 240,698 241,698 242,698 243,698 244,698 244,698 245,698 246,698 247,698 248,698 249,698 250,698 251,698 252,698 253,698 253,698 254,698 255,698 256,698 257,698 258,698 259,698 260,698 261,698 261,698 262,698 263,698 264,698 265,698 266,698 267,698 268,698 269,698 270,698 270,698 271,698 272,698 273,698 274,698 275,698 276,698 277,698 278,698 278,698 279,698 280,698 281,698 282,698 283,698 284,698 285,698 286,698 287,698 287,698 288,698 289,698 290,698 291,698 292,698 293,698 294,698 295,698 295,698 296,698 297,698 298,698 299,698 300,698 301,698 302,698 303,698 304,698 304,698 305,698 306,698 307,698 308,698 309,698 310,698 311,698 312,698 312,698 313,698 314,698 315,698 316,698 317,698 318,698 319,698 320,698 321,698 321,698 322,698 323,698 324,698 325,698 326,698 327,698 328,698 329,698 329,698 330,698 331,698 332,698 333,698 334,698 335,698 336,698 337,698 338,698 338,698 339,698 340,698 341,698 342,698 343,698 344,698 345,698 346,698 347,698 347,698 348,698 349,698 350,698 351,698 352,698 353,698 354,698 355,698 355,698 356,698 357,698 358,698 359,698 360,698 361,698 362,698 363,698 364,698 364,698 365,698 366,698 367,698 368,698 369,698 370,698 371,698 372,698 372,698 373,698 374,698 375,698 376,698 377,698 378,698 379,698 380,698 381,698 381,698 382,698 383,698 384,698 385,698 386,698 387,698 388,698 389,698 389,698 390,698 391,698 392,698 393,698 394,698 395,698 396,698 397,698 398,698 398,698 399,698 400,698 401,698 402,698 403,698 404,698 405,698 406,698 406,698 407,698 408,698 409,698 410,698 411,698 412,698 413,698 414,698 415,698 415,698 416,698 417,698 418,698 419,698 420,698 421,698 422,698 423,698 423,698 424,698 425,698 426,698 427,698 428,698 429,698 430,698 431,698 432,698 432,698 433,698 434,698 435,698 436,698 437,698 438,698 439,698 440,698 440,698 441,698 442,698 443,698 444,698 445,698 446,698 447,698 448,698 449,698 449,697 450,697 451,697 452,697 453,697 454,697 455,696 456,695 457,694 457,693 458,692 459,691 460,690 461,689 462,688 463,687 464,686 465,685 466,683 466,682 467,681 468,680 469,679 470,678 471,677 472,676 473,675 474,674 474,673 475,672 476,671 477,669 478,668 479,667 480,666 481,665 482,664 483,663 483,662 484,661 485,660 486,659 487,658 488,657 489,656 490,655 491,653 491,652 492,651 493,650 494,649 495,648 496,647 497,646 498,645 499,644 500,643 500,642 501,641 502,640 503,639 504,637 505,636 506,635 507,634 508,633 508,632 509,631 510,630 511,629 512,628 513,627 514,626 515,624 516,623 517,622 517,621 518,620 519,619 520,618 521,617 522,616 523,615 524,614 525,613 525,612 526,611 527,610 528,608 529,607 530,606 531,605 532,604 533,603 534,602 534,601 535,600 536,599 537,598 538,597 539,595 540,594 541,593 542,592 542,591 543,590 544,589 545,588 546,587 547,585 548,584 549,583 550,582 551,581 551,580 552,579 553,578 554,577 555,576 556,575 557,574 558,573 559,572 560,571 560,570 561,569 562,568 563,566 564,565 565,564 566,563 567,562 568,561 568,560 569,559 570,558 571,557 572,556 573,555 574,554 575,552 576,551 577,550 577,549 578,548 579,547 580,546 581,545 582,544 583,543 584,542 585,541 585,540 586,539 587,537 588,536 589,535 590,534 591,533 592,532 593,531 594,530 594,529 595,528 596,527 597,526 598,525 599,524 600,523 601,522 602,521 602,520 603,519 604,518 605,517 606,516 607,514 608,513 609,512 610,511 611,510 611,509 612,508 613,507 614,506 615,505 616,504 617,503 618,502 619,501 619,499 620,498 621,497 622,496 623,495 624,494 625,493 626,492 627,491 628,490 628,489 629,488 630,487 631,485 632,485 633,483 634,482 635,481 636,480 636,479 637,478 638,477 639,476 640,475 641,474 642,473 643,472 644,470 645,469 645,468 646,467 647,466 648,465 649,464 650,462 651,462 652,460 653,459 653,458 654,457 655,456 656,455 657,454 658,453 659,451 660,450 661,449 662,448 662,447 663,446 664,445 665,444 666,443 667,442 668,440 669,439 670,438 670,437 671,436 672,435 673,434 674,433 675,432 676,431 677,429 678,428 679,427 679,426 680,425 681,424 682,423 683,422 684,421 685,420 686,419 687,418 687,417 688,416 689,415 690,413 691,412 692,411 693,410 694,409 695,408 696,407 696,406 697,405 698,404 699,402 700,401 701,400 702,399 703,398 704,397 704,396 705,395 706,394 707,393 708,392 709,390 710,390 711,388 712,387 713,386 713,385 714,384 715,383 716,382 717,381 718,380 719,379 720,378 721,377 721,376 722,375 723,374 724,372 725,371 726,370 727,369 728,368 729,367 730,366 730,365 731,364 732,362 733,361 734,360 735,359 736,358 737,357 738,356 738,355 739,354 740,353 741,352 742,351 743,349 744,348 745,347 746,346 747,345 747,344 748,343 749,342 750,341 751,339 752,338 753,337 754,336 755,335 755,334 756,333 757,332 758,331 759,329 760,328 761,327 762,326 763,325 764,324 764,323 765,322 766,321 767,320 768,319 769,318 770,317 771,316 772,315 773,314 773,312 774,311 775,310 776,309 777,308 778,307 779,306 780,305 781,304 781,303 782,302 783,301 784,300 785,298 786,297 787,296 788,295 789,294 790,293 790,292 791,291 792,290 793,289 794,288 795,286 796,285 797,284 798,283 798,282 799,281 800,280 801,279 802,278 803,277 804,276 805,275 806,273 807,272 807,271 808,270 809,269 810,268 811,267 812,266 813,265 814,264 815,263 815,262 816,260 817,259 818,258 819,257 820,256 821,255 822,254 823,253 824,252 824,251 825,249 826,248 827,247 828,246 829,245 830,244 831,243 832,242 832,241 833,239 834,238 835,237 836,236 837,235 838,234 839,233 840,232 841,231 841,230 842,228 843,227 844,226 845,225 846,224 847,223 848,222 849,221 849,219 850,218 851,217 852,216 853,215 854,214 855,213 856,212 857,211 858,210 858,209 859,207 860,206 861,205 862,204 863,203 864,202 865,201 866,200 866,199 867,198 868,196 869,195 870,194 871,193 872,192 873,191 874,190 875,189 875,188 876,187 877,186 878,185 879,184 880,182 881,181 882,180 883,179 883,178 884,177 885,176 886,175 887,174 888,173 889,171 890,170 891,169 892,168 892,167 893,166 894,165 895,164 896,163 897,161 898,160 899,159 900,158 900,157 901,156 902,154 903,153 904,152 905,151 906,150 907,149 908,148 909,147 909,146 910,144 911,143 912,142 913,141 914,140 915,139 916,138 917,137 917,136 918,135 919,134 920,133 921,131 922,130 923,129 924,128 925,127 926,126 926,125 927,124 928,122 929,121 930,120 931,119 932,118 933,117 934,116 934,115 935,114 936,113 937,112 938,110 939,109 940,108 941,107 942,106 943,105 943,104 944,103 945,102 946,101 947,99 948,98 949,97 950,96 951,95 951,94 952,92 953,91 954,90 955,89 956,88 957,87 958,86 959,85 960,84 960,83 961,82 962,81 963,80 964,78 965,77 966,76 967,75 968,74 968,73 969,72 970,71 971,70 972,69 972,69 973,69 973,699 78,699 "/>
<polyline fill="none" opacity="1" stroke="#E6194B" stroke-width="1" points="78,699 79,698 80,698 81,698 82,698 82,698 83,698 84,698 85,698 86,698 87,698 88,698 89,698 90,698 91,698 91,698 92,698 93,698 94,698 95,698 96,698 97,698 98,698 99,698 99,698 100,698 101,698 102,698 103,698 104,698 105,698 106,698 107,698 108,698 108,698 109,698 110,698 111,698 112,698 113,698 114,698 115,698 116,698 116,698 117,698 118,698 119,698 120,698 121,698 122,698 123,698 124,698 125,698 125,698 126,698 127,698 128,698 129,698 130,698 131,698 132,698 133,698 134,698 134,698 135,698 136,698 137,698 138,698 139,698 140,698 141,698 142,698 142,698 143,698 144,698 145,698 146,698 147,698 148,698 149,698 150,698 151,698 151,698 152,698 153,698 154,698 155,698 156,698 157,698 158,698 159,698 159,698 160,698 161,698 162,698 163,698 164,698 165,698 166,698 167,698 168,698 168,698 169,698 170,698 171,698 172,698 173,698 174,698 175,698 176,698 176,698 177,698 178,698 179,698 180,698 181,698 182,698 183,698 184,698 185,698 185,698 186,698 187,698 188,698 189,698 190,698 191,698 192,698 193,698 193,698 194,698 195,698 196,698 197,698 198,698 199,698 200,698 201,698 202,698 202,698 203,698 204,698 205,698 206,698 207,698 208,698 209,698 210,698 210,698 211,698 212,698 213,698 214,698 215,698 216,698 217,698 218,698 219,698 219,698 220,698 221,698 222,698 223,698 224,698 225,698 226,698 227,698 227,698 228,698 229,698 230,698 231,698 232,698 233,698 234,698 235,698 236,698 236,698 237,698 238,698 239,698 240,698 241,698 242,698 243,698 244,698 244,698 245,698 246,698 247,698 248,698 249,698 250,698 251,698 252,698 253,698 253,698 254,698 255,698 256,698 257,698 258,698 259,698 260,698 261,698 261,698 262,698 263,698 264,698 265,698 266,698 267,698 268,698 269,698 270,698 270,698 271,698 272,698 273,698 274,698 275,698 276,698 277,698 278,698 278,698 279,698 280,698 281,698 282,698 283,698 284,698 285,698 286,698 287,698 287,698 288,698 289,698 290,698 291,698 292,698 293,698 294,698 295,698 295,698 296,698 297,698 298,698 299,698 300,698 301,698 302,698 303,698 304,698 304,698 305,698 306,698 307,698 308,698 309,698 310,698 311,698 312,698 312,698 313,698 314,698 315,698 316,698 317,698 318,698 319,698 320,698 321,698 321,698 322,698 323,698 324,698 325,698 326,698 327,698 328,698 329,698 329,698 330,698 331,698 332,698 333,698 334,698 335,698 336,698 337,698 338,698 338,698 339,698 340,698 341,698 342,698 343,698 344,698 345,698 346,698 347,698 347,698 348,698 349,698 350,698 351,698 352,698 353,698 354,698 355,698 355,698 356,698 357,698 358,698 359,698 360,698 361,698 362,698 363,698 364,698 364,698 365,698 366,698 367,698 368,698 369,698 370,698 371,698 372,698 372,698 373,698 374,698 375,698 376,698 377,698 378,698 379,698 380,698 381,698 381,698 382,698 383,698 384,698 385,698 386,698 387,698 388,698 389,698 389,698 390,698 391,698 392,698 393,698 394,698 395,698 396,698 397,698 398,698 398,698 399,698 400,698 401,698 402,698 403,698 404,698 405,698 406,698 406,698 407,698 408,698 409,698 410,698 411,698 412,698 413,698 414,698 415,698 415,698 416,698 417,698 418,698 419,698 420,698 421,698 422,698 423,698 423,698 424,698 425,698 426,698 427,698 428,698 429,698 430,698 431,698 432,698 432,698 433,698 434,698 435,698 436,698 437,698 438,698 439,698 440,698 440,698 441,698 442,698 443,698 444,698 445,698 446,698 447,698 448,698 449,698 449,697 450,697 451,697 452,697 453,697 454,697 455,696 456,695 457,694 457,693 458,692 459,691 460,690 461,689 462,688 463,687 464,686 465,685 466,683 466,682 467,681 468,680 469,679 470,678 471,677 472,676 473,675 474,674 474,673 475,672 476,671 477,669 478,668 479,667 480,666 481,665 482,664 483,663 483,662 484,661 485,660 486,659 487,658 488,657 489,656 490,655 491,653 491,652 492,651 493,650 494,649 495,648 496,647 497,646 498,645 499,644 500,643 500,642 501,641 502,640 503,639 504,637 505,636 506,635 507,634 508,633 508,632 509,631 510,630 511,629 512,628 513,627 514,626 515,624 516,623 517,622 517,621 518,620 519,619 520,618 521,617 522,616 523,615 524,614 525,613 525,612 526,611 527,610 528,608 529,607 530,606 531,605 532,604 533,603 534,602 534,601 535,600 536,599 537,598 538,597 539,595 540,594 541,593 542,592 542,591 543,590 544,589 545,588 546,587 547,585 548,584 549,583 550,582 551,581 551,580 552,579 553,578 554,577 555,576 556,575 557,574 558,573 559,572 560,571 560,570 561,569 562,568 563,566 564,565 565,564 566,563 567,562 568,561 568,560 569,559 570,558 571,557 572,556 573,555 574,554 575,552 576,551 577,550 577,549 578,548 579,547 580,546 581,545 582,544 583,543 584,542 585,541 585,540 586,539 587,537 588,536 589,535 590,534 591,533 592,532 593,531 594,530 594,529 595,528 596,527 597,526 598,525 599,524 600,523 601,522 602,521 602,520 603,519 604,518 605,517 606,516 607,514 608,513 609,512 610,511 611,510 611,509 612,508 613,507 614,506 615,505 616,504 617,503 618,502 619,501 619,499 620,498 621,497 622,496 623,495 624,494 625,493 626,492 627,491 628,490 628,489 629,488 630,487 631,485 632,485 633,483 634,482 635,481 636,480 636,479 637,478 638,477 639,476 640,475 641,474 642,473 643,472 644,470 645,469 645,468 646,467 647,466 648,465 649,464 650,462 651,462 652,460 653,459 653,458 654,457 655,456 656,455 657,454 658,453 659,451 660,450 661,449 662,448 662,447 663,446 664,445 665,444 666,443 667,442 668,440 669,439 670,438 670,437 671,436 672,435 673,434 674,433 675,432 676,431 677,429 678,428 679,427 679,426 680,425 681,424 682,423 683,422 684,421 685,420 686,419 687,418 687,417 688,416 689,415 690,413 691,412 692,411 693,410 694,409 695,408 696,407 696,406 697,405 698,404 699,402 700,401 701,400 702,399 703,398 704,397 704,396 705,395 706,394 707,393 708,392 709,390 710,390 711,388 712,387 713,386 713,385 714,384 715,383 716,382 717,381 718,380 719,379 720,378 721,377 721,376 722,375 723,374 724,372 725,371 726,370 727,369 728,368 729,367 730,366 730,365 731,364 732,362 733,361 734,360 735,359 736,358 737,357 738,356 738,355 739,354 740,353 741,352 742,351 743,349 744,348 745,347 746,346 747,345 747,344 748,343 749,342 750,341 751,339 752,338 753,337 754,336 755,335 755,334 756,333 757,332 758,331 759,329 760,328 761,327 762,326 763,325 764,324 764,323 765,322 766,321 767,320 768,319 769,318 770,317 771,316 772,315 773,314 773,312 774,311 775,310 776,309 777,308 778,307 779,306 780,305 781,304 781,303 782,302 783,301 784,300 785,298 786,297 787,296 788,295 789,294 790,293 790,292 791,291 792,290 793,289 794,288 795,286 796,285 797,284 798,283 798,282 799,281 800,280 801,279 802,278 803,277 804,276 805,275 806,273 807,272 807,271 808,270 809,269 810,268 811,267 812,266 813,265 814,264 815,263 815,262 816,260 817,259 818,258 819,257 820,256 821,255 822,254 823,253 824,252 824,251 825,249 826,248 827,247 828,246 829,245 830,244 831,243 832,242 832,241 833,239 834,238 835,237 836,236 837,235 838,234 839,233 840,232 841,231 841,230 842,228 843,227 844,226 845,225 846,224 847,223 848,222 849,221 849,219 850,218 851,217 852,216 853,215 854,214 855,213 856,212 857,211 858,210 858,209 859,207 860,206 861,205 862,204 863,203 864,202 865,201 866,200 866,199 867,198 868,196 869,195 870,194 871,193 872,192 873,191 874,190 875,189 875,188 876,187 877,186 878,185 879,184 880,182 881,181 882,180 883,179 883,178 884,177 885,176 886,175 887,174 888,173 889,171 890,170 891,169 892,168 892,167 893,166 894,165 895,164 896,163 897,161 898,160 899,159 900,158 900,157 901,156 902,154 903,153 904,152 905,151 906,150 907,149 908,148 909,147 909,146 910,144 911,143 912,142 913,141 914,140 915,139 916,138 917,137 917,136 918,135 919,134 920,133 921,131 922,130 923,129 924,128 925,127 926,126 926,125 927,124 928,122 929,121 930,120 931,119 932,118 933,117 934,116 934,115 935,114 936,113 937,112 938,110 939,109 940,108 941,107 942,106 943,105 943,104 944,103 945,102 946,101 947,99 948,98 949,97 950,96 951,95 951,94 952,92 953,91 954,90 955,89 956,88 957,87 958,86 959,85 960,84 960,83 961,82 962,81 963,80 964,78 965,77 966,76 967,75 968,74 968,73 969,72 970,71 971,70 972,69 972,69 973,69 "/>
<line opacity="0.1" stroke="#000000" stroke-width="1" x1="84" y1="699" x2="84" y2="68"/>
<line opacity="0.1" stroke="#000000" stroke-width="1" x1="95" y1="699" x2="95" y2="68"/>
<line opacity="0.1" stroke="#000000" stroke-width="1" x1="106" y1="699" x2="106" y2="68"/>
<line opacity="0.1" stroke="#000000" stroke-width="1" x1="118" y1="699" x2="118" y2="68"/>
<line opacity="0.1" stroke="#000000" stroke-width="1" x1="129" y1="699" x2="129" y2="68"/>
<line opacity="0.1" stroke="#000000" stroke-width="1" x1="140" y1="699" x2="140" y2="68"/>
<line opacity="0.1" stroke="#000000" stroke-width="1" x1="151" y1="699" x2="151" y2="68"/>
<line opacity="0.1" stroke="#000000" stroke-width="1" x1="162" y1="699" x2="162" y2="68"/>
<line opacity="0.1" stroke="#000000" stroke-width="1" x1="174" y1="699" x2="174" y2="68"/>
<line opacity="0.1" stroke="#000000" stroke-width="1" x1="185" y1="699" x2="185" y2="68"/>
<line opacity="0.1" stroke="#000000" stroke-width="1" x1="196" y1="699" x2="196" y2="68"/>
<line opacity="0.1" stroke="#000000" stroke-width="1" x1="207" y1="699" x2="207" y2="68"/>
<line opacity="0.1" stroke="#000000" stroke-width="1" x1="218" y1="699" x2="218" y2="68"/>
<line opacity="0.1" stroke="#000000" stroke-width="1" x1="229" y1="699" x2="229" y2="68"/>
<line opacity="0.1" stroke="#000000" stroke-width="1" x1="241" y1="699" x2="241" y2="68"/>
<line opacity="0.1" stroke="#000000" stroke-width="1" x1="252" y1="699" x2="252" y2="68"/>
<line opacity="0.1" stroke="#000000" stroke-width="1" x1="263" y1="699" x2="263" y2="68"/>
<line opacity="0.1" stroke="#000000" stroke-width="1" x1="274" y1="699" x2="274" y2="68"/>
<line opacity="0.1" stroke="#000000" stroke-width="1" x1="285" y1="699" x2="285" y2="68"/>
<line opacity="0.1" stroke="#000000" stroke-width="1" x1="297" y1="699" x2="297" y2="68"/>
<line opacity="0.1" stroke="#000000" stroke-width="1" x1="308" y1="699" x2="308" y2="68"/>
<line opacity="0.1" stroke="#000000" stroke-width="1" x1="319" y1="699" x2="319" y2="68"/>
<line opacity="0.1" stroke="#000000" stroke-width="1" x1="330" y1="699" x2="330" y2="68"/>
<line opacity="0.1" stroke="#000000" stroke-width="1" x1="341" y1="699" x2="341" y2="68"/>
<line opacity="0.1" stroke="#000000" stroke-width="1" x1="352" y1="699" x2="352" y2="68"/>
<line opacity="0.1" stroke="#000000" stroke-width="1" x1="364" y1="699" x2="364" y2="68"/>
<line opacity="0.1" stroke="#000000" stroke-width="1" x1="375" y1="699" x2="375" y2="68"/>
<line opacity="0.1" stroke="#000000" stroke-width="1" x1="386" y1="699" x2="386" y2="68"/>
<line opacity="0.1" stroke="#000000" stroke-width="1" x1="397" y1="699" x2="397" y2="68"/>
<line opacity="0.1" stroke="#000000" stroke-width="1" x1="408" y1="699" x2="408" y2="68"/>
<line opacity="0.1" stroke="#000000" stroke-width="1" x1="420" y1="699" x2="420" y2="68"/>
<line opacity="0.1" stroke="#000000" stroke-width="1" x1="431" y1="699" x2="431" y2="68"/>
<line opacity="0.1" stroke="#000000" stroke-width="1" x1="442" y1="699" x2="442" y2="68"/>
<line opacity="0.1" stroke="#000000" stroke-width="1" x1="453" y1="699" x2="453" y2="68"/>
<line opacity="0.1" stroke="#000000" stroke-width="1" x1="464" y1="699" x2="464" y2="68"/>
<line opacity="0.1" stroke="#000000" stroke-width="1" x1="476" y1="699" x2="476" y2="68"/>
<line opacity="0.1" stroke="#000000" stroke-width="1" x1="487" y1="699" x2="487" y2="68"/>
<line opacity="0.1" stroke="#000000" stroke-width="1" x1="498" y1="699" x2="498" y2="68"/>
<line opacity="0.1" stroke="#000000" stroke-width="1" x1="509" y1="699" x2="509" y2="68"/>
<line opacity="0.1" stroke="#000000" stroke-width="1" x1="520" y1="699" x2="520" y2="68"/>
<line opacity="0.1" stroke="#000000" stroke-width="1" x1="531" y1="699" x2="531" y2="68"/>
<line opacity="0.1" stroke="#000000" stroke-width="1" x1="543" y1="699" x2="543" y2="68"/>
<line opacity="0.1" stroke="#000000" stroke-width="1" x1="554" y1="699" x2="554" y2="68"/>
<line opacity="0.1" stroke="#000000" stroke-width="1" x1="565" y1="699" x2="565" y2="68"/>
<line opacity="0.1" stroke="#000000" stroke-width="1" x1="576" y1="699" x2="576" y2="68"/>
<line opacity="0.1" stroke="#000000" stroke-width="1" x1="587" y1="699" x2="587" y2="68"/>
<line opacity="0.1" stroke="#000000" stroke-width="1" x1="599" y1="699" x2="599" y2="68"/>
<line opacity="0.1" stroke="#000000" stroke-width="1" x1="610" y1="699" x2="610" y2="68"/>
<line opacity="0.1" stroke="#000000" stroke-width="1" x1="621" y1="699" x2="621" y2="68"/>
<line opacity="0.1" stroke="#000000" stroke-width="1" x1="632" y1="699" x2="632" y2="68"/>
<line opacity="0.1" stroke="#000000" stroke-width="1" x1="643" y1="699" x2="643" y2="68"/>
<line opacity="0.1" stroke="#000000" stroke-width="1" x1="654" y1="699" x2="654" y2="68"/>
<line opacity="0.1" stroke="#000000" stroke-width="1" x1="666" y1="699" x2="666" y2="68"/>
<line opacity="0.1" stroke="#000000" stroke-width="1" x1="677" y1="699" x2="677" y2="68"/>
<line opacity="0.1" stroke="#000000" stroke-width="1" x1="688" y1="699" x2="688" y2="68"/>
<line opacity="0.1" stroke="#000000" stroke-width="1" x1="699" y1="699" x2="699" y2="68"/>
<line opacity="0.1" stroke="#000000" stroke-width="1" x1="710" y1="699" x2="710" y2="68"/>
<line opacity="0.1" stroke="#000000" stroke-width="1" x1="722" y1="699" x2="722" y2="68"/>
<line opacity="0.1" stroke="#000000" stroke-width="1" x1="733" y1="699" x2="733" y2="68"/>
<line opacity="0.1" stroke="#000000" stroke-width="1" x1="744" y1="699" x2="744" y2="68"/>
<line opacity="0.1" stroke="#000000" stroke-width="1" x1="755" y1="699" x2="755" y2="68"/>
<line opacity="0.1" stroke="#000000" stroke-width="1" x1="766" y1="699" x2="766" y2="68"/>
<line opacity="0.1" stroke="#000000" stroke-width="1" x1="777" y1="699" x2="777" y2="68"/>
<line opacity="0.1" stroke="#000000" stroke-width="1" x1="789" y1="699" x2="789" y2="68"/>
<line opacity="0.1" stroke="#000000" stroke-width="1" x1="800" y1="699" x2="800" y2="68"/>
<line opacity="0.1" stroke="#000000" stroke-width="1" x1="811" y1="699" x2="811" y2="68"/>
<line opacity="0.1" stroke="#000000" stroke-width="1" x1="822" y1="699" x2="822" y2="68"/>
<line opacity="0.1" stroke="#000000" stroke-width="1" x1="833" y1="699" x2="833" y2="68"/>
<line opacity="0.1" stroke="#000000" stroke-width="1" x1="845" y1="699" x2="845" y2="68"/>
<line opacity="0.1" stroke="#000000" stroke-width="1" x1="856" y1="699" x2="856" y2="68"/>
<line opacity="0.1" stroke="#000000" stroke-width="1" x1="867" y1="699" x2="867" y2="68"/>
<line opacity="0.1" stroke="#000000" stroke-width="1" x1="878" y1="699" x2="878" y2="68"/>
<line opacity="0.1" stroke="#000000" stroke-width="1" x1="889" y1="699" x2="889" y2="68"/>
<line opacity="0.1" stroke="#000000" stroke-width="1" x1="900" y1="699" x2="900" y2="68"/>
<line opacity="0.1" stroke="#000000" stroke-width="1" x1="912" y1="699" x2="912" y2="68"/>
<line opacity="0.1" stroke="#000000" stroke-width="1" x1="923" y1="699" x2="923" y2="68"/>
<line opacity="0.1" stroke="#000000" stroke-width="1" x1="934" y1="699" x2="934" y2="68"/>
<line opacity="0.1" stroke="#000000" stroke-width="1" x1="945" y1="699" x2="945" y2="68"/>
<line opacity="0.1" stroke="#000000" stroke-width="1" x1="956" y1="699" x2="956" y2="68"/>
<line opacity="0.1" stroke="#000000" stroke-width="1" x1="968" y1="699" x2="968" y2="68"/>
<line opacity="0.1" stroke="#000000" stroke-width="1" x1="78" y1="699" x2="973" y2="699"/>
<line opacity="0.1" stroke="#000000" stroke-width="1" x1="78" y1="690" x2="973" y2="690"/>
<line opacity="0.1" stroke="#000000" stroke-width="1" x1="78" y1="682" x2="973" y2="682"/>
<line opacity="0.1" stroke="#000000" stroke-width="1" x1="78" y1="674" x2="973" y2="674"/>
<line opacity="0.1" stroke="#000000" stroke-width="1" x1="78" y1="666" x2="973" y2="666"/>
<line opacity="0.1" stroke="#000000" stroke-width="1" x1="78" y1="658" x2="973" y2="658"/>
<line opacity="0.1" stroke="#000000" stroke-width="1" x1="78" y1="650" x2="973" y2="650"/>
<line opacity="0.1" stroke="#000000" stroke-width="1" x1="78" y1="642" x2="973" y2="642"/>
<line opacity="0.1" stroke="#000000" stroke-width="1" x1="78" y1="633" x2="973" y2="633"/>
<line opacity="0.1" stroke="#000000" stroke-width="1" x1="78" y1="625" x2="973" y2="625"/>
<line opacity="0.1" stroke="#000000" stroke-width="1" x1="78" y1="617" x2="973" y2="617"/>
<line opacity="0.1" stroke="#000000" stroke-width="1" x1="78" y1="609" x2="973" y2="609"/>
<line opacity="0.1" stroke="#000000" stroke-width="1" x1="78" y1="601" x2="973" y2="601"/>
<line opacity="0.1" stroke="#000000" stroke-width="1" x1="78" y1="593" x2="973" y2="593"/>
<line opacity="0.1" stroke="#000000" stroke-width="1" x1="78" y1="585" x2="973" y2="585"/>
<line opacity="0.1" stroke="#000000" stroke-width="1" x1="78" y1="577" x2="973" y2="577"/>
<line opacity="0.1" stroke="#000000" stroke-width="1" x1="78" y1="568" x2="973" y2="568"/>
<line opacity="0.1" stroke="#000000" stroke-width="1" x1="78" y1="560" x2="973" y2="560"/>
<line opacity="0.1" stroke="#000000" stroke-width="1" x1="78" y1="552" x2="973" y2="552"/>
<line opacity="0.1" stroke="#000000" stroke-width="1" x1="78" y1="544" x2="973" y2="544"/>
<line opacity="0.1" stroke="#000000" stroke-width="1" x1="78" y1="536" x2="973" y2="536"/>
<line opacity="0.1" stroke="#000000" stroke-width="1" x1="78" y1="528" x2="973" y2="528"/>
<line opacity="0.1" stroke="#000000" stroke-width="1" x1="78" y1="520" x2="973" y2="520"/>
<line opacity="0.1" stroke="#000000" stroke-width="1" x1="78" y1="511" x2="973" y2="511"/>
<line opacity="0.1" stroke="#000000" stroke-width="1" x1="78" y1="503" x2="973" y2="503"/>
<line opacity="0.1" stroke="#000000" stroke-width="1" x1="78" y1="495" x2="973" y2="495"/>
<line opacity="0.1" stroke="#000000" stroke-width="1" x1="78" y1="487" x2="973" y2="487"/>
<line opacity="0.1" stroke="#000000" stroke-width="1" x1="78" y1="479" x2="973" y2="479"/>
<line opacity="0.1" stroke="#000000" stroke-width="1" x1="78" y1="471" x2="973" y2="471"/>
<line opacity="0.1" stroke="#000000" stroke-width="1" x1="78" y1="463" x2="973" y2="463"/>
<line opacity="0.1" stroke="#000000" stroke-width="1" x1="78" y1="455" x2="973" y2="455"/>
<line opacity="0.1" stroke="#000000" stroke-width="1" x1="78" y1="446" x2="973" y2="446"/>
<line opacity="0.1" stroke="#000000" stroke-width="1" x1="78" y1="438" x2="973" y2="438"/>
<line opacity="0.1" stroke="#000000" stroke-width="1" x1="78" y1="430" x2="973" y2="430"/>
<line opacity="0.1" stroke="#000000" stroke-width="1" x1="78" y1="422" x2="973" y2="422"/>
<line opacity="0.1" stroke="#000000" stroke-width="1" x1="78" y1="414" x2="973" y2="414"/>
<line opacity="0.1" stroke="#000000" stroke-width="1" x1="78" y1="406" x2="973" y2="406"/>
<line opacity="0.1" stroke="#000000" stroke-width="1" x1="78" y1="398" x2="973" y2="398"/>
<line opacity="0.1" stroke="#000000" stroke-width="1" x1="78" y1="389" x2="973" y2="389"/>
<line opacity="0.1" stroke="#000000" stroke-width="1" x1="78" y1="381" x2="973" y2="381"/>
<line opacity="0.1" stroke="#000000" stroke-width="1" x1="78" y1="373" x2="973" y2="373"/>
<line opacity="0.1" stroke="#000000" stroke-width="1" x1="78" y1="365" x2="973" y2="365"/>
<line opacity="0.1" stroke="#000000" stroke-width="1" x1="78" y1="357" x2="973" y2="357"/>
<line opacity="0.1" stroke="#000000" stroke-width="1" x1="78" y1="349" x2="973" y2="349"/>
<line opacity="0.1" stroke="#000000" stroke-width="1" x1="78" y1="341" x2="973" y2="341"/>
<line opacity="0.1" stroke="#000000" stroke-width="1" x1="78" y1="333" x2="973" y2="333"/>
<line opacity="0.1" stroke="#000000" stroke-width="1" x1="78" y1="324" x2="973" y2="324"/>
<line opacity="0.1" stroke="#000000" stroke-width="1" x1="78" y1="316" x2="973" y2="316"/>
<line opacity="0.1" stroke="#000000" stroke-width="1" x1="78" y1="308" x2="973" y2="308"/>
<line opacity="0.1" stroke="#000000" stroke-width="1" x1="78" y1="300" x2="973" y2="300"/>
<line opacity="0.1" stroke="#000000" stroke-width="1" x1="78" y1="292" x2="973" y2="292"/>
<line opacity="0.1" stroke="#000000" stroke-width="1" x1="78" y1="284" x2="973" y2="284"/>
<line opacity="0.1" stroke="#000000" stroke-width="1" x1="78" y1="276" x2="973" y2="276"/>
<line opacity="0.1" stroke="#000000" stroke-width="1" x1="78" y1="267" x2="973" y2="267"/>
<line opacity="0.1" stroke="#000000" stroke-width="1" x1="78" y1="259" x2="973" y2="259"/>
<line opacity="0.1" stroke="#000000" stroke-width="1" x1="78" y1="251" x2="973" y2="251"/>
<line opacity="0.1" stroke="#000000" stroke-width="1" x1="78" y1="243" x2="973" y2="243"/>
<line opacity="0.1" stroke="#000000" stroke-width="1" x1="78" y1="235" x2="973" y2="235"/>
<line opacity="0.1" stroke="#000000" stroke-width="1" x1="78" y1="227" x2="973" y2="227"/>
<line opacity="0.1" stroke="#000000" stroke-width="1" x1="78" y1="219" x2="973" y2="219"/>
<line opacity="0.1" stroke="#000000" stroke-width="1" x1="78" y1="211" x2="973" y2="211"/>
<line opacity="0.1" stroke="#000000" stroke-width="1" x1="78" y1="202" x2="973" y2="202"/>
<line opacity="0.1" stroke="#000000" stroke-width="1" x1="78" y1="194" x2="973" y2="194"/>
<line opacity="0.1" stroke="#000000" stroke-width="1" x1="78" y1="186" x2="973" y2="186"/>
<line opacity="0.1" stroke="#000000" stroke-width="1" x1="78" y1="178" x2="973" y2="178"/>
<line opacity="0.1" stroke="#000000" stroke-width="1" x1="78" y1="170" x2="973" y2="170"/>
<line opacity="0.1" stroke="#000000" stroke-width="1" x1="78" y1="162" x2="973" y2="162"/>
<line opacity="0.1" stroke="#000000" stroke-width="1" x1="78" y1="154" x2="973" y2="154"/>
<line opacity="0.1" stroke="#000000" stroke-width="1" x1="78" y1="145" x2="973" y2="145"/>
<line opacity="0.1" stroke="#000000" stroke-width="1" x1="78" y1="137" x2="973" y2="137"/>
<line opacity="0.1" stroke="#000000" stroke-width="1" x1="78" y1="129" x2="973" y2="129"/>
<line opacity="0.1" stroke="#000000" stroke-width="1" x1="78" y1="121" x2="973" y2="121"/>
<line opacity="0.1" stroke="#000000" stroke-width="1" x1="78" y1="113" x2="973" y2="113"/>
<line opacity="0.1" stroke="#000000" stroke-width="1" x1="78" y1="105" x2="973" y2="105"/>
<line opacity="0.1" stroke="#000000" stroke-width="1" x1="78" y1="97" x2="973" y2="97"/>
<line opacity="0.1" stroke="#000000" stroke-width="1" x1="78" y1="89" x2="973" y2="89"/>
<line opacity="0.1" stroke="#000000" stroke-width="1" x1="78" y1="80" x2="973" y2="80"/>
<line opacity="0.1" stroke="#000000" stroke-width="1" x1="78" y1="72" x2="973" y2="72"/>
<text x="8" y="384" dy="0.76em" text-anchor="middle" font-family="sans-serif" font-size="9.67741935483871" opacity="1" fill="#000000" transform="rotate(270, 8, 384)">
Memory usage
</text>
<text x="526" y="760" dy="-0.5ex" text-anchor="middle" font-family="sans-serif" font-size="9.67741935483871" opacity="1" fill="#000000">
Time
</text>
<line opacity="0.2" stroke="#000000" stroke-width="1" x1="106" y1="699" x2="106" y2="68"/>
<line opacity="0.2" stroke="#000000" stroke-width="1" x1="218" y1="699" x2="218" y2="68"/>
<line opacity="0.2" stroke="#000000" stroke-width="1" x1="330" y1="699" x2="330" y2="68"/>
<line opacity="0.2" stroke="#000000" stroke-width="1" x1="442" y1="699" x2="442" y2="68"/>
<line opacity="0.2" stroke="#000000" stroke-width="1" x1="554" y1="699" x2="554" y2="68"/>
<line opacity="0.2" stroke="#000000" stroke-width="1" x1="666" y1="699" x2="666" y2="68"/>
<line opacity="0.2" stroke="#000000" stroke-width="1" x1="777" y1="699" x2="777" y2="68"/>
<line opacity="0.2" stroke="#000000" stroke-width="1" x1="889" y1="699" x2="889" y2="68"/>
<line opacity="0.2" stroke="#000000" stroke-width="1" x1="78" y1="699" x2="973" y2="699"/>
<line opacity="0.2" stroke="#000000" stroke-width="1" x1="78" y1="617" x2="973" y2="617"/>
<line opacity="0.2" stroke="#000000" stroke-width="1" x1="78" y1="536" x2="973" y2="536"/>
<line opacity="0.2" stroke="#000000" stroke-width="1" x1="78" y1="455" x2="973" y2="455"/>
<line opacity="0.2" stroke="#000000" stroke-width="1" x1="78" y1="373" x2="973" y2="373"/>
<line opacity="0.2" stroke="#000000" stroke-width="1" x1="78" y1="292" x2="973" y2="292"/>
<line opacity="0.2" stroke="#000000" stroke-width="1" x1="78" y1="211" x2="973" y2="211"/>
<line opacity="0.2" stroke="#000000" stroke-width="1" x1="78" y1="129" x2="973" y2="129"/>
<polyline fill="none" opacity="1" stroke="#000000" stroke-width="1" points="77,68 77,699 "/>
<text x="68" y="699" dy="0.5ex" text-anchor="end" font-family="sans-serif" font-size="9.67741935483871" opacity="1" fill="#000000">
0.0 MB
</text>
<polyline fill="none" opacity="1" stroke="#000000" stroke-width="1" points="72,699 77,699 "/>
<text x="68" y="617" dy="0.5ex" text-anchor="end" font-family="sans-serif" font-size="9.67741935483871" opacity="1" fill="#000000">
4.8 MB
</text>
<polyline fill="none" opacity="1" stroke="#000000" stroke-width="1" points="72,617 77,617 "/>
<text x="68" y="536" dy="0.5ex" text-anchor="end" font-family="sans-serif" font-size="9.67741935483871" opacity="1" fill="#000000">
9.5 MB
</text>
<polyline fill="none" opacity="1" stroke="#000000" stroke-width="1" points="72,536 77,536 "/>
<text x="68" y="455" dy="0.5ex" text-anchor="end" font-family="sans-serif" font-size="9.67741935483871" opacity="1" fill="#000000">
14.3 MB
</text>
<polyline fill="none" opacity="1" stroke="#000000" stroke-width="1" points="72,455 77,455 "/>
<text x="68" y="373" dy="0.5ex" text-anchor="end" font-family="sans-serif" font-size="9.67741935483871" opacity="1" fill="#000000">
19.1 MB
</text>
<polyline fill="none" opacity="1" stroke="#000000" stroke-width="1" points="72,373 77,373 "/>
<text x="68" y="292" dy="0.5ex" text-anchor="end" font-family="sans-serif" font-size="9.67741935483871" opacity="1" fill="#000000">
23.8 MB
</text>
<polyline fill="none" opacity="1" stroke="#000000" stroke-width="1" points="72,292 77,292 "/>
<text x="68" y="211" dy="0.5ex" text-anchor="end" font-family="sans-serif" font-size="9.67741935483871" opacity="1" fill="#000000">
28.6 MB
</text>
<polyline fill="none" opacity="1" stroke="#000000" stroke-width="1" points="72,211 77,211 "/>
<text x="68" y="129" dy="0.5ex" text-anchor="end" font-family="sans-serif" font-size="9.67741935483871" opacity="1" fill="#000000">
33.4 MB
</text>
<polyline fill="none" opacity="1" stroke="#000000" stroke-width="1" points="72,129 77,129 "/>
<polyline fill="none" opacity="1" stroke="#000000" stroke-width="1" points="78,700 973,700 "/>
<text x="106" y="710" dy="0.76em" text-anchor="middle" font-family="sans-serif" font-size="9.67741935483871" opacity="1" fill="#000000">
07 20:33:20
</text>
<polyline fill="none" opacity="1" stroke="#000000" stroke-width="1" points="106,700 106,705 "/>
<text x="218" y="710" dy="0.76em" text-anchor="middle" font-family="sans-serif" font-size="9.67741935483871" opacity="1" fill="#000000">
08 10:26:40
</text>
<polyline fill="none" opacity="1" stroke="#000000" stroke-width="1" points="218,700 218,705 "/>
<text x="330" y="710" dy="0.76em" text-anchor="middle" font-family="sans-serif" font-size="9.67741935483871" opacity="1" fill="#000000">
09 00:20:00
</text>
<polyline fill="none" opacity="1" stroke="#000000" stroke-width="1" points="330,700 330,705 "/>
<text x="442" y="710" dy="0.76em" text-anchor="middle" font-family="sans-serif" font-size="9.67741935483871" opacity="1" fill="#000000">
09 14:13:20
</text>
<polyline fill="none" opacity="1" stroke="#000000" stroke-width="1" points="442,700 442,705 "/>
<text x="554" y="710" dy="0.76em" text-anchor="middle" font-family="sans-serif" font-size="9.67741935483871" opacity="1" fill="#000000">
10 04:06:40
</text>
<polyline fill="none" opacity="1" stroke="#000000" stroke-width="1" points="554,700 554,705 "/>
<text x="666" y="710" dy="0.76em" text-anchor="middle" font-family="sans-serif" font-size="9.67741935483871" opacity="1" fill="#000000">
10 18:00:00
</text>
<polyline fill="none" opacity="1" stroke="#000000" stroke-width="1" points="666,700 666,705 "/>
<text x="777" y="710" dy="0.76em" text-anchor="middle" font-family="sans-serif" font-size="9.67741935483871" opacity="1" fill="#000000">
11 07:53:20
</text>
<polyline fill="none" opacity="1" stroke="#000000" stroke-width="1" points="777,700 777,705 "/>
<text x="889" y="710" dy="0.76em" text-anchor="middle" font-family="sans-serif" font-size="9.67741935483871" opacity="1" fill="#000000">
11 21:46:40
</text>
<polyline fill="none" opacity="1" stroke="#000000" stroke-width="1" points="889,700 889,705 "/>
<polyline fill="none" opacity="1" stroke="#000000" stroke-width="1" points="78,67 974,67 "/>
<text x="106" y="58" dy="-0.5ex" text-anchor="middle" font-family="sans-serif" font-size="9.67741935483871" opacity="1" fill="#000000">
+03:35:44
</text>
<polyline fill="none" opacity="1" stroke="#000000" stroke-width="1" points="106,62 106,67 "/>
<text x="218" y="58" dy="-0.5ex" text-anchor="middle" font-family="sans-serif" font-size="9.67741935483871" opacity="1" fill="#000000">
+17:29:04
</text>
<polyline fill="none" opacity="1" stroke="#000000" stroke-width="1" points="218,62 218,67 "/>
<text x="330" y="58" dy="-0.5ex" text-anchor="middle" font-family="sans-serif" font-size="9.67741935483871" opacity="1" fill="#000000">
+31:22:24
</text>
<polyline fill="none" opacity="1" stroke="#000000" stroke-width="1" points="330,62 330,67 "/>
<text x="442" y="58" dy="-0.5ex" text-anchor="middle" font-family="sans-serif" font-size="9.67741935483871" opacity="1" fill="#000000">
+45:15:44
</text>
<polyline fill="none" opacity="1" stroke="#000000" stroke-width="1" points="442,62 442,67 "/>
<text x="554" y="58" dy="-0.5ex" text-anchor="middle" font-family="sans-serif" font-size="9.67741935483871" opacity="1" fill="#000000">
+59:09:04
</text>
<polyline fill="none" opacity="1" stroke="#000000" stroke-width="1" points="554,62 554,67 "/>
<text x="666" y="58" dy="-0.5ex" text-anchor="middle" font-family="sans-serif" font-size="9.67741935483871" opacity="1" fill="#000000">
+73:02:24
</text>
<polyline fill="none" opacity="1" stroke="#000000" stroke-width="1" points="666,62 666,67 "/>
<text x="778" y="58" dy="-0.5ex" text-anchor="middle" font-family="sans-serif" font-size="9.67741935483871" opacity="1" fill="#000000">
+86:55:44
</text>
<polyline fill="none" opacity="1" stroke="#000000" stroke-width="1" points="778,62 778,67 "/>
<text x="890" y="58" dy="-0.5ex" text-anchor="middle" font-family="sans-serif" font-size="9.67741935483871" opacity="1" fill="#000000">
+100:49:04
</text>
<polyline fill="none" opacity="1" stroke="#000000" stroke-width="1" points="890,62 890,67 "/>
<rect x="83" y="73" width="99" height="45" opacity="0.75" fill="#FFFFFF" stroke="none"/>
<rect x="83" y="73" width="99" height="45" opacity="1" fill="none" stroke="#000000"/>
<text x="123" y="83" dy="0.76em" text-anchor="start" font-family="sans-serif" font-size="9.67741935483871" opacity="1" fill="#000000">
Temporary
</text>
<text x="123" y="98" dy="0.76em" text-anchor="start" font-family="sans-serif" font-size="9.67741935483871" opacity="1" fill="#000000">
Leaked
</text>
<rect x="93" y="83" width="10" height="10" opacity="1" fill="#3CB44B" stroke="none"/>
<rect x="93" y="98" width="10" height="10" opacity="1" fill="#E6194B" stroke="none"/>
</svg>
