<svg width="1024" height="768" viewBox="0 0 1024 768" xmlns="http://www.w3.org/2000/svg">
<rect x="0" y="0" width="1024" height="768" opacity="1" fill="#FFFFFF" stroke="none"/>
<polygon opacity="1" fill="#3CB44B" points="78,631 79,545 80,466 80,443 81,423 82,436 83,400 84,406 85,426 86,396 87,418 88,395 89,395 89,391 90,381 91,390 92,349 93,344 94,334 95,313 96,286 97,312 97,277 98,217 99,242 100,167 101,242 102,121 103,215 104,68 105,261 106,283 106,283 107,291 108,291 109,291 110,291 111,292 112,292 113,292 114,292 114,292 115,292 116,292 117,292 118,292 119,292 120,292 121,292 122,292 122,292 123,292 124,292 125,292 126,292 127,292 128,292 129,292 130,292 131,292 131,292 132,292 133,292 134,292 135,292 136,292 137,292 138,292 139,292 139,292 140,292 141,292 142,292 143,292 144,292 145,292 146,292 147,292 148,292 148,292 149,292 150,292 151,292 152,292 153,292 154,292 155,292 156,292 156,292 157,292 158,292 159,292 160,292 161,292 162,292 163,292 164,292 164,292 165,292 166,292 167,292 168,292 169,292 170,292 171,292 172,292 173,292 173,292 174,292 175,292 176,291 177,291 178,291 179,293 180,293 181,293 181,293 182,293 183,293 184,293 185,293 186,293 187,293 188,293 189,293 190,293 190,293 191,293 192,293 193,293 194,293 195,293 196,293 197,293 198,293 198,293 199,293 200,293 201,293 202,293 203,293 204,292 205,292 206,292 206,292 207,292 208,292 209,292 210,292 211,292 212,292 213,292 214,292 215,292 215,292 216,292 217,292 218,292 219,292 220,292 221,292 222,292 223,292 223,292 224,292 225,292 226,292 227,292 228,292 229,292 230,292 231,292 232,292 232,292 233,292 234,292 235,292 236,292 237,292 238,292 239,292 240,292 240,292 241,292 242,292 243,292 244,292 245,293 246,293 247,293 248,293 248,293 249,293 250,293 251,293 252,293 253,293 254,293 255,293 256,293 257,293 257,293 258,293 259,293 260,293 261,293 262,293 263,293 264,293 265,293 265,293 266,293 267,293 268,293 269,293 270,293 271,293 272,293 273,293 274,293 274,293 275,293 276,293 277,293 278,293 279,293 280,293 281,293 282,293 282,293 283,293 284,293 285,293 286,293 287,293 288,293 289,293 290,293 290,293 291,293 292,293 293,293 294,293 295,293 296,293 297,293 298,293 299,293 299,293 300,294 301,294 302,294 303,294 304,294 305,294 306,294 307,294 307,294 308,294 309,294 310,294 311,294 312,294 313,294 314,294 315,294 316,294 316,294 317,294 318,294 319,294 320,294 321,294 322,294 323,294 324,294 324,294 325,294 326,294 327,294 328,294 329,294 330,294 331,294 332,294 332,294 333,294 334,294 335,294 336,294 337,294 338,295 339,295 340,295 341,295 341,295 342,295 343,295 344,295 345,295 346,296 347,296 348,296 349,296 349,296 350,296 351,296 352,296 353,296 354,296 355,296 356,296 357,296 358,296 358,296 359,296 360,296 361,296 362,296 363,296 364,296 365,296 366,296 366,296 367,296 368,296 369,296 370,296 371,296 372,296 373,296 374,296 374,296 375,296 376,296 377,296 378,298 379,394 380,475 381,475 382,475 383,475 383,494 384,494 385,494 386,494 387,494 388,494 389,513 390,513 391,513 391,513 392,513 393,513 394,513 395,513 396,513 397,513 398,513 399,513 400,513 400,513 401,513 402,513 403,513 404,513 405,513 406,513 407,513 408,513 408,513 409,513 410,513 411,513 412,513 413,513 414,513 415,513 416,512 416,512 417,512 418,512 419,513 420,513 421,513 422,513 423,513 424,513 425,513 425,513 426,513 427,513 428,513 429,513 430,513 431,513 432,513 433,513 433,513 434,513 435,513 436,513 437,513 438,513 439,513 440,513 441,513 442,513 442,513 443,513 444,513 445,513 446,513 447,513 448,513 449,513 450,513 450,501 451,501 452,501 453,501 454,501 455,501 456,501 457,501 458,501 458,501 459,501 460,501 461,501 462,501 463,501 464,501 465,501 466,501 467,501 467,501 468,501 469,501 470,501 471,501 472,501 473,501 474,501 475,501 475,501 476,501 477,501 478,501 479,501 480,501 481,501 482,501 483,501 484,500 484,500 485,500 486,500 487,500 488,500 489,500 490,500 491,500 492,500 492,500 493,500 494,500 495,500 496,500 497,500 498,500 499,500 500,500 500,500 501,500 502,500 503,500 504,500 505,500 506,500 507,500 508,500 509,500 509,500 510,500 511,500 512,500 513,500 514,500 515,500 516,500 517,500 517,500 518,500 519,500 520,500 521,500 522,500 523,500 524,500 525,500 526,500 526,500 527,500 528,500 529,500 530,500 531,500 532,500 533,500 534,500 534,500 535,330 535,347 536,347 537,347 538,347 539,347 540,347 541,347 542,347 542,347 543,347 544,347 545,347 546,347 547,347 548,347 549,347 550,347 551,347 551,347 552,347 553,347 554,347 555,347 556,347 557,347 558,347 559,347 559,347 560,347 561,347 562,347 563,347 564,347 565,347 566,347 567,347 568,347 568,347 569,347 570,347 571,347 572,347 573,347 574,347 575,347 576,347 576,347 577,347 578,347 579,347 580,347 581,347 582,347 583,347 584,347 584,347 585,347 586,347 587,347 588,347 589,347 590,347 591,347 592,347 593,347 593,347 594,347 595,347 596,347 597,347 598,347 599,347 600,347 601,347 601,347 602,347 603,347 604,347 605,347 606,347 607,347 608,347 609,347 610,347 610,347 611,347 612,347 613,347 614,347 615,347 616,347 617,347 618,347 618,347 619,347 620,347 621,347 622,347 623,347 624,347 625,347 626,347 626,347 627,347 628,347 629,346 630,346 631,346 632,346 633,346 634,346 635,346 635,346 636,346 637,346 638,346 639,346 640,346 641,346 642,346 643,346 643,346 644,346 645,346 646,346 647,346 648,346 649,346 650,346 651,346 652,346 652,346 653,346 654,346 655,346 656,346 657,346 658,346 659,346 660,346 660,346 661,346 662,346 663,346 664,346 665,346 666,346 667,346 668,346 668,346 669,346 670,346 671,346 672,346 673,346 674,346 675,346 676,346 677,346 677,346 678,346 679,346 680,346 681,346 682,346 683,346 684,346 685,346 685,346 686,346 687,346 688,346 689,346 690,346 691,346 692,346 693,346 694,346 694,346 695,346 696,346 697,346 698,346 699,346 700,346 701,346 702,346 702,346 703,346 704,346 705,346 706,346 707,346 708,346 709,346 710,346 710,346 711,346 712,346 713,346 714,346 715,346 716,346 717,346 718,346 719,346 719,346 720,346 721,346 722,346 723,346 724,346 725,346 726,346 727,346 727,346 728,346 729,346 730,346 731,346 732,346 733,346 734,346 735,346 736,346 736,346 737,346 738,346 739,346 740,346 741,346 742,346 743,346 744,346 744,346 745,346 746,346 747,346 748,346 749,346 750,346 751,346 752,346 753,346 753,346 754,346 755,346 756,346 757,346 758,346 759,346 760,346 761,346 761,345 762,345 763,345 764,345 765,345 766,345 767,345 768,345 769,345 769,345 770,345 771,345 772,345 773,345 774,345 775,345 776,345 777,345 778,345 778,345 779,345 780,345 781,345 782,345 783,345 784,345 785,345 786,345 786,345 787,345 788,345 789,345 790,345 791,345 792,345 793,345 794,345 795,345 795,345 796,345 797,345 798,345 799,345 800,345 801,345 802,345 803,345 803,345 804,345 805,345 806,345 807,345 808,345 809,345 810,345 811,345 811,345 812,345 813,345 814,345 815,345 816,345 817,345 818,345 819,345 820,345 820,345 821,345 822,345 823,345 824,345 825,345 826,345 827,345 828,345 828,345 829,345 830,345 831,345 832,345 833,345 834,345 835,345 836,345 837,345 837,345 838,345 839,345 840,345 841,345 842,344 843,344 844,344 845,344 845,344 846,344 847,344 848,344 849,344 850,344 851,344 852,344 853,344 853,344 854,344 855,344 856,344 857,344 858,344 859,344 860,344 861,344 862,344 862,344 863,344 864,344 865,344 866,344 867,344 868,344 869,344 870,344 870,344 871,344 872,344 873,344 874,344 875,344 876,344 877,344 878,344 879,344 879,344 880,344 881,344 882,344 883,344 884,344 885,344 886,344 887,344 887,344 888,344 889,344 890,344 891,344 892,344 893,344 894,344 895,344 895,344 896,344 897,344 898,344 899,344 900,344 901,344 902,344 903,344 904,344 904,344 905,344 906,344 907,344 908,344 909,344 910,344 911,344 912,344 912,344 913,344 914,344 915,344 916,344 917,344 918,344 919,344 920,344 921,344 921,344 922,344 923,344 924,344 925,344 926,344 927,344 928,344 929,344 929,344 930,344 931,344 932,344 933,344 934,344 935,344 936,344 937,344 937,344 938,344 939,344 940,344 941,344 942,344 943,344 944,344 945,344 946,344 946,344 947,344 948,344 949,344 950,344 951,344 952,344 953,344 954,344 954,344 955,344 956,344 957,344 958,344 959,344 960,344 961,344 962,344 963,344 963,344 964,344 965,344 966,344 967,344 968,344 969,344 970,344 971,344 971,344 973,344 973,699 78,699 "/>
<polyline fill="none" opacity="1" stroke="#3CB44B" stroke-width="1" points="78,631 79,545 80,466 80,443 81,423 82,436 83,400 84,406 85,426 86,396 87,418 88,395 89,395 89,391 90,381 91,390 92,349 93,344 94,334 95,313 96,286 97,312 97,277 98,217 99,242 100,167 101,242 102,121 103,215 104,68 105,261 106,283 106,283 107,291 108,291 109,291 110,291 111,292 112,292 113,292 114,292 114,292 115,292 116,292 117,292 118,292 119,292 120,292 121,292 122,292 122,292 123,292 124,292 125,292 126,292 127,292 128,292 129,292 130,292 131,292 131,292 132,292 133,292 134,292 135,292 136,292 137,292 138,292 139,292 139,292 140,292 141,292 142,292 143,292 144,292 145,292 146,292 147,292 148,292 148,292 149,292 150,292 151,292 152,292 153,292 154,292 155,292 156,292 156,292 157,292 158,292 159,292 160,292 161,292 162,292 163,292 164,292 164,292 165,292 166,292 167,292 168,292 169,292 170,292 171,292 172,292 173,292 173,292 174,292 175,292 176,291 177,291 178,291 179,293 180,293 181,293 181,293 182,293 183,293 184,293 185,293 186,293 187,293 188,293 189,293 190,293 190,293 191,293 192,293 193,293 194,293 195,293 196,293 197,293 198,293 198,293 199,293 200,293 201,293 202,293 203,293 204,292 205,292 206,292 206,292 207,292 208,292 209,292 210,292 211,292 212,292 213,292 214,292 215,292 215,292 216,292 217,292 218,292 219,292 220,292 221,292 222,292 223,292 223,292 224,292 225,292 226,292 227,292 228,292 229,292 230,292 231,292 232,292 232,292 233,292 234,292 235,292 236,292 237,292 238,292 239,292 240,292 240,292 241,292 242,292 243,292 244,292 245,293 246,293 247,293 248,293 248,293 249,293 250,293 251,293 252,293 253,293 254,293 255,293 256,293 257,293 257,293 258,293 259,293 260,293 261,293 262,293 263,293 264,293 265,293 265,293 266,293 267,293 268,293 269,293 270,293 271,293 272,293 273,293 274,293 274,293 275,293 276,293 277,293 278,293 279,293 280,293 281,293 282,293 282,293 283,293 284,293 285,293 286,293 287,293 288,293 289,293 290,293 290,293 291,293 292,293 293,293 294,293 295,293 296,293 297,293 298,293 299,293 299,293 300,294 301,294 302,294 303,294 304,294 305,294 306,294 307,294 307,294 308,294 309,294 310,294 311,294 312,294 313,294 314,294 315,294 316,294 316,294 317,294 318,294 319,294 320,294 321,294 322,294 323,294 324,294 324,294 325,294 326,294 327,294 328,294 329,294 330,294 331,294 332,294 332,294 333,294 334,294 335,294 336,294 337,294 338,295 339,295 340,295 341,295 341,295 342,295 343,295 344,295 345,295 346,296 347,296 348,296 349,296 349,296 350,296 351,296 352,296 353,296 354,296 355,296 356,296 357,296 358,296 358,296 359,296 360,296 361,296 362,296 363,296 364,296 365,296 366,296 366,296 367,296 368,296 369,296 370,296 371,296 372,296 373,296 374,296 374,296 375,296 376,296 377,296 378,298 379,394 380,475 381,475 382,475 383,475 383,494 384,494 385,494 386,494 387,494 388,494 389,513 390,513 391,513 391,513 392,513 393,513 394,513 395,513 396,513 397,513 398,513 399,513 400,513 400,513 401,513 402,513 403,513 404,513 405,513 406,513 407,513 408,513 408,513 409,513 410,513 411,513 412,513 413,513 414,513 415,513 416,512 416,512 417,512 418,512 419,513 420,513 421,513 422,513 423,513 424,513 425,513 425,513 426,513 427,513 428,513 429,513 430,513 431,513 432,513 433,513 433,513 434,513 435,513 436,513 437,513 438,513 439,513 440,513 441,513 442,513 442,513 443,513 444,513 445,513 446,513 447,513 448,513 449,513 450,513 450,501 451,501 452,501 453,501 454,501 455,501 456,501 457,501 458,501 458,501 459,501 460,501 461,501 462,501 463,501 464,501 465,501 466,501 467,501 467,501 468,501 469,501 470,501 471,501 472,501 473,501 474,501 475,501 475,501 476,501 477,501 478,501 479,501 480,501 481,501 482,501 483,501 484,500 484,500 485,500 486,500 487,500 488,500 489,500 490,500 491,500 492,500 492,500 493,500 494,500 495,500 496,500 497,500 498,500 499,500 500,500 500,500 501,500 502,500 503,500 504,500 505,500 506,500 507,500 508,500 509,500 509,500 510,500 511,500 512,500 513,500 514,500 515,500 516,500 517,500 517,500 518,500 519,500 520,500 521,500 522,500 523,500 524,500 525,500 526,500 526,500 527,500 528,500 529,500 530,500 531,500 532,500 533,500 534,500 534,500 535,330 535,347 536,347 537,347 538,347 539,347 540,347 541,347 542,347 542,347 543,347 544,347 545,347 546,347 547,347 548,347 549,347 550,347 551,347 551,347 552,347 553,347 554,347 555,347 556,347 557,347 558,347 559,347 559,347 560,347 561,347 562,347 563,347 564,347 565,347 566,347 567,347 568,347 568,347 569,347 570,347 571,347 572,347 573,347 574,347 575,347 576,347 576,347 577,347 578,347 579,347 580,347 581,347 582,347 583,347 584,347 584,347 585,347 586,347 587,347 588,347 589,347 590,347 591,347 592,347 593,347 593,347 594,347 595,347 596,347 597,347 598,347 599,347 600,347 601,347 601,347 602,347 603,347 604,347 605,347 606,347 607,347 608,347 609,347 610,347 610,347 611,347 612,347 613,347 614,347 615,347 616,347 617,347 618,347 618,347 619,347 620,347 621,347 622,347 623,347 624,347 625,347 626,347 626,347 627,347 628,347 629,346 630,346 631,346 632,346 633,346 634,346 635,346 635,346 636,346 637,346 638,346 639,346 640,346 641,346 642,346 643,346 643,346 644,346 645,346 646,346 647,346 648,346 649,346 650,346 651,346 652,346 652,346 653,346 654,346 655,346 656,346 657,346 658,346 659,346 660,346 660,346 661,346 662,346 663,346 664,346 665,346 666,346 667,346 668,346 668,346 669,346 670,346 671,346 672,346 673,346 674,346 675,346 676,346 677,346 677,346 678,346 679,346 680,346 681,346 682,346 683,346 684,346 685,346 685,346 686,346 687,346 688,346 689,346 690,346 691,346 692,346 693,346 694,346 694,346 695,346 696,346 697,346 698,346 699,346 700,346 701,346 702,346 702,346 703,346 704,346 705,346 706,346 707,346 708,346 709,346 710,346 710,346 711,346 712,346 713,346 714,346 715,346 716,346 717,346 718,346 719,346 719,346 720,346 721,346 722,346 723,346 724,346 725,346 726,346 727,346 727,346 728,346 729,346 730,346 731,346 732,346 733,346 734,346 735,346 736,346 736,346 737,346 738,346 739,346 740,346 741,346 742,346 743,346 744,346 744,346 745,346 746,346 747,346 748,346 749,346 750,346 751,346 752,346 753,346 753,346 754,346 755,346 756,346 757,346 758,346 759,346 760,346 761,346 761,345 762,345 763,345 764,345 765,345 766,345 767,345 768,345 769,345 769,345 770,345 771,345 772,345 773,345 774,345 775,345 776,345 777,345 778,345 778,345 779,345 780,345 781,345 782,345 783,345 784,345 785,345 786,345 786,345 787,345 788,345 789,345 790,345 791,345 792,345 793,345 794,345 795,345 795,345 796,345 797,345 798,345 799,345 800,345 801,345 802,345 803,345 803,345 804,345 805,345 806,345 807,345 808,345 809,345 810,345 811,345 811,345 812,345 813,345 814,345 815,345 816,345 817,345 818,345 819,345 820,345 820,345 821,345 822,345 823,345 824,345 825,345 826,345 827,345 828,345 828,345 829,345 830,345 831,345 832,345 833,345 834,345 835,345 836,345 837,345 837,345 838,345 839,345 840,345 841,345 842,344 843,344 844,344 845,344 845,344 846,344 847,344 848,344 849,344 850,344 851,344 852,344 853,344 853,344 854,344 855,344 856,344 857,344 858,344 859,344 860,344 861,344 862,344 862,344 863,344 864,344 865,344 866,344 867,344 868,344 869,344 870,344 870,344 871,344 872,344 873,344 874,344 875,344 876,344 877,344 878,344 879,344 879,344 880,344 881,344 882,344 883,344 884,344 885,344 886,344 887,344 887,344 888,344 889,344 890,344 891,344 892,344 893,344 894,344 895,344 895,344 896,344 897,344 898,344 899,344 900,344 901,344 902,344 903,344 904,344 904,344 905,344 906,344 907,344 908,344 909,344 910,344 911,344 912,344 912,344 913,344 914,344 915,344 916,344 917,344 918,344 919,344 920,344 921,344 921,344 922,344 923,344 924,344 925,344 926,344 927,344 928,344 929,344 929,344 930,344 931,344 932,344 933,344 934,344 935,344 936,344 937,344 937,344 938,344 939,344 940,344 941,344 942,344 943,344 944,344 945,344 946,344 946,344 947,344 948,344 949,344 950,344 951,344 952,344 953,344 954,344 954,344 955,344 956,344 957,344 958,344 959,344 960,344 961,344 962,344 963,344 963,344 964,344 965,344 966,344 967,344 968,344 969,344 970,344 971,344 971,344 973,344 "/>
<polygon opacity="1" fill="#E6194B" points="78,699 79,699 80,699 80,699 81,699 82,699 83,699 84,699 85,699 86,699 87,699 88,699 89,699 89,699 90,699 91,699 92,699 93,699 94,699 95,699 96,699 97,699 97,699 98,699 99,699 100,699 101,699 102,699 103,699 104,571 105,571 106,541 106,541 107,541 108,541 109,541 110,541 111,541 112,541 113,541 114,541 114,541 115,541 116,541 117,541 118,541 119,541 120,541 121,541 122,541 122,541 123,541 124,541 125,541 126,541 127,541 128,541 129,541 130,541 131,541 131,541 132,541 133,541 134,541 135,541 136,541 137,541 138,541 139,541 139,541 140,541 141,541 142,541 143,541 144,541 145,541 146,541 147,541 148,541 148,541 149,541 150,541 151,541 152,541 153,541 154,541 155,541 156,541 156,541 157,541 158,541 159,541 160,541 161,541 162,541 163,541 164,541 164,541 165,541 166,541 167,541 168,541 169,541 170,541 171,541 172,541 173,541 173,541 174,541 175,541 176,541 177,541 178,541 179,541 180,541 181,541 181,541 182,541 183,541 184,541 185,541 186,541 187,541 188,541 189,541 190,541 190,541 191,541 192,541 193,541 194,541 195,541 196,541 197,541 198,541 198,541 199,541 200,541 201,541 202,541 203,541 204,541 205,541 206,541 206,541 207,541 208,541 209,541 210,541 211,541 212,541 213,541 214,541 215,541 215,541 216,541 217,541 218,541 219,541 220,541 221,541 222,541 223,541 223,541 224,541 225,541 226,541 227,541 228,541 229,541 230,541 231,541 232,541 232,541 233,541 234,541 235,541 236,541 237,541 238,541 239,541 240,541 240,541 241,541 242,541 243,541 244,541 245,541 246,541 247,541 248,541 248,541 249,541 250,541 251,541 252,541 253,541 254,541 255,541 256,541 257,541 257,541 258,541 259,541 260,541 261,541 262,541 263,541 264,541 265,541 265,541 266,541 267,541 268,541 269,541 270,541 271,541 272,541 273,541 274,541 274,541 275,541 276,541 277,541 278,541 279,541 280,541 281,541 282,541 282,541 283,541 284,541 285,541 286,541 287,541 288,541 289,541 290,541 290,541 291,541 292,541 293,541 294,541 295,541 296,541 297,541 298,541 299,541 299,541 300,541 301,541 302,541 303,541 304,541 305,541 306,541 307,541 307,541 308,541 309,541 310,541 311,541 312,541 313,541 314,541 315,541 316,541 316,541 317,541 318,541 319,541 320,541 321,541 322,541 323,541 324,541 324,541 325,541 326,541 327,541 328,541 329,541 330,541 331,541 332,541 332,541 333,541 334,541 335,541 336,541 337,541 338,541 339,541 340,541 341,541 341,541 342,541 343,541 344,541 345,541 346,541 347,541 348,541 349,541 349,541 350,541 351,541 352,541 353,541 354,541 355,541 356,541 357,541 358,541 358,541 359,541 360,541 361,541 362,541 363,541 364,541 365,541 366,541 366,541 367,541 368,541 369,541 370,541 371,541 372,541 373,541 374,541 374,541 375,541 376,541 377,541 378,541 379,541 380,541 381,541 382,541 383,541 383,541 384,541 385,541 386,541 387,541 388,541 389,541 390,541 391,541 391,541 392,541 393,541 394,541 395,541 396,541 397,541 398,541 399,541 400,541 400,541 401,541 402,541 403,541 404,541 405,541 406,541 407,541 408,541 408,541 409,541 410,541 411,541 412,541 413,541 414,541 415,541 416,540 416,540 417,540 418,540 419,540 420,540 421,540 422,540 423,540 424,540 425,540 425,540 426,540 427,540 428,540 429,540 430,540 431,540 432,540 433,540 433,540 434,540 435,540 436,540 437,540 438,540 439,540 440,540 441,540 442,540 442,540 443,540 444,540 445,540 446,540 447,540 448,540 449,540 450,540 450,528 451,528 452,528 453,528 454,528 455,528 456,528 457,528 458,528 458,528 459,528 460,528 461,528 462,528 463,528 464,528 465,528 466,528 467,528 467,528 468,528 469,528 470,528 471,528 472,528 473,528 474,528 475,528 475,528 476,528 477,528 478,528 479,528 480,528 481,528 482,528 483,528 484,528 484,528 485,528 486,528 487,528 488,528 489,528 490,528 491,528 492,528 492,528 493,528 494,528 495,528 496,528 497,528 498,528 499,528 500,528 500,528 501,528 502,528 503,528 504,528 505,528 506,528 507,528 508,528 509,528 509,528 510,528 511,528 512,528 513,528 514,528 515,528 516,528 517,528 517,528 518,528 519,528 520,528 521,528 522,528 523,528 524,528 525,528 526,528 526,528 527,528 528,528 529,528 530,528 531,528 532,528 533,528 534,528 534,528 535,347 535,347 536,347 537,347 538,347 539,347 540,347 541,347 542,347 542,347 543,347 544,347 545,347 546,347 547,347 548,347 549,347 550,347 551,347 551,347 552,347 553,347 554,347 555,347 556,347 557,347 558,347 559,347 559,347 560,347 561,347 562,347 563,347 564,347 565,347 566,347 567,347 568,347 568,347 569,347 570,347 571,347 572,347 573,347 574,347 575,347 576,347 576,347 577,347 578,347 579,347 580,347 581,347 582,347 583,347 584,347 584,347 585,347 586,347 587,347 588,347 589,347 590,347 591,347 592,347 593,347 593,347 594,347 595,347 596,347 597,347 598,347 599,347 600,347 601,347 601,347 602,347 603,347 604,347 605,347 606,347 607,347 608,347 609,347 610,347 610,347 611,347 612,347 613,347 614,347 615,347 616,347 617,347 618,347 618,347 619,347 620,347 621,347 622,347 623,347 624,347 625,347 626,347 626,347 627,347 628,347 629,346 630,346 631,346 632,346 633,346 634,346 635,346 635,346 636,346 637,346 638,346 639,346 640,346 641,346 642,346 643,346 643,346 644,346 645,346 646,346 647,346 648,346 649,346 650,346 651,346 652,346 652,346 653,346 654,346 655,346 656,346 657,346 658,346 659,346 660,346 660,346 661,346 662,346 663,346 664,346 665,346 666,346 667,346 668,346 668,346 669,346 670,346 671,346 672,346 673,346 674,346 675,346 676,346 677,346 677,346 678,346 679,346 680,346 681,346 682,346 683,346 684,346 685,346 685,346 686,346 687,346 688,346 689,346 690,346 691,346 692,346 693,346 694,346 694,346 695,346 696,346 697,346 698,346 699,346 700,346 701,346 702,346 702,346 703,346 704,346 705,346 706,346 707,346 708,346 709,346 710,346 710,346 711,346 712,346 713,346 714,346 715,346 716,346 717,346 718,346 719,346 719,346 720,346 721,346 722,346 723,346 724,346 725,346 726,346 727,346 727,346 728,346 729,346 730,346 731,346 732,346 733,346 734,346 735,346 736,346 736,346 737,346 738,346 739,346 740,346 741,346 742,346 743,346 744,346 744,346 745,346 746,346 747,346 748,346 749,346 750,346 751,346 752,346 753,346 753,346 754,346 755,346 756,346 757,346 758,346 759,346 760,346 761,346 761,345 762,345 763,345 764,345 765,345 766,345 767,345 768,345 769,345 769,345 770,345 771,345 772,345 773,345 774,345 775,345 776,345 777,345 778,345 778,345 779,345 780,345 781,345 782,345 783,345 784,345 785,345 786,345 786,345 787,345 788,345 789,345 790,345 791,345 792,345 793,345 794,345 795,345 795,345 796,345 797,345 798,345 799,345 800,345 801,345 802,345 803,345 803,345 804,345 805,345 806,345 807,345 808,345 809,345 810,345 811,345 811,345 812,345 813,345 814,345 815,345 816,345 817,345 818,345 819,345 820,345 820,345 821,345 822,345 823,345 824,345 825,345 826,345 827,345 828,345 828,345 829,345 830,345 831,345 832,345 833,345 834,345 835,345 836,345 837,345 837,345 838,345 839,345 840,345 841,345 842,344 843,344 844,344 845,344 845,344 846,344 847,344 848,344 849,344 850,344 851,344 852,344 853,344 853,344 854,344 855,344 856,344 857,344 858,344 859,344 860,344 861,344 862,344 862,344 863,344 864,344 865,344 866,344 867,344 868,344 869,344 870,344 870,344 871,344 872,344 873,344 874,344 875,344 876,344 877,344 878,344 879,344 879,344 880,344 881,344 882,344 883,344 884,344 885,344 886,344 887,344 887,344 888,344 889,344 890,344 891,344 892,344 893,344 894,344 895,344 895,344 896,344 897,344 898,344 899,344 900,344 901,344 902,344 903,344 904,344 904,344 905,344 906,344 907,344 908,344 909,344 910,344 911,344 912,344 912,344 913,344 914,344 915,344 916,344 917,344 918,344 919,344 920,344 921,344 921,344 922,344 923,344 924,344 925,344 926,344 927,344 928,344 929,344 929,344 930,344 931,344 932,344 933,344 934,344 935,344 936,344 937,344 937,344 938,344 939,344 940,344 941,344 942,344 943,344 944,344 945,344 946,344 946,344 947,344 948,344 949,344 950,344 951,344 952,344 953,344 954,344 954,344 955,344 956,344 957,344 958,344 959,344 960,344 961,344 962,344 963,344 963,344 964,344 965,344 966,344 967,344 968,344 969,344 970,344 971,344 971,344 973,344 973,699 78,699 "/>
<polyline fill="none" opacity="1" stroke="#E6194B" stroke-width="1" points="78,699 79,699 80,699 80,699 81,699 82,699 83,699 84,699 85,699 86,699 87,699 88,699 89,699 89,699 90,699 91,699 92,699 93,699 94,699 95,699 96,699 97,699 97,699 98,699 99,699 100,699 101,699 102,699 103,699 104,571 105,571 106,541 106,541 107,541 108,541 109,541 110,541 111,541 112,541 113,541 114,541 114,541 115,541 116,541 117,541 118,541 119,541 120,541 121,541 122,541 122,541 123,541 124,541 125,541 126,541 127,541 128,541 129,541 130,541 131,541 131,541 132,541 133,541 134,541 135,541 136,541 137,541 138,541 139,541 139,541 140,541 141,541 142,541 143,541 144,541 145,541 146,541 147,541 148,541 148,541 149,541 150,541 151,541 152,541 153,541 154,541 155,541 156,541 156,541 157,541 158,541 159,541 160,541 161,541 162,541 163,541 164,541 164,541 165,541 166,541 167,541 168,541 169,541 170,541 171,541 172,541 173,541 173,541 174,541 175,541 176,541 177,541 178,541 179,541 180,541 181,541 181,541 182,541 183,541 184,541 185,541 186,541 187,541 188,541 189,541 190,541 190,541 191,541 192,541 193,541 194,541 195,541 196,541 197,541 198,541 198,541 199,541 200,541 201,541 202,541 203,541 204,541 205,541 206,541 206,541 207,541 208,541 209,541 210,541 211,541 212,541 213,541 214,541 215,541 215,541 216,541 217,541 218,541 219,541 220,541 221,541 222,541 223,541 223,541 224,541 225,541 226,541 227,541 228,541 229,541 230,541 231,541 232,541 232,541 233,541 234,541 235,541 236,541 237,541 238,541 239,541 240,541 240,541 241,541 242,541 243,541 244,541 245,541 246,541 247,541 248,541 248,541 249,541 250,541 251,541 252,541 253,541 254,541 255,541 256,541 257,541 257,541 258,541 259,541 260,541 261,541 262,541 263,541 264,541 265,541 265,541 266,541 267,541 268,541 269,541 270,541 271,541 272,541 273,541 274,541 274,541 275,541 276,541 277,541 278,541 279,541 280,541 281,541 282,541 282,541 283,541 284,541 285,541 286,541 287,541 288,541 289,541 290,541 290,541 291,541 292,541 293,541 294,541 295,541 296,541 297,541 298,541 299,541 299,541 300,541 301,541 302,541 303,541 304,541 305,541 306,541 307,541 307,541 308,541 309,541 310,541 311,541 312,541 313,541 314,541 315,541 316,541 316,541 317,541 318,541 319,541 320,541 321,541 322,541 323,541 324,541 324,541 325,541 326,541 327,541 328,541 329,541 330,541 331,541 332,541 332,541 333,541 334,541 335,541 336,541 337,541 338,541 339,541 340,541 341,541 341,541 342,541 343,541 344,541 345,541 346,541 347,541 348,541 349,541 349,541 350,541 351,541 352,541 353,541 354,541 355,541 356,541 357,541 358,541 358,541 359,541 360,541 361,541 362,541 363,541 364,541 365,541 366,541 366,541 367,541 368,541 369,541 370,541 371,541 372,541 373,541 374,541 374,541 375,541 376,541 377,541 378,541 379,541 380,541 381,541 382,541 383,541 383,541 384,541 385,541 386,541 387,541 388,541 389,541 390,541 391,541 391,541 392,541 393,541 394,541 395,541 396,541 397,541 398,541 399,541 400,541 400,541 401,541 402,541 403,541 404,541 405,541 406,541 407,541 408,541 408,541 409,541 410,541 411,541 412,541 413,541 414,541 415,541 416,540 416,540 417,540 418,540 419,540 420,540 421,540 422,540 423,540 424,540 425,540 425,540 426,540 427,540 428,540 429,540 430,540 431,540 432,540 433,540 433,540 434,540 435,540 436,540 437,540 438,540 439,540 440,540 441,540 442,540 442,540 443,540 444,540 445,540 446,540 447,540 448,540 449,540 450,540 450,528 451,528 452,528 453,528 454,528 455,528 456,528 457,528 458,528 458,528 459,528 460,528 461,528 462,528 463,528 464,528 465,528 466,528 467,528 467,528 468,528 469,528 470,528 471,528 472,528 473,528 474,528 475,528 475,528 476,528 477,528 478,528 479,528 480,528 481,528 482,528 483,528 484,528 484,528 485,528 486,528 487,528 488,528 489,528 490,528 491,528 492,528 492,528 493,528 494,528 495,528 496,528 497,528 498,528 499,528 500,528 500,528 501,528 502,528 503,528 504,528 505,528 506,528 507,528 508,528 509,528 509,528 510,528 511,528 512,528 513,528 514,528 515,528 516,528 517,528 517,528 518,528 519,528 520,528 521,528 522,528 523,528 524,528 525,528 526,528 526,528 527,528 528,528 529,528 530,528 531,528 532,528 533,528 534,528 534,528 535,347 535,347 536,347 537,347 538,347 539,347 540,347 541,347 542,347 542,347 543,347 544,347 545,347 546,347 547,347 548,347 549,347 550,347 551,347 551,347 552,347 553,347 554,347 555,347 556,347 557,347 558,347 559,347 559,347 560,347 561,347 562,347 563,347 564,347 565,347 566,347 567,347 568,347 568,347 569,347 570,347 571,347 572,347 573,347 574,347 575,347 576,347 576,347 577,347 578,347 579,347 580,347 581,347 582,347 583,347 584,347 584,347 585,347 586,347 587,347 588,347 589,347 590,347 591,347 592,347 593,347 593,347 594,347 595,347 596,347 597,347 598,347 599,347 600,347 601,347 601,347 602,347 603,347 604,347 605,347 606,347 607,347 608,347 609,347 610,347 610,347 611,347 612,347 613,347 614,347 615,347 616,347 617,347 618,347 618,347 619,347 620,347 621,347 622,347 623,347 624,347 625,347 626,347 626,347 627,347 628,347 629,346 630,346 631,346 632,346 633,346 634,346 635,346 635,346 636,346 637,346 638,346 639,346 640,346 641,346 642,346 643,346 643,346 644,346 645,346 646,346 647,346 648,346 649,346 650,346 651,346 652,346 652,346 653,346 654,346 655,346 656,346 657,346 658,346 659,346 660,346 660,346 661,346 662,346 663,346 664,346 665,346 666,346 667,346 668,346 668,346 669,346 670,346 671,346 672,346 673,346 674,346 675,346 676,346 677,346 677,346 678,346 679,346 680,346 681,346 682,346 683,346 684,346 685,346 685,346 686,346 687,346 688,346 689,346 690,346 691,346 692,346 693,346 694,346 694,346 695,346 696,346 697,346 698,346 699,346 700,346 701,346 702,346 702,346 703,346 704,346 705,346 706,346 707,346 708,346 709,346 710,346 710,346 711,346 712,346 713,346 714,346 715,346 716,346 717,346 718,346 719,346 719,346 720,346 721,346 722,346 723,346 724,346 725,346 726,346 727,346 727,346 728,346 729,346 730,346 731,346 732,346 733,346 734,346 735,346 736,346 736,346 737,346 738,346 739,346 740,346 741,346 742,346 743,346 744,346 744,346 745,346 746,346 747,346 748,346 749,346 750,346 751,346 752,346 753,346 753,346 754,346 755,346 756,346 757,346 758,346 759,346 760,346 761,346 761,345 762,345 763,345 764,345 765,345 766,345 767,345 768,345 769,345 769,345 770,345 771,345 772,345 773,345 774,345 775,345 776,345 777,345 778,345 778,345 779,345 780,345 781,345 782,345 783,345 784,345 785,345 786,345 786,345 787,345 788,345 789,345 790,345 791,345 792,345 793,345 794,345 795,345 795,345 796,345 797,345 798,345 799,345 800,345 801,345 802,345 803,345 803,345 804,345 805,345 806,345 807,345 808,345 809,345 810,345 811,345 811,345 812,345 813,345 814,345 815,345 816,345 817,345 818,345 819,345 820,345 820,345 821,345 822,345 823,345 824,345 825,345 826,345 827,345 828,345 828,345 829,345 830,345 831,345 832,345 833,345 834,345 835,345 836,345 837,345 837,345 838,345 839,345 840,345 841,345 842,344 843,344 844,344 845,344 845,344 846,344 847,344 848,344 849,344 850,344 851,344 852,344 853,344 853,344 854,344 855,344 856,344 857,344 858,344 859,344 860,344 861,344 862,344 862,344 863,344 864,344 865,344 866,344 867,344 868,344 869,344 870,344 870,344 871,344 872,344 873,344 874,344 875,344 876,344 877,344 878,344 879,344 879,344 880,344 881,344 882,344 883,344 884,344 885,344 886,344 887,344 887,344 888,344 889,344 890,344 891,344 892,344 893,344 894,344 895,344 895,344 896,344 897,344 898,344 899,344 900,344 901,344 902,344 903,344 904,344 904,344 905,344 906,344 907,344 908,344 909,344 910,344 911,344 912,344 912,344 913,344 914,344 915,344 916,344 917,344 918,344 919,344 920,344 921,344 921,344 922,344 923,344 924,344 925,344 926,344 927,344 928,344 929,344 929,344 930,344 931,344 932,344 933,344 934,344 935,344 936,344 937,344 937,344 938,344 939,344 940,344 941,344 942,344 943,344 944,344 945,344 946,344 946,344 947,344 948,344 949,344 950,344 951,344 952,344 953,344 954,344 954,344 955,344 956,344 957,344 958,344 959,344 960,344 961,344 962,344 963,344 963,344 964,344 965,344 966,344 967,344 968,344 969,344 970,344 971,344 971,344 973,344 "/>
<line opacity="0.1" stroke="#000000" stroke-width="1" x1="84" y1="699" x2="84" y2="68"/>
<line opacity="0.1" stroke="#000000" stroke-width="1" x1="94" y1="699" x2="94" y2="68"/>
<line opacity="0.1" stroke="#000000" stroke-width="1" x1="105" y1="699" x2="105" y2="68"/>
<line opacity="0.1" stroke="#000000" stroke-width="1" x1="115" y1="699" x2="115" y2="68"/>
<line opacity="0.1" stroke="#000000" stroke-width="1" x1="126" y1="699" x2="126" y2="68"/>
<line opacity="0.1" stroke="#000000" stroke-width="1" x1="137" y1="699" x2="137" y2="68"/>
<line opacity="0.1" stroke="#000000" stroke-width="1" x1="147" y1="699" x2="147" y2="68"/>
<line opacity="0.1" stroke="#000000" stroke-width="1" x1="158" y1="699" x2="158" y2="68"/>
<line opacity="0.1" stroke="#000000" stroke-width="1" x1="168" y1="699" x2="168" y2="68"/>
<line opacity="0.1" stroke="#000000" stroke-width="1" x1="179" y1="699" x2="179" y2="68"/>
<line opacity="0.1" stroke="#000000" stroke-width="1" x1="189" y1="699" x2="189" y2="68"/>
<line opacity="0.1" stroke="#000000" stroke-width="1" x1="200" y1="699" x2="200" y2="68"/>
<line opacity="0.1" stroke="#000000" stroke-width="1" x1="211" y1="699" x2="211" y2="68"/>
<line opacity="0.1" stroke="#000000" stroke-width="1" x1="221" y1="699" x2="221" y2="68"/>
<line opacity="0.1" stroke="#000000" stroke-width="1" x1="232" y1="699" x2="232" y2="68"/>
<line opacity="0.1" stroke="#000000" stroke-width="1" x1="242" y1="699" x2="242" y2="68"/>
<line opacity="0.1" stroke="#000000" stroke-width="1" x1="253" y1="699" x2="253" y2="68"/>
<line opacity="0.1" stroke="#000000" stroke-width="1" x1="264" y1="699" x2="264" y2="68"/>
<line opacity="0.1" stroke="#000000" stroke-width="1" x1="274" y1="699" x2="274" y2="68"/>
<line opacity="0.1" stroke="#000000" stroke-width="1" x1="285" y1="699" x2="285" y2="68"/>
<line opacity="0.1" stroke="#000000" stroke-width="1" x1="295" y1="699" x2="295" y2="68"/>
<line opacity="0.1" stroke="#000000" stroke-width="1" x1="306" y1="699" x2="306" y2="68"/>
<line opacity="0.1" stroke="#000000" stroke-width="1" x1="316" y1="699" x2="316" y2="68"/>
<line opacity="0.1" stroke="#000000" stroke-width="1" x1="327" y1="699" x2="327" y2="68"/>
<line opacity="0.1" stroke="#000000" stroke-width="1" x1="338" y1="699" x2="338" y2="68"/>
<line opacity="0.1" stroke="#000000" stroke-width="1" x1="348" y1="699" x2="348" y2="68"/>
<line opacity="0.1" stroke="#000000" stroke-width="1" x1="359" y1="699" x2="359" y2="68"/>
<line opacity="0.1" stroke="#000000" stroke-width="1" x1="369" y1="699" x2="369" y2="68"/>
<line opacity="0.1" stroke="#000000" stroke-width="1" x1="380" y1="699" x2="380" y2="68"/>
<line opacity="0.1" stroke="#000000" stroke-width="1" x1="390" y1="699" x2="390" y2="68"/>
<line opacity="0.1" stroke="#000000" stroke-width="1" x1="401" y1="699" x2="401" y2="68"/>
<line opacity="0.1" stroke="#000000" stroke-width="1" x1="412" y1="699" x2="412" y2="68"/>
<line opacity="0.1" stroke="#000000" stroke-width="1" x1="422" y1="699" x2="422" y2="68"/>
<line opacity="0.1" stroke="#000000" stroke-width="1" x1="433" y1="699" x2="433" y2="68"/>
<line opacity="0.1" stroke="#000000" stroke-width="1" x1="443" y1="699" x2="443" y2="68"/>
<line opacity="0.1" stroke="#000000" stroke-width="1" x1="454" y1="699" x2="454" y2="68"/>
<line opacity="0.1" stroke="#000000" stroke-width="1" x1="464" y1="699" x2="464" y2="68"/>
<line opacity="0.1" stroke="#000000" stroke-width="1" x1="475" y1="699" x2="475" y2="68"/>
<line opacity="0.1" stroke="#000000" stroke-width="1" x1="486" y1="699" x2="486" y2="68"/>
<line opacity="0.1" stroke="#000000" stroke-width="1" x1="496" y1="699" x2="496" y2="68"/>
<line opacity="0.1" stroke="#000000" stroke-width="1" x1="507" y1="699" x2="507" y2="68"/>
<line opacity="0.1" stroke="#000000" stroke-width="1" x1="517" y1="699" x2="517" y2="68"/>
<line opacity="0.1" stroke="#000000" stroke-width="1" x1="528" y1="699" x2="528" y2="68"/>
<line opacity="0.1" stroke="#000000" stroke-width="1" x1="538" y1="699" x2="538" y2="68"/>
<line opacity="0.1" stroke="#000000" stroke-width="1" x1="549" y1="699" x2="549" y2="68"/>
<line opacity="0.1" stroke="#000000" stroke-width="1" x1="560" y1="699" x2="560" y2="68"/>
<line opacity="0.1" stroke="#000000" stroke-width="1" x1="570" y1="699" x2="570" y2="68"/>
<line opacity="0.1" stroke="#000000" stroke-width="1" x1="581" y1="699" x2="581" y2="68"/>
<line opacity="0.1" stroke="#000000" stroke-width="1" x1="591" y1="699" x2="591" y2="68"/>
<line opacity="0.1" stroke="#000000" stroke-width="1" x1="602" y1="699" x2="602" y2="68"/>
<line opacity="0.1" stroke="#000000" stroke-width="1" x1="612" y1="699" x2="612" y2="68"/>
<line opacity="0.1" stroke="#000000" stroke-width="1" x1="623" y1="699" x2="623" y2="68"/>
<line opacity="0.1" stroke="#000000" stroke-width="1" x1="634" y1="699" x2="634" y2="68"/>
<line opacity="0.1" stroke="#000000" stroke-width="1" x1="644" y1="699" x2="644" y2="68"/>
<line opacity="0.1" stroke="#000000" stroke-width="1" x1="655" y1="699" x2="655" y2="68"/>
<line opacity="0.1" stroke="#000000" stroke-width="1" x1="665" y1="699" x2="665" y2="68"/>
<line opacity="0.1" stroke="#000000" stroke-width="1" x1="676" y1="699" x2="676" y2="68"/>
<line opacity="0.1" stroke="#000000" stroke-width="1" x1="687" y1="699" x2="687" y2="68"/>
<line opacity="0.1" stroke="#000000" stroke-width="1" x1="697" y1="699" x2="697" y2="68"/>
<line opacity="0.1" stroke="#000000" stroke-width="1" x1="708" y1="699" x2="708" y2="68"/>
<line opacity="0.1" stroke="#000000" stroke-width="1" x1="718" y1="699" x2="718" y2="68"/>
<line opacity="0.1" stroke="#000000" stroke-width="1" x1="729" y1="699" x2="729" y2="68"/>
<line opacity="0.1" stroke="#000000" stroke-width="1" x1="739" y1="699" x2="739" y2="68"/>
<line opacity="0.1" stroke="#000000" stroke-width="1" x1="750" y1="699" x2="750" y2="68"/>
<line opacity="0.1" stroke="#000000" stroke-width="1" x1="761" y1="699" x2="761" y2="68"/>
<line opacity="0.1" stroke="#000000" stroke-width="1" x1="771" y1="699" x2="771" y2="68"/>
<line opacity="0.1" stroke="#000000" stroke-width="1" x1="782" y1="699" x2="782" y2="68"/>
<line opacity="0.1" stroke="#000000" stroke-width="1" x1="792" y1="699" x2="792" y2="68"/>
<line opacity="0.1" stroke="#000000" stroke-width="1" x1="803" y1="699" x2="803" y2="68"/>
<line opacity="0.1" stroke="#000000" stroke-width="1" x1="813" y1="699" x2="813" y2="68"/>
<line opacity="0.1" stroke="#000000" stroke-width="1" x1="824" y1="699" x2="824" y2="68"/>
<line opacity="0.1" stroke="#000000" stroke-width="1" x1="835" y1="699" x2="835" y2="68"/>
<line opacity="0.1" stroke="#000000" stroke-width="1" x1="845" y1="699" x2="845" y2="68"/>
<line opacity="0.1" stroke="#000000" stroke-width="1" x1="856" y1="699" x2="856" y2="68"/>
<line opacity="0.1" stroke="#000000" stroke-width="1" x1="866" y1="699" x2="866" y2="68"/>
<line opacity="0.1" stroke="#000000" stroke-width="1" x1="877" y1="699" x2="877" y2="68"/>
<line opacity="0.1" stroke="#000000" stroke-width="1" x1="887" y1="699" x2="887" y2="68"/>
<line opacity="0.1" stroke="#000000" stroke-width="1" x1="898" y1="699" x2="898" y2="68"/>
<line opacity="0.1" stroke="#000000" stroke-width="1" x1="909" y1="699" x2="909" y2="68"/>
<line opacity="0.1" stroke="#000000" stroke-width="1" x1="919" y1="699" x2="919" y2="68"/>
<line opacity="0.1" stroke="#000000" stroke-width="1" x1="930" y1="699" x2="930" y2="68"/>
<line opacity="0.1" stroke="#000000" stroke-width="1" x1="940" y1="699" x2="940" y2="68"/>
<line opacity="0.1" stroke="#000000" stroke-width="1" x1="951" y1="699" x2="951" y2="68"/>
<line opacity="0.1" stroke="#000000" stroke-width="1" x1="961" y1="699" x2="961" y2="68"/>
<line opacity="0.1" stroke="#000000" stroke-width="1" x1="972" y1="699" x2="972" y2="68"/>
<line opacity="0.1" stroke="#000000" stroke-width="1" x1="78" y1="699" x2="973" y2="699"/>
<line opacity="0.1" stroke="#000000" stroke-width="1" x1="78" y1="689" x2="973" y2="689"/>
<line opacity="0.1" stroke="#000000" stroke-width="1" x1="78" y1="680" x2="973" y2="680"/>
<line opacity="0.1" stroke="#000000" stroke-width="1" x1="78" y1="671" x2="973" y2="671"/>
<line opacity="0.1" stroke="#000000" stroke-width="1" x1="78" y1="662" x2="973" y2="662"/>
<line opacity="0.1" stroke="#000000" stroke-width="1" x1="78" y1="653" x2="973" y2="653"/>
<line opacity="0.1" stroke="#000000" stroke-width="1" x1="78" y1="644" x2="973" y2="644"/>
<line opacity="0.1" stroke="#000000" stroke-width="1" x1="78" y1="634" x2="973" y2="634"/>
<line opacity="0.1" stroke="#000000" stroke-width="1" x1="78" y1="625" x2="973" y2="625"/>
<line opacity="0.1" stroke="#000000" stroke-width="1" x1="78" y1="616" x2="973" y2="616"/>
<line opacity="0.1" stroke="#000000" stroke-width="1" x1="78" y1="607" x2="973" y2="607"/>
<line opacity="0.1" stroke="#000000" stroke-width="1" x1="78" y1="598" x2="973" y2="598"/>
<line opacity="0.1" stroke="#000000" stroke-width="1" x1="78" y1="589" x2="973" y2="589"/>
<line opacity="0.1" stroke="#000000" stroke-width="1" x1="78" y1="580" x2="973" y2="580"/>
<line opacity="0.1" stroke="#000000" stroke-width="1" x1="78" y1="570" x2="973" y2="570"/>
<line opacity="0.1" stroke="#000000" stroke-width="1" x1="78" y1="561" x2="973" y2="561"/>
<line opacity="0.1" stroke="#000000" stroke-width="1" x1="78" y1="552" x2="973" y2="552"/>
<line opacity="0.1" stroke="#000000" stroke-width="1" x1="78" y1="543" x2="973" y2="543"/>
<line opacity="0.1" stroke="#000000" stroke-width="1" x1="78" y1="534" x2="973" y2="534"/>
<line opacity="0.1" stroke="#000000" stroke-width="1" x1="78" y1="525" x2="973" y2="525"/>
<line opacity="0.1" stroke="#000000" stroke-width="1" x1="78" y1="516" x2="973" y2="516"/>
<line opacity="0.1" stroke="#000000" stroke-width="1" x1="78" y1="506" x2="973" y2="506"/>
<line opacity="0.1" stroke="#000000" stroke-width="1" x1="78" y1="497" x2="973" y2="497"/>
<line opacity="0.1" stroke="#000000" stroke-width="1" x1="78" y1="488" x2="973" y2="488"/>
<line opacity="0.1" stroke="#000000" stroke-width="1" x1="78" y1="479" x2="973" y2="479"/>
<line opacity="0.1" stroke="#000000" stroke-width="1" x1="78" y1="470" x2="973" y2="470"/>
<line opacity="0.1" stroke="#000000" stroke-width="1" x1="78" y1="461" x2="973" y2="461"/>
<line opacity="0.1" stroke="#000000" stroke-width="1" x1="78" y1="451" x2="973" y2="451"/>
<line opacity="0.1" stroke="#000000" stroke-width="1" x1="78" y1="442" x2="973" y2="442"/>
<line opacity="0.1" stroke="#000000" stroke-width="1" x1="78" y1="433" x2="973" y2="433"/>
<line opacity="0.1" stroke="#000000" stroke-width="1" x1="78" y1="424" x2="973" y2="424"/>
<line opacity="0.1" stroke="#000000" stroke-width="1" x1="78" y1="415" x2="973" y2="415"/>
<line opacity="0.1" stroke="#000000" stroke-width="1" x1="78" y1="406" x2="973" y2="406"/>
<line opacity="0.1" stroke="#000000" stroke-width="1" x1="78" y1="397" x2="973" y2="397"/>
<line opacity="0.1" stroke="#000000" stroke-width="1" x1="78" y1="387" x2="973" y2="387"/>
<line opacity="0.1" stroke="#000000" stroke-width="1" x1="78" y1="378" x2="973" y2="378"/>
<line opacity="0.1" stroke="#000000" stroke-width="1" x1="78" y1="369" x2="973" y2="369"/>
<line opacity="0.1" stroke="#000000" stroke-width="1" x1="78" y1="360" x2="973" y2="360"/>
<line opacity="0.1" stroke="#000000" stroke-width="1" x1="78" y1="351" x2="973" y2="351"/>
<line opacity="0.1" stroke="#000000" stroke-width="1" x1="78" y1="342" x2="973" y2="342"/>
<line opacity="0.1" stroke="#000000" stroke-width="1" x1="78" y1="333" x2="973" y2="333"/>
<line opacity="0.1" stroke="#000000" stroke-width="1" x1="78" y1="323" x2="973" y2="323"/>
<line opacity="0.1" stroke="#000000" stroke-width="1" x1="78" y1="314" x2="973" y2="314"/>
<line opacity="0.1" stroke="#000000" stroke-width="1" x1="78" y1="305" x2="973" y2="305"/>
<line opacity="0.1" stroke="#000000" stroke-width="1" x1="78" y1="296" x2="973" y2="296"/>
<line opacity="0.1" stroke="#000000" stroke-width="1" x1="78" y1="287" x2="973" y2="287"/>
<line opacity="0.1" stroke="#000000" stroke-width="1" x1="78" y1="278" x2="973" y2="278"/>
<line opacity="0.1" stroke="#000000" stroke-width="1" x1="78" y1="268" x2="973" y2="268"/>
<line opacity="0.1" stroke="#000000" stroke-width="1" x1="78" y1="259" x2="973" y2="259"/>
<line opacity="0.1" stroke="#000000" stroke-width="1" x1="78" y1="250" x2="973" y2="250"/>
<line opacity="0.1" stroke="#000000" stroke-width="1" x1="78" y1="241" x2="973" y2="241"/>
<line opacity="0.1" stroke="#000000" stroke-width="1" x1="78" y1="232" x2="973" y2="232"/>
<line opacity="0.1" stroke="#000000" stroke-width="1" x1="78" y1="223" x2="973" y2="223"/>
<line opacity="0.1" stroke="#000000" stroke-width="1" x1="78" y1="214" x2="973" y2="214"/>
<line opacity="0.1" stroke="#000000" stroke-width="1" x1="78" y1="204" x2="973" y2="204"/>
<line opacity="0.1" stroke="#000000" stroke-width="1" x1="78" y1="195" x2="973" y2="195"/>
<line opacity="0.1" stroke="#000000" stroke-width="1" x1="78" y1="186" x2="973" y2="186"/>
<line opacity="0.1" stroke="#000000" stroke-width="1" x1="78" y1="177" x2="973" y2="177"/>
<line opacity="0.1" stroke="#000000" stroke-width="1" x1="78" y1="168" x2="973" y2="168"/>
<line opacity="0.1" stroke="#000000" stroke-width="1" x1="78" y1="159" x2="973" y2="159"/>
<line opacity="0.1" stroke="#000000" stroke-width="1" x1="78" y1="150" x2="973" y2="150"/>
<line opacity="0.1" stroke="#000000" stroke-width="1" x1="78" y1="140" x2="973" y2="140"/>
<line opacity="0.1" stroke="#000000" stroke-width="1" x1="78" y1="131" x2="973" y2="131"/>
<line opacity="0.1" stroke="#000000" stroke-width="1" x1="78" y1="122" x2="973" y2="122"/>
<line opacity="0.1" stroke="#000000" stroke-width="1" x1="78" y1="113" x2="973" y2="113"/>
<line opacity="0.1" stroke="#000000" stroke-width="1" x1="78" y1="104" x2="973" y2="104"/>
<line opacity="0.1" stroke="#000000" stroke-width="1" x1="78" y1="95" x2="973" y2="95"/>
<line opacity="0.1" stroke="#000000" stroke-width="1" x1="78" y1="85" x2="973" y2="85"/>
<line opacity="0.1" stroke="#000000" stroke-width="1" x1="78" y1="76" x2="973" y2="76"/>
<text x="8" y="384" dy="0.76em" text-anchor="middle" font-family="sans-serif" font-size="9.67741935483871" opacity="1" fill="#000000" transform="rotate(270, 8, 384)">
Memory usage
</text>
<text x="526" y="760" dy="-0.5ex" text-anchor="middle" font-family="sans-serif" font-size="9.67741935483871" opacity="1" fill="#000000">
Time
</text>
<line opacity="0.2" stroke="#000000" stroke-width="1" x1="105" y1="699" x2="105" y2="68"/>
<line opacity="0.2" stroke="#000000" stroke-width="1" x1="211" y1="699" x2="211" y2="68"/>
<line opacity="0.2" stroke="#000000" stroke-width="1" x1="316" y1="699" x2="316" y2="68"/>
<line opacity="0.2" stroke="#000000" stroke-width="1" x1="422" y1="699" x2="422" y2="68"/>
<line opacity="0.2" stroke="#000000" stroke-width="1" x1="528" y1="699" x2="528" y2="68"/>
<line opacity="0.2" stroke="#000000" stroke-width="1" x1="634" y1="699" x2="634" y2="68"/>
<line opacity="0.2" stroke="#000000" stroke-width="1" x1="739" y1="699" x2="739" y2="68"/>
<line opacity="0.2" stroke="#000000" stroke-width="1" x1="845" y1="699" x2="845" y2="68"/>
<line opacity="0.2" stroke="#000000" stroke-width="1" x1="951" y1="699" x2="951" y2="68"/>
<line opacity="0.2" stroke="#000000" stroke-width="1" x1="78" y1="699" x2="973" y2="699"/>
<line opacity="0.2" stroke="#000000" stroke-width="1" x1="78" y1="607" x2="973" y2="607"/>
<line opacity="0.2" stroke="#000000" stroke-width="1" x1="78" y1="516" x2="973" y2="516"/>
<line opacity="0.2" stroke="#000000" stroke-width="1" x1="78" y1="424" x2="973" y2="424"/>
<line opacity="0.2" stroke="#000000" stroke-width="1" x1="78" y1="333" x2="973" y2="333"/>
<line opacity="0.2" stroke="#000000" stroke-width="1" x1="78" y1="241" x2="973" y2="241"/>
<line opacity="0.2" stroke="#000000" stroke-width="1" x1="78" y1="150" x2="973" y2="150"/>
<polyline fill="none" opacity="1" stroke="#000000" stroke-width="1" points="77,68 77,699 "/>
<text x="68" y="699" dy="0.5ex" text-anchor="end" font-family="sans-serif" font-size="9.67741935483871" opacity="1" fill="#000000">
0.0 MB
</text>
<polyline fill="none" opacity="1" stroke="#000000" stroke-width="1" points="72,699 77,699 "/>
<text x="68" y="607" dy="0.5ex" text-anchor="end" font-family="sans-serif" font-size="9.67741935483871" opacity="1" fill="#000000">
9.5 MB
</text>
<polyline fill="none" opacity="1" stroke="#000000" stroke-width="1" points="72,607 77,607 "/>
<text x="68" y="516" dy="0.5ex" text-anchor="end" font-family="sans-serif" font-size="9.67741935483871" opacity="1" fill="#000000">
19.1 MB
</text>
<polyline fill="none" opacity="1" stroke="#000000" stroke-width="1" points="72,516 77,516 "/>
<text x="68" y="424" dy="0.5ex" text-anchor="end" font-family="sans-serif" font-size="9.67741935483871" opacity="1" fill="#000000">
28.6 MB
</text>
<polyline fill="none" opacity="1" stroke="#000000" stroke-width="1" points="72,424 77,424 "/>
<text x="68" y="333" dy="0.5ex" text-anchor="end" font-family="sans-serif" font-size="9.67741935483871" opacity="1" fill="#000000">
38.1 MB
</text>
<polyline fill="none" opacity="1" stroke="#000000" stroke-width="1" points="72,333 77,333 "/>
<text x="68" y="241" dy="0.5ex" text-anchor="end" font-family="sans-serif" font-size="9.67741935483871" opacity="1" fill="#000000">
47.7 MB
</text>
<polyline fill="none" opacity="1" stroke="#000000" stroke-width="1" points="72,241 77,241 "/>
<text x="68" y="150" dy="0.5ex" text-anchor="end" font-family="sans-serif" font-size="9.67741935483871" opacity="1" fill="#000000">
57.2 MB
</text>
<polyline fill="none" opacity="1" stroke="#000000" stroke-width="1" points="72,150 77,150 "/>
<polyline fill="none" opacity="1" stroke="#000000" stroke-width="1" points="78,700 973,700 "/>
<text x="105" y="710" dy="0.76em" text-anchor="middle" font-family="sans-serif" font-size="9.67741935483871" opacity="1" fill="#000000">
07 20:33:20
</text>
<polyline fill="none" opacity="1" stroke="#000000" stroke-width="1" points="105,700 105,705 "/>
<text x="211" y="710" dy="0.76em" text-anchor="middle" font-family="sans-serif" font-size="9.67741935483871" opacity="1" fill="#000000">
08 10:26:40
</text>
<polyline fill="none" opacity="1" stroke="#000000" stroke-width="1" points="211,700 211,705 "/>
<text x="316" y="710" dy="0.76em" text-anchor="middle" font-family="sans-serif" font-size="9.67741935483871" opacity="1" fill="#000000">
09 00:20:00
</text>
<polyline fill="none" opacity="1" stroke="#000000" stroke-width="1" points="316,700 316,705 "/>
<text x="422" y="710" dy="0.76em" text-anchor="middle" font-family="sans-serif" font-size="9.67741935483871" opacity="1" fill="#000000">
09 14:13:20
</text>
<polyline fill="none" opacity="1" stroke="#000000" stroke-width="1" points="422,700 422,705 "/>
<text x="528" y="710" dy="0.76em" text-anchor="middle" font-family="sans-serif" font-size="9.67741935483871" opacity="1" fill="#000000">
10 04:06:40
</text>
<polyline fill="none" opacity="1" stroke="#000000" stroke-width="1" points="528,700 528,705 "/>
<text x="634" y="710" dy="0.76em" text-anchor="middle" font-family="sans-serif" font-size="9.67741935483871" opacity="1" fill="#000000">
10 18:00:00
</text>
<polyline fill="none" opacity="1" stroke="#000000" stroke-width="1" points="634,700 634,705 "/>
<text x="739" y="710" dy="0.76em" text-anchor="middle" font-family="sans-serif" font-size="9.67741935483871" opacity="1" fill="#000000">
11 07:53:20
</text>
<polyline fill="none" opacity="1" stroke="#000000" stroke-width="1" points="739,700 739,705 "/>
<text x="845" y="710" dy="0.76em" text-anchor="middle" font-family="sans-serif" font-size="9.67741935483871" opacity="1" fill="#000000">
11 21:46:40
</text>
<polyline fill="none" opacity="1" stroke="#000000" stroke-width="1" points="845,700 845,705 "/>
<text x="951" y="710" dy="0.76em" text-anchor="middle" font-family="sans-serif" font-size="9.67741935483871" opacity="1" fill="#000000">
12 11:40:00
</text>
<polyline fill="none" opacity="1" stroke="#000000" stroke-width="1" points="951,700 951,705 "/>
<polyline fill="none" opacity="1" stroke="#000000" stroke-width="1" points="78,67 974,67 "/>
<text x="105" y="58" dy="-0.5ex" text-anchor="middle" font-family="sans-serif" font-size="9.67741935483871" opacity="1" fill="#000000">
+03:35:44
</text>
<polyline fill="none" opacity="1" stroke="#000000" stroke-width="1" points="105,62 105,67 "/>
<text x="211" y="58" dy="-0.5ex" text-anchor="middle" font-family="sans-serif" font-size="9.67741935483871" opacity="1" fill="#000000">
+17:29:04
</text>
<polyline fill="none" opacity="1" stroke="#000000" stroke-width="1" points="211,62 211,67 "/>
<text x="317" y="58" dy="-0.5ex" text-anchor="middle" font-family="sans-serif" font-size="9.67741935483871" opacity="1" fill="#000000">
+31:22:24
</text>
<polyline fill="none" opacity="1" stroke="#000000" stroke-width="1" points="317,62 317,67 "/>
<text x="423" y="58" dy="-0.5ex" text-anchor="middle" font-family="sans-serif" font-size="9.67741935483871" opacity="1" fill="#000000">
+45:15:44
</text>
<polyline fill="none" opacity="1" stroke="#000000" stroke-width="1" points="423,62 423,67 "/>
<text x="528" y="58" dy="-0.5ex" text-anchor="middle" font-family="sans-serif" font-size="9.67741935483871" opacity="1" fill="#000000">
+59:09:04
</text>
<polyline fill="none" opacity="1" stroke="#000000" stroke-width="1" points="528,62 528,67 "/>
<text x="634" y="58" dy="-0.5ex" text-anchor="middle" font-family="sans-serif" font-size="9.67741935483871" opacity="1" fill="#000000">
+73:02:24
</text>
<polyline fill="none" opacity="1" stroke="#000000" stroke-width="1" points="634,62 634,67 "/>
<text x="740" y="58" dy="-0.5ex" text-anchor="middle" font-family="sans-serif" font-size="9.67741935483871" opacity="1" fill="#000000">
+86:55:44
</text>
<polyline fill="none" opacity="1" stroke="#000000" stroke-width="1" points="740,62 740,67 "/>
<text x="846" y="58" dy="-0.5ex" text-anchor="middle" font-family="sans-serif" font-size="9.67741935483871" opacity="1" fill="#000000">
+100:49:04
</text>
<polyline fill="none" opacity="1" stroke="#000000" stroke-width="1" points="846,62 846,67 "/>
<text x="952" y="58" dy="-0.5ex" text-anchor="middle" font-family="sans-serif" font-size="9.67741935483871" opacity="1" fill="#000000">
+114:42:24
</text>
<polyline fill="none" opacity="1" stroke="#000000" stroke-width="1" points="952,62 952,67 "/>
<rect x="83" y="73" width="99" height="45" opacity="0.75" fill="#FFFFFF" stroke="none"/>
<rect x="83" y="73" width="99" height="45" opacity="1" fill="none" stroke="#000000"/>
<text x="123" y="83" dy="0.76em" text-anchor="start" font-family="sans-serif" font-size="9.67741935483871" opacity="1" fill="#000000">
Temporary
</text>
<text x="123" y="98" dy="0.76em" text-anchor="start" font-family="sans-serif" font-size="9.67741935483871" opacity="1" fill="#000000">
Leaked
</text>
<rect x="93" y="83" width="10" height="10" opacity="1" fill="#3CB44B" stroke="none"/>
<rect x="93" y="98" width="10" height="10" opacity="1" fill="#E6194B" stroke="none"/>
</svg>
