<svg width="1024" height="768" viewBox="0 0 1024 768" xmlns="http://www.w3.org/2000/svg">
<rect x="0" y="0" width="1024" height="768" opacity="1" fill="#FFFFFF" stroke="none"/>
<polygon opacity="1" fill="#3CB44B" points="78,698 79,698 80,698 81,698 82,698 83,698 83,698 84,698 85,698 86,698 87,698 88,698 89,698 90,698 91,698 92,698 92,698 93,698 94,698 95,698 96,698 97,698 98,698 99,698 100,698 100,698 101,698 102,698 103,698 104,698 105,698 106,698 107,698 108,698 108,698 109,698 110,698 111,698 112,698 113,698 114,698 115,698 116,698 117,698 117,698 118,698 119,698 120,698 121,698 122,698 123,698 124,698 125,698 125,698 126,698 127,698 128,698 129,698 130,698 131,698 132,698 133,698 133,698 134,698 135,698 136,698 137,698 138,698 139,698 140,698 141,698 142,698 142,698 143,698 144,698 145,698 146,698 147,698 148,698 149,698 150,698 150,698 151,698 152,698 153,698 154,698 155,698 156,698 157,698 158,698 158,698 159,698 160,698 161,698 162,698 163,698 164,698 165,698 166,698 167,698 167,698 168,698 169,698 170,698 171,698 172,698 173,698 174,698 175,698 175,698 176,698 177,698 178,698 179,698 180,698 181,698 182,698 183,698 183,698 184,698 185,698 186,698 187,698 188,698 189,698 190,698 191,698 192,698 192,698 193,698 194,698 195,698 196,698 197,698 198,698 199,698 200,698 200,698 201,698 202,698 203,698 204,698 205,698 206,698 207,698 208,698 208,698 209,698 210,698 211,698 212,698 213,698 214,698 215,698 216,698 217,698 217,698 218,698 219,698 220,698 221,698 222,698 223,698 224,698 225,698 225,698 226,698 227,698 228,698 229,698 230,698 231,698 232,698 233,698 233,698 234,698 235,698 236,698 237,698 238,698 239,698 240,698 241,698 242,698 242,698 243,698 244,698 245,698 246,698 247,698 248,698 249,698 250,698 250,698 251,698 252,698 253,698 254,698 255,698 256,698 257,698 258,698 259,698 259,698 260,698 261,698 262,698 263,698 264,698 265,698 266,698 267,698 267,698 268,698 269,698 270,698 271,698 272,698 273,698 274,698 275,698 275,698 276,698 277,698 278,698 279,698 280,698 281,698 282,698 283,698 284,698 284,698 285,698 286,698 287,698 288,698 289,698 290,698 291,698 292,698 292,698 293,698 294,698 295,698 296,698 297,698 298,698 299,698 300,698 300,698 301,698 302,698 303,698 304,698 305,698 306,698 307,698 308,698 309,698 309,698 310,698 311,698 312,698 313,698 314,698 315,698 316,698 317,698 317,698 318,698 319,698 320,698 321,698 322,698 323,698 324,698 325,698 325,698 326,698 327,698 328,698 329,698 330,698 331,698 332,698 333,698 334,698 334,698 335,698 336,698 337,698 338,698 339,698 340,698 341,698 342,698 342,698 343,698 344,698 345,698 346,698 347,698 348,698 349,698 350,698 350,698 351,698 352,698 353,698 354,698 355,698 356,698 357,698 358,698 359,698 359,698 360,698 361,698 362,698 363,698 364,698 365,698 366,698 367,698 367,698 368,698 369,698 370,698 371,698 372,698 373,698 374,698 375,698 375,698 376,698 377,698 378,241 379,90 380,88 381,89 382,91 383,95 384,98 384,101 385,111 386,114 387,116 388,119 389,121 390,125 391,128 392,133 392,143 393,148 394,149 395,148 396,152 397,151 398,152 399,155 400,160 400,162 401,160 402,161 403,174 404,182 405,187 406,187 407,182 408,181 409,185 409,190 410,190 411,188 412,182 413,181 414,173 415,166 416,162 417,156 417,149 418,148 419,113 420,68 421,70 422,156 423,198 424,237 425,270 425,270 426,277 427,277 428,279 429,279 430,279 431,279 432,281 433,281 434,281 434,281 435,281 436,281 437,282 438,282 439,282 440,282 441,282 442,283 442,283 443,283 444,283 445,283 446,283 447,283 448,283 449,283 450,283 450,284 451,284 452,286 453,287 454,287 455,287 456,287 457,288 458,288 459,288 459,288 460,288 461,288 462,288 463,288 464,288 465,288 466,289 467,289 467,289 468,289 469,289 470,289 471,289 472,289 473,289 474,290 475,290 475,290 476,290 477,290 478,290 479,290 480,290 481,290 482,290 483,290 484,291 484,291 485,291 486,291 487,291 488,291 489,291 490,291 491,291 492,291 492,291 493,291 494,291 495,291 496,291 497,291 498,291 499,292 500,292 500,292 501,292 502,292 503,292 504,292 505,293 506,293 507,293 508,294 509,294 509,294 510,294 511,294 512,294 513,294 514,294 515,294 516,295 517,295 517,295 518,295 519,295 520,296 521,296 522,296 523,296 524,296 525,296 525,296 526,296 527,296 528,296 529,297 530,297 531,297 532,297 533,297 534,297 534,297 535,297 536,309 537,309 538,309 539,309 540,309 541,310 542,310 542,310 543,310 544,310 545,310 546,310 547,310 548,310 549,310 550,310 550,310 551,310 552,310 553,310 554,310 555,310 556,310 557,310 558,310 559,310 559,310 560,310 561,310 562,310 563,310 564,310 565,310 566,310 567,311 567,311 568,311 569,311 570,311 571,311 572,311 573,311 574,311 575,311 575,311 576,311 577,311 578,311 579,311 580,311 581,311 582,311 583,311 584,311 584,311 585,311 586,311 587,311 588,311 589,311 590,311 591,311 592,311 592,311 593,311 594,311 595,312 596,312 597,312 598,312 599,312 600,312 600,312 601,312 602,312 603,312 604,312 605,312 606,312 607,312 608,312 609,312 609,312 610,312 611,312 612,312 613,312 614,312 615,312 616,312 617,312 617,312 618,312 619,312 620,312 621,312 622,312 623,312 624,313 625,313 625,313 626,313 627,313 628,313 629,313 630,313 631,313 632,313 633,313 634,313 634,313 635,313 636,313 637,313 638,313 639,313 640,313 641,313 642,313 642,313 643,313 644,314 645,314 646,314 647,314 648,314 649,315 650,315 650,315 651,315 652,315 653,315 654,315 655,315 656,315 657,315 658,315 659,315 659,315 660,315 661,315 662,315 663,315 664,315 665,315 666,315 667,315 667,315 668,315 669,315 670,315 671,315 672,315 673,316 674,316 675,316 675,316 676,316 677,316 678,316 679,316 680,316 681,316 682,316 683,316 684,316 684,316 685,316 686,316 687,316 688,316 689,316 690,316 691,316 692,317 692,317 693,317 694,317 695,317 696,317 697,317 698,317 699,317 700,317 701,317 701,317 702,317 703,317 704,317 705,317 706,317 707,317 708,317 709,317 709,317 710,317 711,317 712,317 713,317 714,317 715,317 716,317 717,317 717,317 718,317 719,317 720,317 721,317 722,317 723,317 724,318 725,318 726,318 726,318 727,318 728,318 729,318 730,318 731,318 732,318 733,318 734,318 734,318 735,318 736,318 737,318 738,318 739,318 740,318 741,318 742,318 742,318 743,318 744,318 745,318 746,318 747,318 748,319 749,319 750,319 751,319 751,319 752,319 753,319 754,319 755,319 756,319 757,319 758,319 759,319 759,319 760,319 761,319 762,319 763,319 764,319 765,319 766,319 767,319 767,319 768,319 769,319 770,319 771,319 772,319 773,319 774,320 775,320 776,320 776,320 777,320 778,320 778,320 779,320 780,320 781,320 782,320 783,320 784,320 784,320 785,320 786,320 787,320 788,320 789,320 790,320 791,320 792,320 792,320 793,320 794,320 795,320 796,321 797,321 798,321 799,321 800,321 801,321 801,321 802,321 803,321 804,321 805,321 806,321 807,321 808,321 809,321 809,321 810,321 811,321 812,321 813,321 814,321 815,322 816,322 817,322 817,322 818,322 819,322 820,322 821,322 822,322 823,322 824,322 825,322 826,322 826,322 827,322 828,322 829,322 830,322 831,322 832,322 833,322 834,322 834,322 835,322 836,322 837,322 838,322 839,322 840,322 841,322 842,323 842,323 843,323 844,323 845,323 846,323 847,323 848,323 849,323 850,323 851,323 851,323 852,323 853,323 854,323 855,323 856,323 857,323 858,323 859,323 859,324 860,324 861,324 862,324 863,324 864,324 865,324 866,324 867,324 867,324 868,324 869,324 870,324 871,324 872,324 873,324 874,324 875,324 876,324 876,324 877,324 878,324 879,324 880,324 881,324 882,324 883,324 884,324 884,324 885,324 886,324 887,324 888,325 889,325 890,325 891,325 892,325 892,325 893,325 894,325 895,325 896,325 897,325 898,325 899,325 900,325 901,325 901,325 902,325 903,325 904,325 905,325 906,325 907,325 908,325 909,325 909,326 910,326 911,326 912,326 913,326 914,326 915,326 916,326 917,326 917,326 918,326 919,326 920,326 921,326 922,326 923,326 924,326 925,326 926,326 926,326 927,326 928,326 929,326 930,326 931,326 932,326 933,326 934,326 934,326 935,326 936,326 937,326 938,326 939,326 940,326 941,326 942,326 942,327 943,327 944,327 945,327 946,327 947,327 948,327 949,327 950,327 951,327 951,327 952,327 953,327 954,327 955,327 956,327 957,327 958,327 959,327 959,327 960,327 961,327 962,328 963,328 964,328 965,328 966,328 967,328 967,328 968,328 969,328 970,328 971,328 971,328 973,328 973,699 78,699 "/>
<polyline fill="none" opacity="1" stroke="#3CB44B" stroke-width="1" points="78,698 79,698 80,698 81,698 82,698 83,698 83,698 84,698 85,698 86,698 87,698 88,698 89,698 90,698 91,698 92,698 92,698 93,698 94,698 95,698 96,698 97,698 98,698 99,698 100,698 100,698 101,698 102,698 103,698 104,698 105,698 106,698 107,698 108,698 108,698 109,698 110,698 111,698 112,698 113,698 114,698 115,698 116,698 117,698 117,698 118,698 119,698 120,698 121,698 122,698 123,698 124,698 125,698 125,698 126,698 127,698 128,698 129,698 130,698 131,698 132,698 133,698 133,698 134,698 135,698 136,698 137,698 138,698 139,698 140,698 141,698 142,698 142,698 143,698 144,698 145,698 146,698 147,698 148,698 149,698 150,698 150,698 151,698 152,698 153,698 154,698 155,698 156,698 157,698 158,698 158,698 159,698 160,698 161,698 162,698 163,698 164,698 165,698 166,698 167,698 167,698 168,698 169,698 170,698 171,698 172,698 173,698 174,698 175,698 175,698 176,698 177,698 178,698 179,698 180,698 181,698 182,698 183,698 183,698 184,698 185,698 186,698 187,698 188,698 189,698 190,698 191,698 192,698 192,698 193,698 194,698 195,698 196,698 197,698 198,698 199,698 200,698 200,698 201,698 202,698 203,698 204,698 205,698 206,698 207,698 208,698 208,698 209,698 210,698 211,698 212,698 213,698 214,698 215,698 216,698 217,698 217,698 218,698 219,698 220,698 221,698 222,698 223,698 224,698 225,698 225,698 226,698 227,698 228,698 229,698 230,698 231,698 232,698 233,698 233,698 234,698 235,698 236,698 237,698 238,698 239,698 240,698 241,698 242,698 242,698 243,698 244,698 245,698 246,698 247,698 248,698 249,698 250,698 250,698 251,698 252,698 253,698 254,698 255,698 256,698 257,698 258,698 259,698 259,698 260,698 261,698 262,698 263,698 264,698 265,698 266,698 267,698 267,698 268,698 269,698 270,698 271,698 272,698 273,698 274,698 275,698 275,698 276,698 277,698 278,698 279,698 280,698 281,698 282,698 283,698 284,698 284,698 285,698 286,698 287,698 288,698 289,698 290,698 291,698 292,698 292,698 293,698 294,698 295,698 296,698 297,698 298,698 299,698 300,698 300,698 301,698 302,698 303,698 304,698 305,698 306,698 307,698 308,698 309,698 309,698 310,698 311,698 312,698 313,698 314,698 315,698 316,698 317,698 317,698 318,698 319,698 320,698 321,698 322,698 323,698 324,698 325,698 325,698 326,698 327,698 328,698 329,698 330,698 331,698 332,698 333,698 334,698 334,698 335,698 336,698 337,698 338,698 339,698 340,698 341,698 342,698 342,698 343,698 344,698 345,698 346,698 347,698 348,698 349,698 350,698 350,698 351,698 352,698 353,698 354,698 355,698 356,698 357,698 358,698 359,698 359,698 360,698 361,698 362,698 363,698 364,698 365,698 366,698 367,698 367,698 368,698 369,698 370,698 371,698 372,698 373,698 374,698 375,698 375,698 376,698 377,698 378,241 379,90 380,88 381,89 382,91 383,95 384,98 384,101 385,111 386,114 387,116 388,119 389,121 390,125 391,128 392,133 392,143 393,148 394,149 395,148 396,152 397,151 398,152 399,155 400,160 400,162 401,160 402,161 403,174 404,182 405,187 406,187 407,182 408,181 409,185 409,190 410,190 411,188 412,182 413,181 414,173 415,166 416,162 417,156 417,149 418,148 419,113 420,68 421,70 422,156 423,198 424,237 425,270 425,270 426,277 427,277 428,279 429,279 430,279 431,279 432,281 433,281 434,281 434,281 435,281 436,281 437,282 438,282 439,282 440,282 441,282 442,283 442,283 443,283 444,283 445,283 446,283 447,283 448,283 449,283 450,283 450,284 451,284 452,286 453,287 454,287 455,287 456,287 457,288 458,288 459,288 459,288 460,288 461,288 462,288 463,288 464,288 465,288 466,289 467,289 467,289 468,289 469,289 470,289 471,289 472,289 473,289 474,290 475,290 475,290 476,290 477,290 478,290 479,290 480,290 481,290 482,290 483,290 484,291 484,291 485,291 486,291 487,291 488,291 489,291 490,291 491,291 492,291 492,291 493,291 494,291 495,291 496,291 497,291 498,291 499,292 500,292 500,292 501,292 502,292 503,292 504,292 505,293 506,293 507,293 508,294 509,294 509,294 510,294 511,294 512,294 513,294 514,294 515,294 516,295 517,295 517,295 518,295 519,295 520,296 521,296 522,296 523,296 524,296 525,296 525,296 526,296 527,296 528,296 529,297 530,297 531,297 532,297 533,297 534,297 534,297 535,297 536,309 537,309 538,309 539,309 540,309 541,310 542,310 542,310 543,310 544,310 545,310 546,310 547,310 548,310 549,310 550,310 550,310 551,310 552,310 553,310 554,310 555,310 556,310 557,310 558,310 559,310 559,310 560,310 561,310 562,310 563,310 564,310 565,310 566,310 567,311 567,311 568,311 569,311 570,311 571,311 572,311 573,311 574,311 575,311 575,311 576,311 577,311 578,311 579,311 580,311 581,311 582,311 583,311 584,311 584,311 585,311 586,311 587,311 588,311 589,311 590,311 591,311 592,311 592,311 593,311 594,311 595,312 596,312 597,312 598,312 599,312 600,312 600,312 601,312 602,312 603,312 604,312 605,312 606,312 607,312 608,312 609,312 609,312 610,312 611,312 612,312 613,312 614,312 615,312 616,312 617,312 617,312 618,312 619,312 620,312 621,312 622,312 623,312 624,313 625,313 625,313 626,313 627,313 628,313 629,313 630,313 631,313 632,313 633,313 634,313 634,313 635,313 636,313 637,313 638,313 639,313 640,313 641,313 642,313 642,313 643,313 644,314 645,314 646,314 647,314 648,314 649,315 650,315 650,315 651,315 652,315 653,315 654,315 655,315 656,315 657,315 658,315 659,315 659,315 660,315 661,315 662,315 663,315 664,315 665,315 666,315 667,315 667,315 668,315 669,315 670,315 671,315 672,315 673,316 674,316 675,316 675,316 676,316 677,316 678,316 679,316 680,316 681,316 682,316 683,316 684,316 684,316 685,316 686,316 687,316 688,316 689,316 690,316 691,316 692,317 692,317 693,317 694,317 695,317 696,317 697,317 698,317 699,317 700,317 701,317 701,317 702,317 703,317 704,317 705,317 706,317 707,317 708,317 709,317 709,317 710,317 711,317 712,317 713,317 714,317 715,317 716,317 717,317 717,317 718,317 719,317 720,317 721,317 722,317 723,317 724,318 725,318 726,318 726,318 727,318 728,318 729,318 730,318 731,318 732,318 733,318 734,318 734,318 735,318 736,318 737,318 738,318 739,318 740,318 741,318 742,318 742,318 743,318 744,318 745,318 746,318 747,318 748,319 749,319 750,319 751,319 751,319 752,319 753,319 754,319 755,319 756,319 757,319 758,319 759,319 759,319 760,319 761,319 762,319 763,319 764,319 765,319 766,319 767,319 767,319 768,319 769,319 770,319 771,319 772,319 773,319 774,320 775,320 776,320 776,320 777,320 778,320 778,320 779,320 780,320 781,320 782,320 783,320 784,320 784,320 785,320 786,320 787,320 788,320 789,320 790,320 791,320 792,320 792,320 793,320 794,320 795,320 796,321 797,321 798,321 799,321 800,321 801,321 801,321 802,321 803,321 804,321 805,321 806,321 807,321 808,321 809,321 809,321 810,321 811,321 812,321 813,321 814,321 815,322 816,322 817,322 817,322 818,322 819,322 820,322 821,322 822,322 823,322 824,322 825,322 826,322 826,322 827,322 828,322 829,322 830,322 831,322 832,322 833,322 834,322 834,322 835,322 836,322 837,322 838,322 839,322 840,322 841,322 842,323 842,323 843,323 844,323 845,323 846,323 847,323 848,323 849,323 850,323 851,323 851,323 852,323 853,323 854,323 855,323 856,323 857,323 858,323 859,323 859,324 860,324 861,324 862,324 863,324 864,324 865,324 866,324 867,324 867,324 868,324 869,324 870,324 871,324 872,324 873,324 874,324 875,324 876,324 876,324 877,324 878,324 879,324 880,324 881,324 882,324 883,324 884,324 884,324 885,324 886,324 887,324 888,325 889,325 890,325 891,325 892,325 892,325 893,325 894,325 895,325 896,325 897,325 898,325 899,325 900,325 901,325 901,325 902,325 903,325 904,325 905,325 906,325 907,325 908,325 909,325 909,326 910,326 911,326 912,326 913,326 914,326 915,326 916,326 917,326 917,326 918,326 919,326 920,326 921,326 922,326 923,326 924,326 925,326 926,326 926,326 927,326 928,326 929,326 930,326 931,326 932,326 933,326 934,326 934,326 935,326 936,326 937,326 938,326 939,326 940,326 941,326 942,326 942,327 943,327 944,327 945,327 946,327 947,327 948,327 949,327 950,327 951,327 951,327 952,327 953,327 954,327 955,327 956,327 957,327 958,327 959,327 959,327 960,327 961,327 962,328 963,328 964,328 965,328 966,328 967,328 967,328 968,328 969,328 970,328 971,328 971,328 973,328 "/>
<polygon opacity="1" fill="#E6194B" points="78,699 79,699 80,699 81,699 82,699 83,699 83,699 84,699 85,699 86,699 87,699 88,699 89,699 90,699 91,699 92,699 92,699 93,699 94,699 95,699 96,699 97,699 98,699 99,699 100,699 100,699 101,699 102,699 103,699 104,699 105,699 106,699 107,699 108,699 108,699 109,699 110,699 111,699 112,699 113,699 114,699 115,699 116,699 117,699 117,699 118,699 119,699 120,699 121,699 122,699 123,699 124,699 125,699 125,699 126,699 127,699 128,699 129,699 130,699 131,699 132,699 133,699 133,699 134,699 135,699 136,699 137,699 138,699 139,699 140,699 141,699 142,699 142,699 143,699 144,699 145,699 146,699 147,699 148,699 149,699 150,699 150,699 151,699 152,699 153,699 154,699 155,699 156,699 157,699 158,699 158,699 159,699 160,699 161,699 162,699 163,699 164,699 165,699 166,699 167,699 167,699 168,699 169,699 170,699 171,699 172,699 173,699 174,699 175,699 175,699 176,699 177,699 178,699 179,699 180,699 181,699 182,699 183,699 183,699 184,699 185,699 186,699 187,699 188,699 189,699 190,699 191,699 192,699 192,699 193,699 194,699 195,699 196,699 197,699 198,699 199,699 200,699 200,699 201,699 202,699 203,699 204,699 205,699 206,699 207,699 208,699 208,699 209,699 210,699 211,699 212,699 213,699 214,699 215,699 216,699 217,699 217,699 218,699 219,699 220,699 221,699 222,699 223,699 224,699 225,699 225,699 226,699 227,699 228,699 229,699 230,699 231,699 232,699 233,699 233,699 234,699 235,699 236,699 237,699 238,699 239,699 240,699 241,699 242,699 242,699 243,699 244,699 245,699 246,699 247,699 248,699 249,699 250,699 250,699 251,699 252,699 253,699 254,699 255,699 256,699 257,699 258,699 259,699 259,699 260,699 261,699 262,699 263,699 264,699 265,699 266,699 267,699 267,699 268,699 269,699 270,699 271,699 272,699 273,699 274,699 275,699 275,699 276,699 277,699 278,699 279,699 280,699 281,699 282,699 283,699 284,699 284,699 285,699 286,699 287,699 288,699 289,699 290,699 291,699 292,699 292,699 293,699 294,699 295,699 296,699 297,699 298,699 299,699 300,699 300,699 301,699 302,699 303,699 304,699 305,699 306,699 307,699 308,699 309,699 309,699 310,699 311,699 312,699 313,699 314,699 315,699 316,699 317,699 317,699 318,699 319,699 320,699 321,699 322,699 323,699 324,699 325,699 325,699 326,699 327,699 328,699 329,699 330,699 331,699 332,699 333,699 334,699 334,699 335,699 336,699 337,699 338,699 339,699 340,699 341,699 342,699 342,699 343,699 344,699 345,699 346,699 347,699 348,699 349,699 350,699 350,699 351,699 352,699 353,699 354,699 355,699 356,699 357,699 358,699 359,699 359,699 360,699 361,699 362,699 363,699 364,699 365,699 366,699 367,699 367,699 368,699 369,699 370,699 371,699 372,699 373,699 374,699 375,699 375,699 376,699 377,699 378,699 379,699 380,699 381,699 382,699 383,699 384,699 384,699 385,699 386,699 387,699 388,699 389,699 390,699 391,699 392,699 392,699 393,699 394,699 395,699 396,699 397,699 398,699 399,699 400,699 400,699 401,698 402,698 403,698 404,698 405,698 406,698 407,698 408,698 409,698 409,698 410,697 411,696 412,695 413,693 414,691 415,686 416,680 417,669 417,652 418,636 419,585 420,484 421,382 422,354 423,339 424,329 425,328 425,328 426,328 427,328 428,328 429,328 430,328 431,328 432,328 433,328 434,328 434,328 435,328 436,328 437,328 438,328 439,328 440,328 441,328 442,328 442,328 443,328 444,328 445,328 446,328 447,328 448,328 449,328 450,328 450,328 451,328 452,328 453,328 454,328 455,328 456,328 457,328 458,328 459,328 459,328 460,328 461,328 462,328 463,328 464,328 465,328 466,328 467,328 467,328 468,328 469,328 470,328 471,328 472,328 473,328 474,328 475,328 475,328 476,328 477,328 478,328 479,328 480,328 481,328 482,328 483,328 484,328 484,328 485,328 486,328 487,328 488,328 489,328 490,328 491,328 492,328 492,328 493,328 494,328 495,328 496,328 497,328 498,328 499,328 500,328 500,328 501,328 502,328 503,328 504,328 505,328 506,328 507,328 508,328 509,328 509,328 510,328 511,328 512,328 513,328 514,328 515,328 516,328 517,328 517,328 518,328 519,328 520,328 521,328 522,328 523,328 524,328 525,328 525,328 526,328 527,328 528,328 529,328 530,328 531,328 532,328 533,328 534,328 534,328 535,328 536,328 537,328 538,328 539,328 540,328 541,328 542,328 542,328 543,328 544,328 545,328 546,328 547,328 548,328 549,328 550,328 550,328 551,328 552,328 553,328 554,328 555,328 556,328 557,328 558,328 559,328 559,328 560,328 561,328 562,328 563,328 564,328 565,328 566,328 567,328 567,328 568,328 569,328 570,328 571,328 572,328 573,328 574,328 575,328 575,328 576,328 577,328 578,328 579,328 580,328 581,328 582,328 583,328 584,328 584,328 585,328 586,328 587,328 588,328 589,328 590,328 591,328 592,328 592,328 593,328 594,328 595,328 596,328 597,328 598,328 599,328 600,328 600,328 601,328 602,328 603,328 604,328 605,328 606,328 607,328 608,328 609,328 609,328 610,328 611,328 612,328 613,328 614,328 615,328 616,328 617,328 617,328 618,328 619,328 620,328 621,328 622,328 623,328 624,328 625,328 625,328 626,328 627,328 628,328 629,328 630,328 631,328 632,328 633,328 634,328 634,328 635,328 636,328 637,328 638,328 639,328 640,328 641,328 642,328 642,328 643,328 644,328 645,328 646,328 647,328 648,328 649,328 650,328 650,328 651,328 652,328 653,328 654,328 655,328 656,328 657,328 658,328 659,328 659,328 660,328 661,328 662,328 663,328 664,328 665,328 666,328 667,328 667,328 668,328 669,328 670,328 671,328 672,328 673,328 674,328 675,328 675,328 676,328 677,328 678,328 679,328 680,328 681,328 682,328 683,328 684,328 684,328 685,328 686,328 687,328 688,328 689,328 690,328 691,328 692,328 692,328 693,328 694,328 695,328 696,328 697,328 698,328 699,328 700,328 701,328 701,328 702,328 703,328 704,328 705,328 706,328 707,328 708,328 709,328 709,328 710,328 711,328 712,328 713,328 714,328 715,328 716,328 717,328 717,328 718,328 719,328 720,328 721,328 722,328 723,328 724,328 725,328 726,328 726,328 727,328 728,328 729,328 730,328 731,328 732,328 733,328 734,328 734,328 735,328 736,328 737,328 738,328 739,328 740,328 741,328 742,328 742,328 743,328 744,328 745,328 746,328 747,328 748,328 749,328 750,328 751,328 751,328 752,328 753,328 754,328 755,328 756,328 757,328 758,328 759,328 759,328 760,328 761,328 762,328 763,328 764,328 765,328 766,328 767,328 767,328 768,328 769,328 770,328 771,328 772,328 773,328 774,328 775,328 776,328 776,328 777,328 778,328 778,328 779,328 780,328 781,328 782,328 783,328 784,328 784,328 785,328 786,328 787,328 788,328 789,328 790,328 791,328 792,328 792,328 793,328 794,328 795,328 796,328 797,328 798,328 799,328 800,328 801,328 801,328 802,328 803,328 804,328 805,328 806,328 807,328 808,328 809,328 809,328 810,328 811,328 812,328 813,328 814,328 815,328 816,328 817,328 817,328 818,328 819,328 820,328 821,328 822,328 823,328 824,328 825,328 826,328 826,328 827,328 828,328 829,328 830,328 831,328 832,328 833,328 834,328 834,328 835,328 836,328 837,328 838,328 839,328 840,328 841,328 842,328 842,328 843,328 844,328 845,328 846,328 847,328 848,328 849,328 850,328 851,328 851,328 852,328 853,328 854,328 855,328 856,328 857,328 858,328 859,328 859,328 860,328 861,328 862,328 863,328 864,328 865,328 866,328 867,328 867,328 868,328 869,328 870,328 871,328 872,328 873,328 874,328 875,328 876,328 876,328 877,328 878,328 879,328 880,328 881,328 882,328 883,328 884,328 884,328 885,328 886,328 887,328 888,328 889,328 890,328 891,328 892,328 892,328 893,328 894,328 895,328 896,328 897,328 898,328 899,328 900,328 901,328 901,328 902,328 903,328 904,328 905,328 906,328 907,328 908,328 909,328 909,328 910,328 911,328 912,328 913,328 914,328 915,328 916,328 917,328 917,328 918,328 919,328 920,328 921,328 922,328 923,328 924,328 925,328 926,328 926,328 927,328 928,328 929,328 930,328 931,328 932,328 933,328 934,328 934,328 935,328 936,328 937,328 938,328 939,328 940,328 941,328 942,328 942,328 943,328 944,328 945,328 946,328 947,328 948,328 949,328 950,328 951,328 951,328 952,328 953,328 954,328 955,328 956,328 957,328 958,328 959,328 959,328 960,328 961,328 962,328 963,328 964,328 965,328 966,328 967,328 967,328 968,328 969,328 970,328 971,328 971,328 973,328 973,699 78,699 "/>
<polyline fill="none" opacity="1" stroke="#E6194B" stroke-width="1" points="78,699 79,699 80,699 81,699 82,699 83,699 83,699 84,699 85,699 86,699 87,699 88,699 89,699 90,699 91,699 92,699 92,699 93,699 94,699 95,699 96,699 97,699 98,699 99,699 100,699 100,699 101,699 102,699 103,699 104,699 105,699 106,699 107,699 108,699 108,699 109,699 110,699 111,699 112,699 113,699 114,699 115,699 116,699 117,699 117,699 118,699 119,699 120,699 121,699 122,699 123,699 124,699 125,699 125,699 126,699 127,699 128,699 129,699 130,699 131,699 132,699 133,699 133,699 134,699 135,699 136,699 137,699 138,699 139,699 140,699 141,699 142,699 142,699 143,699 144,699 145,699 146,699 147,699 148,699 149,699 150,699 150,699 151,699 152,699 153,699 154,699 155,699 156,699 157,699 158,699 158,699 159,699 160,699 161,699 162,699 163,699 164,699 165,699 166,699 167,699 167,699 168,699 169,699 170,699 171,699 172,699 173,699 174,699 175,699 175,699 176,699 177,699 178,699 179,699 180,699 181,699 182,699 183,699 183,699 184,699 185,699 186,699 187,699 188,699 189,699 190,699 191,699 192,699 192,699 193,699 194,699 195,699 196,699 197,699 198,699 199,699 200,699 200,699 201,699 202,699 203,699 204,699 205,699 206,699 207,699 208,699 208,699 209,699 210,699 211,699 212,699 213,699 214,699 215,699 216,699 217,699 217,699 218,699 219,699 220,699 221,699 222,699 223,699 224,699 225,699 225,699 226,699 227,699 228,699 229,699 230,699 231,699 232,699 233,699 233,699 234,699 235,699 236,699 237,699 238,699 239,699 240,699 241,699 242,699 242,699 243,699 244,699 245,699 246,699 247,699 248,699 249,699 250,699 250,699 251,699 252,699 253,699 254,699 255,699 256,699 257,699 258,699 259,699 259,699 260,699 261,699 262,699 263,699 264,699 265,699 266,699 267,699 267,699 268,699 269,699 270,699 271,699 272,699 273,699 274,699 275,699 275,699 276,699 277,699 278,699 279,699 280,699 281,699 282,699 283,699 284,699 284,699 285,699 286,699 287,699 288,699 289,699 290,699 291,699 292,699 292,699 293,699 294,699 295,699 296,699 297,699 298,699 299,699 300,699 300,699 301,699 302,699 303,699 304,699 305,699 306,699 307,699 308,699 309,699 309,699 310,699 311,699 312,699 313,699 314,699 315,699 316,699 317,699 317,699 318,699 319,699 320,699 321,699 322,699 323,699 324,699 325,699 325,699 326,699 327,699 328,699 329,699 330,699 331,699 332,699 333,699 334,699 334,699 335,699 336,699 337,699 338,699 339,699 340,699 341,699 342,699 342,699 343,699 344,699 345,699 346,699 347,699 348,699 349,699 350,699 350,699 351,699 352,699 353,699 354,699 355,699 356,699 357,699 358,699 359,699 359,699 360,699 361,699 362,699 363,699 364,699 365,699 366,699 367,699 367,699 368,699 369,699 370,699 371,699 372,699 373,699 374,699 375,699 375,699 376,699 377,699 378,699 379,699 380,699 381,699 382,699 383,699 384,699 384,699 385,699 386,699 387,699 388,699 389,699 390,699 391,699 392,699 392,699 393,699 394,699 395,699 396,699 397,699 398,699 399,699 400,699 400,699 401,698 402,698 403,698 404,698 405,698 406,698 407,698 408,698 409,698 409,698 410,697 411,696 412,695 413,693 414,691 415,686 416,680 417,669 417,652 418,636 419,585 420,484 421,382 422,354 423,339 424,329 425,328 425,328 426,328 427,328 428,328 429,328 430,328 431,328 432,328 433,328 434,328 434,328 435,328 436,328 437,328 438,328 439,328 440,328 441,328 442,328 442,328 443,328 444,328 445,328 446,328 447,328 448,328 449,328 450,328 450,328 451,328 452,328 453,328 454,328 455,328 456,328 457,328 458,328 459,328 459,328 460,328 461,328 462,328 463,328 464,328 465,328 466,328 467,328 467,328 468,328 469,328 470,328 471,328 472,328 473,328 474,328 475,328 475,328 476,328 477,328 478,328 479,328 480,328 481,328 482,328 483,328 484,328 484,328 485,328 486,328 487,328 488,328 489,328 490,328 491,328 492,328 492,328 493,328 494,328 495,328 496,328 497,328 498,328 499,328 500,328 500,328 501,328 502,328 503,328 504,328 505,328 506,328 507,328 508,328 509,328 509,328 510,328 511,328 512,328 513,328 514,328 515,328 516,328 517,328 517,328 518,328 519,328 520,328 521,328 522,328 523,328 524,328 525,328 525,328 526,328 527,328 528,328 529,328 530,328 531,328 532,328 533,328 534,328 534,328 535,328 536,328 537,328 538,328 539,328 540,328 541,328 542,328 542,328 543,328 544,328 545,328 546,328 547,328 548,328 549,328 550,328 550,328 551,328 552,328 553,328 554,328 555,328 556,328 557,328 558,328 559,328 559,328 560,328 561,328 562,328 563,328 564,328 565,328 566,328 567,328 567,328 568,328 569,328 570,328 571,328 572,328 573,328 574,328 575,328 575,328 576,328 577,328 578,328 579,328 580,328 581,328 582,328 583,328 584,328 584,328 585,328 586,328 587,328 588,328 589,328 590,328 591,328 592,328 592,328 593,328 594,328 595,328 596,328 597,328 598,328 599,328 600,328 600,328 601,328 602,328 603,328 604,328 605,328 606,328 607,328 608,328 609,328 609,328 610,328 611,328 612,328 613,328 614,328 615,328 616,328 617,328 617,328 618,328 619,328 620,328 621,328 622,328 623,328 624,328 625,328 625,328 626,328 627,328 628,328 629,328 630,328 631,328 632,328 633,328 634,328 634,328 635,328 636,328 637,328 638,328 639,328 640,328 641,328 642,328 642,328 643,328 644,328 645,328 646,328 647,328 648,328 649,328 650,328 650,328 651,328 652,328 653,328 654,328 655,328 656,328 657,328 658,328 659,328 659,328 660,328 661,328 662,328 663,328 664,328 665,328 666,328 667,328 667,328 668,328 669,328 670,328 671,328 672,328 673,328 674,328 675,328 675,328 676,328 677,328 678,328 679,328 680,328 681,328 682,328 683,328 684,328 684,328 685,328 686,328 687,328 688,328 689,328 690,328 691,328 692,328 692,328 693,328 694,328 695,328 696,328 697,328 698,328 699,328 700,328 701,328 701,328 702,328 703,328 704,328 705,328 706,328 707,328 708,328 709,328 709,328 710,328 711,328 712,328 713,328 714,328 715,328 716,328 717,328 717,328 718,328 719,328 720,328 721,328 722,328 723,328 724,328 725,328 726,328 726,328 727,328 728,328 729,328 730,328 731,328 732,328 733,328 734,328 734,328 735,328 736,328 737,328 738,328 739,328 740,328 741,328 742,328 742,328 743,328 744,328 745,328 746,328 747,328 748,328 749,328 750,328 751,328 751,328 752,328 753,328 754,328 755,328 756,328 757,328 758,328 759,328 759,328 760,328 761,328 762,328 763,328 764,328 765,328 766,328 767,328 767,328 768,328 769,328 770,328 771,328 772,328 773,328 774,328 775,328 776,328 776,328 777,328 778,328 778,328 779,328 780,328 781,328 782,328 783,328 784,328 784,328 785,328 786,328 787,328 788,328 789,328 790,328 791,328 792,328 792,328 793,328 794,328 795,328 796,328 797,328 798,328 799,328 800,328 801,328 801,328 802,328 803,328 804,328 805,328 806,328 807,328 808,328 809,328 809,328 810,328 811,328 812,328 813,328 814,328 815,328 816,328 817,328 817,328 818,328 819,328 820,328 821,328 822,328 823,328 824,328 825,328 826,328 826,328 827,328 828,328 829,328 830,328 831,328 832,328 833,328 834,328 834,328 835,328 836,328 837,328 838,328 839,328 840,328 841,328 842,328 842,328 843,328 844,328 845,328 846,328 847,328 848,328 849,328 850,328 851,328 851,328 852,328 853,328 854,328 855,328 856,328 857,328 858,328 859,328 859,328 860,328 861,328 862,328 863,328 864,328 865,328 866,328 867,328 867,328 868,328 869,328 870,328 871,328 872,328 873,328 874,328 875,328 876,328 876,328 877,328 878,328 879,328 880,328 881,328 882,328 883,328 884,328 884,328 885,328 886,328 887,328 888,328 889,328 890,328 891,328 892,328 892,328 893,328 894,328 895,328 896,328 897,328 898,328 899,328 900,328 901,328 901,328 902,328 903,328 904,328 905,328 906,328 907,328 908,328 909,328 909,328 910,328 911,328 912,328 913,328 914,328 915,328 916,328 917,328 917,328 918,328 919,328 920,328 921,328 922,328 923,328 924,328 925,328 926,328 926,328 927,328 928,328 929,328 930,328 931,328 932,328 933,328 934,328 934,328 935,328 936,328 937,328 938,328 939,328 940,328 941,328 942,328 942,328 943,328 944,328 945,328 946,328 947,328 948,328 949,328 950,328 951,328 951,328 952,328 953,328 954,328 955,328 956,328 957,328 958,328 959,328 959,328 960,328 961,328 962,328 963,328 964,328 965,328 966,328 967,328 967,328 968,328 969,328 970,328 971,328 971,328 973,328 "/>
<line opacity="0.1" stroke="#000000" stroke-width="1" x1="84" y1="699" x2="84" y2="68"/>
<line opacity="0.1" stroke="#000000" stroke-width="1" x1="94" y1="699" x2="94" y2="68"/>
<line opacity="0.1" stroke="#000000" stroke-width="1" x1="105" y1="699" x2="105" y2="68"/>
<line opacity="0.1" stroke="#000000" stroke-width="1" x1="115" y1="699" x2="115" y2="68"/>
<line opacity="0.1" stroke="#000000" stroke-width="1" x1="126" y1="699" x2="126" y2="68"/>
<line opacity="0.1" stroke="#000000" stroke-width="1" x1="137" y1="699" x2="137" y2="68"/>
<line opacity="0.1" stroke="#000000" stroke-width="1" x1="147" y1="699" x2="147" y2="68"/>
<line opacity="0.1" stroke="#000000" stroke-width="1" x1="158" y1="699" x2="158" y2="68"/>
<line opacity="0.1" stroke="#000000" stroke-width="1" x1="168" y1="699" x2="168" y2="68"/>
<line opacity="0.1" stroke="#000000" stroke-width="1" x1="179" y1="699" x2="179" y2="68"/>
<line opacity="0.1" stroke="#000000" stroke-width="1" x1="189" y1="699" x2="189" y2="68"/>
<line opacity="0.1" stroke="#000000" stroke-width="1" x1="200" y1="699" x2="200" y2="68"/>
<line opacity="0.1" stroke="#000000" stroke-width="1" x1="211" y1="699" x2="211" y2="68"/>
<line opacity="0.1" stroke="#000000" stroke-width="1" x1="221" y1="699" x2="221" y2="68"/>
<line opacity="0.1" stroke="#000000" stroke-width="1" x1="232" y1="699" x2="232" y2="68"/>
<line opacity="0.1" stroke="#000000" stroke-width="1" x1="242" y1="699" x2="242" y2="68"/>
<line opacity="0.1" stroke="#000000" stroke-width="1" x1="253" y1="699" x2="253" y2="68"/>
<line opacity="0.1" stroke="#000000" stroke-width="1" x1="264" y1="699" x2="264" y2="68"/>
<line opacity="0.1" stroke="#000000" stroke-width="1" x1="274" y1="699" x2="274" y2="68"/>
<line opacity="0.1" stroke="#000000" stroke-width="1" x1="285" y1="699" x2="285" y2="68"/>
<line opacity="0.1" stroke="#000000" stroke-width="1" x1="295" y1="699" x2="295" y2="68"/>
<line opacity="0.1" stroke="#000000" stroke-width="1" x1="306" y1="699" x2="306" y2="68"/>
<line opacity="0.1" stroke="#000000" stroke-width="1" x1="316" y1="699" x2="316" y2="68"/>
<line opacity="0.1" stroke="#000000" stroke-width="1" x1="327" y1="699" x2="327" y2="68"/>
<line opacity="0.1" stroke="#000000" stroke-width="1" x1="338" y1="699" x2="338" y2="68"/>
<line opacity="0.1" stroke="#000000" stroke-width="1" x1="348" y1="699" x2="348" y2="68"/>
<line opacity="0.1" stroke="#000000" stroke-width="1" x1="359" y1="699" x2="359" y2="68"/>
<line opacity="0.1" stroke="#000000" stroke-width="1" x1="369" y1="699" x2="369" y2="68"/>
<line opacity="0.1" stroke="#000000" stroke-width="1" x1="380" y1="699" x2="380" y2="68"/>
<line opacity="0.1" stroke="#000000" stroke-width="1" x1="390" y1="699" x2="390" y2="68"/>
<line opacity="0.1" stroke="#000000" stroke-width="1" x1="401" y1="699" x2="401" y2="68"/>
<line opacity="0.1" stroke="#000000" stroke-width="1" x1="412" y1="699" x2="412" y2="68"/>
<line opacity="0.1" stroke="#000000" stroke-width="1" x1="422" y1="699" x2="422" y2="68"/>
<line opacity="0.1" stroke="#000000" stroke-width="1" x1="433" y1="699" x2="433" y2="68"/>
<line opacity="0.1" stroke="#000000" stroke-width="1" x1="443" y1="699" x2="443" y2="68"/>
<line opacity="0.1" stroke="#000000" stroke-width="1" x1="454" y1="699" x2="454" y2="68"/>
<line opacity="0.1" stroke="#000000" stroke-width="1" x1="464" y1="699" x2="464" y2="68"/>
<line opacity="0.1" stroke="#000000" stroke-width="1" x1="475" y1="699" x2="475" y2="68"/>
<line opacity="0.1" stroke="#000000" stroke-width="1" x1="486" y1="699" x2="486" y2="68"/>
<line opacity="0.1" stroke="#000000" stroke-width="1" x1="496" y1="699" x2="496" y2="68"/>
<line opacity="0.1" stroke="#000000" stroke-width="1" x1="507" y1="699" x2="507" y2="68"/>
<line opacity="0.1" stroke="#000000" stroke-width="1" x1="517" y1="699" x2="517" y2="68"/>
<line opacity="0.1" stroke="#000000" stroke-width="1" x1="528" y1="699" x2="528" y2="68"/>
<line opacity="0.1" stroke="#000000" stroke-width="1" x1="538" y1="699" x2="538" y2="68"/>
<line opacity="0.1" stroke="#000000" stroke-width="1" x1="549" y1="699" x2="549" y2="68"/>
<line opacity="0.1" stroke="#000000" stroke-width="1" x1="560" y1="699" x2="560" y2="68"/>
<line opacity="0.1" stroke="#000000" stroke-width="1" x1="570" y1="699" x2="570" y2="68"/>
<line opacity="0.1" stroke="#000000" stroke-width="1" x1="581" y1="699" x2="581" y2="68"/>
<line opacity="0.1" stroke="#000000" stroke-width="1" x1="591" y1="699" x2="591" y2="68"/>
<line opacity="0.1" stroke="#000000" stroke-width="1" x1="602" y1="699" x2="602" y2="68"/>
<line opacity="0.1" stroke="#000000" stroke-width="1" x1="612" y1="699" x2="612" y2="68"/>
<line opacity="0.1" stroke="#000000" stroke-width="1" x1="623" y1="699" x2="623" y2="68"/>
<line opacity="0.1" stroke="#000000" stroke-width="1" x1="634" y1="699" x2="634" y2="68"/>
<line opacity="0.1" stroke="#000000" stroke-width="1" x1="644" y1="699" x2="644" y2="68"/>
<line opacity="0.1" stroke="#000000" stroke-width="1" x1="655" y1="699" x2="655" y2="68"/>
<line opacity="0.1" stroke="#000000" stroke-width="1" x1="665" y1="699" x2="665" y2="68"/>
<line opacity="0.1" stroke="#000000" stroke-width="1" x1="676" y1="699" x2="676" y2="68"/>
<line opacity="0.1" stroke="#000000" stroke-width="1" x1="687" y1="699" x2="687" y2="68"/>
<line opacity="0.1" stroke="#000000" stroke-width="1" x1="697" y1="699" x2="697" y2="68"/>
<line opacity="0.1" stroke="#000000" stroke-width="1" x1="708" y1="699" x2="708" y2="68"/>
<line opacity="0.1" stroke="#000000" stroke-width="1" x1="718" y1="699" x2="718" y2="68"/>
<line opacity="0.1" stroke="#000000" stroke-width="1" x1="729" y1="699" x2="729" y2="68"/>
<line opacity="0.1" stroke="#000000" stroke-width="1" x1="739" y1="699" x2="739" y2="68"/>
<line opacity="0.1" stroke="#000000" stroke-width="1" x1="750" y1="699" x2="750" y2="68"/>
<line opacity="0.1" stroke="#000000" stroke-width="1" x1="761" y1="699" x2="761" y2="68"/>
<line opacity="0.1" stroke="#000000" stroke-width="1" x1="771" y1="699" x2="771" y2="68"/>
<line opacity="0.1" stroke="#000000" stroke-width="1" x1="782" y1="699" x2="782" y2="68"/>
<line opacity="0.1" stroke="#000000" stroke-width="1" x1="792" y1="699" x2="792" y2="68"/>
<line opacity="0.1" stroke="#000000" stroke-width="1" x1="803" y1="699" x2="803" y2="68"/>
<line opacity="0.1" stroke="#000000" stroke-width="1" x1="813" y1="699" x2="813" y2="68"/>
<line opacity="0.1" stroke="#000000" stroke-width="1" x1="824" y1="699" x2="824" y2="68"/>
<line opacity="0.1" stroke="#000000" stroke-width="1" x1="835" y1="699" x2="835" y2="68"/>
<line opacity="0.1" stroke="#000000" stroke-width="1" x1="845" y1="699" x2="845" y2="68"/>
<line opacity="0.1" stroke="#000000" stroke-width="1" x1="856" y1="699" x2="856" y2="68"/>
<line opacity="0.1" stroke="#000000" stroke-width="1" x1="866" y1="699" x2="866" y2="68"/>
<line opacity="0.1" stroke="#000000" stroke-width="1" x1="877" y1="699" x2="877" y2="68"/>
<line opacity="0.1" stroke="#000000" stroke-width="1" x1="887" y1="699" x2="887" y2="68"/>
<line opacity="0.1" stroke="#000000" stroke-width="1" x1="898" y1="699" x2="898" y2="68"/>
<line opacity="0.1" stroke="#000000" stroke-width="1" x1="909" y1="699" x2="909" y2="68"/>
<line opacity="0.1" stroke="#000000" stroke-width="1" x1="919" y1="699" x2="919" y2="68"/>
<line opacity="0.1" stroke="#000000" stroke-width="1" x1="930" y1="699" x2="930" y2="68"/>
<line opacity="0.1" stroke="#000000" stroke-width="1" x1="940" y1="699" x2="940" y2="68"/>
<line opacity="0.1" stroke="#000000" stroke-width="1" x1="951" y1="699" x2="951" y2="68"/>
<line opacity="0.1" stroke="#000000" stroke-width="1" x1="961" y1="699" x2="961" y2="68"/>
<line opacity="0.1" stroke="#000000" stroke-width="1" x1="972" y1="699" x2="972" y2="68"/>
<line opacity="0.1" stroke="#000000" stroke-width="1" x1="78" y1="699" x2="973" y2="699"/>
<line opacity="0.1" stroke="#000000" stroke-width="1" x1="78" y1="685" x2="973" y2="685"/>
<line opacity="0.1" stroke="#000000" stroke-width="1" x1="78" y1="671" x2="973" y2="671"/>
<line opacity="0.1" stroke="#000000" stroke-width="1" x1="78" y1="657" x2="973" y2="657"/>
<line opacity="0.1" stroke="#000000" stroke-width="1" x1="78" y1="643" x2="973" y2="643"/>
<line opacity="0.1" stroke="#000000" stroke-width="1" x1="78" y1="629" x2="973" y2="629"/>
<line opacity="0.1" stroke="#000000" stroke-width="1" x1="78" y1="615" x2="973" y2="615"/>
<line opacity="0.1" stroke="#000000" stroke-width="1" x1="78" y1="601" x2="973" y2="601"/>
<line opacity="0.1" stroke="#000000" stroke-width="1" x1="78" y1="587" x2="973" y2="587"/>
<line opacity="0.1" stroke="#000000" stroke-width="1" x1="78" y1="573" x2="973" y2="573"/>
<line opacity="0.1" stroke="#000000" stroke-width="1" x1="78" y1="559" x2="973" y2="559"/>
<line opacity="0.1" stroke="#000000" stroke-width="1" x1="78" y1="545" x2="973" y2="545"/>
<line opacity="0.1" stroke="#000000" stroke-width="1" x1="78" y1="531" x2="973" y2="531"/>
<line opacity="0.1" stroke="#000000" stroke-width="1" x1="78" y1="517" x2="973" y2="517"/>
<line opacity="0.1" stroke="#000000" stroke-width="1" x1="78" y1="503" x2="973" y2="503"/>
<line opacity="0.1" stroke="#000000" stroke-width="1" x1="78" y1="489" x2="973" y2="489"/>
<line opacity="0.1" stroke="#000000" stroke-width="1" x1="78" y1="475" x2="973" y2="475"/>
<line opacity="0.1" stroke="#000000" stroke-width="1" x1="78" y1="461" x2="973" y2="461"/>
<line opacity="0.1" stroke="#000000" stroke-width="1" x1="78" y1="447" x2="973" y2="447"/>
<line opacity="0.1" stroke="#000000" stroke-width="1" x1="78" y1="433" x2="973" y2="433"/>
<line opacity="0.1" stroke="#000000" stroke-width="1" x1="78" y1="419" x2="973" y2="419"/>
<line opacity="0.1" stroke="#000000" stroke-width="1" x1="78" y1="405" x2="973" y2="405"/>
<line opacity="0.1" stroke="#000000" stroke-width="1" x1="78" y1="391" x2="973" y2="391"/>
<line opacity="0.1" stroke="#000000" stroke-width="1" x1="78" y1="377" x2="973" y2="377"/>
<line opacity="0.1" stroke="#000000" stroke-width="1" x1="78" y1="363" x2="973" y2="363"/>
<line opacity="0.1" stroke="#000000" stroke-width="1" x1="78" y1="349" x2="973" y2="349"/>
<line opacity="0.1" stroke="#000000" stroke-width="1" x1="78" y1="336" x2="973" y2="336"/>
<line opacity="0.1" stroke="#000000" stroke-width="1" x1="78" y1="322" x2="973" y2="322"/>
<line opacity="0.1" stroke="#000000" stroke-width="1" x1="78" y1="308" x2="973" y2="308"/>
<line opacity="0.1" stroke="#000000" stroke-width="1" x1="78" y1="294" x2="973" y2="294"/>
<line opacity="0.1" stroke="#000000" stroke-width="1" x1="78" y1="280" x2="973" y2="280"/>
<line opacity="0.1" stroke="#000000" stroke-width="1" x1="78" y1="266" x2="973" y2="266"/>
<line opacity="0.1" stroke="#000000" stroke-width="1" x1="78" y1="252" x2="973" y2="252"/>
<line opacity="0.1" stroke="#000000" stroke-width="1" x1="78" y1="238" x2="973" y2="238"/>
<line opacity="0.1" stroke="#000000" stroke-width="1" x1="78" y1="224" x2="973" y2="224"/>
<line opacity="0.1" stroke="#000000" stroke-width="1" x1="78" y1="210" x2="973" y2="210"/>
<line opacity="0.1" stroke="#000000" stroke-width="1" x1="78" y1="196" x2="973" y2="196"/>
<line opacity="0.1" stroke="#000000" stroke-width="1" x1="78" y1="182" x2="973" y2="182"/>
<line opacity="0.1" stroke="#000000" stroke-width="1" x1="78" y1="168" x2="973" y2="168"/>
<line opacity="0.1" stroke="#000000" stroke-width="1" x1="78" y1="154" x2="973" y2="154"/>
<line opacity="0.1" stroke="#000000" stroke-width="1" x1="78" y1="140" x2="973" y2="140"/>
<line opacity="0.1" stroke="#000000" stroke-width="1" x1="78" y1="126" x2="973" y2="126"/>
<line opacity="0.1" stroke="#000000" stroke-width="1" x1="78" y1="112" x2="973" y2="112"/>
<line opacity="0.1" stroke="#000000" stroke-width="1" x1="78" y1="98" x2="973" y2="98"/>
<line opacity="0.1" stroke="#000000" stroke-width="1" x1="78" y1="84" x2="973" y2="84"/>
<line opacity="0.1" stroke="#000000" stroke-width="1" x1="78" y1="70" x2="973" y2="70"/>
<text x="8" y="384" dy="0.76em" text-anchor="middle" font-family="sans-serif" font-size="9.67741935483871" opacity="1" fill="#000000" transform="rotate(270, 8, 384)">
Memory usage
</text>
<text x="526" y="760" dy="-0.5ex" text-anchor="middle" font-family="sans-serif" font-size="9.67741935483871" opacity="1" fill="#000000">
Time
</text>
<line opacity="0.2" stroke="#000000" stroke-width="1" x1="105" y1="699" x2="105" y2="68"/>
<line opacity="0.2" stroke="#000000" stroke-width="1" x1="211" y1="699" x2="211" y2="68"/>
<line opacity="0.2" stroke="#000000" stroke-width="1" x1="316" y1="699" x2="316" y2="68"/>
<line opacity="0.2" stroke="#000000" stroke-width="1" x1="422" y1="699" x2="422" y2="68"/>
<line opacity="0.2" stroke="#000000" stroke-width="1" x1="528" y1="699" x2="528" y2="68"/>
<line opacity="0.2" stroke="#000000" stroke-width="1" x1="634" y1="699" x2="634" y2="68"/>
<line opacity="0.2" stroke="#000000" stroke-width="1" x1="739" y1="699" x2="739" y2="68"/>
<line opacity="0.2" stroke="#000000" stroke-width="1" x1="845" y1="699" x2="845" y2="68"/>
<line opacity="0.2" stroke="#000000" stroke-width="1" x1="951" y1="699" x2="951" y2="68"/>
<line opacity="0.2" stroke="#000000" stroke-width="1" x1="78" y1="699" x2="973" y2="699"/>
<line opacity="0.2" stroke="#000000" stroke-width="1" x1="78" y1="559" x2="973" y2="559"/>
<line opacity="0.2" stroke="#000000" stroke-width="1" x1="78" y1="419" x2="973" y2="419"/>
<line opacity="0.2" stroke="#000000" stroke-width="1" x1="78" y1="280" x2="973" y2="280"/>
<line opacity="0.2" stroke="#000000" stroke-width="1" x1="78" y1="140" x2="973" y2="140"/>
<polyline fill="none" opacity="1" stroke="#000000" stroke-width="1" points="77,68 77,699 "/>
<text x="68" y="699" dy="0.5ex" text-anchor="end" font-family="sans-serif" font-size="9.67741935483871" opacity="1" fill="#000000">
0 MB
</text>
<polyline fill="none" opacity="1" stroke="#000000" stroke-width="1" points="72,699 77,699 "/>
<text x="68" y="559" dy="0.5ex" text-anchor="end" font-family="sans-serif" font-size="9.67741935483871" opacity="1" fill="#000000">
47 MB
</text>
<polyline fill="none" opacity="1" stroke="#000000" stroke-width="1" points="72,559 77,559 "/>
<text x="68" y="419" dy="0.5ex" text-anchor="end" font-family="sans-serif" font-size="9.67741935483871" opacity="1" fill="#000000">
95 MB
</text>
<polyline fill="none" opacity="1" stroke="#000000" stroke-width="1" points="72,419 77,419 "/>
<text x="68" y="280" dy="0.5ex" text-anchor="end" font-family="sans-serif" font-size="9.67741935483871" opacity="1" fill="#000000">
143 MB
</text>
<polyline fill="none" opacity="1" stroke="#000000" stroke-width="1" points="72,280 77,280 "/>
<text x="68" y="140" dy="0.5ex" text-anchor="end" font-family="sans-serif" font-size="9.67741935483871" opacity="1" fill="#000000">
190 MB
</text>
<polyline fill="none" opacity="1" stroke="#000000" stroke-width="1" points="72,140 77,140 "/>
<polyline fill="none" opacity="1" stroke="#000000" stroke-width="1" points="78,700 973,700 "/>
<text x="105" y="710" dy="0.76em" text-anchor="middle" font-family="sans-serif" font-size="9.67741935483871" opacity="1" fill="#000000">
07 20:33:20
</text>
<polyline fill="none" opacity="1" stroke="#000000" stroke-width="1" points="105,700 105,705 "/>
<text x="211" y="710" dy="0.76em" text-anchor="middle" font-family="sans-serif" font-size="9.67741935483871" opacity="1" fill="#000000">
08 10:26:40
</text>
<polyline fill="none" opacity="1" stroke="#000000" stroke-width="1" points="211,700 211,705 "/>
<text x="316" y="710" dy="0.76em" text-anchor="middle" font-family="sans-serif" font-size="9.67741935483871" opacity="1" fill="#000000">
09 00:20:00
</text>
<polyline fill="none" opacity="1" stroke="#000000" stroke-width="1" points="316,700 316,705 "/>
<text x="422" y="710" dy="0.76em" text-anchor="middle" font-family="sans-serif" font-size="9.67741935483871" opacity="1" fill="#000000">
09 14:13:20
</text>
<polyline fill="none" opacity="1" stroke="#000000" stroke-width="1" points="422,700 422,705 "/>
<text x="528" y="710" dy="0.76em" text-anchor="middle" font-family="sans-serif" font-size="9.67741935483871" opacity="1" fill="#000000">
10 04:06:40
</text>
<polyline fill="none" opacity="1" stroke="#000000" stroke-width="1" points="528,700 528,705 "/>
<text x="634" y="710" dy="0.76em" text-anchor="middle" font-family="sans-serif" font-size="9.67741935483871" opacity="1" fill="#000000">
10 18:00:00
</text>
<polyline fill="none" opacity="1" stroke="#000000" stroke-width="1" points="634,700 634,705 "/>
<text x="739" y="710" dy="0.76em" text-anchor="middle" font-family="sans-serif" font-size="9.67741935483871" opacity="1" fill="#000000">
11 07:53:20
</text>
<polyline fill="none" opacity="1" stroke="#000000" stroke-width="1" points="739,700 739,705 "/>
<text x="845" y="710" dy="0.76em" text-anchor="middle" font-family="sans-serif" font-size="9.67741935483871" opacity="1" fill="#000000">
11 21:46:40
</text>
<polyline fill="none" opacity="1" stroke="#000000" stroke-width="1" points="845,700 845,705 "/>
<text x="951" y="710" dy="0.76em" text-anchor="middle" font-family="sans-serif" font-size="9.67741935483871" opacity="1" fill="#000000">
12 11:40:00
</text>
<polyline fill="none" opacity="1" stroke="#000000" stroke-width="1" points="951,700 951,705 "/>
<polyline fill="none" opacity="1" stroke="#000000" stroke-width="1" points="78,67 974,67 "/>
<text x="105" y="58" dy="-0.5ex" text-anchor="middle" font-family="sans-serif" font-size="9.67741935483871" opacity="1" fill="#000000">
+03:35:44
</text>
<polyline fill="none" opacity="1" stroke="#000000" stroke-width="1" points="105,62 105,67 "/>
<text x="211" y="58" dy="-0.5ex" text-anchor="middle" font-family="sans-serif" font-size="9.67741935483871" opacity="1" fill="#000000">
+17:29:04
</text>
<polyline fill="none" opacity="1" stroke="#000000" stroke-width="1" points="211,62 211,67 "/>
<text x="317" y="58" dy="-0.5ex" text-anchor="middle" font-family="sans-serif" font-size="9.67741935483871" opacity="1" fill="#000000">
+31:22:24
</text>
<polyline fill="none" opacity="1" stroke="#000000" stroke-width="1" points="317,62 317,67 "/>
<text x="423" y="58" dy="-0.5ex" text-anchor="middle" font-family="sans-serif" font-size="9.67741935483871" opacity="1" fill="#000000">
+45:15:44
</text>
<polyline fill="none" opacity="1" stroke="#000000" stroke-width="1" points="423,62 423,67 "/>
<text x="528" y="58" dy="-0.5ex" text-anchor="middle" font-family="sans-serif" font-size="9.67741935483871" opacity="1" fill="#000000">
+59:09:04
</text>
<polyline fill="none" opacity="1" stroke="#000000" stroke-width="1" points="528,62 528,67 "/>
<text x="634" y="58" dy="-0.5ex" text-anchor="middle" font-family="sans-serif" font-size="9.67741935483871" opacity="1" fill="#000000">
+73:02:24
</text>
<polyline fill="none" opacity="1" stroke="#000000" stroke-width="1" points="634,62 634,67 "/>
<text x="740" y="58" dy="-0.5ex" text-anchor="middle" font-family="sans-serif" font-size="9.67741935483871" opacity="1" fill="#000000">
+86:55:44
</text>
<polyline fill="none" opacity="1" stroke="#000000" stroke-width="1" points="740,62 740,67 "/>
<text x="846" y="58" dy="-0.5ex" text-anchor="middle" font-family="sans-serif" font-size="9.67741935483871" opacity="1" fill="#000000">
+100:49:04
</text>
<polyline fill="none" opacity="1" stroke="#000000" stroke-width="1" points="846,62 846,67 "/>
<text x="952" y="58" dy="-0.5ex" text-anchor="middle" font-family="sans-serif" font-size="9.67741935483871" opacity="1" fill="#000000">
+114:42:24
</text>
<polyline fill="none" opacity="1" stroke="#000000" stroke-width="1" points="952,62 952,67 "/>
<rect x="83" y="73" width="99" height="45" opacity="0.75" fill="#FFFFFF" stroke="none"/>
<rect x="83" y="73" width="99" height="45" opacity="1" fill="none" stroke="#000000"/>
<text x="123" y="83" dy="0.76em" text-anchor="start" font-family="sans-serif" font-size="9.67741935483871" opacity="1" fill="#000000">
Temporary
</text>
<text x="123" y="98" dy="0.76em" text-anchor="start" font-family="sans-serif" font-size="9.67741935483871" opacity="1" fill="#000000">
Leaked
</text>
<rect x="93" y="83" width="10" height="10" opacity="1" fill="#3CB44B" stroke="none"/>
<rect x="93" y="98" width="10" height="10" opacity="1" fill="#E6194B" stroke="none"/>
</svg>
