<svg width="1024" height="768" viewBox="0 0 1024 768" xmlns="http://www.w3.org/2000/svg">
<rect x="0" y="0" width="1024" height="768" opacity="1" fill="#FFFFFF" stroke="none"/>
<polygon opacity="1" fill="#3CB44B" points="78,697 79,695 80,694 81,693 82,692 83,691 83,690 84,688 85,687 86,686 87,685 88,684 89,682 90,681 91,680 92,679 92,678 93,677 94,676 95,675 96,673 97,672 98,671 99,670 100,669 100,668 101,666 102,665 103,664 104,663 105,662 106,660 107,659 108,658 109,657 109,656 110,655 111,653 112,652 113,651 114,650 115,649 116,648 117,646 117,645 118,644 119,643 120,642 121,641 122,639 123,638 124,637 125,636 126,635 126,634 127,632 128,631 129,630 130,629 131,628 132,626 133,625 134,624 134,623 135,622 136,621 137,620 138,618 139,617 140,616 141,615 142,614 143,613 143,611 144,610 145,609 146,608 147,607 148,606 149,604 150,603 151,602 151,601 152,600 153,598 154,597 155,596 156,595 157,594 158,593 159,591 160,590 160,589 161,588 162,586 163,585 164,584 165,583 166,582 167,580 168,579 168,578 169,577 170,576 171,575 172,574 173,572 174,571 175,570 176,569 177,568 177,566 178,565 179,564 180,563 181,562 182,560 183,559 184,558 185,557 185,556 186,555 187,554 188,552 189,551 190,550 191,549 192,548 193,547 194,545 194,544 195,543 196,542 197,541 198,540 199,539 200,537 201,536 202,535 202,534 203,533 204,532 205,530 206,529 207,528 208,527 209,526 210,525 211,524 211,523 212,521 213,520 214,519 215,518 216,517 217,516 218,515 219,514 219,513 220,512 221,511 222,509 223,508 224,507 225,506 226,505 227,504 228,502 228,501 229,500 230,499 231,498 232,497 233,496 234,494 235,493 236,492 236,491 237,490 238,489 239,488 240,486 241,485 242,484 243,483 244,482 245,481 245,480 246,479 247,478 248,477 249,475 250,474 251,473 252,472 253,471 253,470 254,469 255,467 256,466 257,465 258,464 259,463 260,462 261,461 262,459 262,458 263,457 264,456 265,455 266,454 267,453 268,452 269,451 270,449 270,448 271,447 272,446 273,445 274,444 275,443 276,442 277,441 278,440 279,438 279,437 280,436 281,435 282,434 283,433 284,432 285,430 286,429 287,428 288,427 288,426 289,425 290,423 291,422 292,421 293,420 294,419 295,418 296,417 296,416 297,415 298,413 299,412 300,411 301,410 302,409 303,408 304,407 305,405 305,404 306,403 307,402 308,401 309,400 310,399 311,398 312,397 313,396 313,395 314,393 315,392 316,391 317,390 318,389 319,388 320,387 321,386 322,384 322,383 323,382 324,381 325,380 326,379 327,378 328,377 329,375 330,374 330,373 331,372 332,371 333,370 334,369 335,367 336,366 337,365 338,364 339,363 339,362 340,360 341,359 342,358 343,357 344,356 345,355 346,354 347,353 347,351 348,350 349,349 350,348 351,347 352,346 353,344 354,343 355,342 356,341 356,340 357,339 358,338 359,337 360,336 361,334 362,333 363,332 364,331 364,330 365,329 366,328 367,326 368,325 369,324 370,323 371,322 372,321 373,320 373,318 374,317 375,316 376,315 377,314 378,313 379,312 380,311 381,309 381,308 382,307 383,306 384,305 385,303 386,302 387,301 388,300 389,299 390,298 390,297 391,296 392,295 393,293 394,292 395,291 396,290 397,289 398,288 398,287 399,285 400,284 401,283 402,282 403,281 404,280 405,279 406,278 407,277 407,276 408,274 409,273 410,272 411,271 412,270 413,269 414,268 415,267 415,266 416,265 417,263 418,262 419,261 420,260 421,259 422,258 423,256 424,255 424,254 425,253 426,252 427,251 428,250 429,248 430,247 431,246 432,245 432,244 433,243 434,241 435,240 436,239 437,238 438,237 439,236 440,235 441,233 441,232 442,231 443,230 444,229 445,228 446,226 447,225 448,224 449,223 449,222 450,221 451,220 452,219 453,217 454,216 455,215 456,214 457,213 458,212 458,211 459,209 460,208 461,207 462,206 463,205 464,204 465,203 466,202 466,200 467,199 468,198 469,197 470,196 471,195 472,194 473,193 474,191 475,190 475,189 476,188 477,187 478,186 479,185 480,184 481,182 482,181 483,180 483,179 484,178 485,177 486,176 487,174 488,173 489,172 490,171 491,170 492,169 492,168 493,167 494,165 495,164 496,163 497,162 498,161 499,160 500,158 501,157 501,156 502,155 503,154 504,153 505,151 506,150 507,149 508,148 509,147 509,146 510,145 511,143 512,142 513,141 514,140 515,139 516,138 517,136 518,135 518,134 519,133 520,132 521,131 522,130 523,128 524,127 525,126 526,125 526,124 527,123 528,122 529,120 530,119 531,118 532,117 533,116 534,115 535,114 535,113 536,112 537,110 538,109 539,108 540,107 541,106 542,105 543,104 543,103 544,101 545,100 546,99 547,98 548,97 549,96 550,95 551,93 552,92 552,91 553,90 554,89 555,88 556,87 557,85 558,84 559,83 560,82 560,81 561,80 562,79 563,78 564,76 565,75 566,74 567,74 568,74 569,74 569,74 570,74 571,74 572,74 573,74 574,74 575,74 576,74 577,74 577,74 578,74 579,74 580,74 581,74 582,74 583,75 584,75 585,75 586,74 586,75 587,74 588,74 589,74 590,74 591,74 592,74 593,75 594,74 594,75 595,74 596,74 597,75 598,74 599,75 600,75 601,75 602,75 603,74 603,74 604,74 605,74 606,74 607,74 608,74 609,74 610,74 611,74 611,74 612,74 613,74 614,74 615,74 616,74 617,74 618,74 619,74 620,74 620,74 621,74 622,74 623,74 624,74 625,74 626,74 627,73 628,73 628,74 629,73 630,73 631,73 632,73 633,73 634,73 635,73 636,73 637,73 637,73 638,73 639,73 640,73 641,73 642,73 643,73 644,73 645,73 645,73 646,73 647,73 648,73 649,73 650,73 651,73 652,73 653,73 654,73 654,73 655,73 656,73 657,73 658,73 659,73 660,73 661,73 662,73 662,73 663,73 664,73 665,73 666,73 667,73 668,73 669,73 670,73 671,73 671,73 672,73 673,73 674,73 675,73 676,73 677,73 678,73 679,73 679,73 680,73 681,73 682,73 683,73 684,73 685,73 686,73 687,73 688,73 688,73 689,73 690,73 691,73 692,73 693,72 694,73 695,73 696,73 696,72 697,72 698,73 699,72 700,72 701,72 702,72 703,72 704,72 705,73 705,72 706,72 707,72 708,72 709,72 710,72 711,73 712,73 713,73 714,73 714,73 715,73 716,73 717,73 718,73 719,73 720,73 721,73 722,73 722,73 723,72 724,73 725,73 726,73 727,73 728,73 729,73 730,73 731,73 731,73 732,73 733,73 734,73 735,73 736,73 737,73 738,72 739,72 739,72 740,72 741,72 742,72 743,72 744,72 745,72 746,73 747,73 748,72 748,72 749,72 750,72 751,72 752,72 753,72 754,72 755,72 756,72 756,72 757,72 758,72 759,72 760,72 761,72 762,72 763,72 764,72 765,72 765,72 766,72 767,72 768,72 769,72 770,72 771,71 772,72 773,72 773,72 774,72 775,72 776,72 777,72 778,72 779,72 780,72 781,72 782,72 782,72 783,72 784,71 785,72 786,71 787,71 788,71 789,71 790,71 790,71 791,71 792,71 793,71 794,71 795,71 796,71 797,71 798,71 799,71 799,71 800,71 801,71 802,71 803,71 804,71 805,71 806,71 807,70 807,70 808,70 809,71 810,71 811,71 812,71 813,71 814,71 815,71 816,71 816,71 817,71 818,71 819,71 820,71 821,71 822,71 823,71 824,71 824,71 825,71 826,71 827,71 828,71 829,71 830,71 831,71 832,71 833,71 833,71 834,71 835,71 836,71 837,71 838,71 839,71 840,71 841,71 841,71 842,71 843,70 844,70 845,70 846,70 847,70 848,70 849,70 850,70 850,70 851,70 852,70 853,70 854,70 855,70 856,70 857,70 858,70 858,70 859,70 860,70 861,70 862,70 863,70 864,70 865,70 866,70 867,70 867,70 868,70 869,70 870,70 871,70 872,70 873,70 874,70 875,70 875,70 876,70 877,70 878,70 879,70 880,70 881,70 882,70 883,69 884,70 884,70 885,69 886,69 887,69 888,69 889,69 890,69 891,69 892,69 892,69 893,69 894,69 895,69 896,69 897,68 898,68 899,68 900,69 901,68 901,68 902,68 903,68 904,68 905,68 906,68 907,68 908,68 909,68 909,69 910,69 911,69 912,69 913,69 914,69 915,69 916,69 917,69 918,69 918,68 919,69 920,68 921,68 922,68 923,69 924,68 925,68 926,68 927,68 927,68 928,68 929,68 930,68 931,68 932,68 933,68 934,68 935,68 935,68 936,68 937,68 938,68 939,68 940,68 941,68 942,68 943,68 944,68 944,68 945,68 946,68 947,68 948,68 949,68 950,68 951,68 952,68 952,68 953,68 954,68 955,68 956,68 957,68 958,68 959,68 960,68 961,68 961,68 962,68 963,68 964,68 965,68 966,68 967,68 968,68 969,68 969,68 970,68 971,68 972,69 972,69 973,69 973,699 78,699 "/>
<polyline fill="none" opacity="1" stroke="#3CB44B" stroke-width="1" points="78,697 79,695 80,694 81,693 82,692 83,691 83,690 84,688 85,687 86,686 87,685 88,684 89,682 90,681 91,680 92,679 92,678 93,677 94,676 95,675 96,673 97,672 98,671 99,670 100,669 100,668 101,666 102,665 103,664 104,663 105,662 106,660 107,659 108,658 109,657 109,656 110,655 111,653 112,652 113,651 114,650 115,649 116,648 117,646 117,645 118,644 119,643 120,642 121,641 122,639 123,638 124,637 125,636 126,635 126,634 127,632 128,631 129,630 130,629 131,628 132,626 133,625 134,624 134,623 135,622 136,621 137,620 138,618 139,617 140,616 141,615 142,614 143,613 143,611 144,610 145,609 146,608 147,607 148,606 149,604 150,603 151,602 151,601 152,600 153,598 154,597 155,596 156,595 157,594 158,593 159,591 160,590 160,589 161,588 162,586 163,585 164,584 165,583 166,582 167,580 168,579 168,578 169,577 170,576 171,575 172,574 173,572 174,571 175,570 176,569 177,568 177,566 178,565 179,564 180,563 181,562 182,560 183,559 184,558 185,557 185,556 186,555 187,554 188,552 189,551 190,550 191,549 192,548 193,547 194,545 194,544 195,543 196,542 197,541 198,540 199,539 200,537 201,536 202,535 202,534 203,533 204,532 205,530 206,529 207,528 208,527 209,526 210,525 211,524 211,523 212,521 213,520 214,519 215,518 216,517 217,516 218,515 219,514 219,513 220,512 221,511 222,509 223,508 224,507 225,506 226,505 227,504 228,502 228,501 229,500 230,499 231,498 232,497 233,496 234,494 235,493 236,492 236,491 237,490 238,489 239,488 240,486 241,485 242,484 243,483 244,482 245,481 245,480 246,479 247,478 248,477 249,475 250,474 251,473 252,472 253,471 253,470 254,469 255,467 256,466 257,465 258,464 259,463 260,462 261,461 262,459 262,458 263,457 264,456 265,455 266,454 267,453 268,452 269,451 270,449 270,448 271,447 272,446 273,445 274,444 275,443 276,442 277,441 278,440 279,438 279,437 280,436 281,435 282,434 283,433 284,432 285,430 286,429 287,428 288,427 288,426 289,425 290,423 291,422 292,421 293,420 294,419 295,418 296,417 296,416 297,415 298,413 299,412 300,411 301,410 302,409 303,408 304,407 305,405 305,404 306,403 307,402 308,401 309,400 310,399 311,398 312,397 313,396 313,395 314,393 315,392 316,391 317,390 318,389 319,388 320,387 321,386 322,384 322,383 323,382 324,381 325,380 326,379 327,378 328,377 329,375 330,374 330,373 331,372 332,371 333,370 334,369 335,367 336,366 337,365 338,364 339,363 339,362 340,360 341,359 342,358 343,357 344,356 345,355 346,354 347,353 347,351 348,350 349,349 350,348 351,347 352,346 353,344 354,343 355,342 356,341 356,340 357,339 358,338 359,337 360,336 361,334 362,333 363,332 364,331 364,330 365,329 366,328 367,326 368,325 369,324 370,323 371,322 372,321 373,320 373,318 374,317 375,316 376,315 377,314 378,313 379,312 380,311 381,309 381,308 382,307 383,306 384,305 385,303 386,302 387,301 388,300 389,299 390,298 390,297 391,296 392,295 393,293 394,292 395,291 396,290 397,289 398,288 398,287 399,285 400,284 401,283 402,282 403,281 404,280 405,279 406,278 407,277 407,276 408,274 409,273 410,272 411,271 412,270 413,269 414,268 415,267 415,266 416,265 417,263 418,262 419,261 420,260 421,259 422,258 423,256 424,255 424,254 425,253 426,252 427,251 428,250 429,248 430,247 431,246 432,245 432,244 433,243 434,241 435,240 436,239 437,238 438,237 439,236 440,235 441,233 441,232 442,231 443,230 444,229 445,228 446,226 447,225 448,224 449,223 449,222 450,221 451,220 452,219 453,217 454,216 455,215 456,214 457,213 458,212 458,211 459,209 460,208 461,207 462,206 463,205 464,204 465,203 466,202 466,200 467,199 468,198 469,197 470,196 471,195 472,194 473,193 474,191 475,190 475,189 476,188 477,187 478,186 479,185 480,184 481,182 482,181 483,180 483,179 484,178 485,177 486,176 487,174 488,173 489,172 490,171 491,170 492,169 492,168 493,167 494,165 495,164 496,163 497,162 498,161 499,160 500,158 501,157 501,156 502,155 503,154 504,153 505,151 506,150 507,149 508,148 509,147 509,146 510,145 511,143 512,142 513,141 514,140 515,139 516,138 517,136 518,135 518,134 519,133 520,132 521,131 522,130 523,128 524,127 525,126 526,125 526,124 527,123 528,122 529,120 530,119 531,118 532,117 533,116 534,115 535,114 535,113 536,112 537,110 538,109 539,108 540,107 541,106 542,105 543,104 543,103 544,101 545,100 546,99 547,98 548,97 549,96 550,95 551,93 552,92 552,91 553,90 554,89 555,88 556,87 557,85 558,84 559,83 560,82 560,81 561,80 562,79 563,78 564,76 565,75 566,74 567,74 568,74 569,74 569,74 570,74 571,74 572,74 573,74 574,74 575,74 576,74 577,74 577,74 578,74 579,74 580,74 581,74 582,74 583,75 584,75 585,75 586,74 586,75 587,74 588,74 589,74 590,74 591,74 592,74 593,75 594,74 594,75 595,74 596,74 597,75 598,74 599,75 600,75 601,75 602,75 603,74 603,74 604,74 605,74 606,74 607,74 608,74 609,74 610,74 611,74 611,74 612,74 613,74 614,74 615,74 616,74 617,74 618,74 619,74 620,74 620,74 621,74 622,74 623,74 624,74 625,74 626,74 627,73 628,73 628,74 629,73 630,73 631,73 632,73 633,73 634,73 635,73 636,73 637,73 637,73 638,73 639,73 640,73 641,73 642,73 643,73 644,73 645,73 645,73 646,73 647,73 648,73 649,73 650,73 651,73 652,73 653,73 654,73 654,73 655,73 656,73 657,73 658,73 659,73 660,73 661,73 662,73 662,73 663,73 664,73 665,73 666,73 667,73 668,73 669,73 670,73 671,73 671,73 672,73 673,73 674,73 675,73 676,73 677,73 678,73 679,73 679,73 680,73 681,73 682,73 683,73 684,73 685,73 686,73 687,73 688,73 688,73 689,73 690,73 691,73 692,73 693,72 694,73 695,73 696,73 696,72 697,72 698,73 699,72 700,72 701,72 702,72 703,72 704,72 705,73 705,72 706,72 707,72 708,72 709,72 710,72 711,73 712,73 713,73 714,73 714,73 715,73 716,73 717,73 718,73 719,73 720,73 721,73 722,73 722,73 723,72 724,73 725,73 726,73 727,73 728,73 729,73 730,73 731,73 731,73 732,73 733,73 734,73 735,73 736,73 737,73 738,72 739,72 739,72 740,72 741,72 742,72 743,72 744,72 745,72 746,73 747,73 748,72 748,72 749,72 750,72 751,72 752,72 753,72 754,72 755,72 756,72 756,72 757,72 758,72 759,72 760,72 761,72 762,72 763,72 764,72 765,72 765,72 766,72 767,72 768,72 769,72 770,72 771,71 772,72 773,72 773,72 774,72 775,72 776,72 777,72 778,72 779,72 780,72 781,72 782,72 782,72 783,72 784,71 785,72 786,71 787,71 788,71 789,71 790,71 790,71 791,71 792,71 793,71 794,71 795,71 796,71 797,71 798,71 799,71 799,71 800,71 801,71 802,71 803,71 804,71 805,71 806,71 807,70 807,70 808,70 809,71 810,71 811,71 812,71 813,71 814,71 815,71 816,71 816,71 817,71 818,71 819,71 820,71 821,71 822,71 823,71 824,71 824,71 825,71 826,71 827,71 828,71 829,71 830,71 831,71 832,71 833,71 833,71 834,71 835,71 836,71 837,71 838,71 839,71 840,71 841,71 841,71 842,71 843,70 844,70 845,70 846,70 847,70 848,70 849,70 850,70 850,70 851,70 852,70 853,70 854,70 855,70 856,70 857,70 858,70 858,70 859,70 860,70 861,70 862,70 863,70 864,70 865,70 866,70 867,70 867,70 868,70 869,70 870,70 871,70 872,70 873,70 874,70 875,70 875,70 876,70 877,70 878,70 879,70 880,70 881,70 882,70 883,69 884,70 884,70 885,69 886,69 887,69 888,69 889,69 890,69 891,69 892,69 892,69 893,69 894,69 895,69 896,69 897,68 898,68 899,68 900,69 901,68 901,68 902,68 903,68 904,68 905,68 906,68 907,68 908,68 909,68 909,69 910,69 911,69 912,69 913,69 914,69 915,69 916,69 917,69 918,69 918,68 919,69 920,68 921,68 922,68 923,69 924,68 925,68 926,68 927,68 927,68 928,68 929,68 930,68 931,68 932,68 933,68 934,68 935,68 935,68 936,68 937,68 938,68 939,68 940,68 941,68 942,68 943,68 944,68 944,68 945,68 946,68 947,68 948,68 949,68 950,68 951,68 952,68 952,68 953,68 954,68 955,68 956,68 957,68 958,68 959,68 960,68 961,68 961,68 962,68 963,68 964,68 965,68 966,68 967,68 968,68 969,68 969,68 970,68 971,68 972,69 972,69 973,69 "/>
<polygon opacity="1" fill="#E6194B" points="78,699 79,699 80,699 81,699 82,699 83,699 83,699 84,699 85,699 86,699 87,699 88,699 89,699 90,699 91,699 92,699 92,699 93,699 94,699 95,699 96,699 97,699 98,699 99,699 100,699 100,699 101,699 102,699 103,699 104,699 105,699 106,699 107,699 108,699 109,699 109,699 110,699 111,699 112,699 113,699 114,699 115,699 116,699 117,699 117,699 118,699 119,699 120,699 121,699 122,698 123,698 124,698 125,698 126,698 126,698 127,698 128,698 129,698 130,698 131,698 132,698 133,698 134,698 134,698 135,698 136,698 137,698 138,698 139,698 140,698 141,698 142,698 143,698 143,698 144,698 145,698 146,698 147,698 148,698 149,698 150,698 151,698 151,698 152,698 153,698 154,698 155,698 156,698 157,698 158,698 159,698 160,698 160,698 161,698 162,698 163,698 164,698 165,698 166,698 167,698 168,698 168,698 169,698 170,698 171,698 172,698 173,698 174,698 175,698 176,698 177,698 177,698 178,698 179,698 180,698 181,698 182,698 183,698 184,698 185,698 185,698 186,698 187,698 188,698 189,698 190,698 191,698 192,698 193,698 194,698 194,698 195,698 196,698 197,698 198,698 199,698 200,698 201,698 202,698 202,698 203,698 204,698 205,698 206,698 207,698 208,698 209,698 210,698 211,698 211,698 212,698 213,698 214,698 215,698 216,698 217,698 218,698 219,698 219,698 220,698 221,698 222,698 223,698 224,698 225,698 226,698 227,698 228,698 228,698 229,698 230,698 231,698 232,698 233,698 234,698 235,698 236,698 236,698 237,698 238,698 239,698 240,698 241,698 242,698 243,698 244,698 245,698 245,698 246,698 247,698 248,698 249,698 250,698 251,698 252,698 253,698 253,698 254,698 255,698 256,698 257,698 258,698 259,698 260,698 261,698 262,698 262,698 263,698 264,698 265,698 266,698 267,698 268,698 269,698 270,698 270,698 271,698 272,698 273,698 274,698 275,698 276,698 277,698 278,698 279,698 279,698 280,698 281,698 282,698 283,698 284,698 285,698 286,698 287,698 288,698 288,698 289,698 290,698 291,698 292,698 293,698 294,698 295,698 296,698 296,698 297,698 298,698 299,698 300,698 301,698 302,698 303,698 304,698 305,698 305,698 306,698 307,698 308,698 309,698 310,698 311,698 312,698 313,698 313,698 314,698 315,698 316,698 317,698 318,698 319,698 320,698 321,698 322,698 322,698 323,698 324,698 325,698 326,698 327,698 328,698 329,698 330,698 330,698 331,698 332,698 333,698 334,698 335,698 336,698 337,698 338,698 339,698 339,698 340,698 341,698 342,698 343,698 344,698 345,698 346,698 347,698 347,698 348,698 349,698 350,698 351,698 352,698 353,698 354,698 355,698 356,698 356,698 357,698 358,698 359,698 360,698 361,698 362,698 363,698 364,698 364,698 365,698 366,698 367,698 368,698 369,698 370,698 371,698 372,698 373,698 373,698 374,698 375,698 376,698 377,698 378,698 379,698 380,698 381,698 381,697 382,697 383,697 384,697 385,697 386,697 387,697 388,697 389,697 390,697 390,697 391,697 392,697 393,697 394,697 395,697 396,697 397,697 398,697 398,697 399,697 400,697 401,697 402,697 403,697 404,697 405,697 406,697 407,697 407,697 408,697 409,697 410,697 411,697 412,697 413,697 414,697 415,697 415,697 416,697 417,697 418,697 419,697 420,697 421,697 422,697 423,697 424,697 424,697 425,697 426,697 427,697 428,697 429,697 430,697 431,697 432,697 432,697 433,697 434,697 435,697 436,697 437,697 438,697 439,697 440,697 441,697 441,697 442,697 443,697 444,697 445,697 446,697 447,697 448,697 449,697 449,697 450,697 451,697 452,697 453,697 454,697 455,697 456,697 457,697 458,696 458,696 459,696 460,696 461,696 462,696 463,696 464,696 465,696 466,696 466,696 467,696 468,696 469,696 470,696 471,696 472,696 473,696 474,696 475,696 475,696 476,696 477,696 478,696 479,696 480,696 481,696 482,696 483,696 483,696 484,696 485,695 486,694 487,693 488,692 489,691 490,689 491,688 492,687 492,686 493,685 494,684 495,683 496,681 497,680 498,679 499,678 500,677 501,676 501,675 502,673 503,672 504,671 505,670 506,669 507,667 508,666 509,665 509,664 510,663 511,662 512,661 513,660 514,658 515,657 516,656 517,655 518,654 518,653 519,651 520,650 521,649 522,648 523,647 524,646 525,645 526,644 526,642 527,641 528,640 529,639 530,638 531,637 532,636 533,634 534,633 535,632 535,631 536,630 537,629 538,628 539,627 540,626 541,625 542,623 543,622 543,621 544,620 545,619 546,618 547,616 548,615 549,614 550,613 551,612 552,611 552,610 553,608 554,607 555,606 556,605 557,604 558,603 559,602 560,600 560,599 561,598 562,597 563,596 564,595 565,594 566,593 567,592 568,591 569,589 569,588 570,587 571,586 572,585 573,584 574,583 575,582 576,581 577,579 577,578 578,577 579,576 580,575 581,574 582,573 583,571 584,570 585,569 586,568 586,567 587,566 588,565 589,563 590,562 591,561 592,560 593,559 594,558 594,557 595,555 596,554 597,553 598,552 599,551 600,550 601,549 602,548 603,546 603,545 604,544 605,543 606,542 607,541 608,540 609,538 610,537 611,536 611,535 612,534 613,533 614,531 615,530 616,529 617,528 618,527 619,526 620,525 620,523 621,522 622,521 623,520 624,519 625,518 626,516 627,515 628,514 628,513 629,512 630,510 631,509 632,508 633,507 634,506 635,505 636,503 637,502 637,501 638,500 639,499 640,498 641,496 642,495 643,494 644,493 645,492 645,491 646,490 647,488 648,488 649,486 650,485 651,484 652,483 653,482 654,481 654,479 655,478 656,477 657,476 658,475 659,474 660,472 661,471 662,470 662,469 663,468 664,467 665,466 666,464 667,463 668,462 669,461 670,460 671,459 671,458 672,456 673,455 674,454 675,453 676,452 677,451 678,450 679,449 679,448 680,446 681,445 682,444 683,443 684,442 685,441 686,440 687,439 688,437 688,436 689,435 690,434 691,433 692,432 693,430 694,429 695,428 696,427 696,426 697,424 698,423 699,422 700,421 701,420 702,419 703,418 704,417 705,415 705,414 706,413 707,412 708,411 709,410 710,409 711,407 712,406 713,405 714,404 714,403 715,402 716,400 717,399 718,398 719,397 720,396 721,394 722,393 722,392 723,391 724,390 725,389 726,388 727,386 728,385 729,384 730,383 731,382 731,381 732,380 733,379 734,378 735,376 736,375 737,374 738,373 739,372 739,371 740,369 741,368 742,367 743,366 744,365 745,364 746,363 747,362 748,361 748,359 749,358 750,357 751,356 752,355 753,354 754,352 755,351 756,350 756,349 757,348 758,347 759,345 760,344 761,343 762,342 763,341 764,340 765,339 765,338 766,336 767,335 768,334 769,333 770,332 771,330 772,329 773,328 773,327 774,326 775,325 776,323 777,323 778,321 779,320 780,319 781,318 782,317 782,315 783,314 784,313 785,312 786,311 787,309 788,308 789,307 790,306 790,305 791,304 792,303 793,301 794,300 795,299 796,298 797,297 798,296 799,294 799,293 800,292 801,291 802,290 803,289 804,287 805,286 806,285 807,284 807,283 808,281 809,280 810,279 811,278 812,277 813,276 814,275 815,273 816,272 816,271 817,270 818,269 819,268 820,267 821,265 822,264 823,263 824,262 824,261 825,260 826,259 827,257 828,256 829,255 830,254 831,253 832,252 833,250 833,249 834,248 835,247 836,246 837,245 838,244 839,242 840,241 841,240 841,239 842,238 843,237 844,235 845,234 846,233 847,232 848,231 849,230 850,228 850,227 851,226 852,225 853,224 854,222 855,221 856,220 857,219 858,218 858,216 859,215 860,214 861,213 862,212 863,210 864,209 865,208 866,207 867,206 867,205 868,204 869,202 870,201 871,200 872,199 873,198 874,197 875,195 875,194 876,193 877,192 878,191 879,189 880,188 881,187 882,186 883,185 884,184 884,182 885,181 886,180 887,179 888,178 889,177 890,176 891,174 892,173 892,172 893,171 894,170 895,168 896,167 897,166 898,165 899,164 900,162 901,161 901,160 902,159 903,158 904,157 905,155 906,154 907,153 908,152 909,151 909,150 910,148 911,147 912,146 913,145 914,144 915,143 916,142 917,140 918,139 918,138 919,137 920,136 921,134 922,133 923,132 924,131 925,130 926,129 927,127 927,126 928,125 929,124 930,123 931,122 932,121 933,119 934,118 935,117 935,116 936,115 937,114 938,113 939,111 940,110 941,109 942,108 943,107 944,105 944,104 945,103 946,102 947,101 948,100 949,98 950,97 951,96 952,95 952,94 953,93 954,92 955,90 956,89 957,88 958,87 959,86 960,85 961,84 961,82 962,81 963,80 964,79 965,78 966,77 967,75 968,74 969,73 969,72 970,71 971,69 972,69 972,69 973,69 973,699 78,699 "/>
<polyline fill="none" opacity="1" stroke="#E6194B" stroke-width="1" points="78,699 79,699 80,699 81,699 82,699 83,699 83,699 84,699 85,699 86,699 87,699 88,699 89,699 90,699 91,699 92,699 92,699 93,699 94,699 95,699 96,699 97,699 98,699 99,699 100,699 100,699 101,699 102,699 103,699 104,699 105,699 106,699 107,699 108,699 109,699 109,699 110,699 111,699 112,699 113,699 114,699 115,699 116,699 117,699 117,699 118,699 119,699 120,699 121,699 122,698 123,698 124,698 125,698 126,698 126,698 127,698 128,698 129,698 130,698 131,698 132,698 133,698 134,698 134,698 135,698 136,698 137,698 138,698 139,698 140,698 141,698 142,698 143,698 143,698 144,698 145,698 146,698 147,698 148,698 149,698 150,698 151,698 151,698 152,698 153,698 154,698 155,698 156,698 157,698 158,698 159,698 160,698 160,698 161,698 162,698 163,698 164,698 165,698 166,698 167,698 168,698 168,698 169,698 170,698 171,698 172,698 173,698 174,698 175,698 176,698 177,698 177,698 178,698 179,698 180,698 181,698 182,698 183,698 184,698 185,698 185,698 186,698 187,698 188,698 189,698 190,698 191,698 192,698 193,698 194,698 194,698 195,698 196,698 197,698 198,698 199,698 200,698 201,698 202,698 202,698 203,698 204,698 205,698 206,698 207,698 208,698 209,698 210,698 211,698 211,698 212,698 213,698 214,698 215,698 216,698 217,698 218,698 219,698 219,698 220,698 221,698 222,698 223,698 224,698 225,698 226,698 227,698 228,698 228,698 229,698 230,698 231,698 232,698 233,698 234,698 235,698 236,698 236,698 237,698 238,698 239,698 240,698 241,698 242,698 243,698 244,698 245,698 245,698 246,698 247,698 248,698 249,698 250,698 251,698 252,698 253,698 253,698 254,698 255,698 256,698 257,698 258,698 259,698 260,698 261,698 262,698 262,698 263,698 264,698 265,698 266,698 267,698 268,698 269,698 270,698 270,698 271,698 272,698 273,698 274,698 275,698 276,698 277,698 278,698 279,698 279,698 280,698 281,698 282,698 283,698 284,698 285,698 286,698 287,698 288,698 288,698 289,698 290,698 291,698 292,698 293,698 294,698 295,698 296,698 296,698 297,698 298,698 299,698 300,698 301,698 302,698 303,698 304,698 305,698 305,698 306,698 307,698 308,698 309,698 310,698 311,698 312,698 313,698 313,698 314,698 315,698 316,698 317,698 318,698 319,698 320,698 321,698 322,698 322,698 323,698 324,698 325,698 326,698 327,698 328,698 329,698 330,698 330,698 331,698 332,698 333,698 334,698 335,698 336,698 337,698 338,698 339,698 339,698 340,698 341,698 342,698 343,698 344,698 345,698 346,698 347,698 347,698 348,698 349,698 350,698 351,698 352,698 353,698 354,698 355,698 356,698 356,698 357,698 358,698 359,698 360,698 361,698 362,698 363,698 364,698 364,698 365,698 366,698 367,698 368,698 369,698 370,698 371,698 372,698 373,698 373,698 374,698 375,698 376,698 377,698 378,698 379,698 380,698 381,698 381,697 382,697 383,697 384,697 385,697 386,697 387,697 388,697 389,697 390,697 390,697 391,697 392,697 393,697 394,697 395,697 396,697 397,697 398,697 398,697 399,697 400,697 401,697 402,697 403,697 404,697 405,697 406,697 407,697 407,697 408,697 409,697 410,697 411,697 412,697 413,697 414,697 415,697 415,697 416,697 417,697 418,697 419,697 420,697 421,697 422,697 423,697 424,697 424,697 425,697 426,697 427,697 428,697 429,697 430,697 431,697 432,697 432,697 433,697 434,697 435,697 436,697 437,697 438,697 439,697 440,697 441,697 441,697 442,697 443,697 444,697 445,697 446,697 447,697 448,697 449,697 449,697 450,697 451,697 452,697 453,697 454,697 455,697 456,697 457,697 458,696 458,696 459,696 460,696 461,696 462,696 463,696 464,696 465,696 466,696 466,696 467,696 468,696 469,696 470,696 471,696 472,696 473,696 474,696 475,696 475,696 476,696 477,696 478,696 479,696 480,696 481,696 482,696 483,696 483,696 484,696 485,695 486,694 487,693 488,692 489,691 490,689 491,688 492,687 492,686 493,685 494,684 495,683 496,681 497,680 498,679 499,678 500,677 501,676 501,675 502,673 503,672 504,671 505,670 506,669 507,667 508,666 509,665 509,664 510,663 511,662 512,661 513,660 514,658 515,657 516,656 517,655 518,654 518,653 519,651 520,650 521,649 522,648 523,647 524,646 525,645 526,644 526,642 527,641 528,640 529,639 530,638 531,637 532,636 533,634 534,633 535,632 535,631 536,630 537,629 538,628 539,627 540,626 541,625 542,623 543,622 543,621 544,620 545,619 546,618 547,616 548,615 549,614 550,613 551,612 552,611 552,610 553,608 554,607 555,606 556,605 557,604 558,603 559,602 560,600 560,599 561,598 562,597 563,596 564,595 565,594 566,593 567,592 568,591 569,589 569,588 570,587 571,586 572,585 573,584 574,583 575,582 576,581 577,579 577,578 578,577 579,576 580,575 581,574 582,573 583,571 584,570 585,569 586,568 586,567 587,566 588,565 589,563 590,562 591,561 592,560 593,559 594,558 594,557 595,555 596,554 597,553 598,552 599,551 600,550 601,549 602,548 603,546 603,545 604,544 605,543 606,542 607,541 608,540 609,538 610,537 611,536 611,535 612,534 613,533 614,531 615,530 616,529 617,528 618,527 619,526 620,525 620,523 621,522 622,521 623,520 624,519 625,518 626,516 627,515 628,514 628,513 629,512 630,510 631,509 632,508 633,507 634,506 635,505 636,503 637,502 637,501 638,500 639,499 640,498 641,496 642,495 643,494 644,493 645,492 645,491 646,490 647,488 648,488 649,486 650,485 651,484 652,483 653,482 654,481 654,479 655,478 656,477 657,476 658,475 659,474 660,472 661,471 662,470 662,469 663,468 664,467 665,466 666,464 667,463 668,462 669,461 670,460 671,459 671,458 672,456 673,455 674,454 675,453 676,452 677,451 678,450 679,449 679,448 680,446 681,445 682,444 683,443 684,442 685,441 686,440 687,439 688,437 688,436 689,435 690,434 691,433 692,432 693,430 694,429 695,428 696,427 696,426 697,424 698,423 699,422 700,421 701,420 702,419 703,418 704,417 705,415 705,414 706,413 707,412 708,411 709,410 710,409 711,407 712,406 713,405 714,404 714,403 715,402 716,400 717,399 718,398 719,397 720,396 721,394 722,393 722,392 723,391 724,390 725,389 726,388 727,386 728,385 729,384 730,383 731,382 731,381 732,380 733,379 734,378 735,376 736,375 737,374 738,373 739,372 739,371 740,369 741,368 742,367 743,366 744,365 745,364 746,363 747,362 748,361 748,359 749,358 750,357 751,356 752,355 753,354 754,352 755,351 756,350 756,349 757,348 758,347 759,345 760,344 761,343 762,342 763,341 764,340 765,339 765,338 766,336 767,335 768,334 769,333 770,332 771,330 772,329 773,328 773,327 774,326 775,325 776,323 777,323 778,321 779,320 780,319 781,318 782,317 782,315 783,314 784,313 785,312 786,311 787,309 788,308 789,307 790,306 790,305 791,304 792,303 793,301 794,300 795,299 796,298 797,297 798,296 799,294 799,293 800,292 801,291 802,290 803,289 804,287 805,286 806,285 807,284 807,283 808,281 809,280 810,279 811,278 812,277 813,276 814,275 815,273 816,272 816,271 817,270 818,269 819,268 820,267 821,265 822,264 823,263 824,262 824,261 825,260 826,259 827,257 828,256 829,255 830,254 831,253 832,252 833,250 833,249 834,248 835,247 836,246 837,245 838,244 839,242 840,241 841,240 841,239 842,238 843,237 844,235 845,234 846,233 847,232 848,231 849,230 850,228 850,227 851,226 852,225 853,224 854,222 855,221 856,220 857,219 858,218 858,216 859,215 860,214 861,213 862,212 863,210 864,209 865,208 866,207 867,206 867,205 868,204 869,202 870,201 871,200 872,199 873,198 874,197 875,195 875,194 876,193 877,192 878,191 879,189 880,188 881,187 882,186 883,185 884,184 884,182 885,181 886,180 887,179 888,178 889,177 890,176 891,174 892,173 892,172 893,171 894,170 895,168 896,167 897,166 898,165 899,164 900,162 901,161 901,160 902,159 903,158 904,157 905,155 906,154 907,153 908,152 909,151 909,150 910,148 911,147 912,146 913,145 914,144 915,143 916,142 917,140 918,139 918,138 919,137 920,136 921,134 922,133 923,132 924,131 925,130 926,129 927,127 927,126 928,125 929,124 930,123 931,122 932,121 933,119 934,118 935,117 935,116 936,115 937,114 938,113 939,111 940,110 941,109 942,108 943,107 944,105 944,104 945,103 946,102 947,101 948,100 949,98 950,97 951,96 952,95 952,94 953,93 954,92 955,90 956,89 957,88 958,87 959,86 960,85 961,84 961,82 962,81 963,80 964,79 965,78 966,77 967,75 968,74 969,73 969,72 970,71 971,69 972,69 972,69 973,69 "/>
<line opacity="0.1" stroke="#000000" stroke-width="1" x1="84" y1="699" x2="84" y2="68"/>
<line opacity="0.1" stroke="#000000" stroke-width="1" x1="94" y1="699" x2="94" y2="68"/>
<line opacity="0.1" stroke="#000000" stroke-width="1" x1="105" y1="699" x2="105" y2="68"/>
<line opacity="0.1" stroke="#000000" stroke-width="1" x1="115" y1="699" x2="115" y2="68"/>
<line opacity="0.1" stroke="#000000" stroke-width="1" x1="126" y1="699" x2="126" y2="68"/>
<line opacity="0.1" stroke="#000000" stroke-width="1" x1="137" y1="699" x2="137" y2="68"/>
<line opacity="0.1" stroke="#000000" stroke-width="1" x1="147" y1="699" x2="147" y2="68"/>
<line opacity="0.1" stroke="#000000" stroke-width="1" x1="158" y1="699" x2="158" y2="68"/>
<line opacity="0.1" stroke="#000000" stroke-width="1" x1="168" y1="699" x2="168" y2="68"/>
<line opacity="0.1" stroke="#000000" stroke-width="1" x1="179" y1="699" x2="179" y2="68"/>
<line opacity="0.1" stroke="#000000" stroke-width="1" x1="189" y1="699" x2="189" y2="68"/>
<line opacity="0.1" stroke="#000000" stroke-width="1" x1="200" y1="699" x2="200" y2="68"/>
<line opacity="0.1" stroke="#000000" stroke-width="1" x1="211" y1="699" x2="211" y2="68"/>
<line opacity="0.1" stroke="#000000" stroke-width="1" x1="221" y1="699" x2="221" y2="68"/>
<line opacity="0.1" stroke="#000000" stroke-width="1" x1="232" y1="699" x2="232" y2="68"/>
<line opacity="0.1" stroke="#000000" stroke-width="1" x1="242" y1="699" x2="242" y2="68"/>
<line opacity="0.1" stroke="#000000" stroke-width="1" x1="253" y1="699" x2="253" y2="68"/>
<line opacity="0.1" stroke="#000000" stroke-width="1" x1="264" y1="699" x2="264" y2="68"/>
<line opacity="0.1" stroke="#000000" stroke-width="1" x1="274" y1="699" x2="274" y2="68"/>
<line opacity="0.1" stroke="#000000" stroke-width="1" x1="285" y1="699" x2="285" y2="68"/>
<line opacity="0.1" stroke="#000000" stroke-width="1" x1="295" y1="699" x2="295" y2="68"/>
<line opacity="0.1" stroke="#000000" stroke-width="1" x1="306" y1="699" x2="306" y2="68"/>
<line opacity="0.1" stroke="#000000" stroke-width="1" x1="316" y1="699" x2="316" y2="68"/>
<line opacity="0.1" stroke="#000000" stroke-width="1" x1="327" y1="699" x2="327" y2="68"/>
<line opacity="0.1" stroke="#000000" stroke-width="1" x1="338" y1="699" x2="338" y2="68"/>
<line opacity="0.1" stroke="#000000" stroke-width="1" x1="348" y1="699" x2="348" y2="68"/>
<line opacity="0.1" stroke="#000000" stroke-width="1" x1="359" y1="699" x2="359" y2="68"/>
<line opacity="0.1" stroke="#000000" stroke-width="1" x1="369" y1="699" x2="369" y2="68"/>
<line opacity="0.1" stroke="#000000" stroke-width="1" x1="380" y1="699" x2="380" y2="68"/>
<line opacity="0.1" stroke="#000000" stroke-width="1" x1="390" y1="699" x2="390" y2="68"/>
<line opacity="0.1" stroke="#000000" stroke-width="1" x1="401" y1="699" x2="401" y2="68"/>
<line opacity="0.1" stroke="#000000" stroke-width="1" x1="412" y1="699" x2="412" y2="68"/>
<line opacity="0.1" stroke="#000000" stroke-width="1" x1="422" y1="699" x2="422" y2="68"/>
<line opacity="0.1" stroke="#000000" stroke-width="1" x1="433" y1="699" x2="433" y2="68"/>
<line opacity="0.1" stroke="#000000" stroke-width="1" x1="443" y1="699" x2="443" y2="68"/>
<line opacity="0.1" stroke="#000000" stroke-width="1" x1="454" y1="699" x2="454" y2="68"/>
<line opacity="0.1" stroke="#000000" stroke-width="1" x1="464" y1="699" x2="464" y2="68"/>
<line opacity="0.1" stroke="#000000" stroke-width="1" x1="475" y1="699" x2="475" y2="68"/>
<line opacity="0.1" stroke="#000000" stroke-width="1" x1="486" y1="699" x2="486" y2="68"/>
<line opacity="0.1" stroke="#000000" stroke-width="1" x1="496" y1="699" x2="496" y2="68"/>
<line opacity="0.1" stroke="#000000" stroke-width="1" x1="507" y1="699" x2="507" y2="68"/>
<line opacity="0.1" stroke="#000000" stroke-width="1" x1="517" y1="699" x2="517" y2="68"/>
<line opacity="0.1" stroke="#000000" stroke-width="1" x1="528" y1="699" x2="528" y2="68"/>
<line opacity="0.1" stroke="#000000" stroke-width="1" x1="538" y1="699" x2="538" y2="68"/>
<line opacity="0.1" stroke="#000000" stroke-width="1" x1="549" y1="699" x2="549" y2="68"/>
<line opacity="0.1" stroke="#000000" stroke-width="1" x1="560" y1="699" x2="560" y2="68"/>
<line opacity="0.1" stroke="#000000" stroke-width="1" x1="570" y1="699" x2="570" y2="68"/>
<line opacity="0.1" stroke="#000000" stroke-width="1" x1="581" y1="699" x2="581" y2="68"/>
<line opacity="0.1" stroke="#000000" stroke-width="1" x1="591" y1="699" x2="591" y2="68"/>
<line opacity="0.1" stroke="#000000" stroke-width="1" x1="602" y1="699" x2="602" y2="68"/>
<line opacity="0.1" stroke="#000000" stroke-width="1" x1="612" y1="699" x2="612" y2="68"/>
<line opacity="0.1" stroke="#000000" stroke-width="1" x1="623" y1="699" x2="623" y2="68"/>
<line opacity="0.1" stroke="#000000" stroke-width="1" x1="634" y1="699" x2="634" y2="68"/>
<line opacity="0.1" stroke="#000000" stroke-width="1" x1="644" y1="699" x2="644" y2="68"/>
<line opacity="0.1" stroke="#000000" stroke-width="1" x1="655" y1="699" x2="655" y2="68"/>
<line opacity="0.1" stroke="#000000" stroke-width="1" x1="665" y1="699" x2="665" y2="68"/>
<line opacity="0.1" stroke="#000000" stroke-width="1" x1="676" y1="699" x2="676" y2="68"/>
<line opacity="0.1" stroke="#000000" stroke-width="1" x1="687" y1="699" x2="687" y2="68"/>
<line opacity="0.1" stroke="#000000" stroke-width="1" x1="697" y1="699" x2="697" y2="68"/>
<line opacity="0.1" stroke="#000000" stroke-width="1" x1="708" y1="699" x2="708" y2="68"/>
<line opacity="0.1" stroke="#000000" stroke-width="1" x1="718" y1="699" x2="718" y2="68"/>
<line opacity="0.1" stroke="#000000" stroke-width="1" x1="729" y1="699" x2="729" y2="68"/>
<line opacity="0.1" stroke="#000000" stroke-width="1" x1="739" y1="699" x2="739" y2="68"/>
<line opacity="0.1" stroke="#000000" stroke-width="1" x1="750" y1="699" x2="750" y2="68"/>
<line opacity="0.1" stroke="#000000" stroke-width="1" x1="761" y1="699" x2="761" y2="68"/>
<line opacity="0.1" stroke="#000000" stroke-width="1" x1="771" y1="699" x2="771" y2="68"/>
<line opacity="0.1" stroke="#000000" stroke-width="1" x1="782" y1="699" x2="782" y2="68"/>
<line opacity="0.1" stroke="#000000" stroke-width="1" x1="792" y1="699" x2="792" y2="68"/>
<line opacity="0.1" stroke="#000000" stroke-width="1" x1="803" y1="699" x2="803" y2="68"/>
<line opacity="0.1" stroke="#000000" stroke-width="1" x1="813" y1="699" x2="813" y2="68"/>
<line opacity="0.1" stroke="#000000" stroke-width="1" x1="824" y1="699" x2="824" y2="68"/>
<line opacity="0.1" stroke="#000000" stroke-width="1" x1="835" y1="699" x2="835" y2="68"/>
<line opacity="0.1" stroke="#000000" stroke-width="1" x1="845" y1="699" x2="845" y2="68"/>
<line opacity="0.1" stroke="#000000" stroke-width="1" x1="856" y1="699" x2="856" y2="68"/>
<line opacity="0.1" stroke="#000000" stroke-width="1" x1="866" y1="699" x2="866" y2="68"/>
<line opacity="0.1" stroke="#000000" stroke-width="1" x1="877" y1="699" x2="877" y2="68"/>
<line opacity="0.1" stroke="#000000" stroke-width="1" x1="887" y1="699" x2="887" y2="68"/>
<line opacity="0.1" stroke="#000000" stroke-width="1" x1="898" y1="699" x2="898" y2="68"/>
<line opacity="0.1" stroke="#000000" stroke-width="1" x1="909" y1="699" x2="909" y2="68"/>
<line opacity="0.1" stroke="#000000" stroke-width="1" x1="919" y1="699" x2="919" y2="68"/>
<line opacity="0.1" stroke="#000000" stroke-width="1" x1="930" y1="699" x2="930" y2="68"/>
<line opacity="0.1" stroke="#000000" stroke-width="1" x1="940" y1="699" x2="940" y2="68"/>
<line opacity="0.1" stroke="#000000" stroke-width="1" x1="951" y1="699" x2="951" y2="68"/>
<line opacity="0.1" stroke="#000000" stroke-width="1" x1="961" y1="699" x2="961" y2="68"/>
<line opacity="0.1" stroke="#000000" stroke-width="1" x1="972" y1="699" x2="972" y2="68"/>
<line opacity="0.1" stroke="#000000" stroke-width="1" x1="78" y1="699" x2="973" y2="699"/>
<line opacity="0.1" stroke="#000000" stroke-width="1" x1="78" y1="691" x2="973" y2="691"/>
<line opacity="0.1" stroke="#000000" stroke-width="1" x1="78" y1="683" x2="973" y2="683"/>
<line opacity="0.1" stroke="#000000" stroke-width="1" x1="78" y1="675" x2="973" y2="675"/>
<line opacity="0.1" stroke="#000000" stroke-width="1" x1="78" y1="667" x2="973" y2="667"/>
<line opacity="0.1" stroke="#000000" stroke-width="1" x1="78" y1="659" x2="973" y2="659"/>
<line opacity="0.1" stroke="#000000" stroke-width="1" x1="78" y1="651" x2="973" y2="651"/>
<line opacity="0.1" stroke="#000000" stroke-width="1" x1="78" y1="643" x2="973" y2="643"/>
<line opacity="0.1" stroke="#000000" stroke-width="1" x1="78" y1="635" x2="973" y2="635"/>
<line opacity="0.1" stroke="#000000" stroke-width="1" x1="78" y1="627" x2="973" y2="627"/>
<line opacity="0.1" stroke="#000000" stroke-width="1" x1="78" y1="620" x2="973" y2="620"/>
<line opacity="0.1" stroke="#000000" stroke-width="1" x1="78" y1="612" x2="973" y2="612"/>
<line opacity="0.1" stroke="#000000" stroke-width="1" x1="78" y1="604" x2="973" y2="604"/>
<line opacity="0.1" stroke="#000000" stroke-width="1" x1="78" y1="596" x2="973" y2="596"/>
<line opacity="0.1" stroke="#000000" stroke-width="1" x1="78" y1="588" x2="973" y2="588"/>
<line opacity="0.1" stroke="#000000" stroke-width="1" x1="78" y1="580" x2="973" y2="580"/>
<line opacity="0.1" stroke="#000000" stroke-width="1" x1="78" y1="572" x2="973" y2="572"/>
<line opacity="0.1" stroke="#000000" stroke-width="1" x1="78" y1="564" x2="973" y2="564"/>
<line opacity="0.1" stroke="#000000" stroke-width="1" x1="78" y1="556" x2="973" y2="556"/>
<line opacity="0.1" stroke="#000000" stroke-width="1" x1="78" y1="548" x2="973" y2="548"/>
<line opacity="0.1" stroke="#000000" stroke-width="1" x1="78" y1="541" x2="973" y2="541"/>
<line opacity="0.1" stroke="#000000" stroke-width="1" x1="78" y1="533" x2="973" y2="533"/>
<line opacity="0.1" stroke="#000000" stroke-width="1" x1="78" y1="525" x2="973" y2="525"/>
<line opacity="0.1" stroke="#000000" stroke-width="1" x1="78" y1="517" x2="973" y2="517"/>
<line opacity="0.1" stroke="#000000" stroke-width="1" x1="78" y1="509" x2="973" y2="509"/>
<line opacity="0.1" stroke="#000000" stroke-width="1" x1="78" y1="501" x2="973" y2="501"/>
<line opacity="0.1" stroke="#000000" stroke-width="1" x1="78" y1="493" x2="973" y2="493"/>
<line opacity="0.1" stroke="#000000" stroke-width="1" x1="78" y1="485" x2="973" y2="485"/>
<line opacity="0.1" stroke="#000000" stroke-width="1" x1="78" y1="477" x2="973" y2="477"/>
<line opacity="0.1" stroke="#000000" stroke-width="1" x1="78" y1="469" x2="973" y2="469"/>
<line opacity="0.1" stroke="#000000" stroke-width="1" x1="78" y1="462" x2="973" y2="462"/>
<line opacity="0.1" stroke="#000000" stroke-width="1" x1="78" y1="454" x2="973" y2="454"/>
<line opacity="0.1" stroke="#000000" stroke-width="1" x1="78" y1="446" x2="973" y2="446"/>
<line opacity="0.1" stroke="#000000" stroke-width="1" x1="78" y1="438" x2="973" y2="438"/>
<line opacity="0.1" stroke="#000000" stroke-width="1" x1="78" y1="430" x2="973" y2="430"/>
<line opacity="0.1" stroke="#000000" stroke-width="1" x1="78" y1="422" x2="973" y2="422"/>
<line opacity="0.1" stroke="#000000" stroke-width="1" x1="78" y1="414" x2="973" y2="414"/>
<line opacity="0.1" stroke="#000000" stroke-width="1" x1="78" y1="406" x2="973" y2="406"/>
<line opacity="0.1" stroke="#000000" stroke-width="1" x1="78" y1="398" x2="973" y2="398"/>
<line opacity="0.1" stroke="#000000" stroke-width="1" x1="78" y1="390" x2="973" y2="390"/>
<line opacity="0.1" stroke="#000000" stroke-width="1" x1="78" y1="383" x2="973" y2="383"/>
<line opacity="0.1" stroke="#000000" stroke-width="1" x1="78" y1="375" x2="973" y2="375"/>
<line opacity="0.1" stroke="#000000" stroke-width="1" x1="78" y1="367" x2="973" y2="367"/>
<line opacity="0.1" stroke="#000000" stroke-width="1" x1="78" y1="359" x2="973" y2="359"/>
<line opacity="0.1" stroke="#000000" stroke-width="1" x1="78" y1="351" x2="973" y2="351"/>
<line opacity="0.1" stroke="#000000" stroke-width="1" x1="78" y1="343" x2="973" y2="343"/>
<line opacity="0.1" stroke="#000000" stroke-width="1" x1="78" y1="335" x2="973" y2="335"/>
<line opacity="0.1" stroke="#000000" stroke-width="1" x1="78" y1="327" x2="973" y2="327"/>
<line opacity="0.1" stroke="#000000" stroke-width="1" x1="78" y1="319" x2="973" y2="319"/>
<line opacity="0.1" stroke="#000000" stroke-width="1" x1="78" y1="311" x2="973" y2="311"/>
<line opacity="0.1" stroke="#000000" stroke-width="1" x1="78" y1="304" x2="973" y2="304"/>
<line opacity="0.1" stroke="#000000" stroke-width="1" x1="78" y1="296" x2="973" y2="296"/>
<line opacity="0.1" stroke="#000000" stroke-width="1" x1="78" y1="288" x2="973" y2="288"/>
<line opacity="0.1" stroke="#000000" stroke-width="1" x1="78" y1="280" x2="973" y2="280"/>
<line opacity="0.1" stroke="#000000" stroke-width="1" x1="78" y1="272" x2="973" y2="272"/>
<line opacity="0.1" stroke="#000000" stroke-width="1" x1="78" y1="264" x2="973" y2="264"/>
<line opacity="0.1" stroke="#000000" stroke-width="1" x1="78" y1="256" x2="973" y2="256"/>
<line opacity="0.1" stroke="#000000" stroke-width="1" x1="78" y1="248" x2="973" y2="248"/>
<line opacity="0.1" stroke="#000000" stroke-width="1" x1="78" y1="240" x2="973" y2="240"/>
<line opacity="0.1" stroke="#000000" stroke-width="1" x1="78" y1="232" x2="973" y2="232"/>
<line opacity="0.1" stroke="#000000" stroke-width="1" x1="78" y1="225" x2="973" y2="225"/>
<line opacity="0.1" stroke="#000000" stroke-width="1" x1="78" y1="217" x2="973" y2="217"/>
<line opacity="0.1" stroke="#000000" stroke-width="1" x1="78" y1="209" x2="973" y2="209"/>
<line opacity="0.1" stroke="#000000" stroke-width="1" x1="78" y1="201" x2="973" y2="201"/>
<line opacity="0.1" stroke="#000000" stroke-width="1" x1="78" y1="193" x2="973" y2="193"/>
<line opacity="0.1" stroke="#000000" stroke-width="1" x1="78" y1="185" x2="973" y2="185"/>
<line opacity="0.1" stroke="#000000" stroke-width="1" x1="78" y1="177" x2="973" y2="177"/>
<line opacity="0.1" stroke="#000000" stroke-width="1" x1="78" y1="169" x2="973" y2="169"/>
<line opacity="0.1" stroke="#000000" stroke-width="1" x1="78" y1="161" x2="973" y2="161"/>
<line opacity="0.1" stroke="#000000" stroke-width="1" x1="78" y1="154" x2="973" y2="154"/>
<line opacity="0.1" stroke="#000000" stroke-width="1" x1="78" y1="146" x2="973" y2="146"/>
<line opacity="0.1" stroke="#000000" stroke-width="1" x1="78" y1="138" x2="973" y2="138"/>
<line opacity="0.1" stroke="#000000" stroke-width="1" x1="78" y1="130" x2="973" y2="130"/>
<line opacity="0.1" stroke="#000000" stroke-width="1" x1="78" y1="122" x2="973" y2="122"/>
<line opacity="0.1" stroke="#000000" stroke-width="1" x1="78" y1="114" x2="973" y2="114"/>
<line opacity="0.1" stroke="#000000" stroke-width="1" x1="78" y1="106" x2="973" y2="106"/>
<line opacity="0.1" stroke="#000000" stroke-width="1" x1="78" y1="98" x2="973" y2="98"/>
<line opacity="0.1" stroke="#000000" stroke-width="1" x1="78" y1="90" x2="973" y2="90"/>
<line opacity="0.1" stroke="#000000" stroke-width="1" x1="78" y1="82" x2="973" y2="82"/>
<line opacity="0.1" stroke="#000000" stroke-width="1" x1="78" y1="75" x2="973" y2="75"/>
<text x="8" y="384" dy="0.76em" text-anchor="middle" font-family="sans-serif" font-size="9.67741935483871" opacity="1" fill="#000000" transform="rotate(270, 8, 384)">
Memory usage
</text>
<text x="526" y="760" dy="-0.5ex" text-anchor="middle" font-family="sans-serif" font-size="9.67741935483871" opacity="1" fill="#000000">
Time
</text>
<line opacity="0.2" stroke="#000000" stroke-width="1" x1="105" y1="699" x2="105" y2="68"/>
<line opacity="0.2" stroke="#000000" stroke-width="1" x1="211" y1="699" x2="211" y2="68"/>
<line opacity="0.2" stroke="#000000" stroke-width="1" x1="316" y1="699" x2="316" y2="68"/>
<line opacity="0.2" stroke="#000000" stroke-width="1" x1="422" y1="699" x2="422" y2="68"/>
<line opacity="0.2" stroke="#000000" stroke-width="1" x1="528" y1="699" x2="528" y2="68"/>
<line opacity="0.2" stroke="#000000" stroke-width="1" x1="634" y1="699" x2="634" y2="68"/>
<line opacity="0.2" stroke="#000000" stroke-width="1" x1="739" y1="699" x2="739" y2="68"/>
<line opacity="0.2" stroke="#000000" stroke-width="1" x1="845" y1="699" x2="845" y2="68"/>
<line opacity="0.2" stroke="#000000" stroke-width="1" x1="951" y1="699" x2="951" y2="68"/>
<line opacity="0.2" stroke="#000000" stroke-width="1" x1="78" y1="699" x2="973" y2="699"/>
<line opacity="0.2" stroke="#000000" stroke-width="1" x1="78" y1="620" x2="973" y2="620"/>
<line opacity="0.2" stroke="#000000" stroke-width="1" x1="78" y1="541" x2="973" y2="541"/>
<line opacity="0.2" stroke="#000000" stroke-width="1" x1="78" y1="462" x2="973" y2="462"/>
<line opacity="0.2" stroke="#000000" stroke-width="1" x1="78" y1="383" x2="973" y2="383"/>
<line opacity="0.2" stroke="#000000" stroke-width="1" x1="78" y1="304" x2="973" y2="304"/>
<line opacity="0.2" stroke="#000000" stroke-width="1" x1="78" y1="225" x2="973" y2="225"/>
<line opacity="0.2" stroke="#000000" stroke-width="1" x1="78" y1="146" x2="973" y2="146"/>
<polyline fill="none" opacity="1" stroke="#000000" stroke-width="1" points="77,68 77,699 "/>
<text x="68" y="699" dy="0.5ex" text-anchor="end" font-family="sans-serif" font-size="9.67741935483871" opacity="1" fill="#000000">
0.0 MB
</text>
<polyline fill="none" opacity="1" stroke="#000000" stroke-width="1" points="72,699 77,699 "/>
<text x="68" y="620" dy="0.5ex" text-anchor="end" font-family="sans-serif" font-size="9.67741935483871" opacity="1" fill="#000000">
4.8 MB
</text>
<polyline fill="none" opacity="1" stroke="#000000" stroke-width="1" points="72,620 77,620 "/>
<text x="68" y="541" dy="0.5ex" text-anchor="end" font-family="sans-serif" font-size="9.67741935483871" opacity="1" fill="#000000">
9.5 MB
</text>
<polyline fill="none" opacity="1" stroke="#000000" stroke-width="1" points="72,541 77,541 "/>
<text x="68" y="462" dy="0.5ex" text-anchor="end" font-family="sans-serif" font-size="9.67741935483871" opacity="1" fill="#000000">
14.3 MB
</text>
<polyline fill="none" opacity="1" stroke="#000000" stroke-width="1" points="72,462 77,462 "/>
<text x="68" y="383" dy="0.5ex" text-anchor="end" font-family="sans-serif" font-size="9.67741935483871" opacity="1" fill="#000000">
19.1 MB
</text>
<polyline fill="none" opacity="1" stroke="#000000" stroke-width="1" points="72,383 77,383 "/>
<text x="68" y="304" dy="0.5ex" text-anchor="end" font-family="sans-serif" font-size="9.67741935483871" opacity="1" fill="#000000">
23.8 MB
</text>
<polyline fill="none" opacity="1" stroke="#000000" stroke-width="1" points="72,304 77,304 "/>
<text x="68" y="225" dy="0.5ex" text-anchor="end" font-family="sans-serif" font-size="9.67741935483871" opacity="1" fill="#000000">
28.6 MB
</text>
<polyline fill="none" opacity="1" stroke="#000000" stroke-width="1" points="72,225 77,225 "/>
<text x="68" y="146" dy="0.5ex" text-anchor="end" font-family="sans-serif" font-size="9.67741935483871" opacity="1" fill="#000000">
33.4 MB
</text>
<polyline fill="none" opacity="1" stroke="#000000" stroke-width="1" points="72,146 77,146 "/>
<polyline fill="none" opacity="1" stroke="#000000" stroke-width="1" points="78,700 973,700 "/>
<text x="105" y="710" dy="0.76em" text-anchor="middle" font-family="sans-serif" font-size="9.67741935483871" opacity="1" fill="#000000">
07 20:33:20
</text>
<polyline fill="none" opacity="1" stroke="#000000" stroke-width="1" points="105,700 105,705 "/>
<text x="211" y="710" dy="0.76em" text-anchor="middle" font-family="sans-serif" font-size="9.67741935483871" opacity="1" fill="#000000">
08 10:26:40
</text>
<polyline fill="none" opacity="1" stroke="#000000" stroke-width="1" points="211,700 211,705 "/>
<text x="316" y="710" dy="0.76em" text-anchor="middle" font-family="sans-serif" font-size="9.67741935483871" opacity="1" fill="#000000">
09 00:20:00
</text>
<polyline fill="none" opacity="1" stroke="#000000" stroke-width="1" points="316,700 316,705 "/>
<text x="422" y="710" dy="0.76em" text-anchor="middle" font-family="sans-serif" font-size="9.67741935483871" opacity="1" fill="#000000">
09 14:13:20
</text>
<polyline fill="none" opacity="1" stroke="#000000" stroke-width="1" points="422,700 422,705 "/>
<text x="528" y="710" dy="0.76em" text-anchor="middle" font-family="sans-serif" font-size="9.67741935483871" opacity="1" fill="#000000">
10 04:06:40
</text>
<polyline fill="none" opacity="1" stroke="#000000" stroke-width="1" points="528,700 528,705 "/>
<text x="634" y="710" dy="0.76em" text-anchor="middle" font-family="sans-serif" font-size="9.67741935483871" opacity="1" fill="#000000">
10 18:00:00
</text>
<polyline fill="none" opacity="1" stroke="#000000" stroke-width="1" points="634,700 634,705 "/>
<text x="739" y="710" dy="0.76em" text-anchor="middle" font-family="sans-serif" font-size="9.67741935483871" opacity="1" fill="#000000">
11 07:53:20
</text>
<polyline fill="none" opacity="1" stroke="#000000" stroke-width="1" points="739,700 739,705 "/>
<text x="845" y="710" dy="0.76em" text-anchor="middle" font-family="sans-serif" font-size="9.67741935483871" opacity="1" fill="#000000">
11 21:46:40
</text>
<polyline fill="none" opacity="1" stroke="#000000" stroke-width="1" points="845,700 845,705 "/>
<text x="951" y="710" dy="0.76em" text-anchor="middle" font-family="sans-serif" font-size="9.67741935483871" opacity="1" fill="#000000">
12 11:40:00
</text>
<polyline fill="none" opacity="1" stroke="#000000" stroke-width="1" points="951,700 951,705 "/>
<polyline fill="none" opacity="1" stroke="#000000" stroke-width="1" points="78,67 974,67 "/>
<text x="105" y="58" dy="-0.5ex" text-anchor="middle" font-family="sans-serif" font-size="9.67741935483871" opacity="1" fill="#000000">
+03:35:44
</text>
<polyline fill="none" opacity="1" stroke="#000000" stroke-width="1" points="105,62 105,67 "/>
<text x="211" y="58" dy="-0.5ex" text-anchor="middle" font-family="sans-serif" font-size="9.67741935483871" opacity="1" fill="#000000">
+17:29:04
</text>
<polyline fill="none" opacity="1" stroke="#000000" stroke-width="1" points="211,62 211,67 "/>
<text x="317" y="58" dy="-0.5ex" text-anchor="middle" font-family="sans-serif" font-size="9.67741935483871" opacity="1" fill="#000000">
+31:22:24
</text>
<polyline fill="none" opacity="1" stroke="#000000" stroke-width="1" points="317,62 317,67 "/>
<text x="423" y="58" dy="-0.5ex" text-anchor="middle" font-family="sans-serif" font-size="9.67741935483871" opacity="1" fill="#000000">
+45:15:44
</text>
<polyline fill="none" opacity="1" stroke="#000000" stroke-width="1" points="423,62 423,67 "/>
<text x="528" y="58" dy="-0.5ex" text-anchor="middle" font-family="sans-serif" font-size="9.67741935483871" opacity="1" fill="#000000">
+59:09:04
</text>
<polyline fill="none" opacity="1" stroke="#000000" stroke-width="1" points="528,62 528,67 "/>
<text x="634" y="58" dy="-0.5ex" text-anchor="middle" font-family="sans-serif" font-size="9.67741935483871" opacity="1" fill="#000000">
+73:02:24
</text>
<polyline fill="none" opacity="1" stroke="#000000" stroke-width="1" points="634,62 634,67 "/>
<text x="740" y="58" dy="-0.5ex" text-anchor="middle" font-family="sans-serif" font-size="9.67741935483871" opacity="1" fill="#000000">
+86:55:44
</text>
<polyline fill="none" opacity="1" stroke="#000000" stroke-width="1" points="740,62 740,67 "/>
<text x="846" y="58" dy="-0.5ex" text-anchor="middle" font-family="sans-serif" font-size="9.67741935483871" opacity="1" fill="#000000">
+100:49:04
</text>
<polyline fill="none" opacity="1" stroke="#000000" stroke-width="1" points="846,62 846,67 "/>
<text x="952" y="58" dy="-0.5ex" text-anchor="middle" font-family="sans-serif" font-size="9.67741935483871" opacity="1" fill="#000000">
+114:42:24
</text>
<polyline fill="none" opacity="1" stroke="#000000" stroke-width="1" points="952,62 952,67 "/>
<rect x="83" y="73" width="99" height="45" opacity="0.75" fill="#FFFFFF" stroke="none"/>
<rect x="83" y="73" width="99" height="45" opacity="1" fill="none" stroke="#000000"/>
<text x="123" y="83" dy="0.76em" text-anchor="start" font-family="sans-serif" font-size="9.67741935483871" opacity="1" fill="#000000">
Temporary
</text>
<text x="123" y="98" dy="0.76em" text-anchor="start" font-family="sans-serif" font-size="9.67741935483871" opacity="1" fill="#000000">
Leaked
</text>
<rect x="93" y="83" width="10" height="10" opacity="1" fill="#3CB44B" stroke="none"/>
<rect x="93" y="98" width="10" height="10" opacity="1" fill="#E6194B" stroke="none"/>
</svg>
