<svg width="1024" height="768" viewBox="0 0 1024 768" xmlns="http://www.w3.org/2000/svg">
<rect x="0" y="0" width="1024" height="768" opacity="1" fill="#FFFFFF" stroke="none"/>
<polygon opacity="1" fill="#3CB44B" points="78,697 79,696 80,695 81,694 82,693 82,691 83,690 84,689 85,688 86,687 87,686 88,685 89,684 90,683 91,682 91,680 92,679 93,678 94,677 95,676 96,675 97,674 98,673 99,672 99,671 100,670 101,669 102,668 103,667 104,666 105,665 106,663 107,662 108,661 108,660 109,659 110,658 111,657 112,656 113,655 114,654 115,652 116,651 116,650 117,649 118,648 119,647 120,645 121,644 122,643 123,642 124,641 125,640 125,639 126,638 127,637 128,635 129,634 130,633 131,632 132,631 133,630 134,629 134,627 135,626 136,625 137,624 138,623 139,622 140,621 141,620 142,619 142,618 143,617 144,615 145,614 146,613 147,612 148,611 149,610 150,609 151,607 151,606 152,605 153,604 154,603 155,602 156,601 157,600 158,599 159,598 159,597 160,595 161,595 162,593 163,592 164,591 165,590 166,589 167,588 168,587 168,586 169,585 170,583 171,582 172,581 173,580 174,579 175,578 176,577 176,575 177,574 178,573 179,572 180,571 181,570 182,569 183,568 184,567 185,565 185,564 186,563 187,562 188,561 189,560 190,559 191,558 192,557 193,555 193,554 194,553 195,552 196,551 197,550 198,549 199,548 200,547 201,546 202,545 202,544 203,543 204,541 205,540 206,539 207,538 208,537 209,536 210,535 210,534 211,533 212,532 213,531 214,529 215,528 216,527 217,526 218,525 219,524 219,523 220,522 221,521 222,520 223,519 224,518 225,517 226,516 227,515 227,514 228,513 229,512 230,511 231,509 232,508 233,507 234,506 235,505 236,504 236,503 237,502 238,501 239,500 240,499 241,498 242,496 243,495 244,495 244,493 245,492 246,491 247,490 248,489 249,488 250,487 251,486 252,485 253,484 253,482 254,481 255,480 256,479 257,478 258,477 259,476 260,475 261,474 261,472 262,471 263,470 264,469 265,468 266,467 267,466 268,465 269,464 270,463 270,462 271,461 272,460 273,458 274,457 275,456 276,455 277,454 278,453 278,452 279,451 280,450 281,449 282,447 283,446 284,445 285,444 286,443 287,442 287,441 288,440 289,439 290,438 291,437 292,436 293,435 294,434 295,432 295,431 296,430 297,429 298,428 299,427 300,426 301,425 302,424 303,423 304,421 304,420 305,419 306,418 307,417 308,416 309,415 310,414 311,413 312,411 312,410 313,409 314,408 315,407 316,406 317,405 318,404 319,402 320,401 321,400 321,399 322,398 323,397 324,396 325,395 326,394 327,393 328,392 329,391 329,390 330,389 331,387 332,387 333,385 334,384 335,383 336,382 337,381 338,380 338,379 339,378 340,377 341,376 342,375 343,374 344,373 345,372 346,371 347,369 347,368 348,367 349,366 350,365 351,364 352,363 353,362 354,361 355,360 355,359 356,358 357,357 358,356 359,354 360,353 361,352 362,351 363,350 364,349 364,348 365,347 366,345 367,344 368,343 369,342 370,341 371,340 372,339 372,338 373,337 374,335 375,334 376,333 377,332 378,331 379,330 380,329 381,328 381,327 382,326 383,325 384,324 385,323 386,321 387,320 388,319 389,318 389,317 390,316 391,315 392,314 393,313 394,311 395,310 396,309 397,308 398,307 398,306 399,305 400,304 401,303 402,302 403,300 404,299 405,298 406,297 406,296 407,295 408,294 409,293 410,292 411,291 412,289 413,288 414,287 415,286 415,285 416,284 417,283 418,282 419,280 420,279 421,278 422,277 423,276 423,275 424,274 425,273 426,272 427,270 428,269 429,268 430,267 431,266 432,265 432,264 433,263 434,262 435,261 436,260 437,259 438,258 439,257 440,256 440,255 441,254 442,253 443,252 444,250 445,249 446,248 447,247 448,246 449,245 449,244 450,242 451,241 452,240 453,239 454,238 455,237 456,236 457,235 457,233 458,232 459,231 460,230 461,229 462,228 463,227 464,226 465,225 466,224 466,222 467,221 468,220 469,219 470,218 471,217 472,216 473,215 474,214 474,213 475,211 476,210 477,209 478,208 479,207 480,206 481,205 482,204 483,203 483,202 484,201 485,200 486,198 487,197 488,196 489,195 490,194 491,193 491,192 492,191 493,190 494,188 495,187 496,186 497,185 498,184 499,183 500,182 500,181 501,180 502,179 503,177 504,176 505,175 506,174 507,173 508,172 508,171 509,170 510,169 511,168 512,167 513,166 514,164 515,163 516,162 517,161 517,160 518,159 519,158 520,157 521,156 522,155 523,154 524,153 525,151 525,150 526,149 527,148 528,147 529,146 530,145 531,144 532,143 533,142 534,140 534,139 535,138 536,137 537,136 538,135 539,134 540,133 541,132 542,131 542,130 543,128 544,127 545,126 546,125 547,124 548,123 549,122 550,121 551,120 551,118 552,117 553,116 554,115 555,114 556,113 557,112 558,111 559,110 560,109 560,108 561,107 562,106 563,105 564,104 565,103 566,102 567,101 568,100 568,99 569,98 570,97 571,96 572,95 573,93 574,92 575,91 576,90 577,89 577,88 578,87 579,86 580,85 581,84 582,83 583,82 584,81 585,80 585,79 586,78 587,76 588,75 589,74 590,73 591,72 592,71 593,70 594,69 594,68 595,68 596,68 597,68 598,68 599,68 600,68 601,68 602,68 602,68 603,68 604,68 605,68 606,68 607,68 608,68 609,68 610,68 611,68 611,68 612,68 613,68 614,68 615,68 616,68 617,68 618,68 619,68 619,68 620,68 621,68 622,68 623,68 624,68 625,68 626,68 627,68 628,68 628,68 629,68 630,68 631,68 632,68 633,68 634,68 635,68 636,68 636,68 637,68 638,68 639,68 640,68 641,68 642,68 643,68 644,68 645,68 645,68 646,68 647,68 648,68 649,68 650,68 651,68 652,68 653,68 653,68 654,68 655,68 656,68 657,68 658,68 659,68 660,68 661,68 662,68 662,68 663,68 664,68 665,68 666,68 667,68 668,68 669,68 670,68 670,68 671,68 672,68 673,68 674,68 675,68 676,68 677,68 678,68 679,68 679,68 680,68 681,68 682,68 683,68 684,68 685,68 686,68 687,68 687,68 688,68 689,68 690,68 691,68 692,68 693,68 694,68 695,68 696,68 696,68 697,68 698,68 699,68 700,68 701,68 702,68 703,68 704,68 704,68 705,68 706,68 707,68 708,68 709,68 710,68 711,68 712,68 713,68 713,68 714,68 715,68 716,68 717,68 718,68 719,68 720,68 721,68 721,68 722,68 723,68 724,68 725,68 726,68 727,68 728,68 729,68 730,68 730,68 731,68 732,68 733,68 734,68 735,68 736,68 737,68 738,68 738,68 739,68 740,68 741,68 742,68 743,68 744,68 745,68 746,68 747,68 747,68 748,68 749,68 750,68 751,68 752,68 753,68 754,68 755,68 755,68 756,68 757,68 758,68 759,68 760,68 761,68 762,68 763,68 764,68 764,68 765,68 766,68 767,68 768,68 769,68 770,68 771,68 772,68 773,68 773,68 774,68 775,68 776,68 777,68 778,68 779,68 780,68 781,68 781,68 782,68 783,68 784,68 785,68 786,68 787,68 788,68 789,68 790,68 790,68 791,68 792,68 793,68 794,68 795,68 796,68 797,68 798,68 798,68 799,68 800,68 801,68 802,68 803,69 804,68 805,68 806,69 807,69 807,69 808,69 809,69 810,69 811,69 812,69 813,69 814,69 815,69 815,69 816,69 817,69 818,69 819,69 820,69 821,69 822,69 823,69 824,69 824,69 825,69 826,69 827,69 828,69 829,69 830,69 831,69 832,69 832,69 833,69 834,69 835,69 836,70 837,70 838,70 839,70 840,70 841,70 841,70 842,70 843,70 844,70 845,70 846,70 847,70 848,70 849,70 849,70 850,70 851,70 852,70 853,70 854,70 855,70 856,70 857,70 858,70 858,70 859,70 860,70 861,70 862,70 863,70 864,70 865,70 866,70 866,70 867,70 868,70 869,70 870,70 871,70 872,70 873,70 874,70 875,70 875,70 876,70 877,70 878,70 879,70 880,70 881,70 882,70 883,70 883,70 884,70 885,70 886,70 887,70 888,71 889,71 890,71 891,71 892,71 892,71 893,71 894,71 895,71 896,71 897,71 898,71 899,71 900,71 900,71 901,71 902,71 903,71 904,71 905,71 906,71 907,71 908,71 909,71 909,71 910,71 911,71 912,71 913,71 914,71 915,71 916,71 917,71 917,71 918,71 919,71 920,71 921,71 922,71 923,71 924,71 925,71 926,71 926,71 927,71 928,71 929,71 930,71 931,72 932,72 933,72 934,72 934,72 935,72 936,72 937,72 938,72 939,72 940,72 941,72 942,72 943,72 943,72 944,72 945,72 946,72 947,72 948,72 949,72 950,72 951,72 951,72 952,72 953,72 954,72 955,72 956,72 957,72 958,72 959,72 960,72 960,72 961,72 962,72 963,72 964,72 965,72 966,72 967,72 968,72 968,72 969,72 970,72 971,72 972,73 972,73 973,73 973,699 78,699 "/>
<polyline fill="none" opacity="1" stroke="#3CB44B" stroke-width="1" points="78,697 79,696 80,695 81,694 82,693 82,691 83,690 84,689 85,688 86,687 87,686 88,685 89,684 90,683 91,682 91,680 92,679 93,678 94,677 95,676 96,675 97,674 98,673 99,672 99,671 100,670 101,669 102,668 103,667 104,666 105,665 106,663 107,662 108,661 108,660 109,659 110,658 111,657 112,656 113,655 114,654 115,652 116,651 116,650 117,649 118,648 119,647 120,645 121,644 122,643 123,642 124,641 125,640 125,639 126,638 127,637 128,635 129,634 130,633 131,632 132,631 133,630 134,629 134,627 135,626 136,625 137,624 138,623 139,622 140,621 141,620 142,619 142,618 143,617 144,615 145,614 146,613 147,612 148,611 149,610 150,609 151,607 151,606 152,605 153,604 154,603 155,602 156,601 157,600 158,599 159,598 159,597 160,595 161,595 162,593 163,592 164,591 165,590 166,589 167,588 168,587 168,586 169,585 170,583 171,582 172,581 173,580 174,579 175,578 176,577 176,575 177,574 178,573 179,572 180,571 181,570 182,569 183,568 184,567 185,565 185,564 186,563 187,562 188,561 189,560 190,559 191,558 192,557 193,555 193,554 194,553 195,552 196,551 197,550 198,549 199,548 200,547 201,546 202,545 202,544 203,543 204,541 205,540 206,539 207,538 208,537 209,536 210,535 210,534 211,533 212,532 213,531 214,529 215,528 216,527 217,526 218,525 219,524 219,523 220,522 221,521 222,520 223,519 224,518 225,517 226,516 227,515 227,514 228,513 229,512 230,511 231,509 232,508 233,507 234,506 235,505 236,504 236,503 237,502 238,501 239,500 240,499 241,498 242,496 243,495 244,495 244,493 245,492 246,491 247,490 248,489 249,488 250,487 251,486 252,485 253,484 253,482 254,481 255,480 256,479 257,478 258,477 259,476 260,475 261,474 261,472 262,471 263,470 264,469 265,468 266,467 267,466 268,465 269,464 270,463 270,462 271,461 272,460 273,458 274,457 275,456 276,455 277,454 278,453 278,452 279,451 280,450 281,449 282,447 283,446 284,445 285,444 286,443 287,442 287,441 288,440 289,439 290,438 291,437 292,436 293,435 294,434 295,432 295,431 296,430 297,429 298,428 299,427 300,426 301,425 302,424 303,423 304,421 304,420 305,419 306,418 307,417 308,416 309,415 310,414 311,413 312,411 312,410 313,409 314,408 315,407 316,406 317,405 318,404 319,402 320,401 321,400 321,399 322,398 323,397 324,396 325,395 326,394 327,393 328,392 329,391 329,390 330,389 331,387 332,387 333,385 334,384 335,383 336,382 337,381 338,380 338,379 339,378 340,377 341,376 342,375 343,374 344,373 345,372 346,371 347,369 347,368 348,367 349,366 350,365 351,364 352,363 353,362 354,361 355,360 355,359 356,358 357,357 358,356 359,354 360,353 361,352 362,351 363,350 364,349 364,348 365,347 366,345 367,344 368,343 369,342 370,341 371,340 372,339 372,338 373,337 374,335 375,334 376,333 377,332 378,331 379,330 380,329 381,328 381,327 382,326 383,325 384,324 385,323 386,321 387,320 388,319 389,318 389,317 390,316 391,315 392,314 393,313 394,311 395,310 396,309 397,308 398,307 398,306 399,305 400,304 401,303 402,302 403,300 404,299 405,298 406,297 406,296 407,295 408,294 409,293 410,292 411,291 412,289 413,288 414,287 415,286 415,285 416,284 417,283 418,282 419,280 420,279 421,278 422,277 423,276 423,275 424,274 425,273 426,272 427,270 428,269 429,268 430,267 431,266 432,265 432,264 433,263 434,262 435,261 436,260 437,259 438,258 439,257 440,256 440,255 441,254 442,253 443,252 444,250 445,249 446,248 447,247 448,246 449,245 449,244 450,242 451,241 452,240 453,239 454,238 455,237 456,236 457,235 457,233 458,232 459,231 460,230 461,229 462,228 463,227 464,226 465,225 466,224 466,222 467,221 468,220 469,219 470,218 471,217 472,216 473,215 474,214 474,213 475,211 476,210 477,209 478,208 479,207 480,206 481,205 482,204 483,203 483,202 484,201 485,200 486,198 487,197 488,196 489,195 490,194 491,193 491,192 492,191 493,190 494,188 495,187 496,186 497,185 498,184 499,183 500,182 500,181 501,180 502,179 503,177 504,176 505,175 506,174 507,173 508,172 508,171 509,170 510,169 511,168 512,167 513,166 514,164 515,163 516,162 517,161 517,160 518,159 519,158 520,157 521,156 522,155 523,154 524,153 525,151 525,150 526,149 527,148 528,147 529,146 530,145 531,144 532,143 533,142 534,140 534,139 535,138 536,137 537,136 538,135 539,134 540,133 541,132 542,131 542,130 543,128 544,127 545,126 546,125 547,124 548,123 549,122 550,121 551,120 551,118 552,117 553,116 554,115 555,114 556,113 557,112 558,111 559,110 560,109 560,108 561,107 562,106 563,105 564,104 565,103 566,102 567,101 568,100 568,99 569,98 570,97 571,96 572,95 573,93 574,92 575,91 576,90 577,89 577,88 578,87 579,86 580,85 581,84 582,83 583,82 584,81 585,80 585,79 586,78 587,76 588,75 589,74 590,73 591,72 592,71 593,70 594,69 594,68 595,68 596,68 597,68 598,68 599,68 600,68 601,68 602,68 602,68 603,68 604,68 605,68 606,68 607,68 608,68 609,68 610,68 611,68 611,68 612,68 613,68 614,68 615,68 616,68 617,68 618,68 619,68 619,68 620,68 621,68 622,68 623,68 624,68 625,68 626,68 627,68 628,68 628,68 629,68 630,68 631,68 632,68 633,68 634,68 635,68 636,68 636,68 637,68 638,68 639,68 640,68 641,68 642,68 643,68 644,68 645,68 645,68 646,68 647,68 648,68 649,68 650,68 651,68 652,68 653,68 653,68 654,68 655,68 656,68 657,68 658,68 659,68 660,68 661,68 662,68 662,68 663,68 664,68 665,68 666,68 667,68 668,68 669,68 670,68 670,68 671,68 672,68 673,68 674,68 675,68 676,68 677,68 678,68 679,68 679,68 680,68 681,68 682,68 683,68 684,68 685,68 686,68 687,68 687,68 688,68 689,68 690,68 691,68 692,68 693,68 694,68 695,68 696,68 696,68 697,68 698,68 699,68 700,68 701,68 702,68 703,68 704,68 704,68 705,68 706,68 707,68 708,68 709,68 710,68 711,68 712,68 713,68 713,68 714,68 715,68 716,68 717,68 718,68 719,68 720,68 721,68 721,68 722,68 723,68 724,68 725,68 726,68 727,68 728,68 729,68 730,68 730,68 731,68 732,68 733,68 734,68 735,68 736,68 737,68 738,68 738,68 739,68 740,68 741,68 742,68 743,68 744,68 745,68 746,68 747,68 747,68 748,68 749,68 750,68 751,68 752,68 753,68 754,68 755,68 755,68 756,68 757,68 758,68 759,68 760,68 761,68 762,68 763,68 764,68 764,68 765,68 766,68 767,68 768,68 769,68 770,68 771,68 772,68 773,68 773,68 774,68 775,68 776,68 777,68 778,68 779,68 780,68 781,68 781,68 782,68 783,68 784,68 785,68 786,68 787,68 788,68 789,68 790,68 790,68 791,68 792,68 793,68 794,68 795,68 796,68 797,68 798,68 798,68 799,68 800,68 801,68 802,68 803,69 804,68 805,68 806,69 807,69 807,69 808,69 809,69 810,69 811,69 812,69 813,69 814,69 815,69 815,69 816,69 817,69 818,69 819,69 820,69 821,69 822,69 823,69 824,69 824,69 825,69 826,69 827,69 828,69 829,69 830,69 831,69 832,69 832,69 833,69 834,69 835,69 836,70 837,70 838,70 839,70 840,70 841,70 841,70 842,70 843,70 844,70 845,70 846,70 847,70 848,70 849,70 849,70 850,70 851,70 852,70 853,70 854,70 855,70 856,70 857,70 858,70 858,70 859,70 860,70 861,70 862,70 863,70 864,70 865,70 866,70 866,70 867,70 868,70 869,70 870,70 871,70 872,70 873,70 874,70 875,70 875,70 876,70 877,70 878,70 879,70 880,70 881,70 882,70 883,70 883,70 884,70 885,70 886,70 887,70 888,71 889,71 890,71 891,71 892,71 892,71 893,71 894,71 895,71 896,71 897,71 898,71 899,71 900,71 900,71 901,71 902,71 903,71 904,71 905,71 906,71 907,71 908,71 909,71 909,71 910,71 911,71 912,71 913,71 914,71 915,71 916,71 917,71 917,71 918,71 919,71 920,71 921,71 922,71 923,71 924,71 925,71 926,71 926,71 927,71 928,71 929,71 930,71 931,72 932,72 933,72 934,72 934,72 935,72 936,72 937,72 938,72 939,72 940,72 941,72 942,72 943,72 943,72 944,72 945,72 946,72 947,72 948,72 949,72 950,72 951,72 951,72 952,72 953,72 954,72 955,72 956,72 957,72 958,72 959,72 960,72 960,72 961,72 962,72 963,72 964,72 965,72 966,72 967,72 968,72 968,72 969,72 970,72 971,72 972,73 972,73 973,73 "/>
<polygon opacity="1" fill="#E6194B" points="78,699 79,699 80,699 81,699 82,699 82,699 83,699 84,699 85,699 86,699 87,699 88,699 89,699 90,699 91,699 91,699 92,699 93,699 94,699 95,699 96,699 97,699 98,699 99,699 99,699 100,699 101,699 102,699 103,699 104,699 105,699 106,699 107,699 108,699 108,699 109,699 110,699 111,699 112,699 113,699 114,699 115,699 116,699 116,699 117,699 118,699 119,699 120,699 121,699 122,699 123,699 124,699 125,699 125,699 126,699 127,699 128,699 129,699 130,699 131,699 132,699 133,699 134,699 134,699 135,699 136,699 137,699 138,699 139,699 140,699 141,699 142,699 142,699 143,699 144,699 145,699 146,699 147,699 148,699 149,699 150,699 151,699 151,699 152,699 153,699 154,699 155,699 156,699 157,699 158,699 159,699 159,699 160,699 161,699 162,699 163,699 164,699 165,699 166,699 167,699 168,699 168,699 169,699 170,699 171,699 172,699 173,699 174,699 175,699 176,699 176,699 177,699 178,699 179,699 180,699 181,699 182,699 183,699 184,699 185,699 185,699 186,699 187,699 188,699 189,699 190,699 191,699 192,699 193,699 193,699 194,699 195,699 196,699 197,699 198,699 199,699 200,699 201,699 202,699 202,699 203,699 204,699 205,699 206,699 207,699 208,699 209,699 210,699 210,699 211,699 212,699 213,699 214,699 215,699 216,699 217,699 218,699 219,699 219,699 220,699 221,699 222,699 223,699 224,699 225,699 226,699 227,699 227,699 228,699 229,699 230,699 231,699 232,699 233,699 234,699 235,699 236,699 236,699 237,699 238,699 239,699 240,699 241,699 242,699 243,699 244,699 244,699 245,699 246,699 247,699 248,699 249,699 250,699 251,699 252,699 253,699 253,699 254,699 255,699 256,699 257,699 258,699 259,699 260,699 261,699 261,699 262,699 263,699 264,699 265,699 266,699 267,699 268,699 269,699 270,699 270,699 271,699 272,699 273,699 274,699 275,699 276,699 277,699 278,699 278,699 279,699 280,699 281,699 282,699 283,699 284,699 285,699 286,699 287,699 287,699 288,699 289,699 290,699 291,699 292,699 293,699 294,699 295,699 295,699 296,699 297,699 298,699 299,699 300,699 301,699 302,699 303,699 304,699 304,699 305,699 306,699 307,699 308,699 309,699 310,699 311,699 312,699 312,699 313,699 314,699 315,699 316,699 317,699 318,699 319,699 320,699 321,699 321,699 322,699 323,699 324,699 325,699 326,699 327,699 328,699 329,699 329,699 330,699 331,699 332,699 333,699 334,699 335,699 336,699 337,699 338,699 338,699 339,699 340,699 341,699 342,699 343,699 344,699 345,699 346,699 347,699 347,699 348,699 349,699 350,699 351,699 352,699 353,699 354,699 355,699 355,699 356,699 357,699 358,699 359,699 360,699 361,699 362,699 363,699 364,699 364,699 365,699 366,699 367,699 368,699 369,699 370,699 371,699 372,699 372,699 373,699 374,699 375,699 376,699 377,699 378,699 379,699 380,699 381,699 381,699 382,699 383,699 384,699 385,699 386,699 387,699 388,699 389,699 389,699 390,699 391,699 392,699 393,699 394,699 395,699 396,699 397,699 398,699 398,699 399,699 400,699 401,699 402,699 403,699 404,699 405,699 406,699 406,699 407,699 408,699 409,699 410,699 411,699 412,699 413,699 414,699 415,699 415,699 416,699 417,699 418,699 419,699 420,699 421,699 422,699 423,699 423,699 424,699 425,699 426,699 427,699 428,699 429,699 430,699 431,699 432,699 432,699 433,699 434,699 435,699 436,699 437,699 438,699 439,699 440,699 440,699 441,699 442,699 443,699 444,699 445,699 446,699 447,699 448,699 449,699 449,699 450,699 451,699 452,699 453,699 454,699 455,699 456,699 457,698 457,696 458,695 459,694 460,693 461,692 462,691 463,690 464,689 465,688 466,687 466,685 467,684 468,683 469,682 470,681 471,680 472,679 473,678 474,677 474,676 475,674 476,673 477,672 478,671 479,670 480,669 481,668 482,667 483,666 483,665 484,664 485,663 486,661 487,660 488,659 489,658 490,657 491,656 491,655 492,654 493,652 494,651 495,650 496,649 497,648 498,647 499,646 500,645 500,644 501,643 502,642 503,640 504,639 505,638 506,637 507,636 508,635 508,634 509,633 510,632 511,631 512,630 513,629 514,627 515,626 516,625 517,624 517,623 518,622 519,621 520,620 521,619 522,618 523,617 524,616 525,614 525,613 526,612 527,611 528,610 529,609 530,608 531,607 532,606 533,605 534,603 534,602 535,601 536,600 537,599 538,598 539,597 540,596 541,595 542,594 542,592 543,591 544,590 545,589 546,588 547,587 548,586 549,585 550,584 551,583 551,581 552,580 553,579 554,578 555,577 556,576 557,575 558,574 559,573 560,572 560,571 561,570 562,569 563,568 564,567 565,566 566,565 567,564 568,563 568,562 569,561 570,560 571,559 572,558 573,556 574,555 575,554 576,553 577,552 577,551 578,550 579,549 580,548 581,547 582,546 583,545 584,544 585,543 585,542 586,541 587,539 588,538 589,537 590,536 591,535 592,534 593,533 594,532 594,531 595,530 596,529 597,528 598,526 599,525 600,524 601,523 602,522 602,521 603,520 604,519 605,517 606,516 607,515 608,514 609,513 610,512 611,511 611,510 612,509 613,507 614,506 615,505 616,504 617,503 618,502 619,501 619,500 620,499 621,498 622,497 623,496 624,495 625,493 626,492 627,491 628,490 628,489 629,488 630,487 631,486 632,485 633,484 634,483 635,482 636,481 636,480 637,479 638,478 639,477 640,475 641,474 642,473 643,472 644,471 645,470 645,469 646,468 647,467 648,466 649,465 650,463 651,462 652,461 653,460 653,459 654,458 655,457 656,456 657,455 658,454 659,453 660,452 661,451 662,449 662,448 663,447 664,446 665,445 666,444 667,443 668,442 669,441 670,440 670,439 671,438 672,437 673,436 674,435 675,433 676,432 677,431 678,430 679,429 679,428 680,427 681,426 682,425 683,423 684,422 685,421 686,420 687,419 687,418 688,417 689,416 690,415 691,414 692,412 693,411 694,410 695,409 696,408 696,407 697,406 698,405 699,404 700,403 701,402 702,401 703,400 704,398 704,397 705,397 706,395 707,394 708,393 709,392 710,391 711,390 712,389 713,388 713,387 714,386 715,385 716,384 717,382 718,381 719,380 720,379 721,378 721,377 722,376 723,375 724,374 725,373 726,372 727,371 728,370 729,369 730,367 730,366 731,365 732,364 733,363 734,362 735,361 736,360 737,359 738,358 738,357 739,355 740,354 741,353 742,352 743,351 744,350 745,349 746,348 747,347 747,345 748,344 749,343 750,342 751,341 752,340 753,339 754,338 755,336 755,335 756,334 757,333 758,332 759,331 760,330 761,329 762,328 763,327 764,326 764,324 765,323 766,322 767,321 768,320 769,319 770,318 771,317 772,316 773,315 773,314 774,313 775,312 776,311 777,310 778,308 779,307 780,306 781,305 781,304 782,303 783,302 784,301 785,300 786,299 787,298 788,297 789,296 790,294 790,294 791,293 792,291 793,290 794,289 795,288 796,287 797,286 798,285 798,284 799,283 800,282 801,281 802,279 803,278 804,277 805,276 806,275 807,274 807,273 808,272 809,271 810,270 811,269 812,268 813,266 814,265 815,264 815,263 816,262 817,261 818,260 819,259 820,258 821,257 822,256 823,255 824,253 824,252 825,251 826,250 827,249 828,248 829,247 830,246 831,245 832,243 832,242 833,241 834,240 835,239 836,238 837,237 838,236 839,235 840,234 841,233 841,232 842,231 843,230 844,229 845,227 846,227 847,225 848,224 849,223 849,222 850,221 851,220 852,219 853,218 854,217 855,216 856,214 857,213 858,212 858,211 859,210 860,209 861,208 862,207 863,206 864,205 865,204 866,202 866,201 867,200 868,199 869,198 870,197 871,196 872,195 873,194 874,193 875,192 875,190 876,189 877,188 878,187 879,186 880,185 881,184 882,183 883,182 883,181 884,180 885,179 886,178 887,176 888,176 889,175 890,174 891,173 892,171 892,170 893,169 894,168 895,167 896,166 897,165 898,164 899,163 900,162 900,160 901,159 902,158 903,157 904,156 905,155 906,154 907,153 908,152 909,150 909,149 910,148 911,147 912,146 913,145 914,144 915,143 916,142 917,140 917,139 918,138 919,137 920,136 921,135 922,134 923,132 924,131 925,130 926,129 926,128 927,127 928,126 929,125 930,124 931,123 932,122 933,121 934,120 934,119 935,118 936,117 937,116 938,114 939,113 940,112 941,111 942,110 943,109 943,108 944,107 945,106 946,104 947,103 948,102 949,101 950,100 951,99 951,98 952,97 953,96 954,95 955,93 956,92 957,91 958,90 959,89 960,88 960,87 961,86 962,84 963,83 964,82 965,81 966,80 967,79 968,78 968,77 969,76 970,74 971,73 972,73 972,73 973,73 973,699 78,699 "/>
<polyline fill="none" opacity="1" stroke="#E6194B" stroke-width="1" points="78,699 79,699 80,699 81,699 82,699 82,699 83,699 84,699 85,699 86,699 87,699 88,699 89,699 90,699 91,699 91,699 92,699 93,699 94,699 95,699 96,699 97,699 98,699 99,699 99,699 100,699 101,699 102,699 103,699 104,699 105,699 106,699 107,699 108,699 108,699 109,699 110,699 111,699 112,699 113,699 114,699 115,699 116,699 116,699 117,699 118,699 119,699 120,699 121,699 122,699 123,699 124,699 125,699 125,699 126,699 127,699 128,699 129,699 130,699 131,699 132,699 133,699 134,699 134,699 135,699 136,699 137,699 138,699 139,699 140,699 141,699 142,699 142,699 143,699 144,699 145,699 146,699 147,699 148,699 149,699 150,699 151,699 151,699 152,699 153,699 154,699 155,699 156,699 157,699 158,699 159,699 159,699 160,699 161,699 162,699 163,699 164,699 165,699 166,699 167,699 168,699 168,699 169,699 170,699 171,699 172,699 173,699 174,699 175,699 176,699 176,699 177,699 178,699 179,699 180,699 181,699 182,699 183,699 184,699 185,699 185,699 186,699 187,699 188,699 189,699 190,699 191,699 192,699 193,699 193,699 194,699 195,699 196,699 197,699 198,699 199,699 200,699 201,699 202,699 202,699 203,699 204,699 205,699 206,699 207,699 208,699 209,699 210,699 210,699 211,699 212,699 213,699 214,699 215,699 216,699 217,699 218,699 219,699 219,699 220,699 221,699 222,699 223,699 224,699 225,699 226,699 227,699 227,699 228,699 229,699 230,699 231,699 232,699 233,699 234,699 235,699 236,699 236,699 237,699 238,699 239,699 240,699 241,699 242,699 243,699 244,699 244,699 245,699 246,699 247,699 248,699 249,699 250,699 251,699 252,699 253,699 253,699 254,699 255,699 256,699 257,699 258,699 259,699 260,699 261,699 261,699 262,699 263,699 264,699 265,699 266,699 267,699 268,699 269,699 270,699 270,699 271,699 272,699 273,699 274,699 275,699 276,699 277,699 278,699 278,699 279,699 280,699 281,699 282,699 283,699 284,699 285,699 286,699 287,699 287,699 288,699 289,699 290,699 291,699 292,699 293,699 294,699 295,699 295,699 296,699 297,699 298,699 299,699 300,699 301,699 302,699 303,699 304,699 304,699 305,699 306,699 307,699 308,699 309,699 310,699 311,699 312,699 312,699 313,699 314,699 315,699 316,699 317,699 318,699 319,699 320,699 321,699 321,699 322,699 323,699 324,699 325,699 326,699 327,699 328,699 329,699 329,699 330,699 331,699 332,699 333,699 334,699 335,699 336,699 337,699 338,699 338,699 339,699 340,699 341,699 342,699 343,699 344,699 345,699 346,699 347,699 347,699 348,699 349,699 350,699 351,699 352,699 353,699 354,699 355,699 355,699 356,699 357,699 358,699 359,699 360,699 361,699 362,699 363,699 364,699 364,699 365,699 366,699 367,699 368,699 369,699 370,699 371,699 372,699 372,699 373,699 374,699 375,699 376,699 377,699 378,699 379,699 380,699 381,699 381,699 382,699 383,699 384,699 385,699 386,699 387,699 388,699 389,699 389,699 390,699 391,699 392,699 393,699 394,699 395,699 396,699 397,699 398,699 398,699 399,699 400,699 401,699 402,699 403,699 404,699 405,699 406,699 406,699 407,699 408,699 409,699 410,699 411,699 412,699 413,699 414,699 415,699 415,699 416,699 417,699 418,699 419,699 420,699 421,699 422,699 423,699 423,699 424,699 425,699 426,699 427,699 428,699 429,699 430,699 431,699 432,699 432,699 433,699 434,699 435,699 436,699 437,699 438,699 439,699 440,699 440,699 441,699 442,699 443,699 444,699 445,699 446,699 447,699 448,699 449,699 449,699 450,699 451,699 452,699 453,699 454,699 455,699 456,699 457,698 457,696 458,695 459,694 460,693 461,692 462,691 463,690 464,689 465,688 466,687 466,685 467,684 468,683 469,682 470,681 471,680 472,679 473,678 474,677 474,676 475,674 476,673 477,672 478,671 479,670 480,669 481,668 482,667 483,666 483,665 484,664 485,663 486,661 487,660 488,659 489,658 490,657 491,656 491,655 492,654 493,652 494,651 495,650 496,649 497,648 498,647 499,646 500,645 500,644 501,643 502,642 503,640 504,639 505,638 506,637 507,636 508,635 508,634 509,633 510,632 511,631 512,630 513,629 514,627 515,626 516,625 517,624 517,623 518,622 519,621 520,620 521,619 522,618 523,617 524,616 525,614 525,613 526,612 527,611 528,610 529,609 530,608 531,607 532,606 533,605 534,603 534,602 535,601 536,600 537,599 538,598 539,597 540,596 541,595 542,594 542,592 543,591 544,590 545,589 546,588 547,587 548,586 549,585 550,584 551,583 551,581 552,580 553,579 554,578 555,577 556,576 557,575 558,574 559,573 560,572 560,571 561,570 562,569 563,568 564,567 565,566 566,565 567,564 568,563 568,562 569,561 570,560 571,559 572,558 573,556 574,555 575,554 576,553 577,552 577,551 578,550 579,549 580,548 581,547 582,546 583,545 584,544 585,543 585,542 586,541 587,539 588,538 589,537 590,536 591,535 592,534 593,533 594,532 594,531 595,530 596,529 597,528 598,526 599,525 600,524 601,523 602,522 602,521 603,520 604,519 605,517 606,516 607,515 608,514 609,513 610,512 611,511 611,510 612,509 613,507 614,506 615,505 616,504 617,503 618,502 619,501 619,500 620,499 621,498 622,497 623,496 624,495 625,493 626,492 627,491 628,490 628,489 629,488 630,487 631,486 632,485 633,484 634,483 635,482 636,481 636,480 637,479 638,478 639,477 640,475 641,474 642,473 643,472 644,471 645,470 645,469 646,468 647,467 648,466 649,465 650,463 651,462 652,461 653,460 653,459 654,458 655,457 656,456 657,455 658,454 659,453 660,452 661,451 662,449 662,448 663,447 664,446 665,445 666,444 667,443 668,442 669,441 670,440 670,439 671,438 672,437 673,436 674,435 675,433 676,432 677,431 678,430 679,429 679,428 680,427 681,426 682,425 683,423 684,422 685,421 686,420 687,419 687,418 688,417 689,416 690,415 691,414 692,412 693,411 694,410 695,409 696,408 696,407 697,406 698,405 699,404 700,403 701,402 702,401 703,400 704,398 704,397 705,397 706,395 707,394 708,393 709,392 710,391 711,390 712,389 713,388 713,387 714,386 715,385 716,384 717,382 718,381 719,380 720,379 721,378 721,377 722,376 723,375 724,374 725,373 726,372 727,371 728,370 729,369 730,367 730,366 731,365 732,364 733,363 734,362 735,361 736,360 737,359 738,358 738,357 739,355 740,354 741,353 742,352 743,351 744,350 745,349 746,348 747,347 747,345 748,344 749,343 750,342 751,341 752,340 753,339 754,338 755,336 755,335 756,334 757,333 758,332 759,331 760,330 761,329 762,328 763,327 764,326 764,324 765,323 766,322 767,321 768,320 769,319 770,318 771,317 772,316 773,315 773,314 774,313 775,312 776,311 777,310 778,308 779,307 780,306 781,305 781,304 782,303 783,302 784,301 785,300 786,299 787,298 788,297 789,296 790,294 790,294 791,293 792,291 793,290 794,289 795,288 796,287 797,286 798,285 798,284 799,283 800,282 801,281 802,279 803,278 804,277 805,276 806,275 807,274 807,273 808,272 809,271 810,270 811,269 812,268 813,266 814,265 815,264 815,263 816,262 817,261 818,260 819,259 820,258 821,257 822,256 823,255 824,253 824,252 825,251 826,250 827,249 828,248 829,247 830,246 831,245 832,243 832,242 833,241 834,240 835,239 836,238 837,237 838,236 839,235 840,234 841,233 841,232 842,231 843,230 844,229 845,227 846,227 847,225 848,224 849,223 849,222 850,221 851,220 852,219 853,218 854,217 855,216 856,214 857,213 858,212 858,211 859,210 860,209 861,208 862,207 863,206 864,205 865,204 866,202 866,201 867,200 868,199 869,198 870,197 871,196 872,195 873,194 874,193 875,192 875,190 876,189 877,188 878,187 879,186 880,185 881,184 882,183 883,182 883,181 884,180 885,179 886,178 887,176 888,176 889,175 890,174 891,173 892,171 892,170 893,169 894,168 895,167 896,166 897,165 898,164 899,163 900,162 900,160 901,159 902,158 903,157 904,156 905,155 906,154 907,153 908,152 909,150 909,149 910,148 911,147 912,146 913,145 914,144 915,143 916,142 917,140 917,139 918,138 919,137 920,136 921,135 922,134 923,132 924,131 925,130 926,129 926,128 927,127 928,126 929,125 930,124 931,123 932,122 933,121 934,120 934,119 935,118 936,117 937,116 938,114 939,113 940,112 941,111 942,110 943,109 943,108 944,107 945,106 946,104 947,103 948,102 949,101 950,100 951,99 951,98 952,97 953,96 954,95 955,93 956,92 957,91 958,90 959,89 960,88 960,87 961,86 962,84 963,83 964,82 965,81 966,80 967,79 968,78 968,77 969,76 970,74 971,73 972,73 972,73 973,73 "/>
<line opacity="0.1" stroke="#000000" stroke-width="1" x1="84" y1="699" x2="84" y2="68"/>
<line opacity="0.1" stroke="#000000" stroke-width="1" x1="95" y1="699" x2="95" y2="68"/>
<line opacity="0.1" stroke="#000000" stroke-width="1" x1="106" y1="699" x2="106" y2="68"/>
<line opacity="0.1" stroke="#000000" stroke-width="1" x1="118" y1="699" x2="118" y2="68"/>
<line opacity="0.1" stroke="#000000" stroke-width="1" x1="129" y1="699" x2="129" y2="68"/>
<line opacity="0.1" stroke="#000000" stroke-width="1" x1="140" y1="699" x2="140" y2="68"/>
<line opacity="0.1" stroke="#000000" stroke-width="1" x1="151" y1="699" x2="151" y2="68"/>
<line opacity="0.1" stroke="#000000" stroke-width="1" x1="162" y1="699" x2="162" y2="68"/>
<line opacity="0.1" stroke="#000000" stroke-width="1" x1="174" y1="699" x2="174" y2="68"/>
<line opacity="0.1" stroke="#000000" stroke-width="1" x1="185" y1="699" x2="185" y2="68"/>
<line opacity="0.1" stroke="#000000" stroke-width="1" x1="196" y1="699" x2="196" y2="68"/>
<line opacity="0.1" stroke="#000000" stroke-width="1" x1="207" y1="699" x2="207" y2="68"/>
<line opacity="0.1" stroke="#000000" stroke-width="1" x1="218" y1="699" x2="218" y2="68"/>
<line opacity="0.1" stroke="#000000" stroke-width="1" x1="229" y1="699" x2="229" y2="68"/>
<line opacity="0.1" stroke="#000000" stroke-width="1" x1="241" y1="699" x2="241" y2="68"/>
<line opacity="0.1" stroke="#000000" stroke-width="1" x1="252" y1="699" x2="252" y2="68"/>
<line opacity="0.1" stroke="#000000" stroke-width="1" x1="263" y1="699" x2="263" y2="68"/>
<line opacity="0.1" stroke="#000000" stroke-width="1" x1="274" y1="699" x2="274" y2="68"/>
<line opacity="0.1" stroke="#000000" stroke-width="1" x1="285" y1="699" x2="285" y2="68"/>
<line opacity="0.1" stroke="#000000" stroke-width="1" x1="297" y1="699" x2="297" y2="68"/>
<line opacity="0.1" stroke="#000000" stroke-width="1" x1="308" y1="699" x2="308" y2="68"/>
<line opacity="0.1" stroke="#000000" stroke-width="1" x1="319" y1="699" x2="319" y2="68"/>
<line opacity="0.1" stroke="#000000" stroke-width="1" x1="330" y1="699" x2="330" y2="68"/>
<line opacity="0.1" stroke="#000000" stroke-width="1" x1="341" y1="699" x2="341" y2="68"/>
<line opacity="0.1" stroke="#000000" stroke-width="1" x1="352" y1="699" x2="352" y2="68"/>
<line opacity="0.1" stroke="#000000" stroke-width="1" x1="364" y1="699" x2="364" y2="68"/>
<line opacity="0.1" stroke="#000000" stroke-width="1" x1="375" y1="699" x2="375" y2="68"/>
<line opacity="0.1" stroke="#000000" stroke-width="1" x1="386" y1="699" x2="386" y2="68"/>
<line opacity="0.1" stroke="#000000" stroke-width="1" x1="397" y1="699" x2="397" y2="68"/>
<line opacity="0.1" stroke="#000000" stroke-width="1" x1="408" y1="699" x2="408" y2="68"/>
<line opacity="0.1" stroke="#000000" stroke-width="1" x1="420" y1="699" x2="420" y2="68"/>
<line opacity="0.1" stroke="#000000" stroke-width="1" x1="431" y1="699" x2="431" y2="68"/>
<line opacity="0.1" stroke="#000000" stroke-width="1" x1="442" y1="699" x2="442" y2="68"/>
<line opacity="0.1" stroke="#000000" stroke-width="1" x1="453" y1="699" x2="453" y2="68"/>
<line opacity="0.1" stroke="#000000" stroke-width="1" x1="464" y1="699" x2="464" y2="68"/>
<line opacity="0.1" stroke="#000000" stroke-width="1" x1="476" y1="699" x2="476" y2="68"/>
<line opacity="0.1" stroke="#000000" stroke-width="1" x1="487" y1="699" x2="487" y2="68"/>
<line opacity="0.1" stroke="#000000" stroke-width="1" x1="498" y1="699" x2="498" y2="68"/>
<line opacity="0.1" stroke="#000000" stroke-width="1" x1="509" y1="699" x2="509" y2="68"/>
<line opacity="0.1" stroke="#000000" stroke-width="1" x1="520" y1="699" x2="520" y2="68"/>
<line opacity="0.1" stroke="#000000" stroke-width="1" x1="531" y1="699" x2="531" y2="68"/>
<line opacity="0.1" stroke="#000000" stroke-width="1" x1="543" y1="699" x2="543" y2="68"/>
<line opacity="0.1" stroke="#000000" stroke-width="1" x1="554" y1="699" x2="554" y2="68"/>
<line opacity="0.1" stroke="#000000" stroke-width="1" x1="565" y1="699" x2="565" y2="68"/>
<line opacity="0.1" stroke="#000000" stroke-width="1" x1="576" y1="699" x2="576" y2="68"/>
<line opacity="0.1" stroke="#000000" stroke-width="1" x1="587" y1="699" x2="587" y2="68"/>
<line opacity="0.1" stroke="#000000" stroke-width="1" x1="599" y1="699" x2="599" y2="68"/>
<line opacity="0.1" stroke="#000000" stroke-width="1" x1="610" y1="699" x2="610" y2="68"/>
<line opacity="0.1" stroke="#000000" stroke-width="1" x1="621" y1="699" x2="621" y2="68"/>
<line opacity="0.1" stroke="#000000" stroke-width="1" x1="632" y1="699" x2="632" y2="68"/>
<line opacity="0.1" stroke="#000000" stroke-width="1" x1="643" y1="699" x2="643" y2="68"/>
<line opacity="0.1" stroke="#000000" stroke-width="1" x1="654" y1="699" x2="654" y2="68"/>
<line opacity="0.1" stroke="#000000" stroke-width="1" x1="666" y1="699" x2="666" y2="68"/>
<line opacity="0.1" stroke="#000000" stroke-width="1" x1="677" y1="699" x2="677" y2="68"/>
<line opacity="0.1" stroke="#000000" stroke-width="1" x1="688" y1="699" x2="688" y2="68"/>
<line opacity="0.1" stroke="#000000" stroke-width="1" x1="699" y1="699" x2="699" y2="68"/>
<line opacity="0.1" stroke="#000000" stroke-width="1" x1="710" y1="699" x2="710" y2="68"/>
<line opacity="0.1" stroke="#000000" stroke-width="1" x1="722" y1="699" x2="722" y2="68"/>
<line opacity="0.1" stroke="#000000" stroke-width="1" x1="733" y1="699" x2="733" y2="68"/>
<line opacity="0.1" stroke="#000000" stroke-width="1" x1="744" y1="699" x2="744" y2="68"/>
<line opacity="0.1" stroke="#000000" stroke-width="1" x1="755" y1="699" x2="755" y2="68"/>
<line opacity="0.1" stroke="#000000" stroke-width="1" x1="766" y1="699" x2="766" y2="68"/>
<line opacity="0.1" stroke="#000000" stroke-width="1" x1="777" y1="699" x2="777" y2="68"/>
<line opacity="0.1" stroke="#000000" stroke-width="1" x1="789" y1="699" x2="789" y2="68"/>
<line opacity="0.1" stroke="#000000" stroke-width="1" x1="800" y1="699" x2="800" y2="68"/>
<line opacity="0.1" stroke="#000000" stroke-width="1" x1="811" y1="699" x2="811" y2="68"/>
<line opacity="0.1" stroke="#000000" stroke-width="1" x1="822" y1="699" x2="822" y2="68"/>
<line opacity="0.1" stroke="#000000" stroke-width="1" x1="833" y1="699" x2="833" y2="68"/>
<line opacity="0.1" stroke="#000000" stroke-width="1" x1="845" y1="699" x2="845" y2="68"/>
<line opacity="0.1" stroke="#000000" stroke-width="1" x1="856" y1="699" x2="856" y2="68"/>
<line opacity="0.1" stroke="#000000" stroke-width="1" x1="867" y1="699" x2="867" y2="68"/>
<line opacity="0.1" stroke="#000000" stroke-width="1" x1="878" y1="699" x2="878" y2="68"/>
<line opacity="0.1" stroke="#000000" stroke-width="1" x1="889" y1="699" x2="889" y2="68"/>
<line opacity="0.1" stroke="#000000" stroke-width="1" x1="900" y1="699" x2="900" y2="68"/>
<line opacity="0.1" stroke="#000000" stroke-width="1" x1="912" y1="699" x2="912" y2="68"/>
<line opacity="0.1" stroke="#000000" stroke-width="1" x1="923" y1="699" x2="923" y2="68"/>
<line opacity="0.1" stroke="#000000" stroke-width="1" x1="934" y1="699" x2="934" y2="68"/>
<line opacity="0.1" stroke="#000000" stroke-width="1" x1="945" y1="699" x2="945" y2="68"/>
<line opacity="0.1" stroke="#000000" stroke-width="1" x1="956" y1="699" x2="956" y2="68"/>
<line opacity="0.1" stroke="#000000" stroke-width="1" x1="968" y1="699" x2="968" y2="68"/>
<line opacity="0.1" stroke="#000000" stroke-width="1" x1="78" y1="699" x2="973" y2="699"/>
<line opacity="0.1" stroke="#000000" stroke-width="1" x1="78" y1="688" x2="973" y2="688"/>
<line opacity="0.1" stroke="#000000" stroke-width="1" x1="78" y1="678" x2="973" y2="678"/>
<line opacity="0.1" stroke="#000000" stroke-width="1" x1="78" y1="668" x2="973" y2="668"/>
<line opacity="0.1" stroke="#000000" stroke-width="1" x1="78" y1="658" x2="973" y2="658"/>
<line opacity="0.1" stroke="#000000" stroke-width="1" x1="78" y1="648" x2="973" y2="648"/>
<line opacity="0.1" stroke="#000000" stroke-width="1" x1="78" y1="637" x2="973" y2="637"/>
<line opacity="0.1" stroke="#000000" stroke-width="1" x1="78" y1="627" x2="973" y2="627"/>
<line opacity="0.1" stroke="#000000" stroke-width="1" x1="78" y1="617" x2="973" y2="617"/>
<line opacity="0.1" stroke="#000000" stroke-width="1" x1="78" y1="607" x2="973" y2="607"/>
<line opacity="0.1" stroke="#000000" stroke-width="1" x1="78" y1="597" x2="973" y2="597"/>
<line opacity="0.1" stroke="#000000" stroke-width="1" x1="78" y1="586" x2="973" y2="586"/>
<line opacity="0.1" stroke="#000000" stroke-width="1" x1="78" y1="576" x2="973" y2="576"/>
<line opacity="0.1" stroke="#000000" stroke-width="1" x1="78" y1="566" x2="973" y2="566"/>
<line opacity="0.1" stroke="#000000" stroke-width="1" x1="78" y1="556" x2="973" y2="556"/>
<line opacity="0.1" stroke="#000000" stroke-width="1" x1="78" y1="546" x2="973" y2="546"/>
<line opacity="0.1" stroke="#000000" stroke-width="1" x1="78" y1="535" x2="973" y2="535"/>
<line opacity="0.1" stroke="#000000" stroke-width="1" x1="78" y1="525" x2="973" y2="525"/>
<line opacity="0.1" stroke="#000000" stroke-width="1" x1="78" y1="515" x2="973" y2="515"/>
<line opacity="0.1" stroke="#000000" stroke-width="1" x1="78" y1="505" x2="973" y2="505"/>
<line opacity="0.1" stroke="#000000" stroke-width="1" x1="78" y1="495" x2="973" y2="495"/>
<line opacity="0.1" stroke="#000000" stroke-width="1" x1="78" y1="484" x2="973" y2="484"/>
<line opacity="0.1" stroke="#000000" stroke-width="1" x1="78" y1="474" x2="973" y2="474"/>
<line opacity="0.1" stroke="#000000" stroke-width="1" x1="78" y1="464" x2="973" y2="464"/>
<line opacity="0.1" stroke="#000000" stroke-width="1" x1="78" y1="454" x2="973" y2="454"/>
<line opacity="0.1" stroke="#000000" stroke-width="1" x1="78" y1="444" x2="973" y2="444"/>
<line opacity="0.1" stroke="#000000" stroke-width="1" x1="78" y1="433" x2="973" y2="433"/>
<line opacity="0.1" stroke="#000000" stroke-width="1" x1="78" y1="423" x2="973" y2="423"/>
<line opacity="0.1" stroke="#000000" stroke-width="1" x1="78" y1="413" x2="973" y2="413"/>
<line opacity="0.1" stroke="#000000" stroke-width="1" x1="78" y1="403" x2="973" y2="403"/>
<line opacity="0.1" stroke="#000000" stroke-width="1" x1="78" y1="393" x2="973" y2="393"/>
<line opacity="0.1" stroke="#000000" stroke-width="1" x1="78" y1="383" x2="973" y2="383"/>
<line opacity="0.1" stroke="#000000" stroke-width="1" x1="78" y1="372" x2="973" y2="372"/>
<line opacity="0.1" stroke="#000000" stroke-width="1" x1="78" y1="362" x2="973" y2="362"/>
<line opacity="0.1" stroke="#000000" stroke-width="1" x1="78" y1="352" x2="973" y2="352"/>
<line opacity="0.1" stroke="#000000" stroke-width="1" x1="78" y1="342" x2="973" y2="342"/>
<line opacity="0.1" stroke="#000000" stroke-width="1" x1="78" y1="332" x2="973" y2="332"/>
<line opacity="0.1" stroke="#000000" stroke-width="1" x1="78" y1="321" x2="973" y2="321"/>
<line opacity="0.1" stroke="#000000" stroke-width="1" x1="78" y1="311" x2="973" y2="311"/>
<line opacity="0.1" stroke="#000000" stroke-width="1" x1="78" y1="301" x2="973" y2="301"/>
<line opacity="0.1" stroke="#000000" stroke-width="1" x1="78" y1="291" x2="973" y2="291"/>
<line opacity="0.1" stroke="#000000" stroke-width="1" x1="78" y1="281" x2="973" y2="281"/>
<line opacity="0.1" stroke="#000000" stroke-width="1" x1="78" y1="270" x2="973" y2="270"/>
<line opacity="0.1" stroke="#000000" stroke-width="1" x1="78" y1="260" x2="973" y2="260"/>
<line opacity="0.1" stroke="#000000" stroke-width="1" x1="78" y1="250" x2="973" y2="250"/>
<line opacity="0.1" stroke="#000000" stroke-width="1" x1="78" y1="240" x2="973" y2="240"/>
<line opacity="0.1" stroke="#000000" stroke-width="1" x1="78" y1="230" x2="973" y2="230"/>
<line opacity="0.1" stroke="#000000" stroke-width="1" x1="78" y1="219" x2="973" y2="219"/>
<line opacity="0.1" stroke="#000000" stroke-width="1" x1="78" y1="209" x2="973" y2="209"/>
<line opacity="0.1" stroke="#000000" stroke-width="1" x1="78" y1="199" x2="973" y2="199"/>
<line opacity="0.1" stroke="#000000" stroke-width="1" x1="78" y1="189" x2="973" y2="189"/>
<line opacity="0.1" stroke="#000000" stroke-width="1" x1="78" y1="179" x2="973" y2="179"/>
<line opacity="0.1" stroke="#000000" stroke-width="1" x1="78" y1="168" x2="973" y2="168"/>
<line opacity="0.1" stroke="#000000" stroke-width="1" x1="78" y1="158" x2="973" y2="158"/>
<line opacity="0.1" stroke="#000000" stroke-width="1" x1="78" y1="148" x2="973" y2="148"/>
<line opacity="0.1" stroke="#000000" stroke-width="1" x1="78" y1="138" x2="973" y2="138"/>
<line opacity="0.1" stroke="#000000" stroke-width="1" x1="78" y1="128" x2="973" y2="128"/>
<line opacity="0.1" stroke="#000000" stroke-width="1" x1="78" y1="118" x2="973" y2="118"/>
<line opacity="0.1" stroke="#000000" stroke-width="1" x1="78" y1="107" x2="973" y2="107"/>
<line opacity="0.1" stroke="#000000" stroke-width="1" x1="78" y1="97" x2="973" y2="97"/>
<line opacity="0.1" stroke="#000000" stroke-width="1" x1="78" y1="87" x2="973" y2="87"/>
<line opacity="0.1" stroke="#000000" stroke-width="1" x1="78" y1="77" x2="973" y2="77"/>
<text x="8" y="384" dy="0.76em" text-anchor="middle" font-family="sans-serif" font-size="9.67741935483871" opacity="1" fill="#000000" transform="rotate(270, 8, 384)">
Memory usage
</text>
<text x="526" y="760" dy="-0.5ex" text-anchor="middle" font-family="sans-serif" font-size="9.67741935483871" opacity="1" fill="#000000">
Time
</text>
<line opacity="0.2" stroke="#000000" stroke-width="1" x1="106" y1="699" x2="106" y2="68"/>
<line opacity="0.2" stroke="#000000" stroke-width="1" x1="218" y1="699" x2="218" y2="68"/>
<line opacity="0.2" stroke="#000000" stroke-width="1" x1="330" y1="699" x2="330" y2="68"/>
<line opacity="0.2" stroke="#000000" stroke-width="1" x1="442" y1="699" x2="442" y2="68"/>
<line opacity="0.2" stroke="#000000" stroke-width="1" x1="554" y1="699" x2="554" y2="68"/>
<line opacity="0.2" stroke="#000000" stroke-width="1" x1="666" y1="699" x2="666" y2="68"/>
<line opacity="0.2" stroke="#000000" stroke-width="1" x1="777" y1="699" x2="777" y2="68"/>
<line opacity="0.2" stroke="#000000" stroke-width="1" x1="889" y1="699" x2="889" y2="68"/>
<line opacity="0.2" stroke="#000000" stroke-width="1" x1="78" y1="699" x2="973" y2="699"/>
<line opacity="0.2" stroke="#000000" stroke-width="1" x1="78" y1="597" x2="973" y2="597"/>
<line opacity="0.2" stroke="#000000" stroke-width="1" x1="78" y1="495" x2="973" y2="495"/>
<line opacity="0.2" stroke="#000000" stroke-width="1" x1="78" y1="393" x2="973" y2="393"/>
<line opacity="0.2" stroke="#000000" stroke-width="1" x1="78" y1="291" x2="973" y2="291"/>
<line opacity="0.2" stroke="#000000" stroke-width="1" x1="78" y1="189" x2="973" y2="189"/>
<line opacity="0.2" stroke="#000000" stroke-width="1" x1="78" y1="87" x2="973" y2="87"/>
<polyline fill="none" opacity="1" stroke="#000000" stroke-width="1" points="77,68 77,699 "/>
<text x="68" y="699" dy="0.5ex" text-anchor="end" font-family="sans-serif" font-size="9.67741935483871" opacity="1" fill="#000000">
0.0 MB
</text>
<polyline fill="none" opacity="1" stroke="#000000" stroke-width="1" points="72,699 77,699 "/>
<text x="68" y="597" dy="0.5ex" text-anchor="end" font-family="sans-serif" font-size="9.67741935483871" opacity="1" fill="#000000">
4.8 MB
</text>
<polyline fill="none" opacity="1" stroke="#000000" stroke-width="1" points="72,597 77,597 "/>
<text x="68" y="495" dy="0.5ex" text-anchor="end" font-family="sans-serif" font-size="9.67741935483871" opacity="1" fill="#000000">
9.5 MB
</text>
<polyline fill="none" opacity="1" stroke="#000000" stroke-width="1" points="72,495 77,495 "/>
<text x="68" y="393" dy="0.5ex" text-anchor="end" font-family="sans-serif" font-size="9.67741935483871" opacity="1" fill="#000000">
14.3 MB
</text>
<polyline fill="none" opacity="1" stroke="#000000" stroke-width="1" points="72,393 77,393 "/>
<text x="68" y="291" dy="0.5ex" text-anchor="end" font-family="sans-serif" font-size="9.67741935483871" opacity="1" fill="#000000">
19.1 MB
</text>
<polyline fill="none" opacity="1" stroke="#000000" stroke-width="1" points="72,291 77,291 "/>
<text x="68" y="189" dy="0.5ex" text-anchor="end" font-family="sans-serif" font-size="9.67741935483871" opacity="1" fill="#000000">
23.8 MB
</text>
<polyline fill="none" opacity="1" stroke="#000000" stroke-width="1" points="72,189 77,189 "/>
<text x="68" y="87" dy="0.5ex" text-anchor="end" font-family="sans-serif" font-size="9.67741935483871" opacity="1" fill="#000000">
28.6 MB
</text>
<polyline fill="none" opacity="1" stroke="#000000" stroke-width="1" points="72,87 77,87 "/>
<polyline fill="none" opacity="1" stroke="#000000" stroke-width="1" points="78,700 973,700 "/>
<text x="106" y="710" dy="0.76em" text-anchor="middle" font-family="sans-serif" font-size="9.67741935483871" opacity="1" fill="#000000">
07 20:33:20
</text>
<polyline fill="none" opacity="1" stroke="#000000" stroke-width="1" points="106,700 106,705 "/>
<text x="218" y="710" dy="0.76em" text-anchor="middle" font-family="sans-serif" font-size="9.67741935483871" opacity="1" fill="#000000">
08 10:26:40
</text>
<polyline fill="none" opacity="1" stroke="#000000" stroke-width="1" points="218,700 218,705 "/>
<text x="330" y="710" dy="0.76em" text-anchor="middle" font-family="sans-serif" font-size="9.67741935483871" opacity="1" fill="#000000">
09 00:20:00
</text>
<polyline fill="none" opacity="1" stroke="#000000" stroke-width="1" points="330,700 330,705 "/>
<text x="442" y="710" dy="0.76em" text-anchor="middle" font-family="sans-serif" font-size="9.67741935483871" opacity="1" fill="#000000">
09 14:13:20
</text>
<polyline fill="none" opacity="1" stroke="#000000" stroke-width="1" points="442,700 442,705 "/>
<text x="554" y="710" dy="0.76em" text-anchor="middle" font-family="sans-serif" font-size="9.67741935483871" opacity="1" fill="#000000">
10 04:06:40
</text>
<polyline fill="none" opacity="1" stroke="#000000" stroke-width="1" points="554,700 554,705 "/>
<text x="666" y="710" dy="0.76em" text-anchor="middle" font-family="sans-serif" font-size="9.67741935483871" opacity="1" fill="#000000">
10 18:00:00
</text>
<polyline fill="none" opacity="1" stroke="#000000" stroke-width="1" points="666,700 666,705 "/>
<text x="777" y="710" dy="0.76em" text-anchor="middle" font-family="sans-serif" font-size="9.67741935483871" opacity="1" fill="#000000">
11 07:53:20
</text>
<polyline fill="none" opacity="1" stroke="#000000" stroke-width="1" points="777,700 777,705 "/>
<text x="889" y="710" dy="0.76em" text-anchor="middle" font-family="sans-serif" font-size="9.67741935483871" opacity="1" fill="#000000">
11 21:46:40
</text>
<polyline fill="none" opacity="1" stroke="#000000" stroke-width="1" points="889,700 889,705 "/>
<polyline fill="none" opacity="1" stroke="#000000" stroke-width="1" points="78,67 974,67 "/>
<text x="106" y="58" dy="-0.5ex" text-anchor="middle" font-family="sans-serif" font-size="9.67741935483871" opacity="1" fill="#000000">
+03:35:44
</text>
<polyline fill="none" opacity="1" stroke="#000000" stroke-width="1" points="106,62 106,67 "/>
<text x="218" y="58" dy="-0.5ex" text-anchor="middle" font-family="sans-serif" font-size="9.67741935483871" opacity="1" fill="#000000">
+17:29:04
</text>
<polyline fill="none" opacity="1" stroke="#000000" stroke-width="1" points="218,62 218,67 "/>
<text x="330" y="58" dy="-0.5ex" text-anchor="middle" font-family="sans-serif" font-size="9.67741935483871" opacity="1" fill="#000000">
+31:22:24
</text>
<polyline fill="none" opacity="1" stroke="#000000" stroke-width="1" points="330,62 330,67 "/>
<text x="442" y="58" dy="-0.5ex" text-anchor="middle" font-family="sans-serif" font-size="9.67741935483871" opacity="1" fill="#000000">
+45:15:44
</text>
<polyline fill="none" opacity="1" stroke="#000000" stroke-width="1" points="442,62 442,67 "/>
<text x="554" y="58" dy="-0.5ex" text-anchor="middle" font-family="sans-serif" font-size="9.67741935483871" opacity="1" fill="#000000">
+59:09:04
</text>
<polyline fill="none" opacity="1" stroke="#000000" stroke-width="1" points="554,62 554,67 "/>
<text x="666" y="58" dy="-0.5ex" text-anchor="middle" font-family="sans-serif" font-size="9.67741935483871" opacity="1" fill="#000000">
+73:02:24
</text>
<polyline fill="none" opacity="1" stroke="#000000" stroke-width="1" points="666,62 666,67 "/>
<text x="778" y="58" dy="-0.5ex" text-anchor="middle" font-family="sans-serif" font-size="9.67741935483871" opacity="1" fill="#000000">
+86:55:44
</text>
<polyline fill="none" opacity="1" stroke="#000000" stroke-width="1" points="778,62 778,67 "/>
<text x="890" y="58" dy="-0.5ex" text-anchor="middle" font-family="sans-serif" font-size="9.67741935483871" opacity="1" fill="#000000">
+100:49:04
</text>
<polyline fill="none" opacity="1" stroke="#000000" stroke-width="1" points="890,62 890,67 "/>
<rect x="83" y="73" width="99" height="45" opacity="0.75" fill="#FFFFFF" stroke="none"/>
<rect x="83" y="73" width="99" height="45" opacity="1" fill="none" stroke="#000000"/>
<text x="123" y="83" dy="0.76em" text-anchor="start" font-family="sans-serif" font-size="9.67741935483871" opacity="1" fill="#000000">
Temporary
</text>
<text x="123" y="98" dy="0.76em" text-anchor="start" font-family="sans-serif" font-size="9.67741935483871" opacity="1" fill="#000000">
Leaked
</text>
<rect x="93" y="83" width="10" height="10" opacity="1" fill="#3CB44B" stroke="none"/>
<rect x="93" y="98" width="10" height="10" opacity="1" fill="#E6194B" stroke="none"/>
</svg>
