<svg width="1024" height="768" viewBox="0 0 1024 768" xmlns="http://www.w3.org/2000/svg">
<rect x="0" y="0" width="1024" height="768" opacity="1" fill="#FFFFFF" stroke="none"/>
<polygon opacity="1" fill="#3CB44B" points="78,694 79,692 79,692 80,687 81,683 82,684 83,688 84,691 85,687 86,686 87,685 87,688 88,698 89,693 90,692 91,692 92,687 93,687 94,693 95,694 96,693 96,691 97,691 98,692 99,694 100,694 101,695 102,691 103,691 104,694 104,698 105,698 106,698 107,699 108,694 109,693 110,693 111,694 112,691 113,690 113,690 114,691 115,690 116,690 117,691 118,687 119,687 120,687 121,684 121,681 122,681 123,681 124,681 125,678 126,678 127,678 128,678 129,675 130,666 130,666 131,667 132,667 133,664 134,664 135,661 136,657 137,658 138,658 138,653 139,653 140,653 141,649 142,648 143,647 144,647 145,644 146,643 146,640 147,639 148,635 149,634 150,634 151,634 152,630 153,626 154,626 155,623 155,623 156,623 157,624 158,620 159,620 160,620 161,620 162,616 163,613 163,613 164,613 165,612 166,609 167,610 168,610 169,607 170,602 171,598 172,595 172,591 173,591 174,592 175,593 176,596 177,695 178,695 179,695 180,695 180,695 181,695 182,694 183,695 184,695 185,691 186,691 187,692 188,687 189,687 189,684 190,684 191,683 192,683 193,684 194,681 195,678 196,678 197,674 197,673 198,673 199,673 200,671 201,668 202,668 203,666 204,667 205,666 206,664 206,664 207,664 208,663 209,660 210,661 211,658 212,658 213,658 214,658 214,658 215,656 216,657 217,657 218,656 219,655 220,653 221,653 222,651 223,651 223,651 224,647 225,647 226,647 227,643 228,643 229,642 230,640 231,640 231,639 232,638 233,636 234,635 235,632 236,633 237,633 238,632 239,628 240,624 240,624 241,625 242,622 243,622 244,621 245,618 246,617 247,617 248,617 248,618 249,618 250,618 251,618 252,615 253,615 254,615 255,616 256,611 257,612 257,609 258,608 259,608 260,603 261,603 262,603 263,604 264,604 265,604 265,604 266,605 267,605 268,604 269,605 270,605 271,601 272,596 273,595 273,596 274,598 275,595 276,595 277,592 278,592 279,591 280,592 281,591 282,588 282,587 283,587 284,585 285,581 286,582 287,582 288,581 289,578 290,578 290,578 291,575 292,573 293,573 294,574 295,574 296,574 297,572 298,568 299,568 299,568 300,563 301,560 302,559 303,561 304,561 305,561 306,557 307,553 307,549 308,549 309,552 310,552 311,551 312,551 313,551 314,550 315,551 316,551 316,551 317,550 318,547 319,545 320,544 321,542 322,542 323,539 324,540 324,540 325,541 326,537 327,533 328,533 329,531 330,531 331,527 332,526 333,521 333,521 334,521 335,522 336,523 337,519 338,517 339,517 340,513 341,513 341,513 342,514 343,514 344,514 345,510 346,506 347,506 348,505 349,505 350,506 350,504 351,503 352,500 353,502 354,498 355,498 356,498 357,499 358,496 358,496 359,492 360,492 361,492 362,492 363,492 364,489 365,488 366,484 367,483 367,483 368,484 369,481 370,481 371,477 372,475 373,470 374,468 375,463 375,463 376,458 377,457 378,457 379,455 380,452 381,452 382,452 383,450 384,449 384,445 385,443 386,443 387,443 388,446 389,446 390,443 391,443 392,438 392,438 393,435 394,435 395,435 396,433 397,432 398,433 399,429 400,425 400,421 401,417 402,418 403,418 404,417 405,417 406,415 407,415 408,415 409,412 409,412 410,409 411,409 412,409 413,408 414,408 415,406 416,405 417,408 417,407 418,405 419,400 420,401 421,398 422,397 423,398 424,397 425,398 426,397 426,398 427,398 428,398 429,394 430,388 431,386 432,383 433,377 434,377 434,377 435,376 436,376 437,377 438,376 439,377 440,377 441,377 442,374 443,371 443,370 444,366 445,366 446,366 447,364 448,364 449,360 450,355 451,355 451,356 452,356 453,355 454,355 455,354 456,350 457,350 458,345 459,340 460,341 460,339 461,339 462,340 463,339 464,340 465,336 466,333 467,333 468,332 468,332 469,331 470,332 471,332 472,330 473,324 474,325 475,324 476,325 477,325 477,321 478,321 479,320 480,319 481,318 482,317 483,316 484,316 485,312 485,311 486,312 487,312 488,308 489,308 490,303 491,303 492,302 493,298 494,295 494,291 495,290 496,287 497,285 498,281 499,277 500,277 501,278 502,274 502,274 503,274 504,273 505,269 506,269 507,269 508,268 509,267 510,267 511,267 511,268 512,268 513,263 514,262 515,263 516,260 517,259 518,258 519,258 519,259 520,261 521,263 522,263 523,258 524,259 525,256 526,252 527,252 527,249 528,249 529,248 530,248 531,245 532,241 533,238 534,234 535,234 536,229 536,225 537,224 538,223 539,224 540,224 541,224 542,218 543,215 544,215 544,214 545,214 546,210 547,211 548,207 549,207 550,207 551,207 552,204 553,199 553,195 554,192 555,188 556,187 557,182 558,183 559,183 560,182 561,180 561,180 562,176 563,176 564,175 565,175 566,176 567,173 568,170 569,166 570,165 570,165 571,163 572,164 573,164 574,163 575,159 576,158 577,159 578,155 578,151 579,151 580,147 581,147 582,147 583,144 584,144 585,141 586,140 587,136 587,135 588,134 589,135 590,131 591,131 592,131 593,131 594,125 595,125 595,124 596,120 597,119 598,119 599,121 600,121 601,120 602,121 603,121 604,121 604,117 605,116 606,113 607,109 608,110 609,108 610,109 611,107 612,108 612,107 613,106 614,107 615,107 616,107 617,105 618,106 619,102 620,103 621,99 621,96 622,93 623,93 624,93 625,92 626,89 627,89 628,85 629,85 629,84 630,83 631,83 632,79 633,78 634,77 635,78 636,77 637,73 638,73 638,70 639,68 640,68 641,68 642,68 643,697 644,693 645,693 646,693 646,693 647,693 648,693 649,689 650,689 651,689 652,689 653,690 654,690 654,687 655,683 656,683 657,680 658,679 659,675 660,672 661,672 662,671 663,671 663,671 664,671 665,668 666,664 667,665 668,663 669,663 670,662 671,661 671,661 672,662 673,658 674,658 675,654 676,653 677,653 678,655 679,656 680,652 680,653 681,651 682,648 683,644 684,643 685,641 686,641 687,641 688,638 688,634 689,630 690,630 691,631 692,627 693,624 694,624 695,624 696,621 697,621 697,618 698,614 699,612 700,612 701,612 702,608 703,607 704,607 705,607 705,607 706,607 707,603 708,600 709,600 710,600 711,601 712,597 713,597 714,598 714,596 715,595 716,595 717,596 718,596 719,598 720,598 721,595 722,591 722,587 723,584 724,584 725,582 726,582 727,578 728,576 729,576 730,577 731,577 731,574 732,574 733,572 734,571 735,574 736,573 737,574 738,571 739,570 739,570 740,572 741,569 742,569 743,565 744,564 745,565 746,564 747,565 748,565 748,565 749,562 750,562 751,559 752,559 753,559 754,559 755,555 756,555 756,555 757,554 758,549 759,550 760,547 761,547 762,544 763,544 764,544 765,541 765,541 766,541 767,541 768,541 769,537 770,534 771,534 772,533 773,533 773,534 774,530 775,526 776,527 777,526 778,524 779,524 780,521 781,521 781,517 782,513 783,509 784,510 785,510 786,507 787,507 788,507 789,503 790,503 790,502 791,502 792,499 793,499 794,500 795,500 796,493 797,489 798,489 798,488 799,486 800,482 801,478 802,478 803,479 804,479 805,478 806,478 807,475 807,471 808,468 809,469 810,469 811,469 812,469 813,469 814,465 815,465 815,463 816,459 817,454 818,453 819,451 820,452 821,452 822,449 823,449 824,446 824,441 825,439 826,439 827,435 828,432 829,432 830,432 831,429 832,423 832,423 833,422 834,422 835,422 836,421 837,419 838,417 839,413 840,414 841,411 841,406 842,406 843,402 844,404 845,400 846,400 847,399 848,399 849,400 849,400 850,400 851,397 852,399 853,399 854,394 855,394 856,389 857,389 858,385 858,386 859,384 860,385 861,385 862,381 863,380 864,377 865,377 866,377 866,374 867,374 868,374 869,373 870,368 871,369 872,365 873,366 874,362 875,363 875,360 876,360 877,357 878,357 879,356 880,353 881,354 882,350 883,349 883,349 884,348 885,348 886,348 887,347 888,347 889,346 890,346 891,346 892,347 892,347 893,343 894,343 895,343 896,340 897,339 898,336 899,336 900,335 900,331 901,332 902,332 903,330 904,330 905,330 906,330 907,326 908,324 908,324 909,324 910,320 911,320 912,320 913,315 914,315 915,314 916,314 917,314 917,311 918,312 919,313 920,309 921,309 922,309 923,309 924,309 925,309 925,309 926,305 927,306 928,303 929,299 930,299 931,296 932,297 933,293 934,293 934,290 935,289 936,290 937,286 938,285 939,285 940,285 941,285 942,284 942,281 943,282 944,282 945,279 946,276 947,276 948,273 949,269 950,269 951,268 951,264 952,262 953,257 954,253 955,250 956,251 957,250 958,251 959,251 959,251 960,248 961,248 962,245 963,240 964,240 965,240 966,240 967,240 967,242 968,239 968,239 969,239 970,239 971,239 972,238 972,238 973,238 973,699 78,699 "/>
<polyline fill="none" opacity="1" stroke="#3CB44B" stroke-width="1" points="78,694 79,692 79,692 80,687 81,683 82,684 83,688 84,691 85,687 86,686 87,685 87,688 88,698 89,693 90,692 91,692 92,687 93,687 94,693 95,694 96,693 96,691 97,691 98,692 99,694 100,694 101,695 102,691 103,691 104,694 104,698 105,698 106,698 107,699 108,694 109,693 110,693 111,694 112,691 113,690 113,690 114,691 115,690 116,690 117,691 118,687 119,687 120,687 121,684 121,681 122,681 123,681 124,681 125,678 126,678 127,678 128,678 129,675 130,666 130,666 131,667 132,667 133,664 134,664 135,661 136,657 137,658 138,658 138,653 139,653 140,653 141,649 142,648 143,647 144,647 145,644 146,643 146,640 147,639 148,635 149,634 150,634 151,634 152,630 153,626 154,626 155,623 155,623 156,623 157,624 158,620 159,620 160,620 161,620 162,616 163,613 163,613 164,613 165,612 166,609 167,610 168,610 169,607 170,602 171,598 172,595 172,591 173,591 174,592 175,593 176,596 177,695 178,695 179,695 180,695 180,695 181,695 182,694 183,695 184,695 185,691 186,691 187,692 188,687 189,687 189,684 190,684 191,683 192,683 193,684 194,681 195,678 196,678 197,674 197,673 198,673 199,673 200,671 201,668 202,668 203,666 204,667 205,666 206,664 206,664 207,664 208,663 209,660 210,661 211,658 212,658 213,658 214,658 214,658 215,656 216,657 217,657 218,656 219,655 220,653 221,653 222,651 223,651 223,651 224,647 225,647 226,647 227,643 228,643 229,642 230,640 231,640 231,639 232,638 233,636 234,635 235,632 236,633 237,633 238,632 239,628 240,624 240,624 241,625 242,622 243,622 244,621 245,618 246,617 247,617 248,617 248,618 249,618 250,618 251,618 252,615 253,615 254,615 255,616 256,611 257,612 257,609 258,608 259,608 260,603 261,603 262,603 263,604 264,604 265,604 265,604 266,605 267,605 268,604 269,605 270,605 271,601 272,596 273,595 273,596 274,598 275,595 276,595 277,592 278,592 279,591 280,592 281,591 282,588 282,587 283,587 284,585 285,581 286,582 287,582 288,581 289,578 290,578 290,578 291,575 292,573 293,573 294,574 295,574 296,574 297,572 298,568 299,568 299,568 300,563 301,560 302,559 303,561 304,561 305,561 306,557 307,553 307,549 308,549 309,552 310,552 311,551 312,551 313,551 314,550 315,551 316,551 316,551 317,550 318,547 319,545 320,544 321,542 322,542 323,539 324,540 324,540 325,541 326,537 327,533 328,533 329,531 330,531 331,527 332,526 333,521 333,521 334,521 335,522 336,523 337,519 338,517 339,517 340,513 341,513 341,513 342,514 343,514 344,514 345,510 346,506 347,506 348,505 349,505 350,506 350,504 351,503 352,500 353,502 354,498 355,498 356,498 357,499 358,496 358,496 359,492 360,492 361,492 362,492 363,492 364,489 365,488 366,484 367,483 367,483 368,484 369,481 370,481 371,477 372,475 373,470 374,468 375,463 375,463 376,458 377,457 378,457 379,455 380,452 381,452 382,452 383,450 384,449 384,445 385,443 386,443 387,443 388,446 389,446 390,443 391,443 392,438 392,438 393,435 394,435 395,435 396,433 397,432 398,433 399,429 400,425 400,421 401,417 402,418 403,418 404,417 405,417 406,415 407,415 408,415 409,412 409,412 410,409 411,409 412,409 413,408 414,408 415,406 416,405 417,408 417,407 418,405 419,400 420,401 421,398 422,397 423,398 424,397 425,398 426,397 426,398 427,398 428,398 429,394 430,388 431,386 432,383 433,377 434,377 434,377 435,376 436,376 437,377 438,376 439,377 440,377 441,377 442,374 443,371 443,370 444,366 445,366 446,366 447,364 448,364 449,360 450,355 451,355 451,356 452,356 453,355 454,355 455,354 456,350 457,350 458,345 459,340 460,341 460,339 461,339 462,340 463,339 464,340 465,336 466,333 467,333 468,332 468,332 469,331 470,332 471,332 472,330 473,324 474,325 475,324 476,325 477,325 477,321 478,321 479,320 480,319 481,318 482,317 483,316 484,316 485,312 485,311 486,312 487,312 488,308 489,308 490,303 491,303 492,302 493,298 494,295 494,291 495,290 496,287 497,285 498,281 499,277 500,277 501,278 502,274 502,274 503,274 504,273 505,269 506,269 507,269 508,268 509,267 510,267 511,267 511,268 512,268 513,263 514,262 515,263 516,260 517,259 518,258 519,258 519,259 520,261 521,263 522,263 523,258 524,259 525,256 526,252 527,252 527,249 528,249 529,248 530,248 531,245 532,241 533,238 534,234 535,234 536,229 536,225 537,224 538,223 539,224 540,224 541,224 542,218 543,215 544,215 544,214 545,214 546,210 547,211 548,207 549,207 550,207 551,207 552,204 553,199 553,195 554,192 555,188 556,187 557,182 558,183 559,183 560,182 561,180 561,180 562,176 563,176 564,175 565,175 566,176 567,173 568,170 569,166 570,165 570,165 571,163 572,164 573,164 574,163 575,159 576,158 577,159 578,155 578,151 579,151 580,147 581,147 582,147 583,144 584,144 585,141 586,140 587,136 587,135 588,134 589,135 590,131 591,131 592,131 593,131 594,125 595,125 595,124 596,120 597,119 598,119 599,121 600,121 601,120 602,121 603,121 604,121 604,117 605,116 606,113 607,109 608,110 609,108 610,109 611,107 612,108 612,107 613,106 614,107 615,107 616,107 617,105 618,106 619,102 620,103 621,99 621,96 622,93 623,93 624,93 625,92 626,89 627,89 628,85 629,85 629,84 630,83 631,83 632,79 633,78 634,77 635,78 636,77 637,73 638,73 638,70 639,68 640,68 641,68 642,68 643,697 644,693 645,693 646,693 646,693 647,693 648,693 649,689 650,689 651,689 652,689 653,690 654,690 654,687 655,683 656,683 657,680 658,679 659,675 660,672 661,672 662,671 663,671 663,671 664,671 665,668 666,664 667,665 668,663 669,663 670,662 671,661 671,661 672,662 673,658 674,658 675,654 676,653 677,653 678,655 679,656 680,652 680,653 681,651 682,648 683,644 684,643 685,641 686,641 687,641 688,638 688,634 689,630 690,630 691,631 692,627 693,624 694,624 695,624 696,621 697,621 697,618 698,614 699,612 700,612 701,612 702,608 703,607 704,607 705,607 705,607 706,607 707,603 708,600 709,600 710,600 711,601 712,597 713,597 714,598 714,596 715,595 716,595 717,596 718,596 719,598 720,598 721,595 722,591 722,587 723,584 724,584 725,582 726,582 727,578 728,576 729,576 730,577 731,577 731,574 732,574 733,572 734,571 735,574 736,573 737,574 738,571 739,570 739,570 740,572 741,569 742,569 743,565 744,564 745,565 746,564 747,565 748,565 748,565 749,562 750,562 751,559 752,559 753,559 754,559 755,555 756,555 756,555 757,554 758,549 759,550 760,547 761,547 762,544 763,544 764,544 765,541 765,541 766,541 767,541 768,541 769,537 770,534 771,534 772,533 773,533 773,534 774,530 775,526 776,527 777,526 778,524 779,524 780,521 781,521 781,517 782,513 783,509 784,510 785,510 786,507 787,507 788,507 789,503 790,503 790,502 791,502 792,499 793,499 794,500 795,500 796,493 797,489 798,489 798,488 799,486 800,482 801,478 802,478 803,479 804,479 805,478 806,478 807,475 807,471 808,468 809,469 810,469 811,469 812,469 813,469 814,465 815,465 815,463 816,459 817,454 818,453 819,451 820,452 821,452 822,449 823,449 824,446 824,441 825,439 826,439 827,435 828,432 829,432 830,432 831,429 832,423 832,423 833,422 834,422 835,422 836,421 837,419 838,417 839,413 840,414 841,411 841,406 842,406 843,402 844,404 845,400 846,400 847,399 848,399 849,400 849,400 850,400 851,397 852,399 853,399 854,394 855,394 856,389 857,389 858,385 858,386 859,384 860,385 861,385 862,381 863,380 864,377 865,377 866,377 866,374 867,374 868,374 869,373 870,368 871,369 872,365 873,366 874,362 875,363 875,360 876,360 877,357 878,357 879,356 880,353 881,354 882,350 883,349 883,349 884,348 885,348 886,348 887,347 888,347 889,346 890,346 891,346 892,347 892,347 893,343 894,343 895,343 896,340 897,339 898,336 899,336 900,335 900,331 901,332 902,332 903,330 904,330 905,330 906,330 907,326 908,324 908,324 909,324 910,320 911,320 912,320 913,315 914,315 915,314 916,314 917,314 917,311 918,312 919,313 920,309 921,309 922,309 923,309 924,309 925,309 925,309 926,305 927,306 928,303 929,299 930,299 931,296 932,297 933,293 934,293 934,290 935,289 936,290 937,286 938,285 939,285 940,285 941,285 942,284 942,281 943,282 944,282 945,279 946,276 947,276 948,273 949,269 950,269 951,268 951,264 952,262 953,257 954,253 955,250 956,251 957,250 958,251 959,251 959,251 960,248 961,248 962,245 963,240 964,240 965,240 966,240 967,240 967,242 968,239 968,239 969,239 970,239 971,239 972,238 972,238 973,238 "/>
<polygon opacity="1" fill="#E6194B" points="78,699 79,699 79,699 80,699 81,699 82,699 83,699 84,699 85,699 86,699 87,699 87,699 88,699 89,699 90,699 91,699 92,699 93,699 94,699 95,699 96,699 96,699 97,699 98,699 99,699 100,699 101,699 102,699 103,699 104,699 104,699 105,699 106,699 107,699 108,699 109,699 110,699 111,699 112,699 113,699 113,699 114,699 115,699 116,699 117,699 118,699 119,699 120,699 121,699 121,699 122,699 123,699 124,699 125,699 126,699 127,699 128,699 129,699 130,699 130,699 131,699 132,699 133,699 134,699 135,699 136,699 137,699 138,699 138,699 139,699 140,699 141,699 142,699 143,699 144,699 145,699 146,699 146,699 147,699 148,699 149,699 150,699 151,699 152,699 153,699 154,699 155,699 155,699 156,699 157,699 158,699 159,699 160,699 161,699 162,699 163,699 163,699 164,699 165,699 166,699 167,699 168,699 169,699 170,699 171,699 172,699 172,699 173,699 174,699 175,699 176,699 177,699 178,699 179,699 180,699 180,699 181,699 182,699 183,699 184,699 185,699 186,699 187,699 188,699 189,699 189,699 190,699 191,699 192,699 193,699 194,699 195,699 196,699 197,699 197,699 198,699 199,699 200,699 201,699 202,699 203,699 204,699 205,699 206,699 206,699 207,699 208,699 209,699 210,699 211,699 212,699 213,699 214,699 214,699 215,699 216,699 217,699 218,699 219,699 220,699 221,699 222,699 223,699 223,699 224,699 225,699 226,699 227,699 228,699 229,699 230,699 231,699 231,699 232,699 233,699 234,699 235,699 236,699 237,699 238,699 239,699 240,699 240,699 241,699 242,699 243,699 244,699 245,699 246,699 247,699 248,699 248,699 249,699 250,699 251,699 252,699 253,699 254,699 255,699 256,699 257,699 257,699 258,699 259,699 260,699 261,699 262,699 263,699 264,699 265,699 265,699 266,699 267,699 268,699 269,699 270,699 271,699 272,699 273,699 273,699 274,699 275,699 276,699 277,699 278,699 279,699 280,699 281,699 282,699 282,699 283,699 284,699 285,699 286,699 287,699 288,699 289,699 290,699 290,699 291,699 292,699 293,699 294,699 295,699 296,699 297,699 298,699 299,699 299,699 300,699 301,699 302,699 303,699 304,699 305,699 306,699 307,699 307,699 308,699 309,699 310,699 311,699 312,699 313,699 314,699 315,699 316,699 316,699 317,699 318,699 319,699 320,699 321,699 322,699 323,699 324,699 324,699 325,699 326,699 327,699 328,699 329,699 330,699 331,699 332,699 333,699 333,699 334,699 335,699 336,699 337,699 338,699 339,699 340,699 341,699 341,699 342,699 343,699 344,699 345,699 346,699 347,699 348,699 349,699 350,699 350,699 351,699 352,699 353,699 354,699 355,699 356,699 357,699 358,699 358,699 359,699 360,699 361,699 362,699 363,699 364,699 365,699 366,699 367,699 367,699 368,699 369,699 370,699 371,699 372,699 373,699 374,699 375,699 375,699 376,699 377,699 378,699 379,699 380,699 381,699 382,699 383,699 384,699 384,699 385,699 386,699 387,699 388,699 389,699 390,699 391,699 392,699 392,699 393,699 394,699 395,699 396,699 397,699 398,699 399,699 400,699 400,699 401,699 402,699 403,699 404,699 405,699 406,699 407,699 408,699 409,699 409,699 410,699 411,699 412,699 413,699 414,699 415,699 416,699 417,699 417,699 418,699 419,699 420,699 421,699 422,699 423,699 424,699 425,699 426,699 426,699 427,699 428,699 429,699 430,699 431,699 432,699 433,699 434,699 434,699 435,699 436,699 437,699 438,699 439,699 440,699 441,699 442,699 443,699 443,699 444,699 445,699 446,699 447,699 448,699 449,699 450,699 451,699 451,699 452,699 453,699 454,699 455,699 456,699 457,699 458,699 459,699 460,699 460,699 461,699 462,699 463,699 464,699 465,699 466,699 467,699 468,699 468,699 469,699 470,699 471,699 472,699 473,699 474,699 475,699 476,699 477,699 477,699 478,699 479,699 480,699 481,699 482,699 483,699 484,699 485,699 485,699 486,699 487,699 488,699 489,699 490,699 491,699 492,699 493,699 494,699 494,699 495,699 496,699 497,699 498,699 499,699 500,699 501,699 502,699 502,699 503,699 504,699 505,699 506,699 507,699 508,699 509,699 510,699 511,699 511,699 512,699 513,699 514,699 515,699 516,699 517,699 518,699 519,699 519,699 520,699 521,699 522,699 523,699 524,699 525,699 526,699 527,699 527,699 528,699 529,699 530,699 531,699 532,699 533,699 534,699 535,699 536,699 536,699 537,699 538,699 539,699 540,699 541,699 542,699 543,699 544,699 544,699 545,699 546,699 547,699 548,699 549,699 550,699 551,699 552,699 553,699 553,699 554,699 555,699 556,699 557,699 558,699 559,699 560,699 561,699 561,699 562,699 563,699 564,699 565,699 566,699 567,699 568,699 569,699 570,699 570,699 571,699 572,699 573,699 574,699 575,699 576,699 577,699 578,699 578,699 579,699 580,699 581,699 582,699 583,699 584,699 585,699 586,699 587,699 587,699 588,699 589,699 590,699 591,699 592,699 593,699 594,699 595,699 595,699 596,699 597,699 598,699 599,699 600,699 601,699 602,699 603,699 604,699 604,699 605,699 606,699 607,699 608,699 609,699 610,699 611,699 612,699 612,699 613,699 614,699 615,699 616,699 617,699 618,699 619,699 620,699 621,699 621,699 622,699 623,699 624,699 625,699 626,699 627,699 628,699 629,699 629,699 630,699 631,699 632,699 633,699 634,699 635,699 636,699 637,699 638,699 638,699 639,699 640,699 641,699 642,699 643,699 644,695 645,695 646,695 646,695 647,695 648,695 649,692 650,692 651,692 652,692 653,692 654,692 654,688 655,685 656,685 657,681 658,681 659,678 660,675 661,675 662,675 663,675 663,675 664,675 665,671 666,668 667,668 668,664 669,664 670,664 671,664 671,664 672,664 673,661 674,661 675,658 676,658 677,658 678,658 679,658 680,654 680,654 681,654 682,651 683,647 684,647 685,644 686,644 687,644 688,641 688,637 689,634 690,634 691,634 692,630 693,627 694,627 695,627 696,624 697,624 697,620 698,617 699,613 700,613 701,613 702,610 703,610 704,610 705,610 705,610 706,610 707,607 708,603 709,603 710,603 711,603 712,600 713,600 714,600 714,600 715,600 716,600 717,600 718,600 719,600 720,600 721,596 722,593 722,590 723,586 724,586 725,586 726,586 727,583 728,579 729,579 730,579 731,579 731,576 732,576 733,576 734,576 735,576 736,576 737,576 738,572 739,572 739,572 740,572 741,569 742,569 743,566 744,566 745,566 746,566 747,566 748,566 748,566 749,562 750,562 751,559 752,559 753,559 754,559 755,555 756,555 756,555 757,555 758,552 759,552 760,549 761,549 762,545 763,545 764,545 765,542 765,542 766,542 767,542 768,542 769,538 770,535 771,535 772,535 773,535 773,535 774,532 775,528 776,528 777,528 778,525 779,525 780,521 781,521 781,518 782,515 783,511 784,511 785,511 786,508 787,508 788,508 789,504 790,504 790,504 791,504 792,501 793,501 794,501 795,501 796,498 797,494 798,491 798,491 799,487 800,484 801,481 802,481 803,481 804,481 805,481 806,481 807,477 807,474 808,470 809,470 810,470 811,470 812,470 813,470 814,467 815,467 815,463 816,460 817,457 818,457 819,453 820,453 821,453 822,450 823,450 824,446 824,443 825,440 826,440 827,436 828,433 829,433 830,433 831,429 832,426 832,426 833,423 834,423 835,423 836,423 837,423 838,419 839,416 840,416 841,412 841,409 842,409 843,406 844,406 845,402 846,402 847,402 848,402 849,402 849,402 850,402 851,399 852,399 853,399 854,395 855,395 856,392 857,392 858,389 858,389 859,385 860,385 861,385 862,382 863,382 864,378 865,378 866,378 866,375 867,375 868,375 869,375 870,372 871,372 872,368 873,368 874,365 875,365 875,361 876,361 877,358 878,358 879,358 880,354 881,354 882,351 883,351 883,351 884,348 885,348 886,348 887,348 888,348 889,348 890,348 891,348 892,348 892,348 893,344 894,344 895,344 896,341 897,341 898,337 899,337 900,337 900,334 901,334 902,334 903,331 904,331 905,331 906,331 907,327 908,324 908,324 909,324 910,320 911,320 912,320 913,317 914,317 915,317 916,317 917,317 917,314 918,314 919,314 920,310 921,310 922,310 923,310 924,310 925,310 925,310 926,307 927,307 928,303 929,300 930,300 931,297 932,297 933,293 934,293 934,290 935,290 936,290 937,286 938,286 939,286 940,286 941,286 942,286 942,283 943,283 944,283 945,280 946,276 947,276 948,273 949,269 950,269 951,269 951,266 952,263 953,259 954,256 955,252 956,252 957,252 958,252 959,252 959,252 960,249 961,249 962,245 963,242 964,242 965,242 966,242 967,242 967,242 968,239 968,239 969,239 970,239 971,239 972,238 972,238 973,238 973,699 78,699 "/>
<polyline fill="none" opacity="1" stroke="#E6194B" stroke-width="1" points="78,699 79,699 79,699 80,699 81,699 82,699 83,699 84,699 85,699 86,699 87,699 87,699 88,699 89,699 90,699 91,699 92,699 93,699 94,699 95,699 96,699 96,699 97,699 98,699 99,699 100,699 101,699 102,699 103,699 104,699 104,699 105,699 106,699 107,699 108,699 109,699 110,699 111,699 112,699 113,699 113,699 114,699 115,699 116,699 117,699 118,699 119,699 120,699 121,699 121,699 122,699 123,699 124,699 125,699 126,699 127,699 128,699 129,699 130,699 130,699 131,699 132,699 133,699 134,699 135,699 136,699 137,699 138,699 138,699 139,699 140,699 141,699 142,699 143,699 144,699 145,699 146,699 146,699 147,699 148,699 149,699 150,699 151,699 152,699 153,699 154,699 155,699 155,699 156,699 157,699 158,699 159,699 160,699 161,699 162,699 163,699 163,699 164,699 165,699 166,699 167,699 168,699 169,699 170,699 171,699 172,699 172,699 173,699 174,699 175,699 176,699 177,699 178,699 179,699 180,699 180,699 181,699 182,699 183,699 184,699 185,699 186,699 187,699 188,699 189,699 189,699 190,699 191,699 192,699 193,699 194,699 195,699 196,699 197,699 197,699 198,699 199,699 200,699 201,699 202,699 203,699 204,699 205,699 206,699 206,699 207,699 208,699 209,699 210,699 211,699 212,699 213,699 214,699 214,699 215,699 216,699 217,699 218,699 219,699 220,699 221,699 222,699 223,699 223,699 224,699 225,699 226,699 227,699 228,699 229,699 230,699 231,699 231,699 232,699 233,699 234,699 235,699 236,699 237,699 238,699 239,699 240,699 240,699 241,699 242,699 243,699 244,699 245,699 246,699 247,699 248,699 248,699 249,699 250,699 251,699 252,699 253,699 254,699 255,699 256,699 257,699 257,699 258,699 259,699 260,699 261,699 262,699 263,699 264,699 265,699 265,699 266,699 267,699 268,699 269,699 270,699 271,699 272,699 273,699 273,699 274,699 275,699 276,699 277,699 278,699 279,699 280,699 281,699 282,699 282,699 283,699 284,699 285,699 286,699 287,699 288,699 289,699 290,699 290,699 291,699 292,699 293,699 294,699 295,699 296,699 297,699 298,699 299,699 299,699 300,699 301,699 302,699 303,699 304,699 305,699 306,699 307,699 307,699 308,699 309,699 310,699 311,699 312,699 313,699 314,699 315,699 316,699 316,699 317,699 318,699 319,699 320,699 321,699 322,699 323,699 324,699 324,699 325,699 326,699 327,699 328,699 329,699 330,699 331,699 332,699 333,699 333,699 334,699 335,699 336,699 337,699 338,699 339,699 340,699 341,699 341,699 342,699 343,699 344,699 345,699 346,699 347,699 348,699 349,699 350,699 350,699 351,699 352,699 353,699 354,699 355,699 356,699 357,699 358,699 358,699 359,699 360,699 361,699 362,699 363,699 364,699 365,699 366,699 367,699 367,699 368,699 369,699 370,699 371,699 372,699 373,699 374,699 375,699 375,699 376,699 377,699 378,699 379,699 380,699 381,699 382,699 383,699 384,699 384,699 385,699 386,699 387,699 388,699 389,699 390,699 391,699 392,699 392,699 393,699 394,699 395,699 396,699 397,699 398,699 399,699 400,699 400,699 401,699 402,699 403,699 404,699 405,699 406,699 407,699 408,699 409,699 409,699 410,699 411,699 412,699 413,699 414,699 415,699 416,699 417,699 417,699 418,699 419,699 420,699 421,699 422,699 423,699 424,699 425,699 426,699 426,699 427,699 428,699 429,699 430,699 431,699 432,699 433,699 434,699 434,699 435,699 436,699 437,699 438,699 439,699 440,699 441,699 442,699 443,699 443,699 444,699 445,699 446,699 447,699 448,699 449,699 450,699 451,699 451,699 452,699 453,699 454,699 455,699 456,699 457,699 458,699 459,699 460,699 460,699 461,699 462,699 463,699 464,699 465,699 466,699 467,699 468,699 468,699 469,699 470,699 471,699 472,699 473,699 474,699 475,699 476,699 477,699 477,699 478,699 479,699 480,699 481,699 482,699 483,699 484,699 485,699 485,699 486,699 487,699 488,699 489,699 490,699 491,699 492,699 493,699 494,699 494,699 495,699 496,699 497,699 498,699 499,699 500,699 501,699 502,699 502,699 503,699 504,699 505,699 506,699 507,699 508,699 509,699 510,699 511,699 511,699 512,699 513,699 514,699 515,699 516,699 517,699 518,699 519,699 519,699 520,699 521,699 522,699 523,699 524,699 525,699 526,699 527,699 527,699 528,699 529,699 530,699 531,699 532,699 533,699 534,699 535,699 536,699 536,699 537,699 538,699 539,699 540,699 541,699 542,699 543,699 544,699 544,699 545,699 546,699 547,699 548,699 549,699 550,699 551,699 552,699 553,699 553,699 554,699 555,699 556,699 557,699 558,699 559,699 560,699 561,699 561,699 562,699 563,699 564,699 565,699 566,699 567,699 568,699 569,699 570,699 570,699 571,699 572,699 573,699 574,699 575,699 576,699 577,699 578,699 578,699 579,699 580,699 581,699 582,699 583,699 584,699 585,699 586,699 587,699 587,699 588,699 589,699 590,699 591,699 592,699 593,699 594,699 595,699 595,699 596,699 597,699 598,699 599,699 600,699 601,699 602,699 603,699 604,699 604,699 605,699 606,699 607,699 608,699 609,699 610,699 611,699 612,699 612,699 613,699 614,699 615,699 616,699 617,699 618,699 619,699 620,699 621,699 621,699 622,699 623,699 624,699 625,699 626,699 627,699 628,699 629,699 629,699 630,699 631,699 632,699 633,699 634,699 635,699 636,699 637,699 638,699 638,699 639,699 640,699 641,699 642,699 643,699 644,695 645,695 646,695 646,695 647,695 648,695 649,692 650,692 651,692 652,692 653,692 654,692 654,688 655,685 656,685 657,681 658,681 659,678 660,675 661,675 662,675 663,675 663,675 664,675 665,671 666,668 667,668 668,664 669,664 670,664 671,664 671,664 672,664 673,661 674,661 675,658 676,658 677,658 678,658 679,658 680,654 680,654 681,654 682,651 683,647 684,647 685,644 686,644 687,644 688,641 688,637 689,634 690,634 691,634 692,630 693,627 694,627 695,627 696,624 697,624 697,620 698,617 699,613 700,613 701,613 702,610 703,610 704,610 705,610 705,610 706,610 707,607 708,603 709,603 710,603 711,603 712,600 713,600 714,600 714,600 715,600 716,600 717,600 718,600 719,600 720,600 721,596 722,593 722,590 723,586 724,586 725,586 726,586 727,583 728,579 729,579 730,579 731,579 731,576 732,576 733,576 734,576 735,576 736,576 737,576 738,572 739,572 739,572 740,572 741,569 742,569 743,566 744,566 745,566 746,566 747,566 748,566 748,566 749,562 750,562 751,559 752,559 753,559 754,559 755,555 756,555 756,555 757,555 758,552 759,552 760,549 761,549 762,545 763,545 764,545 765,542 765,542 766,542 767,542 768,542 769,538 770,535 771,535 772,535 773,535 773,535 774,532 775,528 776,528 777,528 778,525 779,525 780,521 781,521 781,518 782,515 783,511 784,511 785,511 786,508 787,508 788,508 789,504 790,504 790,504 791,504 792,501 793,501 794,501 795,501 796,498 797,494 798,491 798,491 799,487 800,484 801,481 802,481 803,481 804,481 805,481 806,481 807,477 807,474 808,470 809,470 810,470 811,470 812,470 813,470 814,467 815,467 815,463 816,460 817,457 818,457 819,453 820,453 821,453 822,450 823,450 824,446 824,443 825,440 826,440 827,436 828,433 829,433 830,433 831,429 832,426 832,426 833,423 834,423 835,423 836,423 837,423 838,419 839,416 840,416 841,412 841,409 842,409 843,406 844,406 845,402 846,402 847,402 848,402 849,402 849,402 850,402 851,399 852,399 853,399 854,395 855,395 856,392 857,392 858,389 858,389 859,385 860,385 861,385 862,382 863,382 864,378 865,378 866,378 866,375 867,375 868,375 869,375 870,372 871,372 872,368 873,368 874,365 875,365 875,361 876,361 877,358 878,358 879,358 880,354 881,354 882,351 883,351 883,351 884,348 885,348 886,348 887,348 888,348 889,348 890,348 891,348 892,348 892,348 893,344 894,344 895,344 896,341 897,341 898,337 899,337 900,337 900,334 901,334 902,334 903,331 904,331 905,331 906,331 907,327 908,324 908,324 909,324 910,320 911,320 912,320 913,317 914,317 915,317 916,317 917,317 917,314 918,314 919,314 920,310 921,310 922,310 923,310 924,310 925,310 925,310 926,307 927,307 928,303 929,300 930,300 931,297 932,297 933,293 934,293 934,290 935,290 936,290 937,286 938,286 939,286 940,286 941,286 942,286 942,283 943,283 944,283 945,280 946,276 947,276 948,273 949,269 950,269 951,269 951,266 952,263 953,259 954,256 955,252 956,252 957,252 958,252 959,252 959,252 960,249 961,249 962,245 963,242 964,242 965,242 966,242 967,242 967,242 968,239 968,239 969,239 970,239 971,239 972,238 972,238 973,238 "/>
<line opacity="0.1" stroke="#000000" stroke-width="1" x1="84" y1="699" x2="84" y2="68"/>
<line opacity="0.1" stroke="#000000" stroke-width="1" x1="94" y1="699" x2="94" y2="68"/>
<line opacity="0.1" stroke="#000000" stroke-width="1" x1="105" y1="699" x2="105" y2="68"/>
<line opacity="0.1" stroke="#000000" stroke-width="1" x1="115" y1="699" x2="115" y2="68"/>
<line opacity="0.1" stroke="#000000" stroke-width="1" x1="126" y1="699" x2="126" y2="68"/>
<line opacity="0.1" stroke="#000000" stroke-width="1" x1="137" y1="699" x2="137" y2="68"/>
<line opacity="0.1" stroke="#000000" stroke-width="1" x1="147" y1="699" x2="147" y2="68"/>
<line opacity="0.1" stroke="#000000" stroke-width="1" x1="158" y1="699" x2="158" y2="68"/>
<line opacity="0.1" stroke="#000000" stroke-width="1" x1="168" y1="699" x2="168" y2="68"/>
<line opacity="0.1" stroke="#000000" stroke-width="1" x1="179" y1="699" x2="179" y2="68"/>
<line opacity="0.1" stroke="#000000" stroke-width="1" x1="189" y1="699" x2="189" y2="68"/>
<line opacity="0.1" stroke="#000000" stroke-width="1" x1="200" y1="699" x2="200" y2="68"/>
<line opacity="0.1" stroke="#000000" stroke-width="1" x1="211" y1="699" x2="211" y2="68"/>
<line opacity="0.1" stroke="#000000" stroke-width="1" x1="221" y1="699" x2="221" y2="68"/>
<line opacity="0.1" stroke="#000000" stroke-width="1" x1="232" y1="699" x2="232" y2="68"/>
<line opacity="0.1" stroke="#000000" stroke-width="1" x1="242" y1="699" x2="242" y2="68"/>
<line opacity="0.1" stroke="#000000" stroke-width="1" x1="253" y1="699" x2="253" y2="68"/>
<line opacity="0.1" stroke="#000000" stroke-width="1" x1="264" y1="699" x2="264" y2="68"/>
<line opacity="0.1" stroke="#000000" stroke-width="1" x1="274" y1="699" x2="274" y2="68"/>
<line opacity="0.1" stroke="#000000" stroke-width="1" x1="285" y1="699" x2="285" y2="68"/>
<line opacity="0.1" stroke="#000000" stroke-width="1" x1="295" y1="699" x2="295" y2="68"/>
<line opacity="0.1" stroke="#000000" stroke-width="1" x1="306" y1="699" x2="306" y2="68"/>
<line opacity="0.1" stroke="#000000" stroke-width="1" x1="316" y1="699" x2="316" y2="68"/>
<line opacity="0.1" stroke="#000000" stroke-width="1" x1="327" y1="699" x2="327" y2="68"/>
<line opacity="0.1" stroke="#000000" stroke-width="1" x1="338" y1="699" x2="338" y2="68"/>
<line opacity="0.1" stroke="#000000" stroke-width="1" x1="348" y1="699" x2="348" y2="68"/>
<line opacity="0.1" stroke="#000000" stroke-width="1" x1="359" y1="699" x2="359" y2="68"/>
<line opacity="0.1" stroke="#000000" stroke-width="1" x1="369" y1="699" x2="369" y2="68"/>
<line opacity="0.1" stroke="#000000" stroke-width="1" x1="380" y1="699" x2="380" y2="68"/>
<line opacity="0.1" stroke="#000000" stroke-width="1" x1="390" y1="699" x2="390" y2="68"/>
<line opacity="0.1" stroke="#000000" stroke-width="1" x1="401" y1="699" x2="401" y2="68"/>
<line opacity="0.1" stroke="#000000" stroke-width="1" x1="412" y1="699" x2="412" y2="68"/>
<line opacity="0.1" stroke="#000000" stroke-width="1" x1="422" y1="699" x2="422" y2="68"/>
<line opacity="0.1" stroke="#000000" stroke-width="1" x1="433" y1="699" x2="433" y2="68"/>
<line opacity="0.1" stroke="#000000" stroke-width="1" x1="443" y1="699" x2="443" y2="68"/>
<line opacity="0.1" stroke="#000000" stroke-width="1" x1="454" y1="699" x2="454" y2="68"/>
<line opacity="0.1" stroke="#000000" stroke-width="1" x1="464" y1="699" x2="464" y2="68"/>
<line opacity="0.1" stroke="#000000" stroke-width="1" x1="475" y1="699" x2="475" y2="68"/>
<line opacity="0.1" stroke="#000000" stroke-width="1" x1="486" y1="699" x2="486" y2="68"/>
<line opacity="0.1" stroke="#000000" stroke-width="1" x1="496" y1="699" x2="496" y2="68"/>
<line opacity="0.1" stroke="#000000" stroke-width="1" x1="507" y1="699" x2="507" y2="68"/>
<line opacity="0.1" stroke="#000000" stroke-width="1" x1="517" y1="699" x2="517" y2="68"/>
<line opacity="0.1" stroke="#000000" stroke-width="1" x1="528" y1="699" x2="528" y2="68"/>
<line opacity="0.1" stroke="#000000" stroke-width="1" x1="538" y1="699" x2="538" y2="68"/>
<line opacity="0.1" stroke="#000000" stroke-width="1" x1="549" y1="699" x2="549" y2="68"/>
<line opacity="0.1" stroke="#000000" stroke-width="1" x1="560" y1="699" x2="560" y2="68"/>
<line opacity="0.1" stroke="#000000" stroke-width="1" x1="570" y1="699" x2="570" y2="68"/>
<line opacity="0.1" stroke="#000000" stroke-width="1" x1="581" y1="699" x2="581" y2="68"/>
<line opacity="0.1" stroke="#000000" stroke-width="1" x1="591" y1="699" x2="591" y2="68"/>
<line opacity="0.1" stroke="#000000" stroke-width="1" x1="602" y1="699" x2="602" y2="68"/>
<line opacity="0.1" stroke="#000000" stroke-width="1" x1="612" y1="699" x2="612" y2="68"/>
<line opacity="0.1" stroke="#000000" stroke-width="1" x1="623" y1="699" x2="623" y2="68"/>
<line opacity="0.1" stroke="#000000" stroke-width="1" x1="634" y1="699" x2="634" y2="68"/>
<line opacity="0.1" stroke="#000000" stroke-width="1" x1="644" y1="699" x2="644" y2="68"/>
<line opacity="0.1" stroke="#000000" stroke-width="1" x1="655" y1="699" x2="655" y2="68"/>
<line opacity="0.1" stroke="#000000" stroke-width="1" x1="665" y1="699" x2="665" y2="68"/>
<line opacity="0.1" stroke="#000000" stroke-width="1" x1="676" y1="699" x2="676" y2="68"/>
<line opacity="0.1" stroke="#000000" stroke-width="1" x1="687" y1="699" x2="687" y2="68"/>
<line opacity="0.1" stroke="#000000" stroke-width="1" x1="697" y1="699" x2="697" y2="68"/>
<line opacity="0.1" stroke="#000000" stroke-width="1" x1="708" y1="699" x2="708" y2="68"/>
<line opacity="0.1" stroke="#000000" stroke-width="1" x1="718" y1="699" x2="718" y2="68"/>
<line opacity="0.1" stroke="#000000" stroke-width="1" x1="729" y1="699" x2="729" y2="68"/>
<line opacity="0.1" stroke="#000000" stroke-width="1" x1="739" y1="699" x2="739" y2="68"/>
<line opacity="0.1" stroke="#000000" stroke-width="1" x1="750" y1="699" x2="750" y2="68"/>
<line opacity="0.1" stroke="#000000" stroke-width="1" x1="761" y1="699" x2="761" y2="68"/>
<line opacity="0.1" stroke="#000000" stroke-width="1" x1="771" y1="699" x2="771" y2="68"/>
<line opacity="0.1" stroke="#000000" stroke-width="1" x1="782" y1="699" x2="782" y2="68"/>
<line opacity="0.1" stroke="#000000" stroke-width="1" x1="792" y1="699" x2="792" y2="68"/>
<line opacity="0.1" stroke="#000000" stroke-width="1" x1="803" y1="699" x2="803" y2="68"/>
<line opacity="0.1" stroke="#000000" stroke-width="1" x1="813" y1="699" x2="813" y2="68"/>
<line opacity="0.1" stroke="#000000" stroke-width="1" x1="824" y1="699" x2="824" y2="68"/>
<line opacity="0.1" stroke="#000000" stroke-width="1" x1="835" y1="699" x2="835" y2="68"/>
<line opacity="0.1" stroke="#000000" stroke-width="1" x1="845" y1="699" x2="845" y2="68"/>
<line opacity="0.1" stroke="#000000" stroke-width="1" x1="856" y1="699" x2="856" y2="68"/>
<line opacity="0.1" stroke="#000000" stroke-width="1" x1="866" y1="699" x2="866" y2="68"/>
<line opacity="0.1" stroke="#000000" stroke-width="1" x1="877" y1="699" x2="877" y2="68"/>
<line opacity="0.1" stroke="#000000" stroke-width="1" x1="887" y1="699" x2="887" y2="68"/>
<line opacity="0.1" stroke="#000000" stroke-width="1" x1="898" y1="699" x2="898" y2="68"/>
<line opacity="0.1" stroke="#000000" stroke-width="1" x1="909" y1="699" x2="909" y2="68"/>
<line opacity="0.1" stroke="#000000" stroke-width="1" x1="919" y1="699" x2="919" y2="68"/>
<line opacity="0.1" stroke="#000000" stroke-width="1" x1="930" y1="699" x2="930" y2="68"/>
<line opacity="0.1" stroke="#000000" stroke-width="1" x1="940" y1="699" x2="940" y2="68"/>
<line opacity="0.1" stroke="#000000" stroke-width="1" x1="951" y1="699" x2="951" y2="68"/>
<line opacity="0.1" stroke="#000000" stroke-width="1" x1="961" y1="699" x2="961" y2="68"/>
<line opacity="0.1" stroke="#000000" stroke-width="1" x1="972" y1="699" x2="972" y2="68"/>
<line opacity="0.1" stroke="#000000" stroke-width="1" x1="78" y1="699" x2="973" y2="699"/>
<line opacity="0.1" stroke="#000000" stroke-width="1" x1="78" y1="692" x2="973" y2="692"/>
<line opacity="0.1" stroke="#000000" stroke-width="1" x1="78" y1="686" x2="973" y2="686"/>
<line opacity="0.1" stroke="#000000" stroke-width="1" x1="78" y1="679" x2="973" y2="679"/>
<line opacity="0.1" stroke="#000000" stroke-width="1" x1="78" y1="673" x2="973" y2="673"/>
<line opacity="0.1" stroke="#000000" stroke-width="1" x1="78" y1="666" x2="973" y2="666"/>
<line opacity="0.1" stroke="#000000" stroke-width="1" x1="78" y1="660" x2="973" y2="660"/>
<line opacity="0.1" stroke="#000000" stroke-width="1" x1="78" y1="653" x2="973" y2="653"/>
<line opacity="0.1" stroke="#000000" stroke-width="1" x1="78" y1="647" x2="973" y2="647"/>
<line opacity="0.1" stroke="#000000" stroke-width="1" x1="78" y1="640" x2="973" y2="640"/>
<line opacity="0.1" stroke="#000000" stroke-width="1" x1="78" y1="634" x2="973" y2="634"/>
<line opacity="0.1" stroke="#000000" stroke-width="1" x1="78" y1="627" x2="973" y2="627"/>
<line opacity="0.1" stroke="#000000" stroke-width="1" x1="78" y1="621" x2="973" y2="621"/>
<line opacity="0.1" stroke="#000000" stroke-width="1" x1="78" y1="614" x2="973" y2="614"/>
<line opacity="0.1" stroke="#000000" stroke-width="1" x1="78" y1="608" x2="973" y2="608"/>
<line opacity="0.1" stroke="#000000" stroke-width="1" x1="78" y1="601" x2="973" y2="601"/>
<line opacity="0.1" stroke="#000000" stroke-width="1" x1="78" y1="595" x2="973" y2="595"/>
<line opacity="0.1" stroke="#000000" stroke-width="1" x1="78" y1="588" x2="973" y2="588"/>
<line opacity="0.1" stroke="#000000" stroke-width="1" x1="78" y1="582" x2="973" y2="582"/>
<line opacity="0.1" stroke="#000000" stroke-width="1" x1="78" y1="575" x2="973" y2="575"/>
<line opacity="0.1" stroke="#000000" stroke-width="1" x1="78" y1="569" x2="973" y2="569"/>
<line opacity="0.1" stroke="#000000" stroke-width="1" x1="78" y1="562" x2="973" y2="562"/>
<line opacity="0.1" stroke="#000000" stroke-width="1" x1="78" y1="556" x2="973" y2="556"/>
<line opacity="0.1" stroke="#000000" stroke-width="1" x1="78" y1="549" x2="973" y2="549"/>
<line opacity="0.1" stroke="#000000" stroke-width="1" x1="78" y1="543" x2="973" y2="543"/>
<line opacity="0.1" stroke="#000000" stroke-width="1" x1="78" y1="536" x2="973" y2="536"/>
<line opacity="0.1" stroke="#000000" stroke-width="1" x1="78" y1="530" x2="973" y2="530"/>
<line opacity="0.1" stroke="#000000" stroke-width="1" x1="78" y1="523" x2="973" y2="523"/>
<line opacity="0.1" stroke="#000000" stroke-width="1" x1="78" y1="517" x2="973" y2="517"/>
<line opacity="0.1" stroke="#000000" stroke-width="1" x1="78" y1="510" x2="973" y2="510"/>
<line opacity="0.1" stroke="#000000" stroke-width="1" x1="78" y1="504" x2="973" y2="504"/>
<line opacity="0.1" stroke="#000000" stroke-width="1" x1="78" y1="497" x2="973" y2="497"/>
<line opacity="0.1" stroke="#000000" stroke-width="1" x1="78" y1="491" x2="973" y2="491"/>
<line opacity="0.1" stroke="#000000" stroke-width="1" x1="78" y1="484" x2="973" y2="484"/>
<line opacity="0.1" stroke="#000000" stroke-width="1" x1="78" y1="478" x2="973" y2="478"/>
<line opacity="0.1" stroke="#000000" stroke-width="1" x1="78" y1="471" x2="973" y2="471"/>
<line opacity="0.1" stroke="#000000" stroke-width="1" x1="78" y1="465" x2="973" y2="465"/>
<line opacity="0.1" stroke="#000000" stroke-width="1" x1="78" y1="458" x2="973" y2="458"/>
<line opacity="0.1" stroke="#000000" stroke-width="1" x1="78" y1="452" x2="973" y2="452"/>
<line opacity="0.1" stroke="#000000" stroke-width="1" x1="78" y1="445" x2="973" y2="445"/>
<line opacity="0.1" stroke="#000000" stroke-width="1" x1="78" y1="439" x2="973" y2="439"/>
<line opacity="0.1" stroke="#000000" stroke-width="1" x1="78" y1="432" x2="973" y2="432"/>
<line opacity="0.1" stroke="#000000" stroke-width="1" x1="78" y1="426" x2="973" y2="426"/>
<line opacity="0.1" stroke="#000000" stroke-width="1" x1="78" y1="419" x2="973" y2="419"/>
<line opacity="0.1" stroke="#000000" stroke-width="1" x1="78" y1="413" x2="973" y2="413"/>
<line opacity="0.1" stroke="#000000" stroke-width="1" x1="78" y1="406" x2="973" y2="406"/>
<line opacity="0.1" stroke="#000000" stroke-width="1" x1="78" y1="400" x2="973" y2="400"/>
<line opacity="0.1" stroke="#000000" stroke-width="1" x1="78" y1="393" x2="973" y2="393"/>
<line opacity="0.1" stroke="#000000" stroke-width="1" x1="78" y1="387" x2="973" y2="387"/>
<line opacity="0.1" stroke="#000000" stroke-width="1" x1="78" y1="380" x2="973" y2="380"/>
<line opacity="0.1" stroke="#000000" stroke-width="1" x1="78" y1="374" x2="973" y2="374"/>
<line opacity="0.1" stroke="#000000" stroke-width="1" x1="78" y1="367" x2="973" y2="367"/>
<line opacity="0.1" stroke="#000000" stroke-width="1" x1="78" y1="361" x2="973" y2="361"/>
<line opacity="0.1" stroke="#000000" stroke-width="1" x1="78" y1="354" x2="973" y2="354"/>
<line opacity="0.1" stroke="#000000" stroke-width="1" x1="78" y1="348" x2="973" y2="348"/>
<line opacity="0.1" stroke="#000000" stroke-width="1" x1="78" y1="341" x2="973" y2="341"/>
<line opacity="0.1" stroke="#000000" stroke-width="1" x1="78" y1="335" x2="973" y2="335"/>
<line opacity="0.1" stroke="#000000" stroke-width="1" x1="78" y1="328" x2="973" y2="328"/>
<line opacity="0.1" stroke="#000000" stroke-width="1" x1="78" y1="322" x2="973" y2="322"/>
<line opacity="0.1" stroke="#000000" stroke-width="1" x1="78" y1="315" x2="973" y2="315"/>
<line opacity="0.1" stroke="#000000" stroke-width="1" x1="78" y1="309" x2="973" y2="309"/>
<line opacity="0.1" stroke="#000000" stroke-width="1" x1="78" y1="302" x2="973" y2="302"/>
<line opacity="0.1" stroke="#000000" stroke-width="1" x1="78" y1="296" x2="973" y2="296"/>
<line opacity="0.1" stroke="#000000" stroke-width="1" x1="78" y1="289" x2="973" y2="289"/>
<line opacity="0.1" stroke="#000000" stroke-width="1" x1="78" y1="283" x2="973" y2="283"/>
<line opacity="0.1" stroke="#000000" stroke-width="1" x1="78" y1="276" x2="973" y2="276"/>
<line opacity="0.1" stroke="#000000" stroke-width="1" x1="78" y1="270" x2="973" y2="270"/>
<line opacity="0.1" stroke="#000000" stroke-width="1" x1="78" y1="263" x2="973" y2="263"/>
<line opacity="0.1" stroke="#000000" stroke-width="1" x1="78" y1="257" x2="973" y2="257"/>
<line opacity="0.1" stroke="#000000" stroke-width="1" x1="78" y1="250" x2="973" y2="250"/>
<line opacity="0.1" stroke="#000000" stroke-width="1" x1="78" y1="244" x2="973" y2="244"/>
<line opacity="0.1" stroke="#000000" stroke-width="1" x1="78" y1="237" x2="973" y2="237"/>
<line opacity="0.1" stroke="#000000" stroke-width="1" x1="78" y1="231" x2="973" y2="231"/>
<line opacity="0.1" stroke="#000000" stroke-width="1" x1="78" y1="224" x2="973" y2="224"/>
<line opacity="0.1" stroke="#000000" stroke-width="1" x1="78" y1="218" x2="973" y2="218"/>
<line opacity="0.1" stroke="#000000" stroke-width="1" x1="78" y1="211" x2="973" y2="211"/>
<line opacity="0.1" stroke="#000000" stroke-width="1" x1="78" y1="205" x2="973" y2="205"/>
<line opacity="0.1" stroke="#000000" stroke-width="1" x1="78" y1="198" x2="973" y2="198"/>
<line opacity="0.1" stroke="#000000" stroke-width="1" x1="78" y1="192" x2="973" y2="192"/>
<line opacity="0.1" stroke="#000000" stroke-width="1" x1="78" y1="185" x2="973" y2="185"/>
<line opacity="0.1" stroke="#000000" stroke-width="1" x1="78" y1="179" x2="973" y2="179"/>
<line opacity="0.1" stroke="#000000" stroke-width="1" x1="78" y1="172" x2="973" y2="172"/>
<line opacity="0.1" stroke="#000000" stroke-width="1" x1="78" y1="166" x2="973" y2="166"/>
<line opacity="0.1" stroke="#000000" stroke-width="1" x1="78" y1="159" x2="973" y2="159"/>
<line opacity="0.1" stroke="#000000" stroke-width="1" x1="78" y1="153" x2="973" y2="153"/>
<line opacity="0.1" stroke="#000000" stroke-width="1" x1="78" y1="146" x2="973" y2="146"/>
<line opacity="0.1" stroke="#000000" stroke-width="1" x1="78" y1="140" x2="973" y2="140"/>
<line opacity="0.1" stroke="#000000" stroke-width="1" x1="78" y1="133" x2="973" y2="133"/>
<line opacity="0.1" stroke="#000000" stroke-width="1" x1="78" y1="127" x2="973" y2="127"/>
<line opacity="0.1" stroke="#000000" stroke-width="1" x1="78" y1="120" x2="973" y2="120"/>
<line opacity="0.1" stroke="#000000" stroke-width="1" x1="78" y1="114" x2="973" y2="114"/>
<line opacity="0.1" stroke="#000000" stroke-width="1" x1="78" y1="107" x2="973" y2="107"/>
<line opacity="0.1" stroke="#000000" stroke-width="1" x1="78" y1="101" x2="973" y2="101"/>
<line opacity="0.1" stroke="#000000" stroke-width="1" x1="78" y1="94" x2="973" y2="94"/>
<line opacity="0.1" stroke="#000000" stroke-width="1" x1="78" y1="88" x2="973" y2="88"/>
<line opacity="0.1" stroke="#000000" stroke-width="1" x1="78" y1="81" x2="973" y2="81"/>
<line opacity="0.1" stroke="#000000" stroke-width="1" x1="78" y1="75" x2="973" y2="75"/>
<line opacity="0.1" stroke="#000000" stroke-width="1" x1="78" y1="68" x2="973" y2="68"/>
<text x="8" y="384" dy="0.76em" text-anchor="middle" font-family="sans-serif" font-size="9.67741935483871" opacity="1" fill="#000000" transform="rotate(270, 8, 384)">
Memory usage
</text>
<text x="526" y="760" dy="-0.5ex" text-anchor="middle" font-family="sans-serif" font-size="9.67741935483871" opacity="1" fill="#000000">
Time
</text>
<line opacity="0.2" stroke="#000000" stroke-width="1" x1="105" y1="699" x2="105" y2="68"/>
<line opacity="0.2" stroke="#000000" stroke-width="1" x1="211" y1="699" x2="211" y2="68"/>
<line opacity="0.2" stroke="#000000" stroke-width="1" x1="316" y1="699" x2="316" y2="68"/>
<line opacity="0.2" stroke="#000000" stroke-width="1" x1="422" y1="699" x2="422" y2="68"/>
<line opacity="0.2" stroke="#000000" stroke-width="1" x1="528" y1="699" x2="528" y2="68"/>
<line opacity="0.2" stroke="#000000" stroke-width="1" x1="634" y1="699" x2="634" y2="68"/>
<line opacity="0.2" stroke="#000000" stroke-width="1" x1="739" y1="699" x2="739" y2="68"/>
<line opacity="0.2" stroke="#000000" stroke-width="1" x1="845" y1="699" x2="845" y2="68"/>
<line opacity="0.2" stroke="#000000" stroke-width="1" x1="951" y1="699" x2="951" y2="68"/>
<line opacity="0.2" stroke="#000000" stroke-width="1" x1="78" y1="699" x2="973" y2="699"/>
<line opacity="0.2" stroke="#000000" stroke-width="1" x1="78" y1="634" x2="973" y2="634"/>
<line opacity="0.2" stroke="#000000" stroke-width="1" x1="78" y1="569" x2="973" y2="569"/>
<line opacity="0.2" stroke="#000000" stroke-width="1" x1="78" y1="504" x2="973" y2="504"/>
<line opacity="0.2" stroke="#000000" stroke-width="1" x1="78" y1="439" x2="973" y2="439"/>
<line opacity="0.2" stroke="#000000" stroke-width="1" x1="78" y1="374" x2="973" y2="374"/>
<line opacity="0.2" stroke="#000000" stroke-width="1" x1="78" y1="309" x2="973" y2="309"/>
<line opacity="0.2" stroke="#000000" stroke-width="1" x1="78" y1="244" x2="973" y2="244"/>
<line opacity="0.2" stroke="#000000" stroke-width="1" x1="78" y1="179" x2="973" y2="179"/>
<line opacity="0.2" stroke="#000000" stroke-width="1" x1="78" y1="114" x2="973" y2="114"/>
<polyline fill="none" opacity="1" stroke="#000000" stroke-width="1" points="77,68 77,699 "/>
<text x="68" y="699" dy="0.5ex" text-anchor="end" font-family="sans-serif" font-size="9.67741935483871" opacity="1" fill="#000000">
0 MB
</text>
<polyline fill="none" opacity="1" stroke="#000000" stroke-width="1" points="72,699 77,699 "/>
<text x="68" y="634" dy="0.5ex" text-anchor="end" font-family="sans-serif" font-size="9.67741935483871" opacity="1" fill="#000000">
19 MB
</text>
<polyline fill="none" opacity="1" stroke="#000000" stroke-width="1" points="72,634 77,634 "/>
<text x="68" y="569" dy="0.5ex" text-anchor="end" font-family="sans-serif" font-size="9.67741935483871" opacity="1" fill="#000000">
38 MB
</text>
<polyline fill="none" opacity="1" stroke="#000000" stroke-width="1" points="72,569 77,569 "/>
<text x="68" y="504" dy="0.5ex" text-anchor="end" font-family="sans-serif" font-size="9.67741935483871" opacity="1" fill="#000000">
57 MB
</text>
<polyline fill="none" opacity="1" stroke="#000000" stroke-width="1" points="72,504 77,504 "/>
<text x="68" y="439" dy="0.5ex" text-anchor="end" font-family="sans-serif" font-size="9.67741935483871" opacity="1" fill="#000000">
76 MB
</text>
<polyline fill="none" opacity="1" stroke="#000000" stroke-width="1" points="72,439 77,439 "/>
<text x="68" y="374" dy="0.5ex" text-anchor="end" font-family="sans-serif" font-size="9.67741935483871" opacity="1" fill="#000000">
95 MB
</text>
<polyline fill="none" opacity="1" stroke="#000000" stroke-width="1" points="72,374 77,374 "/>
<text x="68" y="309" dy="0.5ex" text-anchor="end" font-family="sans-serif" font-size="9.67741935483871" opacity="1" fill="#000000">
114 MB
</text>
<polyline fill="none" opacity="1" stroke="#000000" stroke-width="1" points="72,309 77,309 "/>
<text x="68" y="244" dy="0.5ex" text-anchor="end" font-family="sans-serif" font-size="9.67741935483871" opacity="1" fill="#000000">
133 MB
</text>
<polyline fill="none" opacity="1" stroke="#000000" stroke-width="1" points="72,244 77,244 "/>
<text x="68" y="179" dy="0.5ex" text-anchor="end" font-family="sans-serif" font-size="9.67741935483871" opacity="1" fill="#000000">
152 MB
</text>
<polyline fill="none" opacity="1" stroke="#000000" stroke-width="1" points="72,179 77,179 "/>
<text x="68" y="114" dy="0.5ex" text-anchor="end" font-family="sans-serif" font-size="9.67741935483871" opacity="1" fill="#000000">
171 MB
</text>
<polyline fill="none" opacity="1" stroke="#000000" stroke-width="1" points="72,114 77,114 "/>
<polyline fill="none" opacity="1" stroke="#000000" stroke-width="1" points="78,700 973,700 "/>
<text x="105" y="710" dy="0.76em" text-anchor="middle" font-family="sans-serif" font-size="9.67741935483871" opacity="1" fill="#000000">
07 20:33:20
</text>
<polyline fill="none" opacity="1" stroke="#000000" stroke-width="1" points="105,700 105,705 "/>
<text x="211" y="710" dy="0.76em" text-anchor="middle" font-family="sans-serif" font-size="9.67741935483871" opacity="1" fill="#000000">
08 10:26:40
</text>
<polyline fill="none" opacity="1" stroke="#000000" stroke-width="1" points="211,700 211,705 "/>
<text x="316" y="710" dy="0.76em" text-anchor="middle" font-family="sans-serif" font-size="9.67741935483871" opacity="1" fill="#000000">
09 00:20:00
</text>
<polyline fill="none" opacity="1" stroke="#000000" stroke-width="1" points="316,700 316,705 "/>
<text x="422" y="710" dy="0.76em" text-anchor="middle" font-family="sans-serif" font-size="9.67741935483871" opacity="1" fill="#000000">
09 14:13:20
</text>
<polyline fill="none" opacity="1" stroke="#000000" stroke-width="1" points="422,700 422,705 "/>
<text x="528" y="710" dy="0.76em" text-anchor="middle" font-family="sans-serif" font-size="9.67741935483871" opacity="1" fill="#000000">
10 04:06:40
</text>
<polyline fill="none" opacity="1" stroke="#000000" stroke-width="1" points="528,700 528,705 "/>
<text x="634" y="710" dy="0.76em" text-anchor="middle" font-family="sans-serif" font-size="9.67741935483871" opacity="1" fill="#000000">
10 18:00:00
</text>
<polyline fill="none" opacity="1" stroke="#000000" stroke-width="1" points="634,700 634,705 "/>
<text x="739" y="710" dy="0.76em" text-anchor="middle" font-family="sans-serif" font-size="9.67741935483871" opacity="1" fill="#000000">
11 07:53:20
</text>
<polyline fill="none" opacity="1" stroke="#000000" stroke-width="1" points="739,700 739,705 "/>
<text x="845" y="710" dy="0.76em" text-anchor="middle" font-family="sans-serif" font-size="9.67741935483871" opacity="1" fill="#000000">
11 21:46:40
</text>
<polyline fill="none" opacity="1" stroke="#000000" stroke-width="1" points="845,700 845,705 "/>
<text x="951" y="710" dy="0.76em" text-anchor="middle" font-family="sans-serif" font-size="9.67741935483871" opacity="1" fill="#000000">
12 11:40:00
</text>
<polyline fill="none" opacity="1" stroke="#000000" stroke-width="1" points="951,700 951,705 "/>
<polyline fill="none" opacity="1" stroke="#000000" stroke-width="1" points="78,67 974,67 "/>
<text x="105" y="58" dy="-0.5ex" text-anchor="middle" font-family="sans-serif" font-size="9.67741935483871" opacity="1" fill="#000000">
+03:35:44
</text>
<polyline fill="none" opacity="1" stroke="#000000" stroke-width="1" points="105,62 105,67 "/>
<text x="211" y="58" dy="-0.5ex" text-anchor="middle" font-family="sans-serif" font-size="9.67741935483871" opacity="1" fill="#000000">
+17:29:04
</text>
<polyline fill="none" opacity="1" stroke="#000000" stroke-width="1" points="211,62 211,67 "/>
<text x="317" y="58" dy="-0.5ex" text-anchor="middle" font-family="sans-serif" font-size="9.67741935483871" opacity="1" fill="#000000">
+31:22:24
</text>
<polyline fill="none" opacity="1" stroke="#000000" stroke-width="1" points="317,62 317,67 "/>
<text x="423" y="58" dy="-0.5ex" text-anchor="middle" font-family="sans-serif" font-size="9.67741935483871" opacity="1" fill="#000000">
+45:15:44
</text>
<polyline fill="none" opacity="1" stroke="#000000" stroke-width="1" points="423,62 423,67 "/>
<text x="528" y="58" dy="-0.5ex" text-anchor="middle" font-family="sans-serif" font-size="9.67741935483871" opacity="1" fill="#000000">
+59:09:04
</text>
<polyline fill="none" opacity="1" stroke="#000000" stroke-width="1" points="528,62 528,67 "/>
<text x="634" y="58" dy="-0.5ex" text-anchor="middle" font-family="sans-serif" font-size="9.67741935483871" opacity="1" fill="#000000">
+73:02:24
</text>
<polyline fill="none" opacity="1" stroke="#000000" stroke-width="1" points="634,62 634,67 "/>
<text x="740" y="58" dy="-0.5ex" text-anchor="middle" font-family="sans-serif" font-size="9.67741935483871" opacity="1" fill="#000000">
+86:55:44
</text>
<polyline fill="none" opacity="1" stroke="#000000" stroke-width="1" points="740,62 740,67 "/>
<text x="846" y="58" dy="-0.5ex" text-anchor="middle" font-family="sans-serif" font-size="9.67741935483871" opacity="1" fill="#000000">
+100:49:04
</text>
<polyline fill="none" opacity="1" stroke="#000000" stroke-width="1" points="846,62 846,67 "/>
<text x="952" y="58" dy="-0.5ex" text-anchor="middle" font-family="sans-serif" font-size="9.67741935483871" opacity="1" fill="#000000">
+114:42:24
</text>
<polyline fill="none" opacity="1" stroke="#000000" stroke-width="1" points="952,62 952,67 "/>
<rect x="83" y="73" width="99" height="45" opacity="0.75" fill="#FFFFFF" stroke="none"/>
<rect x="83" y="73" width="99" height="45" opacity="1" fill="none" stroke="#000000"/>
<text x="123" y="83" dy="0.76em" text-anchor="start" font-family="sans-serif" font-size="9.67741935483871" opacity="1" fill="#000000">
Temporary
</text>
<text x="123" y="98" dy="0.76em" text-anchor="start" font-family="sans-serif" font-size="9.67741935483871" opacity="1" fill="#000000">
Leaked
</text>
<rect x="93" y="83" width="10" height="10" opacity="1" fill="#3CB44B" stroke="none"/>
<rect x="93" y="98" width="10" height="10" opacity="1" fill="#E6194B" stroke="none"/>
</svg>
