<svg width="1024" height="768" viewBox="0 0 1024 768" xmlns="http://www.w3.org/2000/svg">
<rect x="0" y="0" width="1024" height="768" opacity="1" fill="#FFFFFF" stroke="none"/>
<polygon opacity="1" fill="#3CB44B" points="78,697 79,696 80,695 80,694 81,692 82,691 83,690 84,689 85,688 86,687 87,685 88,684 88,683 89,682 90,681 91,680 92,678 93,677 94,676 95,675 96,674 97,673 97,672 98,670 99,669 100,668 101,667 102,666 103,665 104,664 105,662 105,661 106,660 107,659 108,658 109,656 110,655 111,654 112,653 113,652 114,650 114,649 115,648 116,647 117,646 118,645 119,643 120,642 121,641 122,640 122,639 123,637 124,636 125,635 126,634 127,633 128,631 129,630 130,629 131,628 131,627 132,626 133,624 134,623 135,622 136,621 137,620 138,619 139,617 139,616 140,615 141,614 142,613 143,611 144,610 145,609 146,608 147,607 148,606 148,604 149,603 150,602 151,601 152,600 153,599 154,597 155,596 156,595 156,594 157,593 158,591 159,590 160,589 161,588 162,587 163,586 164,585 165,583 165,582 166,581 167,580 168,578 169,577 170,576 171,575 172,574 173,573 174,571 174,570 175,569 176,568 177,567 178,565 179,564 180,563 181,562 182,561 182,560 183,558 184,557 185,556 186,555 187,554 188,553 189,552 190,550 191,549 191,548 192,547 193,546 194,545 195,543 196,542 197,541 198,540 199,539 199,538 200,536 201,535 202,534 203,533 204,532 205,531 206,529 207,528 208,527 208,526 209,525 210,524 211,523 212,521 213,520 214,519 215,518 216,517 216,516 217,515 218,514 219,513 220,511 221,510 222,509 223,508 224,507 225,506 225,505 226,503 227,502 228,501 229,500 230,499 231,498 232,497 233,496 233,494 234,493 235,492 236,491 237,490 238,489 239,488 240,487 241,485 242,484 242,483 243,482 244,481 245,480 246,479 247,477 248,476 249,475 250,474 250,473 251,472 252,470 253,469 254,468 255,467 256,466 257,465 258,464 259,462 259,461 260,460 261,459 262,458 263,457 264,456 265,454 266,453 267,452 267,451 268,450 269,449 270,447 271,446 272,445 273,444 274,443 275,442 276,441 276,440 277,438 278,437 279,436 280,435 281,434 282,433 283,431 284,430 284,429 285,428 286,427 287,426 288,425 289,423 290,422 291,421 292,420 293,419 293,418 294,416 295,415 296,414 297,413 298,412 299,411 300,409 301,408 301,407 302,406 303,405 304,404 305,402 306,401 307,400 308,399 309,398 310,397 310,396 311,395 312,393 313,392 314,391 315,390 316,389 317,388 318,387 318,385 319,384 320,383 321,382 322,381 323,380 324,379 325,378 326,376 327,375 327,374 328,373 329,372 330,371 331,370 332,368 333,367 334,366 335,365 335,364 336,363 337,362 338,360 339,359 340,358 341,357 342,356 343,355 344,354 344,352 345,351 346,350 347,349 348,348 349,347 350,345 351,344 352,343 352,342 353,341 354,340 355,339 356,337 357,336 358,335 359,334 360,333 361,332 361,330 362,329 363,328 364,327 365,326 366,325 367,324 368,322 369,321 370,320 370,319 371,318 372,317 373,316 374,315 375,313 376,312 377,311 378,310 378,309 379,308 380,306 381,305 382,304 383,303 384,302 385,301 386,299 387,298 387,297 388,296 389,295 390,294 391,293 392,291 393,290 394,289 395,288 395,287 396,286 397,284 398,283 399,282 400,281 401,280 402,278 403,277 404,276 404,275 405,274 406,273 407,272 408,270 409,269 410,268 411,267 412,266 412,265 413,264 414,263 415,261 416,260 417,259 418,258 419,257 420,256 421,255 421,254 422,252 423,251 424,250 425,249 426,248 427,247 428,245 429,244 429,243 430,242 431,241 432,240 433,238 434,237 435,236 436,235 437,234 438,233 438,231 439,230 440,229 441,228 442,227 443,225 444,224 445,223 446,222 446,221 447,220 448,219 449,217 450,216 451,215 452,214 453,213 454,212 455,210 455,209 456,208 457,207 458,206 459,205 460,204 461,202 462,201 463,200 463,199 464,198 465,197 466,195 467,194 468,193 469,192 470,191 471,190 472,188 472,187 473,186 474,185 475,184 476,183 477,182 478,180 479,179 480,178 480,177 481,176 482,175 483,174 484,172 485,171 486,170 487,169 488,168 489,167 489,165 490,164 491,163 492,162 493,161 494,160 495,158 496,157 497,156 497,155 498,154 499,153 500,152 501,150 502,149 503,148 504,147 505,146 506,145 506,144 507,142 508,141 509,140 510,139 511,138 512,137 513,136 514,134 514,133 515,132 516,131 517,130 518,129 519,127 520,126 521,125 522,124 523,123 523,122 524,120 525,119 526,118 527,117 528,116 529,115 530,114 531,113 531,111 532,110 533,109 534,108 535,107 536,106 537,105 538,104 539,102 540,101 540,100 541,99 542,98 543,97 544,96 545,95 546,93 547,92 548,91 548,90 549,89 550,88 551,87 552,86 553,84 554,83 555,82 556,81 557,80 557,79 558,78 559,76 560,75 561,74 562,73 563,72 564,71 565,70 566,68 566,68 567,68 568,68 569,68 570,68 571,68 572,68 573,68 574,68 574,68 575,68 576,68 577,68 578,68 579,68 580,68 581,68 582,68 583,68 583,68 584,68 585,68 586,68 587,68 588,68 589,68 590,68 591,68 591,68 592,68 593,68 594,68 595,68 596,68 597,68 598,68 599,68 600,68 600,68 601,68 602,68 603,68 604,68 605,68 606,68 607,68 608,68 608,68 609,68 610,68 611,68 612,68 613,68 614,68 615,68 616,68 617,68 617,68 618,68 619,68 620,68 621,68 622,68 623,68 624,68 625,68 625,68 626,68 627,68 628,68 629,68 630,68 631,68 632,68 633,68 634,68 634,68 635,68 636,68 637,68 638,68 639,68 640,68 641,68 642,68 642,68 643,68 644,68 645,68 646,68 647,68 648,68 649,68 650,68 651,68 651,68 652,68 653,68 654,68 655,68 656,68 657,68 658,68 659,68 659,68 660,68 661,68 662,68 663,68 664,68 665,68 666,68 667,68 668,68 668,68 669,68 670,68 671,68 672,68 673,68 674,68 675,68 676,68 676,68 677,68 678,68 679,68 680,68 681,68 682,68 683,68 684,68 685,68 685,68 686,68 687,68 688,68 689,68 690,68 691,68 692,68 693,68 693,68 694,68 695,68 696,68 697,68 698,68 699,68 700,68 701,68 702,68 702,68 703,68 704,68 705,68 706,68 707,68 708,68 709,68 710,68 710,68 711,68 712,68 713,68 714,69 715,68 716,68 717,68 718,68 719,68 719,68 720,68 721,68 722,68 723,68 724,68 725,68 726,68 727,68 727,68 728,68 729,68 730,68 731,68 732,68 733,68 734,68 735,68 736,68 736,68 737,68 738,68 739,68 740,68 741,68 742,68 743,68 744,68 744,68 745,68 746,68 747,68 748,68 749,68 750,68 751,68 752,68 753,68 753,68 754,68 755,68 756,68 757,68 758,68 759,68 760,68 761,68 761,68 762,68 763,68 764,68 765,68 766,68 767,68 768,68 769,68 770,68 770,68 771,68 772,68 773,68 774,69 775,69 776,68 777,69 778,68 779,68 779,68 780,68 781,68 782,68 783,68 784,68 785,69 786,69 787,69 787,69 788,69 789,69 790,69 791,69 792,69 793,69 794,69 795,69 796,69 796,69 797,69 798,69 799,69 800,69 801,69 802,69 803,69 804,69 804,69 805,69 806,69 807,69 808,69 809,69 810,69 811,69 812,69 813,69 813,69 814,69 815,69 816,69 817,69 818,69 819,69 820,69 821,69 821,69 822,69 823,70 824,69 825,69 826,69 827,69 828,69 829,69 830,69 830,69 831,69 832,69 833,69 834,69 835,69 836,69 837,69 838,69 838,69 839,69 840,69 841,69 842,69 843,69 844,69 845,69 846,69 847,69 847,69 848,69 849,69 850,69 851,69 852,69 853,69 854,69 855,69 855,69 856,69 857,69 858,69 859,69 860,69 861,69 862,69 863,69 864,69 864,69 865,69 866,70 867,69 868,69 869,70 870,69 871,69 872,70 872,70 873,70 874,69 875,69 876,69 877,69 878,70 879,70 880,69 881,69 881,70 882,70 883,70 884,70 885,70 886,70 887,70 888,70 889,70 889,70 890,70 891,70 892,69 893,70 894,70 895,70 896,70 897,70 898,70 898,70 899,70 900,70 901,70 902,70 903,70 904,70 905,70 906,70 906,70 907,69 908,69 909,70 910,70 911,70 912,70 913,70 914,70 915,70 915,70 916,70 917,70 918,69 919,69 920,69 921,69 922,69 923,69 923,69 924,69 925,69 926,69 927,69 928,69 929,69 930,69 931,69 932,69 932,69 933,69 934,70 935,69 936,69 937,69 938,69 939,69 940,69 940,69 941,69 942,69 943,69 944,69 945,69 946,69 947,69 948,69 949,69 949,70 950,70 951,70 952,70 953,70 954,70 955,70 956,70 957,69 957,69 958,69 959,69 960,70 961,69 962,69 963,70 964,70 965,70 966,70 966,69 967,70 968,70 969,70 970,70 971,70 972,70 972,71 973,71 973,699 78,699 "/>
<polyline fill="none" opacity="1" stroke="#3CB44B" stroke-width="1" points="78,697 79,696 80,695 80,694 81,692 82,691 83,690 84,689 85,688 86,687 87,685 88,684 88,683 89,682 90,681 91,680 92,678 93,677 94,676 95,675 96,674 97,673 97,672 98,670 99,669 100,668 101,667 102,666 103,665 104,664 105,662 105,661 106,660 107,659 108,658 109,656 110,655 111,654 112,653 113,652 114,650 114,649 115,648 116,647 117,646 118,645 119,643 120,642 121,641 122,640 122,639 123,637 124,636 125,635 126,634 127,633 128,631 129,630 130,629 131,628 131,627 132,626 133,624 134,623 135,622 136,621 137,620 138,619 139,617 139,616 140,615 141,614 142,613 143,611 144,610 145,609 146,608 147,607 148,606 148,604 149,603 150,602 151,601 152,600 153,599 154,597 155,596 156,595 156,594 157,593 158,591 159,590 160,589 161,588 162,587 163,586 164,585 165,583 165,582 166,581 167,580 168,578 169,577 170,576 171,575 172,574 173,573 174,571 174,570 175,569 176,568 177,567 178,565 179,564 180,563 181,562 182,561 182,560 183,558 184,557 185,556 186,555 187,554 188,553 189,552 190,550 191,549 191,548 192,547 193,546 194,545 195,543 196,542 197,541 198,540 199,539 199,538 200,536 201,535 202,534 203,533 204,532 205,531 206,529 207,528 208,527 208,526 209,525 210,524 211,523 212,521 213,520 214,519 215,518 216,517 216,516 217,515 218,514 219,513 220,511 221,510 222,509 223,508 224,507 225,506 225,505 226,503 227,502 228,501 229,500 230,499 231,498 232,497 233,496 233,494 234,493 235,492 236,491 237,490 238,489 239,488 240,487 241,485 242,484 242,483 243,482 244,481 245,480 246,479 247,477 248,476 249,475 250,474 250,473 251,472 252,470 253,469 254,468 255,467 256,466 257,465 258,464 259,462 259,461 260,460 261,459 262,458 263,457 264,456 265,454 266,453 267,452 267,451 268,450 269,449 270,447 271,446 272,445 273,444 274,443 275,442 276,441 276,440 277,438 278,437 279,436 280,435 281,434 282,433 283,431 284,430 284,429 285,428 286,427 287,426 288,425 289,423 290,422 291,421 292,420 293,419 293,418 294,416 295,415 296,414 297,413 298,412 299,411 300,409 301,408 301,407 302,406 303,405 304,404 305,402 306,401 307,400 308,399 309,398 310,397 310,396 311,395 312,393 313,392 314,391 315,390 316,389 317,388 318,387 318,385 319,384 320,383 321,382 322,381 323,380 324,379 325,378 326,376 327,375 327,374 328,373 329,372 330,371 331,370 332,368 333,367 334,366 335,365 335,364 336,363 337,362 338,360 339,359 340,358 341,357 342,356 343,355 344,354 344,352 345,351 346,350 347,349 348,348 349,347 350,345 351,344 352,343 352,342 353,341 354,340 355,339 356,337 357,336 358,335 359,334 360,333 361,332 361,330 362,329 363,328 364,327 365,326 366,325 367,324 368,322 369,321 370,320 370,319 371,318 372,317 373,316 374,315 375,313 376,312 377,311 378,310 378,309 379,308 380,306 381,305 382,304 383,303 384,302 385,301 386,299 387,298 387,297 388,296 389,295 390,294 391,293 392,291 393,290 394,289 395,288 395,287 396,286 397,284 398,283 399,282 400,281 401,280 402,278 403,277 404,276 404,275 405,274 406,273 407,272 408,270 409,269 410,268 411,267 412,266 412,265 413,264 414,263 415,261 416,260 417,259 418,258 419,257 420,256 421,255 421,254 422,252 423,251 424,250 425,249 426,248 427,247 428,245 429,244 429,243 430,242 431,241 432,240 433,238 434,237 435,236 436,235 437,234 438,233 438,231 439,230 440,229 441,228 442,227 443,225 444,224 445,223 446,222 446,221 447,220 448,219 449,217 450,216 451,215 452,214 453,213 454,212 455,210 455,209 456,208 457,207 458,206 459,205 460,204 461,202 462,201 463,200 463,199 464,198 465,197 466,195 467,194 468,193 469,192 470,191 471,190 472,188 472,187 473,186 474,185 475,184 476,183 477,182 478,180 479,179 480,178 480,177 481,176 482,175 483,174 484,172 485,171 486,170 487,169 488,168 489,167 489,165 490,164 491,163 492,162 493,161 494,160 495,158 496,157 497,156 497,155 498,154 499,153 500,152 501,150 502,149 503,148 504,147 505,146 506,145 506,144 507,142 508,141 509,140 510,139 511,138 512,137 513,136 514,134 514,133 515,132 516,131 517,130 518,129 519,127 520,126 521,125 522,124 523,123 523,122 524,120 525,119 526,118 527,117 528,116 529,115 530,114 531,113 531,111 532,110 533,109 534,108 535,107 536,106 537,105 538,104 539,102 540,101 540,100 541,99 542,98 543,97 544,96 545,95 546,93 547,92 548,91 548,90 549,89 550,88 551,87 552,86 553,84 554,83 555,82 556,81 557,80 557,79 558,78 559,76 560,75 561,74 562,73 563,72 564,71 565,70 566,68 566,68 567,68 568,68 569,68 570,68 571,68 572,68 573,68 574,68 574,68 575,68 576,68 577,68 578,68 579,68 580,68 581,68 582,68 583,68 583,68 584,68 585,68 586,68 587,68 588,68 589,68 590,68 591,68 591,68 592,68 593,68 594,68 595,68 596,68 597,68 598,68 599,68 600,68 600,68 601,68 602,68 603,68 604,68 605,68 606,68 607,68 608,68 608,68 609,68 610,68 611,68 612,68 613,68 614,68 615,68 616,68 617,68 617,68 618,68 619,68 620,68 621,68 622,68 623,68 624,68 625,68 625,68 626,68 627,68 628,68 629,68 630,68 631,68 632,68 633,68 634,68 634,68 635,68 636,68 637,68 638,68 639,68 640,68 641,68 642,68 642,68 643,68 644,68 645,68 646,68 647,68 648,68 649,68 650,68 651,68 651,68 652,68 653,68 654,68 655,68 656,68 657,68 658,68 659,68 659,68 660,68 661,68 662,68 663,68 664,68 665,68 666,68 667,68 668,68 668,68 669,68 670,68 671,68 672,68 673,68 674,68 675,68 676,68 676,68 677,68 678,68 679,68 680,68 681,68 682,68 683,68 684,68 685,68 685,68 686,68 687,68 688,68 689,68 690,68 691,68 692,68 693,68 693,68 694,68 695,68 696,68 697,68 698,68 699,68 700,68 701,68 702,68 702,68 703,68 704,68 705,68 706,68 707,68 708,68 709,68 710,68 710,68 711,68 712,68 713,68 714,69 715,68 716,68 717,68 718,68 719,68 719,68 720,68 721,68 722,68 723,68 724,68 725,68 726,68 727,68 727,68 728,68 729,68 730,68 731,68 732,68 733,68 734,68 735,68 736,68 736,68 737,68 738,68 739,68 740,68 741,68 742,68 743,68 744,68 744,68 745,68 746,68 747,68 748,68 749,68 750,68 751,68 752,68 753,68 753,68 754,68 755,68 756,68 757,68 758,68 759,68 760,68 761,68 761,68 762,68 763,68 764,68 765,68 766,68 767,68 768,68 769,68 770,68 770,68 771,68 772,68 773,68 774,69 775,69 776,68 777,69 778,68 779,68 779,68 780,68 781,68 782,68 783,68 784,68 785,69 786,69 787,69 787,69 788,69 789,69 790,69 791,69 792,69 793,69 794,69 795,69 796,69 796,69 797,69 798,69 799,69 800,69 801,69 802,69 803,69 804,69 804,69 805,69 806,69 807,69 808,69 809,69 810,69 811,69 812,69 813,69 813,69 814,69 815,69 816,69 817,69 818,69 819,69 820,69 821,69 821,69 822,69 823,70 824,69 825,69 826,69 827,69 828,69 829,69 830,69 830,69 831,69 832,69 833,69 834,69 835,69 836,69 837,69 838,69 838,69 839,69 840,69 841,69 842,69 843,69 844,69 845,69 846,69 847,69 847,69 848,69 849,69 850,69 851,69 852,69 853,69 854,69 855,69 855,69 856,69 857,69 858,69 859,69 860,69 861,69 862,69 863,69 864,69 864,69 865,69 866,70 867,69 868,69 869,70 870,69 871,69 872,70 872,70 873,70 874,69 875,69 876,69 877,69 878,70 879,70 880,69 881,69 881,70 882,70 883,70 884,70 885,70 886,70 887,70 888,70 889,70 889,70 890,70 891,70 892,69 893,70 894,70 895,70 896,70 897,70 898,70 898,70 899,70 900,70 901,70 902,70 903,70 904,70 905,70 906,70 906,70 907,69 908,69 909,70 910,70 911,70 912,70 913,70 914,70 915,70 915,70 916,70 917,70 918,69 919,69 920,69 921,69 922,69 923,69 923,69 924,69 925,69 926,69 927,69 928,69 929,69 930,69 931,69 932,69 932,69 933,69 934,70 935,69 936,69 937,69 938,69 939,69 940,69 940,69 941,69 942,69 943,69 944,69 945,69 946,69 947,69 948,69 949,69 949,70 950,70 951,70 952,70 953,70 954,70 955,70 956,70 957,69 957,69 958,69 959,69 960,70 961,69 962,69 963,70 964,70 965,70 966,70 966,69 967,70 968,70 969,70 970,70 971,70 972,70 972,71 973,71 "/>
<polygon opacity="1" fill="#E6194B" points="78,699 79,699 80,699 80,699 81,699 82,699 83,699 84,699 85,699 86,699 87,699 88,699 88,699 89,699 90,699 91,699 92,699 93,699 94,699 95,699 96,699 97,699 97,699 98,699 99,699 100,699 101,699 102,699 103,699 104,699 105,699 105,699 106,699 107,699 108,699 109,699 110,699 111,699 112,699 113,699 114,699 114,699 115,699 116,699 117,699 118,699 119,699 120,699 121,699 122,699 122,699 123,699 124,699 125,699 126,699 127,699 128,699 129,699 130,699 131,699 131,699 132,699 133,699 134,699 135,699 136,699 137,699 138,699 139,699 139,699 140,699 141,699 142,699 143,699 144,699 145,699 146,699 147,699 148,699 148,699 149,699 150,699 151,699 152,699 153,699 154,699 155,699 156,699 156,699 157,699 158,699 159,699 160,699 161,699 162,699 163,699 164,699 165,699 165,699 166,699 167,699 168,699 169,699 170,699 171,699 172,699 173,699 174,699 174,699 175,699 176,699 177,699 178,699 179,699 180,699 181,699 182,699 182,699 183,699 184,699 185,699 186,699 187,699 188,699 189,699 190,699 191,699 191,699 192,699 193,699 194,699 195,699 196,699 197,699 198,699 199,699 199,699 200,699 201,699 202,699 203,699 204,699 205,699 206,699 207,699 208,699 208,699 209,699 210,699 211,699 212,699 213,699 214,699 215,699 216,699 216,699 217,699 218,699 219,699 220,699 221,699 222,699 223,699 224,699 225,699 225,699 226,699 227,699 228,699 229,699 230,699 231,699 232,699 233,699 233,699 234,699 235,699 236,699 237,699 238,699 239,699 240,699 241,699 242,699 242,699 243,699 244,699 245,699 246,699 247,699 248,699 249,699 250,699 250,699 251,699 252,699 253,699 254,699 255,699 256,699 257,699 258,699 259,699 259,699 260,699 261,699 262,699 263,699 264,699 265,699 266,699 267,699 267,699 268,699 269,699 270,699 271,699 272,699 273,699 274,699 275,699 276,699 276,699 277,699 278,699 279,699 280,699 281,699 282,699 283,699 284,699 284,699 285,699 286,699 287,699 288,699 289,699 290,699 291,699 292,699 293,699 293,699 294,699 295,699 296,699 297,699 298,699 299,699 300,699 301,699 301,699 302,699 303,699 304,699 305,699 306,699 307,699 308,699 309,699 310,699 310,699 311,699 312,699 313,699 314,699 315,699 316,699 317,699 318,699 318,699 319,699 320,699 321,699 322,699 323,699 324,699 325,699 326,699 327,699 327,699 328,699 329,699 330,699 331,699 332,699 333,699 334,699 335,699 335,699 336,699 337,699 338,699 339,699 340,699 341,699 342,699 343,699 344,699 344,699 345,699 346,699 347,699 348,699 349,699 350,699 351,699 352,699 352,699 353,699 354,699 355,699 356,699 357,699 358,699 359,699 360,699 361,699 361,699 362,699 363,699 364,699 365,699 366,699 367,699 368,699 369,699 370,699 370,699 371,699 372,699 373,699 374,699 375,699 376,699 377,699 378,699 378,699 379,699 380,699 381,699 382,699 383,699 384,699 385,699 386,699 387,699 387,699 388,699 389,699 390,699 391,699 392,699 393,699 394,699 395,699 395,699 396,699 397,699 398,699 399,699 400,699 401,699 402,699 403,699 404,699 404,699 405,699 406,699 407,699 408,699 409,699 410,699 411,699 412,699 412,699 413,699 414,699 415,699 416,699 417,699 418,699 419,699 420,699 421,699 421,699 422,699 423,699 424,699 425,699 426,699 427,699 428,699 429,699 429,699 430,699 431,699 432,699 433,699 434,699 435,699 436,699 437,699 438,699 438,699 439,699 440,699 441,699 442,699 443,699 444,699 445,699 446,699 446,699 447,699 448,699 449,699 450,699 451,699 452,699 453,699 454,699 455,699 455,699 456,699 457,699 458,699 459,699 460,699 461,699 462,699 463,699 463,699 464,699 465,699 466,699 467,699 468,699 469,699 470,699 471,698 472,698 472,698 473,698 474,698 475,698 476,698 477,698 478,698 479,698 480,698 480,698 481,698 482,698 483,698 484,698 485,698 486,697 487,696 488,695 489,694 489,692 490,691 491,690 492,689 493,688 494,687 495,685 496,684 497,683 497,682 498,681 499,680 500,679 501,677 502,676 503,675 504,674 505,673 506,672 506,670 507,669 508,668 509,667 510,666 511,665 512,664 513,662 514,661 514,660 515,659 516,658 517,657 518,656 519,654 520,653 521,652 522,651 523,650 523,649 524,647 525,646 526,645 527,644 528,643 529,642 530,641 531,639 531,638 532,637 533,636 534,635 535,634 536,633 537,632 538,631 539,629 540,628 540,627 541,626 542,625 543,624 544,623 545,621 546,620 547,619 548,618 548,617 549,616 550,615 551,614 552,612 553,611 554,610 555,609 556,608 557,607 557,606 558,604 559,603 560,602 561,601 562,600 563,599 564,598 565,596 566,595 566,594 567,593 568,592 569,591 570,590 571,588 572,587 573,586 574,585 574,584 575,583 576,581 577,580 578,579 579,578 580,577 581,576 582,574 583,573 583,572 584,571 585,570 586,569 587,568 588,566 589,565 590,564 591,563 591,562 592,560 593,559 594,558 595,557 596,556 597,555 598,554 599,553 600,551 600,550 601,549 602,548 603,547 604,546 605,545 606,543 607,542 608,541 608,540 609,539 610,538 611,537 612,535 613,534 614,533 615,532 616,531 617,530 617,529 618,527 619,526 620,525 621,524 622,523 623,522 624,521 625,519 625,518 626,517 627,516 628,515 629,514 630,513 631,511 632,510 633,509 634,508 634,507 635,506 636,505 637,504 638,502 639,501 640,500 641,499 642,498 642,497 643,496 644,494 645,493 646,492 647,491 648,490 649,489 650,487 651,486 651,485 652,484 653,483 654,482 655,481 656,479 657,478 658,477 659,476 659,475 660,474 661,473 662,471 663,470 664,469 665,468 666,467 667,466 668,465 668,463 669,462 670,461 671,460 672,459 673,458 674,457 675,455 676,454 676,453 677,452 678,451 679,450 680,449 681,447 682,446 683,445 684,444 685,443 685,442 686,441 687,439 688,438 689,437 690,436 691,435 692,434 693,433 693,431 694,430 695,429 696,428 697,427 698,426 699,424 700,423 701,422 702,421 702,420 703,419 704,418 705,416 706,415 707,414 708,413 709,412 710,411 710,409 711,408 712,407 713,406 714,405 715,404 716,402 717,401 718,400 719,399 719,398 720,396 721,395 722,394 723,393 724,392 725,391 726,389 727,388 727,387 728,386 729,385 730,384 731,383 732,381 733,380 734,379 735,378 736,377 736,376 737,375 738,374 739,372 740,371 741,370 742,369 743,368 744,367 744,365 745,364 746,363 747,362 748,361 749,360 750,359 751,357 752,356 753,355 753,354 754,353 755,352 756,351 757,350 758,348 759,347 760,346 761,345 761,344 762,343 763,341 764,340 765,339 766,338 767,337 768,336 769,335 770,333 770,332 771,331 772,330 773,329 774,328 775,326 776,325 777,324 778,323 779,322 779,321 780,319 781,318 782,317 783,316 784,315 785,314 786,312 787,311 787,310 788,309 789,308 790,307 791,306 792,304 793,303 794,302 795,301 796,300 796,299 797,298 798,296 799,295 800,294 801,293 802,292 803,291 804,290 804,288 805,287 806,286 807,285 808,284 809,283 810,282 811,280 812,279 813,278 813,277 814,276 815,274 816,273 817,272 818,271 819,270 820,269 821,268 821,266 822,265 823,264 824,263 825,262 826,261 827,260 828,258 829,257 830,256 830,255 831,254 832,252 833,251 834,250 835,249 836,248 837,247 838,246 838,244 839,243 840,242 841,241 842,240 843,239 844,238 845,237 846,235 847,234 847,233 848,232 849,231 850,230 851,229 852,227 853,226 854,225 855,224 855,223 856,221 857,220 858,219 859,218 860,217 861,216 862,214 863,213 864,212 864,211 865,210 866,208 867,207 868,206 869,205 870,204 871,203 872,201 872,200 873,199 874,198 875,197 876,195 877,194 878,193 879,192 880,191 881,190 881,188 882,187 883,186 884,185 885,184 886,183 887,182 888,180 889,179 889,178 890,177 891,176 892,175 893,173 894,172 895,171 896,170 897,169 898,168 898,167 899,165 900,164 901,163 902,162 903,161 904,159 905,158 906,157 906,156 907,155 908,153 909,152 910,151 911,150 912,149 913,148 914,146 915,145 915,144 916,143 917,142 918,141 919,139 920,138 921,137 922,136 923,135 923,134 924,132 925,131 926,130 927,129 928,128 929,127 930,125 931,124 932,123 932,122 933,121 934,120 935,118 936,117 937,116 938,115 939,114 940,113 940,111 941,110 942,109 943,108 944,107 945,106 946,104 947,103 948,102 949,101 949,100 950,99 951,97 952,96 953,95 954,94 955,93 956,92 957,91 957,89 958,88 959,87 960,86 961,85 962,84 963,82 964,81 965,80 966,79 966,78 967,77 968,75 969,74 970,73 971,72 972,71 972,71 973,71 973,699 78,699 "/>
<polyline fill="none" opacity="1" stroke="#E6194B" stroke-width="1" points="78,699 79,699 80,699 80,699 81,699 82,699 83,699 84,699 85,699 86,699 87,699 88,699 88,699 89,699 90,699 91,699 92,699 93,699 94,699 95,699 96,699 97,699 97,699 98,699 99,699 100,699 101,699 102,699 103,699 104,699 105,699 105,699 106,699 107,699 108,699 109,699 110,699 111,699 112,699 113,699 114,699 114,699 115,699 116,699 117,699 118,699 119,699 120,699 121,699 122,699 122,699 123,699 124,699 125,699 126,699 127,699 128,699 129,699 130,699 131,699 131,699 132,699 133,699 134,699 135,699 136,699 137,699 138,699 139,699 139,699 140,699 141,699 142,699 143,699 144,699 145,699 146,699 147,699 148,699 148,699 149,699 150,699 151,699 152,699 153,699 154,699 155,699 156,699 156,699 157,699 158,699 159,699 160,699 161,699 162,699 163,699 164,699 165,699 165,699 166,699 167,699 168,699 169,699 170,699 171,699 172,699 173,699 174,699 174,699 175,699 176,699 177,699 178,699 179,699 180,699 181,699 182,699 182,699 183,699 184,699 185,699 186,699 187,699 188,699 189,699 190,699 191,699 191,699 192,699 193,699 194,699 195,699 196,699 197,699 198,699 199,699 199,699 200,699 201,699 202,699 203,699 204,699 205,699 206,699 207,699 208,699 208,699 209,699 210,699 211,699 212,699 213,699 214,699 215,699 216,699 216,699 217,699 218,699 219,699 220,699 221,699 222,699 223,699 224,699 225,699 225,699 226,699 227,699 228,699 229,699 230,699 231,699 232,699 233,699 233,699 234,699 235,699 236,699 237,699 238,699 239,699 240,699 241,699 242,699 242,699 243,699 244,699 245,699 246,699 247,699 248,699 249,699 250,699 250,699 251,699 252,699 253,699 254,699 255,699 256,699 257,699 258,699 259,699 259,699 260,699 261,699 262,699 263,699 264,699 265,699 266,699 267,699 267,699 268,699 269,699 270,699 271,699 272,699 273,699 274,699 275,699 276,699 276,699 277,699 278,699 279,699 280,699 281,699 282,699 283,699 284,699 284,699 285,699 286,699 287,699 288,699 289,699 290,699 291,699 292,699 293,699 293,699 294,699 295,699 296,699 297,699 298,699 299,699 300,699 301,699 301,699 302,699 303,699 304,699 305,699 306,699 307,699 308,699 309,699 310,699 310,699 311,699 312,699 313,699 314,699 315,699 316,699 317,699 318,699 318,699 319,699 320,699 321,699 322,699 323,699 324,699 325,699 326,699 327,699 327,699 328,699 329,699 330,699 331,699 332,699 333,699 334,699 335,699 335,699 336,699 337,699 338,699 339,699 340,699 341,699 342,699 343,699 344,699 344,699 345,699 346,699 347,699 348,699 349,699 350,699 351,699 352,699 352,699 353,699 354,699 355,699 356,699 357,699 358,699 359,699 360,699 361,699 361,699 362,699 363,699 364,699 365,699 366,699 367,699 368,699 369,699 370,699 370,699 371,699 372,699 373,699 374,699 375,699 376,699 377,699 378,699 378,699 379,699 380,699 381,699 382,699 383,699 384,699 385,699 386,699 387,699 387,699 388,699 389,699 390,699 391,699 392,699 393,699 394,699 395,699 395,699 396,699 397,699 398,699 399,699 400,699 401,699 402,699 403,699 404,699 404,699 405,699 406,699 407,699 408,699 409,699 410,699 411,699 412,699 412,699 413,699 414,699 415,699 416,699 417,699 418,699 419,699 420,699 421,699 421,699 422,699 423,699 424,699 425,699 426,699 427,699 428,699 429,699 429,699 430,699 431,699 432,699 433,699 434,699 435,699 436,699 437,699 438,699 438,699 439,699 440,699 441,699 442,699 443,699 444,699 445,699 446,699 446,699 447,699 448,699 449,699 450,699 451,699 452,699 453,699 454,699 455,699 455,699 456,699 457,699 458,699 459,699 460,699 461,699 462,699 463,699 463,699 464,699 465,699 466,699 467,699 468,699 469,699 470,699 471,698 472,698 472,698 473,698 474,698 475,698 476,698 477,698 478,698 479,698 480,698 480,698 481,698 482,698 483,698 484,698 485,698 486,697 487,696 488,695 489,694 489,692 490,691 491,690 492,689 493,688 494,687 495,685 496,684 497,683 497,682 498,681 499,680 500,679 501,677 502,676 503,675 504,674 505,673 506,672 506,670 507,669 508,668 509,667 510,666 511,665 512,664 513,662 514,661 514,660 515,659 516,658 517,657 518,656 519,654 520,653 521,652 522,651 523,650 523,649 524,647 525,646 526,645 527,644 528,643 529,642 530,641 531,639 531,638 532,637 533,636 534,635 535,634 536,633 537,632 538,631 539,629 540,628 540,627 541,626 542,625 543,624 544,623 545,621 546,620 547,619 548,618 548,617 549,616 550,615 551,614 552,612 553,611 554,610 555,609 556,608 557,607 557,606 558,604 559,603 560,602 561,601 562,600 563,599 564,598 565,596 566,595 566,594 567,593 568,592 569,591 570,590 571,588 572,587 573,586 574,585 574,584 575,583 576,581 577,580 578,579 579,578 580,577 581,576 582,574 583,573 583,572 584,571 585,570 586,569 587,568 588,566 589,565 590,564 591,563 591,562 592,560 593,559 594,558 595,557 596,556 597,555 598,554 599,553 600,551 600,550 601,549 602,548 603,547 604,546 605,545 606,543 607,542 608,541 608,540 609,539 610,538 611,537 612,535 613,534 614,533 615,532 616,531 617,530 617,529 618,527 619,526 620,525 621,524 622,523 623,522 624,521 625,519 625,518 626,517 627,516 628,515 629,514 630,513 631,511 632,510 633,509 634,508 634,507 635,506 636,505 637,504 638,502 639,501 640,500 641,499 642,498 642,497 643,496 644,494 645,493 646,492 647,491 648,490 649,489 650,487 651,486 651,485 652,484 653,483 654,482 655,481 656,479 657,478 658,477 659,476 659,475 660,474 661,473 662,471 663,470 664,469 665,468 666,467 667,466 668,465 668,463 669,462 670,461 671,460 672,459 673,458 674,457 675,455 676,454 676,453 677,452 678,451 679,450 680,449 681,447 682,446 683,445 684,444 685,443 685,442 686,441 687,439 688,438 689,437 690,436 691,435 692,434 693,433 693,431 694,430 695,429 696,428 697,427 698,426 699,424 700,423 701,422 702,421 702,420 703,419 704,418 705,416 706,415 707,414 708,413 709,412 710,411 710,409 711,408 712,407 713,406 714,405 715,404 716,402 717,401 718,400 719,399 719,398 720,396 721,395 722,394 723,393 724,392 725,391 726,389 727,388 727,387 728,386 729,385 730,384 731,383 732,381 733,380 734,379 735,378 736,377 736,376 737,375 738,374 739,372 740,371 741,370 742,369 743,368 744,367 744,365 745,364 746,363 747,362 748,361 749,360 750,359 751,357 752,356 753,355 753,354 754,353 755,352 756,351 757,350 758,348 759,347 760,346 761,345 761,344 762,343 763,341 764,340 765,339 766,338 767,337 768,336 769,335 770,333 770,332 771,331 772,330 773,329 774,328 775,326 776,325 777,324 778,323 779,322 779,321 780,319 781,318 782,317 783,316 784,315 785,314 786,312 787,311 787,310 788,309 789,308 790,307 791,306 792,304 793,303 794,302 795,301 796,300 796,299 797,298 798,296 799,295 800,294 801,293 802,292 803,291 804,290 804,288 805,287 806,286 807,285 808,284 809,283 810,282 811,280 812,279 813,278 813,277 814,276 815,274 816,273 817,272 818,271 819,270 820,269 821,268 821,266 822,265 823,264 824,263 825,262 826,261 827,260 828,258 829,257 830,256 830,255 831,254 832,252 833,251 834,250 835,249 836,248 837,247 838,246 838,244 839,243 840,242 841,241 842,240 843,239 844,238 845,237 846,235 847,234 847,233 848,232 849,231 850,230 851,229 852,227 853,226 854,225 855,224 855,223 856,221 857,220 858,219 859,218 860,217 861,216 862,214 863,213 864,212 864,211 865,210 866,208 867,207 868,206 869,205 870,204 871,203 872,201 872,200 873,199 874,198 875,197 876,195 877,194 878,193 879,192 880,191 881,190 881,188 882,187 883,186 884,185 885,184 886,183 887,182 888,180 889,179 889,178 890,177 891,176 892,175 893,173 894,172 895,171 896,170 897,169 898,168 898,167 899,165 900,164 901,163 902,162 903,161 904,159 905,158 906,157 906,156 907,155 908,153 909,152 910,151 911,150 912,149 913,148 914,146 915,145 915,144 916,143 917,142 918,141 919,139 920,138 921,137 922,136 923,135 923,134 924,132 925,131 926,130 927,129 928,128 929,127 930,125 931,124 932,123 932,122 933,121 934,120 935,118 936,117 937,116 938,115 939,114 940,113 940,111 941,110 942,109 943,108 944,107 945,106 946,104 947,103 948,102 949,101 949,100 950,99 951,97 952,96 953,95 954,94 955,93 956,92 957,91 957,89 958,88 959,87 960,86 961,85 962,84 963,82 964,81 965,80 966,79 966,78 967,77 968,75 969,74 970,73 971,72 972,71 972,71 973,71 "/>
<line opacity="0.1" stroke="#000000" stroke-width="1" x1="84" y1="699" x2="84" y2="68"/>
<line opacity="0.1" stroke="#000000" stroke-width="1" x1="94" y1="699" x2="94" y2="68"/>
<line opacity="0.1" stroke="#000000" stroke-width="1" x1="105" y1="699" x2="105" y2="68"/>
<line opacity="0.1" stroke="#000000" stroke-width="1" x1="115" y1="699" x2="115" y2="68"/>
<line opacity="0.1" stroke="#000000" stroke-width="1" x1="126" y1="699" x2="126" y2="68"/>
<line opacity="0.1" stroke="#000000" stroke-width="1" x1="137" y1="699" x2="137" y2="68"/>
<line opacity="0.1" stroke="#000000" stroke-width="1" x1="147" y1="699" x2="147" y2="68"/>
<line opacity="0.1" stroke="#000000" stroke-width="1" x1="158" y1="699" x2="158" y2="68"/>
<line opacity="0.1" stroke="#000000" stroke-width="1" x1="168" y1="699" x2="168" y2="68"/>
<line opacity="0.1" stroke="#000000" stroke-width="1" x1="179" y1="699" x2="179" y2="68"/>
<line opacity="0.1" stroke="#000000" stroke-width="1" x1="189" y1="699" x2="189" y2="68"/>
<line opacity="0.1" stroke="#000000" stroke-width="1" x1="200" y1="699" x2="200" y2="68"/>
<line opacity="0.1" stroke="#000000" stroke-width="1" x1="211" y1="699" x2="211" y2="68"/>
<line opacity="0.1" stroke="#000000" stroke-width="1" x1="221" y1="699" x2="221" y2="68"/>
<line opacity="0.1" stroke="#000000" stroke-width="1" x1="232" y1="699" x2="232" y2="68"/>
<line opacity="0.1" stroke="#000000" stroke-width="1" x1="242" y1="699" x2="242" y2="68"/>
<line opacity="0.1" stroke="#000000" stroke-width="1" x1="253" y1="699" x2="253" y2="68"/>
<line opacity="0.1" stroke="#000000" stroke-width="1" x1="264" y1="699" x2="264" y2="68"/>
<line opacity="0.1" stroke="#000000" stroke-width="1" x1="274" y1="699" x2="274" y2="68"/>
<line opacity="0.1" stroke="#000000" stroke-width="1" x1="285" y1="699" x2="285" y2="68"/>
<line opacity="0.1" stroke="#000000" stroke-width="1" x1="295" y1="699" x2="295" y2="68"/>
<line opacity="0.1" stroke="#000000" stroke-width="1" x1="306" y1="699" x2="306" y2="68"/>
<line opacity="0.1" stroke="#000000" stroke-width="1" x1="316" y1="699" x2="316" y2="68"/>
<line opacity="0.1" stroke="#000000" stroke-width="1" x1="327" y1="699" x2="327" y2="68"/>
<line opacity="0.1" stroke="#000000" stroke-width="1" x1="338" y1="699" x2="338" y2="68"/>
<line opacity="0.1" stroke="#000000" stroke-width="1" x1="348" y1="699" x2="348" y2="68"/>
<line opacity="0.1" stroke="#000000" stroke-width="1" x1="359" y1="699" x2="359" y2="68"/>
<line opacity="0.1" stroke="#000000" stroke-width="1" x1="369" y1="699" x2="369" y2="68"/>
<line opacity="0.1" stroke="#000000" stroke-width="1" x1="380" y1="699" x2="380" y2="68"/>
<line opacity="0.1" stroke="#000000" stroke-width="1" x1="390" y1="699" x2="390" y2="68"/>
<line opacity="0.1" stroke="#000000" stroke-width="1" x1="401" y1="699" x2="401" y2="68"/>
<line opacity="0.1" stroke="#000000" stroke-width="1" x1="412" y1="699" x2="412" y2="68"/>
<line opacity="0.1" stroke="#000000" stroke-width="1" x1="422" y1="699" x2="422" y2="68"/>
<line opacity="0.1" stroke="#000000" stroke-width="1" x1="433" y1="699" x2="433" y2="68"/>
<line opacity="0.1" stroke="#000000" stroke-width="1" x1="443" y1="699" x2="443" y2="68"/>
<line opacity="0.1" stroke="#000000" stroke-width="1" x1="454" y1="699" x2="454" y2="68"/>
<line opacity="0.1" stroke="#000000" stroke-width="1" x1="464" y1="699" x2="464" y2="68"/>
<line opacity="0.1" stroke="#000000" stroke-width="1" x1="475" y1="699" x2="475" y2="68"/>
<line opacity="0.1" stroke="#000000" stroke-width="1" x1="486" y1="699" x2="486" y2="68"/>
<line opacity="0.1" stroke="#000000" stroke-width="1" x1="496" y1="699" x2="496" y2="68"/>
<line opacity="0.1" stroke="#000000" stroke-width="1" x1="507" y1="699" x2="507" y2="68"/>
<line opacity="0.1" stroke="#000000" stroke-width="1" x1="517" y1="699" x2="517" y2="68"/>
<line opacity="0.1" stroke="#000000" stroke-width="1" x1="528" y1="699" x2="528" y2="68"/>
<line opacity="0.1" stroke="#000000" stroke-width="1" x1="538" y1="699" x2="538" y2="68"/>
<line opacity="0.1" stroke="#000000" stroke-width="1" x1="549" y1="699" x2="549" y2="68"/>
<line opacity="0.1" stroke="#000000" stroke-width="1" x1="560" y1="699" x2="560" y2="68"/>
<line opacity="0.1" stroke="#000000" stroke-width="1" x1="570" y1="699" x2="570" y2="68"/>
<line opacity="0.1" stroke="#000000" stroke-width="1" x1="581" y1="699" x2="581" y2="68"/>
<line opacity="0.1" stroke="#000000" stroke-width="1" x1="591" y1="699" x2="591" y2="68"/>
<line opacity="0.1" stroke="#000000" stroke-width="1" x1="602" y1="699" x2="602" y2="68"/>
<line opacity="0.1" stroke="#000000" stroke-width="1" x1="612" y1="699" x2="612" y2="68"/>
<line opacity="0.1" stroke="#000000" stroke-width="1" x1="623" y1="699" x2="623" y2="68"/>
<line opacity="0.1" stroke="#000000" stroke-width="1" x1="634" y1="699" x2="634" y2="68"/>
<line opacity="0.1" stroke="#000000" stroke-width="1" x1="644" y1="699" x2="644" y2="68"/>
<line opacity="0.1" stroke="#000000" stroke-width="1" x1="655" y1="699" x2="655" y2="68"/>
<line opacity="0.1" stroke="#000000" stroke-width="1" x1="665" y1="699" x2="665" y2="68"/>
<line opacity="0.1" stroke="#000000" stroke-width="1" x1="676" y1="699" x2="676" y2="68"/>
<line opacity="0.1" stroke="#000000" stroke-width="1" x1="687" y1="699" x2="687" y2="68"/>
<line opacity="0.1" stroke="#000000" stroke-width="1" x1="697" y1="699" x2="697" y2="68"/>
<line opacity="0.1" stroke="#000000" stroke-width="1" x1="708" y1="699" x2="708" y2="68"/>
<line opacity="0.1" stroke="#000000" stroke-width="1" x1="718" y1="699" x2="718" y2="68"/>
<line opacity="0.1" stroke="#000000" stroke-width="1" x1="729" y1="699" x2="729" y2="68"/>
<line opacity="0.1" stroke="#000000" stroke-width="1" x1="739" y1="699" x2="739" y2="68"/>
<line opacity="0.1" stroke="#000000" stroke-width="1" x1="750" y1="699" x2="750" y2="68"/>
<line opacity="0.1" stroke="#000000" stroke-width="1" x1="761" y1="699" x2="761" y2="68"/>
<line opacity="0.1" stroke="#000000" stroke-width="1" x1="771" y1="699" x2="771" y2="68"/>
<line opacity="0.1" stroke="#000000" stroke-width="1" x1="782" y1="699" x2="782" y2="68"/>
<line opacity="0.1" stroke="#000000" stroke-width="1" x1="792" y1="699" x2="792" y2="68"/>
<line opacity="0.1" stroke="#000000" stroke-width="1" x1="803" y1="699" x2="803" y2="68"/>
<line opacity="0.1" stroke="#000000" stroke-width="1" x1="813" y1="699" x2="813" y2="68"/>
<line opacity="0.1" stroke="#000000" stroke-width="1" x1="824" y1="699" x2="824" y2="68"/>
<line opacity="0.1" stroke="#000000" stroke-width="1" x1="835" y1="699" x2="835" y2="68"/>
<line opacity="0.1" stroke="#000000" stroke-width="1" x1="845" y1="699" x2="845" y2="68"/>
<line opacity="0.1" stroke="#000000" stroke-width="1" x1="856" y1="699" x2="856" y2="68"/>
<line opacity="0.1" stroke="#000000" stroke-width="1" x1="866" y1="699" x2="866" y2="68"/>
<line opacity="0.1" stroke="#000000" stroke-width="1" x1="877" y1="699" x2="877" y2="68"/>
<line opacity="0.1" stroke="#000000" stroke-width="1" x1="887" y1="699" x2="887" y2="68"/>
<line opacity="0.1" stroke="#000000" stroke-width="1" x1="898" y1="699" x2="898" y2="68"/>
<line opacity="0.1" stroke="#000000" stroke-width="1" x1="909" y1="699" x2="909" y2="68"/>
<line opacity="0.1" stroke="#000000" stroke-width="1" x1="919" y1="699" x2="919" y2="68"/>
<line opacity="0.1" stroke="#000000" stroke-width="1" x1="930" y1="699" x2="930" y2="68"/>
<line opacity="0.1" stroke="#000000" stroke-width="1" x1="940" y1="699" x2="940" y2="68"/>
<line opacity="0.1" stroke="#000000" stroke-width="1" x1="951" y1="699" x2="951" y2="68"/>
<line opacity="0.1" stroke="#000000" stroke-width="1" x1="961" y1="699" x2="961" y2="68"/>
<line opacity="0.1" stroke="#000000" stroke-width="1" x1="972" y1="699" x2="972" y2="68"/>
<line opacity="0.1" stroke="#000000" stroke-width="1" x1="78" y1="699" x2="973" y2="699"/>
<line opacity="0.1" stroke="#000000" stroke-width="1" x1="78" y1="687" x2="973" y2="687"/>
<line opacity="0.1" stroke="#000000" stroke-width="1" x1="78" y1="676" x2="973" y2="676"/>
<line opacity="0.1" stroke="#000000" stroke-width="1" x1="78" y1="665" x2="973" y2="665"/>
<line opacity="0.1" stroke="#000000" stroke-width="1" x1="78" y1="654" x2="973" y2="654"/>
<line opacity="0.1" stroke="#000000" stroke-width="1" x1="78" y1="643" x2="973" y2="643"/>
<line opacity="0.1" stroke="#000000" stroke-width="1" x1="78" y1="632" x2="973" y2="632"/>
<line opacity="0.1" stroke="#000000" stroke-width="1" x1="78" y1="621" x2="973" y2="621"/>
<line opacity="0.1" stroke="#000000" stroke-width="1" x1="78" y1="610" x2="973" y2="610"/>
<line opacity="0.1" stroke="#000000" stroke-width="1" x1="78" y1="599" x2="973" y2="599"/>
<line opacity="0.1" stroke="#000000" stroke-width="1" x1="78" y1="587" x2="973" y2="587"/>
<line opacity="0.1" stroke="#000000" stroke-width="1" x1="78" y1="576" x2="973" y2="576"/>
<line opacity="0.1" stroke="#000000" stroke-width="1" x1="78" y1="565" x2="973" y2="565"/>
<line opacity="0.1" stroke="#000000" stroke-width="1" x1="78" y1="554" x2="973" y2="554"/>
<line opacity="0.1" stroke="#000000" stroke-width="1" x1="78" y1="543" x2="973" y2="543"/>
<line opacity="0.1" stroke="#000000" stroke-width="1" x1="78" y1="532" x2="973" y2="532"/>
<line opacity="0.1" stroke="#000000" stroke-width="1" x1="78" y1="521" x2="973" y2="521"/>
<line opacity="0.1" stroke="#000000" stroke-width="1" x1="78" y1="510" x2="973" y2="510"/>
<line opacity="0.1" stroke="#000000" stroke-width="1" x1="78" y1="499" x2="973" y2="499"/>
<line opacity="0.1" stroke="#000000" stroke-width="1" x1="78" y1="487" x2="973" y2="487"/>
<line opacity="0.1" stroke="#000000" stroke-width="1" x1="78" y1="476" x2="973" y2="476"/>
<line opacity="0.1" stroke="#000000" stroke-width="1" x1="78" y1="465" x2="973" y2="465"/>
<line opacity="0.1" stroke="#000000" stroke-width="1" x1="78" y1="454" x2="973" y2="454"/>
<line opacity="0.1" stroke="#000000" stroke-width="1" x1="78" y1="443" x2="973" y2="443"/>
<line opacity="0.1" stroke="#000000" stroke-width="1" x1="78" y1="432" x2="973" y2="432"/>
<line opacity="0.1" stroke="#000000" stroke-width="1" x1="78" y1="421" x2="973" y2="421"/>
<line opacity="0.1" stroke="#000000" stroke-width="1" x1="78" y1="410" x2="973" y2="410"/>
<line opacity="0.1" stroke="#000000" stroke-width="1" x1="78" y1="399" x2="973" y2="399"/>
<line opacity="0.1" stroke="#000000" stroke-width="1" x1="78" y1="387" x2="973" y2="387"/>
<line opacity="0.1" stroke="#000000" stroke-width="1" x1="78" y1="376" x2="973" y2="376"/>
<line opacity="0.1" stroke="#000000" stroke-width="1" x1="78" y1="365" x2="973" y2="365"/>
<line opacity="0.1" stroke="#000000" stroke-width="1" x1="78" y1="354" x2="973" y2="354"/>
<line opacity="0.1" stroke="#000000" stroke-width="1" x1="78" y1="343" x2="973" y2="343"/>
<line opacity="0.1" stroke="#000000" stroke-width="1" x1="78" y1="332" x2="973" y2="332"/>
<line opacity="0.1" stroke="#000000" stroke-width="1" x1="78" y1="321" x2="973" y2="321"/>
<line opacity="0.1" stroke="#000000" stroke-width="1" x1="78" y1="310" x2="973" y2="310"/>
<line opacity="0.1" stroke="#000000" stroke-width="1" x1="78" y1="299" x2="973" y2="299"/>
<line opacity="0.1" stroke="#000000" stroke-width="1" x1="78" y1="288" x2="973" y2="288"/>
<line opacity="0.1" stroke="#000000" stroke-width="1" x1="78" y1="276" x2="973" y2="276"/>
<line opacity="0.1" stroke="#000000" stroke-width="1" x1="78" y1="265" x2="973" y2="265"/>
<line opacity="0.1" stroke="#000000" stroke-width="1" x1="78" y1="254" x2="973" y2="254"/>
<line opacity="0.1" stroke="#000000" stroke-width="1" x1="78" y1="243" x2="973" y2="243"/>
<line opacity="0.1" stroke="#000000" stroke-width="1" x1="78" y1="232" x2="973" y2="232"/>
<line opacity="0.1" stroke="#000000" stroke-width="1" x1="78" y1="221" x2="973" y2="221"/>
<line opacity="0.1" stroke="#000000" stroke-width="1" x1="78" y1="210" x2="973" y2="210"/>
<line opacity="0.1" stroke="#000000" stroke-width="1" x1="78" y1="199" x2="973" y2="199"/>
<line opacity="0.1" stroke="#000000" stroke-width="1" x1="78" y1="188" x2="973" y2="188"/>
<line opacity="0.1" stroke="#000000" stroke-width="1" x1="78" y1="176" x2="973" y2="176"/>
<line opacity="0.1" stroke="#000000" stroke-width="1" x1="78" y1="165" x2="973" y2="165"/>
<line opacity="0.1" stroke="#000000" stroke-width="1" x1="78" y1="154" x2="973" y2="154"/>
<line opacity="0.1" stroke="#000000" stroke-width="1" x1="78" y1="143" x2="973" y2="143"/>
<line opacity="0.1" stroke="#000000" stroke-width="1" x1="78" y1="132" x2="973" y2="132"/>
<line opacity="0.1" stroke="#000000" stroke-width="1" x1="78" y1="121" x2="973" y2="121"/>
<line opacity="0.1" stroke="#000000" stroke-width="1" x1="78" y1="110" x2="973" y2="110"/>
<line opacity="0.1" stroke="#000000" stroke-width="1" x1="78" y1="99" x2="973" y2="99"/>
<line opacity="0.1" stroke="#000000" stroke-width="1" x1="78" y1="88" x2="973" y2="88"/>
<line opacity="0.1" stroke="#000000" stroke-width="1" x1="78" y1="76" x2="973" y2="76"/>
<text x="8" y="384" dy="0.76em" text-anchor="middle" font-family="sans-serif" font-size="9.67741935483871" opacity="1" fill="#000000" transform="rotate(270, 8, 384)">
Memory usage
</text>
<text x="526" y="760" dy="-0.5ex" text-anchor="middle" font-family="sans-serif" font-size="9.67741935483871" opacity="1" fill="#000000">
Time
</text>
<line opacity="0.2" stroke="#000000" stroke-width="1" x1="105" y1="699" x2="105" y2="68"/>
<line opacity="0.2" stroke="#000000" stroke-width="1" x1="211" y1="699" x2="211" y2="68"/>
<line opacity="0.2" stroke="#000000" stroke-width="1" x1="316" y1="699" x2="316" y2="68"/>
<line opacity="0.2" stroke="#000000" stroke-width="1" x1="422" y1="699" x2="422" y2="68"/>
<line opacity="0.2" stroke="#000000" stroke-width="1" x1="528" y1="699" x2="528" y2="68"/>
<line opacity="0.2" stroke="#000000" stroke-width="1" x1="634" y1="699" x2="634" y2="68"/>
<line opacity="0.2" stroke="#000000" stroke-width="1" x1="739" y1="699" x2="739" y2="68"/>
<line opacity="0.2" stroke="#000000" stroke-width="1" x1="845" y1="699" x2="845" y2="68"/>
<line opacity="0.2" stroke="#000000" stroke-width="1" x1="951" y1="699" x2="951" y2="68"/>
<line opacity="0.2" stroke="#000000" stroke-width="1" x1="78" y1="699" x2="973" y2="699"/>
<line opacity="0.2" stroke="#000000" stroke-width="1" x1="78" y1="587" x2="973" y2="587"/>
<line opacity="0.2" stroke="#000000" stroke-width="1" x1="78" y1="476" x2="973" y2="476"/>
<line opacity="0.2" stroke="#000000" stroke-width="1" x1="78" y1="365" x2="973" y2="365"/>
<line opacity="0.2" stroke="#000000" stroke-width="1" x1="78" y1="254" x2="973" y2="254"/>
<line opacity="0.2" stroke="#000000" stroke-width="1" x1="78" y1="143" x2="973" y2="143"/>
<polyline fill="none" opacity="1" stroke="#000000" stroke-width="1" points="77,68 77,699 "/>
<text x="68" y="699" dy="0.5ex" text-anchor="end" font-family="sans-serif" font-size="9.67741935483871" opacity="1" fill="#000000">
0 MB
</text>
<polyline fill="none" opacity="1" stroke="#000000" stroke-width="1" points="72,699 77,699 "/>
<text x="68" y="587" dy="0.5ex" text-anchor="end" font-family="sans-serif" font-size="9.67741935483871" opacity="1" fill="#000000">
19 MB
</text>
<polyline fill="none" opacity="1" stroke="#000000" stroke-width="1" points="72,587 77,587 "/>
<text x="68" y="476" dy="0.5ex" text-anchor="end" font-family="sans-serif" font-size="9.67741935483871" opacity="1" fill="#000000">
38 MB
</text>
<polyline fill="none" opacity="1" stroke="#000000" stroke-width="1" points="72,476 77,476 "/>
<text x="68" y="365" dy="0.5ex" text-anchor="end" font-family="sans-serif" font-size="9.67741935483871" opacity="1" fill="#000000">
57 MB
</text>
<polyline fill="none" opacity="1" stroke="#000000" stroke-width="1" points="72,365 77,365 "/>
<text x="68" y="254" dy="0.5ex" text-anchor="end" font-family="sans-serif" font-size="9.67741935483871" opacity="1" fill="#000000">
76 MB
</text>
<polyline fill="none" opacity="1" stroke="#000000" stroke-width="1" points="72,254 77,254 "/>
<text x="68" y="143" dy="0.5ex" text-anchor="end" font-family="sans-serif" font-size="9.67741935483871" opacity="1" fill="#000000">
95 MB
</text>
<polyline fill="none" opacity="1" stroke="#000000" stroke-width="1" points="72,143 77,143 "/>
<polyline fill="none" opacity="1" stroke="#000000" stroke-width="1" points="78,700 973,700 "/>
<text x="105" y="710" dy="0.76em" text-anchor="middle" font-family="sans-serif" font-size="9.67741935483871" opacity="1" fill="#000000">
07 20:33:20
</text>
<polyline fill="none" opacity="1" stroke="#000000" stroke-width="1" points="105,700 105,705 "/>
<text x="211" y="710" dy="0.76em" text-anchor="middle" font-family="sans-serif" font-size="9.67741935483871" opacity="1" fill="#000000">
08 10:26:40
</text>
<polyline fill="none" opacity="1" stroke="#000000" stroke-width="1" points="211,700 211,705 "/>
<text x="316" y="710" dy="0.76em" text-anchor="middle" font-family="sans-serif" font-size="9.67741935483871" opacity="1" fill="#000000">
09 00:20:00
</text>
<polyline fill="none" opacity="1" stroke="#000000" stroke-width="1" points="316,700 316,705 "/>
<text x="422" y="710" dy="0.76em" text-anchor="middle" font-family="sans-serif" font-size="9.67741935483871" opacity="1" fill="#000000">
09 14:13:20
</text>
<polyline fill="none" opacity="1" stroke="#000000" stroke-width="1" points="422,700 422,705 "/>
<text x="528" y="710" dy="0.76em" text-anchor="middle" font-family="sans-serif" font-size="9.67741935483871" opacity="1" fill="#000000">
10 04:06:40
</text>
<polyline fill="none" opacity="1" stroke="#000000" stroke-width="1" points="528,700 528,705 "/>
<text x="634" y="710" dy="0.76em" text-anchor="middle" font-family="sans-serif" font-size="9.67741935483871" opacity="1" fill="#000000">
10 18:00:00
</text>
<polyline fill="none" opacity="1" stroke="#000000" stroke-width="1" points="634,700 634,705 "/>
<text x="739" y="710" dy="0.76em" text-anchor="middle" font-family="sans-serif" font-size="9.67741935483871" opacity="1" fill="#000000">
11 07:53:20
</text>
<polyline fill="none" opacity="1" stroke="#000000" stroke-width="1" points="739,700 739,705 "/>
<text x="845" y="710" dy="0.76em" text-anchor="middle" font-family="sans-serif" font-size="9.67741935483871" opacity="1" fill="#000000">
11 21:46:40
</text>
<polyline fill="none" opacity="1" stroke="#000000" stroke-width="1" points="845,700 845,705 "/>
<text x="951" y="710" dy="0.76em" text-anchor="middle" font-family="sans-serif" font-size="9.67741935483871" opacity="1" fill="#000000">
12 11:40:00
</text>
<polyline fill="none" opacity="1" stroke="#000000" stroke-width="1" points="951,700 951,705 "/>
<polyline fill="none" opacity="1" stroke="#000000" stroke-width="1" points="78,67 974,67 "/>
<text x="105" y="58" dy="-0.5ex" text-anchor="middle" font-family="sans-serif" font-size="9.67741935483871" opacity="1" fill="#000000">
+03:35:44
</text>
<polyline fill="none" opacity="1" stroke="#000000" stroke-width="1" points="105,62 105,67 "/>
<text x="211" y="58" dy="-0.5ex" text-anchor="middle" font-family="sans-serif" font-size="9.67741935483871" opacity="1" fill="#000000">
+17:29:04
</text>
<polyline fill="none" opacity="1" stroke="#000000" stroke-width="1" points="211,62 211,67 "/>
<text x="317" y="58" dy="-0.5ex" text-anchor="middle" font-family="sans-serif" font-size="9.67741935483871" opacity="1" fill="#000000">
+31:22:24
</text>
<polyline fill="none" opacity="1" stroke="#000000" stroke-width="1" points="317,62 317,67 "/>
<text x="423" y="58" dy="-0.5ex" text-anchor="middle" font-family="sans-serif" font-size="9.67741935483871" opacity="1" fill="#000000">
+45:15:44
</text>
<polyline fill="none" opacity="1" stroke="#000000" stroke-width="1" points="423,62 423,67 "/>
<text x="528" y="58" dy="-0.5ex" text-anchor="middle" font-family="sans-serif" font-size="9.67741935483871" opacity="1" fill="#000000">
+59:09:04
</text>
<polyline fill="none" opacity="1" stroke="#000000" stroke-width="1" points="528,62 528,67 "/>
<text x="634" y="58" dy="-0.5ex" text-anchor="middle" font-family="sans-serif" font-size="9.67741935483871" opacity="1" fill="#000000">
+73:02:24
</text>
<polyline fill="none" opacity="1" stroke="#000000" stroke-width="1" points="634,62 634,67 "/>
<text x="740" y="58" dy="-0.5ex" text-anchor="middle" font-family="sans-serif" font-size="9.67741935483871" opacity="1" fill="#000000">
+86:55:44
</text>
<polyline fill="none" opacity="1" stroke="#000000" stroke-width="1" points="740,62 740,67 "/>
<text x="846" y="58" dy="-0.5ex" text-anchor="middle" font-family="sans-serif" font-size="9.67741935483871" opacity="1" fill="#000000">
+100:49:04
</text>
<polyline fill="none" opacity="1" stroke="#000000" stroke-width="1" points="846,62 846,67 "/>
<text x="952" y="58" dy="-0.5ex" text-anchor="middle" font-family="sans-serif" font-size="9.67741935483871" opacity="1" fill="#000000">
+114:42:24
</text>
<polyline fill="none" opacity="1" stroke="#000000" stroke-width="1" points="952,62 952,67 "/>
<rect x="83" y="73" width="99" height="45" opacity="0.75" fill="#FFFFFF" stroke="none"/>
<rect x="83" y="73" width="99" height="45" opacity="1" fill="none" stroke="#000000"/>
<text x="123" y="83" dy="0.76em" text-anchor="start" font-family="sans-serif" font-size="9.67741935483871" opacity="1" fill="#000000">
Temporary
</text>
<text x="123" y="98" dy="0.76em" text-anchor="start" font-family="sans-serif" font-size="9.67741935483871" opacity="1" fill="#000000">
Leaked
</text>
<rect x="93" y="83" width="10" height="10" opacity="1" fill="#3CB44B" stroke="none"/>
<rect x="93" y="98" width="10" height="10" opacity="1" fill="#E6194B" stroke="none"/>
</svg>
