<svg width="1024" height="768" viewBox="0 0 1024 768" xmlns="http://www.w3.org/2000/svg">
<rect x="0" y="0" width="1024" height="768" opacity="1" fill="#FFFFFF" stroke="none"/>
<polygon opacity="1" fill="#3CB44B" points="78,697 78,697 78,695 79,695 79,695 79,691 79,691 80,691 80,691 80,691 81,691 81,691 81,691 82,684 82,684 82,684 82,684 83,684 83,684 83,684 84,684 84,684 84,684 85,684 85,684 85,684 86,684 86,684 86,684 86,669 87,669 87,669 87,669 88,669 88,669 88,669 89,669 89,669 89,669 90,669 90,669 90,669 90,669 91,669 91,669 91,669 92,669 92,669 92,669 93,669 93,669 93,669 93,669 94,669 94,669 94,669 95,669 95,669 95,669 96,669 96,639 96,639 97,639 97,639 97,639 97,639 98,639 98,639 98,639 99,639 99,639 99,639 100,639 100,639 100,639 100,639 101,639 101,639 101,639 102,639 102,639 102,639 103,639 103,639 103,639 104,639 104,639 104,639 104,639 105,639 105,639 105,639 106,639 106,639 106,639 107,639 107,639 107,639 108,639 108,639 108,639 108,639 109,639 109,639 109,639 110,639 110,639 110,639 111,639 111,639 111,639 111,639 112,639 112,639 112,639 113,639 113,639 113,639 114,639 114,639 114,639 115,639 115,580 115,580 115,580 116,580 116,580 116,580 117,580 117,580 117,580 118,580 118,580 118,580 118,580 119,580 119,580 119,580 120,580 120,580 120,580 121,580 121,580 121,580 122,580 122,580 122,580 122,580 123,580 123,580 123,580 124,580 124,580 124,580 125,580 125,580 125,580 126,580 126,580 126,580 126,580 127,580 127,580 127,580 128,580 128,580 128,580 129,580 129,580 129,580 129,580 130,580 130,580 130,580 131,580 131,580 131,580 132,580 132,580 132,580 133,580 133,580 133,580 133,580 134,580 134,580 134,580 135,580 135,580 135,580 136,580 136,580 136,580 136,580 137,580 137,580 137,580 138,580 138,580 138,580 139,580 139,580 139,580 140,580 140,580 140,580 140,580 141,580 141,580 141,580 142,580 142,580 142,580 143,580 143,580 143,580 143,580 144,580 144,580 144,580 145,580 145,580 145,580 146,580 146,580 146,580 147,580 147,580 147,580 147,580 148,580 148,580 148,580 149,580 149,580 149,580 150,580 150,580 150,580 151,580 151,580 151,580 151,580 152,462 152,462 152,462 153,462 153,462 153,462 154,462 154,462 154,462 154,462 155,462 155,462 155,462 156,462 156,462 156,462 157,462 157,462 157,462 158,462 158,462 158,462 158,462 159,462 159,462 159,462 160,462 160,462 160,462 161,462 161,462 161,462 161,462 162,462 162,462 162,462 163,462 163,462 163,462 164,462 164,462 164,462 165,462 165,462 165,462 165,462 166,462 166,462 166,462 167,462 167,462 167,462 168,462 168,462 168,462 169,462 169,462 169,462 169,462 170,462 170,462 170,462 171,462 171,462 171,462 172,462 172,462 172,462 172,462 173,462 173,462 173,462 174,462 174,462 174,462 175,462 175,462 175,462 176,462 176,462 176,462 176,462 177,462 177,462 177,462 178,462 178,462 178,462 179,462 179,462 179,462 179,462 180,462 180,462 180,462 181,462 181,462 181,462 182,462 182,462 182,462 183,462 183,462 183,462 183,462 184,462 184,462 184,462 185,462 185,462 185,462 186,462 186,462 186,462 187,462 187,462 187,462 187,462 188,462 188,462 188,462 189,462 189,462 189,462 190,462 190,462 190,462 190,462 191,462 191,462 191,462 192,462 192,462 192,462 193,462 193,462 193,462 194,462 194,462 194,462 194,462 195,462 195,462 195,462 196,462 196,462 196,462 197,462 197,462 197,462 197,462 198,462 198,462 198,462 199,462 199,462 199,462 200,462 200,462 200,462 201,462 201,462 201,462 201,462 202,462 202,462 202,462 203,462 203,462 203,462 204,462 204,462 204,462 205,462 205,462 205,462 205,462 206,462 206,462 206,462 207,462 207,462 207,462 208,462 208,462 208,462 208,462 209,462 209,462 209,462 210,462 210,462 210,462 211,462 211,462 211,462 212,462 212,462 212,462 212,462 213,462 213,462 213,462 214,462 214,462 214,462 215,462 215,462 215,462 215,462 216,462 216,462 216,462 217,462 217,462 217,462 218,462 218,462 218,462 219,462 219,462 219,462 219,462 220,462 220,462 220,462 221,462 221,462 221,462 222,462 222,462 222,462 222,462 223,462 223,462 223,462 224,462 224,462 224,462 225,462 225,462 225,462 226,462 226,462 226,462 226,462 227,462 227,462 227,462 228,462 228,462 228,225 229,225 229,225 229,225 230,225 230,225 230,225 230,225 231,225 231,225 231,225 232,225 232,225 232,225 233,225 233,225 233,225 233,225 234,225 234,225 234,225 235,225 235,225 235,225 236,225 236,225 236,225 237,225 237,225 237,225 237,225 238,225 238,225 238,225 239,225 239,225 239,225 240,225 240,225 240,225 240,225 241,225 241,225 241,225 242,225 242,225 242,225 243,225 243,225 243,225 244,225 244,225 244,225 244,225 245,225 245,225 245,225 246,225 246,225 246,225 247,225 247,225 247,225 248,225 248,225 248,225 248,225 249,225 249,225 249,225 250,225 250,225 250,225 251,225 251,225 251,225 251,225 252,225 252,225 252,225 253,225 253,225 253,225 254,225 254,225 254,225 255,225 255,225 255,225 255,225 256,225 256,225 256,225 257,225 257,225 257,225 258,225 258,225 258,225 258,225 259,225 259,225 259,225 260,225 260,225 260,225 261,225 261,225 261,225 262,225 262,225 262,225 262,225 263,225 263,225 263,225 264,225 264,225 264,225 265,225 265,225 265,225 266,225 266,225 266,225 266,225 267,225 267,225 267,225 268,225 268,225 268,225 269,225 269,225 269,225 269,225 270,225 270,225 270,225 271,225 271,225 271,225 272,225 272,225 272,225 273,225 273,225 273,225 273,225 274,225 274,225 274,225 275,225 275,225 275,225 276,225 276,225 276,225 276,225 277,225 277,225 277,225 278,225 278,225 278,225 279,225 279,225 279,225 280,225 280,225 280,225 280,225 281,225 281,225 281,225 282,225 282,225 282,225 283,225 283,225 283,225 283,225 284,225 284,225 284,225 285,225 285,225 285,225 286,225 286,225 286,225 287,225 287,225 287,225 287,225 288,225 288,225 288,225 289,225 289,225 289,225 290,225 290,225 290,225 291,225 291,225 291,225 291,225 292,225 292,225 292,225 293,225 293,225 293,225 294,225 294,225 294,225 294,225 295,225 295,225 295,225 296,225 296,225 296,225 297,225 297,225 297,225 298,225 298,225 298,225 298,225 299,225 299,225 299,225 300,225 300,225 300,225 301,225 301,225 301,225 301,225 302,225 302,225 302,225 303,225 303,225 303,225 304,225 304,225 304,225 305,225 305,225 305,225 305,225 306,225 306,225 306,225 307,225 307,225 307,225 308,225 308,225 308,225 309,225 309,225 309,225 309,225 310,225 310,225 310,225 311,225 311,225 311,225 312,225 312,225 312,225 312,225 313,225 313,225 313,225 314,225 314,225 314,225 315,225 315,225 315,225 316,225 316,225 316,225 316,225 317,225 317,225 317,225 318,225 318,225 318,225 319,225 319,225 319,225 319,225 320,225 320,225 320,225 321,225 321,225 321,225 322,225 322,225 322,225 323,225 323,225 323,225 323,225 324,225 324,225 324,225 325,225 325,225 325,225 326,225 326,225 326,225 327,225 327,225 327,225 327,225 328,225 328,225 328,225 329,225 329,225 329,225 330,225 330,225 330,225 330,225 331,225 331,225 331,225 332,225 332,225 332,225 333,225 333,225 333,225 334,225 334,225 334,225 334,225 335,225 335,225 335,225 336,225 336,225 336,225 337,225 337,225 337,225 337,225 338,225 338,225 338,225 339,225 339,225 339,225 340,225 340,225 340,225 341,225 341,225 341,225 341,225 342,225 342,225 342,225 343,225 343,225 343,225 344,225 344,225 344,225 345,225 345,225 345,225 345,225 346,225 346,225 346,225 347,225 347,225 347,225 348,225 348,225 348,225 348,225 349,225 349,225 349,225 350,225 350,225 350,225 351,225 351,225 351,225 352,225 352,225 352,225 352,225 353,225 353,225 353,225 354,225 354,225 354,225 355,225 355,225 355,225 355,225 356,225 356,225 356,225 357,225 357,225 357,225 358,225 358,225 358,225 359,225 359,225 359,225 359,225 360,225 360,225 360,225 361,225 361,225 361,225 362,225 362,225 362,225 362,225 363,225 363,225 363,225 364,225 364,225 364,225 365,225 365,225 365,225 366,225 366,225 366,225 366,225 367,225 367,225 367,225 368,225 368,225 368,225 369,225 369,225 369,225 370,225 370,225 370,225 370,225 371,225 371,225 371,225 372,225 372,225 372,225 373,225 373,225 373,225 373,225 374,225 374,225 374,225 375,225 375,225 375,225 376,225 376,225 376,225 377,225 377,225 377,225 377,225 378,225 378,225 378,225 379,225 379,225 379,225 380,225 380,225 380,225 380,225 381,225 381,225 381,225 382,225 382,225 382,225 383,225 383,68 383,68 973,68 973,699 78,699 "/>
<polyline fill="none" opacity="1" stroke="#3CB44B" stroke-width="1" points="78,697 78,697 78,695 79,695 79,695 79,691 79,691 80,691 80,691 80,691 81,691 81,691 81,691 82,684 82,684 82,684 82,684 83,684 83,684 83,684 84,684 84,684 84,684 85,684 85,684 85,684 86,684 86,684 86,684 86,669 87,669 87,669 87,669 88,669 88,669 88,669 89,669 89,669 89,669 90,669 90,669 90,669 90,669 91,669 91,669 91,669 92,669 92,669 92,669 93,669 93,669 93,669 93,669 94,669 94,669 94,669 95,669 95,669 95,669 96,669 96,639 96,639 97,639 97,639 97,639 97,639 98,639 98,639 98,639 99,639 99,639 99,639 100,639 100,639 100,639 100,639 101,639 101,639 101,639 102,639 102,639 102,639 103,639 103,639 103,639 104,639 104,639 104,639 104,639 105,639 105,639 105,639 106,639 106,639 106,639 107,639 107,639 107,639 108,639 108,639 108,639 108,639 109,639 109,639 109,639 110,639 110,639 110,639 111,639 111,639 111,639 111,639 112,639 112,639 112,639 113,639 113,639 113,639 114,639 114,639 114,639 115,639 115,580 115,580 115,580 116,580 116,580 116,580 117,580 117,580 117,580 118,580 118,580 118,580 118,580 119,580 119,580 119,580 120,580 120,580 120,580 121,580 121,580 121,580 122,580 122,580 122,580 122,580 123,580 123,580 123,580 124,580 124,580 124,580 125,580 125,580 125,580 126,580 126,580 126,580 126,580 127,580 127,580 127,580 128,580 128,580 128,580 129,580 129,580 129,580 129,580 130,580 130,580 130,580 131,580 131,580 131,580 132,580 132,580 132,580 133,580 133,580 133,580 133,580 134,580 134,580 134,580 135,580 135,580 135,580 136,580 136,580 136,580 136,580 137,580 137,580 137,580 138,580 138,580 138,580 139,580 139,580 139,580 140,580 140,580 140,580 140,580 141,580 141,580 141,580 142,580 142,580 142,580 143,580 143,580 143,580 143,580 144,580 144,580 144,580 145,580 145,580 145,580 146,580 146,580 146,580 147,580 147,580 147,580 147,580 148,580 148,580 148,580 149,580 149,580 149,580 150,580 150,580 150,580 151,580 151,580 151,580 151,580 152,462 152,462 152,462 153,462 153,462 153,462 154,462 154,462 154,462 154,462 155,462 155,462 155,462 156,462 156,462 156,462 157,462 157,462 157,462 158,462 158,462 158,462 158,462 159,462 159,462 159,462 160,462 160,462 160,462 161,462 161,462 161,462 161,462 162,462 162,462 162,462 163,462 163,462 163,462 164,462 164,462 164,462 165,462 165,462 165,462 165,462 166,462 166,462 166,462 167,462 167,462 167,462 168,462 168,462 168,462 169,462 169,462 169,462 169,462 170,462 170,462 170,462 171,462 171,462 171,462 172,462 172,462 172,462 172,462 173,462 173,462 173,462 174,462 174,462 174,462 175,462 175,462 175,462 176,462 176,462 176,462 176,462 177,462 177,462 177,462 178,462 178,462 178,462 179,462 179,462 179,462 179,462 180,462 180,462 180,462 181,462 181,462 181,462 182,462 182,462 182,462 183,462 183,462 183,462 183,462 184,462 184,462 184,462 185,462 185,462 185,462 186,462 186,462 186,462 187,462 187,462 187,462 187,462 188,462 188,462 188,462 189,462 189,462 189,462 190,462 190,462 190,462 190,462 191,462 191,462 191,462 192,462 192,462 192,462 193,462 193,462 193,462 194,462 194,462 194,462 194,462 195,462 195,462 195,462 196,462 196,462 196,462 197,462 197,462 197,462 197,462 198,462 198,462 198,462 199,462 199,462 199,462 200,462 200,462 200,462 201,462 201,462 201,462 201,462 202,462 202,462 202,462 203,462 203,462 203,462 204,462 204,462 204,462 205,462 205,462 205,462 205,462 206,462 206,462 206,462 207,462 207,462 207,462 208,462 208,462 208,462 208,462 209,462 209,462 209,462 210,462 210,462 210,462 211,462 211,462 211,462 212,462 212,462 212,462 212,462 213,462 213,462 213,462 214,462 214,462 214,462 215,462 215,462 215,462 215,462 216,462 216,462 216,462 217,462 217,462 217,462 218,462 218,462 218,462 219,462 219,462 219,462 219,462 220,462 220,462 220,462 221,462 221,462 221,462 222,462 222,462 222,462 222,462 223,462 223,462 223,462 224,462 224,462 224,462 225,462 225,462 225,462 226,462 226,462 226,462 226,462 227,462 227,462 227,462 228,462 228,462 228,225 229,225 229,225 229,225 230,225 230,225 230,225 230,225 231,225 231,225 231,225 232,225 232,225 232,225 233,225 233,225 233,225 233,225 234,225 234,225 234,225 235,225 235,225 235,225 236,225 236,225 236,225 237,225 237,225 237,225 237,225 238,225 238,225 238,225 239,225 239,225 239,225 240,225 240,225 240,225 240,225 241,225 241,225 241,225 242,225 242,225 242,225 243,225 243,225 243,225 244,225 244,225 244,225 244,225 245,225 245,225 245,225 246,225 246,225 246,225 247,225 247,225 247,225 248,225 248,225 248,225 248,225 249,225 249,225 249,225 250,225 250,225 250,225 251,225 251,225 251,225 251,225 252,225 252,225 252,225 253,225 253,225 253,225 254,225 254,225 254,225 255,225 255,225 255,225 255,225 256,225 256,225 256,225 257,225 257,225 257,225 258,225 258,225 258,225 258,225 259,225 259,225 259,225 260,225 260,225 260,225 261,225 261,225 261,225 262,225 262,225 262,225 262,225 263,225 263,225 263,225 264,225 264,225 264,225 265,225 265,225 265,225 266,225 266,225 266,225 266,225 267,225 267,225 267,225 268,225 268,225 268,225 269,225 269,225 269,225 269,225 270,225 270,225 270,225 271,225 271,225 271,225 272,225 272,225 272,225 273,225 273,225 273,225 273,225 274,225 274,225 274,225 275,225 275,225 275,225 276,225 276,225 276,225 276,225 277,225 277,225 277,225 278,225 278,225 278,225 279,225 279,225 279,225 280,225 280,225 280,225 280,225 281,225 281,225 281,225 282,225 282,225 282,225 283,225 283,225 283,225 283,225 284,225 284,225 284,225 285,225 285,225 285,225 286,225 286,225 286,225 287,225 287,225 287,225 287,225 288,225 288,225 288,225 289,225 289,225 289,225 290,225 290,225 290,225 291,225 291,225 291,225 291,225 292,225 292,225 292,225 293,225 293,225 293,225 294,225 294,225 294,225 294,225 295,225 295,225 295,225 296,225 296,225 296,225 297,225 297,225 297,225 298,225 298,225 298,225 298,225 299,225 299,225 299,225 300,225 300,225 300,225 301,225 301,225 301,225 301,225 302,225 302,225 302,225 303,225 303,225 303,225 304,225 304,225 304,225 305,225 305,225 305,225 305,225 306,225 306,225 306,225 307,225 307,225 307,225 308,225 308,225 308,225 309,225 309,225 309,225 309,225 310,225 310,225 310,225 311,225 311,225 311,225 312,225 312,225 312,225 312,225 313,225 313,225 313,225 314,225 314,225 314,225 315,225 315,225 315,225 316,225 316,225 316,225 316,225 317,225 317,225 317,225 318,225 318,225 318,225 319,225 319,225 319,225 319,225 320,225 320,225 320,225 321,225 321,225 321,225 322,225 322,225 322,225 323,225 323,225 323,225 323,225 324,225 324,225 324,225 325,225 325,225 325,225 326,225 326,225 326,225 327,225 327,225 327,225 327,225 328,225 328,225 328,225 329,225 329,225 329,225 330,225 330,225 330,225 330,225 331,225 331,225 331,225 332,225 332,225 332,225 333,225 333,225 333,225 334,225 334,225 334,225 334,225 335,225 335,225 335,225 336,225 336,225 336,225 337,225 337,225 337,225 337,225 338,225 338,225 338,225 339,225 339,225 339,225 340,225 340,225 340,225 341,225 341,225 341,225 341,225 342,225 342,225 342,225 343,225 343,225 343,225 344,225 344,225 344,225 345,225 345,225 345,225 345,225 346,225 346,225 346,225 347,225 347,225 347,225 348,225 348,225 348,225 348,225 349,225 349,225 349,225 350,225 350,225 350,225 351,225 351,225 351,225 352,225 352,225 352,225 352,225 353,225 353,225 353,225 354,225 354,225 354,225 355,225 355,225 355,225 355,225 356,225 356,225 356,225 357,225 357,225 357,225 358,225 358,225 358,225 359,225 359,225 359,225 359,225 360,225 360,225 360,225 361,225 361,225 361,225 362,225 362,225 362,225 362,225 363,225 363,225 363,225 364,225 364,225 364,225 365,225 365,225 365,225 366,225 366,225 366,225 366,225 367,225 367,225 367,225 368,225 368,225 368,225 369,225 369,225 369,225 370,225 370,225 370,225 370,225 371,225 371,225 371,225 372,225 372,225 372,225 373,225 373,225 373,225 373,225 374,225 374,225 374,225 375,225 375,225 375,225 376,225 376,225 376,225 377,225 377,225 377,225 377,225 378,225 378,225 378,225 379,225 379,225 379,225 380,225 380,225 380,225 380,225 381,225 381,225 381,225 382,225 382,225 382,225 383,225 383,68 383,68 973,68 "/>
<polygon opacity="1" fill="#E6194B" points="78,699 78,699 78,699 79,699 79,699 79,699 79,699 80,699 80,699 80,699 81,699 81,699 81,699 82,699 82,699 82,699 82,699 83,699 83,699 83,699 84,699 84,699 84,699 85,699 85,699 85,699 86,699 86,699 86,699 86,699 87,699 87,699 87,699 88,699 88,699 88,699 89,699 89,699 89,699 90,699 90,699 90,699 90,699 91,699 91,699 91,699 92,699 92,699 92,699 93,699 93,699 93,699 93,699 94,699 94,699 94,699 95,699 95,699 95,699 96,699 96,699 96,699 97,699 97,699 97,699 97,699 98,699 98,699 98,699 99,699 99,699 99,699 100,699 100,699 100,699 100,699 101,699 101,699 101,699 102,699 102,699 102,699 103,699 103,699 103,699 104,699 104,699 104,699 104,699 105,699 105,699 105,699 106,699 106,699 106,699 107,699 107,699 107,699 108,699 108,699 108,699 108,699 109,699 109,699 109,699 110,699 110,699 110,699 111,699 111,699 111,699 111,699 112,699 112,699 112,699 113,699 113,699 113,699 114,699 114,699 114,699 115,699 115,699 115,699 115,699 116,699 116,699 116,699 117,699 117,699 117,699 118,699 118,699 118,699 118,699 119,699 119,699 119,699 120,699 120,699 120,699 121,699 121,699 121,699 122,699 122,699 122,699 122,699 123,699 123,699 123,699 124,699 124,699 124,699 125,699 125,699 125,699 126,699 126,699 126,699 126,699 127,699 127,699 127,699 128,699 128,699 128,699 129,699 129,699 129,699 129,699 130,699 130,699 130,699 131,699 131,699 131,699 132,699 132,699 132,699 133,699 133,699 133,699 133,699 134,699 134,699 134,699 135,699 135,699 135,699 136,699 136,699 136,699 136,699 137,699 137,699 137,699 138,699 138,699 138,699 139,699 139,699 139,699 140,699 140,699 140,699 140,699 141,699 141,699 141,699 142,699 142,699 142,699 143,699 143,699 143,699 143,699 144,699 144,699 144,699 145,699 145,699 145,699 146,699 146,699 146,699 147,699 147,699 147,699 147,699 148,699 148,699 148,699 149,699 149,699 149,699 150,699 150,699 150,699 151,699 151,699 151,699 151,699 152,699 152,699 152,699 153,699 153,699 153,699 154,699 154,699 154,699 154,699 155,699 155,699 155,699 156,699 156,699 156,699 157,699 157,699 157,699 158,699 158,699 158,699 158,699 159,699 159,699 159,699 160,699 160,699 160,699 161,699 161,699 161,699 161,699 162,699 162,699 162,699 163,699 163,699 163,699 164,699 164,699 164,699 165,699 165,699 165,699 165,699 166,699 166,699 166,699 167,699 167,699 167,699 168,699 168,699 168,699 169,699 169,699 169,699 169,699 170,699 170,699 170,699 171,699 171,699 171,699 172,699 172,699 172,699 172,699 173,699 173,699 173,699 174,699 174,699 174,699 175,699 175,699 175,699 176,699 176,699 176,699 176,699 177,699 177,699 177,699 178,699 178,699 178,699 179,699 179,699 179,699 179,699 180,699 180,699 180,699 181,699 181,699 181,699 182,699 182,699 182,699 183,699 183,699 183,699 183,699 184,699 184,699 184,699 185,699 185,699 185,699 186,699 186,699 186,699 187,699 187,699 187,699 187,699 188,699 188,699 188,699 189,699 189,699 189,699 190,699 190,699 190,699 190,699 191,699 191,699 191,699 192,699 192,699 192,699 193,699 193,699 193,699 194,699 194,699 194,699 194,699 195,699 195,699 195,699 196,699 196,699 196,699 197,699 197,699 197,699 197,699 198,699 198,699 198,699 199,699 199,699 199,699 200,699 200,699 200,699 201,699 201,699 201,699 201,699 202,699 202,699 202,699 203,699 203,699 203,699 204,699 204,699 204,699 205,699 205,699 205,699 205,699 206,699 206,699 206,699 207,699 207,699 207,699 208,699 208,699 208,699 208,699 209,699 209,699 209,699 210,699 210,699 210,699 211,699 211,699 211,699 212,699 212,699 212,699 212,699 213,699 213,699 213,699 214,699 214,699 214,699 215,699 215,699 215,699 215,699 216,699 216,699 216,699 217,699 217,699 217,699 218,699 218,699 218,699 219,699 219,699 219,699 219,699 220,699 220,699 220,699 221,699 221,699 221,699 222,699 222,699 222,699 222,699 223,699 223,699 223,699 224,699 224,699 224,699 225,699 225,699 225,699 226,699 226,699 226,699 226,699 227,699 227,699 227,699 228,699 228,699 228,699 229,699 229,699 229,699 230,699 230,699 230,699 230,699 231,699 231,699 231,699 232,699 232,699 232,699 233,699 233,699 233,699 233,699 234,699 234,699 234,699 235,699 235,699 235,699 236,699 236,699 236,699 237,699 237,699 237,699 237,699 238,699 238,699 238,699 239,699 239,699 239,699 240,699 240,699 240,699 240,699 241,699 241,699 241,699 242,699 242,699 242,699 243,699 243,699 243,699 244,699 244,699 244,699 244,699 245,699 245,699 245,699 246,699 246,699 246,699 247,699 247,699 247,699 248,699 248,699 248,699 248,699 249,699 249,699 249,699 250,699 250,699 250,699 251,699 251,699 251,699 251,699 252,699 252,699 252,699 253,699 253,699 253,699 254,699 254,699 254,699 255,699 255,699 255,699 255,699 256,699 256,699 256,699 257,699 257,699 257,699 258,699 258,699 258,699 258,699 259,699 259,699 259,699 260,699 260,699 260,699 261,699 261,699 261,699 262,699 262,699 262,699 262,699 263,699 263,699 263,699 264,699 264,699 264,699 265,699 265,699 265,699 266,699 266,699 266,699 266,699 267,699 267,699 267,699 268,699 268,699 268,699 269,699 269,699 269,699 269,699 270,699 270,699 270,699 271,699 271,699 271,699 272,699 272,699 272,699 273,699 273,699 273,699 273,699 274,699 274,699 274,699 275,699 275,699 275,699 276,699 276,699 276,699 276,699 277,699 277,699 277,699 278,699 278,699 278,699 279,699 279,699 279,699 280,699 280,699 280,699 280,699 281,699 281,699 281,699 282,699 282,699 282,699 283,699 283,699 283,699 283,699 284,699 284,699 284,699 285,699 285,699 285,699 286,699 286,699 286,699 287,699 287,699 287,699 287,699 288,699 288,699 288,699 289,699 289,699 289,699 290,699 290,699 290,699 291,699 291,699 291,699 291,699 292,699 292,699 292,699 293,699 293,699 293,699 294,699 294,699 294,699 294,699 295,699 295,699 295,699 296,699 296,699 296,699 297,699 297,699 297,699 298,699 298,699 298,699 298,699 299,699 299,699 299,699 300,699 300,699 300,699 301,699 301,699 301,699 301,699 302,699 302,699 302,699 303,699 303,699 303,699 304,699 304,699 304,699 305,699 305,699 305,699 305,699 306,699 306,699 306,699 307,699 307,699 307,699 308,699 308,699 308,699 309,699 309,699 309,699 309,699 310,699 310,699 310,699 311,699 311,699 311,699 312,699 312,699 312,699 312,699 313,699 313,699 313,699 314,699 314,699 314,699 315,699 315,699 315,699 316,699 316,699 316,699 316,699 317,699 317,699 317,699 318,699 318,699 318,699 319,699 319,699 319,699 319,699 320,699 320,699 320,699 321,699 321,699 321,699 322,699 322,699 322,699 323,699 323,699 323,699 323,699 324,699 324,699 324,699 325,699 325,699 325,699 326,699 326,699 326,699 327,699 327,699 327,699 327,699 328,699 328,699 328,699 329,699 329,699 329,699 330,699 330,699 330,699 330,699 331,699 331,699 331,699 332,699 332,699 332,699 333,699 333,699 333,699 334,699 334,699 334,699 334,699 335,699 335,699 335,699 336,699 336,699 336,699 337,699 337,699 337,699 337,699 338,699 338,699 338,699 339,699 339,699 339,699 340,699 340,699 340,699 341,699 341,699 341,699 341,699 342,699 342,699 342,699 343,699 343,699 343,699 344,699 344,699 344,699 345,699 345,699 345,699 345,699 346,699 346,699 346,699 347,699 347,699 347,699 348,699 348,699 348,699 348,699 349,699 349,699 349,699 350,699 350,699 350,699 351,699 351,699 351,699 352,699 352,699 352,699 352,699 353,699 353,699 353,699 354,699 354,699 354,699 355,699 355,699 355,699 355,699 356,699 356,699 356,699 357,699 357,699 357,699 358,699 358,699 358,699 359,699 359,699 359,699 359,699 360,699 360,699 360,699 361,699 361,699 361,699 362,699 362,699 362,699 362,699 363,699 363,699 363,699 364,699 364,699 364,699 365,699 365,699 365,699 366,699 366,699 366,699 366,699 367,699 367,699 367,699 368,699 368,699 368,699 369,699 369,699 369,699 370,699 370,699 370,699 370,699 371,699 371,699 371,699 372,699 372,699 372,699 373,699 373,699 373,699 373,699 374,699 374,699 374,699 375,699 375,699 375,699 376,699 376,699 376,699 377,699 377,699 377,699 377,699 378,699 378,699 378,699 379,699 379,699 379,699 380,699 380,699 380,699 380,699 381,699 381,699 381,699 382,699 382,699 382,699 383,699 383,68 383,68 973,68 973,699 78,699 "/>
<polyline fill="none" opacity="1" stroke="#E6194B" stroke-width="1" points="78,699 78,699 78,699 79,699 79,699 79,699 79,699 80,699 80,699 80,699 81,699 81,699 81,699 82,699 82,699 82,699 82,699 83,699 83,699 83,699 84,699 84,699 84,699 85,699 85,699 85,699 86,699 86,699 86,699 86,699 87,699 87,699 87,699 88,699 88,699 88,699 89,699 89,699 89,699 90,699 90,699 90,699 90,699 91,699 91,699 91,699 92,699 92,699 92,699 93,699 93,699 93,699 93,699 94,699 94,699 94,699 95,699 95,699 95,699 96,699 96,699 96,699 97,699 97,699 97,699 97,699 98,699 98,699 98,699 99,699 99,699 99,699 100,699 100,699 100,699 100,699 101,699 101,699 101,699 102,699 102,699 102,699 103,699 103,699 103,699 104,699 104,699 104,699 104,699 105,699 105,699 105,699 106,699 106,699 106,699 107,699 107,699 107,699 108,699 108,699 108,699 108,699 109,699 109,699 109,699 110,699 110,699 110,699 111,699 111,699 111,699 111,699 112,699 112,699 112,699 113,699 113,699 113,699 114,699 114,699 114,699 115,699 115,699 115,699 115,699 116,699 116,699 116,699 117,699 117,699 117,699 118,699 118,699 118,699 118,699 119,699 119,699 119,699 120,699 120,699 120,699 121,699 121,699 121,699 122,699 122,699 122,699 122,699 123,699 123,699 123,699 124,699 124,699 124,699 125,699 125,699 125,699 126,699 126,699 126,699 126,699 127,699 127,699 127,699 128,699 128,699 128,699 129,699 129,699 129,699 129,699 130,699 130,699 130,699 131,699 131,699 131,699 132,699 132,699 132,699 133,699 133,699 133,699 133,699 134,699 134,699 134,699 135,699 135,699 135,699 136,699 136,699 136,699 136,699 137,699 137,699 137,699 138,699 138,699 138,699 139,699 139,699 139,699 140,699 140,699 140,699 140,699 141,699 141,699 141,699 142,699 142,699 142,699 143,699 143,699 143,699 143,699 144,699 144,699 144,699 145,699 145,699 145,699 146,699 146,699 146,699 147,699 147,699 147,699 147,699 148,699 148,699 148,699 149,699 149,699 149,699 150,699 150,699 150,699 151,699 151,699 151,699 151,699 152,699 152,699 152,699 153,699 153,699 153,699 154,699 154,699 154,699 154,699 155,699 155,699 155,699 156,699 156,699 156,699 157,699 157,699 157,699 158,699 158,699 158,699 158,699 159,699 159,699 159,699 160,699 160,699 160,699 161,699 161,699 161,699 161,699 162,699 162,699 162,699 163,699 163,699 163,699 164,699 164,699 164,699 165,699 165,699 165,699 165,699 166,699 166,699 166,699 167,699 167,699 167,699 168,699 168,699 168,699 169,699 169,699 169,699 169,699 170,699 170,699 170,699 171,699 171,699 171,699 172,699 172,699 172,699 172,699 173,699 173,699 173,699 174,699 174,699 174,699 175,699 175,699 175,699 176,699 176,699 176,699 176,699 177,699 177,699 177,699 178,699 178,699 178,699 179,699 179,699 179,699 179,699 180,699 180,699 180,699 181,699 181,699 181,699 182,699 182,699 182,699 183,699 183,699 183,699 183,699 184,699 184,699 184,699 185,699 185,699 185,699 186,699 186,699 186,699 187,699 187,699 187,699 187,699 188,699 188,699 188,699 189,699 189,699 189,699 190,699 190,699 190,699 190,699 191,699 191,699 191,699 192,699 192,699 192,699 193,699 193,699 193,699 194,699 194,699 194,699 194,699 195,699 195,699 195,699 196,699 196,699 196,699 197,699 197,699 197,699 197,699 198,699 198,699 198,699 199,699 199,699 199,699 200,699 200,699 200,699 201,699 201,699 201,699 201,699 202,699 202,699 202,699 203,699 203,699 203,699 204,699 204,699 204,699 205,699 205,699 205,699 205,699 206,699 206,699 206,699 207,699 207,699 207,699 208,699 208,699 208,699 208,699 209,699 209,699 209,699 210,699 210,699 210,699 211,699 211,699 211,699 212,699 212,699 212,699 212,699 213,699 213,699 213,699 214,699 214,699 214,699 215,699 215,699 215,699 215,699 216,699 216,699 216,699 217,699 217,699 217,699 218,699 218,699 218,699 219,699 219,699 219,699 219,699 220,699 220,699 220,699 221,699 221,699 221,699 222,699 222,699 222,699 222,699 223,699 223,699 223,699 224,699 224,699 224,699 225,699 225,699 225,699 226,699 226,699 226,699 226,699 227,699 227,699 227,699 228,699 228,699 228,699 229,699 229,699 229,699 230,699 230,699 230,699 230,699 231,699 231,699 231,699 232,699 232,699 232,699 233,699 233,699 233,699 233,699 234,699 234,699 234,699 235,699 235,699 235,699 236,699 236,699 236,699 237,699 237,699 237,699 237,699 238,699 238,699 238,699 239,699 239,699 239,699 240,699 240,699 240,699 240,699 241,699 241,699 241,699 242,699 242,699 242,699 243,699 243,699 243,699 244,699 244,699 244,699 244,699 245,699 245,699 245,699 246,699 246,699 246,699 247,699 247,699 247,699 248,699 248,699 248,699 248,699 249,699 249,699 249,699 250,699 250,699 250,699 251,699 251,699 251,699 251,699 252,699 252,699 252,699 253,699 253,699 253,699 254,699 254,699 254,699 255,699 255,699 255,699 255,699 256,699 256,699 256,699 257,699 257,699 257,699 258,699 258,699 258,699 258,699 259,699 259,699 259,699 260,699 260,699 260,699 261,699 261,699 261,699 262,699 262,699 262,699 262,699 263,699 263,699 263,699 264,699 264,699 264,699 265,699 265,699 265,699 266,699 266,699 266,699 266,699 267,699 267,699 267,699 268,699 268,699 268,699 269,699 269,699 269,699 269,699 270,699 270,699 270,699 271,699 271,699 271,699 272,699 272,699 272,699 273,699 273,699 273,699 273,699 274,699 274,699 274,699 275,699 275,699 275,699 276,699 276,699 276,699 276,699 277,699 277,699 277,699 278,699 278,699 278,699 279,699 279,699 279,699 280,699 280,699 280,699 280,699 281,699 281,699 281,699 282,699 282,699 282,699 283,699 283,699 283,699 283,699 284,699 284,699 284,699 285,699 285,699 285,699 286,699 286,699 286,699 287,699 287,699 287,699 287,699 288,699 288,699 288,699 289,699 289,699 289,699 290,699 290,699 290,699 291,699 291,699 291,699 291,699 292,699 292,699 292,699 293,699 293,699 293,699 294,699 294,699 294,699 294,699 295,699 295,699 295,699 296,699 296,699 296,699 297,699 297,699 297,699 298,699 298,699 298,699 298,699 299,699 299,699 299,699 300,699 300,699 300,699 301,699 301,699 301,699 301,699 302,699 302,699 302,699 303,699 303,699 303,699 304,699 304,699 304,699 305,699 305,699 305,699 305,699 306,699 306,699 306,699 307,699 307,699 307,699 308,699 308,699 308,699 309,699 309,699 309,699 309,699 310,699 310,699 310,699 311,699 311,699 311,699 312,699 312,699 312,699 312,699 313,699 313,699 313,699 314,699 314,699 314,699 315,699 315,699 315,699 316,699 316,699 316,699 316,699 317,699 317,699 317,699 318,699 318,699 318,699 319,699 319,699 319,699 319,699 320,699 320,699 320,699 321,699 321,699 321,699 322,699 322,699 322,699 323,699 323,699 323,699 323,699 324,699 324,699 324,699 325,699 325,699 325,699 326,699 326,699 326,699 327,699 327,699 327,699 327,699 328,699 328,699 328,699 329,699 329,699 329,699 330,699 330,699 330,699 330,699 331,699 331,699 331,699 332,699 332,699 332,699 333,699 333,699 333,699 334,699 334,699 334,699 334,699 335,699 335,699 335,699 336,699 336,699 336,699 337,699 337,699 337,699 337,699 338,699 338,699 338,699 339,699 339,699 339,699 340,699 340,699 340,699 341,699 341,699 341,699 341,699 342,699 342,699 342,699 343,699 343,699 343,699 344,699 344,699 344,699 345,699 345,699 345,699 345,699 346,699 346,699 346,699 347,699 347,699 347,699 348,699 348,699 348,699 348,699 349,699 349,699 349,699 350,699 350,699 350,699 351,699 351,699 351,699 352,699 352,699 352,699 352,699 353,699 353,699 353,699 354,699 354,699 354,699 355,699 355,699 355,699 355,699 356,699 356,699 356,699 357,699 357,699 357,699 358,699 358,699 358,699 359,699 359,699 359,699 359,699 360,699 360,699 360,699 361,699 361,699 361,699 362,699 362,699 362,699 362,699 363,699 363,699 363,699 364,699 364,699 364,699 365,699 365,699 365,699 366,699 366,699 366,699 366,699 367,699 367,699 367,699 368,699 368,699 368,699 369,699 369,699 369,699 370,699 370,699 370,699 370,699 371,699 371,699 371,699 372,699 372,699 372,699 373,699 373,699 373,699 373,699 374,699 374,699 374,699 375,699 375,699 375,699 376,699 376,699 376,699 377,699 377,699 377,699 377,699 378,699 378,699 378,699 379,699 379,699 379,699 380,699 380,699 380,699 380,699 381,699 381,699 381,699 382,699 382,699 382,699 383,699 383,68 383,68 973,68 "/>
<line opacity="0.1" stroke="#000000" stroke-width="1" x1="84" y1="699" x2="84" y2="68"/>
<line opacity="0.1" stroke="#000000" stroke-width="1" x1="94" y1="699" x2="94" y2="68"/>
<line opacity="0.1" stroke="#000000" stroke-width="1" x1="105" y1="699" x2="105" y2="68"/>
<line opacity="0.1" stroke="#000000" stroke-width="1" x1="115" y1="699" x2="115" y2="68"/>
<line opacity="0.1" stroke="#000000" stroke-width="1" x1="126" y1="699" x2="126" y2="68"/>
<line opacity="0.1" stroke="#000000" stroke-width="1" x1="137" y1="699" x2="137" y2="68"/>
<line opacity="0.1" stroke="#000000" stroke-width="1" x1="147" y1="699" x2="147" y2="68"/>
<line opacity="0.1" stroke="#000000" stroke-width="1" x1="158" y1="699" x2="158" y2="68"/>
<line opacity="0.1" stroke="#000000" stroke-width="1" x1="168" y1="699" x2="168" y2="68"/>
<line opacity="0.1" stroke="#000000" stroke-width="1" x1="179" y1="699" x2="179" y2="68"/>
<line opacity="0.1" stroke="#000000" stroke-width="1" x1="189" y1="699" x2="189" y2="68"/>
<line opacity="0.1" stroke="#000000" stroke-width="1" x1="200" y1="699" x2="200" y2="68"/>
<line opacity="0.1" stroke="#000000" stroke-width="1" x1="211" y1="699" x2="211" y2="68"/>
<line opacity="0.1" stroke="#000000" stroke-width="1" x1="221" y1="699" x2="221" y2="68"/>
<line opacity="0.1" stroke="#000000" stroke-width="1" x1="232" y1="699" x2="232" y2="68"/>
<line opacity="0.1" stroke="#000000" stroke-width="1" x1="242" y1="699" x2="242" y2="68"/>
<line opacity="0.1" stroke="#000000" stroke-width="1" x1="253" y1="699" x2="253" y2="68"/>
<line opacity="0.1" stroke="#000000" stroke-width="1" x1="264" y1="699" x2="264" y2="68"/>
<line opacity="0.1" stroke="#000000" stroke-width="1" x1="274" y1="699" x2="274" y2="68"/>
<line opacity="0.1" stroke="#000000" stroke-width="1" x1="285" y1="699" x2="285" y2="68"/>
<line opacity="0.1" stroke="#000000" stroke-width="1" x1="295" y1="699" x2="295" y2="68"/>
<line opacity="0.1" stroke="#000000" stroke-width="1" x1="306" y1="699" x2="306" y2="68"/>
<line opacity="0.1" stroke="#000000" stroke-width="1" x1="316" y1="699" x2="316" y2="68"/>
<line opacity="0.1" stroke="#000000" stroke-width="1" x1="327" y1="699" x2="327" y2="68"/>
<line opacity="0.1" stroke="#000000" stroke-width="1" x1="338" y1="699" x2="338" y2="68"/>
<line opacity="0.1" stroke="#000000" stroke-width="1" x1="348" y1="699" x2="348" y2="68"/>
<line opacity="0.1" stroke="#000000" stroke-width="1" x1="359" y1="699" x2="359" y2="68"/>
<line opacity="0.1" stroke="#000000" stroke-width="1" x1="369" y1="699" x2="369" y2="68"/>
<line opacity="0.1" stroke="#000000" stroke-width="1" x1="380" y1="699" x2="380" y2="68"/>
<line opacity="0.1" stroke="#000000" stroke-width="1" x1="390" y1="699" x2="390" y2="68"/>
<line opacity="0.1" stroke="#000000" stroke-width="1" x1="401" y1="699" x2="401" y2="68"/>
<line opacity="0.1" stroke="#000000" stroke-width="1" x1="412" y1="699" x2="412" y2="68"/>
<line opacity="0.1" stroke="#000000" stroke-width="1" x1="422" y1="699" x2="422" y2="68"/>
<line opacity="0.1" stroke="#000000" stroke-width="1" x1="433" y1="699" x2="433" y2="68"/>
<line opacity="0.1" stroke="#000000" stroke-width="1" x1="443" y1="699" x2="443" y2="68"/>
<line opacity="0.1" stroke="#000000" stroke-width="1" x1="454" y1="699" x2="454" y2="68"/>
<line opacity="0.1" stroke="#000000" stroke-width="1" x1="464" y1="699" x2="464" y2="68"/>
<line opacity="0.1" stroke="#000000" stroke-width="1" x1="475" y1="699" x2="475" y2="68"/>
<line opacity="0.1" stroke="#000000" stroke-width="1" x1="486" y1="699" x2="486" y2="68"/>
<line opacity="0.1" stroke="#000000" stroke-width="1" x1="496" y1="699" x2="496" y2="68"/>
<line opacity="0.1" stroke="#000000" stroke-width="1" x1="507" y1="699" x2="507" y2="68"/>
<line opacity="0.1" stroke="#000000" stroke-width="1" x1="517" y1="699" x2="517" y2="68"/>
<line opacity="0.1" stroke="#000000" stroke-width="1" x1="528" y1="699" x2="528" y2="68"/>
<line opacity="0.1" stroke="#000000" stroke-width="1" x1="538" y1="699" x2="538" y2="68"/>
<line opacity="0.1" stroke="#000000" stroke-width="1" x1="549" y1="699" x2="549" y2="68"/>
<line opacity="0.1" stroke="#000000" stroke-width="1" x1="560" y1="699" x2="560" y2="68"/>
<line opacity="0.1" stroke="#000000" stroke-width="1" x1="570" y1="699" x2="570" y2="68"/>
<line opacity="0.1" stroke="#000000" stroke-width="1" x1="581" y1="699" x2="581" y2="68"/>
<line opacity="0.1" stroke="#000000" stroke-width="1" x1="591" y1="699" x2="591" y2="68"/>
<line opacity="0.1" stroke="#000000" stroke-width="1" x1="602" y1="699" x2="602" y2="68"/>
<line opacity="0.1" stroke="#000000" stroke-width="1" x1="612" y1="699" x2="612" y2="68"/>
<line opacity="0.1" stroke="#000000" stroke-width="1" x1="623" y1="699" x2="623" y2="68"/>
<line opacity="0.1" stroke="#000000" stroke-width="1" x1="634" y1="699" x2="634" y2="68"/>
<line opacity="0.1" stroke="#000000" stroke-width="1" x1="644" y1="699" x2="644" y2="68"/>
<line opacity="0.1" stroke="#000000" stroke-width="1" x1="655" y1="699" x2="655" y2="68"/>
<line opacity="0.1" stroke="#000000" stroke-width="1" x1="665" y1="699" x2="665" y2="68"/>
<line opacity="0.1" stroke="#000000" stroke-width="1" x1="676" y1="699" x2="676" y2="68"/>
<line opacity="0.1" stroke="#000000" stroke-width="1" x1="687" y1="699" x2="687" y2="68"/>
<line opacity="0.1" stroke="#000000" stroke-width="1" x1="697" y1="699" x2="697" y2="68"/>
<line opacity="0.1" stroke="#000000" stroke-width="1" x1="708" y1="699" x2="708" y2="68"/>
<line opacity="0.1" stroke="#000000" stroke-width="1" x1="718" y1="699" x2="718" y2="68"/>
<line opacity="0.1" stroke="#000000" stroke-width="1" x1="729" y1="699" x2="729" y2="68"/>
<line opacity="0.1" stroke="#000000" stroke-width="1" x1="739" y1="699" x2="739" y2="68"/>
<line opacity="0.1" stroke="#000000" stroke-width="1" x1="750" y1="699" x2="750" y2="68"/>
<line opacity="0.1" stroke="#000000" stroke-width="1" x1="761" y1="699" x2="761" y2="68"/>
<line opacity="0.1" stroke="#000000" stroke-width="1" x1="771" y1="699" x2="771" y2="68"/>
<line opacity="0.1" stroke="#000000" stroke-width="1" x1="782" y1="699" x2="782" y2="68"/>
<line opacity="0.1" stroke="#000000" stroke-width="1" x1="792" y1="699" x2="792" y2="68"/>
<line opacity="0.1" stroke="#000000" stroke-width="1" x1="803" y1="699" x2="803" y2="68"/>
<line opacity="0.1" stroke="#000000" stroke-width="1" x1="813" y1="699" x2="813" y2="68"/>
<line opacity="0.1" stroke="#000000" stroke-width="1" x1="824" y1="699" x2="824" y2="68"/>
<line opacity="0.1" stroke="#000000" stroke-width="1" x1="835" y1="699" x2="835" y2="68"/>
<line opacity="0.1" stroke="#000000" stroke-width="1" x1="845" y1="699" x2="845" y2="68"/>
<line opacity="0.1" stroke="#000000" stroke-width="1" x1="856" y1="699" x2="856" y2="68"/>
<line opacity="0.1" stroke="#000000" stroke-width="1" x1="866" y1="699" x2="866" y2="68"/>
<line opacity="0.1" stroke="#000000" stroke-width="1" x1="877" y1="699" x2="877" y2="68"/>
<line opacity="0.1" stroke="#000000" stroke-width="1" x1="887" y1="699" x2="887" y2="68"/>
<line opacity="0.1" stroke="#000000" stroke-width="1" x1="898" y1="699" x2="898" y2="68"/>
<line opacity="0.1" stroke="#000000" stroke-width="1" x1="909" y1="699" x2="909" y2="68"/>
<line opacity="0.1" stroke="#000000" stroke-width="1" x1="919" y1="699" x2="919" y2="68"/>
<line opacity="0.1" stroke="#000000" stroke-width="1" x1="930" y1="699" x2="930" y2="68"/>
<line opacity="0.1" stroke="#000000" stroke-width="1" x1="940" y1="699" x2="940" y2="68"/>
<line opacity="0.1" stroke="#000000" stroke-width="1" x1="951" y1="699" x2="951" y2="68"/>
<line opacity="0.1" stroke="#000000" stroke-width="1" x1="961" y1="699" x2="961" y2="68"/>
<line opacity="0.1" stroke="#000000" stroke-width="1" x1="972" y1="699" x2="972" y2="68"/>
<line opacity="0.1" stroke="#000000" stroke-width="1" x1="78" y1="699" x2="973" y2="699"/>
<line opacity="0.1" stroke="#000000" stroke-width="1" x1="78" y1="690" x2="973" y2="690"/>
<line opacity="0.1" stroke="#000000" stroke-width="1" x1="78" y1="682" x2="973" y2="682"/>
<line opacity="0.1" stroke="#000000" stroke-width="1" x1="78" y1="673" x2="973" y2="673"/>
<line opacity="0.1" stroke="#000000" stroke-width="1" x1="78" y1="665" x2="973" y2="665"/>
<line opacity="0.1" stroke="#000000" stroke-width="1" x1="78" y1="656" x2="973" y2="656"/>
<line opacity="0.1" stroke="#000000" stroke-width="1" x1="78" y1="648" x2="973" y2="648"/>
<line opacity="0.1" stroke="#000000" stroke-width="1" x1="78" y1="639" x2="973" y2="639"/>
<line opacity="0.1" stroke="#000000" stroke-width="1" x1="78" y1="631" x2="973" y2="631"/>
<line opacity="0.1" stroke="#000000" stroke-width="1" x1="78" y1="622" x2="973" y2="622"/>
<line opacity="0.1" stroke="#000000" stroke-width="1" x1="78" y1="614" x2="973" y2="614"/>
<line opacity="0.1" stroke="#000000" stroke-width="1" x1="78" y1="605" x2="973" y2="605"/>
<line opacity="0.1" stroke="#000000" stroke-width="1" x1="78" y1="597" x2="973" y2="597"/>
<line opacity="0.1" stroke="#000000" stroke-width="1" x1="78" y1="588" x2="973" y2="588"/>
<line opacity="0.1" stroke="#000000" stroke-width="1" x1="78" y1="580" x2="973" y2="580"/>
<line opacity="0.1" stroke="#000000" stroke-width="1" x1="78" y1="571" x2="973" y2="571"/>
<line opacity="0.1" stroke="#000000" stroke-width="1" x1="78" y1="563" x2="973" y2="563"/>
<line opacity="0.1" stroke="#000000" stroke-width="1" x1="78" y1="554" x2="973" y2="554"/>
<line opacity="0.1" stroke="#000000" stroke-width="1" x1="78" y1="546" x2="973" y2="546"/>
<line opacity="0.1" stroke="#000000" stroke-width="1" x1="78" y1="537" x2="973" y2="537"/>
<line opacity="0.1" stroke="#000000" stroke-width="1" x1="78" y1="529" x2="973" y2="529"/>
<line opacity="0.1" stroke="#000000" stroke-width="1" x1="78" y1="520" x2="973" y2="520"/>
<line opacity="0.1" stroke="#000000" stroke-width="1" x1="78" y1="512" x2="973" y2="512"/>
<line opacity="0.1" stroke="#000000" stroke-width="1" x1="78" y1="503" x2="973" y2="503"/>
<line opacity="0.1" stroke="#000000" stroke-width="1" x1="78" y1="495" x2="973" y2="495"/>
<line opacity="0.1" stroke="#000000" stroke-width="1" x1="78" y1="486" x2="973" y2="486"/>
<line opacity="0.1" stroke="#000000" stroke-width="1" x1="78" y1="478" x2="973" y2="478"/>
<line opacity="0.1" stroke="#000000" stroke-width="1" x1="78" y1="469" x2="973" y2="469"/>
<line opacity="0.1" stroke="#000000" stroke-width="1" x1="78" y1="461" x2="973" y2="461"/>
<line opacity="0.1" stroke="#000000" stroke-width="1" x1="78" y1="452" x2="973" y2="452"/>
<line opacity="0.1" stroke="#000000" stroke-width="1" x1="78" y1="444" x2="973" y2="444"/>
<line opacity="0.1" stroke="#000000" stroke-width="1" x1="78" y1="435" x2="973" y2="435"/>
<line opacity="0.1" stroke="#000000" stroke-width="1" x1="78" y1="427" x2="973" y2="427"/>
<line opacity="0.1" stroke="#000000" stroke-width="1" x1="78" y1="418" x2="973" y2="418"/>
<line opacity="0.1" stroke="#000000" stroke-width="1" x1="78" y1="410" x2="973" y2="410"/>
<line opacity="0.1" stroke="#000000" stroke-width="1" x1="78" y1="401" x2="973" y2="401"/>
<line opacity="0.1" stroke="#000000" stroke-width="1" x1="78" y1="393" x2="973" y2="393"/>
<line opacity="0.1" stroke="#000000" stroke-width="1" x1="78" y1="384" x2="973" y2="384"/>
<line opacity="0.1" stroke="#000000" stroke-width="1" x1="78" y1="376" x2="973" y2="376"/>
<line opacity="0.1" stroke="#000000" stroke-width="1" x1="78" y1="367" x2="973" y2="367"/>
<line opacity="0.1" stroke="#000000" stroke-width="1" x1="78" y1="359" x2="973" y2="359"/>
<line opacity="0.1" stroke="#000000" stroke-width="1" x1="78" y1="350" x2="973" y2="350"/>
<line opacity="0.1" stroke="#000000" stroke-width="1" x1="78" y1="342" x2="973" y2="342"/>
<line opacity="0.1" stroke="#000000" stroke-width="1" x1="78" y1="333" x2="973" y2="333"/>
<line opacity="0.1" stroke="#000000" stroke-width="1" x1="78" y1="325" x2="973" y2="325"/>
<line opacity="0.1" stroke="#000000" stroke-width="1" x1="78" y1="316" x2="973" y2="316"/>
<line opacity="0.1" stroke="#000000" stroke-width="1" x1="78" y1="308" x2="973" y2="308"/>
<line opacity="0.1" stroke="#000000" stroke-width="1" x1="78" y1="299" x2="973" y2="299"/>
<line opacity="0.1" stroke="#000000" stroke-width="1" x1="78" y1="291" x2="973" y2="291"/>
<line opacity="0.1" stroke="#000000" stroke-width="1" x1="78" y1="282" x2="973" y2="282"/>
<line opacity="0.1" stroke="#000000" stroke-width="1" x1="78" y1="274" x2="973" y2="274"/>
<line opacity="0.1" stroke="#000000" stroke-width="1" x1="78" y1="265" x2="973" y2="265"/>
<line opacity="0.1" stroke="#000000" stroke-width="1" x1="78" y1="257" x2="973" y2="257"/>
<line opacity="0.1" stroke="#000000" stroke-width="1" x1="78" y1="248" x2="973" y2="248"/>
<line opacity="0.1" stroke="#000000" stroke-width="1" x1="78" y1="240" x2="973" y2="240"/>
<line opacity="0.1" stroke="#000000" stroke-width="1" x1="78" y1="231" x2="973" y2="231"/>
<line opacity="0.1" stroke="#000000" stroke-width="1" x1="78" y1="223" x2="973" y2="223"/>
<line opacity="0.1" stroke="#000000" stroke-width="1" x1="78" y1="214" x2="973" y2="214"/>
<line opacity="0.1" stroke="#000000" stroke-width="1" x1="78" y1="206" x2="973" y2="206"/>
<line opacity="0.1" stroke="#000000" stroke-width="1" x1="78" y1="197" x2="973" y2="197"/>
<line opacity="0.1" stroke="#000000" stroke-width="1" x1="78" y1="189" x2="973" y2="189"/>
<line opacity="0.1" stroke="#000000" stroke-width="1" x1="78" y1="180" x2="973" y2="180"/>
<line opacity="0.1" stroke="#000000" stroke-width="1" x1="78" y1="172" x2="973" y2="172"/>
<line opacity="0.1" stroke="#000000" stroke-width="1" x1="78" y1="163" x2="973" y2="163"/>
<line opacity="0.1" stroke="#000000" stroke-width="1" x1="78" y1="155" x2="973" y2="155"/>
<line opacity="0.1" stroke="#000000" stroke-width="1" x1="78" y1="146" x2="973" y2="146"/>
<line opacity="0.1" stroke="#000000" stroke-width="1" x1="78" y1="138" x2="973" y2="138"/>
<line opacity="0.1" stroke="#000000" stroke-width="1" x1="78" y1="129" x2="973" y2="129"/>
<line opacity="0.1" stroke="#000000" stroke-width="1" x1="78" y1="121" x2="973" y2="121"/>
<line opacity="0.1" stroke="#000000" stroke-width="1" x1="78" y1="112" x2="973" y2="112"/>
<line opacity="0.1" stroke="#000000" stroke-width="1" x1="78" y1="104" x2="973" y2="104"/>
<line opacity="0.1" stroke="#000000" stroke-width="1" x1="78" y1="95" x2="973" y2="95"/>
<line opacity="0.1" stroke="#000000" stroke-width="1" x1="78" y1="87" x2="973" y2="87"/>
<line opacity="0.1" stroke="#000000" stroke-width="1" x1="78" y1="78" x2="973" y2="78"/>
<line opacity="0.1" stroke="#000000" stroke-width="1" x1="78" y1="70" x2="973" y2="70"/>
<text x="8" y="384" dy="0.76em" text-anchor="middle" font-family="sans-serif" font-size="9.67741935483871" opacity="1" fill="#000000" transform="rotate(270, 8, 384)">
Memory usage
</text>
<text x="526" y="760" dy="-0.5ex" text-anchor="middle" font-family="sans-serif" font-size="9.67741935483871" opacity="1" fill="#000000">
Time
</text>
<line opacity="0.2" stroke="#000000" stroke-width="1" x1="105" y1="699" x2="105" y2="68"/>
<line opacity="0.2" stroke="#000000" stroke-width="1" x1="211" y1="699" x2="211" y2="68"/>
<line opacity="0.2" stroke="#000000" stroke-width="1" x1="316" y1="699" x2="316" y2="68"/>
<line opacity="0.2" stroke="#000000" stroke-width="1" x1="422" y1="699" x2="422" y2="68"/>
<line opacity="0.2" stroke="#000000" stroke-width="1" x1="528" y1="699" x2="528" y2="68"/>
<line opacity="0.2" stroke="#000000" stroke-width="1" x1="634" y1="699" x2="634" y2="68"/>
<line opacity="0.2" stroke="#000000" stroke-width="1" x1="739" y1="699" x2="739" y2="68"/>
<line opacity="0.2" stroke="#000000" stroke-width="1" x1="845" y1="699" x2="845" y2="68"/>
<line opacity="0.2" stroke="#000000" stroke-width="1" x1="951" y1="699" x2="951" y2="68"/>
<line opacity="0.2" stroke="#000000" stroke-width="1" x1="78" y1="699" x2="973" y2="699"/>
<line opacity="0.2" stroke="#000000" stroke-width="1" x1="78" y1="614" x2="973" y2="614"/>
<line opacity="0.2" stroke="#000000" stroke-width="1" x1="78" y1="529" x2="973" y2="529"/>
<line opacity="0.2" stroke="#000000" stroke-width="1" x1="78" y1="444" x2="973" y2="444"/>
<line opacity="0.2" stroke="#000000" stroke-width="1" x1="78" y1="359" x2="973" y2="359"/>
<line opacity="0.2" stroke="#000000" stroke-width="1" x1="78" y1="274" x2="973" y2="274"/>
<line opacity="0.2" stroke="#000000" stroke-width="1" x1="78" y1="189" x2="973" y2="189"/>
<line opacity="0.2" stroke="#000000" stroke-width="1" x1="78" y1="104" x2="973" y2="104"/>
<polyline fill="none" opacity="1" stroke="#000000" stroke-width="1" points="77,68 77,699 "/>
<text x="68" y="699" dy="0.5ex" text-anchor="end" font-family="sans-serif" font-size="9.67741935483871" opacity="1" fill="#000000">
0 MB
</text>
<polyline fill="none" opacity="1" stroke="#000000" stroke-width="1" points="72,699 77,699 "/>
<text x="68" y="614" dy="0.5ex" text-anchor="end" font-family="sans-serif" font-size="9.67741935483871" opacity="1" fill="#000000">
47 MB
</text>
<polyline fill="none" opacity="1" stroke="#000000" stroke-width="1" points="72,614 77,614 "/>
<text x="68" y="529" dy="0.5ex" text-anchor="end" font-family="sans-serif" font-size="9.67741935483871" opacity="1" fill="#000000">
95 MB
</text>
<polyline fill="none" opacity="1" stroke="#000000" stroke-width="1" points="72,529 77,529 "/>
<text x="68" y="444" dy="0.5ex" text-anchor="end" font-family="sans-serif" font-size="9.67741935483871" opacity="1" fill="#000000">
143 MB
</text>
<polyline fill="none" opacity="1" stroke="#000000" stroke-width="1" points="72,444 77,444 "/>
<text x="68" y="359" dy="0.5ex" text-anchor="end" font-family="sans-serif" font-size="9.67741935483871" opacity="1" fill="#000000">
190 MB
</text>
<polyline fill="none" opacity="1" stroke="#000000" stroke-width="1" points="72,359 77,359 "/>
<text x="68" y="274" dy="0.5ex" text-anchor="end" font-family="sans-serif" font-size="9.67741935483871" opacity="1" fill="#000000">
238 MB
</text>
<polyline fill="none" opacity="1" stroke="#000000" stroke-width="1" points="72,274 77,274 "/>
<text x="68" y="189" dy="0.5ex" text-anchor="end" font-family="sans-serif" font-size="9.67741935483871" opacity="1" fill="#000000">
286 MB
</text>
<polyline fill="none" opacity="1" stroke="#000000" stroke-width="1" points="72,189 77,189 "/>
<text x="68" y="104" dy="0.5ex" text-anchor="end" font-family="sans-serif" font-size="9.67741935483871" opacity="1" fill="#000000">
333 MB
</text>
<polyline fill="none" opacity="1" stroke="#000000" stroke-width="1" points="72,104 77,104 "/>
<polyline fill="none" opacity="1" stroke="#000000" stroke-width="1" points="78,700 973,700 "/>
<text x="105" y="710" dy="0.76em" text-anchor="middle" font-family="sans-serif" font-size="9.67741935483871" opacity="1" fill="#000000">
07 20:33:20
</text>
<polyline fill="none" opacity="1" stroke="#000000" stroke-width="1" points="105,700 105,705 "/>
<text x="211" y="710" dy="0.76em" text-anchor="middle" font-family="sans-serif" font-size="9.67741935483871" opacity="1" fill="#000000">
08 10:26:40
</text>
<polyline fill="none" opacity="1" stroke="#000000" stroke-width="1" points="211,700 211,705 "/>
<text x="316" y="710" dy="0.76em" text-anchor="middle" font-family="sans-serif" font-size="9.67741935483871" opacity="1" fill="#000000">
09 00:20:00
</text>
<polyline fill="none" opacity="1" stroke="#000000" stroke-width="1" points="316,700 316,705 "/>
<text x="422" y="710" dy="0.76em" text-anchor="middle" font-family="sans-serif" font-size="9.67741935483871" opacity="1" fill="#000000">
09 14:13:20
</text>
<polyline fill="none" opacity="1" stroke="#000000" stroke-width="1" points="422,700 422,705 "/>
<text x="528" y="710" dy="0.76em" text-anchor="middle" font-family="sans-serif" font-size="9.67741935483871" opacity="1" fill="#000000">
10 04:06:40
</text>
<polyline fill="none" opacity="1" stroke="#000000" stroke-width="1" points="528,700 528,705 "/>
<text x="634" y="710" dy="0.76em" text-anchor="middle" font-family="sans-serif" font-size="9.67741935483871" opacity="1" fill="#000000">
10 18:00:00
</text>
<polyline fill="none" opacity="1" stroke="#000000" stroke-width="1" points="634,700 634,705 "/>
<text x="739" y="710" dy="0.76em" text-anchor="middle" font-family="sans-serif" font-size="9.67741935483871" opacity="1" fill="#000000">
11 07:53:20
</text>
<polyline fill="none" opacity="1" stroke="#000000" stroke-width="1" points="739,700 739,705 "/>
<text x="845" y="710" dy="0.76em" text-anchor="middle" font-family="sans-serif" font-size="9.67741935483871" opacity="1" fill="#000000">
11 21:46:40
</text>
<polyline fill="none" opacity="1" stroke="#000000" stroke-width="1" points="845,700 845,705 "/>
<text x="951" y="710" dy="0.76em" text-anchor="middle" font-family="sans-serif" font-size="9.67741935483871" opacity="1" fill="#000000">
12 11:40:00
</text>
<polyline fill="none" opacity="1" stroke="#000000" stroke-width="1" points="951,700 951,705 "/>
<polyline fill="none" opacity="1" stroke="#000000" stroke-width="1" points="78,67 974,67 "/>
<text x="105" y="58" dy="-0.5ex" text-anchor="middle" font-family="sans-serif" font-size="9.67741935483871" opacity="1" fill="#000000">
+03:35:44
</text>
<polyline fill="none" opacity="1" stroke="#000000" stroke-width="1" points="105,62 105,67 "/>
<text x="211" y="58" dy="-0.5ex" text-anchor="middle" font-family="sans-serif" font-size="9.67741935483871" opacity="1" fill="#000000">
+17:29:04
</text>
<polyline fill="none" opacity="1" stroke="#000000" stroke-width="1" points="211,62 211,67 "/>
<text x="317" y="58" dy="-0.5ex" text-anchor="middle" font-family="sans-serif" font-size="9.67741935483871" opacity="1" fill="#000000">
+31:22:24
</text>
<polyline fill="none" opacity="1" stroke="#000000" stroke-width="1" points="317,62 317,67 "/>
<text x="423" y="58" dy="-0.5ex" text-anchor="middle" font-family="sans-serif" font-size="9.67741935483871" opacity="1" fill="#000000">
+45:15:44
</text>
<polyline fill="none" opacity="1" stroke="#000000" stroke-width="1" points="423,62 423,67 "/>
<text x="528" y="58" dy="-0.5ex" text-anchor="middle" font-family="sans-serif" font-size="9.67741935483871" opacity="1" fill="#000000">
+59:09:04
</text>
<polyline fill="none" opacity="1" stroke="#000000" stroke-width="1" points="528,62 528,67 "/>
<text x="634" y="58" dy="-0.5ex" text-anchor="middle" font-family="sans-serif" font-size="9.67741935483871" opacity="1" fill="#000000">
+73:02:24
</text>
<polyline fill="none" opacity="1" stroke="#000000" stroke-width="1" points="634,62 634,67 "/>
<text x="740" y="58" dy="-0.5ex" text-anchor="middle" font-family="sans-serif" font-size="9.67741935483871" opacity="1" fill="#000000">
+86:55:44
</text>
<polyline fill="none" opacity="1" stroke="#000000" stroke-width="1" points="740,62 740,67 "/>
<text x="846" y="58" dy="-0.5ex" text-anchor="middle" font-family="sans-serif" font-size="9.67741935483871" opacity="1" fill="#000000">
+100:49:04
</text>
<polyline fill="none" opacity="1" stroke="#000000" stroke-width="1" points="846,62 846,67 "/>
<text x="952" y="58" dy="-0.5ex" text-anchor="middle" font-family="sans-serif" font-size="9.67741935483871" opacity="1" fill="#000000">
+114:42:24
</text>
<polyline fill="none" opacity="1" stroke="#000000" stroke-width="1" points="952,62 952,67 "/>
<rect x="83" y="73" width="99" height="45" opacity="0.75" fill="#FFFFFF" stroke="none"/>
<rect x="83" y="73" width="99" height="45" opacity="1" fill="none" stroke="#000000"/>
<text x="123" y="83" dy="0.76em" text-anchor="start" font-family="sans-serif" font-size="9.67741935483871" opacity="1" fill="#000000">
Temporary
</text>
<text x="123" y="98" dy="0.76em" text-anchor="start" font-family="sans-serif" font-size="9.67741935483871" opacity="1" fill="#000000">
Leaked
</text>
<rect x="93" y="83" width="10" height="10" opacity="1" fill="#3CB44B" stroke="none"/>
<rect x="93" y="98" width="10" height="10" opacity="1" fill="#E6194B" stroke="none"/>
</svg>
