<svg width="1024" height="768" viewBox="0 0 1024 768" xmlns="http://www.w3.org/2000/svg">
<rect x="0" y="0" width="1024" height="768" opacity="1" fill="#FFFFFF" stroke="none"/>
<polygon opacity="1" fill="#3CB44B" points="78,697 79,695 80,694 81,693 82,692 83,691 83,690 84,689 85,687 86,686 87,685 88,684 89,683 90,681 91,680 92,679 92,678 93,677 94,676 95,675 96,673 97,672 98,671 99,670 100,669 100,668 101,666 102,665 103,664 104,663 105,662 106,661 107,660 108,658 109,657 109,656 110,655 111,654 112,652 113,651 114,650 115,649 116,648 117,646 117,645 118,644 119,643 120,642 121,640 122,639 123,638 124,637 125,636 126,635 126,633 127,632 128,631 129,630 130,629 131,627 132,626 133,625 134,624 134,623 135,621 136,620 137,619 138,618 139,617 140,616 141,614 142,613 143,612 143,611 144,610 145,609 146,607 147,606 148,605 149,604 150,603 151,602 151,600 152,599 153,598 154,597 155,596 156,594 157,593 158,592 159,591 160,590 160,589 161,587 162,586 163,585 164,584 165,583 166,581 167,580 168,579 168,578 169,577 170,576 171,574 172,573 173,572 174,571 175,570 176,568 177,567 177,566 178,565 179,564 180,562 181,561 182,560 183,559 184,558 185,557 185,555 186,554 187,553 188,552 189,551 190,550 191,549 192,548 193,546 194,545 194,544 195,543 196,542 197,540 198,539 199,538 200,537 201,536 202,535 202,533 203,532 204,531 205,530 206,529 207,528 208,526 209,525 210,524 211,523 211,522 212,521 213,520 214,519 215,518 216,516 217,515 218,514 219,513 219,512 220,511 221,510 222,509 223,507 224,506 225,505 226,504 227,503 228,502 228,501 229,500 230,498 231,497 232,496 233,495 234,494 235,493 236,492 236,490 237,489 238,488 239,487 240,486 241,485 242,483 243,482 244,481 245,480 245,479 246,478 247,477 248,476 249,474 250,473 251,472 252,471 253,470 254,469 254,468 255,466 256,465 257,464 258,463 259,462 260,461 261,459 262,458 262,457 263,456 264,455 265,454 266,453 267,451 268,450 269,449 270,448 271,447 271,446 272,445 273,444 274,442 275,441 276,440 277,439 278,438 279,437 279,436 280,434 281,433 282,432 283,431 284,430 285,429 286,427 287,426 288,425 288,424 289,423 290,422 291,421 292,419 293,418 294,417 295,416 296,415 296,414 297,412 298,411 299,410 300,409 301,408 302,407 303,405 304,404 305,403 305,402 306,401 307,400 308,398 309,397 310,396 311,395 312,394 313,393 313,392 314,391 315,389 316,388 317,387 318,386 319,385 320,384 321,383 322,382 322,381 323,379 324,378 325,377 326,376 327,375 328,374 329,372 330,371 330,370 331,369 332,368 333,367 334,366 335,364 336,363 337,362 338,361 339,360 339,359 340,358 341,357 342,355 343,354 344,353 345,352 346,351 347,350 347,348 348,347 349,346 350,345 351,344 352,343 353,341 354,340 355,339 356,338 356,337 357,336 358,335 359,333 360,332 361,331 362,330 363,329 364,328 364,327 365,325 366,324 367,323 368,322 369,321 370,320 371,319 372,317 373,316 373,315 374,314 375,313 376,312 377,310 378,309 379,308 380,307 381,306 381,305 382,303 383,302 384,301 385,300 386,299 387,298 388,297 389,296 390,294 390,293 391,292 392,291 393,290 394,289 395,287 396,286 397,285 398,284 398,283 399,281 400,280 401,279 402,278 403,277 404,276 405,275 406,273 407,272 407,271 408,270 409,269 410,268 411,267 412,266 413,264 414,263 415,262 415,261 416,260 417,259 418,258 419,256 420,255 421,254 422,253 423,252 424,251 424,250 425,248 426,247 427,246 428,245 429,244 430,243 431,241 432,240 432,239 433,238 434,237 435,236 436,234 437,233 438,232 439,231 440,230 441,228 441,227 442,226 443,225 444,224 445,223 446,221 447,220 448,219 449,218 449,217 450,216 451,215 452,213 453,212 454,211 455,210 456,209 457,208 458,207 458,205 459,204 460,203 461,202 462,201 463,200 464,198 465,197 466,196 467,195 467,194 468,193 469,191 470,190 471,189 472,188 473,187 474,186 475,184 475,183 476,182 477,181 478,180 479,179 480,178 481,176 482,175 483,174 484,173 484,172 485,171 486,170 487,168 488,167 489,166 490,165 491,164 492,163 492,162 493,160 494,159 495,158 496,157 497,156 498,155 499,153 500,152 501,151 501,150 502,149 503,148 504,147 505,145 506,144 507,143 508,142 509,141 509,140 510,138 511,137 512,136 513,135 514,134 515,133 516,132 517,130 518,129 518,128 519,127 520,126 521,125 522,123 523,122 524,121 525,120 526,119 526,118 527,116 528,115 529,114 530,113 531,112 532,111 533,110 534,109 535,108 535,106 536,105 537,104 538,103 539,102 540,101 541,100 542,99 543,97 543,96 544,95 545,94 546,93 547,92 548,91 549,90 550,88 551,87 552,86 552,85 553,84 554,83 555,82 556,81 557,79 558,78 559,77 560,76 560,75 561,74 562,73 563,71 564,70 565,69 566,68 567,68 568,68 569,68 569,68 570,68 571,68 572,68 573,68 574,68 575,68 576,68 577,68 577,68 578,68 579,68 580,68 581,68 582,68 583,68 584,68 585,68 586,68 586,68 587,68 588,68 589,68 590,68 591,68 592,68 593,68 594,68 594,68 595,68 596,68 597,68 598,68 599,68 600,68 601,68 602,68 603,68 603,68 604,68 605,68 606,68 607,68 608,68 609,68 610,68 611,68 611,68 612,68 613,68 614,68 615,68 616,68 617,68 618,68 619,68 620,68 620,68 621,68 622,68 623,68 624,68 625,68 626,68 627,68 628,68 628,68 629,68 630,68 631,68 632,68 633,68 634,68 635,68 636,68 637,68 637,68 638,68 639,68 640,68 641,68 642,68 643,68 644,68 645,68 645,68 646,68 647,68 648,68 649,68 650,68 651,68 652,68 653,68 654,68 654,68 655,68 656,68 657,68 658,68 659,68 660,68 661,68 662,68 662,68 663,68 664,68 665,68 666,68 667,68 668,68 669,68 670,68 671,68 671,68 672,68 673,68 674,68 675,68 676,68 677,68 678,68 679,68 680,68 680,68 681,68 682,68 683,68 684,68 685,68 686,68 687,68 688,68 688,68 689,68 690,68 691,68 692,68 693,68 694,68 695,68 696,68 697,68 697,68 698,68 699,68 700,68 701,68 702,68 703,68 704,68 705,68 705,68 706,68 707,68 708,68 709,68 710,68 711,68 712,68 713,68 714,68 714,68 715,68 716,68 717,68 718,68 719,68 720,68 721,68 722,68 722,68 723,68 724,68 725,68 726,68 727,68 728,68 729,68 730,68 731,68 731,68 732,68 733,68 734,68 735,68 736,68 737,68 738,68 739,68 739,68 740,68 741,68 742,68 743,68 744,68 745,68 746,68 747,68 748,68 748,68 749,68 750,68 751,68 752,68 753,68 754,68 755,68 756,68 756,68 757,68 758,68 759,68 760,68 761,68 762,68 763,68 764,68 765,68 765,68 766,68 767,68 768,68 769,68 770,68 771,68 772,68 773,68 773,68 774,68 775,68 776,68 777,69 778,68 779,68 780,68 781,68 782,68 782,68 783,68 784,68 785,69 786,69 787,69 788,69 789,69 790,69 790,69 791,69 792,69 793,69 794,69 795,69 796,69 797,69 798,69 799,69 799,69 800,69 801,69 802,69 803,69 804,69 805,69 806,69 807,69 807,69 808,69 809,69 810,69 811,69 812,69 813,69 814,69 815,69 816,69 816,69 817,69 818,69 819,69 820,69 821,69 822,69 823,69 824,69 824,69 825,69 826,69 827,69 828,69 829,69 830,69 831,69 832,69 833,69 833,69 834,69 835,69 836,69 837,69 838,69 839,69 840,69 841,69 841,69 842,69 843,69 844,69 845,69 846,69 847,69 848,69 849,69 850,69 850,69 851,69 852,69 853,69 854,69 855,69 856,69 857,69 858,69 858,69 859,69 860,69 861,69 862,69 863,69 864,69 865,69 866,69 867,69 867,69 868,69 869,69 870,69 871,69 872,69 873,69 874,69 875,69 875,69 876,69 877,69 878,69 879,69 880,69 881,69 882,69 883,69 884,69 884,69 885,69 886,69 887,69 888,69 889,69 890,69 891,69 892,69 893,69 893,69 894,69 895,69 896,69 897,69 898,69 899,69 900,69 901,69 901,69 902,69 903,69 904,69 905,69 906,69 907,69 908,69 909,69 910,69 910,69 911,69 912,69 913,69 914,69 915,69 916,69 917,69 918,69 918,69 919,69 920,69 921,69 922,69 923,69 924,69 925,69 926,69 927,69 927,69 928,69 929,69 930,69 931,69 932,69 933,69 934,69 935,69 935,69 936,69 937,69 938,69 939,69 940,69 941,69 942,69 943,69 944,69 944,69 945,69 946,69 947,69 948,69 949,69 950,69 951,69 952,69 952,69 953,69 954,69 955,69 956,69 957,69 958,69 959,69 960,69 961,69 961,69 962,69 963,69 964,69 965,69 966,69 967,69 968,69 969,69 969,69 970,69 971,69 972,70 972,71 973,71 973,699 78,699 "/>
<polyline fill="none" opacity="1" stroke="#3CB44B" stroke-width="1" points="78,697 79,695 80,694 81,693 82,692 83,691 83,690 84,689 85,687 86,686 87,685 88,684 89,683 90,681 91,680 92,679 92,678 93,677 94,676 95,675 96,673 97,672 98,671 99,670 100,669 100,668 101,666 102,665 103,664 104,663 105,662 106,661 107,660 108,658 109,657 109,656 110,655 111,654 112,652 113,651 114,650 115,649 116,648 117,646 117,645 118,644 119,643 120,642 121,640 122,639 123,638 124,637 125,636 126,635 126,633 127,632 128,631 129,630 130,629 131,627 132,626 133,625 134,624 134,623 135,621 136,620 137,619 138,618 139,617 140,616 141,614 142,613 143,612 143,611 144,610 145,609 146,607 147,606 148,605 149,604 150,603 151,602 151,600 152,599 153,598 154,597 155,596 156,594 157,593 158,592 159,591 160,590 160,589 161,587 162,586 163,585 164,584 165,583 166,581 167,580 168,579 168,578 169,577 170,576 171,574 172,573 173,572 174,571 175,570 176,568 177,567 177,566 178,565 179,564 180,562 181,561 182,560 183,559 184,558 185,557 185,555 186,554 187,553 188,552 189,551 190,550 191,549 192,548 193,546 194,545 194,544 195,543 196,542 197,540 198,539 199,538 200,537 201,536 202,535 202,533 203,532 204,531 205,530 206,529 207,528 208,526 209,525 210,524 211,523 211,522 212,521 213,520 214,519 215,518 216,516 217,515 218,514 219,513 219,512 220,511 221,510 222,509 223,507 224,506 225,505 226,504 227,503 228,502 228,501 229,500 230,498 231,497 232,496 233,495 234,494 235,493 236,492 236,490 237,489 238,488 239,487 240,486 241,485 242,483 243,482 244,481 245,480 245,479 246,478 247,477 248,476 249,474 250,473 251,472 252,471 253,470 254,469 254,468 255,466 256,465 257,464 258,463 259,462 260,461 261,459 262,458 262,457 263,456 264,455 265,454 266,453 267,451 268,450 269,449 270,448 271,447 271,446 272,445 273,444 274,442 275,441 276,440 277,439 278,438 279,437 279,436 280,434 281,433 282,432 283,431 284,430 285,429 286,427 287,426 288,425 288,424 289,423 290,422 291,421 292,419 293,418 294,417 295,416 296,415 296,414 297,412 298,411 299,410 300,409 301,408 302,407 303,405 304,404 305,403 305,402 306,401 307,400 308,398 309,397 310,396 311,395 312,394 313,393 313,392 314,391 315,389 316,388 317,387 318,386 319,385 320,384 321,383 322,382 322,381 323,379 324,378 325,377 326,376 327,375 328,374 329,372 330,371 330,370 331,369 332,368 333,367 334,366 335,364 336,363 337,362 338,361 339,360 339,359 340,358 341,357 342,355 343,354 344,353 345,352 346,351 347,350 347,348 348,347 349,346 350,345 351,344 352,343 353,341 354,340 355,339 356,338 356,337 357,336 358,335 359,333 360,332 361,331 362,330 363,329 364,328 364,327 365,325 366,324 367,323 368,322 369,321 370,320 371,319 372,317 373,316 373,315 374,314 375,313 376,312 377,310 378,309 379,308 380,307 381,306 381,305 382,303 383,302 384,301 385,300 386,299 387,298 388,297 389,296 390,294 390,293 391,292 392,291 393,290 394,289 395,287 396,286 397,285 398,284 398,283 399,281 400,280 401,279 402,278 403,277 404,276 405,275 406,273 407,272 407,271 408,270 409,269 410,268 411,267 412,266 413,264 414,263 415,262 415,261 416,260 417,259 418,258 419,256 420,255 421,254 422,253 423,252 424,251 424,250 425,248 426,247 427,246 428,245 429,244 430,243 431,241 432,240 432,239 433,238 434,237 435,236 436,234 437,233 438,232 439,231 440,230 441,228 441,227 442,226 443,225 444,224 445,223 446,221 447,220 448,219 449,218 449,217 450,216 451,215 452,213 453,212 454,211 455,210 456,209 457,208 458,207 458,205 459,204 460,203 461,202 462,201 463,200 464,198 465,197 466,196 467,195 467,194 468,193 469,191 470,190 471,189 472,188 473,187 474,186 475,184 475,183 476,182 477,181 478,180 479,179 480,178 481,176 482,175 483,174 484,173 484,172 485,171 486,170 487,168 488,167 489,166 490,165 491,164 492,163 492,162 493,160 494,159 495,158 496,157 497,156 498,155 499,153 500,152 501,151 501,150 502,149 503,148 504,147 505,145 506,144 507,143 508,142 509,141 509,140 510,138 511,137 512,136 513,135 514,134 515,133 516,132 517,130 518,129 518,128 519,127 520,126 521,125 522,123 523,122 524,121 525,120 526,119 526,118 527,116 528,115 529,114 530,113 531,112 532,111 533,110 534,109 535,108 535,106 536,105 537,104 538,103 539,102 540,101 541,100 542,99 543,97 543,96 544,95 545,94 546,93 547,92 548,91 549,90 550,88 551,87 552,86 552,85 553,84 554,83 555,82 556,81 557,79 558,78 559,77 560,76 560,75 561,74 562,73 563,71 564,70 565,69 566,68 567,68 568,68 569,68 569,68 570,68 571,68 572,68 573,68 574,68 575,68 576,68 577,68 577,68 578,68 579,68 580,68 581,68 582,68 583,68 584,68 585,68 586,68 586,68 587,68 588,68 589,68 590,68 591,68 592,68 593,68 594,68 594,68 595,68 596,68 597,68 598,68 599,68 600,68 601,68 602,68 603,68 603,68 604,68 605,68 606,68 607,68 608,68 609,68 610,68 611,68 611,68 612,68 613,68 614,68 615,68 616,68 617,68 618,68 619,68 620,68 620,68 621,68 622,68 623,68 624,68 625,68 626,68 627,68 628,68 628,68 629,68 630,68 631,68 632,68 633,68 634,68 635,68 636,68 637,68 637,68 638,68 639,68 640,68 641,68 642,68 643,68 644,68 645,68 645,68 646,68 647,68 648,68 649,68 650,68 651,68 652,68 653,68 654,68 654,68 655,68 656,68 657,68 658,68 659,68 660,68 661,68 662,68 662,68 663,68 664,68 665,68 666,68 667,68 668,68 669,68 670,68 671,68 671,68 672,68 673,68 674,68 675,68 676,68 677,68 678,68 679,68 680,68 680,68 681,68 682,68 683,68 684,68 685,68 686,68 687,68 688,68 688,68 689,68 690,68 691,68 692,68 693,68 694,68 695,68 696,68 697,68 697,68 698,68 699,68 700,68 701,68 702,68 703,68 704,68 705,68 705,68 706,68 707,68 708,68 709,68 710,68 711,68 712,68 713,68 714,68 714,68 715,68 716,68 717,68 718,68 719,68 720,68 721,68 722,68 722,68 723,68 724,68 725,68 726,68 727,68 728,68 729,68 730,68 731,68 731,68 732,68 733,68 734,68 735,68 736,68 737,68 738,68 739,68 739,68 740,68 741,68 742,68 743,68 744,68 745,68 746,68 747,68 748,68 748,68 749,68 750,68 751,68 752,68 753,68 754,68 755,68 756,68 756,68 757,68 758,68 759,68 760,68 761,68 762,68 763,68 764,68 765,68 765,68 766,68 767,68 768,68 769,68 770,68 771,68 772,68 773,68 773,68 774,68 775,68 776,68 777,69 778,68 779,68 780,68 781,68 782,68 782,68 783,68 784,68 785,69 786,69 787,69 788,69 789,69 790,69 790,69 791,69 792,69 793,69 794,69 795,69 796,69 797,69 798,69 799,69 799,69 800,69 801,69 802,69 803,69 804,69 805,69 806,69 807,69 807,69 808,69 809,69 810,69 811,69 812,69 813,69 814,69 815,69 816,69 816,69 817,69 818,69 819,69 820,69 821,69 822,69 823,69 824,69 824,69 825,69 826,69 827,69 828,69 829,69 830,69 831,69 832,69 833,69 833,69 834,69 835,69 836,69 837,69 838,69 839,69 840,69 841,69 841,69 842,69 843,69 844,69 845,69 846,69 847,69 848,69 849,69 850,69 850,69 851,69 852,69 853,69 854,69 855,69 856,69 857,69 858,69 858,69 859,69 860,69 861,69 862,69 863,69 864,69 865,69 866,69 867,69 867,69 868,69 869,69 870,69 871,69 872,69 873,69 874,69 875,69 875,69 876,69 877,69 878,69 879,69 880,69 881,69 882,69 883,69 884,69 884,69 885,69 886,69 887,69 888,69 889,69 890,69 891,69 892,69 893,69 893,69 894,69 895,69 896,69 897,69 898,69 899,69 900,69 901,69 901,69 902,69 903,69 904,69 905,69 906,69 907,69 908,69 909,69 910,69 910,69 911,69 912,69 913,69 914,69 915,69 916,69 917,69 918,69 918,69 919,69 920,69 921,69 922,69 923,69 924,69 925,69 926,69 927,69 927,69 928,69 929,69 930,69 931,69 932,69 933,69 934,69 935,69 935,69 936,69 937,69 938,69 939,69 940,69 941,69 942,69 943,69 944,69 944,69 945,69 946,69 947,69 948,69 949,69 950,69 951,69 952,69 952,69 953,69 954,69 955,69 956,69 957,69 958,69 959,69 960,69 961,69 961,69 962,69 963,69 964,69 965,69 966,69 967,69 968,69 969,69 969,69 970,69 971,69 972,70 972,71 973,71 "/>
<polygon opacity="1" fill="#E6194B" points="78,699 79,699 80,699 81,699 82,699 83,699 83,699 84,699 85,699 86,699 87,699 88,699 89,699 90,699 91,699 92,699 92,699 93,699 94,699 95,699 96,699 97,699 98,699 99,699 100,699 100,699 101,699 102,699 103,699 104,699 105,698 106,698 107,698 108,698 109,698 109,698 110,698 111,698 112,698 113,698 114,698 115,698 116,698 117,698 117,698 118,698 119,698 120,698 121,698 122,698 123,698 124,698 125,698 126,698 126,698 127,698 128,698 129,698 130,698 131,698 132,698 133,698 134,698 134,698 135,698 136,698 137,698 138,698 139,698 140,698 141,698 142,698 143,698 143,698 144,698 145,698 146,698 147,698 148,698 149,698 150,698 151,698 151,698 152,698 153,698 154,698 155,698 156,698 157,698 158,698 159,698 160,698 160,698 161,698 162,698 163,698 164,698 165,698 166,698 167,698 168,698 168,698 169,698 170,698 171,698 172,698 173,698 174,698 175,698 176,698 177,698 177,698 178,698 179,698 180,698 181,698 182,698 183,698 184,698 185,698 185,698 186,698 187,698 188,698 189,698 190,698 191,698 192,698 193,698 194,698 194,698 195,698 196,698 197,698 198,698 199,698 200,698 201,698 202,698 202,698 203,698 204,698 205,698 206,698 207,698 208,698 209,698 210,698 211,698 211,698 212,698 213,698 214,698 215,698 216,698 217,698 218,698 219,698 219,698 220,698 221,698 222,698 223,698 224,698 225,698 226,698 227,698 228,698 228,698 229,698 230,698 231,698 232,698 233,698 234,698 235,698 236,698 236,698 237,698 238,698 239,698 240,698 241,698 242,698 243,698 244,698 245,698 245,698 246,698 247,698 248,698 249,698 250,698 251,698 252,698 253,698 254,698 254,698 255,698 256,698 257,698 258,698 259,698 260,698 261,698 262,698 262,698 263,698 264,698 265,698 266,698 267,698 268,698 269,698 270,698 271,698 271,698 272,698 273,698 274,698 275,698 276,698 277,698 278,698 279,698 279,698 280,698 281,698 282,698 283,698 284,698 285,698 286,698 287,698 288,698 288,698 289,698 290,698 291,698 292,698 293,698 294,698 295,698 296,698 296,698 297,698 298,698 299,698 300,698 301,698 302,698 303,698 304,698 305,698 305,698 306,698 307,698 308,698 309,698 310,698 311,698 312,698 313,698 313,698 314,698 315,698 316,698 317,698 318,698 319,698 320,698 321,698 322,698 322,698 323,698 324,698 325,698 326,698 327,698 328,698 329,698 330,698 330,698 331,698 332,698 333,698 334,698 335,698 336,698 337,698 338,698 339,698 339,698 340,698 341,698 342,698 343,698 344,698 345,698 346,698 347,698 347,698 348,698 349,698 350,698 351,698 352,698 353,698 354,698 355,698 356,698 356,698 357,698 358,698 359,698 360,698 361,698 362,698 363,698 364,698 364,698 365,698 366,698 367,698 368,698 369,698 370,698 371,698 372,698 373,698 373,698 374,698 375,698 376,698 377,698 378,698 379,698 380,698 381,698 381,698 382,698 383,698 384,698 385,698 386,698 387,698 388,698 389,698 390,698 390,698 391,698 392,698 393,698 394,698 395,698 396,698 397,698 398,698 398,698 399,698 400,698 401,698 402,698 403,698 404,698 405,698 406,698 407,698 407,698 408,698 409,698 410,698 411,698 412,698 413,698 414,698 415,698 415,698 416,698 417,698 418,698 419,698 420,698 421,698 422,698 423,698 424,698 424,698 425,698 426,698 427,698 428,698 429,698 430,698 431,698 432,698 432,698 433,698 434,698 435,698 436,698 437,698 438,698 439,698 440,698 441,698 441,698 442,698 443,698 444,698 445,698 446,698 447,698 448,698 449,698 449,698 450,698 451,698 452,698 453,698 454,698 455,698 456,698 457,698 458,698 458,698 459,698 460,698 461,698 462,698 463,698 464,698 465,698 466,698 467,698 467,698 468,698 469,698 470,698 471,698 472,698 473,698 474,698 475,698 475,698 476,698 477,698 478,698 479,698 480,698 481,698 482,698 483,698 484,698 484,698 485,698 486,696 487,695 488,694 489,693 490,692 491,691 492,690 492,688 493,687 494,686 495,685 496,684 497,683 498,682 499,680 500,679 501,678 501,677 502,676 503,675 504,673 505,672 506,671 507,670 508,669 509,668 509,667 510,665 511,664 512,663 513,662 514,661 515,660 516,659 517,657 518,656 518,655 519,654 520,653 521,652 522,650 523,649 524,648 525,647 526,646 526,645 527,643 528,642 529,641 530,640 531,639 532,638 533,637 534,636 535,635 535,633 536,632 537,631 538,630 539,629 540,628 541,627 542,625 543,624 543,623 544,622 545,621 546,620 547,619 548,618 549,616 550,615 551,614 552,613 552,612 553,611 554,610 555,609 556,607 557,606 558,605 559,604 560,603 560,602 561,601 562,599 563,598 564,597 565,596 566,595 567,594 568,593 569,591 569,590 570,589 571,588 572,587 573,586 574,585 575,583 576,582 577,581 577,580 578,579 579,577 580,576 581,575 582,574 583,573 584,572 585,570 586,569 586,568 587,567 588,566 589,565 590,564 591,562 592,561 593,560 594,559 594,558 595,557 596,556 597,555 598,553 599,552 600,551 601,550 602,549 603,548 603,546 604,545 605,544 606,543 607,542 608,541 609,540 610,538 611,537 611,536 612,535 613,534 614,533 615,532 616,530 617,529 618,528 619,527 620,526 620,525 621,523 622,522 623,521 624,520 625,519 626,518 627,517 628,516 628,514 629,513 630,512 631,511 632,510 633,509 634,508 635,506 636,505 637,504 637,503 638,502 639,501 640,500 641,499 642,497 643,496 644,495 645,494 645,493 646,492 647,490 648,489 649,488 650,487 651,486 652,484 653,483 654,482 654,481 655,480 656,479 657,478 658,476 659,475 660,474 661,473 662,472 662,471 663,470 664,469 665,467 666,466 667,465 668,464 669,463 670,462 671,460 671,459 672,458 673,457 674,456 675,455 676,454 677,453 678,451 679,450 680,449 680,448 681,447 682,446 683,445 684,443 685,442 686,441 687,440 688,439 688,438 689,437 690,436 691,434 692,433 693,432 694,431 695,430 696,428 697,427 697,426 698,425 699,424 700,423 701,422 702,420 703,419 704,418 705,417 705,416 706,415 707,413 708,412 709,411 710,410 711,409 712,408 713,406 714,405 714,404 715,403 716,402 717,401 718,399 719,398 720,397 721,396 722,395 722,394 723,392 724,391 725,390 726,389 727,388 728,387 729,385 730,384 731,383 731,382 732,381 733,380 734,379 735,377 736,376 737,375 738,374 739,373 739,372 740,371 741,369 742,368 743,367 744,366 745,365 746,364 747,363 748,361 748,360 749,359 750,358 751,357 752,356 753,355 754,354 755,352 756,351 756,350 757,349 758,348 759,347 760,346 761,344 762,343 763,342 764,341 765,340 765,339 766,337 767,336 768,335 769,334 770,333 771,332 772,330 773,329 773,328 774,327 775,326 776,325 777,323 778,322 779,321 780,320 781,319 782,318 782,316 783,315 784,314 785,313 786,312 787,311 788,309 789,308 790,307 790,306 791,305 792,304 793,303 794,301 795,300 796,299 797,298 798,297 799,296 799,295 800,293 801,292 802,291 803,290 804,289 805,288 806,287 807,285 807,284 808,283 809,282 810,281 811,280 812,278 813,277 814,276 815,275 816,274 816,273 817,271 818,270 819,269 820,268 821,267 822,266 823,265 824,263 824,262 825,261 826,260 827,259 828,258 829,256 830,255 831,254 832,253 833,252 833,251 834,249 835,248 836,247 837,246 838,245 839,244 840,243 841,241 841,240 842,239 843,238 844,237 845,236 846,235 847,234 848,232 849,231 850,230 850,229 851,228 852,226 853,225 854,224 855,223 856,222 857,221 858,219 858,218 859,217 860,216 861,215 862,214 863,212 864,211 865,210 866,209 867,208 867,206 868,205 869,204 870,203 871,202 872,201 873,199 874,198 875,197 875,196 876,195 877,193 878,192 879,191 880,190 881,189 882,187 883,186 884,185 884,184 885,183 886,182 887,181 888,180 889,179 890,177 891,176 892,175 893,174 893,173 894,171 895,170 896,169 897,168 898,167 899,166 900,164 901,163 901,162 902,161 903,160 904,159 905,157 906,156 907,155 908,154 909,152 910,151 910,150 911,149 912,148 913,147 914,146 915,144 916,143 917,142 918,141 918,140 919,138 920,137 921,136 922,135 923,134 924,133 925,132 926,130 927,129 927,128 928,127 929,126 930,125 931,123 932,122 933,121 934,120 935,119 935,118 936,117 937,115 938,114 939,113 940,112 941,111 942,109 943,108 944,107 944,106 945,105 946,103 947,102 948,101 949,100 950,99 951,98 952,97 952,95 953,94 954,93 955,92 956,91 957,90 958,88 959,87 960,86 961,85 961,84 962,83 963,81 964,80 965,79 966,78 967,77 968,76 969,74 969,73 970,72 971,71 972,71 972,71 973,71 973,699 78,699 "/>
<polyline fill="none" opacity="1" stroke="#E6194B" stroke-width="1" points="78,699 79,699 80,699 81,699 82,699 83,699 83,699 84,699 85,699 86,699 87,699 88,699 89,699 90,699 91,699 92,699 92,699 93,699 94,699 95,699 96,699 97,699 98,699 99,699 100,699 100,699 101,699 102,699 103,699 104,699 105,698 106,698 107,698 108,698 109,698 109,698 110,698 111,698 112,698 113,698 114,698 115,698 116,698 117,698 117,698 118,698 119,698 120,698 121,698 122,698 123,698 124,698 125,698 126,698 126,698 127,698 128,698 129,698 130,698 131,698 132,698 133,698 134,698 134,698 135,698 136,698 137,698 138,698 139,698 140,698 141,698 142,698 143,698 143,698 144,698 145,698 146,698 147,698 148,698 149,698 150,698 151,698 151,698 152,698 153,698 154,698 155,698 156,698 157,698 158,698 159,698 160,698 160,698 161,698 162,698 163,698 164,698 165,698 166,698 167,698 168,698 168,698 169,698 170,698 171,698 172,698 173,698 174,698 175,698 176,698 177,698 177,698 178,698 179,698 180,698 181,698 182,698 183,698 184,698 185,698 185,698 186,698 187,698 188,698 189,698 190,698 191,698 192,698 193,698 194,698 194,698 195,698 196,698 197,698 198,698 199,698 200,698 201,698 202,698 202,698 203,698 204,698 205,698 206,698 207,698 208,698 209,698 210,698 211,698 211,698 212,698 213,698 214,698 215,698 216,698 217,698 218,698 219,698 219,698 220,698 221,698 222,698 223,698 224,698 225,698 226,698 227,698 228,698 228,698 229,698 230,698 231,698 232,698 233,698 234,698 235,698 236,698 236,698 237,698 238,698 239,698 240,698 241,698 242,698 243,698 244,698 245,698 245,698 246,698 247,698 248,698 249,698 250,698 251,698 252,698 253,698 254,698 254,698 255,698 256,698 257,698 258,698 259,698 260,698 261,698 262,698 262,698 263,698 264,698 265,698 266,698 267,698 268,698 269,698 270,698 271,698 271,698 272,698 273,698 274,698 275,698 276,698 277,698 278,698 279,698 279,698 280,698 281,698 282,698 283,698 284,698 285,698 286,698 287,698 288,698 288,698 289,698 290,698 291,698 292,698 293,698 294,698 295,698 296,698 296,698 297,698 298,698 299,698 300,698 301,698 302,698 303,698 304,698 305,698 305,698 306,698 307,698 308,698 309,698 310,698 311,698 312,698 313,698 313,698 314,698 315,698 316,698 317,698 318,698 319,698 320,698 321,698 322,698 322,698 323,698 324,698 325,698 326,698 327,698 328,698 329,698 330,698 330,698 331,698 332,698 333,698 334,698 335,698 336,698 337,698 338,698 339,698 339,698 340,698 341,698 342,698 343,698 344,698 345,698 346,698 347,698 347,698 348,698 349,698 350,698 351,698 352,698 353,698 354,698 355,698 356,698 356,698 357,698 358,698 359,698 360,698 361,698 362,698 363,698 364,698 364,698 365,698 366,698 367,698 368,698 369,698 370,698 371,698 372,698 373,698 373,698 374,698 375,698 376,698 377,698 378,698 379,698 380,698 381,698 381,698 382,698 383,698 384,698 385,698 386,698 387,698 388,698 389,698 390,698 390,698 391,698 392,698 393,698 394,698 395,698 396,698 397,698 398,698 398,698 399,698 400,698 401,698 402,698 403,698 404,698 405,698 406,698 407,698 407,698 408,698 409,698 410,698 411,698 412,698 413,698 414,698 415,698 415,698 416,698 417,698 418,698 419,698 420,698 421,698 422,698 423,698 424,698 424,698 425,698 426,698 427,698 428,698 429,698 430,698 431,698 432,698 432,698 433,698 434,698 435,698 436,698 437,698 438,698 439,698 440,698 441,698 441,698 442,698 443,698 444,698 445,698 446,698 447,698 448,698 449,698 449,698 450,698 451,698 452,698 453,698 454,698 455,698 456,698 457,698 458,698 458,698 459,698 460,698 461,698 462,698 463,698 464,698 465,698 466,698 467,698 467,698 468,698 469,698 470,698 471,698 472,698 473,698 474,698 475,698 475,698 476,698 477,698 478,698 479,698 480,698 481,698 482,698 483,698 484,698 484,698 485,698 486,696 487,695 488,694 489,693 490,692 491,691 492,690 492,688 493,687 494,686 495,685 496,684 497,683 498,682 499,680 500,679 501,678 501,677 502,676 503,675 504,673 505,672 506,671 507,670 508,669 509,668 509,667 510,665 511,664 512,663 513,662 514,661 515,660 516,659 517,657 518,656 518,655 519,654 520,653 521,652 522,650 523,649 524,648 525,647 526,646 526,645 527,643 528,642 529,641 530,640 531,639 532,638 533,637 534,636 535,635 535,633 536,632 537,631 538,630 539,629 540,628 541,627 542,625 543,624 543,623 544,622 545,621 546,620 547,619 548,618 549,616 550,615 551,614 552,613 552,612 553,611 554,610 555,609 556,607 557,606 558,605 559,604 560,603 560,602 561,601 562,599 563,598 564,597 565,596 566,595 567,594 568,593 569,591 569,590 570,589 571,588 572,587 573,586 574,585 575,583 576,582 577,581 577,580 578,579 579,577 580,576 581,575 582,574 583,573 584,572 585,570 586,569 586,568 587,567 588,566 589,565 590,564 591,562 592,561 593,560 594,559 594,558 595,557 596,556 597,555 598,553 599,552 600,551 601,550 602,549 603,548 603,546 604,545 605,544 606,543 607,542 608,541 609,540 610,538 611,537 611,536 612,535 613,534 614,533 615,532 616,530 617,529 618,528 619,527 620,526 620,525 621,523 622,522 623,521 624,520 625,519 626,518 627,517 628,516 628,514 629,513 630,512 631,511 632,510 633,509 634,508 635,506 636,505 637,504 637,503 638,502 639,501 640,500 641,499 642,497 643,496 644,495 645,494 645,493 646,492 647,490 648,489 649,488 650,487 651,486 652,484 653,483 654,482 654,481 655,480 656,479 657,478 658,476 659,475 660,474 661,473 662,472 662,471 663,470 664,469 665,467 666,466 667,465 668,464 669,463 670,462 671,460 671,459 672,458 673,457 674,456 675,455 676,454 677,453 678,451 679,450 680,449 680,448 681,447 682,446 683,445 684,443 685,442 686,441 687,440 688,439 688,438 689,437 690,436 691,434 692,433 693,432 694,431 695,430 696,428 697,427 697,426 698,425 699,424 700,423 701,422 702,420 703,419 704,418 705,417 705,416 706,415 707,413 708,412 709,411 710,410 711,409 712,408 713,406 714,405 714,404 715,403 716,402 717,401 718,399 719,398 720,397 721,396 722,395 722,394 723,392 724,391 725,390 726,389 727,388 728,387 729,385 730,384 731,383 731,382 732,381 733,380 734,379 735,377 736,376 737,375 738,374 739,373 739,372 740,371 741,369 742,368 743,367 744,366 745,365 746,364 747,363 748,361 748,360 749,359 750,358 751,357 752,356 753,355 754,354 755,352 756,351 756,350 757,349 758,348 759,347 760,346 761,344 762,343 763,342 764,341 765,340 765,339 766,337 767,336 768,335 769,334 770,333 771,332 772,330 773,329 773,328 774,327 775,326 776,325 777,323 778,322 779,321 780,320 781,319 782,318 782,316 783,315 784,314 785,313 786,312 787,311 788,309 789,308 790,307 790,306 791,305 792,304 793,303 794,301 795,300 796,299 797,298 798,297 799,296 799,295 800,293 801,292 802,291 803,290 804,289 805,288 806,287 807,285 807,284 808,283 809,282 810,281 811,280 812,278 813,277 814,276 815,275 816,274 816,273 817,271 818,270 819,269 820,268 821,267 822,266 823,265 824,263 824,262 825,261 826,260 827,259 828,258 829,256 830,255 831,254 832,253 833,252 833,251 834,249 835,248 836,247 837,246 838,245 839,244 840,243 841,241 841,240 842,239 843,238 844,237 845,236 846,235 847,234 848,232 849,231 850,230 850,229 851,228 852,226 853,225 854,224 855,223 856,222 857,221 858,219 858,218 859,217 860,216 861,215 862,214 863,212 864,211 865,210 866,209 867,208 867,206 868,205 869,204 870,203 871,202 872,201 873,199 874,198 875,197 875,196 876,195 877,193 878,192 879,191 880,190 881,189 882,187 883,186 884,185 884,184 885,183 886,182 887,181 888,180 889,179 890,177 891,176 892,175 893,174 893,173 894,171 895,170 896,169 897,168 898,167 899,166 900,164 901,163 901,162 902,161 903,160 904,159 905,157 906,156 907,155 908,154 909,152 910,151 910,150 911,149 912,148 913,147 914,146 915,144 916,143 917,142 918,141 918,140 919,138 920,137 921,136 922,135 923,134 924,133 925,132 926,130 927,129 927,128 928,127 929,126 930,125 931,123 932,122 933,121 934,120 935,119 935,118 936,117 937,115 938,114 939,113 940,112 941,111 942,109 943,108 944,107 944,106 945,105 946,103 947,102 948,101 949,100 950,99 951,98 952,97 952,95 953,94 954,93 955,92 956,91 957,90 958,88 959,87 960,86 961,85 961,84 962,83 963,81 964,80 965,79 966,78 967,77 968,76 969,74 969,73 970,72 971,71 972,71 972,71 973,71 "/>
<line opacity="0.1" stroke="#000000" stroke-width="1" x1="84" y1="699" x2="84" y2="68"/>
<line opacity="0.1" stroke="#000000" stroke-width="1" x1="94" y1="699" x2="94" y2="68"/>
<line opacity="0.1" stroke="#000000" stroke-width="1" x1="105" y1="699" x2="105" y2="68"/>
<line opacity="0.1" stroke="#000000" stroke-width="1" x1="115" y1="699" x2="115" y2="68"/>
<line opacity="0.1" stroke="#000000" stroke-width="1" x1="126" y1="699" x2="126" y2="68"/>
<line opacity="0.1" stroke="#000000" stroke-width="1" x1="137" y1="699" x2="137" y2="68"/>
<line opacity="0.1" stroke="#000000" stroke-width="1" x1="147" y1="699" x2="147" y2="68"/>
<line opacity="0.1" stroke="#000000" stroke-width="1" x1="158" y1="699" x2="158" y2="68"/>
<line opacity="0.1" stroke="#000000" stroke-width="1" x1="168" y1="699" x2="168" y2="68"/>
<line opacity="0.1" stroke="#000000" stroke-width="1" x1="179" y1="699" x2="179" y2="68"/>
<line opacity="0.1" stroke="#000000" stroke-width="1" x1="189" y1="699" x2="189" y2="68"/>
<line opacity="0.1" stroke="#000000" stroke-width="1" x1="200" y1="699" x2="200" y2="68"/>
<line opacity="0.1" stroke="#000000" stroke-width="1" x1="211" y1="699" x2="211" y2="68"/>
<line opacity="0.1" stroke="#000000" stroke-width="1" x1="221" y1="699" x2="221" y2="68"/>
<line opacity="0.1" stroke="#000000" stroke-width="1" x1="232" y1="699" x2="232" y2="68"/>
<line opacity="0.1" stroke="#000000" stroke-width="1" x1="242" y1="699" x2="242" y2="68"/>
<line opacity="0.1" stroke="#000000" stroke-width="1" x1="253" y1="699" x2="253" y2="68"/>
<line opacity="0.1" stroke="#000000" stroke-width="1" x1="264" y1="699" x2="264" y2="68"/>
<line opacity="0.1" stroke="#000000" stroke-width="1" x1="274" y1="699" x2="274" y2="68"/>
<line opacity="0.1" stroke="#000000" stroke-width="1" x1="285" y1="699" x2="285" y2="68"/>
<line opacity="0.1" stroke="#000000" stroke-width="1" x1="295" y1="699" x2="295" y2="68"/>
<line opacity="0.1" stroke="#000000" stroke-width="1" x1="306" y1="699" x2="306" y2="68"/>
<line opacity="0.1" stroke="#000000" stroke-width="1" x1="316" y1="699" x2="316" y2="68"/>
<line opacity="0.1" stroke="#000000" stroke-width="1" x1="327" y1="699" x2="327" y2="68"/>
<line opacity="0.1" stroke="#000000" stroke-width="1" x1="338" y1="699" x2="338" y2="68"/>
<line opacity="0.1" stroke="#000000" stroke-width="1" x1="348" y1="699" x2="348" y2="68"/>
<line opacity="0.1" stroke="#000000" stroke-width="1" x1="359" y1="699" x2="359" y2="68"/>
<line opacity="0.1" stroke="#000000" stroke-width="1" x1="369" y1="699" x2="369" y2="68"/>
<line opacity="0.1" stroke="#000000" stroke-width="1" x1="380" y1="699" x2="380" y2="68"/>
<line opacity="0.1" stroke="#000000" stroke-width="1" x1="390" y1="699" x2="390" y2="68"/>
<line opacity="0.1" stroke="#000000" stroke-width="1" x1="401" y1="699" x2="401" y2="68"/>
<line opacity="0.1" stroke="#000000" stroke-width="1" x1="412" y1="699" x2="412" y2="68"/>
<line opacity="0.1" stroke="#000000" stroke-width="1" x1="422" y1="699" x2="422" y2="68"/>
<line opacity="0.1" stroke="#000000" stroke-width="1" x1="433" y1="699" x2="433" y2="68"/>
<line opacity="0.1" stroke="#000000" stroke-width="1" x1="443" y1="699" x2="443" y2="68"/>
<line opacity="0.1" stroke="#000000" stroke-width="1" x1="454" y1="699" x2="454" y2="68"/>
<line opacity="0.1" stroke="#000000" stroke-width="1" x1="464" y1="699" x2="464" y2="68"/>
<line opacity="0.1" stroke="#000000" stroke-width="1" x1="475" y1="699" x2="475" y2="68"/>
<line opacity="0.1" stroke="#000000" stroke-width="1" x1="486" y1="699" x2="486" y2="68"/>
<line opacity="0.1" stroke="#000000" stroke-width="1" x1="496" y1="699" x2="496" y2="68"/>
<line opacity="0.1" stroke="#000000" stroke-width="1" x1="507" y1="699" x2="507" y2="68"/>
<line opacity="0.1" stroke="#000000" stroke-width="1" x1="517" y1="699" x2="517" y2="68"/>
<line opacity="0.1" stroke="#000000" stroke-width="1" x1="528" y1="699" x2="528" y2="68"/>
<line opacity="0.1" stroke="#000000" stroke-width="1" x1="538" y1="699" x2="538" y2="68"/>
<line opacity="0.1" stroke="#000000" stroke-width="1" x1="549" y1="699" x2="549" y2="68"/>
<line opacity="0.1" stroke="#000000" stroke-width="1" x1="560" y1="699" x2="560" y2="68"/>
<line opacity="0.1" stroke="#000000" stroke-width="1" x1="570" y1="699" x2="570" y2="68"/>
<line opacity="0.1" stroke="#000000" stroke-width="1" x1="581" y1="699" x2="581" y2="68"/>
<line opacity="0.1" stroke="#000000" stroke-width="1" x1="591" y1="699" x2="591" y2="68"/>
<line opacity="0.1" stroke="#000000" stroke-width="1" x1="602" y1="699" x2="602" y2="68"/>
<line opacity="0.1" stroke="#000000" stroke-width="1" x1="612" y1="699" x2="612" y2="68"/>
<line opacity="0.1" stroke="#000000" stroke-width="1" x1="623" y1="699" x2="623" y2="68"/>
<line opacity="0.1" stroke="#000000" stroke-width="1" x1="634" y1="699" x2="634" y2="68"/>
<line opacity="0.1" stroke="#000000" stroke-width="1" x1="644" y1="699" x2="644" y2="68"/>
<line opacity="0.1" stroke="#000000" stroke-width="1" x1="655" y1="699" x2="655" y2="68"/>
<line opacity="0.1" stroke="#000000" stroke-width="1" x1="665" y1="699" x2="665" y2="68"/>
<line opacity="0.1" stroke="#000000" stroke-width="1" x1="676" y1="699" x2="676" y2="68"/>
<line opacity="0.1" stroke="#000000" stroke-width="1" x1="687" y1="699" x2="687" y2="68"/>
<line opacity="0.1" stroke="#000000" stroke-width="1" x1="697" y1="699" x2="697" y2="68"/>
<line opacity="0.1" stroke="#000000" stroke-width="1" x1="708" y1="699" x2="708" y2="68"/>
<line opacity="0.1" stroke="#000000" stroke-width="1" x1="718" y1="699" x2="718" y2="68"/>
<line opacity="0.1" stroke="#000000" stroke-width="1" x1="729" y1="699" x2="729" y2="68"/>
<line opacity="0.1" stroke="#000000" stroke-width="1" x1="739" y1="699" x2="739" y2="68"/>
<line opacity="0.1" stroke="#000000" stroke-width="1" x1="750" y1="699" x2="750" y2="68"/>
<line opacity="0.1" stroke="#000000" stroke-width="1" x1="761" y1="699" x2="761" y2="68"/>
<line opacity="0.1" stroke="#000000" stroke-width="1" x1="771" y1="699" x2="771" y2="68"/>
<line opacity="0.1" stroke="#000000" stroke-width="1" x1="782" y1="699" x2="782" y2="68"/>
<line opacity="0.1" stroke="#000000" stroke-width="1" x1="792" y1="699" x2="792" y2="68"/>
<line opacity="0.1" stroke="#000000" stroke-width="1" x1="803" y1="699" x2="803" y2="68"/>
<line opacity="0.1" stroke="#000000" stroke-width="1" x1="813" y1="699" x2="813" y2="68"/>
<line opacity="0.1" stroke="#000000" stroke-width="1" x1="824" y1="699" x2="824" y2="68"/>
<line opacity="0.1" stroke="#000000" stroke-width="1" x1="835" y1="699" x2="835" y2="68"/>
<line opacity="0.1" stroke="#000000" stroke-width="1" x1="845" y1="699" x2="845" y2="68"/>
<line opacity="0.1" stroke="#000000" stroke-width="1" x1="856" y1="699" x2="856" y2="68"/>
<line opacity="0.1" stroke="#000000" stroke-width="1" x1="866" y1="699" x2="866" y2="68"/>
<line opacity="0.1" stroke="#000000" stroke-width="1" x1="877" y1="699" x2="877" y2="68"/>
<line opacity="0.1" stroke="#000000" stroke-width="1" x1="887" y1="699" x2="887" y2="68"/>
<line opacity="0.1" stroke="#000000" stroke-width="1" x1="898" y1="699" x2="898" y2="68"/>
<line opacity="0.1" stroke="#000000" stroke-width="1" x1="909" y1="699" x2="909" y2="68"/>
<line opacity="0.1" stroke="#000000" stroke-width="1" x1="919" y1="699" x2="919" y2="68"/>
<line opacity="0.1" stroke="#000000" stroke-width="1" x1="930" y1="699" x2="930" y2="68"/>
<line opacity="0.1" stroke="#000000" stroke-width="1" x1="940" y1="699" x2="940" y2="68"/>
<line opacity="0.1" stroke="#000000" stroke-width="1" x1="951" y1="699" x2="951" y2="68"/>
<line opacity="0.1" stroke="#000000" stroke-width="1" x1="961" y1="699" x2="961" y2="68"/>
<line opacity="0.1" stroke="#000000" stroke-width="1" x1="972" y1="699" x2="972" y2="68"/>
<line opacity="0.1" stroke="#000000" stroke-width="1" x1="78" y1="699" x2="973" y2="699"/>
<line opacity="0.1" stroke="#000000" stroke-width="1" x1="78" y1="687" x2="973" y2="687"/>
<line opacity="0.1" stroke="#000000" stroke-width="1" x1="78" y1="676" x2="973" y2="676"/>
<line opacity="0.1" stroke="#000000" stroke-width="1" x1="78" y1="665" x2="973" y2="665"/>
<line opacity="0.1" stroke="#000000" stroke-width="1" x1="78" y1="654" x2="973" y2="654"/>
<line opacity="0.1" stroke="#000000" stroke-width="1" x1="78" y1="642" x2="973" y2="642"/>
<line opacity="0.1" stroke="#000000" stroke-width="1" x1="78" y1="631" x2="973" y2="631"/>
<line opacity="0.1" stroke="#000000" stroke-width="1" x1="78" y1="620" x2="973" y2="620"/>
<line opacity="0.1" stroke="#000000" stroke-width="1" x1="78" y1="609" x2="973" y2="609"/>
<line opacity="0.1" stroke="#000000" stroke-width="1" x1="78" y1="597" x2="973" y2="597"/>
<line opacity="0.1" stroke="#000000" stroke-width="1" x1="78" y1="586" x2="973" y2="586"/>
<line opacity="0.1" stroke="#000000" stroke-width="1" x1="78" y1="575" x2="973" y2="575"/>
<line opacity="0.1" stroke="#000000" stroke-width="1" x1="78" y1="564" x2="973" y2="564"/>
<line opacity="0.1" stroke="#000000" stroke-width="1" x1="78" y1="552" x2="973" y2="552"/>
<line opacity="0.1" stroke="#000000" stroke-width="1" x1="78" y1="541" x2="973" y2="541"/>
<line opacity="0.1" stroke="#000000" stroke-width="1" x1="78" y1="530" x2="973" y2="530"/>
<line opacity="0.1" stroke="#000000" stroke-width="1" x1="78" y1="519" x2="973" y2="519"/>
<line opacity="0.1" stroke="#000000" stroke-width="1" x1="78" y1="507" x2="973" y2="507"/>
<line opacity="0.1" stroke="#000000" stroke-width="1" x1="78" y1="496" x2="973" y2="496"/>
<line opacity="0.1" stroke="#000000" stroke-width="1" x1="78" y1="485" x2="973" y2="485"/>
<line opacity="0.1" stroke="#000000" stroke-width="1" x1="78" y1="474" x2="973" y2="474"/>
<line opacity="0.1" stroke="#000000" stroke-width="1" x1="78" y1="462" x2="973" y2="462"/>
<line opacity="0.1" stroke="#000000" stroke-width="1" x1="78" y1="451" x2="973" y2="451"/>
<line opacity="0.1" stroke="#000000" stroke-width="1" x1="78" y1="440" x2="973" y2="440"/>
<line opacity="0.1" stroke="#000000" stroke-width="1" x1="78" y1="429" x2="973" y2="429"/>
<line opacity="0.1" stroke="#000000" stroke-width="1" x1="78" y1="417" x2="973" y2="417"/>
<line opacity="0.1" stroke="#000000" stroke-width="1" x1="78" y1="406" x2="973" y2="406"/>
<line opacity="0.1" stroke="#000000" stroke-width="1" x1="78" y1="395" x2="973" y2="395"/>
<line opacity="0.1" stroke="#000000" stroke-width="1" x1="78" y1="384" x2="973" y2="384"/>
<line opacity="0.1" stroke="#000000" stroke-width="1" x1="78" y1="372" x2="973" y2="372"/>
<line opacity="0.1" stroke="#000000" stroke-width="1" x1="78" y1="361" x2="973" y2="361"/>
<line opacity="0.1" stroke="#000000" stroke-width="1" x1="78" y1="350" x2="973" y2="350"/>
<line opacity="0.1" stroke="#000000" stroke-width="1" x1="78" y1="339" x2="973" y2="339"/>
<line opacity="0.1" stroke="#000000" stroke-width="1" x1="78" y1="327" x2="973" y2="327"/>
<line opacity="0.1" stroke="#000000" stroke-width="1" x1="78" y1="316" x2="973" y2="316"/>
<line opacity="0.1" stroke="#000000" stroke-width="1" x1="78" y1="305" x2="973" y2="305"/>
<line opacity="0.1" stroke="#000000" stroke-width="1" x1="78" y1="294" x2="973" y2="294"/>
<line opacity="0.1" stroke="#000000" stroke-width="1" x1="78" y1="282" x2="973" y2="282"/>
<line opacity="0.1" stroke="#000000" stroke-width="1" x1="78" y1="271" x2="973" y2="271"/>
<line opacity="0.1" stroke="#000000" stroke-width="1" x1="78" y1="260" x2="973" y2="260"/>
<line opacity="0.1" stroke="#000000" stroke-width="1" x1="78" y1="249" x2="973" y2="249"/>
<line opacity="0.1" stroke="#000000" stroke-width="1" x1="78" y1="237" x2="973" y2="237"/>
<line opacity="0.1" stroke="#000000" stroke-width="1" x1="78" y1="226" x2="973" y2="226"/>
<line opacity="0.1" stroke="#000000" stroke-width="1" x1="78" y1="215" x2="973" y2="215"/>
<line opacity="0.1" stroke="#000000" stroke-width="1" x1="78" y1="204" x2="973" y2="204"/>
<line opacity="0.1" stroke="#000000" stroke-width="1" x1="78" y1="193" x2="973" y2="193"/>
<line opacity="0.1" stroke="#000000" stroke-width="1" x1="78" y1="181" x2="973" y2="181"/>
<line opacity="0.1" stroke="#000000" stroke-width="1" x1="78" y1="170" x2="973" y2="170"/>
<line opacity="0.1" stroke="#000000" stroke-width="1" x1="78" y1="159" x2="973" y2="159"/>
<line opacity="0.1" stroke="#000000" stroke-width="1" x1="78" y1="148" x2="973" y2="148"/>
<line opacity="0.1" stroke="#000000" stroke-width="1" x1="78" y1="136" x2="973" y2="136"/>
<line opacity="0.1" stroke="#000000" stroke-width="1" x1="78" y1="125" x2="973" y2="125"/>
<line opacity="0.1" stroke="#000000" stroke-width="1" x1="78" y1="114" x2="973" y2="114"/>
<line opacity="0.1" stroke="#000000" stroke-width="1" x1="78" y1="103" x2="973" y2="103"/>
<line opacity="0.1" stroke="#000000" stroke-width="1" x1="78" y1="91" x2="973" y2="91"/>
<line opacity="0.1" stroke="#000000" stroke-width="1" x1="78" y1="80" x2="973" y2="80"/>
<line opacity="0.1" stroke="#000000" stroke-width="1" x1="78" y1="69" x2="973" y2="69"/>
<text x="8" y="384" dy="0.76em" text-anchor="middle" font-family="sans-serif" font-size="9.67741935483871" opacity="1" fill="#000000" transform="rotate(270, 8, 384)">
Memory usage
</text>
<text x="526" y="760" dy="-0.5ex" text-anchor="middle" font-family="sans-serif" font-size="9.67741935483871" opacity="1" fill="#000000">
Time
</text>
<line opacity="0.2" stroke="#000000" stroke-width="1" x1="105" y1="699" x2="105" y2="68"/>
<line opacity="0.2" stroke="#000000" stroke-width="1" x1="211" y1="699" x2="211" y2="68"/>
<line opacity="0.2" stroke="#000000" stroke-width="1" x1="316" y1="699" x2="316" y2="68"/>
<line opacity="0.2" stroke="#000000" stroke-width="1" x1="422" y1="699" x2="422" y2="68"/>
<line opacity="0.2" stroke="#000000" stroke-width="1" x1="528" y1="699" x2="528" y2="68"/>
<line opacity="0.2" stroke="#000000" stroke-width="1" x1="634" y1="699" x2="634" y2="68"/>
<line opacity="0.2" stroke="#000000" stroke-width="1" x1="739" y1="699" x2="739" y2="68"/>
<line opacity="0.2" stroke="#000000" stroke-width="1" x1="845" y1="699" x2="845" y2="68"/>
<line opacity="0.2" stroke="#000000" stroke-width="1" x1="951" y1="699" x2="951" y2="68"/>
<line opacity="0.2" stroke="#000000" stroke-width="1" x1="78" y1="699" x2="973" y2="699"/>
<line opacity="0.2" stroke="#000000" stroke-width="1" x1="78" y1="586" x2="973" y2="586"/>
<line opacity="0.2" stroke="#000000" stroke-width="1" x1="78" y1="474" x2="973" y2="474"/>
<line opacity="0.2" stroke="#000000" stroke-width="1" x1="78" y1="361" x2="973" y2="361"/>
<line opacity="0.2" stroke="#000000" stroke-width="1" x1="78" y1="249" x2="973" y2="249"/>
<line opacity="0.2" stroke="#000000" stroke-width="1" x1="78" y1="136" x2="973" y2="136"/>
<polyline fill="none" opacity="1" stroke="#000000" stroke-width="1" points="77,68 77,699 "/>
<text x="68" y="699" dy="0.5ex" text-anchor="end" font-family="sans-serif" font-size="9.67741935483871" opacity="1" fill="#000000">
0 MB
</text>
<polyline fill="none" opacity="1" stroke="#000000" stroke-width="1" points="72,699 77,699 "/>
<text x="68" y="586" dy="0.5ex" text-anchor="end" font-family="sans-serif" font-size="9.67741935483871" opacity="1" fill="#000000">
19 MB
</text>
<polyline fill="none" opacity="1" stroke="#000000" stroke-width="1" points="72,586 77,586 "/>
<text x="68" y="474" dy="0.5ex" text-anchor="end" font-family="sans-serif" font-size="9.67741935483871" opacity="1" fill="#000000">
38 MB
</text>
<polyline fill="none" opacity="1" stroke="#000000" stroke-width="1" points="72,474 77,474 "/>
<text x="68" y="361" dy="0.5ex" text-anchor="end" font-family="sans-serif" font-size="9.67741935483871" opacity="1" fill="#000000">
57 MB
</text>
<polyline fill="none" opacity="1" stroke="#000000" stroke-width="1" points="72,361 77,361 "/>
<text x="68" y="249" dy="0.5ex" text-anchor="end" font-family="sans-serif" font-size="9.67741935483871" opacity="1" fill="#000000">
76 MB
</text>
<polyline fill="none" opacity="1" stroke="#000000" stroke-width="1" points="72,249 77,249 "/>
<text x="68" y="136" dy="0.5ex" text-anchor="end" font-family="sans-serif" font-size="9.67741935483871" opacity="1" fill="#000000">
95 MB
</text>
<polyline fill="none" opacity="1" stroke="#000000" stroke-width="1" points="72,136 77,136 "/>
<polyline fill="none" opacity="1" stroke="#000000" stroke-width="1" points="78,700 973,700 "/>
<text x="105" y="710" dy="0.76em" text-anchor="middle" font-family="sans-serif" font-size="9.67741935483871" opacity="1" fill="#000000">
07 20:33:20
</text>
<polyline fill="none" opacity="1" stroke="#000000" stroke-width="1" points="105,700 105,705 "/>
<text x="211" y="710" dy="0.76em" text-anchor="middle" font-family="sans-serif" font-size="9.67741935483871" opacity="1" fill="#000000">
08 10:26:40
</text>
<polyline fill="none" opacity="1" stroke="#000000" stroke-width="1" points="211,700 211,705 "/>
<text x="316" y="710" dy="0.76em" text-anchor="middle" font-family="sans-serif" font-size="9.67741935483871" opacity="1" fill="#000000">
09 00:20:00
</text>
<polyline fill="none" opacity="1" stroke="#000000" stroke-width="1" points="316,700 316,705 "/>
<text x="422" y="710" dy="0.76em" text-anchor="middle" font-family="sans-serif" font-size="9.67741935483871" opacity="1" fill="#000000">
09 14:13:20
</text>
<polyline fill="none" opacity="1" stroke="#000000" stroke-width="1" points="422,700 422,705 "/>
<text x="528" y="710" dy="0.76em" text-anchor="middle" font-family="sans-serif" font-size="9.67741935483871" opacity="1" fill="#000000">
10 04:06:40
</text>
<polyline fill="none" opacity="1" stroke="#000000" stroke-width="1" points="528,700 528,705 "/>
<text x="634" y="710" dy="0.76em" text-anchor="middle" font-family="sans-serif" font-size="9.67741935483871" opacity="1" fill="#000000">
10 18:00:00
</text>
<polyline fill="none" opacity="1" stroke="#000000" stroke-width="1" points="634,700 634,705 "/>
<text x="739" y="710" dy="0.76em" text-anchor="middle" font-family="sans-serif" font-size="9.67741935483871" opacity="1" fill="#000000">
11 07:53:20
</text>
<polyline fill="none" opacity="1" stroke="#000000" stroke-width="1" points="739,700 739,705 "/>
<text x="845" y="710" dy="0.76em" text-anchor="middle" font-family="sans-serif" font-size="9.67741935483871" opacity="1" fill="#000000">
11 21:46:40
</text>
<polyline fill="none" opacity="1" stroke="#000000" stroke-width="1" points="845,700 845,705 "/>
<text x="951" y="710" dy="0.76em" text-anchor="middle" font-family="sans-serif" font-size="9.67741935483871" opacity="1" fill="#000000">
12 11:40:00
</text>
<polyline fill="none" opacity="1" stroke="#000000" stroke-width="1" points="951,700 951,705 "/>
<polyline fill="none" opacity="1" stroke="#000000" stroke-width="1" points="78,67 974,67 "/>
<text x="105" y="58" dy="-0.5ex" text-anchor="middle" font-family="sans-serif" font-size="9.67741935483871" opacity="1" fill="#000000">
+03:35:44
</text>
<polyline fill="none" opacity="1" stroke="#000000" stroke-width="1" points="105,62 105,67 "/>
<text x="211" y="58" dy="-0.5ex" text-anchor="middle" font-family="sans-serif" font-size="9.67741935483871" opacity="1" fill="#000000">
+17:29:04
</text>
<polyline fill="none" opacity="1" stroke="#000000" stroke-width="1" points="211,62 211,67 "/>
<text x="317" y="58" dy="-0.5ex" text-anchor="middle" font-family="sans-serif" font-size="9.67741935483871" opacity="1" fill="#000000">
+31:22:24
</text>
<polyline fill="none" opacity="1" stroke="#000000" stroke-width="1" points="317,62 317,67 "/>
<text x="423" y="58" dy="-0.5ex" text-anchor="middle" font-family="sans-serif" font-size="9.67741935483871" opacity="1" fill="#000000">
+45:15:44
</text>
<polyline fill="none" opacity="1" stroke="#000000" stroke-width="1" points="423,62 423,67 "/>
<text x="528" y="58" dy="-0.5ex" text-anchor="middle" font-family="sans-serif" font-size="9.67741935483871" opacity="1" fill="#000000">
+59:09:04
</text>
<polyline fill="none" opacity="1" stroke="#000000" stroke-width="1" points="528,62 528,67 "/>
<text x="634" y="58" dy="-0.5ex" text-anchor="middle" font-family="sans-serif" font-size="9.67741935483871" opacity="1" fill="#000000">
+73:02:24
</text>
<polyline fill="none" opacity="1" stroke="#000000" stroke-width="1" points="634,62 634,67 "/>
<text x="740" y="58" dy="-0.5ex" text-anchor="middle" font-family="sans-serif" font-size="9.67741935483871" opacity="1" fill="#000000">
+86:55:44
</text>
<polyline fill="none" opacity="1" stroke="#000000" stroke-width="1" points="740,62 740,67 "/>
<text x="846" y="58" dy="-0.5ex" text-anchor="middle" font-family="sans-serif" font-size="9.67741935483871" opacity="1" fill="#000000">
+100:49:04
</text>
<polyline fill="none" opacity="1" stroke="#000000" stroke-width="1" points="846,62 846,67 "/>
<text x="952" y="58" dy="-0.5ex" text-anchor="middle" font-family="sans-serif" font-size="9.67741935483871" opacity="1" fill="#000000">
+114:42:24
</text>
<polyline fill="none" opacity="1" stroke="#000000" stroke-width="1" points="952,62 952,67 "/>
<rect x="83" y="73" width="99" height="45" opacity="0.75" fill="#FFFFFF" stroke="none"/>
<rect x="83" y="73" width="99" height="45" opacity="1" fill="none" stroke="#000000"/>
<text x="123" y="83" dy="0.76em" text-anchor="start" font-family="sans-serif" font-size="9.67741935483871" opacity="1" fill="#000000">
Temporary
</text>
<text x="123" y="98" dy="0.76em" text-anchor="start" font-family="sans-serif" font-size="9.67741935483871" opacity="1" fill="#000000">
Leaked
</text>
<rect x="93" y="83" width="10" height="10" opacity="1" fill="#3CB44B" stroke="none"/>
<rect x="93" y="98" width="10" height="10" opacity="1" fill="#E6194B" stroke="none"/>
</svg>
