<svg width="1024" height="768" viewBox="0 0 1024 768" xmlns="http://www.w3.org/2000/svg">
<rect x="0" y="0" width="1024" height="768" opacity="1" fill="#FFFFFF" stroke="none"/>
<polygon opacity="1" fill="#E6194B" points="78,621 79,589 80,563 81,562 82,561 82,560 83,561 84,560 85,560 86,557 87,556 88,556 89,553 90,552 90,552 91,551 92,551 93,551 94,550 95,550 96,546 97,546 98,546 99,546 99,545 100,544 101,544 102,536 103,539 104,539 105,538 106,535 107,534 107,534 108,532 109,532 110,531 111,531 112,530 113,529 114,528 115,516 116,521 116,520 117,520 118,518 119,518 120,517 121,517 122,515 123,515 124,514 124,514 125,513 126,497 127,503 128,502 129,502 130,501 131,500 132,499 133,498 133,498 134,497 135,497 136,496 137,495 138,494 139,494 140,492 141,492 142,491 142,491 143,490 144,489 145,488 146,487 147,487 148,486 149,485 150,484 150,483 151,460 152,470 153,470 154,469 155,468 156,467 157,467 158,466 159,465 159,464 160,463 161,464 162,462 163,462 164,460 165,459 166,459 167,458 167,458 168,457 169,457 170,456 171,456 172,455 173,454 174,453 175,453 176,421 176,436 177,456 178,454 179,455 180,453 181,453 182,452 183,451 184,451 184,450 185,450 186,448 187,448 188,447 189,446 190,446 191,445 192,445 193,443 193,444 194,443 195,441 196,441 197,440 198,440 199,439 200,438 201,437 201,436 202,437 203,435 204,435 205,434 206,434 207,434 208,433 209,432 210,431 210,431 211,430 212,430 213,429 214,428 215,427 216,426 217,427 218,425 218,424 219,424 220,422 221,422 222,422 223,421 224,420 225,419 226,419 227,418 227,418 228,370 229,392 230,391 231,391 232,390 233,389 234,389 235,388 235,387 236,387 237,386 238,385 239,384 240,383 241,383 242,382 243,381 244,380 244,380 245,379 246,379 247,378 248,377 249,376 250,376 251,376 252,375 252,374 253,373 254,373 255,372 256,371 257,370 258,369 259,369 260,369 261,368 261,367 262,366 263,366 264,365 265,365 266,363 267,363 268,362 269,362 269,362 270,361 271,361 272,359 273,359 274,359 275,357 276,357 277,356 278,355 278,355 279,354 280,353 281,352 282,352 283,352 284,351 285,350 286,349 286,348 287,348 288,347 289,346 290,346 291,345 292,344 293,344 294,343 295,342 295,341 296,341 297,341 298,339 299,339 300,337 301,338 302,337 303,336 303,335 304,334 305,334 306,333 307,333 308,332 309,331 310,331 311,332 312,331 312,330 313,330 314,329 315,329 316,328 317,327 318,326 319,325 320,325 321,325 321,324 322,323 323,322 324,321 325,321 326,320 327,319 328,319 329,318 329,317 330,317 331,316 332,315 333,314 334,314 335,314 336,313 337,312 338,310 338,310 339,310 340,309 341,308 342,307 343,307 344,306 345,306 346,304 346,304 347,303 348,302 349,302 350,301 351,300 352,299 353,299 354,298 355,298 355,296 356,296 357,296 358,295 359,295 360,293 361,293 362,292 363,292 363,291 364,290 365,289 366,288 367,289 368,287 369,286 370,286 371,284 372,285 372,283 373,283 374,282 375,281 376,281 377,280 378,279 379,277 380,277 380,276 381,276 382,181 383,227 384,226 385,225 386,225 387,224 388,223 389,223 389,222 390,222 391,220 392,220 393,218 394,218 395,218 396,217 397,216 397,215 398,214 399,214 400,214 401,213 402,212 403,211 404,210 405,210 406,209 406,209 407,207 408,207 409,207 410,206 411,205 412,204 413,203 414,203 414,203 415,202 416,202 417,201 418,200 419,200 420,199 421,198 422,197 423,196 423,197 424,196 425,196 426,195 427,194 428,194 429,193 430,192 431,190 431,190 432,190 433,189 434,188 435,187 436,186 437,186 438,185 439,184 440,184 440,182 441,182 442,182 443,181 444,180 445,179 446,179 447,178 448,178 448,177 449,176 450,176 451,176 452,175 453,173 454,173 455,172 456,172 457,171 457,170 458,169 459,168 460,168 461,168 462,167 463,166 464,165 465,165 465,164 466,164 467,162 468,162 469,161 470,161 471,160 472,159 473,158 474,157 474,157 475,156 476,156 477,154 478,154 479,154 480,153 481,152 482,151 482,150 483,150 484,149 485,149 486,147 487,147 488,146 489,146 490,145 491,144 491,143 492,142 493,143 494,141 495,141 496,140 497,139 498,139 499,138 500,137 500,136 501,136 502,135 503,135 504,133 505,132 506,131 507,131 508,131 508,129 509,129 510,128 511,127 512,127 513,126 514,126 515,124 516,124 517,124 517,123 518,122 519,121 520,120 521,121 522,120 523,119 524,119 525,117 525,117 526,117 527,116 528,115 529,114 530,113 531,113 532,112 533,112 534,111 534,110 535,110 536,110 537,110 538,109 539,108 540,108 541,107 542,107 542,105 543,105 544,104 545,103 546,103 547,102 548,102 549,100 550,100 551,100 551,99 552,98 553,97 554,96 555,96 556,96 557,94 558,93 559,93 559,92 560,92 561,91 562,90 563,89 564,88 565,89 566,88 567,88 568,87 568,87 569,87 570,87 571,86 572,86 573,85 574,86 575,85 576,85 576,84 577,84 578,85 579,84 580,84 581,83 582,83 583,83 584,83 585,82 585,82 586,81 587,81 588,82 589,81 590,81 591,80 592,80 593,81 593,81 594,80 595,80 596,80 597,80 598,80 599,79 600,79 601,78 602,78 602,79 603,78 604,78 605,77 606,77 607,77 608,77 609,77 610,76 610,76 611,75 612,76 613,75 614,75 615,74 616,74 617,74 618,73 619,74 619,72 620,72 621,73 622,72 623,72 624,71 625,71 626,71 627,71 627,70 628,70 629,71 630,70 631,71 632,70 633,70 634,69 635,69 636,70 636,69 637,69 638,68 639,68 640,68 641,68 642,191 643,190 644,190 644,190 645,191 646,190 647,189 648,189 649,188 650,189 651,188 652,188 653,187 653,187 654,188 655,187 656,187 657,186 658,186 659,186 660,186 661,185 661,185 662,185 663,184 664,185 665,184 666,184 667,183 668,183 669,183 670,183 670,183 671,182 672,182 673,182 674,181 675,181 676,181 677,180 678,180 679,180 679,180 680,179 681,179 682,179 683,179 684,178 685,178 686,178 687,177 687,178 688,177 689,177 690,176 691,176 692,176 693,176 694,175 695,175 696,175 696,174 697,175 698,174 699,174 700,173 701,173 702,174 703,173 704,173 704,172 705,172 706,172 707,172 708,171 709,171 710,171 711,171 712,171 713,170 713,170 714,169 715,170 716,169 717,169 718,168 719,167 720,169 721,168 721,167 722,167 723,166 724,167 725,167 726,166 727,166 728,165 729,165 730,165 730,165 731,164 732,164 733,164 734,165 735,165 736,165 737,165 738,164 738,164 739,165 740,164 741,164 742,163 743,164 744,163 745,163 746,162 747,162 747,162 748,162 749,162 750,162 751,161 752,161 753,160 754,161 755,160 755,160 756,159 757,158 758,159 759,158 760,159 761,158 762,157 763,158 764,157 764,157 765,156 766,156 767,156 768,157 769,156 770,156 771,155 772,155 772,155 773,154 774,154 775,154 776,153 777,154 778,153 779,153 780,152 781,152 781,152 782,152 783,151 784,151 785,151 786,151 787,151 788,150 789,150 789,149 790,149 791,149 792,149 793,149 794,148 795,148 796,148 797,148 798,147 798,147 799,146 800,146 801,146 802,146 803,146 804,146 805,146 806,146 806,145 807,145 808,144 809,144 810,145 811,144 812,144 813,143 814,143 815,143 815,143 816,142 817,142 818,141 819,141 820,142 821,141 822,141 823,140 823,140 824,140 825,140 826,139 827,139 828,138 829,139 830,138 831,138 832,137 832,137 833,137 834,138 835,136 836,136 837,136 838,136 839,136 840,135 840,135 841,134 842,135 843,136 844,135 845,135 846,134 847,134 848,134 849,134 849,134 850,133 851,133 852,132 853,133 854,132 855,132 856,131 857,131 858,131 858,130 859,130 860,129 861,130 862,129 863,129 864,128 865,128 866,128 866,128 867,128 868,127 869,127 870,126 871,127 872,126 873,126 874,125 875,125 875,126 876,126 877,126 878,125 879,125 880,125 881,125 882,124 883,124 883,124 884,123 885,124 886,123 887,123 888,122 889,121 890,122 891,122 892,121 892,120 893,120 894,121 895,121 896,120 897,119 898,119 899,119 900,119 900,118 901,118 902,118 903,117 904,118 905,117 906,117 907,116 908,116 909,116 909,116 910,115 911,115 912,115 913,115 914,115 915,114 916,114 917,113 917,113 918,114 919,113 920,113 921,112 922,112 923,112 924,112 925,111 926,111 926,111 927,111 928,111 929,110 930,110 931,109 932,109 933,109 934,108 934,108 935,107 936,108 937,108 938,107 939,107 940,106 941,107 942,106 943,106 943,105 944,105 945,105 946,105 947,105 948,104 949,105 950,105 951,105 951,104 952,104 953,104 954,103 955,104 956,103 957,103 958,103 959,102 960,103 960,102 961,102 962,101 963,101 964,101 965,101 966,100 967,100 968,99 968,99 969,99 970,98 971,98 972,98 972,98 973,98 973,699 78,699 "/>
<polyline fill="none" opacity="1" stroke="#E6194B" stroke-width="1" points="78,621 79,589 80,563 81,562 82,561 82,560 83,561 84,560 85,560 86,557 87,556 88,556 89,553 90,552 90,552 91,551 92,551 93,551 94,550 95,550 96,546 97,546 98,546 99,546 99,545 100,544 101,544 102,536 103,539 104,539 105,538 106,535 107,534 107,534 108,532 109,532 110,531 111,531 112,530 113,529 114,528 115,516 116,521 116,520 117,520 118,518 119,518 120,517 121,517 122,515 123,515 124,514 124,514 125,513 126,497 127,503 128,502 129,502 130,501 131,500 132,499 133,498 133,498 134,497 135,497 136,496 137,495 138,494 139,494 140,492 141,492 142,491 142,491 143,490 144,489 145,488 146,487 147,487 148,486 149,485 150,484 150,483 151,460 152,470 153,470 154,469 155,468 156,467 157,467 158,466 159,465 159,464 160,463 161,464 162,462 163,462 164,460 165,459 166,459 167,458 167,458 168,457 169,457 170,456 171,456 172,455 173,454 174,453 175,453 176,421 176,436 177,456 178,454 179,455 180,453 181,453 182,452 183,451 184,451 184,450 185,450 186,448 187,448 188,447 189,446 190,446 191,445 192,445 193,443 193,444 194,443 195,441 196,441 197,440 198,440 199,439 200,438 201,437 201,436 202,437 203,435 204,435 205,434 206,434 207,434 208,433 209,432 210,431 210,431 211,430 212,430 213,429 214,428 215,427 216,426 217,427 218,425 218,424 219,424 220,422 221,422 222,422 223,421 224,420 225,419 226,419 227,418 227,418 228,370 229,392 230,391 231,391 232,390 233,389 234,389 235,388 235,387 236,387 237,386 238,385 239,384 240,383 241,383 242,382 243,381 244,380 244,380 245,379 246,379 247,378 248,377 249,376 250,376 251,376 252,375 252,374 253,373 254,373 255,372 256,371 257,370 258,369 259,369 260,369 261,368 261,367 262,366 263,366 264,365 265,365 266,363 267,363 268,362 269,362 269,362 270,361 271,361 272,359 273,359 274,359 275,357 276,357 277,356 278,355 278,355 279,354 280,353 281,352 282,352 283,352 284,351 285,350 286,349 286,348 287,348 288,347 289,346 290,346 291,345 292,344 293,344 294,343 295,342 295,341 296,341 297,341 298,339 299,339 300,337 301,338 302,337 303,336 303,335 304,334 305,334 306,333 307,333 308,332 309,331 310,331 311,332 312,331 312,330 313,330 314,329 315,329 316,328 317,327 318,326 319,325 320,325 321,325 321,324 322,323 323,322 324,321 325,321 326,320 327,319 328,319 329,318 329,317 330,317 331,316 332,315 333,314 334,314 335,314 336,313 337,312 338,310 338,310 339,310 340,309 341,308 342,307 343,307 344,306 345,306 346,304 346,304 347,303 348,302 349,302 350,301 351,300 352,299 353,299 354,298 355,298 355,296 356,296 357,296 358,295 359,295 360,293 361,293 362,292 363,292 363,291 364,290 365,289 366,288 367,289 368,287 369,286 370,286 371,284 372,285 372,283 373,283 374,282 375,281 376,281 377,280 378,279 379,277 380,277 380,276 381,276 382,181 383,227 384,226 385,225 386,225 387,224 388,223 389,223 389,222 390,222 391,220 392,220 393,218 394,218 395,218 396,217 397,216 397,215 398,214 399,214 400,214 401,213 402,212 403,211 404,210 405,210 406,209 406,209 407,207 408,207 409,207 410,206 411,205 412,204 413,203 414,203 414,203 415,202 416,202 417,201 418,200 419,200 420,199 421,198 422,197 423,196 423,197 424,196 425,196 426,195 427,194 428,194 429,193 430,192 431,190 431,190 432,190 433,189 434,188 435,187 436,186 437,186 438,185 439,184 440,184 440,182 441,182 442,182 443,181 444,180 445,179 446,179 447,178 448,178 448,177 449,176 450,176 451,176 452,175 453,173 454,173 455,172 456,172 457,171 457,170 458,169 459,168 460,168 461,168 462,167 463,166 464,165 465,165 465,164 466,164 467,162 468,162 469,161 470,161 471,160 472,159 473,158 474,157 474,157 475,156 476,156 477,154 478,154 479,154 480,153 481,152 482,151 482,150 483,150 484,149 485,149 486,147 487,147 488,146 489,146 490,145 491,144 491,143 492,142 493,143 494,141 495,141 496,140 497,139 498,139 499,138 500,137 500,136 501,136 502,135 503,135 504,133 505,132 506,131 507,131 508,131 508,129 509,129 510,128 511,127 512,127 513,126 514,126 515,124 516,124 517,124 517,123 518,122 519,121 520,120 521,121 522,120 523,119 524,119 525,117 525,117 526,117 527,116 528,115 529,114 530,113 531,113 532,112 533,112 534,111 534,110 535,110 536,110 537,110 538,109 539,108 540,108 541,107 542,107 542,105 543,105 544,104 545,103 546,103 547,102 548,102 549,100 550,100 551,100 551,99 552,98 553,97 554,96 555,96 556,96 557,94 558,93 559,93 559,92 560,92 561,91 562,90 563,89 564,88 565,89 566,88 567,88 568,87 568,87 569,87 570,87 571,86 572,86 573,85 574,86 575,85 576,85 576,84 577,84 578,85 579,84 580,84 581,83 582,83 583,83 584,83 585,82 585,82 586,81 587,81 588,82 589,81 590,81 591,80 592,80 593,81 593,81 594,80 595,80 596,80 597,80 598,80 599,79 600,79 601,78 602,78 602,79 603,78 604,78 605,77 606,77 607,77 608,77 609,77 610,76 610,76 611,75 612,76 613,75 614,75 615,74 616,74 617,74 618,73 619,74 619,72 620,72 621,73 622,72 623,72 624,71 625,71 626,71 627,71 627,70 628,70 629,71 630,70 631,71 632,70 633,70 634,69 635,69 636,70 636,69 637,69 638,68 639,68 640,68 641,68 642,191 643,190 644,190 644,190 645,191 646,190 647,189 648,189 649,188 650,189 651,188 652,188 653,187 653,187 654,188 655,187 656,187 657,186 658,186 659,186 660,186 661,185 661,185 662,185 663,184 664,185 665,184 666,184 667,183 668,183 669,183 670,183 670,183 671,182 672,182 673,182 674,181 675,181 676,181 677,180 678,180 679,180 679,180 680,179 681,179 682,179 683,179 684,178 685,178 686,178 687,177 687,178 688,177 689,177 690,176 691,176 692,176 693,176 694,175 695,175 696,175 696,174 697,175 698,174 699,174 700,173 701,173 702,174 703,173 704,173 704,172 705,172 706,172 707,172 708,171 709,171 710,171 711,171 712,171 713,170 713,170 714,169 715,170 716,169 717,169 718,168 719,167 720,169 721,168 721,167 722,167 723,166 724,167 725,167 726,166 727,166 728,165 729,165 730,165 730,165 731,164 732,164 733,164 734,165 735,165 736,165 737,165 738,164 738,164 739,165 740,164 741,164 742,163 743,164 744,163 745,163 746,162 747,162 747,162 748,162 749,162 750,162 751,161 752,161 753,160 754,161 755,160 755,160 756,159 757,158 758,159 759,158 760,159 761,158 762,157 763,158 764,157 764,157 765,156 766,156 767,156 768,157 769,156 770,156 771,155 772,155 772,155 773,154 774,154 775,154 776,153 777,154 778,153 779,153 780,152 781,152 781,152 782,152 783,151 784,151 785,151 786,151 787,151 788,150 789,150 789,149 790,149 791,149 792,149 793,149 794,148 795,148 796,148 797,148 798,147 798,147 799,146 800,146 801,146 802,146 803,146 804,146 805,146 806,146 806,145 807,145 808,144 809,144 810,145 811,144 812,144 813,143 814,143 815,143 815,143 816,142 817,142 818,141 819,141 820,142 821,141 822,141 823,140 823,140 824,140 825,140 826,139 827,139 828,138 829,139 830,138 831,138 832,137 832,137 833,137 834,138 835,136 836,136 837,136 838,136 839,136 840,135 840,135 841,134 842,135 843,136 844,135 845,135 846,134 847,134 848,134 849,134 849,134 850,133 851,133 852,132 853,133 854,132 855,132 856,131 857,131 858,131 858,130 859,130 860,129 861,130 862,129 863,129 864,128 865,128 866,128 866,128 867,128 868,127 869,127 870,126 871,127 872,126 873,126 874,125 875,125 875,126 876,126 877,126 878,125 879,125 880,125 881,125 882,124 883,124 883,124 884,123 885,124 886,123 887,123 888,122 889,121 890,122 891,122 892,121 892,120 893,120 894,121 895,121 896,120 897,119 898,119 899,119 900,119 900,118 901,118 902,118 903,117 904,118 905,117 906,117 907,116 908,116 909,116 909,116 910,115 911,115 912,115 913,115 914,115 915,114 916,114 917,113 917,113 918,114 919,113 920,113 921,112 922,112 923,112 924,112 925,111 926,111 926,111 927,111 928,111 929,110 930,110 931,109 932,109 933,109 934,108 934,108 935,107 936,108 937,108 938,107 939,107 940,106 941,107 942,106 943,106 943,105 944,105 945,105 946,105 947,105 948,104 949,105 950,105 951,105 951,104 952,104 953,104 954,103 955,104 956,103 957,103 958,103 959,102 960,103 960,102 961,102 962,101 963,101 964,101 965,101 966,100 967,100 968,99 968,99 969,99 970,98 971,98 972,98 972,98 973,98 "/>
<line opacity="0.1" stroke="#000000" stroke-width="1" x1="84" y1="699" x2="84" y2="68"/>
<line opacity="0.1" stroke="#000000" stroke-width="1" x1="94" y1="699" x2="94" y2="68"/>
<line opacity="0.1" stroke="#000000" stroke-width="1" x1="105" y1="699" x2="105" y2="68"/>
<line opacity="0.1" stroke="#000000" stroke-width="1" x1="115" y1="699" x2="115" y2="68"/>
<line opacity="0.1" stroke="#000000" stroke-width="1" x1="126" y1="699" x2="126" y2="68"/>
<line opacity="0.1" stroke="#000000" stroke-width="1" x1="137" y1="699" x2="137" y2="68"/>
<line opacity="0.1" stroke="#000000" stroke-width="1" x1="147" y1="699" x2="147" y2="68"/>
<line opacity="0.1" stroke="#000000" stroke-width="1" x1="158" y1="699" x2="158" y2="68"/>
<line opacity="0.1" stroke="#000000" stroke-width="1" x1="168" y1="699" x2="168" y2="68"/>
<line opacity="0.1" stroke="#000000" stroke-width="1" x1="179" y1="699" x2="179" y2="68"/>
<line opacity="0.1" stroke="#000000" stroke-width="1" x1="189" y1="699" x2="189" y2="68"/>
<line opacity="0.1" stroke="#000000" stroke-width="1" x1="200" y1="699" x2="200" y2="68"/>
<line opacity="0.1" stroke="#000000" stroke-width="1" x1="211" y1="699" x2="211" y2="68"/>
<line opacity="0.1" stroke="#000000" stroke-width="1" x1="221" y1="699" x2="221" y2="68"/>
<line opacity="0.1" stroke="#000000" stroke-width="1" x1="232" y1="699" x2="232" y2="68"/>
<line opacity="0.1" stroke="#000000" stroke-width="1" x1="242" y1="699" x2="242" y2="68"/>
<line opacity="0.1" stroke="#000000" stroke-width="1" x1="253" y1="699" x2="253" y2="68"/>
<line opacity="0.1" stroke="#000000" stroke-width="1" x1="264" y1="699" x2="264" y2="68"/>
<line opacity="0.1" stroke="#000000" stroke-width="1" x1="274" y1="699" x2="274" y2="68"/>
<line opacity="0.1" stroke="#000000" stroke-width="1" x1="285" y1="699" x2="285" y2="68"/>
<line opacity="0.1" stroke="#000000" stroke-width="1" x1="295" y1="699" x2="295" y2="68"/>
<line opacity="0.1" stroke="#000000" stroke-width="1" x1="306" y1="699" x2="306" y2="68"/>
<line opacity="0.1" stroke="#000000" stroke-width="1" x1="316" y1="699" x2="316" y2="68"/>
<line opacity="0.1" stroke="#000000" stroke-width="1" x1="327" y1="699" x2="327" y2="68"/>
<line opacity="0.1" stroke="#000000" stroke-width="1" x1="338" y1="699" x2="338" y2="68"/>
<line opacity="0.1" stroke="#000000" stroke-width="1" x1="348" y1="699" x2="348" y2="68"/>
<line opacity="0.1" stroke="#000000" stroke-width="1" x1="359" y1="699" x2="359" y2="68"/>
<line opacity="0.1" stroke="#000000" stroke-width="1" x1="369" y1="699" x2="369" y2="68"/>
<line opacity="0.1" stroke="#000000" stroke-width="1" x1="380" y1="699" x2="380" y2="68"/>
<line opacity="0.1" stroke="#000000" stroke-width="1" x1="390" y1="699" x2="390" y2="68"/>
<line opacity="0.1" stroke="#000000" stroke-width="1" x1="401" y1="699" x2="401" y2="68"/>
<line opacity="0.1" stroke="#000000" stroke-width="1" x1="412" y1="699" x2="412" y2="68"/>
<line opacity="0.1" stroke="#000000" stroke-width="1" x1="422" y1="699" x2="422" y2="68"/>
<line opacity="0.1" stroke="#000000" stroke-width="1" x1="433" y1="699" x2="433" y2="68"/>
<line opacity="0.1" stroke="#000000" stroke-width="1" x1="443" y1="699" x2="443" y2="68"/>
<line opacity="0.1" stroke="#000000" stroke-width="1" x1="454" y1="699" x2="454" y2="68"/>
<line opacity="0.1" stroke="#000000" stroke-width="1" x1="464" y1="699" x2="464" y2="68"/>
<line opacity="0.1" stroke="#000000" stroke-width="1" x1="475" y1="699" x2="475" y2="68"/>
<line opacity="0.1" stroke="#000000" stroke-width="1" x1="486" y1="699" x2="486" y2="68"/>
<line opacity="0.1" stroke="#000000" stroke-width="1" x1="496" y1="699" x2="496" y2="68"/>
<line opacity="0.1" stroke="#000000" stroke-width="1" x1="507" y1="699" x2="507" y2="68"/>
<line opacity="0.1" stroke="#000000" stroke-width="1" x1="517" y1="699" x2="517" y2="68"/>
<line opacity="0.1" stroke="#000000" stroke-width="1" x1="528" y1="699" x2="528" y2="68"/>
<line opacity="0.1" stroke="#000000" stroke-width="1" x1="538" y1="699" x2="538" y2="68"/>
<line opacity="0.1" stroke="#000000" stroke-width="1" x1="549" y1="699" x2="549" y2="68"/>
<line opacity="0.1" stroke="#000000" stroke-width="1" x1="560" y1="699" x2="560" y2="68"/>
<line opacity="0.1" stroke="#000000" stroke-width="1" x1="570" y1="699" x2="570" y2="68"/>
<line opacity="0.1" stroke="#000000" stroke-width="1" x1="581" y1="699" x2="581" y2="68"/>
<line opacity="0.1" stroke="#000000" stroke-width="1" x1="591" y1="699" x2="591" y2="68"/>
<line opacity="0.1" stroke="#000000" stroke-width="1" x1="602" y1="699" x2="602" y2="68"/>
<line opacity="0.1" stroke="#000000" stroke-width="1" x1="612" y1="699" x2="612" y2="68"/>
<line opacity="0.1" stroke="#000000" stroke-width="1" x1="623" y1="699" x2="623" y2="68"/>
<line opacity="0.1" stroke="#000000" stroke-width="1" x1="634" y1="699" x2="634" y2="68"/>
<line opacity="0.1" stroke="#000000" stroke-width="1" x1="644" y1="699" x2="644" y2="68"/>
<line opacity="0.1" stroke="#000000" stroke-width="1" x1="655" y1="699" x2="655" y2="68"/>
<line opacity="0.1" stroke="#000000" stroke-width="1" x1="665" y1="699" x2="665" y2="68"/>
<line opacity="0.1" stroke="#000000" stroke-width="1" x1="676" y1="699" x2="676" y2="68"/>
<line opacity="0.1" stroke="#000000" stroke-width="1" x1="687" y1="699" x2="687" y2="68"/>
<line opacity="0.1" stroke="#000000" stroke-width="1" x1="697" y1="699" x2="697" y2="68"/>
<line opacity="0.1" stroke="#000000" stroke-width="1" x1="708" y1="699" x2="708" y2="68"/>
<line opacity="0.1" stroke="#000000" stroke-width="1" x1="718" y1="699" x2="718" y2="68"/>
<line opacity="0.1" stroke="#000000" stroke-width="1" x1="729" y1="699" x2="729" y2="68"/>
<line opacity="0.1" stroke="#000000" stroke-width="1" x1="739" y1="699" x2="739" y2="68"/>
<line opacity="0.1" stroke="#000000" stroke-width="1" x1="750" y1="699" x2="750" y2="68"/>
<line opacity="0.1" stroke="#000000" stroke-width="1" x1="761" y1="699" x2="761" y2="68"/>
<line opacity="0.1" stroke="#000000" stroke-width="1" x1="771" y1="699" x2="771" y2="68"/>
<line opacity="0.1" stroke="#000000" stroke-width="1" x1="782" y1="699" x2="782" y2="68"/>
<line opacity="0.1" stroke="#000000" stroke-width="1" x1="792" y1="699" x2="792" y2="68"/>
<line opacity="0.1" stroke="#000000" stroke-width="1" x1="803" y1="699" x2="803" y2="68"/>
<line opacity="0.1" stroke="#000000" stroke-width="1" x1="813" y1="699" x2="813" y2="68"/>
<line opacity="0.1" stroke="#000000" stroke-width="1" x1="824" y1="699" x2="824" y2="68"/>
<line opacity="0.1" stroke="#000000" stroke-width="1" x1="835" y1="699" x2="835" y2="68"/>
<line opacity="0.1" stroke="#000000" stroke-width="1" x1="845" y1="699" x2="845" y2="68"/>
<line opacity="0.1" stroke="#000000" stroke-width="1" x1="856" y1="699" x2="856" y2="68"/>
<line opacity="0.1" stroke="#000000" stroke-width="1" x1="866" y1="699" x2="866" y2="68"/>
<line opacity="0.1" stroke="#000000" stroke-width="1" x1="877" y1="699" x2="877" y2="68"/>
<line opacity="0.1" stroke="#000000" stroke-width="1" x1="887" y1="699" x2="887" y2="68"/>
<line opacity="0.1" stroke="#000000" stroke-width="1" x1="898" y1="699" x2="898" y2="68"/>
<line opacity="0.1" stroke="#000000" stroke-width="1" x1="909" y1="699" x2="909" y2="68"/>
<line opacity="0.1" stroke="#000000" stroke-width="1" x1="919" y1="699" x2="919" y2="68"/>
<line opacity="0.1" stroke="#000000" stroke-width="1" x1="930" y1="699" x2="930" y2="68"/>
<line opacity="0.1" stroke="#000000" stroke-width="1" x1="940" y1="699" x2="940" y2="68"/>
<line opacity="0.1" stroke="#000000" stroke-width="1" x1="951" y1="699" x2="951" y2="68"/>
<line opacity="0.1" stroke="#000000" stroke-width="1" x1="961" y1="699" x2="961" y2="68"/>
<line opacity="0.1" stroke="#000000" stroke-width="1" x1="972" y1="699" x2="972" y2="68"/>
<line opacity="0.1" stroke="#000000" stroke-width="1" x1="78" y1="699" x2="973" y2="699"/>
<line opacity="0.1" stroke="#000000" stroke-width="1" x1="78" y1="686" x2="973" y2="686"/>
<line opacity="0.1" stroke="#000000" stroke-width="1" x1="78" y1="673" x2="973" y2="673"/>
<line opacity="0.1" stroke="#000000" stroke-width="1" x1="78" y1="660" x2="973" y2="660"/>
<line opacity="0.1" stroke="#000000" stroke-width="1" x1="78" y1="647" x2="973" y2="647"/>
<line opacity="0.1" stroke="#000000" stroke-width="1" x1="78" y1="634" x2="973" y2="634"/>
<line opacity="0.1" stroke="#000000" stroke-width="1" x1="78" y1="622" x2="973" y2="622"/>
<line opacity="0.1" stroke="#000000" stroke-width="1" x1="78" y1="609" x2="973" y2="609"/>
<line opacity="0.1" stroke="#000000" stroke-width="1" x1="78" y1="596" x2="973" y2="596"/>
<line opacity="0.1" stroke="#000000" stroke-width="1" x1="78" y1="583" x2="973" y2="583"/>
<line opacity="0.1" stroke="#000000" stroke-width="1" x1="78" y1="570" x2="973" y2="570"/>
<line opacity="0.1" stroke="#000000" stroke-width="1" x1="78" y1="557" x2="973" y2="557"/>
<line opacity="0.1" stroke="#000000" stroke-width="1" x1="78" y1="545" x2="973" y2="545"/>
<line opacity="0.1" stroke="#000000" stroke-width="1" x1="78" y1="532" x2="973" y2="532"/>
<line opacity="0.1" stroke="#000000" stroke-width="1" x1="78" y1="519" x2="973" y2="519"/>
<line opacity="0.1" stroke="#000000" stroke-width="1" x1="78" y1="506" x2="973" y2="506"/>
<line opacity="0.1" stroke="#000000" stroke-width="1" x1="78" y1="493" x2="973" y2="493"/>
<line opacity="0.1" stroke="#000000" stroke-width="1" x1="78" y1="480" x2="973" y2="480"/>
<line opacity="0.1" stroke="#000000" stroke-width="1" x1="78" y1="468" x2="973" y2="468"/>
<line opacity="0.1" stroke="#000000" stroke-width="1" x1="78" y1="455" x2="973" y2="455"/>
<line opacity="0.1" stroke="#000000" stroke-width="1" x1="78" y1="442" x2="973" y2="442"/>
<line opacity="0.1" stroke="#000000" stroke-width="1" x1="78" y1="429" x2="973" y2="429"/>
<line opacity="0.1" stroke="#000000" stroke-width="1" x1="78" y1="416" x2="973" y2="416"/>
<line opacity="0.1" stroke="#000000" stroke-width="1" x1="78" y1="404" x2="973" y2="404"/>
<line opacity="0.1" stroke="#000000" stroke-width="1" x1="78" y1="391" x2="973" y2="391"/>
<line opacity="0.1" stroke="#000000" stroke-width="1" x1="78" y1="378" x2="973" y2="378"/>
<line opacity="0.1" stroke="#000000" stroke-width="1" x1="78" y1="365" x2="973" y2="365"/>
<line opacity="0.1" stroke="#000000" stroke-width="1" x1="78" y1="352" x2="973" y2="352"/>
<line opacity="0.1" stroke="#000000" stroke-width="1" x1="78" y1="339" x2="973" y2="339"/>
<line opacity="0.1" stroke="#000000" stroke-width="1" x1="78" y1="327" x2="973" y2="327"/>
<line opacity="0.1" stroke="#000000" stroke-width="1" x1="78" y1="314" x2="973" y2="314"/>
<line opacity="0.1" stroke="#000000" stroke-width="1" x1="78" y1="301" x2="973" y2="301"/>
<line opacity="0.1" stroke="#000000" stroke-width="1" x1="78" y1="288" x2="973" y2="288"/>
<line opacity="0.1" stroke="#000000" stroke-width="1" x1="78" y1="275" x2="973" y2="275"/>
<line opacity="0.1" stroke="#000000" stroke-width="1" x1="78" y1="262" x2="973" y2="262"/>
<line opacity="0.1" stroke="#000000" stroke-width="1" x1="78" y1="250" x2="973" y2="250"/>
<line opacity="0.1" stroke="#000000" stroke-width="1" x1="78" y1="237" x2="973" y2="237"/>
<line opacity="0.1" stroke="#000000" stroke-width="1" x1="78" y1="224" x2="973" y2="224"/>
<line opacity="0.1" stroke="#000000" stroke-width="1" x1="78" y1="211" x2="973" y2="211"/>
<line opacity="0.1" stroke="#000000" stroke-width="1" x1="78" y1="198" x2="973" y2="198"/>
<line opacity="0.1" stroke="#000000" stroke-width="1" x1="78" y1="185" x2="973" y2="185"/>
<line opacity="0.1" stroke="#000000" stroke-width="1" x1="78" y1="173" x2="973" y2="173"/>
<line opacity="0.1" stroke="#000000" stroke-width="1" x1="78" y1="160" x2="973" y2="160"/>
<line opacity="0.1" stroke="#000000" stroke-width="1" x1="78" y1="147" x2="973" y2="147"/>
<line opacity="0.1" stroke="#000000" stroke-width="1" x1="78" y1="134" x2="973" y2="134"/>
<line opacity="0.1" stroke="#000000" stroke-width="1" x1="78" y1="121" x2="973" y2="121"/>
<line opacity="0.1" stroke="#000000" stroke-width="1" x1="78" y1="109" x2="973" y2="109"/>
<line opacity="0.1" stroke="#000000" stroke-width="1" x1="78" y1="96" x2="973" y2="96"/>
<line opacity="0.1" stroke="#000000" stroke-width="1" x1="78" y1="83" x2="973" y2="83"/>
<line opacity="0.1" stroke="#000000" stroke-width="1" x1="78" y1="70" x2="973" y2="70"/>
<text x="8" y="384" dy="0.76em" text-anchor="middle" font-family="sans-serif" font-size="9.67741935483871" opacity="1" fill="#000000" transform="rotate(270, 8, 384)">
Memory usage
</text>
<text x="526" y="760" dy="-0.5ex" text-anchor="middle" font-family="sans-serif" font-size="9.67741935483871" opacity="1" fill="#000000">
Time
</text>
<line opacity="0.2" stroke="#000000" stroke-width="1" x1="105" y1="699" x2="105" y2="68"/>
<line opacity="0.2" stroke="#000000" stroke-width="1" x1="211" y1="699" x2="211" y2="68"/>
<line opacity="0.2" stroke="#000000" stroke-width="1" x1="316" y1="699" x2="316" y2="68"/>
<line opacity="0.2" stroke="#000000" stroke-width="1" x1="422" y1="699" x2="422" y2="68"/>
<line opacity="0.2" stroke="#000000" stroke-width="1" x1="528" y1="699" x2="528" y2="68"/>
<line opacity="0.2" stroke="#000000" stroke-width="1" x1="634" y1="699" x2="634" y2="68"/>
<line opacity="0.2" stroke="#000000" stroke-width="1" x1="739" y1="699" x2="739" y2="68"/>
<line opacity="0.2" stroke="#000000" stroke-width="1" x1="845" y1="699" x2="845" y2="68"/>
<line opacity="0.2" stroke="#000000" stroke-width="1" x1="951" y1="699" x2="951" y2="68"/>
<line opacity="0.2" stroke="#000000" stroke-width="1" x1="78" y1="699" x2="973" y2="699"/>
<line opacity="0.2" stroke="#000000" stroke-width="1" x1="78" y1="570" x2="973" y2="570"/>
<line opacity="0.2" stroke="#000000" stroke-width="1" x1="78" y1="442" x2="973" y2="442"/>
<line opacity="0.2" stroke="#000000" stroke-width="1" x1="78" y1="314" x2="973" y2="314"/>
<line opacity="0.2" stroke="#000000" stroke-width="1" x1="78" y1="185" x2="973" y2="185"/>
<polyline fill="none" opacity="1" stroke="#000000" stroke-width="1" points="77,68 77,699 "/>
<text x="68" y="699" dy="0.5ex" text-anchor="end" font-family="sans-serif" font-size="9.67741935483871" opacity="1" fill="#000000">
0 MB
</text>
<polyline fill="none" opacity="1" stroke="#000000" stroke-width="1" points="72,699 77,699 "/>
<text x="68" y="570" dy="0.5ex" text-anchor="end" font-family="sans-serif" font-size="9.67741935483871" opacity="1" fill="#000000">
476 MB
</text>
<polyline fill="none" opacity="1" stroke="#000000" stroke-width="1" points="72,570 77,570 "/>
<text x="68" y="442" dy="0.5ex" text-anchor="end" font-family="sans-serif" font-size="9.67741935483871" opacity="1" fill="#000000">
953 MB
</text>
<polyline fill="none" opacity="1" stroke="#000000" stroke-width="1" points="72,442 77,442 "/>
<text x="68" y="314" dy="0.5ex" text-anchor="end" font-family="sans-serif" font-size="9.67741935483871" opacity="1" fill="#000000">
1430 MB
</text>
<polyline fill="none" opacity="1" stroke="#000000" stroke-width="1" points="72,314 77,314 "/>
<text x="68" y="185" dy="0.5ex" text-anchor="end" font-family="sans-serif" font-size="9.67741935483871" opacity="1" fill="#000000">
1907 MB
</text>
<polyline fill="none" opacity="1" stroke="#000000" stroke-width="1" points="72,185 77,185 "/>
<polyline fill="none" opacity="1" stroke="#000000" stroke-width="1" points="78,700 973,700 "/>
<text x="105" y="710" dy="0.76em" text-anchor="middle" font-family="sans-serif" font-size="9.67741935483871" opacity="1" fill="#000000">
07 20:33:20
</text>
<polyline fill="none" opacity="1" stroke="#000000" stroke-width="1" points="105,700 105,705 "/>
<text x="211" y="710" dy="0.76em" text-anchor="middle" font-family="sans-serif" font-size="9.67741935483871" opacity="1" fill="#000000">
08 10:26:40
</text>
<polyline fill="none" opacity="1" stroke="#000000" stroke-width="1" points="211,700 211,705 "/>
<text x="316" y="710" dy="0.76em" text-anchor="middle" font-family="sans-serif" font-size="9.67741935483871" opacity="1" fill="#000000">
09 00:20:00
</text>
<polyline fill="none" opacity="1" stroke="#000000" stroke-width="1" points="316,700 316,705 "/>
<text x="422" y="710" dy="0.76em" text-anchor="middle" font-family="sans-serif" font-size="9.67741935483871" opacity="1" fill="#000000">
09 14:13:20
</text>
<polyline fill="none" opacity="1" stroke="#000000" stroke-width="1" points="422,700 422,705 "/>
<text x="528" y="710" dy="0.76em" text-anchor="middle" font-family="sans-serif" font-size="9.67741935483871" opacity="1" fill="#000000">
10 04:06:40
</text>
<polyline fill="none" opacity="1" stroke="#000000" stroke-width="1" points="528,700 528,705 "/>
<text x="634" y="710" dy="0.76em" text-anchor="middle" font-family="sans-serif" font-size="9.67741935483871" opacity="1" fill="#000000">
10 18:00:00
</text>
<polyline fill="none" opacity="1" stroke="#000000" stroke-width="1" points="634,700 634,705 "/>
<text x="739" y="710" dy="0.76em" text-anchor="middle" font-family="sans-serif" font-size="9.67741935483871" opacity="1" fill="#000000">
11 07:53:20
</text>
<polyline fill="none" opacity="1" stroke="#000000" stroke-width="1" points="739,700 739,705 "/>
<text x="845" y="710" dy="0.76em" text-anchor="middle" font-family="sans-serif" font-size="9.67741935483871" opacity="1" fill="#000000">
11 21:46:40
</text>
<polyline fill="none" opacity="1" stroke="#000000" stroke-width="1" points="845,700 845,705 "/>
<text x="951" y="710" dy="0.76em" text-anchor="middle" font-family="sans-serif" font-size="9.67741935483871" opacity="1" fill="#000000">
12 11:40:00
</text>
<polyline fill="none" opacity="1" stroke="#000000" stroke-width="1" points="951,700 951,705 "/>
<polyline fill="none" opacity="1" stroke="#000000" stroke-width="1" points="78,67 974,67 "/>
<text x="105" y="58" dy="-0.5ex" text-anchor="middle" font-family="sans-serif" font-size="9.67741935483871" opacity="1" fill="#000000">
+03:35:44
</text>
<polyline fill="none" opacity="1" stroke="#000000" stroke-width="1" points="105,62 105,67 "/>
<text x="211" y="58" dy="-0.5ex" text-anchor="middle" font-family="sans-serif" font-size="9.67741935483871" opacity="1" fill="#000000">
+17:29:04
</text>
<polyline fill="none" opacity="1" stroke="#000000" stroke-width="1" points="211,62 211,67 "/>
<text x="317" y="58" dy="-0.5ex" text-anchor="middle" font-family="sans-serif" font-size="9.67741935483871" opacity="1" fill="#000000">
+31:22:24
</text>
<polyline fill="none" opacity="1" stroke="#000000" stroke-width="1" points="317,62 317,67 "/>
<text x="423" y="58" dy="-0.5ex" text-anchor="middle" font-family="sans-serif" font-size="9.67741935483871" opacity="1" fill="#000000">
+45:15:44
</text>
<polyline fill="none" opacity="1" stroke="#000000" stroke-width="1" points="423,62 423,67 "/>
<text x="528" y="58" dy="-0.5ex" text-anchor="middle" font-family="sans-serif" font-size="9.67741935483871" opacity="1" fill="#000000">
+59:09:04
</text>
<polyline fill="none" opacity="1" stroke="#000000" stroke-width="1" points="528,62 528,67 "/>
<text x="634" y="58" dy="-0.5ex" text-anchor="middle" font-family="sans-serif" font-size="9.67741935483871" opacity="1" fill="#000000">
+73:02:24
</text>
<polyline fill="none" opacity="1" stroke="#000000" stroke-width="1" points="634,62 634,67 "/>
<text x="740" y="58" dy="-0.5ex" text-anchor="middle" font-family="sans-serif" font-size="9.67741935483871" opacity="1" fill="#000000">
+86:55:44
</text>
<polyline fill="none" opacity="1" stroke="#000000" stroke-width="1" points="740,62 740,67 "/>
<text x="846" y="58" dy="-0.5ex" text-anchor="middle" font-family="sans-serif" font-size="9.67741935483871" opacity="1" fill="#000000">
+100:49:04
</text>
<polyline fill="none" opacity="1" stroke="#000000" stroke-width="1" points="846,62 846,67 "/>
<text x="952" y="58" dy="-0.5ex" text-anchor="middle" font-family="sans-serif" font-size="9.67741935483871" opacity="1" fill="#000000">
+114:42:24
</text>
<polyline fill="none" opacity="1" stroke="#000000" stroke-width="1" points="952,62 952,67 "/>
</svg>
