<svg width="1024" height="768" viewBox="0 0 1024 768" xmlns="http://www.w3.org/2000/svg">
<rect x="0" y="0" width="1024" height="768" opacity="1" fill="#FFFFFF" stroke="none"/>
<polygon opacity="1" fill="#3CB44B" points="78,697 79,695 80,694 81,693 82,692 83,691 83,690 84,689 85,688 86,686 87,685 88,684 89,683 90,682 91,681 92,679 92,678 93,677 94,676 95,675 96,674 97,673 98,672 99,670 100,669 100,668 101,667 102,666 103,665 104,664 105,662 106,661 107,660 108,659 109,658 109,657 110,655 111,654 112,653 113,652 114,651 115,649 116,648 117,647 117,646 118,645 119,643 120,642 121,641 122,640 123,639 124,638 125,636 126,635 126,634 127,633 128,632 129,630 130,629 131,628 132,627 133,626 134,624 134,623 135,622 136,621 137,620 138,619 139,618 140,616 141,615 142,614 143,613 143,612 144,610 145,609 146,608 147,607 148,606 149,605 150,603 151,602 151,601 152,600 153,599 154,598 155,597 156,595 157,594 158,593 159,592 160,591 160,590 161,589 162,587 163,586 164,585 165,584 166,582 167,581 168,580 168,579 169,578 170,577 171,575 172,574 173,573 174,572 175,571 176,569 177,568 177,567 178,566 179,565 180,564 181,562 182,561 183,560 184,559 185,558 185,557 186,555 187,554 188,553 189,552 190,551 191,550 192,549 193,548 194,546 194,545 195,544 196,543 197,542 198,541 199,539 200,538 201,537 202,536 202,535 203,534 204,532 205,531 206,530 207,529 208,528 209,527 210,526 211,524 211,523 212,522 213,521 214,520 215,519 216,518 217,517 218,516 219,514 219,513 220,512 221,511 222,510 223,509 224,508 225,507 226,505 227,504 228,503 228,502 229,501 230,500 231,499 232,498 233,496 234,495 235,494 236,493 236,492 237,491 238,490 239,489 240,487 241,486 242,485 243,484 244,483 245,482 245,481 246,479 247,478 248,477 249,476 250,475 251,473 252,472 253,471 253,470 254,469 255,468 256,467 257,465 258,464 259,463 260,462 261,461 262,460 262,459 263,457 264,456 265,455 266,454 267,453 268,452 269,450 270,449 270,448 271,447 272,446 273,445 274,444 275,442 276,441 277,440 278,439 279,438 279,437 280,436 281,434 282,433 283,432 284,431 285,430 286,429 287,428 288,426 288,425 289,424 290,423 291,422 292,421 293,419 294,418 295,417 296,416 296,415 297,414 298,412 299,411 300,410 301,409 302,408 303,406 304,405 305,404 305,403 306,402 307,400 308,399 309,398 310,397 311,396 312,395 313,394 313,393 314,392 315,390 316,389 317,388 318,387 319,386 320,385 321,384 322,383 322,382 323,381 324,379 325,378 326,377 327,376 328,375 329,374 330,372 330,371 331,370 332,369 333,368 334,367 335,365 336,364 337,363 338,362 339,361 339,360 340,359 341,358 342,357 343,356 344,354 345,353 346,352 347,351 347,350 348,348 349,347 350,346 351,345 352,344 353,342 354,341 355,340 356,339 356,338 357,337 358,335 359,334 360,333 361,332 362,331 363,330 364,329 364,327 365,326 366,325 367,324 368,323 369,322 370,321 371,319 372,318 373,317 373,316 374,315 375,314 376,312 377,311 378,310 379,309 380,308 381,306 381,305 382,304 383,303 384,302 385,301 386,300 387,299 388,297 389,296 390,295 390,294 391,292 392,291 393,290 394,289 395,288 396,287 397,286 398,284 398,283 399,282 400,281 401,280 402,278 403,277 404,276 405,275 406,274 407,272 407,271 408,270 409,269 410,268 411,267 412,266 413,265 414,264 415,262 415,261 416,260 417,259 418,258 419,257 420,256 421,255 422,254 423,252 424,251 424,250 425,249 426,248 427,246 428,245 429,244 430,243 431,242 432,241 432,239 433,238 434,237 435,236 436,235 437,233 438,232 439,231 440,230 441,229 441,227 442,226 443,225 444,224 445,223 446,222 447,221 448,220 449,218 449,217 450,216 451,215 452,214 453,212 454,211 455,210 456,209 457,208 458,207 458,206 459,204 460,203 461,202 462,201 463,200 464,199 465,197 466,196 466,195 467,194 468,193 469,192 470,190 471,189 472,188 473,187 474,186 475,184 475,183 476,182 477,181 478,180 479,179 480,178 481,176 482,175 483,174 483,173 484,172 485,171 486,170 487,169 488,167 489,166 490,165 491,164 492,163 492,162 493,160 494,159 495,158 496,157 497,156 498,155 499,154 500,152 501,151 501,150 502,149 503,148 504,147 505,146 506,144 507,143 508,142 509,141 509,140 510,139 511,137 512,136 513,135 514,134 515,133 516,132 517,130 518,129 518,128 519,127 520,126 521,125 522,123 523,122 524,121 525,120 526,119 526,118 527,116 528,115 529,114 530,113 531,112 532,111 533,110 534,109 535,108 535,107 536,106 537,105 538,103 539,102 540,101 541,100 542,99 543,98 543,97 544,96 545,95 546,93 547,92 548,91 549,90 550,89 551,88 552,87 552,86 553,85 554,83 555,82 556,81 557,80 558,79 559,78 560,77 560,75 561,74 562,73 563,72 564,71 565,70 566,69 567,68 568,68 569,68 569,68 570,68 571,68 572,68 573,68 574,68 575,68 576,68 577,68 577,68 578,68 579,68 580,68 581,68 582,68 583,68 584,68 585,68 586,68 586,68 587,68 588,68 589,68 590,68 591,68 592,68 593,68 594,68 594,68 595,68 596,68 597,68 598,68 599,68 600,68 601,68 602,68 603,68 603,68 604,68 605,68 606,68 607,68 608,68 609,68 610,68 611,68 611,68 612,68 613,68 614,68 615,68 616,68 617,68 618,68 619,68 620,68 620,68 621,68 622,68 623,68 624,68 625,68 626,68 627,68 628,68 628,68 629,68 630,68 631,68 632,68 633,68 634,68 635,68 636,68 637,68 637,68 638,68 639,68 640,69 641,68 642,68 643,68 644,68 645,68 645,68 646,68 647,68 648,68 649,68 650,68 651,68 652,68 653,68 654,68 654,68 655,68 656,68 657,68 658,68 659,68 660,68 661,68 662,68 662,68 663,68 664,68 665,68 666,68 667,68 668,68 669,68 670,68 671,68 671,68 672,68 673,68 674,68 675,68 676,68 677,68 678,68 679,68 679,68 680,68 681,68 682,68 683,68 684,68 685,68 686,68 687,68 688,68 688,68 689,68 690,68 691,68 692,68 693,68 694,68 695,68 696,68 696,68 697,68 698,68 699,68 700,68 701,68 702,68 703,68 704,68 705,68 705,68 706,68 707,68 708,68 709,68 710,68 711,68 712,68 713,68 714,68 714,68 715,68 716,68 717,68 718,68 719,68 720,68 721,68 722,68 722,68 723,68 724,68 725,68 726,68 727,68 728,68 729,68 730,68 731,68 731,68 732,68 733,68 734,68 735,68 736,68 737,68 738,68 739,68 739,68 740,68 741,68 742,68 743,68 744,68 745,68 746,68 747,68 748,68 748,68 749,68 750,68 751,68 752,68 753,68 754,68 755,68 756,69 756,68 757,68 758,68 759,68 760,68 761,68 762,69 763,68 764,69 765,69 765,69 766,69 767,69 768,69 769,69 770,69 771,69 772,69 773,69 773,69 774,69 775,69 776,69 777,69 778,69 779,69 780,69 781,69 782,69 782,69 783,69 784,69 785,69 786,69 787,69 788,69 789,69 790,69 790,69 791,69 792,69 793,70 794,69 795,70 796,70 797,70 798,70 799,70 799,70 800,70 801,70 802,70 803,70 804,70 805,70 806,70 807,70 807,70 808,70 809,70 810,70 811,70 812,70 813,70 814,70 815,70 816,70 816,70 817,70 818,70 819,70 820,70 821,70 822,70 823,70 824,70 824,70 825,70 826,70 827,70 828,70 829,70 830,70 831,70 832,70 833,70 833,70 834,70 835,70 836,70 837,70 838,70 839,70 840,70 841,70 841,70 842,70 843,71 844,71 845,71 846,71 847,71 848,71 849,71 850,71 850,71 851,71 852,71 853,71 854,71 855,71 856,71 857,71 858,71 858,71 859,71 860,71 861,71 862,71 863,71 864,71 865,71 866,71 867,71 867,71 868,71 869,71 870,71 871,71 872,71 873,71 874,71 875,71 875,71 876,71 877,71 878,71 879,71 880,72 881,71 882,71 883,72 884,72 884,72 885,72 886,72 887,72 888,72 889,72 890,72 891,72 892,72 892,72 893,72 894,72 895,72 896,72 897,72 898,72 899,72 900,72 901,72 901,72 902,72 903,72 904,72 905,72 906,72 907,72 908,72 909,72 909,72 910,72 911,72 912,72 913,72 914,72 915,72 916,72 917,72 918,72 918,72 919,72 920,72 921,72 922,72 923,72 924,72 925,72 926,72 927,72 927,72 928,72 929,72 930,72 931,72 932,72 933,72 934,72 935,72 935,72 936,72 937,72 938,72 939,72 940,72 941,72 942,72 943,72 944,72 944,72 945,72 946,72 947,72 948,72 949,72 950,72 951,72 952,72 952,73 953,73 954,73 955,73 956,73 957,73 958,73 959,73 960,73 961,73 961,73 962,73 963,73 964,73 965,73 966,73 967,73 968,73 969,73 969,73 970,73 971,73 972,74 972,74 973,74 973,699 78,699 "/>
<polyline fill="none" opacity="1" stroke="#3CB44B" stroke-width="1" points="78,697 79,695 80,694 81,693 82,692 83,691 83,690 84,689 85,688 86,686 87,685 88,684 89,683 90,682 91,681 92,679 92,678 93,677 94,676 95,675 96,674 97,673 98,672 99,670 100,669 100,668 101,667 102,666 103,665 104,664 105,662 106,661 107,660 108,659 109,658 109,657 110,655 111,654 112,653 113,652 114,651 115,649 116,648 117,647 117,646 118,645 119,643 120,642 121,641 122,640 123,639 124,638 125,636 126,635 126,634 127,633 128,632 129,630 130,629 131,628 132,627 133,626 134,624 134,623 135,622 136,621 137,620 138,619 139,618 140,616 141,615 142,614 143,613 143,612 144,610 145,609 146,608 147,607 148,606 149,605 150,603 151,602 151,601 152,600 153,599 154,598 155,597 156,595 157,594 158,593 159,592 160,591 160,590 161,589 162,587 163,586 164,585 165,584 166,582 167,581 168,580 168,579 169,578 170,577 171,575 172,574 173,573 174,572 175,571 176,569 177,568 177,567 178,566 179,565 180,564 181,562 182,561 183,560 184,559 185,558 185,557 186,555 187,554 188,553 189,552 190,551 191,550 192,549 193,548 194,546 194,545 195,544 196,543 197,542 198,541 199,539 200,538 201,537 202,536 202,535 203,534 204,532 205,531 206,530 207,529 208,528 209,527 210,526 211,524 211,523 212,522 213,521 214,520 215,519 216,518 217,517 218,516 219,514 219,513 220,512 221,511 222,510 223,509 224,508 225,507 226,505 227,504 228,503 228,502 229,501 230,500 231,499 232,498 233,496 234,495 235,494 236,493 236,492 237,491 238,490 239,489 240,487 241,486 242,485 243,484 244,483 245,482 245,481 246,479 247,478 248,477 249,476 250,475 251,473 252,472 253,471 253,470 254,469 255,468 256,467 257,465 258,464 259,463 260,462 261,461 262,460 262,459 263,457 264,456 265,455 266,454 267,453 268,452 269,450 270,449 270,448 271,447 272,446 273,445 274,444 275,442 276,441 277,440 278,439 279,438 279,437 280,436 281,434 282,433 283,432 284,431 285,430 286,429 287,428 288,426 288,425 289,424 290,423 291,422 292,421 293,419 294,418 295,417 296,416 296,415 297,414 298,412 299,411 300,410 301,409 302,408 303,406 304,405 305,404 305,403 306,402 307,400 308,399 309,398 310,397 311,396 312,395 313,394 313,393 314,392 315,390 316,389 317,388 318,387 319,386 320,385 321,384 322,383 322,382 323,381 324,379 325,378 326,377 327,376 328,375 329,374 330,372 330,371 331,370 332,369 333,368 334,367 335,365 336,364 337,363 338,362 339,361 339,360 340,359 341,358 342,357 343,356 344,354 345,353 346,352 347,351 347,350 348,348 349,347 350,346 351,345 352,344 353,342 354,341 355,340 356,339 356,338 357,337 358,335 359,334 360,333 361,332 362,331 363,330 364,329 364,327 365,326 366,325 367,324 368,323 369,322 370,321 371,319 372,318 373,317 373,316 374,315 375,314 376,312 377,311 378,310 379,309 380,308 381,306 381,305 382,304 383,303 384,302 385,301 386,300 387,299 388,297 389,296 390,295 390,294 391,292 392,291 393,290 394,289 395,288 396,287 397,286 398,284 398,283 399,282 400,281 401,280 402,278 403,277 404,276 405,275 406,274 407,272 407,271 408,270 409,269 410,268 411,267 412,266 413,265 414,264 415,262 415,261 416,260 417,259 418,258 419,257 420,256 421,255 422,254 423,252 424,251 424,250 425,249 426,248 427,246 428,245 429,244 430,243 431,242 432,241 432,239 433,238 434,237 435,236 436,235 437,233 438,232 439,231 440,230 441,229 441,227 442,226 443,225 444,224 445,223 446,222 447,221 448,220 449,218 449,217 450,216 451,215 452,214 453,212 454,211 455,210 456,209 457,208 458,207 458,206 459,204 460,203 461,202 462,201 463,200 464,199 465,197 466,196 466,195 467,194 468,193 469,192 470,190 471,189 472,188 473,187 474,186 475,184 475,183 476,182 477,181 478,180 479,179 480,178 481,176 482,175 483,174 483,173 484,172 485,171 486,170 487,169 488,167 489,166 490,165 491,164 492,163 492,162 493,160 494,159 495,158 496,157 497,156 498,155 499,154 500,152 501,151 501,150 502,149 503,148 504,147 505,146 506,144 507,143 508,142 509,141 509,140 510,139 511,137 512,136 513,135 514,134 515,133 516,132 517,130 518,129 518,128 519,127 520,126 521,125 522,123 523,122 524,121 525,120 526,119 526,118 527,116 528,115 529,114 530,113 531,112 532,111 533,110 534,109 535,108 535,107 536,106 537,105 538,103 539,102 540,101 541,100 542,99 543,98 543,97 544,96 545,95 546,93 547,92 548,91 549,90 550,89 551,88 552,87 552,86 553,85 554,83 555,82 556,81 557,80 558,79 559,78 560,77 560,75 561,74 562,73 563,72 564,71 565,70 566,69 567,68 568,68 569,68 569,68 570,68 571,68 572,68 573,68 574,68 575,68 576,68 577,68 577,68 578,68 579,68 580,68 581,68 582,68 583,68 584,68 585,68 586,68 586,68 587,68 588,68 589,68 590,68 591,68 592,68 593,68 594,68 594,68 595,68 596,68 597,68 598,68 599,68 600,68 601,68 602,68 603,68 603,68 604,68 605,68 606,68 607,68 608,68 609,68 610,68 611,68 611,68 612,68 613,68 614,68 615,68 616,68 617,68 618,68 619,68 620,68 620,68 621,68 622,68 623,68 624,68 625,68 626,68 627,68 628,68 628,68 629,68 630,68 631,68 632,68 633,68 634,68 635,68 636,68 637,68 637,68 638,68 639,68 640,69 641,68 642,68 643,68 644,68 645,68 645,68 646,68 647,68 648,68 649,68 650,68 651,68 652,68 653,68 654,68 654,68 655,68 656,68 657,68 658,68 659,68 660,68 661,68 662,68 662,68 663,68 664,68 665,68 666,68 667,68 668,68 669,68 670,68 671,68 671,68 672,68 673,68 674,68 675,68 676,68 677,68 678,68 679,68 679,68 680,68 681,68 682,68 683,68 684,68 685,68 686,68 687,68 688,68 688,68 689,68 690,68 691,68 692,68 693,68 694,68 695,68 696,68 696,68 697,68 698,68 699,68 700,68 701,68 702,68 703,68 704,68 705,68 705,68 706,68 707,68 708,68 709,68 710,68 711,68 712,68 713,68 714,68 714,68 715,68 716,68 717,68 718,68 719,68 720,68 721,68 722,68 722,68 723,68 724,68 725,68 726,68 727,68 728,68 729,68 730,68 731,68 731,68 732,68 733,68 734,68 735,68 736,68 737,68 738,68 739,68 739,68 740,68 741,68 742,68 743,68 744,68 745,68 746,68 747,68 748,68 748,68 749,68 750,68 751,68 752,68 753,68 754,68 755,68 756,69 756,68 757,68 758,68 759,68 760,68 761,68 762,69 763,68 764,69 765,69 765,69 766,69 767,69 768,69 769,69 770,69 771,69 772,69 773,69 773,69 774,69 775,69 776,69 777,69 778,69 779,69 780,69 781,69 782,69 782,69 783,69 784,69 785,69 786,69 787,69 788,69 789,69 790,69 790,69 791,69 792,69 793,70 794,69 795,70 796,70 797,70 798,70 799,70 799,70 800,70 801,70 802,70 803,70 804,70 805,70 806,70 807,70 807,70 808,70 809,70 810,70 811,70 812,70 813,70 814,70 815,70 816,70 816,70 817,70 818,70 819,70 820,70 821,70 822,70 823,70 824,70 824,70 825,70 826,70 827,70 828,70 829,70 830,70 831,70 832,70 833,70 833,70 834,70 835,70 836,70 837,70 838,70 839,70 840,70 841,70 841,70 842,70 843,71 844,71 845,71 846,71 847,71 848,71 849,71 850,71 850,71 851,71 852,71 853,71 854,71 855,71 856,71 857,71 858,71 858,71 859,71 860,71 861,71 862,71 863,71 864,71 865,71 866,71 867,71 867,71 868,71 869,71 870,71 871,71 872,71 873,71 874,71 875,71 875,71 876,71 877,71 878,71 879,71 880,72 881,71 882,71 883,72 884,72 884,72 885,72 886,72 887,72 888,72 889,72 890,72 891,72 892,72 892,72 893,72 894,72 895,72 896,72 897,72 898,72 899,72 900,72 901,72 901,72 902,72 903,72 904,72 905,72 906,72 907,72 908,72 909,72 909,72 910,72 911,72 912,72 913,72 914,72 915,72 916,72 917,72 918,72 918,72 919,72 920,72 921,72 922,72 923,72 924,72 925,72 926,72 927,72 927,72 928,72 929,72 930,72 931,72 932,72 933,72 934,72 935,72 935,72 936,72 937,72 938,72 939,72 940,72 941,72 942,72 943,72 944,72 944,72 945,72 946,72 947,72 948,72 949,72 950,72 951,72 952,72 952,73 953,73 954,73 955,73 956,73 957,73 958,73 959,73 960,73 961,73 961,73 962,73 963,73 964,73 965,73 966,73 967,73 968,73 969,73 969,73 970,73 971,73 972,74 972,74 973,74 "/>
<polygon opacity="1" fill="#E6194B" points="78,699 79,699 80,699 81,699 82,699 83,699 83,699 84,699 85,699 86,699 87,699 88,699 89,699 90,699 91,699 92,699 92,699 93,699 94,699 95,699 96,699 97,699 98,699 99,699 100,699 100,699 101,699 102,699 103,699 104,699 105,699 106,699 107,699 108,699 109,699 109,699 110,699 111,699 112,699 113,699 114,699 115,699 116,699 117,699 117,699 118,699 119,699 120,699 121,699 122,699 123,699 124,699 125,699 126,699 126,699 127,699 128,699 129,699 130,699 131,699 132,699 133,699 134,699 134,699 135,699 136,699 137,699 138,699 139,699 140,699 141,699 142,699 143,699 143,699 144,699 145,699 146,699 147,699 148,699 149,699 150,699 151,699 151,699 152,699 153,699 154,699 155,699 156,699 157,699 158,699 159,699 160,699 160,699 161,699 162,699 163,699 164,699 165,699 166,699 167,699 168,699 168,699 169,699 170,699 171,699 172,699 173,699 174,699 175,699 176,699 177,699 177,699 178,699 179,699 180,699 181,699 182,699 183,699 184,699 185,699 185,699 186,699 187,699 188,699 189,699 190,699 191,699 192,699 193,699 194,699 194,699 195,699 196,699 197,699 198,699 199,699 200,699 201,699 202,699 202,699 203,699 204,699 205,699 206,699 207,699 208,699 209,699 210,699 211,699 211,699 212,699 213,699 214,699 215,699 216,699 217,699 218,699 219,699 219,699 220,699 221,699 222,699 223,699 224,699 225,699 226,699 227,699 228,699 228,699 229,699 230,699 231,699 232,699 233,699 234,699 235,699 236,699 236,699 237,699 238,699 239,699 240,699 241,699 242,699 243,699 244,699 245,699 245,699 246,699 247,699 248,699 249,699 250,699 251,699 252,699 253,699 253,699 254,699 255,699 256,699 257,699 258,699 259,699 260,699 261,699 262,699 262,699 263,699 264,699 265,699 266,699 267,699 268,699 269,699 270,699 270,699 271,699 272,699 273,699 274,699 275,699 276,699 277,699 278,699 279,699 279,699 280,699 281,699 282,699 283,699 284,699 285,699 286,699 287,699 288,699 288,699 289,699 290,699 291,699 292,699 293,699 294,699 295,699 296,699 296,699 297,699 298,699 299,699 300,699 301,699 302,699 303,699 304,699 305,699 305,699 306,699 307,699 308,699 309,699 310,699 311,699 312,699 313,699 313,699 314,699 315,699 316,699 317,699 318,699 319,699 320,699 321,699 322,699 322,699 323,699 324,699 325,699 326,699 327,699 328,699 329,699 330,699 330,699 331,699 332,699 333,699 334,699 335,699 336,699 337,699 338,699 339,699 339,699 340,699 341,699 342,699 343,699 344,699 345,699 346,699 347,699 347,699 348,699 349,699 350,699 351,699 352,699 353,699 354,699 355,699 356,699 356,699 357,699 358,699 359,699 360,699 361,699 362,699 363,699 364,699 364,699 365,699 366,699 367,699 368,699 369,699 370,699 371,699 372,699 373,699 373,699 374,699 375,699 376,699 377,699 378,699 379,699 380,699 381,699 381,699 382,699 383,699 384,699 385,699 386,699 387,699 388,699 389,699 390,699 390,699 391,699 392,699 393,699 394,699 395,699 396,699 397,699 398,699 398,699 399,699 400,699 401,699 402,699 403,699 404,699 405,699 406,699 407,699 407,699 408,699 409,699 410,699 411,699 412,699 413,699 414,699 415,699 415,699 416,699 417,699 418,699 419,699 420,699 421,699 422,699 423,699 424,699 424,699 425,699 426,699 427,699 428,699 429,699 430,699 431,699 432,699 432,699 433,699 434,699 435,699 436,699 437,699 438,699 439,699 440,699 441,699 441,699 442,699 443,699 444,699 445,699 446,699 447,699 448,699 449,699 449,699 450,699 451,699 452,699 453,699 454,699 455,699 456,699 457,699 458,699 458,699 459,699 460,699 461,699 462,699 463,699 464,699 465,699 466,699 466,699 467,699 468,699 469,699 470,699 471,699 472,699 473,699 474,699 475,699 475,699 476,699 477,699 478,699 479,699 480,699 481,699 482,699 483,699 483,699 484,699 485,698 486,696 487,695 488,694 489,693 490,692 491,691 492,690 492,689 493,687 494,686 495,685 496,684 497,683 498,682 499,681 500,679 501,678 501,677 502,676 503,675 504,674 505,673 506,671 507,670 508,669 509,668 509,667 510,665 511,664 512,663 513,662 514,661 515,660 516,659 517,657 518,656 518,655 519,654 520,653 521,651 522,650 523,649 524,648 525,647 526,646 526,645 527,643 528,642 529,641 530,640 531,639 532,638 533,637 534,636 535,635 535,634 536,633 537,631 538,630 539,629 540,628 541,627 542,626 543,625 543,624 544,623 545,621 546,620 547,619 548,618 549,617 550,616 551,615 552,614 552,613 553,611 554,610 555,609 556,608 557,607 558,606 559,605 560,603 560,602 561,601 562,600 563,599 564,598 565,597 566,595 567,594 568,593 569,592 569,591 570,590 571,589 572,587 573,586 574,585 575,584 576,583 577,581 577,580 578,579 579,578 580,577 581,575 582,574 583,573 584,572 585,571 586,570 586,569 587,567 588,566 589,565 590,564 591,563 592,562 593,560 594,559 594,558 595,557 596,556 597,555 598,554 599,553 600,552 601,550 602,549 603,548 603,547 604,546 605,545 606,544 607,543 608,542 609,540 610,539 611,538 611,537 612,536 613,535 614,534 615,532 616,531 617,530 618,529 619,528 620,526 620,525 621,524 622,523 623,522 624,521 625,520 626,519 627,517 628,516 628,515 629,514 630,513 631,512 632,511 633,510 634,508 635,507 636,506 637,505 637,504 638,503 639,502 640,500 641,499 642,498 643,497 644,496 645,495 645,494 646,493 647,491 648,490 649,489 650,488 651,486 652,485 653,484 654,483 654,482 655,481 656,480 657,478 658,477 659,476 660,475 661,474 662,473 662,472 663,471 664,469 665,468 666,467 667,466 668,465 669,464 670,462 671,461 671,460 672,459 673,458 674,457 675,456 676,455 677,454 678,452 679,451 679,450 680,449 681,448 682,447 683,445 684,444 685,443 686,442 687,441 688,440 688,439 689,438 690,437 691,435 692,434 693,433 694,432 695,431 696,430 696,428 697,427 698,426 699,425 700,424 701,423 702,422 703,420 704,419 705,418 705,417 706,416 707,415 708,413 709,412 710,411 711,410 712,409 713,407 714,406 714,405 715,404 716,403 717,402 718,400 719,399 720,398 721,397 722,396 722,395 723,394 724,392 725,391 726,390 727,389 728,388 729,386 730,385 731,384 731,383 732,382 733,381 734,380 735,379 736,377 737,376 738,375 739,374 739,373 740,372 741,371 742,369 743,368 744,367 745,366 746,365 747,364 748,363 748,362 749,360 750,359 751,358 752,357 753,356 754,355 755,354 756,353 756,352 757,351 758,349 759,348 760,347 761,346 762,345 763,343 764,342 765,341 765,340 766,339 767,338 768,337 769,336 770,335 771,333 772,332 773,331 773,330 774,329 775,327 776,326 777,325 778,324 779,323 780,322 781,321 782,319 782,318 783,317 784,316 785,315 786,314 787,312 788,311 789,310 790,309 790,308 791,307 792,305 793,304 794,303 795,302 796,301 797,300 798,299 799,298 799,297 800,295 801,294 802,293 803,292 804,291 805,290 806,289 807,288 807,286 808,285 809,284 810,283 811,282 812,281 813,279 814,278 815,277 816,276 816,275 817,274 818,273 819,271 820,270 821,269 822,268 823,267 824,266 824,264 825,263 826,262 827,261 828,260 829,259 830,258 831,256 832,255 833,254 833,253 834,252 835,251 836,249 837,248 838,247 839,246 840,245 841,244 841,243 842,241 843,240 844,239 845,238 846,237 847,236 848,235 849,234 850,233 850,232 851,230 852,229 853,228 854,227 855,226 856,225 857,223 858,222 858,221 859,220 860,219 861,218 862,216 863,215 864,214 865,213 866,212 867,210 867,209 868,208 869,207 870,206 871,205 872,203 873,202 874,201 875,200 875,199 876,197 877,196 878,195 879,194 880,193 881,192 882,190 883,189 884,188 884,187 885,186 886,185 887,184 888,183 889,182 890,181 891,179 892,178 892,177 893,176 894,175 895,173 896,172 897,171 898,170 899,169 900,168 901,167 901,165 902,164 903,163 904,162 905,161 906,160 907,158 908,157 909,156 909,155 910,154 911,152 912,151 913,150 914,149 915,148 916,146 917,145 918,144 918,143 919,142 920,141 921,139 922,138 923,137 924,136 925,135 926,134 927,132 927,131 928,130 929,129 930,128 931,127 932,126 933,124 934,123 935,122 935,121 936,120 937,119 938,118 939,117 940,115 941,114 942,113 943,112 944,111 944,109 945,108 946,107 947,106 948,105 949,103 950,102 951,101 952,100 952,99 953,98 954,97 955,95 956,94 957,93 958,92 959,91 960,90 961,89 961,87 962,86 963,85 964,84 965,83 966,82 967,80 968,79 969,78 969,77 970,76 971,75 972,74 972,74 973,74 973,699 78,699 "/>
<polyline fill="none" opacity="1" stroke="#E6194B" stroke-width="1" points="78,699 79,699 80,699 81,699 82,699 83,699 83,699 84,699 85,699 86,699 87,699 88,699 89,699 90,699 91,699 92,699 92,699 93,699 94,699 95,699 96,699 97,699 98,699 99,699 100,699 100,699 101,699 102,699 103,699 104,699 105,699 106,699 107,699 108,699 109,699 109,699 110,699 111,699 112,699 113,699 114,699 115,699 116,699 117,699 117,699 118,699 119,699 120,699 121,699 122,699 123,699 124,699 125,699 126,699 126,699 127,699 128,699 129,699 130,699 131,699 132,699 133,699 134,699 134,699 135,699 136,699 137,699 138,699 139,699 140,699 141,699 142,699 143,699 143,699 144,699 145,699 146,699 147,699 148,699 149,699 150,699 151,699 151,699 152,699 153,699 154,699 155,699 156,699 157,699 158,699 159,699 160,699 160,699 161,699 162,699 163,699 164,699 165,699 166,699 167,699 168,699 168,699 169,699 170,699 171,699 172,699 173,699 174,699 175,699 176,699 177,699 177,699 178,699 179,699 180,699 181,699 182,699 183,699 184,699 185,699 185,699 186,699 187,699 188,699 189,699 190,699 191,699 192,699 193,699 194,699 194,699 195,699 196,699 197,699 198,699 199,699 200,699 201,699 202,699 202,699 203,699 204,699 205,699 206,699 207,699 208,699 209,699 210,699 211,699 211,699 212,699 213,699 214,699 215,699 216,699 217,699 218,699 219,699 219,699 220,699 221,699 222,699 223,699 224,699 225,699 226,699 227,699 228,699 228,699 229,699 230,699 231,699 232,699 233,699 234,699 235,699 236,699 236,699 237,699 238,699 239,699 240,699 241,699 242,699 243,699 244,699 245,699 245,699 246,699 247,699 248,699 249,699 250,699 251,699 252,699 253,699 253,699 254,699 255,699 256,699 257,699 258,699 259,699 260,699 261,699 262,699 262,699 263,699 264,699 265,699 266,699 267,699 268,699 269,699 270,699 270,699 271,699 272,699 273,699 274,699 275,699 276,699 277,699 278,699 279,699 279,699 280,699 281,699 282,699 283,699 284,699 285,699 286,699 287,699 288,699 288,699 289,699 290,699 291,699 292,699 293,699 294,699 295,699 296,699 296,699 297,699 298,699 299,699 300,699 301,699 302,699 303,699 304,699 305,699 305,699 306,699 307,699 308,699 309,699 310,699 311,699 312,699 313,699 313,699 314,699 315,699 316,699 317,699 318,699 319,699 320,699 321,699 322,699 322,699 323,699 324,699 325,699 326,699 327,699 328,699 329,699 330,699 330,699 331,699 332,699 333,699 334,699 335,699 336,699 337,699 338,699 339,699 339,699 340,699 341,699 342,699 343,699 344,699 345,699 346,699 347,699 347,699 348,699 349,699 350,699 351,699 352,699 353,699 354,699 355,699 356,699 356,699 357,699 358,699 359,699 360,699 361,699 362,699 363,699 364,699 364,699 365,699 366,699 367,699 368,699 369,699 370,699 371,699 372,699 373,699 373,699 374,699 375,699 376,699 377,699 378,699 379,699 380,699 381,699 381,699 382,699 383,699 384,699 385,699 386,699 387,699 388,699 389,699 390,699 390,699 391,699 392,699 393,699 394,699 395,699 396,699 397,699 398,699 398,699 399,699 400,699 401,699 402,699 403,699 404,699 405,699 406,699 407,699 407,699 408,699 409,699 410,699 411,699 412,699 413,699 414,699 415,699 415,699 416,699 417,699 418,699 419,699 420,699 421,699 422,699 423,699 424,699 424,699 425,699 426,699 427,699 428,699 429,699 430,699 431,699 432,699 432,699 433,699 434,699 435,699 436,699 437,699 438,699 439,699 440,699 441,699 441,699 442,699 443,699 444,699 445,699 446,699 447,699 448,699 449,699 449,699 450,699 451,699 452,699 453,699 454,699 455,699 456,699 457,699 458,699 458,699 459,699 460,699 461,699 462,699 463,699 464,699 465,699 466,699 466,699 467,699 468,699 469,699 470,699 471,699 472,699 473,699 474,699 475,699 475,699 476,699 477,699 478,699 479,699 480,699 481,699 482,699 483,699 483,699 484,699 485,698 486,696 487,695 488,694 489,693 490,692 491,691 492,690 492,689 493,687 494,686 495,685 496,684 497,683 498,682 499,681 500,679 501,678 501,677 502,676 503,675 504,674 505,673 506,671 507,670 508,669 509,668 509,667 510,665 511,664 512,663 513,662 514,661 515,660 516,659 517,657 518,656 518,655 519,654 520,653 521,651 522,650 523,649 524,648 525,647 526,646 526,645 527,643 528,642 529,641 530,640 531,639 532,638 533,637 534,636 535,635 535,634 536,633 537,631 538,630 539,629 540,628 541,627 542,626 543,625 543,624 544,623 545,621 546,620 547,619 548,618 549,617 550,616 551,615 552,614 552,613 553,611 554,610 555,609 556,608 557,607 558,606 559,605 560,603 560,602 561,601 562,600 563,599 564,598 565,597 566,595 567,594 568,593 569,592 569,591 570,590 571,589 572,587 573,586 574,585 575,584 576,583 577,581 577,580 578,579 579,578 580,577 581,575 582,574 583,573 584,572 585,571 586,570 586,569 587,567 588,566 589,565 590,564 591,563 592,562 593,560 594,559 594,558 595,557 596,556 597,555 598,554 599,553 600,552 601,550 602,549 603,548 603,547 604,546 605,545 606,544 607,543 608,542 609,540 610,539 611,538 611,537 612,536 613,535 614,534 615,532 616,531 617,530 618,529 619,528 620,526 620,525 621,524 622,523 623,522 624,521 625,520 626,519 627,517 628,516 628,515 629,514 630,513 631,512 632,511 633,510 634,508 635,507 636,506 637,505 637,504 638,503 639,502 640,500 641,499 642,498 643,497 644,496 645,495 645,494 646,493 647,491 648,490 649,489 650,488 651,486 652,485 653,484 654,483 654,482 655,481 656,480 657,478 658,477 659,476 660,475 661,474 662,473 662,472 663,471 664,469 665,468 666,467 667,466 668,465 669,464 670,462 671,461 671,460 672,459 673,458 674,457 675,456 676,455 677,454 678,452 679,451 679,450 680,449 681,448 682,447 683,445 684,444 685,443 686,442 687,441 688,440 688,439 689,438 690,437 691,435 692,434 693,433 694,432 695,431 696,430 696,428 697,427 698,426 699,425 700,424 701,423 702,422 703,420 704,419 705,418 705,417 706,416 707,415 708,413 709,412 710,411 711,410 712,409 713,407 714,406 714,405 715,404 716,403 717,402 718,400 719,399 720,398 721,397 722,396 722,395 723,394 724,392 725,391 726,390 727,389 728,388 729,386 730,385 731,384 731,383 732,382 733,381 734,380 735,379 736,377 737,376 738,375 739,374 739,373 740,372 741,371 742,369 743,368 744,367 745,366 746,365 747,364 748,363 748,362 749,360 750,359 751,358 752,357 753,356 754,355 755,354 756,353 756,352 757,351 758,349 759,348 760,347 761,346 762,345 763,343 764,342 765,341 765,340 766,339 767,338 768,337 769,336 770,335 771,333 772,332 773,331 773,330 774,329 775,327 776,326 777,325 778,324 779,323 780,322 781,321 782,319 782,318 783,317 784,316 785,315 786,314 787,312 788,311 789,310 790,309 790,308 791,307 792,305 793,304 794,303 795,302 796,301 797,300 798,299 799,298 799,297 800,295 801,294 802,293 803,292 804,291 805,290 806,289 807,288 807,286 808,285 809,284 810,283 811,282 812,281 813,279 814,278 815,277 816,276 816,275 817,274 818,273 819,271 820,270 821,269 822,268 823,267 824,266 824,264 825,263 826,262 827,261 828,260 829,259 830,258 831,256 832,255 833,254 833,253 834,252 835,251 836,249 837,248 838,247 839,246 840,245 841,244 841,243 842,241 843,240 844,239 845,238 846,237 847,236 848,235 849,234 850,233 850,232 851,230 852,229 853,228 854,227 855,226 856,225 857,223 858,222 858,221 859,220 860,219 861,218 862,216 863,215 864,214 865,213 866,212 867,210 867,209 868,208 869,207 870,206 871,205 872,203 873,202 874,201 875,200 875,199 876,197 877,196 878,195 879,194 880,193 881,192 882,190 883,189 884,188 884,187 885,186 886,185 887,184 888,183 889,182 890,181 891,179 892,178 892,177 893,176 894,175 895,173 896,172 897,171 898,170 899,169 900,168 901,167 901,165 902,164 903,163 904,162 905,161 906,160 907,158 908,157 909,156 909,155 910,154 911,152 912,151 913,150 914,149 915,148 916,146 917,145 918,144 918,143 919,142 920,141 921,139 922,138 923,137 924,136 925,135 926,134 927,132 927,131 928,130 929,129 930,128 931,127 932,126 933,124 934,123 935,122 935,121 936,120 937,119 938,118 939,117 940,115 941,114 942,113 943,112 944,111 944,109 945,108 946,107 947,106 948,105 949,103 950,102 951,101 952,100 952,99 953,98 954,97 955,95 956,94 957,93 958,92 959,91 960,90 961,89 961,87 962,86 963,85 964,84 965,83 966,82 967,80 968,79 969,78 969,77 970,76 971,75 972,74 972,74 973,74 "/>
<line opacity="0.1" stroke="#000000" stroke-width="1" x1="84" y1="699" x2="84" y2="68"/>
<line opacity="0.1" stroke="#000000" stroke-width="1" x1="94" y1="699" x2="94" y2="68"/>
<line opacity="0.1" stroke="#000000" stroke-width="1" x1="105" y1="699" x2="105" y2="68"/>
<line opacity="0.1" stroke="#000000" stroke-width="1" x1="115" y1="699" x2="115" y2="68"/>
<line opacity="0.1" stroke="#000000" stroke-width="1" x1="126" y1="699" x2="126" y2="68"/>
<line opacity="0.1" stroke="#000000" stroke-width="1" x1="137" y1="699" x2="137" y2="68"/>
<line opacity="0.1" stroke="#000000" stroke-width="1" x1="147" y1="699" x2="147" y2="68"/>
<line opacity="0.1" stroke="#000000" stroke-width="1" x1="158" y1="699" x2="158" y2="68"/>
<line opacity="0.1" stroke="#000000" stroke-width="1" x1="168" y1="699" x2="168" y2="68"/>
<line opacity="0.1" stroke="#000000" stroke-width="1" x1="179" y1="699" x2="179" y2="68"/>
<line opacity="0.1" stroke="#000000" stroke-width="1" x1="189" y1="699" x2="189" y2="68"/>
<line opacity="0.1" stroke="#000000" stroke-width="1" x1="200" y1="699" x2="200" y2="68"/>
<line opacity="0.1" stroke="#000000" stroke-width="1" x1="211" y1="699" x2="211" y2="68"/>
<line opacity="0.1" stroke="#000000" stroke-width="1" x1="221" y1="699" x2="221" y2="68"/>
<line opacity="0.1" stroke="#000000" stroke-width="1" x1="232" y1="699" x2="232" y2="68"/>
<line opacity="0.1" stroke="#000000" stroke-width="1" x1="242" y1="699" x2="242" y2="68"/>
<line opacity="0.1" stroke="#000000" stroke-width="1" x1="253" y1="699" x2="253" y2="68"/>
<line opacity="0.1" stroke="#000000" stroke-width="1" x1="264" y1="699" x2="264" y2="68"/>
<line opacity="0.1" stroke="#000000" stroke-width="1" x1="274" y1="699" x2="274" y2="68"/>
<line opacity="0.1" stroke="#000000" stroke-width="1" x1="285" y1="699" x2="285" y2="68"/>
<line opacity="0.1" stroke="#000000" stroke-width="1" x1="295" y1="699" x2="295" y2="68"/>
<line opacity="0.1" stroke="#000000" stroke-width="1" x1="306" y1="699" x2="306" y2="68"/>
<line opacity="0.1" stroke="#000000" stroke-width="1" x1="316" y1="699" x2="316" y2="68"/>
<line opacity="0.1" stroke="#000000" stroke-width="1" x1="327" y1="699" x2="327" y2="68"/>
<line opacity="0.1" stroke="#000000" stroke-width="1" x1="338" y1="699" x2="338" y2="68"/>
<line opacity="0.1" stroke="#000000" stroke-width="1" x1="348" y1="699" x2="348" y2="68"/>
<line opacity="0.1" stroke="#000000" stroke-width="1" x1="359" y1="699" x2="359" y2="68"/>
<line opacity="0.1" stroke="#000000" stroke-width="1" x1="369" y1="699" x2="369" y2="68"/>
<line opacity="0.1" stroke="#000000" stroke-width="1" x1="380" y1="699" x2="380" y2="68"/>
<line opacity="0.1" stroke="#000000" stroke-width="1" x1="390" y1="699" x2="390" y2="68"/>
<line opacity="0.1" stroke="#000000" stroke-width="1" x1="401" y1="699" x2="401" y2="68"/>
<line opacity="0.1" stroke="#000000" stroke-width="1" x1="412" y1="699" x2="412" y2="68"/>
<line opacity="0.1" stroke="#000000" stroke-width="1" x1="422" y1="699" x2="422" y2="68"/>
<line opacity="0.1" stroke="#000000" stroke-width="1" x1="433" y1="699" x2="433" y2="68"/>
<line opacity="0.1" stroke="#000000" stroke-width="1" x1="443" y1="699" x2="443" y2="68"/>
<line opacity="0.1" stroke="#000000" stroke-width="1" x1="454" y1="699" x2="454" y2="68"/>
<line opacity="0.1" stroke="#000000" stroke-width="1" x1="464" y1="699" x2="464" y2="68"/>
<line opacity="0.1" stroke="#000000" stroke-width="1" x1="475" y1="699" x2="475" y2="68"/>
<line opacity="0.1" stroke="#000000" stroke-width="1" x1="486" y1="699" x2="486" y2="68"/>
<line opacity="0.1" stroke="#000000" stroke-width="1" x1="496" y1="699" x2="496" y2="68"/>
<line opacity="0.1" stroke="#000000" stroke-width="1" x1="507" y1="699" x2="507" y2="68"/>
<line opacity="0.1" stroke="#000000" stroke-width="1" x1="517" y1="699" x2="517" y2="68"/>
<line opacity="0.1" stroke="#000000" stroke-width="1" x1="528" y1="699" x2="528" y2="68"/>
<line opacity="0.1" stroke="#000000" stroke-width="1" x1="538" y1="699" x2="538" y2="68"/>
<line opacity="0.1" stroke="#000000" stroke-width="1" x1="549" y1="699" x2="549" y2="68"/>
<line opacity="0.1" stroke="#000000" stroke-width="1" x1="560" y1="699" x2="560" y2="68"/>
<line opacity="0.1" stroke="#000000" stroke-width="1" x1="570" y1="699" x2="570" y2="68"/>
<line opacity="0.1" stroke="#000000" stroke-width="1" x1="581" y1="699" x2="581" y2="68"/>
<line opacity="0.1" stroke="#000000" stroke-width="1" x1="591" y1="699" x2="591" y2="68"/>
<line opacity="0.1" stroke="#000000" stroke-width="1" x1="602" y1="699" x2="602" y2="68"/>
<line opacity="0.1" stroke="#000000" stroke-width="1" x1="612" y1="699" x2="612" y2="68"/>
<line opacity="0.1" stroke="#000000" stroke-width="1" x1="623" y1="699" x2="623" y2="68"/>
<line opacity="0.1" stroke="#000000" stroke-width="1" x1="634" y1="699" x2="634" y2="68"/>
<line opacity="0.1" stroke="#000000" stroke-width="1" x1="644" y1="699" x2="644" y2="68"/>
<line opacity="0.1" stroke="#000000" stroke-width="1" x1="655" y1="699" x2="655" y2="68"/>
<line opacity="0.1" stroke="#000000" stroke-width="1" x1="665" y1="699" x2="665" y2="68"/>
<line opacity="0.1" stroke="#000000" stroke-width="1" x1="676" y1="699" x2="676" y2="68"/>
<line opacity="0.1" stroke="#000000" stroke-width="1" x1="687" y1="699" x2="687" y2="68"/>
<line opacity="0.1" stroke="#000000" stroke-width="1" x1="697" y1="699" x2="697" y2="68"/>
<line opacity="0.1" stroke="#000000" stroke-width="1" x1="708" y1="699" x2="708" y2="68"/>
<line opacity="0.1" stroke="#000000" stroke-width="1" x1="718" y1="699" x2="718" y2="68"/>
<line opacity="0.1" stroke="#000000" stroke-width="1" x1="729" y1="699" x2="729" y2="68"/>
<line opacity="0.1" stroke="#000000" stroke-width="1" x1="739" y1="699" x2="739" y2="68"/>
<line opacity="0.1" stroke="#000000" stroke-width="1" x1="750" y1="699" x2="750" y2="68"/>
<line opacity="0.1" stroke="#000000" stroke-width="1" x1="761" y1="699" x2="761" y2="68"/>
<line opacity="0.1" stroke="#000000" stroke-width="1" x1="771" y1="699" x2="771" y2="68"/>
<line opacity="0.1" stroke="#000000" stroke-width="1" x1="782" y1="699" x2="782" y2="68"/>
<line opacity="0.1" stroke="#000000" stroke-width="1" x1="792" y1="699" x2="792" y2="68"/>
<line opacity="0.1" stroke="#000000" stroke-width="1" x1="803" y1="699" x2="803" y2="68"/>
<line opacity="0.1" stroke="#000000" stroke-width="1" x1="813" y1="699" x2="813" y2="68"/>
<line opacity="0.1" stroke="#000000" stroke-width="1" x1="824" y1="699" x2="824" y2="68"/>
<line opacity="0.1" stroke="#000000" stroke-width="1" x1="835" y1="699" x2="835" y2="68"/>
<line opacity="0.1" stroke="#000000" stroke-width="1" x1="845" y1="699" x2="845" y2="68"/>
<line opacity="0.1" stroke="#000000" stroke-width="1" x1="856" y1="699" x2="856" y2="68"/>
<line opacity="0.1" stroke="#000000" stroke-width="1" x1="866" y1="699" x2="866" y2="68"/>
<line opacity="0.1" stroke="#000000" stroke-width="1" x1="877" y1="699" x2="877" y2="68"/>
<line opacity="0.1" stroke="#000000" stroke-width="1" x1="887" y1="699" x2="887" y2="68"/>
<line opacity="0.1" stroke="#000000" stroke-width="1" x1="898" y1="699" x2="898" y2="68"/>
<line opacity="0.1" stroke="#000000" stroke-width="1" x1="909" y1="699" x2="909" y2="68"/>
<line opacity="0.1" stroke="#000000" stroke-width="1" x1="919" y1="699" x2="919" y2="68"/>
<line opacity="0.1" stroke="#000000" stroke-width="1" x1="930" y1="699" x2="930" y2="68"/>
<line opacity="0.1" stroke="#000000" stroke-width="1" x1="940" y1="699" x2="940" y2="68"/>
<line opacity="0.1" stroke="#000000" stroke-width="1" x1="951" y1="699" x2="951" y2="68"/>
<line opacity="0.1" stroke="#000000" stroke-width="1" x1="961" y1="699" x2="961" y2="68"/>
<line opacity="0.1" stroke="#000000" stroke-width="1" x1="972" y1="699" x2="972" y2="68"/>
<line opacity="0.1" stroke="#000000" stroke-width="1" x1="78" y1="699" x2="973" y2="699"/>
<line opacity="0.1" stroke="#000000" stroke-width="1" x1="78" y1="688" x2="973" y2="688"/>
<line opacity="0.1" stroke="#000000" stroke-width="1" x1="78" y1="678" x2="973" y2="678"/>
<line opacity="0.1" stroke="#000000" stroke-width="1" x1="78" y1="668" x2="973" y2="668"/>
<line opacity="0.1" stroke="#000000" stroke-width="1" x1="78" y1="658" x2="973" y2="658"/>
<line opacity="0.1" stroke="#000000" stroke-width="1" x1="78" y1="648" x2="973" y2="648"/>
<line opacity="0.1" stroke="#000000" stroke-width="1" x1="78" y1="637" x2="973" y2="637"/>
<line opacity="0.1" stroke="#000000" stroke-width="1" x1="78" y1="627" x2="973" y2="627"/>
<line opacity="0.1" stroke="#000000" stroke-width="1" x1="78" y1="617" x2="973" y2="617"/>
<line opacity="0.1" stroke="#000000" stroke-width="1" x1="78" y1="607" x2="973" y2="607"/>
<line opacity="0.1" stroke="#000000" stroke-width="1" x1="78" y1="597" x2="973" y2="597"/>
<line opacity="0.1" stroke="#000000" stroke-width="1" x1="78" y1="586" x2="973" y2="586"/>
<line opacity="0.1" stroke="#000000" stroke-width="1" x1="78" y1="576" x2="973" y2="576"/>
<line opacity="0.1" stroke="#000000" stroke-width="1" x1="78" y1="566" x2="973" y2="566"/>
<line opacity="0.1" stroke="#000000" stroke-width="1" x1="78" y1="556" x2="973" y2="556"/>
<line opacity="0.1" stroke="#000000" stroke-width="1" x1="78" y1="546" x2="973" y2="546"/>
<line opacity="0.1" stroke="#000000" stroke-width="1" x1="78" y1="535" x2="973" y2="535"/>
<line opacity="0.1" stroke="#000000" stroke-width="1" x1="78" y1="525" x2="973" y2="525"/>
<line opacity="0.1" stroke="#000000" stroke-width="1" x1="78" y1="515" x2="973" y2="515"/>
<line opacity="0.1" stroke="#000000" stroke-width="1" x1="78" y1="505" x2="973" y2="505"/>
<line opacity="0.1" stroke="#000000" stroke-width="1" x1="78" y1="495" x2="973" y2="495"/>
<line opacity="0.1" stroke="#000000" stroke-width="1" x1="78" y1="485" x2="973" y2="485"/>
<line opacity="0.1" stroke="#000000" stroke-width="1" x1="78" y1="474" x2="973" y2="474"/>
<line opacity="0.1" stroke="#000000" stroke-width="1" x1="78" y1="464" x2="973" y2="464"/>
<line opacity="0.1" stroke="#000000" stroke-width="1" x1="78" y1="454" x2="973" y2="454"/>
<line opacity="0.1" stroke="#000000" stroke-width="1" x1="78" y1="444" x2="973" y2="444"/>
<line opacity="0.1" stroke="#000000" stroke-width="1" x1="78" y1="434" x2="973" y2="434"/>
<line opacity="0.1" stroke="#000000" stroke-width="1" x1="78" y1="423" x2="973" y2="423"/>
<line opacity="0.1" stroke="#000000" stroke-width="1" x1="78" y1="413" x2="973" y2="413"/>
<line opacity="0.1" stroke="#000000" stroke-width="1" x1="78" y1="403" x2="973" y2="403"/>
<line opacity="0.1" stroke="#000000" stroke-width="1" x1="78" y1="393" x2="973" y2="393"/>
<line opacity="0.1" stroke="#000000" stroke-width="1" x1="78" y1="383" x2="973" y2="383"/>
<line opacity="0.1" stroke="#000000" stroke-width="1" x1="78" y1="372" x2="973" y2="372"/>
<line opacity="0.1" stroke="#000000" stroke-width="1" x1="78" y1="362" x2="973" y2="362"/>
<line opacity="0.1" stroke="#000000" stroke-width="1" x1="78" y1="352" x2="973" y2="352"/>
<line opacity="0.1" stroke="#000000" stroke-width="1" x1="78" y1="342" x2="973" y2="342"/>
<line opacity="0.1" stroke="#000000" stroke-width="1" x1="78" y1="332" x2="973" y2="332"/>
<line opacity="0.1" stroke="#000000" stroke-width="1" x1="78" y1="321" x2="973" y2="321"/>
<line opacity="0.1" stroke="#000000" stroke-width="1" x1="78" y1="311" x2="973" y2="311"/>
<line opacity="0.1" stroke="#000000" stroke-width="1" x1="78" y1="301" x2="973" y2="301"/>
<line opacity="0.1" stroke="#000000" stroke-width="1" x1="78" y1="291" x2="973" y2="291"/>
<line opacity="0.1" stroke="#000000" stroke-width="1" x1="78" y1="281" x2="973" y2="281"/>
<line opacity="0.1" stroke="#000000" stroke-width="1" x1="78" y1="271" x2="973" y2="271"/>
<line opacity="0.1" stroke="#000000" stroke-width="1" x1="78" y1="260" x2="973" y2="260"/>
<line opacity="0.1" stroke="#000000" stroke-width="1" x1="78" y1="250" x2="973" y2="250"/>
<line opacity="0.1" stroke="#000000" stroke-width="1" x1="78" y1="240" x2="973" y2="240"/>
<line opacity="0.1" stroke="#000000" stroke-width="1" x1="78" y1="230" x2="973" y2="230"/>
<line opacity="0.1" stroke="#000000" stroke-width="1" x1="78" y1="220" x2="973" y2="220"/>
<line opacity="0.1" stroke="#000000" stroke-width="1" x1="78" y1="209" x2="973" y2="209"/>
<line opacity="0.1" stroke="#000000" stroke-width="1" x1="78" y1="199" x2="973" y2="199"/>
<line opacity="0.1" stroke="#000000" stroke-width="1" x1="78" y1="189" x2="973" y2="189"/>
<line opacity="0.1" stroke="#000000" stroke-width="1" x1="78" y1="179" x2="973" y2="179"/>
<line opacity="0.1" stroke="#000000" stroke-width="1" x1="78" y1="169" x2="973" y2="169"/>
<line opacity="0.1" stroke="#000000" stroke-width="1" x1="78" y1="158" x2="973" y2="158"/>
<line opacity="0.1" stroke="#000000" stroke-width="1" x1="78" y1="148" x2="973" y2="148"/>
<line opacity="0.1" stroke="#000000" stroke-width="1" x1="78" y1="138" x2="973" y2="138"/>
<line opacity="0.1" stroke="#000000" stroke-width="1" x1="78" y1="128" x2="973" y2="128"/>
<line opacity="0.1" stroke="#000000" stroke-width="1" x1="78" y1="118" x2="973" y2="118"/>
<line opacity="0.1" stroke="#000000" stroke-width="1" x1="78" y1="108" x2="973" y2="108"/>
<line opacity="0.1" stroke="#000000" stroke-width="1" x1="78" y1="97" x2="973" y2="97"/>
<line opacity="0.1" stroke="#000000" stroke-width="1" x1="78" y1="87" x2="973" y2="87"/>
<line opacity="0.1" stroke="#000000" stroke-width="1" x1="78" y1="77" x2="973" y2="77"/>
<text x="8" y="384" dy="0.76em" text-anchor="middle" font-family="sans-serif" font-size="9.67741935483871" opacity="1" fill="#000000" transform="rotate(270, 8, 384)">
Memory usage
</text>
<text x="526" y="760" dy="-0.5ex" text-anchor="middle" font-family="sans-serif" font-size="9.67741935483871" opacity="1" fill="#000000">
Time
</text>
<line opacity="0.2" stroke="#000000" stroke-width="1" x1="105" y1="699" x2="105" y2="68"/>
<line opacity="0.2" stroke="#000000" stroke-width="1" x1="211" y1="699" x2="211" y2="68"/>
<line opacity="0.2" stroke="#000000" stroke-width="1" x1="316" y1="699" x2="316" y2="68"/>
<line opacity="0.2" stroke="#000000" stroke-width="1" x1="422" y1="699" x2="422" y2="68"/>
<line opacity="0.2" stroke="#000000" stroke-width="1" x1="528" y1="699" x2="528" y2="68"/>
<line opacity="0.2" stroke="#000000" stroke-width="1" x1="634" y1="699" x2="634" y2="68"/>
<line opacity="0.2" stroke="#000000" stroke-width="1" x1="739" y1="699" x2="739" y2="68"/>
<line opacity="0.2" stroke="#000000" stroke-width="1" x1="845" y1="699" x2="845" y2="68"/>
<line opacity="0.2" stroke="#000000" stroke-width="1" x1="951" y1="699" x2="951" y2="68"/>
<line opacity="0.2" stroke="#000000" stroke-width="1" x1="78" y1="699" x2="973" y2="699"/>
<line opacity="0.2" stroke="#000000" stroke-width="1" x1="78" y1="597" x2="973" y2="597"/>
<line opacity="0.2" stroke="#000000" stroke-width="1" x1="78" y1="495" x2="973" y2="495"/>
<line opacity="0.2" stroke="#000000" stroke-width="1" x1="78" y1="393" x2="973" y2="393"/>
<line opacity="0.2" stroke="#000000" stroke-width="1" x1="78" y1="291" x2="973" y2="291"/>
<line opacity="0.2" stroke="#000000" stroke-width="1" x1="78" y1="189" x2="973" y2="189"/>
<line opacity="0.2" stroke="#000000" stroke-width="1" x1="78" y1="87" x2="973" y2="87"/>
<polyline fill="none" opacity="1" stroke="#000000" stroke-width="1" points="77,68 77,699 "/>
<text x="68" y="699" dy="0.5ex" text-anchor="end" font-family="sans-serif" font-size="9.67741935483871" opacity="1" fill="#000000">
0.0 MB
</text>
<polyline fill="none" opacity="1" stroke="#000000" stroke-width="1" points="72,699 77,699 "/>
<text x="68" y="597" dy="0.5ex" text-anchor="end" font-family="sans-serif" font-size="9.67741935483871" opacity="1" fill="#000000">
4.8 MB
</text>
<polyline fill="none" opacity="1" stroke="#000000" stroke-width="1" points="72,597 77,597 "/>
<text x="68" y="495" dy="0.5ex" text-anchor="end" font-family="sans-serif" font-size="9.67741935483871" opacity="1" fill="#000000">
9.5 MB
</text>
<polyline fill="none" opacity="1" stroke="#000000" stroke-width="1" points="72,495 77,495 "/>
<text x="68" y="393" dy="0.5ex" text-anchor="end" font-family="sans-serif" font-size="9.67741935483871" opacity="1" fill="#000000">
14.3 MB
</text>
<polyline fill="none" opacity="1" stroke="#000000" stroke-width="1" points="72,393 77,393 "/>
<text x="68" y="291" dy="0.5ex" text-anchor="end" font-family="sans-serif" font-size="9.67741935483871" opacity="1" fill="#000000">
19.1 MB
</text>
<polyline fill="none" opacity="1" stroke="#000000" stroke-width="1" points="72,291 77,291 "/>
<text x="68" y="189" dy="0.5ex" text-anchor="end" font-family="sans-serif" font-size="9.67741935483871" opacity="1" fill="#000000">
23.8 MB
</text>
<polyline fill="none" opacity="1" stroke="#000000" stroke-width="1" points="72,189 77,189 "/>
<text x="68" y="87" dy="0.5ex" text-anchor="end" font-family="sans-serif" font-size="9.67741935483871" opacity="1" fill="#000000">
28.6 MB
</text>
<polyline fill="none" opacity="1" stroke="#000000" stroke-width="1" points="72,87 77,87 "/>
<polyline fill="none" opacity="1" stroke="#000000" stroke-width="1" points="78,700 973,700 "/>
<text x="105" y="710" dy="0.76em" text-anchor="middle" font-family="sans-serif" font-size="9.67741935483871" opacity="1" fill="#000000">
07 20:33:20
</text>
<polyline fill="none" opacity="1" stroke="#000000" stroke-width="1" points="105,700 105,705 "/>
<text x="211" y="710" dy="0.76em" text-anchor="middle" font-family="sans-serif" font-size="9.67741935483871" opacity="1" fill="#000000">
08 10:26:40
</text>
<polyline fill="none" opacity="1" stroke="#000000" stroke-width="1" points="211,700 211,705 "/>
<text x="316" y="710" dy="0.76em" text-anchor="middle" font-family="sans-serif" font-size="9.67741935483871" opacity="1" fill="#000000">
09 00:20:00
</text>
<polyline fill="none" opacity="1" stroke="#000000" stroke-width="1" points="316,700 316,705 "/>
<text x="422" y="710" dy="0.76em" text-anchor="middle" font-family="sans-serif" font-size="9.67741935483871" opacity="1" fill="#000000">
09 14:13:20
</text>
<polyline fill="none" opacity="1" stroke="#000000" stroke-width="1" points="422,700 422,705 "/>
<text x="528" y="710" dy="0.76em" text-anchor="middle" font-family="sans-serif" font-size="9.67741935483871" opacity="1" fill="#000000">
10 04:06:40
</text>
<polyline fill="none" opacity="1" stroke="#000000" stroke-width="1" points="528,700 528,705 "/>
<text x="634" y="710" dy="0.76em" text-anchor="middle" font-family="sans-serif" font-size="9.67741935483871" opacity="1" fill="#000000">
10 18:00:00
</text>
<polyline fill="none" opacity="1" stroke="#000000" stroke-width="1" points="634,700 634,705 "/>
<text x="739" y="710" dy="0.76em" text-anchor="middle" font-family="sans-serif" font-size="9.67741935483871" opacity="1" fill="#000000">
11 07:53:20
</text>
<polyline fill="none" opacity="1" stroke="#000000" stroke-width="1" points="739,700 739,705 "/>
<text x="845" y="710" dy="0.76em" text-anchor="middle" font-family="sans-serif" font-size="9.67741935483871" opacity="1" fill="#000000">
11 21:46:40
</text>
<polyline fill="none" opacity="1" stroke="#000000" stroke-width="1" points="845,700 845,705 "/>
<text x="951" y="710" dy="0.76em" text-anchor="middle" font-family="sans-serif" font-size="9.67741935483871" opacity="1" fill="#000000">
12 11:40:00
</text>
<polyline fill="none" opacity="1" stroke="#000000" stroke-width="1" points="951,700 951,705 "/>
<polyline fill="none" opacity="1" stroke="#000000" stroke-width="1" points="78,67 974,67 "/>
<text x="105" y="58" dy="-0.5ex" text-anchor="middle" font-family="sans-serif" font-size="9.67741935483871" opacity="1" fill="#000000">
+03:35:44
</text>
<polyline fill="none" opacity="1" stroke="#000000" stroke-width="1" points="105,62 105,67 "/>
<text x="211" y="58" dy="-0.5ex" text-anchor="middle" font-family="sans-serif" font-size="9.67741935483871" opacity="1" fill="#000000">
+17:29:04
</text>
<polyline fill="none" opacity="1" stroke="#000000" stroke-width="1" points="211,62 211,67 "/>
<text x="317" y="58" dy="-0.5ex" text-anchor="middle" font-family="sans-serif" font-size="9.67741935483871" opacity="1" fill="#000000">
+31:22:24
</text>
<polyline fill="none" opacity="1" stroke="#000000" stroke-width="1" points="317,62 317,67 "/>
<text x="423" y="58" dy="-0.5ex" text-anchor="middle" font-family="sans-serif" font-size="9.67741935483871" opacity="1" fill="#000000">
+45:15:44
</text>
<polyline fill="none" opacity="1" stroke="#000000" stroke-width="1" points="423,62 423,67 "/>
<text x="528" y="58" dy="-0.5ex" text-anchor="middle" font-family="sans-serif" font-size="9.67741935483871" opacity="1" fill="#000000">
+59:09:04
</text>
<polyline fill="none" opacity="1" stroke="#000000" stroke-width="1" points="528,62 528,67 "/>
<text x="634" y="58" dy="-0.5ex" text-anchor="middle" font-family="sans-serif" font-size="9.67741935483871" opacity="1" fill="#000000">
+73:02:24
</text>
<polyline fill="none" opacity="1" stroke="#000000" stroke-width="1" points="634,62 634,67 "/>
<text x="740" y="58" dy="-0.5ex" text-anchor="middle" font-family="sans-serif" font-size="9.67741935483871" opacity="1" fill="#000000">
+86:55:44
</text>
<polyline fill="none" opacity="1" stroke="#000000" stroke-width="1" points="740,62 740,67 "/>
<text x="846" y="58" dy="-0.5ex" text-anchor="middle" font-family="sans-serif" font-size="9.67741935483871" opacity="1" fill="#000000">
+100:49:04
</text>
<polyline fill="none" opacity="1" stroke="#000000" stroke-width="1" points="846,62 846,67 "/>
<text x="952" y="58" dy="-0.5ex" text-anchor="middle" font-family="sans-serif" font-size="9.67741935483871" opacity="1" fill="#000000">
+114:42:24
</text>
<polyline fill="none" opacity="1" stroke="#000000" stroke-width="1" points="952,62 952,67 "/>
<rect x="83" y="73" width="99" height="45" opacity="0.75" fill="#FFFFFF" stroke="none"/>
<rect x="83" y="73" width="99" height="45" opacity="1" fill="none" stroke="#000000"/>
<text x="123" y="83" dy="0.76em" text-anchor="start" font-family="sans-serif" font-size="9.67741935483871" opacity="1" fill="#000000">
Temporary
</text>
<text x="123" y="98" dy="0.76em" text-anchor="start" font-family="sans-serif" font-size="9.67741935483871" opacity="1" fill="#000000">
Leaked
</text>
<rect x="93" y="83" width="10" height="10" opacity="1" fill="#3CB44B" stroke="none"/>
<rect x="93" y="98" width="10" height="10" opacity="1" fill="#E6194B" stroke="none"/>
</svg>
