<svg width="1024" height="768" viewBox="0 0 1024 768" xmlns="http://www.w3.org/2000/svg">
<rect x="0" y="0" width="1024" height="768" opacity="1" fill="#FFFFFF" stroke="none"/>
<polygon opacity="1" fill="#3CB44B" points="78,621 79,589 80,563 81,562 82,561 82,560 83,561 84,560 85,560 86,557 87,557 88,556 89,553 90,553 90,552 91,552 92,552 93,551 94,550 95,550 96,547 97,546 98,546 99,546 99,545 100,545 101,544 102,536 103,539 104,536 105,538 106,536 107,534 107,534 108,532 109,532 110,531 111,531 112,530 113,529 114,528 115,516 116,522 116,520 117,520 118,518 119,518 120,518 121,517 122,516 123,515 124,515 124,514 125,513 126,497 127,504 128,502 129,503 130,501 131,501 132,500 133,499 133,499 134,497 135,497 136,496 137,495 138,494 139,494 140,493 141,492 142,491 142,491 143,490 144,489 145,488 146,487 147,487 148,486 149,486 150,484 150,484 151,461 152,471 153,470 154,469 155,468 156,468 157,467 158,466 159,465 159,465 160,463 161,464 162,462 163,462 164,461 165,460 166,460 167,459 167,458 168,457 169,457 170,457 171,457 172,455 173,454 174,454 175,454 176,422 176,436 177,456 178,455 179,455 180,454 181,453 182,452 183,451 184,452 184,450 185,450 186,448 187,448 188,448 189,447 190,446 191,445 192,445 193,444 193,444 194,443 195,442 196,441 197,440 198,440 199,439 200,439 201,437 201,437 202,437 203,436 204,436 205,435 206,434 207,434 208,433 209,433 210,431 210,431 211,430 212,430 213,429 214,428 215,428 216,426 217,427 218,426 218,425 219,424 220,423 221,423 222,423 223,422 224,421 225,419 226,420 227,419 227,418 228,371 229,393 230,391 231,392 232,391 233,389 234,389 235,388 235,388 236,387 237,386 238,386 239,384 240,384 241,384 242,383 243,382 244,381 244,380 245,380 246,380 247,378 248,378 249,377 250,377 251,376 252,375 252,375 253,373 254,373 255,373 256,371 257,371 258,369 259,369 260,369 261,368 261,367 262,366 263,366 264,366 265,365 266,364 267,363 268,362 269,363 269,362 270,361 271,361 272,360 273,360 274,359 275,358 276,358 277,356 278,356 278,356 279,355 280,354 281,352 282,353 283,352 284,351 285,350 286,349 286,349 287,348 288,348 289,347 290,346 291,345 292,345 293,345 294,343 295,343 295,341 296,341 297,341 298,340 299,339 300,338 301,338 302,337 303,337 303,336 304,335 305,335 306,334 307,333 308,332 309,332 310,331 311,333 312,332 312,331 313,331 314,329 315,329 316,328 317,328 318,327 319,326 320,326 321,325 321,324 322,324 323,322 324,322 325,321 326,321 327,320 328,319 329,318 329,318 330,318 331,316 332,316 333,315 334,314 335,314 336,313 337,312 338,311 338,311 339,310 340,310 341,309 342,308 343,307 344,307 345,306 346,305 346,305 347,303 348,303 349,302 350,301 351,301 352,299 353,300 354,299 355,298 355,297 356,296 357,296 358,295 359,295 360,294 361,293 362,292 363,292 363,291 364,290 365,290 366,288 367,289 368,288 369,287 370,286 371,285 372,285 372,284 373,283 374,282 375,282 376,281 377,281 378,279 379,278 380,277 380,277 381,277 382,181 383,227 384,226 385,225 386,226 387,224 388,224 389,223 389,222 390,222 391,220 392,220 393,219 394,219 395,219 396,218 397,217 397,216 398,215 399,215 400,214 401,213 402,213 403,211 404,211 405,211 406,210 406,209 407,208 408,207 409,208 410,206 411,206 412,205 413,204 414,204 414,203 415,202 416,202 417,201 418,200 419,198 420,188 421,180 422,189 423,191 423,193 424,195 425,196 426,195 427,194 428,194 429,193 430,192 431,191 431,191 432,190 433,190 434,189 435,188 436,187 437,186 438,186 439,185 440,184 440,183 441,183 442,182 443,182 444,181 445,180 446,180 447,179 448,179 448,177 449,176 450,176 451,177 452,176 453,174 454,174 455,173 456,173 457,172 457,171 458,170 459,169 460,169 461,168 462,167 463,167 464,166 465,166 465,165 466,164 467,163 468,163 469,162 470,161 471,160 472,160 473,159 474,158 474,158 475,157 476,156 477,155 478,154 479,155 480,153 481,153 482,152 482,151 483,151 484,150 485,149 486,148 487,147 488,147 489,146 490,146 491,144 491,144 492,143 493,143 494,142 495,141 496,140 497,139 498,140 499,138 500,138 500,137 501,136 502,136 503,135 504,134 505,133 506,132 507,131 508,132 508,130 509,130 510,129 511,128 512,128 513,127 514,126 515,125 516,124 517,124 517,124 518,123 519,122 520,121 521,122 522,121 523,120 524,119 525,118 525,118 526,118 527,116 528,116 529,115 530,114 531,114 532,113 533,113 534,112 534,111 535,105 536,111 537,111 538,109 539,109 540,108 541,108 542,107 542,106 543,105 544,104 545,104 546,104 547,103 548,102 549,101 550,100 551,100 551,100 552,99 553,97 554,97 555,97 556,96 557,95 558,94 559,93 559,92 560,93 561,91 562,91 563,90 564,89 565,90 566,88 567,89 568,88 568,87 569,88 570,87 571,87 572,86 573,86 574,87 575,86 576,86 576,85 577,85 578,85 579,85 580,85 581,84 582,84 583,83 584,84 585,83 585,83 586,82 587,82 588,82 589,82 590,82 591,81 592,81 593,82 593,82 594,81 595,81 596,80 597,81 598,81 599,80 600,80 601,79 602,78 602,79 603,78 604,78 605,78 606,78 607,78 608,77 609,77 610,76 610,76 611,76 612,76 613,76 614,75 615,75 616,74 617,75 618,74 619,74 619,73 620,73 621,73 622,73 623,73 624,72 625,72 626,72 627,72 627,71 628,71 629,71 630,71 631,72 632,71 633,70 634,70 635,70 636,70 636,70 637,70 638,69 639,69 640,69 641,68 642,192 643,191 644,191 644,190 645,191 646,190 647,189 648,189 649,189 650,190 651,189 652,189 653,188 653,187 654,188 655,187 656,187 657,186 658,187 659,187 660,186 661,186 661,185 662,185 663,184 664,185 665,184 666,184 667,184 668,183 669,184 670,183 670,183 671,182 672,182 673,183 674,182 675,182 676,181 677,180 678,180 679,181 679,180 680,180 681,180 682,179 683,180 684,179 685,178 686,178 687,177 687,178 688,178 689,178 690,177 691,177 692,177 693,176 694,176 695,175 696,175 696,174 697,176 698,175 699,174 700,174 701,173 702,174 703,173 704,173 704,173 705,172 706,173 707,172 708,172 709,171 710,171 711,171 712,170 713,170 713,170 714,170 715,170 716,170 717,169 718,169 719,168 720,169 721,168 721,168 722,168 723,167 724,167 725,167 726,166 727,166 728,165 729,166 730,166 730,166 731,165 732,164 733,164 734,165 735,166 736,166 737,166 738,165 738,164 739,165 740,165 741,165 742,164 743,164 744,164 745,163 746,163 747,162 747,163 748,163 749,162 750,162 751,161 752,161 753,161 754,161 755,161 755,160 756,160 757,159 758,160 759,159 760,159 761,158 762,157 763,159 764,158 764,158 765,157 766,157 767,156 768,157 769,156 770,156 771,156 772,155 772,156 773,155 774,155 775,154 776,153 777,154 778,154 779,154 780,153 781,152 781,153 782,152 783,152 784,151 785,151 786,151 787,151 788,151 789,150 789,150 790,149 791,150 792,149 793,149 794,148 795,148 796,149 797,148 798,148 798,147 799,147 800,146 801,146 802,146 803,146 804,147 805,146 806,147 806,146 807,145 808,145 809,144 810,145 811,145 812,145 813,144 814,144 815,144 815,143 816,143 817,142 818,142 819,141 820,142 821,141 822,141 823,141 823,140 824,141 825,140 826,140 827,139 828,138 829,140 830,139 831,139 832,138 832,138 833,138 834,138 835,137 836,136 837,136 838,136 839,137 840,136 840,136 841,135 842,135 843,136 844,136 845,136 846,135 847,134 848,134 849,134 849,134 850,133 851,133 852,132 853,133 854,133 855,132 856,132 857,131 858,132 858,131 859,131 860,130 861,131 862,130 863,129 864,129 865,128 866,128 866,129 867,129 868,128 869,128 870,126 871,128 872,127 873,126 874,126 875,125 875,126 876,126 877,126 878,126 879,126 880,125 881,125 882,125 883,124 883,124 884,123 885,125 886,124 887,123 888,123 889,122 890,122 891,122 892,122 892,121 893,120 894,121 895,121 896,121 897,120 898,120 899,119 900,120 900,119 901,119 902,118 903,117 904,119 905,118 906,118 907,117 908,116 909,117 909,116 910,116 911,115 912,116 913,116 914,116 915,115 916,114 917,114 917,113 918,115 919,114 920,114 921,113 922,112 923,113 924,112 925,112 926,111 926,111 927,111 928,112 929,111 930,110 931,110 932,110 933,110 934,109 934,109 935,108 936,109 937,109 938,108 939,108 940,107 941,107 942,107 943,106 943,106 944,105 945,105 946,105 947,106 948,105 949,106 950,105 951,105 951,105 952,104 953,105 954,104 955,105 956,104 957,103 958,103 959,102 960,103 960,103 961,103 962,102 963,102 964,101 965,101 966,101 967,100 968,100 968,99 969,100 970,99 971,98 972,99 972,99 973,99 973,699 78,699 "/>
<polyline fill="none" opacity="1" stroke="#3CB44B" stroke-width="1" points="78,621 79,589 80,563 81,562 82,561 82,560 83,561 84,560 85,560 86,557 87,557 88,556 89,553 90,553 90,552 91,552 92,552 93,551 94,550 95,550 96,547 97,546 98,546 99,546 99,545 100,545 101,544 102,536 103,539 104,536 105,538 106,536 107,534 107,534 108,532 109,532 110,531 111,531 112,530 113,529 114,528 115,516 116,522 116,520 117,520 118,518 119,518 120,518 121,517 122,516 123,515 124,515 124,514 125,513 126,497 127,504 128,502 129,503 130,501 131,501 132,500 133,499 133,499 134,497 135,497 136,496 137,495 138,494 139,494 140,493 141,492 142,491 142,491 143,490 144,489 145,488 146,487 147,487 148,486 149,486 150,484 150,484 151,461 152,471 153,470 154,469 155,468 156,468 157,467 158,466 159,465 159,465 160,463 161,464 162,462 163,462 164,461 165,460 166,460 167,459 167,458 168,457 169,457 170,457 171,457 172,455 173,454 174,454 175,454 176,422 176,436 177,456 178,455 179,455 180,454 181,453 182,452 183,451 184,452 184,450 185,450 186,448 187,448 188,448 189,447 190,446 191,445 192,445 193,444 193,444 194,443 195,442 196,441 197,440 198,440 199,439 200,439 201,437 201,437 202,437 203,436 204,436 205,435 206,434 207,434 208,433 209,433 210,431 210,431 211,430 212,430 213,429 214,428 215,428 216,426 217,427 218,426 218,425 219,424 220,423 221,423 222,423 223,422 224,421 225,419 226,420 227,419 227,418 228,371 229,393 230,391 231,392 232,391 233,389 234,389 235,388 235,388 236,387 237,386 238,386 239,384 240,384 241,384 242,383 243,382 244,381 244,380 245,380 246,380 247,378 248,378 249,377 250,377 251,376 252,375 252,375 253,373 254,373 255,373 256,371 257,371 258,369 259,369 260,369 261,368 261,367 262,366 263,366 264,366 265,365 266,364 267,363 268,362 269,363 269,362 270,361 271,361 272,360 273,360 274,359 275,358 276,358 277,356 278,356 278,356 279,355 280,354 281,352 282,353 283,352 284,351 285,350 286,349 286,349 287,348 288,348 289,347 290,346 291,345 292,345 293,345 294,343 295,343 295,341 296,341 297,341 298,340 299,339 300,338 301,338 302,337 303,337 303,336 304,335 305,335 306,334 307,333 308,332 309,332 310,331 311,333 312,332 312,331 313,331 314,329 315,329 316,328 317,328 318,327 319,326 320,326 321,325 321,324 322,324 323,322 324,322 325,321 326,321 327,320 328,319 329,318 329,318 330,318 331,316 332,316 333,315 334,314 335,314 336,313 337,312 338,311 338,311 339,310 340,310 341,309 342,308 343,307 344,307 345,306 346,305 346,305 347,303 348,303 349,302 350,301 351,301 352,299 353,300 354,299 355,298 355,297 356,296 357,296 358,295 359,295 360,294 361,293 362,292 363,292 363,291 364,290 365,290 366,288 367,289 368,288 369,287 370,286 371,285 372,285 372,284 373,283 374,282 375,282 376,281 377,281 378,279 379,278 380,277 380,277 381,277 382,181 383,227 384,226 385,225 386,226 387,224 388,224 389,223 389,222 390,222 391,220 392,220 393,219 394,219 395,219 396,218 397,217 397,216 398,215 399,215 400,214 401,213 402,213 403,211 404,211 405,211 406,210 406,209 407,208 408,207 409,208 410,206 411,206 412,205 413,204 414,204 414,203 415,202 416,202 417,201 418,200 419,198 420,188 421,180 422,189 423,191 423,193 424,195 425,196 426,195 427,194 428,194 429,193 430,192 431,191 431,191 432,190 433,190 434,189 435,188 436,187 437,186 438,186 439,185 440,184 440,183 441,183 442,182 443,182 444,181 445,180 446,180 447,179 448,179 448,177 449,176 450,176 451,177 452,176 453,174 454,174 455,173 456,173 457,172 457,171 458,170 459,169 460,169 461,168 462,167 463,167 464,166 465,166 465,165 466,164 467,163 468,163 469,162 470,161 471,160 472,160 473,159 474,158 474,158 475,157 476,156 477,155 478,154 479,155 480,153 481,153 482,152 482,151 483,151 484,150 485,149 486,148 487,147 488,147 489,146 490,146 491,144 491,144 492,143 493,143 494,142 495,141 496,140 497,139 498,140 499,138 500,138 500,137 501,136 502,136 503,135 504,134 505,133 506,132 507,131 508,132 508,130 509,130 510,129 511,128 512,128 513,127 514,126 515,125 516,124 517,124 517,124 518,123 519,122 520,121 521,122 522,121 523,120 524,119 525,118 525,118 526,118 527,116 528,116 529,115 530,114 531,114 532,113 533,113 534,112 534,111 535,105 536,111 537,111 538,109 539,109 540,108 541,108 542,107 542,106 543,105 544,104 545,104 546,104 547,103 548,102 549,101 550,100 551,100 551,100 552,99 553,97 554,97 555,97 556,96 557,95 558,94 559,93 559,92 560,93 561,91 562,91 563,90 564,89 565,90 566,88 567,89 568,88 568,87 569,88 570,87 571,87 572,86 573,86 574,87 575,86 576,86 576,85 577,85 578,85 579,85 580,85 581,84 582,84 583,83 584,84 585,83 585,83 586,82 587,82 588,82 589,82 590,82 591,81 592,81 593,82 593,82 594,81 595,81 596,80 597,81 598,81 599,80 600,80 601,79 602,78 602,79 603,78 604,78 605,78 606,78 607,78 608,77 609,77 610,76 610,76 611,76 612,76 613,76 614,75 615,75 616,74 617,75 618,74 619,74 619,73 620,73 621,73 622,73 623,73 624,72 625,72 626,72 627,72 627,71 628,71 629,71 630,71 631,72 632,71 633,70 634,70 635,70 636,70 636,70 637,70 638,69 639,69 640,69 641,68 642,192 643,191 644,191 644,190 645,191 646,190 647,189 648,189 649,189 650,190 651,189 652,189 653,188 653,187 654,188 655,187 656,187 657,186 658,187 659,187 660,186 661,186 661,185 662,185 663,184 664,185 665,184 666,184 667,184 668,183 669,184 670,183 670,183 671,182 672,182 673,183 674,182 675,182 676,181 677,180 678,180 679,181 679,180 680,180 681,180 682,179 683,180 684,179 685,178 686,178 687,177 687,178 688,178 689,178 690,177 691,177 692,177 693,176 694,176 695,175 696,175 696,174 697,176 698,175 699,174 700,174 701,173 702,174 703,173 704,173 704,173 705,172 706,173 707,172 708,172 709,171 710,171 711,171 712,170 713,170 713,170 714,170 715,170 716,170 717,169 718,169 719,168 720,169 721,168 721,168 722,168 723,167 724,167 725,167 726,166 727,166 728,165 729,166 730,166 730,166 731,165 732,164 733,164 734,165 735,166 736,166 737,166 738,165 738,164 739,165 740,165 741,165 742,164 743,164 744,164 745,163 746,163 747,162 747,163 748,163 749,162 750,162 751,161 752,161 753,161 754,161 755,161 755,160 756,160 757,159 758,160 759,159 760,159 761,158 762,157 763,159 764,158 764,158 765,157 766,157 767,156 768,157 769,156 770,156 771,156 772,155 772,156 773,155 774,155 775,154 776,153 777,154 778,154 779,154 780,153 781,152 781,153 782,152 783,152 784,151 785,151 786,151 787,151 788,151 789,150 789,150 790,149 791,150 792,149 793,149 794,148 795,148 796,149 797,148 798,148 798,147 799,147 800,146 801,146 802,146 803,146 804,147 805,146 806,147 806,146 807,145 808,145 809,144 810,145 811,145 812,145 813,144 814,144 815,144 815,143 816,143 817,142 818,142 819,141 820,142 821,141 822,141 823,141 823,140 824,141 825,140 826,140 827,139 828,138 829,140 830,139 831,139 832,138 832,138 833,138 834,138 835,137 836,136 837,136 838,136 839,137 840,136 840,136 841,135 842,135 843,136 844,136 845,136 846,135 847,134 848,134 849,134 849,134 850,133 851,133 852,132 853,133 854,133 855,132 856,132 857,131 858,132 858,131 859,131 860,130 861,131 862,130 863,129 864,129 865,128 866,128 866,129 867,129 868,128 869,128 870,126 871,128 872,127 873,126 874,126 875,125 875,126 876,126 877,126 878,126 879,126 880,125 881,125 882,125 883,124 883,124 884,123 885,125 886,124 887,123 888,123 889,122 890,122 891,122 892,122 892,121 893,120 894,121 895,121 896,121 897,120 898,120 899,119 900,120 900,119 901,119 902,118 903,117 904,119 905,118 906,118 907,117 908,116 909,117 909,116 910,116 911,115 912,116 913,116 914,116 915,115 916,114 917,114 917,113 918,115 919,114 920,114 921,113 922,112 923,113 924,112 925,112 926,111 926,111 927,111 928,112 929,111 930,110 931,110 932,110 933,110 934,109 934,109 935,108 936,109 937,109 938,108 939,108 940,107 941,107 942,107 943,106 943,106 944,105 945,105 946,105 947,106 948,105 949,106 950,105 951,105 951,105 952,104 953,105 954,104 955,105 956,104 957,103 958,103 959,102 960,103 960,103 961,103 962,102 963,102 964,101 965,101 966,101 967,100 968,100 968,99 969,100 970,99 971,98 972,99 972,99 973,99 "/>
<polygon opacity="1" fill="#E6194B" points="78,663 79,663 80,663 81,663 82,663 82,662 83,662 84,662 85,662 86,662 87,662 88,662 89,662 90,662 90,662 91,662 92,662 93,662 94,662 95,662 96,662 97,662 98,662 99,662 99,662 100,662 101,662 102,662 103,662 104,658 105,658 106,657 107,657 107,657 108,657 109,657 110,657 111,657 112,657 113,657 114,657 115,657 116,657 116,657 117,657 118,657 119,657 120,657 121,657 122,657 123,657 124,657 124,657 125,657 126,657 127,657 128,657 129,657 130,657 131,657 132,657 133,657 133,657 134,657 135,657 136,657 137,657 138,657 139,657 140,657 141,657 142,657 142,657 143,657 144,657 145,657 146,657 147,657 148,657 149,657 150,657 150,657 151,657 152,657 153,657 154,657 155,657 156,657 157,657 158,657 159,657 159,657 160,657 161,657 162,657 163,657 164,657 165,657 166,657 167,657 167,657 168,657 169,657 170,657 171,657 172,657 173,657 174,657 175,656 176,624 176,624 177,624 178,624 179,624 180,624 181,624 182,624 183,624 184,624 184,624 185,624 186,624 187,624 188,624 189,624 190,624 191,624 192,624 193,624 193,624 194,624 195,624 196,624 197,624 198,624 199,624 200,624 201,624 201,624 202,624 203,624 204,624 205,624 206,624 207,624 208,624 209,624 210,624 210,624 211,624 212,623 213,623 214,623 215,623 216,623 217,623 218,623 218,623 219,623 220,623 221,623 222,623 223,623 224,623 225,623 226,623 227,623 227,623 228,623 229,623 230,623 231,623 232,623 233,623 234,623 235,623 235,623 236,623 237,623 238,623 239,623 240,623 241,623 242,623 243,623 244,623 244,623 245,623 246,623 247,623 248,623 249,623 250,623 251,623 252,623 252,623 253,623 254,623 255,623 256,623 257,623 258,623 259,623 260,623 261,623 261,623 262,623 263,623 264,623 265,623 266,623 267,623 268,623 269,623 269,623 270,623 271,623 272,623 273,623 274,623 275,623 276,623 277,623 278,623 278,623 279,623 280,623 281,623 282,623 283,623 284,623 285,623 286,623 286,623 287,623 288,623 289,623 290,623 291,623 292,623 293,623 294,623 295,623 295,623 296,623 297,623 298,623 299,623 300,623 301,623 302,623 303,623 303,623 304,623 305,623 306,623 307,623 308,623 309,623 310,623 311,623 312,623 312,623 313,623 314,623 315,623 316,623 317,623 318,623 319,623 320,623 321,623 321,623 322,623 323,623 324,623 325,623 326,623 327,623 328,623 329,623 329,623 330,623 331,623 332,623 333,623 334,623 335,623 336,623 337,623 338,623 338,623 339,623 340,623 341,623 342,623 343,622 344,622 345,622 346,622 346,622 347,622 348,622 349,622 350,622 351,622 352,622 353,622 354,622 355,622 355,622 356,622 357,622 358,622 359,622 360,622 361,622 362,622 363,622 363,622 364,622 365,622 366,622 367,622 368,622 369,622 370,622 371,622 372,622 372,622 373,622 374,622 375,622 376,622 377,622 378,622 379,622 380,622 380,622 381,622 382,527 383,527 384,527 385,527 386,527 387,527 388,527 389,527 389,527 390,527 391,527 392,527 393,527 394,527 395,527 396,527 397,527 397,527 398,527 399,527 400,527 401,527 402,527 403,527 404,527 405,527 406,527 406,527 407,527 408,527 409,527 410,527 411,526 412,526 413,526 414,526 414,526 415,525 416,524 417,523 418,521 419,518 420,505 421,486 422,475 423,468 423,462 424,459 425,459 426,459 427,458 428,458 429,458 430,458 431,458 431,458 432,458 433,458 434,458 435,458 436,458 437,458 438,458 439,458 440,458 440,458 441,458 442,457 443,457 444,457 445,457 446,457 447,457 448,457 448,457 449,457 450,457 451,457 452,456 453,456 454,456 455,456 456,456 457,456 457,456 458,456 459,456 460,456 461,456 462,456 463,456 464,456 465,456 465,456 466,456 467,456 468,456 469,456 470,456 471,456 472,456 473,456 474,456 474,456 475,456 476,456 477,456 478,456 479,456 480,456 481,456 482,456 482,456 483,455 484,455 485,455 486,455 487,454 488,454 489,453 490,453 491,452 491,452 492,451 493,451 494,451 495,450 496,450 497,449 498,449 499,448 500,448 500,447 501,447 502,446 503,446 504,445 505,445 506,444 507,444 508,443 508,443 509,442 510,442 511,441 512,441 513,441 514,440 515,440 516,439 517,439 517,438 518,438 519,437 520,437 521,436 522,436 523,435 524,435 525,434 525,434 526,434 527,433 528,433 529,432 530,432 531,431 532,430 533,430 534,430 534,429 535,423 536,423 537,422 538,422 539,421 540,421 541,420 542,420 542,419 543,419 544,418 545,418 546,418 547,417 548,417 549,416 550,416 551,415 551,415 552,414 553,414 554,413 555,413 556,412 557,412 558,412 559,411 559,411 560,410 561,410 562,409 563,409 564,408 565,408 566,407 567,407 568,406 568,406 569,406 570,405 571,405 572,404 573,404 574,403 575,403 576,402 576,402 577,401 578,401 579,400 580,400 581,399 582,399 583,399 584,398 585,398 585,397 586,397 587,396 588,396 589,395 590,395 591,394 592,394 593,393 593,393 594,393 595,392 596,392 597,391 598,391 599,390 600,390 601,389 602,389 602,388 603,388 604,387 605,387 606,387 607,386 608,386 609,385 610,385 610,384 611,384 612,383 613,383 614,382 615,382 616,381 617,381 618,381 619,380 619,380 620,379 621,379 622,378 623,378 624,377 625,377 626,376 627,376 627,375 628,375 629,374 630,374 631,374 632,373 633,373 634,372 635,372 636,371 636,371 637,370 638,370 639,369 640,369 641,368 642,367 643,367 644,366 644,365 645,364 646,364 647,363 648,362 649,362 650,361 651,360 652,359 653,359 653,358 654,357 655,357 656,356 657,355 658,355 659,354 660,353 661,352 661,352 662,351 663,350 664,350 665,349 666,348 667,348 668,347 669,346 670,345 670,345 671,344 672,343 673,343 674,342 675,341 676,341 677,340 678,339 679,339 679,338 680,337 681,336 682,336 683,335 684,334 685,333 686,333 687,332 687,331 688,331 689,330 690,329 691,329 692,328 693,327 694,326 695,326 696,325 696,324 697,323 698,323 699,322 700,321 701,321 702,320 703,319 704,319 704,318 705,317 706,317 707,316 708,315 709,315 710,314 711,313 712,312 713,312 713,311 714,310 715,310 716,309 717,308 718,307 719,307 720,306 721,305 721,305 722,304 723,303 724,303 725,302 726,301 727,300 728,300 729,299 730,298 730,298 731,297 732,296 733,296 734,295 735,294 736,293 737,293 738,292 738,291 739,291 740,290 741,289 742,288 743,288 744,287 745,287 746,286 747,285 747,284 748,284 749,283 750,282 751,281 752,281 753,280 754,280 755,279 755,278 756,277 757,277 758,276 759,275 760,274 761,274 762,273 763,272 764,272 764,271 765,270 766,270 767,269 768,268 769,267 770,267 771,266 772,265 772,265 773,264 774,263 775,262 776,262 777,261 778,260 779,259 780,259 781,258 781,257 782,257 783,256 784,255 785,254 786,254 787,253 788,252 789,252 789,251 790,250 791,249 792,249 793,248 794,247 795,246 796,246 797,245 798,244 798,244 799,243 800,242 801,241 802,241 803,240 804,239 805,238 806,238 806,237 807,236 808,235 809,235 810,234 811,233 812,233 813,232 814,231 815,230 815,230 816,229 817,228 818,228 819,227 820,226 821,225 822,224 823,224 823,223 824,222 825,222 826,221 827,220 828,220 829,219 830,218 831,218 832,217 832,216 833,215 834,215 835,214 836,213 837,212 838,212 839,211 840,210 840,210 841,209 842,208 843,207 844,207 845,206 846,205 847,205 848,204 849,203 849,202 850,202 851,201 852,200 853,199 854,199 855,198 856,197 857,196 858,196 858,195 859,194 860,193 861,193 862,192 863,191 864,190 865,190 866,189 866,188 867,187 868,187 869,186 870,185 871,185 872,184 873,183 874,182 875,182 875,181 876,180 877,179 878,178 879,178 880,177 881,176 882,175 883,175 883,174 884,173 885,173 886,172 887,171 888,171 889,170 890,169 891,168 892,168 892,167 893,166 894,165 895,165 896,164 897,163 898,162 899,162 900,161 900,160 901,160 902,159 903,158 904,157 905,156 906,156 907,155 908,154 909,153 909,153 910,152 911,151 912,151 913,150 914,149 915,148 916,148 917,147 917,146 918,146 919,145 920,144 921,143 922,143 923,142 924,141 925,141 926,140 926,139 927,139 928,138 929,137 930,136 931,136 932,135 933,134 934,133 934,133 935,132 936,131 937,131 938,130 939,129 940,128 941,128 942,127 943,126 943,125 944,125 945,124 946,123 947,123 948,122 949,121 950,120 951,119 951,119 952,118 953,117 954,116 955,116 956,115 957,114 958,114 959,113 960,112 960,111 961,111 962,110 963,109 964,108 965,107 966,107 967,106 968,105 968,104 969,102 970,101 971,100 972,99 972,99 973,99 973,699 78,699 "/>
<polyline fill="none" opacity="1" stroke="#E6194B" stroke-width="1" points="78,663 79,663 80,663 81,663 82,663 82,662 83,662 84,662 85,662 86,662 87,662 88,662 89,662 90,662 90,662 91,662 92,662 93,662 94,662 95,662 96,662 97,662 98,662 99,662 99,662 100,662 101,662 102,662 103,662 104,658 105,658 106,657 107,657 107,657 108,657 109,657 110,657 111,657 112,657 113,657 114,657 115,657 116,657 116,657 117,657 118,657 119,657 120,657 121,657 122,657 123,657 124,657 124,657 125,657 126,657 127,657 128,657 129,657 130,657 131,657 132,657 133,657 133,657 134,657 135,657 136,657 137,657 138,657 139,657 140,657 141,657 142,657 142,657 143,657 144,657 145,657 146,657 147,657 148,657 149,657 150,657 150,657 151,657 152,657 153,657 154,657 155,657 156,657 157,657 158,657 159,657 159,657 160,657 161,657 162,657 163,657 164,657 165,657 166,657 167,657 167,657 168,657 169,657 170,657 171,657 172,657 173,657 174,657 175,656 176,624 176,624 177,624 178,624 179,624 180,624 181,624 182,624 183,624 184,624 184,624 185,624 186,624 187,624 188,624 189,624 190,624 191,624 192,624 193,624 193,624 194,624 195,624 196,624 197,624 198,624 199,624 200,624 201,624 201,624 202,624 203,624 204,624 205,624 206,624 207,624 208,624 209,624 210,624 210,624 211,624 212,623 213,623 214,623 215,623 216,623 217,623 218,623 218,623 219,623 220,623 221,623 222,623 223,623 224,623 225,623 226,623 227,623 227,623 228,623 229,623 230,623 231,623 232,623 233,623 234,623 235,623 235,623 236,623 237,623 238,623 239,623 240,623 241,623 242,623 243,623 244,623 244,623 245,623 246,623 247,623 248,623 249,623 250,623 251,623 252,623 252,623 253,623 254,623 255,623 256,623 257,623 258,623 259,623 260,623 261,623 261,623 262,623 263,623 264,623 265,623 266,623 267,623 268,623 269,623 269,623 270,623 271,623 272,623 273,623 274,623 275,623 276,623 277,623 278,623 278,623 279,623 280,623 281,623 282,623 283,623 284,623 285,623 286,623 286,623 287,623 288,623 289,623 290,623 291,623 292,623 293,623 294,623 295,623 295,623 296,623 297,623 298,623 299,623 300,623 301,623 302,623 303,623 303,623 304,623 305,623 306,623 307,623 308,623 309,623 310,623 311,623 312,623 312,623 313,623 314,623 315,623 316,623 317,623 318,623 319,623 320,623 321,623 321,623 322,623 323,623 324,623 325,623 326,623 327,623 328,623 329,623 329,623 330,623 331,623 332,623 333,623 334,623 335,623 336,623 337,623 338,623 338,623 339,623 340,623 341,623 342,623 343,622 344,622 345,622 346,622 346,622 347,622 348,622 349,622 350,622 351,622 352,622 353,622 354,622 355,622 355,622 356,622 357,622 358,622 359,622 360,622 361,622 362,622 363,622 363,622 364,622 365,622 366,622 367,622 368,622 369,622 370,622 371,622 372,622 372,622 373,622 374,622 375,622 376,622 377,622 378,622 379,622 380,622 380,622 381,622 382,527 383,527 384,527 385,527 386,527 387,527 388,527 389,527 389,527 390,527 391,527 392,527 393,527 394,527 395,527 396,527 397,527 397,527 398,527 399,527 400,527 401,527 402,527 403,527 404,527 405,527 406,527 406,527 407,527 408,527 409,527 410,527 411,526 412,526 413,526 414,526 414,526 415,525 416,524 417,523 418,521 419,518 420,505 421,486 422,475 423,468 423,462 424,459 425,459 426,459 427,458 428,458 429,458 430,458 431,458 431,458 432,458 433,458 434,458 435,458 436,458 437,458 438,458 439,458 440,458 440,458 441,458 442,457 443,457 444,457 445,457 446,457 447,457 448,457 448,457 449,457 450,457 451,457 452,456 453,456 454,456 455,456 456,456 457,456 457,456 458,456 459,456 460,456 461,456 462,456 463,456 464,456 465,456 465,456 466,456 467,456 468,456 469,456 470,456 471,456 472,456 473,456 474,456 474,456 475,456 476,456 477,456 478,456 479,456 480,456 481,456 482,456 482,456 483,455 484,455 485,455 486,455 487,454 488,454 489,453 490,453 491,452 491,452 492,451 493,451 494,451 495,450 496,450 497,449 498,449 499,448 500,448 500,447 501,447 502,446 503,446 504,445 505,445 506,444 507,444 508,443 508,443 509,442 510,442 511,441 512,441 513,441 514,440 515,440 516,439 517,439 517,438 518,438 519,437 520,437 521,436 522,436 523,435 524,435 525,434 525,434 526,434 527,433 528,433 529,432 530,432 531,431 532,430 533,430 534,430 534,429 535,423 536,423 537,422 538,422 539,421 540,421 541,420 542,420 542,419 543,419 544,418 545,418 546,418 547,417 548,417 549,416 550,416 551,415 551,415 552,414 553,414 554,413 555,413 556,412 557,412 558,412 559,411 559,411 560,410 561,410 562,409 563,409 564,408 565,408 566,407 567,407 568,406 568,406 569,406 570,405 571,405 572,404 573,404 574,403 575,403 576,402 576,402 577,401 578,401 579,400 580,400 581,399 582,399 583,399 584,398 585,398 585,397 586,397 587,396 588,396 589,395 590,395 591,394 592,394 593,393 593,393 594,393 595,392 596,392 597,391 598,391 599,390 600,390 601,389 602,389 602,388 603,388 604,387 605,387 606,387 607,386 608,386 609,385 610,385 610,384 611,384 612,383 613,383 614,382 615,382 616,381 617,381 618,381 619,380 619,380 620,379 621,379 622,378 623,378 624,377 625,377 626,376 627,376 627,375 628,375 629,374 630,374 631,374 632,373 633,373 634,372 635,372 636,371 636,371 637,370 638,370 639,369 640,369 641,368 642,367 643,367 644,366 644,365 645,364 646,364 647,363 648,362 649,362 650,361 651,360 652,359 653,359 653,358 654,357 655,357 656,356 657,355 658,355 659,354 660,353 661,352 661,352 662,351 663,350 664,350 665,349 666,348 667,348 668,347 669,346 670,345 670,345 671,344 672,343 673,343 674,342 675,341 676,341 677,340 678,339 679,339 679,338 680,337 681,336 682,336 683,335 684,334 685,333 686,333 687,332 687,331 688,331 689,330 690,329 691,329 692,328 693,327 694,326 695,326 696,325 696,324 697,323 698,323 699,322 700,321 701,321 702,320 703,319 704,319 704,318 705,317 706,317 707,316 708,315 709,315 710,314 711,313 712,312 713,312 713,311 714,310 715,310 716,309 717,308 718,307 719,307 720,306 721,305 721,305 722,304 723,303 724,303 725,302 726,301 727,300 728,300 729,299 730,298 730,298 731,297 732,296 733,296 734,295 735,294 736,293 737,293 738,292 738,291 739,291 740,290 741,289 742,288 743,288 744,287 745,287 746,286 747,285 747,284 748,284 749,283 750,282 751,281 752,281 753,280 754,280 755,279 755,278 756,277 757,277 758,276 759,275 760,274 761,274 762,273 763,272 764,272 764,271 765,270 766,270 767,269 768,268 769,267 770,267 771,266 772,265 772,265 773,264 774,263 775,262 776,262 777,261 778,260 779,259 780,259 781,258 781,257 782,257 783,256 784,255 785,254 786,254 787,253 788,252 789,252 789,251 790,250 791,249 792,249 793,248 794,247 795,246 796,246 797,245 798,244 798,244 799,243 800,242 801,241 802,241 803,240 804,239 805,238 806,238 806,237 807,236 808,235 809,235 810,234 811,233 812,233 813,232 814,231 815,230 815,230 816,229 817,228 818,228 819,227 820,226 821,225 822,224 823,224 823,223 824,222 825,222 826,221 827,220 828,220 829,219 830,218 831,218 832,217 832,216 833,215 834,215 835,214 836,213 837,212 838,212 839,211 840,210 840,210 841,209 842,208 843,207 844,207 845,206 846,205 847,205 848,204 849,203 849,202 850,202 851,201 852,200 853,199 854,199 855,198 856,197 857,196 858,196 858,195 859,194 860,193 861,193 862,192 863,191 864,190 865,190 866,189 866,188 867,187 868,187 869,186 870,185 871,185 872,184 873,183 874,182 875,182 875,181 876,180 877,179 878,178 879,178 880,177 881,176 882,175 883,175 883,174 884,173 885,173 886,172 887,171 888,171 889,170 890,169 891,168 892,168 892,167 893,166 894,165 895,165 896,164 897,163 898,162 899,162 900,161 900,160 901,160 902,159 903,158 904,157 905,156 906,156 907,155 908,154 909,153 909,153 910,152 911,151 912,151 913,150 914,149 915,148 916,148 917,147 917,146 918,146 919,145 920,144 921,143 922,143 923,142 924,141 925,141 926,140 926,139 927,139 928,138 929,137 930,136 931,136 932,135 933,134 934,133 934,133 935,132 936,131 937,131 938,130 939,129 940,128 941,128 942,127 943,126 943,125 944,125 945,124 946,123 947,123 948,122 949,121 950,120 951,119 951,119 952,118 953,117 954,116 955,116 956,115 957,114 958,114 959,113 960,112 960,111 961,111 962,110 963,109 964,108 965,107 966,107 967,106 968,105 968,104 969,102 970,101 971,100 972,99 972,99 973,99 "/>
<line opacity="0.1" stroke="#000000" stroke-width="1" x1="84" y1="699" x2="84" y2="68"/>
<line opacity="0.1" stroke="#000000" stroke-width="1" x1="94" y1="699" x2="94" y2="68"/>
<line opacity="0.1" stroke="#000000" stroke-width="1" x1="105" y1="699" x2="105" y2="68"/>
<line opacity="0.1" stroke="#000000" stroke-width="1" x1="115" y1="699" x2="115" y2="68"/>
<line opacity="0.1" stroke="#000000" stroke-width="1" x1="126" y1="699" x2="126" y2="68"/>
<line opacity="0.1" stroke="#000000" stroke-width="1" x1="137" y1="699" x2="137" y2="68"/>
<line opacity="0.1" stroke="#000000" stroke-width="1" x1="147" y1="699" x2="147" y2="68"/>
<line opacity="0.1" stroke="#000000" stroke-width="1" x1="158" y1="699" x2="158" y2="68"/>
<line opacity="0.1" stroke="#000000" stroke-width="1" x1="168" y1="699" x2="168" y2="68"/>
<line opacity="0.1" stroke="#000000" stroke-width="1" x1="179" y1="699" x2="179" y2="68"/>
<line opacity="0.1" stroke="#000000" stroke-width="1" x1="189" y1="699" x2="189" y2="68"/>
<line opacity="0.1" stroke="#000000" stroke-width="1" x1="200" y1="699" x2="200" y2="68"/>
<line opacity="0.1" stroke="#000000" stroke-width="1" x1="211" y1="699" x2="211" y2="68"/>
<line opacity="0.1" stroke="#000000" stroke-width="1" x1="221" y1="699" x2="221" y2="68"/>
<line opacity="0.1" stroke="#000000" stroke-width="1" x1="232" y1="699" x2="232" y2="68"/>
<line opacity="0.1" stroke="#000000" stroke-width="1" x1="242" y1="699" x2="242" y2="68"/>
<line opacity="0.1" stroke="#000000" stroke-width="1" x1="253" y1="699" x2="253" y2="68"/>
<line opacity="0.1" stroke="#000000" stroke-width="1" x1="264" y1="699" x2="264" y2="68"/>
<line opacity="0.1" stroke="#000000" stroke-width="1" x1="274" y1="699" x2="274" y2="68"/>
<line opacity="0.1" stroke="#000000" stroke-width="1" x1="285" y1="699" x2="285" y2="68"/>
<line opacity="0.1" stroke="#000000" stroke-width="1" x1="295" y1="699" x2="295" y2="68"/>
<line opacity="0.1" stroke="#000000" stroke-width="1" x1="306" y1="699" x2="306" y2="68"/>
<line opacity="0.1" stroke="#000000" stroke-width="1" x1="316" y1="699" x2="316" y2="68"/>
<line opacity="0.1" stroke="#000000" stroke-width="1" x1="327" y1="699" x2="327" y2="68"/>
<line opacity="0.1" stroke="#000000" stroke-width="1" x1="338" y1="699" x2="338" y2="68"/>
<line opacity="0.1" stroke="#000000" stroke-width="1" x1="348" y1="699" x2="348" y2="68"/>
<line opacity="0.1" stroke="#000000" stroke-width="1" x1="359" y1="699" x2="359" y2="68"/>
<line opacity="0.1" stroke="#000000" stroke-width="1" x1="369" y1="699" x2="369" y2="68"/>
<line opacity="0.1" stroke="#000000" stroke-width="1" x1="380" y1="699" x2="380" y2="68"/>
<line opacity="0.1" stroke="#000000" stroke-width="1" x1="390" y1="699" x2="390" y2="68"/>
<line opacity="0.1" stroke="#000000" stroke-width="1" x1="401" y1="699" x2="401" y2="68"/>
<line opacity="0.1" stroke="#000000" stroke-width="1" x1="412" y1="699" x2="412" y2="68"/>
<line opacity="0.1" stroke="#000000" stroke-width="1" x1="422" y1="699" x2="422" y2="68"/>
<line opacity="0.1" stroke="#000000" stroke-width="1" x1="433" y1="699" x2="433" y2="68"/>
<line opacity="0.1" stroke="#000000" stroke-width="1" x1="443" y1="699" x2="443" y2="68"/>
<line opacity="0.1" stroke="#000000" stroke-width="1" x1="454" y1="699" x2="454" y2="68"/>
<line opacity="0.1" stroke="#000000" stroke-width="1" x1="464" y1="699" x2="464" y2="68"/>
<line opacity="0.1" stroke="#000000" stroke-width="1" x1="475" y1="699" x2="475" y2="68"/>
<line opacity="0.1" stroke="#000000" stroke-width="1" x1="486" y1="699" x2="486" y2="68"/>
<line opacity="0.1" stroke="#000000" stroke-width="1" x1="496" y1="699" x2="496" y2="68"/>
<line opacity="0.1" stroke="#000000" stroke-width="1" x1="507" y1="699" x2="507" y2="68"/>
<line opacity="0.1" stroke="#000000" stroke-width="1" x1="517" y1="699" x2="517" y2="68"/>
<line opacity="0.1" stroke="#000000" stroke-width="1" x1="528" y1="699" x2="528" y2="68"/>
<line opacity="0.1" stroke="#000000" stroke-width="1" x1="538" y1="699" x2="538" y2="68"/>
<line opacity="0.1" stroke="#000000" stroke-width="1" x1="549" y1="699" x2="549" y2="68"/>
<line opacity="0.1" stroke="#000000" stroke-width="1" x1="560" y1="699" x2="560" y2="68"/>
<line opacity="0.1" stroke="#000000" stroke-width="1" x1="570" y1="699" x2="570" y2="68"/>
<line opacity="0.1" stroke="#000000" stroke-width="1" x1="581" y1="699" x2="581" y2="68"/>
<line opacity="0.1" stroke="#000000" stroke-width="1" x1="591" y1="699" x2="591" y2="68"/>
<line opacity="0.1" stroke="#000000" stroke-width="1" x1="602" y1="699" x2="602" y2="68"/>
<line opacity="0.1" stroke="#000000" stroke-width="1" x1="612" y1="699" x2="612" y2="68"/>
<line opacity="0.1" stroke="#000000" stroke-width="1" x1="623" y1="699" x2="623" y2="68"/>
<line opacity="0.1" stroke="#000000" stroke-width="1" x1="634" y1="699" x2="634" y2="68"/>
<line opacity="0.1" stroke="#000000" stroke-width="1" x1="644" y1="699" x2="644" y2="68"/>
<line opacity="0.1" stroke="#000000" stroke-width="1" x1="655" y1="699" x2="655" y2="68"/>
<line opacity="0.1" stroke="#000000" stroke-width="1" x1="665" y1="699" x2="665" y2="68"/>
<line opacity="0.1" stroke="#000000" stroke-width="1" x1="676" y1="699" x2="676" y2="68"/>
<line opacity="0.1" stroke="#000000" stroke-width="1" x1="687" y1="699" x2="687" y2="68"/>
<line opacity="0.1" stroke="#000000" stroke-width="1" x1="697" y1="699" x2="697" y2="68"/>
<line opacity="0.1" stroke="#000000" stroke-width="1" x1="708" y1="699" x2="708" y2="68"/>
<line opacity="0.1" stroke="#000000" stroke-width="1" x1="718" y1="699" x2="718" y2="68"/>
<line opacity="0.1" stroke="#000000" stroke-width="1" x1="729" y1="699" x2="729" y2="68"/>
<line opacity="0.1" stroke="#000000" stroke-width="1" x1="739" y1="699" x2="739" y2="68"/>
<line opacity="0.1" stroke="#000000" stroke-width="1" x1="750" y1="699" x2="750" y2="68"/>
<line opacity="0.1" stroke="#000000" stroke-width="1" x1="761" y1="699" x2="761" y2="68"/>
<line opacity="0.1" stroke="#000000" stroke-width="1" x1="771" y1="699" x2="771" y2="68"/>
<line opacity="0.1" stroke="#000000" stroke-width="1" x1="782" y1="699" x2="782" y2="68"/>
<line opacity="0.1" stroke="#000000" stroke-width="1" x1="792" y1="699" x2="792" y2="68"/>
<line opacity="0.1" stroke="#000000" stroke-width="1" x1="803" y1="699" x2="803" y2="68"/>
<line opacity="0.1" stroke="#000000" stroke-width="1" x1="813" y1="699" x2="813" y2="68"/>
<line opacity="0.1" stroke="#000000" stroke-width="1" x1="824" y1="699" x2="824" y2="68"/>
<line opacity="0.1" stroke="#000000" stroke-width="1" x1="835" y1="699" x2="835" y2="68"/>
<line opacity="0.1" stroke="#000000" stroke-width="1" x1="845" y1="699" x2="845" y2="68"/>
<line opacity="0.1" stroke="#000000" stroke-width="1" x1="856" y1="699" x2="856" y2="68"/>
<line opacity="0.1" stroke="#000000" stroke-width="1" x1="866" y1="699" x2="866" y2="68"/>
<line opacity="0.1" stroke="#000000" stroke-width="1" x1="877" y1="699" x2="877" y2="68"/>
<line opacity="0.1" stroke="#000000" stroke-width="1" x1="887" y1="699" x2="887" y2="68"/>
<line opacity="0.1" stroke="#000000" stroke-width="1" x1="898" y1="699" x2="898" y2="68"/>
<line opacity="0.1" stroke="#000000" stroke-width="1" x1="909" y1="699" x2="909" y2="68"/>
<line opacity="0.1" stroke="#000000" stroke-width="1" x1="919" y1="699" x2="919" y2="68"/>
<line opacity="0.1" stroke="#000000" stroke-width="1" x1="930" y1="699" x2="930" y2="68"/>
<line opacity="0.1" stroke="#000000" stroke-width="1" x1="940" y1="699" x2="940" y2="68"/>
<line opacity="0.1" stroke="#000000" stroke-width="1" x1="951" y1="699" x2="951" y2="68"/>
<line opacity="0.1" stroke="#000000" stroke-width="1" x1="961" y1="699" x2="961" y2="68"/>
<line opacity="0.1" stroke="#000000" stroke-width="1" x1="972" y1="699" x2="972" y2="68"/>
<line opacity="0.1" stroke="#000000" stroke-width="1" x1="78" y1="699" x2="973" y2="699"/>
<line opacity="0.1" stroke="#000000" stroke-width="1" x1="78" y1="686" x2="973" y2="686"/>
<line opacity="0.1" stroke="#000000" stroke-width="1" x1="78" y1="673" x2="973" y2="673"/>
<line opacity="0.1" stroke="#000000" stroke-width="1" x1="78" y1="660" x2="973" y2="660"/>
<line opacity="0.1" stroke="#000000" stroke-width="1" x1="78" y1="647" x2="973" y2="647"/>
<line opacity="0.1" stroke="#000000" stroke-width="1" x1="78" y1="634" x2="973" y2="634"/>
<line opacity="0.1" stroke="#000000" stroke-width="1" x1="78" y1="622" x2="973" y2="622"/>
<line opacity="0.1" stroke="#000000" stroke-width="1" x1="78" y1="609" x2="973" y2="609"/>
<line opacity="0.1" stroke="#000000" stroke-width="1" x1="78" y1="596" x2="973" y2="596"/>
<line opacity="0.1" stroke="#000000" stroke-width="1" x1="78" y1="583" x2="973" y2="583"/>
<line opacity="0.1" stroke="#000000" stroke-width="1" x1="78" y1="570" x2="973" y2="570"/>
<line opacity="0.1" stroke="#000000" stroke-width="1" x1="78" y1="558" x2="973" y2="558"/>
<line opacity="0.1" stroke="#000000" stroke-width="1" x1="78" y1="545" x2="973" y2="545"/>
<line opacity="0.1" stroke="#000000" stroke-width="1" x1="78" y1="532" x2="973" y2="532"/>
<line opacity="0.1" stroke="#000000" stroke-width="1" x1="78" y1="519" x2="973" y2="519"/>
<line opacity="0.1" stroke="#000000" stroke-width="1" x1="78" y1="506" x2="973" y2="506"/>
<line opacity="0.1" stroke="#000000" stroke-width="1" x1="78" y1="494" x2="973" y2="494"/>
<line opacity="0.1" stroke="#000000" stroke-width="1" x1="78" y1="481" x2="973" y2="481"/>
<line opacity="0.1" stroke="#000000" stroke-width="1" x1="78" y1="468" x2="973" y2="468"/>
<line opacity="0.1" stroke="#000000" stroke-width="1" x1="78" y1="455" x2="973" y2="455"/>
<line opacity="0.1" stroke="#000000" stroke-width="1" x1="78" y1="442" x2="973" y2="442"/>
<line opacity="0.1" stroke="#000000" stroke-width="1" x1="78" y1="430" x2="973" y2="430"/>
<line opacity="0.1" stroke="#000000" stroke-width="1" x1="78" y1="417" x2="973" y2="417"/>
<line opacity="0.1" stroke="#000000" stroke-width="1" x1="78" y1="404" x2="973" y2="404"/>
<line opacity="0.1" stroke="#000000" stroke-width="1" x1="78" y1="391" x2="973" y2="391"/>
<line opacity="0.1" stroke="#000000" stroke-width="1" x1="78" y1="378" x2="973" y2="378"/>
<line opacity="0.1" stroke="#000000" stroke-width="1" x1="78" y1="365" x2="973" y2="365"/>
<line opacity="0.1" stroke="#000000" stroke-width="1" x1="78" y1="353" x2="973" y2="353"/>
<line opacity="0.1" stroke="#000000" stroke-width="1" x1="78" y1="340" x2="973" y2="340"/>
<line opacity="0.1" stroke="#000000" stroke-width="1" x1="78" y1="327" x2="973" y2="327"/>
<line opacity="0.1" stroke="#000000" stroke-width="1" x1="78" y1="314" x2="973" y2="314"/>
<line opacity="0.1" stroke="#000000" stroke-width="1" x1="78" y1="301" x2="973" y2="301"/>
<line opacity="0.1" stroke="#000000" stroke-width="1" x1="78" y1="289" x2="973" y2="289"/>
<line opacity="0.1" stroke="#000000" stroke-width="1" x1="78" y1="276" x2="973" y2="276"/>
<line opacity="0.1" stroke="#000000" stroke-width="1" x1="78" y1="263" x2="973" y2="263"/>
<line opacity="0.1" stroke="#000000" stroke-width="1" x1="78" y1="250" x2="973" y2="250"/>
<line opacity="0.1" stroke="#000000" stroke-width="1" x1="78" y1="237" x2="973" y2="237"/>
<line opacity="0.1" stroke="#000000" stroke-width="1" x1="78" y1="225" x2="973" y2="225"/>
<line opacity="0.1" stroke="#000000" stroke-width="1" x1="78" y1="212" x2="973" y2="212"/>
<line opacity="0.1" stroke="#000000" stroke-width="1" x1="78" y1="199" x2="973" y2="199"/>
<line opacity="0.1" stroke="#000000" stroke-width="1" x1="78" y1="186" x2="973" y2="186"/>
<line opacity="0.1" stroke="#000000" stroke-width="1" x1="78" y1="173" x2="973" y2="173"/>
<line opacity="0.1" stroke="#000000" stroke-width="1" x1="78" y1="161" x2="973" y2="161"/>
<line opacity="0.1" stroke="#000000" stroke-width="1" x1="78" y1="148" x2="973" y2="148"/>
<line opacity="0.1" stroke="#000000" stroke-width="1" x1="78" y1="135" x2="973" y2="135"/>
<line opacity="0.1" stroke="#000000" stroke-width="1" x1="78" y1="122" x2="973" y2="122"/>
<line opacity="0.1" stroke="#000000" stroke-width="1" x1="78" y1="109" x2="973" y2="109"/>
<line opacity="0.1" stroke="#000000" stroke-width="1" x1="78" y1="97" x2="973" y2="97"/>
<line opacity="0.1" stroke="#000000" stroke-width="1" x1="78" y1="84" x2="973" y2="84"/>
<line opacity="0.1" stroke="#000000" stroke-width="1" x1="78" y1="71" x2="973" y2="71"/>
<text x="8" y="384" dy="0.76em" text-anchor="middle" font-family="sans-serif" font-size="9.67741935483871" opacity="1" fill="#000000" transform="rotate(270, 8, 384)">
Memory usage
</text>
<text x="526" y="760" dy="-0.5ex" text-anchor="middle" font-family="sans-serif" font-size="9.67741935483871" opacity="1" fill="#000000">
Time
</text>
<line opacity="0.2" stroke="#000000" stroke-width="1" x1="105" y1="699" x2="105" y2="68"/>
<line opacity="0.2" stroke="#000000" stroke-width="1" x1="211" y1="699" x2="211" y2="68"/>
<line opacity="0.2" stroke="#000000" stroke-width="1" x1="316" y1="699" x2="316" y2="68"/>
<line opacity="0.2" stroke="#000000" stroke-width="1" x1="422" y1="699" x2="422" y2="68"/>
<line opacity="0.2" stroke="#000000" stroke-width="1" x1="528" y1="699" x2="528" y2="68"/>
<line opacity="0.2" stroke="#000000" stroke-width="1" x1="634" y1="699" x2="634" y2="68"/>
<line opacity="0.2" stroke="#000000" stroke-width="1" x1="739" y1="699" x2="739" y2="68"/>
<line opacity="0.2" stroke="#000000" stroke-width="1" x1="845" y1="699" x2="845" y2="68"/>
<line opacity="0.2" stroke="#000000" stroke-width="1" x1="951" y1="699" x2="951" y2="68"/>
<line opacity="0.2" stroke="#000000" stroke-width="1" x1="78" y1="699" x2="973" y2="699"/>
<line opacity="0.2" stroke="#000000" stroke-width="1" x1="78" y1="570" x2="973" y2="570"/>
<line opacity="0.2" stroke="#000000" stroke-width="1" x1="78" y1="442" x2="973" y2="442"/>
<line opacity="0.2" stroke="#000000" stroke-width="1" x1="78" y1="314" x2="973" y2="314"/>
<line opacity="0.2" stroke="#000000" stroke-width="1" x1="78" y1="186" x2="973" y2="186"/>
<polyline fill="none" opacity="1" stroke="#000000" stroke-width="1" points="77,68 77,699 "/>
<text x="68" y="699" dy="0.5ex" text-anchor="end" font-family="sans-serif" font-size="9.67741935483871" opacity="1" fill="#000000">
0 MB
</text>
<polyline fill="none" opacity="1" stroke="#000000" stroke-width="1" points="72,699 77,699 "/>
<text x="68" y="570" dy="0.5ex" text-anchor="end" font-family="sans-serif" font-size="9.67741935483871" opacity="1" fill="#000000">
476 MB
</text>
<polyline fill="none" opacity="1" stroke="#000000" stroke-width="1" points="72,570 77,570 "/>
<text x="68" y="442" dy="0.5ex" text-anchor="end" font-family="sans-serif" font-size="9.67741935483871" opacity="1" fill="#000000">
953 MB
</text>
<polyline fill="none" opacity="1" stroke="#000000" stroke-width="1" points="72,442 77,442 "/>
<text x="68" y="314" dy="0.5ex" text-anchor="end" font-family="sans-serif" font-size="9.67741935483871" opacity="1" fill="#000000">
1430 MB
</text>
<polyline fill="none" opacity="1" stroke="#000000" stroke-width="1" points="72,314 77,314 "/>
<text x="68" y="186" dy="0.5ex" text-anchor="end" font-family="sans-serif" font-size="9.67741935483871" opacity="1" fill="#000000">
1907 MB
</text>
<polyline fill="none" opacity="1" stroke="#000000" stroke-width="1" points="72,186 77,186 "/>
<polyline fill="none" opacity="1" stroke="#000000" stroke-width="1" points="78,700 973,700 "/>
<text x="105" y="710" dy="0.76em" text-anchor="middle" font-family="sans-serif" font-size="9.67741935483871" opacity="1" fill="#000000">
07 20:33:20
</text>
<polyline fill="none" opacity="1" stroke="#000000" stroke-width="1" points="105,700 105,705 "/>
<text x="211" y="710" dy="0.76em" text-anchor="middle" font-family="sans-serif" font-size="9.67741935483871" opacity="1" fill="#000000">
08 10:26:40
</text>
<polyline fill="none" opacity="1" stroke="#000000" stroke-width="1" points="211,700 211,705 "/>
<text x="316" y="710" dy="0.76em" text-anchor="middle" font-family="sans-serif" font-size="9.67741935483871" opacity="1" fill="#000000">
09 00:20:00
</text>
<polyline fill="none" opacity="1" stroke="#000000" stroke-width="1" points="316,700 316,705 "/>
<text x="422" y="710" dy="0.76em" text-anchor="middle" font-family="sans-serif" font-size="9.67741935483871" opacity="1" fill="#000000">
09 14:13:20
</text>
<polyline fill="none" opacity="1" stroke="#000000" stroke-width="1" points="422,700 422,705 "/>
<text x="528" y="710" dy="0.76em" text-anchor="middle" font-family="sans-serif" font-size="9.67741935483871" opacity="1" fill="#000000">
10 04:06:40
</text>
<polyline fill="none" opacity="1" stroke="#000000" stroke-width="1" points="528,700 528,705 "/>
<text x="634" y="710" dy="0.76em" text-anchor="middle" font-family="sans-serif" font-size="9.67741935483871" opacity="1" fill="#000000">
10 18:00:00
</text>
<polyline fill="none" opacity="1" stroke="#000000" stroke-width="1" points="634,700 634,705 "/>
<text x="739" y="710" dy="0.76em" text-anchor="middle" font-family="sans-serif" font-size="9.67741935483871" opacity="1" fill="#000000">
11 07:53:20
</text>
<polyline fill="none" opacity="1" stroke="#000000" stroke-width="1" points="739,700 739,705 "/>
<text x="845" y="710" dy="0.76em" text-anchor="middle" font-family="sans-serif" font-size="9.67741935483871" opacity="1" fill="#000000">
11 21:46:40
</text>
<polyline fill="none" opacity="1" stroke="#000000" stroke-width="1" points="845,700 845,705 "/>
<text x="951" y="710" dy="0.76em" text-anchor="middle" font-family="sans-serif" font-size="9.67741935483871" opacity="1" fill="#000000">
12 11:40:00
</text>
<polyline fill="none" opacity="1" stroke="#000000" stroke-width="1" points="951,700 951,705 "/>
<polyline fill="none" opacity="1" stroke="#000000" stroke-width="1" points="78,67 974,67 "/>
<text x="105" y="58" dy="-0.5ex" text-anchor="middle" font-family="sans-serif" font-size="9.67741935483871" opacity="1" fill="#000000">
+03:35:44
</text>
<polyline fill="none" opacity="1" stroke="#000000" stroke-width="1" points="105,62 105,67 "/>
<text x="211" y="58" dy="-0.5ex" text-anchor="middle" font-family="sans-serif" font-size="9.67741935483871" opacity="1" fill="#000000">
+17:29:04
</text>
<polyline fill="none" opacity="1" stroke="#000000" stroke-width="1" points="211,62 211,67 "/>
<text x="317" y="58" dy="-0.5ex" text-anchor="middle" font-family="sans-serif" font-size="9.67741935483871" opacity="1" fill="#000000">
+31:22:24
</text>
<polyline fill="none" opacity="1" stroke="#000000" stroke-width="1" points="317,62 317,67 "/>
<text x="423" y="58" dy="-0.5ex" text-anchor="middle" font-family="sans-serif" font-size="9.67741935483871" opacity="1" fill="#000000">
+45:15:44
</text>
<polyline fill="none" opacity="1" stroke="#000000" stroke-width="1" points="423,62 423,67 "/>
<text x="528" y="58" dy="-0.5ex" text-anchor="middle" font-family="sans-serif" font-size="9.67741935483871" opacity="1" fill="#000000">
+59:09:04
</text>
<polyline fill="none" opacity="1" stroke="#000000" stroke-width="1" points="528,62 528,67 "/>
<text x="634" y="58" dy="-0.5ex" text-anchor="middle" font-family="sans-serif" font-size="9.67741935483871" opacity="1" fill="#000000">
+73:02:24
</text>
<polyline fill="none" opacity="1" stroke="#000000" stroke-width="1" points="634,62 634,67 "/>
<text x="740" y="58" dy="-0.5ex" text-anchor="middle" font-family="sans-serif" font-size="9.67741935483871" opacity="1" fill="#000000">
+86:55:44
</text>
<polyline fill="none" opacity="1" stroke="#000000" stroke-width="1" points="740,62 740,67 "/>
<text x="846" y="58" dy="-0.5ex" text-anchor="middle" font-family="sans-serif" font-size="9.67741935483871" opacity="1" fill="#000000">
+100:49:04
</text>
<polyline fill="none" opacity="1" stroke="#000000" stroke-width="1" points="846,62 846,67 "/>
<text x="952" y="58" dy="-0.5ex" text-anchor="middle" font-family="sans-serif" font-size="9.67741935483871" opacity="1" fill="#000000">
+114:42:24
</text>
<polyline fill="none" opacity="1" stroke="#000000" stroke-width="1" points="952,62 952,67 "/>
<rect x="83" y="73" width="99" height="45" opacity="0.75" fill="#FFFFFF" stroke="none"/>
<rect x="83" y="73" width="99" height="45" opacity="1" fill="none" stroke="#000000"/>
<text x="123" y="83" dy="0.76em" text-anchor="start" font-family="sans-serif" font-size="9.67741935483871" opacity="1" fill="#000000">
Temporary
</text>
<text x="123" y="98" dy="0.76em" text-anchor="start" font-family="sans-serif" font-size="9.67741935483871" opacity="1" fill="#000000">
Leaked
</text>
<rect x="93" y="83" width="10" height="10" opacity="1" fill="#3CB44B" stroke="none"/>
<rect x="93" y="98" width="10" height="10" opacity="1" fill="#E6194B" stroke="none"/>
</svg>
