<svg width="1024" height="768" viewBox="0 0 1024 768" xmlns="http://www.w3.org/2000/svg">
<rect x="0" y="0" width="1024" height="768" opacity="1" fill="#FFFFFF" stroke="none"/>
<polygon opacity="1" fill="#3CB44B" points="78,695 79,691 80,689 81,689 81,690 82,692 83,692 84,691 85,691 86,691 87,690 88,688 89,688 89,688 90,691 91,692 92,693 93,692 94,693 95,693 96,694 97,693 98,692 98,692 99,693 100,693 101,693 102,693 103,692 104,692 105,693 106,693 106,693 107,693 108,693 109,693 110,693 111,693 112,693 113,693 114,693 115,693 115,693 116,693 117,693 118,693 119,693 120,693 121,693 122,693 123,693 123,693 124,693 125,693 126,693 127,693 128,693 129,693 130,693 131,693 131,693 132,693 133,693 134,693 135,693 136,693 137,693 138,693 139,693 140,693 140,693 141,693 142,693 143,693 144,693 145,693 146,693 147,693 148,693 148,693 149,693 150,693 151,693 152,693 153,693 154,693 155,693 156,693 157,693 157,693 158,693 159,693 160,693 161,693 162,693 163,693 164,693 165,693 165,693 166,693 167,693 168,693 169,693 170,693 171,693 172,693 173,693 173,693 174,693 175,693 176,693 177,693 178,693 179,693 180,693 181,693 182,693 182,693 183,693 184,693 185,693 186,693 187,693 188,693 189,693 190,693 190,693 191,693 192,693 193,693 194,693 195,693 196,693 197,693 198,693 199,693 199,693 200,693 201,693 202,693 203,693 204,693 205,693 206,693 207,693 207,693 208,693 209,693 210,693 211,693 212,693 213,693 214,693 215,693 215,693 216,693 217,693 218,693 219,693 220,693 221,693 222,693 223,693 224,693 224,693 225,693 226,693 227,693 228,693 229,693 230,693 231,693 232,693 232,693 233,693 234,693 235,693 236,693 237,693 238,693 239,693 240,693 241,693 241,693 242,693 243,693 244,693 245,693 246,693 247,693 248,693 249,693 249,693 250,693 251,693 252,693 253,693 254,693 255,692 256,692 257,692 257,692 258,692 259,692 260,692 261,692 262,692 263,692 264,692 265,692 266,692 266,692 267,692 268,692 269,692 270,692 271,692 272,692 273,692 274,692 274,692 275,692 276,692 277,692 278,692 279,692 280,692 281,692 282,692 283,692 283,692 284,692 285,692 286,692 287,692 288,692 289,692 290,692 291,692 291,692 292,692 293,692 294,692 295,692 296,692 297,692 298,692 299,692 299,692 300,692 301,692 302,692 303,692 304,692 305,692 306,692 307,692 308,692 308,692 309,692 310,692 311,692 312,692 313,692 314,692 315,692 316,692 316,692 317,692 318,692 319,692 320,692 321,692 322,692 323,692 324,692 325,692 325,692 326,692 327,692 328,692 329,692 330,692 331,692 332,692 333,692 333,692 334,692 335,692 336,692 337,692 338,692 339,692 340,692 341,692 342,692 342,692 343,692 344,692 345,692 346,692 347,692 348,692 349,692 350,692 350,692 351,692 352,691 353,691 354,691 355,691 356,691 357,691 358,691 358,691 359,691 360,691 361,691 362,691 363,691 364,691 365,691 366,691 367,691 367,691 368,691 369,691 370,691 371,691 372,691 373,691 374,691 375,691 375,691 376,691 377,691 378,439 379,338 380,339 381,339 382,333 383,323 384,310 384,294 385,284 386,284 387,282 388,274 389,266 390,253 391,238 392,232 392,222 393,215 394,214 395,211 396,209 397,207 398,206 399,197 400,193 400,194 401,195 402,189 403,173 404,160 405,154 406,159 407,163 408,167 409,167 409,160 410,152 411,152 412,167 413,171 414,172 415,182 416,184 417,192 417,195 418,197 419,185 420,103 421,89 422,109 423,74 424,68 425,93 426,93 426,100 427,100 428,102 429,102 430,102 431,103 432,105 433,105 434,105 434,105 435,105 436,106 437,107 438,107 439,107 440,107 441,107 442,107 442,107 443,107 444,107 445,107 446,107 447,107 448,107 449,108 450,108 451,109 451,109 452,112 453,113 454,113 455,113 456,113 457,113 458,113 459,113 459,113 460,113 461,113 462,113 463,113 464,113 465,114 466,114 467,114 468,114 468,114 469,115 470,115 471,115 472,115 473,115 474,115 475,115 476,115 476,115 477,115 478,115 479,115 480,115 481,115 482,115 483,115 484,115 484,115 485,115 486,116 487,116 488,116 489,116 490,116 491,116 492,116 493,117 493,117 494,117 495,117 496,117 497,117 498,117 499,117 500,117 501,117 501,118 502,118 503,118 504,113 505,113 506,113 507,114 508,115 509,115 510,115 510,115 511,115 512,115 513,115 514,115 515,116 516,116 517,116 518,116 518,116 519,116 520,117 521,117 522,117 523,117 524,117 525,117 526,117 526,117 527,117 528,117 529,117 530,117 531,117 532,117 533,117 534,117 535,117 535,118 536,181 537,181 538,181 539,181 540,182 541,182 542,182 543,182 543,182 544,182 545,183 546,183 547,184 548,184 549,184 550,184 551,184 552,184 552,184 553,184 554,184 555,184 556,184 557,184 558,185 559,185 560,185 560,185 561,186 562,186 563,186 564,186 565,186 566,187 567,187 568,187 568,187 569,187 570,188 571,188 572,188 573,188 574,188 575,188 576,188 577,188 577,189 578,189 579,189 580,189 581,189 582,190 583,190 584,190 585,191 585,191 586,191 587,192 588,192 589,192 590,192 591,193 592,193 593,193 594,193 594,193 595,193 596,194 597,195 598,195 599,195 600,195 601,195 602,195 602,195 603,195 604,195 605,195 606,196 607,196 608,196 609,196 610,196 610,196 611,196 612,197 613,197 614,197 615,197 616,198 617,198 618,198 619,198 619,198 620,199 621,199 622,199 623,199 624,199 625,200 626,200 627,200 627,200 628,200 629,201 630,201 631,201 632,201 633,202 634,202 635,203 636,203 636,203 637,203 638,203 639,203 640,203 641,204 642,204 643,204 644,204 644,208 645,209 646,209 647,209 648,209 649,209 650,209 651,209 652,209 652,209 653,210 654,210 655,211 656,211 657,211 658,211 659,211 660,211 661,211 661,211 662,211 663,212 664,212 665,212 666,213 667,213 668,213 669,213 669,213 670,213 671,213 672,214 673,214 674,214 675,214 676,214 677,214 678,214 678,215 679,215 680,215 681,215 682,215 683,215 684,215 685,215 686,215 686,216 687,216 688,216 689,216 690,216 691,217 692,217 693,217 694,217 694,217 695,217 696,217 697,217 698,217 699,218 700,218 701,218 702,218 703,218 703,218 704,218 705,218 706,218 707,219 708,219 709,219 710,219 711,219 711,219 712,219 713,219 714,219 715,220 716,220 717,220 718,220 719,220 720,220 720,220 721,221 722,221 723,221 724,221 725,221 726,221 727,221 728,221 728,222 729,222 730,222 731,222 732,222 733,222 734,222 735,222 736,222 736,222 737,222 738,223 739,223 740,224 741,224 742,224 743,224 744,224 745,224 745,224 746,224 747,225 748,225 749,226 750,226 751,226 752,226 753,226 753,226 754,226 755,227 756,227 757,227 758,227 759,227 760,227 761,228 762,228 762,228 763,228 764,229 765,229 766,229 767,229 768,229 769,229 770,230 770,230 771,230 772,230 773,230 774,230 775,230 776,231 777,231 778,231 778,231 779,231 780,231 781,231 782,231 783,231 784,231 785,231 786,232 787,233 787,233 788,233 789,233 790,233 791,233 792,233 793,233 794,233 795,234 795,235 796,235 797,235 798,235 799,235 800,235 801,236 802,236 803,236 804,236 804,237 805,237 806,237 807,238 808,238 809,238 810,238 811,238 812,238 812,238 813,238 814,238 815,239 816,239 817,239 818,239 819,239 820,239 820,239 821,240 822,240 823,241 824,241 825,241 826,242 827,242 828,242 829,242 829,242 830,242 831,242 832,242 833,244 834,244 835,244 836,244 837,244 837,244 838,244 839,245 840,245 841,246 842,246 843,246 844,246 845,247 846,247 846,247 847,246 848,247 849,247 850,247 851,247 852,248 853,248 854,248 854,249 855,249 856,249 857,249 858,249 859,249 860,250 861,250 862,250 862,250 863,250 864,251 865,251 866,251 867,251 868,251 869,252 870,252 871,253 871,253 872,253 873,253 874,253 875,253 876,253 877,254 878,254 879,254 879,255 880,256 881,256 882,256 883,256 884,256 885,257 886,257 887,257 888,257 888,257 889,257 890,257 891,257 892,257 893,258 894,258 895,258 896,258 896,258 897,258 898,258 899,258 900,258 901,259 902,259 903,260 904,260 904,260 905,260 906,260 907,260 908,260 909,261 910,261 911,261 912,261 913,261 913,261 914,261 915,261 916,262 917,262 917,262 918,262 919,262 920,262 921,262 921,263 922,263 923,263 924,263 925,263 926,264 927,264 928,264 929,264 930,264 930,264 931,265 932,265 933,265 934,265 935,265 936,265 937,265 938,265 938,265 939,265 940,266 941,266 942,267 943,267 944,267 945,267 946,267 946,267 947,267 948,267 949,267 950,268 951,268 952,268 953,268 954,269 955,269 955,269 956,269 957,269 958,269 959,270 960,270 961,270 962,270 963,270 963,271 964,271 965,271 966,271 967,271 968,272 969,272 970,272 971,273 971,273 973,273 973,699 78,699 "/>
<polyline fill="none" opacity="1" stroke="#3CB44B" stroke-width="1" points="78,695 79,691 80,689 81,689 81,690 82,692 83,692 84,691 85,691 86,691 87,690 88,688 89,688 89,688 90,691 91,692 92,693 93,692 94,693 95,693 96,694 97,693 98,692 98,692 99,693 100,693 101,693 102,693 103,692 104,692 105,693 106,693 106,693 107,693 108,693 109,693 110,693 111,693 112,693 113,693 114,693 115,693 115,693 116,693 117,693 118,693 119,693 120,693 121,693 122,693 123,693 123,693 124,693 125,693 126,693 127,693 128,693 129,693 130,693 131,693 131,693 132,693 133,693 134,693 135,693 136,693 137,693 138,693 139,693 140,693 140,693 141,693 142,693 143,693 144,693 145,693 146,693 147,693 148,693 148,693 149,693 150,693 151,693 152,693 153,693 154,693 155,693 156,693 157,693 157,693 158,693 159,693 160,693 161,693 162,693 163,693 164,693 165,693 165,693 166,693 167,693 168,693 169,693 170,693 171,693 172,693 173,693 173,693 174,693 175,693 176,693 177,693 178,693 179,693 180,693 181,693 182,693 182,693 183,693 184,693 185,693 186,693 187,693 188,693 189,693 190,693 190,693 191,693 192,693 193,693 194,693 195,693 196,693 197,693 198,693 199,693 199,693 200,693 201,693 202,693 203,693 204,693 205,693 206,693 207,693 207,693 208,693 209,693 210,693 211,693 212,693 213,693 214,693 215,693 215,693 216,693 217,693 218,693 219,693 220,693 221,693 222,693 223,693 224,693 224,693 225,693 226,693 227,693 228,693 229,693 230,693 231,693 232,693 232,693 233,693 234,693 235,693 236,693 237,693 238,693 239,693 240,693 241,693 241,693 242,693 243,693 244,693 245,693 246,693 247,693 248,693 249,693 249,693 250,693 251,693 252,693 253,693 254,693 255,692 256,692 257,692 257,692 258,692 259,692 260,692 261,692 262,692 263,692 264,692 265,692 266,692 266,692 267,692 268,692 269,692 270,692 271,692 272,692 273,692 274,692 274,692 275,692 276,692 277,692 278,692 279,692 280,692 281,692 282,692 283,692 283,692 284,692 285,692 286,692 287,692 288,692 289,692 290,692 291,692 291,692 292,692 293,692 294,692 295,692 296,692 297,692 298,692 299,692 299,692 300,692 301,692 302,692 303,692 304,692 305,692 306,692 307,692 308,692 308,692 309,692 310,692 311,692 312,692 313,692 314,692 315,692 316,692 316,692 317,692 318,692 319,692 320,692 321,692 322,692 323,692 324,692 325,692 325,692 326,692 327,692 328,692 329,692 330,692 331,692 332,692 333,692 333,692 334,692 335,692 336,692 337,692 338,692 339,692 340,692 341,692 342,692 342,692 343,692 344,692 345,692 346,692 347,692 348,692 349,692 350,692 350,692 351,692 352,691 353,691 354,691 355,691 356,691 357,691 358,691 358,691 359,691 360,691 361,691 362,691 363,691 364,691 365,691 366,691 367,691 367,691 368,691 369,691 370,691 371,691 372,691 373,691 374,691 375,691 375,691 376,691 377,691 378,439 379,338 380,339 381,339 382,333 383,323 384,310 384,294 385,284 386,284 387,282 388,274 389,266 390,253 391,238 392,232 392,222 393,215 394,214 395,211 396,209 397,207 398,206 399,197 400,193 400,194 401,195 402,189 403,173 404,160 405,154 406,159 407,163 408,167 409,167 409,160 410,152 411,152 412,167 413,171 414,172 415,182 416,184 417,192 417,195 418,197 419,185 420,103 421,89 422,109 423,74 424,68 425,93 426,93 426,100 427,100 428,102 429,102 430,102 431,103 432,105 433,105 434,105 434,105 435,105 436,106 437,107 438,107 439,107 440,107 441,107 442,107 442,107 443,107 444,107 445,107 446,107 447,107 448,107 449,108 450,108 451,109 451,109 452,112 453,113 454,113 455,113 456,113 457,113 458,113 459,113 459,113 460,113 461,113 462,113 463,113 464,113 465,114 466,114 467,114 468,114 468,114 469,115 470,115 471,115 472,115 473,115 474,115 475,115 476,115 476,115 477,115 478,115 479,115 480,115 481,115 482,115 483,115 484,115 484,115 485,115 486,116 487,116 488,116 489,116 490,116 491,116 492,116 493,117 493,117 494,117 495,117 496,117 497,117 498,117 499,117 500,117 501,117 501,118 502,118 503,118 504,113 505,113 506,113 507,114 508,115 509,115 510,115 510,115 511,115 512,115 513,115 514,115 515,116 516,116 517,116 518,116 518,116 519,116 520,117 521,117 522,117 523,117 524,117 525,117 526,117 526,117 527,117 528,117 529,117 530,117 531,117 532,117 533,117 534,117 535,117 535,118 536,181 537,181 538,181 539,181 540,182 541,182 542,182 543,182 543,182 544,182 545,183 546,183 547,184 548,184 549,184 550,184 551,184 552,184 552,184 553,184 554,184 555,184 556,184 557,184 558,185 559,185 560,185 560,185 561,186 562,186 563,186 564,186 565,186 566,187 567,187 568,187 568,187 569,187 570,188 571,188 572,188 573,188 574,188 575,188 576,188 577,188 577,189 578,189 579,189 580,189 581,189 582,190 583,190 584,190 585,191 585,191 586,191 587,192 588,192 589,192 590,192 591,193 592,193 593,193 594,193 594,193 595,193 596,194 597,195 598,195 599,195 600,195 601,195 602,195 602,195 603,195 604,195 605,195 606,196 607,196 608,196 609,196 610,196 610,196 611,196 612,197 613,197 614,197 615,197 616,198 617,198 618,198 619,198 619,198 620,199 621,199 622,199 623,199 624,199 625,200 626,200 627,200 627,200 628,200 629,201 630,201 631,201 632,201 633,202 634,202 635,203 636,203 636,203 637,203 638,203 639,203 640,203 641,204 642,204 643,204 644,204 644,208 645,209 646,209 647,209 648,209 649,209 650,209 651,209 652,209 652,209 653,210 654,210 655,211 656,211 657,211 658,211 659,211 660,211 661,211 661,211 662,211 663,212 664,212 665,212 666,213 667,213 668,213 669,213 669,213 670,213 671,213 672,214 673,214 674,214 675,214 676,214 677,214 678,214 678,215 679,215 680,215 681,215 682,215 683,215 684,215 685,215 686,215 686,216 687,216 688,216 689,216 690,216 691,217 692,217 693,217 694,217 694,217 695,217 696,217 697,217 698,217 699,218 700,218 701,218 702,218 703,218 703,218 704,218 705,218 706,218 707,219 708,219 709,219 710,219 711,219 711,219 712,219 713,219 714,219 715,220 716,220 717,220 718,220 719,220 720,220 720,220 721,221 722,221 723,221 724,221 725,221 726,221 727,221 728,221 728,222 729,222 730,222 731,222 732,222 733,222 734,222 735,222 736,222 736,222 737,222 738,223 739,223 740,224 741,224 742,224 743,224 744,224 745,224 745,224 746,224 747,225 748,225 749,226 750,226 751,226 752,226 753,226 753,226 754,226 755,227 756,227 757,227 758,227 759,227 760,227 761,228 762,228 762,228 763,228 764,229 765,229 766,229 767,229 768,229 769,229 770,230 770,230 771,230 772,230 773,230 774,230 775,230 776,231 777,231 778,231 778,231 779,231 780,231 781,231 782,231 783,231 784,231 785,231 786,232 787,233 787,233 788,233 789,233 790,233 791,233 792,233 793,233 794,233 795,234 795,235 796,235 797,235 798,235 799,235 800,235 801,236 802,236 803,236 804,236 804,237 805,237 806,237 807,238 808,238 809,238 810,238 811,238 812,238 812,238 813,238 814,238 815,239 816,239 817,239 818,239 819,239 820,239 820,239 821,240 822,240 823,241 824,241 825,241 826,242 827,242 828,242 829,242 829,242 830,242 831,242 832,242 833,244 834,244 835,244 836,244 837,244 837,244 838,244 839,245 840,245 841,246 842,246 843,246 844,246 845,247 846,247 846,247 847,246 848,247 849,247 850,247 851,247 852,248 853,248 854,248 854,249 855,249 856,249 857,249 858,249 859,249 860,250 861,250 862,250 862,250 863,250 864,251 865,251 866,251 867,251 868,251 869,252 870,252 871,253 871,253 872,253 873,253 874,253 875,253 876,253 877,254 878,254 879,254 879,255 880,256 881,256 882,256 883,256 884,256 885,257 886,257 887,257 888,257 888,257 889,257 890,257 891,257 892,257 893,258 894,258 895,258 896,258 896,258 897,258 898,258 899,258 900,258 901,259 902,259 903,260 904,260 904,260 905,260 906,260 907,260 908,260 909,261 910,261 911,261 912,261 913,261 913,261 914,261 915,261 916,262 917,262 917,262 918,262 919,262 920,262 921,262 921,263 922,263 923,263 924,263 925,263 926,264 927,264 928,264 929,264 930,264 930,264 931,265 932,265 933,265 934,265 935,265 936,265 937,265 938,265 938,265 939,265 940,266 941,266 942,267 943,267 944,267 945,267 946,267 946,267 947,267 948,267 949,267 950,268 951,268 952,268 953,268 954,269 955,269 955,269 956,269 957,269 958,269 959,270 960,270 961,270 962,270 963,270 963,271 964,271 965,271 966,271 967,271 968,272 969,272 970,272 971,273 971,273 973,273 "/>
<polygon opacity="1" fill="#E6194B" points="78,699 79,699 80,699 81,699 81,699 82,699 83,699 84,699 85,699 86,699 87,699 88,699 89,699 89,699 90,699 91,699 92,699 93,699 94,699 95,699 96,699 97,699 98,699 98,699 99,699 100,699 101,699 102,699 103,699 104,699 105,699 106,699 106,699 107,699 108,699 109,699 110,699 111,699 112,699 113,699 114,699 115,699 115,699 116,699 117,699 118,699 119,699 120,699 121,699 122,699 123,699 123,699 124,699 125,699 126,699 127,699 128,699 129,699 130,699 131,699 131,699 132,699 133,699 134,699 135,699 136,699 137,699 138,699 139,699 140,699 140,699 141,699 142,699 143,699 144,699 145,699 146,699 147,699 148,699 148,699 149,699 150,699 151,699 152,699 153,699 154,699 155,699 156,699 157,699 157,699 158,699 159,699 160,699 161,699 162,699 163,699 164,699 165,699 165,699 166,699 167,699 168,699 169,699 170,699 171,699 172,699 173,699 173,699 174,699 175,699 176,699 177,699 178,699 179,699 180,699 181,699 182,699 182,699 183,699 184,699 185,699 186,699 187,699 188,699 189,699 190,699 190,699 191,699 192,699 193,699 194,699 195,699 196,699 197,699 198,699 199,699 199,699 200,699 201,699 202,699 203,699 204,699 205,699 206,699 207,699 207,699 208,699 209,699 210,699 211,699 212,699 213,699 214,699 215,699 215,699 216,699 217,699 218,699 219,699 220,699 221,699 222,699 223,699 224,699 224,699 225,699 226,699 227,699 228,699 229,699 230,699 231,699 232,699 232,699 233,699 234,699 235,699 236,699 237,699 238,699 239,699 240,699 241,699 241,699 242,699 243,699 244,699 245,699 246,699 247,699 248,699 249,699 249,699 250,699 251,699 252,699 253,699 254,699 255,699 256,699 257,699 257,699 258,699 259,699 260,699 261,699 262,699 263,699 264,699 265,699 266,699 266,699 267,699 268,699 269,699 270,699 271,699 272,699 273,699 274,699 274,699 275,699 276,699 277,699 278,699 279,699 280,699 281,699 282,699 283,699 283,699 284,699 285,699 286,699 287,699 288,699 289,699 290,699 291,699 291,699 292,699 293,699 294,699 295,699 296,699 297,699 298,699 299,699 299,699 300,699 301,699 302,699 303,699 304,699 305,699 306,699 307,699 308,699 308,699 309,699 310,699 311,699 312,699 313,699 314,699 315,699 316,699 316,699 317,699 318,699 319,699 320,699 321,699 322,699 323,699 324,699 325,699 325,699 326,699 327,699 328,699 329,699 330,699 331,699 332,699 333,699 333,699 334,699 335,699 336,699 337,699 338,699 339,699 340,699 341,699 342,699 342,699 343,699 344,699 345,699 346,699 347,699 348,699 349,699 350,699 350,699 351,699 352,699 353,699 354,699 355,699 356,699 357,699 358,699 358,699 359,699 360,699 361,699 362,699 363,699 364,699 365,699 366,699 367,699 367,699 368,699 369,699 370,699 371,699 372,699 373,699 374,699 375,699 375,699 376,699 377,699 378,699 379,699 380,699 381,699 382,699 383,699 384,699 384,699 385,699 386,699 387,699 388,699 389,699 390,699 391,699 392,699 392,699 393,699 394,699 395,699 396,699 397,699 398,699 399,699 400,699 400,699 401,699 402,699 403,699 404,699 405,699 406,699 407,699 408,699 409,699 409,699 410,699 411,699 412,699 413,699 414,699 415,699 416,699 417,699 417,699 418,699 419,689 420,596 421,488 422,413 423,338 424,293 425,283 426,283 426,283 427,283 428,283 429,283 430,283 431,283 432,283 433,283 434,283 434,283 435,283 436,283 437,283 438,283 439,283 440,283 441,283 442,283 442,283 443,283 444,283 445,283 446,283 447,283 448,283 449,283 450,283 451,283 451,283 452,283 453,283 454,283 455,283 456,283 457,283 458,283 459,283 459,283 460,283 461,283 462,283 463,283 464,283 465,283 466,283 467,283 468,283 468,283 469,283 470,283 471,283 472,283 473,283 474,283 475,283 476,283 476,283 477,283 478,283 479,283 480,283 481,283 482,283 483,283 484,283 484,283 485,283 486,283 487,283 488,283 489,283 490,283 491,283 492,283 493,283 493,283 494,283 495,283 496,283 497,283 498,283 499,283 500,283 501,283 501,283 502,283 503,283 504,277 505,277 506,277 507,277 508,277 509,277 510,277 510,277 511,277 512,277 513,277 514,277 515,277 516,277 517,277 518,277 518,277 519,277 520,277 521,277 522,277 523,277 524,277 525,277 526,277 526,277 527,277 528,277 529,277 530,277 531,277 532,277 533,277 534,277 535,277 535,277 536,277 537,277 538,277 539,277 540,277 541,277 542,277 543,277 543,277 544,277 545,277 546,277 547,277 548,277 549,277 550,277 551,277 552,277 552,277 553,277 554,277 555,277 556,277 557,277 558,277 559,277 560,277 560,277 561,277 562,277 563,277 564,277 565,277 566,277 567,277 568,277 568,277 569,277 570,277 571,277 572,277 573,277 574,277 575,277 576,277 577,277 577,277 578,277 579,277 580,277 581,277 582,277 583,277 584,277 585,277 585,277 586,277 587,277 588,277 589,277 590,277 591,277 592,277 593,277 594,277 594,277 595,277 596,277 597,277 598,277 599,277 600,277 601,277 602,276 602,276 603,276 604,276 605,276 606,276 607,276 608,276 609,276 610,276 610,276 611,276 612,276 613,276 614,276 615,276 616,276 617,276 618,276 619,276 619,276 620,276 621,276 622,276 623,276 624,276 625,276 626,276 627,276 627,276 628,276 629,276 630,276 631,276 632,276 633,276 634,276 635,276 636,276 636,276 637,276 638,276 639,276 640,276 641,276 642,276 643,276 644,276 644,276 645,276 646,276 647,276 648,276 649,276 650,276 651,276 652,276 652,276 653,276 654,276 655,276 656,276 657,276 658,276 659,276 660,276 661,276 661,276 662,276 663,276 664,276 665,276 666,276 667,276 668,276 669,276 669,276 670,276 671,276 672,276 673,276 674,276 675,276 676,276 677,276 678,276 678,276 679,276 680,276 681,276 682,276 683,276 684,276 685,276 686,276 686,276 687,276 688,276 689,276 690,276 691,276 692,276 693,276 694,276 694,276 695,276 696,276 697,276 698,276 699,276 700,276 701,275 702,275 703,275 703,275 704,275 705,275 706,275 707,275 708,275 709,275 710,275 711,275 711,275 712,275 713,275 714,275 715,275 716,275 717,275 718,275 719,275 720,275 720,275 721,275 722,275 723,275 724,275 725,275 726,275 727,275 728,275 728,275 729,275 730,275 731,275 732,275 733,275 734,275 735,275 736,275 736,275 737,275 738,275 739,275 740,275 741,275 742,275 743,275 744,275 745,275 745,275 746,275 747,275 748,275 749,275 750,275 751,275 752,275 753,275 753,275 754,275 755,275 756,275 757,275 758,275 759,275 760,275 761,275 762,275 762,275 763,275 764,275 765,275 766,275 767,275 768,275 769,275 770,275 770,275 771,275 772,275 773,275 774,275 775,275 776,275 777,275 778,275 778,274 779,274 780,274 781,274 782,274 783,274 784,274 785,274 786,274 787,274 787,274 788,274 789,274 790,274 791,274 792,274 793,274 794,274 795,274 795,274 796,274 797,274 798,274 799,274 800,274 801,274 802,274 803,274 804,274 804,274 805,274 806,274 807,274 808,274 809,274 810,274 811,274 812,274 812,274 813,274 814,274 815,274 816,274 817,274 818,274 819,274 820,274 820,274 821,274 822,274 823,274 824,274 825,274 826,274 827,274 828,274 829,274 829,274 830,274 831,274 832,274 833,274 834,274 835,274 836,274 837,274 837,274 838,274 839,274 840,274 841,274 842,274 843,274 844,274 845,274 846,274 846,274 847,273 848,273 849,273 850,273 851,273 852,273 853,273 854,273 854,273 855,273 856,273 857,273 858,273 859,273 860,273 861,273 862,273 862,273 863,273 864,273 865,273 866,273 867,273 868,273 869,273 870,273 871,273 871,273 872,273 873,273 874,273 875,273 876,273 877,273 878,273 879,273 879,273 880,273 881,273 882,273 883,273 884,273 885,273 886,273 887,273 888,273 888,273 889,273 890,273 891,273 892,273 893,273 894,273 895,273 896,273 896,273 897,273 898,273 899,273 900,273 901,273 902,273 903,273 904,273 904,273 905,273 906,273 907,273 908,273 909,273 910,273 911,273 912,273 913,273 913,273 914,273 915,273 916,273 917,273 917,273 918,273 919,273 920,273 921,273 921,273 922,273 923,273 924,273 925,273 926,273 927,273 928,273 929,273 930,273 930,273 931,273 932,273 933,273 934,273 935,273 936,273 937,273 938,273 938,273 939,273 940,273 941,273 942,273 943,273 944,273 945,273 946,273 946,273 947,273 948,273 949,273 950,273 951,273 952,273 953,273 954,273 955,273 955,273 956,273 957,273 958,273 959,273 960,273 961,273 962,273 963,273 963,273 964,273 965,273 966,273 967,273 968,273 969,273 970,273 971,273 971,273 973,273 973,699 78,699 "/>
<polyline fill="none" opacity="1" stroke="#E6194B" stroke-width="1" points="78,699 79,699 80,699 81,699 81,699 82,699 83,699 84,699 85,699 86,699 87,699 88,699 89,699 89,699 90,699 91,699 92,699 93,699 94,699 95,699 96,699 97,699 98,699 98,699 99,699 100,699 101,699 102,699 103,699 104,699 105,699 106,699 106,699 107,699 108,699 109,699 110,699 111,699 112,699 113,699 114,699 115,699 115,699 116,699 117,699 118,699 119,699 120,699 121,699 122,699 123,699 123,699 124,699 125,699 126,699 127,699 128,699 129,699 130,699 131,699 131,699 132,699 133,699 134,699 135,699 136,699 137,699 138,699 139,699 140,699 140,699 141,699 142,699 143,699 144,699 145,699 146,699 147,699 148,699 148,699 149,699 150,699 151,699 152,699 153,699 154,699 155,699 156,699 157,699 157,699 158,699 159,699 160,699 161,699 162,699 163,699 164,699 165,699 165,699 166,699 167,699 168,699 169,699 170,699 171,699 172,699 173,699 173,699 174,699 175,699 176,699 177,699 178,699 179,699 180,699 181,699 182,699 182,699 183,699 184,699 185,699 186,699 187,699 188,699 189,699 190,699 190,699 191,699 192,699 193,699 194,699 195,699 196,699 197,699 198,699 199,699 199,699 200,699 201,699 202,699 203,699 204,699 205,699 206,699 207,699 207,699 208,699 209,699 210,699 211,699 212,699 213,699 214,699 215,699 215,699 216,699 217,699 218,699 219,699 220,699 221,699 222,699 223,699 224,699 224,699 225,699 226,699 227,699 228,699 229,699 230,699 231,699 232,699 232,699 233,699 234,699 235,699 236,699 237,699 238,699 239,699 240,699 241,699 241,699 242,699 243,699 244,699 245,699 246,699 247,699 248,699 249,699 249,699 250,699 251,699 252,699 253,699 254,699 255,699 256,699 257,699 257,699 258,699 259,699 260,699 261,699 262,699 263,699 264,699 265,699 266,699 266,699 267,699 268,699 269,699 270,699 271,699 272,699 273,699 274,699 274,699 275,699 276,699 277,699 278,699 279,699 280,699 281,699 282,699 283,699 283,699 284,699 285,699 286,699 287,699 288,699 289,699 290,699 291,699 291,699 292,699 293,699 294,699 295,699 296,699 297,699 298,699 299,699 299,699 300,699 301,699 302,699 303,699 304,699 305,699 306,699 307,699 308,699 308,699 309,699 310,699 311,699 312,699 313,699 314,699 315,699 316,699 316,699 317,699 318,699 319,699 320,699 321,699 322,699 323,699 324,699 325,699 325,699 326,699 327,699 328,699 329,699 330,699 331,699 332,699 333,699 333,699 334,699 335,699 336,699 337,699 338,699 339,699 340,699 341,699 342,699 342,699 343,699 344,699 345,699 346,699 347,699 348,699 349,699 350,699 350,699 351,699 352,699 353,699 354,699 355,699 356,699 357,699 358,699 358,699 359,699 360,699 361,699 362,699 363,699 364,699 365,699 366,699 367,699 367,699 368,699 369,699 370,699 371,699 372,699 373,699 374,699 375,699 375,699 376,699 377,699 378,699 379,699 380,699 381,699 382,699 383,699 384,699 384,699 385,699 386,699 387,699 388,699 389,699 390,699 391,699 392,699 392,699 393,699 394,699 395,699 396,699 397,699 398,699 399,699 400,699 400,699 401,699 402,699 403,699 404,699 405,699 406,699 407,699 408,699 409,699 409,699 410,699 411,699 412,699 413,699 414,699 415,699 416,699 417,699 417,699 418,699 419,689 420,596 421,488 422,413 423,338 424,293 425,283 426,283 426,283 427,283 428,283 429,283 430,283 431,283 432,283 433,283 434,283 434,283 435,283 436,283 437,283 438,283 439,283 440,283 441,283 442,283 442,283 443,283 444,283 445,283 446,283 447,283 448,283 449,283 450,283 451,283 451,283 452,283 453,283 454,283 455,283 456,283 457,283 458,283 459,283 459,283 460,283 461,283 462,283 463,283 464,283 465,283 466,283 467,283 468,283 468,283 469,283 470,283 471,283 472,283 473,283 474,283 475,283 476,283 476,283 477,283 478,283 479,283 480,283 481,283 482,283 483,283 484,283 484,283 485,283 486,283 487,283 488,283 489,283 490,283 491,283 492,283 493,283 493,283 494,283 495,283 496,283 497,283 498,283 499,283 500,283 501,283 501,283 502,283 503,283 504,277 505,277 506,277 507,277 508,277 509,277 510,277 510,277 511,277 512,277 513,277 514,277 515,277 516,277 517,277 518,277 518,277 519,277 520,277 521,277 522,277 523,277 524,277 525,277 526,277 526,277 527,277 528,277 529,277 530,277 531,277 532,277 533,277 534,277 535,277 535,277 536,277 537,277 538,277 539,277 540,277 541,277 542,277 543,277 543,277 544,277 545,277 546,277 547,277 548,277 549,277 550,277 551,277 552,277 552,277 553,277 554,277 555,277 556,277 557,277 558,277 559,277 560,277 560,277 561,277 562,277 563,277 564,277 565,277 566,277 567,277 568,277 568,277 569,277 570,277 571,277 572,277 573,277 574,277 575,277 576,277 577,277 577,277 578,277 579,277 580,277 581,277 582,277 583,277 584,277 585,277 585,277 586,277 587,277 588,277 589,277 590,277 591,277 592,277 593,277 594,277 594,277 595,277 596,277 597,277 598,277 599,277 600,277 601,277 602,276 602,276 603,276 604,276 605,276 606,276 607,276 608,276 609,276 610,276 610,276 611,276 612,276 613,276 614,276 615,276 616,276 617,276 618,276 619,276 619,276 620,276 621,276 622,276 623,276 624,276 625,276 626,276 627,276 627,276 628,276 629,276 630,276 631,276 632,276 633,276 634,276 635,276 636,276 636,276 637,276 638,276 639,276 640,276 641,276 642,276 643,276 644,276 644,276 645,276 646,276 647,276 648,276 649,276 650,276 651,276 652,276 652,276 653,276 654,276 655,276 656,276 657,276 658,276 659,276 660,276 661,276 661,276 662,276 663,276 664,276 665,276 666,276 667,276 668,276 669,276 669,276 670,276 671,276 672,276 673,276 674,276 675,276 676,276 677,276 678,276 678,276 679,276 680,276 681,276 682,276 683,276 684,276 685,276 686,276 686,276 687,276 688,276 689,276 690,276 691,276 692,276 693,276 694,276 694,276 695,276 696,276 697,276 698,276 699,276 700,276 701,275 702,275 703,275 703,275 704,275 705,275 706,275 707,275 708,275 709,275 710,275 711,275 711,275 712,275 713,275 714,275 715,275 716,275 717,275 718,275 719,275 720,275 720,275 721,275 722,275 723,275 724,275 725,275 726,275 727,275 728,275 728,275 729,275 730,275 731,275 732,275 733,275 734,275 735,275 736,275 736,275 737,275 738,275 739,275 740,275 741,275 742,275 743,275 744,275 745,275 745,275 746,275 747,275 748,275 749,275 750,275 751,275 752,275 753,275 753,275 754,275 755,275 756,275 757,275 758,275 759,275 760,275 761,275 762,275 762,275 763,275 764,275 765,275 766,275 767,275 768,275 769,275 770,275 770,275 771,275 772,275 773,275 774,275 775,275 776,275 777,275 778,275 778,274 779,274 780,274 781,274 782,274 783,274 784,274 785,274 786,274 787,274 787,274 788,274 789,274 790,274 791,274 792,274 793,274 794,274 795,274 795,274 796,274 797,274 798,274 799,274 800,274 801,274 802,274 803,274 804,274 804,274 805,274 806,274 807,274 808,274 809,274 810,274 811,274 812,274 812,274 813,274 814,274 815,274 816,274 817,274 818,274 819,274 820,274 820,274 821,274 822,274 823,274 824,274 825,274 826,274 827,274 828,274 829,274 829,274 830,274 831,274 832,274 833,274 834,274 835,274 836,274 837,274 837,274 838,274 839,274 840,274 841,274 842,274 843,274 844,274 845,274 846,274 846,274 847,273 848,273 849,273 850,273 851,273 852,273 853,273 854,273 854,273 855,273 856,273 857,273 858,273 859,273 860,273 861,273 862,273 862,273 863,273 864,273 865,273 866,273 867,273 868,273 869,273 870,273 871,273 871,273 872,273 873,273 874,273 875,273 876,273 877,273 878,273 879,273 879,273 880,273 881,273 882,273 883,273 884,273 885,273 886,273 887,273 888,273 888,273 889,273 890,273 891,273 892,273 893,273 894,273 895,273 896,273 896,273 897,273 898,273 899,273 900,273 901,273 902,273 903,273 904,273 904,273 905,273 906,273 907,273 908,273 909,273 910,273 911,273 912,273 913,273 913,273 914,273 915,273 916,273 917,273 917,273 918,273 919,273 920,273 921,273 921,273 922,273 923,273 924,273 925,273 926,273 927,273 928,273 929,273 930,273 930,273 931,273 932,273 933,273 934,273 935,273 936,273 937,273 938,273 938,273 939,273 940,273 941,273 942,273 943,273 944,273 945,273 946,273 946,273 947,273 948,273 949,273 950,273 951,273 952,273 953,273 954,273 955,273 955,273 956,273 957,273 958,273 959,273 960,273 961,273 962,273 963,273 963,273 964,273 965,273 966,273 967,273 968,273 969,273 970,273 971,273 971,273 973,273 "/>
<line opacity="0.1" stroke="#000000" stroke-width="1" x1="84" y1="699" x2="84" y2="68"/>
<line opacity="0.1" stroke="#000000" stroke-width="1" x1="94" y1="699" x2="94" y2="68"/>
<line opacity="0.1" stroke="#000000" stroke-width="1" x1="105" y1="699" x2="105" y2="68"/>
<line opacity="0.1" stroke="#000000" stroke-width="1" x1="115" y1="699" x2="115" y2="68"/>
<line opacity="0.1" stroke="#000000" stroke-width="1" x1="126" y1="699" x2="126" y2="68"/>
<line opacity="0.1" stroke="#000000" stroke-width="1" x1="137" y1="699" x2="137" y2="68"/>
<line opacity="0.1" stroke="#000000" stroke-width="1" x1="147" y1="699" x2="147" y2="68"/>
<line opacity="0.1" stroke="#000000" stroke-width="1" x1="158" y1="699" x2="158" y2="68"/>
<line opacity="0.1" stroke="#000000" stroke-width="1" x1="168" y1="699" x2="168" y2="68"/>
<line opacity="0.1" stroke="#000000" stroke-width="1" x1="179" y1="699" x2="179" y2="68"/>
<line opacity="0.1" stroke="#000000" stroke-width="1" x1="189" y1="699" x2="189" y2="68"/>
<line opacity="0.1" stroke="#000000" stroke-width="1" x1="200" y1="699" x2="200" y2="68"/>
<line opacity="0.1" stroke="#000000" stroke-width="1" x1="211" y1="699" x2="211" y2="68"/>
<line opacity="0.1" stroke="#000000" stroke-width="1" x1="221" y1="699" x2="221" y2="68"/>
<line opacity="0.1" stroke="#000000" stroke-width="1" x1="232" y1="699" x2="232" y2="68"/>
<line opacity="0.1" stroke="#000000" stroke-width="1" x1="242" y1="699" x2="242" y2="68"/>
<line opacity="0.1" stroke="#000000" stroke-width="1" x1="253" y1="699" x2="253" y2="68"/>
<line opacity="0.1" stroke="#000000" stroke-width="1" x1="264" y1="699" x2="264" y2="68"/>
<line opacity="0.1" stroke="#000000" stroke-width="1" x1="274" y1="699" x2="274" y2="68"/>
<line opacity="0.1" stroke="#000000" stroke-width="1" x1="285" y1="699" x2="285" y2="68"/>
<line opacity="0.1" stroke="#000000" stroke-width="1" x1="295" y1="699" x2="295" y2="68"/>
<line opacity="0.1" stroke="#000000" stroke-width="1" x1="306" y1="699" x2="306" y2="68"/>
<line opacity="0.1" stroke="#000000" stroke-width="1" x1="316" y1="699" x2="316" y2="68"/>
<line opacity="0.1" stroke="#000000" stroke-width="1" x1="327" y1="699" x2="327" y2="68"/>
<line opacity="0.1" stroke="#000000" stroke-width="1" x1="338" y1="699" x2="338" y2="68"/>
<line opacity="0.1" stroke="#000000" stroke-width="1" x1="348" y1="699" x2="348" y2="68"/>
<line opacity="0.1" stroke="#000000" stroke-width="1" x1="359" y1="699" x2="359" y2="68"/>
<line opacity="0.1" stroke="#000000" stroke-width="1" x1="369" y1="699" x2="369" y2="68"/>
<line opacity="0.1" stroke="#000000" stroke-width="1" x1="380" y1="699" x2="380" y2="68"/>
<line opacity="0.1" stroke="#000000" stroke-width="1" x1="390" y1="699" x2="390" y2="68"/>
<line opacity="0.1" stroke="#000000" stroke-width="1" x1="401" y1="699" x2="401" y2="68"/>
<line opacity="0.1" stroke="#000000" stroke-width="1" x1="412" y1="699" x2="412" y2="68"/>
<line opacity="0.1" stroke="#000000" stroke-width="1" x1="422" y1="699" x2="422" y2="68"/>
<line opacity="0.1" stroke="#000000" stroke-width="1" x1="433" y1="699" x2="433" y2="68"/>
<line opacity="0.1" stroke="#000000" stroke-width="1" x1="443" y1="699" x2="443" y2="68"/>
<line opacity="0.1" stroke="#000000" stroke-width="1" x1="454" y1="699" x2="454" y2="68"/>
<line opacity="0.1" stroke="#000000" stroke-width="1" x1="464" y1="699" x2="464" y2="68"/>
<line opacity="0.1" stroke="#000000" stroke-width="1" x1="475" y1="699" x2="475" y2="68"/>
<line opacity="0.1" stroke="#000000" stroke-width="1" x1="486" y1="699" x2="486" y2="68"/>
<line opacity="0.1" stroke="#000000" stroke-width="1" x1="496" y1="699" x2="496" y2="68"/>
<line opacity="0.1" stroke="#000000" stroke-width="1" x1="507" y1="699" x2="507" y2="68"/>
<line opacity="0.1" stroke="#000000" stroke-width="1" x1="517" y1="699" x2="517" y2="68"/>
<line opacity="0.1" stroke="#000000" stroke-width="1" x1="528" y1="699" x2="528" y2="68"/>
<line opacity="0.1" stroke="#000000" stroke-width="1" x1="538" y1="699" x2="538" y2="68"/>
<line opacity="0.1" stroke="#000000" stroke-width="1" x1="549" y1="699" x2="549" y2="68"/>
<line opacity="0.1" stroke="#000000" stroke-width="1" x1="560" y1="699" x2="560" y2="68"/>
<line opacity="0.1" stroke="#000000" stroke-width="1" x1="570" y1="699" x2="570" y2="68"/>
<line opacity="0.1" stroke="#000000" stroke-width="1" x1="581" y1="699" x2="581" y2="68"/>
<line opacity="0.1" stroke="#000000" stroke-width="1" x1="591" y1="699" x2="591" y2="68"/>
<line opacity="0.1" stroke="#000000" stroke-width="1" x1="602" y1="699" x2="602" y2="68"/>
<line opacity="0.1" stroke="#000000" stroke-width="1" x1="612" y1="699" x2="612" y2="68"/>
<line opacity="0.1" stroke="#000000" stroke-width="1" x1="623" y1="699" x2="623" y2="68"/>
<line opacity="0.1" stroke="#000000" stroke-width="1" x1="634" y1="699" x2="634" y2="68"/>
<line opacity="0.1" stroke="#000000" stroke-width="1" x1="644" y1="699" x2="644" y2="68"/>
<line opacity="0.1" stroke="#000000" stroke-width="1" x1="655" y1="699" x2="655" y2="68"/>
<line opacity="0.1" stroke="#000000" stroke-width="1" x1="665" y1="699" x2="665" y2="68"/>
<line opacity="0.1" stroke="#000000" stroke-width="1" x1="676" y1="699" x2="676" y2="68"/>
<line opacity="0.1" stroke="#000000" stroke-width="1" x1="687" y1="699" x2="687" y2="68"/>
<line opacity="0.1" stroke="#000000" stroke-width="1" x1="697" y1="699" x2="697" y2="68"/>
<line opacity="0.1" stroke="#000000" stroke-width="1" x1="708" y1="699" x2="708" y2="68"/>
<line opacity="0.1" stroke="#000000" stroke-width="1" x1="718" y1="699" x2="718" y2="68"/>
<line opacity="0.1" stroke="#000000" stroke-width="1" x1="729" y1="699" x2="729" y2="68"/>
<line opacity="0.1" stroke="#000000" stroke-width="1" x1="739" y1="699" x2="739" y2="68"/>
<line opacity="0.1" stroke="#000000" stroke-width="1" x1="750" y1="699" x2="750" y2="68"/>
<line opacity="0.1" stroke="#000000" stroke-width="1" x1="761" y1="699" x2="761" y2="68"/>
<line opacity="0.1" stroke="#000000" stroke-width="1" x1="771" y1="699" x2="771" y2="68"/>
<line opacity="0.1" stroke="#000000" stroke-width="1" x1="782" y1="699" x2="782" y2="68"/>
<line opacity="0.1" stroke="#000000" stroke-width="1" x1="792" y1="699" x2="792" y2="68"/>
<line opacity="0.1" stroke="#000000" stroke-width="1" x1="803" y1="699" x2="803" y2="68"/>
<line opacity="0.1" stroke="#000000" stroke-width="1" x1="813" y1="699" x2="813" y2="68"/>
<line opacity="0.1" stroke="#000000" stroke-width="1" x1="824" y1="699" x2="824" y2="68"/>
<line opacity="0.1" stroke="#000000" stroke-width="1" x1="835" y1="699" x2="835" y2="68"/>
<line opacity="0.1" stroke="#000000" stroke-width="1" x1="845" y1="699" x2="845" y2="68"/>
<line opacity="0.1" stroke="#000000" stroke-width="1" x1="856" y1="699" x2="856" y2="68"/>
<line opacity="0.1" stroke="#000000" stroke-width="1" x1="866" y1="699" x2="866" y2="68"/>
<line opacity="0.1" stroke="#000000" stroke-width="1" x1="877" y1="699" x2="877" y2="68"/>
<line opacity="0.1" stroke="#000000" stroke-width="1" x1="887" y1="699" x2="887" y2="68"/>
<line opacity="0.1" stroke="#000000" stroke-width="1" x1="898" y1="699" x2="898" y2="68"/>
<line opacity="0.1" stroke="#000000" stroke-width="1" x1="909" y1="699" x2="909" y2="68"/>
<line opacity="0.1" stroke="#000000" stroke-width="1" x1="919" y1="699" x2="919" y2="68"/>
<line opacity="0.1" stroke="#000000" stroke-width="1" x1="930" y1="699" x2="930" y2="68"/>
<line opacity="0.1" stroke="#000000" stroke-width="1" x1="940" y1="699" x2="940" y2="68"/>
<line opacity="0.1" stroke="#000000" stroke-width="1" x1="951" y1="699" x2="951" y2="68"/>
<line opacity="0.1" stroke="#000000" stroke-width="1" x1="961" y1="699" x2="961" y2="68"/>
<line opacity="0.1" stroke="#000000" stroke-width="1" x1="972" y1="699" x2="972" y2="68"/>
<line opacity="0.1" stroke="#000000" stroke-width="1" x1="78" y1="699" x2="973" y2="699"/>
<line opacity="0.1" stroke="#000000" stroke-width="1" x1="78" y1="689" x2="973" y2="689"/>
<line opacity="0.1" stroke="#000000" stroke-width="1" x1="78" y1="679" x2="973" y2="679"/>
<line opacity="0.1" stroke="#000000" stroke-width="1" x1="78" y1="670" x2="973" y2="670"/>
<line opacity="0.1" stroke="#000000" stroke-width="1" x1="78" y1="660" x2="973" y2="660"/>
<line opacity="0.1" stroke="#000000" stroke-width="1" x1="78" y1="651" x2="973" y2="651"/>
<line opacity="0.1" stroke="#000000" stroke-width="1" x1="78" y1="641" x2="973" y2="641"/>
<line opacity="0.1" stroke="#000000" stroke-width="1" x1="78" y1="632" x2="973" y2="632"/>
<line opacity="0.1" stroke="#000000" stroke-width="1" x1="78" y1="622" x2="973" y2="622"/>
<line opacity="0.1" stroke="#000000" stroke-width="1" x1="78" y1="613" x2="973" y2="613"/>
<line opacity="0.1" stroke="#000000" stroke-width="1" x1="78" y1="603" x2="973" y2="603"/>
<line opacity="0.1" stroke="#000000" stroke-width="1" x1="78" y1="594" x2="973" y2="594"/>
<line opacity="0.1" stroke="#000000" stroke-width="1" x1="78" y1="584" x2="973" y2="584"/>
<line opacity="0.1" stroke="#000000" stroke-width="1" x1="78" y1="575" x2="973" y2="575"/>
<line opacity="0.1" stroke="#000000" stroke-width="1" x1="78" y1="565" x2="973" y2="565"/>
<line opacity="0.1" stroke="#000000" stroke-width="1" x1="78" y1="556" x2="973" y2="556"/>
<line opacity="0.1" stroke="#000000" stroke-width="1" x1="78" y1="546" x2="973" y2="546"/>
<line opacity="0.1" stroke="#000000" stroke-width="1" x1="78" y1="537" x2="973" y2="537"/>
<line opacity="0.1" stroke="#000000" stroke-width="1" x1="78" y1="527" x2="973" y2="527"/>
<line opacity="0.1" stroke="#000000" stroke-width="1" x1="78" y1="518" x2="973" y2="518"/>
<line opacity="0.1" stroke="#000000" stroke-width="1" x1="78" y1="508" x2="973" y2="508"/>
<line opacity="0.1" stroke="#000000" stroke-width="1" x1="78" y1="499" x2="973" y2="499"/>
<line opacity="0.1" stroke="#000000" stroke-width="1" x1="78" y1="489" x2="973" y2="489"/>
<line opacity="0.1" stroke="#000000" stroke-width="1" x1="78" y1="480" x2="973" y2="480"/>
<line opacity="0.1" stroke="#000000" stroke-width="1" x1="78" y1="470" x2="973" y2="470"/>
<line opacity="0.1" stroke="#000000" stroke-width="1" x1="78" y1="461" x2="973" y2="461"/>
<line opacity="0.1" stroke="#000000" stroke-width="1" x1="78" y1="451" x2="973" y2="451"/>
<line opacity="0.1" stroke="#000000" stroke-width="1" x1="78" y1="442" x2="973" y2="442"/>
<line opacity="0.1" stroke="#000000" stroke-width="1" x1="78" y1="432" x2="973" y2="432"/>
<line opacity="0.1" stroke="#000000" stroke-width="1" x1="78" y1="423" x2="973" y2="423"/>
<line opacity="0.1" stroke="#000000" stroke-width="1" x1="78" y1="413" x2="973" y2="413"/>
<line opacity="0.1" stroke="#000000" stroke-width="1" x1="78" y1="404" x2="973" y2="404"/>
<line opacity="0.1" stroke="#000000" stroke-width="1" x1="78" y1="394" x2="973" y2="394"/>
<line opacity="0.1" stroke="#000000" stroke-width="1" x1="78" y1="385" x2="973" y2="385"/>
<line opacity="0.1" stroke="#000000" stroke-width="1" x1="78" y1="375" x2="973" y2="375"/>
<line opacity="0.1" stroke="#000000" stroke-width="1" x1="78" y1="366" x2="973" y2="366"/>
<line opacity="0.1" stroke="#000000" stroke-width="1" x1="78" y1="356" x2="973" y2="356"/>
<line opacity="0.1" stroke="#000000" stroke-width="1" x1="78" y1="347" x2="973" y2="347"/>
<line opacity="0.1" stroke="#000000" stroke-width="1" x1="78" y1="337" x2="973" y2="337"/>
<line opacity="0.1" stroke="#000000" stroke-width="1" x1="78" y1="327" x2="973" y2="327"/>
<line opacity="0.1" stroke="#000000" stroke-width="1" x1="78" y1="318" x2="973" y2="318"/>
<line opacity="0.1" stroke="#000000" stroke-width="1" x1="78" y1="308" x2="973" y2="308"/>
<line opacity="0.1" stroke="#000000" stroke-width="1" x1="78" y1="299" x2="973" y2="299"/>
<line opacity="0.1" stroke="#000000" stroke-width="1" x1="78" y1="289" x2="973" y2="289"/>
<line opacity="0.1" stroke="#000000" stroke-width="1" x1="78" y1="280" x2="973" y2="280"/>
<line opacity="0.1" stroke="#000000" stroke-width="1" x1="78" y1="270" x2="973" y2="270"/>
<line opacity="0.1" stroke="#000000" stroke-width="1" x1="78" y1="261" x2="973" y2="261"/>
<line opacity="0.1" stroke="#000000" stroke-width="1" x1="78" y1="251" x2="973" y2="251"/>
<line opacity="0.1" stroke="#000000" stroke-width="1" x1="78" y1="242" x2="973" y2="242"/>
<line opacity="0.1" stroke="#000000" stroke-width="1" x1="78" y1="232" x2="973" y2="232"/>
<line opacity="0.1" stroke="#000000" stroke-width="1" x1="78" y1="223" x2="973" y2="223"/>
<line opacity="0.1" stroke="#000000" stroke-width="1" x1="78" y1="213" x2="973" y2="213"/>
<line opacity="0.1" stroke="#000000" stroke-width="1" x1="78" y1="204" x2="973" y2="204"/>
<line opacity="0.1" stroke="#000000" stroke-width="1" x1="78" y1="194" x2="973" y2="194"/>
<line opacity="0.1" stroke="#000000" stroke-width="1" x1="78" y1="185" x2="973" y2="185"/>
<line opacity="0.1" stroke="#000000" stroke-width="1" x1="78" y1="175" x2="973" y2="175"/>
<line opacity="0.1" stroke="#000000" stroke-width="1" x1="78" y1="166" x2="973" y2="166"/>
<line opacity="0.1" stroke="#000000" stroke-width="1" x1="78" y1="156" x2="973" y2="156"/>
<line opacity="0.1" stroke="#000000" stroke-width="1" x1="78" y1="147" x2="973" y2="147"/>
<line opacity="0.1" stroke="#000000" stroke-width="1" x1="78" y1="137" x2="973" y2="137"/>
<line opacity="0.1" stroke="#000000" stroke-width="1" x1="78" y1="128" x2="973" y2="128"/>
<line opacity="0.1" stroke="#000000" stroke-width="1" x1="78" y1="118" x2="973" y2="118"/>
<line opacity="0.1" stroke="#000000" stroke-width="1" x1="78" y1="109" x2="973" y2="109"/>
<line opacity="0.1" stroke="#000000" stroke-width="1" x1="78" y1="99" x2="973" y2="99"/>
<line opacity="0.1" stroke="#000000" stroke-width="1" x1="78" y1="90" x2="973" y2="90"/>
<line opacity="0.1" stroke="#000000" stroke-width="1" x1="78" y1="80" x2="973" y2="80"/>
<line opacity="0.1" stroke="#000000" stroke-width="1" x1="78" y1="71" x2="973" y2="71"/>
<text x="8" y="384" dy="0.76em" text-anchor="middle" font-family="sans-serif" font-size="9.67741935483871" opacity="1" fill="#000000" transform="rotate(270, 8, 384)">
Memory usage
</text>
<text x="526" y="760" dy="-0.5ex" text-anchor="middle" font-family="sans-serif" font-size="9.67741935483871" opacity="1" fill="#000000">
Time
</text>
<line opacity="0.2" stroke="#000000" stroke-width="1" x1="105" y1="699" x2="105" y2="68"/>
<line opacity="0.2" stroke="#000000" stroke-width="1" x1="211" y1="699" x2="211" y2="68"/>
<line opacity="0.2" stroke="#000000" stroke-width="1" x1="316" y1="699" x2="316" y2="68"/>
<line opacity="0.2" stroke="#000000" stroke-width="1" x1="422" y1="699" x2="422" y2="68"/>
<line opacity="0.2" stroke="#000000" stroke-width="1" x1="528" y1="699" x2="528" y2="68"/>
<line opacity="0.2" stroke="#000000" stroke-width="1" x1="634" y1="699" x2="634" y2="68"/>
<line opacity="0.2" stroke="#000000" stroke-width="1" x1="739" y1="699" x2="739" y2="68"/>
<line opacity="0.2" stroke="#000000" stroke-width="1" x1="845" y1="699" x2="845" y2="68"/>
<line opacity="0.2" stroke="#000000" stroke-width="1" x1="951" y1="699" x2="951" y2="68"/>
<line opacity="0.2" stroke="#000000" stroke-width="1" x1="78" y1="699" x2="973" y2="699"/>
<line opacity="0.2" stroke="#000000" stroke-width="1" x1="78" y1="603" x2="973" y2="603"/>
<line opacity="0.2" stroke="#000000" stroke-width="1" x1="78" y1="508" x2="973" y2="508"/>
<line opacity="0.2" stroke="#000000" stroke-width="1" x1="78" y1="413" x2="973" y2="413"/>
<line opacity="0.2" stroke="#000000" stroke-width="1" x1="78" y1="318" x2="973" y2="318"/>
<line opacity="0.2" stroke="#000000" stroke-width="1" x1="78" y1="223" x2="973" y2="223"/>
<line opacity="0.2" stroke="#000000" stroke-width="1" x1="78" y1="128" x2="973" y2="128"/>
<polyline fill="none" opacity="1" stroke="#000000" stroke-width="1" points="77,68 77,699 "/>
<text x="68" y="699" dy="0.5ex" text-anchor="end" font-family="sans-serif" font-size="9.67741935483871" opacity="1" fill="#000000">
0 MB
</text>
<polyline fill="none" opacity="1" stroke="#000000" stroke-width="1" points="72,699 77,699 "/>
<text x="68" y="603" dy="0.5ex" text-anchor="end" font-family="sans-serif" font-size="9.67741935483871" opacity="1" fill="#000000">
19 MB
</text>
<polyline fill="none" opacity="1" stroke="#000000" stroke-width="1" points="72,603 77,603 "/>
<text x="68" y="508" dy="0.5ex" text-anchor="end" font-family="sans-serif" font-size="9.67741935483871" opacity="1" fill="#000000">
38 MB
</text>
<polyline fill="none" opacity="1" stroke="#000000" stroke-width="1" points="72,508 77,508 "/>
<text x="68" y="413" dy="0.5ex" text-anchor="end" font-family="sans-serif" font-size="9.67741935483871" opacity="1" fill="#000000">
57 MB
</text>
<polyline fill="none" opacity="1" stroke="#000000" stroke-width="1" points="72,413 77,413 "/>
<text x="68" y="318" dy="0.5ex" text-anchor="end" font-family="sans-serif" font-size="9.67741935483871" opacity="1" fill="#000000">
76 MB
</text>
<polyline fill="none" opacity="1" stroke="#000000" stroke-width="1" points="72,318 77,318 "/>
<text x="68" y="223" dy="0.5ex" text-anchor="end" font-family="sans-serif" font-size="9.67741935483871" opacity="1" fill="#000000">
95 MB
</text>
<polyline fill="none" opacity="1" stroke="#000000" stroke-width="1" points="72,223 77,223 "/>
<text x="68" y="128" dy="0.5ex" text-anchor="end" font-family="sans-serif" font-size="9.67741935483871" opacity="1" fill="#000000">
114 MB
</text>
<polyline fill="none" opacity="1" stroke="#000000" stroke-width="1" points="72,128 77,128 "/>
<polyline fill="none" opacity="1" stroke="#000000" stroke-width="1" points="78,700 973,700 "/>
<text x="105" y="710" dy="0.76em" text-anchor="middle" font-family="sans-serif" font-size="9.67741935483871" opacity="1" fill="#000000">
07 20:33:20
</text>
<polyline fill="none" opacity="1" stroke="#000000" stroke-width="1" points="105,700 105,705 "/>
<text x="211" y="710" dy="0.76em" text-anchor="middle" font-family="sans-serif" font-size="9.67741935483871" opacity="1" fill="#000000">
08 10:26:40
</text>
<polyline fill="none" opacity="1" stroke="#000000" stroke-width="1" points="211,700 211,705 "/>
<text x="316" y="710" dy="0.76em" text-anchor="middle" font-family="sans-serif" font-size="9.67741935483871" opacity="1" fill="#000000">
09 00:20:00
</text>
<polyline fill="none" opacity="1" stroke="#000000" stroke-width="1" points="316,700 316,705 "/>
<text x="422" y="710" dy="0.76em" text-anchor="middle" font-family="sans-serif" font-size="9.67741935483871" opacity="1" fill="#000000">
09 14:13:20
</text>
<polyline fill="none" opacity="1" stroke="#000000" stroke-width="1" points="422,700 422,705 "/>
<text x="528" y="710" dy="0.76em" text-anchor="middle" font-family="sans-serif" font-size="9.67741935483871" opacity="1" fill="#000000">
10 04:06:40
</text>
<polyline fill="none" opacity="1" stroke="#000000" stroke-width="1" points="528,700 528,705 "/>
<text x="634" y="710" dy="0.76em" text-anchor="middle" font-family="sans-serif" font-size="9.67741935483871" opacity="1" fill="#000000">
10 18:00:00
</text>
<polyline fill="none" opacity="1" stroke="#000000" stroke-width="1" points="634,700 634,705 "/>
<text x="739" y="710" dy="0.76em" text-anchor="middle" font-family="sans-serif" font-size="9.67741935483871" opacity="1" fill="#000000">
11 07:53:20
</text>
<polyline fill="none" opacity="1" stroke="#000000" stroke-width="1" points="739,700 739,705 "/>
<text x="845" y="710" dy="0.76em" text-anchor="middle" font-family="sans-serif" font-size="9.67741935483871" opacity="1" fill="#000000">
11 21:46:40
</text>
<polyline fill="none" opacity="1" stroke="#000000" stroke-width="1" points="845,700 845,705 "/>
<text x="951" y="710" dy="0.76em" text-anchor="middle" font-family="sans-serif" font-size="9.67741935483871" opacity="1" fill="#000000">
12 11:40:00
</text>
<polyline fill="none" opacity="1" stroke="#000000" stroke-width="1" points="951,700 951,705 "/>
<polyline fill="none" opacity="1" stroke="#000000" stroke-width="1" points="78,67 974,67 "/>
<text x="105" y="58" dy="-0.5ex" text-anchor="middle" font-family="sans-serif" font-size="9.67741935483871" opacity="1" fill="#000000">
+03:35:44
</text>
<polyline fill="none" opacity="1" stroke="#000000" stroke-width="1" points="105,62 105,67 "/>
<text x="211" y="58" dy="-0.5ex" text-anchor="middle" font-family="sans-serif" font-size="9.67741935483871" opacity="1" fill="#000000">
+17:29:04
</text>
<polyline fill="none" opacity="1" stroke="#000000" stroke-width="1" points="211,62 211,67 "/>
<text x="317" y="58" dy="-0.5ex" text-anchor="middle" font-family="sans-serif" font-size="9.67741935483871" opacity="1" fill="#000000">
+31:22:24
</text>
<polyline fill="none" opacity="1" stroke="#000000" stroke-width="1" points="317,62 317,67 "/>
<text x="423" y="58" dy="-0.5ex" text-anchor="middle" font-family="sans-serif" font-size="9.67741935483871" opacity="1" fill="#000000">
+45:15:44
</text>
<polyline fill="none" opacity="1" stroke="#000000" stroke-width="1" points="423,62 423,67 "/>
<text x="528" y="58" dy="-0.5ex" text-anchor="middle" font-family="sans-serif" font-size="9.67741935483871" opacity="1" fill="#000000">
+59:09:04
</text>
<polyline fill="none" opacity="1" stroke="#000000" stroke-width="1" points="528,62 528,67 "/>
<text x="634" y="58" dy="-0.5ex" text-anchor="middle" font-family="sans-serif" font-size="9.67741935483871" opacity="1" fill="#000000">
+73:02:24
</text>
<polyline fill="none" opacity="1" stroke="#000000" stroke-width="1" points="634,62 634,67 "/>
<text x="740" y="58" dy="-0.5ex" text-anchor="middle" font-family="sans-serif" font-size="9.67741935483871" opacity="1" fill="#000000">
+86:55:44
</text>
<polyline fill="none" opacity="1" stroke="#000000" stroke-width="1" points="740,62 740,67 "/>
<text x="846" y="58" dy="-0.5ex" text-anchor="middle" font-family="sans-serif" font-size="9.67741935483871" opacity="1" fill="#000000">
+100:49:04
</text>
<polyline fill="none" opacity="1" stroke="#000000" stroke-width="1" points="846,62 846,67 "/>
<text x="952" y="58" dy="-0.5ex" text-anchor="middle" font-family="sans-serif" font-size="9.67741935483871" opacity="1" fill="#000000">
+114:42:24
</text>
<polyline fill="none" opacity="1" stroke="#000000" stroke-width="1" points="952,62 952,67 "/>
<rect x="83" y="73" width="99" height="45" opacity="0.75" fill="#FFFFFF" stroke="none"/>
<rect x="83" y="73" width="99" height="45" opacity="1" fill="none" stroke="#000000"/>
<text x="123" y="83" dy="0.76em" text-anchor="start" font-family="sans-serif" font-size="9.67741935483871" opacity="1" fill="#000000">
Temporary
</text>
<text x="123" y="98" dy="0.76em" text-anchor="start" font-family="sans-serif" font-size="9.67741935483871" opacity="1" fill="#000000">
Leaked
</text>
<rect x="93" y="83" width="10" height="10" opacity="1" fill="#3CB44B" stroke="none"/>
<rect x="93" y="98" width="10" height="10" opacity="1" fill="#E6194B" stroke="none"/>
</svg>
