<svg width="1024" height="768" viewBox="0 0 1024 768" xmlns="http://www.w3.org/2000/svg">
<rect x="0" y="0" width="1024" height="768" opacity="1" fill="#FFFFFF" stroke="none"/>
<polygon opacity="1" fill="#3CB44B" points="78,697 79,696 80,695 81,694 82,692 82,691 83,690 84,689 85,688 86,687 87,686 88,685 89,684 90,682 91,681 91,680 92,679 93,678 94,677 95,676 96,675 97,674 98,673 99,672 99,670 100,669 101,668 102,667 103,666 104,665 105,664 106,663 107,662 108,661 108,660 109,658 110,657 111,656 112,655 113,654 114,653 115,652 116,651 116,649 117,648 118,647 119,646 120,645 121,644 122,643 123,642 124,640 125,639 125,638 126,637 127,636 128,635 129,634 130,633 131,631 132,630 133,629 134,628 134,627 135,626 136,625 137,624 138,623 139,621 140,620 141,619 142,618 142,617 143,616 144,615 145,614 146,612 147,611 148,610 149,609 150,608 151,607 151,606 152,605 153,604 154,602 155,601 156,600 157,599 158,598 159,597 159,596 160,595 161,594 162,593 163,591 164,590 165,589 166,588 167,587 168,586 168,585 169,584 170,582 171,581 172,580 173,579 174,578 175,577 176,576 176,575 177,573 178,572 179,571 180,570 181,569 182,568 183,567 184,566 185,565 185,563 186,562 187,561 188,560 189,559 190,558 191,557 192,556 193,555 193,554 194,552 195,552 196,550 197,549 198,548 199,547 200,546 201,545 202,544 202,543 203,541 204,540 205,539 206,538 207,537 208,536 209,535 210,534 210,533 211,532 212,530 213,529 214,528 215,527 216,526 217,525 218,524 219,523 219,522 220,521 221,520 222,519 223,518 224,517 225,516 226,514 227,513 227,512 228,511 229,510 230,509 231,508 232,507 233,506 234,505 235,504 236,503 236,502 237,500 238,500 239,499 240,497 241,496 242,495 243,494 244,493 244,492 245,491 246,490 247,489 248,488 249,487 250,486 251,484 252,483 253,482 253,481 254,480 255,479 256,478 257,477 258,476 259,475 260,474 261,473 261,471 262,470 263,469 264,468 265,467 266,466 267,465 268,464 269,463 270,462 270,461 271,459 272,458 273,457 274,456 275,455 276,454 277,453 278,452 278,451 279,450 280,449 281,448 282,446 283,445 284,444 285,443 286,442 287,441 287,440 288,439 289,438 290,437 291,436 292,435 293,434 294,432 295,431 295,430 296,429 297,428 298,427 299,426 300,425 301,424 302,423 303,422 304,420 304,419 305,418 306,417 307,416 308,415 309,414 310,413 311,412 312,411 312,409 313,408 314,407 315,406 316,405 317,404 318,403 319,402 320,401 321,400 321,398 322,397 323,396 324,395 325,394 326,393 327,392 328,391 329,390 329,389 330,388 331,387 332,386 333,385 334,384 335,382 336,381 337,380 338,379 338,378 339,377 340,376 341,375 342,374 343,373 344,372 345,371 346,370 347,368 347,367 348,366 349,365 350,364 351,363 352,362 353,361 354,360 355,359 355,358 356,357 357,356 358,355 359,354 360,352 361,351 362,350 363,349 364,348 364,347 365,346 366,345 367,343 368,342 369,341 370,340 371,339 372,338 372,337 373,336 374,335 375,334 376,333 377,331 378,330 379,329 380,328 381,327 381,326 382,325 383,324 384,323 385,322 386,321 387,320 388,319 389,317 389,316 390,315 391,314 392,313 393,312 394,311 395,310 396,309 397,308 398,306 398,305 399,304 400,303 401,302 402,301 403,300 404,299 405,298 406,297 406,296 407,295 408,293 409,292 410,291 411,290 412,289 413,288 414,287 415,286 415,285 416,283 417,282 418,281 419,280 420,279 421,278 422,277 423,276 423,275 424,273 425,272 426,271 427,270 428,269 429,268 430,267 431,266 432,265 432,264 433,263 434,262 435,261 436,260 437,259 438,258 439,257 440,255 440,254 441,253 442,252 443,251 444,250 445,249 446,248 447,247 448,246 449,245 449,243 450,242 451,241 452,240 453,239 454,238 455,237 456,236 457,235 457,233 458,232 459,231 460,230 461,229 462,228 463,227 464,226 465,225 466,224 466,222 467,221 468,220 469,219 470,218 471,217 472,216 473,215 474,214 474,213 475,211 476,210 477,209 478,208 479,207 480,206 481,205 482,204 483,203 483,202 484,201 485,199 486,198 487,197 488,196 489,195 490,194 491,193 491,192 492,191 493,190 494,188 495,187 496,186 497,185 498,184 499,183 500,182 500,181 501,180 502,179 503,178 504,177 505,175 506,174 507,173 508,172 508,171 509,170 510,169 511,168 512,167 513,166 514,164 515,163 516,162 517,161 517,160 518,159 519,158 520,157 521,156 522,155 523,154 524,153 525,151 525,150 526,149 527,148 528,147 529,146 530,145 531,144 532,143 533,142 534,141 534,139 535,138 536,137 537,136 538,135 539,134 540,133 541,132 542,131 542,130 543,129 544,127 545,126 546,125 547,124 548,123 549,122 550,121 551,120 551,119 552,118 553,116 554,115 555,114 556,113 557,112 558,111 559,110 560,109 560,108 561,107 562,106 563,105 564,104 565,103 566,102 567,101 568,100 568,98 569,97 570,96 571,95 572,94 573,93 574,92 575,91 576,90 577,89 577,88 578,87 579,86 580,85 581,84 582,83 583,81 584,80 585,79 585,78 586,77 587,76 588,75 589,74 590,73 591,72 592,71 593,70 594,68 594,68 595,68 596,68 597,68 598,68 599,68 600,68 601,68 602,68 602,68 603,68 604,68 605,68 606,68 607,68 608,68 609,68 610,68 611,68 611,68 612,68 613,68 614,68 615,68 616,68 617,68 618,68 619,68 619,68 620,68 621,68 622,68 623,68 624,68 625,68 626,68 627,68 628,68 628,68 629,68 630,68 631,68 632,68 633,68 634,68 635,68 636,68 636,68 637,68 638,68 639,68 640,68 641,68 642,68 643,68 644,68 645,68 645,68 646,68 647,68 648,68 649,68 650,68 651,68 652,68 653,68 653,68 654,68 655,68 656,68 657,68 658,68 659,68 660,68 661,68 662,68 662,68 663,68 664,68 665,68 666,68 667,68 668,68 669,68 670,68 670,68 671,68 672,68 673,68 674,68 675,68 676,68 677,68 678,68 679,68 679,68 680,68 681,68 682,68 683,68 684,68 685,68 686,68 687,68 687,68 688,68 689,68 690,68 691,68 692,68 693,68 694,68 695,68 696,68 696,68 697,68 698,68 699,68 700,68 701,68 702,68 703,68 704,68 704,68 705,68 706,68 707,68 708,68 709,68 710,68 711,68 712,68 713,68 713,68 714,68 715,68 716,68 717,68 718,68 719,68 720,68 721,68 721,68 722,68 723,68 724,68 725,68 726,68 727,68 728,68 729,68 730,68 730,68 731,68 732,68 733,68 734,68 735,68 736,68 737,68 738,68 738,68 739,68 740,68 741,68 742,68 743,68 744,68 745,68 746,68 747,68 747,68 748,68 749,68 750,68 751,68 752,68 753,68 754,68 755,68 755,68 756,68 757,68 758,68 759,68 760,68 761,68 762,68 763,68 764,68 764,68 765,68 766,68 767,68 768,68 769,68 770,68 771,68 772,68 773,68 773,68 774,68 775,68 776,68 777,68 778,68 779,68 780,68 781,68 781,68 782,68 783,68 784,68 785,68 786,68 787,68 788,68 789,68 790,68 790,68 791,68 792,68 793,68 794,68 795,68 796,68 797,68 798,68 798,68 799,68 800,68 801,68 802,68 803,68 804,68 805,68 806,68 807,68 807,68 808,68 809,68 810,68 811,68 812,68 813,68 814,69 815,69 815,69 816,68 817,69 818,68 819,68 820,68 821,68 822,68 823,68 824,68 824,68 825,69 826,69 827,69 828,69 829,69 830,69 831,69 832,69 832,69 833,69 834,69 835,69 836,69 837,69 838,69 839,69 840,69 841,69 841,69 842,69 843,69 844,69 845,69 846,69 847,69 848,69 849,69 849,69 850,69 851,69 852,69 853,69 854,69 855,69 856,69 857,69 858,69 858,69 859,69 860,69 861,69 862,69 863,69 864,70 865,69 866,70 866,69 867,69 868,69 869,69 870,69 871,69 872,69 873,69 874,69 875,69 875,69 876,69 877,69 878,69 879,69 880,69 881,69 882,69 883,69 883,69 884,69 885,69 886,69 887,69 888,69 889,69 890,69 891,69 892,69 892,69 893,69 894,69 895,69 896,69 897,69 898,69 899,69 900,69 900,69 901,69 902,69 903,69 904,69 905,69 906,69 907,69 908,69 909,69 909,69 910,69 911,69 912,69 913,69 914,69 915,69 916,69 917,70 917,69 918,70 919,69 920,69 921,69 922,69 923,69 924,69 925,70 926,69 926,69 927,69 928,69 929,70 930,70 931,70 932,70 933,70 934,70 934,70 935,70 936,69 937,70 938,70 939,70 940,70 941,70 942,70 943,70 943,70 944,70 945,70 946,70 947,70 948,70 949,70 950,70 951,70 951,70 952,70 953,70 954,70 955,69 956,69 957,70 958,70 959,70 960,70 960,70 961,70 962,70 963,70 964,70 965,70 966,69 967,69 968,69 968,69 969,69 970,69 971,69 972,70 972,70 973,70 973,699 78,699 "/>
<polyline fill="none" opacity="1" stroke="#3CB44B" stroke-width="1" points="78,697 79,696 80,695 81,694 82,692 82,691 83,690 84,689 85,688 86,687 87,686 88,685 89,684 90,682 91,681 91,680 92,679 93,678 94,677 95,676 96,675 97,674 98,673 99,672 99,670 100,669 101,668 102,667 103,666 104,665 105,664 106,663 107,662 108,661 108,660 109,658 110,657 111,656 112,655 113,654 114,653 115,652 116,651 116,649 117,648 118,647 119,646 120,645 121,644 122,643 123,642 124,640 125,639 125,638 126,637 127,636 128,635 129,634 130,633 131,631 132,630 133,629 134,628 134,627 135,626 136,625 137,624 138,623 139,621 140,620 141,619 142,618 142,617 143,616 144,615 145,614 146,612 147,611 148,610 149,609 150,608 151,607 151,606 152,605 153,604 154,602 155,601 156,600 157,599 158,598 159,597 159,596 160,595 161,594 162,593 163,591 164,590 165,589 166,588 167,587 168,586 168,585 169,584 170,582 171,581 172,580 173,579 174,578 175,577 176,576 176,575 177,573 178,572 179,571 180,570 181,569 182,568 183,567 184,566 185,565 185,563 186,562 187,561 188,560 189,559 190,558 191,557 192,556 193,555 193,554 194,552 195,552 196,550 197,549 198,548 199,547 200,546 201,545 202,544 202,543 203,541 204,540 205,539 206,538 207,537 208,536 209,535 210,534 210,533 211,532 212,530 213,529 214,528 215,527 216,526 217,525 218,524 219,523 219,522 220,521 221,520 222,519 223,518 224,517 225,516 226,514 227,513 227,512 228,511 229,510 230,509 231,508 232,507 233,506 234,505 235,504 236,503 236,502 237,500 238,500 239,499 240,497 241,496 242,495 243,494 244,493 244,492 245,491 246,490 247,489 248,488 249,487 250,486 251,484 252,483 253,482 253,481 254,480 255,479 256,478 257,477 258,476 259,475 260,474 261,473 261,471 262,470 263,469 264,468 265,467 266,466 267,465 268,464 269,463 270,462 270,461 271,459 272,458 273,457 274,456 275,455 276,454 277,453 278,452 278,451 279,450 280,449 281,448 282,446 283,445 284,444 285,443 286,442 287,441 287,440 288,439 289,438 290,437 291,436 292,435 293,434 294,432 295,431 295,430 296,429 297,428 298,427 299,426 300,425 301,424 302,423 303,422 304,420 304,419 305,418 306,417 307,416 308,415 309,414 310,413 311,412 312,411 312,409 313,408 314,407 315,406 316,405 317,404 318,403 319,402 320,401 321,400 321,398 322,397 323,396 324,395 325,394 326,393 327,392 328,391 329,390 329,389 330,388 331,387 332,386 333,385 334,384 335,382 336,381 337,380 338,379 338,378 339,377 340,376 341,375 342,374 343,373 344,372 345,371 346,370 347,368 347,367 348,366 349,365 350,364 351,363 352,362 353,361 354,360 355,359 355,358 356,357 357,356 358,355 359,354 360,352 361,351 362,350 363,349 364,348 364,347 365,346 366,345 367,343 368,342 369,341 370,340 371,339 372,338 372,337 373,336 374,335 375,334 376,333 377,331 378,330 379,329 380,328 381,327 381,326 382,325 383,324 384,323 385,322 386,321 387,320 388,319 389,317 389,316 390,315 391,314 392,313 393,312 394,311 395,310 396,309 397,308 398,306 398,305 399,304 400,303 401,302 402,301 403,300 404,299 405,298 406,297 406,296 407,295 408,293 409,292 410,291 411,290 412,289 413,288 414,287 415,286 415,285 416,283 417,282 418,281 419,280 420,279 421,278 422,277 423,276 423,275 424,273 425,272 426,271 427,270 428,269 429,268 430,267 431,266 432,265 432,264 433,263 434,262 435,261 436,260 437,259 438,258 439,257 440,255 440,254 441,253 442,252 443,251 444,250 445,249 446,248 447,247 448,246 449,245 449,243 450,242 451,241 452,240 453,239 454,238 455,237 456,236 457,235 457,233 458,232 459,231 460,230 461,229 462,228 463,227 464,226 465,225 466,224 466,222 467,221 468,220 469,219 470,218 471,217 472,216 473,215 474,214 474,213 475,211 476,210 477,209 478,208 479,207 480,206 481,205 482,204 483,203 483,202 484,201 485,199 486,198 487,197 488,196 489,195 490,194 491,193 491,192 492,191 493,190 494,188 495,187 496,186 497,185 498,184 499,183 500,182 500,181 501,180 502,179 503,178 504,177 505,175 506,174 507,173 508,172 508,171 509,170 510,169 511,168 512,167 513,166 514,164 515,163 516,162 517,161 517,160 518,159 519,158 520,157 521,156 522,155 523,154 524,153 525,151 525,150 526,149 527,148 528,147 529,146 530,145 531,144 532,143 533,142 534,141 534,139 535,138 536,137 537,136 538,135 539,134 540,133 541,132 542,131 542,130 543,129 544,127 545,126 546,125 547,124 548,123 549,122 550,121 551,120 551,119 552,118 553,116 554,115 555,114 556,113 557,112 558,111 559,110 560,109 560,108 561,107 562,106 563,105 564,104 565,103 566,102 567,101 568,100 568,98 569,97 570,96 571,95 572,94 573,93 574,92 575,91 576,90 577,89 577,88 578,87 579,86 580,85 581,84 582,83 583,81 584,80 585,79 585,78 586,77 587,76 588,75 589,74 590,73 591,72 592,71 593,70 594,68 594,68 595,68 596,68 597,68 598,68 599,68 600,68 601,68 602,68 602,68 603,68 604,68 605,68 606,68 607,68 608,68 609,68 610,68 611,68 611,68 612,68 613,68 614,68 615,68 616,68 617,68 618,68 619,68 619,68 620,68 621,68 622,68 623,68 624,68 625,68 626,68 627,68 628,68 628,68 629,68 630,68 631,68 632,68 633,68 634,68 635,68 636,68 636,68 637,68 638,68 639,68 640,68 641,68 642,68 643,68 644,68 645,68 645,68 646,68 647,68 648,68 649,68 650,68 651,68 652,68 653,68 653,68 654,68 655,68 656,68 657,68 658,68 659,68 660,68 661,68 662,68 662,68 663,68 664,68 665,68 666,68 667,68 668,68 669,68 670,68 670,68 671,68 672,68 673,68 674,68 675,68 676,68 677,68 678,68 679,68 679,68 680,68 681,68 682,68 683,68 684,68 685,68 686,68 687,68 687,68 688,68 689,68 690,68 691,68 692,68 693,68 694,68 695,68 696,68 696,68 697,68 698,68 699,68 700,68 701,68 702,68 703,68 704,68 704,68 705,68 706,68 707,68 708,68 709,68 710,68 711,68 712,68 713,68 713,68 714,68 715,68 716,68 717,68 718,68 719,68 720,68 721,68 721,68 722,68 723,68 724,68 725,68 726,68 727,68 728,68 729,68 730,68 730,68 731,68 732,68 733,68 734,68 735,68 736,68 737,68 738,68 738,68 739,68 740,68 741,68 742,68 743,68 744,68 745,68 746,68 747,68 747,68 748,68 749,68 750,68 751,68 752,68 753,68 754,68 755,68 755,68 756,68 757,68 758,68 759,68 760,68 761,68 762,68 763,68 764,68 764,68 765,68 766,68 767,68 768,68 769,68 770,68 771,68 772,68 773,68 773,68 774,68 775,68 776,68 777,68 778,68 779,68 780,68 781,68 781,68 782,68 783,68 784,68 785,68 786,68 787,68 788,68 789,68 790,68 790,68 791,68 792,68 793,68 794,68 795,68 796,68 797,68 798,68 798,68 799,68 800,68 801,68 802,68 803,68 804,68 805,68 806,68 807,68 807,68 808,68 809,68 810,68 811,68 812,68 813,68 814,69 815,69 815,69 816,68 817,69 818,68 819,68 820,68 821,68 822,68 823,68 824,68 824,68 825,69 826,69 827,69 828,69 829,69 830,69 831,69 832,69 832,69 833,69 834,69 835,69 836,69 837,69 838,69 839,69 840,69 841,69 841,69 842,69 843,69 844,69 845,69 846,69 847,69 848,69 849,69 849,69 850,69 851,69 852,69 853,69 854,69 855,69 856,69 857,69 858,69 858,69 859,69 860,69 861,69 862,69 863,69 864,70 865,69 866,70 866,69 867,69 868,69 869,69 870,69 871,69 872,69 873,69 874,69 875,69 875,69 876,69 877,69 878,69 879,69 880,69 881,69 882,69 883,69 883,69 884,69 885,69 886,69 887,69 888,69 889,69 890,69 891,69 892,69 892,69 893,69 894,69 895,69 896,69 897,69 898,69 899,69 900,69 900,69 901,69 902,69 903,69 904,69 905,69 906,69 907,69 908,69 909,69 909,69 910,69 911,69 912,69 913,69 914,69 915,69 916,69 917,70 917,69 918,70 919,69 920,69 921,69 922,69 923,69 924,69 925,70 926,69 926,69 927,69 928,69 929,70 930,70 931,70 932,70 933,70 934,70 934,70 935,70 936,69 937,70 938,70 939,70 940,70 941,70 942,70 943,70 943,70 944,70 945,70 946,70 947,70 948,70 949,70 950,70 951,70 951,70 952,70 953,70 954,70 955,69 956,69 957,70 958,70 959,70 960,70 960,70 961,70 962,70 963,70 964,70 965,70 966,69 967,69 968,69 968,69 969,69 970,69 971,69 972,70 972,70 973,70 "/>
<polygon opacity="1" fill="#E6194B" points="78,699 79,699 80,699 81,699 82,699 82,699 83,699 84,699 85,699 86,699 87,699 88,699 89,699 90,699 91,699 91,699 92,699 93,699 94,699 95,699 96,699 97,699 98,699 99,699 99,699 100,699 101,699 102,699 103,699 104,699 105,699 106,699 107,699 108,699 108,699 109,699 110,699 111,699 112,699 113,699 114,699 115,699 116,699 116,699 117,699 118,699 119,699 120,699 121,699 122,699 123,699 124,699 125,699 125,699 126,699 127,699 128,699 129,699 130,699 131,699 132,699 133,699 134,699 134,699 135,699 136,699 137,699 138,699 139,699 140,699 141,699 142,699 142,699 143,699 144,699 145,699 146,699 147,699 148,699 149,699 150,699 151,699 151,699 152,699 153,699 154,699 155,699 156,699 157,699 158,699 159,699 159,699 160,699 161,699 162,699 163,699 164,699 165,699 166,699 167,699 168,699 168,699 169,699 170,699 171,699 172,699 173,699 174,699 175,699 176,699 176,699 177,699 178,699 179,699 180,699 181,699 182,699 183,699 184,699 185,699 185,699 186,699 187,699 188,699 189,699 190,699 191,699 192,699 193,699 193,699 194,699 195,699 196,699 197,699 198,699 199,699 200,699 201,699 202,699 202,699 203,699 204,699 205,699 206,699 207,699 208,699 209,699 210,699 210,699 211,699 212,699 213,699 214,699 215,699 216,699 217,699 218,699 219,699 219,699 220,699 221,699 222,699 223,699 224,699 225,699 226,699 227,699 227,699 228,699 229,699 230,699 231,699 232,699 233,699 234,699 235,699 236,699 236,699 237,699 238,699 239,699 240,699 241,699 242,699 243,699 244,699 244,699 245,699 246,699 247,699 248,699 249,699 250,699 251,699 252,699 253,699 253,699 254,699 255,699 256,699 257,699 258,699 259,699 260,699 261,699 261,699 262,699 263,699 264,699 265,699 266,699 267,699 268,699 269,699 270,699 270,699 271,699 272,699 273,699 274,699 275,699 276,699 277,699 278,699 278,699 279,699 280,699 281,699 282,699 283,699 284,699 285,699 286,699 287,699 287,699 288,699 289,699 290,699 291,699 292,699 293,699 294,699 295,699 295,699 296,699 297,699 298,699 299,699 300,699 301,699 302,699 303,699 304,699 304,699 305,699 306,699 307,699 308,699 309,699 310,699 311,699 312,699 312,699 313,699 314,699 315,699 316,699 317,699 318,699 319,699 320,699 321,699 321,699 322,699 323,699 324,699 325,699 326,699 327,699 328,699 329,699 329,699 330,699 331,699 332,699 333,699 334,699 335,699 336,699 337,699 338,699 338,699 339,699 340,699 341,699 342,699 343,699 344,699 345,699 346,699 347,699 347,699 348,699 349,699 350,699 351,699 352,699 353,699 354,699 355,699 355,699 356,699 357,699 358,699 359,699 360,699 361,699 362,699 363,699 364,699 364,699 365,699 366,699 367,699 368,699 369,699 370,699 371,699 372,699 372,699 373,699 374,699 375,699 376,699 377,699 378,699 379,699 380,699 381,699 381,699 382,699 383,699 384,699 385,699 386,699 387,699 388,699 389,699 389,699 390,699 391,699 392,699 393,699 394,699 395,699 396,699 397,699 398,699 398,699 399,699 400,699 401,699 402,699 403,699 404,699 405,699 406,699 406,699 407,699 408,699 409,699 410,699 411,699 412,699 413,699 414,699 415,699 415,699 416,699 417,699 418,699 419,699 420,699 421,699 422,699 423,699 423,699 424,699 425,699 426,699 427,699 428,699 429,698 430,698 431,698 432,698 432,698 433,698 434,698 435,698 436,698 437,698 438,698 439,698 440,698 440,698 441,698 442,698 443,698 444,698 445,698 446,698 447,698 448,698 449,698 449,698 450,698 451,698 452,698 453,698 454,698 455,698 456,698 457,698 457,697 458,695 459,694 460,693 461,692 462,691 463,690 464,689 465,688 466,687 466,685 467,684 468,683 469,682 470,681 471,680 472,679 473,678 474,677 474,676 475,675 476,673 477,672 478,671 479,670 480,669 481,668 482,667 483,666 483,665 484,664 485,663 486,661 487,660 488,659 489,658 490,657 491,656 491,655 492,654 493,653 494,652 495,650 496,649 497,648 498,647 499,646 500,645 500,644 501,643 502,642 503,641 504,640 505,639 506,637 507,636 508,635 508,634 509,633 510,632 511,631 512,630 513,629 514,628 515,626 516,625 517,624 517,623 518,622 519,621 520,620 521,619 522,618 523,617 524,616 525,615 525,613 526,612 527,611 528,610 529,609 530,608 531,607 532,606 533,605 534,604 534,603 535,602 536,600 537,599 538,598 539,597 540,596 541,595 542,594 542,593 543,592 544,591 545,590 546,588 547,587 548,586 549,585 550,584 551,583 551,582 552,581 553,580 554,579 555,578 556,576 557,575 558,574 559,573 560,572 560,571 561,570 562,569 563,568 564,567 565,566 566,565 567,564 568,563 568,562 569,561 570,560 571,558 572,557 573,556 574,555 575,554 576,553 577,552 577,551 578,550 579,549 580,548 581,547 582,546 583,545 584,544 585,542 585,541 586,540 587,539 588,538 589,537 590,536 591,535 592,534 593,533 594,532 594,531 595,529 596,528 597,527 598,526 599,525 600,524 601,523 602,522 602,521 603,520 604,518 605,517 606,516 607,515 608,514 609,513 610,512 611,511 611,509 612,508 613,507 614,506 615,505 616,504 617,503 618,502 619,501 619,500 620,499 621,498 622,496 623,495 624,494 625,493 626,492 627,491 628,490 628,489 629,488 630,487 631,486 632,485 633,484 634,483 635,481 636,480 636,479 637,478 638,477 639,476 640,475 641,474 642,473 643,472 644,471 645,470 645,469 646,467 647,466 648,465 649,464 650,463 651,462 652,461 653,460 653,459 654,458 655,456 656,455 657,454 658,453 659,452 660,451 661,450 662,449 662,448 663,447 664,446 665,445 666,444 667,443 668,442 669,440 670,439 670,438 671,437 672,436 673,435 674,434 675,433 676,432 677,431 678,430 679,429 679,428 680,426 681,425 682,424 683,423 684,422 685,421 686,420 687,419 687,418 688,417 689,415 690,414 691,413 692,412 693,411 694,410 695,409 696,408 696,407 697,406 698,405 699,404 700,402 701,401 702,400 703,399 704,398 704,397 705,396 706,395 707,394 708,393 709,392 710,391 711,390 712,388 713,387 713,386 714,385 715,384 716,383 717,382 718,381 719,380 720,379 721,378 721,377 722,375 723,374 724,373 725,372 726,371 727,370 728,369 729,368 730,367 730,366 731,365 732,363 733,362 734,361 735,360 736,359 737,358 738,357 738,356 739,355 740,354 741,353 742,351 743,350 744,349 745,348 746,347 747,346 747,345 748,344 749,343 750,341 751,340 752,339 753,338 754,337 755,336 755,335 756,334 757,333 758,332 759,330 760,329 761,328 762,327 763,326 764,325 764,324 765,323 766,322 767,321 768,320 769,318 770,317 771,316 772,315 773,314 773,313 774,312 775,311 776,310 777,309 778,308 779,307 780,305 781,304 781,303 782,302 783,301 784,300 785,299 786,298 787,297 788,296 789,295 790,294 790,293 791,292 792,290 793,289 794,288 795,287 796,286 797,285 798,284 798,283 799,282 800,281 801,280 802,278 803,277 804,276 805,275 806,274 807,273 807,272 808,271 809,270 810,269 811,268 812,266 813,265 814,264 815,263 815,262 816,261 817,260 818,259 819,258 820,257 821,256 822,254 823,253 824,252 824,251 825,250 826,249 827,248 828,247 829,246 830,244 831,243 832,242 832,241 833,240 834,239 835,238 836,237 837,236 838,235 839,234 840,233 841,232 841,230 842,229 843,228 844,227 845,226 846,225 847,224 848,223 849,222 849,221 850,220 851,219 852,218 853,216 854,215 855,214 856,213 857,212 858,211 858,210 859,208 860,207 861,206 862,205 863,204 864,203 865,202 866,201 866,200 867,199 868,198 869,197 870,196 871,194 872,193 873,192 874,191 875,190 875,189 876,188 877,187 878,186 879,185 880,183 881,182 882,181 883,180 883,179 884,178 885,177 886,176 887,175 888,174 889,173 890,172 891,171 892,170 892,168 893,167 894,166 895,165 896,164 897,163 898,162 899,161 900,159 900,158 901,157 902,156 903,155 904,154 905,153 906,152 907,151 908,149 909,148 909,147 910,146 911,145 912,144 913,143 914,142 915,141 916,140 917,138 917,137 918,136 919,135 920,134 921,133 922,132 923,130 924,129 925,128 926,127 926,126 927,125 928,124 929,123 930,122 931,121 932,119 933,118 934,117 934,116 935,115 936,114 937,113 938,112 939,111 940,110 941,109 942,108 943,106 943,105 944,104 945,103 946,102 947,101 948,100 949,99 950,98 951,96 951,95 952,94 953,93 954,92 955,91 956,90 957,89 958,88 959,86 960,85 960,84 961,83 962,82 963,81 964,80 965,79 966,78 967,76 968,75 968,74 969,73 970,72 971,71 972,70 972,70 973,70 973,699 78,699 "/>
<polyline fill="none" opacity="1" stroke="#E6194B" stroke-width="1" points="78,699 79,699 80,699 81,699 82,699 82,699 83,699 84,699 85,699 86,699 87,699 88,699 89,699 90,699 91,699 91,699 92,699 93,699 94,699 95,699 96,699 97,699 98,699 99,699 99,699 100,699 101,699 102,699 103,699 104,699 105,699 106,699 107,699 108,699 108,699 109,699 110,699 111,699 112,699 113,699 114,699 115,699 116,699 116,699 117,699 118,699 119,699 120,699 121,699 122,699 123,699 124,699 125,699 125,699 126,699 127,699 128,699 129,699 130,699 131,699 132,699 133,699 134,699 134,699 135,699 136,699 137,699 138,699 139,699 140,699 141,699 142,699 142,699 143,699 144,699 145,699 146,699 147,699 148,699 149,699 150,699 151,699 151,699 152,699 153,699 154,699 155,699 156,699 157,699 158,699 159,699 159,699 160,699 161,699 162,699 163,699 164,699 165,699 166,699 167,699 168,699 168,699 169,699 170,699 171,699 172,699 173,699 174,699 175,699 176,699 176,699 177,699 178,699 179,699 180,699 181,699 182,699 183,699 184,699 185,699 185,699 186,699 187,699 188,699 189,699 190,699 191,699 192,699 193,699 193,699 194,699 195,699 196,699 197,699 198,699 199,699 200,699 201,699 202,699 202,699 203,699 204,699 205,699 206,699 207,699 208,699 209,699 210,699 210,699 211,699 212,699 213,699 214,699 215,699 216,699 217,699 218,699 219,699 219,699 220,699 221,699 222,699 223,699 224,699 225,699 226,699 227,699 227,699 228,699 229,699 230,699 231,699 232,699 233,699 234,699 235,699 236,699 236,699 237,699 238,699 239,699 240,699 241,699 242,699 243,699 244,699 244,699 245,699 246,699 247,699 248,699 249,699 250,699 251,699 252,699 253,699 253,699 254,699 255,699 256,699 257,699 258,699 259,699 260,699 261,699 261,699 262,699 263,699 264,699 265,699 266,699 267,699 268,699 269,699 270,699 270,699 271,699 272,699 273,699 274,699 275,699 276,699 277,699 278,699 278,699 279,699 280,699 281,699 282,699 283,699 284,699 285,699 286,699 287,699 287,699 288,699 289,699 290,699 291,699 292,699 293,699 294,699 295,699 295,699 296,699 297,699 298,699 299,699 300,699 301,699 302,699 303,699 304,699 304,699 305,699 306,699 307,699 308,699 309,699 310,699 311,699 312,699 312,699 313,699 314,699 315,699 316,699 317,699 318,699 319,699 320,699 321,699 321,699 322,699 323,699 324,699 325,699 326,699 327,699 328,699 329,699 329,699 330,699 331,699 332,699 333,699 334,699 335,699 336,699 337,699 338,699 338,699 339,699 340,699 341,699 342,699 343,699 344,699 345,699 346,699 347,699 347,699 348,699 349,699 350,699 351,699 352,699 353,699 354,699 355,699 355,699 356,699 357,699 358,699 359,699 360,699 361,699 362,699 363,699 364,699 364,699 365,699 366,699 367,699 368,699 369,699 370,699 371,699 372,699 372,699 373,699 374,699 375,699 376,699 377,699 378,699 379,699 380,699 381,699 381,699 382,699 383,699 384,699 385,699 386,699 387,699 388,699 389,699 389,699 390,699 391,699 392,699 393,699 394,699 395,699 396,699 397,699 398,699 398,699 399,699 400,699 401,699 402,699 403,699 404,699 405,699 406,699 406,699 407,699 408,699 409,699 410,699 411,699 412,699 413,699 414,699 415,699 415,699 416,699 417,699 418,699 419,699 420,699 421,699 422,699 423,699 423,699 424,699 425,699 426,699 427,699 428,699 429,698 430,698 431,698 432,698 432,698 433,698 434,698 435,698 436,698 437,698 438,698 439,698 440,698 440,698 441,698 442,698 443,698 444,698 445,698 446,698 447,698 448,698 449,698 449,698 450,698 451,698 452,698 453,698 454,698 455,698 456,698 457,698 457,697 458,695 459,694 460,693 461,692 462,691 463,690 464,689 465,688 466,687 466,685 467,684 468,683 469,682 470,681 471,680 472,679 473,678 474,677 474,676 475,675 476,673 477,672 478,671 479,670 480,669 481,668 482,667 483,666 483,665 484,664 485,663 486,661 487,660 488,659 489,658 490,657 491,656 491,655 492,654 493,653 494,652 495,650 496,649 497,648 498,647 499,646 500,645 500,644 501,643 502,642 503,641 504,640 505,639 506,637 507,636 508,635 508,634 509,633 510,632 511,631 512,630 513,629 514,628 515,626 516,625 517,624 517,623 518,622 519,621 520,620 521,619 522,618 523,617 524,616 525,615 525,613 526,612 527,611 528,610 529,609 530,608 531,607 532,606 533,605 534,604 534,603 535,602 536,600 537,599 538,598 539,597 540,596 541,595 542,594 542,593 543,592 544,591 545,590 546,588 547,587 548,586 549,585 550,584 551,583 551,582 552,581 553,580 554,579 555,578 556,576 557,575 558,574 559,573 560,572 560,571 561,570 562,569 563,568 564,567 565,566 566,565 567,564 568,563 568,562 569,561 570,560 571,558 572,557 573,556 574,555 575,554 576,553 577,552 577,551 578,550 579,549 580,548 581,547 582,546 583,545 584,544 585,542 585,541 586,540 587,539 588,538 589,537 590,536 591,535 592,534 593,533 594,532 594,531 595,529 596,528 597,527 598,526 599,525 600,524 601,523 602,522 602,521 603,520 604,518 605,517 606,516 607,515 608,514 609,513 610,512 611,511 611,509 612,508 613,507 614,506 615,505 616,504 617,503 618,502 619,501 619,500 620,499 621,498 622,496 623,495 624,494 625,493 626,492 627,491 628,490 628,489 629,488 630,487 631,486 632,485 633,484 634,483 635,481 636,480 636,479 637,478 638,477 639,476 640,475 641,474 642,473 643,472 644,471 645,470 645,469 646,467 647,466 648,465 649,464 650,463 651,462 652,461 653,460 653,459 654,458 655,456 656,455 657,454 658,453 659,452 660,451 661,450 662,449 662,448 663,447 664,446 665,445 666,444 667,443 668,442 669,440 670,439 670,438 671,437 672,436 673,435 674,434 675,433 676,432 677,431 678,430 679,429 679,428 680,426 681,425 682,424 683,423 684,422 685,421 686,420 687,419 687,418 688,417 689,415 690,414 691,413 692,412 693,411 694,410 695,409 696,408 696,407 697,406 698,405 699,404 700,402 701,401 702,400 703,399 704,398 704,397 705,396 706,395 707,394 708,393 709,392 710,391 711,390 712,388 713,387 713,386 714,385 715,384 716,383 717,382 718,381 719,380 720,379 721,378 721,377 722,375 723,374 724,373 725,372 726,371 727,370 728,369 729,368 730,367 730,366 731,365 732,363 733,362 734,361 735,360 736,359 737,358 738,357 738,356 739,355 740,354 741,353 742,351 743,350 744,349 745,348 746,347 747,346 747,345 748,344 749,343 750,341 751,340 752,339 753,338 754,337 755,336 755,335 756,334 757,333 758,332 759,330 760,329 761,328 762,327 763,326 764,325 764,324 765,323 766,322 767,321 768,320 769,318 770,317 771,316 772,315 773,314 773,313 774,312 775,311 776,310 777,309 778,308 779,307 780,305 781,304 781,303 782,302 783,301 784,300 785,299 786,298 787,297 788,296 789,295 790,294 790,293 791,292 792,290 793,289 794,288 795,287 796,286 797,285 798,284 798,283 799,282 800,281 801,280 802,278 803,277 804,276 805,275 806,274 807,273 807,272 808,271 809,270 810,269 811,268 812,266 813,265 814,264 815,263 815,262 816,261 817,260 818,259 819,258 820,257 821,256 822,254 823,253 824,252 824,251 825,250 826,249 827,248 828,247 829,246 830,244 831,243 832,242 832,241 833,240 834,239 835,238 836,237 837,236 838,235 839,234 840,233 841,232 841,230 842,229 843,228 844,227 845,226 846,225 847,224 848,223 849,222 849,221 850,220 851,219 852,218 853,216 854,215 855,214 856,213 857,212 858,211 858,210 859,208 860,207 861,206 862,205 863,204 864,203 865,202 866,201 866,200 867,199 868,198 869,197 870,196 871,194 872,193 873,192 874,191 875,190 875,189 876,188 877,187 878,186 879,185 880,183 881,182 882,181 883,180 883,179 884,178 885,177 886,176 887,175 888,174 889,173 890,172 891,171 892,170 892,168 893,167 894,166 895,165 896,164 897,163 898,162 899,161 900,159 900,158 901,157 902,156 903,155 904,154 905,153 906,152 907,151 908,149 909,148 909,147 910,146 911,145 912,144 913,143 914,142 915,141 916,140 917,138 917,137 918,136 919,135 920,134 921,133 922,132 923,130 924,129 925,128 926,127 926,126 927,125 928,124 929,123 930,122 931,121 932,119 933,118 934,117 934,116 935,115 936,114 937,113 938,112 939,111 940,110 941,109 942,108 943,106 943,105 944,104 945,103 946,102 947,101 948,100 949,99 950,98 951,96 951,95 952,94 953,93 954,92 955,91 956,90 957,89 958,88 959,86 960,85 960,84 961,83 962,82 963,81 964,80 965,79 966,78 967,76 968,75 968,74 969,73 970,72 971,71 972,70 972,70 973,70 "/>
<line opacity="0.1" stroke="#000000" stroke-width="1" x1="84" y1="699" x2="84" y2="68"/>
<line opacity="0.1" stroke="#000000" stroke-width="1" x1="95" y1="699" x2="95" y2="68"/>
<line opacity="0.1" stroke="#000000" stroke-width="1" x1="106" y1="699" x2="106" y2="68"/>
<line opacity="0.1" stroke="#000000" stroke-width="1" x1="118" y1="699" x2="118" y2="68"/>
<line opacity="0.1" stroke="#000000" stroke-width="1" x1="129" y1="699" x2="129" y2="68"/>
<line opacity="0.1" stroke="#000000" stroke-width="1" x1="140" y1="699" x2="140" y2="68"/>
<line opacity="0.1" stroke="#000000" stroke-width="1" x1="151" y1="699" x2="151" y2="68"/>
<line opacity="0.1" stroke="#000000" stroke-width="1" x1="162" y1="699" x2="162" y2="68"/>
<line opacity="0.1" stroke="#000000" stroke-width="1" x1="174" y1="699" x2="174" y2="68"/>
<line opacity="0.1" stroke="#000000" stroke-width="1" x1="185" y1="699" x2="185" y2="68"/>
<line opacity="0.1" stroke="#000000" stroke-width="1" x1="196" y1="699" x2="196" y2="68"/>
<line opacity="0.1" stroke="#000000" stroke-width="1" x1="207" y1="699" x2="207" y2="68"/>
<line opacity="0.1" stroke="#000000" stroke-width="1" x1="218" y1="699" x2="218" y2="68"/>
<line opacity="0.1" stroke="#000000" stroke-width="1" x1="229" y1="699" x2="229" y2="68"/>
<line opacity="0.1" stroke="#000000" stroke-width="1" x1="241" y1="699" x2="241" y2="68"/>
<line opacity="0.1" stroke="#000000" stroke-width="1" x1="252" y1="699" x2="252" y2="68"/>
<line opacity="0.1" stroke="#000000" stroke-width="1" x1="263" y1="699" x2="263" y2="68"/>
<line opacity="0.1" stroke="#000000" stroke-width="1" x1="274" y1="699" x2="274" y2="68"/>
<line opacity="0.1" stroke="#000000" stroke-width="1" x1="285" y1="699" x2="285" y2="68"/>
<line opacity="0.1" stroke="#000000" stroke-width="1" x1="297" y1="699" x2="297" y2="68"/>
<line opacity="0.1" stroke="#000000" stroke-width="1" x1="308" y1="699" x2="308" y2="68"/>
<line opacity="0.1" stroke="#000000" stroke-width="1" x1="319" y1="699" x2="319" y2="68"/>
<line opacity="0.1" stroke="#000000" stroke-width="1" x1="330" y1="699" x2="330" y2="68"/>
<line opacity="0.1" stroke="#000000" stroke-width="1" x1="341" y1="699" x2="341" y2="68"/>
<line opacity="0.1" stroke="#000000" stroke-width="1" x1="352" y1="699" x2="352" y2="68"/>
<line opacity="0.1" stroke="#000000" stroke-width="1" x1="364" y1="699" x2="364" y2="68"/>
<line opacity="0.1" stroke="#000000" stroke-width="1" x1="375" y1="699" x2="375" y2="68"/>
<line opacity="0.1" stroke="#000000" stroke-width="1" x1="386" y1="699" x2="386" y2="68"/>
<line opacity="0.1" stroke="#000000" stroke-width="1" x1="397" y1="699" x2="397" y2="68"/>
<line opacity="0.1" stroke="#000000" stroke-width="1" x1="408" y1="699" x2="408" y2="68"/>
<line opacity="0.1" stroke="#000000" stroke-width="1" x1="420" y1="699" x2="420" y2="68"/>
<line opacity="0.1" stroke="#000000" stroke-width="1" x1="431" y1="699" x2="431" y2="68"/>
<line opacity="0.1" stroke="#000000" stroke-width="1" x1="442" y1="699" x2="442" y2="68"/>
<line opacity="0.1" stroke="#000000" stroke-width="1" x1="453" y1="699" x2="453" y2="68"/>
<line opacity="0.1" stroke="#000000" stroke-width="1" x1="464" y1="699" x2="464" y2="68"/>
<line opacity="0.1" stroke="#000000" stroke-width="1" x1="476" y1="699" x2="476" y2="68"/>
<line opacity="0.1" stroke="#000000" stroke-width="1" x1="487" y1="699" x2="487" y2="68"/>
<line opacity="0.1" stroke="#000000" stroke-width="1" x1="498" y1="699" x2="498" y2="68"/>
<line opacity="0.1" stroke="#000000" stroke-width="1" x1="509" y1="699" x2="509" y2="68"/>
<line opacity="0.1" stroke="#000000" stroke-width="1" x1="520" y1="699" x2="520" y2="68"/>
<line opacity="0.1" stroke="#000000" stroke-width="1" x1="531" y1="699" x2="531" y2="68"/>
<line opacity="0.1" stroke="#000000" stroke-width="1" x1="543" y1="699" x2="543" y2="68"/>
<line opacity="0.1" stroke="#000000" stroke-width="1" x1="554" y1="699" x2="554" y2="68"/>
<line opacity="0.1" stroke="#000000" stroke-width="1" x1="565" y1="699" x2="565" y2="68"/>
<line opacity="0.1" stroke="#000000" stroke-width="1" x1="576" y1="699" x2="576" y2="68"/>
<line opacity="0.1" stroke="#000000" stroke-width="1" x1="587" y1="699" x2="587" y2="68"/>
<line opacity="0.1" stroke="#000000" stroke-width="1" x1="599" y1="699" x2="599" y2="68"/>
<line opacity="0.1" stroke="#000000" stroke-width="1" x1="610" y1="699" x2="610" y2="68"/>
<line opacity="0.1" stroke="#000000" stroke-width="1" x1="621" y1="699" x2="621" y2="68"/>
<line opacity="0.1" stroke="#000000" stroke-width="1" x1="632" y1="699" x2="632" y2="68"/>
<line opacity="0.1" stroke="#000000" stroke-width="1" x1="643" y1="699" x2="643" y2="68"/>
<line opacity="0.1" stroke="#000000" stroke-width="1" x1="654" y1="699" x2="654" y2="68"/>
<line opacity="0.1" stroke="#000000" stroke-width="1" x1="666" y1="699" x2="666" y2="68"/>
<line opacity="0.1" stroke="#000000" stroke-width="1" x1="677" y1="699" x2="677" y2="68"/>
<line opacity="0.1" stroke="#000000" stroke-width="1" x1="688" y1="699" x2="688" y2="68"/>
<line opacity="0.1" stroke="#000000" stroke-width="1" x1="699" y1="699" x2="699" y2="68"/>
<line opacity="0.1" stroke="#000000" stroke-width="1" x1="710" y1="699" x2="710" y2="68"/>
<line opacity="0.1" stroke="#000000" stroke-width="1" x1="722" y1="699" x2="722" y2="68"/>
<line opacity="0.1" stroke="#000000" stroke-width="1" x1="733" y1="699" x2="733" y2="68"/>
<line opacity="0.1" stroke="#000000" stroke-width="1" x1="744" y1="699" x2="744" y2="68"/>
<line opacity="0.1" stroke="#000000" stroke-width="1" x1="755" y1="699" x2="755" y2="68"/>
<line opacity="0.1" stroke="#000000" stroke-width="1" x1="766" y1="699" x2="766" y2="68"/>
<line opacity="0.1" stroke="#000000" stroke-width="1" x1="777" y1="699" x2="777" y2="68"/>
<line opacity="0.1" stroke="#000000" stroke-width="1" x1="789" y1="699" x2="789" y2="68"/>
<line opacity="0.1" stroke="#000000" stroke-width="1" x1="800" y1="699" x2="800" y2="68"/>
<line opacity="0.1" stroke="#000000" stroke-width="1" x1="811" y1="699" x2="811" y2="68"/>
<line opacity="0.1" stroke="#000000" stroke-width="1" x1="822" y1="699" x2="822" y2="68"/>
<line opacity="0.1" stroke="#000000" stroke-width="1" x1="833" y1="699" x2="833" y2="68"/>
<line opacity="0.1" stroke="#000000" stroke-width="1" x1="845" y1="699" x2="845" y2="68"/>
<line opacity="0.1" stroke="#000000" stroke-width="1" x1="856" y1="699" x2="856" y2="68"/>
<line opacity="0.1" stroke="#000000" stroke-width="1" x1="867" y1="699" x2="867" y2="68"/>
<line opacity="0.1" stroke="#000000" stroke-width="1" x1="878" y1="699" x2="878" y2="68"/>
<line opacity="0.1" stroke="#000000" stroke-width="1" x1="889" y1="699" x2="889" y2="68"/>
<line opacity="0.1" stroke="#000000" stroke-width="1" x1="900" y1="699" x2="900" y2="68"/>
<line opacity="0.1" stroke="#000000" stroke-width="1" x1="912" y1="699" x2="912" y2="68"/>
<line opacity="0.1" stroke="#000000" stroke-width="1" x1="923" y1="699" x2="923" y2="68"/>
<line opacity="0.1" stroke="#000000" stroke-width="1" x1="934" y1="699" x2="934" y2="68"/>
<line opacity="0.1" stroke="#000000" stroke-width="1" x1="945" y1="699" x2="945" y2="68"/>
<line opacity="0.1" stroke="#000000" stroke-width="1" x1="956" y1="699" x2="956" y2="68"/>
<line opacity="0.1" stroke="#000000" stroke-width="1" x1="968" y1="699" x2="968" y2="68"/>
<line opacity="0.1" stroke="#000000" stroke-width="1" x1="78" y1="699" x2="973" y2="699"/>
<line opacity="0.1" stroke="#000000" stroke-width="1" x1="78" y1="687" x2="973" y2="687"/>
<line opacity="0.1" stroke="#000000" stroke-width="1" x1="78" y1="676" x2="973" y2="676"/>
<line opacity="0.1" stroke="#000000" stroke-width="1" x1="78" y1="665" x2="973" y2="665"/>
<line opacity="0.1" stroke="#000000" stroke-width="1" x1="78" y1="654" x2="973" y2="654"/>
<line opacity="0.1" stroke="#000000" stroke-width="1" x1="78" y1="643" x2="973" y2="643"/>
<line opacity="0.1" stroke="#000000" stroke-width="1" x1="78" y1="632" x2="973" y2="632"/>
<line opacity="0.1" stroke="#000000" stroke-width="1" x1="78" y1="621" x2="973" y2="621"/>
<line opacity="0.1" stroke="#000000" stroke-width="1" x1="78" y1="610" x2="973" y2="610"/>
<line opacity="0.1" stroke="#000000" stroke-width="1" x1="78" y1="599" x2="973" y2="599"/>
<line opacity="0.1" stroke="#000000" stroke-width="1" x1="78" y1="587" x2="973" y2="587"/>
<line opacity="0.1" stroke="#000000" stroke-width="1" x1="78" y1="576" x2="973" y2="576"/>
<line opacity="0.1" stroke="#000000" stroke-width="1" x1="78" y1="565" x2="973" y2="565"/>
<line opacity="0.1" stroke="#000000" stroke-width="1" x1="78" y1="554" x2="973" y2="554"/>
<line opacity="0.1" stroke="#000000" stroke-width="1" x1="78" y1="543" x2="973" y2="543"/>
<line opacity="0.1" stroke="#000000" stroke-width="1" x1="78" y1="532" x2="973" y2="532"/>
<line opacity="0.1" stroke="#000000" stroke-width="1" x1="78" y1="521" x2="973" y2="521"/>
<line opacity="0.1" stroke="#000000" stroke-width="1" x1="78" y1="510" x2="973" y2="510"/>
<line opacity="0.1" stroke="#000000" stroke-width="1" x1="78" y1="499" x2="973" y2="499"/>
<line opacity="0.1" stroke="#000000" stroke-width="1" x1="78" y1="487" x2="973" y2="487"/>
<line opacity="0.1" stroke="#000000" stroke-width="1" x1="78" y1="476" x2="973" y2="476"/>
<line opacity="0.1" stroke="#000000" stroke-width="1" x1="78" y1="465" x2="973" y2="465"/>
<line opacity="0.1" stroke="#000000" stroke-width="1" x1="78" y1="454" x2="973" y2="454"/>
<line opacity="0.1" stroke="#000000" stroke-width="1" x1="78" y1="443" x2="973" y2="443"/>
<line opacity="0.1" stroke="#000000" stroke-width="1" x1="78" y1="432" x2="973" y2="432"/>
<line opacity="0.1" stroke="#000000" stroke-width="1" x1="78" y1="421" x2="973" y2="421"/>
<line opacity="0.1" stroke="#000000" stroke-width="1" x1="78" y1="410" x2="973" y2="410"/>
<line opacity="0.1" stroke="#000000" stroke-width="1" x1="78" y1="399" x2="973" y2="399"/>
<line opacity="0.1" stroke="#000000" stroke-width="1" x1="78" y1="387" x2="973" y2="387"/>
<line opacity="0.1" stroke="#000000" stroke-width="1" x1="78" y1="376" x2="973" y2="376"/>
<line opacity="0.1" stroke="#000000" stroke-width="1" x1="78" y1="365" x2="973" y2="365"/>
<line opacity="0.1" stroke="#000000" stroke-width="1" x1="78" y1="354" x2="973" y2="354"/>
<line opacity="0.1" stroke="#000000" stroke-width="1" x1="78" y1="343" x2="973" y2="343"/>
<line opacity="0.1" stroke="#000000" stroke-width="1" x1="78" y1="332" x2="973" y2="332"/>
<line opacity="0.1" stroke="#000000" stroke-width="1" x1="78" y1="321" x2="973" y2="321"/>
<line opacity="0.1" stroke="#000000" stroke-width="1" x1="78" y1="310" x2="973" y2="310"/>
<line opacity="0.1" stroke="#000000" stroke-width="1" x1="78" y1="299" x2="973" y2="299"/>
<line opacity="0.1" stroke="#000000" stroke-width="1" x1="78" y1="287" x2="973" y2="287"/>
<line opacity="0.1" stroke="#000000" stroke-width="1" x1="78" y1="276" x2="973" y2="276"/>
<line opacity="0.1" stroke="#000000" stroke-width="1" x1="78" y1="265" x2="973" y2="265"/>
<line opacity="0.1" stroke="#000000" stroke-width="1" x1="78" y1="254" x2="973" y2="254"/>
<line opacity="0.1" stroke="#000000" stroke-width="1" x1="78" y1="243" x2="973" y2="243"/>
<line opacity="0.1" stroke="#000000" stroke-width="1" x1="78" y1="232" x2="973" y2="232"/>
<line opacity="0.1" stroke="#000000" stroke-width="1" x1="78" y1="221" x2="973" y2="221"/>
<line opacity="0.1" stroke="#000000" stroke-width="1" x1="78" y1="210" x2="973" y2="210"/>
<line opacity="0.1" stroke="#000000" stroke-width="1" x1="78" y1="199" x2="973" y2="199"/>
<line opacity="0.1" stroke="#000000" stroke-width="1" x1="78" y1="187" x2="973" y2="187"/>
<line opacity="0.1" stroke="#000000" stroke-width="1" x1="78" y1="176" x2="973" y2="176"/>
<line opacity="0.1" stroke="#000000" stroke-width="1" x1="78" y1="165" x2="973" y2="165"/>
<line opacity="0.1" stroke="#000000" stroke-width="1" x1="78" y1="154" x2="973" y2="154"/>
<line opacity="0.1" stroke="#000000" stroke-width="1" x1="78" y1="143" x2="973" y2="143"/>
<line opacity="0.1" stroke="#000000" stroke-width="1" x1="78" y1="132" x2="973" y2="132"/>
<line opacity="0.1" stroke="#000000" stroke-width="1" x1="78" y1="121" x2="973" y2="121"/>
<line opacity="0.1" stroke="#000000" stroke-width="1" x1="78" y1="110" x2="973" y2="110"/>
<line opacity="0.1" stroke="#000000" stroke-width="1" x1="78" y1="99" x2="973" y2="99"/>
<line opacity="0.1" stroke="#000000" stroke-width="1" x1="78" y1="88" x2="973" y2="88"/>
<line opacity="0.1" stroke="#000000" stroke-width="1" x1="78" y1="76" x2="973" y2="76"/>
<text x="8" y="384" dy="0.76em" text-anchor="middle" font-family="sans-serif" font-size="9.67741935483871" opacity="1" fill="#000000" transform="rotate(270, 8, 384)">
Memory usage
</text>
<text x="526" y="760" dy="-0.5ex" text-anchor="middle" font-family="sans-serif" font-size="9.67741935483871" opacity="1" fill="#000000">
Time
</text>
<line opacity="0.2" stroke="#000000" stroke-width="1" x1="106" y1="699" x2="106" y2="68"/>
<line opacity="0.2" stroke="#000000" stroke-width="1" x1="218" y1="699" x2="218" y2="68"/>
<line opacity="0.2" stroke="#000000" stroke-width="1" x1="330" y1="699" x2="330" y2="68"/>
<line opacity="0.2" stroke="#000000" stroke-width="1" x1="442" y1="699" x2="442" y2="68"/>
<line opacity="0.2" stroke="#000000" stroke-width="1" x1="554" y1="699" x2="554" y2="68"/>
<line opacity="0.2" stroke="#000000" stroke-width="1" x1="666" y1="699" x2="666" y2="68"/>
<line opacity="0.2" stroke="#000000" stroke-width="1" x1="777" y1="699" x2="777" y2="68"/>
<line opacity="0.2" stroke="#000000" stroke-width="1" x1="889" y1="699" x2="889" y2="68"/>
<line opacity="0.2" stroke="#000000" stroke-width="1" x1="78" y1="699" x2="973" y2="699"/>
<line opacity="0.2" stroke="#000000" stroke-width="1" x1="78" y1="587" x2="973" y2="587"/>
<line opacity="0.2" stroke="#000000" stroke-width="1" x1="78" y1="476" x2="973" y2="476"/>
<line opacity="0.2" stroke="#000000" stroke-width="1" x1="78" y1="365" x2="973" y2="365"/>
<line opacity="0.2" stroke="#000000" stroke-width="1" x1="78" y1="254" x2="973" y2="254"/>
<line opacity="0.2" stroke="#000000" stroke-width="1" x1="78" y1="143" x2="973" y2="143"/>
<polyline fill="none" opacity="1" stroke="#000000" stroke-width="1" points="77,68 77,699 "/>
<text x="68" y="699" dy="0.5ex" text-anchor="end" font-family="sans-serif" font-size="9.67741935483871" opacity="1" fill="#000000">
0 MB
</text>
<polyline fill="none" opacity="1" stroke="#000000" stroke-width="1" points="72,699 77,699 "/>
<text x="68" y="587" dy="0.5ex" text-anchor="end" font-family="sans-serif" font-size="9.67741935483871" opacity="1" fill="#000000">
19 MB
</text>
<polyline fill="none" opacity="1" stroke="#000000" stroke-width="1" points="72,587 77,587 "/>
<text x="68" y="476" dy="0.5ex" text-anchor="end" font-family="sans-serif" font-size="9.67741935483871" opacity="1" fill="#000000">
38 MB
</text>
<polyline fill="none" opacity="1" stroke="#000000" stroke-width="1" points="72,476 77,476 "/>
<text x="68" y="365" dy="0.5ex" text-anchor="end" font-family="sans-serif" font-size="9.67741935483871" opacity="1" fill="#000000">
57 MB
</text>
<polyline fill="none" opacity="1" stroke="#000000" stroke-width="1" points="72,365 77,365 "/>
<text x="68" y="254" dy="0.5ex" text-anchor="end" font-family="sans-serif" font-size="9.67741935483871" opacity="1" fill="#000000">
76 MB
</text>
<polyline fill="none" opacity="1" stroke="#000000" stroke-width="1" points="72,254 77,254 "/>
<text x="68" y="143" dy="0.5ex" text-anchor="end" font-family="sans-serif" font-size="9.67741935483871" opacity="1" fill="#000000">
95 MB
</text>
<polyline fill="none" opacity="1" stroke="#000000" stroke-width="1" points="72,143 77,143 "/>
<polyline fill="none" opacity="1" stroke="#000000" stroke-width="1" points="78,700 973,700 "/>
<text x="106" y="710" dy="0.76em" text-anchor="middle" font-family="sans-serif" font-size="9.67741935483871" opacity="1" fill="#000000">
07 20:33:20
</text>
<polyline fill="none" opacity="1" stroke="#000000" stroke-width="1" points="106,700 106,705 "/>
<text x="218" y="710" dy="0.76em" text-anchor="middle" font-family="sans-serif" font-size="9.67741935483871" opacity="1" fill="#000000">
08 10:26:40
</text>
<polyline fill="none" opacity="1" stroke="#000000" stroke-width="1" points="218,700 218,705 "/>
<text x="330" y="710" dy="0.76em" text-anchor="middle" font-family="sans-serif" font-size="9.67741935483871" opacity="1" fill="#000000">
09 00:20:00
</text>
<polyline fill="none" opacity="1" stroke="#000000" stroke-width="1" points="330,700 330,705 "/>
<text x="442" y="710" dy="0.76em" text-anchor="middle" font-family="sans-serif" font-size="9.67741935483871" opacity="1" fill="#000000">
09 14:13:20
</text>
<polyline fill="none" opacity="1" stroke="#000000" stroke-width="1" points="442,700 442,705 "/>
<text x="554" y="710" dy="0.76em" text-anchor="middle" font-family="sans-serif" font-size="9.67741935483871" opacity="1" fill="#000000">
10 04:06:40
</text>
<polyline fill="none" opacity="1" stroke="#000000" stroke-width="1" points="554,700 554,705 "/>
<text x="666" y="710" dy="0.76em" text-anchor="middle" font-family="sans-serif" font-size="9.67741935483871" opacity="1" fill="#000000">
10 18:00:00
</text>
<polyline fill="none" opacity="1" stroke="#000000" stroke-width="1" points="666,700 666,705 "/>
<text x="777" y="710" dy="0.76em" text-anchor="middle" font-family="sans-serif" font-size="9.67741935483871" opacity="1" fill="#000000">
11 07:53:20
</text>
<polyline fill="none" opacity="1" stroke="#000000" stroke-width="1" points="777,700 777,705 "/>
<text x="889" y="710" dy="0.76em" text-anchor="middle" font-family="sans-serif" font-size="9.67741935483871" opacity="1" fill="#000000">
11 21:46:40
</text>
<polyline fill="none" opacity="1" stroke="#000000" stroke-width="1" points="889,700 889,705 "/>
<polyline fill="none" opacity="1" stroke="#000000" stroke-width="1" points="78,67 974,67 "/>
<text x="106" y="58" dy="-0.5ex" text-anchor="middle" font-family="sans-serif" font-size="9.67741935483871" opacity="1" fill="#000000">
+03:35:44
</text>
<polyline fill="none" opacity="1" stroke="#000000" stroke-width="1" points="106,62 106,67 "/>
<text x="218" y="58" dy="-0.5ex" text-anchor="middle" font-family="sans-serif" font-size="9.67741935483871" opacity="1" fill="#000000">
+17:29:04
</text>
<polyline fill="none" opacity="1" stroke="#000000" stroke-width="1" points="218,62 218,67 "/>
<text x="330" y="58" dy="-0.5ex" text-anchor="middle" font-family="sans-serif" font-size="9.67741935483871" opacity="1" fill="#000000">
+31:22:24
</text>
<polyline fill="none" opacity="1" stroke="#000000" stroke-width="1" points="330,62 330,67 "/>
<text x="442" y="58" dy="-0.5ex" text-anchor="middle" font-family="sans-serif" font-size="9.67741935483871" opacity="1" fill="#000000">
+45:15:44
</text>
<polyline fill="none" opacity="1" stroke="#000000" stroke-width="1" points="442,62 442,67 "/>
<text x="554" y="58" dy="-0.5ex" text-anchor="middle" font-family="sans-serif" font-size="9.67741935483871" opacity="1" fill="#000000">
+59:09:04
</text>
<polyline fill="none" opacity="1" stroke="#000000" stroke-width="1" points="554,62 554,67 "/>
<text x="666" y="58" dy="-0.5ex" text-anchor="middle" font-family="sans-serif" font-size="9.67741935483871" opacity="1" fill="#000000">
+73:02:24
</text>
<polyline fill="none" opacity="1" stroke="#000000" stroke-width="1" points="666,62 666,67 "/>
<text x="778" y="58" dy="-0.5ex" text-anchor="middle" font-family="sans-serif" font-size="9.67741935483871" opacity="1" fill="#000000">
+86:55:44
</text>
<polyline fill="none" opacity="1" stroke="#000000" stroke-width="1" points="778,62 778,67 "/>
<text x="890" y="58" dy="-0.5ex" text-anchor="middle" font-family="sans-serif" font-size="9.67741935483871" opacity="1" fill="#000000">
+100:49:04
</text>
<polyline fill="none" opacity="1" stroke="#000000" stroke-width="1" points="890,62 890,67 "/>
<rect x="83" y="73" width="99" height="45" opacity="0.75" fill="#FFFFFF" stroke="none"/>
<rect x="83" y="73" width="99" height="45" opacity="1" fill="none" stroke="#000000"/>
<text x="123" y="83" dy="0.76em" text-anchor="start" font-family="sans-serif" font-size="9.67741935483871" opacity="1" fill="#000000">
Temporary
</text>
<text x="123" y="98" dy="0.76em" text-anchor="start" font-family="sans-serif" font-size="9.67741935483871" opacity="1" fill="#000000">
Leaked
</text>
<rect x="93" y="83" width="10" height="10" opacity="1" fill="#3CB44B" stroke="none"/>
<rect x="93" y="98" width="10" height="10" opacity="1" fill="#E6194B" stroke="none"/>
</svg>
