<svg width="1024" height="768" viewBox="0 0 1024 768" xmlns="http://www.w3.org/2000/svg">
<rect x="0" y="0" width="1024" height="768" opacity="1" fill="#FFFFFF" stroke="none"/>
<polygon opacity="1" fill="#3CB44B" points="78,697 79,695 80,694 81,693 82,692 83,691 83,690 84,688 85,687 86,686 87,685 88,684 89,683 90,681 91,680 92,679 92,678 93,677 94,676 95,675 96,673 97,672 98,671 99,670 100,669 100,668 101,666 102,665 103,664 104,663 105,662 106,661 107,659 108,658 109,657 109,656 110,655 111,654 112,652 113,651 114,650 115,649 116,648 117,646 117,645 118,644 119,643 120,642 121,640 122,639 123,638 124,637 125,636 126,635 126,634 127,632 128,631 129,630 130,629 131,627 132,626 133,625 134,624 134,622 135,621 136,620 137,619 138,618 139,616 140,615 141,614 142,613 143,612 143,610 144,609 145,608 146,607 147,606 148,604 149,603 150,602 151,601 151,600 152,599 153,597 154,596 155,595 156,594 157,593 158,592 159,590 160,589 160,588 161,587 162,586 163,584 164,583 165,582 166,581 167,580 168,578 168,577 169,576 170,575 171,574 172,573 173,572 174,570 175,569 176,568 177,567 177,566 178,564 179,563 180,562 181,561 182,560 183,558 184,557 185,556 185,555 186,554 187,553 188,552 189,551 190,549 191,548 192,547 193,546 194,545 194,544 195,542 196,541 197,540 198,539 199,538 200,537 201,535 202,534 202,533 203,532 204,531 205,530 206,528 207,527 208,526 209,525 210,524 211,523 211,522 212,520 213,520 214,518 215,517 216,516 217,515 218,514 219,513 219,512 220,511 221,509 222,508 223,507 224,506 225,505 226,504 227,503 228,502 228,500 229,499 230,498 231,497 232,496 233,495 234,494 235,492 236,491 236,490 237,489 238,488 239,487 240,486 241,485 242,483 243,482 244,481 245,480 245,479 246,478 247,477 248,475 249,474 250,473 251,472 252,471 253,470 254,469 254,467 255,466 256,465 257,464 258,463 259,462 260,460 261,459 262,458 262,457 263,456 264,455 265,454 266,453 267,451 268,450 269,449 270,448 271,447 271,446 272,445 273,443 274,442 275,441 276,440 277,439 278,438 279,437 279,436 280,434 281,433 282,432 283,431 284,430 285,429 286,428 287,426 288,425 288,424 289,423 290,422 291,421 292,420 293,418 294,417 295,416 296,415 296,414 297,413 298,412 299,410 300,409 301,408 302,407 303,406 304,405 305,404 305,402 306,401 307,400 308,399 309,398 310,397 311,396 312,395 313,394 313,392 314,391 315,390 316,388 317,387 318,386 319,385 320,384 321,383 322,382 322,380 323,379 324,378 325,377 326,376 327,374 328,373 329,372 330,371 330,370 331,369 332,368 333,367 334,365 335,364 336,363 337,362 338,361 339,360 339,358 340,357 341,356 342,355 343,354 344,353 345,352 346,350 347,349 347,348 348,347 349,346 350,345 351,344 352,343 353,341 354,340 355,339 356,338 356,337 357,336 358,335 359,333 360,332 361,331 362,330 363,329 364,328 364,327 365,326 366,324 367,323 368,322 369,321 370,320 371,319 372,318 373,316 373,315 374,314 375,313 376,312 377,311 378,310 379,308 380,307 381,306 381,305 382,304 383,303 384,301 385,300 386,299 387,298 388,297 389,296 390,295 390,293 391,292 392,291 393,290 394,289 395,288 396,287 397,285 398,284 398,283 399,282 400,281 401,280 402,279 403,277 404,276 405,275 406,274 407,273 407,272 408,271 409,270 410,268 411,267 412,266 413,265 414,264 415,263 415,261 416,260 417,259 418,258 419,257 420,255 421,254 422,253 423,252 424,251 424,250 425,249 426,247 427,246 428,245 429,244 430,243 431,242 432,240 432,239 433,238 434,237 435,236 436,235 437,233 438,232 439,231 440,230 441,229 441,228 442,226 443,225 444,224 445,223 446,222 447,221 448,220 449,218 449,217 450,216 451,215 452,214 453,213 454,212 455,210 456,209 457,208 458,207 458,206 459,205 460,203 461,202 462,201 463,200 464,199 465,198 466,197 467,196 467,194 468,193 469,192 470,191 471,190 472,188 473,187 474,186 475,185 475,184 476,183 477,181 478,180 479,179 480,178 481,177 482,176 483,175 484,173 484,172 485,171 486,170 487,169 488,168 489,167 490,165 491,164 492,163 492,162 493,161 494,160 495,158 496,157 497,156 498,155 499,153 500,152 501,151 501,150 502,149 503,148 504,146 505,145 506,144 507,143 508,142 509,141 509,139 510,138 511,137 512,136 513,135 514,134 515,132 516,131 517,130 518,129 518,128 519,127 520,125 521,124 522,123 523,122 524,121 525,120 526,119 526,117 527,116 528,115 529,114 530,113 531,112 532,111 533,110 534,109 535,107 535,106 536,105 537,104 538,103 539,102 540,101 541,100 542,98 543,97 543,96 544,95 545,94 546,93 547,92 548,90 549,89 550,88 551,87 552,86 552,85 553,84 554,83 555,81 556,80 557,79 558,78 559,77 560,76 560,75 561,73 562,72 563,71 564,70 565,69 566,68 567,68 568,68 569,68 569,68 570,68 571,68 572,68 573,68 574,68 575,68 576,68 577,68 577,68 578,68 579,68 580,68 581,68 582,68 583,68 584,68 585,68 586,68 586,68 587,68 588,68 589,68 590,68 591,68 592,68 593,68 594,68 594,68 595,68 596,68 597,68 598,68 599,68 600,68 601,68 602,68 603,68 603,68 604,68 605,68 606,68 607,68 608,68 609,68 610,68 611,68 611,68 612,68 613,68 614,68 615,68 616,68 617,68 618,68 619,68 620,68 620,68 621,68 622,68 623,68 624,68 625,68 626,68 627,68 628,68 628,68 629,69 630,69 631,69 632,69 633,69 634,69 635,69 636,69 637,69 637,69 638,69 639,69 640,69 641,69 642,69 643,69 644,69 645,69 645,69 646,69 647,69 648,69 649,69 650,69 651,69 652,69 653,69 654,69 654,69 655,69 656,69 657,69 658,69 659,69 660,69 661,69 662,69 662,69 663,69 664,69 665,69 666,69 667,69 668,69 669,69 670,69 671,69 671,69 672,69 673,69 674,69 675,69 676,69 677,69 678,69 679,69 680,68 680,69 681,68 682,68 683,68 684,68 685,68 686,69 687,68 688,68 688,68 689,68 690,68 691,68 692,68 693,68 694,68 695,68 696,68 697,68 697,68 698,68 699,68 700,68 701,68 702,68 703,68 704,68 705,68 705,68 706,68 707,68 708,68 709,68 710,68 711,68 712,68 713,68 714,68 714,68 715,68 716,68 717,68 718,68 719,68 720,68 721,68 722,68 722,68 723,68 724,68 725,68 726,68 727,68 728,68 729,68 730,68 731,68 731,68 732,68 733,68 734,68 735,68 736,68 737,68 738,68 739,68 739,68 740,68 741,68 742,68 743,68 744,68 745,68 746,68 747,68 748,68 748,68 749,68 750,68 751,68 752,68 753,68 754,68 755,68 756,68 756,68 757,68 758,68 759,68 760,68 761,68 762,68 763,68 764,68 765,68 765,68 766,68 767,68 768,68 769,68 770,68 771,68 772,68 773,68 773,68 774,69 775,69 776,68 777,69 778,69 779,69 780,68 781,68 782,68 782,68 783,68 784,68 785,69 786,68 787,68 788,68 789,68 790,68 790,68 791,68 792,68 793,68 794,68 795,68 796,68 797,68 798,68 799,68 799,68 800,68 801,68 802,68 803,68 804,69 805,69 806,69 807,69 807,69 808,69 809,69 810,69 811,69 812,69 813,69 814,69 815,69 816,69 816,69 817,69 818,69 819,69 820,69 821,69 822,69 823,70 824,69 824,70 825,69 826,70 827,70 828,69 829,69 830,69 831,70 832,69 833,69 833,69 834,69 835,69 836,69 837,69 838,69 839,69 840,69 841,69 841,69 842,69 843,69 844,69 845,69 846,69 847,69 848,69 849,69 850,69 850,69 851,69 852,69 853,69 854,69 855,69 856,69 857,69 858,69 858,69 859,69 860,69 861,69 862,69 863,69 864,69 865,69 866,69 867,69 867,68 868,69 869,68 870,68 871,68 872,68 873,68 874,68 875,68 875,68 876,68 877,68 878,68 879,68 880,68 881,68 882,68 883,68 884,68 884,69 885,68 886,68 887,68 888,68 889,68 890,68 891,68 892,68 893,68 893,68 894,68 895,68 896,68 897,68 898,68 899,68 900,68 901,68 901,68 902,68 903,68 904,68 905,68 906,68 907,68 908,68 909,68 910,69 910,69 911,69 912,69 913,69 914,69 915,69 916,69 917,69 918,69 918,68 919,69 920,68 921,68 922,68 923,69 924,68 925,68 926,68 927,68 927,68 928,68 929,68 930,68 931,68 932,69 933,68 934,68 935,69 935,68 936,68 937,68 938,68 939,68 940,68 941,68 942,68 943,68 944,68 944,68 945,68 946,68 947,69 948,68 949,69 950,69 951,69 952,68 952,68 953,68 954,68 955,68 956,68 957,68 958,68 959,68 960,69 961,69 961,69 962,69 963,69 964,69 965,69 966,69 967,69 968,69 969,69 969,69 970,69 971,69 972,70 972,70 973,70 973,699 78,699 "/>
<polyline fill="none" opacity="1" stroke="#3CB44B" stroke-width="1" points="78,697 79,695 80,694 81,693 82,692 83,691 83,690 84,688 85,687 86,686 87,685 88,684 89,683 90,681 91,680 92,679 92,678 93,677 94,676 95,675 96,673 97,672 98,671 99,670 100,669 100,668 101,666 102,665 103,664 104,663 105,662 106,661 107,659 108,658 109,657 109,656 110,655 111,654 112,652 113,651 114,650 115,649 116,648 117,646 117,645 118,644 119,643 120,642 121,640 122,639 123,638 124,637 125,636 126,635 126,634 127,632 128,631 129,630 130,629 131,627 132,626 133,625 134,624 134,622 135,621 136,620 137,619 138,618 139,616 140,615 141,614 142,613 143,612 143,610 144,609 145,608 146,607 147,606 148,604 149,603 150,602 151,601 151,600 152,599 153,597 154,596 155,595 156,594 157,593 158,592 159,590 160,589 160,588 161,587 162,586 163,584 164,583 165,582 166,581 167,580 168,578 168,577 169,576 170,575 171,574 172,573 173,572 174,570 175,569 176,568 177,567 177,566 178,564 179,563 180,562 181,561 182,560 183,558 184,557 185,556 185,555 186,554 187,553 188,552 189,551 190,549 191,548 192,547 193,546 194,545 194,544 195,542 196,541 197,540 198,539 199,538 200,537 201,535 202,534 202,533 203,532 204,531 205,530 206,528 207,527 208,526 209,525 210,524 211,523 211,522 212,520 213,520 214,518 215,517 216,516 217,515 218,514 219,513 219,512 220,511 221,509 222,508 223,507 224,506 225,505 226,504 227,503 228,502 228,500 229,499 230,498 231,497 232,496 233,495 234,494 235,492 236,491 236,490 237,489 238,488 239,487 240,486 241,485 242,483 243,482 244,481 245,480 245,479 246,478 247,477 248,475 249,474 250,473 251,472 252,471 253,470 254,469 254,467 255,466 256,465 257,464 258,463 259,462 260,460 261,459 262,458 262,457 263,456 264,455 265,454 266,453 267,451 268,450 269,449 270,448 271,447 271,446 272,445 273,443 274,442 275,441 276,440 277,439 278,438 279,437 279,436 280,434 281,433 282,432 283,431 284,430 285,429 286,428 287,426 288,425 288,424 289,423 290,422 291,421 292,420 293,418 294,417 295,416 296,415 296,414 297,413 298,412 299,410 300,409 301,408 302,407 303,406 304,405 305,404 305,402 306,401 307,400 308,399 309,398 310,397 311,396 312,395 313,394 313,392 314,391 315,390 316,388 317,387 318,386 319,385 320,384 321,383 322,382 322,380 323,379 324,378 325,377 326,376 327,374 328,373 329,372 330,371 330,370 331,369 332,368 333,367 334,365 335,364 336,363 337,362 338,361 339,360 339,358 340,357 341,356 342,355 343,354 344,353 345,352 346,350 347,349 347,348 348,347 349,346 350,345 351,344 352,343 353,341 354,340 355,339 356,338 356,337 357,336 358,335 359,333 360,332 361,331 362,330 363,329 364,328 364,327 365,326 366,324 367,323 368,322 369,321 370,320 371,319 372,318 373,316 373,315 374,314 375,313 376,312 377,311 378,310 379,308 380,307 381,306 381,305 382,304 383,303 384,301 385,300 386,299 387,298 388,297 389,296 390,295 390,293 391,292 392,291 393,290 394,289 395,288 396,287 397,285 398,284 398,283 399,282 400,281 401,280 402,279 403,277 404,276 405,275 406,274 407,273 407,272 408,271 409,270 410,268 411,267 412,266 413,265 414,264 415,263 415,261 416,260 417,259 418,258 419,257 420,255 421,254 422,253 423,252 424,251 424,250 425,249 426,247 427,246 428,245 429,244 430,243 431,242 432,240 432,239 433,238 434,237 435,236 436,235 437,233 438,232 439,231 440,230 441,229 441,228 442,226 443,225 444,224 445,223 446,222 447,221 448,220 449,218 449,217 450,216 451,215 452,214 453,213 454,212 455,210 456,209 457,208 458,207 458,206 459,205 460,203 461,202 462,201 463,200 464,199 465,198 466,197 467,196 467,194 468,193 469,192 470,191 471,190 472,188 473,187 474,186 475,185 475,184 476,183 477,181 478,180 479,179 480,178 481,177 482,176 483,175 484,173 484,172 485,171 486,170 487,169 488,168 489,167 490,165 491,164 492,163 492,162 493,161 494,160 495,158 496,157 497,156 498,155 499,153 500,152 501,151 501,150 502,149 503,148 504,146 505,145 506,144 507,143 508,142 509,141 509,139 510,138 511,137 512,136 513,135 514,134 515,132 516,131 517,130 518,129 518,128 519,127 520,125 521,124 522,123 523,122 524,121 525,120 526,119 526,117 527,116 528,115 529,114 530,113 531,112 532,111 533,110 534,109 535,107 535,106 536,105 537,104 538,103 539,102 540,101 541,100 542,98 543,97 543,96 544,95 545,94 546,93 547,92 548,90 549,89 550,88 551,87 552,86 552,85 553,84 554,83 555,81 556,80 557,79 558,78 559,77 560,76 560,75 561,73 562,72 563,71 564,70 565,69 566,68 567,68 568,68 569,68 569,68 570,68 571,68 572,68 573,68 574,68 575,68 576,68 577,68 577,68 578,68 579,68 580,68 581,68 582,68 583,68 584,68 585,68 586,68 586,68 587,68 588,68 589,68 590,68 591,68 592,68 593,68 594,68 594,68 595,68 596,68 597,68 598,68 599,68 600,68 601,68 602,68 603,68 603,68 604,68 605,68 606,68 607,68 608,68 609,68 610,68 611,68 611,68 612,68 613,68 614,68 615,68 616,68 617,68 618,68 619,68 620,68 620,68 621,68 622,68 623,68 624,68 625,68 626,68 627,68 628,68 628,68 629,69 630,69 631,69 632,69 633,69 634,69 635,69 636,69 637,69 637,69 638,69 639,69 640,69 641,69 642,69 643,69 644,69 645,69 645,69 646,69 647,69 648,69 649,69 650,69 651,69 652,69 653,69 654,69 654,69 655,69 656,69 657,69 658,69 659,69 660,69 661,69 662,69 662,69 663,69 664,69 665,69 666,69 667,69 668,69 669,69 670,69 671,69 671,69 672,69 673,69 674,69 675,69 676,69 677,69 678,69 679,69 680,68 680,69 681,68 682,68 683,68 684,68 685,68 686,69 687,68 688,68 688,68 689,68 690,68 691,68 692,68 693,68 694,68 695,68 696,68 697,68 697,68 698,68 699,68 700,68 701,68 702,68 703,68 704,68 705,68 705,68 706,68 707,68 708,68 709,68 710,68 711,68 712,68 713,68 714,68 714,68 715,68 716,68 717,68 718,68 719,68 720,68 721,68 722,68 722,68 723,68 724,68 725,68 726,68 727,68 728,68 729,68 730,68 731,68 731,68 732,68 733,68 734,68 735,68 736,68 737,68 738,68 739,68 739,68 740,68 741,68 742,68 743,68 744,68 745,68 746,68 747,68 748,68 748,68 749,68 750,68 751,68 752,68 753,68 754,68 755,68 756,68 756,68 757,68 758,68 759,68 760,68 761,68 762,68 763,68 764,68 765,68 765,68 766,68 767,68 768,68 769,68 770,68 771,68 772,68 773,68 773,68 774,69 775,69 776,68 777,69 778,69 779,69 780,68 781,68 782,68 782,68 783,68 784,68 785,69 786,68 787,68 788,68 789,68 790,68 790,68 791,68 792,68 793,68 794,68 795,68 796,68 797,68 798,68 799,68 799,68 800,68 801,68 802,68 803,68 804,69 805,69 806,69 807,69 807,69 808,69 809,69 810,69 811,69 812,69 813,69 814,69 815,69 816,69 816,69 817,69 818,69 819,69 820,69 821,69 822,69 823,70 824,69 824,70 825,69 826,70 827,70 828,69 829,69 830,69 831,70 832,69 833,69 833,69 834,69 835,69 836,69 837,69 838,69 839,69 840,69 841,69 841,69 842,69 843,69 844,69 845,69 846,69 847,69 848,69 849,69 850,69 850,69 851,69 852,69 853,69 854,69 855,69 856,69 857,69 858,69 858,69 859,69 860,69 861,69 862,69 863,69 864,69 865,69 866,69 867,69 867,68 868,69 869,68 870,68 871,68 872,68 873,68 874,68 875,68 875,68 876,68 877,68 878,68 879,68 880,68 881,68 882,68 883,68 884,68 884,69 885,68 886,68 887,68 888,68 889,68 890,68 891,68 892,68 893,68 893,68 894,68 895,68 896,68 897,68 898,68 899,68 900,68 901,68 901,68 902,68 903,68 904,68 905,68 906,68 907,68 908,68 909,68 910,69 910,69 911,69 912,69 913,69 914,69 915,69 916,69 917,69 918,69 918,68 919,69 920,68 921,68 922,68 923,69 924,68 925,68 926,68 927,68 927,68 928,68 929,68 930,68 931,68 932,69 933,68 934,68 935,69 935,68 936,68 937,68 938,68 939,68 940,68 941,68 942,68 943,68 944,68 944,68 945,68 946,68 947,69 948,68 949,69 950,69 951,69 952,68 952,68 953,68 954,68 955,68 956,68 957,68 958,68 959,68 960,69 961,69 961,69 962,69 963,69 964,69 965,69 966,69 967,69 968,69 969,69 969,69 970,69 971,69 972,70 972,70 973,70 "/>
<polygon opacity="1" fill="#E6194B" points="78,699 79,699 80,699 81,699 82,699 83,699 83,699 84,699 85,699 86,699 87,699 88,699 89,699 90,699 91,699 92,699 92,699 93,699 94,699 95,699 96,699 97,699 98,699 99,699 100,699 100,699 101,699 102,699 103,699 104,699 105,698 106,698 107,698 108,698 109,698 109,698 110,698 111,698 112,698 113,698 114,698 115,698 116,698 117,698 117,698 118,698 119,698 120,698 121,698 122,698 123,698 124,698 125,698 126,698 126,698 127,698 128,698 129,698 130,698 131,698 132,698 133,698 134,698 134,698 135,698 136,698 137,698 138,698 139,698 140,698 141,698 142,698 143,698 143,698 144,698 145,698 146,698 147,698 148,698 149,698 150,698 151,698 151,698 152,698 153,698 154,698 155,698 156,698 157,698 158,698 159,698 160,698 160,698 161,698 162,698 163,698 164,698 165,698 166,698 167,698 168,698 168,698 169,698 170,698 171,698 172,698 173,698 174,698 175,698 176,698 177,698 177,698 178,698 179,698 180,698 181,698 182,698 183,698 184,698 185,698 185,698 186,698 187,698 188,698 189,698 190,698 191,698 192,698 193,698 194,698 194,698 195,698 196,698 197,698 198,698 199,698 200,698 201,698 202,698 202,698 203,698 204,698 205,698 206,698 207,698 208,698 209,698 210,698 211,698 211,698 212,698 213,698 214,698 215,698 216,698 217,698 218,698 219,698 219,698 220,698 221,698 222,698 223,698 224,698 225,698 226,698 227,698 228,698 228,698 229,698 230,698 231,698 232,698 233,698 234,698 235,698 236,698 236,698 237,698 238,698 239,698 240,698 241,698 242,698 243,698 244,698 245,698 245,698 246,698 247,698 248,698 249,698 250,698 251,698 252,698 253,698 254,698 254,698 255,698 256,698 257,698 258,698 259,698 260,698 261,698 262,698 262,698 263,698 264,698 265,698 266,698 267,698 268,698 269,698 270,698 271,698 271,698 272,698 273,698 274,698 275,698 276,698 277,698 278,698 279,698 279,698 280,698 281,698 282,698 283,698 284,698 285,698 286,698 287,698 288,698 288,698 289,698 290,698 291,698 292,698 293,698 294,698 295,698 296,698 296,698 297,698 298,698 299,698 300,698 301,698 302,698 303,698 304,698 305,698 305,698 306,698 307,698 308,698 309,698 310,698 311,698 312,698 313,698 313,698 314,698 315,698 316,698 317,698 318,698 319,698 320,698 321,698 322,698 322,698 323,698 324,698 325,698 326,698 327,698 328,698 329,698 330,698 330,698 331,698 332,698 333,698 334,698 335,698 336,698 337,698 338,698 339,698 339,698 340,698 341,698 342,698 343,698 344,698 345,698 346,698 347,698 347,698 348,698 349,698 350,698 351,698 352,698 353,698 354,698 355,698 356,698 356,698 357,698 358,698 359,698 360,698 361,698 362,698 363,698 364,698 364,698 365,698 366,698 367,698 368,698 369,698 370,698 371,698 372,698 373,698 373,698 374,698 375,698 376,698 377,698 378,698 379,698 380,698 381,698 381,698 382,698 383,698 384,698 385,698 386,698 387,698 388,698 389,698 390,698 390,698 391,698 392,698 393,698 394,698 395,698 396,698 397,698 398,698 398,698 399,698 400,698 401,698 402,698 403,698 404,698 405,698 406,698 407,698 407,698 408,698 409,698 410,698 411,698 412,698 413,698 414,698 415,698 415,698 416,698 417,698 418,698 419,698 420,698 421,698 422,698 423,698 424,698 424,698 425,698 426,698 427,698 428,698 429,698 430,698 431,698 432,698 432,698 433,698 434,698 435,698 436,698 437,698 438,698 439,698 440,698 441,698 441,698 442,698 443,698 444,698 445,698 446,698 447,698 448,698 449,698 449,698 450,698 451,698 452,698 453,698 454,698 455,698 456,698 457,698 458,698 458,698 459,698 460,698 461,698 462,698 463,698 464,698 465,698 466,698 467,698 467,698 468,698 469,698 470,698 471,698 472,698 473,698 474,698 475,698 475,698 476,698 477,698 478,698 479,698 480,698 481,698 482,698 483,698 484,698 484,698 485,698 486,697 487,695 488,694 489,693 490,692 491,691 492,690 492,689 493,687 494,686 495,685 496,684 497,683 498,681 499,680 500,679 501,678 501,677 502,675 503,674 504,673 505,672 506,671 507,669 508,668 509,667 509,666 510,665 511,664 512,663 513,661 514,660 515,659 516,658 517,657 518,656 518,654 519,653 520,652 521,651 522,650 523,649 524,647 525,646 526,645 526,644 527,643 528,642 529,641 530,640 531,638 532,637 533,636 534,635 535,634 535,633 536,632 537,631 538,630 539,628 540,627 541,626 542,625 543,624 543,623 544,622 545,621 546,619 547,618 548,617 549,616 550,615 551,614 552,613 552,611 553,610 554,609 555,608 556,607 557,606 558,605 559,604 560,602 560,601 561,600 562,599 563,598 564,597 565,596 566,594 567,593 568,592 569,591 569,590 570,589 571,588 572,587 573,585 574,584 575,583 576,582 577,581 577,580 578,578 579,577 580,576 581,575 582,574 583,573 584,572 585,570 586,569 586,568 587,567 588,566 589,565 590,564 591,562 592,561 593,560 594,559 594,558 595,557 596,555 597,554 598,553 599,552 600,551 601,550 602,549 603,547 603,546 604,545 605,544 606,543 607,542 608,541 609,540 610,538 611,537 611,536 612,535 613,534 614,533 615,532 616,530 617,529 618,528 619,527 620,526 620,524 621,523 622,522 623,521 624,520 625,519 626,518 627,516 628,515 628,514 629,513 630,512 631,511 632,510 633,508 634,507 635,506 636,505 637,504 637,503 638,501 639,500 640,499 641,498 642,497 643,496 644,495 645,493 645,492 646,491 647,490 648,489 649,488 650,487 651,485 652,484 653,483 654,482 654,481 655,480 656,479 657,477 658,476 659,475 660,474 661,473 662,472 662,471 663,470 664,468 665,467 666,466 667,465 668,464 669,463 670,461 671,460 671,459 672,458 673,457 674,456 675,455 676,454 677,452 678,451 679,450 680,449 680,448 681,446 682,445 683,444 684,443 685,442 686,441 687,439 688,438 688,437 689,436 690,435 691,434 692,433 693,431 694,430 695,429 696,428 697,427 697,425 698,424 699,423 700,422 701,421 702,420 703,419 704,417 705,416 705,415 706,414 707,413 708,412 709,411 710,409 711,408 712,407 713,406 714,405 714,404 715,402 716,401 717,400 718,399 719,398 720,397 721,395 722,394 722,393 723,392 724,391 725,390 726,388 727,387 728,386 729,385 730,384 731,383 731,382 732,381 733,379 734,378 735,377 736,376 737,375 738,374 739,372 739,371 740,370 741,369 742,368 743,367 744,366 745,365 746,363 747,362 748,361 748,360 749,359 750,358 751,357 752,356 753,354 754,353 755,352 756,351 756,350 757,349 758,348 759,346 760,345 761,344 762,343 763,342 764,341 765,339 765,338 766,337 767,336 768,335 769,334 770,333 771,331 772,330 773,329 773,328 774,327 775,326 776,324 777,323 778,322 779,321 780,320 781,319 782,318 782,316 783,315 784,314 785,313 786,312 787,311 788,309 789,308 790,307 790,306 791,305 792,304 793,303 794,301 795,300 796,299 797,298 798,297 799,296 799,294 800,293 801,292 802,291 803,290 804,289 805,287 806,286 807,285 807,284 808,283 809,282 810,281 811,279 812,278 813,277 814,276 815,275 816,273 816,272 817,271 818,270 819,269 820,268 821,267 822,265 823,264 824,263 824,262 825,261 826,260 827,259 828,257 829,256 830,255 831,254 832,253 833,252 833,251 834,249 835,248 836,247 837,246 838,245 839,244 840,242 841,241 841,240 842,239 843,238 844,237 845,236 846,234 847,233 848,232 849,231 850,230 850,229 851,227 852,226 853,225 854,224 855,223 856,222 857,220 858,219 858,218 859,217 860,216 861,214 862,213 863,212 864,211 865,209 866,208 867,207 867,206 868,205 869,203 870,202 871,201 872,200 873,199 874,197 875,196 875,195 876,194 877,193 878,191 879,190 880,189 881,188 882,187 883,186 884,184 884,183 885,182 886,181 887,180 888,179 889,178 890,177 891,175 892,174 893,173 893,172 894,171 895,170 896,168 897,167 898,166 899,165 900,164 901,162 901,161 902,160 903,159 904,158 905,156 906,155 907,154 908,153 909,152 910,151 910,149 911,148 912,147 913,146 914,145 915,144 916,143 917,141 918,140 918,139 919,138 920,137 921,135 922,134 923,133 924,132 925,131 926,130 927,129 927,127 928,126 929,125 930,124 931,123 932,122 933,121 934,119 935,118 935,117 936,116 937,115 938,114 939,112 940,111 941,110 942,109 943,108 944,107 944,105 945,104 946,103 947,102 948,101 949,100 950,98 951,97 952,96 952,95 953,94 954,93 955,91 956,90 957,89 958,88 959,87 960,86 961,85 961,84 962,82 963,81 964,80 965,79 966,78 967,76 968,75 969,74 969,73 970,72 971,71 972,70 972,70 973,70 973,699 78,699 "/>
<polyline fill="none" opacity="1" stroke="#E6194B" stroke-width="1" points="78,699 79,699 80,699 81,699 82,699 83,699 83,699 84,699 85,699 86,699 87,699 88,699 89,699 90,699 91,699 92,699 92,699 93,699 94,699 95,699 96,699 97,699 98,699 99,699 100,699 100,699 101,699 102,699 103,699 104,699 105,698 106,698 107,698 108,698 109,698 109,698 110,698 111,698 112,698 113,698 114,698 115,698 116,698 117,698 117,698 118,698 119,698 120,698 121,698 122,698 123,698 124,698 125,698 126,698 126,698 127,698 128,698 129,698 130,698 131,698 132,698 133,698 134,698 134,698 135,698 136,698 137,698 138,698 139,698 140,698 141,698 142,698 143,698 143,698 144,698 145,698 146,698 147,698 148,698 149,698 150,698 151,698 151,698 152,698 153,698 154,698 155,698 156,698 157,698 158,698 159,698 160,698 160,698 161,698 162,698 163,698 164,698 165,698 166,698 167,698 168,698 168,698 169,698 170,698 171,698 172,698 173,698 174,698 175,698 176,698 177,698 177,698 178,698 179,698 180,698 181,698 182,698 183,698 184,698 185,698 185,698 186,698 187,698 188,698 189,698 190,698 191,698 192,698 193,698 194,698 194,698 195,698 196,698 197,698 198,698 199,698 200,698 201,698 202,698 202,698 203,698 204,698 205,698 206,698 207,698 208,698 209,698 210,698 211,698 211,698 212,698 213,698 214,698 215,698 216,698 217,698 218,698 219,698 219,698 220,698 221,698 222,698 223,698 224,698 225,698 226,698 227,698 228,698 228,698 229,698 230,698 231,698 232,698 233,698 234,698 235,698 236,698 236,698 237,698 238,698 239,698 240,698 241,698 242,698 243,698 244,698 245,698 245,698 246,698 247,698 248,698 249,698 250,698 251,698 252,698 253,698 254,698 254,698 255,698 256,698 257,698 258,698 259,698 260,698 261,698 262,698 262,698 263,698 264,698 265,698 266,698 267,698 268,698 269,698 270,698 271,698 271,698 272,698 273,698 274,698 275,698 276,698 277,698 278,698 279,698 279,698 280,698 281,698 282,698 283,698 284,698 285,698 286,698 287,698 288,698 288,698 289,698 290,698 291,698 292,698 293,698 294,698 295,698 296,698 296,698 297,698 298,698 299,698 300,698 301,698 302,698 303,698 304,698 305,698 305,698 306,698 307,698 308,698 309,698 310,698 311,698 312,698 313,698 313,698 314,698 315,698 316,698 317,698 318,698 319,698 320,698 321,698 322,698 322,698 323,698 324,698 325,698 326,698 327,698 328,698 329,698 330,698 330,698 331,698 332,698 333,698 334,698 335,698 336,698 337,698 338,698 339,698 339,698 340,698 341,698 342,698 343,698 344,698 345,698 346,698 347,698 347,698 348,698 349,698 350,698 351,698 352,698 353,698 354,698 355,698 356,698 356,698 357,698 358,698 359,698 360,698 361,698 362,698 363,698 364,698 364,698 365,698 366,698 367,698 368,698 369,698 370,698 371,698 372,698 373,698 373,698 374,698 375,698 376,698 377,698 378,698 379,698 380,698 381,698 381,698 382,698 383,698 384,698 385,698 386,698 387,698 388,698 389,698 390,698 390,698 391,698 392,698 393,698 394,698 395,698 396,698 397,698 398,698 398,698 399,698 400,698 401,698 402,698 403,698 404,698 405,698 406,698 407,698 407,698 408,698 409,698 410,698 411,698 412,698 413,698 414,698 415,698 415,698 416,698 417,698 418,698 419,698 420,698 421,698 422,698 423,698 424,698 424,698 425,698 426,698 427,698 428,698 429,698 430,698 431,698 432,698 432,698 433,698 434,698 435,698 436,698 437,698 438,698 439,698 440,698 441,698 441,698 442,698 443,698 444,698 445,698 446,698 447,698 448,698 449,698 449,698 450,698 451,698 452,698 453,698 454,698 455,698 456,698 457,698 458,698 458,698 459,698 460,698 461,698 462,698 463,698 464,698 465,698 466,698 467,698 467,698 468,698 469,698 470,698 471,698 472,698 473,698 474,698 475,698 475,698 476,698 477,698 478,698 479,698 480,698 481,698 482,698 483,698 484,698 484,698 485,698 486,697 487,695 488,694 489,693 490,692 491,691 492,690 492,689 493,687 494,686 495,685 496,684 497,683 498,681 499,680 500,679 501,678 501,677 502,675 503,674 504,673 505,672 506,671 507,669 508,668 509,667 509,666 510,665 511,664 512,663 513,661 514,660 515,659 516,658 517,657 518,656 518,654 519,653 520,652 521,651 522,650 523,649 524,647 525,646 526,645 526,644 527,643 528,642 529,641 530,640 531,638 532,637 533,636 534,635 535,634 535,633 536,632 537,631 538,630 539,628 540,627 541,626 542,625 543,624 543,623 544,622 545,621 546,619 547,618 548,617 549,616 550,615 551,614 552,613 552,611 553,610 554,609 555,608 556,607 557,606 558,605 559,604 560,602 560,601 561,600 562,599 563,598 564,597 565,596 566,594 567,593 568,592 569,591 569,590 570,589 571,588 572,587 573,585 574,584 575,583 576,582 577,581 577,580 578,578 579,577 580,576 581,575 582,574 583,573 584,572 585,570 586,569 586,568 587,567 588,566 589,565 590,564 591,562 592,561 593,560 594,559 594,558 595,557 596,555 597,554 598,553 599,552 600,551 601,550 602,549 603,547 603,546 604,545 605,544 606,543 607,542 608,541 609,540 610,538 611,537 611,536 612,535 613,534 614,533 615,532 616,530 617,529 618,528 619,527 620,526 620,524 621,523 622,522 623,521 624,520 625,519 626,518 627,516 628,515 628,514 629,513 630,512 631,511 632,510 633,508 634,507 635,506 636,505 637,504 637,503 638,501 639,500 640,499 641,498 642,497 643,496 644,495 645,493 645,492 646,491 647,490 648,489 649,488 650,487 651,485 652,484 653,483 654,482 654,481 655,480 656,479 657,477 658,476 659,475 660,474 661,473 662,472 662,471 663,470 664,468 665,467 666,466 667,465 668,464 669,463 670,461 671,460 671,459 672,458 673,457 674,456 675,455 676,454 677,452 678,451 679,450 680,449 680,448 681,446 682,445 683,444 684,443 685,442 686,441 687,439 688,438 688,437 689,436 690,435 691,434 692,433 693,431 694,430 695,429 696,428 697,427 697,425 698,424 699,423 700,422 701,421 702,420 703,419 704,417 705,416 705,415 706,414 707,413 708,412 709,411 710,409 711,408 712,407 713,406 714,405 714,404 715,402 716,401 717,400 718,399 719,398 720,397 721,395 722,394 722,393 723,392 724,391 725,390 726,388 727,387 728,386 729,385 730,384 731,383 731,382 732,381 733,379 734,378 735,377 736,376 737,375 738,374 739,372 739,371 740,370 741,369 742,368 743,367 744,366 745,365 746,363 747,362 748,361 748,360 749,359 750,358 751,357 752,356 753,354 754,353 755,352 756,351 756,350 757,349 758,348 759,346 760,345 761,344 762,343 763,342 764,341 765,339 765,338 766,337 767,336 768,335 769,334 770,333 771,331 772,330 773,329 773,328 774,327 775,326 776,324 777,323 778,322 779,321 780,320 781,319 782,318 782,316 783,315 784,314 785,313 786,312 787,311 788,309 789,308 790,307 790,306 791,305 792,304 793,303 794,301 795,300 796,299 797,298 798,297 799,296 799,294 800,293 801,292 802,291 803,290 804,289 805,287 806,286 807,285 807,284 808,283 809,282 810,281 811,279 812,278 813,277 814,276 815,275 816,273 816,272 817,271 818,270 819,269 820,268 821,267 822,265 823,264 824,263 824,262 825,261 826,260 827,259 828,257 829,256 830,255 831,254 832,253 833,252 833,251 834,249 835,248 836,247 837,246 838,245 839,244 840,242 841,241 841,240 842,239 843,238 844,237 845,236 846,234 847,233 848,232 849,231 850,230 850,229 851,227 852,226 853,225 854,224 855,223 856,222 857,220 858,219 858,218 859,217 860,216 861,214 862,213 863,212 864,211 865,209 866,208 867,207 867,206 868,205 869,203 870,202 871,201 872,200 873,199 874,197 875,196 875,195 876,194 877,193 878,191 879,190 880,189 881,188 882,187 883,186 884,184 884,183 885,182 886,181 887,180 888,179 889,178 890,177 891,175 892,174 893,173 893,172 894,171 895,170 896,168 897,167 898,166 899,165 900,164 901,162 901,161 902,160 903,159 904,158 905,156 906,155 907,154 908,153 909,152 910,151 910,149 911,148 912,147 913,146 914,145 915,144 916,143 917,141 918,140 918,139 919,138 920,137 921,135 922,134 923,133 924,132 925,131 926,130 927,129 927,127 928,126 929,125 930,124 931,123 932,122 933,121 934,119 935,118 935,117 936,116 937,115 938,114 939,112 940,111 941,110 942,109 943,108 944,107 944,105 945,104 946,103 947,102 948,101 949,100 950,98 951,97 952,96 952,95 953,94 954,93 955,91 956,90 957,89 958,88 959,87 960,86 961,85 961,84 962,82 963,81 964,80 965,79 966,78 967,76 968,75 969,74 969,73 970,72 971,71 972,70 972,70 973,70 "/>
<line opacity="0.1" stroke="#000000" stroke-width="1" x1="84" y1="699" x2="84" y2="68"/>
<line opacity="0.1" stroke="#000000" stroke-width="1" x1="94" y1="699" x2="94" y2="68"/>
<line opacity="0.1" stroke="#000000" stroke-width="1" x1="105" y1="699" x2="105" y2="68"/>
<line opacity="0.1" stroke="#000000" stroke-width="1" x1="115" y1="699" x2="115" y2="68"/>
<line opacity="0.1" stroke="#000000" stroke-width="1" x1="126" y1="699" x2="126" y2="68"/>
<line opacity="0.1" stroke="#000000" stroke-width="1" x1="137" y1="699" x2="137" y2="68"/>
<line opacity="0.1" stroke="#000000" stroke-width="1" x1="147" y1="699" x2="147" y2="68"/>
<line opacity="0.1" stroke="#000000" stroke-width="1" x1="158" y1="699" x2="158" y2="68"/>
<line opacity="0.1" stroke="#000000" stroke-width="1" x1="168" y1="699" x2="168" y2="68"/>
<line opacity="0.1" stroke="#000000" stroke-width="1" x1="179" y1="699" x2="179" y2="68"/>
<line opacity="0.1" stroke="#000000" stroke-width="1" x1="189" y1="699" x2="189" y2="68"/>
<line opacity="0.1" stroke="#000000" stroke-width="1" x1="200" y1="699" x2="200" y2="68"/>
<line opacity="0.1" stroke="#000000" stroke-width="1" x1="211" y1="699" x2="211" y2="68"/>
<line opacity="0.1" stroke="#000000" stroke-width="1" x1="221" y1="699" x2="221" y2="68"/>
<line opacity="0.1" stroke="#000000" stroke-width="1" x1="232" y1="699" x2="232" y2="68"/>
<line opacity="0.1" stroke="#000000" stroke-width="1" x1="242" y1="699" x2="242" y2="68"/>
<line opacity="0.1" stroke="#000000" stroke-width="1" x1="253" y1="699" x2="253" y2="68"/>
<line opacity="0.1" stroke="#000000" stroke-width="1" x1="264" y1="699" x2="264" y2="68"/>
<line opacity="0.1" stroke="#000000" stroke-width="1" x1="274" y1="699" x2="274" y2="68"/>
<line opacity="0.1" stroke="#000000" stroke-width="1" x1="285" y1="699" x2="285" y2="68"/>
<line opacity="0.1" stroke="#000000" stroke-width="1" x1="295" y1="699" x2="295" y2="68"/>
<line opacity="0.1" stroke="#000000" stroke-width="1" x1="306" y1="699" x2="306" y2="68"/>
<line opacity="0.1" stroke="#000000" stroke-width="1" x1="316" y1="699" x2="316" y2="68"/>
<line opacity="0.1" stroke="#000000" stroke-width="1" x1="327" y1="699" x2="327" y2="68"/>
<line opacity="0.1" stroke="#000000" stroke-width="1" x1="338" y1="699" x2="338" y2="68"/>
<line opacity="0.1" stroke="#000000" stroke-width="1" x1="348" y1="699" x2="348" y2="68"/>
<line opacity="0.1" stroke="#000000" stroke-width="1" x1="359" y1="699" x2="359" y2="68"/>
<line opacity="0.1" stroke="#000000" stroke-width="1" x1="369" y1="699" x2="369" y2="68"/>
<line opacity="0.1" stroke="#000000" stroke-width="1" x1="380" y1="699" x2="380" y2="68"/>
<line opacity="0.1" stroke="#000000" stroke-width="1" x1="390" y1="699" x2="390" y2="68"/>
<line opacity="0.1" stroke="#000000" stroke-width="1" x1="401" y1="699" x2="401" y2="68"/>
<line opacity="0.1" stroke="#000000" stroke-width="1" x1="412" y1="699" x2="412" y2="68"/>
<line opacity="0.1" stroke="#000000" stroke-width="1" x1="422" y1="699" x2="422" y2="68"/>
<line opacity="0.1" stroke="#000000" stroke-width="1" x1="433" y1="699" x2="433" y2="68"/>
<line opacity="0.1" stroke="#000000" stroke-width="1" x1="443" y1="699" x2="443" y2="68"/>
<line opacity="0.1" stroke="#000000" stroke-width="1" x1="454" y1="699" x2="454" y2="68"/>
<line opacity="0.1" stroke="#000000" stroke-width="1" x1="464" y1="699" x2="464" y2="68"/>
<line opacity="0.1" stroke="#000000" stroke-width="1" x1="475" y1="699" x2="475" y2="68"/>
<line opacity="0.1" stroke="#000000" stroke-width="1" x1="486" y1="699" x2="486" y2="68"/>
<line opacity="0.1" stroke="#000000" stroke-width="1" x1="496" y1="699" x2="496" y2="68"/>
<line opacity="0.1" stroke="#000000" stroke-width="1" x1="507" y1="699" x2="507" y2="68"/>
<line opacity="0.1" stroke="#000000" stroke-width="1" x1="517" y1="699" x2="517" y2="68"/>
<line opacity="0.1" stroke="#000000" stroke-width="1" x1="528" y1="699" x2="528" y2="68"/>
<line opacity="0.1" stroke="#000000" stroke-width="1" x1="538" y1="699" x2="538" y2="68"/>
<line opacity="0.1" stroke="#000000" stroke-width="1" x1="549" y1="699" x2="549" y2="68"/>
<line opacity="0.1" stroke="#000000" stroke-width="1" x1="560" y1="699" x2="560" y2="68"/>
<line opacity="0.1" stroke="#000000" stroke-width="1" x1="570" y1="699" x2="570" y2="68"/>
<line opacity="0.1" stroke="#000000" stroke-width="1" x1="581" y1="699" x2="581" y2="68"/>
<line opacity="0.1" stroke="#000000" stroke-width="1" x1="591" y1="699" x2="591" y2="68"/>
<line opacity="0.1" stroke="#000000" stroke-width="1" x1="602" y1="699" x2="602" y2="68"/>
<line opacity="0.1" stroke="#000000" stroke-width="1" x1="612" y1="699" x2="612" y2="68"/>
<line opacity="0.1" stroke="#000000" stroke-width="1" x1="623" y1="699" x2="623" y2="68"/>
<line opacity="0.1" stroke="#000000" stroke-width="1" x1="634" y1="699" x2="634" y2="68"/>
<line opacity="0.1" stroke="#000000" stroke-width="1" x1="644" y1="699" x2="644" y2="68"/>
<line opacity="0.1" stroke="#000000" stroke-width="1" x1="655" y1="699" x2="655" y2="68"/>
<line opacity="0.1" stroke="#000000" stroke-width="1" x1="665" y1="699" x2="665" y2="68"/>
<line opacity="0.1" stroke="#000000" stroke-width="1" x1="676" y1="699" x2="676" y2="68"/>
<line opacity="0.1" stroke="#000000" stroke-width="1" x1="687" y1="699" x2="687" y2="68"/>
<line opacity="0.1" stroke="#000000" stroke-width="1" x1="697" y1="699" x2="697" y2="68"/>
<line opacity="0.1" stroke="#000000" stroke-width="1" x1="708" y1="699" x2="708" y2="68"/>
<line opacity="0.1" stroke="#000000" stroke-width="1" x1="718" y1="699" x2="718" y2="68"/>
<line opacity="0.1" stroke="#000000" stroke-width="1" x1="729" y1="699" x2="729" y2="68"/>
<line opacity="0.1" stroke="#000000" stroke-width="1" x1="739" y1="699" x2="739" y2="68"/>
<line opacity="0.1" stroke="#000000" stroke-width="1" x1="750" y1="699" x2="750" y2="68"/>
<line opacity="0.1" stroke="#000000" stroke-width="1" x1="761" y1="699" x2="761" y2="68"/>
<line opacity="0.1" stroke="#000000" stroke-width="1" x1="771" y1="699" x2="771" y2="68"/>
<line opacity="0.1" stroke="#000000" stroke-width="1" x1="782" y1="699" x2="782" y2="68"/>
<line opacity="0.1" stroke="#000000" stroke-width="1" x1="792" y1="699" x2="792" y2="68"/>
<line opacity="0.1" stroke="#000000" stroke-width="1" x1="803" y1="699" x2="803" y2="68"/>
<line opacity="0.1" stroke="#000000" stroke-width="1" x1="813" y1="699" x2="813" y2="68"/>
<line opacity="0.1" stroke="#000000" stroke-width="1" x1="824" y1="699" x2="824" y2="68"/>
<line opacity="0.1" stroke="#000000" stroke-width="1" x1="835" y1="699" x2="835" y2="68"/>
<line opacity="0.1" stroke="#000000" stroke-width="1" x1="845" y1="699" x2="845" y2="68"/>
<line opacity="0.1" stroke="#000000" stroke-width="1" x1="856" y1="699" x2="856" y2="68"/>
<line opacity="0.1" stroke="#000000" stroke-width="1" x1="866" y1="699" x2="866" y2="68"/>
<line opacity="0.1" stroke="#000000" stroke-width="1" x1="877" y1="699" x2="877" y2="68"/>
<line opacity="0.1" stroke="#000000" stroke-width="1" x1="887" y1="699" x2="887" y2="68"/>
<line opacity="0.1" stroke="#000000" stroke-width="1" x1="898" y1="699" x2="898" y2="68"/>
<line opacity="0.1" stroke="#000000" stroke-width="1" x1="909" y1="699" x2="909" y2="68"/>
<line opacity="0.1" stroke="#000000" stroke-width="1" x1="919" y1="699" x2="919" y2="68"/>
<line opacity="0.1" stroke="#000000" stroke-width="1" x1="930" y1="699" x2="930" y2="68"/>
<line opacity="0.1" stroke="#000000" stroke-width="1" x1="940" y1="699" x2="940" y2="68"/>
<line opacity="0.1" stroke="#000000" stroke-width="1" x1="951" y1="699" x2="951" y2="68"/>
<line opacity="0.1" stroke="#000000" stroke-width="1" x1="961" y1="699" x2="961" y2="68"/>
<line opacity="0.1" stroke="#000000" stroke-width="1" x1="972" y1="699" x2="972" y2="68"/>
<line opacity="0.1" stroke="#000000" stroke-width="1" x1="78" y1="699" x2="973" y2="699"/>
<line opacity="0.1" stroke="#000000" stroke-width="1" x1="78" y1="691" x2="973" y2="691"/>
<line opacity="0.1" stroke="#000000" stroke-width="1" x1="78" y1="684" x2="973" y2="684"/>
<line opacity="0.1" stroke="#000000" stroke-width="1" x1="78" y1="677" x2="973" y2="677"/>
<line opacity="0.1" stroke="#000000" stroke-width="1" x1="78" y1="670" x2="973" y2="670"/>
<line opacity="0.1" stroke="#000000" stroke-width="1" x1="78" y1="663" x2="973" y2="663"/>
<line opacity="0.1" stroke="#000000" stroke-width="1" x1="78" y1="656" x2="973" y2="656"/>
<line opacity="0.1" stroke="#000000" stroke-width="1" x1="78" y1="649" x2="973" y2="649"/>
<line opacity="0.1" stroke="#000000" stroke-width="1" x1="78" y1="642" x2="973" y2="642"/>
<line opacity="0.1" stroke="#000000" stroke-width="1" x1="78" y1="635" x2="973" y2="635"/>
<line opacity="0.1" stroke="#000000" stroke-width="1" x1="78" y1="628" x2="973" y2="628"/>
<line opacity="0.1" stroke="#000000" stroke-width="1" x1="78" y1="621" x2="973" y2="621"/>
<line opacity="0.1" stroke="#000000" stroke-width="1" x1="78" y1="614" x2="973" y2="614"/>
<line opacity="0.1" stroke="#000000" stroke-width="1" x1="78" y1="607" x2="973" y2="607"/>
<line opacity="0.1" stroke="#000000" stroke-width="1" x1="78" y1="600" x2="973" y2="600"/>
<line opacity="0.1" stroke="#000000" stroke-width="1" x1="78" y1="593" x2="973" y2="593"/>
<line opacity="0.1" stroke="#000000" stroke-width="1" x1="78" y1="585" x2="973" y2="585"/>
<line opacity="0.1" stroke="#000000" stroke-width="1" x1="78" y1="578" x2="973" y2="578"/>
<line opacity="0.1" stroke="#000000" stroke-width="1" x1="78" y1="571" x2="973" y2="571"/>
<line opacity="0.1" stroke="#000000" stroke-width="1" x1="78" y1="564" x2="973" y2="564"/>
<line opacity="0.1" stroke="#000000" stroke-width="1" x1="78" y1="557" x2="973" y2="557"/>
<line opacity="0.1" stroke="#000000" stroke-width="1" x1="78" y1="550" x2="973" y2="550"/>
<line opacity="0.1" stroke="#000000" stroke-width="1" x1="78" y1="543" x2="973" y2="543"/>
<line opacity="0.1" stroke="#000000" stroke-width="1" x1="78" y1="536" x2="973" y2="536"/>
<line opacity="0.1" stroke="#000000" stroke-width="1" x1="78" y1="529" x2="973" y2="529"/>
<line opacity="0.1" stroke="#000000" stroke-width="1" x1="78" y1="522" x2="973" y2="522"/>
<line opacity="0.1" stroke="#000000" stroke-width="1" x1="78" y1="515" x2="973" y2="515"/>
<line opacity="0.1" stroke="#000000" stroke-width="1" x1="78" y1="508" x2="973" y2="508"/>
<line opacity="0.1" stroke="#000000" stroke-width="1" x1="78" y1="501" x2="973" y2="501"/>
<line opacity="0.1" stroke="#000000" stroke-width="1" x1="78" y1="494" x2="973" y2="494"/>
<line opacity="0.1" stroke="#000000" stroke-width="1" x1="78" y1="487" x2="973" y2="487"/>
<line opacity="0.1" stroke="#000000" stroke-width="1" x1="78" y1="480" x2="973" y2="480"/>
<line opacity="0.1" stroke="#000000" stroke-width="1" x1="78" y1="472" x2="973" y2="472"/>
<line opacity="0.1" stroke="#000000" stroke-width="1" x1="78" y1="465" x2="973" y2="465"/>
<line opacity="0.1" stroke="#000000" stroke-width="1" x1="78" y1="458" x2="973" y2="458"/>
<line opacity="0.1" stroke="#000000" stroke-width="1" x1="78" y1="451" x2="973" y2="451"/>
<line opacity="0.1" stroke="#000000" stroke-width="1" x1="78" y1="444" x2="973" y2="444"/>
<line opacity="0.1" stroke="#000000" stroke-width="1" x1="78" y1="437" x2="973" y2="437"/>
<line opacity="0.1" stroke="#000000" stroke-width="1" x1="78" y1="430" x2="973" y2="430"/>
<line opacity="0.1" stroke="#000000" stroke-width="1" x1="78" y1="423" x2="973" y2="423"/>
<line opacity="0.1" stroke="#000000" stroke-width="1" x1="78" y1="416" x2="973" y2="416"/>
<line opacity="0.1" stroke="#000000" stroke-width="1" x1="78" y1="409" x2="973" y2="409"/>
<line opacity="0.1" stroke="#000000" stroke-width="1" x1="78" y1="402" x2="973" y2="402"/>
<line opacity="0.1" stroke="#000000" stroke-width="1" x1="78" y1="395" x2="973" y2="395"/>
<line opacity="0.1" stroke="#000000" stroke-width="1" x1="78" y1="388" x2="973" y2="388"/>
<line opacity="0.1" stroke="#000000" stroke-width="1" x1="78" y1="381" x2="973" y2="381"/>
<line opacity="0.1" stroke="#000000" stroke-width="1" x1="78" y1="374" x2="973" y2="374"/>
<line opacity="0.1" stroke="#000000" stroke-width="1" x1="78" y1="367" x2="973" y2="367"/>
<line opacity="0.1" stroke="#000000" stroke-width="1" x1="78" y1="359" x2="973" y2="359"/>
<line opacity="0.1" stroke="#000000" stroke-width="1" x1="78" y1="352" x2="973" y2="352"/>
<line opacity="0.1" stroke="#000000" stroke-width="1" x1="78" y1="345" x2="973" y2="345"/>
<line opacity="0.1" stroke="#000000" stroke-width="1" x1="78" y1="338" x2="973" y2="338"/>
<line opacity="0.1" stroke="#000000" stroke-width="1" x1="78" y1="331" x2="973" y2="331"/>
<line opacity="0.1" stroke="#000000" stroke-width="1" x1="78" y1="324" x2="973" y2="324"/>
<line opacity="0.1" stroke="#000000" stroke-width="1" x1="78" y1="317" x2="973" y2="317"/>
<line opacity="0.1" stroke="#000000" stroke-width="1" x1="78" y1="310" x2="973" y2="310"/>
<line opacity="0.1" stroke="#000000" stroke-width="1" x1="78" y1="303" x2="973" y2="303"/>
<line opacity="0.1" stroke="#000000" stroke-width="1" x1="78" y1="296" x2="973" y2="296"/>
<line opacity="0.1" stroke="#000000" stroke-width="1" x1="78" y1="289" x2="973" y2="289"/>
<line opacity="0.1" stroke="#000000" stroke-width="1" x1="78" y1="282" x2="973" y2="282"/>
<line opacity="0.1" stroke="#000000" stroke-width="1" x1="78" y1="275" x2="973" y2="275"/>
<line opacity="0.1" stroke="#000000" stroke-width="1" x1="78" y1="268" x2="973" y2="268"/>
<line opacity="0.1" stroke="#000000" stroke-width="1" x1="78" y1="261" x2="973" y2="261"/>
<line opacity="0.1" stroke="#000000" stroke-width="1" x1="78" y1="254" x2="973" y2="254"/>
<line opacity="0.1" stroke="#000000" stroke-width="1" x1="78" y1="246" x2="973" y2="246"/>
<line opacity="0.1" stroke="#000000" stroke-width="1" x1="78" y1="239" x2="973" y2="239"/>
<line opacity="0.1" stroke="#000000" stroke-width="1" x1="78" y1="232" x2="973" y2="232"/>
<line opacity="0.1" stroke="#000000" stroke-width="1" x1="78" y1="225" x2="973" y2="225"/>
<line opacity="0.1" stroke="#000000" stroke-width="1" x1="78" y1="218" x2="973" y2="218"/>
<line opacity="0.1" stroke="#000000" stroke-width="1" x1="78" y1="211" x2="973" y2="211"/>
<line opacity="0.1" stroke="#000000" stroke-width="1" x1="78" y1="204" x2="973" y2="204"/>
<line opacity="0.1" stroke="#000000" stroke-width="1" x1="78" y1="197" x2="973" y2="197"/>
<line opacity="0.1" stroke="#000000" stroke-width="1" x1="78" y1="190" x2="973" y2="190"/>
<line opacity="0.1" stroke="#000000" stroke-width="1" x1="78" y1="183" x2="973" y2="183"/>
<line opacity="0.1" stroke="#000000" stroke-width="1" x1="78" y1="176" x2="973" y2="176"/>
<line opacity="0.1" stroke="#000000" stroke-width="1" x1="78" y1="169" x2="973" y2="169"/>
<line opacity="0.1" stroke="#000000" stroke-width="1" x1="78" y1="162" x2="973" y2="162"/>
<line opacity="0.1" stroke="#000000" stroke-width="1" x1="78" y1="155" x2="973" y2="155"/>
<line opacity="0.1" stroke="#000000" stroke-width="1" x1="78" y1="148" x2="973" y2="148"/>
<line opacity="0.1" stroke="#000000" stroke-width="1" x1="78" y1="141" x2="973" y2="141"/>
<line opacity="0.1" stroke="#000000" stroke-width="1" x1="78" y1="133" x2="973" y2="133"/>
<line opacity="0.1" stroke="#000000" stroke-width="1" x1="78" y1="126" x2="973" y2="126"/>
<line opacity="0.1" stroke="#000000" stroke-width="1" x1="78" y1="119" x2="973" y2="119"/>
<line opacity="0.1" stroke="#000000" stroke-width="1" x1="78" y1="112" x2="973" y2="112"/>
<line opacity="0.1" stroke="#000000" stroke-width="1" x1="78" y1="105" x2="973" y2="105"/>
<line opacity="0.1" stroke="#000000" stroke-width="1" x1="78" y1="98" x2="973" y2="98"/>
<line opacity="0.1" stroke="#000000" stroke-width="1" x1="78" y1="91" x2="973" y2="91"/>
<line opacity="0.1" stroke="#000000" stroke-width="1" x1="78" y1="84" x2="973" y2="84"/>
<line opacity="0.1" stroke="#000000" stroke-width="1" x1="78" y1="77" x2="973" y2="77"/>
<line opacity="0.1" stroke="#000000" stroke-width="1" x1="78" y1="70" x2="973" y2="70"/>
<text x="8" y="384" dy="0.76em" text-anchor="middle" font-family="sans-serif" font-size="9.67741935483871" opacity="1" fill="#000000" transform="rotate(270, 8, 384)">
Memory usage
</text>
<text x="526" y="760" dy="-0.5ex" text-anchor="middle" font-family="sans-serif" font-size="9.67741935483871" opacity="1" fill="#000000">
Time
</text>
<line opacity="0.2" stroke="#000000" stroke-width="1" x1="105" y1="699" x2="105" y2="68"/>
<line opacity="0.2" stroke="#000000" stroke-width="1" x1="211" y1="699" x2="211" y2="68"/>
<line opacity="0.2" stroke="#000000" stroke-width="1" x1="316" y1="699" x2="316" y2="68"/>
<line opacity="0.2" stroke="#000000" stroke-width="1" x1="422" y1="699" x2="422" y2="68"/>
<line opacity="0.2" stroke="#000000" stroke-width="1" x1="528" y1="699" x2="528" y2="68"/>
<line opacity="0.2" stroke="#000000" stroke-width="1" x1="634" y1="699" x2="634" y2="68"/>
<line opacity="0.2" stroke="#000000" stroke-width="1" x1="739" y1="699" x2="739" y2="68"/>
<line opacity="0.2" stroke="#000000" stroke-width="1" x1="845" y1="699" x2="845" y2="68"/>
<line opacity="0.2" stroke="#000000" stroke-width="1" x1="951" y1="699" x2="951" y2="68"/>
<line opacity="0.2" stroke="#000000" stroke-width="1" x1="78" y1="699" x2="973" y2="699"/>
<line opacity="0.2" stroke="#000000" stroke-width="1" x1="78" y1="628" x2="973" y2="628"/>
<line opacity="0.2" stroke="#000000" stroke-width="1" x1="78" y1="557" x2="973" y2="557"/>
<line opacity="0.2" stroke="#000000" stroke-width="1" x1="78" y1="487" x2="973" y2="487"/>
<line opacity="0.2" stroke="#000000" stroke-width="1" x1="78" y1="416" x2="973" y2="416"/>
<line opacity="0.2" stroke="#000000" stroke-width="1" x1="78" y1="345" x2="973" y2="345"/>
<line opacity="0.2" stroke="#000000" stroke-width="1" x1="78" y1="275" x2="973" y2="275"/>
<line opacity="0.2" stroke="#000000" stroke-width="1" x1="78" y1="204" x2="973" y2="204"/>
<line opacity="0.2" stroke="#000000" stroke-width="1" x1="78" y1="133" x2="973" y2="133"/>
<polyline fill="none" opacity="1" stroke="#000000" stroke-width="1" points="77,68 77,699 "/>
<text x="68" y="699" dy="0.5ex" text-anchor="end" font-family="sans-serif" font-size="9.67741935483871" opacity="1" fill="#000000">
0.0 MB
</text>
<polyline fill="none" opacity="1" stroke="#000000" stroke-width="1" points="72,699 77,699 "/>
<text x="68" y="628" dy="0.5ex" text-anchor="end" font-family="sans-serif" font-size="9.67741935483871" opacity="1" fill="#000000">
9.5 MB
</text>
<polyline fill="none" opacity="1" stroke="#000000" stroke-width="1" points="72,628 77,628 "/>
<text x="68" y="557" dy="0.5ex" text-anchor="end" font-family="sans-serif" font-size="9.67741935483871" opacity="1" fill="#000000">
19.1 MB
</text>
<polyline fill="none" opacity="1" stroke="#000000" stroke-width="1" points="72,557 77,557 "/>
<text x="68" y="487" dy="0.5ex" text-anchor="end" font-family="sans-serif" font-size="9.67741935483871" opacity="1" fill="#000000">
28.6 MB
</text>
<polyline fill="none" opacity="1" stroke="#000000" stroke-width="1" points="72,487 77,487 "/>
<text x="68" y="416" dy="0.5ex" text-anchor="end" font-family="sans-serif" font-size="9.67741935483871" opacity="1" fill="#000000">
38.1 MB
</text>
<polyline fill="none" opacity="1" stroke="#000000" stroke-width="1" points="72,416 77,416 "/>
<text x="68" y="345" dy="0.5ex" text-anchor="end" font-family="sans-serif" font-size="9.67741935483871" opacity="1" fill="#000000">
47.7 MB
</text>
<polyline fill="none" opacity="1" stroke="#000000" stroke-width="1" points="72,345 77,345 "/>
<text x="68" y="275" dy="0.5ex" text-anchor="end" font-family="sans-serif" font-size="9.67741935483871" opacity="1" fill="#000000">
57.2 MB
</text>
<polyline fill="none" opacity="1" stroke="#000000" stroke-width="1" points="72,275 77,275 "/>
<text x="68" y="204" dy="0.5ex" text-anchor="end" font-family="sans-serif" font-size="9.67741935483871" opacity="1" fill="#000000">
66.8 MB
</text>
<polyline fill="none" opacity="1" stroke="#000000" stroke-width="1" points="72,204 77,204 "/>
<text x="68" y="133" dy="0.5ex" text-anchor="end" font-family="sans-serif" font-size="9.67741935483871" opacity="1" fill="#000000">
76.3 MB
</text>
<polyline fill="none" opacity="1" stroke="#000000" stroke-width="1" points="72,133 77,133 "/>
<polyline fill="none" opacity="1" stroke="#000000" stroke-width="1" points="78,700 973,700 "/>
<text x="105" y="710" dy="0.76em" text-anchor="middle" font-family="sans-serif" font-size="9.67741935483871" opacity="1" fill="#000000">
07 20:33:20
</text>
<polyline fill="none" opacity="1" stroke="#000000" stroke-width="1" points="105,700 105,705 "/>
<text x="211" y="710" dy="0.76em" text-anchor="middle" font-family="sans-serif" font-size="9.67741935483871" opacity="1" fill="#000000">
08 10:26:40
</text>
<polyline fill="none" opacity="1" stroke="#000000" stroke-width="1" points="211,700 211,705 "/>
<text x="316" y="710" dy="0.76em" text-anchor="middle" font-family="sans-serif" font-size="9.67741935483871" opacity="1" fill="#000000">
09 00:20:00
</text>
<polyline fill="none" opacity="1" stroke="#000000" stroke-width="1" points="316,700 316,705 "/>
<text x="422" y="710" dy="0.76em" text-anchor="middle" font-family="sans-serif" font-size="9.67741935483871" opacity="1" fill="#000000">
09 14:13:20
</text>
<polyline fill="none" opacity="1" stroke="#000000" stroke-width="1" points="422,700 422,705 "/>
<text x="528" y="710" dy="0.76em" text-anchor="middle" font-family="sans-serif" font-size="9.67741935483871" opacity="1" fill="#000000">
10 04:06:40
</text>
<polyline fill="none" opacity="1" stroke="#000000" stroke-width="1" points="528,700 528,705 "/>
<text x="634" y="710" dy="0.76em" text-anchor="middle" font-family="sans-serif" font-size="9.67741935483871" opacity="1" fill="#000000">
10 18:00:00
</text>
<polyline fill="none" opacity="1" stroke="#000000" stroke-width="1" points="634,700 634,705 "/>
<text x="739" y="710" dy="0.76em" text-anchor="middle" font-family="sans-serif" font-size="9.67741935483871" opacity="1" fill="#000000">
11 07:53:20
</text>
<polyline fill="none" opacity="1" stroke="#000000" stroke-width="1" points="739,700 739,705 "/>
<text x="845" y="710" dy="0.76em" text-anchor="middle" font-family="sans-serif" font-size="9.67741935483871" opacity="1" fill="#000000">
11 21:46:40
</text>
<polyline fill="none" opacity="1" stroke="#000000" stroke-width="1" points="845,700 845,705 "/>
<text x="951" y="710" dy="0.76em" text-anchor="middle" font-family="sans-serif" font-size="9.67741935483871" opacity="1" fill="#000000">
12 11:40:00
</text>
<polyline fill="none" opacity="1" stroke="#000000" stroke-width="1" points="951,700 951,705 "/>
<polyline fill="none" opacity="1" stroke="#000000" stroke-width="1" points="78,67 974,67 "/>
<text x="105" y="58" dy="-0.5ex" text-anchor="middle" font-family="sans-serif" font-size="9.67741935483871" opacity="1" fill="#000000">
+03:35:44
</text>
<polyline fill="none" opacity="1" stroke="#000000" stroke-width="1" points="105,62 105,67 "/>
<text x="211" y="58" dy="-0.5ex" text-anchor="middle" font-family="sans-serif" font-size="9.67741935483871" opacity="1" fill="#000000">
+17:29:04
</text>
<polyline fill="none" opacity="1" stroke="#000000" stroke-width="1" points="211,62 211,67 "/>
<text x="317" y="58" dy="-0.5ex" text-anchor="middle" font-family="sans-serif" font-size="9.67741935483871" opacity="1" fill="#000000">
+31:22:24
</text>
<polyline fill="none" opacity="1" stroke="#000000" stroke-width="1" points="317,62 317,67 "/>
<text x="423" y="58" dy="-0.5ex" text-anchor="middle" font-family="sans-serif" font-size="9.67741935483871" opacity="1" fill="#000000">
+45:15:44
</text>
<polyline fill="none" opacity="1" stroke="#000000" stroke-width="1" points="423,62 423,67 "/>
<text x="528" y="58" dy="-0.5ex" text-anchor="middle" font-family="sans-serif" font-size="9.67741935483871" opacity="1" fill="#000000">
+59:09:04
</text>
<polyline fill="none" opacity="1" stroke="#000000" stroke-width="1" points="528,62 528,67 "/>
<text x="634" y="58" dy="-0.5ex" text-anchor="middle" font-family="sans-serif" font-size="9.67741935483871" opacity="1" fill="#000000">
+73:02:24
</text>
<polyline fill="none" opacity="1" stroke="#000000" stroke-width="1" points="634,62 634,67 "/>
<text x="740" y="58" dy="-0.5ex" text-anchor="middle" font-family="sans-serif" font-size="9.67741935483871" opacity="1" fill="#000000">
+86:55:44
</text>
<polyline fill="none" opacity="1" stroke="#000000" stroke-width="1" points="740,62 740,67 "/>
<text x="846" y="58" dy="-0.5ex" text-anchor="middle" font-family="sans-serif" font-size="9.67741935483871" opacity="1" fill="#000000">
+100:49:04
</text>
<polyline fill="none" opacity="1" stroke="#000000" stroke-width="1" points="846,62 846,67 "/>
<text x="952" y="58" dy="-0.5ex" text-anchor="middle" font-family="sans-serif" font-size="9.67741935483871" opacity="1" fill="#000000">
+114:42:24
</text>
<polyline fill="none" opacity="1" stroke="#000000" stroke-width="1" points="952,62 952,67 "/>
<rect x="83" y="73" width="99" height="45" opacity="0.75" fill="#FFFFFF" stroke="none"/>
<rect x="83" y="73" width="99" height="45" opacity="1" fill="none" stroke="#000000"/>
<text x="123" y="83" dy="0.76em" text-anchor="start" font-family="sans-serif" font-size="9.67741935483871" opacity="1" fill="#000000">
Temporary
</text>
<text x="123" y="98" dy="0.76em" text-anchor="start" font-family="sans-serif" font-size="9.67741935483871" opacity="1" fill="#000000">
Leaked
</text>
<rect x="93" y="83" width="10" height="10" opacity="1" fill="#3CB44B" stroke="none"/>
<rect x="93" y="98" width="10" height="10" opacity="1" fill="#E6194B" stroke="none"/>
</svg>
