<svg width="1024" height="768" viewBox="0 0 1024 768" xmlns="http://www.w3.org/2000/svg">
<rect x="0" y="0" width="1024" height="768" opacity="1" fill="#FFFFFF" stroke="none"/>
<polygon opacity="1" fill="#E6194B" points="78,631 79,602 80,571 80,563 81,561 82,560 83,561 84,560 85,560 86,559 87,557 88,556 88,556 89,553 90,552 91,552 92,552 93,551 94,551 95,550 96,550 97,546 97,547 98,546 99,546 100,545 101,545 102,544 103,536 104,539 105,539 105,539 106,538 107,536 108,534 109,534 110,533 111,532 112,531 113,531 114,531 114,529 115,529 116,528 117,516 118,521 119,520 120,519 121,518 122,518 122,517 123,517 124,516 125,515 126,514 127,514 128,514 129,497 130,503 131,503 131,502 132,502 133,501 134,500 135,499 136,498 137,498 138,497 139,497 139,496 140,495 141,495 142,494 143,493 144,492 145,491 146,491 147,491 148,489 148,489 149,488 150,487 151,487 152,486 153,485 154,484 155,483 156,460 156,470 157,470 158,469 159,468 160,467 161,467 162,467 163,465 164,465 165,464 165,463 166,463 167,462 168,462 169,460 170,459 171,459 172,458 173,458 173,457 174,457 175,457 176,456 177,455 178,454 179,454 180,453 181,421 182,436 182,436 183,455 184,454 185,455 186,453 187,453 188,452 189,451 190,451 190,450 191,450 192,448 193,448 194,447 195,447 196,446 197,445 198,445 199,444 199,443 200,443 201,442 202,441 203,441 204,440 205,440 206,439 207,438 207,437 208,436 209,436 210,436 211,435 212,435 213,434 214,434 215,433 216,433 216,432 217,431 218,430 219,430 220,430 221,429 222,428 223,428 224,426 225,427 225,426 226,424 227,425 228,423 229,422 230,423 231,421 232,421 233,420 233,419 234,419 235,418 236,370 237,393 238,392 239,391 240,391 241,391 242,389 242,389 243,388 244,387 245,388 246,386 247,386 248,385 249,383 250,384 250,383 251,382 252,381 253,380 254,380 255,380 256,379 257,378 258,377 259,377 259,376 260,376 261,375 262,374 263,373 264,373 265,373 266,372 267,371 267,370 268,369 269,369 270,369 271,368 272,367 273,366 274,366 275,365 276,365 276,364 277,363 278,362 279,362 280,362 281,362 282,361 283,360 284,359 284,359 285,359 286,357 287,357 288,356 289,355 290,355 291,354 292,354 293,353 293,352 294,352 295,351 296,351 297,349 298,349 299,348 300,348 301,347 301,346 302,346 303,345 304,344 305,344 306,343 307,343 308,342 309,341 310,341 310,340 311,339 312,338 313,337 314,338 315,336 316,336 317,335 318,334 318,334 319,333 320,333 321,332 322,331 323,331 324,332 325,332 326,331 327,330 327,329 328,329 329,329 330,328 331,327 332,326 333,325 334,325 335,325 335,324 336,323 337,322 338,321 339,321 340,321 341,320 342,319 343,318 344,317 344,318 345,316 346,316 347,315 348,314 349,314 350,313 351,313 352,312 352,310 353,310 354,310 355,309 356,308 357,307 358,307 359,306 360,306 361,305 361,304 362,303 363,302 364,303 365,302 366,301 367,300 368,299 369,299 369,298 370,298 371,297 372,296 373,296 374,295 375,295 376,294 377,293 378,292 378,292 379,292 380,290 381,290 382,289 383,288 384,289 385,287 386,286 386,286 387,284 388,285 389,284 390,283 391,282 392,281 393,281 394,280 395,280 395,278 396,277 397,277 398,276 399,276 400,181 401,227 402,226 403,225 404,225 404,224 405,223 406,223 407,222 408,222 409,221 410,220 411,219 412,218 412,218 413,217 414,217 415,216 416,215 417,214 418,214 419,214 420,213 421,212 421,211 422,210 423,211 424,209 425,209 426,208 427,207 428,207 429,206 429,206 430,205 431,203 432,203 433,203 434,203 435,202 436,202 437,201 438,200 438,200 439,199 440,198 441,197 442,197 443,196 444,196 445,196 446,195 446,194 447,194 448,194 449,193 450,192 451,190 452,190 453,190 454,189 455,188 455,187 456,187 457,186 458,186 459,185 460,184 461,183 462,182 463,183 463,181 464,181 465,180 466,179 467,179 468,178 469,178 470,177 471,176 472,176 472,176 473,176 474,174 475,173 476,173 477,172 478,172 479,171 480,170 480,169 481,168 482,169 483,168 484,167 485,166 486,165 487,165 488,164 489,164 489,163 490,162 491,161 492,161 493,161 494,159 495,159 496,158 497,157 497,157 498,156 499,156 500,154 501,154 502,154 503,153 504,153 505,151 506,150 506,150 507,149 508,149 509,148 510,147 511,147 512,146 513,146 514,145 514,144 515,143 516,142 517,143 518,141 519,141 520,140 521,139 522,139 523,138 523,138 524,136 525,136 526,135 527,135 528,135 529,133 530,132 531,131 531,131 532,131 533,129 534,129 535,128 536,127 537,128 538,126 539,126 540,125 540,124 541,124 542,123 543,123 544,121 545,121 546,120 547,121 548,120 548,119 549,119 550,117 551,117 552,117 553,116 554,116 555,114 556,113 557,114 557,113 558,112 559,111 560,110 561,110 562,110 563,110 564,110 565,109 565,108 566,108 567,107 568,107 569,105 570,105 571,104 572,103 573,104 574,102 574,102 575,101 576,100 577,100 578,99 579,99 580,98 581,97 582,96 583,96 583,96 584,94 585,93 586,93 587,92 588,92 589,91 590,90 591,90 591,88 592,88 593,88 594,88 595,87 596,87 597,87 598,87 599,87 600,86 600,86 601,85 602,86 603,85 604,85 605,84 606,84 607,84 608,85 608,84 609,83 610,83 611,83 612,84 613,83 614,82 615,82 616,81 617,81 617,82 618,81 619,81 620,80 621,80 622,81 623,81 624,81 625,80 625,80 626,80 627,80 628,80 629,79 630,79 631,78 632,78 633,79 634,78 634,78 635,77 636,77 637,77 638,77 639,77 640,76 641,76 642,75 642,76 643,76 644,75 645,75 646,74 647,74 648,74 649,73 650,74 651,72 651,72 652,73 653,72 654,72 655,71 656,71 657,71 658,71 659,71 659,70 660,70 661,70 662,70 663,71 664,70 665,70 666,69 667,69 668,70 668,69 669,69 670,68 671,68 672,68 673,68 674,68 675,190 676,190 676,190 677,190 678,190 679,189 680,189 681,189 682,188 683,189 684,188 685,188 685,187 686,187 687,188 688,187 689,187 690,186 691,186 692,186 693,186 693,186 694,185 695,185 696,185 697,184 698,185 699,184 700,184 701,184 702,183 702,184 703,183 704,183 705,182 706,182 707,182 708,182 709,181 710,181 710,181 711,180 712,181 713,180 714,180 715,179 716,179 717,179 718,179 719,178 719,178 720,178 721,177 722,178 723,177 724,177 725,176 726,176 727,176 727,176 728,176 729,175 730,175 731,175 732,174 733,175 734,174 735,174 736,174 736,173 737,174 738,173 739,173 740,172 741,172 742,172 743,172 744,172 744,171 745,171 746,171 747,171 748,171 749,170 750,170 751,169 752,169 753,170 753,169 754,169 755,168 756,167 757,168 758,168 759,167 760,167 761,166 762,167 762,167 763,166 764,166 765,165 766,165 767,165 768,165 769,164 770,164 770,164 771,164 772,165 773,165 774,165 775,165 776,164 777,165 778,165 779,164 779,164 780,163 781,164 782,163 783,163 784,163 785,162 786,162 787,162 787,162 788,162 789,161 790,161 791,160 792,161 793,161 794,160 795,160 796,159 796,158 797,159 798,159 799,158 800,158 801,157 802,158 803,157 804,157 804,156 805,156 806,156 807,157 808,156 809,156 810,156 811,155 812,155 813,155 813,154 814,155 815,154 816,153 817,154 818,153 819,154 820,152 821,152 821,153 822,152 823,152 824,151 825,151 826,151 827,151 828,151 829,150 830,150 830,149 831,149 832,149 833,149 834,149 835,148 836,148 837,148 838,148 838,148 839,147 840,147 841,146 842,146 843,146 844,146 845,146 846,146 847,146 847,146 848,145 849,145 850,145 851,144 852,145 853,144 854,144 855,144 855,143 856,143 857,143 858,143 859,142 860,142 861,141 862,141 863,142 864,141 864,141 865,140 866,140 867,140 868,140 869,140 870,139 871,138 872,139 872,138 873,139 874,138 875,137 876,137 877,137 878,137 879,136 880,136 881,136 881,136 882,136 883,135 884,135 885,135 886,134 887,136 888,135 889,135 889,135 890,134 891,134 892,134 893,134 894,133 895,133 896,133 897,132 898,133 898,132 899,132 900,131 901,131 902,132 903,131 904,130 905,130 906,129 906,130 907,129 908,129 909,128 910,128 911,128 912,128 913,128 914,127 915,127 915,126 916,126 917,126 918,126 919,126 920,125 921,125 922,126 923,126 923,126 924,125 925,125 926,125 927,125 928,124 929,124 930,124 931,123 932,124 932,123 933,123 934,122 935,122 936,121 937,122 938,121 939,121 940,120 941,121 941,121 942,121 943,120 944,119 945,119 946,119 947,119 948,119 949,118 949,118 950,117 951,118 952,117 953,117 954,116 955,116 956,116 957,116 958,116 958,115 959,115 960,115 961,115 962,115 963,114 964,114 965,113 966,113 966,114 967,113 968,113 969,112 970,112 971,113 972,112 972,112 973,112 973,699 78,699 "/>
<polyline fill="none" opacity="1" stroke="#E6194B" stroke-width="1" points="78,631 79,602 80,571 80,563 81,561 82,560 83,561 84,560 85,560 86,559 87,557 88,556 88,556 89,553 90,552 91,552 92,552 93,551 94,551 95,550 96,550 97,546 97,547 98,546 99,546 100,545 101,545 102,544 103,536 104,539 105,539 105,539 106,538 107,536 108,534 109,534 110,533 111,532 112,531 113,531 114,531 114,529 115,529 116,528 117,516 118,521 119,520 120,519 121,518 122,518 122,517 123,517 124,516 125,515 126,514 127,514 128,514 129,497 130,503 131,503 131,502 132,502 133,501 134,500 135,499 136,498 137,498 138,497 139,497 139,496 140,495 141,495 142,494 143,493 144,492 145,491 146,491 147,491 148,489 148,489 149,488 150,487 151,487 152,486 153,485 154,484 155,483 156,460 156,470 157,470 158,469 159,468 160,467 161,467 162,467 163,465 164,465 165,464 165,463 166,463 167,462 168,462 169,460 170,459 171,459 172,458 173,458 173,457 174,457 175,457 176,456 177,455 178,454 179,454 180,453 181,421 182,436 182,436 183,455 184,454 185,455 186,453 187,453 188,452 189,451 190,451 190,450 191,450 192,448 193,448 194,447 195,447 196,446 197,445 198,445 199,444 199,443 200,443 201,442 202,441 203,441 204,440 205,440 206,439 207,438 207,437 208,436 209,436 210,436 211,435 212,435 213,434 214,434 215,433 216,433 216,432 217,431 218,430 219,430 220,430 221,429 222,428 223,428 224,426 225,427 225,426 226,424 227,425 228,423 229,422 230,423 231,421 232,421 233,420 233,419 234,419 235,418 236,370 237,393 238,392 239,391 240,391 241,391 242,389 242,389 243,388 244,387 245,388 246,386 247,386 248,385 249,383 250,384 250,383 251,382 252,381 253,380 254,380 255,380 256,379 257,378 258,377 259,377 259,376 260,376 261,375 262,374 263,373 264,373 265,373 266,372 267,371 267,370 268,369 269,369 270,369 271,368 272,367 273,366 274,366 275,365 276,365 276,364 277,363 278,362 279,362 280,362 281,362 282,361 283,360 284,359 284,359 285,359 286,357 287,357 288,356 289,355 290,355 291,354 292,354 293,353 293,352 294,352 295,351 296,351 297,349 298,349 299,348 300,348 301,347 301,346 302,346 303,345 304,344 305,344 306,343 307,343 308,342 309,341 310,341 310,340 311,339 312,338 313,337 314,338 315,336 316,336 317,335 318,334 318,334 319,333 320,333 321,332 322,331 323,331 324,332 325,332 326,331 327,330 327,329 328,329 329,329 330,328 331,327 332,326 333,325 334,325 335,325 335,324 336,323 337,322 338,321 339,321 340,321 341,320 342,319 343,318 344,317 344,318 345,316 346,316 347,315 348,314 349,314 350,313 351,313 352,312 352,310 353,310 354,310 355,309 356,308 357,307 358,307 359,306 360,306 361,305 361,304 362,303 363,302 364,303 365,302 366,301 367,300 368,299 369,299 369,298 370,298 371,297 372,296 373,296 374,295 375,295 376,294 377,293 378,292 378,292 379,292 380,290 381,290 382,289 383,288 384,289 385,287 386,286 386,286 387,284 388,285 389,284 390,283 391,282 392,281 393,281 394,280 395,280 395,278 396,277 397,277 398,276 399,276 400,181 401,227 402,226 403,225 404,225 404,224 405,223 406,223 407,222 408,222 409,221 410,220 411,219 412,218 412,218 413,217 414,217 415,216 416,215 417,214 418,214 419,214 420,213 421,212 421,211 422,210 423,211 424,209 425,209 426,208 427,207 428,207 429,206 429,206 430,205 431,203 432,203 433,203 434,203 435,202 436,202 437,201 438,200 438,200 439,199 440,198 441,197 442,197 443,196 444,196 445,196 446,195 446,194 447,194 448,194 449,193 450,192 451,190 452,190 453,190 454,189 455,188 455,187 456,187 457,186 458,186 459,185 460,184 461,183 462,182 463,183 463,181 464,181 465,180 466,179 467,179 468,178 469,178 470,177 471,176 472,176 472,176 473,176 474,174 475,173 476,173 477,172 478,172 479,171 480,170 480,169 481,168 482,169 483,168 484,167 485,166 486,165 487,165 488,164 489,164 489,163 490,162 491,161 492,161 493,161 494,159 495,159 496,158 497,157 497,157 498,156 499,156 500,154 501,154 502,154 503,153 504,153 505,151 506,150 506,150 507,149 508,149 509,148 510,147 511,147 512,146 513,146 514,145 514,144 515,143 516,142 517,143 518,141 519,141 520,140 521,139 522,139 523,138 523,138 524,136 525,136 526,135 527,135 528,135 529,133 530,132 531,131 531,131 532,131 533,129 534,129 535,128 536,127 537,128 538,126 539,126 540,125 540,124 541,124 542,123 543,123 544,121 545,121 546,120 547,121 548,120 548,119 549,119 550,117 551,117 552,117 553,116 554,116 555,114 556,113 557,114 557,113 558,112 559,111 560,110 561,110 562,110 563,110 564,110 565,109 565,108 566,108 567,107 568,107 569,105 570,105 571,104 572,103 573,104 574,102 574,102 575,101 576,100 577,100 578,99 579,99 580,98 581,97 582,96 583,96 583,96 584,94 585,93 586,93 587,92 588,92 589,91 590,90 591,90 591,88 592,88 593,88 594,88 595,87 596,87 597,87 598,87 599,87 600,86 600,86 601,85 602,86 603,85 604,85 605,84 606,84 607,84 608,85 608,84 609,83 610,83 611,83 612,84 613,83 614,82 615,82 616,81 617,81 617,82 618,81 619,81 620,80 621,80 622,81 623,81 624,81 625,80 625,80 626,80 627,80 628,80 629,79 630,79 631,78 632,78 633,79 634,78 634,78 635,77 636,77 637,77 638,77 639,77 640,76 641,76 642,75 642,76 643,76 644,75 645,75 646,74 647,74 648,74 649,73 650,74 651,72 651,72 652,73 653,72 654,72 655,71 656,71 657,71 658,71 659,71 659,70 660,70 661,70 662,70 663,71 664,70 665,70 666,69 667,69 668,70 668,69 669,69 670,68 671,68 672,68 673,68 674,68 675,190 676,190 676,190 677,190 678,190 679,189 680,189 681,189 682,188 683,189 684,188 685,188 685,187 686,187 687,188 688,187 689,187 690,186 691,186 692,186 693,186 693,186 694,185 695,185 696,185 697,184 698,185 699,184 700,184 701,184 702,183 702,184 703,183 704,183 705,182 706,182 707,182 708,182 709,181 710,181 710,181 711,180 712,181 713,180 714,180 715,179 716,179 717,179 718,179 719,178 719,178 720,178 721,177 722,178 723,177 724,177 725,176 726,176 727,176 727,176 728,176 729,175 730,175 731,175 732,174 733,175 734,174 735,174 736,174 736,173 737,174 738,173 739,173 740,172 741,172 742,172 743,172 744,172 744,171 745,171 746,171 747,171 748,171 749,170 750,170 751,169 752,169 753,170 753,169 754,169 755,168 756,167 757,168 758,168 759,167 760,167 761,166 762,167 762,167 763,166 764,166 765,165 766,165 767,165 768,165 769,164 770,164 770,164 771,164 772,165 773,165 774,165 775,165 776,164 777,165 778,165 779,164 779,164 780,163 781,164 782,163 783,163 784,163 785,162 786,162 787,162 787,162 788,162 789,161 790,161 791,160 792,161 793,161 794,160 795,160 796,159 796,158 797,159 798,159 799,158 800,158 801,157 802,158 803,157 804,157 804,156 805,156 806,156 807,157 808,156 809,156 810,156 811,155 812,155 813,155 813,154 814,155 815,154 816,153 817,154 818,153 819,154 820,152 821,152 821,153 822,152 823,152 824,151 825,151 826,151 827,151 828,151 829,150 830,150 830,149 831,149 832,149 833,149 834,149 835,148 836,148 837,148 838,148 838,148 839,147 840,147 841,146 842,146 843,146 844,146 845,146 846,146 847,146 847,146 848,145 849,145 850,145 851,144 852,145 853,144 854,144 855,144 855,143 856,143 857,143 858,143 859,142 860,142 861,141 862,141 863,142 864,141 864,141 865,140 866,140 867,140 868,140 869,140 870,139 871,138 872,139 872,138 873,139 874,138 875,137 876,137 877,137 878,137 879,136 880,136 881,136 881,136 882,136 883,135 884,135 885,135 886,134 887,136 888,135 889,135 889,135 890,134 891,134 892,134 893,134 894,133 895,133 896,133 897,132 898,133 898,132 899,132 900,131 901,131 902,132 903,131 904,130 905,130 906,129 906,130 907,129 908,129 909,128 910,128 911,128 912,128 913,128 914,127 915,127 915,126 916,126 917,126 918,126 919,126 920,125 921,125 922,126 923,126 923,126 924,125 925,125 926,125 927,125 928,124 929,124 930,124 931,123 932,124 932,123 933,123 934,122 935,122 936,121 937,122 938,121 939,121 940,120 941,121 941,121 942,121 943,120 944,119 945,119 946,119 947,119 948,119 949,118 949,118 950,117 951,118 952,117 953,117 954,116 955,116 956,116 957,116 958,116 958,115 959,115 960,115 961,115 962,115 963,114 964,114 965,113 966,113 966,114 967,113 968,113 969,112 970,112 971,113 972,112 972,112 973,112 "/>
<line opacity="0.1" stroke="#000000" stroke-width="1" x1="84" y1="699" x2="84" y2="68"/>
<line opacity="0.1" stroke="#000000" stroke-width="1" x1="95" y1="699" x2="95" y2="68"/>
<line opacity="0.1" stroke="#000000" stroke-width="1" x1="106" y1="699" x2="106" y2="68"/>
<line opacity="0.1" stroke="#000000" stroke-width="1" x1="118" y1="699" x2="118" y2="68"/>
<line opacity="0.1" stroke="#000000" stroke-width="1" x1="129" y1="699" x2="129" y2="68"/>
<line opacity="0.1" stroke="#000000" stroke-width="1" x1="140" y1="699" x2="140" y2="68"/>
<line opacity="0.1" stroke="#000000" stroke-width="1" x1="151" y1="699" x2="151" y2="68"/>
<line opacity="0.1" stroke="#000000" stroke-width="1" x1="162" y1="699" x2="162" y2="68"/>
<line opacity="0.1" stroke="#000000" stroke-width="1" x1="174" y1="699" x2="174" y2="68"/>
<line opacity="0.1" stroke="#000000" stroke-width="1" x1="185" y1="699" x2="185" y2="68"/>
<line opacity="0.1" stroke="#000000" stroke-width="1" x1="196" y1="699" x2="196" y2="68"/>
<line opacity="0.1" stroke="#000000" stroke-width="1" x1="207" y1="699" x2="207" y2="68"/>
<line opacity="0.1" stroke="#000000" stroke-width="1" x1="218" y1="699" x2="218" y2="68"/>
<line opacity="0.1" stroke="#000000" stroke-width="1" x1="229" y1="699" x2="229" y2="68"/>
<line opacity="0.1" stroke="#000000" stroke-width="1" x1="241" y1="699" x2="241" y2="68"/>
<line opacity="0.1" stroke="#000000" stroke-width="1" x1="252" y1="699" x2="252" y2="68"/>
<line opacity="0.1" stroke="#000000" stroke-width="1" x1="263" y1="699" x2="263" y2="68"/>
<line opacity="0.1" stroke="#000000" stroke-width="1" x1="274" y1="699" x2="274" y2="68"/>
<line opacity="0.1" stroke="#000000" stroke-width="1" x1="285" y1="699" x2="285" y2="68"/>
<line opacity="0.1" stroke="#000000" stroke-width="1" x1="297" y1="699" x2="297" y2="68"/>
<line opacity="0.1" stroke="#000000" stroke-width="1" x1="308" y1="699" x2="308" y2="68"/>
<line opacity="0.1" stroke="#000000" stroke-width="1" x1="319" y1="699" x2="319" y2="68"/>
<line opacity="0.1" stroke="#000000" stroke-width="1" x1="330" y1="699" x2="330" y2="68"/>
<line opacity="0.1" stroke="#000000" stroke-width="1" x1="341" y1="699" x2="341" y2="68"/>
<line opacity="0.1" stroke="#000000" stroke-width="1" x1="352" y1="699" x2="352" y2="68"/>
<line opacity="0.1" stroke="#000000" stroke-width="1" x1="364" y1="699" x2="364" y2="68"/>
<line opacity="0.1" stroke="#000000" stroke-width="1" x1="375" y1="699" x2="375" y2="68"/>
<line opacity="0.1" stroke="#000000" stroke-width="1" x1="386" y1="699" x2="386" y2="68"/>
<line opacity="0.1" stroke="#000000" stroke-width="1" x1="397" y1="699" x2="397" y2="68"/>
<line opacity="0.1" stroke="#000000" stroke-width="1" x1="408" y1="699" x2="408" y2="68"/>
<line opacity="0.1" stroke="#000000" stroke-width="1" x1="420" y1="699" x2="420" y2="68"/>
<line opacity="0.1" stroke="#000000" stroke-width="1" x1="431" y1="699" x2="431" y2="68"/>
<line opacity="0.1" stroke="#000000" stroke-width="1" x1="442" y1="699" x2="442" y2="68"/>
<line opacity="0.1" stroke="#000000" stroke-width="1" x1="453" y1="699" x2="453" y2="68"/>
<line opacity="0.1" stroke="#000000" stroke-width="1" x1="464" y1="699" x2="464" y2="68"/>
<line opacity="0.1" stroke="#000000" stroke-width="1" x1="476" y1="699" x2="476" y2="68"/>
<line opacity="0.1" stroke="#000000" stroke-width="1" x1="487" y1="699" x2="487" y2="68"/>
<line opacity="0.1" stroke="#000000" stroke-width="1" x1="498" y1="699" x2="498" y2="68"/>
<line opacity="0.1" stroke="#000000" stroke-width="1" x1="509" y1="699" x2="509" y2="68"/>
<line opacity="0.1" stroke="#000000" stroke-width="1" x1="520" y1="699" x2="520" y2="68"/>
<line opacity="0.1" stroke="#000000" stroke-width="1" x1="531" y1="699" x2="531" y2="68"/>
<line opacity="0.1" stroke="#000000" stroke-width="1" x1="543" y1="699" x2="543" y2="68"/>
<line opacity="0.1" stroke="#000000" stroke-width="1" x1="554" y1="699" x2="554" y2="68"/>
<line opacity="0.1" stroke="#000000" stroke-width="1" x1="565" y1="699" x2="565" y2="68"/>
<line opacity="0.1" stroke="#000000" stroke-width="1" x1="576" y1="699" x2="576" y2="68"/>
<line opacity="0.1" stroke="#000000" stroke-width="1" x1="587" y1="699" x2="587" y2="68"/>
<line opacity="0.1" stroke="#000000" stroke-width="1" x1="599" y1="699" x2="599" y2="68"/>
<line opacity="0.1" stroke="#000000" stroke-width="1" x1="610" y1="699" x2="610" y2="68"/>
<line opacity="0.1" stroke="#000000" stroke-width="1" x1="621" y1="699" x2="621" y2="68"/>
<line opacity="0.1" stroke="#000000" stroke-width="1" x1="632" y1="699" x2="632" y2="68"/>
<line opacity="0.1" stroke="#000000" stroke-width="1" x1="643" y1="699" x2="643" y2="68"/>
<line opacity="0.1" stroke="#000000" stroke-width="1" x1="654" y1="699" x2="654" y2="68"/>
<line opacity="0.1" stroke="#000000" stroke-width="1" x1="666" y1="699" x2="666" y2="68"/>
<line opacity="0.1" stroke="#000000" stroke-width="1" x1="677" y1="699" x2="677" y2="68"/>
<line opacity="0.1" stroke="#000000" stroke-width="1" x1="688" y1="699" x2="688" y2="68"/>
<line opacity="0.1" stroke="#000000" stroke-width="1" x1="699" y1="699" x2="699" y2="68"/>
<line opacity="0.1" stroke="#000000" stroke-width="1" x1="710" y1="699" x2="710" y2="68"/>
<line opacity="0.1" stroke="#000000" stroke-width="1" x1="722" y1="699" x2="722" y2="68"/>
<line opacity="0.1" stroke="#000000" stroke-width="1" x1="733" y1="699" x2="733" y2="68"/>
<line opacity="0.1" stroke="#000000" stroke-width="1" x1="744" y1="699" x2="744" y2="68"/>
<line opacity="0.1" stroke="#000000" stroke-width="1" x1="755" y1="699" x2="755" y2="68"/>
<line opacity="0.1" stroke="#000000" stroke-width="1" x1="766" y1="699" x2="766" y2="68"/>
<line opacity="0.1" stroke="#000000" stroke-width="1" x1="777" y1="699" x2="777" y2="68"/>
<line opacity="0.1" stroke="#000000" stroke-width="1" x1="789" y1="699" x2="789" y2="68"/>
<line opacity="0.1" stroke="#000000" stroke-width="1" x1="800" y1="699" x2="800" y2="68"/>
<line opacity="0.1" stroke="#000000" stroke-width="1" x1="811" y1="699" x2="811" y2="68"/>
<line opacity="0.1" stroke="#000000" stroke-width="1" x1="822" y1="699" x2="822" y2="68"/>
<line opacity="0.1" stroke="#000000" stroke-width="1" x1="833" y1="699" x2="833" y2="68"/>
<line opacity="0.1" stroke="#000000" stroke-width="1" x1="845" y1="699" x2="845" y2="68"/>
<line opacity="0.1" stroke="#000000" stroke-width="1" x1="856" y1="699" x2="856" y2="68"/>
<line opacity="0.1" stroke="#000000" stroke-width="1" x1="867" y1="699" x2="867" y2="68"/>
<line opacity="0.1" stroke="#000000" stroke-width="1" x1="878" y1="699" x2="878" y2="68"/>
<line opacity="0.1" stroke="#000000" stroke-width="1" x1="889" y1="699" x2="889" y2="68"/>
<line opacity="0.1" stroke="#000000" stroke-width="1" x1="900" y1="699" x2="900" y2="68"/>
<line opacity="0.1" stroke="#000000" stroke-width="1" x1="912" y1="699" x2="912" y2="68"/>
<line opacity="0.1" stroke="#000000" stroke-width="1" x1="923" y1="699" x2="923" y2="68"/>
<line opacity="0.1" stroke="#000000" stroke-width="1" x1="934" y1="699" x2="934" y2="68"/>
<line opacity="0.1" stroke="#000000" stroke-width="1" x1="945" y1="699" x2="945" y2="68"/>
<line opacity="0.1" stroke="#000000" stroke-width="1" x1="956" y1="699" x2="956" y2="68"/>
<line opacity="0.1" stroke="#000000" stroke-width="1" x1="968" y1="699" x2="968" y2="68"/>
<line opacity="0.1" stroke="#000000" stroke-width="1" x1="78" y1="699" x2="973" y2="699"/>
<line opacity="0.1" stroke="#000000" stroke-width="1" x1="78" y1="686" x2="973" y2="686"/>
<line opacity="0.1" stroke="#000000" stroke-width="1" x1="78" y1="673" x2="973" y2="673"/>
<line opacity="0.1" stroke="#000000" stroke-width="1" x1="78" y1="660" x2="973" y2="660"/>
<line opacity="0.1" stroke="#000000" stroke-width="1" x1="78" y1="647" x2="973" y2="647"/>
<line opacity="0.1" stroke="#000000" stroke-width="1" x1="78" y1="634" x2="973" y2="634"/>
<line opacity="0.1" stroke="#000000" stroke-width="1" x1="78" y1="622" x2="973" y2="622"/>
<line opacity="0.1" stroke="#000000" stroke-width="1" x1="78" y1="609" x2="973" y2="609"/>
<line opacity="0.1" stroke="#000000" stroke-width="1" x1="78" y1="596" x2="973" y2="596"/>
<line opacity="0.1" stroke="#000000" stroke-width="1" x1="78" y1="583" x2="973" y2="583"/>
<line opacity="0.1" stroke="#000000" stroke-width="1" x1="78" y1="570" x2="973" y2="570"/>
<line opacity="0.1" stroke="#000000" stroke-width="1" x1="78" y1="557" x2="973" y2="557"/>
<line opacity="0.1" stroke="#000000" stroke-width="1" x1="78" y1="545" x2="973" y2="545"/>
<line opacity="0.1" stroke="#000000" stroke-width="1" x1="78" y1="532" x2="973" y2="532"/>
<line opacity="0.1" stroke="#000000" stroke-width="1" x1="78" y1="519" x2="973" y2="519"/>
<line opacity="0.1" stroke="#000000" stroke-width="1" x1="78" y1="506" x2="973" y2="506"/>
<line opacity="0.1" stroke="#000000" stroke-width="1" x1="78" y1="493" x2="973" y2="493"/>
<line opacity="0.1" stroke="#000000" stroke-width="1" x1="78" y1="480" x2="973" y2="480"/>
<line opacity="0.1" stroke="#000000" stroke-width="1" x1="78" y1="468" x2="973" y2="468"/>
<line opacity="0.1" stroke="#000000" stroke-width="1" x1="78" y1="455" x2="973" y2="455"/>
<line opacity="0.1" stroke="#000000" stroke-width="1" x1="78" y1="442" x2="973" y2="442"/>
<line opacity="0.1" stroke="#000000" stroke-width="1" x1="78" y1="429" x2="973" y2="429"/>
<line opacity="0.1" stroke="#000000" stroke-width="1" x1="78" y1="416" x2="973" y2="416"/>
<line opacity="0.1" stroke="#000000" stroke-width="1" x1="78" y1="404" x2="973" y2="404"/>
<line opacity="0.1" stroke="#000000" stroke-width="1" x1="78" y1="391" x2="973" y2="391"/>
<line opacity="0.1" stroke="#000000" stroke-width="1" x1="78" y1="378" x2="973" y2="378"/>
<line opacity="0.1" stroke="#000000" stroke-width="1" x1="78" y1="365" x2="973" y2="365"/>
<line opacity="0.1" stroke="#000000" stroke-width="1" x1="78" y1="352" x2="973" y2="352"/>
<line opacity="0.1" stroke="#000000" stroke-width="1" x1="78" y1="339" x2="973" y2="339"/>
<line opacity="0.1" stroke="#000000" stroke-width="1" x1="78" y1="327" x2="973" y2="327"/>
<line opacity="0.1" stroke="#000000" stroke-width="1" x1="78" y1="314" x2="973" y2="314"/>
<line opacity="0.1" stroke="#000000" stroke-width="1" x1="78" y1="301" x2="973" y2="301"/>
<line opacity="0.1" stroke="#000000" stroke-width="1" x1="78" y1="288" x2="973" y2="288"/>
<line opacity="0.1" stroke="#000000" stroke-width="1" x1="78" y1="275" x2="973" y2="275"/>
<line opacity="0.1" stroke="#000000" stroke-width="1" x1="78" y1="262" x2="973" y2="262"/>
<line opacity="0.1" stroke="#000000" stroke-width="1" x1="78" y1="250" x2="973" y2="250"/>
<line opacity="0.1" stroke="#000000" stroke-width="1" x1="78" y1="237" x2="973" y2="237"/>
<line opacity="0.1" stroke="#000000" stroke-width="1" x1="78" y1="224" x2="973" y2="224"/>
<line opacity="0.1" stroke="#000000" stroke-width="1" x1="78" y1="211" x2="973" y2="211"/>
<line opacity="0.1" stroke="#000000" stroke-width="1" x1="78" y1="198" x2="973" y2="198"/>
<line opacity="0.1" stroke="#000000" stroke-width="1" x1="78" y1="185" x2="973" y2="185"/>
<line opacity="0.1" stroke="#000000" stroke-width="1" x1="78" y1="173" x2="973" y2="173"/>
<line opacity="0.1" stroke="#000000" stroke-width="1" x1="78" y1="160" x2="973" y2="160"/>
<line opacity="0.1" stroke="#000000" stroke-width="1" x1="78" y1="147" x2="973" y2="147"/>
<line opacity="0.1" stroke="#000000" stroke-width="1" x1="78" y1="134" x2="973" y2="134"/>
<line opacity="0.1" stroke="#000000" stroke-width="1" x1="78" y1="121" x2="973" y2="121"/>
<line opacity="0.1" stroke="#000000" stroke-width="1" x1="78" y1="109" x2="973" y2="109"/>
<line opacity="0.1" stroke="#000000" stroke-width="1" x1="78" y1="96" x2="973" y2="96"/>
<line opacity="0.1" stroke="#000000" stroke-width="1" x1="78" y1="83" x2="973" y2="83"/>
<line opacity="0.1" stroke="#000000" stroke-width="1" x1="78" y1="70" x2="973" y2="70"/>
<text x="8" y="384" dy="0.76em" text-anchor="middle" font-family="sans-serif" font-size="9.67741935483871" opacity="1" fill="#000000" transform="rotate(270, 8, 384)">
Memory usage
</text>
<text x="526" y="760" dy="-0.5ex" text-anchor="middle" font-family="sans-serif" font-size="9.67741935483871" opacity="1" fill="#000000">
Time
</text>
<line opacity="0.2" stroke="#000000" stroke-width="1" x1="106" y1="699" x2="106" y2="68"/>
<line opacity="0.2" stroke="#000000" stroke-width="1" x1="218" y1="699" x2="218" y2="68"/>
<line opacity="0.2" stroke="#000000" stroke-width="1" x1="330" y1="699" x2="330" y2="68"/>
<line opacity="0.2" stroke="#000000" stroke-width="1" x1="442" y1="699" x2="442" y2="68"/>
<line opacity="0.2" stroke="#000000" stroke-width="1" x1="554" y1="699" x2="554" y2="68"/>
<line opacity="0.2" stroke="#000000" stroke-width="1" x1="666" y1="699" x2="666" y2="68"/>
<line opacity="0.2" stroke="#000000" stroke-width="1" x1="777" y1="699" x2="777" y2="68"/>
<line opacity="0.2" stroke="#000000" stroke-width="1" x1="889" y1="699" x2="889" y2="68"/>
<line opacity="0.2" stroke="#000000" stroke-width="1" x1="78" y1="699" x2="973" y2="699"/>
<line opacity="0.2" stroke="#000000" stroke-width="1" x1="78" y1="570" x2="973" y2="570"/>
<line opacity="0.2" stroke="#000000" stroke-width="1" x1="78" y1="442" x2="973" y2="442"/>
<line opacity="0.2" stroke="#000000" stroke-width="1" x1="78" y1="314" x2="973" y2="314"/>
<line opacity="0.2" stroke="#000000" stroke-width="1" x1="78" y1="185" x2="973" y2="185"/>
<polyline fill="none" opacity="1" stroke="#000000" stroke-width="1" points="77,68 77,699 "/>
<text x="68" y="699" dy="0.5ex" text-anchor="end" font-family="sans-serif" font-size="9.67741935483871" opacity="1" fill="#000000">
0 MB
</text>
<polyline fill="none" opacity="1" stroke="#000000" stroke-width="1" points="72,699 77,699 "/>
<text x="68" y="570" dy="0.5ex" text-anchor="end" font-family="sans-serif" font-size="9.67741935483871" opacity="1" fill="#000000">
476 MB
</text>
<polyline fill="none" opacity="1" stroke="#000000" stroke-width="1" points="72,570 77,570 "/>
<text x="68" y="442" dy="0.5ex" text-anchor="end" font-family="sans-serif" font-size="9.67741935483871" opacity="1" fill="#000000">
953 MB
</text>
<polyline fill="none" opacity="1" stroke="#000000" stroke-width="1" points="72,442 77,442 "/>
<text x="68" y="314" dy="0.5ex" text-anchor="end" font-family="sans-serif" font-size="9.67741935483871" opacity="1" fill="#000000">
1430 MB
</text>
<polyline fill="none" opacity="1" stroke="#000000" stroke-width="1" points="72,314 77,314 "/>
<text x="68" y="185" dy="0.5ex" text-anchor="end" font-family="sans-serif" font-size="9.67741935483871" opacity="1" fill="#000000">
1907 MB
</text>
<polyline fill="none" opacity="1" stroke="#000000" stroke-width="1" points="72,185 77,185 "/>
<polyline fill="none" opacity="1" stroke="#000000" stroke-width="1" points="78,700 973,700 "/>
<text x="106" y="710" dy="0.76em" text-anchor="middle" font-family="sans-serif" font-size="9.67741935483871" opacity="1" fill="#000000">
07 20:33:20
</text>
<polyline fill="none" opacity="1" stroke="#000000" stroke-width="1" points="106,700 106,705 "/>
<text x="218" y="710" dy="0.76em" text-anchor="middle" font-family="sans-serif" font-size="9.67741935483871" opacity="1" fill="#000000">
08 10:26:40
</text>
<polyline fill="none" opacity="1" stroke="#000000" stroke-width="1" points="218,700 218,705 "/>
<text x="330" y="710" dy="0.76em" text-anchor="middle" font-family="sans-serif" font-size="9.67741935483871" opacity="1" fill="#000000">
09 00:20:00
</text>
<polyline fill="none" opacity="1" stroke="#000000" stroke-width="1" points="330,700 330,705 "/>
<text x="442" y="710" dy="0.76em" text-anchor="middle" font-family="sans-serif" font-size="9.67741935483871" opacity="1" fill="#000000">
09 14:13:20
</text>
<polyline fill="none" opacity="1" stroke="#000000" stroke-width="1" points="442,700 442,705 "/>
<text x="554" y="710" dy="0.76em" text-anchor="middle" font-family="sans-serif" font-size="9.67741935483871" opacity="1" fill="#000000">
10 04:06:40
</text>
<polyline fill="none" opacity="1" stroke="#000000" stroke-width="1" points="554,700 554,705 "/>
<text x="666" y="710" dy="0.76em" text-anchor="middle" font-family="sans-serif" font-size="9.67741935483871" opacity="1" fill="#000000">
10 18:00:00
</text>
<polyline fill="none" opacity="1" stroke="#000000" stroke-width="1" points="666,700 666,705 "/>
<text x="777" y="710" dy="0.76em" text-anchor="middle" font-family="sans-serif" font-size="9.67741935483871" opacity="1" fill="#000000">
11 07:53:20
</text>
<polyline fill="none" opacity="1" stroke="#000000" stroke-width="1" points="777,700 777,705 "/>
<text x="889" y="710" dy="0.76em" text-anchor="middle" font-family="sans-serif" font-size="9.67741935483871" opacity="1" fill="#000000">
11 21:46:40
</text>
<polyline fill="none" opacity="1" stroke="#000000" stroke-width="1" points="889,700 889,705 "/>
<polyline fill="none" opacity="1" stroke="#000000" stroke-width="1" points="78,67 974,67 "/>
<text x="106" y="58" dy="-0.5ex" text-anchor="middle" font-family="sans-serif" font-size="9.67741935483871" opacity="1" fill="#000000">
+03:35:44
</text>
<polyline fill="none" opacity="1" stroke="#000000" stroke-width="1" points="106,62 106,67 "/>
<text x="218" y="58" dy="-0.5ex" text-anchor="middle" font-family="sans-serif" font-size="9.67741935483871" opacity="1" fill="#000000">
+17:29:04
</text>
<polyline fill="none" opacity="1" stroke="#000000" stroke-width="1" points="218,62 218,67 "/>
<text x="330" y="58" dy="-0.5ex" text-anchor="middle" font-family="sans-serif" font-size="9.67741935483871" opacity="1" fill="#000000">
+31:22:24
</text>
<polyline fill="none" opacity="1" stroke="#000000" stroke-width="1" points="330,62 330,67 "/>
<text x="442" y="58" dy="-0.5ex" text-anchor="middle" font-family="sans-serif" font-size="9.67741935483871" opacity="1" fill="#000000">
+45:15:44
</text>
<polyline fill="none" opacity="1" stroke="#000000" stroke-width="1" points="442,62 442,67 "/>
<text x="554" y="58" dy="-0.5ex" text-anchor="middle" font-family="sans-serif" font-size="9.67741935483871" opacity="1" fill="#000000">
+59:09:04
</text>
<polyline fill="none" opacity="1" stroke="#000000" stroke-width="1" points="554,62 554,67 "/>
<text x="666" y="58" dy="-0.5ex" text-anchor="middle" font-family="sans-serif" font-size="9.67741935483871" opacity="1" fill="#000000">
+73:02:24
</text>
<polyline fill="none" opacity="1" stroke="#000000" stroke-width="1" points="666,62 666,67 "/>
<text x="778" y="58" dy="-0.5ex" text-anchor="middle" font-family="sans-serif" font-size="9.67741935483871" opacity="1" fill="#000000">
+86:55:44
</text>
<polyline fill="none" opacity="1" stroke="#000000" stroke-width="1" points="778,62 778,67 "/>
<text x="890" y="58" dy="-0.5ex" text-anchor="middle" font-family="sans-serif" font-size="9.67741935483871" opacity="1" fill="#000000">
+100:49:04
</text>
<polyline fill="none" opacity="1" stroke="#000000" stroke-width="1" points="890,62 890,67 "/>
</svg>
