<svg width="1024" height="768" viewBox="0 0 1024 768" xmlns="http://www.w3.org/2000/svg">
<rect x="0" y="0" width="1024" height="768" opacity="1" fill="#FFFFFF" stroke="none"/>
<polygon opacity="1" fill="#3CB44B" points="78,695 79,692 80,688 81,687 82,683 83,684 84,684 84,691 85,687 86,686 87,685 88,688 89,698 90,697 91,693 92,692 92,687 93,687 94,687 95,693 96,693 97,693 98,691 99,692 100,694 100,694 101,694 102,695 103,691 104,691 105,694 106,694 107,698 108,698 108,699 109,695 110,694 111,693 112,693 113,692 114,691 115,690 116,691 117,691 117,690 118,690 119,691 120,687 121,687 122,687 123,684 124,681 125,681 125,681 126,681 127,681 128,678 129,678 130,678 131,675 132,671 133,666 133,666 134,667 135,667 136,664 137,664 138,661 139,657 140,657 141,658 141,654 142,653 143,653 144,653 145,649 146,647 147,647 148,647 149,644 149,643 150,640 151,639 152,635 153,634 154,634 155,634 156,630 157,626 158,626 158,626 159,623 160,623 161,624 162,624 163,620 164,620 165,620 166,620 166,616 167,616 168,613 169,613 170,613 171,609 172,610 173,610 174,607 174,603 175,602 176,598 177,595 178,591 179,591 180,592 181,593 182,596 182,596 183,695 184,695 185,695 186,695 187,695 188,694 189,695 190,695 190,695 191,691 192,691 193,692 194,687 195,687 196,684 197,684 198,683 198,683 199,683 200,681 201,681 202,678 203,677 204,673 205,674 206,673 207,671 207,671 208,668 209,668 210,666 211,667 212,666 213,664 214,664 215,664 215,663 216,660 217,661 218,661 219,658 220,658 221,658 222,658 223,658 223,656 224,657 225,657 226,656 227,655 228,653 229,653 230,651 231,651 231,651 232,650 233,647 234,647 235,643 236,644 237,644 238,642 239,640 239,640 240,639 241,638 242,639 243,635 244,635 245,632 246,632 247,632 248,629 248,628 249,624 250,624 251,625 252,622 253,622 254,618 255,618 256,617 256,617 257,617 258,618 259,618 260,618 261,618 262,618 263,615 264,615 264,616 265,611 266,611 267,612 268,609 269,608 270,608 271,603 272,603 272,603 273,604 274,604 275,604 276,604 277,604 278,605 279,604 280,605 280,605 281,605 282,601 283,596 284,595 285,595 286,598 287,595 288,595 288,592 289,592 290,591 291,592 292,591 293,588 294,588 295,587 296,588 297,585 297,581 298,581 299,581 300,578 301,578 302,578 303,578 304,575 305,573 305,573 306,574 307,574 308,574 309,574 310,572 311,568 312,568 313,564 313,563 314,559 315,560 316,561 317,561 318,561 319,557 320,554 321,549 321,549 322,549 323,552 324,551 325,551 326,551 327,551 328,550 329,551 329,551 330,551 331,550 332,547 333,545 334,544 335,543 336,542 337,543 338,539 338,540 339,541 340,537 341,533 342,534 343,534 344,531 345,531 346,527 346,526 347,521 348,521 349,521 350,522 351,523 352,519 353,520 354,517 354,517 355,513 356,513 357,514 358,514 359,514 360,514 361,509 362,506 362,506 363,505 364,505 365,505 366,504 367,504 368,500 369,502 370,502 370,498 371,498 372,499 373,499 374,496 375,496 376,492 377,492 378,492 378,492 379,492 380,489 381,488 382,484 383,484 384,483 385,484 386,481 387,481 387,477 388,477 389,474 390,470 391,468 392,463 393,463 394,458 395,457 395,457 396,455 397,452 398,452 399,452 400,450 401,449 402,449 403,444 403,443 404,443 405,446 406,446 407,446 408,443 409,440 410,438 411,438 411,435 412,435 413,435 414,435 415,432 416,433 417,429 418,426 419,425 419,421 420,417 421,417 422,418 423,417 424,417 425,415 426,415 427,415 428,412 428,412 429,409 430,409 431,409 432,408 433,408 434,409 435,405 436,408 436,408 437,407 438,405 439,400 440,401 441,398 442,397 443,398 444,398 444,397 445,397 446,397 447,398 448,398 449,394 450,391 451,388 452,383 452,379 453,377 454,377 455,377 456,376 457,376 458,377 459,376 460,377 460,377 461,377 462,374 463,371 464,370 465,369 466,366 467,366 468,366 468,364 469,364 470,360 471,355 472,355 473,356 474,356 475,355 476,355 477,354 477,350 478,350 479,347 480,345 481,340 482,341 483,339 484,340 485,340 485,339 486,340 487,336 488,333 489,333 490,332 491,333 492,331 493,332 493,332 494,330 495,330 496,324 497,325 498,324 499,325 500,321 501,321 501,321 502,320 503,319 504,318 505,317 506,316 507,317 508,312 509,311 509,311 510,312 511,312 512,308 513,307 514,303 515,302 516,298 517,298 518,295 518,291 519,290 520,287 521,288 522,285 523,280 524,277 525,277 526,274 526,274 527,274 528,274 529,273 530,269 531,269 532,269 533,268 534,267 534,267 535,267 536,268 537,268 538,263 539,263 540,262 541,263 542,260 542,258 543,258 544,258 545,259 546,261 547,263 548,263 549,258 550,259 550,256 551,252 552,252 553,252 554,249 555,248 556,249 557,245 558,245 559,241 559,238 560,234 561,230 562,229 563,225 564,224 565,223 566,224 567,224 567,224 568,219 569,215 570,216 571,214 572,214 573,214 574,210 575,211 575,207 576,207 577,207 578,207 579,204 580,199 581,195 582,192 583,188 583,187 584,187 585,182 586,182 587,182 588,183 589,180 590,180 591,176 591,176 592,175 593,175 594,176 595,173 596,170 597,166 598,165 599,165 599,164 600,163 601,164 602,164 603,163 604,158 605,159 606,155 607,155 608,151 608,151 609,147 610,147 611,147 612,144 613,144 614,141 615,140 616,136 616,136 617,135 618,134 619,134 620,131 621,131 622,131 623,128 624,125 624,125 625,124 626,120 627,119 628,119 629,121 630,121 631,121 632,120 632,120 633,120 634,118 635,117 636,116 637,113 638,109 639,110 640,108 640,109 641,107 642,108 643,107 644,106 645,107 646,107 647,107 648,105 649,105 649,106 650,102 651,103 652,99 653,96 654,93 655,93 656,93 657,92 657,89 658,89 659,85 660,85 661,84 662,83 663,84 664,79 665,80 665,78 666,77 667,77 668,77 669,73 670,73 671,70 672,68 673,68 673,68 674,68 675,697 676,693 677,693 678,693 679,693 680,693 681,693 681,693 682,690 683,690 684,689 685,689 686,690 687,690 688,687 689,683 689,683 690,680 691,680 692,678 693,676 694,672 695,671 696,671 697,671 698,671 698,671 699,668 700,665 701,665 702,663 703,663 704,662 705,661 706,661 706,662 707,658 708,658 709,654 710,654 711,653 712,653 713,655 714,652 714,652 715,653 716,651 717,648 718,644 719,643 720,641 721,641 722,641 722,638 723,634 724,630 725,630 726,630 727,628 728,627 729,624 730,624 730,624 731,620 732,620 733,618 734,614 735,615 736,612 737,612 738,608 739,608 739,607 740,607 741,607 742,607 743,603 744,603 745,600 746,601 747,600 747,601 748,597 749,597 750,598 751,596 752,595 753,595 754,595 755,596 755,596 756,598 757,598 758,595 759,591 760,587 761,584 762,584 763,582 763,582 764,578 765,576 766,576 767,577 768,577 769,573 770,574 771,572 771,571 772,574 773,574 774,573 775,573 776,570 777,570 778,570 779,572 779,569 780,569 781,565 782,564 783,565 784,564 785,565 786,565 787,565 788,566 788,562 789,562 790,559 791,559 792,559 793,555 794,555 795,555 796,555 796,554 797,549 798,549 799,547 800,547 801,547 802,544 803,544 804,541 804,541 805,541 806,541 807,541 808,541 809,537 810,534 811,534 812,533 812,533 813,534 814,530 815,526 816,527 817,526 818,527 819,524 820,524 820,521 821,517 822,513 823,509 824,509 825,510 826,510 827,507 828,507 829,507 829,503 830,503 831,502 832,502 833,498 834,499 835,499 836,500 837,495 837,492 838,490 839,489 840,488 841,486 842,482 843,478 844,478 845,479 845,479 846,478 847,478 848,478 849,475 850,471 851,468 852,469 853,469 853,469 854,469 855,469 856,466 857,465 858,463 859,459 860,455 861,453 861,453 862,451 863,451 864,452 865,449 866,446 867,442 868,438 869,439 869,438 870,435 871,432 872,432 873,432 874,429 875,423 876,423 877,420 878,422 878,422 879,422 880,420 881,419 882,417 883,413 884,411 885,411 886,406 886,406 887,402 888,404 889,400 890,400 891,399 892,399 893,400 894,400 894,400 895,400 896,397 897,399 898,397 899,394 900,394 901,389 902,389 902,385 903,386 904,384 905,384 906,385 907,385 908,380 909,380 910,377 910,377 911,377 912,375 913,375 914,374 915,372 916,368 917,365 918,365 919,366 919,362 920,363 921,360 922,360 923,357 924,357 925,357 926,356 927,354 927,354 928,349 929,350 930,347 931,348 932,348 933,348 934,347 935,347 935,346 936,347 937,346 938,347 939,347 940,347 941,343 942,343 943,343 943,339 944,337 945,336 946,337 947,335 948,331 949,332 950,332 951,333 951,330 952,330 953,331 954,326 955,327 956,324 957,324 958,324 959,320 960,320 960,316 961,315 962,315 963,314 964,314 965,314 966,311 967,312 968,312 968,309 968,310 973,310 973,699 78,699 "/>
<polyline fill="none" opacity="1" stroke="#3CB44B" stroke-width="1" points="78,695 79,692 80,688 81,687 82,683 83,684 84,684 84,691 85,687 86,686 87,685 88,688 89,698 90,697 91,693 92,692 92,687 93,687 94,687 95,693 96,693 97,693 98,691 99,692 100,694 100,694 101,694 102,695 103,691 104,691 105,694 106,694 107,698 108,698 108,699 109,695 110,694 111,693 112,693 113,692 114,691 115,690 116,691 117,691 117,690 118,690 119,691 120,687 121,687 122,687 123,684 124,681 125,681 125,681 126,681 127,681 128,678 129,678 130,678 131,675 132,671 133,666 133,666 134,667 135,667 136,664 137,664 138,661 139,657 140,657 141,658 141,654 142,653 143,653 144,653 145,649 146,647 147,647 148,647 149,644 149,643 150,640 151,639 152,635 153,634 154,634 155,634 156,630 157,626 158,626 158,626 159,623 160,623 161,624 162,624 163,620 164,620 165,620 166,620 166,616 167,616 168,613 169,613 170,613 171,609 172,610 173,610 174,607 174,603 175,602 176,598 177,595 178,591 179,591 180,592 181,593 182,596 182,596 183,695 184,695 185,695 186,695 187,695 188,694 189,695 190,695 190,695 191,691 192,691 193,692 194,687 195,687 196,684 197,684 198,683 198,683 199,683 200,681 201,681 202,678 203,677 204,673 205,674 206,673 207,671 207,671 208,668 209,668 210,666 211,667 212,666 213,664 214,664 215,664 215,663 216,660 217,661 218,661 219,658 220,658 221,658 222,658 223,658 223,656 224,657 225,657 226,656 227,655 228,653 229,653 230,651 231,651 231,651 232,650 233,647 234,647 235,643 236,644 237,644 238,642 239,640 239,640 240,639 241,638 242,639 243,635 244,635 245,632 246,632 247,632 248,629 248,628 249,624 250,624 251,625 252,622 253,622 254,618 255,618 256,617 256,617 257,617 258,618 259,618 260,618 261,618 262,618 263,615 264,615 264,616 265,611 266,611 267,612 268,609 269,608 270,608 271,603 272,603 272,603 273,604 274,604 275,604 276,604 277,604 278,605 279,604 280,605 280,605 281,605 282,601 283,596 284,595 285,595 286,598 287,595 288,595 288,592 289,592 290,591 291,592 292,591 293,588 294,588 295,587 296,588 297,585 297,581 298,581 299,581 300,578 301,578 302,578 303,578 304,575 305,573 305,573 306,574 307,574 308,574 309,574 310,572 311,568 312,568 313,564 313,563 314,559 315,560 316,561 317,561 318,561 319,557 320,554 321,549 321,549 322,549 323,552 324,551 325,551 326,551 327,551 328,550 329,551 329,551 330,551 331,550 332,547 333,545 334,544 335,543 336,542 337,543 338,539 338,540 339,541 340,537 341,533 342,534 343,534 344,531 345,531 346,527 346,526 347,521 348,521 349,521 350,522 351,523 352,519 353,520 354,517 354,517 355,513 356,513 357,514 358,514 359,514 360,514 361,509 362,506 362,506 363,505 364,505 365,505 366,504 367,504 368,500 369,502 370,502 370,498 371,498 372,499 373,499 374,496 375,496 376,492 377,492 378,492 378,492 379,492 380,489 381,488 382,484 383,484 384,483 385,484 386,481 387,481 387,477 388,477 389,474 390,470 391,468 392,463 393,463 394,458 395,457 395,457 396,455 397,452 398,452 399,452 400,450 401,449 402,449 403,444 403,443 404,443 405,446 406,446 407,446 408,443 409,440 410,438 411,438 411,435 412,435 413,435 414,435 415,432 416,433 417,429 418,426 419,425 419,421 420,417 421,417 422,418 423,417 424,417 425,415 426,415 427,415 428,412 428,412 429,409 430,409 431,409 432,408 433,408 434,409 435,405 436,408 436,408 437,407 438,405 439,400 440,401 441,398 442,397 443,398 444,398 444,397 445,397 446,397 447,398 448,398 449,394 450,391 451,388 452,383 452,379 453,377 454,377 455,377 456,376 457,376 458,377 459,376 460,377 460,377 461,377 462,374 463,371 464,370 465,369 466,366 467,366 468,366 468,364 469,364 470,360 471,355 472,355 473,356 474,356 475,355 476,355 477,354 477,350 478,350 479,347 480,345 481,340 482,341 483,339 484,340 485,340 485,339 486,340 487,336 488,333 489,333 490,332 491,333 492,331 493,332 493,332 494,330 495,330 496,324 497,325 498,324 499,325 500,321 501,321 501,321 502,320 503,319 504,318 505,317 506,316 507,317 508,312 509,311 509,311 510,312 511,312 512,308 513,307 514,303 515,302 516,298 517,298 518,295 518,291 519,290 520,287 521,288 522,285 523,280 524,277 525,277 526,274 526,274 527,274 528,274 529,273 530,269 531,269 532,269 533,268 534,267 534,267 535,267 536,268 537,268 538,263 539,263 540,262 541,263 542,260 542,258 543,258 544,258 545,259 546,261 547,263 548,263 549,258 550,259 550,256 551,252 552,252 553,252 554,249 555,248 556,249 557,245 558,245 559,241 559,238 560,234 561,230 562,229 563,225 564,224 565,223 566,224 567,224 567,224 568,219 569,215 570,216 571,214 572,214 573,214 574,210 575,211 575,207 576,207 577,207 578,207 579,204 580,199 581,195 582,192 583,188 583,187 584,187 585,182 586,182 587,182 588,183 589,180 590,180 591,176 591,176 592,175 593,175 594,176 595,173 596,170 597,166 598,165 599,165 599,164 600,163 601,164 602,164 603,163 604,158 605,159 606,155 607,155 608,151 608,151 609,147 610,147 611,147 612,144 613,144 614,141 615,140 616,136 616,136 617,135 618,134 619,134 620,131 621,131 622,131 623,128 624,125 624,125 625,124 626,120 627,119 628,119 629,121 630,121 631,121 632,120 632,120 633,120 634,118 635,117 636,116 637,113 638,109 639,110 640,108 640,109 641,107 642,108 643,107 644,106 645,107 646,107 647,107 648,105 649,105 649,106 650,102 651,103 652,99 653,96 654,93 655,93 656,93 657,92 657,89 658,89 659,85 660,85 661,84 662,83 663,84 664,79 665,80 665,78 666,77 667,77 668,77 669,73 670,73 671,70 672,68 673,68 673,68 674,68 675,697 676,693 677,693 678,693 679,693 680,693 681,693 681,693 682,690 683,690 684,689 685,689 686,690 687,690 688,687 689,683 689,683 690,680 691,680 692,678 693,676 694,672 695,671 696,671 697,671 698,671 698,671 699,668 700,665 701,665 702,663 703,663 704,662 705,661 706,661 706,662 707,658 708,658 709,654 710,654 711,653 712,653 713,655 714,652 714,652 715,653 716,651 717,648 718,644 719,643 720,641 721,641 722,641 722,638 723,634 724,630 725,630 726,630 727,628 728,627 729,624 730,624 730,624 731,620 732,620 733,618 734,614 735,615 736,612 737,612 738,608 739,608 739,607 740,607 741,607 742,607 743,603 744,603 745,600 746,601 747,600 747,601 748,597 749,597 750,598 751,596 752,595 753,595 754,595 755,596 755,596 756,598 757,598 758,595 759,591 760,587 761,584 762,584 763,582 763,582 764,578 765,576 766,576 767,577 768,577 769,573 770,574 771,572 771,571 772,574 773,574 774,573 775,573 776,570 777,570 778,570 779,572 779,569 780,569 781,565 782,564 783,565 784,564 785,565 786,565 787,565 788,566 788,562 789,562 790,559 791,559 792,559 793,555 794,555 795,555 796,555 796,554 797,549 798,549 799,547 800,547 801,547 802,544 803,544 804,541 804,541 805,541 806,541 807,541 808,541 809,537 810,534 811,534 812,533 812,533 813,534 814,530 815,526 816,527 817,526 818,527 819,524 820,524 820,521 821,517 822,513 823,509 824,509 825,510 826,510 827,507 828,507 829,507 829,503 830,503 831,502 832,502 833,498 834,499 835,499 836,500 837,495 837,492 838,490 839,489 840,488 841,486 842,482 843,478 844,478 845,479 845,479 846,478 847,478 848,478 849,475 850,471 851,468 852,469 853,469 853,469 854,469 855,469 856,466 857,465 858,463 859,459 860,455 861,453 861,453 862,451 863,451 864,452 865,449 866,446 867,442 868,438 869,439 869,438 870,435 871,432 872,432 873,432 874,429 875,423 876,423 877,420 878,422 878,422 879,422 880,420 881,419 882,417 883,413 884,411 885,411 886,406 886,406 887,402 888,404 889,400 890,400 891,399 892,399 893,400 894,400 894,400 895,400 896,397 897,399 898,397 899,394 900,394 901,389 902,389 902,385 903,386 904,384 905,384 906,385 907,385 908,380 909,380 910,377 910,377 911,377 912,375 913,375 914,374 915,372 916,368 917,365 918,365 919,366 919,362 920,363 921,360 922,360 923,357 924,357 925,357 926,356 927,354 927,354 928,349 929,350 930,347 931,348 932,348 933,348 934,347 935,347 935,346 936,347 937,346 938,347 939,347 940,347 941,343 942,343 943,343 943,339 944,337 945,336 946,337 947,335 948,331 949,332 950,332 951,333 951,330 952,330 953,331 954,326 955,327 956,324 957,324 958,324 959,320 960,320 960,316 961,315 962,315 963,314 964,314 965,314 966,311 967,312 968,312 968,309 968,310 973,310 "/>
<polygon opacity="1" fill="#E6194B" points="78,699 79,699 80,699 81,699 82,699 83,699 84,699 84,699 85,699 86,699 87,699 88,699 89,699 90,699 91,699 92,699 92,699 93,699 94,699 95,699 96,699 97,699 98,699 99,699 100,699 100,699 101,699 102,699 103,699 104,699 105,699 106,699 107,699 108,699 108,699 109,699 110,699 111,699 112,699 113,699 114,699 115,699 116,699 117,699 117,699 118,699 119,699 120,699 121,699 122,699 123,699 124,699 125,699 125,699 126,699 127,699 128,699 129,699 130,699 131,699 132,699 133,699 133,699 134,699 135,699 136,699 137,699 138,699 139,699 140,699 141,699 141,699 142,699 143,699 144,699 145,699 146,699 147,699 148,699 149,699 149,699 150,699 151,699 152,699 153,699 154,699 155,699 156,699 157,699 158,699 158,699 159,699 160,699 161,699 162,699 163,699 164,699 165,699 166,699 166,699 167,699 168,699 169,699 170,699 171,699 172,699 173,699 174,699 174,699 175,699 176,699 177,699 178,699 179,699 180,699 181,699 182,699 182,699 183,699 184,699 185,699 186,699 187,699 188,699 189,699 190,699 190,699 191,699 192,699 193,699 194,699 195,699 196,699 197,699 198,699 198,699 199,699 200,699 201,699 202,699 203,699 204,699 205,699 206,699 207,699 207,699 208,699 209,699 210,699 211,699 212,699 213,699 214,699 215,699 215,699 216,699 217,699 218,699 219,699 220,699 221,699 222,699 223,699 223,699 224,699 225,699 226,699 227,699 228,699 229,699 230,699 231,699 231,699 232,699 233,699 234,699 235,699 236,699 237,699 238,699 239,699 239,699 240,699 241,699 242,699 243,699 244,699 245,699 246,699 247,699 248,699 248,699 249,699 250,699 251,699 252,699 253,699 254,699 255,699 256,699 256,699 257,699 258,699 259,699 260,699 261,699 262,699 263,699 264,699 264,699 265,699 266,699 267,699 268,699 269,699 270,699 271,699 272,699 272,699 273,699 274,699 275,699 276,699 277,699 278,699 279,699 280,699 280,699 281,699 282,699 283,699 284,699 285,699 286,699 287,699 288,699 288,699 289,699 290,699 291,699 292,699 293,699 294,699 295,699 296,699 297,699 297,699 298,699 299,699 300,699 301,699 302,699 303,699 304,699 305,699 305,699 306,699 307,699 308,699 309,699 310,699 311,699 312,699 313,699 313,699 314,699 315,699 316,699 317,699 318,699 319,699 320,699 321,699 321,699 322,699 323,699 324,699 325,699 326,699 327,699 328,699 329,699 329,699 330,699 331,699 332,699 333,699 334,699 335,699 336,699 337,699 338,699 338,699 339,699 340,699 341,699 342,699 343,699 344,699 345,699 346,699 346,699 347,699 348,699 349,699 350,699 351,699 352,699 353,699 354,699 354,699 355,699 356,699 357,699 358,699 359,699 360,699 361,699 362,699 362,699 363,699 364,699 365,699 366,699 367,699 368,699 369,699 370,699 370,699 371,699 372,699 373,699 374,699 375,699 376,699 377,699 378,699 378,699 379,699 380,699 381,699 382,699 383,699 384,699 385,699 386,699 387,699 387,699 388,699 389,699 390,699 391,699 392,699 393,699 394,699 395,699 395,699 396,699 397,699 398,699 399,699 400,699 401,699 402,699 403,699 403,699 404,699 405,699 406,699 407,699 408,699 409,699 410,699 411,699 411,699 412,699 413,699 414,699 415,699 416,699 417,699 418,699 419,699 419,699 420,699 421,699 422,699 423,699 424,699 425,699 426,699 427,699 428,699 428,699 429,699 430,699 431,699 432,699 433,699 434,699 435,699 436,699 436,699 437,699 438,699 439,699 440,699 441,699 442,699 443,699 444,699 444,699 445,699 446,699 447,699 448,699 449,699 450,699 451,699 452,699 452,699 453,699 454,699 455,699 456,699 457,699 458,699 459,699 460,699 460,699 461,699 462,699 463,699 464,699 465,699 466,699 467,699 468,699 468,699 469,699 470,699 471,699 472,699 473,699 474,699 475,699 476,699 477,699 477,699 478,699 479,699 480,699 481,699 482,699 483,699 484,699 485,699 485,699 486,699 487,699 488,699 489,699 490,699 491,699 492,699 493,699 493,699 494,699 495,699 496,699 497,699 498,699 499,699 500,699 501,699 501,699 502,699 503,699 504,699 505,699 506,699 507,699 508,699 509,699 509,699 510,699 511,699 512,699 513,699 514,699 515,699 516,699 517,699 518,699 518,699 519,699 520,699 521,699 522,699 523,699 524,699 525,699 526,699 526,699 527,699 528,699 529,699 530,699 531,699 532,699 533,699 534,699 534,699 535,699 536,699 537,699 538,699 539,699 540,699 541,699 542,699 542,699 543,699 544,699 545,699 546,699 547,699 548,699 549,699 550,699 550,699 551,699 552,699 553,699 554,699 555,699 556,699 557,699 558,699 559,699 559,699 560,699 561,699 562,699 563,699 564,699 565,699 566,699 567,699 567,699 568,699 569,699 570,699 571,699 572,699 573,699 574,699 575,699 575,699 576,699 577,699 578,699 579,699 580,699 581,699 582,699 583,699 583,699 584,699 585,699 586,699 587,699 588,699 589,699 590,699 591,699 591,699 592,699 593,699 594,699 595,699 596,699 597,699 598,699 599,699 599,699 600,699 601,699 602,699 603,699 604,699 605,699 606,699 607,699 608,699 608,699 609,699 610,699 611,699 612,699 613,699 614,699 615,699 616,699 616,699 617,699 618,699 619,699 620,699 621,699 622,699 623,699 624,699 624,699 625,699 626,699 627,699 628,699 629,699 630,699 631,699 632,699 632,699 633,699 634,699 635,699 636,699 637,699 638,699 639,699 640,699 640,699 641,699 642,699 643,699 644,699 645,699 646,699 647,699 648,699 649,699 649,699 650,699 651,699 652,699 653,699 654,699 655,699 656,699 657,699 657,699 658,699 659,699 660,699 661,699 662,699 663,699 664,699 665,699 665,699 666,699 667,699 668,699 669,699 670,699 671,699 672,699 673,699 673,699 674,699 675,699 676,695 677,695 678,695 679,695 680,695 681,695 681,695 682,692 683,692 684,692 685,692 686,692 687,692 688,688 689,685 689,685 690,681 691,681 692,681 693,678 694,675 695,675 696,675 697,675 698,675 698,675 699,671 700,668 701,668 702,664 703,664 704,664 705,664 706,664 706,664 707,661 708,661 709,658 710,658 711,658 712,658 713,658 714,654 714,654 715,654 716,654 717,651 718,647 719,647 720,644 721,644 722,644 722,641 723,637 724,634 725,634 726,634 727,630 728,630 729,627 730,627 730,627 731,624 732,624 733,620 734,617 735,617 736,613 737,613 738,610 739,610 739,610 740,610 741,610 742,610 743,607 744,607 745,603 746,603 747,603 747,603 748,600 749,600 750,600 751,600 752,600 753,600 754,600 755,600 755,600 756,600 757,600 758,596 759,593 760,590 761,586 762,586 763,586 763,586 764,583 765,579 766,579 767,579 768,579 769,576 770,576 771,576 771,576 772,576 773,576 774,576 775,576 776,572 777,572 778,572 779,572 779,569 780,569 781,566 782,566 783,566 784,566 785,566 786,566 787,566 788,566 788,562 789,562 790,559 791,559 792,559 793,555 794,555 795,555 796,555 796,555 797,552 798,552 799,549 800,549 801,549 802,545 803,545 804,542 804,542 805,542 806,542 807,542 808,542 809,538 810,535 811,535 812,535 812,535 813,535 814,532 815,528 816,528 817,528 818,528 819,525 820,525 820,521 821,518 822,515 823,511 824,511 825,511 826,511 827,508 828,508 829,508 829,504 830,504 831,504 832,504 833,501 834,501 835,501 836,501 837,498 837,498 838,494 839,491 840,491 841,487 842,484 843,481 844,481 845,481 845,481 846,481 847,481 848,481 849,477 850,474 851,470 852,470 853,470 853,470 854,470 855,470 856,467 857,467 858,463 859,460 860,457 861,457 861,457 862,453 863,453 864,453 865,450 866,446 867,443 868,440 869,440 869,440 870,436 871,433 872,433 873,433 874,429 875,426 876,426 877,423 878,423 878,423 879,423 880,423 881,423 882,419 883,416 884,412 885,412 886,409 886,409 887,406 888,406 889,402 890,402 891,402 892,402 893,402 894,402 894,402 895,402 896,399 897,399 898,399 899,395 900,395 901,392 902,392 902,389 903,389 904,385 905,385 906,385 907,385 908,382 909,382 910,378 910,378 911,378 912,375 913,375 914,375 915,375 916,372 917,368 918,368 919,368 919,365 920,365 921,361 922,361 923,358 924,358 925,358 926,358 927,354 927,354 928,351 929,351 930,348 931,348 932,348 933,348 934,348 935,348 935,348 936,348 937,348 938,348 939,348 940,348 941,344 942,344 943,344 943,341 944,337 945,337 946,337 947,337 948,334 949,334 950,334 951,334 951,331 952,331 953,331 954,327 955,327 956,324 957,324 958,324 959,320 960,320 960,317 961,317 962,317 963,317 964,317 965,317 966,314 967,314 968,314 968,310 968,310 973,310 973,699 78,699 "/>
<polyline fill="none" opacity="1" stroke="#E6194B" stroke-width="1" points="78,699 79,699 80,699 81,699 82,699 83,699 84,699 84,699 85,699 86,699 87,699 88,699 89,699 90,699 91,699 92,699 92,699 93,699 94,699 95,699 96,699 97,699 98,699 99,699 100,699 100,699 101,699 102,699 103,699 104,699 105,699 106,699 107,699 108,699 108,699 109,699 110,699 111,699 112,699 113,699 114,699 115,699 116,699 117,699 117,699 118,699 119,699 120,699 121,699 122,699 123,699 124,699 125,699 125,699 126,699 127,699 128,699 129,699 130,699 131,699 132,699 133,699 133,699 134,699 135,699 136,699 137,699 138,699 139,699 140,699 141,699 141,699 142,699 143,699 144,699 145,699 146,699 147,699 148,699 149,699 149,699 150,699 151,699 152,699 153,699 154,699 155,699 156,699 157,699 158,699 158,699 159,699 160,699 161,699 162,699 163,699 164,699 165,699 166,699 166,699 167,699 168,699 169,699 170,699 171,699 172,699 173,699 174,699 174,699 175,699 176,699 177,699 178,699 179,699 180,699 181,699 182,699 182,699 183,699 184,699 185,699 186,699 187,699 188,699 189,699 190,699 190,699 191,699 192,699 193,699 194,699 195,699 196,699 197,699 198,699 198,699 199,699 200,699 201,699 202,699 203,699 204,699 205,699 206,699 207,699 207,699 208,699 209,699 210,699 211,699 212,699 213,699 214,699 215,699 215,699 216,699 217,699 218,699 219,699 220,699 221,699 222,699 223,699 223,699 224,699 225,699 226,699 227,699 228,699 229,699 230,699 231,699 231,699 232,699 233,699 234,699 235,699 236,699 237,699 238,699 239,699 239,699 240,699 241,699 242,699 243,699 244,699 245,699 246,699 247,699 248,699 248,699 249,699 250,699 251,699 252,699 253,699 254,699 255,699 256,699 256,699 257,699 258,699 259,699 260,699 261,699 262,699 263,699 264,699 264,699 265,699 266,699 267,699 268,699 269,699 270,699 271,699 272,699 272,699 273,699 274,699 275,699 276,699 277,699 278,699 279,699 280,699 280,699 281,699 282,699 283,699 284,699 285,699 286,699 287,699 288,699 288,699 289,699 290,699 291,699 292,699 293,699 294,699 295,699 296,699 297,699 297,699 298,699 299,699 300,699 301,699 302,699 303,699 304,699 305,699 305,699 306,699 307,699 308,699 309,699 310,699 311,699 312,699 313,699 313,699 314,699 315,699 316,699 317,699 318,699 319,699 320,699 321,699 321,699 322,699 323,699 324,699 325,699 326,699 327,699 328,699 329,699 329,699 330,699 331,699 332,699 333,699 334,699 335,699 336,699 337,699 338,699 338,699 339,699 340,699 341,699 342,699 343,699 344,699 345,699 346,699 346,699 347,699 348,699 349,699 350,699 351,699 352,699 353,699 354,699 354,699 355,699 356,699 357,699 358,699 359,699 360,699 361,699 362,699 362,699 363,699 364,699 365,699 366,699 367,699 368,699 369,699 370,699 370,699 371,699 372,699 373,699 374,699 375,699 376,699 377,699 378,699 378,699 379,699 380,699 381,699 382,699 383,699 384,699 385,699 386,699 387,699 387,699 388,699 389,699 390,699 391,699 392,699 393,699 394,699 395,699 395,699 396,699 397,699 398,699 399,699 400,699 401,699 402,699 403,699 403,699 404,699 405,699 406,699 407,699 408,699 409,699 410,699 411,699 411,699 412,699 413,699 414,699 415,699 416,699 417,699 418,699 419,699 419,699 420,699 421,699 422,699 423,699 424,699 425,699 426,699 427,699 428,699 428,699 429,699 430,699 431,699 432,699 433,699 434,699 435,699 436,699 436,699 437,699 438,699 439,699 440,699 441,699 442,699 443,699 444,699 444,699 445,699 446,699 447,699 448,699 449,699 450,699 451,699 452,699 452,699 453,699 454,699 455,699 456,699 457,699 458,699 459,699 460,699 460,699 461,699 462,699 463,699 464,699 465,699 466,699 467,699 468,699 468,699 469,699 470,699 471,699 472,699 473,699 474,699 475,699 476,699 477,699 477,699 478,699 479,699 480,699 481,699 482,699 483,699 484,699 485,699 485,699 486,699 487,699 488,699 489,699 490,699 491,699 492,699 493,699 493,699 494,699 495,699 496,699 497,699 498,699 499,699 500,699 501,699 501,699 502,699 503,699 504,699 505,699 506,699 507,699 508,699 509,699 509,699 510,699 511,699 512,699 513,699 514,699 515,699 516,699 517,699 518,699 518,699 519,699 520,699 521,699 522,699 523,699 524,699 525,699 526,699 526,699 527,699 528,699 529,699 530,699 531,699 532,699 533,699 534,699 534,699 535,699 536,699 537,699 538,699 539,699 540,699 541,699 542,699 542,699 543,699 544,699 545,699 546,699 547,699 548,699 549,699 550,699 550,699 551,699 552,699 553,699 554,699 555,699 556,699 557,699 558,699 559,699 559,699 560,699 561,699 562,699 563,699 564,699 565,699 566,699 567,699 567,699 568,699 569,699 570,699 571,699 572,699 573,699 574,699 575,699 575,699 576,699 577,699 578,699 579,699 580,699 581,699 582,699 583,699 583,699 584,699 585,699 586,699 587,699 588,699 589,699 590,699 591,699 591,699 592,699 593,699 594,699 595,699 596,699 597,699 598,699 599,699 599,699 600,699 601,699 602,699 603,699 604,699 605,699 606,699 607,699 608,699 608,699 609,699 610,699 611,699 612,699 613,699 614,699 615,699 616,699 616,699 617,699 618,699 619,699 620,699 621,699 622,699 623,699 624,699 624,699 625,699 626,699 627,699 628,699 629,699 630,699 631,699 632,699 632,699 633,699 634,699 635,699 636,699 637,699 638,699 639,699 640,699 640,699 641,699 642,699 643,699 644,699 645,699 646,699 647,699 648,699 649,699 649,699 650,699 651,699 652,699 653,699 654,699 655,699 656,699 657,699 657,699 658,699 659,699 660,699 661,699 662,699 663,699 664,699 665,699 665,699 666,699 667,699 668,699 669,699 670,699 671,699 672,699 673,699 673,699 674,699 675,699 676,695 677,695 678,695 679,695 680,695 681,695 681,695 682,692 683,692 684,692 685,692 686,692 687,692 688,688 689,685 689,685 690,681 691,681 692,681 693,678 694,675 695,675 696,675 697,675 698,675 698,675 699,671 700,668 701,668 702,664 703,664 704,664 705,664 706,664 706,664 707,661 708,661 709,658 710,658 711,658 712,658 713,658 714,654 714,654 715,654 716,654 717,651 718,647 719,647 720,644 721,644 722,644 722,641 723,637 724,634 725,634 726,634 727,630 728,630 729,627 730,627 730,627 731,624 732,624 733,620 734,617 735,617 736,613 737,613 738,610 739,610 739,610 740,610 741,610 742,610 743,607 744,607 745,603 746,603 747,603 747,603 748,600 749,600 750,600 751,600 752,600 753,600 754,600 755,600 755,600 756,600 757,600 758,596 759,593 760,590 761,586 762,586 763,586 763,586 764,583 765,579 766,579 767,579 768,579 769,576 770,576 771,576 771,576 772,576 773,576 774,576 775,576 776,572 777,572 778,572 779,572 779,569 780,569 781,566 782,566 783,566 784,566 785,566 786,566 787,566 788,566 788,562 789,562 790,559 791,559 792,559 793,555 794,555 795,555 796,555 796,555 797,552 798,552 799,549 800,549 801,549 802,545 803,545 804,542 804,542 805,542 806,542 807,542 808,542 809,538 810,535 811,535 812,535 812,535 813,535 814,532 815,528 816,528 817,528 818,528 819,525 820,525 820,521 821,518 822,515 823,511 824,511 825,511 826,511 827,508 828,508 829,508 829,504 830,504 831,504 832,504 833,501 834,501 835,501 836,501 837,498 837,498 838,494 839,491 840,491 841,487 842,484 843,481 844,481 845,481 845,481 846,481 847,481 848,481 849,477 850,474 851,470 852,470 853,470 853,470 854,470 855,470 856,467 857,467 858,463 859,460 860,457 861,457 861,457 862,453 863,453 864,453 865,450 866,446 867,443 868,440 869,440 869,440 870,436 871,433 872,433 873,433 874,429 875,426 876,426 877,423 878,423 878,423 879,423 880,423 881,423 882,419 883,416 884,412 885,412 886,409 886,409 887,406 888,406 889,402 890,402 891,402 892,402 893,402 894,402 894,402 895,402 896,399 897,399 898,399 899,395 900,395 901,392 902,392 902,389 903,389 904,385 905,385 906,385 907,385 908,382 909,382 910,378 910,378 911,378 912,375 913,375 914,375 915,375 916,372 917,368 918,368 919,368 919,365 920,365 921,361 922,361 923,358 924,358 925,358 926,358 927,354 927,354 928,351 929,351 930,348 931,348 932,348 933,348 934,348 935,348 935,348 936,348 937,348 938,348 939,348 940,348 941,344 942,344 943,344 943,341 944,337 945,337 946,337 947,337 948,334 949,334 950,334 951,334 951,331 952,331 953,331 954,327 955,327 956,324 957,324 958,324 959,320 960,320 960,317 961,317 962,317 963,317 964,317 965,317 966,314 967,314 968,314 968,310 968,310 973,310 "/>
<line opacity="0.1" stroke="#000000" stroke-width="1" x1="84" y1="699" x2="84" y2="68"/>
<line opacity="0.1" stroke="#000000" stroke-width="1" x1="95" y1="699" x2="95" y2="68"/>
<line opacity="0.1" stroke="#000000" stroke-width="1" x1="106" y1="699" x2="106" y2="68"/>
<line opacity="0.1" stroke="#000000" stroke-width="1" x1="118" y1="699" x2="118" y2="68"/>
<line opacity="0.1" stroke="#000000" stroke-width="1" x1="129" y1="699" x2="129" y2="68"/>
<line opacity="0.1" stroke="#000000" stroke-width="1" x1="140" y1="699" x2="140" y2="68"/>
<line opacity="0.1" stroke="#000000" stroke-width="1" x1="151" y1="699" x2="151" y2="68"/>
<line opacity="0.1" stroke="#000000" stroke-width="1" x1="162" y1="699" x2="162" y2="68"/>
<line opacity="0.1" stroke="#000000" stroke-width="1" x1="174" y1="699" x2="174" y2="68"/>
<line opacity="0.1" stroke="#000000" stroke-width="1" x1="185" y1="699" x2="185" y2="68"/>
<line opacity="0.1" stroke="#000000" stroke-width="1" x1="196" y1="699" x2="196" y2="68"/>
<line opacity="0.1" stroke="#000000" stroke-width="1" x1="207" y1="699" x2="207" y2="68"/>
<line opacity="0.1" stroke="#000000" stroke-width="1" x1="218" y1="699" x2="218" y2="68"/>
<line opacity="0.1" stroke="#000000" stroke-width="1" x1="229" y1="699" x2="229" y2="68"/>
<line opacity="0.1" stroke="#000000" stroke-width="1" x1="241" y1="699" x2="241" y2="68"/>
<line opacity="0.1" stroke="#000000" stroke-width="1" x1="252" y1="699" x2="252" y2="68"/>
<line opacity="0.1" stroke="#000000" stroke-width="1" x1="263" y1="699" x2="263" y2="68"/>
<line opacity="0.1" stroke="#000000" stroke-width="1" x1="274" y1="699" x2="274" y2="68"/>
<line opacity="0.1" stroke="#000000" stroke-width="1" x1="285" y1="699" x2="285" y2="68"/>
<line opacity="0.1" stroke="#000000" stroke-width="1" x1="297" y1="699" x2="297" y2="68"/>
<line opacity="0.1" stroke="#000000" stroke-width="1" x1="308" y1="699" x2="308" y2="68"/>
<line opacity="0.1" stroke="#000000" stroke-width="1" x1="319" y1="699" x2="319" y2="68"/>
<line opacity="0.1" stroke="#000000" stroke-width="1" x1="330" y1="699" x2="330" y2="68"/>
<line opacity="0.1" stroke="#000000" stroke-width="1" x1="341" y1="699" x2="341" y2="68"/>
<line opacity="0.1" stroke="#000000" stroke-width="1" x1="352" y1="699" x2="352" y2="68"/>
<line opacity="0.1" stroke="#000000" stroke-width="1" x1="364" y1="699" x2="364" y2="68"/>
<line opacity="0.1" stroke="#000000" stroke-width="1" x1="375" y1="699" x2="375" y2="68"/>
<line opacity="0.1" stroke="#000000" stroke-width="1" x1="386" y1="699" x2="386" y2="68"/>
<line opacity="0.1" stroke="#000000" stroke-width="1" x1="397" y1="699" x2="397" y2="68"/>
<line opacity="0.1" stroke="#000000" stroke-width="1" x1="408" y1="699" x2="408" y2="68"/>
<line opacity="0.1" stroke="#000000" stroke-width="1" x1="420" y1="699" x2="420" y2="68"/>
<line opacity="0.1" stroke="#000000" stroke-width="1" x1="431" y1="699" x2="431" y2="68"/>
<line opacity="0.1" stroke="#000000" stroke-width="1" x1="442" y1="699" x2="442" y2="68"/>
<line opacity="0.1" stroke="#000000" stroke-width="1" x1="453" y1="699" x2="453" y2="68"/>
<line opacity="0.1" stroke="#000000" stroke-width="1" x1="464" y1="699" x2="464" y2="68"/>
<line opacity="0.1" stroke="#000000" stroke-width="1" x1="476" y1="699" x2="476" y2="68"/>
<line opacity="0.1" stroke="#000000" stroke-width="1" x1="487" y1="699" x2="487" y2="68"/>
<line opacity="0.1" stroke="#000000" stroke-width="1" x1="498" y1="699" x2="498" y2="68"/>
<line opacity="0.1" stroke="#000000" stroke-width="1" x1="509" y1="699" x2="509" y2="68"/>
<line opacity="0.1" stroke="#000000" stroke-width="1" x1="520" y1="699" x2="520" y2="68"/>
<line opacity="0.1" stroke="#000000" stroke-width="1" x1="531" y1="699" x2="531" y2="68"/>
<line opacity="0.1" stroke="#000000" stroke-width="1" x1="543" y1="699" x2="543" y2="68"/>
<line opacity="0.1" stroke="#000000" stroke-width="1" x1="554" y1="699" x2="554" y2="68"/>
<line opacity="0.1" stroke="#000000" stroke-width="1" x1="565" y1="699" x2="565" y2="68"/>
<line opacity="0.1" stroke="#000000" stroke-width="1" x1="576" y1="699" x2="576" y2="68"/>
<line opacity="0.1" stroke="#000000" stroke-width="1" x1="587" y1="699" x2="587" y2="68"/>
<line opacity="0.1" stroke="#000000" stroke-width="1" x1="599" y1="699" x2="599" y2="68"/>
<line opacity="0.1" stroke="#000000" stroke-width="1" x1="610" y1="699" x2="610" y2="68"/>
<line opacity="0.1" stroke="#000000" stroke-width="1" x1="621" y1="699" x2="621" y2="68"/>
<line opacity="0.1" stroke="#000000" stroke-width="1" x1="632" y1="699" x2="632" y2="68"/>
<line opacity="0.1" stroke="#000000" stroke-width="1" x1="643" y1="699" x2="643" y2="68"/>
<line opacity="0.1" stroke="#000000" stroke-width="1" x1="654" y1="699" x2="654" y2="68"/>
<line opacity="0.1" stroke="#000000" stroke-width="1" x1="666" y1="699" x2="666" y2="68"/>
<line opacity="0.1" stroke="#000000" stroke-width="1" x1="677" y1="699" x2="677" y2="68"/>
<line opacity="0.1" stroke="#000000" stroke-width="1" x1="688" y1="699" x2="688" y2="68"/>
<line opacity="0.1" stroke="#000000" stroke-width="1" x1="699" y1="699" x2="699" y2="68"/>
<line opacity="0.1" stroke="#000000" stroke-width="1" x1="710" y1="699" x2="710" y2="68"/>
<line opacity="0.1" stroke="#000000" stroke-width="1" x1="722" y1="699" x2="722" y2="68"/>
<line opacity="0.1" stroke="#000000" stroke-width="1" x1="733" y1="699" x2="733" y2="68"/>
<line opacity="0.1" stroke="#000000" stroke-width="1" x1="744" y1="699" x2="744" y2="68"/>
<line opacity="0.1" stroke="#000000" stroke-width="1" x1="755" y1="699" x2="755" y2="68"/>
<line opacity="0.1" stroke="#000000" stroke-width="1" x1="766" y1="699" x2="766" y2="68"/>
<line opacity="0.1" stroke="#000000" stroke-width="1" x1="777" y1="699" x2="777" y2="68"/>
<line opacity="0.1" stroke="#000000" stroke-width="1" x1="789" y1="699" x2="789" y2="68"/>
<line opacity="0.1" stroke="#000000" stroke-width="1" x1="800" y1="699" x2="800" y2="68"/>
<line opacity="0.1" stroke="#000000" stroke-width="1" x1="811" y1="699" x2="811" y2="68"/>
<line opacity="0.1" stroke="#000000" stroke-width="1" x1="822" y1="699" x2="822" y2="68"/>
<line opacity="0.1" stroke="#000000" stroke-width="1" x1="833" y1="699" x2="833" y2="68"/>
<line opacity="0.1" stroke="#000000" stroke-width="1" x1="845" y1="699" x2="845" y2="68"/>
<line opacity="0.1" stroke="#000000" stroke-width="1" x1="856" y1="699" x2="856" y2="68"/>
<line opacity="0.1" stroke="#000000" stroke-width="1" x1="867" y1="699" x2="867" y2="68"/>
<line opacity="0.1" stroke="#000000" stroke-width="1" x1="878" y1="699" x2="878" y2="68"/>
<line opacity="0.1" stroke="#000000" stroke-width="1" x1="889" y1="699" x2="889" y2="68"/>
<line opacity="0.1" stroke="#000000" stroke-width="1" x1="900" y1="699" x2="900" y2="68"/>
<line opacity="0.1" stroke="#000000" stroke-width="1" x1="912" y1="699" x2="912" y2="68"/>
<line opacity="0.1" stroke="#000000" stroke-width="1" x1="923" y1="699" x2="923" y2="68"/>
<line opacity="0.1" stroke="#000000" stroke-width="1" x1="934" y1="699" x2="934" y2="68"/>
<line opacity="0.1" stroke="#000000" stroke-width="1" x1="945" y1="699" x2="945" y2="68"/>
<line opacity="0.1" stroke="#000000" stroke-width="1" x1="956" y1="699" x2="956" y2="68"/>
<line opacity="0.1" stroke="#000000" stroke-width="1" x1="968" y1="699" x2="968" y2="68"/>
<line opacity="0.1" stroke="#000000" stroke-width="1" x1="78" y1="699" x2="973" y2="699"/>
<line opacity="0.1" stroke="#000000" stroke-width="1" x1="78" y1="692" x2="973" y2="692"/>
<line opacity="0.1" stroke="#000000" stroke-width="1" x1="78" y1="686" x2="973" y2="686"/>
<line opacity="0.1" stroke="#000000" stroke-width="1" x1="78" y1="679" x2="973" y2="679"/>
<line opacity="0.1" stroke="#000000" stroke-width="1" x1="78" y1="673" x2="973" y2="673"/>
<line opacity="0.1" stroke="#000000" stroke-width="1" x1="78" y1="666" x2="973" y2="666"/>
<line opacity="0.1" stroke="#000000" stroke-width="1" x1="78" y1="660" x2="973" y2="660"/>
<line opacity="0.1" stroke="#000000" stroke-width="1" x1="78" y1="653" x2="973" y2="653"/>
<line opacity="0.1" stroke="#000000" stroke-width="1" x1="78" y1="647" x2="973" y2="647"/>
<line opacity="0.1" stroke="#000000" stroke-width="1" x1="78" y1="640" x2="973" y2="640"/>
<line opacity="0.1" stroke="#000000" stroke-width="1" x1="78" y1="634" x2="973" y2="634"/>
<line opacity="0.1" stroke="#000000" stroke-width="1" x1="78" y1="627" x2="973" y2="627"/>
<line opacity="0.1" stroke="#000000" stroke-width="1" x1="78" y1="621" x2="973" y2="621"/>
<line opacity="0.1" stroke="#000000" stroke-width="1" x1="78" y1="614" x2="973" y2="614"/>
<line opacity="0.1" stroke="#000000" stroke-width="1" x1="78" y1="608" x2="973" y2="608"/>
<line opacity="0.1" stroke="#000000" stroke-width="1" x1="78" y1="601" x2="973" y2="601"/>
<line opacity="0.1" stroke="#000000" stroke-width="1" x1="78" y1="595" x2="973" y2="595"/>
<line opacity="0.1" stroke="#000000" stroke-width="1" x1="78" y1="588" x2="973" y2="588"/>
<line opacity="0.1" stroke="#000000" stroke-width="1" x1="78" y1="582" x2="973" y2="582"/>
<line opacity="0.1" stroke="#000000" stroke-width="1" x1="78" y1="575" x2="973" y2="575"/>
<line opacity="0.1" stroke="#000000" stroke-width="1" x1="78" y1="569" x2="973" y2="569"/>
<line opacity="0.1" stroke="#000000" stroke-width="1" x1="78" y1="562" x2="973" y2="562"/>
<line opacity="0.1" stroke="#000000" stroke-width="1" x1="78" y1="556" x2="973" y2="556"/>
<line opacity="0.1" stroke="#000000" stroke-width="1" x1="78" y1="549" x2="973" y2="549"/>
<line opacity="0.1" stroke="#000000" stroke-width="1" x1="78" y1="543" x2="973" y2="543"/>
<line opacity="0.1" stroke="#000000" stroke-width="1" x1="78" y1="536" x2="973" y2="536"/>
<line opacity="0.1" stroke="#000000" stroke-width="1" x1="78" y1="530" x2="973" y2="530"/>
<line opacity="0.1" stroke="#000000" stroke-width="1" x1="78" y1="523" x2="973" y2="523"/>
<line opacity="0.1" stroke="#000000" stroke-width="1" x1="78" y1="517" x2="973" y2="517"/>
<line opacity="0.1" stroke="#000000" stroke-width="1" x1="78" y1="510" x2="973" y2="510"/>
<line opacity="0.1" stroke="#000000" stroke-width="1" x1="78" y1="504" x2="973" y2="504"/>
<line opacity="0.1" stroke="#000000" stroke-width="1" x1="78" y1="497" x2="973" y2="497"/>
<line opacity="0.1" stroke="#000000" stroke-width="1" x1="78" y1="491" x2="973" y2="491"/>
<line opacity="0.1" stroke="#000000" stroke-width="1" x1="78" y1="484" x2="973" y2="484"/>
<line opacity="0.1" stroke="#000000" stroke-width="1" x1="78" y1="478" x2="973" y2="478"/>
<line opacity="0.1" stroke="#000000" stroke-width="1" x1="78" y1="471" x2="973" y2="471"/>
<line opacity="0.1" stroke="#000000" stroke-width="1" x1="78" y1="465" x2="973" y2="465"/>
<line opacity="0.1" stroke="#000000" stroke-width="1" x1="78" y1="458" x2="973" y2="458"/>
<line opacity="0.1" stroke="#000000" stroke-width="1" x1="78" y1="452" x2="973" y2="452"/>
<line opacity="0.1" stroke="#000000" stroke-width="1" x1="78" y1="445" x2="973" y2="445"/>
<line opacity="0.1" stroke="#000000" stroke-width="1" x1="78" y1="439" x2="973" y2="439"/>
<line opacity="0.1" stroke="#000000" stroke-width="1" x1="78" y1="432" x2="973" y2="432"/>
<line opacity="0.1" stroke="#000000" stroke-width="1" x1="78" y1="426" x2="973" y2="426"/>
<line opacity="0.1" stroke="#000000" stroke-width="1" x1="78" y1="419" x2="973" y2="419"/>
<line opacity="0.1" stroke="#000000" stroke-width="1" x1="78" y1="413" x2="973" y2="413"/>
<line opacity="0.1" stroke="#000000" stroke-width="1" x1="78" y1="406" x2="973" y2="406"/>
<line opacity="0.1" stroke="#000000" stroke-width="1" x1="78" y1="400" x2="973" y2="400"/>
<line opacity="0.1" stroke="#000000" stroke-width="1" x1="78" y1="393" x2="973" y2="393"/>
<line opacity="0.1" stroke="#000000" stroke-width="1" x1="78" y1="387" x2="973" y2="387"/>
<line opacity="0.1" stroke="#000000" stroke-width="1" x1="78" y1="380" x2="973" y2="380"/>
<line opacity="0.1" stroke="#000000" stroke-width="1" x1="78" y1="374" x2="973" y2="374"/>
<line opacity="0.1" stroke="#000000" stroke-width="1" x1="78" y1="367" x2="973" y2="367"/>
<line opacity="0.1" stroke="#000000" stroke-width="1" x1="78" y1="361" x2="973" y2="361"/>
<line opacity="0.1" stroke="#000000" stroke-width="1" x1="78" y1="354" x2="973" y2="354"/>
<line opacity="0.1" stroke="#000000" stroke-width="1" x1="78" y1="348" x2="973" y2="348"/>
<line opacity="0.1" stroke="#000000" stroke-width="1" x1="78" y1="341" x2="973" y2="341"/>
<line opacity="0.1" stroke="#000000" stroke-width="1" x1="78" y1="335" x2="973" y2="335"/>
<line opacity="0.1" stroke="#000000" stroke-width="1" x1="78" y1="328" x2="973" y2="328"/>
<line opacity="0.1" stroke="#000000" stroke-width="1" x1="78" y1="322" x2="973" y2="322"/>
<line opacity="0.1" stroke="#000000" stroke-width="1" x1="78" y1="315" x2="973" y2="315"/>
<line opacity="0.1" stroke="#000000" stroke-width="1" x1="78" y1="309" x2="973" y2="309"/>
<line opacity="0.1" stroke="#000000" stroke-width="1" x1="78" y1="302" x2="973" y2="302"/>
<line opacity="0.1" stroke="#000000" stroke-width="1" x1="78" y1="296" x2="973" y2="296"/>
<line opacity="0.1" stroke="#000000" stroke-width="1" x1="78" y1="289" x2="973" y2="289"/>
<line opacity="0.1" stroke="#000000" stroke-width="1" x1="78" y1="283" x2="973" y2="283"/>
<line opacity="0.1" stroke="#000000" stroke-width="1" x1="78" y1="276" x2="973" y2="276"/>
<line opacity="0.1" stroke="#000000" stroke-width="1" x1="78" y1="270" x2="973" y2="270"/>
<line opacity="0.1" stroke="#000000" stroke-width="1" x1="78" y1="263" x2="973" y2="263"/>
<line opacity="0.1" stroke="#000000" stroke-width="1" x1="78" y1="257" x2="973" y2="257"/>
<line opacity="0.1" stroke="#000000" stroke-width="1" x1="78" y1="250" x2="973" y2="250"/>
<line opacity="0.1" stroke="#000000" stroke-width="1" x1="78" y1="244" x2="973" y2="244"/>
<line opacity="0.1" stroke="#000000" stroke-width="1" x1="78" y1="237" x2="973" y2="237"/>
<line opacity="0.1" stroke="#000000" stroke-width="1" x1="78" y1="231" x2="973" y2="231"/>
<line opacity="0.1" stroke="#000000" stroke-width="1" x1="78" y1="224" x2="973" y2="224"/>
<line opacity="0.1" stroke="#000000" stroke-width="1" x1="78" y1="218" x2="973" y2="218"/>
<line opacity="0.1" stroke="#000000" stroke-width="1" x1="78" y1="211" x2="973" y2="211"/>
<line opacity="0.1" stroke="#000000" stroke-width="1" x1="78" y1="205" x2="973" y2="205"/>
<line opacity="0.1" stroke="#000000" stroke-width="1" x1="78" y1="198" x2="973" y2="198"/>
<line opacity="0.1" stroke="#000000" stroke-width="1" x1="78" y1="192" x2="973" y2="192"/>
<line opacity="0.1" stroke="#000000" stroke-width="1" x1="78" y1="185" x2="973" y2="185"/>
<line opacity="0.1" stroke="#000000" stroke-width="1" x1="78" y1="179" x2="973" y2="179"/>
<line opacity="0.1" stroke="#000000" stroke-width="1" x1="78" y1="172" x2="973" y2="172"/>
<line opacity="0.1" stroke="#000000" stroke-width="1" x1="78" y1="166" x2="973" y2="166"/>
<line opacity="0.1" stroke="#000000" stroke-width="1" x1="78" y1="159" x2="973" y2="159"/>
<line opacity="0.1" stroke="#000000" stroke-width="1" x1="78" y1="153" x2="973" y2="153"/>
<line opacity="0.1" stroke="#000000" stroke-width="1" x1="78" y1="146" x2="973" y2="146"/>
<line opacity="0.1" stroke="#000000" stroke-width="1" x1="78" y1="140" x2="973" y2="140"/>
<line opacity="0.1" stroke="#000000" stroke-width="1" x1="78" y1="133" x2="973" y2="133"/>
<line opacity="0.1" stroke="#000000" stroke-width="1" x1="78" y1="127" x2="973" y2="127"/>
<line opacity="0.1" stroke="#000000" stroke-width="1" x1="78" y1="120" x2="973" y2="120"/>
<line opacity="0.1" stroke="#000000" stroke-width="1" x1="78" y1="114" x2="973" y2="114"/>
<line opacity="0.1" stroke="#000000" stroke-width="1" x1="78" y1="107" x2="973" y2="107"/>
<line opacity="0.1" stroke="#000000" stroke-width="1" x1="78" y1="101" x2="973" y2="101"/>
<line opacity="0.1" stroke="#000000" stroke-width="1" x1="78" y1="94" x2="973" y2="94"/>
<line opacity="0.1" stroke="#000000" stroke-width="1" x1="78" y1="88" x2="973" y2="88"/>
<line opacity="0.1" stroke="#000000" stroke-width="1" x1="78" y1="81" x2="973" y2="81"/>
<line opacity="0.1" stroke="#000000" stroke-width="1" x1="78" y1="75" x2="973" y2="75"/>
<line opacity="0.1" stroke="#000000" stroke-width="1" x1="78" y1="68" x2="973" y2="68"/>
<text x="8" y="384" dy="0.76em" text-anchor="middle" font-family="sans-serif" font-size="9.67741935483871" opacity="1" fill="#000000" transform="rotate(270, 8, 384)">
Memory usage
</text>
<text x="526" y="760" dy="-0.5ex" text-anchor="middle" font-family="sans-serif" font-size="9.67741935483871" opacity="1" fill="#000000">
Time
</text>
<line opacity="0.2" stroke="#000000" stroke-width="1" x1="106" y1="699" x2="106" y2="68"/>
<line opacity="0.2" stroke="#000000" stroke-width="1" x1="218" y1="699" x2="218" y2="68"/>
<line opacity="0.2" stroke="#000000" stroke-width="1" x1="330" y1="699" x2="330" y2="68"/>
<line opacity="0.2" stroke="#000000" stroke-width="1" x1="442" y1="699" x2="442" y2="68"/>
<line opacity="0.2" stroke="#000000" stroke-width="1" x1="554" y1="699" x2="554" y2="68"/>
<line opacity="0.2" stroke="#000000" stroke-width="1" x1="666" y1="699" x2="666" y2="68"/>
<line opacity="0.2" stroke="#000000" stroke-width="1" x1="777" y1="699" x2="777" y2="68"/>
<line opacity="0.2" stroke="#000000" stroke-width="1" x1="889" y1="699" x2="889" y2="68"/>
<line opacity="0.2" stroke="#000000" stroke-width="1" x1="78" y1="699" x2="973" y2="699"/>
<line opacity="0.2" stroke="#000000" stroke-width="1" x1="78" y1="634" x2="973" y2="634"/>
<line opacity="0.2" stroke="#000000" stroke-width="1" x1="78" y1="569" x2="973" y2="569"/>
<line opacity="0.2" stroke="#000000" stroke-width="1" x1="78" y1="504" x2="973" y2="504"/>
<line opacity="0.2" stroke="#000000" stroke-width="1" x1="78" y1="439" x2="973" y2="439"/>
<line opacity="0.2" stroke="#000000" stroke-width="1" x1="78" y1="374" x2="973" y2="374"/>
<line opacity="0.2" stroke="#000000" stroke-width="1" x1="78" y1="309" x2="973" y2="309"/>
<line opacity="0.2" stroke="#000000" stroke-width="1" x1="78" y1="244" x2="973" y2="244"/>
<line opacity="0.2" stroke="#000000" stroke-width="1" x1="78" y1="179" x2="973" y2="179"/>
<line opacity="0.2" stroke="#000000" stroke-width="1" x1="78" y1="114" x2="973" y2="114"/>
<polyline fill="none" opacity="1" stroke="#000000" stroke-width="1" points="77,68 77,699 "/>
<text x="68" y="699" dy="0.5ex" text-anchor="end" font-family="sans-serif" font-size="9.67741935483871" opacity="1" fill="#000000">
0 MB
</text>
<polyline fill="none" opacity="1" stroke="#000000" stroke-width="1" points="72,699 77,699 "/>
<text x="68" y="634" dy="0.5ex" text-anchor="end" font-family="sans-serif" font-size="9.67741935483871" opacity="1" fill="#000000">
19 MB
</text>
<polyline fill="none" opacity="1" stroke="#000000" stroke-width="1" points="72,634 77,634 "/>
<text x="68" y="569" dy="0.5ex" text-anchor="end" font-family="sans-serif" font-size="9.67741935483871" opacity="1" fill="#000000">
38 MB
</text>
<polyline fill="none" opacity="1" stroke="#000000" stroke-width="1" points="72,569 77,569 "/>
<text x="68" y="504" dy="0.5ex" text-anchor="end" font-family="sans-serif" font-size="9.67741935483871" opacity="1" fill="#000000">
57 MB
</text>
<polyline fill="none" opacity="1" stroke="#000000" stroke-width="1" points="72,504 77,504 "/>
<text x="68" y="439" dy="0.5ex" text-anchor="end" font-family="sans-serif" font-size="9.67741935483871" opacity="1" fill="#000000">
76 MB
</text>
<polyline fill="none" opacity="1" stroke="#000000" stroke-width="1" points="72,439 77,439 "/>
<text x="68" y="374" dy="0.5ex" text-anchor="end" font-family="sans-serif" font-size="9.67741935483871" opacity="1" fill="#000000">
95 MB
</text>
<polyline fill="none" opacity="1" stroke="#000000" stroke-width="1" points="72,374 77,374 "/>
<text x="68" y="309" dy="0.5ex" text-anchor="end" font-family="sans-serif" font-size="9.67741935483871" opacity="1" fill="#000000">
114 MB
</text>
<polyline fill="none" opacity="1" stroke="#000000" stroke-width="1" points="72,309 77,309 "/>
<text x="68" y="244" dy="0.5ex" text-anchor="end" font-family="sans-serif" font-size="9.67741935483871" opacity="1" fill="#000000">
133 MB
</text>
<polyline fill="none" opacity="1" stroke="#000000" stroke-width="1" points="72,244 77,244 "/>
<text x="68" y="179" dy="0.5ex" text-anchor="end" font-family="sans-serif" font-size="9.67741935483871" opacity="1" fill="#000000">
152 MB
</text>
<polyline fill="none" opacity="1" stroke="#000000" stroke-width="1" points="72,179 77,179 "/>
<text x="68" y="114" dy="0.5ex" text-anchor="end" font-family="sans-serif" font-size="9.67741935483871" opacity="1" fill="#000000">
171 MB
</text>
<polyline fill="none" opacity="1" stroke="#000000" stroke-width="1" points="72,114 77,114 "/>
<polyline fill="none" opacity="1" stroke="#000000" stroke-width="1" points="78,700 973,700 "/>
<text x="106" y="710" dy="0.76em" text-anchor="middle" font-family="sans-serif" font-size="9.67741935483871" opacity="1" fill="#000000">
07 20:33:20
</text>
<polyline fill="none" opacity="1" stroke="#000000" stroke-width="1" points="106,700 106,705 "/>
<text x="218" y="710" dy="0.76em" text-anchor="middle" font-family="sans-serif" font-size="9.67741935483871" opacity="1" fill="#000000">
08 10:26:40
</text>
<polyline fill="none" opacity="1" stroke="#000000" stroke-width="1" points="218,700 218,705 "/>
<text x="330" y="710" dy="0.76em" text-anchor="middle" font-family="sans-serif" font-size="9.67741935483871" opacity="1" fill="#000000">
09 00:20:00
</text>
<polyline fill="none" opacity="1" stroke="#000000" stroke-width="1" points="330,700 330,705 "/>
<text x="442" y="710" dy="0.76em" text-anchor="middle" font-family="sans-serif" font-size="9.67741935483871" opacity="1" fill="#000000">
09 14:13:20
</text>
<polyline fill="none" opacity="1" stroke="#000000" stroke-width="1" points="442,700 442,705 "/>
<text x="554" y="710" dy="0.76em" text-anchor="middle" font-family="sans-serif" font-size="9.67741935483871" opacity="1" fill="#000000">
10 04:06:40
</text>
<polyline fill="none" opacity="1" stroke="#000000" stroke-width="1" points="554,700 554,705 "/>
<text x="666" y="710" dy="0.76em" text-anchor="middle" font-family="sans-serif" font-size="9.67741935483871" opacity="1" fill="#000000">
10 18:00:00
</text>
<polyline fill="none" opacity="1" stroke="#000000" stroke-width="1" points="666,700 666,705 "/>
<text x="777" y="710" dy="0.76em" text-anchor="middle" font-family="sans-serif" font-size="9.67741935483871" opacity="1" fill="#000000">
11 07:53:20
</text>
<polyline fill="none" opacity="1" stroke="#000000" stroke-width="1" points="777,700 777,705 "/>
<text x="889" y="710" dy="0.76em" text-anchor="middle" font-family="sans-serif" font-size="9.67741935483871" opacity="1" fill="#000000">
11 21:46:40
</text>
<polyline fill="none" opacity="1" stroke="#000000" stroke-width="1" points="889,700 889,705 "/>
<polyline fill="none" opacity="1" stroke="#000000" stroke-width="1" points="78,67 974,67 "/>
<text x="106" y="58" dy="-0.5ex" text-anchor="middle" font-family="sans-serif" font-size="9.67741935483871" opacity="1" fill="#000000">
+03:35:44
</text>
<polyline fill="none" opacity="1" stroke="#000000" stroke-width="1" points="106,62 106,67 "/>
<text x="218" y="58" dy="-0.5ex" text-anchor="middle" font-family="sans-serif" font-size="9.67741935483871" opacity="1" fill="#000000">
+17:29:04
</text>
<polyline fill="none" opacity="1" stroke="#000000" stroke-width="1" points="218,62 218,67 "/>
<text x="330" y="58" dy="-0.5ex" text-anchor="middle" font-family="sans-serif" font-size="9.67741935483871" opacity="1" fill="#000000">
+31:22:24
</text>
<polyline fill="none" opacity="1" stroke="#000000" stroke-width="1" points="330,62 330,67 "/>
<text x="442" y="58" dy="-0.5ex" text-anchor="middle" font-family="sans-serif" font-size="9.67741935483871" opacity="1" fill="#000000">
+45:15:44
</text>
<polyline fill="none" opacity="1" stroke="#000000" stroke-width="1" points="442,62 442,67 "/>
<text x="554" y="58" dy="-0.5ex" text-anchor="middle" font-family="sans-serif" font-size="9.67741935483871" opacity="1" fill="#000000">
+59:09:04
</text>
<polyline fill="none" opacity="1" stroke="#000000" stroke-width="1" points="554,62 554,67 "/>
<text x="666" y="58" dy="-0.5ex" text-anchor="middle" font-family="sans-serif" font-size="9.67741935483871" opacity="1" fill="#000000">
+73:02:24
</text>
<polyline fill="none" opacity="1" stroke="#000000" stroke-width="1" points="666,62 666,67 "/>
<text x="778" y="58" dy="-0.5ex" text-anchor="middle" font-family="sans-serif" font-size="9.67741935483871" opacity="1" fill="#000000">
+86:55:44
</text>
<polyline fill="none" opacity="1" stroke="#000000" stroke-width="1" points="778,62 778,67 "/>
<text x="890" y="58" dy="-0.5ex" text-anchor="middle" font-family="sans-serif" font-size="9.67741935483871" opacity="1" fill="#000000">
+100:49:04
</text>
<polyline fill="none" opacity="1" stroke="#000000" stroke-width="1" points="890,62 890,67 "/>
<rect x="83" y="73" width="99" height="45" opacity="0.75" fill="#FFFFFF" stroke="none"/>
<rect x="83" y="73" width="99" height="45" opacity="1" fill="none" stroke="#000000"/>
<text x="123" y="83" dy="0.76em" text-anchor="start" font-family="sans-serif" font-size="9.67741935483871" opacity="1" fill="#000000">
Temporary
</text>
<text x="123" y="98" dy="0.76em" text-anchor="start" font-family="sans-serif" font-size="9.67741935483871" opacity="1" fill="#000000">
Leaked
</text>
<rect x="93" y="83" width="10" height="10" opacity="1" fill="#3CB44B" stroke="none"/>
<rect x="93" y="98" width="10" height="10" opacity="1" fill="#E6194B" stroke="none"/>
</svg>
