<svg width="1024" height="768" viewBox="0 0 1024 768" xmlns="http://www.w3.org/2000/svg">
<rect x="0" y="0" width="1024" height="768" opacity="1" fill="#FFFFFF" stroke="none"/>
<polygon opacity="1" fill="#3CB44B" points="78,697 79,696 80,695 81,694 82,692 82,691 83,690 84,689 85,688 86,687 87,686 88,685 89,684 90,683 91,681 91,680 92,679 93,678 94,677 95,676 96,675 97,674 98,673 99,672 99,671 100,670 101,668 102,667 103,666 104,665 105,664 106,663 107,662 108,661 108,660 109,659 110,657 111,656 112,655 113,654 114,653 115,652 116,651 116,649 117,648 118,647 119,646 120,645 121,644 122,643 123,641 124,640 125,639 125,638 126,637 127,636 128,635 129,634 130,632 131,631 132,630 133,629 134,628 134,627 135,626 136,624 137,623 138,622 139,621 140,620 141,619 142,618 142,617 143,616 144,615 145,613 146,612 147,611 148,610 149,609 150,608 151,606 151,605 152,604 153,603 154,602 155,601 156,600 157,599 158,598 159,597 159,595 160,594 161,593 162,592 163,591 164,590 165,589 166,588 167,586 168,585 168,584 169,583 170,582 171,580 172,579 173,578 174,577 175,576 176,575 176,574 177,573 178,572 179,570 180,569 181,568 182,567 183,566 184,565 185,564 185,562 186,561 187,560 188,559 189,558 190,557 191,556 192,555 193,554 193,552 194,551 195,550 196,549 197,548 198,547 199,546 200,545 201,544 202,543 202,542 203,540 204,539 205,538 206,537 207,536 208,535 209,534 210,533 210,532 211,531 212,529 213,528 214,527 215,526 216,525 217,524 218,523 219,522 219,521 220,520 221,519 222,518 223,517 224,516 225,515 226,514 227,513 227,511 228,510 229,510 230,508 231,507 232,506 233,505 234,504 235,503 236,502 236,501 237,500 238,499 239,498 240,497 241,495 242,494 243,493 244,492 244,491 245,490 246,489 247,488 248,487 249,486 250,485 251,484 252,482 253,481 253,480 254,479 255,478 256,477 257,476 258,475 259,474 260,473 261,472 261,471 262,470 263,468 264,468 265,466 266,465 267,464 268,463 269,462 270,461 270,460 271,459 272,458 273,457 274,456 275,455 276,453 277,452 278,451 278,450 279,449 280,448 281,447 282,446 283,445 284,444 285,443 286,442 287,441 287,440 288,439 289,438 290,436 291,435 292,434 293,433 294,432 295,431 295,430 296,429 297,428 298,427 299,426 300,425 301,424 302,422 303,421 304,420 304,419 305,418 306,417 307,416 308,415 309,414 310,413 311,412 312,410 312,409 313,408 314,407 315,406 316,405 317,404 318,403 319,401 320,400 321,399 321,398 322,397 323,396 324,395 325,394 326,393 327,392 328,391 329,390 329,389 330,388 331,387 332,386 333,385 334,384 335,383 336,382 337,381 338,380 338,379 339,377 340,376 341,375 342,374 343,373 344,372 345,371 346,370 347,369 347,368 348,367 349,365 350,364 351,363 352,362 353,361 354,360 355,359 355,358 356,357 357,356 358,355 359,354 360,352 361,351 362,350 363,349 364,348 364,347 365,346 366,345 367,344 368,343 369,341 370,340 371,339 372,338 372,337 373,336 374,335 375,334 376,333 377,332 378,331 379,330 380,329 381,328 381,326 382,325 383,324 384,323 385,322 386,321 387,320 388,319 389,318 389,317 390,315 391,314 392,313 393,312 394,311 395,310 396,309 397,308 398,307 398,305 399,304 400,303 401,302 402,301 403,300 404,299 405,298 406,297 406,296 407,295 408,293 409,292 410,291 411,290 412,289 413,288 414,287 415,286 415,285 416,284 417,283 418,281 419,280 420,279 421,278 422,277 423,276 423,275 424,274 425,273 426,272 427,270 428,269 429,268 430,267 431,266 432,265 432,264 433,263 434,262 435,261 436,260 437,259 438,257 439,257 440,255 440,254 441,253 442,252 443,251 444,250 445,249 446,248 447,247 448,246 449,244 449,243 450,242 451,241 452,240 453,239 454,238 455,237 456,235 457,234 457,233 458,232 459,231 460,230 461,229 462,228 463,226 464,225 465,224 466,223 466,222 467,221 468,220 469,219 470,218 471,217 472,216 473,214 474,213 474,212 475,211 476,210 477,209 478,208 479,207 480,206 481,205 482,204 483,203 483,202 484,201 485,199 486,198 487,197 488,196 489,195 490,194 491,193 491,192 492,191 493,189 494,188 495,187 496,186 497,185 498,184 499,183 500,182 500,181 501,180 502,179 503,178 504,177 505,175 506,174 507,173 508,172 508,171 509,170 510,169 511,168 512,167 513,166 514,165 515,163 516,162 517,161 517,160 518,159 519,158 520,157 521,156 522,155 523,154 524,153 525,151 525,150 526,149 527,148 528,147 529,146 530,145 531,144 532,143 533,142 534,140 534,139 535,138 536,137 537,136 538,135 539,134 540,133 541,132 542,131 542,129 543,128 544,127 545,126 546,125 547,124 548,123 549,122 550,121 551,120 551,118 552,117 553,116 554,115 555,114 556,113 557,112 558,111 559,110 560,109 560,108 561,107 562,106 563,105 564,104 565,103 566,102 567,101 568,100 568,99 569,98 570,97 571,95 572,94 573,93 574,92 575,91 576,90 577,89 577,88 578,87 579,86 580,85 581,84 582,83 583,82 584,81 585,80 585,78 586,77 587,76 588,75 589,74 590,73 591,72 592,71 593,70 594,69 594,68 595,68 596,68 597,68 598,68 599,68 600,68 601,68 602,68 602,68 603,68 604,68 605,68 606,68 607,68 608,68 609,68 610,68 611,68 611,68 612,68 613,68 614,68 615,68 616,68 617,68 618,68 619,68 619,68 620,68 621,68 622,68 623,68 624,68 625,68 626,68 627,68 628,68 628,68 629,68 630,68 631,68 632,68 633,68 634,68 635,68 636,68 636,68 637,68 638,68 639,68 640,68 641,68 642,68 643,68 644,68 645,68 645,68 646,68 647,68 648,68 649,68 650,68 651,68 652,68 653,68 653,68 654,68 655,68 656,68 657,68 658,68 659,68 660,68 661,68 662,68 662,68 663,68 664,68 665,68 666,68 667,68 668,68 669,68 670,68 670,68 671,68 672,68 673,68 674,68 675,68 676,68 677,68 678,68 679,68 679,68 680,68 681,68 682,68 683,68 684,68 685,68 686,68 687,68 687,68 688,68 689,68 690,68 691,68 692,68 693,68 694,68 695,68 696,68 696,68 697,68 698,68 699,68 700,68 701,68 702,68 703,68 704,68 704,68 705,68 706,68 707,68 708,68 709,68 710,68 711,68 712,68 713,68 713,68 714,68 715,68 716,68 717,68 718,68 719,68 720,68 721,68 721,68 722,68 723,68 724,68 725,68 726,68 727,68 728,68 729,68 730,68 730,68 731,68 732,68 733,68 734,68 735,68 736,68 737,68 738,68 738,68 739,68 740,68 741,68 742,68 743,68 744,68 745,68 746,68 747,68 747,68 748,68 749,68 750,68 751,68 752,68 753,68 754,68 755,68 755,68 756,68 757,68 758,68 759,68 760,68 761,68 762,68 763,68 764,68 764,68 765,68 766,68 767,68 768,68 769,68 770,68 771,68 772,68 773,68 773,68 774,68 775,68 776,68 777,68 778,68 779,68 780,68 781,68 781,68 782,68 783,68 784,68 785,68 786,68 787,68 788,68 789,68 790,68 790,68 791,68 792,68 793,68 794,68 795,68 796,68 797,68 798,68 798,68 799,68 800,68 801,68 802,68 803,68 804,68 805,68 806,68 807,68 807,68 808,68 809,68 810,68 811,68 812,68 813,68 814,68 815,68 815,68 816,68 817,68 818,68 819,68 820,68 821,68 822,68 823,68 824,68 824,68 825,68 826,68 827,68 828,68 829,68 830,68 831,68 832,68 832,68 833,68 834,68 835,68 836,68 837,68 838,68 839,68 840,68 841,68 841,68 842,68 843,68 844,68 845,68 846,68 847,68 848,68 849,68 849,68 850,68 851,68 852,68 853,68 854,68 855,68 856,68 857,68 858,68 858,68 859,68 860,68 861,68 862,68 863,68 864,68 865,68 866,68 866,68 867,68 868,68 869,68 870,68 871,68 872,68 873,68 874,68 875,68 875,68 876,68 877,68 878,68 879,68 880,68 881,68 882,68 883,68 883,68 884,68 885,68 886,68 887,68 888,68 889,68 890,68 891,68 892,68 892,68 893,68 894,68 895,68 896,68 897,68 898,68 899,68 900,68 900,68 901,68 902,68 903,68 904,68 905,68 906,68 907,68 908,68 909,68 909,68 910,68 911,68 912,68 913,68 914,68 915,68 916,68 917,68 917,68 918,68 919,68 920,68 921,68 922,68 923,68 924,68 925,68 926,68 926,68 927,68 928,68 929,68 930,68 931,68 932,68 933,68 934,68 934,68 935,68 936,68 937,68 938,68 939,68 940,68 941,68 942,68 943,68 943,68 944,68 945,68 946,68 947,68 948,68 949,68 950,68 951,68 951,68 952,68 953,68 954,68 955,68 956,68 957,68 958,68 959,68 960,68 960,68 961,68 962,68 963,68 964,68 965,68 966,68 967,68 968,68 968,68 969,68 970,68 971,68 972,68 972,69 973,69 973,699 78,699 "/>
<polyline fill="none" opacity="1" stroke="#3CB44B" stroke-width="1" points="78,697 79,696 80,695 81,694 82,692 82,691 83,690 84,689 85,688 86,687 87,686 88,685 89,684 90,683 91,681 91,680 92,679 93,678 94,677 95,676 96,675 97,674 98,673 99,672 99,671 100,670 101,668 102,667 103,666 104,665 105,664 106,663 107,662 108,661 108,660 109,659 110,657 111,656 112,655 113,654 114,653 115,652 116,651 116,649 117,648 118,647 119,646 120,645 121,644 122,643 123,641 124,640 125,639 125,638 126,637 127,636 128,635 129,634 130,632 131,631 132,630 133,629 134,628 134,627 135,626 136,624 137,623 138,622 139,621 140,620 141,619 142,618 142,617 143,616 144,615 145,613 146,612 147,611 148,610 149,609 150,608 151,606 151,605 152,604 153,603 154,602 155,601 156,600 157,599 158,598 159,597 159,595 160,594 161,593 162,592 163,591 164,590 165,589 166,588 167,586 168,585 168,584 169,583 170,582 171,580 172,579 173,578 174,577 175,576 176,575 176,574 177,573 178,572 179,570 180,569 181,568 182,567 183,566 184,565 185,564 185,562 186,561 187,560 188,559 189,558 190,557 191,556 192,555 193,554 193,552 194,551 195,550 196,549 197,548 198,547 199,546 200,545 201,544 202,543 202,542 203,540 204,539 205,538 206,537 207,536 208,535 209,534 210,533 210,532 211,531 212,529 213,528 214,527 215,526 216,525 217,524 218,523 219,522 219,521 220,520 221,519 222,518 223,517 224,516 225,515 226,514 227,513 227,511 228,510 229,510 230,508 231,507 232,506 233,505 234,504 235,503 236,502 236,501 237,500 238,499 239,498 240,497 241,495 242,494 243,493 244,492 244,491 245,490 246,489 247,488 248,487 249,486 250,485 251,484 252,482 253,481 253,480 254,479 255,478 256,477 257,476 258,475 259,474 260,473 261,472 261,471 262,470 263,468 264,468 265,466 266,465 267,464 268,463 269,462 270,461 270,460 271,459 272,458 273,457 274,456 275,455 276,453 277,452 278,451 278,450 279,449 280,448 281,447 282,446 283,445 284,444 285,443 286,442 287,441 287,440 288,439 289,438 290,436 291,435 292,434 293,433 294,432 295,431 295,430 296,429 297,428 298,427 299,426 300,425 301,424 302,422 303,421 304,420 304,419 305,418 306,417 307,416 308,415 309,414 310,413 311,412 312,410 312,409 313,408 314,407 315,406 316,405 317,404 318,403 319,401 320,400 321,399 321,398 322,397 323,396 324,395 325,394 326,393 327,392 328,391 329,390 329,389 330,388 331,387 332,386 333,385 334,384 335,383 336,382 337,381 338,380 338,379 339,377 340,376 341,375 342,374 343,373 344,372 345,371 346,370 347,369 347,368 348,367 349,365 350,364 351,363 352,362 353,361 354,360 355,359 355,358 356,357 357,356 358,355 359,354 360,352 361,351 362,350 363,349 364,348 364,347 365,346 366,345 367,344 368,343 369,341 370,340 371,339 372,338 372,337 373,336 374,335 375,334 376,333 377,332 378,331 379,330 380,329 381,328 381,326 382,325 383,324 384,323 385,322 386,321 387,320 388,319 389,318 389,317 390,315 391,314 392,313 393,312 394,311 395,310 396,309 397,308 398,307 398,305 399,304 400,303 401,302 402,301 403,300 404,299 405,298 406,297 406,296 407,295 408,293 409,292 410,291 411,290 412,289 413,288 414,287 415,286 415,285 416,284 417,283 418,281 419,280 420,279 421,278 422,277 423,276 423,275 424,274 425,273 426,272 427,270 428,269 429,268 430,267 431,266 432,265 432,264 433,263 434,262 435,261 436,260 437,259 438,257 439,257 440,255 440,254 441,253 442,252 443,251 444,250 445,249 446,248 447,247 448,246 449,244 449,243 450,242 451,241 452,240 453,239 454,238 455,237 456,235 457,234 457,233 458,232 459,231 460,230 461,229 462,228 463,226 464,225 465,224 466,223 466,222 467,221 468,220 469,219 470,218 471,217 472,216 473,214 474,213 474,212 475,211 476,210 477,209 478,208 479,207 480,206 481,205 482,204 483,203 483,202 484,201 485,199 486,198 487,197 488,196 489,195 490,194 491,193 491,192 492,191 493,189 494,188 495,187 496,186 497,185 498,184 499,183 500,182 500,181 501,180 502,179 503,178 504,177 505,175 506,174 507,173 508,172 508,171 509,170 510,169 511,168 512,167 513,166 514,165 515,163 516,162 517,161 517,160 518,159 519,158 520,157 521,156 522,155 523,154 524,153 525,151 525,150 526,149 527,148 528,147 529,146 530,145 531,144 532,143 533,142 534,140 534,139 535,138 536,137 537,136 538,135 539,134 540,133 541,132 542,131 542,129 543,128 544,127 545,126 546,125 547,124 548,123 549,122 550,121 551,120 551,118 552,117 553,116 554,115 555,114 556,113 557,112 558,111 559,110 560,109 560,108 561,107 562,106 563,105 564,104 565,103 566,102 567,101 568,100 568,99 569,98 570,97 571,95 572,94 573,93 574,92 575,91 576,90 577,89 577,88 578,87 579,86 580,85 581,84 582,83 583,82 584,81 585,80 585,78 586,77 587,76 588,75 589,74 590,73 591,72 592,71 593,70 594,69 594,68 595,68 596,68 597,68 598,68 599,68 600,68 601,68 602,68 602,68 603,68 604,68 605,68 606,68 607,68 608,68 609,68 610,68 611,68 611,68 612,68 613,68 614,68 615,68 616,68 617,68 618,68 619,68 619,68 620,68 621,68 622,68 623,68 624,68 625,68 626,68 627,68 628,68 628,68 629,68 630,68 631,68 632,68 633,68 634,68 635,68 636,68 636,68 637,68 638,68 639,68 640,68 641,68 642,68 643,68 644,68 645,68 645,68 646,68 647,68 648,68 649,68 650,68 651,68 652,68 653,68 653,68 654,68 655,68 656,68 657,68 658,68 659,68 660,68 661,68 662,68 662,68 663,68 664,68 665,68 666,68 667,68 668,68 669,68 670,68 670,68 671,68 672,68 673,68 674,68 675,68 676,68 677,68 678,68 679,68 679,68 680,68 681,68 682,68 683,68 684,68 685,68 686,68 687,68 687,68 688,68 689,68 690,68 691,68 692,68 693,68 694,68 695,68 696,68 696,68 697,68 698,68 699,68 700,68 701,68 702,68 703,68 704,68 704,68 705,68 706,68 707,68 708,68 709,68 710,68 711,68 712,68 713,68 713,68 714,68 715,68 716,68 717,68 718,68 719,68 720,68 721,68 721,68 722,68 723,68 724,68 725,68 726,68 727,68 728,68 729,68 730,68 730,68 731,68 732,68 733,68 734,68 735,68 736,68 737,68 738,68 738,68 739,68 740,68 741,68 742,68 743,68 744,68 745,68 746,68 747,68 747,68 748,68 749,68 750,68 751,68 752,68 753,68 754,68 755,68 755,68 756,68 757,68 758,68 759,68 760,68 761,68 762,68 763,68 764,68 764,68 765,68 766,68 767,68 768,68 769,68 770,68 771,68 772,68 773,68 773,68 774,68 775,68 776,68 777,68 778,68 779,68 780,68 781,68 781,68 782,68 783,68 784,68 785,68 786,68 787,68 788,68 789,68 790,68 790,68 791,68 792,68 793,68 794,68 795,68 796,68 797,68 798,68 798,68 799,68 800,68 801,68 802,68 803,68 804,68 805,68 806,68 807,68 807,68 808,68 809,68 810,68 811,68 812,68 813,68 814,68 815,68 815,68 816,68 817,68 818,68 819,68 820,68 821,68 822,68 823,68 824,68 824,68 825,68 826,68 827,68 828,68 829,68 830,68 831,68 832,68 832,68 833,68 834,68 835,68 836,68 837,68 838,68 839,68 840,68 841,68 841,68 842,68 843,68 844,68 845,68 846,68 847,68 848,68 849,68 849,68 850,68 851,68 852,68 853,68 854,68 855,68 856,68 857,68 858,68 858,68 859,68 860,68 861,68 862,68 863,68 864,68 865,68 866,68 866,68 867,68 868,68 869,68 870,68 871,68 872,68 873,68 874,68 875,68 875,68 876,68 877,68 878,68 879,68 880,68 881,68 882,68 883,68 883,68 884,68 885,68 886,68 887,68 888,68 889,68 890,68 891,68 892,68 892,68 893,68 894,68 895,68 896,68 897,68 898,68 899,68 900,68 900,68 901,68 902,68 903,68 904,68 905,68 906,68 907,68 908,68 909,68 909,68 910,68 911,68 912,68 913,68 914,68 915,68 916,68 917,68 917,68 918,68 919,68 920,68 921,68 922,68 923,68 924,68 925,68 926,68 926,68 927,68 928,68 929,68 930,68 931,68 932,68 933,68 934,68 934,68 935,68 936,68 937,68 938,68 939,68 940,68 941,68 942,68 943,68 943,68 944,68 945,68 946,68 947,68 948,68 949,68 950,68 951,68 951,68 952,68 953,68 954,68 955,68 956,68 957,68 958,68 959,68 960,68 960,68 961,68 962,68 963,68 964,68 965,68 966,68 967,68 968,68 968,68 969,68 970,68 971,68 972,68 972,69 973,69 "/>
<polygon opacity="1" fill="#E6194B" points="78,699 79,699 80,699 81,699 82,699 82,699 83,699 84,699 85,699 86,699 87,699 88,699 89,699 90,699 91,699 91,699 92,699 93,699 94,699 95,699 96,699 97,699 98,699 99,699 99,699 100,699 101,699 102,699 103,699 104,699 105,699 106,699 107,699 108,699 108,699 109,699 110,699 111,699 112,699 113,699 114,699 115,699 116,699 116,699 117,699 118,699 119,699 120,699 121,699 122,699 123,699 124,699 125,699 125,699 126,699 127,699 128,699 129,699 130,699 131,699 132,699 133,699 134,698 134,698 135,698 136,698 137,698 138,698 139,698 140,698 141,698 142,698 142,698 143,698 144,698 145,698 146,698 147,698 148,698 149,698 150,698 151,698 151,698 152,698 153,698 154,698 155,698 156,698 157,698 158,698 159,698 159,698 160,698 161,698 162,698 163,698 164,698 165,698 166,698 167,698 168,698 168,698 169,698 170,698 171,698 172,698 173,698 174,698 175,698 176,698 176,698 177,698 178,698 179,698 180,698 181,698 182,698 183,698 184,698 185,698 185,698 186,698 187,698 188,698 189,698 190,698 191,698 192,698 193,698 193,698 194,698 195,698 196,698 197,698 198,698 199,698 200,698 201,698 202,698 202,698 203,698 204,698 205,698 206,698 207,698 208,698 209,698 210,698 210,698 211,698 212,698 213,698 214,698 215,698 216,698 217,698 218,698 219,698 219,698 220,698 221,698 222,698 223,698 224,698 225,698 226,698 227,698 227,698 228,698 229,698 230,698 231,698 232,698 233,698 234,698 235,698 236,698 236,698 237,698 238,698 239,698 240,698 241,698 242,698 243,698 244,698 244,698 245,698 246,698 247,698 248,698 249,698 250,698 251,698 252,698 253,698 253,698 254,698 255,698 256,698 257,698 258,698 259,698 260,698 261,698 261,698 262,698 263,698 264,698 265,698 266,698 267,698 268,698 269,698 270,698 270,698 271,698 272,698 273,698 274,698 275,698 276,698 277,698 278,698 278,698 279,698 280,698 281,698 282,698 283,698 284,698 285,698 286,698 287,698 287,698 288,698 289,698 290,698 291,698 292,698 293,698 294,698 295,698 295,698 296,698 297,698 298,698 299,698 300,698 301,698 302,698 303,698 304,698 304,698 305,698 306,698 307,698 308,698 309,698 310,698 311,698 312,698 312,698 313,698 314,698 315,698 316,698 317,698 318,698 319,698 320,698 321,698 321,698 322,698 323,698 324,698 325,698 326,698 327,698 328,698 329,698 329,698 330,698 331,698 332,698 333,698 334,698 335,698 336,698 337,698 338,698 338,698 339,698 340,698 341,698 342,698 343,698 344,698 345,698 346,698 347,698 347,698 348,698 349,698 350,698 351,698 352,698 353,698 354,698 355,698 355,698 356,698 357,698 358,698 359,698 360,698 361,698 362,698 363,698 364,698 364,698 365,698 366,698 367,698 368,698 369,698 370,698 371,698 372,698 372,698 373,698 374,698 375,698 376,698 377,698 378,698 379,698 380,698 381,698 381,698 382,698 383,698 384,698 385,698 386,698 387,698 388,698 389,698 389,698 390,698 391,698 392,698 393,698 394,698 395,698 396,698 397,698 398,698 398,698 399,698 400,698 401,698 402,698 403,698 404,698 405,698 406,698 406,698 407,698 408,698 409,698 410,698 411,698 412,698 413,698 414,698 415,698 415,698 416,698 417,698 418,698 419,698 420,698 421,698 422,698 423,698 423,698 424,698 425,698 426,698 427,698 428,698 429,698 430,698 431,698 432,698 432,698 433,698 434,698 435,698 436,698 437,698 438,698 439,698 440,698 440,698 441,698 442,698 443,698 444,698 445,698 446,698 447,698 448,698 449,698 449,698 450,698 451,698 452,698 453,698 454,698 455,698 456,698 457,698 457,696 458,695 459,694 460,693 461,692 462,691 463,690 464,689 465,688 466,687 466,686 467,684 468,683 469,682 470,681 471,680 472,679 473,678 474,677 474,676 475,675 476,674 477,673 478,671 479,670 480,669 481,668 482,667 483,666 483,665 484,664 485,663 486,662 487,661 488,660 489,658 490,657 491,656 491,655 492,654 493,653 494,652 495,651 496,650 497,649 498,647 499,646 500,645 500,644 501,643 502,642 503,641 504,640 505,639 506,638 507,637 508,636 508,635 509,633 510,632 511,631 512,630 513,629 514,628 515,627 516,626 517,625 517,624 518,622 519,621 520,620 521,619 522,618 523,617 524,616 525,615 525,614 526,613 527,612 528,611 529,609 530,608 531,607 532,606 533,605 534,604 534,603 535,602 536,601 537,599 538,598 539,597 540,596 541,595 542,594 542,593 543,592 544,591 545,590 546,588 547,587 548,586 549,585 550,584 551,583 551,582 552,581 553,580 554,579 555,578 556,577 557,576 558,575 559,574 560,573 560,572 561,571 562,570 563,568 564,567 565,566 566,565 567,564 568,563 568,562 569,561 570,560 571,559 572,558 573,557 574,556 575,555 576,554 577,553 577,551 578,551 579,549 580,548 581,547 582,546 583,545 584,544 585,543 585,542 586,541 587,540 588,539 589,538 590,537 591,536 592,534 593,533 594,532 594,531 595,530 596,529 597,528 598,527 599,526 600,525 601,524 602,523 602,521 603,520 604,519 605,518 606,517 607,516 608,515 609,514 610,512 611,511 611,510 612,509 613,508 614,507 615,506 616,505 617,504 618,503 619,501 619,500 620,499 621,498 622,497 623,496 624,495 625,494 626,493 627,492 628,491 628,489 629,488 630,487 631,486 632,485 633,484 634,483 635,482 636,481 636,480 637,479 638,478 639,477 640,475 641,474 642,473 643,472 644,471 645,470 645,469 646,468 647,467 648,466 649,464 650,463 651,462 652,461 653,460 653,459 654,458 655,456 656,455 657,454 658,453 659,452 660,451 661,450 662,449 662,448 663,447 664,446 665,445 666,443 667,442 668,441 669,440 670,439 670,438 671,437 672,436 673,435 674,434 675,432 676,431 677,430 678,429 679,428 679,427 680,426 681,425 682,424 683,422 684,421 685,420 686,419 687,418 687,417 688,416 689,415 690,414 691,412 692,411 693,410 694,409 695,408 696,407 696,406 697,405 698,404 699,403 700,402 701,401 702,400 703,398 704,397 704,396 705,395 706,394 707,393 708,392 709,391 710,390 711,389 712,388 713,387 713,386 714,384 715,383 716,382 717,381 718,380 719,379 720,378 721,377 721,376 722,375 723,374 724,373 725,371 726,370 727,369 728,368 729,367 730,366 730,365 731,364 732,363 733,362 734,361 735,359 736,358 737,357 738,356 738,355 739,354 740,353 741,352 742,351 743,350 744,349 745,348 746,346 747,345 747,344 748,343 749,342 750,341 751,339 752,338 753,337 754,336 755,335 755,334 756,333 757,332 758,331 759,330 760,329 761,328 762,326 763,325 764,324 764,323 765,322 766,321 767,320 768,319 769,318 770,317 771,316 772,315 773,313 773,312 774,311 775,310 776,309 777,308 778,307 779,306 780,305 781,304 781,303 782,302 783,301 784,300 785,298 786,297 787,296 788,295 789,294 790,293 790,292 791,291 792,290 793,289 794,288 795,287 796,286 797,285 798,284 798,283 799,281 800,280 801,279 802,278 803,277 804,276 805,275 806,274 807,273 807,272 808,271 809,269 810,268 811,267 812,266 813,265 814,264 815,263 815,262 816,260 817,259 818,258 819,257 820,256 821,255 822,254 823,253 824,252 824,251 825,249 826,248 827,247 828,246 829,245 830,244 831,243 832,242 832,241 833,239 834,238 835,237 836,236 837,235 838,234 839,233 840,232 841,231 841,230 842,229 843,227 844,226 845,225 846,224 847,223 848,222 849,221 849,220 850,219 851,218 852,217 853,215 854,214 855,213 856,212 857,211 858,210 858,209 859,208 860,207 861,205 862,204 863,203 864,202 865,201 866,200 866,199 867,198 868,197 869,196 870,195 871,193 872,192 873,191 874,190 875,189 875,188 876,187 877,186 878,185 879,184 880,182 881,181 882,180 883,179 883,178 884,177 885,176 886,175 887,174 888,173 889,172 890,171 891,170 892,169 892,168 893,166 894,165 895,164 896,163 897,162 898,161 899,160 900,158 900,157 901,156 902,155 903,154 904,153 905,152 906,150 907,149 908,148 909,147 909,146 910,145 911,144 912,143 913,141 914,140 915,139 916,138 917,137 917,136 918,135 919,134 920,132 921,131 922,130 923,129 924,128 925,127 926,126 926,125 927,123 928,122 929,121 930,120 931,119 932,118 933,117 934,116 934,115 935,114 936,113 937,112 938,111 939,109 940,108 941,107 942,106 943,105 943,104 944,103 945,102 946,100 947,99 948,98 949,97 950,96 951,95 951,94 952,93 953,92 954,90 955,89 956,88 957,87 958,86 959,85 960,84 960,82 961,81 962,80 963,79 964,78 965,77 966,76 967,75 968,74 968,72 969,71 970,70 971,69 972,69 972,69 973,69 973,699 78,699 "/>
<polyline fill="none" opacity="1" stroke="#E6194B" stroke-width="1" points="78,699 79,699 80,699 81,699 82,699 82,699 83,699 84,699 85,699 86,699 87,699 88,699 89,699 90,699 91,699 91,699 92,699 93,699 94,699 95,699 96,699 97,699 98,699 99,699 99,699 100,699 101,699 102,699 103,699 104,699 105,699 106,699 107,699 108,699 108,699 109,699 110,699 111,699 112,699 113,699 114,699 115,699 116,699 116,699 117,699 118,699 119,699 120,699 121,699 122,699 123,699 124,699 125,699 125,699 126,699 127,699 128,699 129,699 130,699 131,699 132,699 133,699 134,698 134,698 135,698 136,698 137,698 138,698 139,698 140,698 141,698 142,698 142,698 143,698 144,698 145,698 146,698 147,698 148,698 149,698 150,698 151,698 151,698 152,698 153,698 154,698 155,698 156,698 157,698 158,698 159,698 159,698 160,698 161,698 162,698 163,698 164,698 165,698 166,698 167,698 168,698 168,698 169,698 170,698 171,698 172,698 173,698 174,698 175,698 176,698 176,698 177,698 178,698 179,698 180,698 181,698 182,698 183,698 184,698 185,698 185,698 186,698 187,698 188,698 189,698 190,698 191,698 192,698 193,698 193,698 194,698 195,698 196,698 197,698 198,698 199,698 200,698 201,698 202,698 202,698 203,698 204,698 205,698 206,698 207,698 208,698 209,698 210,698 210,698 211,698 212,698 213,698 214,698 215,698 216,698 217,698 218,698 219,698 219,698 220,698 221,698 222,698 223,698 224,698 225,698 226,698 227,698 227,698 228,698 229,698 230,698 231,698 232,698 233,698 234,698 235,698 236,698 236,698 237,698 238,698 239,698 240,698 241,698 242,698 243,698 244,698 244,698 245,698 246,698 247,698 248,698 249,698 250,698 251,698 252,698 253,698 253,698 254,698 255,698 256,698 257,698 258,698 259,698 260,698 261,698 261,698 262,698 263,698 264,698 265,698 266,698 267,698 268,698 269,698 270,698 270,698 271,698 272,698 273,698 274,698 275,698 276,698 277,698 278,698 278,698 279,698 280,698 281,698 282,698 283,698 284,698 285,698 286,698 287,698 287,698 288,698 289,698 290,698 291,698 292,698 293,698 294,698 295,698 295,698 296,698 297,698 298,698 299,698 300,698 301,698 302,698 303,698 304,698 304,698 305,698 306,698 307,698 308,698 309,698 310,698 311,698 312,698 312,698 313,698 314,698 315,698 316,698 317,698 318,698 319,698 320,698 321,698 321,698 322,698 323,698 324,698 325,698 326,698 327,698 328,698 329,698 329,698 330,698 331,698 332,698 333,698 334,698 335,698 336,698 337,698 338,698 338,698 339,698 340,698 341,698 342,698 343,698 344,698 345,698 346,698 347,698 347,698 348,698 349,698 350,698 351,698 352,698 353,698 354,698 355,698 355,698 356,698 357,698 358,698 359,698 360,698 361,698 362,698 363,698 364,698 364,698 365,698 366,698 367,698 368,698 369,698 370,698 371,698 372,698 372,698 373,698 374,698 375,698 376,698 377,698 378,698 379,698 380,698 381,698 381,698 382,698 383,698 384,698 385,698 386,698 387,698 388,698 389,698 389,698 390,698 391,698 392,698 393,698 394,698 395,698 396,698 397,698 398,698 398,698 399,698 400,698 401,698 402,698 403,698 404,698 405,698 406,698 406,698 407,698 408,698 409,698 410,698 411,698 412,698 413,698 414,698 415,698 415,698 416,698 417,698 418,698 419,698 420,698 421,698 422,698 423,698 423,698 424,698 425,698 426,698 427,698 428,698 429,698 430,698 431,698 432,698 432,698 433,698 434,698 435,698 436,698 437,698 438,698 439,698 440,698 440,698 441,698 442,698 443,698 444,698 445,698 446,698 447,698 448,698 449,698 449,698 450,698 451,698 452,698 453,698 454,698 455,698 456,698 457,698 457,696 458,695 459,694 460,693 461,692 462,691 463,690 464,689 465,688 466,687 466,686 467,684 468,683 469,682 470,681 471,680 472,679 473,678 474,677 474,676 475,675 476,674 477,673 478,671 479,670 480,669 481,668 482,667 483,666 483,665 484,664 485,663 486,662 487,661 488,660 489,658 490,657 491,656 491,655 492,654 493,653 494,652 495,651 496,650 497,649 498,647 499,646 500,645 500,644 501,643 502,642 503,641 504,640 505,639 506,638 507,637 508,636 508,635 509,633 510,632 511,631 512,630 513,629 514,628 515,627 516,626 517,625 517,624 518,622 519,621 520,620 521,619 522,618 523,617 524,616 525,615 525,614 526,613 527,612 528,611 529,609 530,608 531,607 532,606 533,605 534,604 534,603 535,602 536,601 537,599 538,598 539,597 540,596 541,595 542,594 542,593 543,592 544,591 545,590 546,588 547,587 548,586 549,585 550,584 551,583 551,582 552,581 553,580 554,579 555,578 556,577 557,576 558,575 559,574 560,573 560,572 561,571 562,570 563,568 564,567 565,566 566,565 567,564 568,563 568,562 569,561 570,560 571,559 572,558 573,557 574,556 575,555 576,554 577,553 577,551 578,551 579,549 580,548 581,547 582,546 583,545 584,544 585,543 585,542 586,541 587,540 588,539 589,538 590,537 591,536 592,534 593,533 594,532 594,531 595,530 596,529 597,528 598,527 599,526 600,525 601,524 602,523 602,521 603,520 604,519 605,518 606,517 607,516 608,515 609,514 610,512 611,511 611,510 612,509 613,508 614,507 615,506 616,505 617,504 618,503 619,501 619,500 620,499 621,498 622,497 623,496 624,495 625,494 626,493 627,492 628,491 628,489 629,488 630,487 631,486 632,485 633,484 634,483 635,482 636,481 636,480 637,479 638,478 639,477 640,475 641,474 642,473 643,472 644,471 645,470 645,469 646,468 647,467 648,466 649,464 650,463 651,462 652,461 653,460 653,459 654,458 655,456 656,455 657,454 658,453 659,452 660,451 661,450 662,449 662,448 663,447 664,446 665,445 666,443 667,442 668,441 669,440 670,439 670,438 671,437 672,436 673,435 674,434 675,432 676,431 677,430 678,429 679,428 679,427 680,426 681,425 682,424 683,422 684,421 685,420 686,419 687,418 687,417 688,416 689,415 690,414 691,412 692,411 693,410 694,409 695,408 696,407 696,406 697,405 698,404 699,403 700,402 701,401 702,400 703,398 704,397 704,396 705,395 706,394 707,393 708,392 709,391 710,390 711,389 712,388 713,387 713,386 714,384 715,383 716,382 717,381 718,380 719,379 720,378 721,377 721,376 722,375 723,374 724,373 725,371 726,370 727,369 728,368 729,367 730,366 730,365 731,364 732,363 733,362 734,361 735,359 736,358 737,357 738,356 738,355 739,354 740,353 741,352 742,351 743,350 744,349 745,348 746,346 747,345 747,344 748,343 749,342 750,341 751,339 752,338 753,337 754,336 755,335 755,334 756,333 757,332 758,331 759,330 760,329 761,328 762,326 763,325 764,324 764,323 765,322 766,321 767,320 768,319 769,318 770,317 771,316 772,315 773,313 773,312 774,311 775,310 776,309 777,308 778,307 779,306 780,305 781,304 781,303 782,302 783,301 784,300 785,298 786,297 787,296 788,295 789,294 790,293 790,292 791,291 792,290 793,289 794,288 795,287 796,286 797,285 798,284 798,283 799,281 800,280 801,279 802,278 803,277 804,276 805,275 806,274 807,273 807,272 808,271 809,269 810,268 811,267 812,266 813,265 814,264 815,263 815,262 816,260 817,259 818,258 819,257 820,256 821,255 822,254 823,253 824,252 824,251 825,249 826,248 827,247 828,246 829,245 830,244 831,243 832,242 832,241 833,239 834,238 835,237 836,236 837,235 838,234 839,233 840,232 841,231 841,230 842,229 843,227 844,226 845,225 846,224 847,223 848,222 849,221 849,220 850,219 851,218 852,217 853,215 854,214 855,213 856,212 857,211 858,210 858,209 859,208 860,207 861,205 862,204 863,203 864,202 865,201 866,200 866,199 867,198 868,197 869,196 870,195 871,193 872,192 873,191 874,190 875,189 875,188 876,187 877,186 878,185 879,184 880,182 881,181 882,180 883,179 883,178 884,177 885,176 886,175 887,174 888,173 889,172 890,171 891,170 892,169 892,168 893,166 894,165 895,164 896,163 897,162 898,161 899,160 900,158 900,157 901,156 902,155 903,154 904,153 905,152 906,150 907,149 908,148 909,147 909,146 910,145 911,144 912,143 913,141 914,140 915,139 916,138 917,137 917,136 918,135 919,134 920,132 921,131 922,130 923,129 924,128 925,127 926,126 926,125 927,123 928,122 929,121 930,120 931,119 932,118 933,117 934,116 934,115 935,114 936,113 937,112 938,111 939,109 940,108 941,107 942,106 943,105 943,104 944,103 945,102 946,100 947,99 948,98 949,97 950,96 951,95 951,94 952,93 953,92 954,90 955,89 956,88 957,87 958,86 959,85 960,84 960,82 961,81 962,80 963,79 964,78 965,77 966,76 967,75 968,74 968,72 969,71 970,70 971,69 972,69 972,69 973,69 "/>
<line opacity="0.1" stroke="#000000" stroke-width="1" x1="84" y1="699" x2="84" y2="68"/>
<line opacity="0.1" stroke="#000000" stroke-width="1" x1="95" y1="699" x2="95" y2="68"/>
<line opacity="0.1" stroke="#000000" stroke-width="1" x1="106" y1="699" x2="106" y2="68"/>
<line opacity="0.1" stroke="#000000" stroke-width="1" x1="118" y1="699" x2="118" y2="68"/>
<line opacity="0.1" stroke="#000000" stroke-width="1" x1="129" y1="699" x2="129" y2="68"/>
<line opacity="0.1" stroke="#000000" stroke-width="1" x1="140" y1="699" x2="140" y2="68"/>
<line opacity="0.1" stroke="#000000" stroke-width="1" x1="151" y1="699" x2="151" y2="68"/>
<line opacity="0.1" stroke="#000000" stroke-width="1" x1="162" y1="699" x2="162" y2="68"/>
<line opacity="0.1" stroke="#000000" stroke-width="1" x1="174" y1="699" x2="174" y2="68"/>
<line opacity="0.1" stroke="#000000" stroke-width="1" x1="185" y1="699" x2="185" y2="68"/>
<line opacity="0.1" stroke="#000000" stroke-width="1" x1="196" y1="699" x2="196" y2="68"/>
<line opacity="0.1" stroke="#000000" stroke-width="1" x1="207" y1="699" x2="207" y2="68"/>
<line opacity="0.1" stroke="#000000" stroke-width="1" x1="218" y1="699" x2="218" y2="68"/>
<line opacity="0.1" stroke="#000000" stroke-width="1" x1="229" y1="699" x2="229" y2="68"/>
<line opacity="0.1" stroke="#000000" stroke-width="1" x1="241" y1="699" x2="241" y2="68"/>
<line opacity="0.1" stroke="#000000" stroke-width="1" x1="252" y1="699" x2="252" y2="68"/>
<line opacity="0.1" stroke="#000000" stroke-width="1" x1="263" y1="699" x2="263" y2="68"/>
<line opacity="0.1" stroke="#000000" stroke-width="1" x1="274" y1="699" x2="274" y2="68"/>
<line opacity="0.1" stroke="#000000" stroke-width="1" x1="285" y1="699" x2="285" y2="68"/>
<line opacity="0.1" stroke="#000000" stroke-width="1" x1="297" y1="699" x2="297" y2="68"/>
<line opacity="0.1" stroke="#000000" stroke-width="1" x1="308" y1="699" x2="308" y2="68"/>
<line opacity="0.1" stroke="#000000" stroke-width="1" x1="319" y1="699" x2="319" y2="68"/>
<line opacity="0.1" stroke="#000000" stroke-width="1" x1="330" y1="699" x2="330" y2="68"/>
<line opacity="0.1" stroke="#000000" stroke-width="1" x1="341" y1="699" x2="341" y2="68"/>
<line opacity="0.1" stroke="#000000" stroke-width="1" x1="352" y1="699" x2="352" y2="68"/>
<line opacity="0.1" stroke="#000000" stroke-width="1" x1="364" y1="699" x2="364" y2="68"/>
<line opacity="0.1" stroke="#000000" stroke-width="1" x1="375" y1="699" x2="375" y2="68"/>
<line opacity="0.1" stroke="#000000" stroke-width="1" x1="386" y1="699" x2="386" y2="68"/>
<line opacity="0.1" stroke="#000000" stroke-width="1" x1="397" y1="699" x2="397" y2="68"/>
<line opacity="0.1" stroke="#000000" stroke-width="1" x1="408" y1="699" x2="408" y2="68"/>
<line opacity="0.1" stroke="#000000" stroke-width="1" x1="420" y1="699" x2="420" y2="68"/>
<line opacity="0.1" stroke="#000000" stroke-width="1" x1="431" y1="699" x2="431" y2="68"/>
<line opacity="0.1" stroke="#000000" stroke-width="1" x1="442" y1="699" x2="442" y2="68"/>
<line opacity="0.1" stroke="#000000" stroke-width="1" x1="453" y1="699" x2="453" y2="68"/>
<line opacity="0.1" stroke="#000000" stroke-width="1" x1="464" y1="699" x2="464" y2="68"/>
<line opacity="0.1" stroke="#000000" stroke-width="1" x1="476" y1="699" x2="476" y2="68"/>
<line opacity="0.1" stroke="#000000" stroke-width="1" x1="487" y1="699" x2="487" y2="68"/>
<line opacity="0.1" stroke="#000000" stroke-width="1" x1="498" y1="699" x2="498" y2="68"/>
<line opacity="0.1" stroke="#000000" stroke-width="1" x1="509" y1="699" x2="509" y2="68"/>
<line opacity="0.1" stroke="#000000" stroke-width="1" x1="520" y1="699" x2="520" y2="68"/>
<line opacity="0.1" stroke="#000000" stroke-width="1" x1="531" y1="699" x2="531" y2="68"/>
<line opacity="0.1" stroke="#000000" stroke-width="1" x1="543" y1="699" x2="543" y2="68"/>
<line opacity="0.1" stroke="#000000" stroke-width="1" x1="554" y1="699" x2="554" y2="68"/>
<line opacity="0.1" stroke="#000000" stroke-width="1" x1="565" y1="699" x2="565" y2="68"/>
<line opacity="0.1" stroke="#000000" stroke-width="1" x1="576" y1="699" x2="576" y2="68"/>
<line opacity="0.1" stroke="#000000" stroke-width="1" x1="587" y1="699" x2="587" y2="68"/>
<line opacity="0.1" stroke="#000000" stroke-width="1" x1="599" y1="699" x2="599" y2="68"/>
<line opacity="0.1" stroke="#000000" stroke-width="1" x1="610" y1="699" x2="610" y2="68"/>
<line opacity="0.1" stroke="#000000" stroke-width="1" x1="621" y1="699" x2="621" y2="68"/>
<line opacity="0.1" stroke="#000000" stroke-width="1" x1="632" y1="699" x2="632" y2="68"/>
<line opacity="0.1" stroke="#000000" stroke-width="1" x1="643" y1="699" x2="643" y2="68"/>
<line opacity="0.1" stroke="#000000" stroke-width="1" x1="654" y1="699" x2="654" y2="68"/>
<line opacity="0.1" stroke="#000000" stroke-width="1" x1="666" y1="699" x2="666" y2="68"/>
<line opacity="0.1" stroke="#000000" stroke-width="1" x1="677" y1="699" x2="677" y2="68"/>
<line opacity="0.1" stroke="#000000" stroke-width="1" x1="688" y1="699" x2="688" y2="68"/>
<line opacity="0.1" stroke="#000000" stroke-width="1" x1="699" y1="699" x2="699" y2="68"/>
<line opacity="0.1" stroke="#000000" stroke-width="1" x1="710" y1="699" x2="710" y2="68"/>
<line opacity="0.1" stroke="#000000" stroke-width="1" x1="722" y1="699" x2="722" y2="68"/>
<line opacity="0.1" stroke="#000000" stroke-width="1" x1="733" y1="699" x2="733" y2="68"/>
<line opacity="0.1" stroke="#000000" stroke-width="1" x1="744" y1="699" x2="744" y2="68"/>
<line opacity="0.1" stroke="#000000" stroke-width="1" x1="755" y1="699" x2="755" y2="68"/>
<line opacity="0.1" stroke="#000000" stroke-width="1" x1="766" y1="699" x2="766" y2="68"/>
<line opacity="0.1" stroke="#000000" stroke-width="1" x1="777" y1="699" x2="777" y2="68"/>
<line opacity="0.1" stroke="#000000" stroke-width="1" x1="789" y1="699" x2="789" y2="68"/>
<line opacity="0.1" stroke="#000000" stroke-width="1" x1="800" y1="699" x2="800" y2="68"/>
<line opacity="0.1" stroke="#000000" stroke-width="1" x1="811" y1="699" x2="811" y2="68"/>
<line opacity="0.1" stroke="#000000" stroke-width="1" x1="822" y1="699" x2="822" y2="68"/>
<line opacity="0.1" stroke="#000000" stroke-width="1" x1="833" y1="699" x2="833" y2="68"/>
<line opacity="0.1" stroke="#000000" stroke-width="1" x1="845" y1="699" x2="845" y2="68"/>
<line opacity="0.1" stroke="#000000" stroke-width="1" x1="856" y1="699" x2="856" y2="68"/>
<line opacity="0.1" stroke="#000000" stroke-width="1" x1="867" y1="699" x2="867" y2="68"/>
<line opacity="0.1" stroke="#000000" stroke-width="1" x1="878" y1="699" x2="878" y2="68"/>
<line opacity="0.1" stroke="#000000" stroke-width="1" x1="889" y1="699" x2="889" y2="68"/>
<line opacity="0.1" stroke="#000000" stroke-width="1" x1="900" y1="699" x2="900" y2="68"/>
<line opacity="0.1" stroke="#000000" stroke-width="1" x1="912" y1="699" x2="912" y2="68"/>
<line opacity="0.1" stroke="#000000" stroke-width="1" x1="923" y1="699" x2="923" y2="68"/>
<line opacity="0.1" stroke="#000000" stroke-width="1" x1="934" y1="699" x2="934" y2="68"/>
<line opacity="0.1" stroke="#000000" stroke-width="1" x1="945" y1="699" x2="945" y2="68"/>
<line opacity="0.1" stroke="#000000" stroke-width="1" x1="956" y1="699" x2="956" y2="68"/>
<line opacity="0.1" stroke="#000000" stroke-width="1" x1="968" y1="699" x2="968" y2="68"/>
<line opacity="0.1" stroke="#000000" stroke-width="1" x1="78" y1="699" x2="973" y2="699"/>
<line opacity="0.1" stroke="#000000" stroke-width="1" x1="78" y1="690" x2="973" y2="690"/>
<line opacity="0.1" stroke="#000000" stroke-width="1" x1="78" y1="681" x2="973" y2="681"/>
<line opacity="0.1" stroke="#000000" stroke-width="1" x1="78" y1="672" x2="973" y2="672"/>
<line opacity="0.1" stroke="#000000" stroke-width="1" x1="78" y1="663" x2="973" y2="663"/>
<line opacity="0.1" stroke="#000000" stroke-width="1" x1="78" y1="654" x2="973" y2="654"/>
<line opacity="0.1" stroke="#000000" stroke-width="1" x1="78" y1="645" x2="973" y2="645"/>
<line opacity="0.1" stroke="#000000" stroke-width="1" x1="78" y1="636" x2="973" y2="636"/>
<line opacity="0.1" stroke="#000000" stroke-width="1" x1="78" y1="627" x2="973" y2="627"/>
<line opacity="0.1" stroke="#000000" stroke-width="1" x1="78" y1="619" x2="973" y2="619"/>
<line opacity="0.1" stroke="#000000" stroke-width="1" x1="78" y1="610" x2="973" y2="610"/>
<line opacity="0.1" stroke="#000000" stroke-width="1" x1="78" y1="601" x2="973" y2="601"/>
<line opacity="0.1" stroke="#000000" stroke-width="1" x1="78" y1="592" x2="973" y2="592"/>
<line opacity="0.1" stroke="#000000" stroke-width="1" x1="78" y1="583" x2="973" y2="583"/>
<line opacity="0.1" stroke="#000000" stroke-width="1" x1="78" y1="574" x2="973" y2="574"/>
<line opacity="0.1" stroke="#000000" stroke-width="1" x1="78" y1="565" x2="973" y2="565"/>
<line opacity="0.1" stroke="#000000" stroke-width="1" x1="78" y1="556" x2="973" y2="556"/>
<line opacity="0.1" stroke="#000000" stroke-width="1" x1="78" y1="548" x2="973" y2="548"/>
<line opacity="0.1" stroke="#000000" stroke-width="1" x1="78" y1="539" x2="973" y2="539"/>
<line opacity="0.1" stroke="#000000" stroke-width="1" x1="78" y1="530" x2="973" y2="530"/>
<line opacity="0.1" stroke="#000000" stroke-width="1" x1="78" y1="521" x2="973" y2="521"/>
<line opacity="0.1" stroke="#000000" stroke-width="1" x1="78" y1="512" x2="973" y2="512"/>
<line opacity="0.1" stroke="#000000" stroke-width="1" x1="78" y1="503" x2="973" y2="503"/>
<line opacity="0.1" stroke="#000000" stroke-width="1" x1="78" y1="494" x2="973" y2="494"/>
<line opacity="0.1" stroke="#000000" stroke-width="1" x1="78" y1="485" x2="973" y2="485"/>
<line opacity="0.1" stroke="#000000" stroke-width="1" x1="78" y1="476" x2="973" y2="476"/>
<line opacity="0.1" stroke="#000000" stroke-width="1" x1="78" y1="468" x2="973" y2="468"/>
<line opacity="0.1" stroke="#000000" stroke-width="1" x1="78" y1="459" x2="973" y2="459"/>
<line opacity="0.1" stroke="#000000" stroke-width="1" x1="78" y1="450" x2="973" y2="450"/>
<line opacity="0.1" stroke="#000000" stroke-width="1" x1="78" y1="441" x2="973" y2="441"/>
<line opacity="0.1" stroke="#000000" stroke-width="1" x1="78" y1="432" x2="973" y2="432"/>
<line opacity="0.1" stroke="#000000" stroke-width="1" x1="78" y1="423" x2="973" y2="423"/>
<line opacity="0.1" stroke="#000000" stroke-width="1" x1="78" y1="414" x2="973" y2="414"/>
<line opacity="0.1" stroke="#000000" stroke-width="1" x1="78" y1="405" x2="973" y2="405"/>
<line opacity="0.1" stroke="#000000" stroke-width="1" x1="78" y1="397" x2="973" y2="397"/>
<line opacity="0.1" stroke="#000000" stroke-width="1" x1="78" y1="388" x2="973" y2="388"/>
<line opacity="0.1" stroke="#000000" stroke-width="1" x1="78" y1="379" x2="973" y2="379"/>
<line opacity="0.1" stroke="#000000" stroke-width="1" x1="78" y1="370" x2="973" y2="370"/>
<line opacity="0.1" stroke="#000000" stroke-width="1" x1="78" y1="361" x2="973" y2="361"/>
<line opacity="0.1" stroke="#000000" stroke-width="1" x1="78" y1="352" x2="973" y2="352"/>
<line opacity="0.1" stroke="#000000" stroke-width="1" x1="78" y1="343" x2="973" y2="343"/>
<line opacity="0.1" stroke="#000000" stroke-width="1" x1="78" y1="334" x2="973" y2="334"/>
<line opacity="0.1" stroke="#000000" stroke-width="1" x1="78" y1="325" x2="973" y2="325"/>
<line opacity="0.1" stroke="#000000" stroke-width="1" x1="78" y1="317" x2="973" y2="317"/>
<line opacity="0.1" stroke="#000000" stroke-width="1" x1="78" y1="308" x2="973" y2="308"/>
<line opacity="0.1" stroke="#000000" stroke-width="1" x1="78" y1="299" x2="973" y2="299"/>
<line opacity="0.1" stroke="#000000" stroke-width="1" x1="78" y1="290" x2="973" y2="290"/>
<line opacity="0.1" stroke="#000000" stroke-width="1" x1="78" y1="281" x2="973" y2="281"/>
<line opacity="0.1" stroke="#000000" stroke-width="1" x1="78" y1="272" x2="973" y2="272"/>
<line opacity="0.1" stroke="#000000" stroke-width="1" x1="78" y1="263" x2="973" y2="263"/>
<line opacity="0.1" stroke="#000000" stroke-width="1" x1="78" y1="254" x2="973" y2="254"/>
<line opacity="0.1" stroke="#000000" stroke-width="1" x1="78" y1="246" x2="973" y2="246"/>
<line opacity="0.1" stroke="#000000" stroke-width="1" x1="78" y1="237" x2="973" y2="237"/>
<line opacity="0.1" stroke="#000000" stroke-width="1" x1="78" y1="228" x2="973" y2="228"/>
<line opacity="0.1" stroke="#000000" stroke-width="1" x1="78" y1="219" x2="973" y2="219"/>
<line opacity="0.1" stroke="#000000" stroke-width="1" x1="78" y1="210" x2="973" y2="210"/>
<line opacity="0.1" stroke="#000000" stroke-width="1" x1="78" y1="201" x2="973" y2="201"/>
<line opacity="0.1" stroke="#000000" stroke-width="1" x1="78" y1="192" x2="973" y2="192"/>
<line opacity="0.1" stroke="#000000" stroke-width="1" x1="78" y1="183" x2="973" y2="183"/>
<line opacity="0.1" stroke="#000000" stroke-width="1" x1="78" y1="175" x2="973" y2="175"/>
<line opacity="0.1" stroke="#000000" stroke-width="1" x1="78" y1="166" x2="973" y2="166"/>
<line opacity="0.1" stroke="#000000" stroke-width="1" x1="78" y1="157" x2="973" y2="157"/>
<line opacity="0.1" stroke="#000000" stroke-width="1" x1="78" y1="148" x2="973" y2="148"/>
<line opacity="0.1" stroke="#000000" stroke-width="1" x1="78" y1="139" x2="973" y2="139"/>
<line opacity="0.1" stroke="#000000" stroke-width="1" x1="78" y1="130" x2="973" y2="130"/>
<line opacity="0.1" stroke="#000000" stroke-width="1" x1="78" y1="121" x2="973" y2="121"/>
<line opacity="0.1" stroke="#000000" stroke-width="1" x1="78" y1="112" x2="973" y2="112"/>
<line opacity="0.1" stroke="#000000" stroke-width="1" x1="78" y1="103" x2="973" y2="103"/>
<line opacity="0.1" stroke="#000000" stroke-width="1" x1="78" y1="95" x2="973" y2="95"/>
<line opacity="0.1" stroke="#000000" stroke-width="1" x1="78" y1="86" x2="973" y2="86"/>
<line opacity="0.1" stroke="#000000" stroke-width="1" x1="78" y1="77" x2="973" y2="77"/>
<line opacity="0.1" stroke="#000000" stroke-width="1" x1="78" y1="68" x2="973" y2="68"/>
<text x="8" y="384" dy="0.76em" text-anchor="middle" font-family="sans-serif" font-size="9.67741935483871" opacity="1" fill="#000000" transform="rotate(270, 8, 384)">
Memory usage
</text>
<text x="526" y="760" dy="-0.5ex" text-anchor="middle" font-family="sans-serif" font-size="9.67741935483871" opacity="1" fill="#000000">
Time
</text>
<line opacity="0.2" stroke="#000000" stroke-width="1" x1="106" y1="699" x2="106" y2="68"/>
<line opacity="0.2" stroke="#000000" stroke-width="1" x1="218" y1="699" x2="218" y2="68"/>
<line opacity="0.2" stroke="#000000" stroke-width="1" x1="330" y1="699" x2="330" y2="68"/>
<line opacity="0.2" stroke="#000000" stroke-width="1" x1="442" y1="699" x2="442" y2="68"/>
<line opacity="0.2" stroke="#000000" stroke-width="1" x1="554" y1="699" x2="554" y2="68"/>
<line opacity="0.2" stroke="#000000" stroke-width="1" x1="666" y1="699" x2="666" y2="68"/>
<line opacity="0.2" stroke="#000000" stroke-width="1" x1="777" y1="699" x2="777" y2="68"/>
<line opacity="0.2" stroke="#000000" stroke-width="1" x1="889" y1="699" x2="889" y2="68"/>
<line opacity="0.2" stroke="#000000" stroke-width="1" x1="78" y1="699" x2="973" y2="699"/>
<line opacity="0.2" stroke="#000000" stroke-width="1" x1="78" y1="610" x2="973" y2="610"/>
<line opacity="0.2" stroke="#000000" stroke-width="1" x1="78" y1="521" x2="973" y2="521"/>
<line opacity="0.2" stroke="#000000" stroke-width="1" x1="78" y1="432" x2="973" y2="432"/>
<line opacity="0.2" stroke="#000000" stroke-width="1" x1="78" y1="343" x2="973" y2="343"/>
<line opacity="0.2" stroke="#000000" stroke-width="1" x1="78" y1="254" x2="973" y2="254"/>
<line opacity="0.2" stroke="#000000" stroke-width="1" x1="78" y1="166" x2="973" y2="166"/>
<line opacity="0.2" stroke="#000000" stroke-width="1" x1="78" y1="77" x2="973" y2="77"/>
<polyline fill="none" opacity="1" stroke="#000000" stroke-width="1" points="77,68 77,699 "/>
<text x="68" y="699" dy="0.5ex" text-anchor="end" font-family="sans-serif" font-size="9.67741935483871" opacity="1" fill="#000000">
0 MB
</text>
<polyline fill="none" opacity="1" stroke="#000000" stroke-width="1" points="72,699 77,699 "/>
<text x="68" y="610" dy="0.5ex" text-anchor="end" font-family="sans-serif" font-size="9.67741935483871" opacity="1" fill="#000000">
47 MB
</text>
<polyline fill="none" opacity="1" stroke="#000000" stroke-width="1" points="72,610 77,610 "/>
<text x="68" y="521" dy="0.5ex" text-anchor="end" font-family="sans-serif" font-size="9.67741935483871" opacity="1" fill="#000000">
95 MB
</text>
<polyline fill="none" opacity="1" stroke="#000000" stroke-width="1" points="72,521 77,521 "/>
<text x="68" y="432" dy="0.5ex" text-anchor="end" font-family="sans-serif" font-size="9.67741935483871" opacity="1" fill="#000000">
143 MB
</text>
<polyline fill="none" opacity="1" stroke="#000000" stroke-width="1" points="72,432 77,432 "/>
<text x="68" y="343" dy="0.5ex" text-anchor="end" font-family="sans-serif" font-size="9.67741935483871" opacity="1" fill="#000000">
190 MB
</text>
<polyline fill="none" opacity="1" stroke="#000000" stroke-width="1" points="72,343 77,343 "/>
<text x="68" y="254" dy="0.5ex" text-anchor="end" font-family="sans-serif" font-size="9.67741935483871" opacity="1" fill="#000000">
238 MB
</text>
<polyline fill="none" opacity="1" stroke="#000000" stroke-width="1" points="72,254 77,254 "/>
<text x="68" y="166" dy="0.5ex" text-anchor="end" font-family="sans-serif" font-size="9.67741935483871" opacity="1" fill="#000000">
286 MB
</text>
<polyline fill="none" opacity="1" stroke="#000000" stroke-width="1" points="72,166 77,166 "/>
<text x="68" y="77" dy="0.5ex" text-anchor="end" font-family="sans-serif" font-size="9.67741935483871" opacity="1" fill="#000000">
333 MB
</text>
<polyline fill="none" opacity="1" stroke="#000000" stroke-width="1" points="72,77 77,77 "/>
<polyline fill="none" opacity="1" stroke="#000000" stroke-width="1" points="78,700 973,700 "/>
<text x="106" y="710" dy="0.76em" text-anchor="middle" font-family="sans-serif" font-size="9.67741935483871" opacity="1" fill="#000000">
07 20:33:20
</text>
<polyline fill="none" opacity="1" stroke="#000000" stroke-width="1" points="106,700 106,705 "/>
<text x="218" y="710" dy="0.76em" text-anchor="middle" font-family="sans-serif" font-size="9.67741935483871" opacity="1" fill="#000000">
08 10:26:40
</text>
<polyline fill="none" opacity="1" stroke="#000000" stroke-width="1" points="218,700 218,705 "/>
<text x="330" y="710" dy="0.76em" text-anchor="middle" font-family="sans-serif" font-size="9.67741935483871" opacity="1" fill="#000000">
09 00:20:00
</text>
<polyline fill="none" opacity="1" stroke="#000000" stroke-width="1" points="330,700 330,705 "/>
<text x="442" y="710" dy="0.76em" text-anchor="middle" font-family="sans-serif" font-size="9.67741935483871" opacity="1" fill="#000000">
09 14:13:20
</text>
<polyline fill="none" opacity="1" stroke="#000000" stroke-width="1" points="442,700 442,705 "/>
<text x="554" y="710" dy="0.76em" text-anchor="middle" font-family="sans-serif" font-size="9.67741935483871" opacity="1" fill="#000000">
10 04:06:40
</text>
<polyline fill="none" opacity="1" stroke="#000000" stroke-width="1" points="554,700 554,705 "/>
<text x="666" y="710" dy="0.76em" text-anchor="middle" font-family="sans-serif" font-size="9.67741935483871" opacity="1" fill="#000000">
10 18:00:00
</text>
<polyline fill="none" opacity="1" stroke="#000000" stroke-width="1" points="666,700 666,705 "/>
<text x="777" y="710" dy="0.76em" text-anchor="middle" font-family="sans-serif" font-size="9.67741935483871" opacity="1" fill="#000000">
11 07:53:20
</text>
<polyline fill="none" opacity="1" stroke="#000000" stroke-width="1" points="777,700 777,705 "/>
<text x="889" y="710" dy="0.76em" text-anchor="middle" font-family="sans-serif" font-size="9.67741935483871" opacity="1" fill="#000000">
11 21:46:40
</text>
<polyline fill="none" opacity="1" stroke="#000000" stroke-width="1" points="889,700 889,705 "/>
<polyline fill="none" opacity="1" stroke="#000000" stroke-width="1" points="78,67 974,67 "/>
<text x="106" y="58" dy="-0.5ex" text-anchor="middle" font-family="sans-serif" font-size="9.67741935483871" opacity="1" fill="#000000">
+03:35:44
</text>
<polyline fill="none" opacity="1" stroke="#000000" stroke-width="1" points="106,62 106,67 "/>
<text x="218" y="58" dy="-0.5ex" text-anchor="middle" font-family="sans-serif" font-size="9.67741935483871" opacity="1" fill="#000000">
+17:29:04
</text>
<polyline fill="none" opacity="1" stroke="#000000" stroke-width="1" points="218,62 218,67 "/>
<text x="330" y="58" dy="-0.5ex" text-anchor="middle" font-family="sans-serif" font-size="9.67741935483871" opacity="1" fill="#000000">
+31:22:24
</text>
<polyline fill="none" opacity="1" stroke="#000000" stroke-width="1" points="330,62 330,67 "/>
<text x="442" y="58" dy="-0.5ex" text-anchor="middle" font-family="sans-serif" font-size="9.67741935483871" opacity="1" fill="#000000">
+45:15:44
</text>
<polyline fill="none" opacity="1" stroke="#000000" stroke-width="1" points="442,62 442,67 "/>
<text x="554" y="58" dy="-0.5ex" text-anchor="middle" font-family="sans-serif" font-size="9.67741935483871" opacity="1" fill="#000000">
+59:09:04
</text>
<polyline fill="none" opacity="1" stroke="#000000" stroke-width="1" points="554,62 554,67 "/>
<text x="666" y="58" dy="-0.5ex" text-anchor="middle" font-family="sans-serif" font-size="9.67741935483871" opacity="1" fill="#000000">
+73:02:24
</text>
<polyline fill="none" opacity="1" stroke="#000000" stroke-width="1" points="666,62 666,67 "/>
<text x="778" y="58" dy="-0.5ex" text-anchor="middle" font-family="sans-serif" font-size="9.67741935483871" opacity="1" fill="#000000">
+86:55:44
</text>
<polyline fill="none" opacity="1" stroke="#000000" stroke-width="1" points="778,62 778,67 "/>
<text x="890" y="58" dy="-0.5ex" text-anchor="middle" font-family="sans-serif" font-size="9.67741935483871" opacity="1" fill="#000000">
+100:49:04
</text>
<polyline fill="none" opacity="1" stroke="#000000" stroke-width="1" points="890,62 890,67 "/>
<rect x="83" y="73" width="99" height="45" opacity="0.75" fill="#FFFFFF" stroke="none"/>
<rect x="83" y="73" width="99" height="45" opacity="1" fill="none" stroke="#000000"/>
<text x="123" y="83" dy="0.76em" text-anchor="start" font-family="sans-serif" font-size="9.67741935483871" opacity="1" fill="#000000">
Temporary
</text>
<text x="123" y="98" dy="0.76em" text-anchor="start" font-family="sans-serif" font-size="9.67741935483871" opacity="1" fill="#000000">
Leaked
</text>
<rect x="93" y="83" width="10" height="10" opacity="1" fill="#3CB44B" stroke="none"/>
<rect x="93" y="98" width="10" height="10" opacity="1" fill="#E6194B" stroke="none"/>
</svg>
