<svg width="1024" height="768" viewBox="0 0 1024 768" xmlns="http://www.w3.org/2000/svg">
<rect x="0" y="0" width="1024" height="768" opacity="1" fill="#FFFFFF" stroke="none"/>
<polygon opacity="1" fill="#3CB44B" points="78,697 79,696 80,695 80,694 81,693 82,691 83,690 84,689 85,688 86,687 87,686 88,684 88,683 89,682 90,681 91,680 92,678 93,677 94,676 95,675 96,674 97,673 97,672 98,671 99,669 100,668 101,667 102,666 103,665 104,664 105,662 105,661 106,660 107,659 108,658 109,657 110,655 111,654 112,653 113,652 114,651 114,650 115,648 116,647 117,646 118,645 119,644 120,642 121,641 122,640 122,639 123,638 124,636 125,635 126,634 127,633 128,632 129,631 130,629 131,628 131,627 132,626 133,625 134,624 135,622 136,621 137,620 138,619 139,618 139,617 140,615 141,614 142,613 143,612 144,611 145,609 146,608 147,607 148,606 148,605 149,604 150,602 151,601 152,600 153,599 154,598 155,597 156,595 156,594 157,593 158,592 159,591 160,590 161,588 162,587 163,586 164,585 165,584 165,582 166,581 167,580 168,579 169,578 170,576 171,575 172,574 173,573 174,572 174,571 175,569 176,568 177,567 178,566 179,565 180,564 181,562 182,561 182,560 183,559 184,558 185,557 186,555 187,554 188,553 189,552 190,551 191,550 191,549 192,547 193,546 194,545 195,544 196,543 197,542 198,540 199,539 199,538 200,537 201,536 202,535 203,533 204,532 205,531 206,530 207,529 208,528 208,526 209,525 210,524 211,523 212,522 213,521 214,520 215,519 216,517 216,516 217,515 218,514 219,513 220,512 221,511 222,510 223,509 224,507 225,506 225,505 226,504 227,503 228,502 229,501 230,500 231,498 232,497 233,496 233,495 234,494 235,493 236,492 237,490 238,489 239,488 240,487 241,486 242,485 242,483 243,482 244,481 245,480 246,479 247,478 248,477 249,475 250,474 250,473 251,472 252,471 253,470 254,469 255,467 256,466 257,465 258,464 259,463 259,462 260,461 261,459 262,458 263,457 264,456 265,455 266,454 267,452 267,451 268,450 269,449 270,448 271,447 272,446 273,444 274,443 275,442 276,441 276,440 277,439 278,438 279,437 280,435 281,434 282,433 283,432 284,431 284,430 285,429 286,427 287,426 288,425 289,424 290,423 291,422 292,420 293,419 293,418 294,417 295,416 296,415 297,413 298,412 299,411 300,410 301,409 301,408 302,406 303,405 304,404 305,403 306,402 307,401 308,400 309,398 310,397 310,396 311,395 312,394 313,393 314,392 315,390 316,389 317,388 318,387 318,386 319,385 320,384 321,383 322,382 323,380 324,379 325,378 326,377 327,376 327,375 328,374 329,372 330,371 331,370 332,369 333,368 334,367 335,365 335,364 336,363 337,362 338,361 339,360 340,359 341,358 342,356 343,355 344,354 344,353 345,352 346,351 347,349 348,348 349,347 350,346 351,345 352,344 352,342 353,341 354,340 355,339 356,338 357,337 358,335 359,334 360,333 361,332 361,331 362,330 363,329 364,328 365,326 366,325 367,324 368,323 369,322 370,321 370,320 371,318 372,317 373,316 374,315 375,314 376,313 377,311 378,310 378,309 379,308 380,307 381,306 382,304 383,303 384,302 385,301 386,300 387,299 387,298 388,296 389,295 390,294 391,293 392,292 393,291 394,289 395,288 395,287 396,286 397,285 398,283 399,282 400,281 401,280 402,279 403,278 404,276 404,275 405,274 406,273 407,272 408,271 409,270 410,268 411,267 412,266 412,265 413,264 414,263 415,262 416,260 417,259 418,258 419,257 420,256 421,255 421,254 422,253 423,252 424,250 425,249 426,248 427,247 428,246 429,244 429,243 430,242 431,241 432,240 433,239 434,237 435,236 436,235 437,234 438,233 438,231 439,230 440,229 441,228 442,227 443,226 444,225 445,223 446,222 446,221 447,220 448,219 449,218 450,216 451,215 452,214 453,213 454,212 455,211 455,209 456,208 457,207 458,206 459,205 460,204 461,203 462,201 463,200 463,199 464,198 465,197 466,195 467,194 468,193 469,192 470,191 471,190 472,189 472,187 473,186 474,185 475,184 476,183 477,182 478,181 479,179 480,178 480,177 481,176 482,175 483,174 484,172 485,171 486,170 487,169 488,168 489,167 489,166 490,164 491,163 492,162 493,161 494,160 495,159 496,157 497,156 497,155 498,154 499,153 500,152 501,151 502,149 503,148 504,147 505,146 506,145 506,144 507,142 508,141 509,140 510,139 511,138 512,137 513,136 514,134 514,133 515,132 516,131 517,130 518,129 519,127 520,126 521,125 522,124 523,123 523,122 524,120 525,119 526,118 527,117 528,116 529,115 530,114 531,112 531,111 532,110 533,109 534,108 535,107 536,106 537,105 538,104 539,102 540,101 540,100 541,99 542,98 543,97 544,96 545,95 546,93 547,92 548,91 548,90 549,89 550,88 551,87 552,86 553,84 554,83 555,82 556,81 557,80 557,79 558,78 559,76 560,75 561,74 562,73 563,72 564,71 565,70 566,68 566,68 567,68 568,68 569,68 570,68 571,68 572,68 573,68 574,68 574,68 575,68 576,68 577,68 578,68 579,68 580,68 581,68 582,68 583,68 583,68 584,68 585,68 586,68 587,68 588,68 589,68 590,68 591,68 591,68 592,68 593,68 594,68 595,68 596,68 597,68 598,68 599,68 600,68 600,68 601,68 602,68 603,68 604,68 605,68 606,68 607,68 608,68 608,68 609,68 610,68 611,68 612,68 613,68 614,68 615,68 616,68 617,68 617,68 618,68 619,68 620,68 621,68 622,68 623,68 624,68 625,68 625,68 626,68 627,68 628,68 629,68 630,68 631,68 632,68 633,68 634,68 634,68 635,68 636,68 637,68 638,68 639,68 640,68 641,68 642,68 642,68 643,68 644,68 645,68 646,68 647,68 648,68 649,68 650,68 651,68 651,68 652,68 653,68 654,68 655,68 656,68 657,68 658,68 659,68 659,68 660,68 661,68 662,68 663,68 664,68 665,68 666,68 667,68 668,68 668,68 669,68 670,68 671,68 672,68 673,68 674,68 675,68 676,68 676,68 677,68 678,68 679,68 680,68 681,68 682,68 683,68 684,68 685,68 685,68 686,68 687,68 688,68 689,68 690,68 691,68 692,68 693,68 693,68 694,68 695,68 696,68 697,68 698,68 699,68 700,68 701,68 702,68 702,68 703,68 704,68 705,68 706,68 707,68 708,68 709,68 710,68 710,68 711,68 712,68 713,68 714,68 715,68 716,68 717,68 718,68 719,68 719,68 720,68 721,68 722,68 723,68 724,68 725,68 726,68 727,68 727,68 728,68 729,68 730,68 731,68 732,68 733,68 734,68 735,68 736,68 736,68 737,68 738,68 739,68 740,68 741,68 742,68 743,68 744,68 744,68 745,68 746,68 747,68 748,68 749,68 750,68 751,68 752,68 753,68 753,68 754,68 755,68 756,68 757,68 758,68 759,68 760,68 761,68 761,68 762,68 763,68 764,68 765,68 766,68 767,68 768,68 769,68 770,68 770,68 771,68 772,68 773,68 774,68 775,68 776,68 777,68 778,68 779,68 779,68 780,68 781,68 782,68 783,68 784,68 785,68 786,68 787,68 787,69 788,68 789,68 790,69 791,68 792,68 793,69 794,69 795,69 796,69 796,69 797,69 798,69 799,69 800,69 801,69 802,69 803,69 804,69 804,69 805,69 806,69 807,69 808,69 809,69 810,69 811,69 812,69 813,69 813,69 814,69 815,69 816,69 817,69 818,69 819,69 820,69 821,69 821,69 822,69 823,69 824,69 825,69 826,69 827,69 828,69 829,69 830,69 830,69 831,69 832,69 833,69 834,69 835,69 836,69 837,69 838,69 838,69 839,69 840,69 841,69 842,69 843,69 844,69 845,69 846,69 847,69 847,69 848,69 849,69 850,69 851,69 852,69 853,69 854,69 855,69 855,69 856,69 857,69 858,69 859,69 860,69 861,69 862,69 863,69 864,69 864,69 865,69 866,70 867,70 868,70 869,70 870,70 871,70 872,70 872,70 873,70 874,70 875,70 876,70 877,70 878,70 879,70 880,70 881,70 881,70 882,70 883,70 884,70 885,70 886,70 887,70 888,70 889,70 889,70 890,70 891,70 892,70 893,70 894,70 895,70 896,70 897,70 898,70 898,70 899,70 900,70 901,70 902,70 903,70 904,70 905,70 906,70 906,70 907,70 908,70 909,70 910,70 911,70 912,70 913,70 914,70 915,70 915,70 916,70 917,70 918,70 919,70 920,70 921,70 922,70 923,70 923,70 924,70 925,70 926,70 927,70 928,70 929,70 930,70 931,70 932,70 932,70 933,70 934,70 935,70 936,70 937,70 938,70 939,70 940,70 940,70 941,70 942,70 943,70 944,70 945,70 946,70 947,70 948,70 949,70 949,70 950,70 951,70 952,70 953,71 954,71 955,70 956,70 957,70 957,70 958,70 959,70 960,71 961,70 962,70 963,71 964,71 965,71 966,71 966,70 967,71 968,71 969,71 970,71 971,71 972,71 972,72 973,72 973,699 78,699 "/>
<polyline fill="none" opacity="1" stroke="#3CB44B" stroke-width="1" points="78,697 79,696 80,695 80,694 81,693 82,691 83,690 84,689 85,688 86,687 87,686 88,684 88,683 89,682 90,681 91,680 92,678 93,677 94,676 95,675 96,674 97,673 97,672 98,671 99,669 100,668 101,667 102,666 103,665 104,664 105,662 105,661 106,660 107,659 108,658 109,657 110,655 111,654 112,653 113,652 114,651 114,650 115,648 116,647 117,646 118,645 119,644 120,642 121,641 122,640 122,639 123,638 124,636 125,635 126,634 127,633 128,632 129,631 130,629 131,628 131,627 132,626 133,625 134,624 135,622 136,621 137,620 138,619 139,618 139,617 140,615 141,614 142,613 143,612 144,611 145,609 146,608 147,607 148,606 148,605 149,604 150,602 151,601 152,600 153,599 154,598 155,597 156,595 156,594 157,593 158,592 159,591 160,590 161,588 162,587 163,586 164,585 165,584 165,582 166,581 167,580 168,579 169,578 170,576 171,575 172,574 173,573 174,572 174,571 175,569 176,568 177,567 178,566 179,565 180,564 181,562 182,561 182,560 183,559 184,558 185,557 186,555 187,554 188,553 189,552 190,551 191,550 191,549 192,547 193,546 194,545 195,544 196,543 197,542 198,540 199,539 199,538 200,537 201,536 202,535 203,533 204,532 205,531 206,530 207,529 208,528 208,526 209,525 210,524 211,523 212,522 213,521 214,520 215,519 216,517 216,516 217,515 218,514 219,513 220,512 221,511 222,510 223,509 224,507 225,506 225,505 226,504 227,503 228,502 229,501 230,500 231,498 232,497 233,496 233,495 234,494 235,493 236,492 237,490 238,489 239,488 240,487 241,486 242,485 242,483 243,482 244,481 245,480 246,479 247,478 248,477 249,475 250,474 250,473 251,472 252,471 253,470 254,469 255,467 256,466 257,465 258,464 259,463 259,462 260,461 261,459 262,458 263,457 264,456 265,455 266,454 267,452 267,451 268,450 269,449 270,448 271,447 272,446 273,444 274,443 275,442 276,441 276,440 277,439 278,438 279,437 280,435 281,434 282,433 283,432 284,431 284,430 285,429 286,427 287,426 288,425 289,424 290,423 291,422 292,420 293,419 293,418 294,417 295,416 296,415 297,413 298,412 299,411 300,410 301,409 301,408 302,406 303,405 304,404 305,403 306,402 307,401 308,400 309,398 310,397 310,396 311,395 312,394 313,393 314,392 315,390 316,389 317,388 318,387 318,386 319,385 320,384 321,383 322,382 323,380 324,379 325,378 326,377 327,376 327,375 328,374 329,372 330,371 331,370 332,369 333,368 334,367 335,365 335,364 336,363 337,362 338,361 339,360 340,359 341,358 342,356 343,355 344,354 344,353 345,352 346,351 347,349 348,348 349,347 350,346 351,345 352,344 352,342 353,341 354,340 355,339 356,338 357,337 358,335 359,334 360,333 361,332 361,331 362,330 363,329 364,328 365,326 366,325 367,324 368,323 369,322 370,321 370,320 371,318 372,317 373,316 374,315 375,314 376,313 377,311 378,310 378,309 379,308 380,307 381,306 382,304 383,303 384,302 385,301 386,300 387,299 387,298 388,296 389,295 390,294 391,293 392,292 393,291 394,289 395,288 395,287 396,286 397,285 398,283 399,282 400,281 401,280 402,279 403,278 404,276 404,275 405,274 406,273 407,272 408,271 409,270 410,268 411,267 412,266 412,265 413,264 414,263 415,262 416,260 417,259 418,258 419,257 420,256 421,255 421,254 422,253 423,252 424,250 425,249 426,248 427,247 428,246 429,244 429,243 430,242 431,241 432,240 433,239 434,237 435,236 436,235 437,234 438,233 438,231 439,230 440,229 441,228 442,227 443,226 444,225 445,223 446,222 446,221 447,220 448,219 449,218 450,216 451,215 452,214 453,213 454,212 455,211 455,209 456,208 457,207 458,206 459,205 460,204 461,203 462,201 463,200 463,199 464,198 465,197 466,195 467,194 468,193 469,192 470,191 471,190 472,189 472,187 473,186 474,185 475,184 476,183 477,182 478,181 479,179 480,178 480,177 481,176 482,175 483,174 484,172 485,171 486,170 487,169 488,168 489,167 489,166 490,164 491,163 492,162 493,161 494,160 495,159 496,157 497,156 497,155 498,154 499,153 500,152 501,151 502,149 503,148 504,147 505,146 506,145 506,144 507,142 508,141 509,140 510,139 511,138 512,137 513,136 514,134 514,133 515,132 516,131 517,130 518,129 519,127 520,126 521,125 522,124 523,123 523,122 524,120 525,119 526,118 527,117 528,116 529,115 530,114 531,112 531,111 532,110 533,109 534,108 535,107 536,106 537,105 538,104 539,102 540,101 540,100 541,99 542,98 543,97 544,96 545,95 546,93 547,92 548,91 548,90 549,89 550,88 551,87 552,86 553,84 554,83 555,82 556,81 557,80 557,79 558,78 559,76 560,75 561,74 562,73 563,72 564,71 565,70 566,68 566,68 567,68 568,68 569,68 570,68 571,68 572,68 573,68 574,68 574,68 575,68 576,68 577,68 578,68 579,68 580,68 581,68 582,68 583,68 583,68 584,68 585,68 586,68 587,68 588,68 589,68 590,68 591,68 591,68 592,68 593,68 594,68 595,68 596,68 597,68 598,68 599,68 600,68 600,68 601,68 602,68 603,68 604,68 605,68 606,68 607,68 608,68 608,68 609,68 610,68 611,68 612,68 613,68 614,68 615,68 616,68 617,68 617,68 618,68 619,68 620,68 621,68 622,68 623,68 624,68 625,68 625,68 626,68 627,68 628,68 629,68 630,68 631,68 632,68 633,68 634,68 634,68 635,68 636,68 637,68 638,68 639,68 640,68 641,68 642,68 642,68 643,68 644,68 645,68 646,68 647,68 648,68 649,68 650,68 651,68 651,68 652,68 653,68 654,68 655,68 656,68 657,68 658,68 659,68 659,68 660,68 661,68 662,68 663,68 664,68 665,68 666,68 667,68 668,68 668,68 669,68 670,68 671,68 672,68 673,68 674,68 675,68 676,68 676,68 677,68 678,68 679,68 680,68 681,68 682,68 683,68 684,68 685,68 685,68 686,68 687,68 688,68 689,68 690,68 691,68 692,68 693,68 693,68 694,68 695,68 696,68 697,68 698,68 699,68 700,68 701,68 702,68 702,68 703,68 704,68 705,68 706,68 707,68 708,68 709,68 710,68 710,68 711,68 712,68 713,68 714,68 715,68 716,68 717,68 718,68 719,68 719,68 720,68 721,68 722,68 723,68 724,68 725,68 726,68 727,68 727,68 728,68 729,68 730,68 731,68 732,68 733,68 734,68 735,68 736,68 736,68 737,68 738,68 739,68 740,68 741,68 742,68 743,68 744,68 744,68 745,68 746,68 747,68 748,68 749,68 750,68 751,68 752,68 753,68 753,68 754,68 755,68 756,68 757,68 758,68 759,68 760,68 761,68 761,68 762,68 763,68 764,68 765,68 766,68 767,68 768,68 769,68 770,68 770,68 771,68 772,68 773,68 774,68 775,68 776,68 777,68 778,68 779,68 779,68 780,68 781,68 782,68 783,68 784,68 785,68 786,68 787,68 787,69 788,68 789,68 790,69 791,68 792,68 793,69 794,69 795,69 796,69 796,69 797,69 798,69 799,69 800,69 801,69 802,69 803,69 804,69 804,69 805,69 806,69 807,69 808,69 809,69 810,69 811,69 812,69 813,69 813,69 814,69 815,69 816,69 817,69 818,69 819,69 820,69 821,69 821,69 822,69 823,69 824,69 825,69 826,69 827,69 828,69 829,69 830,69 830,69 831,69 832,69 833,69 834,69 835,69 836,69 837,69 838,69 838,69 839,69 840,69 841,69 842,69 843,69 844,69 845,69 846,69 847,69 847,69 848,69 849,69 850,69 851,69 852,69 853,69 854,69 855,69 855,69 856,69 857,69 858,69 859,69 860,69 861,69 862,69 863,69 864,69 864,69 865,69 866,70 867,70 868,70 869,70 870,70 871,70 872,70 872,70 873,70 874,70 875,70 876,70 877,70 878,70 879,70 880,70 881,70 881,70 882,70 883,70 884,70 885,70 886,70 887,70 888,70 889,70 889,70 890,70 891,70 892,70 893,70 894,70 895,70 896,70 897,70 898,70 898,70 899,70 900,70 901,70 902,70 903,70 904,70 905,70 906,70 906,70 907,70 908,70 909,70 910,70 911,70 912,70 913,70 914,70 915,70 915,70 916,70 917,70 918,70 919,70 920,70 921,70 922,70 923,70 923,70 924,70 925,70 926,70 927,70 928,70 929,70 930,70 931,70 932,70 932,70 933,70 934,70 935,70 936,70 937,70 938,70 939,70 940,70 940,70 941,70 942,70 943,70 944,70 945,70 946,70 947,70 948,70 949,70 949,70 950,70 951,70 952,70 953,71 954,71 955,70 956,70 957,70 957,70 958,70 959,70 960,71 961,70 962,70 963,71 964,71 965,71 966,71 966,70 967,71 968,71 969,71 970,71 971,71 972,71 972,72 973,72 "/>
<polygon opacity="1" fill="#E6194B" points="78,699 79,699 80,699 80,699 81,699 82,699 83,699 84,699 85,699 86,699 87,699 88,699 88,699 89,699 90,699 91,699 92,699 93,699 94,699 95,699 96,699 97,699 97,699 98,699 99,699 100,699 101,699 102,699 103,699 104,699 105,699 105,698 106,698 107,698 108,698 109,698 110,698 111,698 112,698 113,698 114,698 114,698 115,698 116,698 117,698 118,698 119,698 120,698 121,698 122,698 122,698 123,698 124,698 125,698 126,698 127,698 128,698 129,698 130,698 131,698 131,698 132,698 133,698 134,698 135,698 136,698 137,698 138,698 139,698 139,698 140,698 141,698 142,698 143,698 144,698 145,698 146,698 147,698 148,698 148,698 149,698 150,698 151,698 152,698 153,698 154,698 155,698 156,698 156,698 157,698 158,698 159,698 160,698 161,698 162,698 163,698 164,698 165,698 165,698 166,698 167,698 168,698 169,698 170,698 171,698 172,698 173,698 174,698 174,698 175,698 176,698 177,698 178,698 179,698 180,698 181,698 182,698 182,698 183,698 184,698 185,698 186,698 187,698 188,698 189,698 190,698 191,698 191,698 192,698 193,698 194,698 195,698 196,698 197,698 198,698 199,698 199,698 200,698 201,698 202,698 203,698 204,698 205,698 206,698 207,698 208,698 208,698 209,698 210,698 211,698 212,698 213,698 214,698 215,698 216,698 216,698 217,698 218,698 219,698 220,698 221,698 222,698 223,698 224,698 225,698 225,698 226,698 227,698 228,698 229,698 230,698 231,698 232,698 233,698 233,698 234,698 235,698 236,698 237,698 238,698 239,698 240,698 241,698 242,698 242,698 243,698 244,698 245,698 246,698 247,698 248,698 249,698 250,698 250,698 251,698 252,698 253,698 254,698 255,698 256,698 257,698 258,698 259,698 259,698 260,698 261,698 262,698 263,698 264,698 265,698 266,698 267,698 267,698 268,698 269,698 270,698 271,698 272,698 273,698 274,698 275,698 276,698 276,698 277,698 278,698 279,698 280,698 281,698 282,698 283,698 284,698 284,698 285,698 286,698 287,698 288,698 289,698 290,698 291,698 292,698 293,698 293,698 294,698 295,698 296,698 297,698 298,698 299,698 300,698 301,698 301,698 302,698 303,698 304,698 305,698 306,698 307,698 308,698 309,698 310,698 310,698 311,698 312,698 313,698 314,698 315,698 316,698 317,698 318,698 318,698 319,698 320,698 321,698 322,698 323,698 324,698 325,698 326,698 327,698 327,698 328,698 329,698 330,698 331,698 332,698 333,698 334,698 335,698 335,698 336,698 337,698 338,698 339,698 340,698 341,698 342,698 343,698 344,698 344,698 345,698 346,698 347,698 348,698 349,698 350,698 351,698 352,698 352,698 353,698 354,698 355,698 356,698 357,698 358,698 359,698 360,698 361,698 361,698 362,698 363,698 364,698 365,698 366,698 367,698 368,698 369,698 370,698 370,698 371,698 372,698 373,698 374,698 375,698 376,698 377,698 378,698 378,698 379,698 380,698 381,698 382,698 383,698 384,698 385,698 386,698 387,698 387,698 388,698 389,698 390,698 391,698 392,698 393,698 394,698 395,698 395,698 396,698 397,698 398,698 399,698 400,698 401,698 402,698 403,698 404,698 404,698 405,698 406,698 407,698 408,698 409,698 410,698 411,698 412,698 412,698 413,698 414,698 415,698 416,698 417,698 418,698 419,698 420,698 421,698 421,698 422,698 423,698 424,698 425,698 426,698 427,698 428,698 429,698 429,698 430,698 431,698 432,698 433,698 434,698 435,698 436,698 437,698 438,698 438,698 439,698 440,698 441,698 442,698 443,698 444,698 445,698 446,698 446,698 447,698 448,698 449,698 450,698 451,698 452,698 453,698 454,698 455,698 455,698 456,698 457,698 458,698 459,698 460,698 461,698 462,698 463,698 463,698 464,698 465,698 466,698 467,698 468,698 469,698 470,698 471,698 472,698 472,698 473,698 474,698 475,698 476,698 477,698 478,698 479,698 480,698 480,698 481,698 482,698 483,698 484,698 485,698 486,697 487,696 488,695 489,694 489,692 490,691 491,690 492,689 493,688 494,687 495,685 496,684 497,683 497,682 498,681 499,680 500,679 501,677 502,676 503,675 504,674 505,673 506,672 506,670 507,669 508,668 509,667 510,666 511,665 512,663 513,662 514,661 514,660 515,659 516,658 517,657 518,655 519,654 520,653 521,652 522,651 523,650 523,648 524,647 525,646 526,645 527,644 528,643 529,642 530,640 531,639 531,638 532,637 533,636 534,635 535,634 536,633 537,632 538,630 539,629 540,628 540,627 541,626 542,625 543,624 544,623 545,621 546,620 547,619 548,618 548,617 549,616 550,615 551,614 552,612 553,611 554,610 555,609 556,608 557,607 557,606 558,604 559,603 560,602 561,601 562,600 563,599 564,598 565,596 566,595 566,594 567,593 568,592 569,591 570,590 571,588 572,587 573,586 574,585 574,584 575,583 576,581 577,580 578,579 579,578 580,577 581,576 582,574 583,573 583,572 584,571 585,570 586,569 587,568 588,566 589,565 590,564 591,563 591,562 592,560 593,559 594,558 595,557 596,556 597,555 598,554 599,553 600,551 600,550 601,549 602,548 603,547 604,546 605,545 606,544 607,542 608,541 608,540 609,539 610,538 611,537 612,536 613,534 614,533 615,532 616,531 617,530 617,529 618,527 619,526 620,525 621,524 622,523 623,522 624,521 625,519 625,518 626,517 627,516 628,515 629,514 630,513 631,511 632,510 633,509 634,508 634,507 635,506 636,505 637,503 638,502 639,501 640,500 641,499 642,498 642,497 643,495 644,494 645,493 646,492 647,491 648,490 649,488 650,487 651,486 651,485 652,484 653,483 654,482 655,480 656,479 657,478 658,477 659,476 659,475 660,474 661,472 662,471 663,470 664,469 665,468 666,467 667,466 668,464 668,463 669,462 670,461 671,460 672,459 673,458 674,456 675,455 676,454 676,453 677,452 678,451 679,450 680,448 681,447 682,446 683,445 684,444 685,443 685,442 686,440 687,439 688,438 689,437 690,436 691,435 692,434 693,433 693,431 694,430 695,429 696,428 697,427 698,426 699,424 700,423 701,422 702,421 702,420 703,419 704,417 705,416 706,415 707,414 708,413 709,412 710,410 710,409 711,408 712,407 713,406 714,405 715,403 716,402 717,401 718,400 719,399 719,397 720,396 721,395 722,394 723,393 724,392 725,391 726,389 727,388 727,387 728,386 729,385 730,384 731,383 732,381 733,380 734,379 735,378 736,377 736,376 737,375 738,374 739,372 740,371 741,370 742,369 743,368 744,367 744,365 745,364 746,363 747,362 748,361 749,360 750,359 751,357 752,356 753,355 753,354 754,353 755,352 756,351 757,350 758,348 759,347 760,346 761,345 761,344 762,343 763,341 764,340 765,339 766,338 767,337 768,336 769,335 770,334 770,332 771,331 772,330 773,329 774,328 775,327 776,325 777,324 778,323 779,322 779,321 780,320 781,319 782,317 783,316 784,315 785,314 786,313 787,311 787,310 788,309 789,308 790,307 791,306 792,305 793,303 794,302 795,301 796,300 796,299 797,298 798,297 799,296 800,294 801,293 802,292 803,291 804,290 804,289 805,288 806,286 807,285 808,284 809,283 810,282 811,281 812,279 813,278 813,277 814,276 815,275 816,274 817,272 818,271 819,270 820,269 821,268 821,267 822,266 823,264 824,263 825,262 826,261 827,260 828,259 829,257 830,256 830,255 831,254 832,253 833,252 834,251 835,249 836,248 837,247 838,246 838,245 839,244 840,242 841,241 842,240 843,239 844,238 845,237 846,236 847,235 847,233 848,232 849,231 850,230 851,229 852,228 853,226 854,225 855,224 855,223 856,222 857,221 858,219 859,218 860,217 861,216 862,215 863,214 864,212 864,211 865,210 866,209 867,208 868,207 869,205 870,204 871,203 872,202 872,201 873,200 874,198 875,197 876,196 877,195 878,194 879,192 880,191 881,190 881,189 882,188 883,186 884,185 885,184 886,183 887,182 888,181 889,180 889,179 890,178 891,177 892,175 893,174 894,173 895,172 896,171 897,169 898,168 898,167 899,166 900,165 901,164 902,162 903,161 904,160 905,159 906,158 906,157 907,155 908,154 909,153 910,152 911,151 912,149 913,148 914,147 915,146 915,145 916,144 917,142 918,141 919,140 920,139 921,138 922,137 923,136 923,134 924,133 925,132 926,131 927,130 928,129 929,127 930,126 931,125 932,124 932,123 933,122 934,120 935,119 936,118 937,117 938,116 939,115 940,114 940,112 941,111 942,110 943,109 944,108 945,107 946,105 947,104 948,103 949,102 949,101 950,100 951,98 952,97 953,96 954,95 955,94 956,93 957,91 957,90 958,89 959,88 960,87 961,86 962,85 963,83 964,82 965,81 966,80 966,79 967,78 968,76 969,75 970,74 971,73 972,72 972,72 973,72 973,699 78,699 "/>
<polyline fill="none" opacity="1" stroke="#E6194B" stroke-width="1" points="78,699 79,699 80,699 80,699 81,699 82,699 83,699 84,699 85,699 86,699 87,699 88,699 88,699 89,699 90,699 91,699 92,699 93,699 94,699 95,699 96,699 97,699 97,699 98,699 99,699 100,699 101,699 102,699 103,699 104,699 105,699 105,698 106,698 107,698 108,698 109,698 110,698 111,698 112,698 113,698 114,698 114,698 115,698 116,698 117,698 118,698 119,698 120,698 121,698 122,698 122,698 123,698 124,698 125,698 126,698 127,698 128,698 129,698 130,698 131,698 131,698 132,698 133,698 134,698 135,698 136,698 137,698 138,698 139,698 139,698 140,698 141,698 142,698 143,698 144,698 145,698 146,698 147,698 148,698 148,698 149,698 150,698 151,698 152,698 153,698 154,698 155,698 156,698 156,698 157,698 158,698 159,698 160,698 161,698 162,698 163,698 164,698 165,698 165,698 166,698 167,698 168,698 169,698 170,698 171,698 172,698 173,698 174,698 174,698 175,698 176,698 177,698 178,698 179,698 180,698 181,698 182,698 182,698 183,698 184,698 185,698 186,698 187,698 188,698 189,698 190,698 191,698 191,698 192,698 193,698 194,698 195,698 196,698 197,698 198,698 199,698 199,698 200,698 201,698 202,698 203,698 204,698 205,698 206,698 207,698 208,698 208,698 209,698 210,698 211,698 212,698 213,698 214,698 215,698 216,698 216,698 217,698 218,698 219,698 220,698 221,698 222,698 223,698 224,698 225,698 225,698 226,698 227,698 228,698 229,698 230,698 231,698 232,698 233,698 233,698 234,698 235,698 236,698 237,698 238,698 239,698 240,698 241,698 242,698 242,698 243,698 244,698 245,698 246,698 247,698 248,698 249,698 250,698 250,698 251,698 252,698 253,698 254,698 255,698 256,698 257,698 258,698 259,698 259,698 260,698 261,698 262,698 263,698 264,698 265,698 266,698 267,698 267,698 268,698 269,698 270,698 271,698 272,698 273,698 274,698 275,698 276,698 276,698 277,698 278,698 279,698 280,698 281,698 282,698 283,698 284,698 284,698 285,698 286,698 287,698 288,698 289,698 290,698 291,698 292,698 293,698 293,698 294,698 295,698 296,698 297,698 298,698 299,698 300,698 301,698 301,698 302,698 303,698 304,698 305,698 306,698 307,698 308,698 309,698 310,698 310,698 311,698 312,698 313,698 314,698 315,698 316,698 317,698 318,698 318,698 319,698 320,698 321,698 322,698 323,698 324,698 325,698 326,698 327,698 327,698 328,698 329,698 330,698 331,698 332,698 333,698 334,698 335,698 335,698 336,698 337,698 338,698 339,698 340,698 341,698 342,698 343,698 344,698 344,698 345,698 346,698 347,698 348,698 349,698 350,698 351,698 352,698 352,698 353,698 354,698 355,698 356,698 357,698 358,698 359,698 360,698 361,698 361,698 362,698 363,698 364,698 365,698 366,698 367,698 368,698 369,698 370,698 370,698 371,698 372,698 373,698 374,698 375,698 376,698 377,698 378,698 378,698 379,698 380,698 381,698 382,698 383,698 384,698 385,698 386,698 387,698 387,698 388,698 389,698 390,698 391,698 392,698 393,698 394,698 395,698 395,698 396,698 397,698 398,698 399,698 400,698 401,698 402,698 403,698 404,698 404,698 405,698 406,698 407,698 408,698 409,698 410,698 411,698 412,698 412,698 413,698 414,698 415,698 416,698 417,698 418,698 419,698 420,698 421,698 421,698 422,698 423,698 424,698 425,698 426,698 427,698 428,698 429,698 429,698 430,698 431,698 432,698 433,698 434,698 435,698 436,698 437,698 438,698 438,698 439,698 440,698 441,698 442,698 443,698 444,698 445,698 446,698 446,698 447,698 448,698 449,698 450,698 451,698 452,698 453,698 454,698 455,698 455,698 456,698 457,698 458,698 459,698 460,698 461,698 462,698 463,698 463,698 464,698 465,698 466,698 467,698 468,698 469,698 470,698 471,698 472,698 472,698 473,698 474,698 475,698 476,698 477,698 478,698 479,698 480,698 480,698 481,698 482,698 483,698 484,698 485,698 486,697 487,696 488,695 489,694 489,692 490,691 491,690 492,689 493,688 494,687 495,685 496,684 497,683 497,682 498,681 499,680 500,679 501,677 502,676 503,675 504,674 505,673 506,672 506,670 507,669 508,668 509,667 510,666 511,665 512,663 513,662 514,661 514,660 515,659 516,658 517,657 518,655 519,654 520,653 521,652 522,651 523,650 523,648 524,647 525,646 526,645 527,644 528,643 529,642 530,640 531,639 531,638 532,637 533,636 534,635 535,634 536,633 537,632 538,630 539,629 540,628 540,627 541,626 542,625 543,624 544,623 545,621 546,620 547,619 548,618 548,617 549,616 550,615 551,614 552,612 553,611 554,610 555,609 556,608 557,607 557,606 558,604 559,603 560,602 561,601 562,600 563,599 564,598 565,596 566,595 566,594 567,593 568,592 569,591 570,590 571,588 572,587 573,586 574,585 574,584 575,583 576,581 577,580 578,579 579,578 580,577 581,576 582,574 583,573 583,572 584,571 585,570 586,569 587,568 588,566 589,565 590,564 591,563 591,562 592,560 593,559 594,558 595,557 596,556 597,555 598,554 599,553 600,551 600,550 601,549 602,548 603,547 604,546 605,545 606,544 607,542 608,541 608,540 609,539 610,538 611,537 612,536 613,534 614,533 615,532 616,531 617,530 617,529 618,527 619,526 620,525 621,524 622,523 623,522 624,521 625,519 625,518 626,517 627,516 628,515 629,514 630,513 631,511 632,510 633,509 634,508 634,507 635,506 636,505 637,503 638,502 639,501 640,500 641,499 642,498 642,497 643,495 644,494 645,493 646,492 647,491 648,490 649,488 650,487 651,486 651,485 652,484 653,483 654,482 655,480 656,479 657,478 658,477 659,476 659,475 660,474 661,472 662,471 663,470 664,469 665,468 666,467 667,466 668,464 668,463 669,462 670,461 671,460 672,459 673,458 674,456 675,455 676,454 676,453 677,452 678,451 679,450 680,448 681,447 682,446 683,445 684,444 685,443 685,442 686,440 687,439 688,438 689,437 690,436 691,435 692,434 693,433 693,431 694,430 695,429 696,428 697,427 698,426 699,424 700,423 701,422 702,421 702,420 703,419 704,417 705,416 706,415 707,414 708,413 709,412 710,410 710,409 711,408 712,407 713,406 714,405 715,403 716,402 717,401 718,400 719,399 719,397 720,396 721,395 722,394 723,393 724,392 725,391 726,389 727,388 727,387 728,386 729,385 730,384 731,383 732,381 733,380 734,379 735,378 736,377 736,376 737,375 738,374 739,372 740,371 741,370 742,369 743,368 744,367 744,365 745,364 746,363 747,362 748,361 749,360 750,359 751,357 752,356 753,355 753,354 754,353 755,352 756,351 757,350 758,348 759,347 760,346 761,345 761,344 762,343 763,341 764,340 765,339 766,338 767,337 768,336 769,335 770,334 770,332 771,331 772,330 773,329 774,328 775,327 776,325 777,324 778,323 779,322 779,321 780,320 781,319 782,317 783,316 784,315 785,314 786,313 787,311 787,310 788,309 789,308 790,307 791,306 792,305 793,303 794,302 795,301 796,300 796,299 797,298 798,297 799,296 800,294 801,293 802,292 803,291 804,290 804,289 805,288 806,286 807,285 808,284 809,283 810,282 811,281 812,279 813,278 813,277 814,276 815,275 816,274 817,272 818,271 819,270 820,269 821,268 821,267 822,266 823,264 824,263 825,262 826,261 827,260 828,259 829,257 830,256 830,255 831,254 832,253 833,252 834,251 835,249 836,248 837,247 838,246 838,245 839,244 840,242 841,241 842,240 843,239 844,238 845,237 846,236 847,235 847,233 848,232 849,231 850,230 851,229 852,228 853,226 854,225 855,224 855,223 856,222 857,221 858,219 859,218 860,217 861,216 862,215 863,214 864,212 864,211 865,210 866,209 867,208 868,207 869,205 870,204 871,203 872,202 872,201 873,200 874,198 875,197 876,196 877,195 878,194 879,192 880,191 881,190 881,189 882,188 883,186 884,185 885,184 886,183 887,182 888,181 889,180 889,179 890,178 891,177 892,175 893,174 894,173 895,172 896,171 897,169 898,168 898,167 899,166 900,165 901,164 902,162 903,161 904,160 905,159 906,158 906,157 907,155 908,154 909,153 910,152 911,151 912,149 913,148 914,147 915,146 915,145 916,144 917,142 918,141 919,140 920,139 921,138 922,137 923,136 923,134 924,133 925,132 926,131 927,130 928,129 929,127 930,126 931,125 932,124 932,123 933,122 934,120 935,119 936,118 937,117 938,116 939,115 940,114 940,112 941,111 942,110 943,109 944,108 945,107 946,105 947,104 948,103 949,102 949,101 950,100 951,98 952,97 953,96 954,95 955,94 956,93 957,91 957,90 958,89 959,88 960,87 961,86 962,85 963,83 964,82 965,81 966,80 966,79 967,78 968,76 969,75 970,74 971,73 972,72 972,72 973,72 "/>
<line opacity="0.1" stroke="#000000" stroke-width="1" x1="84" y1="699" x2="84" y2="68"/>
<line opacity="0.1" stroke="#000000" stroke-width="1" x1="94" y1="699" x2="94" y2="68"/>
<line opacity="0.1" stroke="#000000" stroke-width="1" x1="105" y1="699" x2="105" y2="68"/>
<line opacity="0.1" stroke="#000000" stroke-width="1" x1="115" y1="699" x2="115" y2="68"/>
<line opacity="0.1" stroke="#000000" stroke-width="1" x1="126" y1="699" x2="126" y2="68"/>
<line opacity="0.1" stroke="#000000" stroke-width="1" x1="137" y1="699" x2="137" y2="68"/>
<line opacity="0.1" stroke="#000000" stroke-width="1" x1="147" y1="699" x2="147" y2="68"/>
<line opacity="0.1" stroke="#000000" stroke-width="1" x1="158" y1="699" x2="158" y2="68"/>
<line opacity="0.1" stroke="#000000" stroke-width="1" x1="168" y1="699" x2="168" y2="68"/>
<line opacity="0.1" stroke="#000000" stroke-width="1" x1="179" y1="699" x2="179" y2="68"/>
<line opacity="0.1" stroke="#000000" stroke-width="1" x1="189" y1="699" x2="189" y2="68"/>
<line opacity="0.1" stroke="#000000" stroke-width="1" x1="200" y1="699" x2="200" y2="68"/>
<line opacity="0.1" stroke="#000000" stroke-width="1" x1="211" y1="699" x2="211" y2="68"/>
<line opacity="0.1" stroke="#000000" stroke-width="1" x1="221" y1="699" x2="221" y2="68"/>
<line opacity="0.1" stroke="#000000" stroke-width="1" x1="232" y1="699" x2="232" y2="68"/>
<line opacity="0.1" stroke="#000000" stroke-width="1" x1="242" y1="699" x2="242" y2="68"/>
<line opacity="0.1" stroke="#000000" stroke-width="1" x1="253" y1="699" x2="253" y2="68"/>
<line opacity="0.1" stroke="#000000" stroke-width="1" x1="264" y1="699" x2="264" y2="68"/>
<line opacity="0.1" stroke="#000000" stroke-width="1" x1="274" y1="699" x2="274" y2="68"/>
<line opacity="0.1" stroke="#000000" stroke-width="1" x1="285" y1="699" x2="285" y2="68"/>
<line opacity="0.1" stroke="#000000" stroke-width="1" x1="295" y1="699" x2="295" y2="68"/>
<line opacity="0.1" stroke="#000000" stroke-width="1" x1="306" y1="699" x2="306" y2="68"/>
<line opacity="0.1" stroke="#000000" stroke-width="1" x1="316" y1="699" x2="316" y2="68"/>
<line opacity="0.1" stroke="#000000" stroke-width="1" x1="327" y1="699" x2="327" y2="68"/>
<line opacity="0.1" stroke="#000000" stroke-width="1" x1="338" y1="699" x2="338" y2="68"/>
<line opacity="0.1" stroke="#000000" stroke-width="1" x1="348" y1="699" x2="348" y2="68"/>
<line opacity="0.1" stroke="#000000" stroke-width="1" x1="359" y1="699" x2="359" y2="68"/>
<line opacity="0.1" stroke="#000000" stroke-width="1" x1="369" y1="699" x2="369" y2="68"/>
<line opacity="0.1" stroke="#000000" stroke-width="1" x1="380" y1="699" x2="380" y2="68"/>
<line opacity="0.1" stroke="#000000" stroke-width="1" x1="390" y1="699" x2="390" y2="68"/>
<line opacity="0.1" stroke="#000000" stroke-width="1" x1="401" y1="699" x2="401" y2="68"/>
<line opacity="0.1" stroke="#000000" stroke-width="1" x1="412" y1="699" x2="412" y2="68"/>
<line opacity="0.1" stroke="#000000" stroke-width="1" x1="422" y1="699" x2="422" y2="68"/>
<line opacity="0.1" stroke="#000000" stroke-width="1" x1="433" y1="699" x2="433" y2="68"/>
<line opacity="0.1" stroke="#000000" stroke-width="1" x1="443" y1="699" x2="443" y2="68"/>
<line opacity="0.1" stroke="#000000" stroke-width="1" x1="454" y1="699" x2="454" y2="68"/>
<line opacity="0.1" stroke="#000000" stroke-width="1" x1="464" y1="699" x2="464" y2="68"/>
<line opacity="0.1" stroke="#000000" stroke-width="1" x1="475" y1="699" x2="475" y2="68"/>
<line opacity="0.1" stroke="#000000" stroke-width="1" x1="486" y1="699" x2="486" y2="68"/>
<line opacity="0.1" stroke="#000000" stroke-width="1" x1="496" y1="699" x2="496" y2="68"/>
<line opacity="0.1" stroke="#000000" stroke-width="1" x1="507" y1="699" x2="507" y2="68"/>
<line opacity="0.1" stroke="#000000" stroke-width="1" x1="517" y1="699" x2="517" y2="68"/>
<line opacity="0.1" stroke="#000000" stroke-width="1" x1="528" y1="699" x2="528" y2="68"/>
<line opacity="0.1" stroke="#000000" stroke-width="1" x1="538" y1="699" x2="538" y2="68"/>
<line opacity="0.1" stroke="#000000" stroke-width="1" x1="549" y1="699" x2="549" y2="68"/>
<line opacity="0.1" stroke="#000000" stroke-width="1" x1="560" y1="699" x2="560" y2="68"/>
<line opacity="0.1" stroke="#000000" stroke-width="1" x1="570" y1="699" x2="570" y2="68"/>
<line opacity="0.1" stroke="#000000" stroke-width="1" x1="581" y1="699" x2="581" y2="68"/>
<line opacity="0.1" stroke="#000000" stroke-width="1" x1="591" y1="699" x2="591" y2="68"/>
<line opacity="0.1" stroke="#000000" stroke-width="1" x1="602" y1="699" x2="602" y2="68"/>
<line opacity="0.1" stroke="#000000" stroke-width="1" x1="612" y1="699" x2="612" y2="68"/>
<line opacity="0.1" stroke="#000000" stroke-width="1" x1="623" y1="699" x2="623" y2="68"/>
<line opacity="0.1" stroke="#000000" stroke-width="1" x1="634" y1="699" x2="634" y2="68"/>
<line opacity="0.1" stroke="#000000" stroke-width="1" x1="644" y1="699" x2="644" y2="68"/>
<line opacity="0.1" stroke="#000000" stroke-width="1" x1="655" y1="699" x2="655" y2="68"/>
<line opacity="0.1" stroke="#000000" stroke-width="1" x1="665" y1="699" x2="665" y2="68"/>
<line opacity="0.1" stroke="#000000" stroke-width="1" x1="676" y1="699" x2="676" y2="68"/>
<line opacity="0.1" stroke="#000000" stroke-width="1" x1="687" y1="699" x2="687" y2="68"/>
<line opacity="0.1" stroke="#000000" stroke-width="1" x1="697" y1="699" x2="697" y2="68"/>
<line opacity="0.1" stroke="#000000" stroke-width="1" x1="708" y1="699" x2="708" y2="68"/>
<line opacity="0.1" stroke="#000000" stroke-width="1" x1="718" y1="699" x2="718" y2="68"/>
<line opacity="0.1" stroke="#000000" stroke-width="1" x1="729" y1="699" x2="729" y2="68"/>
<line opacity="0.1" stroke="#000000" stroke-width="1" x1="739" y1="699" x2="739" y2="68"/>
<line opacity="0.1" stroke="#000000" stroke-width="1" x1="750" y1="699" x2="750" y2="68"/>
<line opacity="0.1" stroke="#000000" stroke-width="1" x1="761" y1="699" x2="761" y2="68"/>
<line opacity="0.1" stroke="#000000" stroke-width="1" x1="771" y1="699" x2="771" y2="68"/>
<line opacity="0.1" stroke="#000000" stroke-width="1" x1="782" y1="699" x2="782" y2="68"/>
<line opacity="0.1" stroke="#000000" stroke-width="1" x1="792" y1="699" x2="792" y2="68"/>
<line opacity="0.1" stroke="#000000" stroke-width="1" x1="803" y1="699" x2="803" y2="68"/>
<line opacity="0.1" stroke="#000000" stroke-width="1" x1="813" y1="699" x2="813" y2="68"/>
<line opacity="0.1" stroke="#000000" stroke-width="1" x1="824" y1="699" x2="824" y2="68"/>
<line opacity="0.1" stroke="#000000" stroke-width="1" x1="835" y1="699" x2="835" y2="68"/>
<line opacity="0.1" stroke="#000000" stroke-width="1" x1="845" y1="699" x2="845" y2="68"/>
<line opacity="0.1" stroke="#000000" stroke-width="1" x1="856" y1="699" x2="856" y2="68"/>
<line opacity="0.1" stroke="#000000" stroke-width="1" x1="866" y1="699" x2="866" y2="68"/>
<line opacity="0.1" stroke="#000000" stroke-width="1" x1="877" y1="699" x2="877" y2="68"/>
<line opacity="0.1" stroke="#000000" stroke-width="1" x1="887" y1="699" x2="887" y2="68"/>
<line opacity="0.1" stroke="#000000" stroke-width="1" x1="898" y1="699" x2="898" y2="68"/>
<line opacity="0.1" stroke="#000000" stroke-width="1" x1="909" y1="699" x2="909" y2="68"/>
<line opacity="0.1" stroke="#000000" stroke-width="1" x1="919" y1="699" x2="919" y2="68"/>
<line opacity="0.1" stroke="#000000" stroke-width="1" x1="930" y1="699" x2="930" y2="68"/>
<line opacity="0.1" stroke="#000000" stroke-width="1" x1="940" y1="699" x2="940" y2="68"/>
<line opacity="0.1" stroke="#000000" stroke-width="1" x1="951" y1="699" x2="951" y2="68"/>
<line opacity="0.1" stroke="#000000" stroke-width="1" x1="961" y1="699" x2="961" y2="68"/>
<line opacity="0.1" stroke="#000000" stroke-width="1" x1="972" y1="699" x2="972" y2="68"/>
<line opacity="0.1" stroke="#000000" stroke-width="1" x1="78" y1="699" x2="973" y2="699"/>
<line opacity="0.1" stroke="#000000" stroke-width="1" x1="78" y1="690" x2="973" y2="690"/>
<line opacity="0.1" stroke="#000000" stroke-width="1" x1="78" y1="682" x2="973" y2="682"/>
<line opacity="0.1" stroke="#000000" stroke-width="1" x1="78" y1="674" x2="973" y2="674"/>
<line opacity="0.1" stroke="#000000" stroke-width="1" x1="78" y1="666" x2="973" y2="666"/>
<line opacity="0.1" stroke="#000000" stroke-width="1" x1="78" y1="658" x2="973" y2="658"/>
<line opacity="0.1" stroke="#000000" stroke-width="1" x1="78" y1="650" x2="973" y2="650"/>
<line opacity="0.1" stroke="#000000" stroke-width="1" x1="78" y1="642" x2="973" y2="642"/>
<line opacity="0.1" stroke="#000000" stroke-width="1" x1="78" y1="634" x2="973" y2="634"/>
<line opacity="0.1" stroke="#000000" stroke-width="1" x1="78" y1="626" x2="973" y2="626"/>
<line opacity="0.1" stroke="#000000" stroke-width="1" x1="78" y1="617" x2="973" y2="617"/>
<line opacity="0.1" stroke="#000000" stroke-width="1" x1="78" y1="609" x2="973" y2="609"/>
<line opacity="0.1" stroke="#000000" stroke-width="1" x1="78" y1="601" x2="973" y2="601"/>
<line opacity="0.1" stroke="#000000" stroke-width="1" x1="78" y1="593" x2="973" y2="593"/>
<line opacity="0.1" stroke="#000000" stroke-width="1" x1="78" y1="585" x2="973" y2="585"/>
<line opacity="0.1" stroke="#000000" stroke-width="1" x1="78" y1="577" x2="973" y2="577"/>
<line opacity="0.1" stroke="#000000" stroke-width="1" x1="78" y1="569" x2="973" y2="569"/>
<line opacity="0.1" stroke="#000000" stroke-width="1" x1="78" y1="561" x2="973" y2="561"/>
<line opacity="0.1" stroke="#000000" stroke-width="1" x1="78" y1="553" x2="973" y2="553"/>
<line opacity="0.1" stroke="#000000" stroke-width="1" x1="78" y1="544" x2="973" y2="544"/>
<line opacity="0.1" stroke="#000000" stroke-width="1" x1="78" y1="536" x2="973" y2="536"/>
<line opacity="0.1" stroke="#000000" stroke-width="1" x1="78" y1="528" x2="973" y2="528"/>
<line opacity="0.1" stroke="#000000" stroke-width="1" x1="78" y1="520" x2="973" y2="520"/>
<line opacity="0.1" stroke="#000000" stroke-width="1" x1="78" y1="512" x2="973" y2="512"/>
<line opacity="0.1" stroke="#000000" stroke-width="1" x1="78" y1="504" x2="973" y2="504"/>
<line opacity="0.1" stroke="#000000" stroke-width="1" x1="78" y1="496" x2="973" y2="496"/>
<line opacity="0.1" stroke="#000000" stroke-width="1" x1="78" y1="488" x2="973" y2="488"/>
<line opacity="0.1" stroke="#000000" stroke-width="1" x1="78" y1="480" x2="973" y2="480"/>
<line opacity="0.1" stroke="#000000" stroke-width="1" x1="78" y1="471" x2="973" y2="471"/>
<line opacity="0.1" stroke="#000000" stroke-width="1" x1="78" y1="463" x2="973" y2="463"/>
<line opacity="0.1" stroke="#000000" stroke-width="1" x1="78" y1="455" x2="973" y2="455"/>
<line opacity="0.1" stroke="#000000" stroke-width="1" x1="78" y1="447" x2="973" y2="447"/>
<line opacity="0.1" stroke="#000000" stroke-width="1" x1="78" y1="439" x2="973" y2="439"/>
<line opacity="0.1" stroke="#000000" stroke-width="1" x1="78" y1="431" x2="973" y2="431"/>
<line opacity="0.1" stroke="#000000" stroke-width="1" x1="78" y1="423" x2="973" y2="423"/>
<line opacity="0.1" stroke="#000000" stroke-width="1" x1="78" y1="415" x2="973" y2="415"/>
<line opacity="0.1" stroke="#000000" stroke-width="1" x1="78" y1="407" x2="973" y2="407"/>
<line opacity="0.1" stroke="#000000" stroke-width="1" x1="78" y1="399" x2="973" y2="399"/>
<line opacity="0.1" stroke="#000000" stroke-width="1" x1="78" y1="390" x2="973" y2="390"/>
<line opacity="0.1" stroke="#000000" stroke-width="1" x1="78" y1="382" x2="973" y2="382"/>
<line opacity="0.1" stroke="#000000" stroke-width="1" x1="78" y1="374" x2="973" y2="374"/>
<line opacity="0.1" stroke="#000000" stroke-width="1" x1="78" y1="366" x2="973" y2="366"/>
<line opacity="0.1" stroke="#000000" stroke-width="1" x1="78" y1="358" x2="973" y2="358"/>
<line opacity="0.1" stroke="#000000" stroke-width="1" x1="78" y1="350" x2="973" y2="350"/>
<line opacity="0.1" stroke="#000000" stroke-width="1" x1="78" y1="342" x2="973" y2="342"/>
<line opacity="0.1" stroke="#000000" stroke-width="1" x1="78" y1="334" x2="973" y2="334"/>
<line opacity="0.1" stroke="#000000" stroke-width="1" x1="78" y1="326" x2="973" y2="326"/>
<line opacity="0.1" stroke="#000000" stroke-width="1" x1="78" y1="317" x2="973" y2="317"/>
<line opacity="0.1" stroke="#000000" stroke-width="1" x1="78" y1="309" x2="973" y2="309"/>
<line opacity="0.1" stroke="#000000" stroke-width="1" x1="78" y1="301" x2="973" y2="301"/>
<line opacity="0.1" stroke="#000000" stroke-width="1" x1="78" y1="293" x2="973" y2="293"/>
<line opacity="0.1" stroke="#000000" stroke-width="1" x1="78" y1="285" x2="973" y2="285"/>
<line opacity="0.1" stroke="#000000" stroke-width="1" x1="78" y1="277" x2="973" y2="277"/>
<line opacity="0.1" stroke="#000000" stroke-width="1" x1="78" y1="269" x2="973" y2="269"/>
<line opacity="0.1" stroke="#000000" stroke-width="1" x1="78" y1="261" x2="973" y2="261"/>
<line opacity="0.1" stroke="#000000" stroke-width="1" x1="78" y1="253" x2="973" y2="253"/>
<line opacity="0.1" stroke="#000000" stroke-width="1" x1="78" y1="244" x2="973" y2="244"/>
<line opacity="0.1" stroke="#000000" stroke-width="1" x1="78" y1="236" x2="973" y2="236"/>
<line opacity="0.1" stroke="#000000" stroke-width="1" x1="78" y1="228" x2="973" y2="228"/>
<line opacity="0.1" stroke="#000000" stroke-width="1" x1="78" y1="220" x2="973" y2="220"/>
<line opacity="0.1" stroke="#000000" stroke-width="1" x1="78" y1="212" x2="973" y2="212"/>
<line opacity="0.1" stroke="#000000" stroke-width="1" x1="78" y1="204" x2="973" y2="204"/>
<line opacity="0.1" stroke="#000000" stroke-width="1" x1="78" y1="196" x2="973" y2="196"/>
<line opacity="0.1" stroke="#000000" stroke-width="1" x1="78" y1="188" x2="973" y2="188"/>
<line opacity="0.1" stroke="#000000" stroke-width="1" x1="78" y1="180" x2="973" y2="180"/>
<line opacity="0.1" stroke="#000000" stroke-width="1" x1="78" y1="172" x2="973" y2="172"/>
<line opacity="0.1" stroke="#000000" stroke-width="1" x1="78" y1="163" x2="973" y2="163"/>
<line opacity="0.1" stroke="#000000" stroke-width="1" x1="78" y1="155" x2="973" y2="155"/>
<line opacity="0.1" stroke="#000000" stroke-width="1" x1="78" y1="147" x2="973" y2="147"/>
<line opacity="0.1" stroke="#000000" stroke-width="1" x1="78" y1="139" x2="973" y2="139"/>
<line opacity="0.1" stroke="#000000" stroke-width="1" x1="78" y1="131" x2="973" y2="131"/>
<line opacity="0.1" stroke="#000000" stroke-width="1" x1="78" y1="123" x2="973" y2="123"/>
<line opacity="0.1" stroke="#000000" stroke-width="1" x1="78" y1="115" x2="973" y2="115"/>
<line opacity="0.1" stroke="#000000" stroke-width="1" x1="78" y1="107" x2="973" y2="107"/>
<line opacity="0.1" stroke="#000000" stroke-width="1" x1="78" y1="99" x2="973" y2="99"/>
<line opacity="0.1" stroke="#000000" stroke-width="1" x1="78" y1="90" x2="973" y2="90"/>
<line opacity="0.1" stroke="#000000" stroke-width="1" x1="78" y1="82" x2="973" y2="82"/>
<line opacity="0.1" stroke="#000000" stroke-width="1" x1="78" y1="74" x2="973" y2="74"/>
<text x="8" y="384" dy="0.76em" text-anchor="middle" font-family="sans-serif" font-size="9.67741935483871" opacity="1" fill="#000000" transform="rotate(270, 8, 384)">
Memory usage
</text>
<text x="526" y="760" dy="-0.5ex" text-anchor="middle" font-family="sans-serif" font-size="9.67741935483871" opacity="1" fill="#000000">
Time
</text>
<line opacity="0.2" stroke="#000000" stroke-width="1" x1="105" y1="699" x2="105" y2="68"/>
<line opacity="0.2" stroke="#000000" stroke-width="1" x1="211" y1="699" x2="211" y2="68"/>
<line opacity="0.2" stroke="#000000" stroke-width="1" x1="316" y1="699" x2="316" y2="68"/>
<line opacity="0.2" stroke="#000000" stroke-width="1" x1="422" y1="699" x2="422" y2="68"/>
<line opacity="0.2" stroke="#000000" stroke-width="1" x1="528" y1="699" x2="528" y2="68"/>
<line opacity="0.2" stroke="#000000" stroke-width="1" x1="634" y1="699" x2="634" y2="68"/>
<line opacity="0.2" stroke="#000000" stroke-width="1" x1="739" y1="699" x2="739" y2="68"/>
<line opacity="0.2" stroke="#000000" stroke-width="1" x1="845" y1="699" x2="845" y2="68"/>
<line opacity="0.2" stroke="#000000" stroke-width="1" x1="951" y1="699" x2="951" y2="68"/>
<line opacity="0.2" stroke="#000000" stroke-width="1" x1="78" y1="699" x2="973" y2="699"/>
<line opacity="0.2" stroke="#000000" stroke-width="1" x1="78" y1="617" x2="973" y2="617"/>
<line opacity="0.2" stroke="#000000" stroke-width="1" x1="78" y1="536" x2="973" y2="536"/>
<line opacity="0.2" stroke="#000000" stroke-width="1" x1="78" y1="455" x2="973" y2="455"/>
<line opacity="0.2" stroke="#000000" stroke-width="1" x1="78" y1="374" x2="973" y2="374"/>
<line opacity="0.2" stroke="#000000" stroke-width="1" x1="78" y1="293" x2="973" y2="293"/>
<line opacity="0.2" stroke="#000000" stroke-width="1" x1="78" y1="212" x2="973" y2="212"/>
<line opacity="0.2" stroke="#000000" stroke-width="1" x1="78" y1="131" x2="973" y2="131"/>
<polyline fill="none" opacity="1" stroke="#000000" stroke-width="1" points="77,68 77,699 "/>
<text x="68" y="699" dy="0.5ex" text-anchor="end" font-family="sans-serif" font-size="9.67741935483871" opacity="1" fill="#000000">
0.0 MB
</text>
<polyline fill="none" opacity="1" stroke="#000000" stroke-width="1" points="72,699 77,699 "/>
<text x="68" y="617" dy="0.5ex" text-anchor="end" font-family="sans-serif" font-size="9.67741935483871" opacity="1" fill="#000000">
4.8 MB
</text>
<polyline fill="none" opacity="1" stroke="#000000" stroke-width="1" points="72,617 77,617 "/>
<text x="68" y="536" dy="0.5ex" text-anchor="end" font-family="sans-serif" font-size="9.67741935483871" opacity="1" fill="#000000">
9.5 MB
</text>
<polyline fill="none" opacity="1" stroke="#000000" stroke-width="1" points="72,536 77,536 "/>
<text x="68" y="455" dy="0.5ex" text-anchor="end" font-family="sans-serif" font-size="9.67741935483871" opacity="1" fill="#000000">
14.3 MB
</text>
<polyline fill="none" opacity="1" stroke="#000000" stroke-width="1" points="72,455 77,455 "/>
<text x="68" y="374" dy="0.5ex" text-anchor="end" font-family="sans-serif" font-size="9.67741935483871" opacity="1" fill="#000000">
19.1 MB
</text>
<polyline fill="none" opacity="1" stroke="#000000" stroke-width="1" points="72,374 77,374 "/>
<text x="68" y="293" dy="0.5ex" text-anchor="end" font-family="sans-serif" font-size="9.67741935483871" opacity="1" fill="#000000">
23.8 MB
</text>
<polyline fill="none" opacity="1" stroke="#000000" stroke-width="1" points="72,293 77,293 "/>
<text x="68" y="212" dy="0.5ex" text-anchor="end" font-family="sans-serif" font-size="9.67741935483871" opacity="1" fill="#000000">
28.6 MB
</text>
<polyline fill="none" opacity="1" stroke="#000000" stroke-width="1" points="72,212 77,212 "/>
<text x="68" y="131" dy="0.5ex" text-anchor="end" font-family="sans-serif" font-size="9.67741935483871" opacity="1" fill="#000000">
33.4 MB
</text>
<polyline fill="none" opacity="1" stroke="#000000" stroke-width="1" points="72,131 77,131 "/>
<polyline fill="none" opacity="1" stroke="#000000" stroke-width="1" points="78,700 973,700 "/>
<text x="105" y="710" dy="0.76em" text-anchor="middle" font-family="sans-serif" font-size="9.67741935483871" opacity="1" fill="#000000">
07 20:33:20
</text>
<polyline fill="none" opacity="1" stroke="#000000" stroke-width="1" points="105,700 105,705 "/>
<text x="211" y="710" dy="0.76em" text-anchor="middle" font-family="sans-serif" font-size="9.67741935483871" opacity="1" fill="#000000">
08 10:26:40
</text>
<polyline fill="none" opacity="1" stroke="#000000" stroke-width="1" points="211,700 211,705 "/>
<text x="316" y="710" dy="0.76em" text-anchor="middle" font-family="sans-serif" font-size="9.67741935483871" opacity="1" fill="#000000">
09 00:20:00
</text>
<polyline fill="none" opacity="1" stroke="#000000" stroke-width="1" points="316,700 316,705 "/>
<text x="422" y="710" dy="0.76em" text-anchor="middle" font-family="sans-serif" font-size="9.67741935483871" opacity="1" fill="#000000">
09 14:13:20
</text>
<polyline fill="none" opacity="1" stroke="#000000" stroke-width="1" points="422,700 422,705 "/>
<text x="528" y="710" dy="0.76em" text-anchor="middle" font-family="sans-serif" font-size="9.67741935483871" opacity="1" fill="#000000">
10 04:06:40
</text>
<polyline fill="none" opacity="1" stroke="#000000" stroke-width="1" points="528,700 528,705 "/>
<text x="634" y="710" dy="0.76em" text-anchor="middle" font-family="sans-serif" font-size="9.67741935483871" opacity="1" fill="#000000">
10 18:00:00
</text>
<polyline fill="none" opacity="1" stroke="#000000" stroke-width="1" points="634,700 634,705 "/>
<text x="739" y="710" dy="0.76em" text-anchor="middle" font-family="sans-serif" font-size="9.67741935483871" opacity="1" fill="#000000">
11 07:53:20
</text>
<polyline fill="none" opacity="1" stroke="#000000" stroke-width="1" points="739,700 739,705 "/>
<text x="845" y="710" dy="0.76em" text-anchor="middle" font-family="sans-serif" font-size="9.67741935483871" opacity="1" fill="#000000">
11 21:46:40
</text>
<polyline fill="none" opacity="1" stroke="#000000" stroke-width="1" points="845,700 845,705 "/>
<text x="951" y="710" dy="0.76em" text-anchor="middle" font-family="sans-serif" font-size="9.67741935483871" opacity="1" fill="#000000">
12 11:40:00
</text>
<polyline fill="none" opacity="1" stroke="#000000" stroke-width="1" points="951,700 951,705 "/>
<polyline fill="none" opacity="1" stroke="#000000" stroke-width="1" points="78,67 974,67 "/>
<text x="105" y="58" dy="-0.5ex" text-anchor="middle" font-family="sans-serif" font-size="9.67741935483871" opacity="1" fill="#000000">
+03:35:44
</text>
<polyline fill="none" opacity="1" stroke="#000000" stroke-width="1" points="105,62 105,67 "/>
<text x="211" y="58" dy="-0.5ex" text-anchor="middle" font-family="sans-serif" font-size="9.67741935483871" opacity="1" fill="#000000">
+17:29:04
</text>
<polyline fill="none" opacity="1" stroke="#000000" stroke-width="1" points="211,62 211,67 "/>
<text x="317" y="58" dy="-0.5ex" text-anchor="middle" font-family="sans-serif" font-size="9.67741935483871" opacity="1" fill="#000000">
+31:22:24
</text>
<polyline fill="none" opacity="1" stroke="#000000" stroke-width="1" points="317,62 317,67 "/>
<text x="423" y="58" dy="-0.5ex" text-anchor="middle" font-family="sans-serif" font-size="9.67741935483871" opacity="1" fill="#000000">
+45:15:44
</text>
<polyline fill="none" opacity="1" stroke="#000000" stroke-width="1" points="423,62 423,67 "/>
<text x="528" y="58" dy="-0.5ex" text-anchor="middle" font-family="sans-serif" font-size="9.67741935483871" opacity="1" fill="#000000">
+59:09:04
</text>
<polyline fill="none" opacity="1" stroke="#000000" stroke-width="1" points="528,62 528,67 "/>
<text x="634" y="58" dy="-0.5ex" text-anchor="middle" font-family="sans-serif" font-size="9.67741935483871" opacity="1" fill="#000000">
+73:02:24
</text>
<polyline fill="none" opacity="1" stroke="#000000" stroke-width="1" points="634,62 634,67 "/>
<text x="740" y="58" dy="-0.5ex" text-anchor="middle" font-family="sans-serif" font-size="9.67741935483871" opacity="1" fill="#000000">
+86:55:44
</text>
<polyline fill="none" opacity="1" stroke="#000000" stroke-width="1" points="740,62 740,67 "/>
<text x="846" y="58" dy="-0.5ex" text-anchor="middle" font-family="sans-serif" font-size="9.67741935483871" opacity="1" fill="#000000">
+100:49:04
</text>
<polyline fill="none" opacity="1" stroke="#000000" stroke-width="1" points="846,62 846,67 "/>
<text x="952" y="58" dy="-0.5ex" text-anchor="middle" font-family="sans-serif" font-size="9.67741935483871" opacity="1" fill="#000000">
+114:42:24
</text>
<polyline fill="none" opacity="1" stroke="#000000" stroke-width="1" points="952,62 952,67 "/>
<rect x="83" y="73" width="99" height="45" opacity="0.75" fill="#FFFFFF" stroke="none"/>
<rect x="83" y="73" width="99" height="45" opacity="1" fill="none" stroke="#000000"/>
<text x="123" y="83" dy="0.76em" text-anchor="start" font-family="sans-serif" font-size="9.67741935483871" opacity="1" fill="#000000">
Temporary
</text>
<text x="123" y="98" dy="0.76em" text-anchor="start" font-family="sans-serif" font-size="9.67741935483871" opacity="1" fill="#000000">
Leaked
</text>
<rect x="93" y="83" width="10" height="10" opacity="1" fill="#3CB44B" stroke="none"/>
<rect x="93" y="98" width="10" height="10" opacity="1" fill="#E6194B" stroke="none"/>
</svg>
