<svg width="1024" height="768" viewBox="0 0 1024 768" xmlns="http://www.w3.org/2000/svg">
<rect x="0" y="0" width="1024" height="768" opacity="1" fill="#FFFFFF" stroke="none"/>
<polygon opacity="1" fill="#3CB44B" points="78,698 79,698 80,698 80,698 81,698 82,698 83,698 84,698 85,698 86,698 87,698 88,698 88,698 89,698 90,698 91,698 92,698 93,698 94,698 95,698 96,698 97,698 97,698 98,698 99,698 100,698 101,698 102,698 103,698 104,698 105,698 105,698 106,698 107,698 108,698 109,698 110,698 111,698 112,698 113,698 113,698 114,698 115,698 116,698 117,698 118,698 119,698 120,698 121,698 122,698 122,698 123,698 124,698 125,698 126,698 127,698 128,698 129,698 130,698 130,698 131,698 132,698 133,698 134,698 135,698 136,698 137,698 138,698 138,698 139,698 140,698 141,698 142,698 143,698 144,698 145,698 146,698 146,698 147,698 148,698 149,698 150,698 151,698 152,698 153,698 154,698 155,698 155,698 156,698 157,698 158,698 159,698 160,698 161,698 162,698 163,698 163,698 164,698 165,698 166,698 167,698 168,698 169,698 170,698 171,698 171,698 172,698 173,698 174,698 175,698 176,698 177,698 178,698 179,698 179,698 180,698 181,698 182,698 183,698 184,698 185,698 186,698 187,698 188,698 188,698 189,698 190,698 191,698 192,698 193,698 194,698 195,698 196,698 196,698 197,698 198,698 199,698 200,698 201,698 202,698 203,698 204,698 204,698 205,698 206,698 207,698 208,698 209,698 210,698 211,698 212,698 213,698 213,698 214,698 215,698 216,698 217,698 218,698 219,698 220,698 221,698 221,698 222,698 223,698 224,698 225,698 226,698 227,698 228,698 229,698 229,698 230,698 231,698 232,698 233,698 234,698 235,698 236,698 237,698 237,698 238,698 239,698 240,698 241,698 242,698 243,698 244,698 245,698 246,698 246,698 247,698 248,698 249,698 250,698 251,698 252,698 253,698 254,698 254,698 255,698 256,698 257,698 258,698 259,698 260,698 261,698 262,698 262,698 263,698 264,698 265,698 266,698 267,698 268,698 269,698 270,698 271,698 271,698 272,698 273,698 274,698 275,698 276,698 277,698 278,698 279,698 279,698 280,698 281,698 282,698 283,698 284,698 285,698 286,698 287,698 287,698 288,698 289,698 290,698 291,698 292,698 293,698 294,698 295,698 295,698 296,698 297,698 298,698 299,698 300,698 301,698 302,698 303,698 304,698 304,698 305,698 306,698 307,698 308,698 309,698 310,698 311,698 312,698 312,698 313,698 314,698 315,698 316,698 317,698 318,698 319,698 320,698 320,698 321,698 322,698 323,698 324,698 325,698 326,698 327,698 328,698 328,698 329,698 330,698 331,698 332,698 333,698 334,698 335,698 336,698 337,698 337,698 338,698 339,698 340,698 341,698 342,698 343,698 344,698 345,698 345,698 346,698 347,698 348,698 349,698 350,698 351,698 352,698 353,698 353,698 354,698 355,698 356,698 357,698 358,698 359,698 360,698 361,698 362,698 362,698 363,698 364,698 365,698 366,698 367,698 368,698 369,698 370,698 370,698 371,698 372,698 373,698 374,698 375,698 376,698 377,698 378,698 378,698 379,698 380,698 381,698 382,698 383,698 384,698 385,698 386,698 386,698 387,698 388,698 389,698 390,698 391,698 392,698 393,698 394,698 395,698 395,297 396,107 397,102 398,102 399,102 400,105 401,110 402,114 403,116 403,127 404,127 405,130 406,133 407,136 408,140 409,141 410,146 411,155 411,160 412,161 413,161 414,164 415,164 416,164 417,167 418,169 419,174 420,174 420,172 421,175 422,189 423,194 424,199 425,198 426,194 427,192 428,196 428,201 429,202 430,201 431,195 432,193 433,187 434,181 435,176 436,173 436,164 437,160 438,159 439,116 440,68 441,104 442,178 443,211 444,247 444,279 445,279 446,287 447,287 448,288 449,289 450,289 451,289 452,289 453,289 453,290 454,291 455,291 456,291 457,291 458,291 459,291 460,291 461,291 461,291 462,291 463,291 464,291 465,291 466,292 467,292 468,292 469,292 469,292 470,293 471,293 472,293 473,293 474,296 475,296 476,297 477,297 477,297 478,297 479,297 480,297 481,297 482,297 483,297 484,297 485,297 486,297 486,298 487,298 488,298 489,298 490,298 491,298 492,298 493,298 494,298 494,298 495,298 496,299 497,299 498,299 499,299 500,299 501,299 502,299 502,299 503,299 504,299 505,299 506,300 507,300 508,300 509,300 510,300 511,300 511,300 512,300 513,300 514,300 515,300 516,300 517,301 518,301 519,301 519,301 520,301 521,301 522,301 523,301 524,301 525,301 526,301 527,301 527,301 528,302 529,302 530,302 531,302 532,302 533,302 534,302 535,302 535,302 536,303 537,303 538,303 539,303 540,303 541,304 542,304 543,304 544,304 544,304 545,304 546,305 547,305 548,305 549,305 550,305 551,305 552,305 552,305 553,305 554,306 555,306 556,306 557,306 558,306 559,306 560,306 560,306 561,306 562,306 563,318 564,318 565,318 566,318 567,318 568,318 569,318 569,318 570,318 571,318 572,318 573,318 574,318 575,318 576,318 577,319 577,319 578,319 579,319 580,319 581,319 582,319 583,319 584,319 585,319 585,319 586,319 587,319 588,319 589,319 590,319 591,319 592,319 593,319 593,319 594,319 595,319 596,319 597,319 598,319 599,320 600,320 601,320 602,320 602,320 603,320 604,320 605,320 606,320 607,320 608,320 609,320 610,320 610,320 611,320 612,320 613,320 614,320 615,320 616,320 617,320 618,320 618,320 619,320 620,320 621,320 622,320 623,320 624,320 625,320 626,320 626,320 627,320 628,320 629,320 630,320 631,320 632,320 633,320 634,321 635,321 635,321 636,321 637,321 638,321 639,321 640,321 641,321 642,321 643,321 643,321 644,321 645,321 646,321 647,321 648,321 649,321 650,321 651,321 651,321 652,321 653,321 654,321 655,321 656,321 657,321 658,321 659,321 660,321 660,322 661,322 662,322 663,322 664,322 665,322 666,322 667,322 668,322 668,322 669,322 670,322 671,322 672,322 673,322 674,322 675,322 676,322 676,323 677,323 678,323 679,323 680,323 681,323 682,323 683,323 684,323 684,323 685,323 686,323 687,323 688,323 689,323 690,323 691,323 692,323 693,323 693,323 694,323 695,324 696,324 697,324 698,324 699,324 700,324 701,324 701,324 702,324 703,324 704,324 705,324 706,324 707,324 708,324 709,324 709,324 710,324 711,324 712,324 713,324 714,324 715,324 716,324 717,325 718,325 718,325 719,325 720,325 721,325 722,325 723,325 724,325 725,325 726,325 726,325 727,325 728,325 729,325 730,325 731,325 732,325 733,325 734,325 734,325 735,325 736,325 737,325 738,325 739,325 740,325 741,325 742,325 742,325 743,325 744,325 745,325 746,326 747,326 748,326 749,326 750,326 751,326 751,326 752,326 753,326 754,326 755,326 756,326 757,326 758,326 759,326 759,326 760,326 761,326 762,326 763,326 764,326 765,326 766,326 767,326 767,326 768,326 769,326 770,326 771,327 772,327 773,327 774,327 775,327 775,327 776,327 777,327 778,327 779,327 780,327 781,327 782,327 783,327 784,327 784,327 785,327 786,327 787,327 788,327 789,327 790,327 791,327 792,327 792,327 793,327 794,327 795,327 796,327 797,327 798,327 799,327 800,327 800,328 801,328 802,328 803,328 804,328 805,328 806,328 807,328 808,328 809,328 809,328 810,328 811,328 812,328 813,328 814,328 815,328 816,328 817,328 817,328 818,328 818,328 819,328 820,328 821,328 822,328 823,328 824,328 825,328 825,328 826,329 827,329 828,329 829,329 830,329 831,329 832,329 833,329 833,329 834,329 835,329 836,329 837,329 838,329 839,329 840,329 841,329 842,329 842,329 843,329 844,329 845,329 846,329 847,330 848,330 849,330 850,330 850,330 851,330 852,330 853,330 854,330 855,330 856,330 857,330 858,330 858,330 859,330 860,330 861,330 862,330 863,330 864,330 865,330 866,330 866,330 867,330 868,330 869,330 870,330 871,330 872,330 873,330 874,330 875,331 875,331 876,331 877,331 878,331 879,331 880,331 881,331 882,331 883,331 883,331 884,331 885,331 886,331 887,331 888,331 889,331 890,331 891,331 891,331 892,331 893,331 894,331 895,331 896,331 897,332 898,332 899,332 900,332 900,332 901,332 902,332 903,332 904,332 905,332 906,332 907,332 908,332 908,332 909,332 910,332 911,332 912,332 913,332 914,332 915,332 916,332 916,332 917,332 918,332 919,332 920,332 921,332 922,332 923,332 924,332 924,332 925,333 926,333 927,333 928,333 929,333 930,333 931,333 932,333 933,333 933,333 934,333 935,333 936,333 937,333 938,333 939,333 940,333 941,333 941,333 942,333 943,333 944,333 945,333 946,333 947,333 948,333 949,334 949,334 950,334 951,334 952,334 953,334 954,334 955,334 956,334 957,334 958,334 958,334 959,334 960,334 961,334 962,334 963,334 964,334 965,334 966,334 966,334 967,334 968,334 969,334 970,334 970,334 973,334 973,699 78,699 "/>
<polyline fill="none" opacity="1" stroke="#3CB44B" stroke-width="1" points="78,698 79,698 80,698 80,698 81,698 82,698 83,698 84,698 85,698 86,698 87,698 88,698 88,698 89,698 90,698 91,698 92,698 93,698 94,698 95,698 96,698 97,698 97,698 98,698 99,698 100,698 101,698 102,698 103,698 104,698 105,698 105,698 106,698 107,698 108,698 109,698 110,698 111,698 112,698 113,698 113,698 114,698 115,698 116,698 117,698 118,698 119,698 120,698 121,698 122,698 122,698 123,698 124,698 125,698 126,698 127,698 128,698 129,698 130,698 130,698 131,698 132,698 133,698 134,698 135,698 136,698 137,698 138,698 138,698 139,698 140,698 141,698 142,698 143,698 144,698 145,698 146,698 146,698 147,698 148,698 149,698 150,698 151,698 152,698 153,698 154,698 155,698 155,698 156,698 157,698 158,698 159,698 160,698 161,698 162,698 163,698 163,698 164,698 165,698 166,698 167,698 168,698 169,698 170,698 171,698 171,698 172,698 173,698 174,698 175,698 176,698 177,698 178,698 179,698 179,698 180,698 181,698 182,698 183,698 184,698 185,698 186,698 187,698 188,698 188,698 189,698 190,698 191,698 192,698 193,698 194,698 195,698 196,698 196,698 197,698 198,698 199,698 200,698 201,698 202,698 203,698 204,698 204,698 205,698 206,698 207,698 208,698 209,698 210,698 211,698 212,698 213,698 213,698 214,698 215,698 216,698 217,698 218,698 219,698 220,698 221,698 221,698 222,698 223,698 224,698 225,698 226,698 227,698 228,698 229,698 229,698 230,698 231,698 232,698 233,698 234,698 235,698 236,698 237,698 237,698 238,698 239,698 240,698 241,698 242,698 243,698 244,698 245,698 246,698 246,698 247,698 248,698 249,698 250,698 251,698 252,698 253,698 254,698 254,698 255,698 256,698 257,698 258,698 259,698 260,698 261,698 262,698 262,698 263,698 264,698 265,698 266,698 267,698 268,698 269,698 270,698 271,698 271,698 272,698 273,698 274,698 275,698 276,698 277,698 278,698 279,698 279,698 280,698 281,698 282,698 283,698 284,698 285,698 286,698 287,698 287,698 288,698 289,698 290,698 291,698 292,698 293,698 294,698 295,698 295,698 296,698 297,698 298,698 299,698 300,698 301,698 302,698 303,698 304,698 304,698 305,698 306,698 307,698 308,698 309,698 310,698 311,698 312,698 312,698 313,698 314,698 315,698 316,698 317,698 318,698 319,698 320,698 320,698 321,698 322,698 323,698 324,698 325,698 326,698 327,698 328,698 328,698 329,698 330,698 331,698 332,698 333,698 334,698 335,698 336,698 337,698 337,698 338,698 339,698 340,698 341,698 342,698 343,698 344,698 345,698 345,698 346,698 347,698 348,698 349,698 350,698 351,698 352,698 353,698 353,698 354,698 355,698 356,698 357,698 358,698 359,698 360,698 361,698 362,698 362,698 363,698 364,698 365,698 366,698 367,698 368,698 369,698 370,698 370,698 371,698 372,698 373,698 374,698 375,698 376,698 377,698 378,698 378,698 379,698 380,698 381,698 382,698 383,698 384,698 385,698 386,698 386,698 387,698 388,698 389,698 390,698 391,698 392,698 393,698 394,698 395,698 395,297 396,107 397,102 398,102 399,102 400,105 401,110 402,114 403,116 403,127 404,127 405,130 406,133 407,136 408,140 409,141 410,146 411,155 411,160 412,161 413,161 414,164 415,164 416,164 417,167 418,169 419,174 420,174 420,172 421,175 422,189 423,194 424,199 425,198 426,194 427,192 428,196 428,201 429,202 430,201 431,195 432,193 433,187 434,181 435,176 436,173 436,164 437,160 438,159 439,116 440,68 441,104 442,178 443,211 444,247 444,279 445,279 446,287 447,287 448,288 449,289 450,289 451,289 452,289 453,289 453,290 454,291 455,291 456,291 457,291 458,291 459,291 460,291 461,291 461,291 462,291 463,291 464,291 465,291 466,292 467,292 468,292 469,292 469,292 470,293 471,293 472,293 473,293 474,296 475,296 476,297 477,297 477,297 478,297 479,297 480,297 481,297 482,297 483,297 484,297 485,297 486,297 486,298 487,298 488,298 489,298 490,298 491,298 492,298 493,298 494,298 494,298 495,298 496,299 497,299 498,299 499,299 500,299 501,299 502,299 502,299 503,299 504,299 505,299 506,300 507,300 508,300 509,300 510,300 511,300 511,300 512,300 513,300 514,300 515,300 516,300 517,301 518,301 519,301 519,301 520,301 521,301 522,301 523,301 524,301 525,301 526,301 527,301 527,301 528,302 529,302 530,302 531,302 532,302 533,302 534,302 535,302 535,302 536,303 537,303 538,303 539,303 540,303 541,304 542,304 543,304 544,304 544,304 545,304 546,305 547,305 548,305 549,305 550,305 551,305 552,305 552,305 553,305 554,306 555,306 556,306 557,306 558,306 559,306 560,306 560,306 561,306 562,306 563,318 564,318 565,318 566,318 567,318 568,318 569,318 569,318 570,318 571,318 572,318 573,318 574,318 575,318 576,318 577,319 577,319 578,319 579,319 580,319 581,319 582,319 583,319 584,319 585,319 585,319 586,319 587,319 588,319 589,319 590,319 591,319 592,319 593,319 593,319 594,319 595,319 596,319 597,319 598,319 599,320 600,320 601,320 602,320 602,320 603,320 604,320 605,320 606,320 607,320 608,320 609,320 610,320 610,320 611,320 612,320 613,320 614,320 615,320 616,320 617,320 618,320 618,320 619,320 620,320 621,320 622,320 623,320 624,320 625,320 626,320 626,320 627,320 628,320 629,320 630,320 631,320 632,320 633,320 634,321 635,321 635,321 636,321 637,321 638,321 639,321 640,321 641,321 642,321 643,321 643,321 644,321 645,321 646,321 647,321 648,321 649,321 650,321 651,321 651,321 652,321 653,321 654,321 655,321 656,321 657,321 658,321 659,321 660,321 660,322 661,322 662,322 663,322 664,322 665,322 666,322 667,322 668,322 668,322 669,322 670,322 671,322 672,322 673,322 674,322 675,322 676,322 676,323 677,323 678,323 679,323 680,323 681,323 682,323 683,323 684,323 684,323 685,323 686,323 687,323 688,323 689,323 690,323 691,323 692,323 693,323 693,323 694,323 695,324 696,324 697,324 698,324 699,324 700,324 701,324 701,324 702,324 703,324 704,324 705,324 706,324 707,324 708,324 709,324 709,324 710,324 711,324 712,324 713,324 714,324 715,324 716,324 717,325 718,325 718,325 719,325 720,325 721,325 722,325 723,325 724,325 725,325 726,325 726,325 727,325 728,325 729,325 730,325 731,325 732,325 733,325 734,325 734,325 735,325 736,325 737,325 738,325 739,325 740,325 741,325 742,325 742,325 743,325 744,325 745,325 746,326 747,326 748,326 749,326 750,326 751,326 751,326 752,326 753,326 754,326 755,326 756,326 757,326 758,326 759,326 759,326 760,326 761,326 762,326 763,326 764,326 765,326 766,326 767,326 767,326 768,326 769,326 770,326 771,327 772,327 773,327 774,327 775,327 775,327 776,327 777,327 778,327 779,327 780,327 781,327 782,327 783,327 784,327 784,327 785,327 786,327 787,327 788,327 789,327 790,327 791,327 792,327 792,327 793,327 794,327 795,327 796,327 797,327 798,327 799,327 800,327 800,328 801,328 802,328 803,328 804,328 805,328 806,328 807,328 808,328 809,328 809,328 810,328 811,328 812,328 813,328 814,328 815,328 816,328 817,328 817,328 818,328 818,328 819,328 820,328 821,328 822,328 823,328 824,328 825,328 825,328 826,329 827,329 828,329 829,329 830,329 831,329 832,329 833,329 833,329 834,329 835,329 836,329 837,329 838,329 839,329 840,329 841,329 842,329 842,329 843,329 844,329 845,329 846,329 847,330 848,330 849,330 850,330 850,330 851,330 852,330 853,330 854,330 855,330 856,330 857,330 858,330 858,330 859,330 860,330 861,330 862,330 863,330 864,330 865,330 866,330 866,330 867,330 868,330 869,330 870,330 871,330 872,330 873,330 874,330 875,331 875,331 876,331 877,331 878,331 879,331 880,331 881,331 882,331 883,331 883,331 884,331 885,331 886,331 887,331 888,331 889,331 890,331 891,331 891,331 892,331 893,331 894,331 895,331 896,331 897,332 898,332 899,332 900,332 900,332 901,332 902,332 903,332 904,332 905,332 906,332 907,332 908,332 908,332 909,332 910,332 911,332 912,332 913,332 914,332 915,332 916,332 916,332 917,332 918,332 919,332 920,332 921,332 922,332 923,332 924,332 924,332 925,333 926,333 927,333 928,333 929,333 930,333 931,333 932,333 933,333 933,333 934,333 935,333 936,333 937,333 938,333 939,333 940,333 941,333 941,333 942,333 943,333 944,333 945,333 946,333 947,333 948,333 949,334 949,334 950,334 951,334 952,334 953,334 954,334 955,334 956,334 957,334 958,334 958,334 959,334 960,334 961,334 962,334 963,334 964,334 965,334 966,334 966,334 967,334 968,334 969,334 970,334 970,334 973,334 "/>
<polygon opacity="1" fill="#E6194B" points="78,699 79,699 80,699 80,699 81,699 82,699 83,699 84,699 85,699 86,699 87,699 88,699 88,699 89,699 90,699 91,699 92,699 93,699 94,699 95,699 96,699 97,699 97,699 98,699 99,699 100,699 101,699 102,699 103,699 104,699 105,699 105,699 106,699 107,699 108,699 109,699 110,699 111,699 112,699 113,699 113,699 114,699 115,699 116,699 117,699 118,699 119,699 120,699 121,699 122,699 122,699 123,699 124,699 125,699 126,699 127,699 128,699 129,699 130,699 130,699 131,699 132,699 133,699 134,699 135,699 136,699 137,699 138,699 138,699 139,699 140,699 141,699 142,699 143,699 144,699 145,699 146,699 146,699 147,699 148,699 149,699 150,699 151,699 152,699 153,699 154,699 155,699 155,699 156,699 157,699 158,699 159,699 160,699 161,699 162,699 163,699 163,699 164,699 165,699 166,699 167,699 168,699 169,699 170,699 171,699 171,699 172,699 173,699 174,699 175,699 176,699 177,699 178,699 179,699 179,699 180,699 181,699 182,699 183,699 184,699 185,699 186,699 187,699 188,699 188,699 189,699 190,699 191,699 192,699 193,699 194,699 195,699 196,699 196,699 197,699 198,699 199,699 200,699 201,699 202,699 203,699 204,699 204,699 205,699 206,699 207,699 208,699 209,699 210,699 211,699 212,699 213,699 213,699 214,699 215,699 216,699 217,699 218,699 219,699 220,699 221,699 221,699 222,699 223,699 224,699 225,699 226,699 227,699 228,699 229,699 229,699 230,699 231,699 232,699 233,699 234,699 235,699 236,699 237,699 237,699 238,699 239,699 240,699 241,699 242,699 243,699 244,699 245,699 246,699 246,699 247,699 248,699 249,699 250,699 251,699 252,699 253,699 254,699 254,699 255,699 256,699 257,699 258,699 259,699 260,699 261,699 262,699 262,699 263,699 264,699 265,699 266,699 267,699 268,699 269,699 270,699 271,699 271,699 272,699 273,699 274,699 275,699 276,699 277,699 278,699 279,699 279,699 280,699 281,699 282,699 283,699 284,699 285,699 286,699 287,699 287,699 288,699 289,699 290,699 291,699 292,699 293,699 294,699 295,699 295,699 296,699 297,699 298,699 299,699 300,699 301,699 302,699 303,699 304,699 304,699 305,699 306,699 307,699 308,699 309,699 310,699 311,699 312,699 312,699 313,699 314,699 315,699 316,699 317,699 318,699 319,699 320,699 320,699 321,699 322,699 323,699 324,699 325,699 326,699 327,699 328,699 328,699 329,699 330,699 331,699 332,699 333,699 334,699 335,699 336,699 337,699 337,699 338,699 339,699 340,699 341,699 342,699 343,699 344,699 345,699 345,699 346,699 347,699 348,699 349,699 350,699 351,699 352,699 353,699 353,699 354,699 355,699 356,699 357,699 358,699 359,699 360,699 361,699 362,699 362,699 363,699 364,699 365,699 366,699 367,699 368,699 369,699 370,699 370,699 371,699 372,699 373,699 374,699 375,699 376,699 377,699 378,699 378,699 379,699 380,699 381,699 382,699 383,699 384,699 385,699 386,699 386,699 387,699 388,699 389,699 390,699 391,699 392,699 393,699 394,699 395,699 395,699 396,699 397,699 398,699 399,699 400,699 401,699 402,699 403,699 403,699 404,699 405,699 406,699 407,699 408,699 409,699 410,699 411,699 411,699 412,699 413,699 414,699 415,699 416,699 417,699 418,699 419,699 420,699 420,698 421,698 422,698 423,698 424,698 425,698 426,698 427,698 428,698 428,698 429,697 430,696 431,696 432,694 433,692 434,689 435,684 436,676 436,663 437,648 438,632 439,570 440,457 441,381 442,359 443,346 444,336 444,335 445,335 446,335 447,335 448,335 449,335 450,335 451,335 452,335 453,335 453,335 454,335 455,335 456,335 457,335 458,335 459,335 460,335 461,335 461,335 462,335 463,335 464,335 465,335 466,335 467,335 468,335 469,335 469,335 470,335 471,335 472,335 473,335 474,335 475,335 476,335 477,335 477,335 478,335 479,335 480,335 481,335 482,335 483,335 484,335 485,335 486,335 486,335 487,335 488,335 489,335 490,335 491,335 492,335 493,335 494,335 494,335 495,335 496,335 497,335 498,335 499,335 500,335 501,335 502,335 502,335 503,335 504,335 505,335 506,335 507,335 508,335 509,335 510,335 511,335 511,335 512,335 513,335 514,335 515,335 516,335 517,335 518,335 519,335 519,335 520,335 521,335 522,335 523,335 524,335 525,335 526,335 527,335 527,335 528,335 529,335 530,335 531,335 532,335 533,335 534,335 535,335 535,335 536,335 537,335 538,335 539,335 540,335 541,335 542,335 543,335 544,335 544,335 545,335 546,335 547,335 548,335 549,335 550,335 551,335 552,335 552,335 553,335 554,335 555,335 556,335 557,335 558,335 559,335 560,335 560,335 561,335 562,335 563,335 564,335 565,335 566,335 567,335 568,335 569,335 569,335 570,335 571,335 572,335 573,335 574,335 575,335 576,335 577,335 577,335 578,335 579,335 580,335 581,335 582,335 583,335 584,335 585,335 585,335 586,335 587,335 588,335 589,335 590,335 591,335 592,335 593,335 593,335 594,335 595,335 596,335 597,335 598,335 599,335 600,335 601,335 602,335 602,335 603,335 604,335 605,335 606,335 607,335 608,335 609,335 610,335 610,335 611,335 612,335 613,335 614,335 615,335 616,335 617,335 618,335 618,335 619,335 620,335 621,335 622,335 623,335 624,335 625,335 626,335 626,335 627,335 628,335 629,335 630,335 631,335 632,335 633,335 634,335 635,335 635,335 636,335 637,335 638,335 639,335 640,335 641,335 642,335 643,335 643,335 644,335 645,335 646,335 647,335 648,335 649,335 650,335 651,335 651,335 652,335 653,335 654,335 655,335 656,335 657,335 658,335 659,335 660,335 660,335 661,335 662,335 663,335 664,335 665,335 666,335 667,335 668,335 668,335 669,335 670,335 671,335 672,335 673,335 674,335 675,335 676,335 676,335 677,335 678,335 679,335 680,335 681,335 682,335 683,335 684,335 684,335 685,335 686,335 687,335 688,335 689,335 690,335 691,335 692,335 693,335 693,335 694,335 695,335 696,335 697,335 698,335 699,335 700,335 701,335 701,335 702,335 703,335 704,335 705,335 706,335 707,335 708,335 709,335 709,335 710,335 711,335 712,335 713,335 714,335 715,335 716,335 717,335 718,335 718,335 719,335 720,335 721,335 722,335 723,335 724,335 725,335 726,335 726,335 727,335 728,335 729,335 730,335 731,335 732,335 733,335 734,335 734,335 735,335 736,335 737,335 738,335 739,335 740,335 741,335 742,335 742,335 743,335 744,335 745,335 746,335 747,335 748,335 749,335 750,335 751,335 751,335 752,335 753,335 754,335 755,335 756,335 757,335 758,335 759,335 759,335 760,335 761,335 762,335 763,335 764,335 765,335 766,335 767,335 767,335 768,335 769,335 770,335 771,335 772,335 773,335 774,335 775,335 775,335 776,335 777,335 778,335 779,335 780,335 781,335 782,335 783,335 784,335 784,335 785,335 786,335 787,335 788,335 789,335 790,335 791,335 792,335 792,335 793,335 794,335 795,335 796,335 797,335 798,335 799,335 800,335 800,335 801,335 802,335 803,335 804,335 805,335 806,335 807,335 808,335 809,335 809,335 810,335 811,335 812,335 813,335 814,335 815,335 816,335 817,335 817,335 818,334 818,334 819,334 820,334 821,334 822,334 823,334 824,334 825,334 825,334 826,334 827,334 828,334 829,334 830,334 831,334 832,334 833,334 833,334 834,334 835,334 836,334 837,334 838,334 839,334 840,334 841,334 842,334 842,334 843,334 844,334 845,334 846,334 847,334 848,334 849,334 850,334 850,334 851,334 852,334 853,334 854,334 855,334 856,334 857,334 858,334 858,334 859,334 860,334 861,334 862,334 863,334 864,334 865,334 866,334 866,334 867,334 868,334 869,334 870,334 871,334 872,334 873,334 874,334 875,334 875,334 876,334 877,334 878,334 879,334 880,334 881,334 882,334 883,334 883,334 884,334 885,334 886,334 887,334 888,334 889,334 890,334 891,334 891,334 892,334 893,334 894,334 895,334 896,334 897,334 898,334 899,334 900,334 900,334 901,334 902,334 903,334 904,334 905,334 906,334 907,334 908,334 908,334 909,334 910,334 911,334 912,334 913,334 914,334 915,334 916,334 916,334 917,334 918,334 919,334 920,334 921,334 922,334 923,334 924,334 924,334 925,334 926,334 927,334 928,334 929,334 930,334 931,334 932,334 933,334 933,334 934,334 935,334 936,334 937,334 938,334 939,334 940,334 941,334 941,334 942,334 943,334 944,334 945,334 946,334 947,334 948,334 949,334 949,334 950,334 951,334 952,334 953,334 954,334 955,334 956,334 957,334 958,334 958,334 959,334 960,334 961,334 962,334 963,334 964,334 965,334 966,334 966,334 967,334 968,334 969,334 970,334 970,334 973,334 973,699 78,699 "/>
<polyline fill="none" opacity="1" stroke="#E6194B" stroke-width="1" points="78,699 79,699 80,699 80,699 81,699 82,699 83,699 84,699 85,699 86,699 87,699 88,699 88,699 89,699 90,699 91,699 92,699 93,699 94,699 95,699 96,699 97,699 97,699 98,699 99,699 100,699 101,699 102,699 103,699 104,699 105,699 105,699 106,699 107,699 108,699 109,699 110,699 111,699 112,699 113,699 113,699 114,699 115,699 116,699 117,699 118,699 119,699 120,699 121,699 122,699 122,699 123,699 124,699 125,699 126,699 127,699 128,699 129,699 130,699 130,699 131,699 132,699 133,699 134,699 135,699 136,699 137,699 138,699 138,699 139,699 140,699 141,699 142,699 143,699 144,699 145,699 146,699 146,699 147,699 148,699 149,699 150,699 151,699 152,699 153,699 154,699 155,699 155,699 156,699 157,699 158,699 159,699 160,699 161,699 162,699 163,699 163,699 164,699 165,699 166,699 167,699 168,699 169,699 170,699 171,699 171,699 172,699 173,699 174,699 175,699 176,699 177,699 178,699 179,699 179,699 180,699 181,699 182,699 183,699 184,699 185,699 186,699 187,699 188,699 188,699 189,699 190,699 191,699 192,699 193,699 194,699 195,699 196,699 196,699 197,699 198,699 199,699 200,699 201,699 202,699 203,699 204,699 204,699 205,699 206,699 207,699 208,699 209,699 210,699 211,699 212,699 213,699 213,699 214,699 215,699 216,699 217,699 218,699 219,699 220,699 221,699 221,699 222,699 223,699 224,699 225,699 226,699 227,699 228,699 229,699 229,699 230,699 231,699 232,699 233,699 234,699 235,699 236,699 237,699 237,699 238,699 239,699 240,699 241,699 242,699 243,699 244,699 245,699 246,699 246,699 247,699 248,699 249,699 250,699 251,699 252,699 253,699 254,699 254,699 255,699 256,699 257,699 258,699 259,699 260,699 261,699 262,699 262,699 263,699 264,699 265,699 266,699 267,699 268,699 269,699 270,699 271,699 271,699 272,699 273,699 274,699 275,699 276,699 277,699 278,699 279,699 279,699 280,699 281,699 282,699 283,699 284,699 285,699 286,699 287,699 287,699 288,699 289,699 290,699 291,699 292,699 293,699 294,699 295,699 295,699 296,699 297,699 298,699 299,699 300,699 301,699 302,699 303,699 304,699 304,699 305,699 306,699 307,699 308,699 309,699 310,699 311,699 312,699 312,699 313,699 314,699 315,699 316,699 317,699 318,699 319,699 320,699 320,699 321,699 322,699 323,699 324,699 325,699 326,699 327,699 328,699 328,699 329,699 330,699 331,699 332,699 333,699 334,699 335,699 336,699 337,699 337,699 338,699 339,699 340,699 341,699 342,699 343,699 344,699 345,699 345,699 346,699 347,699 348,699 349,699 350,699 351,699 352,699 353,699 353,699 354,699 355,699 356,699 357,699 358,699 359,699 360,699 361,699 362,699 362,699 363,699 364,699 365,699 366,699 367,699 368,699 369,699 370,699 370,699 371,699 372,699 373,699 374,699 375,699 376,699 377,699 378,699 378,699 379,699 380,699 381,699 382,699 383,699 384,699 385,699 386,699 386,699 387,699 388,699 389,699 390,699 391,699 392,699 393,699 394,699 395,699 395,699 396,699 397,699 398,699 399,699 400,699 401,699 402,699 403,699 403,699 404,699 405,699 406,699 407,699 408,699 409,699 410,699 411,699 411,699 412,699 413,699 414,699 415,699 416,699 417,699 418,699 419,699 420,699 420,698 421,698 422,698 423,698 424,698 425,698 426,698 427,698 428,698 428,698 429,697 430,696 431,696 432,694 433,692 434,689 435,684 436,676 436,663 437,648 438,632 439,570 440,457 441,381 442,359 443,346 444,336 444,335 445,335 446,335 447,335 448,335 449,335 450,335 451,335 452,335 453,335 453,335 454,335 455,335 456,335 457,335 458,335 459,335 460,335 461,335 461,335 462,335 463,335 464,335 465,335 466,335 467,335 468,335 469,335 469,335 470,335 471,335 472,335 473,335 474,335 475,335 476,335 477,335 477,335 478,335 479,335 480,335 481,335 482,335 483,335 484,335 485,335 486,335 486,335 487,335 488,335 489,335 490,335 491,335 492,335 493,335 494,335 494,335 495,335 496,335 497,335 498,335 499,335 500,335 501,335 502,335 502,335 503,335 504,335 505,335 506,335 507,335 508,335 509,335 510,335 511,335 511,335 512,335 513,335 514,335 515,335 516,335 517,335 518,335 519,335 519,335 520,335 521,335 522,335 523,335 524,335 525,335 526,335 527,335 527,335 528,335 529,335 530,335 531,335 532,335 533,335 534,335 535,335 535,335 536,335 537,335 538,335 539,335 540,335 541,335 542,335 543,335 544,335 544,335 545,335 546,335 547,335 548,335 549,335 550,335 551,335 552,335 552,335 553,335 554,335 555,335 556,335 557,335 558,335 559,335 560,335 560,335 561,335 562,335 563,335 564,335 565,335 566,335 567,335 568,335 569,335 569,335 570,335 571,335 572,335 573,335 574,335 575,335 576,335 577,335 577,335 578,335 579,335 580,335 581,335 582,335 583,335 584,335 585,335 585,335 586,335 587,335 588,335 589,335 590,335 591,335 592,335 593,335 593,335 594,335 595,335 596,335 597,335 598,335 599,335 600,335 601,335 602,335 602,335 603,335 604,335 605,335 606,335 607,335 608,335 609,335 610,335 610,335 611,335 612,335 613,335 614,335 615,335 616,335 617,335 618,335 618,335 619,335 620,335 621,335 622,335 623,335 624,335 625,335 626,335 626,335 627,335 628,335 629,335 630,335 631,335 632,335 633,335 634,335 635,335 635,335 636,335 637,335 638,335 639,335 640,335 641,335 642,335 643,335 643,335 644,335 645,335 646,335 647,335 648,335 649,335 650,335 651,335 651,335 652,335 653,335 654,335 655,335 656,335 657,335 658,335 659,335 660,335 660,335 661,335 662,335 663,335 664,335 665,335 666,335 667,335 668,335 668,335 669,335 670,335 671,335 672,335 673,335 674,335 675,335 676,335 676,335 677,335 678,335 679,335 680,335 681,335 682,335 683,335 684,335 684,335 685,335 686,335 687,335 688,335 689,335 690,335 691,335 692,335 693,335 693,335 694,335 695,335 696,335 697,335 698,335 699,335 700,335 701,335 701,335 702,335 703,335 704,335 705,335 706,335 707,335 708,335 709,335 709,335 710,335 711,335 712,335 713,335 714,335 715,335 716,335 717,335 718,335 718,335 719,335 720,335 721,335 722,335 723,335 724,335 725,335 726,335 726,335 727,335 728,335 729,335 730,335 731,335 732,335 733,335 734,335 734,335 735,335 736,335 737,335 738,335 739,335 740,335 741,335 742,335 742,335 743,335 744,335 745,335 746,335 747,335 748,335 749,335 750,335 751,335 751,335 752,335 753,335 754,335 755,335 756,335 757,335 758,335 759,335 759,335 760,335 761,335 762,335 763,335 764,335 765,335 766,335 767,335 767,335 768,335 769,335 770,335 771,335 772,335 773,335 774,335 775,335 775,335 776,335 777,335 778,335 779,335 780,335 781,335 782,335 783,335 784,335 784,335 785,335 786,335 787,335 788,335 789,335 790,335 791,335 792,335 792,335 793,335 794,335 795,335 796,335 797,335 798,335 799,335 800,335 800,335 801,335 802,335 803,335 804,335 805,335 806,335 807,335 808,335 809,335 809,335 810,335 811,335 812,335 813,335 814,335 815,335 816,335 817,335 817,335 818,334 818,334 819,334 820,334 821,334 822,334 823,334 824,334 825,334 825,334 826,334 827,334 828,334 829,334 830,334 831,334 832,334 833,334 833,334 834,334 835,334 836,334 837,334 838,334 839,334 840,334 841,334 842,334 842,334 843,334 844,334 845,334 846,334 847,334 848,334 849,334 850,334 850,334 851,334 852,334 853,334 854,334 855,334 856,334 857,334 858,334 858,334 859,334 860,334 861,334 862,334 863,334 864,334 865,334 866,334 866,334 867,334 868,334 869,334 870,334 871,334 872,334 873,334 874,334 875,334 875,334 876,334 877,334 878,334 879,334 880,334 881,334 882,334 883,334 883,334 884,334 885,334 886,334 887,334 888,334 889,334 890,334 891,334 891,334 892,334 893,334 894,334 895,334 896,334 897,334 898,334 899,334 900,334 900,334 901,334 902,334 903,334 904,334 905,334 906,334 907,334 908,334 908,334 909,334 910,334 911,334 912,334 913,334 914,334 915,334 916,334 916,334 917,334 918,334 919,334 920,334 921,334 922,334 923,334 924,334 924,334 925,334 926,334 927,334 928,334 929,334 930,334 931,334 932,334 933,334 933,334 934,334 935,334 936,334 937,334 938,334 939,334 940,334 941,334 941,334 942,334 943,334 944,334 945,334 946,334 947,334 948,334 949,334 949,334 950,334 951,334 952,334 953,334 954,334 955,334 956,334 957,334 958,334 958,334 959,334 960,334 961,334 962,334 963,334 964,334 965,334 966,334 966,334 967,334 968,334 969,334 970,334 970,334 973,334 "/>
<line opacity="0.1" stroke="#000000" stroke-width="1" x1="84" y1="699" x2="84" y2="68"/>
<line opacity="0.1" stroke="#000000" stroke-width="1" x1="95" y1="699" x2="95" y2="68"/>
<line opacity="0.1" stroke="#000000" stroke-width="1" x1="106" y1="699" x2="106" y2="68"/>
<line opacity="0.1" stroke="#000000" stroke-width="1" x1="118" y1="699" x2="118" y2="68"/>
<line opacity="0.1" stroke="#000000" stroke-width="1" x1="129" y1="699" x2="129" y2="68"/>
<line opacity="0.1" stroke="#000000" stroke-width="1" x1="140" y1="699" x2="140" y2="68"/>
<line opacity="0.1" stroke="#000000" stroke-width="1" x1="151" y1="699" x2="151" y2="68"/>
<line opacity="0.1" stroke="#000000" stroke-width="1" x1="162" y1="699" x2="162" y2="68"/>
<line opacity="0.1" stroke="#000000" stroke-width="1" x1="174" y1="699" x2="174" y2="68"/>
<line opacity="0.1" stroke="#000000" stroke-width="1" x1="185" y1="699" x2="185" y2="68"/>
<line opacity="0.1" stroke="#000000" stroke-width="1" x1="196" y1="699" x2="196" y2="68"/>
<line opacity="0.1" stroke="#000000" stroke-width="1" x1="207" y1="699" x2="207" y2="68"/>
<line opacity="0.1" stroke="#000000" stroke-width="1" x1="218" y1="699" x2="218" y2="68"/>
<line opacity="0.1" stroke="#000000" stroke-width="1" x1="229" y1="699" x2="229" y2="68"/>
<line opacity="0.1" stroke="#000000" stroke-width="1" x1="241" y1="699" x2="241" y2="68"/>
<line opacity="0.1" stroke="#000000" stroke-width="1" x1="252" y1="699" x2="252" y2="68"/>
<line opacity="0.1" stroke="#000000" stroke-width="1" x1="263" y1="699" x2="263" y2="68"/>
<line opacity="0.1" stroke="#000000" stroke-width="1" x1="274" y1="699" x2="274" y2="68"/>
<line opacity="0.1" stroke="#000000" stroke-width="1" x1="285" y1="699" x2="285" y2="68"/>
<line opacity="0.1" stroke="#000000" stroke-width="1" x1="297" y1="699" x2="297" y2="68"/>
<line opacity="0.1" stroke="#000000" stroke-width="1" x1="308" y1="699" x2="308" y2="68"/>
<line opacity="0.1" stroke="#000000" stroke-width="1" x1="319" y1="699" x2="319" y2="68"/>
<line opacity="0.1" stroke="#000000" stroke-width="1" x1="330" y1="699" x2="330" y2="68"/>
<line opacity="0.1" stroke="#000000" stroke-width="1" x1="341" y1="699" x2="341" y2="68"/>
<line opacity="0.1" stroke="#000000" stroke-width="1" x1="352" y1="699" x2="352" y2="68"/>
<line opacity="0.1" stroke="#000000" stroke-width="1" x1="364" y1="699" x2="364" y2="68"/>
<line opacity="0.1" stroke="#000000" stroke-width="1" x1="375" y1="699" x2="375" y2="68"/>
<line opacity="0.1" stroke="#000000" stroke-width="1" x1="386" y1="699" x2="386" y2="68"/>
<line opacity="0.1" stroke="#000000" stroke-width="1" x1="397" y1="699" x2="397" y2="68"/>
<line opacity="0.1" stroke="#000000" stroke-width="1" x1="408" y1="699" x2="408" y2="68"/>
<line opacity="0.1" stroke="#000000" stroke-width="1" x1="420" y1="699" x2="420" y2="68"/>
<line opacity="0.1" stroke="#000000" stroke-width="1" x1="431" y1="699" x2="431" y2="68"/>
<line opacity="0.1" stroke="#000000" stroke-width="1" x1="442" y1="699" x2="442" y2="68"/>
<line opacity="0.1" stroke="#000000" stroke-width="1" x1="453" y1="699" x2="453" y2="68"/>
<line opacity="0.1" stroke="#000000" stroke-width="1" x1="464" y1="699" x2="464" y2="68"/>
<line opacity="0.1" stroke="#000000" stroke-width="1" x1="476" y1="699" x2="476" y2="68"/>
<line opacity="0.1" stroke="#000000" stroke-width="1" x1="487" y1="699" x2="487" y2="68"/>
<line opacity="0.1" stroke="#000000" stroke-width="1" x1="498" y1="699" x2="498" y2="68"/>
<line opacity="0.1" stroke="#000000" stroke-width="1" x1="509" y1="699" x2="509" y2="68"/>
<line opacity="0.1" stroke="#000000" stroke-width="1" x1="520" y1="699" x2="520" y2="68"/>
<line opacity="0.1" stroke="#000000" stroke-width="1" x1="531" y1="699" x2="531" y2="68"/>
<line opacity="0.1" stroke="#000000" stroke-width="1" x1="543" y1="699" x2="543" y2="68"/>
<line opacity="0.1" stroke="#000000" stroke-width="1" x1="554" y1="699" x2="554" y2="68"/>
<line opacity="0.1" stroke="#000000" stroke-width="1" x1="565" y1="699" x2="565" y2="68"/>
<line opacity="0.1" stroke="#000000" stroke-width="1" x1="576" y1="699" x2="576" y2="68"/>
<line opacity="0.1" stroke="#000000" stroke-width="1" x1="587" y1="699" x2="587" y2="68"/>
<line opacity="0.1" stroke="#000000" stroke-width="1" x1="599" y1="699" x2="599" y2="68"/>
<line opacity="0.1" stroke="#000000" stroke-width="1" x1="610" y1="699" x2="610" y2="68"/>
<line opacity="0.1" stroke="#000000" stroke-width="1" x1="621" y1="699" x2="621" y2="68"/>
<line opacity="0.1" stroke="#000000" stroke-width="1" x1="632" y1="699" x2="632" y2="68"/>
<line opacity="0.1" stroke="#000000" stroke-width="1" x1="643" y1="699" x2="643" y2="68"/>
<line opacity="0.1" stroke="#000000" stroke-width="1" x1="654" y1="699" x2="654" y2="68"/>
<line opacity="0.1" stroke="#000000" stroke-width="1" x1="666" y1="699" x2="666" y2="68"/>
<line opacity="0.1" stroke="#000000" stroke-width="1" x1="677" y1="699" x2="677" y2="68"/>
<line opacity="0.1" stroke="#000000" stroke-width="1" x1="688" y1="699" x2="688" y2="68"/>
<line opacity="0.1" stroke="#000000" stroke-width="1" x1="699" y1="699" x2="699" y2="68"/>
<line opacity="0.1" stroke="#000000" stroke-width="1" x1="710" y1="699" x2="710" y2="68"/>
<line opacity="0.1" stroke="#000000" stroke-width="1" x1="722" y1="699" x2="722" y2="68"/>
<line opacity="0.1" stroke="#000000" stroke-width="1" x1="733" y1="699" x2="733" y2="68"/>
<line opacity="0.1" stroke="#000000" stroke-width="1" x1="744" y1="699" x2="744" y2="68"/>
<line opacity="0.1" stroke="#000000" stroke-width="1" x1="755" y1="699" x2="755" y2="68"/>
<line opacity="0.1" stroke="#000000" stroke-width="1" x1="766" y1="699" x2="766" y2="68"/>
<line opacity="0.1" stroke="#000000" stroke-width="1" x1="777" y1="699" x2="777" y2="68"/>
<line opacity="0.1" stroke="#000000" stroke-width="1" x1="789" y1="699" x2="789" y2="68"/>
<line opacity="0.1" stroke="#000000" stroke-width="1" x1="800" y1="699" x2="800" y2="68"/>
<line opacity="0.1" stroke="#000000" stroke-width="1" x1="811" y1="699" x2="811" y2="68"/>
<line opacity="0.1" stroke="#000000" stroke-width="1" x1="822" y1="699" x2="822" y2="68"/>
<line opacity="0.1" stroke="#000000" stroke-width="1" x1="833" y1="699" x2="833" y2="68"/>
<line opacity="0.1" stroke="#000000" stroke-width="1" x1="845" y1="699" x2="845" y2="68"/>
<line opacity="0.1" stroke="#000000" stroke-width="1" x1="856" y1="699" x2="856" y2="68"/>
<line opacity="0.1" stroke="#000000" stroke-width="1" x1="867" y1="699" x2="867" y2="68"/>
<line opacity="0.1" stroke="#000000" stroke-width="1" x1="878" y1="699" x2="878" y2="68"/>
<line opacity="0.1" stroke="#000000" stroke-width="1" x1="889" y1="699" x2="889" y2="68"/>
<line opacity="0.1" stroke="#000000" stroke-width="1" x1="900" y1="699" x2="900" y2="68"/>
<line opacity="0.1" stroke="#000000" stroke-width="1" x1="912" y1="699" x2="912" y2="68"/>
<line opacity="0.1" stroke="#000000" stroke-width="1" x1="923" y1="699" x2="923" y2="68"/>
<line opacity="0.1" stroke="#000000" stroke-width="1" x1="934" y1="699" x2="934" y2="68"/>
<line opacity="0.1" stroke="#000000" stroke-width="1" x1="945" y1="699" x2="945" y2="68"/>
<line opacity="0.1" stroke="#000000" stroke-width="1" x1="956" y1="699" x2="956" y2="68"/>
<line opacity="0.1" stroke="#000000" stroke-width="1" x1="968" y1="699" x2="968" y2="68"/>
<line opacity="0.1" stroke="#000000" stroke-width="1" x1="78" y1="699" x2="973" y2="699"/>
<line opacity="0.1" stroke="#000000" stroke-width="1" x1="78" y1="685" x2="973" y2="685"/>
<line opacity="0.1" stroke="#000000" stroke-width="1" x1="78" y1="671" x2="973" y2="671"/>
<line opacity="0.1" stroke="#000000" stroke-width="1" x1="78" y1="658" x2="973" y2="658"/>
<line opacity="0.1" stroke="#000000" stroke-width="1" x1="78" y1="644" x2="973" y2="644"/>
<line opacity="0.1" stroke="#000000" stroke-width="1" x1="78" y1="630" x2="973" y2="630"/>
<line opacity="0.1" stroke="#000000" stroke-width="1" x1="78" y1="617" x2="973" y2="617"/>
<line opacity="0.1" stroke="#000000" stroke-width="1" x1="78" y1="603" x2="973" y2="603"/>
<line opacity="0.1" stroke="#000000" stroke-width="1" x1="78" y1="589" x2="973" y2="589"/>
<line opacity="0.1" stroke="#000000" stroke-width="1" x1="78" y1="576" x2="973" y2="576"/>
<line opacity="0.1" stroke="#000000" stroke-width="1" x1="78" y1="562" x2="973" y2="562"/>
<line opacity="0.1" stroke="#000000" stroke-width="1" x1="78" y1="548" x2="973" y2="548"/>
<line opacity="0.1" stroke="#000000" stroke-width="1" x1="78" y1="535" x2="973" y2="535"/>
<line opacity="0.1" stroke="#000000" stroke-width="1" x1="78" y1="521" x2="973" y2="521"/>
<line opacity="0.1" stroke="#000000" stroke-width="1" x1="78" y1="507" x2="973" y2="507"/>
<line opacity="0.1" stroke="#000000" stroke-width="1" x1="78" y1="494" x2="973" y2="494"/>
<line opacity="0.1" stroke="#000000" stroke-width="1" x1="78" y1="480" x2="973" y2="480"/>
<line opacity="0.1" stroke="#000000" stroke-width="1" x1="78" y1="466" x2="973" y2="466"/>
<line opacity="0.1" stroke="#000000" stroke-width="1" x1="78" y1="453" x2="973" y2="453"/>
<line opacity="0.1" stroke="#000000" stroke-width="1" x1="78" y1="439" x2="973" y2="439"/>
<line opacity="0.1" stroke="#000000" stroke-width="1" x1="78" y1="426" x2="973" y2="426"/>
<line opacity="0.1" stroke="#000000" stroke-width="1" x1="78" y1="412" x2="973" y2="412"/>
<line opacity="0.1" stroke="#000000" stroke-width="1" x1="78" y1="398" x2="973" y2="398"/>
<line opacity="0.1" stroke="#000000" stroke-width="1" x1="78" y1="385" x2="973" y2="385"/>
<line opacity="0.1" stroke="#000000" stroke-width="1" x1="78" y1="371" x2="973" y2="371"/>
<line opacity="0.1" stroke="#000000" stroke-width="1" x1="78" y1="357" x2="973" y2="357"/>
<line opacity="0.1" stroke="#000000" stroke-width="1" x1="78" y1="344" x2="973" y2="344"/>
<line opacity="0.1" stroke="#000000" stroke-width="1" x1="78" y1="330" x2="973" y2="330"/>
<line opacity="0.1" stroke="#000000" stroke-width="1" x1="78" y1="316" x2="973" y2="316"/>
<line opacity="0.1" stroke="#000000" stroke-width="1" x1="78" y1="303" x2="973" y2="303"/>
<line opacity="0.1" stroke="#000000" stroke-width="1" x1="78" y1="289" x2="973" y2="289"/>
<line opacity="0.1" stroke="#000000" stroke-width="1" x1="78" y1="275" x2="973" y2="275"/>
<line opacity="0.1" stroke="#000000" stroke-width="1" x1="78" y1="262" x2="973" y2="262"/>
<line opacity="0.1" stroke="#000000" stroke-width="1" x1="78" y1="248" x2="973" y2="248"/>
<line opacity="0.1" stroke="#000000" stroke-width="1" x1="78" y1="234" x2="973" y2="234"/>
<line opacity="0.1" stroke="#000000" stroke-width="1" x1="78" y1="221" x2="973" y2="221"/>
<line opacity="0.1" stroke="#000000" stroke-width="1" x1="78" y1="207" x2="973" y2="207"/>
<line opacity="0.1" stroke="#000000" stroke-width="1" x1="78" y1="194" x2="973" y2="194"/>
<line opacity="0.1" stroke="#000000" stroke-width="1" x1="78" y1="180" x2="973" y2="180"/>
<line opacity="0.1" stroke="#000000" stroke-width="1" x1="78" y1="166" x2="973" y2="166"/>
<line opacity="0.1" stroke="#000000" stroke-width="1" x1="78" y1="153" x2="973" y2="153"/>
<line opacity="0.1" stroke="#000000" stroke-width="1" x1="78" y1="139" x2="973" y2="139"/>
<line opacity="0.1" stroke="#000000" stroke-width="1" x1="78" y1="125" x2="973" y2="125"/>
<line opacity="0.1" stroke="#000000" stroke-width="1" x1="78" y1="112" x2="973" y2="112"/>
<line opacity="0.1" stroke="#000000" stroke-width="1" x1="78" y1="98" x2="973" y2="98"/>
<line opacity="0.1" stroke="#000000" stroke-width="1" x1="78" y1="84" x2="973" y2="84"/>
<line opacity="0.1" stroke="#000000" stroke-width="1" x1="78" y1="71" x2="973" y2="71"/>
<text x="8" y="384" dy="0.76em" text-anchor="middle" font-family="sans-serif" font-size="9.67741935483871" opacity="1" fill="#000000" transform="rotate(270, 8, 384)">
Memory usage
</text>
<text x="526" y="760" dy="-0.5ex" text-anchor="middle" font-family="sans-serif" font-size="9.67741935483871" opacity="1" fill="#000000">
Time
</text>
<line opacity="0.2" stroke="#000000" stroke-width="1" x1="106" y1="699" x2="106" y2="68"/>
<line opacity="0.2" stroke="#000000" stroke-width="1" x1="218" y1="699" x2="218" y2="68"/>
<line opacity="0.2" stroke="#000000" stroke-width="1" x1="330" y1="699" x2="330" y2="68"/>
<line opacity="0.2" stroke="#000000" stroke-width="1" x1="442" y1="699" x2="442" y2="68"/>
<line opacity="0.2" stroke="#000000" stroke-width="1" x1="554" y1="699" x2="554" y2="68"/>
<line opacity="0.2" stroke="#000000" stroke-width="1" x1="666" y1="699" x2="666" y2="68"/>
<line opacity="0.2" stroke="#000000" stroke-width="1" x1="777" y1="699" x2="777" y2="68"/>
<line opacity="0.2" stroke="#000000" stroke-width="1" x1="889" y1="699" x2="889" y2="68"/>
<line opacity="0.2" stroke="#000000" stroke-width="1" x1="78" y1="699" x2="973" y2="699"/>
<line opacity="0.2" stroke="#000000" stroke-width="1" x1="78" y1="562" x2="973" y2="562"/>
<line opacity="0.2" stroke="#000000" stroke-width="1" x1="78" y1="426" x2="973" y2="426"/>
<line opacity="0.2" stroke="#000000" stroke-width="1" x1="78" y1="289" x2="973" y2="289"/>
<line opacity="0.2" stroke="#000000" stroke-width="1" x1="78" y1="153" x2="973" y2="153"/>
<polyline fill="none" opacity="1" stroke="#000000" stroke-width="1" points="77,68 77,699 "/>
<text x="68" y="699" dy="0.5ex" text-anchor="end" font-family="sans-serif" font-size="9.67741935483871" opacity="1" fill="#000000">
0 MB
</text>
<polyline fill="none" opacity="1" stroke="#000000" stroke-width="1" points="72,699 77,699 "/>
<text x="68" y="562" dy="0.5ex" text-anchor="end" font-family="sans-serif" font-size="9.67741935483871" opacity="1" fill="#000000">
47 MB
</text>
<polyline fill="none" opacity="1" stroke="#000000" stroke-width="1" points="72,562 77,562 "/>
<text x="68" y="426" dy="0.5ex" text-anchor="end" font-family="sans-serif" font-size="9.67741935483871" opacity="1" fill="#000000">
95 MB
</text>
<polyline fill="none" opacity="1" stroke="#000000" stroke-width="1" points="72,426 77,426 "/>
<text x="68" y="289" dy="0.5ex" text-anchor="end" font-family="sans-serif" font-size="9.67741935483871" opacity="1" fill="#000000">
143 MB
</text>
<polyline fill="none" opacity="1" stroke="#000000" stroke-width="1" points="72,289 77,289 "/>
<text x="68" y="153" dy="0.5ex" text-anchor="end" font-family="sans-serif" font-size="9.67741935483871" opacity="1" fill="#000000">
190 MB
</text>
<polyline fill="none" opacity="1" stroke="#000000" stroke-width="1" points="72,153 77,153 "/>
<polyline fill="none" opacity="1" stroke="#000000" stroke-width="1" points="78,700 973,700 "/>
<text x="106" y="710" dy="0.76em" text-anchor="middle" font-family="sans-serif" font-size="9.67741935483871" opacity="1" fill="#000000">
07 20:33:20
</text>
<polyline fill="none" opacity="1" stroke="#000000" stroke-width="1" points="106,700 106,705 "/>
<text x="218" y="710" dy="0.76em" text-anchor="middle" font-family="sans-serif" font-size="9.67741935483871" opacity="1" fill="#000000">
08 10:26:40
</text>
<polyline fill="none" opacity="1" stroke="#000000" stroke-width="1" points="218,700 218,705 "/>
<text x="330" y="710" dy="0.76em" text-anchor="middle" font-family="sans-serif" font-size="9.67741935483871" opacity="1" fill="#000000">
09 00:20:00
</text>
<polyline fill="none" opacity="1" stroke="#000000" stroke-width="1" points="330,700 330,705 "/>
<text x="442" y="710" dy="0.76em" text-anchor="middle" font-family="sans-serif" font-size="9.67741935483871" opacity="1" fill="#000000">
09 14:13:20
</text>
<polyline fill="none" opacity="1" stroke="#000000" stroke-width="1" points="442,700 442,705 "/>
<text x="554" y="710" dy="0.76em" text-anchor="middle" font-family="sans-serif" font-size="9.67741935483871" opacity="1" fill="#000000">
10 04:06:40
</text>
<polyline fill="none" opacity="1" stroke="#000000" stroke-width="1" points="554,700 554,705 "/>
<text x="666" y="710" dy="0.76em" text-anchor="middle" font-family="sans-serif" font-size="9.67741935483871" opacity="1" fill="#000000">
10 18:00:00
</text>
<polyline fill="none" opacity="1" stroke="#000000" stroke-width="1" points="666,700 666,705 "/>
<text x="777" y="710" dy="0.76em" text-anchor="middle" font-family="sans-serif" font-size="9.67741935483871" opacity="1" fill="#000000">
11 07:53:20
</text>
<polyline fill="none" opacity="1" stroke="#000000" stroke-width="1" points="777,700 777,705 "/>
<text x="889" y="710" dy="0.76em" text-anchor="middle" font-family="sans-serif" font-size="9.67741935483871" opacity="1" fill="#000000">
11 21:46:40
</text>
<polyline fill="none" opacity="1" stroke="#000000" stroke-width="1" points="889,700 889,705 "/>
<polyline fill="none" opacity="1" stroke="#000000" stroke-width="1" points="78,67 974,67 "/>
<text x="106" y="58" dy="-0.5ex" text-anchor="middle" font-family="sans-serif" font-size="9.67741935483871" opacity="1" fill="#000000">
+03:35:44
</text>
<polyline fill="none" opacity="1" stroke="#000000" stroke-width="1" points="106,62 106,67 "/>
<text x="218" y="58" dy="-0.5ex" text-anchor="middle" font-family="sans-serif" font-size="9.67741935483871" opacity="1" fill="#000000">
+17:29:04
</text>
<polyline fill="none" opacity="1" stroke="#000000" stroke-width="1" points="218,62 218,67 "/>
<text x="330" y="58" dy="-0.5ex" text-anchor="middle" font-family="sans-serif" font-size="9.67741935483871" opacity="1" fill="#000000">
+31:22:24
</text>
<polyline fill="none" opacity="1" stroke="#000000" stroke-width="1" points="330,62 330,67 "/>
<text x="442" y="58" dy="-0.5ex" text-anchor="middle" font-family="sans-serif" font-size="9.67741935483871" opacity="1" fill="#000000">
+45:15:44
</text>
<polyline fill="none" opacity="1" stroke="#000000" stroke-width="1" points="442,62 442,67 "/>
<text x="554" y="58" dy="-0.5ex" text-anchor="middle" font-family="sans-serif" font-size="9.67741935483871" opacity="1" fill="#000000">
+59:09:04
</text>
<polyline fill="none" opacity="1" stroke="#000000" stroke-width="1" points="554,62 554,67 "/>
<text x="666" y="58" dy="-0.5ex" text-anchor="middle" font-family="sans-serif" font-size="9.67741935483871" opacity="1" fill="#000000">
+73:02:24
</text>
<polyline fill="none" opacity="1" stroke="#000000" stroke-width="1" points="666,62 666,67 "/>
<text x="778" y="58" dy="-0.5ex" text-anchor="middle" font-family="sans-serif" font-size="9.67741935483871" opacity="1" fill="#000000">
+86:55:44
</text>
<polyline fill="none" opacity="1" stroke="#000000" stroke-width="1" points="778,62 778,67 "/>
<text x="890" y="58" dy="-0.5ex" text-anchor="middle" font-family="sans-serif" font-size="9.67741935483871" opacity="1" fill="#000000">
+100:49:04
</text>
<polyline fill="none" opacity="1" stroke="#000000" stroke-width="1" points="890,62 890,67 "/>
<rect x="83" y="73" width="99" height="45" opacity="0.75" fill="#FFFFFF" stroke="none"/>
<rect x="83" y="73" width="99" height="45" opacity="1" fill="none" stroke="#000000"/>
<text x="123" y="83" dy="0.76em" text-anchor="start" font-family="sans-serif" font-size="9.67741935483871" opacity="1" fill="#000000">
Temporary
</text>
<text x="123" y="98" dy="0.76em" text-anchor="start" font-family="sans-serif" font-size="9.67741935483871" opacity="1" fill="#000000">
Leaked
</text>
<rect x="93" y="83" width="10" height="10" opacity="1" fill="#3CB44B" stroke="none"/>
<rect x="93" y="98" width="10" height="10" opacity="1" fill="#E6194B" stroke="none"/>
</svg>
