<svg width="1024" height="768" viewBox="0 0 1024 768" xmlns="http://www.w3.org/2000/svg">
<rect x="0" y="0" width="1024" height="768" opacity="1" fill="#FFFFFF" stroke="none"/>
<polygon opacity="1" fill="#3CB44B" points="78,697 79,696 80,695 81,694 82,692 82,691 83,690 84,689 85,688 86,687 87,686 88,685 89,683 90,682 91,681 91,680 92,679 93,678 94,677 95,676 96,675 97,674 98,673 99,672 99,671 100,669 101,668 102,667 103,666 104,665 105,664 106,663 107,662 108,660 108,659 109,658 110,657 111,656 112,655 113,654 114,653 115,651 116,650 116,649 117,648 118,647 119,646 120,645 121,644 122,643 123,642 124,640 125,639 125,638 126,637 127,636 128,635 129,634 130,633 131,632 132,630 133,629 134,628 134,627 135,626 136,625 137,624 138,623 139,622 140,621 141,619 142,618 142,617 143,616 144,615 145,614 146,613 147,612 148,611 149,610 150,608 151,607 151,606 152,605 153,604 154,603 155,602 156,601 157,599 158,598 159,597 159,596 160,595 161,594 162,593 163,592 164,590 165,589 166,588 167,587 168,586 168,585 169,584 170,583 171,581 172,580 173,579 174,578 175,577 176,576 176,575 177,574 178,573 179,571 180,570 181,569 182,568 183,567 184,566 185,565 185,563 186,562 187,561 188,560 189,559 190,558 191,557 192,556 193,555 193,554 194,552 195,552 196,550 197,549 198,548 199,547 200,546 201,545 202,544 202,543 203,542 204,540 205,539 206,538 207,537 208,536 209,535 210,534 210,533 211,532 212,531 213,530 214,529 215,527 216,527 217,525 218,524 219,523 219,522 220,521 221,520 222,519 223,518 224,517 225,516 226,515 227,514 227,513 228,512 229,511 230,510 231,509 232,508 233,506 234,505 235,504 236,503 236,502 237,501 238,500 239,499 240,498 241,497 242,496 243,494 244,493 244,492 245,491 246,490 247,489 248,488 249,487 250,486 251,485 252,484 253,482 253,481 254,480 255,479 256,478 257,477 258,476 259,475 260,474 261,473 261,472 262,471 263,470 264,469 265,468 266,467 267,466 268,465 269,463 270,462 270,461 271,460 272,459 273,458 274,457 275,456 276,455 277,454 278,453 278,452 279,451 280,450 281,449 282,448 283,446 284,445 285,444 286,443 287,442 287,441 288,440 289,439 290,438 291,437 292,436 293,435 294,434 295,433 295,432 296,431 297,429 298,428 299,427 300,426 301,425 302,424 303,423 304,422 304,421 305,420 306,419 307,418 308,417 309,416 310,415 311,413 312,412 312,411 313,410 314,409 315,408 316,407 317,406 318,405 319,404 320,403 321,402 321,401 322,400 323,399 324,398 325,397 326,396 327,395 328,393 329,392 329,391 330,390 331,389 332,388 333,387 334,386 335,385 336,384 337,383 338,382 338,381 339,380 340,379 341,377 342,376 343,375 344,374 345,373 346,372 347,371 347,370 348,369 349,368 350,367 351,366 352,364 353,363 354,362 355,361 355,360 356,359 357,358 358,357 359,356 360,355 361,354 362,353 363,352 364,350 364,349 365,348 366,347 367,346 368,345 369,344 370,343 371,342 372,341 372,340 373,339 374,337 375,336 376,335 377,334 378,333 379,332 380,331 381,330 381,329 382,328 383,327 384,326 385,325 386,324 387,323 388,322 389,320 389,319 390,318 391,317 392,316 393,315 394,314 395,313 396,312 397,311 398,310 398,309 399,307 400,306 401,305 402,304 403,303 404,302 405,301 406,300 406,299 407,298 408,297 409,296 410,295 411,293 412,292 413,291 414,290 415,289 415,288 416,287 417,286 418,285 419,284 420,283 421,282 422,281 423,280 423,279 424,278 425,277 426,276 427,275 428,274 429,273 430,272 431,270 432,269 432,268 433,267 434,266 435,265 436,264 437,263 438,262 439,261 440,260 440,258 441,257 442,256 443,255 444,254 445,253 446,252 447,251 448,250 449,249 449,248 450,247 451,246 452,244 453,243 454,242 455,241 456,240 457,239 457,238 458,237 459,236 460,235 461,233 462,232 463,231 464,230 465,229 466,228 466,227 467,226 468,225 469,224 470,223 471,222 472,220 473,219 474,218 474,217 475,216 476,215 477,214 478,213 479,212 480,211 481,210 482,209 483,207 483,206 484,206 485,204 486,203 487,202 488,201 489,200 490,199 491,198 491,197 492,196 493,195 494,194 495,193 496,192 497,190 498,189 499,188 500,187 500,186 501,185 502,184 503,183 504,182 505,181 506,180 507,179 508,177 508,177 509,175 510,174 511,173 512,172 513,171 514,170 515,169 516,168 517,167 517,166 518,165 519,164 520,162 521,161 522,160 523,159 524,158 525,157 525,156 526,155 527,154 528,153 529,151 530,150 531,149 532,148 533,147 534,146 534,145 535,144 536,143 537,142 538,141 539,140 540,139 541,137 542,136 542,135 543,134 544,133 545,132 546,131 547,130 548,129 549,127 550,126 551,125 551,124 552,123 553,122 554,121 555,120 556,119 557,118 558,117 559,116 560,115 560,114 561,113 562,112 563,111 564,110 565,108 566,107 567,106 568,105 568,104 569,103 570,102 571,101 572,100 573,99 574,98 575,97 576,96 577,95 577,93 578,92 579,91 580,90 581,89 582,88 583,87 584,86 585,85 585,84 586,83 587,82 588,80 589,79 590,78 591,77 592,76 593,75 594,74 594,73 595,73 596,73 597,73 598,73 599,73 600,73 601,74 602,74 602,74 603,74 604,74 605,74 606,74 607,74 608,74 609,74 610,74 611,74 611,74 612,74 613,74 614,74 615,74 616,74 617,74 618,74 619,74 619,74 620,74 621,74 622,74 623,74 624,74 625,74 626,74 627,74 628,74 628,74 629,74 630,74 631,74 632,74 633,74 634,74 635,74 636,74 636,74 637,74 638,73 639,73 640,73 641,73 642,73 643,73 644,73 645,73 645,73 646,73 647,73 648,73 649,73 650,73 651,73 652,73 653,73 653,73 654,73 655,73 656,73 657,73 658,73 659,73 660,73 661,73 662,73 662,73 663,73 664,73 665,73 666,72 667,73 668,72 669,72 670,72 670,72 671,72 672,72 673,72 674,72 675,72 676,72 677,72 678,72 679,72 679,72 680,72 681,73 682,72 683,73 684,73 685,73 686,73 687,73 687,73 688,73 689,72 690,73 691,72 692,72 693,72 694,73 695,72 696,72 696,72 697,72 698,72 699,72 700,72 701,72 702,72 703,72 704,72 704,72 705,72 706,72 707,72 708,72 709,72 710,72 711,72 712,72 713,72 713,72 714,72 715,72 716,72 717,72 718,72 719,72 720,72 721,72 721,73 722,72 723,72 724,72 725,72 726,72 727,72 728,72 729,72 730,72 730,72 731,72 732,72 733,72 734,72 735,72 736,72 737,72 738,72 738,72 739,72 740,72 741,72 742,72 743,72 744,72 745,72 746,72 747,72 747,72 748,72 749,72 750,72 751,72 752,72 753,72 754,72 755,72 755,72 756,72 757,72 758,72 759,72 760,72 761,72 762,72 763,72 764,72 764,72 765,72 766,72 767,72 768,72 769,72 770,72 771,72 772,72 773,72 773,72 774,72 775,72 776,72 777,72 778,72 779,72 780,72 781,72 781,72 782,72 783,72 784,72 785,72 786,72 787,72 788,72 789,72 790,71 790,72 791,71 792,71 793,71 794,71 795,71 796,71 797,71 798,71 798,71 799,71 800,71 801,71 802,71 803,71 804,71 805,71 806,71 807,71 807,71 808,71 809,71 810,71 811,71 812,71 813,71 814,71 815,71 815,71 816,71 817,71 818,71 819,71 820,71 821,71 822,71 823,71 824,71 824,71 825,71 826,71 827,71 828,71 829,71 830,71 831,71 832,71 832,71 833,71 834,71 835,71 836,71 837,70 838,70 839,70 840,70 841,70 841,70 842,70 843,70 844,70 845,70 846,70 847,70 848,70 849,70 849,70 850,70 851,70 852,70 853,70 854,70 855,70 856,70 857,70 858,70 858,70 859,70 860,70 861,70 862,70 863,70 864,70 865,70 866,70 866,70 867,70 868,70 869,70 870,70 871,70 872,70 873,70 874,70 875,70 875,70 876,70 877,70 878,70 879,70 880,70 881,70 882,70 883,70 883,70 884,70 885,70 886,70 887,70 888,70 889,70 890,70 891,70 892,70 892,70 893,69 894,70 895,69 896,69 897,69 898,69 899,69 900,69 900,69 901,69 902,69 903,69 904,69 905,69 906,69 907,69 908,69 909,69 909,69 910,69 911,69 912,69 913,69 914,69 915,69 916,69 917,69 917,69 918,69 919,69 920,69 921,69 922,69 923,69 924,69 925,69 926,69 926,69 927,69 928,69 929,69 930,69 931,69 932,69 933,69 934,69 934,69 935,69 936,68 937,68 938,68 939,68 940,68 941,68 942,68 943,68 943,68 944,68 945,68 946,68 947,68 948,68 949,68 950,68 951,68 951,68 952,68 953,68 954,68 955,68 956,68 957,68 958,68 959,68 960,68 960,68 961,68 962,68 963,68 964,68 965,68 966,68 967,68 968,68 968,68 969,68 970,68 971,68 972,69 972,69 973,69 973,699 78,699 "/>
<polyline fill="none" opacity="1" stroke="#3CB44B" stroke-width="1" points="78,697 79,696 80,695 81,694 82,692 82,691 83,690 84,689 85,688 86,687 87,686 88,685 89,683 90,682 91,681 91,680 92,679 93,678 94,677 95,676 96,675 97,674 98,673 99,672 99,671 100,669 101,668 102,667 103,666 104,665 105,664 106,663 107,662 108,660 108,659 109,658 110,657 111,656 112,655 113,654 114,653 115,651 116,650 116,649 117,648 118,647 119,646 120,645 121,644 122,643 123,642 124,640 125,639 125,638 126,637 127,636 128,635 129,634 130,633 131,632 132,630 133,629 134,628 134,627 135,626 136,625 137,624 138,623 139,622 140,621 141,619 142,618 142,617 143,616 144,615 145,614 146,613 147,612 148,611 149,610 150,608 151,607 151,606 152,605 153,604 154,603 155,602 156,601 157,599 158,598 159,597 159,596 160,595 161,594 162,593 163,592 164,590 165,589 166,588 167,587 168,586 168,585 169,584 170,583 171,581 172,580 173,579 174,578 175,577 176,576 176,575 177,574 178,573 179,571 180,570 181,569 182,568 183,567 184,566 185,565 185,563 186,562 187,561 188,560 189,559 190,558 191,557 192,556 193,555 193,554 194,552 195,552 196,550 197,549 198,548 199,547 200,546 201,545 202,544 202,543 203,542 204,540 205,539 206,538 207,537 208,536 209,535 210,534 210,533 211,532 212,531 213,530 214,529 215,527 216,527 217,525 218,524 219,523 219,522 220,521 221,520 222,519 223,518 224,517 225,516 226,515 227,514 227,513 228,512 229,511 230,510 231,509 232,508 233,506 234,505 235,504 236,503 236,502 237,501 238,500 239,499 240,498 241,497 242,496 243,494 244,493 244,492 245,491 246,490 247,489 248,488 249,487 250,486 251,485 252,484 253,482 253,481 254,480 255,479 256,478 257,477 258,476 259,475 260,474 261,473 261,472 262,471 263,470 264,469 265,468 266,467 267,466 268,465 269,463 270,462 270,461 271,460 272,459 273,458 274,457 275,456 276,455 277,454 278,453 278,452 279,451 280,450 281,449 282,448 283,446 284,445 285,444 286,443 287,442 287,441 288,440 289,439 290,438 291,437 292,436 293,435 294,434 295,433 295,432 296,431 297,429 298,428 299,427 300,426 301,425 302,424 303,423 304,422 304,421 305,420 306,419 307,418 308,417 309,416 310,415 311,413 312,412 312,411 313,410 314,409 315,408 316,407 317,406 318,405 319,404 320,403 321,402 321,401 322,400 323,399 324,398 325,397 326,396 327,395 328,393 329,392 329,391 330,390 331,389 332,388 333,387 334,386 335,385 336,384 337,383 338,382 338,381 339,380 340,379 341,377 342,376 343,375 344,374 345,373 346,372 347,371 347,370 348,369 349,368 350,367 351,366 352,364 353,363 354,362 355,361 355,360 356,359 357,358 358,357 359,356 360,355 361,354 362,353 363,352 364,350 364,349 365,348 366,347 367,346 368,345 369,344 370,343 371,342 372,341 372,340 373,339 374,337 375,336 376,335 377,334 378,333 379,332 380,331 381,330 381,329 382,328 383,327 384,326 385,325 386,324 387,323 388,322 389,320 389,319 390,318 391,317 392,316 393,315 394,314 395,313 396,312 397,311 398,310 398,309 399,307 400,306 401,305 402,304 403,303 404,302 405,301 406,300 406,299 407,298 408,297 409,296 410,295 411,293 412,292 413,291 414,290 415,289 415,288 416,287 417,286 418,285 419,284 420,283 421,282 422,281 423,280 423,279 424,278 425,277 426,276 427,275 428,274 429,273 430,272 431,270 432,269 432,268 433,267 434,266 435,265 436,264 437,263 438,262 439,261 440,260 440,258 441,257 442,256 443,255 444,254 445,253 446,252 447,251 448,250 449,249 449,248 450,247 451,246 452,244 453,243 454,242 455,241 456,240 457,239 457,238 458,237 459,236 460,235 461,233 462,232 463,231 464,230 465,229 466,228 466,227 467,226 468,225 469,224 470,223 471,222 472,220 473,219 474,218 474,217 475,216 476,215 477,214 478,213 479,212 480,211 481,210 482,209 483,207 483,206 484,206 485,204 486,203 487,202 488,201 489,200 490,199 491,198 491,197 492,196 493,195 494,194 495,193 496,192 497,190 498,189 499,188 500,187 500,186 501,185 502,184 503,183 504,182 505,181 506,180 507,179 508,177 508,177 509,175 510,174 511,173 512,172 513,171 514,170 515,169 516,168 517,167 517,166 518,165 519,164 520,162 521,161 522,160 523,159 524,158 525,157 525,156 526,155 527,154 528,153 529,151 530,150 531,149 532,148 533,147 534,146 534,145 535,144 536,143 537,142 538,141 539,140 540,139 541,137 542,136 542,135 543,134 544,133 545,132 546,131 547,130 548,129 549,127 550,126 551,125 551,124 552,123 553,122 554,121 555,120 556,119 557,118 558,117 559,116 560,115 560,114 561,113 562,112 563,111 564,110 565,108 566,107 567,106 568,105 568,104 569,103 570,102 571,101 572,100 573,99 574,98 575,97 576,96 577,95 577,93 578,92 579,91 580,90 581,89 582,88 583,87 584,86 585,85 585,84 586,83 587,82 588,80 589,79 590,78 591,77 592,76 593,75 594,74 594,73 595,73 596,73 597,73 598,73 599,73 600,73 601,74 602,74 602,74 603,74 604,74 605,74 606,74 607,74 608,74 609,74 610,74 611,74 611,74 612,74 613,74 614,74 615,74 616,74 617,74 618,74 619,74 619,74 620,74 621,74 622,74 623,74 624,74 625,74 626,74 627,74 628,74 628,74 629,74 630,74 631,74 632,74 633,74 634,74 635,74 636,74 636,74 637,74 638,73 639,73 640,73 641,73 642,73 643,73 644,73 645,73 645,73 646,73 647,73 648,73 649,73 650,73 651,73 652,73 653,73 653,73 654,73 655,73 656,73 657,73 658,73 659,73 660,73 661,73 662,73 662,73 663,73 664,73 665,73 666,72 667,73 668,72 669,72 670,72 670,72 671,72 672,72 673,72 674,72 675,72 676,72 677,72 678,72 679,72 679,72 680,72 681,73 682,72 683,73 684,73 685,73 686,73 687,73 687,73 688,73 689,72 690,73 691,72 692,72 693,72 694,73 695,72 696,72 696,72 697,72 698,72 699,72 700,72 701,72 702,72 703,72 704,72 704,72 705,72 706,72 707,72 708,72 709,72 710,72 711,72 712,72 713,72 713,72 714,72 715,72 716,72 717,72 718,72 719,72 720,72 721,72 721,73 722,72 723,72 724,72 725,72 726,72 727,72 728,72 729,72 730,72 730,72 731,72 732,72 733,72 734,72 735,72 736,72 737,72 738,72 738,72 739,72 740,72 741,72 742,72 743,72 744,72 745,72 746,72 747,72 747,72 748,72 749,72 750,72 751,72 752,72 753,72 754,72 755,72 755,72 756,72 757,72 758,72 759,72 760,72 761,72 762,72 763,72 764,72 764,72 765,72 766,72 767,72 768,72 769,72 770,72 771,72 772,72 773,72 773,72 774,72 775,72 776,72 777,72 778,72 779,72 780,72 781,72 781,72 782,72 783,72 784,72 785,72 786,72 787,72 788,72 789,72 790,71 790,72 791,71 792,71 793,71 794,71 795,71 796,71 797,71 798,71 798,71 799,71 800,71 801,71 802,71 803,71 804,71 805,71 806,71 807,71 807,71 808,71 809,71 810,71 811,71 812,71 813,71 814,71 815,71 815,71 816,71 817,71 818,71 819,71 820,71 821,71 822,71 823,71 824,71 824,71 825,71 826,71 827,71 828,71 829,71 830,71 831,71 832,71 832,71 833,71 834,71 835,71 836,71 837,70 838,70 839,70 840,70 841,70 841,70 842,70 843,70 844,70 845,70 846,70 847,70 848,70 849,70 849,70 850,70 851,70 852,70 853,70 854,70 855,70 856,70 857,70 858,70 858,70 859,70 860,70 861,70 862,70 863,70 864,70 865,70 866,70 866,70 867,70 868,70 869,70 870,70 871,70 872,70 873,70 874,70 875,70 875,70 876,70 877,70 878,70 879,70 880,70 881,70 882,70 883,70 883,70 884,70 885,70 886,70 887,70 888,70 889,70 890,70 891,70 892,70 892,70 893,69 894,70 895,69 896,69 897,69 898,69 899,69 900,69 900,69 901,69 902,69 903,69 904,69 905,69 906,69 907,69 908,69 909,69 909,69 910,69 911,69 912,69 913,69 914,69 915,69 916,69 917,69 917,69 918,69 919,69 920,69 921,69 922,69 923,69 924,69 925,69 926,69 926,69 927,69 928,69 929,69 930,69 931,69 932,69 933,69 934,69 934,69 935,69 936,68 937,68 938,68 939,68 940,68 941,68 942,68 943,68 943,68 944,68 945,68 946,68 947,68 948,68 949,68 950,68 951,68 951,68 952,68 953,68 954,68 955,68 956,68 957,68 958,68 959,68 960,68 960,68 961,68 962,68 963,68 964,68 965,68 966,68 967,68 968,68 968,68 969,68 970,68 971,68 972,69 972,69 973,69 "/>
<polygon opacity="1" fill="#E6194B" points="78,699 79,699 80,699 81,699 82,699 82,699 83,699 84,699 85,699 86,699 87,699 88,699 89,699 90,699 91,699 91,699 92,699 93,699 94,699 95,699 96,699 97,699 98,699 99,699 99,699 100,699 101,699 102,699 103,699 104,699 105,699 106,699 107,699 108,698 108,698 109,698 110,698 111,698 112,698 113,698 114,698 115,698 116,698 116,698 117,698 118,698 119,698 120,698 121,698 122,698 123,698 124,698 125,698 125,698 126,698 127,698 128,698 129,698 130,698 131,698 132,698 133,698 134,698 134,698 135,698 136,698 137,698 138,698 139,698 140,698 141,698 142,698 142,698 143,698 144,698 145,698 146,698 147,698 148,698 149,698 150,698 151,698 151,698 152,698 153,698 154,698 155,698 156,698 157,698 158,698 159,698 159,698 160,698 161,698 162,698 163,698 164,698 165,698 166,698 167,698 168,698 168,698 169,698 170,698 171,698 172,698 173,698 174,698 175,698 176,698 176,698 177,698 178,698 179,698 180,698 181,698 182,698 183,698 184,698 185,698 185,698 186,698 187,698 188,698 189,698 190,698 191,698 192,698 193,698 193,698 194,698 195,698 196,698 197,698 198,698 199,698 200,698 201,698 202,698 202,698 203,698 204,698 205,698 206,698 207,698 208,698 209,698 210,698 210,698 211,698 212,698 213,698 214,698 215,698 216,698 217,698 218,698 219,698 219,698 220,698 221,698 222,698 223,698 224,698 225,698 226,698 227,698 227,698 228,698 229,698 230,698 231,698 232,698 233,698 234,698 235,698 236,698 236,698 237,698 238,698 239,698 240,698 241,698 242,698 243,698 244,698 244,698 245,698 246,698 247,698 248,698 249,698 250,698 251,698 252,698 253,698 253,698 254,698 255,698 256,698 257,698 258,698 259,698 260,698 261,698 261,698 262,698 263,698 264,698 265,698 266,698 267,698 268,698 269,698 270,698 270,698 271,698 272,698 273,698 274,698 275,698 276,698 277,698 278,698 278,698 279,698 280,698 281,698 282,698 283,698 284,698 285,698 286,698 287,698 287,698 288,698 289,698 290,698 291,698 292,698 293,698 294,698 295,698 295,698 296,698 297,698 298,698 299,698 300,698 301,698 302,698 303,698 304,698 304,698 305,698 306,698 307,698 308,698 309,698 310,698 311,698 312,698 312,698 313,698 314,698 315,698 316,698 317,698 318,698 319,698 320,698 321,698 321,698 322,698 323,698 324,698 325,698 326,698 327,698 328,698 329,698 329,698 330,698 331,698 332,698 333,698 334,698 335,698 336,698 337,698 338,698 338,698 339,698 340,698 341,698 342,698 343,698 344,698 345,698 346,698 347,698 347,698 348,698 349,698 350,698 351,698 352,698 353,698 354,698 355,698 355,697 356,697 357,697 358,697 359,697 360,697 361,697 362,697 363,697 364,697 364,697 365,697 366,697 367,697 368,697 369,697 370,697 371,697 372,697 372,697 373,697 374,697 375,697 376,697 377,697 378,697 379,697 380,697 381,697 381,697 382,697 383,697 384,697 385,697 386,697 387,697 388,697 389,697 389,697 390,697 391,697 392,697 393,697 394,697 395,697 396,697 397,697 398,697 398,697 399,697 400,697 401,697 402,697 403,697 404,697 405,697 406,697 406,697 407,697 408,697 409,697 410,697 411,697 412,697 413,697 414,697 415,697 415,697 416,697 417,697 418,697 419,697 420,697 421,697 422,697 423,697 423,697 424,697 425,697 426,697 427,697 428,697 429,697 430,697 431,697 432,697 432,697 433,697 434,697 435,697 436,696 437,696 438,696 439,696 440,696 440,696 441,696 442,696 443,696 444,696 445,696 446,696 447,696 448,696 449,696 449,696 450,696 451,696 452,696 453,696 454,696 455,696 456,696 457,695 457,694 458,693 459,692 460,691 461,690 462,689 463,688 464,687 465,686 466,684 466,683 467,682 468,681 469,680 470,679 471,678 472,677 473,676 474,675 474,674 475,673 476,672 477,670 478,669 479,668 480,667 481,666 482,665 483,664 483,663 484,662 485,661 486,660 487,659 488,658 489,656 490,655 491,654 491,653 492,652 493,651 494,650 495,649 496,648 497,647 498,646 499,645 500,644 500,643 501,641 502,640 503,639 504,638 505,637 506,636 507,635 508,634 508,633 509,632 510,631 511,630 512,629 513,627 514,626 515,625 516,624 517,623 517,622 518,621 519,620 520,619 521,618 522,617 523,616 524,614 525,613 525,612 526,611 527,610 528,609 529,608 530,607 531,606 532,605 533,603 534,602 534,601 535,600 536,599 537,598 538,597 539,596 540,595 541,594 542,593 542,592 543,590 544,589 545,588 546,587 547,586 548,585 549,584 550,583 551,582 551,581 552,580 553,578 554,577 555,576 556,575 557,574 558,573 559,572 560,571 560,570 561,569 562,568 563,567 564,566 565,565 566,564 567,563 568,562 568,561 569,559 570,558 571,557 572,556 573,555 574,554 575,553 576,552 577,551 577,550 578,549 579,548 580,546 581,545 582,544 583,543 584,542 585,541 585,540 586,539 587,538 588,537 589,536 590,535 591,534 592,533 593,532 594,531 594,529 595,528 596,527 597,526 598,525 599,524 600,523 601,522 602,521 602,520 603,519 604,518 605,517 606,516 607,515 608,514 609,513 610,511 611,510 611,509 612,508 613,507 614,506 615,505 616,504 617,503 618,502 619,501 619,500 620,498 621,497 622,496 623,495 624,494 625,493 626,492 627,491 628,490 628,489 629,488 630,487 631,486 632,485 633,483 634,482 635,481 636,480 636,479 637,478 638,477 639,476 640,475 641,474 642,473 643,472 644,470 645,469 645,468 646,467 647,466 648,465 649,464 650,463 651,462 652,460 653,459 653,458 654,457 655,456 656,455 657,454 658,453 659,452 660,451 661,449 662,448 662,447 663,446 664,445 665,444 666,443 667,442 668,441 669,439 670,438 670,437 671,436 672,435 673,434 674,433 675,432 676,431 677,430 678,429 679,427 679,426 680,425 681,424 682,423 683,422 684,421 685,420 686,419 687,418 687,417 688,416 689,415 690,414 691,412 692,411 693,410 694,409 695,408 696,407 696,406 697,405 698,404 699,403 700,401 701,400 702,399 703,398 704,397 704,396 705,395 706,394 707,393 708,392 709,391 710,390 711,389 712,387 713,387 713,385 714,384 715,383 716,382 717,381 718,380 719,379 720,378 721,377 721,376 722,375 723,374 724,373 725,371 726,370 727,369 728,368 729,367 730,366 730,365 731,364 732,363 733,361 734,360 735,359 736,358 737,357 738,356 738,355 739,354 740,353 741,352 742,351 743,350 744,349 745,348 746,346 747,345 747,344 748,343 749,342 750,341 751,340 752,339 753,338 754,336 755,335 755,334 756,333 757,332 758,331 759,330 760,329 761,328 762,327 763,325 764,324 764,323 765,322 766,321 767,320 768,319 769,318 770,317 771,316 772,315 773,314 773,313 774,311 775,310 776,309 777,308 778,307 779,306 780,305 781,304 781,303 782,302 783,301 784,300 785,299 786,298 787,297 788,296 789,294 790,293 790,292 791,291 792,290 793,289 794,288 795,287 796,286 797,285 798,283 798,282 799,281 800,280 801,279 802,278 803,277 804,276 805,275 806,274 807,273 807,271 808,270 809,269 810,268 811,267 812,266 813,265 814,264 815,263 815,262 816,260 817,260 818,258 819,257 820,256 821,255 822,254 823,253 824,252 824,251 825,249 826,248 827,247 828,246 829,245 830,244 831,243 832,242 832,241 833,240 834,239 835,237 836,236 837,235 838,234 839,233 840,232 841,231 841,230 842,229 843,227 844,226 845,225 846,224 847,223 848,222 849,221 849,220 850,219 851,217 852,216 853,215 854,214 855,213 856,212 857,211 858,210 858,209 859,208 860,207 861,205 862,204 863,203 864,202 865,201 866,200 866,199 867,198 868,197 869,196 870,195 871,193 872,192 873,191 874,190 875,189 875,188 876,187 877,186 878,185 879,184 880,182 881,181 882,181 883,179 883,178 884,177 885,176 886,175 887,174 888,173 889,172 890,171 891,170 892,168 892,167 893,166 894,165 895,164 896,163 897,162 898,160 899,159 900,158 900,157 901,156 902,155 903,154 904,152 905,151 906,150 907,149 908,148 909,147 909,146 910,145 911,144 912,142 913,141 914,140 915,139 916,138 917,137 917,136 918,135 919,134 920,133 921,131 922,130 923,129 924,128 925,127 926,126 926,125 927,124 928,122 929,121 930,120 931,119 932,118 933,117 934,116 934,115 935,114 936,113 937,112 938,110 939,109 940,108 941,107 942,106 943,105 943,104 944,103 945,101 946,100 947,99 948,98 949,97 950,96 951,95 951,94 952,92 953,91 954,90 955,89 956,88 957,87 958,86 959,85 960,84 960,83 961,82 962,81 963,79 964,78 965,77 966,76 967,75 968,74 968,73 969,72 970,71 971,69 972,69 972,69 973,69 973,699 78,699 "/>
<polyline fill="none" opacity="1" stroke="#E6194B" stroke-width="1" points="78,699 79,699 80,699 81,699 82,699 82,699 83,699 84,699 85,699 86,699 87,699 88,699 89,699 90,699 91,699 91,699 92,699 93,699 94,699 95,699 96,699 97,699 98,699 99,699 99,699 100,699 101,699 102,699 103,699 104,699 105,699 106,699 107,699 108,698 108,698 109,698 110,698 111,698 112,698 113,698 114,698 115,698 116,698 116,698 117,698 118,698 119,698 120,698 121,698 122,698 123,698 124,698 125,698 125,698 126,698 127,698 128,698 129,698 130,698 131,698 132,698 133,698 134,698 134,698 135,698 136,698 137,698 138,698 139,698 140,698 141,698 142,698 142,698 143,698 144,698 145,698 146,698 147,698 148,698 149,698 150,698 151,698 151,698 152,698 153,698 154,698 155,698 156,698 157,698 158,698 159,698 159,698 160,698 161,698 162,698 163,698 164,698 165,698 166,698 167,698 168,698 168,698 169,698 170,698 171,698 172,698 173,698 174,698 175,698 176,698 176,698 177,698 178,698 179,698 180,698 181,698 182,698 183,698 184,698 185,698 185,698 186,698 187,698 188,698 189,698 190,698 191,698 192,698 193,698 193,698 194,698 195,698 196,698 197,698 198,698 199,698 200,698 201,698 202,698 202,698 203,698 204,698 205,698 206,698 207,698 208,698 209,698 210,698 210,698 211,698 212,698 213,698 214,698 215,698 216,698 217,698 218,698 219,698 219,698 220,698 221,698 222,698 223,698 224,698 225,698 226,698 227,698 227,698 228,698 229,698 230,698 231,698 232,698 233,698 234,698 235,698 236,698 236,698 237,698 238,698 239,698 240,698 241,698 242,698 243,698 244,698 244,698 245,698 246,698 247,698 248,698 249,698 250,698 251,698 252,698 253,698 253,698 254,698 255,698 256,698 257,698 258,698 259,698 260,698 261,698 261,698 262,698 263,698 264,698 265,698 266,698 267,698 268,698 269,698 270,698 270,698 271,698 272,698 273,698 274,698 275,698 276,698 277,698 278,698 278,698 279,698 280,698 281,698 282,698 283,698 284,698 285,698 286,698 287,698 287,698 288,698 289,698 290,698 291,698 292,698 293,698 294,698 295,698 295,698 296,698 297,698 298,698 299,698 300,698 301,698 302,698 303,698 304,698 304,698 305,698 306,698 307,698 308,698 309,698 310,698 311,698 312,698 312,698 313,698 314,698 315,698 316,698 317,698 318,698 319,698 320,698 321,698 321,698 322,698 323,698 324,698 325,698 326,698 327,698 328,698 329,698 329,698 330,698 331,698 332,698 333,698 334,698 335,698 336,698 337,698 338,698 338,698 339,698 340,698 341,698 342,698 343,698 344,698 345,698 346,698 347,698 347,698 348,698 349,698 350,698 351,698 352,698 353,698 354,698 355,698 355,697 356,697 357,697 358,697 359,697 360,697 361,697 362,697 363,697 364,697 364,697 365,697 366,697 367,697 368,697 369,697 370,697 371,697 372,697 372,697 373,697 374,697 375,697 376,697 377,697 378,697 379,697 380,697 381,697 381,697 382,697 383,697 384,697 385,697 386,697 387,697 388,697 389,697 389,697 390,697 391,697 392,697 393,697 394,697 395,697 396,697 397,697 398,697 398,697 399,697 400,697 401,697 402,697 403,697 404,697 405,697 406,697 406,697 407,697 408,697 409,697 410,697 411,697 412,697 413,697 414,697 415,697 415,697 416,697 417,697 418,697 419,697 420,697 421,697 422,697 423,697 423,697 424,697 425,697 426,697 427,697 428,697 429,697 430,697 431,697 432,697 432,697 433,697 434,697 435,697 436,696 437,696 438,696 439,696 440,696 440,696 441,696 442,696 443,696 444,696 445,696 446,696 447,696 448,696 449,696 449,696 450,696 451,696 452,696 453,696 454,696 455,696 456,696 457,695 457,694 458,693 459,692 460,691 461,690 462,689 463,688 464,687 465,686 466,684 466,683 467,682 468,681 469,680 470,679 471,678 472,677 473,676 474,675 474,674 475,673 476,672 477,670 478,669 479,668 480,667 481,666 482,665 483,664 483,663 484,662 485,661 486,660 487,659 488,658 489,656 490,655 491,654 491,653 492,652 493,651 494,650 495,649 496,648 497,647 498,646 499,645 500,644 500,643 501,641 502,640 503,639 504,638 505,637 506,636 507,635 508,634 508,633 509,632 510,631 511,630 512,629 513,627 514,626 515,625 516,624 517,623 517,622 518,621 519,620 520,619 521,618 522,617 523,616 524,614 525,613 525,612 526,611 527,610 528,609 529,608 530,607 531,606 532,605 533,603 534,602 534,601 535,600 536,599 537,598 538,597 539,596 540,595 541,594 542,593 542,592 543,590 544,589 545,588 546,587 547,586 548,585 549,584 550,583 551,582 551,581 552,580 553,578 554,577 555,576 556,575 557,574 558,573 559,572 560,571 560,570 561,569 562,568 563,567 564,566 565,565 566,564 567,563 568,562 568,561 569,559 570,558 571,557 572,556 573,555 574,554 575,553 576,552 577,551 577,550 578,549 579,548 580,546 581,545 582,544 583,543 584,542 585,541 585,540 586,539 587,538 588,537 589,536 590,535 591,534 592,533 593,532 594,531 594,529 595,528 596,527 597,526 598,525 599,524 600,523 601,522 602,521 602,520 603,519 604,518 605,517 606,516 607,515 608,514 609,513 610,511 611,510 611,509 612,508 613,507 614,506 615,505 616,504 617,503 618,502 619,501 619,500 620,498 621,497 622,496 623,495 624,494 625,493 626,492 627,491 628,490 628,489 629,488 630,487 631,486 632,485 633,483 634,482 635,481 636,480 636,479 637,478 638,477 639,476 640,475 641,474 642,473 643,472 644,470 645,469 645,468 646,467 647,466 648,465 649,464 650,463 651,462 652,460 653,459 653,458 654,457 655,456 656,455 657,454 658,453 659,452 660,451 661,449 662,448 662,447 663,446 664,445 665,444 666,443 667,442 668,441 669,439 670,438 670,437 671,436 672,435 673,434 674,433 675,432 676,431 677,430 678,429 679,427 679,426 680,425 681,424 682,423 683,422 684,421 685,420 686,419 687,418 687,417 688,416 689,415 690,414 691,412 692,411 693,410 694,409 695,408 696,407 696,406 697,405 698,404 699,403 700,401 701,400 702,399 703,398 704,397 704,396 705,395 706,394 707,393 708,392 709,391 710,390 711,389 712,387 713,387 713,385 714,384 715,383 716,382 717,381 718,380 719,379 720,378 721,377 721,376 722,375 723,374 724,373 725,371 726,370 727,369 728,368 729,367 730,366 730,365 731,364 732,363 733,361 734,360 735,359 736,358 737,357 738,356 738,355 739,354 740,353 741,352 742,351 743,350 744,349 745,348 746,346 747,345 747,344 748,343 749,342 750,341 751,340 752,339 753,338 754,336 755,335 755,334 756,333 757,332 758,331 759,330 760,329 761,328 762,327 763,325 764,324 764,323 765,322 766,321 767,320 768,319 769,318 770,317 771,316 772,315 773,314 773,313 774,311 775,310 776,309 777,308 778,307 779,306 780,305 781,304 781,303 782,302 783,301 784,300 785,299 786,298 787,297 788,296 789,294 790,293 790,292 791,291 792,290 793,289 794,288 795,287 796,286 797,285 798,283 798,282 799,281 800,280 801,279 802,278 803,277 804,276 805,275 806,274 807,273 807,271 808,270 809,269 810,268 811,267 812,266 813,265 814,264 815,263 815,262 816,260 817,260 818,258 819,257 820,256 821,255 822,254 823,253 824,252 824,251 825,249 826,248 827,247 828,246 829,245 830,244 831,243 832,242 832,241 833,240 834,239 835,237 836,236 837,235 838,234 839,233 840,232 841,231 841,230 842,229 843,227 844,226 845,225 846,224 847,223 848,222 849,221 849,220 850,219 851,217 852,216 853,215 854,214 855,213 856,212 857,211 858,210 858,209 859,208 860,207 861,205 862,204 863,203 864,202 865,201 866,200 866,199 867,198 868,197 869,196 870,195 871,193 872,192 873,191 874,190 875,189 875,188 876,187 877,186 878,185 879,184 880,182 881,181 882,181 883,179 883,178 884,177 885,176 886,175 887,174 888,173 889,172 890,171 891,170 892,168 892,167 893,166 894,165 895,164 896,163 897,162 898,160 899,159 900,158 900,157 901,156 902,155 903,154 904,152 905,151 906,150 907,149 908,148 909,147 909,146 910,145 911,144 912,142 913,141 914,140 915,139 916,138 917,137 917,136 918,135 919,134 920,133 921,131 922,130 923,129 924,128 925,127 926,126 926,125 927,124 928,122 929,121 930,120 931,119 932,118 933,117 934,116 934,115 935,114 936,113 937,112 938,110 939,109 940,108 941,107 942,106 943,105 943,104 944,103 945,101 946,100 947,99 948,98 949,97 950,96 951,95 951,94 952,92 953,91 954,90 955,89 956,88 957,87 958,86 959,85 960,84 960,83 961,82 962,81 963,79 964,78 965,77 966,76 967,75 968,74 968,73 969,72 970,71 971,69 972,69 972,69 973,69 "/>
<line opacity="0.1" stroke="#000000" stroke-width="1" x1="84" y1="699" x2="84" y2="68"/>
<line opacity="0.1" stroke="#000000" stroke-width="1" x1="95" y1="699" x2="95" y2="68"/>
<line opacity="0.1" stroke="#000000" stroke-width="1" x1="106" y1="699" x2="106" y2="68"/>
<line opacity="0.1" stroke="#000000" stroke-width="1" x1="118" y1="699" x2="118" y2="68"/>
<line opacity="0.1" stroke="#000000" stroke-width="1" x1="129" y1="699" x2="129" y2="68"/>
<line opacity="0.1" stroke="#000000" stroke-width="1" x1="140" y1="699" x2="140" y2="68"/>
<line opacity="0.1" stroke="#000000" stroke-width="1" x1="151" y1="699" x2="151" y2="68"/>
<line opacity="0.1" stroke="#000000" stroke-width="1" x1="162" y1="699" x2="162" y2="68"/>
<line opacity="0.1" stroke="#000000" stroke-width="1" x1="174" y1="699" x2="174" y2="68"/>
<line opacity="0.1" stroke="#000000" stroke-width="1" x1="185" y1="699" x2="185" y2="68"/>
<line opacity="0.1" stroke="#000000" stroke-width="1" x1="196" y1="699" x2="196" y2="68"/>
<line opacity="0.1" stroke="#000000" stroke-width="1" x1="207" y1="699" x2="207" y2="68"/>
<line opacity="0.1" stroke="#000000" stroke-width="1" x1="218" y1="699" x2="218" y2="68"/>
<line opacity="0.1" stroke="#000000" stroke-width="1" x1="229" y1="699" x2="229" y2="68"/>
<line opacity="0.1" stroke="#000000" stroke-width="1" x1="241" y1="699" x2="241" y2="68"/>
<line opacity="0.1" stroke="#000000" stroke-width="1" x1="252" y1="699" x2="252" y2="68"/>
<line opacity="0.1" stroke="#000000" stroke-width="1" x1="263" y1="699" x2="263" y2="68"/>
<line opacity="0.1" stroke="#000000" stroke-width="1" x1="274" y1="699" x2="274" y2="68"/>
<line opacity="0.1" stroke="#000000" stroke-width="1" x1="285" y1="699" x2="285" y2="68"/>
<line opacity="0.1" stroke="#000000" stroke-width="1" x1="297" y1="699" x2="297" y2="68"/>
<line opacity="0.1" stroke="#000000" stroke-width="1" x1="308" y1="699" x2="308" y2="68"/>
<line opacity="0.1" stroke="#000000" stroke-width="1" x1="319" y1="699" x2="319" y2="68"/>
<line opacity="0.1" stroke="#000000" stroke-width="1" x1="330" y1="699" x2="330" y2="68"/>
<line opacity="0.1" stroke="#000000" stroke-width="1" x1="341" y1="699" x2="341" y2="68"/>
<line opacity="0.1" stroke="#000000" stroke-width="1" x1="352" y1="699" x2="352" y2="68"/>
<line opacity="0.1" stroke="#000000" stroke-width="1" x1="364" y1="699" x2="364" y2="68"/>
<line opacity="0.1" stroke="#000000" stroke-width="1" x1="375" y1="699" x2="375" y2="68"/>
<line opacity="0.1" stroke="#000000" stroke-width="1" x1="386" y1="699" x2="386" y2="68"/>
<line opacity="0.1" stroke="#000000" stroke-width="1" x1="397" y1="699" x2="397" y2="68"/>
<line opacity="0.1" stroke="#000000" stroke-width="1" x1="408" y1="699" x2="408" y2="68"/>
<line opacity="0.1" stroke="#000000" stroke-width="1" x1="420" y1="699" x2="420" y2="68"/>
<line opacity="0.1" stroke="#000000" stroke-width="1" x1="431" y1="699" x2="431" y2="68"/>
<line opacity="0.1" stroke="#000000" stroke-width="1" x1="442" y1="699" x2="442" y2="68"/>
<line opacity="0.1" stroke="#000000" stroke-width="1" x1="453" y1="699" x2="453" y2="68"/>
<line opacity="0.1" stroke="#000000" stroke-width="1" x1="464" y1="699" x2="464" y2="68"/>
<line opacity="0.1" stroke="#000000" stroke-width="1" x1="476" y1="699" x2="476" y2="68"/>
<line opacity="0.1" stroke="#000000" stroke-width="1" x1="487" y1="699" x2="487" y2="68"/>
<line opacity="0.1" stroke="#000000" stroke-width="1" x1="498" y1="699" x2="498" y2="68"/>
<line opacity="0.1" stroke="#000000" stroke-width="1" x1="509" y1="699" x2="509" y2="68"/>
<line opacity="0.1" stroke="#000000" stroke-width="1" x1="520" y1="699" x2="520" y2="68"/>
<line opacity="0.1" stroke="#000000" stroke-width="1" x1="531" y1="699" x2="531" y2="68"/>
<line opacity="0.1" stroke="#000000" stroke-width="1" x1="543" y1="699" x2="543" y2="68"/>
<line opacity="0.1" stroke="#000000" stroke-width="1" x1="554" y1="699" x2="554" y2="68"/>
<line opacity="0.1" stroke="#000000" stroke-width="1" x1="565" y1="699" x2="565" y2="68"/>
<line opacity="0.1" stroke="#000000" stroke-width="1" x1="576" y1="699" x2="576" y2="68"/>
<line opacity="0.1" stroke="#000000" stroke-width="1" x1="587" y1="699" x2="587" y2="68"/>
<line opacity="0.1" stroke="#000000" stroke-width="1" x1="599" y1="699" x2="599" y2="68"/>
<line opacity="0.1" stroke="#000000" stroke-width="1" x1="610" y1="699" x2="610" y2="68"/>
<line opacity="0.1" stroke="#000000" stroke-width="1" x1="621" y1="699" x2="621" y2="68"/>
<line opacity="0.1" stroke="#000000" stroke-width="1" x1="632" y1="699" x2="632" y2="68"/>
<line opacity="0.1" stroke="#000000" stroke-width="1" x1="643" y1="699" x2="643" y2="68"/>
<line opacity="0.1" stroke="#000000" stroke-width="1" x1="654" y1="699" x2="654" y2="68"/>
<line opacity="0.1" stroke="#000000" stroke-width="1" x1="666" y1="699" x2="666" y2="68"/>
<line opacity="0.1" stroke="#000000" stroke-width="1" x1="677" y1="699" x2="677" y2="68"/>
<line opacity="0.1" stroke="#000000" stroke-width="1" x1="688" y1="699" x2="688" y2="68"/>
<line opacity="0.1" stroke="#000000" stroke-width="1" x1="699" y1="699" x2="699" y2="68"/>
<line opacity="0.1" stroke="#000000" stroke-width="1" x1="710" y1="699" x2="710" y2="68"/>
<line opacity="0.1" stroke="#000000" stroke-width="1" x1="722" y1="699" x2="722" y2="68"/>
<line opacity="0.1" stroke="#000000" stroke-width="1" x1="733" y1="699" x2="733" y2="68"/>
<line opacity="0.1" stroke="#000000" stroke-width="1" x1="744" y1="699" x2="744" y2="68"/>
<line opacity="0.1" stroke="#000000" stroke-width="1" x1="755" y1="699" x2="755" y2="68"/>
<line opacity="0.1" stroke="#000000" stroke-width="1" x1="766" y1="699" x2="766" y2="68"/>
<line opacity="0.1" stroke="#000000" stroke-width="1" x1="777" y1="699" x2="777" y2="68"/>
<line opacity="0.1" stroke="#000000" stroke-width="1" x1="789" y1="699" x2="789" y2="68"/>
<line opacity="0.1" stroke="#000000" stroke-width="1" x1="800" y1="699" x2="800" y2="68"/>
<line opacity="0.1" stroke="#000000" stroke-width="1" x1="811" y1="699" x2="811" y2="68"/>
<line opacity="0.1" stroke="#000000" stroke-width="1" x1="822" y1="699" x2="822" y2="68"/>
<line opacity="0.1" stroke="#000000" stroke-width="1" x1="833" y1="699" x2="833" y2="68"/>
<line opacity="0.1" stroke="#000000" stroke-width="1" x1="845" y1="699" x2="845" y2="68"/>
<line opacity="0.1" stroke="#000000" stroke-width="1" x1="856" y1="699" x2="856" y2="68"/>
<line opacity="0.1" stroke="#000000" stroke-width="1" x1="867" y1="699" x2="867" y2="68"/>
<line opacity="0.1" stroke="#000000" stroke-width="1" x1="878" y1="699" x2="878" y2="68"/>
<line opacity="0.1" stroke="#000000" stroke-width="1" x1="889" y1="699" x2="889" y2="68"/>
<line opacity="0.1" stroke="#000000" stroke-width="1" x1="900" y1="699" x2="900" y2="68"/>
<line opacity="0.1" stroke="#000000" stroke-width="1" x1="912" y1="699" x2="912" y2="68"/>
<line opacity="0.1" stroke="#000000" stroke-width="1" x1="923" y1="699" x2="923" y2="68"/>
<line opacity="0.1" stroke="#000000" stroke-width="1" x1="934" y1="699" x2="934" y2="68"/>
<line opacity="0.1" stroke="#000000" stroke-width="1" x1="945" y1="699" x2="945" y2="68"/>
<line opacity="0.1" stroke="#000000" stroke-width="1" x1="956" y1="699" x2="956" y2="68"/>
<line opacity="0.1" stroke="#000000" stroke-width="1" x1="968" y1="699" x2="968" y2="68"/>
<line opacity="0.1" stroke="#000000" stroke-width="1" x1="78" y1="699" x2="973" y2="699"/>
<line opacity="0.1" stroke="#000000" stroke-width="1" x1="78" y1="691" x2="973" y2="691"/>
<line opacity="0.1" stroke="#000000" stroke-width="1" x1="78" y1="683" x2="973" y2="683"/>
<line opacity="0.1" stroke="#000000" stroke-width="1" x1="78" y1="675" x2="973" y2="675"/>
<line opacity="0.1" stroke="#000000" stroke-width="1" x1="78" y1="667" x2="973" y2="667"/>
<line opacity="0.1" stroke="#000000" stroke-width="1" x1="78" y1="659" x2="973" y2="659"/>
<line opacity="0.1" stroke="#000000" stroke-width="1" x1="78" y1="651" x2="973" y2="651"/>
<line opacity="0.1" stroke="#000000" stroke-width="1" x1="78" y1="643" x2="973" y2="643"/>
<line opacity="0.1" stroke="#000000" stroke-width="1" x1="78" y1="635" x2="973" y2="635"/>
<line opacity="0.1" stroke="#000000" stroke-width="1" x1="78" y1="627" x2="973" y2="627"/>
<line opacity="0.1" stroke="#000000" stroke-width="1" x1="78" y1="619" x2="973" y2="619"/>
<line opacity="0.1" stroke="#000000" stroke-width="1" x1="78" y1="612" x2="973" y2="612"/>
<line opacity="0.1" stroke="#000000" stroke-width="1" x1="78" y1="604" x2="973" y2="604"/>
<line opacity="0.1" stroke="#000000" stroke-width="1" x1="78" y1="596" x2="973" y2="596"/>
<line opacity="0.1" stroke="#000000" stroke-width="1" x1="78" y1="588" x2="973" y2="588"/>
<line opacity="0.1" stroke="#000000" stroke-width="1" x1="78" y1="580" x2="973" y2="580"/>
<line opacity="0.1" stroke="#000000" stroke-width="1" x1="78" y1="572" x2="973" y2="572"/>
<line opacity="0.1" stroke="#000000" stroke-width="1" x1="78" y1="564" x2="973" y2="564"/>
<line opacity="0.1" stroke="#000000" stroke-width="1" x1="78" y1="556" x2="973" y2="556"/>
<line opacity="0.1" stroke="#000000" stroke-width="1" x1="78" y1="548" x2="973" y2="548"/>
<line opacity="0.1" stroke="#000000" stroke-width="1" x1="78" y1="540" x2="973" y2="540"/>
<line opacity="0.1" stroke="#000000" stroke-width="1" x1="78" y1="532" x2="973" y2="532"/>
<line opacity="0.1" stroke="#000000" stroke-width="1" x1="78" y1="525" x2="973" y2="525"/>
<line opacity="0.1" stroke="#000000" stroke-width="1" x1="78" y1="517" x2="973" y2="517"/>
<line opacity="0.1" stroke="#000000" stroke-width="1" x1="78" y1="509" x2="973" y2="509"/>
<line opacity="0.1" stroke="#000000" stroke-width="1" x1="78" y1="501" x2="973" y2="501"/>
<line opacity="0.1" stroke="#000000" stroke-width="1" x1="78" y1="493" x2="973" y2="493"/>
<line opacity="0.1" stroke="#000000" stroke-width="1" x1="78" y1="485" x2="973" y2="485"/>
<line opacity="0.1" stroke="#000000" stroke-width="1" x1="78" y1="477" x2="973" y2="477"/>
<line opacity="0.1" stroke="#000000" stroke-width="1" x1="78" y1="469" x2="973" y2="469"/>
<line opacity="0.1" stroke="#000000" stroke-width="1" x1="78" y1="461" x2="973" y2="461"/>
<line opacity="0.1" stroke="#000000" stroke-width="1" x1="78" y1="453" x2="973" y2="453"/>
<line opacity="0.1" stroke="#000000" stroke-width="1" x1="78" y1="446" x2="973" y2="446"/>
<line opacity="0.1" stroke="#000000" stroke-width="1" x1="78" y1="438" x2="973" y2="438"/>
<line opacity="0.1" stroke="#000000" stroke-width="1" x1="78" y1="430" x2="973" y2="430"/>
<line opacity="0.1" stroke="#000000" stroke-width="1" x1="78" y1="422" x2="973" y2="422"/>
<line opacity="0.1" stroke="#000000" stroke-width="1" x1="78" y1="414" x2="973" y2="414"/>
<line opacity="0.1" stroke="#000000" stroke-width="1" x1="78" y1="406" x2="973" y2="406"/>
<line opacity="0.1" stroke="#000000" stroke-width="1" x1="78" y1="398" x2="973" y2="398"/>
<line opacity="0.1" stroke="#000000" stroke-width="1" x1="78" y1="390" x2="973" y2="390"/>
<line opacity="0.1" stroke="#000000" stroke-width="1" x1="78" y1="382" x2="973" y2="382"/>
<line opacity="0.1" stroke="#000000" stroke-width="1" x1="78" y1="374" x2="973" y2="374"/>
<line opacity="0.1" stroke="#000000" stroke-width="1" x1="78" y1="366" x2="973" y2="366"/>
<line opacity="0.1" stroke="#000000" stroke-width="1" x1="78" y1="359" x2="973" y2="359"/>
<line opacity="0.1" stroke="#000000" stroke-width="1" x1="78" y1="351" x2="973" y2="351"/>
<line opacity="0.1" stroke="#000000" stroke-width="1" x1="78" y1="343" x2="973" y2="343"/>
<line opacity="0.1" stroke="#000000" stroke-width="1" x1="78" y1="335" x2="973" y2="335"/>
<line opacity="0.1" stroke="#000000" stroke-width="1" x1="78" y1="327" x2="973" y2="327"/>
<line opacity="0.1" stroke="#000000" stroke-width="1" x1="78" y1="319" x2="973" y2="319"/>
<line opacity="0.1" stroke="#000000" stroke-width="1" x1="78" y1="311" x2="973" y2="311"/>
<line opacity="0.1" stroke="#000000" stroke-width="1" x1="78" y1="303" x2="973" y2="303"/>
<line opacity="0.1" stroke="#000000" stroke-width="1" x1="78" y1="295" x2="973" y2="295"/>
<line opacity="0.1" stroke="#000000" stroke-width="1" x1="78" y1="287" x2="973" y2="287"/>
<line opacity="0.1" stroke="#000000" stroke-width="1" x1="78" y1="279" x2="973" y2="279"/>
<line opacity="0.1" stroke="#000000" stroke-width="1" x1="78" y1="272" x2="973" y2="272"/>
<line opacity="0.1" stroke="#000000" stroke-width="1" x1="78" y1="264" x2="973" y2="264"/>
<line opacity="0.1" stroke="#000000" stroke-width="1" x1="78" y1="256" x2="973" y2="256"/>
<line opacity="0.1" stroke="#000000" stroke-width="1" x1="78" y1="248" x2="973" y2="248"/>
<line opacity="0.1" stroke="#000000" stroke-width="1" x1="78" y1="240" x2="973" y2="240"/>
<line opacity="0.1" stroke="#000000" stroke-width="1" x1="78" y1="232" x2="973" y2="232"/>
<line opacity="0.1" stroke="#000000" stroke-width="1" x1="78" y1="224" x2="973" y2="224"/>
<line opacity="0.1" stroke="#000000" stroke-width="1" x1="78" y1="216" x2="973" y2="216"/>
<line opacity="0.1" stroke="#000000" stroke-width="1" x1="78" y1="208" x2="973" y2="208"/>
<line opacity="0.1" stroke="#000000" stroke-width="1" x1="78" y1="200" x2="973" y2="200"/>
<line opacity="0.1" stroke="#000000" stroke-width="1" x1="78" y1="193" x2="973" y2="193"/>
<line opacity="0.1" stroke="#000000" stroke-width="1" x1="78" y1="185" x2="973" y2="185"/>
<line opacity="0.1" stroke="#000000" stroke-width="1" x1="78" y1="177" x2="973" y2="177"/>
<line opacity="0.1" stroke="#000000" stroke-width="1" x1="78" y1="169" x2="973" y2="169"/>
<line opacity="0.1" stroke="#000000" stroke-width="1" x1="78" y1="161" x2="973" y2="161"/>
<line opacity="0.1" stroke="#000000" stroke-width="1" x1="78" y1="153" x2="973" y2="153"/>
<line opacity="0.1" stroke="#000000" stroke-width="1" x1="78" y1="145" x2="973" y2="145"/>
<line opacity="0.1" stroke="#000000" stroke-width="1" x1="78" y1="137" x2="973" y2="137"/>
<line opacity="0.1" stroke="#000000" stroke-width="1" x1="78" y1="129" x2="973" y2="129"/>
<line opacity="0.1" stroke="#000000" stroke-width="1" x1="78" y1="121" x2="973" y2="121"/>
<line opacity="0.1" stroke="#000000" stroke-width="1" x1="78" y1="113" x2="973" y2="113"/>
<line opacity="0.1" stroke="#000000" stroke-width="1" x1="78" y1="106" x2="973" y2="106"/>
<line opacity="0.1" stroke="#000000" stroke-width="1" x1="78" y1="98" x2="973" y2="98"/>
<line opacity="0.1" stroke="#000000" stroke-width="1" x1="78" y1="90" x2="973" y2="90"/>
<line opacity="0.1" stroke="#000000" stroke-width="1" x1="78" y1="82" x2="973" y2="82"/>
<line opacity="0.1" stroke="#000000" stroke-width="1" x1="78" y1="74" x2="973" y2="74"/>
<text x="8" y="384" dy="0.76em" text-anchor="middle" font-family="sans-serif" font-size="9.67741935483871" opacity="1" fill="#000000" transform="rotate(270, 8, 384)">
Memory usage
</text>
<text x="526" y="760" dy="-0.5ex" text-anchor="middle" font-family="sans-serif" font-size="9.67741935483871" opacity="1" fill="#000000">
Time
</text>
<line opacity="0.2" stroke="#000000" stroke-width="1" x1="106" y1="699" x2="106" y2="68"/>
<line opacity="0.2" stroke="#000000" stroke-width="1" x1="218" y1="699" x2="218" y2="68"/>
<line opacity="0.2" stroke="#000000" stroke-width="1" x1="330" y1="699" x2="330" y2="68"/>
<line opacity="0.2" stroke="#000000" stroke-width="1" x1="442" y1="699" x2="442" y2="68"/>
<line opacity="0.2" stroke="#000000" stroke-width="1" x1="554" y1="699" x2="554" y2="68"/>
<line opacity="0.2" stroke="#000000" stroke-width="1" x1="666" y1="699" x2="666" y2="68"/>
<line opacity="0.2" stroke="#000000" stroke-width="1" x1="777" y1="699" x2="777" y2="68"/>
<line opacity="0.2" stroke="#000000" stroke-width="1" x1="889" y1="699" x2="889" y2="68"/>
<line opacity="0.2" stroke="#000000" stroke-width="1" x1="78" y1="699" x2="973" y2="699"/>
<line opacity="0.2" stroke="#000000" stroke-width="1" x1="78" y1="619" x2="973" y2="619"/>
<line opacity="0.2" stroke="#000000" stroke-width="1" x1="78" y1="540" x2="973" y2="540"/>
<line opacity="0.2" stroke="#000000" stroke-width="1" x1="78" y1="461" x2="973" y2="461"/>
<line opacity="0.2" stroke="#000000" stroke-width="1" x1="78" y1="382" x2="973" y2="382"/>
<line opacity="0.2" stroke="#000000" stroke-width="1" x1="78" y1="303" x2="973" y2="303"/>
<line opacity="0.2" stroke="#000000" stroke-width="1" x1="78" y1="224" x2="973" y2="224"/>
<line opacity="0.2" stroke="#000000" stroke-width="1" x1="78" y1="145" x2="973" y2="145"/>
<polyline fill="none" opacity="1" stroke="#000000" stroke-width="1" points="77,68 77,699 "/>
<text x="68" y="699" dy="0.5ex" text-anchor="end" font-family="sans-serif" font-size="9.67741935483871" opacity="1" fill="#000000">
0.0 MB
</text>
<polyline fill="none" opacity="1" stroke="#000000" stroke-width="1" points="72,699 77,699 "/>
<text x="68" y="619" dy="0.5ex" text-anchor="end" font-family="sans-serif" font-size="9.67741935483871" opacity="1" fill="#000000">
4.8 MB
</text>
<polyline fill="none" opacity="1" stroke="#000000" stroke-width="1" points="72,619 77,619 "/>
<text x="68" y="540" dy="0.5ex" text-anchor="end" font-family="sans-serif" font-size="9.67741935483871" opacity="1" fill="#000000">
9.5 MB
</text>
<polyline fill="none" opacity="1" stroke="#000000" stroke-width="1" points="72,540 77,540 "/>
<text x="68" y="461" dy="0.5ex" text-anchor="end" font-family="sans-serif" font-size="9.67741935483871" opacity="1" fill="#000000">
14.3 MB
</text>
<polyline fill="none" opacity="1" stroke="#000000" stroke-width="1" points="72,461 77,461 "/>
<text x="68" y="382" dy="0.5ex" text-anchor="end" font-family="sans-serif" font-size="9.67741935483871" opacity="1" fill="#000000">
19.1 MB
</text>
<polyline fill="none" opacity="1" stroke="#000000" stroke-width="1" points="72,382 77,382 "/>
<text x="68" y="303" dy="0.5ex" text-anchor="end" font-family="sans-serif" font-size="9.67741935483871" opacity="1" fill="#000000">
23.8 MB
</text>
<polyline fill="none" opacity="1" stroke="#000000" stroke-width="1" points="72,303 77,303 "/>
<text x="68" y="224" dy="0.5ex" text-anchor="end" font-family="sans-serif" font-size="9.67741935483871" opacity="1" fill="#000000">
28.6 MB
</text>
<polyline fill="none" opacity="1" stroke="#000000" stroke-width="1" points="72,224 77,224 "/>
<text x="68" y="145" dy="0.5ex" text-anchor="end" font-family="sans-serif" font-size="9.67741935483871" opacity="1" fill="#000000">
33.4 MB
</text>
<polyline fill="none" opacity="1" stroke="#000000" stroke-width="1" points="72,145 77,145 "/>
<polyline fill="none" opacity="1" stroke="#000000" stroke-width="1" points="78,700 973,700 "/>
<text x="106" y="710" dy="0.76em" text-anchor="middle" font-family="sans-serif" font-size="9.67741935483871" opacity="1" fill="#000000">
07 20:33:20
</text>
<polyline fill="none" opacity="1" stroke="#000000" stroke-width="1" points="106,700 106,705 "/>
<text x="218" y="710" dy="0.76em" text-anchor="middle" font-family="sans-serif" font-size="9.67741935483871" opacity="1" fill="#000000">
08 10:26:40
</text>
<polyline fill="none" opacity="1" stroke="#000000" stroke-width="1" points="218,700 218,705 "/>
<text x="330" y="710" dy="0.76em" text-anchor="middle" font-family="sans-serif" font-size="9.67741935483871" opacity="1" fill="#000000">
09 00:20:00
</text>
<polyline fill="none" opacity="1" stroke="#000000" stroke-width="1" points="330,700 330,705 "/>
<text x="442" y="710" dy="0.76em" text-anchor="middle" font-family="sans-serif" font-size="9.67741935483871" opacity="1" fill="#000000">
09 14:13:20
</text>
<polyline fill="none" opacity="1" stroke="#000000" stroke-width="1" points="442,700 442,705 "/>
<text x="554" y="710" dy="0.76em" text-anchor="middle" font-family="sans-serif" font-size="9.67741935483871" opacity="1" fill="#000000">
10 04:06:40
</text>
<polyline fill="none" opacity="1" stroke="#000000" stroke-width="1" points="554,700 554,705 "/>
<text x="666" y="710" dy="0.76em" text-anchor="middle" font-family="sans-serif" font-size="9.67741935483871" opacity="1" fill="#000000">
10 18:00:00
</text>
<polyline fill="none" opacity="1" stroke="#000000" stroke-width="1" points="666,700 666,705 "/>
<text x="777" y="710" dy="0.76em" text-anchor="middle" font-family="sans-serif" font-size="9.67741935483871" opacity="1" fill="#000000">
11 07:53:20
</text>
<polyline fill="none" opacity="1" stroke="#000000" stroke-width="1" points="777,700 777,705 "/>
<text x="889" y="710" dy="0.76em" text-anchor="middle" font-family="sans-serif" font-size="9.67741935483871" opacity="1" fill="#000000">
11 21:46:40
</text>
<polyline fill="none" opacity="1" stroke="#000000" stroke-width="1" points="889,700 889,705 "/>
<polyline fill="none" opacity="1" stroke="#000000" stroke-width="1" points="78,67 974,67 "/>
<text x="106" y="58" dy="-0.5ex" text-anchor="middle" font-family="sans-serif" font-size="9.67741935483871" opacity="1" fill="#000000">
+03:35:44
</text>
<polyline fill="none" opacity="1" stroke="#000000" stroke-width="1" points="106,62 106,67 "/>
<text x="218" y="58" dy="-0.5ex" text-anchor="middle" font-family="sans-serif" font-size="9.67741935483871" opacity="1" fill="#000000">
+17:29:04
</text>
<polyline fill="none" opacity="1" stroke="#000000" stroke-width="1" points="218,62 218,67 "/>
<text x="330" y="58" dy="-0.5ex" text-anchor="middle" font-family="sans-serif" font-size="9.67741935483871" opacity="1" fill="#000000">
+31:22:24
</text>
<polyline fill="none" opacity="1" stroke="#000000" stroke-width="1" points="330,62 330,67 "/>
<text x="442" y="58" dy="-0.5ex" text-anchor="middle" font-family="sans-serif" font-size="9.67741935483871" opacity="1" fill="#000000">
+45:15:44
</text>
<polyline fill="none" opacity="1" stroke="#000000" stroke-width="1" points="442,62 442,67 "/>
<text x="554" y="58" dy="-0.5ex" text-anchor="middle" font-family="sans-serif" font-size="9.67741935483871" opacity="1" fill="#000000">
+59:09:04
</text>
<polyline fill="none" opacity="1" stroke="#000000" stroke-width="1" points="554,62 554,67 "/>
<text x="666" y="58" dy="-0.5ex" text-anchor="middle" font-family="sans-serif" font-size="9.67741935483871" opacity="1" fill="#000000">
+73:02:24
</text>
<polyline fill="none" opacity="1" stroke="#000000" stroke-width="1" points="666,62 666,67 "/>
<text x="778" y="58" dy="-0.5ex" text-anchor="middle" font-family="sans-serif" font-size="9.67741935483871" opacity="1" fill="#000000">
+86:55:44
</text>
<polyline fill="none" opacity="1" stroke="#000000" stroke-width="1" points="778,62 778,67 "/>
<text x="890" y="58" dy="-0.5ex" text-anchor="middle" font-family="sans-serif" font-size="9.67741935483871" opacity="1" fill="#000000">
+100:49:04
</text>
<polyline fill="none" opacity="1" stroke="#000000" stroke-width="1" points="890,62 890,67 "/>
<rect x="83" y="73" width="99" height="45" opacity="0.75" fill="#FFFFFF" stroke="none"/>
<rect x="83" y="73" width="99" height="45" opacity="1" fill="none" stroke="#000000"/>
<text x="123" y="83" dy="0.76em" text-anchor="start" font-family="sans-serif" font-size="9.67741935483871" opacity="1" fill="#000000">
Temporary
</text>
<text x="123" y="98" dy="0.76em" text-anchor="start" font-family="sans-serif" font-size="9.67741935483871" opacity="1" fill="#000000">
Leaked
</text>
<rect x="93" y="83" width="10" height="10" opacity="1" fill="#3CB44B" stroke="none"/>
<rect x="93" y="98" width="10" height="10" opacity="1" fill="#E6194B" stroke="none"/>
</svg>
