<svg width="1024" height="768" viewBox="0 0 1024 768" xmlns="http://www.w3.org/2000/svg">
<rect x="0" y="0" width="1024" height="768" opacity="1" fill="#FFFFFF" stroke="none"/>
<polygon opacity="1" fill="#3CB44B" points="78,697 79,695 80,694 81,693 82,692 83,691 83,690 84,688 85,687 86,686 87,685 88,684 89,683 90,681 91,680 92,679 92,678 93,677 94,676 95,675 96,674 97,672 98,671 99,670 100,669 100,668 101,666 102,665 103,664 104,663 105,662 106,660 107,660 108,658 109,657 109,656 110,655 111,653 112,652 113,651 114,650 115,649 116,648 117,646 117,645 118,644 119,643 120,642 121,641 122,639 123,638 124,637 125,636 126,635 126,634 127,633 128,631 129,630 130,629 131,628 132,627 133,625 134,624 134,623 135,622 136,621 137,620 138,618 139,617 140,616 141,615 142,614 143,613 143,611 144,610 145,609 146,608 147,607 148,606 149,604 150,603 151,602 151,601 152,600 153,598 154,597 155,596 156,595 157,594 158,592 159,591 160,590 160,589 161,588 162,586 163,585 164,584 165,583 166,582 167,580 168,579 168,578 169,577 170,576 171,575 172,573 173,572 174,571 175,570 176,569 177,567 177,566 178,565 179,564 180,563 181,561 182,560 183,559 184,558 185,557 185,556 186,555 187,553 188,552 189,551 190,550 191,549 192,548 193,546 194,545 194,544 195,543 196,542 197,541 198,539 199,538 200,537 201,536 202,535 202,534 203,533 204,531 205,530 206,529 207,528 208,527 209,526 210,525 211,524 211,523 212,521 213,520 214,519 215,518 216,517 217,516 218,515 219,514 219,513 220,511 221,510 222,509 223,508 224,507 225,506 226,505 227,504 228,502 228,501 229,500 230,499 231,498 232,497 233,496 234,494 235,493 236,492 236,491 237,490 238,489 239,488 240,487 241,485 242,484 243,483 244,482 245,481 245,480 246,479 247,478 248,477 249,475 250,474 251,473 252,472 253,471 253,470 254,469 255,467 256,466 257,465 258,464 259,463 260,462 261,461 262,460 262,458 263,457 264,456 265,455 266,454 267,453 268,452 269,451 270,449 270,449 271,447 272,446 273,445 274,444 275,443 276,442 277,441 278,440 279,439 279,437 280,436 281,435 282,434 283,433 284,432 285,431 286,429 287,428 288,427 288,426 289,425 290,424 291,423 292,422 293,420 294,419 295,418 296,417 296,416 297,415 298,414 299,413 300,412 301,410 302,409 303,408 304,407 305,406 305,405 306,404 307,403 308,402 309,400 310,399 311,398 312,397 313,396 313,395 314,394 315,393 316,392 317,391 318,389 319,388 320,387 321,386 322,385 322,384 323,383 324,382 325,380 326,379 327,378 328,377 329,376 330,375 330,374 331,373 332,372 333,370 334,369 335,368 336,367 337,366 338,365 339,364 339,362 340,361 341,360 342,359 343,358 344,357 345,356 346,354 347,353 347,352 348,351 349,350 350,349 351,348 352,347 353,346 354,344 355,343 356,342 356,341 357,340 358,339 359,338 360,337 361,335 362,334 363,333 364,332 364,331 365,330 366,329 367,328 368,326 369,325 370,324 371,323 372,322 373,321 373,320 374,318 375,317 376,316 377,315 378,314 379,313 380,312 381,311 381,309 382,308 383,307 384,306 385,305 386,304 387,303 388,301 389,301 390,299 390,298 391,297 392,296 393,295 394,294 395,292 396,291 397,290 398,289 398,288 399,287 400,286 401,285 402,283 403,282 404,281 405,280 406,279 407,278 407,277 408,276 409,275 410,274 411,272 412,271 413,270 414,269 415,268 415,267 416,266 417,265 418,263 419,262 420,261 421,260 422,259 423,257 424,256 424,255 425,254 426,253 427,252 428,251 429,249 430,248 431,247 432,246 432,245 433,244 434,242 435,241 436,240 437,239 438,238 439,237 440,235 441,234 441,233 442,232 443,231 444,230 445,228 446,227 447,226 448,225 449,224 449,223 450,222 451,220 452,219 453,218 454,217 455,216 456,215 457,214 458,213 458,211 459,210 460,209 461,208 462,207 463,206 464,205 465,204 466,203 466,201 467,200 468,199 469,198 470,197 471,196 472,195 473,193 474,192 475,191 475,190 476,189 477,188 478,187 479,186 480,185 481,183 482,182 483,181 483,180 484,179 485,178 486,177 487,175 488,174 489,173 490,172 491,171 492,170 492,168 493,167 494,166 495,165 496,164 497,163 498,162 499,161 500,159 501,158 501,157 502,156 503,155 504,154 505,153 506,151 507,150 508,149 509,148 509,147 510,146 511,145 512,144 513,142 514,141 515,140 516,139 517,138 518,136 518,135 519,134 520,133 521,132 522,131 523,129 524,128 525,127 526,126 526,125 527,124 528,123 529,122 530,120 531,120 532,118 533,117 534,116 535,115 535,114 536,113 537,112 538,111 539,109 540,108 541,107 542,106 543,105 543,104 544,103 545,101 546,100 547,99 548,98 549,97 550,96 551,95 552,94 552,92 553,91 554,90 555,89 556,88 557,87 558,86 559,85 560,83 560,82 561,81 562,80 563,79 564,78 565,77 566,76 567,75 568,74 569,74 569,74 570,74 571,73 572,73 573,73 574,73 575,73 576,74 577,73 577,73 578,74 579,74 580,74 581,74 582,74 583,74 584,74 585,74 586,74 586,74 587,74 588,74 589,74 590,74 591,74 592,74 593,74 594,74 594,74 595,74 596,74 597,74 598,74 599,74 600,74 601,74 602,74 603,74 603,74 604,74 605,74 606,74 607,74 608,74 609,74 610,74 611,74 611,74 612,74 613,74 614,74 615,73 616,73 617,74 618,74 619,74 620,74 620,74 621,74 622,74 623,74 624,73 625,73 626,73 627,73 628,73 628,73 629,73 630,73 631,73 632,73 633,73 634,73 635,73 636,73 637,73 637,73 638,73 639,73 640,73 641,73 642,73 643,73 644,73 645,73 645,73 646,73 647,73 648,73 649,73 650,73 651,73 652,74 653,74 654,74 654,74 655,74 656,73 657,73 658,73 659,73 660,73 661,73 662,73 662,73 663,73 664,73 665,73 666,73 667,73 668,73 669,73 670,73 671,73 671,73 672,73 673,73 674,73 675,73 676,73 677,73 678,73 679,73 679,73 680,73 681,73 682,73 683,73 684,73 685,73 686,73 687,73 688,73 688,73 689,73 690,73 691,73 692,73 693,73 694,73 695,73 696,73 696,73 697,73 698,73 699,73 700,73 701,73 702,73 703,73 704,73 705,73 705,73 706,73 707,73 708,73 709,73 710,73 711,73 712,73 713,73 714,73 714,73 715,73 716,73 717,73 718,73 719,73 720,73 721,73 722,73 722,73 723,73 724,73 725,73 726,73 727,73 728,73 729,73 730,73 731,73 731,73 732,73 733,73 734,73 735,73 736,73 737,73 738,73 739,72 739,72 740,72 741,72 742,72 743,73 744,73 745,73 746,73 747,73 748,73 748,72 749,73 750,72 751,72 752,72 753,72 754,72 755,72 756,72 756,72 757,72 758,72 759,72 760,72 761,72 762,72 763,72 764,72 765,72 765,72 766,72 767,72 768,72 769,72 770,72 771,72 772,72 773,72 773,72 774,72 775,72 776,72 777,72 778,72 779,72 780,72 781,72 782,72 782,72 783,72 784,72 785,72 786,72 787,71 788,71 789,71 790,71 790,71 791,71 792,71 793,71 794,71 795,71 796,71 797,71 798,71 799,71 799,71 800,71 801,71 802,71 803,71 804,71 805,71 806,70 807,70 807,70 808,70 809,70 810,70 811,70 812,71 813,71 814,71 815,71 816,71 816,70 817,70 818,70 819,70 820,71 821,70 822,70 823,70 824,70 824,70 825,70 826,70 827,70 828,70 829,70 830,70 831,70 832,70 833,70 833,70 834,70 835,70 836,70 837,70 838,70 839,70 840,70 841,70 841,70 842,70 843,70 844,70 845,70 846,70 847,69 848,69 849,69 850,69 850,69 851,69 852,69 853,69 854,69 855,69 856,69 857,69 858,69 858,69 859,69 860,69 861,69 862,69 863,69 864,69 865,69 866,69 867,69 867,69 868,69 869,69 870,69 871,69 872,69 873,69 874,69 875,69 875,69 876,69 877,69 878,69 879,69 880,69 881,69 882,69 883,69 884,69 884,69 885,69 886,69 887,69 888,68 889,68 890,68 891,68 892,68 892,68 893,68 894,68 895,68 896,68 897,68 898,68 899,68 900,68 901,68 901,68 902,68 903,68 904,68 905,68 906,68 907,68 908,68 909,68 909,68 910,68 911,68 912,68 913,68 914,68 915,68 916,68 917,68 918,68 918,68 919,68 920,68 921,68 922,68 923,68 924,68 925,68 926,68 927,68 927,68 928,68 929,68 930,68 931,68 932,68 933,68 934,68 935,68 935,68 936,68 937,68 938,68 939,68 940,68 941,68 942,68 943,68 944,68 944,68 945,68 946,68 947,68 948,68 949,68 950,68 951,68 952,68 952,68 953,68 954,68 955,68 956,68 957,68 958,68 959,68 960,68 961,68 961,68 962,68 963,68 964,68 965,68 966,68 967,68 968,68 969,68 969,68 970,68 971,68 972,68 972,69 973,69 973,699 78,699 "/>
<polyline fill="none" opacity="1" stroke="#3CB44B" stroke-width="1" points="78,697 79,695 80,694 81,693 82,692 83,691 83,690 84,688 85,687 86,686 87,685 88,684 89,683 90,681 91,680 92,679 92,678 93,677 94,676 95,675 96,674 97,672 98,671 99,670 100,669 100,668 101,666 102,665 103,664 104,663 105,662 106,660 107,660 108,658 109,657 109,656 110,655 111,653 112,652 113,651 114,650 115,649 116,648 117,646 117,645 118,644 119,643 120,642 121,641 122,639 123,638 124,637 125,636 126,635 126,634 127,633 128,631 129,630 130,629 131,628 132,627 133,625 134,624 134,623 135,622 136,621 137,620 138,618 139,617 140,616 141,615 142,614 143,613 143,611 144,610 145,609 146,608 147,607 148,606 149,604 150,603 151,602 151,601 152,600 153,598 154,597 155,596 156,595 157,594 158,592 159,591 160,590 160,589 161,588 162,586 163,585 164,584 165,583 166,582 167,580 168,579 168,578 169,577 170,576 171,575 172,573 173,572 174,571 175,570 176,569 177,567 177,566 178,565 179,564 180,563 181,561 182,560 183,559 184,558 185,557 185,556 186,555 187,553 188,552 189,551 190,550 191,549 192,548 193,546 194,545 194,544 195,543 196,542 197,541 198,539 199,538 200,537 201,536 202,535 202,534 203,533 204,531 205,530 206,529 207,528 208,527 209,526 210,525 211,524 211,523 212,521 213,520 214,519 215,518 216,517 217,516 218,515 219,514 219,513 220,511 221,510 222,509 223,508 224,507 225,506 226,505 227,504 228,502 228,501 229,500 230,499 231,498 232,497 233,496 234,494 235,493 236,492 236,491 237,490 238,489 239,488 240,487 241,485 242,484 243,483 244,482 245,481 245,480 246,479 247,478 248,477 249,475 250,474 251,473 252,472 253,471 253,470 254,469 255,467 256,466 257,465 258,464 259,463 260,462 261,461 262,460 262,458 263,457 264,456 265,455 266,454 267,453 268,452 269,451 270,449 270,449 271,447 272,446 273,445 274,444 275,443 276,442 277,441 278,440 279,439 279,437 280,436 281,435 282,434 283,433 284,432 285,431 286,429 287,428 288,427 288,426 289,425 290,424 291,423 292,422 293,420 294,419 295,418 296,417 296,416 297,415 298,414 299,413 300,412 301,410 302,409 303,408 304,407 305,406 305,405 306,404 307,403 308,402 309,400 310,399 311,398 312,397 313,396 313,395 314,394 315,393 316,392 317,391 318,389 319,388 320,387 321,386 322,385 322,384 323,383 324,382 325,380 326,379 327,378 328,377 329,376 330,375 330,374 331,373 332,372 333,370 334,369 335,368 336,367 337,366 338,365 339,364 339,362 340,361 341,360 342,359 343,358 344,357 345,356 346,354 347,353 347,352 348,351 349,350 350,349 351,348 352,347 353,346 354,344 355,343 356,342 356,341 357,340 358,339 359,338 360,337 361,335 362,334 363,333 364,332 364,331 365,330 366,329 367,328 368,326 369,325 370,324 371,323 372,322 373,321 373,320 374,318 375,317 376,316 377,315 378,314 379,313 380,312 381,311 381,309 382,308 383,307 384,306 385,305 386,304 387,303 388,301 389,301 390,299 390,298 391,297 392,296 393,295 394,294 395,292 396,291 397,290 398,289 398,288 399,287 400,286 401,285 402,283 403,282 404,281 405,280 406,279 407,278 407,277 408,276 409,275 410,274 411,272 412,271 413,270 414,269 415,268 415,267 416,266 417,265 418,263 419,262 420,261 421,260 422,259 423,257 424,256 424,255 425,254 426,253 427,252 428,251 429,249 430,248 431,247 432,246 432,245 433,244 434,242 435,241 436,240 437,239 438,238 439,237 440,235 441,234 441,233 442,232 443,231 444,230 445,228 446,227 447,226 448,225 449,224 449,223 450,222 451,220 452,219 453,218 454,217 455,216 456,215 457,214 458,213 458,211 459,210 460,209 461,208 462,207 463,206 464,205 465,204 466,203 466,201 467,200 468,199 469,198 470,197 471,196 472,195 473,193 474,192 475,191 475,190 476,189 477,188 478,187 479,186 480,185 481,183 482,182 483,181 483,180 484,179 485,178 486,177 487,175 488,174 489,173 490,172 491,171 492,170 492,168 493,167 494,166 495,165 496,164 497,163 498,162 499,161 500,159 501,158 501,157 502,156 503,155 504,154 505,153 506,151 507,150 508,149 509,148 509,147 510,146 511,145 512,144 513,142 514,141 515,140 516,139 517,138 518,136 518,135 519,134 520,133 521,132 522,131 523,129 524,128 525,127 526,126 526,125 527,124 528,123 529,122 530,120 531,120 532,118 533,117 534,116 535,115 535,114 536,113 537,112 538,111 539,109 540,108 541,107 542,106 543,105 543,104 544,103 545,101 546,100 547,99 548,98 549,97 550,96 551,95 552,94 552,92 553,91 554,90 555,89 556,88 557,87 558,86 559,85 560,83 560,82 561,81 562,80 563,79 564,78 565,77 566,76 567,75 568,74 569,74 569,74 570,74 571,73 572,73 573,73 574,73 575,73 576,74 577,73 577,73 578,74 579,74 580,74 581,74 582,74 583,74 584,74 585,74 586,74 586,74 587,74 588,74 589,74 590,74 591,74 592,74 593,74 594,74 594,74 595,74 596,74 597,74 598,74 599,74 600,74 601,74 602,74 603,74 603,74 604,74 605,74 606,74 607,74 608,74 609,74 610,74 611,74 611,74 612,74 613,74 614,74 615,73 616,73 617,74 618,74 619,74 620,74 620,74 621,74 622,74 623,74 624,73 625,73 626,73 627,73 628,73 628,73 629,73 630,73 631,73 632,73 633,73 634,73 635,73 636,73 637,73 637,73 638,73 639,73 640,73 641,73 642,73 643,73 644,73 645,73 645,73 646,73 647,73 648,73 649,73 650,73 651,73 652,74 653,74 654,74 654,74 655,74 656,73 657,73 658,73 659,73 660,73 661,73 662,73 662,73 663,73 664,73 665,73 666,73 667,73 668,73 669,73 670,73 671,73 671,73 672,73 673,73 674,73 675,73 676,73 677,73 678,73 679,73 679,73 680,73 681,73 682,73 683,73 684,73 685,73 686,73 687,73 688,73 688,73 689,73 690,73 691,73 692,73 693,73 694,73 695,73 696,73 696,73 697,73 698,73 699,73 700,73 701,73 702,73 703,73 704,73 705,73 705,73 706,73 707,73 708,73 709,73 710,73 711,73 712,73 713,73 714,73 714,73 715,73 716,73 717,73 718,73 719,73 720,73 721,73 722,73 722,73 723,73 724,73 725,73 726,73 727,73 728,73 729,73 730,73 731,73 731,73 732,73 733,73 734,73 735,73 736,73 737,73 738,73 739,72 739,72 740,72 741,72 742,72 743,73 744,73 745,73 746,73 747,73 748,73 748,72 749,73 750,72 751,72 752,72 753,72 754,72 755,72 756,72 756,72 757,72 758,72 759,72 760,72 761,72 762,72 763,72 764,72 765,72 765,72 766,72 767,72 768,72 769,72 770,72 771,72 772,72 773,72 773,72 774,72 775,72 776,72 777,72 778,72 779,72 780,72 781,72 782,72 782,72 783,72 784,72 785,72 786,72 787,71 788,71 789,71 790,71 790,71 791,71 792,71 793,71 794,71 795,71 796,71 797,71 798,71 799,71 799,71 800,71 801,71 802,71 803,71 804,71 805,71 806,70 807,70 807,70 808,70 809,70 810,70 811,70 812,71 813,71 814,71 815,71 816,71 816,70 817,70 818,70 819,70 820,71 821,70 822,70 823,70 824,70 824,70 825,70 826,70 827,70 828,70 829,70 830,70 831,70 832,70 833,70 833,70 834,70 835,70 836,70 837,70 838,70 839,70 840,70 841,70 841,70 842,70 843,70 844,70 845,70 846,70 847,69 848,69 849,69 850,69 850,69 851,69 852,69 853,69 854,69 855,69 856,69 857,69 858,69 858,69 859,69 860,69 861,69 862,69 863,69 864,69 865,69 866,69 867,69 867,69 868,69 869,69 870,69 871,69 872,69 873,69 874,69 875,69 875,69 876,69 877,69 878,69 879,69 880,69 881,69 882,69 883,69 884,69 884,69 885,69 886,69 887,69 888,68 889,68 890,68 891,68 892,68 892,68 893,68 894,68 895,68 896,68 897,68 898,68 899,68 900,68 901,68 901,68 902,68 903,68 904,68 905,68 906,68 907,68 908,68 909,68 909,68 910,68 911,68 912,68 913,68 914,68 915,68 916,68 917,68 918,68 918,68 919,68 920,68 921,68 922,68 923,68 924,68 925,68 926,68 927,68 927,68 928,68 929,68 930,68 931,68 932,68 933,68 934,68 935,68 935,68 936,68 937,68 938,68 939,68 940,68 941,68 942,68 943,68 944,68 944,68 945,68 946,68 947,68 948,68 949,68 950,68 951,68 952,68 952,68 953,68 954,68 955,68 956,68 957,68 958,68 959,68 960,68 961,68 961,68 962,68 963,68 964,68 965,68 966,68 967,68 968,68 969,68 969,68 970,68 971,68 972,68 972,69 973,69 "/>
<polygon opacity="1" fill="#E6194B" points="78,699 79,698 80,698 81,698 82,698 83,698 83,698 84,698 85,698 86,698 87,698 88,698 89,698 90,698 91,698 92,698 92,698 93,698 94,698 95,698 96,698 97,698 98,698 99,698 100,698 100,698 101,698 102,698 103,698 104,698 105,698 106,698 107,698 108,698 109,698 109,698 110,698 111,698 112,698 113,698 114,698 115,698 116,698 117,698 117,698 118,698 119,698 120,698 121,698 122,698 123,698 124,698 125,698 126,698 126,698 127,698 128,698 129,698 130,698 131,698 132,698 133,698 134,698 134,698 135,698 136,698 137,698 138,698 139,698 140,698 141,698 142,698 143,698 143,698 144,698 145,698 146,698 147,698 148,698 149,698 150,698 151,698 151,698 152,698 153,698 154,698 155,698 156,698 157,698 158,698 159,698 160,698 160,698 161,698 162,698 163,698 164,698 165,698 166,698 167,698 168,698 168,698 169,698 170,698 171,698 172,698 173,698 174,698 175,698 176,698 177,698 177,698 178,698 179,698 180,698 181,698 182,698 183,698 184,698 185,698 185,698 186,698 187,698 188,698 189,698 190,698 191,698 192,698 193,698 194,698 194,698 195,698 196,698 197,698 198,698 199,698 200,698 201,698 202,698 202,698 203,698 204,698 205,698 206,698 207,698 208,698 209,698 210,698 211,698 211,698 212,698 213,698 214,698 215,698 216,698 217,698 218,698 219,698 219,698 220,698 221,698 222,698 223,698 224,698 225,698 226,698 227,698 228,698 228,698 229,698 230,698 231,698 232,698 233,698 234,698 235,698 236,698 236,698 237,698 238,698 239,698 240,698 241,698 242,698 243,698 244,698 245,698 245,698 246,698 247,698 248,698 249,698 250,698 251,698 252,698 253,698 253,698 254,698 255,698 256,698 257,698 258,698 259,698 260,698 261,698 262,698 262,698 263,698 264,698 265,698 266,698 267,698 268,698 269,698 270,698 270,698 271,698 272,698 273,698 274,698 275,698 276,698 277,698 278,698 279,698 279,698 280,698 281,698 282,698 283,698 284,698 285,698 286,698 287,698 288,698 288,698 289,698 290,698 291,698 292,698 293,698 294,698 295,698 296,698 296,698 297,698 298,698 299,698 300,698 301,698 302,698 303,698 304,698 305,698 305,698 306,698 307,698 308,698 309,698 310,698 311,698 312,698 313,698 313,698 314,698 315,698 316,698 317,698 318,698 319,698 320,698 321,698 322,698 322,698 323,698 324,698 325,698 326,698 327,698 328,698 329,698 330,698 330,698 331,698 332,698 333,698 334,698 335,698 336,698 337,698 338,698 339,698 339,698 340,698 341,698 342,698 343,698 344,698 345,698 346,698 347,698 347,698 348,698 349,698 350,698 351,698 352,698 353,698 354,698 355,698 356,698 356,698 357,698 358,698 359,698 360,698 361,698 362,698 363,698 364,698 364,698 365,698 366,698 367,698 368,698 369,698 370,698 371,698 372,698 373,698 373,698 374,698 375,698 376,698 377,698 378,698 379,698 380,698 381,698 381,698 382,698 383,698 384,698 385,698 386,698 387,698 388,698 389,698 390,698 390,698 391,698 392,698 393,698 394,698 395,698 396,698 397,698 398,698 398,698 399,698 400,698 401,698 402,698 403,698 404,698 405,698 406,698 407,698 407,698 408,698 409,698 410,698 411,698 412,698 413,698 414,698 415,698 415,698 416,698 417,698 418,698 419,698 420,698 421,698 422,698 423,698 424,698 424,698 425,698 426,698 427,698 428,698 429,698 430,698 431,698 432,698 432,698 433,698 434,698 435,698 436,698 437,698 438,698 439,698 440,698 441,698 441,698 442,698 443,698 444,698 445,698 446,698 447,698 448,698 449,698 449,698 450,698 451,698 452,698 453,698 454,698 455,698 456,698 457,698 458,698 458,698 459,698 460,698 461,698 462,698 463,698 464,698 465,698 466,698 466,698 467,698 468,698 469,698 470,698 471,698 472,698 473,698 474,698 475,698 475,698 476,698 477,697 478,697 479,697 480,697 481,697 482,697 483,697 483,696 484,695 485,694 486,693 487,692 488,691 489,690 490,689 491,688 492,686 492,685 493,684 494,683 495,682 496,681 497,680 498,679 499,677 500,676 501,675 501,674 502,673 503,672 504,670 505,669 506,668 507,667 508,666 509,665 509,664 510,662 511,661 512,660 513,659 514,658 515,657 516,656 517,654 518,653 518,652 519,651 520,650 521,649 522,647 523,646 524,645 525,644 526,643 526,642 527,641 528,640 529,638 530,637 531,636 532,635 533,634 534,633 535,632 535,631 536,630 537,628 538,627 539,626 540,625 541,624 542,623 543,622 543,621 544,619 545,618 546,617 547,616 548,615 549,614 550,613 551,611 552,610 552,609 553,608 554,607 555,606 556,605 557,604 558,602 559,601 560,600 560,599 561,598 562,597 563,596 564,595 565,593 566,592 567,591 568,590 569,589 569,588 570,587 571,586 572,585 573,584 574,583 575,581 576,580 577,579 577,578 578,577 579,576 580,575 581,573 582,572 583,571 584,570 585,569 586,568 586,567 587,566 588,564 589,563 590,562 591,561 592,560 593,559 594,557 594,556 595,555 596,554 597,553 598,552 599,551 600,550 601,548 602,547 603,546 603,545 604,544 605,543 606,542 607,541 608,539 609,538 610,537 611,536 611,535 612,534 613,532 614,531 615,530 616,529 617,528 618,527 619,525 620,524 620,523 621,522 622,521 623,520 624,518 625,517 626,516 627,515 628,514 628,512 629,511 630,510 631,509 632,508 633,507 634,506 635,504 636,503 637,502 637,501 638,500 639,498 640,498 641,496 642,495 643,494 644,493 645,492 645,490 646,489 647,488 648,487 649,486 650,485 651,484 652,483 653,481 654,480 654,479 655,478 656,477 657,476 658,475 659,473 660,472 661,471 662,470 662,469 663,468 664,466 665,465 666,464 667,463 668,462 669,461 670,460 671,458 671,457 672,456 673,455 674,454 675,453 676,452 677,450 678,449 679,448 679,447 680,446 681,445 682,444 683,443 684,441 685,440 686,439 687,438 688,437 688,436 689,435 690,433 691,432 692,431 693,430 694,429 695,427 696,426 696,425 697,424 698,423 699,422 700,420 701,420 702,418 703,417 704,416 705,415 705,414 706,413 707,412 708,410 709,409 710,408 711,407 712,406 713,404 714,403 714,402 715,401 716,400 717,399 718,397 719,396 720,395 721,394 722,393 722,392 723,390 724,389 725,388 726,387 727,386 728,385 729,384 730,383 731,382 731,380 732,379 733,378 734,377 735,376 736,375 737,373 738,372 739,371 739,370 740,369 741,368 742,367 743,366 744,364 745,363 746,362 747,361 748,360 748,359 749,358 750,357 751,355 752,354 753,353 754,352 755,351 756,350 756,348 757,347 758,346 759,345 760,344 761,343 762,342 763,341 764,339 765,338 765,337 766,336 767,335 768,333 769,332 770,331 771,330 772,329 773,328 773,327 774,326 775,324 776,323 777,322 778,321 779,320 780,319 781,318 782,316 782,315 783,314 784,313 785,312 786,310 787,309 788,308 789,307 790,306 790,304 791,303 792,302 793,301 794,300 795,299 796,297 797,296 798,295 799,294 799,293 800,292 801,290 802,289 803,288 804,287 805,286 806,284 807,283 807,282 808,281 809,280 810,279 811,278 812,276 813,275 814,274 815,273 816,272 816,271 817,269 818,268 819,267 820,266 821,265 822,263 823,262 824,261 824,260 825,259 826,258 827,257 828,256 829,254 830,253 831,252 832,251 833,250 833,249 834,248 835,246 836,245 837,244 838,243 839,242 840,241 841,240 841,238 842,237 843,236 844,235 845,234 846,233 847,231 848,230 849,229 850,228 850,227 851,225 852,224 853,223 854,222 855,221 856,219 857,218 858,217 858,216 859,215 860,213 861,212 862,211 863,210 864,209 865,208 866,206 867,205 867,204 868,203 869,202 870,201 871,200 872,198 873,197 874,196 875,195 875,194 876,193 877,191 878,190 879,189 880,188 881,187 882,185 883,184 884,183 884,182 885,181 886,180 887,179 888,177 889,176 890,175 891,174 892,173 892,172 893,170 894,169 895,168 896,167 897,166 898,164 899,163 900,162 901,161 901,160 902,158 903,157 904,156 905,155 906,154 907,153 908,152 909,150 909,149 910,148 911,147 912,146 913,145 914,144 915,142 916,141 917,140 918,139 918,138 919,137 920,135 921,134 922,133 923,132 924,131 925,130 926,129 927,127 927,126 928,125 929,124 930,123 931,122 932,121 933,119 934,118 935,117 935,116 936,115 937,114 938,112 939,111 940,110 941,109 942,108 943,106 944,105 944,104 945,103 946,102 947,101 948,99 949,98 950,97 951,96 952,95 952,94 953,93 954,92 955,90 956,89 957,88 958,87 959,86 960,85 961,83 961,82 962,81 963,80 964,79 965,78 966,76 967,75 968,74 969,73 969,72 970,70 971,69 972,69 972,69 973,69 973,699 78,699 "/>
<polyline fill="none" opacity="1" stroke="#E6194B" stroke-width="1" points="78,699 79,698 80,698 81,698 82,698 83,698 83,698 84,698 85,698 86,698 87,698 88,698 89,698 90,698 91,698 92,698 92,698 93,698 94,698 95,698 96,698 97,698 98,698 99,698 100,698 100,698 101,698 102,698 103,698 104,698 105,698 106,698 107,698 108,698 109,698 109,698 110,698 111,698 112,698 113,698 114,698 115,698 116,698 117,698 117,698 118,698 119,698 120,698 121,698 122,698 123,698 124,698 125,698 126,698 126,698 127,698 128,698 129,698 130,698 131,698 132,698 133,698 134,698 134,698 135,698 136,698 137,698 138,698 139,698 140,698 141,698 142,698 143,698 143,698 144,698 145,698 146,698 147,698 148,698 149,698 150,698 151,698 151,698 152,698 153,698 154,698 155,698 156,698 157,698 158,698 159,698 160,698 160,698 161,698 162,698 163,698 164,698 165,698 166,698 167,698 168,698 168,698 169,698 170,698 171,698 172,698 173,698 174,698 175,698 176,698 177,698 177,698 178,698 179,698 180,698 181,698 182,698 183,698 184,698 185,698 185,698 186,698 187,698 188,698 189,698 190,698 191,698 192,698 193,698 194,698 194,698 195,698 196,698 197,698 198,698 199,698 200,698 201,698 202,698 202,698 203,698 204,698 205,698 206,698 207,698 208,698 209,698 210,698 211,698 211,698 212,698 213,698 214,698 215,698 216,698 217,698 218,698 219,698 219,698 220,698 221,698 222,698 223,698 224,698 225,698 226,698 227,698 228,698 228,698 229,698 230,698 231,698 232,698 233,698 234,698 235,698 236,698 236,698 237,698 238,698 239,698 240,698 241,698 242,698 243,698 244,698 245,698 245,698 246,698 247,698 248,698 249,698 250,698 251,698 252,698 253,698 253,698 254,698 255,698 256,698 257,698 258,698 259,698 260,698 261,698 262,698 262,698 263,698 264,698 265,698 266,698 267,698 268,698 269,698 270,698 270,698 271,698 272,698 273,698 274,698 275,698 276,698 277,698 278,698 279,698 279,698 280,698 281,698 282,698 283,698 284,698 285,698 286,698 287,698 288,698 288,698 289,698 290,698 291,698 292,698 293,698 294,698 295,698 296,698 296,698 297,698 298,698 299,698 300,698 301,698 302,698 303,698 304,698 305,698 305,698 306,698 307,698 308,698 309,698 310,698 311,698 312,698 313,698 313,698 314,698 315,698 316,698 317,698 318,698 319,698 320,698 321,698 322,698 322,698 323,698 324,698 325,698 326,698 327,698 328,698 329,698 330,698 330,698 331,698 332,698 333,698 334,698 335,698 336,698 337,698 338,698 339,698 339,698 340,698 341,698 342,698 343,698 344,698 345,698 346,698 347,698 347,698 348,698 349,698 350,698 351,698 352,698 353,698 354,698 355,698 356,698 356,698 357,698 358,698 359,698 360,698 361,698 362,698 363,698 364,698 364,698 365,698 366,698 367,698 368,698 369,698 370,698 371,698 372,698 373,698 373,698 374,698 375,698 376,698 377,698 378,698 379,698 380,698 381,698 381,698 382,698 383,698 384,698 385,698 386,698 387,698 388,698 389,698 390,698 390,698 391,698 392,698 393,698 394,698 395,698 396,698 397,698 398,698 398,698 399,698 400,698 401,698 402,698 403,698 404,698 405,698 406,698 407,698 407,698 408,698 409,698 410,698 411,698 412,698 413,698 414,698 415,698 415,698 416,698 417,698 418,698 419,698 420,698 421,698 422,698 423,698 424,698 424,698 425,698 426,698 427,698 428,698 429,698 430,698 431,698 432,698 432,698 433,698 434,698 435,698 436,698 437,698 438,698 439,698 440,698 441,698 441,698 442,698 443,698 444,698 445,698 446,698 447,698 448,698 449,698 449,698 450,698 451,698 452,698 453,698 454,698 455,698 456,698 457,698 458,698 458,698 459,698 460,698 461,698 462,698 463,698 464,698 465,698 466,698 466,698 467,698 468,698 469,698 470,698 471,698 472,698 473,698 474,698 475,698 475,698 476,698 477,697 478,697 479,697 480,697 481,697 482,697 483,697 483,696 484,695 485,694 486,693 487,692 488,691 489,690 490,689 491,688 492,686 492,685 493,684 494,683 495,682 496,681 497,680 498,679 499,677 500,676 501,675 501,674 502,673 503,672 504,670 505,669 506,668 507,667 508,666 509,665 509,664 510,662 511,661 512,660 513,659 514,658 515,657 516,656 517,654 518,653 518,652 519,651 520,650 521,649 522,647 523,646 524,645 525,644 526,643 526,642 527,641 528,640 529,638 530,637 531,636 532,635 533,634 534,633 535,632 535,631 536,630 537,628 538,627 539,626 540,625 541,624 542,623 543,622 543,621 544,619 545,618 546,617 547,616 548,615 549,614 550,613 551,611 552,610 552,609 553,608 554,607 555,606 556,605 557,604 558,602 559,601 560,600 560,599 561,598 562,597 563,596 564,595 565,593 566,592 567,591 568,590 569,589 569,588 570,587 571,586 572,585 573,584 574,583 575,581 576,580 577,579 577,578 578,577 579,576 580,575 581,573 582,572 583,571 584,570 585,569 586,568 586,567 587,566 588,564 589,563 590,562 591,561 592,560 593,559 594,557 594,556 595,555 596,554 597,553 598,552 599,551 600,550 601,548 602,547 603,546 603,545 604,544 605,543 606,542 607,541 608,539 609,538 610,537 611,536 611,535 612,534 613,532 614,531 615,530 616,529 617,528 618,527 619,525 620,524 620,523 621,522 622,521 623,520 624,518 625,517 626,516 627,515 628,514 628,512 629,511 630,510 631,509 632,508 633,507 634,506 635,504 636,503 637,502 637,501 638,500 639,498 640,498 641,496 642,495 643,494 644,493 645,492 645,490 646,489 647,488 648,487 649,486 650,485 651,484 652,483 653,481 654,480 654,479 655,478 656,477 657,476 658,475 659,473 660,472 661,471 662,470 662,469 663,468 664,466 665,465 666,464 667,463 668,462 669,461 670,460 671,458 671,457 672,456 673,455 674,454 675,453 676,452 677,450 678,449 679,448 679,447 680,446 681,445 682,444 683,443 684,441 685,440 686,439 687,438 688,437 688,436 689,435 690,433 691,432 692,431 693,430 694,429 695,427 696,426 696,425 697,424 698,423 699,422 700,420 701,420 702,418 703,417 704,416 705,415 705,414 706,413 707,412 708,410 709,409 710,408 711,407 712,406 713,404 714,403 714,402 715,401 716,400 717,399 718,397 719,396 720,395 721,394 722,393 722,392 723,390 724,389 725,388 726,387 727,386 728,385 729,384 730,383 731,382 731,380 732,379 733,378 734,377 735,376 736,375 737,373 738,372 739,371 739,370 740,369 741,368 742,367 743,366 744,364 745,363 746,362 747,361 748,360 748,359 749,358 750,357 751,355 752,354 753,353 754,352 755,351 756,350 756,348 757,347 758,346 759,345 760,344 761,343 762,342 763,341 764,339 765,338 765,337 766,336 767,335 768,333 769,332 770,331 771,330 772,329 773,328 773,327 774,326 775,324 776,323 777,322 778,321 779,320 780,319 781,318 782,316 782,315 783,314 784,313 785,312 786,310 787,309 788,308 789,307 790,306 790,304 791,303 792,302 793,301 794,300 795,299 796,297 797,296 798,295 799,294 799,293 800,292 801,290 802,289 803,288 804,287 805,286 806,284 807,283 807,282 808,281 809,280 810,279 811,278 812,276 813,275 814,274 815,273 816,272 816,271 817,269 818,268 819,267 820,266 821,265 822,263 823,262 824,261 824,260 825,259 826,258 827,257 828,256 829,254 830,253 831,252 832,251 833,250 833,249 834,248 835,246 836,245 837,244 838,243 839,242 840,241 841,240 841,238 842,237 843,236 844,235 845,234 846,233 847,231 848,230 849,229 850,228 850,227 851,225 852,224 853,223 854,222 855,221 856,219 857,218 858,217 858,216 859,215 860,213 861,212 862,211 863,210 864,209 865,208 866,206 867,205 867,204 868,203 869,202 870,201 871,200 872,198 873,197 874,196 875,195 875,194 876,193 877,191 878,190 879,189 880,188 881,187 882,185 883,184 884,183 884,182 885,181 886,180 887,179 888,177 889,176 890,175 891,174 892,173 892,172 893,170 894,169 895,168 896,167 897,166 898,164 899,163 900,162 901,161 901,160 902,158 903,157 904,156 905,155 906,154 907,153 908,152 909,150 909,149 910,148 911,147 912,146 913,145 914,144 915,142 916,141 917,140 918,139 918,138 919,137 920,135 921,134 922,133 923,132 924,131 925,130 926,129 927,127 927,126 928,125 929,124 930,123 931,122 932,121 933,119 934,118 935,117 935,116 936,115 937,114 938,112 939,111 940,110 941,109 942,108 943,106 944,105 944,104 945,103 946,102 947,101 948,99 949,98 950,97 951,96 952,95 952,94 953,93 954,92 955,90 956,89 957,88 958,87 959,86 960,85 961,83 961,82 962,81 963,80 964,79 965,78 966,76 967,75 968,74 969,73 969,72 970,70 971,69 972,69 972,69 973,69 "/>
<line opacity="0.1" stroke="#000000" stroke-width="1" x1="84" y1="699" x2="84" y2="68"/>
<line opacity="0.1" stroke="#000000" stroke-width="1" x1="94" y1="699" x2="94" y2="68"/>
<line opacity="0.1" stroke="#000000" stroke-width="1" x1="105" y1="699" x2="105" y2="68"/>
<line opacity="0.1" stroke="#000000" stroke-width="1" x1="115" y1="699" x2="115" y2="68"/>
<line opacity="0.1" stroke="#000000" stroke-width="1" x1="126" y1="699" x2="126" y2="68"/>
<line opacity="0.1" stroke="#000000" stroke-width="1" x1="137" y1="699" x2="137" y2="68"/>
<line opacity="0.1" stroke="#000000" stroke-width="1" x1="147" y1="699" x2="147" y2="68"/>
<line opacity="0.1" stroke="#000000" stroke-width="1" x1="158" y1="699" x2="158" y2="68"/>
<line opacity="0.1" stroke="#000000" stroke-width="1" x1="168" y1="699" x2="168" y2="68"/>
<line opacity="0.1" stroke="#000000" stroke-width="1" x1="179" y1="699" x2="179" y2="68"/>
<line opacity="0.1" stroke="#000000" stroke-width="1" x1="189" y1="699" x2="189" y2="68"/>
<line opacity="0.1" stroke="#000000" stroke-width="1" x1="200" y1="699" x2="200" y2="68"/>
<line opacity="0.1" stroke="#000000" stroke-width="1" x1="211" y1="699" x2="211" y2="68"/>
<line opacity="0.1" stroke="#000000" stroke-width="1" x1="221" y1="699" x2="221" y2="68"/>
<line opacity="0.1" stroke="#000000" stroke-width="1" x1="232" y1="699" x2="232" y2="68"/>
<line opacity="0.1" stroke="#000000" stroke-width="1" x1="242" y1="699" x2="242" y2="68"/>
<line opacity="0.1" stroke="#000000" stroke-width="1" x1="253" y1="699" x2="253" y2="68"/>
<line opacity="0.1" stroke="#000000" stroke-width="1" x1="264" y1="699" x2="264" y2="68"/>
<line opacity="0.1" stroke="#000000" stroke-width="1" x1="274" y1="699" x2="274" y2="68"/>
<line opacity="0.1" stroke="#000000" stroke-width="1" x1="285" y1="699" x2="285" y2="68"/>
<line opacity="0.1" stroke="#000000" stroke-width="1" x1="295" y1="699" x2="295" y2="68"/>
<line opacity="0.1" stroke="#000000" stroke-width="1" x1="306" y1="699" x2="306" y2="68"/>
<line opacity="0.1" stroke="#000000" stroke-width="1" x1="316" y1="699" x2="316" y2="68"/>
<line opacity="0.1" stroke="#000000" stroke-width="1" x1="327" y1="699" x2="327" y2="68"/>
<line opacity="0.1" stroke="#000000" stroke-width="1" x1="338" y1="699" x2="338" y2="68"/>
<line opacity="0.1" stroke="#000000" stroke-width="1" x1="348" y1="699" x2="348" y2="68"/>
<line opacity="0.1" stroke="#000000" stroke-width="1" x1="359" y1="699" x2="359" y2="68"/>
<line opacity="0.1" stroke="#000000" stroke-width="1" x1="369" y1="699" x2="369" y2="68"/>
<line opacity="0.1" stroke="#000000" stroke-width="1" x1="380" y1="699" x2="380" y2="68"/>
<line opacity="0.1" stroke="#000000" stroke-width="1" x1="390" y1="699" x2="390" y2="68"/>
<line opacity="0.1" stroke="#000000" stroke-width="1" x1="401" y1="699" x2="401" y2="68"/>
<line opacity="0.1" stroke="#000000" stroke-width="1" x1="412" y1="699" x2="412" y2="68"/>
<line opacity="0.1" stroke="#000000" stroke-width="1" x1="422" y1="699" x2="422" y2="68"/>
<line opacity="0.1" stroke="#000000" stroke-width="1" x1="433" y1="699" x2="433" y2="68"/>
<line opacity="0.1" stroke="#000000" stroke-width="1" x1="443" y1="699" x2="443" y2="68"/>
<line opacity="0.1" stroke="#000000" stroke-width="1" x1="454" y1="699" x2="454" y2="68"/>
<line opacity="0.1" stroke="#000000" stroke-width="1" x1="464" y1="699" x2="464" y2="68"/>
<line opacity="0.1" stroke="#000000" stroke-width="1" x1="475" y1="699" x2="475" y2="68"/>
<line opacity="0.1" stroke="#000000" stroke-width="1" x1="486" y1="699" x2="486" y2="68"/>
<line opacity="0.1" stroke="#000000" stroke-width="1" x1="496" y1="699" x2="496" y2="68"/>
<line opacity="0.1" stroke="#000000" stroke-width="1" x1="507" y1="699" x2="507" y2="68"/>
<line opacity="0.1" stroke="#000000" stroke-width="1" x1="517" y1="699" x2="517" y2="68"/>
<line opacity="0.1" stroke="#000000" stroke-width="1" x1="528" y1="699" x2="528" y2="68"/>
<line opacity="0.1" stroke="#000000" stroke-width="1" x1="538" y1="699" x2="538" y2="68"/>
<line opacity="0.1" stroke="#000000" stroke-width="1" x1="549" y1="699" x2="549" y2="68"/>
<line opacity="0.1" stroke="#000000" stroke-width="1" x1="560" y1="699" x2="560" y2="68"/>
<line opacity="0.1" stroke="#000000" stroke-width="1" x1="570" y1="699" x2="570" y2="68"/>
<line opacity="0.1" stroke="#000000" stroke-width="1" x1="581" y1="699" x2="581" y2="68"/>
<line opacity="0.1" stroke="#000000" stroke-width="1" x1="591" y1="699" x2="591" y2="68"/>
<line opacity="0.1" stroke="#000000" stroke-width="1" x1="602" y1="699" x2="602" y2="68"/>
<line opacity="0.1" stroke="#000000" stroke-width="1" x1="612" y1="699" x2="612" y2="68"/>
<line opacity="0.1" stroke="#000000" stroke-width="1" x1="623" y1="699" x2="623" y2="68"/>
<line opacity="0.1" stroke="#000000" stroke-width="1" x1="634" y1="699" x2="634" y2="68"/>
<line opacity="0.1" stroke="#000000" stroke-width="1" x1="644" y1="699" x2="644" y2="68"/>
<line opacity="0.1" stroke="#000000" stroke-width="1" x1="655" y1="699" x2="655" y2="68"/>
<line opacity="0.1" stroke="#000000" stroke-width="1" x1="665" y1="699" x2="665" y2="68"/>
<line opacity="0.1" stroke="#000000" stroke-width="1" x1="676" y1="699" x2="676" y2="68"/>
<line opacity="0.1" stroke="#000000" stroke-width="1" x1="687" y1="699" x2="687" y2="68"/>
<line opacity="0.1" stroke="#000000" stroke-width="1" x1="697" y1="699" x2="697" y2="68"/>
<line opacity="0.1" stroke="#000000" stroke-width="1" x1="708" y1="699" x2="708" y2="68"/>
<line opacity="0.1" stroke="#000000" stroke-width="1" x1="718" y1="699" x2="718" y2="68"/>
<line opacity="0.1" stroke="#000000" stroke-width="1" x1="729" y1="699" x2="729" y2="68"/>
<line opacity="0.1" stroke="#000000" stroke-width="1" x1="739" y1="699" x2="739" y2="68"/>
<line opacity="0.1" stroke="#000000" stroke-width="1" x1="750" y1="699" x2="750" y2="68"/>
<line opacity="0.1" stroke="#000000" stroke-width="1" x1="761" y1="699" x2="761" y2="68"/>
<line opacity="0.1" stroke="#000000" stroke-width="1" x1="771" y1="699" x2="771" y2="68"/>
<line opacity="0.1" stroke="#000000" stroke-width="1" x1="782" y1="699" x2="782" y2="68"/>
<line opacity="0.1" stroke="#000000" stroke-width="1" x1="792" y1="699" x2="792" y2="68"/>
<line opacity="0.1" stroke="#000000" stroke-width="1" x1="803" y1="699" x2="803" y2="68"/>
<line opacity="0.1" stroke="#000000" stroke-width="1" x1="813" y1="699" x2="813" y2="68"/>
<line opacity="0.1" stroke="#000000" stroke-width="1" x1="824" y1="699" x2="824" y2="68"/>
<line opacity="0.1" stroke="#000000" stroke-width="1" x1="835" y1="699" x2="835" y2="68"/>
<line opacity="0.1" stroke="#000000" stroke-width="1" x1="845" y1="699" x2="845" y2="68"/>
<line opacity="0.1" stroke="#000000" stroke-width="1" x1="856" y1="699" x2="856" y2="68"/>
<line opacity="0.1" stroke="#000000" stroke-width="1" x1="866" y1="699" x2="866" y2="68"/>
<line opacity="0.1" stroke="#000000" stroke-width="1" x1="877" y1="699" x2="877" y2="68"/>
<line opacity="0.1" stroke="#000000" stroke-width="1" x1="887" y1="699" x2="887" y2="68"/>
<line opacity="0.1" stroke="#000000" stroke-width="1" x1="898" y1="699" x2="898" y2="68"/>
<line opacity="0.1" stroke="#000000" stroke-width="1" x1="909" y1="699" x2="909" y2="68"/>
<line opacity="0.1" stroke="#000000" stroke-width="1" x1="919" y1="699" x2="919" y2="68"/>
<line opacity="0.1" stroke="#000000" stroke-width="1" x1="930" y1="699" x2="930" y2="68"/>
<line opacity="0.1" stroke="#000000" stroke-width="1" x1="940" y1="699" x2="940" y2="68"/>
<line opacity="0.1" stroke="#000000" stroke-width="1" x1="951" y1="699" x2="951" y2="68"/>
<line opacity="0.1" stroke="#000000" stroke-width="1" x1="961" y1="699" x2="961" y2="68"/>
<line opacity="0.1" stroke="#000000" stroke-width="1" x1="972" y1="699" x2="972" y2="68"/>
<line opacity="0.1" stroke="#000000" stroke-width="1" x1="78" y1="699" x2="973" y2="699"/>
<line opacity="0.1" stroke="#000000" stroke-width="1" x1="78" y1="690" x2="973" y2="690"/>
<line opacity="0.1" stroke="#000000" stroke-width="1" x1="78" y1="682" x2="973" y2="682"/>
<line opacity="0.1" stroke="#000000" stroke-width="1" x1="78" y1="674" x2="973" y2="674"/>
<line opacity="0.1" stroke="#000000" stroke-width="1" x1="78" y1="666" x2="973" y2="666"/>
<line opacity="0.1" stroke="#000000" stroke-width="1" x1="78" y1="658" x2="973" y2="658"/>
<line opacity="0.1" stroke="#000000" stroke-width="1" x1="78" y1="650" x2="973" y2="650"/>
<line opacity="0.1" stroke="#000000" stroke-width="1" x1="78" y1="642" x2="973" y2="642"/>
<line opacity="0.1" stroke="#000000" stroke-width="1" x1="78" y1="633" x2="973" y2="633"/>
<line opacity="0.1" stroke="#000000" stroke-width="1" x1="78" y1="625" x2="973" y2="625"/>
<line opacity="0.1" stroke="#000000" stroke-width="1" x1="78" y1="617" x2="973" y2="617"/>
<line opacity="0.1" stroke="#000000" stroke-width="1" x1="78" y1="609" x2="973" y2="609"/>
<line opacity="0.1" stroke="#000000" stroke-width="1" x1="78" y1="601" x2="973" y2="601"/>
<line opacity="0.1" stroke="#000000" stroke-width="1" x1="78" y1="593" x2="973" y2="593"/>
<line opacity="0.1" stroke="#000000" stroke-width="1" x1="78" y1="585" x2="973" y2="585"/>
<line opacity="0.1" stroke="#000000" stroke-width="1" x1="78" y1="577" x2="973" y2="577"/>
<line opacity="0.1" stroke="#000000" stroke-width="1" x1="78" y1="568" x2="973" y2="568"/>
<line opacity="0.1" stroke="#000000" stroke-width="1" x1="78" y1="560" x2="973" y2="560"/>
<line opacity="0.1" stroke="#000000" stroke-width="1" x1="78" y1="552" x2="973" y2="552"/>
<line opacity="0.1" stroke="#000000" stroke-width="1" x1="78" y1="544" x2="973" y2="544"/>
<line opacity="0.1" stroke="#000000" stroke-width="1" x1="78" y1="536" x2="973" y2="536"/>
<line opacity="0.1" stroke="#000000" stroke-width="1" x1="78" y1="528" x2="973" y2="528"/>
<line opacity="0.1" stroke="#000000" stroke-width="1" x1="78" y1="520" x2="973" y2="520"/>
<line opacity="0.1" stroke="#000000" stroke-width="1" x1="78" y1="511" x2="973" y2="511"/>
<line opacity="0.1" stroke="#000000" stroke-width="1" x1="78" y1="503" x2="973" y2="503"/>
<line opacity="0.1" stroke="#000000" stroke-width="1" x1="78" y1="495" x2="973" y2="495"/>
<line opacity="0.1" stroke="#000000" stroke-width="1" x1="78" y1="487" x2="973" y2="487"/>
<line opacity="0.1" stroke="#000000" stroke-width="1" x1="78" y1="479" x2="973" y2="479"/>
<line opacity="0.1" stroke="#000000" stroke-width="1" x1="78" y1="471" x2="973" y2="471"/>
<line opacity="0.1" stroke="#000000" stroke-width="1" x1="78" y1="463" x2="973" y2="463"/>
<line opacity="0.1" stroke="#000000" stroke-width="1" x1="78" y1="455" x2="973" y2="455"/>
<line opacity="0.1" stroke="#000000" stroke-width="1" x1="78" y1="446" x2="973" y2="446"/>
<line opacity="0.1" stroke="#000000" stroke-width="1" x1="78" y1="438" x2="973" y2="438"/>
<line opacity="0.1" stroke="#000000" stroke-width="1" x1="78" y1="430" x2="973" y2="430"/>
<line opacity="0.1" stroke="#000000" stroke-width="1" x1="78" y1="422" x2="973" y2="422"/>
<line opacity="0.1" stroke="#000000" stroke-width="1" x1="78" y1="414" x2="973" y2="414"/>
<line opacity="0.1" stroke="#000000" stroke-width="1" x1="78" y1="406" x2="973" y2="406"/>
<line opacity="0.1" stroke="#000000" stroke-width="1" x1="78" y1="398" x2="973" y2="398"/>
<line opacity="0.1" stroke="#000000" stroke-width="1" x1="78" y1="390" x2="973" y2="390"/>
<line opacity="0.1" stroke="#000000" stroke-width="1" x1="78" y1="381" x2="973" y2="381"/>
<line opacity="0.1" stroke="#000000" stroke-width="1" x1="78" y1="373" x2="973" y2="373"/>
<line opacity="0.1" stroke="#000000" stroke-width="1" x1="78" y1="365" x2="973" y2="365"/>
<line opacity="0.1" stroke="#000000" stroke-width="1" x1="78" y1="357" x2="973" y2="357"/>
<line opacity="0.1" stroke="#000000" stroke-width="1" x1="78" y1="349" x2="973" y2="349"/>
<line opacity="0.1" stroke="#000000" stroke-width="1" x1="78" y1="341" x2="973" y2="341"/>
<line opacity="0.1" stroke="#000000" stroke-width="1" x1="78" y1="333" x2="973" y2="333"/>
<line opacity="0.1" stroke="#000000" stroke-width="1" x1="78" y1="324" x2="973" y2="324"/>
<line opacity="0.1" stroke="#000000" stroke-width="1" x1="78" y1="316" x2="973" y2="316"/>
<line opacity="0.1" stroke="#000000" stroke-width="1" x1="78" y1="308" x2="973" y2="308"/>
<line opacity="0.1" stroke="#000000" stroke-width="1" x1="78" y1="300" x2="973" y2="300"/>
<line opacity="0.1" stroke="#000000" stroke-width="1" x1="78" y1="292" x2="973" y2="292"/>
<line opacity="0.1" stroke="#000000" stroke-width="1" x1="78" y1="284" x2="973" y2="284"/>
<line opacity="0.1" stroke="#000000" stroke-width="1" x1="78" y1="276" x2="973" y2="276"/>
<line opacity="0.1" stroke="#000000" stroke-width="1" x1="78" y1="268" x2="973" y2="268"/>
<line opacity="0.1" stroke="#000000" stroke-width="1" x1="78" y1="259" x2="973" y2="259"/>
<line opacity="0.1" stroke="#000000" stroke-width="1" x1="78" y1="251" x2="973" y2="251"/>
<line opacity="0.1" stroke="#000000" stroke-width="1" x1="78" y1="243" x2="973" y2="243"/>
<line opacity="0.1" stroke="#000000" stroke-width="1" x1="78" y1="235" x2="973" y2="235"/>
<line opacity="0.1" stroke="#000000" stroke-width="1" x1="78" y1="227" x2="973" y2="227"/>
<line opacity="0.1" stroke="#000000" stroke-width="1" x1="78" y1="219" x2="973" y2="219"/>
<line opacity="0.1" stroke="#000000" stroke-width="1" x1="78" y1="211" x2="973" y2="211"/>
<line opacity="0.1" stroke="#000000" stroke-width="1" x1="78" y1="202" x2="973" y2="202"/>
<line opacity="0.1" stroke="#000000" stroke-width="1" x1="78" y1="194" x2="973" y2="194"/>
<line opacity="0.1" stroke="#000000" stroke-width="1" x1="78" y1="186" x2="973" y2="186"/>
<line opacity="0.1" stroke="#000000" stroke-width="1" x1="78" y1="178" x2="973" y2="178"/>
<line opacity="0.1" stroke="#000000" stroke-width="1" x1="78" y1="170" x2="973" y2="170"/>
<line opacity="0.1" stroke="#000000" stroke-width="1" x1="78" y1="162" x2="973" y2="162"/>
<line opacity="0.1" stroke="#000000" stroke-width="1" x1="78" y1="154" x2="973" y2="154"/>
<line opacity="0.1" stroke="#000000" stroke-width="1" x1="78" y1="146" x2="973" y2="146"/>
<line opacity="0.1" stroke="#000000" stroke-width="1" x1="78" y1="137" x2="973" y2="137"/>
<line opacity="0.1" stroke="#000000" stroke-width="1" x1="78" y1="129" x2="973" y2="129"/>
<line opacity="0.1" stroke="#000000" stroke-width="1" x1="78" y1="121" x2="973" y2="121"/>
<line opacity="0.1" stroke="#000000" stroke-width="1" x1="78" y1="113" x2="973" y2="113"/>
<line opacity="0.1" stroke="#000000" stroke-width="1" x1="78" y1="105" x2="973" y2="105"/>
<line opacity="0.1" stroke="#000000" stroke-width="1" x1="78" y1="97" x2="973" y2="97"/>
<line opacity="0.1" stroke="#000000" stroke-width="1" x1="78" y1="89" x2="973" y2="89"/>
<line opacity="0.1" stroke="#000000" stroke-width="1" x1="78" y1="81" x2="973" y2="81"/>
<line opacity="0.1" stroke="#000000" stroke-width="1" x1="78" y1="72" x2="973" y2="72"/>
<text x="8" y="384" dy="0.76em" text-anchor="middle" font-family="sans-serif" font-size="9.67741935483871" opacity="1" fill="#000000" transform="rotate(270, 8, 384)">
Memory usage
</text>
<text x="526" y="760" dy="-0.5ex" text-anchor="middle" font-family="sans-serif" font-size="9.67741935483871" opacity="1" fill="#000000">
Time
</text>
<line opacity="0.2" stroke="#000000" stroke-width="1" x1="105" y1="699" x2="105" y2="68"/>
<line opacity="0.2" stroke="#000000" stroke-width="1" x1="211" y1="699" x2="211" y2="68"/>
<line opacity="0.2" stroke="#000000" stroke-width="1" x1="316" y1="699" x2="316" y2="68"/>
<line opacity="0.2" stroke="#000000" stroke-width="1" x1="422" y1="699" x2="422" y2="68"/>
<line opacity="0.2" stroke="#000000" stroke-width="1" x1="528" y1="699" x2="528" y2="68"/>
<line opacity="0.2" stroke="#000000" stroke-width="1" x1="634" y1="699" x2="634" y2="68"/>
<line opacity="0.2" stroke="#000000" stroke-width="1" x1="739" y1="699" x2="739" y2="68"/>
<line opacity="0.2" stroke="#000000" stroke-width="1" x1="845" y1="699" x2="845" y2="68"/>
<line opacity="0.2" stroke="#000000" stroke-width="1" x1="951" y1="699" x2="951" y2="68"/>
<line opacity="0.2" stroke="#000000" stroke-width="1" x1="78" y1="699" x2="973" y2="699"/>
<line opacity="0.2" stroke="#000000" stroke-width="1" x1="78" y1="617" x2="973" y2="617"/>
<line opacity="0.2" stroke="#000000" stroke-width="1" x1="78" y1="536" x2="973" y2="536"/>
<line opacity="0.2" stroke="#000000" stroke-width="1" x1="78" y1="455" x2="973" y2="455"/>
<line opacity="0.2" stroke="#000000" stroke-width="1" x1="78" y1="373" x2="973" y2="373"/>
<line opacity="0.2" stroke="#000000" stroke-width="1" x1="78" y1="292" x2="973" y2="292"/>
<line opacity="0.2" stroke="#000000" stroke-width="1" x1="78" y1="211" x2="973" y2="211"/>
<line opacity="0.2" stroke="#000000" stroke-width="1" x1="78" y1="129" x2="973" y2="129"/>
<polyline fill="none" opacity="1" stroke="#000000" stroke-width="1" points="77,68 77,699 "/>
<text x="68" y="699" dy="0.5ex" text-anchor="end" font-family="sans-serif" font-size="9.67741935483871" opacity="1" fill="#000000">
0.0 MB
</text>
<polyline fill="none" opacity="1" stroke="#000000" stroke-width="1" points="72,699 77,699 "/>
<text x="68" y="617" dy="0.5ex" text-anchor="end" font-family="sans-serif" font-size="9.67741935483871" opacity="1" fill="#000000">
4.8 MB
</text>
<polyline fill="none" opacity="1" stroke="#000000" stroke-width="1" points="72,617 77,617 "/>
<text x="68" y="536" dy="0.5ex" text-anchor="end" font-family="sans-serif" font-size="9.67741935483871" opacity="1" fill="#000000">
9.5 MB
</text>
<polyline fill="none" opacity="1" stroke="#000000" stroke-width="1" points="72,536 77,536 "/>
<text x="68" y="455" dy="0.5ex" text-anchor="end" font-family="sans-serif" font-size="9.67741935483871" opacity="1" fill="#000000">
14.3 MB
</text>
<polyline fill="none" opacity="1" stroke="#000000" stroke-width="1" points="72,455 77,455 "/>
<text x="68" y="373" dy="0.5ex" text-anchor="end" font-family="sans-serif" font-size="9.67741935483871" opacity="1" fill="#000000">
19.1 MB
</text>
<polyline fill="none" opacity="1" stroke="#000000" stroke-width="1" points="72,373 77,373 "/>
<text x="68" y="292" dy="0.5ex" text-anchor="end" font-family="sans-serif" font-size="9.67741935483871" opacity="1" fill="#000000">
23.8 MB
</text>
<polyline fill="none" opacity="1" stroke="#000000" stroke-width="1" points="72,292 77,292 "/>
<text x="68" y="211" dy="0.5ex" text-anchor="end" font-family="sans-serif" font-size="9.67741935483871" opacity="1" fill="#000000">
28.6 MB
</text>
<polyline fill="none" opacity="1" stroke="#000000" stroke-width="1" points="72,211 77,211 "/>
<text x="68" y="129" dy="0.5ex" text-anchor="end" font-family="sans-serif" font-size="9.67741935483871" opacity="1" fill="#000000">
33.4 MB
</text>
<polyline fill="none" opacity="1" stroke="#000000" stroke-width="1" points="72,129 77,129 "/>
<polyline fill="none" opacity="1" stroke="#000000" stroke-width="1" points="78,700 973,700 "/>
<text x="105" y="710" dy="0.76em" text-anchor="middle" font-family="sans-serif" font-size="9.67741935483871" opacity="1" fill="#000000">
07 20:33:20
</text>
<polyline fill="none" opacity="1" stroke="#000000" stroke-width="1" points="105,700 105,705 "/>
<text x="211" y="710" dy="0.76em" text-anchor="middle" font-family="sans-serif" font-size="9.67741935483871" opacity="1" fill="#000000">
08 10:26:40
</text>
<polyline fill="none" opacity="1" stroke="#000000" stroke-width="1" points="211,700 211,705 "/>
<text x="316" y="710" dy="0.76em" text-anchor="middle" font-family="sans-serif" font-size="9.67741935483871" opacity="1" fill="#000000">
09 00:20:00
</text>
<polyline fill="none" opacity="1" stroke="#000000" stroke-width="1" points="316,700 316,705 "/>
<text x="422" y="710" dy="0.76em" text-anchor="middle" font-family="sans-serif" font-size="9.67741935483871" opacity="1" fill="#000000">
09 14:13:20
</text>
<polyline fill="none" opacity="1" stroke="#000000" stroke-width="1" points="422,700 422,705 "/>
<text x="528" y="710" dy="0.76em" text-anchor="middle" font-family="sans-serif" font-size="9.67741935483871" opacity="1" fill="#000000">
10 04:06:40
</text>
<polyline fill="none" opacity="1" stroke="#000000" stroke-width="1" points="528,700 528,705 "/>
<text x="634" y="710" dy="0.76em" text-anchor="middle" font-family="sans-serif" font-size="9.67741935483871" opacity="1" fill="#000000">
10 18:00:00
</text>
<polyline fill="none" opacity="1" stroke="#000000" stroke-width="1" points="634,700 634,705 "/>
<text x="739" y="710" dy="0.76em" text-anchor="middle" font-family="sans-serif" font-size="9.67741935483871" opacity="1" fill="#000000">
11 07:53:20
</text>
<polyline fill="none" opacity="1" stroke="#000000" stroke-width="1" points="739,700 739,705 "/>
<text x="845" y="710" dy="0.76em" text-anchor="middle" font-family="sans-serif" font-size="9.67741935483871" opacity="1" fill="#000000">
11 21:46:40
</text>
<polyline fill="none" opacity="1" stroke="#000000" stroke-width="1" points="845,700 845,705 "/>
<text x="951" y="710" dy="0.76em" text-anchor="middle" font-family="sans-serif" font-size="9.67741935483871" opacity="1" fill="#000000">
12 11:40:00
</text>
<polyline fill="none" opacity="1" stroke="#000000" stroke-width="1" points="951,700 951,705 "/>
<polyline fill="none" opacity="1" stroke="#000000" stroke-width="1" points="78,67 974,67 "/>
<text x="105" y="58" dy="-0.5ex" text-anchor="middle" font-family="sans-serif" font-size="9.67741935483871" opacity="1" fill="#000000">
+03:35:44
</text>
<polyline fill="none" opacity="1" stroke="#000000" stroke-width="1" points="105,62 105,67 "/>
<text x="211" y="58" dy="-0.5ex" text-anchor="middle" font-family="sans-serif" font-size="9.67741935483871" opacity="1" fill="#000000">
+17:29:04
</text>
<polyline fill="none" opacity="1" stroke="#000000" stroke-width="1" points="211,62 211,67 "/>
<text x="317" y="58" dy="-0.5ex" text-anchor="middle" font-family="sans-serif" font-size="9.67741935483871" opacity="1" fill="#000000">
+31:22:24
</text>
<polyline fill="none" opacity="1" stroke="#000000" stroke-width="1" points="317,62 317,67 "/>
<text x="423" y="58" dy="-0.5ex" text-anchor="middle" font-family="sans-serif" font-size="9.67741935483871" opacity="1" fill="#000000">
+45:15:44
</text>
<polyline fill="none" opacity="1" stroke="#000000" stroke-width="1" points="423,62 423,67 "/>
<text x="528" y="58" dy="-0.5ex" text-anchor="middle" font-family="sans-serif" font-size="9.67741935483871" opacity="1" fill="#000000">
+59:09:04
</text>
<polyline fill="none" opacity="1" stroke="#000000" stroke-width="1" points="528,62 528,67 "/>
<text x="634" y="58" dy="-0.5ex" text-anchor="middle" font-family="sans-serif" font-size="9.67741935483871" opacity="1" fill="#000000">
+73:02:24
</text>
<polyline fill="none" opacity="1" stroke="#000000" stroke-width="1" points="634,62 634,67 "/>
<text x="740" y="58" dy="-0.5ex" text-anchor="middle" font-family="sans-serif" font-size="9.67741935483871" opacity="1" fill="#000000">
+86:55:44
</text>
<polyline fill="none" opacity="1" stroke="#000000" stroke-width="1" points="740,62 740,67 "/>
<text x="846" y="58" dy="-0.5ex" text-anchor="middle" font-family="sans-serif" font-size="9.67741935483871" opacity="1" fill="#000000">
+100:49:04
</text>
<polyline fill="none" opacity="1" stroke="#000000" stroke-width="1" points="846,62 846,67 "/>
<text x="952" y="58" dy="-0.5ex" text-anchor="middle" font-family="sans-serif" font-size="9.67741935483871" opacity="1" fill="#000000">
+114:42:24
</text>
<polyline fill="none" opacity="1" stroke="#000000" stroke-width="1" points="952,62 952,67 "/>
<rect x="83" y="73" width="99" height="45" opacity="0.75" fill="#FFFFFF" stroke="none"/>
<rect x="83" y="73" width="99" height="45" opacity="1" fill="none" stroke="#000000"/>
<text x="123" y="83" dy="0.76em" text-anchor="start" font-family="sans-serif" font-size="9.67741935483871" opacity="1" fill="#000000">
Temporary
</text>
<text x="123" y="98" dy="0.76em" text-anchor="start" font-family="sans-serif" font-size="9.67741935483871" opacity="1" fill="#000000">
Leaked
</text>
<rect x="93" y="83" width="10" height="10" opacity="1" fill="#3CB44B" stroke="none"/>
<rect x="93" y="98" width="10" height="10" opacity="1" fill="#E6194B" stroke="none"/>
</svg>
