<svg width="1024" height="768" viewBox="0 0 1024 768" xmlns="http://www.w3.org/2000/svg">
<rect x="0" y="0" width="1024" height="768" opacity="1" fill="#FFFFFF" stroke="none"/>
<polygon opacity="1" fill="#3CB44B" points="78,611 79,542 80,466 81,424 82,423 82,436 83,402 84,400 85,406 86,396 87,419 88,408 89,395 90,401 91,391 91,381 92,392 93,344 94,346 95,313 96,329 97,286 98,312 99,277 99,217 100,242 101,167 102,190 103,121 104,168 105,68 106,89 107,285 108,283 108,291 109,291 110,291 111,291 112,291 113,292 114,292 115,292 116,292 116,292 117,292 118,292 119,292 120,292 121,292 122,292 123,292 124,292 124,292 125,292 126,292 127,292 128,292 129,292 130,292 131,292 132,292 133,292 133,292 134,292 135,292 136,292 137,292 138,292 139,292 140,292 141,292 141,292 142,292 143,292 144,292 145,292 146,292 147,292 148,292 149,292 149,292 150,292 151,292 152,292 153,292 154,292 155,292 156,292 157,292 158,292 158,292 159,292 160,292 161,292 162,292 163,292 164,292 165,292 166,292 166,292 167,292 168,292 169,292 170,292 171,292 172,292 173,292 174,292 174,292 175,292 176,292 177,292 178,292 179,292 180,292 181,292 182,291 183,291 183,291 184,293 185,293 186,293 187,293 188,293 189,293 190,293 191,293 191,293 192,293 193,293 194,293 195,293 196,293 197,293 198,293 199,293 200,293 200,293 201,293 202,293 203,293 204,293 205,293 206,293 207,293 208,293 208,293 209,293 210,293 211,292 212,292 213,292 214,292 215,292 216,292 216,292 217,292 218,292 219,292 220,292 221,292 222,292 223,292 224,292 225,292 225,292 226,292 227,292 228,292 229,292 230,292 231,292 232,292 233,292 233,292 234,292 235,292 236,292 237,292 238,292 239,292 240,292 241,292 241,292 242,292 243,292 244,292 245,292 246,292 247,292 248,292 249,292 250,292 250,292 251,292 252,292 253,292 254,293 255,293 256,293 257,293 258,293 258,293 259,293 260,293 261,293 262,293 263,293 264,293 265,293 266,293 266,293 267,293 268,293 269,293 270,293 271,293 272,293 273,293 274,293 275,293 275,293 276,293 277,293 278,293 279,293 280,293 281,293 282,293 283,293 283,293 284,293 285,293 286,293 287,293 288,293 289,293 290,293 291,293 292,293 292,293 293,293 294,293 295,293 296,293 297,293 298,293 299,293 300,293 300,293 301,293 302,293 303,293 304,293 305,293 306,293 307,293 308,293 308,293 309,293 310,293 311,293 312,293 313,294 314,294 315,294 316,294 317,294 317,294 318,294 319,294 320,294 321,294 322,294 323,294 324,294 325,294 325,294 326,294 327,294 328,294 329,294 330,294 331,294 332,294 333,294 333,294 334,294 335,294 336,294 337,294 338,294 339,294 340,294 341,294 342,294 342,294 343,294 344,294 345,294 346,294 347,294 348,294 349,294 350,294 350,294 351,294 352,294 353,295 354,295 355,295 356,295 357,295 358,295 358,295 359,295 360,295 361,296 362,296 363,296 364,296 365,296 366,296 367,296 367,296 368,296 369,296 370,296 371,296 372,296 373,296 374,296 375,296 375,296 376,296 377,296 378,296 379,296 380,296 381,296 382,296 383,296 384,296 384,296 385,296 386,296 387,296 388,296 389,296 390,296 391,296 392,296 392,296 393,296 394,296 395,298 396,352 397,454 398,475 399,475 400,475 400,494 401,494 402,494 403,494 404,494 405,494 406,494 407,513 408,513 409,513 409,513 410,513 411,513 412,513 413,513 414,513 415,513 416,513 417,513 417,513 418,513 419,513 420,513 421,513 422,513 423,513 424,513 425,513 425,513 426,513 427,513 428,513 429,513 430,513 431,513 432,513 433,513 434,513 434,513 435,512 436,512 437,512 438,512 439,513 440,513 441,513 442,513 442,513 443,513 444,513 445,513 446,513 447,513 448,513 449,513 450,513 451,513 451,513 452,513 453,513 454,513 455,513 456,513 457,513 458,513 459,513 459,513 460,513 461,513 462,513 463,513 464,513 465,513 466,513 467,513 467,513 468,513 469,513 470,513 471,513 472,501 473,501 474,501 475,501 476,501 476,501 477,501 478,501 479,501 480,501 481,501 482,501 483,501 484,501 484,501 485,501 486,501 487,501 488,501 489,501 490,501 491,501 492,501 492,501 493,501 494,501 495,501 496,501 497,501 498,501 499,501 500,501 501,501 501,501 502,501 503,501 504,501 505,501 506,501 507,500 508,500 509,500 509,500 510,500 511,500 512,500 513,500 514,500 515,500 516,500 517,500 517,500 518,500 519,500 520,500 521,500 522,500 523,500 524,500 525,500 526,500 526,500 527,500 528,500 529,500 530,500 531,500 532,500 533,500 534,500 534,500 535,500 536,500 537,500 538,500 539,500 540,500 541,500 542,500 543,500 543,500 544,500 545,500 546,500 547,500 548,500 549,500 550,500 551,500 551,500 552,500 553,500 554,500 555,500 556,500 557,500 558,500 559,500 559,500 560,500 561,500 562,330 562,347 563,347 564,347 565,347 566,347 567,347 568,347 568,347 569,347 570,347 571,347 572,347 573,347 574,347 575,347 576,347 576,347 577,347 578,347 579,347 580,347 581,347 582,347 583,347 584,347 584,347 585,347 586,347 587,347 588,347 589,347 590,347 591,347 592,347 593,347 593,347 594,347 595,347 596,347 597,347 598,347 599,347 600,347 601,347 601,347 602,347 603,347 604,347 605,347 606,347 607,347 608,347 609,347 609,347 610,347 611,347 612,347 613,347 614,347 615,347 616,347 617,347 618,347 618,347 619,347 620,347 621,347 622,347 623,347 624,347 625,347 626,347 626,347 627,347 628,347 629,347 630,347 631,347 632,347 633,347 634,347 635,347 635,347 636,347 637,347 638,347 639,347 640,347 641,347 642,347 643,347 643,347 644,347 645,347 646,347 647,347 648,347 649,347 650,347 651,347 651,347 652,347 653,347 654,347 655,347 656,347 657,347 658,347 659,347 660,347 660,346 661,346 662,346 663,346 664,346 665,346 666,346 667,346 668,346 668,346 669,346 670,346 671,346 672,346 673,346 674,346 675,346 676,346 676,346 677,346 678,346 679,346 680,346 681,346 682,346 683,346 684,346 685,346 685,346 686,346 687,346 688,346 689,346 690,346 691,346 692,346 693,346 693,346 694,346 695,346 696,346 697,346 698,346 699,346 700,346 701,346 701,346 702,346 703,346 704,346 705,346 706,346 707,346 708,346 709,346 710,346 710,346 711,346 712,346 713,346 714,346 715,346 716,346 717,346 718,346 718,346 719,346 720,346 721,346 722,346 723,346 724,346 725,346 726,346 727,346 727,346 728,346 729,346 730,346 731,346 732,346 733,346 734,346 735,346 735,346 736,346 737,346 738,346 739,346 740,346 741,346 742,346 743,346 743,346 744,346 745,346 746,346 747,346 748,346 749,346 750,346 751,346 752,346 752,346 753,346 754,346 755,346 756,346 757,346 758,346 759,346 760,346 760,346 761,346 762,346 763,346 764,346 765,346 766,346 767,346 768,346 768,346 769,346 770,346 771,346 772,346 773,346 774,346 775,346 776,346 777,346 777,346 778,346 779,346 780,346 781,346 782,346 783,346 784,346 785,346 785,346 786,346 787,346 788,346 789,346 790,346 791,346 792,346 793,346 793,346 794,346 795,346 796,346 797,346 798,346 799,346 800,346 801,345 802,345 802,345 803,345 804,345 805,345 806,345 807,345 808,345 809,345 810,345 810,345 811,345 812,345 813,345 814,345 815,345 816,345 817,345 818,345 819,345 819,345 820,345 821,345 822,345 823,345 824,345 825,345 826,345 827,345 827,345 828,345 829,345 830,345 831,345 832,345 833,345 834,345 835,345 835,345 836,345 837,345 838,345 839,345 840,345 841,345 842,345 843,345 844,345 844,345 845,345 846,345 847,345 848,345 849,345 850,345 851,345 852,345 852,345 853,345 854,345 855,345 856,345 857,345 858,345 859,345 860,345 860,345 861,345 862,345 863,345 864,345 865,345 866,345 867,345 868,345 869,345 869,345 870,345 871,345 872,345 873,345 874,345 875,345 876,345 877,345 877,345 878,345 879,345 880,345 881,345 882,345 883,345 884,345 885,345 885,344 886,344 887,344 888,344 889,344 890,344 891,344 892,344 893,344 894,344 894,344 895,344 896,344 897,344 898,344 899,344 900,344 901,344 902,344 902,344 903,344 904,344 905,344 906,344 907,344 908,344 909,344 910,344 911,344 911,344 912,344 913,344 914,344 915,344 916,344 917,344 918,344 919,344 919,344 920,344 921,344 922,344 923,344 924,344 925,344 926,344 927,344 927,344 928,344 929,344 930,344 931,344 932,344 933,344 934,344 935,344 936,344 936,344 937,344 938,344 939,344 940,344 941,344 942,344 943,344 944,344 944,344 945,344 946,344 947,344 948,344 949,344 950,344 951,344 952,344 952,344 953,344 954,344 955,344 956,344 957,344 958,344 959,344 960,344 961,344 961,344 962,344 963,344 964,344 965,344 966,344 967,344 968,344 969,344 969,344 970,344 970,344 973,344 973,699 78,699 "/>
<polyline fill="none" opacity="1" stroke="#3CB44B" stroke-width="1" points="78,611 79,542 80,466 81,424 82,423 82,436 83,402 84,400 85,406 86,396 87,419 88,408 89,395 90,401 91,391 91,381 92,392 93,344 94,346 95,313 96,329 97,286 98,312 99,277 99,217 100,242 101,167 102,190 103,121 104,168 105,68 106,89 107,285 108,283 108,291 109,291 110,291 111,291 112,291 113,292 114,292 115,292 116,292 116,292 117,292 118,292 119,292 120,292 121,292 122,292 123,292 124,292 124,292 125,292 126,292 127,292 128,292 129,292 130,292 131,292 132,292 133,292 133,292 134,292 135,292 136,292 137,292 138,292 139,292 140,292 141,292 141,292 142,292 143,292 144,292 145,292 146,292 147,292 148,292 149,292 149,292 150,292 151,292 152,292 153,292 154,292 155,292 156,292 157,292 158,292 158,292 159,292 160,292 161,292 162,292 163,292 164,292 165,292 166,292 166,292 167,292 168,292 169,292 170,292 171,292 172,292 173,292 174,292 174,292 175,292 176,292 177,292 178,292 179,292 180,292 181,292 182,291 183,291 183,291 184,293 185,293 186,293 187,293 188,293 189,293 190,293 191,293 191,293 192,293 193,293 194,293 195,293 196,293 197,293 198,293 199,293 200,293 200,293 201,293 202,293 203,293 204,293 205,293 206,293 207,293 208,293 208,293 209,293 210,293 211,292 212,292 213,292 214,292 215,292 216,292 216,292 217,292 218,292 219,292 220,292 221,292 222,292 223,292 224,292 225,292 225,292 226,292 227,292 228,292 229,292 230,292 231,292 232,292 233,292 233,292 234,292 235,292 236,292 237,292 238,292 239,292 240,292 241,292 241,292 242,292 243,292 244,292 245,292 246,292 247,292 248,292 249,292 250,292 250,292 251,292 252,292 253,292 254,293 255,293 256,293 257,293 258,293 258,293 259,293 260,293 261,293 262,293 263,293 264,293 265,293 266,293 266,293 267,293 268,293 269,293 270,293 271,293 272,293 273,293 274,293 275,293 275,293 276,293 277,293 278,293 279,293 280,293 281,293 282,293 283,293 283,293 284,293 285,293 286,293 287,293 288,293 289,293 290,293 291,293 292,293 292,293 293,293 294,293 295,293 296,293 297,293 298,293 299,293 300,293 300,293 301,293 302,293 303,293 304,293 305,293 306,293 307,293 308,293 308,293 309,293 310,293 311,293 312,293 313,294 314,294 315,294 316,294 317,294 317,294 318,294 319,294 320,294 321,294 322,294 323,294 324,294 325,294 325,294 326,294 327,294 328,294 329,294 330,294 331,294 332,294 333,294 333,294 334,294 335,294 336,294 337,294 338,294 339,294 340,294 341,294 342,294 342,294 343,294 344,294 345,294 346,294 347,294 348,294 349,294 350,294 350,294 351,294 352,294 353,295 354,295 355,295 356,295 357,295 358,295 358,295 359,295 360,295 361,296 362,296 363,296 364,296 365,296 366,296 367,296 367,296 368,296 369,296 370,296 371,296 372,296 373,296 374,296 375,296 375,296 376,296 377,296 378,296 379,296 380,296 381,296 382,296 383,296 384,296 384,296 385,296 386,296 387,296 388,296 389,296 390,296 391,296 392,296 392,296 393,296 394,296 395,298 396,352 397,454 398,475 399,475 400,475 400,494 401,494 402,494 403,494 404,494 405,494 406,494 407,513 408,513 409,513 409,513 410,513 411,513 412,513 413,513 414,513 415,513 416,513 417,513 417,513 418,513 419,513 420,513 421,513 422,513 423,513 424,513 425,513 425,513 426,513 427,513 428,513 429,513 430,513 431,513 432,513 433,513 434,513 434,513 435,512 436,512 437,512 438,512 439,513 440,513 441,513 442,513 442,513 443,513 444,513 445,513 446,513 447,513 448,513 449,513 450,513 451,513 451,513 452,513 453,513 454,513 455,513 456,513 457,513 458,513 459,513 459,513 460,513 461,513 462,513 463,513 464,513 465,513 466,513 467,513 467,513 468,513 469,513 470,513 471,513 472,501 473,501 474,501 475,501 476,501 476,501 477,501 478,501 479,501 480,501 481,501 482,501 483,501 484,501 484,501 485,501 486,501 487,501 488,501 489,501 490,501 491,501 492,501 492,501 493,501 494,501 495,501 496,501 497,501 498,501 499,501 500,501 501,501 501,501 502,501 503,501 504,501 505,501 506,501 507,500 508,500 509,500 509,500 510,500 511,500 512,500 513,500 514,500 515,500 516,500 517,500 517,500 518,500 519,500 520,500 521,500 522,500 523,500 524,500 525,500 526,500 526,500 527,500 528,500 529,500 530,500 531,500 532,500 533,500 534,500 534,500 535,500 536,500 537,500 538,500 539,500 540,500 541,500 542,500 543,500 543,500 544,500 545,500 546,500 547,500 548,500 549,500 550,500 551,500 551,500 552,500 553,500 554,500 555,500 556,500 557,500 558,500 559,500 559,500 560,500 561,500 562,330 562,347 563,347 564,347 565,347 566,347 567,347 568,347 568,347 569,347 570,347 571,347 572,347 573,347 574,347 575,347 576,347 576,347 577,347 578,347 579,347 580,347 581,347 582,347 583,347 584,347 584,347 585,347 586,347 587,347 588,347 589,347 590,347 591,347 592,347 593,347 593,347 594,347 595,347 596,347 597,347 598,347 599,347 600,347 601,347 601,347 602,347 603,347 604,347 605,347 606,347 607,347 608,347 609,347 609,347 610,347 611,347 612,347 613,347 614,347 615,347 616,347 617,347 618,347 618,347 619,347 620,347 621,347 622,347 623,347 624,347 625,347 626,347 626,347 627,347 628,347 629,347 630,347 631,347 632,347 633,347 634,347 635,347 635,347 636,347 637,347 638,347 639,347 640,347 641,347 642,347 643,347 643,347 644,347 645,347 646,347 647,347 648,347 649,347 650,347 651,347 651,347 652,347 653,347 654,347 655,347 656,347 657,347 658,347 659,347 660,347 660,346 661,346 662,346 663,346 664,346 665,346 666,346 667,346 668,346 668,346 669,346 670,346 671,346 672,346 673,346 674,346 675,346 676,346 676,346 677,346 678,346 679,346 680,346 681,346 682,346 683,346 684,346 685,346 685,346 686,346 687,346 688,346 689,346 690,346 691,346 692,346 693,346 693,346 694,346 695,346 696,346 697,346 698,346 699,346 700,346 701,346 701,346 702,346 703,346 704,346 705,346 706,346 707,346 708,346 709,346 710,346 710,346 711,346 712,346 713,346 714,346 715,346 716,346 717,346 718,346 718,346 719,346 720,346 721,346 722,346 723,346 724,346 725,346 726,346 727,346 727,346 728,346 729,346 730,346 731,346 732,346 733,346 734,346 735,346 735,346 736,346 737,346 738,346 739,346 740,346 741,346 742,346 743,346 743,346 744,346 745,346 746,346 747,346 748,346 749,346 750,346 751,346 752,346 752,346 753,346 754,346 755,346 756,346 757,346 758,346 759,346 760,346 760,346 761,346 762,346 763,346 764,346 765,346 766,346 767,346 768,346 768,346 769,346 770,346 771,346 772,346 773,346 774,346 775,346 776,346 777,346 777,346 778,346 779,346 780,346 781,346 782,346 783,346 784,346 785,346 785,346 786,346 787,346 788,346 789,346 790,346 791,346 792,346 793,346 793,346 794,346 795,346 796,346 797,346 798,346 799,346 800,346 801,345 802,345 802,345 803,345 804,345 805,345 806,345 807,345 808,345 809,345 810,345 810,345 811,345 812,345 813,345 814,345 815,345 816,345 817,345 818,345 819,345 819,345 820,345 821,345 822,345 823,345 824,345 825,345 826,345 827,345 827,345 828,345 829,345 830,345 831,345 832,345 833,345 834,345 835,345 835,345 836,345 837,345 838,345 839,345 840,345 841,345 842,345 843,345 844,345 844,345 845,345 846,345 847,345 848,345 849,345 850,345 851,345 852,345 852,345 853,345 854,345 855,345 856,345 857,345 858,345 859,345 860,345 860,345 861,345 862,345 863,345 864,345 865,345 866,345 867,345 868,345 869,345 869,345 870,345 871,345 872,345 873,345 874,345 875,345 876,345 877,345 877,345 878,345 879,345 880,345 881,345 882,345 883,345 884,345 885,345 885,344 886,344 887,344 888,344 889,344 890,344 891,344 892,344 893,344 894,344 894,344 895,344 896,344 897,344 898,344 899,344 900,344 901,344 902,344 902,344 903,344 904,344 905,344 906,344 907,344 908,344 909,344 910,344 911,344 911,344 912,344 913,344 914,344 915,344 916,344 917,344 918,344 919,344 919,344 920,344 921,344 922,344 923,344 924,344 925,344 926,344 927,344 927,344 928,344 929,344 930,344 931,344 932,344 933,344 934,344 935,344 936,344 936,344 937,344 938,344 939,344 940,344 941,344 942,344 943,344 944,344 944,344 945,344 946,344 947,344 948,344 949,344 950,344 951,344 952,344 952,344 953,344 954,344 955,344 956,344 957,344 958,344 959,344 960,344 961,344 961,344 962,344 963,344 964,344 965,344 966,344 967,344 968,344 969,344 969,344 970,344 970,344 973,344 "/>
<polygon opacity="1" fill="#E6194B" points="78,699 79,699 80,699 81,699 82,699 82,699 83,699 84,699 85,699 86,699 87,699 88,699 89,699 90,699 91,699 91,699 92,699 93,699 94,699 95,699 96,699 97,699 98,699 99,699 99,699 100,699 101,699 102,699 103,699 104,699 105,571 106,571 107,571 108,541 108,541 109,541 110,541 111,541 112,541 113,541 114,541 115,541 116,541 116,541 117,541 118,541 119,541 120,541 121,541 122,541 123,541 124,541 124,541 125,541 126,541 127,541 128,541 129,541 130,541 131,541 132,541 133,541 133,541 134,541 135,541 136,541 137,541 138,541 139,541 140,541 141,541 141,541 142,541 143,541 144,541 145,541 146,541 147,541 148,541 149,541 149,541 150,541 151,541 152,541 153,541 154,541 155,541 156,541 157,541 158,541 158,541 159,541 160,541 161,541 162,541 163,541 164,541 165,541 166,541 166,541 167,541 168,541 169,541 170,541 171,541 172,541 173,541 174,541 174,541 175,541 176,541 177,541 178,541 179,541 180,541 181,541 182,541 183,541 183,541 184,541 185,541 186,541 187,541 188,541 189,541 190,541 191,541 191,541 192,541 193,541 194,541 195,541 196,541 197,541 198,541 199,541 200,541 200,541 201,541 202,541 203,541 204,541 205,541 206,541 207,541 208,541 208,541 209,541 210,541 211,541 212,541 213,541 214,541 215,541 216,541 216,541 217,541 218,541 219,541 220,541 221,541 222,541 223,541 224,541 225,541 225,541 226,541 227,541 228,541 229,541 230,541 231,541 232,541 233,541 233,541 234,541 235,541 236,541 237,541 238,541 239,541 240,541 241,541 241,541 242,541 243,541 244,541 245,541 246,541 247,541 248,541 249,541 250,541 250,541 251,541 252,541 253,541 254,541 255,541 256,541 257,541 258,541 258,541 259,541 260,541 261,541 262,541 263,541 264,541 265,541 266,541 266,541 267,541 268,541 269,541 270,541 271,541 272,541 273,541 274,541 275,541 275,541 276,541 277,541 278,541 279,541 280,541 281,541 282,541 283,541 283,541 284,541 285,541 286,541 287,541 288,541 289,541 290,541 291,541 292,541 292,541 293,541 294,541 295,541 296,541 297,541 298,541 299,541 300,541 300,541 301,541 302,541 303,541 304,541 305,541 306,541 307,541 308,541 308,541 309,541 310,541 311,541 312,541 313,541 314,541 315,541 316,541 317,541 317,541 318,541 319,541 320,541 321,541 322,541 323,541 324,541 325,541 325,541 326,541 327,541 328,541 329,541 330,541 331,541 332,541 333,541 333,541 334,541 335,541 336,541 337,541 338,541 339,541 340,541 341,541 342,541 342,541 343,541 344,541 345,541 346,541 347,541 348,541 349,541 350,541 350,541 351,541 352,541 353,541 354,541 355,541 356,541 357,541 358,541 358,541 359,541 360,541 361,541 362,541 363,541 364,541 365,541 366,541 367,541 367,541 368,541 369,541 370,541 371,541 372,541 373,541 374,541 375,541 375,541 376,541 377,541 378,541 379,541 380,541 381,541 382,541 383,541 384,541 384,541 385,541 386,541 387,541 388,541 389,541 390,541 391,541 392,541 392,541 393,541 394,541 395,541 396,541 397,541 398,541 399,541 400,541 400,541 401,541 402,541 403,541 404,541 405,541 406,541 407,541 408,541 409,541 409,541 410,541 411,541 412,541 413,541 414,541 415,541 416,541 417,541 417,541 418,541 419,541 420,541 421,541 422,541 423,541 424,541 425,541 425,541 426,541 427,541 428,541 429,541 430,541 431,541 432,541 433,541 434,541 434,541 435,540 436,540 437,540 438,540 439,540 440,540 441,540 442,540 442,540 443,540 444,540 445,540 446,540 447,540 448,540 449,540 450,540 451,540 451,540 452,540 453,540 454,540 455,540 456,540 457,540 458,540 459,540 459,540 460,540 461,540 462,540 463,540 464,540 465,540 466,540 467,540 467,540 468,540 469,540 470,540 471,540 472,528 473,528 474,528 475,528 476,528 476,528 477,528 478,528 479,528 480,528 481,528 482,528 483,528 484,528 484,528 485,528 486,528 487,528 488,528 489,528 490,528 491,528 492,528 492,528 493,528 494,528 495,528 496,528 497,528 498,528 499,528 500,528 501,528 501,528 502,528 503,528 504,528 505,528 506,528 507,528 508,528 509,528 509,528 510,528 511,528 512,528 513,528 514,528 515,528 516,528 517,528 517,528 518,528 519,528 520,528 521,528 522,528 523,528 524,528 525,528 526,528 526,528 527,528 528,528 529,528 530,528 531,528 532,528 533,528 534,528 534,528 535,528 536,528 537,528 538,528 539,528 540,528 541,528 542,528 543,528 543,528 544,528 545,528 546,528 547,528 548,528 549,528 550,528 551,528 551,528 552,528 553,528 554,528 555,528 556,528 557,528 558,528 559,528 559,528 560,528 561,528 562,347 562,347 563,347 564,347 565,347 566,347 567,347 568,347 568,347 569,347 570,347 571,347 572,347 573,347 574,347 575,347 576,347 576,347 577,347 578,347 579,347 580,347 581,347 582,347 583,347 584,347 584,347 585,347 586,347 587,347 588,347 589,347 590,347 591,347 592,347 593,347 593,347 594,347 595,347 596,347 597,347 598,347 599,347 600,347 601,347 601,347 602,347 603,347 604,347 605,347 606,347 607,347 608,347 609,347 609,347 610,347 611,347 612,347 613,347 614,347 615,347 616,347 617,347 618,347 618,347 619,347 620,347 621,347 622,347 623,347 624,347 625,347 626,347 626,347 627,347 628,347 629,347 630,347 631,347 632,347 633,347 634,347 635,347 635,347 636,347 637,347 638,347 639,347 640,347 641,347 642,347 643,347 643,347 644,347 645,347 646,347 647,347 648,347 649,347 650,347 651,347 651,347 652,347 653,347 654,347 655,347 656,347 657,347 658,347 659,347 660,347 660,346 661,346 662,346 663,346 664,346 665,346 666,346 667,346 668,346 668,346 669,346 670,346 671,346 672,346 673,346 674,346 675,346 676,346 676,346 677,346 678,346 679,346 680,346 681,346 682,346 683,346 684,346 685,346 685,346 686,346 687,346 688,346 689,346 690,346 691,346 692,346 693,346 693,346 694,346 695,346 696,346 697,346 698,346 699,346 700,346 701,346 701,346 702,346 703,346 704,346 705,346 706,346 707,346 708,346 709,346 710,346 710,346 711,346 712,346 713,346 714,346 715,346 716,346 717,346 718,346 718,346 719,346 720,346 721,346 722,346 723,346 724,346 725,346 726,346 727,346 727,346 728,346 729,346 730,346 731,346 732,346 733,346 734,346 735,346 735,346 736,346 737,346 738,346 739,346 740,346 741,346 742,346 743,346 743,346 744,346 745,346 746,346 747,346 748,346 749,346 750,346 751,346 752,346 752,346 753,346 754,346 755,346 756,346 757,346 758,346 759,346 760,346 760,346 761,346 762,346 763,346 764,346 765,346 766,346 767,346 768,346 768,346 769,346 770,346 771,346 772,346 773,346 774,346 775,346 776,346 777,346 777,346 778,346 779,346 780,346 781,346 782,346 783,346 784,346 785,346 785,346 786,346 787,346 788,346 789,346 790,346 791,346 792,346 793,346 793,346 794,346 795,346 796,346 797,346 798,346 799,346 800,346 801,345 802,345 802,345 803,345 804,345 805,345 806,345 807,345 808,345 809,345 810,345 810,345 811,345 812,345 813,345 814,345 815,345 816,345 817,345 818,345 819,345 819,345 820,345 821,345 822,345 823,345 824,345 825,345 826,345 827,345 827,345 828,345 829,345 830,345 831,345 832,345 833,345 834,345 835,345 835,345 836,345 837,345 838,345 839,345 840,345 841,345 842,345 843,345 844,345 844,345 845,345 846,345 847,345 848,345 849,345 850,345 851,345 852,345 852,345 853,345 854,345 855,345 856,345 857,345 858,345 859,345 860,345 860,345 861,345 862,345 863,345 864,345 865,345 866,345 867,345 868,345 869,345 869,345 870,345 871,345 872,345 873,345 874,345 875,345 876,345 877,345 877,345 878,345 879,345 880,345 881,345 882,345 883,345 884,345 885,345 885,344 886,344 887,344 888,344 889,344 890,344 891,344 892,344 893,344 894,344 894,344 895,344 896,344 897,344 898,344 899,344 900,344 901,344 902,344 902,344 903,344 904,344 905,344 906,344 907,344 908,344 909,344 910,344 911,344 911,344 912,344 913,344 914,344 915,344 916,344 917,344 918,344 919,344 919,344 920,344 921,344 922,344 923,344 924,344 925,344 926,344 927,344 927,344 928,344 929,344 930,344 931,344 932,344 933,344 934,344 935,344 936,344 936,344 937,344 938,344 939,344 940,344 941,344 942,344 943,344 944,344 944,344 945,344 946,344 947,344 948,344 949,344 950,344 951,344 952,344 952,344 953,344 954,344 955,344 956,344 957,344 958,344 959,344 960,344 961,344 961,344 962,344 963,344 964,344 965,344 966,344 967,344 968,344 969,344 969,344 970,344 970,344 973,344 973,699 78,699 "/>
<polyline fill="none" opacity="1" stroke="#E6194B" stroke-width="1" points="78,699 79,699 80,699 81,699 82,699 82,699 83,699 84,699 85,699 86,699 87,699 88,699 89,699 90,699 91,699 91,699 92,699 93,699 94,699 95,699 96,699 97,699 98,699 99,699 99,699 100,699 101,699 102,699 103,699 104,699 105,571 106,571 107,571 108,541 108,541 109,541 110,541 111,541 112,541 113,541 114,541 115,541 116,541 116,541 117,541 118,541 119,541 120,541 121,541 122,541 123,541 124,541 124,541 125,541 126,541 127,541 128,541 129,541 130,541 131,541 132,541 133,541 133,541 134,541 135,541 136,541 137,541 138,541 139,541 140,541 141,541 141,541 142,541 143,541 144,541 145,541 146,541 147,541 148,541 149,541 149,541 150,541 151,541 152,541 153,541 154,541 155,541 156,541 157,541 158,541 158,541 159,541 160,541 161,541 162,541 163,541 164,541 165,541 166,541 166,541 167,541 168,541 169,541 170,541 171,541 172,541 173,541 174,541 174,541 175,541 176,541 177,541 178,541 179,541 180,541 181,541 182,541 183,541 183,541 184,541 185,541 186,541 187,541 188,541 189,541 190,541 191,541 191,541 192,541 193,541 194,541 195,541 196,541 197,541 198,541 199,541 200,541 200,541 201,541 202,541 203,541 204,541 205,541 206,541 207,541 208,541 208,541 209,541 210,541 211,541 212,541 213,541 214,541 215,541 216,541 216,541 217,541 218,541 219,541 220,541 221,541 222,541 223,541 224,541 225,541 225,541 226,541 227,541 228,541 229,541 230,541 231,541 232,541 233,541 233,541 234,541 235,541 236,541 237,541 238,541 239,541 240,541 241,541 241,541 242,541 243,541 244,541 245,541 246,541 247,541 248,541 249,541 250,541 250,541 251,541 252,541 253,541 254,541 255,541 256,541 257,541 258,541 258,541 259,541 260,541 261,541 262,541 263,541 264,541 265,541 266,541 266,541 267,541 268,541 269,541 270,541 271,541 272,541 273,541 274,541 275,541 275,541 276,541 277,541 278,541 279,541 280,541 281,541 282,541 283,541 283,541 284,541 285,541 286,541 287,541 288,541 289,541 290,541 291,541 292,541 292,541 293,541 294,541 295,541 296,541 297,541 298,541 299,541 300,541 300,541 301,541 302,541 303,541 304,541 305,541 306,541 307,541 308,541 308,541 309,541 310,541 311,541 312,541 313,541 314,541 315,541 316,541 317,541 317,541 318,541 319,541 320,541 321,541 322,541 323,541 324,541 325,541 325,541 326,541 327,541 328,541 329,541 330,541 331,541 332,541 333,541 333,541 334,541 335,541 336,541 337,541 338,541 339,541 340,541 341,541 342,541 342,541 343,541 344,541 345,541 346,541 347,541 348,541 349,541 350,541 350,541 351,541 352,541 353,541 354,541 355,541 356,541 357,541 358,541 358,541 359,541 360,541 361,541 362,541 363,541 364,541 365,541 366,541 367,541 367,541 368,541 369,541 370,541 371,541 372,541 373,541 374,541 375,541 375,541 376,541 377,541 378,541 379,541 380,541 381,541 382,541 383,541 384,541 384,541 385,541 386,541 387,541 388,541 389,541 390,541 391,541 392,541 392,541 393,541 394,541 395,541 396,541 397,541 398,541 399,541 400,541 400,541 401,541 402,541 403,541 404,541 405,541 406,541 407,541 408,541 409,541 409,541 410,541 411,541 412,541 413,541 414,541 415,541 416,541 417,541 417,541 418,541 419,541 420,541 421,541 422,541 423,541 424,541 425,541 425,541 426,541 427,541 428,541 429,541 430,541 431,541 432,541 433,541 434,541 434,541 435,540 436,540 437,540 438,540 439,540 440,540 441,540 442,540 442,540 443,540 444,540 445,540 446,540 447,540 448,540 449,540 450,540 451,540 451,540 452,540 453,540 454,540 455,540 456,540 457,540 458,540 459,540 459,540 460,540 461,540 462,540 463,540 464,540 465,540 466,540 467,540 467,540 468,540 469,540 470,540 471,540 472,528 473,528 474,528 475,528 476,528 476,528 477,528 478,528 479,528 480,528 481,528 482,528 483,528 484,528 484,528 485,528 486,528 487,528 488,528 489,528 490,528 491,528 492,528 492,528 493,528 494,528 495,528 496,528 497,528 498,528 499,528 500,528 501,528 501,528 502,528 503,528 504,528 505,528 506,528 507,528 508,528 509,528 509,528 510,528 511,528 512,528 513,528 514,528 515,528 516,528 517,528 517,528 518,528 519,528 520,528 521,528 522,528 523,528 524,528 525,528 526,528 526,528 527,528 528,528 529,528 530,528 531,528 532,528 533,528 534,528 534,528 535,528 536,528 537,528 538,528 539,528 540,528 541,528 542,528 543,528 543,528 544,528 545,528 546,528 547,528 548,528 549,528 550,528 551,528 551,528 552,528 553,528 554,528 555,528 556,528 557,528 558,528 559,528 559,528 560,528 561,528 562,347 562,347 563,347 564,347 565,347 566,347 567,347 568,347 568,347 569,347 570,347 571,347 572,347 573,347 574,347 575,347 576,347 576,347 577,347 578,347 579,347 580,347 581,347 582,347 583,347 584,347 584,347 585,347 586,347 587,347 588,347 589,347 590,347 591,347 592,347 593,347 593,347 594,347 595,347 596,347 597,347 598,347 599,347 600,347 601,347 601,347 602,347 603,347 604,347 605,347 606,347 607,347 608,347 609,347 609,347 610,347 611,347 612,347 613,347 614,347 615,347 616,347 617,347 618,347 618,347 619,347 620,347 621,347 622,347 623,347 624,347 625,347 626,347 626,347 627,347 628,347 629,347 630,347 631,347 632,347 633,347 634,347 635,347 635,347 636,347 637,347 638,347 639,347 640,347 641,347 642,347 643,347 643,347 644,347 645,347 646,347 647,347 648,347 649,347 650,347 651,347 651,347 652,347 653,347 654,347 655,347 656,347 657,347 658,347 659,347 660,347 660,346 661,346 662,346 663,346 664,346 665,346 666,346 667,346 668,346 668,346 669,346 670,346 671,346 672,346 673,346 674,346 675,346 676,346 676,346 677,346 678,346 679,346 680,346 681,346 682,346 683,346 684,346 685,346 685,346 686,346 687,346 688,346 689,346 690,346 691,346 692,346 693,346 693,346 694,346 695,346 696,346 697,346 698,346 699,346 700,346 701,346 701,346 702,346 703,346 704,346 705,346 706,346 707,346 708,346 709,346 710,346 710,346 711,346 712,346 713,346 714,346 715,346 716,346 717,346 718,346 718,346 719,346 720,346 721,346 722,346 723,346 724,346 725,346 726,346 727,346 727,346 728,346 729,346 730,346 731,346 732,346 733,346 734,346 735,346 735,346 736,346 737,346 738,346 739,346 740,346 741,346 742,346 743,346 743,346 744,346 745,346 746,346 747,346 748,346 749,346 750,346 751,346 752,346 752,346 753,346 754,346 755,346 756,346 757,346 758,346 759,346 760,346 760,346 761,346 762,346 763,346 764,346 765,346 766,346 767,346 768,346 768,346 769,346 770,346 771,346 772,346 773,346 774,346 775,346 776,346 777,346 777,346 778,346 779,346 780,346 781,346 782,346 783,346 784,346 785,346 785,346 786,346 787,346 788,346 789,346 790,346 791,346 792,346 793,346 793,346 794,346 795,346 796,346 797,346 798,346 799,346 800,346 801,345 802,345 802,345 803,345 804,345 805,345 806,345 807,345 808,345 809,345 810,345 810,345 811,345 812,345 813,345 814,345 815,345 816,345 817,345 818,345 819,345 819,345 820,345 821,345 822,345 823,345 824,345 825,345 826,345 827,345 827,345 828,345 829,345 830,345 831,345 832,345 833,345 834,345 835,345 835,345 836,345 837,345 838,345 839,345 840,345 841,345 842,345 843,345 844,345 844,345 845,345 846,345 847,345 848,345 849,345 850,345 851,345 852,345 852,345 853,345 854,345 855,345 856,345 857,345 858,345 859,345 860,345 860,345 861,345 862,345 863,345 864,345 865,345 866,345 867,345 868,345 869,345 869,345 870,345 871,345 872,345 873,345 874,345 875,345 876,345 877,345 877,345 878,345 879,345 880,345 881,345 882,345 883,345 884,345 885,345 885,344 886,344 887,344 888,344 889,344 890,344 891,344 892,344 893,344 894,344 894,344 895,344 896,344 897,344 898,344 899,344 900,344 901,344 902,344 902,344 903,344 904,344 905,344 906,344 907,344 908,344 909,344 910,344 911,344 911,344 912,344 913,344 914,344 915,344 916,344 917,344 918,344 919,344 919,344 920,344 921,344 922,344 923,344 924,344 925,344 926,344 927,344 927,344 928,344 929,344 930,344 931,344 932,344 933,344 934,344 935,344 936,344 936,344 937,344 938,344 939,344 940,344 941,344 942,344 943,344 944,344 944,344 945,344 946,344 947,344 948,344 949,344 950,344 951,344 952,344 952,344 953,344 954,344 955,344 956,344 957,344 958,344 959,344 960,344 961,344 961,344 962,344 963,344 964,344 965,344 966,344 967,344 968,344 969,344 969,344 970,344 970,344 973,344 "/>
<line opacity="0.1" stroke="#000000" stroke-width="1" x1="84" y1="699" x2="84" y2="68"/>
<line opacity="0.1" stroke="#000000" stroke-width="1" x1="95" y1="699" x2="95" y2="68"/>
<line opacity="0.1" stroke="#000000" stroke-width="1" x1="106" y1="699" x2="106" y2="68"/>
<line opacity="0.1" stroke="#000000" stroke-width="1" x1="118" y1="699" x2="118" y2="68"/>
<line opacity="0.1" stroke="#000000" stroke-width="1" x1="129" y1="699" x2="129" y2="68"/>
<line opacity="0.1" stroke="#000000" stroke-width="1" x1="140" y1="699" x2="140" y2="68"/>
<line opacity="0.1" stroke="#000000" stroke-width="1" x1="151" y1="699" x2="151" y2="68"/>
<line opacity="0.1" stroke="#000000" stroke-width="1" x1="162" y1="699" x2="162" y2="68"/>
<line opacity="0.1" stroke="#000000" stroke-width="1" x1="174" y1="699" x2="174" y2="68"/>
<line opacity="0.1" stroke="#000000" stroke-width="1" x1="185" y1="699" x2="185" y2="68"/>
<line opacity="0.1" stroke="#000000" stroke-width="1" x1="196" y1="699" x2="196" y2="68"/>
<line opacity="0.1" stroke="#000000" stroke-width="1" x1="207" y1="699" x2="207" y2="68"/>
<line opacity="0.1" stroke="#000000" stroke-width="1" x1="218" y1="699" x2="218" y2="68"/>
<line opacity="0.1" stroke="#000000" stroke-width="1" x1="229" y1="699" x2="229" y2="68"/>
<line opacity="0.1" stroke="#000000" stroke-width="1" x1="241" y1="699" x2="241" y2="68"/>
<line opacity="0.1" stroke="#000000" stroke-width="1" x1="252" y1="699" x2="252" y2="68"/>
<line opacity="0.1" stroke="#000000" stroke-width="1" x1="263" y1="699" x2="263" y2="68"/>
<line opacity="0.1" stroke="#000000" stroke-width="1" x1="274" y1="699" x2="274" y2="68"/>
<line opacity="0.1" stroke="#000000" stroke-width="1" x1="285" y1="699" x2="285" y2="68"/>
<line opacity="0.1" stroke="#000000" stroke-width="1" x1="297" y1="699" x2="297" y2="68"/>
<line opacity="0.1" stroke="#000000" stroke-width="1" x1="308" y1="699" x2="308" y2="68"/>
<line opacity="0.1" stroke="#000000" stroke-width="1" x1="319" y1="699" x2="319" y2="68"/>
<line opacity="0.1" stroke="#000000" stroke-width="1" x1="330" y1="699" x2="330" y2="68"/>
<line opacity="0.1" stroke="#000000" stroke-width="1" x1="341" y1="699" x2="341" y2="68"/>
<line opacity="0.1" stroke="#000000" stroke-width="1" x1="352" y1="699" x2="352" y2="68"/>
<line opacity="0.1" stroke="#000000" stroke-width="1" x1="364" y1="699" x2="364" y2="68"/>
<line opacity="0.1" stroke="#000000" stroke-width="1" x1="375" y1="699" x2="375" y2="68"/>
<line opacity="0.1" stroke="#000000" stroke-width="1" x1="386" y1="699" x2="386" y2="68"/>
<line opacity="0.1" stroke="#000000" stroke-width="1" x1="397" y1="699" x2="397" y2="68"/>
<line opacity="0.1" stroke="#000000" stroke-width="1" x1="408" y1="699" x2="408" y2="68"/>
<line opacity="0.1" stroke="#000000" stroke-width="1" x1="420" y1="699" x2="420" y2="68"/>
<line opacity="0.1" stroke="#000000" stroke-width="1" x1="431" y1="699" x2="431" y2="68"/>
<line opacity="0.1" stroke="#000000" stroke-width="1" x1="442" y1="699" x2="442" y2="68"/>
<line opacity="0.1" stroke="#000000" stroke-width="1" x1="453" y1="699" x2="453" y2="68"/>
<line opacity="0.1" stroke="#000000" stroke-width="1" x1="464" y1="699" x2="464" y2="68"/>
<line opacity="0.1" stroke="#000000" stroke-width="1" x1="476" y1="699" x2="476" y2="68"/>
<line opacity="0.1" stroke="#000000" stroke-width="1" x1="487" y1="699" x2="487" y2="68"/>
<line opacity="0.1" stroke="#000000" stroke-width="1" x1="498" y1="699" x2="498" y2="68"/>
<line opacity="0.1" stroke="#000000" stroke-width="1" x1="509" y1="699" x2="509" y2="68"/>
<line opacity="0.1" stroke="#000000" stroke-width="1" x1="520" y1="699" x2="520" y2="68"/>
<line opacity="0.1" stroke="#000000" stroke-width="1" x1="531" y1="699" x2="531" y2="68"/>
<line opacity="0.1" stroke="#000000" stroke-width="1" x1="543" y1="699" x2="543" y2="68"/>
<line opacity="0.1" stroke="#000000" stroke-width="1" x1="554" y1="699" x2="554" y2="68"/>
<line opacity="0.1" stroke="#000000" stroke-width="1" x1="565" y1="699" x2="565" y2="68"/>
<line opacity="0.1" stroke="#000000" stroke-width="1" x1="576" y1="699" x2="576" y2="68"/>
<line opacity="0.1" stroke="#000000" stroke-width="1" x1="587" y1="699" x2="587" y2="68"/>
<line opacity="0.1" stroke="#000000" stroke-width="1" x1="599" y1="699" x2="599" y2="68"/>
<line opacity="0.1" stroke="#000000" stroke-width="1" x1="610" y1="699" x2="610" y2="68"/>
<line opacity="0.1" stroke="#000000" stroke-width="1" x1="621" y1="699" x2="621" y2="68"/>
<line opacity="0.1" stroke="#000000" stroke-width="1" x1="632" y1="699" x2="632" y2="68"/>
<line opacity="0.1" stroke="#000000" stroke-width="1" x1="643" y1="699" x2="643" y2="68"/>
<line opacity="0.1" stroke="#000000" stroke-width="1" x1="654" y1="699" x2="654" y2="68"/>
<line opacity="0.1" stroke="#000000" stroke-width="1" x1="666" y1="699" x2="666" y2="68"/>
<line opacity="0.1" stroke="#000000" stroke-width="1" x1="677" y1="699" x2="677" y2="68"/>
<line opacity="0.1" stroke="#000000" stroke-width="1" x1="688" y1="699" x2="688" y2="68"/>
<line opacity="0.1" stroke="#000000" stroke-width="1" x1="699" y1="699" x2="699" y2="68"/>
<line opacity="0.1" stroke="#000000" stroke-width="1" x1="710" y1="699" x2="710" y2="68"/>
<line opacity="0.1" stroke="#000000" stroke-width="1" x1="722" y1="699" x2="722" y2="68"/>
<line opacity="0.1" stroke="#000000" stroke-width="1" x1="733" y1="699" x2="733" y2="68"/>
<line opacity="0.1" stroke="#000000" stroke-width="1" x1="744" y1="699" x2="744" y2="68"/>
<line opacity="0.1" stroke="#000000" stroke-width="1" x1="755" y1="699" x2="755" y2="68"/>
<line opacity="0.1" stroke="#000000" stroke-width="1" x1="766" y1="699" x2="766" y2="68"/>
<line opacity="0.1" stroke="#000000" stroke-width="1" x1="777" y1="699" x2="777" y2="68"/>
<line opacity="0.1" stroke="#000000" stroke-width="1" x1="789" y1="699" x2="789" y2="68"/>
<line opacity="0.1" stroke="#000000" stroke-width="1" x1="800" y1="699" x2="800" y2="68"/>
<line opacity="0.1" stroke="#000000" stroke-width="1" x1="811" y1="699" x2="811" y2="68"/>
<line opacity="0.1" stroke="#000000" stroke-width="1" x1="822" y1="699" x2="822" y2="68"/>
<line opacity="0.1" stroke="#000000" stroke-width="1" x1="833" y1="699" x2="833" y2="68"/>
<line opacity="0.1" stroke="#000000" stroke-width="1" x1="845" y1="699" x2="845" y2="68"/>
<line opacity="0.1" stroke="#000000" stroke-width="1" x1="856" y1="699" x2="856" y2="68"/>
<line opacity="0.1" stroke="#000000" stroke-width="1" x1="867" y1="699" x2="867" y2="68"/>
<line opacity="0.1" stroke="#000000" stroke-width="1" x1="878" y1="699" x2="878" y2="68"/>
<line opacity="0.1" stroke="#000000" stroke-width="1" x1="889" y1="699" x2="889" y2="68"/>
<line opacity="0.1" stroke="#000000" stroke-width="1" x1="900" y1="699" x2="900" y2="68"/>
<line opacity="0.1" stroke="#000000" stroke-width="1" x1="912" y1="699" x2="912" y2="68"/>
<line opacity="0.1" stroke="#000000" stroke-width="1" x1="923" y1="699" x2="923" y2="68"/>
<line opacity="0.1" stroke="#000000" stroke-width="1" x1="934" y1="699" x2="934" y2="68"/>
<line opacity="0.1" stroke="#000000" stroke-width="1" x1="945" y1="699" x2="945" y2="68"/>
<line opacity="0.1" stroke="#000000" stroke-width="1" x1="956" y1="699" x2="956" y2="68"/>
<line opacity="0.1" stroke="#000000" stroke-width="1" x1="968" y1="699" x2="968" y2="68"/>
<line opacity="0.1" stroke="#000000" stroke-width="1" x1="78" y1="699" x2="973" y2="699"/>
<line opacity="0.1" stroke="#000000" stroke-width="1" x1="78" y1="689" x2="973" y2="689"/>
<line opacity="0.1" stroke="#000000" stroke-width="1" x1="78" y1="680" x2="973" y2="680"/>
<line opacity="0.1" stroke="#000000" stroke-width="1" x1="78" y1="671" x2="973" y2="671"/>
<line opacity="0.1" stroke="#000000" stroke-width="1" x1="78" y1="662" x2="973" y2="662"/>
<line opacity="0.1" stroke="#000000" stroke-width="1" x1="78" y1="653" x2="973" y2="653"/>
<line opacity="0.1" stroke="#000000" stroke-width="1" x1="78" y1="644" x2="973" y2="644"/>
<line opacity="0.1" stroke="#000000" stroke-width="1" x1="78" y1="634" x2="973" y2="634"/>
<line opacity="0.1" stroke="#000000" stroke-width="1" x1="78" y1="625" x2="973" y2="625"/>
<line opacity="0.1" stroke="#000000" stroke-width="1" x1="78" y1="616" x2="973" y2="616"/>
<line opacity="0.1" stroke="#000000" stroke-width="1" x1="78" y1="607" x2="973" y2="607"/>
<line opacity="0.1" stroke="#000000" stroke-width="1" x1="78" y1="598" x2="973" y2="598"/>
<line opacity="0.1" stroke="#000000" stroke-width="1" x1="78" y1="589" x2="973" y2="589"/>
<line opacity="0.1" stroke="#000000" stroke-width="1" x1="78" y1="580" x2="973" y2="580"/>
<line opacity="0.1" stroke="#000000" stroke-width="1" x1="78" y1="570" x2="973" y2="570"/>
<line opacity="0.1" stroke="#000000" stroke-width="1" x1="78" y1="561" x2="973" y2="561"/>
<line opacity="0.1" stroke="#000000" stroke-width="1" x1="78" y1="552" x2="973" y2="552"/>
<line opacity="0.1" stroke="#000000" stroke-width="1" x1="78" y1="543" x2="973" y2="543"/>
<line opacity="0.1" stroke="#000000" stroke-width="1" x1="78" y1="534" x2="973" y2="534"/>
<line opacity="0.1" stroke="#000000" stroke-width="1" x1="78" y1="525" x2="973" y2="525"/>
<line opacity="0.1" stroke="#000000" stroke-width="1" x1="78" y1="516" x2="973" y2="516"/>
<line opacity="0.1" stroke="#000000" stroke-width="1" x1="78" y1="506" x2="973" y2="506"/>
<line opacity="0.1" stroke="#000000" stroke-width="1" x1="78" y1="497" x2="973" y2="497"/>
<line opacity="0.1" stroke="#000000" stroke-width="1" x1="78" y1="488" x2="973" y2="488"/>
<line opacity="0.1" stroke="#000000" stroke-width="1" x1="78" y1="479" x2="973" y2="479"/>
<line opacity="0.1" stroke="#000000" stroke-width="1" x1="78" y1="470" x2="973" y2="470"/>
<line opacity="0.1" stroke="#000000" stroke-width="1" x1="78" y1="461" x2="973" y2="461"/>
<line opacity="0.1" stroke="#000000" stroke-width="1" x1="78" y1="451" x2="973" y2="451"/>
<line opacity="0.1" stroke="#000000" stroke-width="1" x1="78" y1="442" x2="973" y2="442"/>
<line opacity="0.1" stroke="#000000" stroke-width="1" x1="78" y1="433" x2="973" y2="433"/>
<line opacity="0.1" stroke="#000000" stroke-width="1" x1="78" y1="424" x2="973" y2="424"/>
<line opacity="0.1" stroke="#000000" stroke-width="1" x1="78" y1="415" x2="973" y2="415"/>
<line opacity="0.1" stroke="#000000" stroke-width="1" x1="78" y1="406" x2="973" y2="406"/>
<line opacity="0.1" stroke="#000000" stroke-width="1" x1="78" y1="397" x2="973" y2="397"/>
<line opacity="0.1" stroke="#000000" stroke-width="1" x1="78" y1="387" x2="973" y2="387"/>
<line opacity="0.1" stroke="#000000" stroke-width="1" x1="78" y1="378" x2="973" y2="378"/>
<line opacity="0.1" stroke="#000000" stroke-width="1" x1="78" y1="369" x2="973" y2="369"/>
<line opacity="0.1" stroke="#000000" stroke-width="1" x1="78" y1="360" x2="973" y2="360"/>
<line opacity="0.1" stroke="#000000" stroke-width="1" x1="78" y1="351" x2="973" y2="351"/>
<line opacity="0.1" stroke="#000000" stroke-width="1" x1="78" y1="342" x2="973" y2="342"/>
<line opacity="0.1" stroke="#000000" stroke-width="1" x1="78" y1="333" x2="973" y2="333"/>
<line opacity="0.1" stroke="#000000" stroke-width="1" x1="78" y1="323" x2="973" y2="323"/>
<line opacity="0.1" stroke="#000000" stroke-width="1" x1="78" y1="314" x2="973" y2="314"/>
<line opacity="0.1" stroke="#000000" stroke-width="1" x1="78" y1="305" x2="973" y2="305"/>
<line opacity="0.1" stroke="#000000" stroke-width="1" x1="78" y1="296" x2="973" y2="296"/>
<line opacity="0.1" stroke="#000000" stroke-width="1" x1="78" y1="287" x2="973" y2="287"/>
<line opacity="0.1" stroke="#000000" stroke-width="1" x1="78" y1="278" x2="973" y2="278"/>
<line opacity="0.1" stroke="#000000" stroke-width="1" x1="78" y1="268" x2="973" y2="268"/>
<line opacity="0.1" stroke="#000000" stroke-width="1" x1="78" y1="259" x2="973" y2="259"/>
<line opacity="0.1" stroke="#000000" stroke-width="1" x1="78" y1="250" x2="973" y2="250"/>
<line opacity="0.1" stroke="#000000" stroke-width="1" x1="78" y1="241" x2="973" y2="241"/>
<line opacity="0.1" stroke="#000000" stroke-width="1" x1="78" y1="232" x2="973" y2="232"/>
<line opacity="0.1" stroke="#000000" stroke-width="1" x1="78" y1="223" x2="973" y2="223"/>
<line opacity="0.1" stroke="#000000" stroke-width="1" x1="78" y1="214" x2="973" y2="214"/>
<line opacity="0.1" stroke="#000000" stroke-width="1" x1="78" y1="204" x2="973" y2="204"/>
<line opacity="0.1" stroke="#000000" stroke-width="1" x1="78" y1="195" x2="973" y2="195"/>
<line opacity="0.1" stroke="#000000" stroke-width="1" x1="78" y1="186" x2="973" y2="186"/>
<line opacity="0.1" stroke="#000000" stroke-width="1" x1="78" y1="177" x2="973" y2="177"/>
<line opacity="0.1" stroke="#000000" stroke-width="1" x1="78" y1="168" x2="973" y2="168"/>
<line opacity="0.1" stroke="#000000" stroke-width="1" x1="78" y1="159" x2="973" y2="159"/>
<line opacity="0.1" stroke="#000000" stroke-width="1" x1="78" y1="150" x2="973" y2="150"/>
<line opacity="0.1" stroke="#000000" stroke-width="1" x1="78" y1="140" x2="973" y2="140"/>
<line opacity="0.1" stroke="#000000" stroke-width="1" x1="78" y1="131" x2="973" y2="131"/>
<line opacity="0.1" stroke="#000000" stroke-width="1" x1="78" y1="122" x2="973" y2="122"/>
<line opacity="0.1" stroke="#000000" stroke-width="1" x1="78" y1="113" x2="973" y2="113"/>
<line opacity="0.1" stroke="#000000" stroke-width="1" x1="78" y1="104" x2="973" y2="104"/>
<line opacity="0.1" stroke="#000000" stroke-width="1" x1="78" y1="95" x2="973" y2="95"/>
<line opacity="0.1" stroke="#000000" stroke-width="1" x1="78" y1="85" x2="973" y2="85"/>
<line opacity="0.1" stroke="#000000" stroke-width="1" x1="78" y1="76" x2="973" y2="76"/>
<text x="8" y="384" dy="0.76em" text-anchor="middle" font-family="sans-serif" font-size="9.67741935483871" opacity="1" fill="#000000" transform="rotate(270, 8, 384)">
Memory usage
</text>
<text x="526" y="760" dy="-0.5ex" text-anchor="middle" font-family="sans-serif" font-size="9.67741935483871" opacity="1" fill="#000000">
Time
</text>
<line opacity="0.2" stroke="#000000" stroke-width="1" x1="106" y1="699" x2="106" y2="68"/>
<line opacity="0.2" stroke="#000000" stroke-width="1" x1="218" y1="699" x2="218" y2="68"/>
<line opacity="0.2" stroke="#000000" stroke-width="1" x1="330" y1="699" x2="330" y2="68"/>
<line opacity="0.2" stroke="#000000" stroke-width="1" x1="442" y1="699" x2="442" y2="68"/>
<line opacity="0.2" stroke="#000000" stroke-width="1" x1="554" y1="699" x2="554" y2="68"/>
<line opacity="0.2" stroke="#000000" stroke-width="1" x1="666" y1="699" x2="666" y2="68"/>
<line opacity="0.2" stroke="#000000" stroke-width="1" x1="777" y1="699" x2="777" y2="68"/>
<line opacity="0.2" stroke="#000000" stroke-width="1" x1="889" y1="699" x2="889" y2="68"/>
<line opacity="0.2" stroke="#000000" stroke-width="1" x1="78" y1="699" x2="973" y2="699"/>
<line opacity="0.2" stroke="#000000" stroke-width="1" x1="78" y1="607" x2="973" y2="607"/>
<line opacity="0.2" stroke="#000000" stroke-width="1" x1="78" y1="516" x2="973" y2="516"/>
<line opacity="0.2" stroke="#000000" stroke-width="1" x1="78" y1="424" x2="973" y2="424"/>
<line opacity="0.2" stroke="#000000" stroke-width="1" x1="78" y1="333" x2="973" y2="333"/>
<line opacity="0.2" stroke="#000000" stroke-width="1" x1="78" y1="241" x2="973" y2="241"/>
<line opacity="0.2" stroke="#000000" stroke-width="1" x1="78" y1="150" x2="973" y2="150"/>
<polyline fill="none" opacity="1" stroke="#000000" stroke-width="1" points="77,68 77,699 "/>
<text x="68" y="699" dy="0.5ex" text-anchor="end" font-family="sans-serif" font-size="9.67741935483871" opacity="1" fill="#000000">
0.0 MB
</text>
<polyline fill="none" opacity="1" stroke="#000000" stroke-width="1" points="72,699 77,699 "/>
<text x="68" y="607" dy="0.5ex" text-anchor="end" font-family="sans-serif" font-size="9.67741935483871" opacity="1" fill="#000000">
9.5 MB
</text>
<polyline fill="none" opacity="1" stroke="#000000" stroke-width="1" points="72,607 77,607 "/>
<text x="68" y="516" dy="0.5ex" text-anchor="end" font-family="sans-serif" font-size="9.67741935483871" opacity="1" fill="#000000">
19.1 MB
</text>
<polyline fill="none" opacity="1" stroke="#000000" stroke-width="1" points="72,516 77,516 "/>
<text x="68" y="424" dy="0.5ex" text-anchor="end" font-family="sans-serif" font-size="9.67741935483871" opacity="1" fill="#000000">
28.6 MB
</text>
<polyline fill="none" opacity="1" stroke="#000000" stroke-width="1" points="72,424 77,424 "/>
<text x="68" y="333" dy="0.5ex" text-anchor="end" font-family="sans-serif" font-size="9.67741935483871" opacity="1" fill="#000000">
38.1 MB
</text>
<polyline fill="none" opacity="1" stroke="#000000" stroke-width="1" points="72,333 77,333 "/>
<text x="68" y="241" dy="0.5ex" text-anchor="end" font-family="sans-serif" font-size="9.67741935483871" opacity="1" fill="#000000">
47.7 MB
</text>
<polyline fill="none" opacity="1" stroke="#000000" stroke-width="1" points="72,241 77,241 "/>
<text x="68" y="150" dy="0.5ex" text-anchor="end" font-family="sans-serif" font-size="9.67741935483871" opacity="1" fill="#000000">
57.2 MB
</text>
<polyline fill="none" opacity="1" stroke="#000000" stroke-width="1" points="72,150 77,150 "/>
<polyline fill="none" opacity="1" stroke="#000000" stroke-width="1" points="78,700 973,700 "/>
<text x="106" y="710" dy="0.76em" text-anchor="middle" font-family="sans-serif" font-size="9.67741935483871" opacity="1" fill="#000000">
07 20:33:20
</text>
<polyline fill="none" opacity="1" stroke="#000000" stroke-width="1" points="106,700 106,705 "/>
<text x="218" y="710" dy="0.76em" text-anchor="middle" font-family="sans-serif" font-size="9.67741935483871" opacity="1" fill="#000000">
08 10:26:40
</text>
<polyline fill="none" opacity="1" stroke="#000000" stroke-width="1" points="218,700 218,705 "/>
<text x="330" y="710" dy="0.76em" text-anchor="middle" font-family="sans-serif" font-size="9.67741935483871" opacity="1" fill="#000000">
09 00:20:00
</text>
<polyline fill="none" opacity="1" stroke="#000000" stroke-width="1" points="330,700 330,705 "/>
<text x="442" y="710" dy="0.76em" text-anchor="middle" font-family="sans-serif" font-size="9.67741935483871" opacity="1" fill="#000000">
09 14:13:20
</text>
<polyline fill="none" opacity="1" stroke="#000000" stroke-width="1" points="442,700 442,705 "/>
<text x="554" y="710" dy="0.76em" text-anchor="middle" font-family="sans-serif" font-size="9.67741935483871" opacity="1" fill="#000000">
10 04:06:40
</text>
<polyline fill="none" opacity="1" stroke="#000000" stroke-width="1" points="554,700 554,705 "/>
<text x="666" y="710" dy="0.76em" text-anchor="middle" font-family="sans-serif" font-size="9.67741935483871" opacity="1" fill="#000000">
10 18:00:00
</text>
<polyline fill="none" opacity="1" stroke="#000000" stroke-width="1" points="666,700 666,705 "/>
<text x="777" y="710" dy="0.76em" text-anchor="middle" font-family="sans-serif" font-size="9.67741935483871" opacity="1" fill="#000000">
11 07:53:20
</text>
<polyline fill="none" opacity="1" stroke="#000000" stroke-width="1" points="777,700 777,705 "/>
<text x="889" y="710" dy="0.76em" text-anchor="middle" font-family="sans-serif" font-size="9.67741935483871" opacity="1" fill="#000000">
11 21:46:40
</text>
<polyline fill="none" opacity="1" stroke="#000000" stroke-width="1" points="889,700 889,705 "/>
<polyline fill="none" opacity="1" stroke="#000000" stroke-width="1" points="78,67 974,67 "/>
<text x="106" y="58" dy="-0.5ex" text-anchor="middle" font-family="sans-serif" font-size="9.67741935483871" opacity="1" fill="#000000">
+03:35:44
</text>
<polyline fill="none" opacity="1" stroke="#000000" stroke-width="1" points="106,62 106,67 "/>
<text x="218" y="58" dy="-0.5ex" text-anchor="middle" font-family="sans-serif" font-size="9.67741935483871" opacity="1" fill="#000000">
+17:29:04
</text>
<polyline fill="none" opacity="1" stroke="#000000" stroke-width="1" points="218,62 218,67 "/>
<text x="330" y="58" dy="-0.5ex" text-anchor="middle" font-family="sans-serif" font-size="9.67741935483871" opacity="1" fill="#000000">
+31:22:24
</text>
<polyline fill="none" opacity="1" stroke="#000000" stroke-width="1" points="330,62 330,67 "/>
<text x="442" y="58" dy="-0.5ex" text-anchor="middle" font-family="sans-serif" font-size="9.67741935483871" opacity="1" fill="#000000">
+45:15:44
</text>
<polyline fill="none" opacity="1" stroke="#000000" stroke-width="1" points="442,62 442,67 "/>
<text x="554" y="58" dy="-0.5ex" text-anchor="middle" font-family="sans-serif" font-size="9.67741935483871" opacity="1" fill="#000000">
+59:09:04
</text>
<polyline fill="none" opacity="1" stroke="#000000" stroke-width="1" points="554,62 554,67 "/>
<text x="666" y="58" dy="-0.5ex" text-anchor="middle" font-family="sans-serif" font-size="9.67741935483871" opacity="1" fill="#000000">
+73:02:24
</text>
<polyline fill="none" opacity="1" stroke="#000000" stroke-width="1" points="666,62 666,67 "/>
<text x="778" y="58" dy="-0.5ex" text-anchor="middle" font-family="sans-serif" font-size="9.67741935483871" opacity="1" fill="#000000">
+86:55:44
</text>
<polyline fill="none" opacity="1" stroke="#000000" stroke-width="1" points="778,62 778,67 "/>
<text x="890" y="58" dy="-0.5ex" text-anchor="middle" font-family="sans-serif" font-size="9.67741935483871" opacity="1" fill="#000000">
+100:49:04
</text>
<polyline fill="none" opacity="1" stroke="#000000" stroke-width="1" points="890,62 890,67 "/>
<rect x="83" y="73" width="99" height="45" opacity="0.75" fill="#FFFFFF" stroke="none"/>
<rect x="83" y="73" width="99" height="45" opacity="1" fill="none" stroke="#000000"/>
<text x="123" y="83" dy="0.76em" text-anchor="start" font-family="sans-serif" font-size="9.67741935483871" opacity="1" fill="#000000">
Temporary
</text>
<text x="123" y="98" dy="0.76em" text-anchor="start" font-family="sans-serif" font-size="9.67741935483871" opacity="1" fill="#000000">
Leaked
</text>
<rect x="93" y="83" width="10" height="10" opacity="1" fill="#3CB44B" stroke="none"/>
<rect x="93" y="98" width="10" height="10" opacity="1" fill="#E6194B" stroke="none"/>
</svg>
