<svg width="1024" height="768" viewBox="0 0 1024 768" xmlns="http://www.w3.org/2000/svg">
<rect x="0" y="0" width="1024" height="768" opacity="1" fill="#FFFFFF" stroke="none"/>
<polygon opacity="1" fill="#3CB44B" points="78,695 79,691 80,689 81,689 81,690 82,692 83,692 84,692 85,691 86,691 87,691 88,690 89,688 89,688 90,689 91,691 92,692 93,693 94,692 95,693 96,693 97,694 98,693 98,692 99,692 100,692 101,693 102,695 103,693 104,692 105,692 106,694 106,693 107,693 108,693 109,693 110,693 111,693 112,693 113,693 114,693 115,693 115,693 116,693 117,693 118,693 119,693 120,693 121,693 122,693 123,693 123,693 124,693 125,693 126,693 127,693 128,693 129,693 130,693 131,693 131,693 132,693 133,693 134,693 135,693 136,693 137,693 138,693 139,693 140,693 140,693 141,693 142,693 143,693 144,693 145,693 146,693 147,693 148,693 148,693 149,693 150,693 151,693 152,693 153,693 154,693 155,693 156,693 156,693 157,693 158,693 159,693 160,693 161,693 162,693 163,693 164,693 165,693 165,693 166,693 167,693 168,693 169,693 170,693 171,693 172,693 173,693 173,693 174,693 175,693 176,693 177,693 178,693 179,693 180,693 181,693 181,693 182,693 183,693 184,693 185,693 186,693 187,693 188,693 189,693 190,693 190,693 191,693 192,693 193,693 194,693 195,693 196,693 197,693 198,693 198,693 199,693 200,693 201,693 202,693 203,693 204,693 205,693 206,693 207,693 207,693 208,693 209,693 210,693 211,693 212,693 213,693 214,693 215,693 215,693 216,693 217,693 218,693 219,693 220,693 221,693 222,693 223,693 223,693 224,693 225,693 226,693 227,693 228,693 229,693 230,693 231,693 232,693 232,693 233,693 234,693 235,693 236,693 237,693 238,693 239,693 240,693 240,693 241,693 242,693 243,693 244,693 245,693 246,693 247,693 248,693 248,693 249,693 250,693 251,693 252,693 253,693 254,693 255,693 256,693 257,693 257,693 258,693 259,693 260,693 261,693 262,693 263,693 264,693 265,692 265,692 266,692 267,692 268,692 269,692 270,692 271,692 272,692 273,692 273,692 274,692 275,692 276,692 277,692 278,692 279,692 280,692 281,692 282,692 282,692 283,692 284,692 285,692 286,692 287,692 288,692 289,692 290,692 290,692 291,692 292,692 293,692 294,692 295,692 296,692 297,692 298,692 299,692 299,692 300,692 301,692 302,692 303,692 304,692 305,692 306,692 307,692 307,692 308,692 309,692 310,692 311,692 312,692 313,692 314,692 315,692 315,692 316,692 317,692 318,692 319,692 320,692 321,692 322,692 323,692 324,692 324,692 325,692 326,692 327,692 328,692 329,692 330,692 331,692 332,692 332,692 333,692 334,692 335,692 336,692 337,692 338,692 339,692 340,692 340,692 341,692 342,692 343,692 344,692 345,692 346,692 347,692 348,692 349,692 349,692 350,692 351,692 352,692 353,692 354,692 355,692 356,692 357,692 357,692 358,692 359,692 360,692 361,692 362,692 363,692 364,692 365,692 365,692 366,692 367,692 368,691 369,691 370,691 371,691 372,691 373,691 374,691 374,691 375,691 376,691 377,691 378,691 379,691 380,691 381,691 382,691 382,691 383,691 384,691 385,691 386,691 387,691 388,691 389,691 390,691 391,691 391,691 392,691 393,691 394,691 395,590 396,359 397,336 398,336 399,334 399,328 400,319 401,306 402,292 403,282 404,281 405,279 406,272 407,264 407,252 408,242 409,231 410,225 411,217 412,211 413,209 414,207 415,204 416,205 416,203 417,194 418,190 419,190 420,192 421,188 422,173 423,162 424,151 424,152 425,159 426,164 427,167 428,160 429,151 430,149 431,154 432,164 432,168 433,171 434,179 435,181 436,189 437,192 438,196 439,189 440,121 441,82 441,107 442,83 443,68 444,74 445,94 446,96 447,96 448,98 449,98 449,98 450,98 451,99 452,102 453,102 454,102 455,102 456,102 457,102 457,103 458,103 459,103 460,103 461,103 462,103 463,103 464,103 465,104 466,104 466,104 467,104 468,104 469,104 470,104 471,104 472,105 473,105 474,105 474,108 475,109 476,109 477,109 478,109 479,110 480,110 481,110 482,110 483,110 483,110 484,110 485,110 486,110 487,110 488,110 489,111 490,111 491,111 491,111 492,111 493,111 494,112 495,112 496,112 497,112 498,112 499,112 499,112 500,112 501,112 502,112 503,112 504,112 505,112 506,112 507,112 508,112 508,112 509,112 510,112 511,112 512,112 513,112 514,112 515,113 516,113 516,113 517,113 518,113 519,113 520,113 521,113 522,113 523,113 524,114 524,114 525,114 526,114 527,114 528,114 529,110 530,110 531,110 532,110 533,112 533,112 534,112 535,112 536,112 537,112 538,112 539,112 540,112 541,112 541,112 542,112 543,112 544,112 545,113 546,113 547,113 548,113 549,113 549,113 550,113 551,113 552,113 553,113 554,113 555,113 556,114 557,114 558,114 558,114 559,114 560,114 561,114 562,114 563,178 564,178 565,178 566,178 566,179 567,179 568,179 569,179 570,179 571,179 572,180 573,180 574,180 575,181 575,181 576,181 577,181 578,181 579,181 580,181 581,181 582,181 583,181 583,181 584,181 585,182 586,182 587,182 588,182 589,183 590,183 591,183 591,183 592,183 593,183 594,183 595,183 596,183 597,184 598,184 599,185 600,185 600,185 601,185 602,185 603,185 604,185 605,185 606,185 607,186 608,186 608,186 609,186 610,186 611,187 612,187 613,187 614,188 615,188 616,188 616,188 617,188 618,188 619,189 620,189 621,189 622,190 623,190 624,190 625,190 625,190 626,191 627,192 628,192 629,192 630,192 631,192 632,192 633,192 633,192 634,192 635,192 636,193 637,193 638,193 639,193 640,193 641,193 641,193 642,194 643,194 644,194 645,194 646,194 647,195 648,195 649,195 650,195 650,195 651,196 652,196 653,196 654,196 655,196 656,196 657,197 658,197 658,197 659,197 660,198 661,198 662,198 663,198 664,198 665,199 666,199 667,200 667,200 668,200 669,200 670,200 671,200 672,200 673,201 674,201 675,201 675,201 676,201 677,206 678,206 679,206 680,206 681,206 682,206 683,206 683,206 684,206 685,206 686,207 687,207 688,207 689,208 690,208 691,208 692,208 692,208 693,208 694,208 695,208 696,208 697,209 698,209 699,210 700,210 700,210 701,210 702,210 703,210 704,210 705,210 706,210 707,211 708,211 708,211 709,211 710,211 711,211 712,211 713,212 714,212 715,212 716,212 717,212 717,213 718,213 719,213 720,213 721,214 722,214 723,214 724,214 725,214 725,214 726,214 727,214 728,214 729,214 730,215 731,215 732,214 733,214 733,214 734,215 735,215 736,215 737,215 738,215 739,215 740,215 741,215 742,215 742,215 743,216 744,216 745,216 746,216 747,216 748,217 749,217 750,217 750,217 751,217 752,217 753,217 754,217 755,217 756,217 757,217 758,217 759,218 759,218 760,218 761,218 762,218 763,218 764,218 765,218 766,219 767,219 767,219 768,219 769,219 770,219 771,219 772,219 773,219 774,220 775,220 775,220 776,220 777,220 778,221 779,221 780,221 781,221 782,221 783,222 784,222 784,222 785,222 786,222 787,223 788,223 789,223 790,223 791,223 792,223 792,223 793,223 794,224 795,224 796,224 797,224 798,224 799,224 800,225 800,225 801,225 802,225 803,225 804,226 805,226 806,226 807,227 808,227 809,227 809,227 810,227 811,227 812,227 813,227 814,227 815,227 816,228 817,228 817,228 818,228 819,228 820,228 821,229 822,228 823,229 824,229 825,229 826,229 826,229 827,230 828,230 829,230 830,230 831,230 832,230 833,230 834,230 834,230 835,231 836,231 837,232 838,232 839,232 840,232 841,232 842,232 842,233 843,233 844,233 845,233 846,234 847,234 848,234 849,235 850,235 851,235 851,235 852,235 853,235 854,235 855,235 856,236 857,236 858,236 859,236 859,236 860,236 861,237 862,237 863,237 864,238 865,238 866,238 867,238 867,238 868,238 869,239 870,239 871,239 872,239 873,239 874,239 875,239 876,240 876,241 877,241 878,241 879,241 880,241 881,241 882,241 883,241 884,242 884,243 885,243 886,244 887,244 888,244 889,244 890,244 891,244 892,244 892,245 893,245 894,245 895,245 896,245 897,246 898,246 899,246 900,246 901,246 901,247 902,247 903,247 904,248 905,248 906,248 907,248 908,248 909,248 909,249 910,249 911,249 912,249 913,249 914,249 915,249 916,250 917,250 918,250 918,251 919,251 920,251 921,251 922,251 923,251 924,251 925,251 926,252 926,253 927,253 928,253 929,253 930,254 931,254 932,254 933,254 934,254 934,255 935,255 936,255 937,255 938,255 939,255 940,255 941,255 942,255 943,255 943,255 944,255 945,255 946,255 947,255 948,255 949,256 950,256 951,257 951,257 952,257 953,258 954,258 955,258 956,258 957,258 958,258 959,258 959,258 960,258 961,259 962,259 963,259 964,259 965,259 966,259 966,259 967,259 968,259 968,259 969,259 970,260 970,261 973,261 973,699 78,699 "/>
<polyline fill="none" opacity="1" stroke="#3CB44B" stroke-width="1" points="78,695 79,691 80,689 81,689 81,690 82,692 83,692 84,692 85,691 86,691 87,691 88,690 89,688 89,688 90,689 91,691 92,692 93,693 94,692 95,693 96,693 97,694 98,693 98,692 99,692 100,692 101,693 102,695 103,693 104,692 105,692 106,694 106,693 107,693 108,693 109,693 110,693 111,693 112,693 113,693 114,693 115,693 115,693 116,693 117,693 118,693 119,693 120,693 121,693 122,693 123,693 123,693 124,693 125,693 126,693 127,693 128,693 129,693 130,693 131,693 131,693 132,693 133,693 134,693 135,693 136,693 137,693 138,693 139,693 140,693 140,693 141,693 142,693 143,693 144,693 145,693 146,693 147,693 148,693 148,693 149,693 150,693 151,693 152,693 153,693 154,693 155,693 156,693 156,693 157,693 158,693 159,693 160,693 161,693 162,693 163,693 164,693 165,693 165,693 166,693 167,693 168,693 169,693 170,693 171,693 172,693 173,693 173,693 174,693 175,693 176,693 177,693 178,693 179,693 180,693 181,693 181,693 182,693 183,693 184,693 185,693 186,693 187,693 188,693 189,693 190,693 190,693 191,693 192,693 193,693 194,693 195,693 196,693 197,693 198,693 198,693 199,693 200,693 201,693 202,693 203,693 204,693 205,693 206,693 207,693 207,693 208,693 209,693 210,693 211,693 212,693 213,693 214,693 215,693 215,693 216,693 217,693 218,693 219,693 220,693 221,693 222,693 223,693 223,693 224,693 225,693 226,693 227,693 228,693 229,693 230,693 231,693 232,693 232,693 233,693 234,693 235,693 236,693 237,693 238,693 239,693 240,693 240,693 241,693 242,693 243,693 244,693 245,693 246,693 247,693 248,693 248,693 249,693 250,693 251,693 252,693 253,693 254,693 255,693 256,693 257,693 257,693 258,693 259,693 260,693 261,693 262,693 263,693 264,693 265,692 265,692 266,692 267,692 268,692 269,692 270,692 271,692 272,692 273,692 273,692 274,692 275,692 276,692 277,692 278,692 279,692 280,692 281,692 282,692 282,692 283,692 284,692 285,692 286,692 287,692 288,692 289,692 290,692 290,692 291,692 292,692 293,692 294,692 295,692 296,692 297,692 298,692 299,692 299,692 300,692 301,692 302,692 303,692 304,692 305,692 306,692 307,692 307,692 308,692 309,692 310,692 311,692 312,692 313,692 314,692 315,692 315,692 316,692 317,692 318,692 319,692 320,692 321,692 322,692 323,692 324,692 324,692 325,692 326,692 327,692 328,692 329,692 330,692 331,692 332,692 332,692 333,692 334,692 335,692 336,692 337,692 338,692 339,692 340,692 340,692 341,692 342,692 343,692 344,692 345,692 346,692 347,692 348,692 349,692 349,692 350,692 351,692 352,692 353,692 354,692 355,692 356,692 357,692 357,692 358,692 359,692 360,692 361,692 362,692 363,692 364,692 365,692 365,692 366,692 367,692 368,691 369,691 370,691 371,691 372,691 373,691 374,691 374,691 375,691 376,691 377,691 378,691 379,691 380,691 381,691 382,691 382,691 383,691 384,691 385,691 386,691 387,691 388,691 389,691 390,691 391,691 391,691 392,691 393,691 394,691 395,590 396,359 397,336 398,336 399,334 399,328 400,319 401,306 402,292 403,282 404,281 405,279 406,272 407,264 407,252 408,242 409,231 410,225 411,217 412,211 413,209 414,207 415,204 416,205 416,203 417,194 418,190 419,190 420,192 421,188 422,173 423,162 424,151 424,152 425,159 426,164 427,167 428,160 429,151 430,149 431,154 432,164 432,168 433,171 434,179 435,181 436,189 437,192 438,196 439,189 440,121 441,82 441,107 442,83 443,68 444,74 445,94 446,96 447,96 448,98 449,98 449,98 450,98 451,99 452,102 453,102 454,102 455,102 456,102 457,102 457,103 458,103 459,103 460,103 461,103 462,103 463,103 464,103 465,104 466,104 466,104 467,104 468,104 469,104 470,104 471,104 472,105 473,105 474,105 474,108 475,109 476,109 477,109 478,109 479,110 480,110 481,110 482,110 483,110 483,110 484,110 485,110 486,110 487,110 488,110 489,111 490,111 491,111 491,111 492,111 493,111 494,112 495,112 496,112 497,112 498,112 499,112 499,112 500,112 501,112 502,112 503,112 504,112 505,112 506,112 507,112 508,112 508,112 509,112 510,112 511,112 512,112 513,112 514,112 515,113 516,113 516,113 517,113 518,113 519,113 520,113 521,113 522,113 523,113 524,114 524,114 525,114 526,114 527,114 528,114 529,110 530,110 531,110 532,110 533,112 533,112 534,112 535,112 536,112 537,112 538,112 539,112 540,112 541,112 541,112 542,112 543,112 544,112 545,113 546,113 547,113 548,113 549,113 549,113 550,113 551,113 552,113 553,113 554,113 555,113 556,114 557,114 558,114 558,114 559,114 560,114 561,114 562,114 563,178 564,178 565,178 566,178 566,179 567,179 568,179 569,179 570,179 571,179 572,180 573,180 574,180 575,181 575,181 576,181 577,181 578,181 579,181 580,181 581,181 582,181 583,181 583,181 584,181 585,182 586,182 587,182 588,182 589,183 590,183 591,183 591,183 592,183 593,183 594,183 595,183 596,183 597,184 598,184 599,185 600,185 600,185 601,185 602,185 603,185 604,185 605,185 606,185 607,186 608,186 608,186 609,186 610,186 611,187 612,187 613,187 614,188 615,188 616,188 616,188 617,188 618,188 619,189 620,189 621,189 622,190 623,190 624,190 625,190 625,190 626,191 627,192 628,192 629,192 630,192 631,192 632,192 633,192 633,192 634,192 635,192 636,193 637,193 638,193 639,193 640,193 641,193 641,193 642,194 643,194 644,194 645,194 646,194 647,195 648,195 649,195 650,195 650,195 651,196 652,196 653,196 654,196 655,196 656,196 657,197 658,197 658,197 659,197 660,198 661,198 662,198 663,198 664,198 665,199 666,199 667,200 667,200 668,200 669,200 670,200 671,200 672,200 673,201 674,201 675,201 675,201 676,201 677,206 678,206 679,206 680,206 681,206 682,206 683,206 683,206 684,206 685,206 686,207 687,207 688,207 689,208 690,208 691,208 692,208 692,208 693,208 694,208 695,208 696,208 697,209 698,209 699,210 700,210 700,210 701,210 702,210 703,210 704,210 705,210 706,210 707,211 708,211 708,211 709,211 710,211 711,211 712,211 713,212 714,212 715,212 716,212 717,212 717,213 718,213 719,213 720,213 721,214 722,214 723,214 724,214 725,214 725,214 726,214 727,214 728,214 729,214 730,215 731,215 732,214 733,214 733,214 734,215 735,215 736,215 737,215 738,215 739,215 740,215 741,215 742,215 742,215 743,216 744,216 745,216 746,216 747,216 748,217 749,217 750,217 750,217 751,217 752,217 753,217 754,217 755,217 756,217 757,217 758,217 759,218 759,218 760,218 761,218 762,218 763,218 764,218 765,218 766,219 767,219 767,219 768,219 769,219 770,219 771,219 772,219 773,219 774,220 775,220 775,220 776,220 777,220 778,221 779,221 780,221 781,221 782,221 783,222 784,222 784,222 785,222 786,222 787,223 788,223 789,223 790,223 791,223 792,223 792,223 793,223 794,224 795,224 796,224 797,224 798,224 799,224 800,225 800,225 801,225 802,225 803,225 804,226 805,226 806,226 807,227 808,227 809,227 809,227 810,227 811,227 812,227 813,227 814,227 815,227 816,228 817,228 817,228 818,228 819,228 820,228 821,229 822,228 823,229 824,229 825,229 826,229 826,229 827,230 828,230 829,230 830,230 831,230 832,230 833,230 834,230 834,230 835,231 836,231 837,232 838,232 839,232 840,232 841,232 842,232 842,233 843,233 844,233 845,233 846,234 847,234 848,234 849,235 850,235 851,235 851,235 852,235 853,235 854,235 855,235 856,236 857,236 858,236 859,236 859,236 860,236 861,237 862,237 863,237 864,238 865,238 866,238 867,238 867,238 868,238 869,239 870,239 871,239 872,239 873,239 874,239 875,239 876,240 876,241 877,241 878,241 879,241 880,241 881,241 882,241 883,241 884,242 884,243 885,243 886,244 887,244 888,244 889,244 890,244 891,244 892,244 892,245 893,245 894,245 895,245 896,245 897,246 898,246 899,246 900,246 901,246 901,247 902,247 903,247 904,248 905,248 906,248 907,248 908,248 909,248 909,249 910,249 911,249 912,249 913,249 914,249 915,249 916,250 917,250 918,250 918,251 919,251 920,251 921,251 922,251 923,251 924,251 925,251 926,252 926,253 927,253 928,253 929,253 930,254 931,254 932,254 933,254 934,254 934,255 935,255 936,255 937,255 938,255 939,255 940,255 941,255 942,255 943,255 943,255 944,255 945,255 946,255 947,255 948,255 949,256 950,256 951,257 951,257 952,257 953,258 954,258 955,258 956,258 957,258 958,258 959,258 959,258 960,258 961,259 962,259 963,259 964,259 965,259 966,259 966,259 967,259 968,259 968,259 969,259 970,260 970,261 973,261 "/>
<polygon opacity="1" fill="#E6194B" points="78,699 79,699 80,699 81,699 81,699 82,699 83,699 84,699 85,699 86,699 87,699 88,699 89,699 89,699 90,699 91,699 92,699 93,699 94,699 95,699 96,699 97,699 98,699 98,699 99,699 100,699 101,699 102,699 103,699 104,699 105,699 106,699 106,699 107,699 108,699 109,699 110,699 111,699 112,699 113,699 114,699 115,699 115,699 116,699 117,699 118,699 119,699 120,699 121,699 122,699 123,699 123,699 124,699 125,699 126,699 127,699 128,699 129,699 130,699 131,699 131,699 132,699 133,699 134,699 135,699 136,699 137,699 138,699 139,699 140,699 140,699 141,699 142,699 143,699 144,699 145,699 146,699 147,699 148,699 148,699 149,699 150,699 151,699 152,699 153,699 154,699 155,699 156,699 156,699 157,699 158,699 159,699 160,699 161,699 162,699 163,699 164,699 165,699 165,699 166,699 167,699 168,699 169,699 170,699 171,699 172,699 173,699 173,699 174,699 175,699 176,699 177,699 178,699 179,699 180,699 181,699 181,699 182,699 183,699 184,699 185,699 186,699 187,699 188,699 189,699 190,699 190,699 191,699 192,699 193,699 194,699 195,699 196,699 197,699 198,699 198,699 199,699 200,699 201,699 202,699 203,699 204,699 205,699 206,699 207,699 207,699 208,699 209,699 210,699 211,699 212,699 213,699 214,699 215,699 215,699 216,699 217,699 218,699 219,699 220,699 221,699 222,699 223,699 223,699 224,699 225,699 226,699 227,699 228,699 229,699 230,699 231,699 232,699 232,699 233,699 234,699 235,699 236,699 237,699 238,699 239,699 240,699 240,699 241,699 242,699 243,699 244,699 245,699 246,699 247,699 248,699 248,699 249,699 250,699 251,699 252,699 253,699 254,699 255,699 256,699 257,699 257,699 258,699 259,699 260,699 261,699 262,699 263,699 264,699 265,699 265,699 266,699 267,699 268,699 269,699 270,699 271,699 272,699 273,699 273,699 274,699 275,699 276,699 277,699 278,699 279,699 280,699 281,699 282,699 282,699 283,699 284,699 285,699 286,699 287,699 288,699 289,699 290,699 290,699 291,699 292,699 293,699 294,699 295,699 296,699 297,699 298,699 299,699 299,699 300,699 301,699 302,699 303,699 304,699 305,699 306,699 307,699 307,699 308,699 309,699 310,699 311,699 312,699 313,699 314,699 315,699 315,699 316,699 317,699 318,699 319,699 320,699 321,699 322,699 323,699 324,699 324,699 325,699 326,699 327,699 328,699 329,699 330,699 331,699 332,699 332,699 333,699 334,699 335,699 336,699 337,699 338,699 339,699 340,699 340,699 341,699 342,699 343,699 344,699 345,699 346,699 347,699 348,699 349,699 349,699 350,699 351,699 352,699 353,699 354,699 355,699 356,699 357,699 357,699 358,699 359,699 360,699 361,699 362,699 363,699 364,699 365,699 365,699 366,699 367,699 368,699 369,699 370,699 371,699 372,699 373,699 374,699 374,699 375,699 376,699 377,699 378,699 379,699 380,699 381,699 382,699 382,699 383,699 384,699 385,699 386,699 387,699 388,699 389,699 390,699 391,699 391,699 392,699 393,699 394,699 395,699 396,699 397,699 398,699 399,699 399,699 400,699 401,699 402,699 403,699 404,699 405,699 406,699 407,699 407,699 408,699 409,699 410,699 411,699 412,699 413,699 414,699 415,699 416,699 416,699 417,699 418,699 419,699 420,699 421,699 422,699 423,699 424,699 424,699 425,699 426,699 427,699 428,699 429,699 430,699 431,699 432,699 432,699 433,699 434,699 435,699 436,699 437,699 438,699 439,696 440,623 441,511 441,431 442,355 443,302 444,272 445,272 446,272 447,272 448,272 449,272 449,272 450,272 451,272 452,271 453,271 454,271 455,271 456,271 457,271 457,271 458,271 459,271 460,271 461,271 462,271 463,271 464,271 465,271 466,271 466,271 467,271 468,271 469,271 470,271 471,271 472,271 473,271 474,271 474,271 475,271 476,271 477,271 478,271 479,271 480,271 481,271 482,271 483,271 483,271 484,271 485,271 486,271 487,271 488,271 489,271 490,271 491,271 491,271 492,271 493,271 494,271 495,271 496,271 497,271 498,271 499,271 499,271 500,271 501,271 502,271 503,271 504,271 505,271 506,271 507,271 508,271 508,271 509,271 510,271 511,271 512,271 513,271 514,271 515,271 516,271 516,271 517,271 518,271 519,271 520,271 521,271 522,271 523,271 524,271 524,271 525,271 526,271 527,271 528,271 529,266 530,266 531,266 532,266 533,266 533,266 534,266 535,266 536,266 537,266 538,266 539,266 540,266 541,266 541,266 542,266 543,266 544,266 545,266 546,266 547,266 548,266 549,266 549,266 550,266 551,266 552,266 553,266 554,266 555,266 556,266 557,266 558,266 558,266 559,266 560,266 561,266 562,266 563,266 564,266 565,266 566,266 566,266 567,266 568,266 569,266 570,266 571,266 572,266 573,266 574,266 575,266 575,266 576,266 577,265 578,265 579,265 580,265 581,265 582,265 583,265 583,265 584,265 585,265 586,265 587,265 588,265 589,265 590,265 591,265 591,265 592,265 593,265 594,265 595,265 596,265 597,265 598,265 599,265 600,265 600,265 601,265 602,265 603,265 604,265 605,265 606,265 607,265 608,265 608,265 609,265 610,265 611,265 612,265 613,265 614,265 615,265 616,265 616,265 617,265 618,265 619,265 620,265 621,265 622,265 623,265 624,265 625,265 625,265 626,265 627,265 628,265 629,265 630,265 631,265 632,265 633,265 633,265 634,265 635,265 636,265 637,265 638,265 639,265 640,265 641,265 641,265 642,265 643,265 644,265 645,265 646,265 647,265 648,265 649,265 650,265 650,265 651,265 652,265 653,265 654,265 655,265 656,265 657,265 658,265 658,265 659,265 660,265 661,265 662,265 663,265 664,265 665,265 666,265 667,265 667,265 668,265 669,265 670,265 671,265 672,265 673,265 674,265 675,265 675,265 676,265 677,265 678,265 679,265 680,265 681,265 682,265 683,265 683,265 684,265 685,265 686,264 687,264 688,264 689,264 690,264 691,264 692,264 692,264 693,264 694,264 695,264 696,264 697,264 698,264 699,264 700,264 700,264 701,264 702,264 703,264 704,264 705,264 706,264 707,264 708,264 708,264 709,264 710,264 711,264 712,264 713,264 714,264 715,264 716,264 717,264 717,264 718,264 719,264 720,264 721,264 722,264 723,264 724,264 725,264 725,264 726,264 727,264 728,264 729,264 730,264 731,264 732,264 733,264 733,264 734,264 735,264 736,264 737,264 738,264 739,264 740,264 741,264 742,263 742,263 743,263 744,263 745,263 746,263 747,263 748,263 749,263 750,263 750,263 751,263 752,263 753,263 754,263 755,263 756,263 757,263 758,263 759,263 759,263 760,263 761,263 762,263 763,263 764,263 765,263 766,263 767,263 767,263 768,263 769,263 770,263 771,263 772,263 773,263 774,263 775,263 775,263 776,263 777,263 778,263 779,263 780,263 781,263 782,263 783,263 784,263 784,263 785,263 786,263 787,263 788,263 789,263 790,263 791,263 792,263 792,263 793,263 794,263 795,263 796,263 797,263 798,263 799,263 800,263 800,263 801,263 802,263 803,263 804,263 805,263 806,263 807,263 808,263 809,263 809,263 810,263 811,263 812,263 813,263 814,263 815,263 816,263 817,263 817,263 818,263 819,263 820,263 821,263 822,262 823,262 824,262 825,262 826,262 826,262 827,262 828,262 829,262 830,262 831,262 832,262 833,262 834,262 834,262 835,262 836,262 837,262 838,262 839,262 840,262 841,262 842,262 842,262 843,262 844,262 845,262 846,262 847,262 848,262 849,262 850,262 851,262 851,262 852,262 853,262 854,262 855,262 856,262 857,262 858,262 859,262 859,262 860,262 861,262 862,262 863,262 864,262 865,262 866,262 867,262 867,262 868,262 869,262 870,262 871,262 872,262 873,262 874,262 875,262 876,262 876,262 877,262 878,262 879,262 880,262 881,262 882,262 883,262 884,262 884,262 885,262 886,262 887,262 888,262 889,262 890,262 891,262 892,262 892,262 893,262 894,262 895,262 896,261 897,261 898,261 899,261 900,261 901,261 901,261 902,261 903,261 904,261 905,261 906,261 907,261 908,261 909,261 909,261 910,261 911,261 912,261 913,261 914,261 915,261 916,261 917,261 918,261 918,261 919,261 920,261 921,261 922,261 923,261 924,261 925,261 926,261 926,261 927,261 928,261 929,261 930,261 931,261 932,261 933,261 934,261 934,261 935,261 936,261 937,261 938,261 939,261 940,261 941,261 942,261 943,261 943,261 944,261 945,261 946,261 947,261 948,261 949,261 950,261 951,261 951,261 952,261 953,261 954,261 955,261 956,261 957,261 958,261 959,261 959,261 960,261 961,261 962,261 963,261 964,261 965,261 966,261 966,261 967,261 968,261 968,261 969,261 970,261 970,261 973,261 973,699 78,699 "/>
<polyline fill="none" opacity="1" stroke="#E6194B" stroke-width="1" points="78,699 79,699 80,699 81,699 81,699 82,699 83,699 84,699 85,699 86,699 87,699 88,699 89,699 89,699 90,699 91,699 92,699 93,699 94,699 95,699 96,699 97,699 98,699 98,699 99,699 100,699 101,699 102,699 103,699 104,699 105,699 106,699 106,699 107,699 108,699 109,699 110,699 111,699 112,699 113,699 114,699 115,699 115,699 116,699 117,699 118,699 119,699 120,699 121,699 122,699 123,699 123,699 124,699 125,699 126,699 127,699 128,699 129,699 130,699 131,699 131,699 132,699 133,699 134,699 135,699 136,699 137,699 138,699 139,699 140,699 140,699 141,699 142,699 143,699 144,699 145,699 146,699 147,699 148,699 148,699 149,699 150,699 151,699 152,699 153,699 154,699 155,699 156,699 156,699 157,699 158,699 159,699 160,699 161,699 162,699 163,699 164,699 165,699 165,699 166,699 167,699 168,699 169,699 170,699 171,699 172,699 173,699 173,699 174,699 175,699 176,699 177,699 178,699 179,699 180,699 181,699 181,699 182,699 183,699 184,699 185,699 186,699 187,699 188,699 189,699 190,699 190,699 191,699 192,699 193,699 194,699 195,699 196,699 197,699 198,699 198,699 199,699 200,699 201,699 202,699 203,699 204,699 205,699 206,699 207,699 207,699 208,699 209,699 210,699 211,699 212,699 213,699 214,699 215,699 215,699 216,699 217,699 218,699 219,699 220,699 221,699 222,699 223,699 223,699 224,699 225,699 226,699 227,699 228,699 229,699 230,699 231,699 232,699 232,699 233,699 234,699 235,699 236,699 237,699 238,699 239,699 240,699 240,699 241,699 242,699 243,699 244,699 245,699 246,699 247,699 248,699 248,699 249,699 250,699 251,699 252,699 253,699 254,699 255,699 256,699 257,699 257,699 258,699 259,699 260,699 261,699 262,699 263,699 264,699 265,699 265,699 266,699 267,699 268,699 269,699 270,699 271,699 272,699 273,699 273,699 274,699 275,699 276,699 277,699 278,699 279,699 280,699 281,699 282,699 282,699 283,699 284,699 285,699 286,699 287,699 288,699 289,699 290,699 290,699 291,699 292,699 293,699 294,699 295,699 296,699 297,699 298,699 299,699 299,699 300,699 301,699 302,699 303,699 304,699 305,699 306,699 307,699 307,699 308,699 309,699 310,699 311,699 312,699 313,699 314,699 315,699 315,699 316,699 317,699 318,699 319,699 320,699 321,699 322,699 323,699 324,699 324,699 325,699 326,699 327,699 328,699 329,699 330,699 331,699 332,699 332,699 333,699 334,699 335,699 336,699 337,699 338,699 339,699 340,699 340,699 341,699 342,699 343,699 344,699 345,699 346,699 347,699 348,699 349,699 349,699 350,699 351,699 352,699 353,699 354,699 355,699 356,699 357,699 357,699 358,699 359,699 360,699 361,699 362,699 363,699 364,699 365,699 365,699 366,699 367,699 368,699 369,699 370,699 371,699 372,699 373,699 374,699 374,699 375,699 376,699 377,699 378,699 379,699 380,699 381,699 382,699 382,699 383,699 384,699 385,699 386,699 387,699 388,699 389,699 390,699 391,699 391,699 392,699 393,699 394,699 395,699 396,699 397,699 398,699 399,699 399,699 400,699 401,699 402,699 403,699 404,699 405,699 406,699 407,699 407,699 408,699 409,699 410,699 411,699 412,699 413,699 414,699 415,699 416,699 416,699 417,699 418,699 419,699 420,699 421,699 422,699 423,699 424,699 424,699 425,699 426,699 427,699 428,699 429,699 430,699 431,699 432,699 432,699 433,699 434,699 435,699 436,699 437,699 438,699 439,696 440,623 441,511 441,431 442,355 443,302 444,272 445,272 446,272 447,272 448,272 449,272 449,272 450,272 451,272 452,271 453,271 454,271 455,271 456,271 457,271 457,271 458,271 459,271 460,271 461,271 462,271 463,271 464,271 465,271 466,271 466,271 467,271 468,271 469,271 470,271 471,271 472,271 473,271 474,271 474,271 475,271 476,271 477,271 478,271 479,271 480,271 481,271 482,271 483,271 483,271 484,271 485,271 486,271 487,271 488,271 489,271 490,271 491,271 491,271 492,271 493,271 494,271 495,271 496,271 497,271 498,271 499,271 499,271 500,271 501,271 502,271 503,271 504,271 505,271 506,271 507,271 508,271 508,271 509,271 510,271 511,271 512,271 513,271 514,271 515,271 516,271 516,271 517,271 518,271 519,271 520,271 521,271 522,271 523,271 524,271 524,271 525,271 526,271 527,271 528,271 529,266 530,266 531,266 532,266 533,266 533,266 534,266 535,266 536,266 537,266 538,266 539,266 540,266 541,266 541,266 542,266 543,266 544,266 545,266 546,266 547,266 548,266 549,266 549,266 550,266 551,266 552,266 553,266 554,266 555,266 556,266 557,266 558,266 558,266 559,266 560,266 561,266 562,266 563,266 564,266 565,266 566,266 566,266 567,266 568,266 569,266 570,266 571,266 572,266 573,266 574,266 575,266 575,266 576,266 577,265 578,265 579,265 580,265 581,265 582,265 583,265 583,265 584,265 585,265 586,265 587,265 588,265 589,265 590,265 591,265 591,265 592,265 593,265 594,265 595,265 596,265 597,265 598,265 599,265 600,265 600,265 601,265 602,265 603,265 604,265 605,265 606,265 607,265 608,265 608,265 609,265 610,265 611,265 612,265 613,265 614,265 615,265 616,265 616,265 617,265 618,265 619,265 620,265 621,265 622,265 623,265 624,265 625,265 625,265 626,265 627,265 628,265 629,265 630,265 631,265 632,265 633,265 633,265 634,265 635,265 636,265 637,265 638,265 639,265 640,265 641,265 641,265 642,265 643,265 644,265 645,265 646,265 647,265 648,265 649,265 650,265 650,265 651,265 652,265 653,265 654,265 655,265 656,265 657,265 658,265 658,265 659,265 660,265 661,265 662,265 663,265 664,265 665,265 666,265 667,265 667,265 668,265 669,265 670,265 671,265 672,265 673,265 674,265 675,265 675,265 676,265 677,265 678,265 679,265 680,265 681,265 682,265 683,265 683,265 684,265 685,265 686,264 687,264 688,264 689,264 690,264 691,264 692,264 692,264 693,264 694,264 695,264 696,264 697,264 698,264 699,264 700,264 700,264 701,264 702,264 703,264 704,264 705,264 706,264 707,264 708,264 708,264 709,264 710,264 711,264 712,264 713,264 714,264 715,264 716,264 717,264 717,264 718,264 719,264 720,264 721,264 722,264 723,264 724,264 725,264 725,264 726,264 727,264 728,264 729,264 730,264 731,264 732,264 733,264 733,264 734,264 735,264 736,264 737,264 738,264 739,264 740,264 741,264 742,263 742,263 743,263 744,263 745,263 746,263 747,263 748,263 749,263 750,263 750,263 751,263 752,263 753,263 754,263 755,263 756,263 757,263 758,263 759,263 759,263 760,263 761,263 762,263 763,263 764,263 765,263 766,263 767,263 767,263 768,263 769,263 770,263 771,263 772,263 773,263 774,263 775,263 775,263 776,263 777,263 778,263 779,263 780,263 781,263 782,263 783,263 784,263 784,263 785,263 786,263 787,263 788,263 789,263 790,263 791,263 792,263 792,263 793,263 794,263 795,263 796,263 797,263 798,263 799,263 800,263 800,263 801,263 802,263 803,263 804,263 805,263 806,263 807,263 808,263 809,263 809,263 810,263 811,263 812,263 813,263 814,263 815,263 816,263 817,263 817,263 818,263 819,263 820,263 821,263 822,262 823,262 824,262 825,262 826,262 826,262 827,262 828,262 829,262 830,262 831,262 832,262 833,262 834,262 834,262 835,262 836,262 837,262 838,262 839,262 840,262 841,262 842,262 842,262 843,262 844,262 845,262 846,262 847,262 848,262 849,262 850,262 851,262 851,262 852,262 853,262 854,262 855,262 856,262 857,262 858,262 859,262 859,262 860,262 861,262 862,262 863,262 864,262 865,262 866,262 867,262 867,262 868,262 869,262 870,262 871,262 872,262 873,262 874,262 875,262 876,262 876,262 877,262 878,262 879,262 880,262 881,262 882,262 883,262 884,262 884,262 885,262 886,262 887,262 888,262 889,262 890,262 891,262 892,262 892,262 893,262 894,262 895,262 896,261 897,261 898,261 899,261 900,261 901,261 901,261 902,261 903,261 904,261 905,261 906,261 907,261 908,261 909,261 909,261 910,261 911,261 912,261 913,261 914,261 915,261 916,261 917,261 918,261 918,261 919,261 920,261 921,261 922,261 923,261 924,261 925,261 926,261 926,261 927,261 928,261 929,261 930,261 931,261 932,261 933,261 934,261 934,261 935,261 936,261 937,261 938,261 939,261 940,261 941,261 942,261 943,261 943,261 944,261 945,261 946,261 947,261 948,261 949,261 950,261 951,261 951,261 952,261 953,261 954,261 955,261 956,261 957,261 958,261 959,261 959,261 960,261 961,261 962,261 963,261 964,261 965,261 966,261 966,261 967,261 968,261 968,261 969,261 970,261 970,261 973,261 "/>
<line opacity="0.1" stroke="#000000" stroke-width="1" x1="84" y1="699" x2="84" y2="68"/>
<line opacity="0.1" stroke="#000000" stroke-width="1" x1="95" y1="699" x2="95" y2="68"/>
<line opacity="0.1" stroke="#000000" stroke-width="1" x1="106" y1="699" x2="106" y2="68"/>
<line opacity="0.1" stroke="#000000" stroke-width="1" x1="118" y1="699" x2="118" y2="68"/>
<line opacity="0.1" stroke="#000000" stroke-width="1" x1="129" y1="699" x2="129" y2="68"/>
<line opacity="0.1" stroke="#000000" stroke-width="1" x1="140" y1="699" x2="140" y2="68"/>
<line opacity="0.1" stroke="#000000" stroke-width="1" x1="151" y1="699" x2="151" y2="68"/>
<line opacity="0.1" stroke="#000000" stroke-width="1" x1="162" y1="699" x2="162" y2="68"/>
<line opacity="0.1" stroke="#000000" stroke-width="1" x1="174" y1="699" x2="174" y2="68"/>
<line opacity="0.1" stroke="#000000" stroke-width="1" x1="185" y1="699" x2="185" y2="68"/>
<line opacity="0.1" stroke="#000000" stroke-width="1" x1="196" y1="699" x2="196" y2="68"/>
<line opacity="0.1" stroke="#000000" stroke-width="1" x1="207" y1="699" x2="207" y2="68"/>
<line opacity="0.1" stroke="#000000" stroke-width="1" x1="218" y1="699" x2="218" y2="68"/>
<line opacity="0.1" stroke="#000000" stroke-width="1" x1="229" y1="699" x2="229" y2="68"/>
<line opacity="0.1" stroke="#000000" stroke-width="1" x1="241" y1="699" x2="241" y2="68"/>
<line opacity="0.1" stroke="#000000" stroke-width="1" x1="252" y1="699" x2="252" y2="68"/>
<line opacity="0.1" stroke="#000000" stroke-width="1" x1="263" y1="699" x2="263" y2="68"/>
<line opacity="0.1" stroke="#000000" stroke-width="1" x1="274" y1="699" x2="274" y2="68"/>
<line opacity="0.1" stroke="#000000" stroke-width="1" x1="285" y1="699" x2="285" y2="68"/>
<line opacity="0.1" stroke="#000000" stroke-width="1" x1="297" y1="699" x2="297" y2="68"/>
<line opacity="0.1" stroke="#000000" stroke-width="1" x1="308" y1="699" x2="308" y2="68"/>
<line opacity="0.1" stroke="#000000" stroke-width="1" x1="319" y1="699" x2="319" y2="68"/>
<line opacity="0.1" stroke="#000000" stroke-width="1" x1="330" y1="699" x2="330" y2="68"/>
<line opacity="0.1" stroke="#000000" stroke-width="1" x1="341" y1="699" x2="341" y2="68"/>
<line opacity="0.1" stroke="#000000" stroke-width="1" x1="352" y1="699" x2="352" y2="68"/>
<line opacity="0.1" stroke="#000000" stroke-width="1" x1="364" y1="699" x2="364" y2="68"/>
<line opacity="0.1" stroke="#000000" stroke-width="1" x1="375" y1="699" x2="375" y2="68"/>
<line opacity="0.1" stroke="#000000" stroke-width="1" x1="386" y1="699" x2="386" y2="68"/>
<line opacity="0.1" stroke="#000000" stroke-width="1" x1="397" y1="699" x2="397" y2="68"/>
<line opacity="0.1" stroke="#000000" stroke-width="1" x1="408" y1="699" x2="408" y2="68"/>
<line opacity="0.1" stroke="#000000" stroke-width="1" x1="420" y1="699" x2="420" y2="68"/>
<line opacity="0.1" stroke="#000000" stroke-width="1" x1="431" y1="699" x2="431" y2="68"/>
<line opacity="0.1" stroke="#000000" stroke-width="1" x1="442" y1="699" x2="442" y2="68"/>
<line opacity="0.1" stroke="#000000" stroke-width="1" x1="453" y1="699" x2="453" y2="68"/>
<line opacity="0.1" stroke="#000000" stroke-width="1" x1="464" y1="699" x2="464" y2="68"/>
<line opacity="0.1" stroke="#000000" stroke-width="1" x1="476" y1="699" x2="476" y2="68"/>
<line opacity="0.1" stroke="#000000" stroke-width="1" x1="487" y1="699" x2="487" y2="68"/>
<line opacity="0.1" stroke="#000000" stroke-width="1" x1="498" y1="699" x2="498" y2="68"/>
<line opacity="0.1" stroke="#000000" stroke-width="1" x1="509" y1="699" x2="509" y2="68"/>
<line opacity="0.1" stroke="#000000" stroke-width="1" x1="520" y1="699" x2="520" y2="68"/>
<line opacity="0.1" stroke="#000000" stroke-width="1" x1="531" y1="699" x2="531" y2="68"/>
<line opacity="0.1" stroke="#000000" stroke-width="1" x1="543" y1="699" x2="543" y2="68"/>
<line opacity="0.1" stroke="#000000" stroke-width="1" x1="554" y1="699" x2="554" y2="68"/>
<line opacity="0.1" stroke="#000000" stroke-width="1" x1="565" y1="699" x2="565" y2="68"/>
<line opacity="0.1" stroke="#000000" stroke-width="1" x1="576" y1="699" x2="576" y2="68"/>
<line opacity="0.1" stroke="#000000" stroke-width="1" x1="587" y1="699" x2="587" y2="68"/>
<line opacity="0.1" stroke="#000000" stroke-width="1" x1="599" y1="699" x2="599" y2="68"/>
<line opacity="0.1" stroke="#000000" stroke-width="1" x1="610" y1="699" x2="610" y2="68"/>
<line opacity="0.1" stroke="#000000" stroke-width="1" x1="621" y1="699" x2="621" y2="68"/>
<line opacity="0.1" stroke="#000000" stroke-width="1" x1="632" y1="699" x2="632" y2="68"/>
<line opacity="0.1" stroke="#000000" stroke-width="1" x1="643" y1="699" x2="643" y2="68"/>
<line opacity="0.1" stroke="#000000" stroke-width="1" x1="654" y1="699" x2="654" y2="68"/>
<line opacity="0.1" stroke="#000000" stroke-width="1" x1="666" y1="699" x2="666" y2="68"/>
<line opacity="0.1" stroke="#000000" stroke-width="1" x1="677" y1="699" x2="677" y2="68"/>
<line opacity="0.1" stroke="#000000" stroke-width="1" x1="688" y1="699" x2="688" y2="68"/>
<line opacity="0.1" stroke="#000000" stroke-width="1" x1="699" y1="699" x2="699" y2="68"/>
<line opacity="0.1" stroke="#000000" stroke-width="1" x1="710" y1="699" x2="710" y2="68"/>
<line opacity="0.1" stroke="#000000" stroke-width="1" x1="722" y1="699" x2="722" y2="68"/>
<line opacity="0.1" stroke="#000000" stroke-width="1" x1="733" y1="699" x2="733" y2="68"/>
<line opacity="0.1" stroke="#000000" stroke-width="1" x1="744" y1="699" x2="744" y2="68"/>
<line opacity="0.1" stroke="#000000" stroke-width="1" x1="755" y1="699" x2="755" y2="68"/>
<line opacity="0.1" stroke="#000000" stroke-width="1" x1="766" y1="699" x2="766" y2="68"/>
<line opacity="0.1" stroke="#000000" stroke-width="1" x1="777" y1="699" x2="777" y2="68"/>
<line opacity="0.1" stroke="#000000" stroke-width="1" x1="789" y1="699" x2="789" y2="68"/>
<line opacity="0.1" stroke="#000000" stroke-width="1" x1="800" y1="699" x2="800" y2="68"/>
<line opacity="0.1" stroke="#000000" stroke-width="1" x1="811" y1="699" x2="811" y2="68"/>
<line opacity="0.1" stroke="#000000" stroke-width="1" x1="822" y1="699" x2="822" y2="68"/>
<line opacity="0.1" stroke="#000000" stroke-width="1" x1="833" y1="699" x2="833" y2="68"/>
<line opacity="0.1" stroke="#000000" stroke-width="1" x1="845" y1="699" x2="845" y2="68"/>
<line opacity="0.1" stroke="#000000" stroke-width="1" x1="856" y1="699" x2="856" y2="68"/>
<line opacity="0.1" stroke="#000000" stroke-width="1" x1="867" y1="699" x2="867" y2="68"/>
<line opacity="0.1" stroke="#000000" stroke-width="1" x1="878" y1="699" x2="878" y2="68"/>
<line opacity="0.1" stroke="#000000" stroke-width="1" x1="889" y1="699" x2="889" y2="68"/>
<line opacity="0.1" stroke="#000000" stroke-width="1" x1="900" y1="699" x2="900" y2="68"/>
<line opacity="0.1" stroke="#000000" stroke-width="1" x1="912" y1="699" x2="912" y2="68"/>
<line opacity="0.1" stroke="#000000" stroke-width="1" x1="923" y1="699" x2="923" y2="68"/>
<line opacity="0.1" stroke="#000000" stroke-width="1" x1="934" y1="699" x2="934" y2="68"/>
<line opacity="0.1" stroke="#000000" stroke-width="1" x1="945" y1="699" x2="945" y2="68"/>
<line opacity="0.1" stroke="#000000" stroke-width="1" x1="956" y1="699" x2="956" y2="68"/>
<line opacity="0.1" stroke="#000000" stroke-width="1" x1="968" y1="699" x2="968" y2="68"/>
<line opacity="0.1" stroke="#000000" stroke-width="1" x1="78" y1="699" x2="973" y2="699"/>
<line opacity="0.1" stroke="#000000" stroke-width="1" x1="78" y1="689" x2="973" y2="689"/>
<line opacity="0.1" stroke="#000000" stroke-width="1" x1="78" y1="679" x2="973" y2="679"/>
<line opacity="0.1" stroke="#000000" stroke-width="1" x1="78" y1="670" x2="973" y2="670"/>
<line opacity="0.1" stroke="#000000" stroke-width="1" x1="78" y1="660" x2="973" y2="660"/>
<line opacity="0.1" stroke="#000000" stroke-width="1" x1="78" y1="651" x2="973" y2="651"/>
<line opacity="0.1" stroke="#000000" stroke-width="1" x1="78" y1="641" x2="973" y2="641"/>
<line opacity="0.1" stroke="#000000" stroke-width="1" x1="78" y1="632" x2="973" y2="632"/>
<line opacity="0.1" stroke="#000000" stroke-width="1" x1="78" y1="622" x2="973" y2="622"/>
<line opacity="0.1" stroke="#000000" stroke-width="1" x1="78" y1="612" x2="973" y2="612"/>
<line opacity="0.1" stroke="#000000" stroke-width="1" x1="78" y1="603" x2="973" y2="603"/>
<line opacity="0.1" stroke="#000000" stroke-width="1" x1="78" y1="593" x2="973" y2="593"/>
<line opacity="0.1" stroke="#000000" stroke-width="1" x1="78" y1="584" x2="973" y2="584"/>
<line opacity="0.1" stroke="#000000" stroke-width="1" x1="78" y1="574" x2="973" y2="574"/>
<line opacity="0.1" stroke="#000000" stroke-width="1" x1="78" y1="565" x2="973" y2="565"/>
<line opacity="0.1" stroke="#000000" stroke-width="1" x1="78" y1="555" x2="973" y2="555"/>
<line opacity="0.1" stroke="#000000" stroke-width="1" x1="78" y1="545" x2="973" y2="545"/>
<line opacity="0.1" stroke="#000000" stroke-width="1" x1="78" y1="536" x2="973" y2="536"/>
<line opacity="0.1" stroke="#000000" stroke-width="1" x1="78" y1="526" x2="973" y2="526"/>
<line opacity="0.1" stroke="#000000" stroke-width="1" x1="78" y1="517" x2="973" y2="517"/>
<line opacity="0.1" stroke="#000000" stroke-width="1" x1="78" y1="507" x2="973" y2="507"/>
<line opacity="0.1" stroke="#000000" stroke-width="1" x1="78" y1="498" x2="973" y2="498"/>
<line opacity="0.1" stroke="#000000" stroke-width="1" x1="78" y1="488" x2="973" y2="488"/>
<line opacity="0.1" stroke="#000000" stroke-width="1" x1="78" y1="478" x2="973" y2="478"/>
<line opacity="0.1" stroke="#000000" stroke-width="1" x1="78" y1="469" x2="973" y2="469"/>
<line opacity="0.1" stroke="#000000" stroke-width="1" x1="78" y1="459" x2="973" y2="459"/>
<line opacity="0.1" stroke="#000000" stroke-width="1" x1="78" y1="450" x2="973" y2="450"/>
<line opacity="0.1" stroke="#000000" stroke-width="1" x1="78" y1="440" x2="973" y2="440"/>
<line opacity="0.1" stroke="#000000" stroke-width="1" x1="78" y1="431" x2="973" y2="431"/>
<line opacity="0.1" stroke="#000000" stroke-width="1" x1="78" y1="421" x2="973" y2="421"/>
<line opacity="0.1" stroke="#000000" stroke-width="1" x1="78" y1="411" x2="973" y2="411"/>
<line opacity="0.1" stroke="#000000" stroke-width="1" x1="78" y1="402" x2="973" y2="402"/>
<line opacity="0.1" stroke="#000000" stroke-width="1" x1="78" y1="392" x2="973" y2="392"/>
<line opacity="0.1" stroke="#000000" stroke-width="1" x1="78" y1="383" x2="973" y2="383"/>
<line opacity="0.1" stroke="#000000" stroke-width="1" x1="78" y1="373" x2="973" y2="373"/>
<line opacity="0.1" stroke="#000000" stroke-width="1" x1="78" y1="364" x2="973" y2="364"/>
<line opacity="0.1" stroke="#000000" stroke-width="1" x1="78" y1="354" x2="973" y2="354"/>
<line opacity="0.1" stroke="#000000" stroke-width="1" x1="78" y1="344" x2="973" y2="344"/>
<line opacity="0.1" stroke="#000000" stroke-width="1" x1="78" y1="335" x2="973" y2="335"/>
<line opacity="0.1" stroke="#000000" stroke-width="1" x1="78" y1="325" x2="973" y2="325"/>
<line opacity="0.1" stroke="#000000" stroke-width="1" x1="78" y1="316" x2="973" y2="316"/>
<line opacity="0.1" stroke="#000000" stroke-width="1" x1="78" y1="306" x2="973" y2="306"/>
<line opacity="0.1" stroke="#000000" stroke-width="1" x1="78" y1="297" x2="973" y2="297"/>
<line opacity="0.1" stroke="#000000" stroke-width="1" x1="78" y1="287" x2="973" y2="287"/>
<line opacity="0.1" stroke="#000000" stroke-width="1" x1="78" y1="277" x2="973" y2="277"/>
<line opacity="0.1" stroke="#000000" stroke-width="1" x1="78" y1="268" x2="973" y2="268"/>
<line opacity="0.1" stroke="#000000" stroke-width="1" x1="78" y1="258" x2="973" y2="258"/>
<line opacity="0.1" stroke="#000000" stroke-width="1" x1="78" y1="249" x2="973" y2="249"/>
<line opacity="0.1" stroke="#000000" stroke-width="1" x1="78" y1="239" x2="973" y2="239"/>
<line opacity="0.1" stroke="#000000" stroke-width="1" x1="78" y1="230" x2="973" y2="230"/>
<line opacity="0.1" stroke="#000000" stroke-width="1" x1="78" y1="220" x2="973" y2="220"/>
<line opacity="0.1" stroke="#000000" stroke-width="1" x1="78" y1="210" x2="973" y2="210"/>
<line opacity="0.1" stroke="#000000" stroke-width="1" x1="78" y1="201" x2="973" y2="201"/>
<line opacity="0.1" stroke="#000000" stroke-width="1" x1="78" y1="191" x2="973" y2="191"/>
<line opacity="0.1" stroke="#000000" stroke-width="1" x1="78" y1="182" x2="973" y2="182"/>
<line opacity="0.1" stroke="#000000" stroke-width="1" x1="78" y1="172" x2="973" y2="172"/>
<line opacity="0.1" stroke="#000000" stroke-width="1" x1="78" y1="163" x2="973" y2="163"/>
<line opacity="0.1" stroke="#000000" stroke-width="1" x1="78" y1="153" x2="973" y2="153"/>
<line opacity="0.1" stroke="#000000" stroke-width="1" x1="78" y1="143" x2="973" y2="143"/>
<line opacity="0.1" stroke="#000000" stroke-width="1" x1="78" y1="134" x2="973" y2="134"/>
<line opacity="0.1" stroke="#000000" stroke-width="1" x1="78" y1="124" x2="973" y2="124"/>
<line opacity="0.1" stroke="#000000" stroke-width="1" x1="78" y1="115" x2="973" y2="115"/>
<line opacity="0.1" stroke="#000000" stroke-width="1" x1="78" y1="105" x2="973" y2="105"/>
<line opacity="0.1" stroke="#000000" stroke-width="1" x1="78" y1="96" x2="973" y2="96"/>
<line opacity="0.1" stroke="#000000" stroke-width="1" x1="78" y1="86" x2="973" y2="86"/>
<line opacity="0.1" stroke="#000000" stroke-width="1" x1="78" y1="76" x2="973" y2="76"/>
<text x="8" y="384" dy="0.76em" text-anchor="middle" font-family="sans-serif" font-size="9.67741935483871" opacity="1" fill="#000000" transform="rotate(270, 8, 384)">
Memory usage
</text>
<text x="526" y="760" dy="-0.5ex" text-anchor="middle" font-family="sans-serif" font-size="9.67741935483871" opacity="1" fill="#000000">
Time
</text>
<line opacity="0.2" stroke="#000000" stroke-width="1" x1="106" y1="699" x2="106" y2="68"/>
<line opacity="0.2" stroke="#000000" stroke-width="1" x1="218" y1="699" x2="218" y2="68"/>
<line opacity="0.2" stroke="#000000" stroke-width="1" x1="330" y1="699" x2="330" y2="68"/>
<line opacity="0.2" stroke="#000000" stroke-width="1" x1="442" y1="699" x2="442" y2="68"/>
<line opacity="0.2" stroke="#000000" stroke-width="1" x1="554" y1="699" x2="554" y2="68"/>
<line opacity="0.2" stroke="#000000" stroke-width="1" x1="666" y1="699" x2="666" y2="68"/>
<line opacity="0.2" stroke="#000000" stroke-width="1" x1="777" y1="699" x2="777" y2="68"/>
<line opacity="0.2" stroke="#000000" stroke-width="1" x1="889" y1="699" x2="889" y2="68"/>
<line opacity="0.2" stroke="#000000" stroke-width="1" x1="78" y1="699" x2="973" y2="699"/>
<line opacity="0.2" stroke="#000000" stroke-width="1" x1="78" y1="603" x2="973" y2="603"/>
<line opacity="0.2" stroke="#000000" stroke-width="1" x1="78" y1="507" x2="973" y2="507"/>
<line opacity="0.2" stroke="#000000" stroke-width="1" x1="78" y1="411" x2="973" y2="411"/>
<line opacity="0.2" stroke="#000000" stroke-width="1" x1="78" y1="316" x2="973" y2="316"/>
<line opacity="0.2" stroke="#000000" stroke-width="1" x1="78" y1="220" x2="973" y2="220"/>
<line opacity="0.2" stroke="#000000" stroke-width="1" x1="78" y1="124" x2="973" y2="124"/>
<polyline fill="none" opacity="1" stroke="#000000" stroke-width="1" points="77,68 77,699 "/>
<text x="68" y="699" dy="0.5ex" text-anchor="end" font-family="sans-serif" font-size="9.67741935483871" opacity="1" fill="#000000">
0 MB
</text>
<polyline fill="none" opacity="1" stroke="#000000" stroke-width="1" points="72,699 77,699 "/>
<text x="68" y="603" dy="0.5ex" text-anchor="end" font-family="sans-serif" font-size="9.67741935483871" opacity="1" fill="#000000">
19 MB
</text>
<polyline fill="none" opacity="1" stroke="#000000" stroke-width="1" points="72,603 77,603 "/>
<text x="68" y="507" dy="0.5ex" text-anchor="end" font-family="sans-serif" font-size="9.67741935483871" opacity="1" fill="#000000">
38 MB
</text>
<polyline fill="none" opacity="1" stroke="#000000" stroke-width="1" points="72,507 77,507 "/>
<text x="68" y="411" dy="0.5ex" text-anchor="end" font-family="sans-serif" font-size="9.67741935483871" opacity="1" fill="#000000">
57 MB
</text>
<polyline fill="none" opacity="1" stroke="#000000" stroke-width="1" points="72,411 77,411 "/>
<text x="68" y="316" dy="0.5ex" text-anchor="end" font-family="sans-serif" font-size="9.67741935483871" opacity="1" fill="#000000">
76 MB
</text>
<polyline fill="none" opacity="1" stroke="#000000" stroke-width="1" points="72,316 77,316 "/>
<text x="68" y="220" dy="0.5ex" text-anchor="end" font-family="sans-serif" font-size="9.67741935483871" opacity="1" fill="#000000">
95 MB
</text>
<polyline fill="none" opacity="1" stroke="#000000" stroke-width="1" points="72,220 77,220 "/>
<text x="68" y="124" dy="0.5ex" text-anchor="end" font-family="sans-serif" font-size="9.67741935483871" opacity="1" fill="#000000">
114 MB
</text>
<polyline fill="none" opacity="1" stroke="#000000" stroke-width="1" points="72,124 77,124 "/>
<polyline fill="none" opacity="1" stroke="#000000" stroke-width="1" points="78,700 973,700 "/>
<text x="106" y="710" dy="0.76em" text-anchor="middle" font-family="sans-serif" font-size="9.67741935483871" opacity="1" fill="#000000">
07 20:33:20
</text>
<polyline fill="none" opacity="1" stroke="#000000" stroke-width="1" points="106,700 106,705 "/>
<text x="218" y="710" dy="0.76em" text-anchor="middle" font-family="sans-serif" font-size="9.67741935483871" opacity="1" fill="#000000">
08 10:26:40
</text>
<polyline fill="none" opacity="1" stroke="#000000" stroke-width="1" points="218,700 218,705 "/>
<text x="330" y="710" dy="0.76em" text-anchor="middle" font-family="sans-serif" font-size="9.67741935483871" opacity="1" fill="#000000">
09 00:20:00
</text>
<polyline fill="none" opacity="1" stroke="#000000" stroke-width="1" points="330,700 330,705 "/>
<text x="442" y="710" dy="0.76em" text-anchor="middle" font-family="sans-serif" font-size="9.67741935483871" opacity="1" fill="#000000">
09 14:13:20
</text>
<polyline fill="none" opacity="1" stroke="#000000" stroke-width="1" points="442,700 442,705 "/>
<text x="554" y="710" dy="0.76em" text-anchor="middle" font-family="sans-serif" font-size="9.67741935483871" opacity="1" fill="#000000">
10 04:06:40
</text>
<polyline fill="none" opacity="1" stroke="#000000" stroke-width="1" points="554,700 554,705 "/>
<text x="666" y="710" dy="0.76em" text-anchor="middle" font-family="sans-serif" font-size="9.67741935483871" opacity="1" fill="#000000">
10 18:00:00
</text>
<polyline fill="none" opacity="1" stroke="#000000" stroke-width="1" points="666,700 666,705 "/>
<text x="777" y="710" dy="0.76em" text-anchor="middle" font-family="sans-serif" font-size="9.67741935483871" opacity="1" fill="#000000">
11 07:53:20
</text>
<polyline fill="none" opacity="1" stroke="#000000" stroke-width="1" points="777,700 777,705 "/>
<text x="889" y="710" dy="0.76em" text-anchor="middle" font-family="sans-serif" font-size="9.67741935483871" opacity="1" fill="#000000">
11 21:46:40
</text>
<polyline fill="none" opacity="1" stroke="#000000" stroke-width="1" points="889,700 889,705 "/>
<polyline fill="none" opacity="1" stroke="#000000" stroke-width="1" points="78,67 974,67 "/>
<text x="106" y="58" dy="-0.5ex" text-anchor="middle" font-family="sans-serif" font-size="9.67741935483871" opacity="1" fill="#000000">
+03:35:44
</text>
<polyline fill="none" opacity="1" stroke="#000000" stroke-width="1" points="106,62 106,67 "/>
<text x="218" y="58" dy="-0.5ex" text-anchor="middle" font-family="sans-serif" font-size="9.67741935483871" opacity="1" fill="#000000">
+17:29:04
</text>
<polyline fill="none" opacity="1" stroke="#000000" stroke-width="1" points="218,62 218,67 "/>
<text x="330" y="58" dy="-0.5ex" text-anchor="middle" font-family="sans-serif" font-size="9.67741935483871" opacity="1" fill="#000000">
+31:22:24
</text>
<polyline fill="none" opacity="1" stroke="#000000" stroke-width="1" points="330,62 330,67 "/>
<text x="442" y="58" dy="-0.5ex" text-anchor="middle" font-family="sans-serif" font-size="9.67741935483871" opacity="1" fill="#000000">
+45:15:44
</text>
<polyline fill="none" opacity="1" stroke="#000000" stroke-width="1" points="442,62 442,67 "/>
<text x="554" y="58" dy="-0.5ex" text-anchor="middle" font-family="sans-serif" font-size="9.67741935483871" opacity="1" fill="#000000">
+59:09:04
</text>
<polyline fill="none" opacity="1" stroke="#000000" stroke-width="1" points="554,62 554,67 "/>
<text x="666" y="58" dy="-0.5ex" text-anchor="middle" font-family="sans-serif" font-size="9.67741935483871" opacity="1" fill="#000000">
+73:02:24
</text>
<polyline fill="none" opacity="1" stroke="#000000" stroke-width="1" points="666,62 666,67 "/>
<text x="778" y="58" dy="-0.5ex" text-anchor="middle" font-family="sans-serif" font-size="9.67741935483871" opacity="1" fill="#000000">
+86:55:44
</text>
<polyline fill="none" opacity="1" stroke="#000000" stroke-width="1" points="778,62 778,67 "/>
<text x="890" y="58" dy="-0.5ex" text-anchor="middle" font-family="sans-serif" font-size="9.67741935483871" opacity="1" fill="#000000">
+100:49:04
</text>
<polyline fill="none" opacity="1" stroke="#000000" stroke-width="1" points="890,62 890,67 "/>
<rect x="83" y="73" width="99" height="45" opacity="0.75" fill="#FFFFFF" stroke="none"/>
<rect x="83" y="73" width="99" height="45" opacity="1" fill="none" stroke="#000000"/>
<text x="123" y="83" dy="0.76em" text-anchor="start" font-family="sans-serif" font-size="9.67741935483871" opacity="1" fill="#000000">
Temporary
</text>
<text x="123" y="98" dy="0.76em" text-anchor="start" font-family="sans-serif" font-size="9.67741935483871" opacity="1" fill="#000000">
Leaked
</text>
<rect x="93" y="83" width="10" height="10" opacity="1" fill="#3CB44B" stroke="none"/>
<rect x="93" y="98" width="10" height="10" opacity="1" fill="#E6194B" stroke="none"/>
</svg>
